<svg width="24" height="24" viewBox="0 0 24 24" fill="none" xmlns="http://www.w3.org/2000/svg">
<path d="M12 11C16.9706 11 21 9.20914 21 7C21 4.79086 16.9706 3 12 3C7.02944 3 3 4.79086 3 7C3 9.20914 7.02944 11 12 11Z" stroke="#E7E8EA" stroke-width="2" stroke-miterlimit="10" stroke-linecap="round" stroke-linejoin="round"/>
<path d="M12 21C15.3137 21 18 17.866 18 14C18 10.134 15.3137 7 12 7C8.68629 7 6 10.134 6 14C6 17.866 8.68629 21 12 21Z" stroke="#E7E8EA" stroke-width="2" stroke-miterlimit="10" stroke-linecap="round" stroke-linejoin="round"/>
<path d="M10.5 16.1C11.3 14.8 12.7 14.8 13.5 16.1" stroke="#E7E8EA" stroke-width="2" stroke-miterlimit="10" stroke-linecap="round" stroke-linejoin="round"/>
</svg>
