<svg width="24" height="24" viewBox="0 0 24 24" fill="none" xmlns="http://www.w3.org/2000/svg">
<path d="M16.0434 7.986V13.3908C16.0434 14.692 16.9446 15.7929 18.1462 15.9931C19.3478 16.1933 20.4493 15.2925 20.7497 14.0914C21.0501 12.6902 21.1502 11.1888 20.6495 9.68751C19.7483 6.18441 16.7443 3.5821 13.1395 3.08165C7.23167 2.28094 2.12487 7.48556 3.12621 13.591C3.72701 17.2943 6.83114 20.2969 10.5361 20.8975C13.2397 21.2978 15.743 20.4971 17.5454 18.9958M12.0381 15.9931C9.83514 15.9931 8.03274 14.1915 8.03274 11.9896C8.03274 9.7876 9.83514 7.986 12.0381 7.986C14.241 7.986 16.0434 9.7876 16.0434 11.9896C16.0434 14.1915 14.241 15.9931 12.0381 15.9931Z" stroke="#E7E8EA" stroke-width="2" stroke-miterlimit="10" stroke-linecap="round"/>
</svg>
