<svg width="24" height="24" viewBox="0 0 24 24" fill="none" xmlns="http://www.w3.org/2000/svg">
<path d="M21.1001 16C21.1001 16.6 20.5001 17.1 19.4001 17.5C18.5001 17.8 17.4001 18 16.1001 18C14.8001 18 13.7001 17.8 12.8001 17.5C11.8001 17.1 11.1001 16.6 11.1001 16C11.1001 14.9 13.3001 14 16.1001 14C18.9001 14 21.1001 14.9 21.1001 16Z" stroke="#E7E8EA" stroke-width="2" stroke-miterlimit="10" stroke-linecap="round" stroke-linejoin="round"/>
<path d="M21.1001 16V19C21.1001 19.6 20.4001 20.1 19.4001 20.5C18.5001 20.8 17.4001 21 16.1001 21C14.8001 21 13.7001 20.8 12.8001 20.5C11.8001 20.1 11.1001 19.6 11.1001 19V16C11.1001 16.6 11.8001 17.1 12.8001 17.5C13.7001 17.8 14.9001 18 16.1001 18C17.4001 18 18.5001 17.8 19.4001 17.5C20.4001 17.1 21.1001 16.6 21.1001 16Z" stroke="#E7E8EA" stroke-width="2" stroke-miterlimit="10" stroke-linecap="round" stroke-linejoin="round"/>
<path d="M13.1001 7H11.1001L9.1001 3H15.1001L13.1001 7Z" stroke="#E7E8EA" stroke-width="2" stroke-miterlimit="10" stroke-linecap="round" stroke-linejoin="round"/>
<path d="M17.3999 10C16.2999 8.2 14.2999 7 12.0999 7C10.5999 7 9.19989 7.5 8.19989 8.4C7.09989 9.2 6.29989 10.5 5.99989 11.9L5.09989 16.2C4.59989 18.4 5.99989 20.4 8.09989 20.9" stroke="#E7E8EA" stroke-width="2" stroke-miterlimit="10" stroke-linecap="round" stroke-linejoin="round"/>
</svg>
