<svg width="24" height="24" viewBox="0 0 24 24" fill="none" xmlns="http://www.w3.org/2000/svg">
<path d="M14.1001 14C14.1001 15.1 13.2001 16 12.1001 16C11.0001 16 10.1001 15.1 10.1001 14C10.1001 12.9 11.0001 12 12.1001 12C13.2001 12 14.1001 12.9 14.1001 14Z" stroke="currentColor" stroke-width="2" stroke-linecap="round" stroke-linejoin="round"/>
<path d="M13.1001 7H11.1001L9.1001 3H15.1001L13.1001 7Z" stroke="currentColor" stroke-width="2" stroke-miterlimit="10" stroke-linecap="round" stroke-linejoin="round"/>
<path d="M12.1001 7C9.10006 7 6.60006 9 6.00006 11.9L5.10006 16.2C4.60006 18.6 6.50006 21 9.00006 21H15.1001C17.6001 21 19.5001 18.7 19.0001 16.2L18.1001 11.9C17.5001 9 15.0001 7 12.1001 7Z" stroke="currentColor" stroke-width="2" stroke-miterlimit="10" stroke-linecap="round" stroke-linejoin="round"/>
</svg>
