<svg width="24" height="24" viewBox="0 0 24 24" fill="none" xmlns="http://www.w3.org/2000/svg">
<path d="M12 3V1" stroke="#E7E8EA" stroke-width="2" stroke-miterlimit="10" stroke-linecap="round" stroke-linejoin="round"/>
<path d="M21 12C21 15.6 18.9 18.7 15.8 20.2C14.6 20.7 13.3 21 12 21C10.7 21 9.4 20.7 8.2 20.2C7.2 19.8 6.4 19.1 5.6 18.4C4 16.7 3 14.5 3 12C3 10.5 3.4 9.1 4 7.8C5.5 5 8.5 3 12 3C12.4 3 12.8 3 13.2 3.1C16.8 3.6 19.8 6.2 20.7 9.7C20.9 10.4 21 11.2 21 12Z" stroke="#E7E8EA" stroke-width="2" stroke-miterlimit="10" stroke-linecap="round" stroke-linejoin="round"/>
<path d="M3 12.7C3 12.5 3 12.3 3 12C3 11.7 3 11.6 3 11.3C3.3 8.1 6.1 5.5 9.4 5.5C12.8 5.5 15.6 8.2 15.8 11.5C15.8 11.6 15.8 11.8 15.8 11.9C15.8 12 15.8 12.2 15.8 12.3" stroke="#E7E8EA" stroke-width="2" stroke-miterlimit="10" stroke-linecap="round" stroke-linejoin="round"/>
<path d="M8 12C8 14.1 9.7 15.9 11.9 15.9C14 15.9 15.8 14.2 15.8 12" stroke="#E7E8EA" stroke-width="2" stroke-miterlimit="10" stroke-linecap="round" stroke-linejoin="round"/>
</svg>
