<svg width="24" height="24" viewBox="0 0 24 24" fill="none" xmlns="http://www.w3.org/2000/svg">
<path d="M20.9999 3L18.3999 5.6" stroke="#E7E8EA" stroke-width="2" stroke-miterlimit="10" stroke-linecap="round" stroke-linejoin="round"/>
<path d="M11.2 12.8C12.2 13.8 13.9 13.8 14.9 12.8C15.9 11.8 15.9 10.1 14.9 9.09998C13.9 8.09998 12.2 8.09998 11.2 9.09998C10.1 10.2 10.1 11.8 11.2 12.8Z" stroke="#E7E8EA" stroke-width="2" stroke-linecap="round" stroke-linejoin="round"/>
<path d="M5.6001 18.4C7.1001 19.9 9.6001 19.9 11.1001 18.4C12.6001 16.9 12.6001 14.4 11.1001 12.9C9.6001 11.4 7.1001 11.4 5.6001 12.9C4.1001 14.4 4.1001 16.8 5.6001 18.4Z" stroke="#E7E8EA" stroke-width="2" stroke-linecap="round" stroke-linejoin="round"/>
<path d="M5.63231 18.3677C9.14206 21.8774 14.8579 21.8774 18.3677 18.3677C21.8774 14.8579 21.8774 9.14206 18.3677 5.63231C14.8579 2.12256 9.14206 2.12256 5.63231 5.63231C2.12256 9.14206 2.12256 14.8579 5.63231 18.3677Z" stroke="#E7E8EA" stroke-width="2" stroke-miterlimit="10" stroke-linecap="round" stroke-linejoin="round"/>
</svg>
