<svg width="24" height="24" viewBox="0 0 24 24" fill="none" xmlns="http://www.w3.org/2000/svg">
<path d="M17 16C17 18.8 14.8 21 12 21C9.2 21 7 18.8 7 16C7 15.6 7 15.2 7.2 14.8C7.4 13.6 8.1 12.7 9 12C9.8 11.4 10.9 11 12 11C13.1 11 14.2 11.4 15 12C15.9 12.7 16.6 13.6 16.8 14.8C17 15.2 17 15.6 17 16Z" stroke="#E7E8EA" stroke-width="2" stroke-miterlimit="10" stroke-linecap="round" stroke-linejoin="round"/>
<path d="M9 12C8.1 12.7 7.4 13.6 7.2 14.8C6.8 14.9 6.4 15 6 15C4.4 15 3 13.7 3 12C3 10.3 4.4 9 6 9C7.7 9 9 10.3 9 12Z" stroke="#E7E8EA" stroke-width="2" stroke-miterlimit="10" stroke-linecap="round" stroke-linejoin="round"/>
<path d="M21 12C21 13.7 19.7 15 18 15C17.6 15 17.2 14.9 16.8 14.8C16.5 13.7 15.9 12.7 15 12C15 10.3 16.3 9 18 9C19.7 9 21 10.3 21 12Z" stroke="#E7E8EA" stroke-width="2" stroke-miterlimit="10" stroke-linecap="round" stroke-linejoin="round"/>
<path d="M12 11V3" stroke="#E7E8EA" stroke-width="2" stroke-miterlimit="10" stroke-linecap="round" stroke-linejoin="round"/>
<path d="M6 9V3" stroke="#E7E8EA" stroke-width="2" stroke-miterlimit="10" stroke-linecap="round" stroke-linejoin="round"/>
<path d="M18 9V3" stroke="#E7E8EA" stroke-width="2" stroke-miterlimit="10" stroke-linecap="round" stroke-linejoin="round"/>
</svg>
