<svg width="24" height="24" viewBox="0 0 24 24" fill="none" xmlns="http://www.w3.org/2000/svg">
<path d="M21 2.99998L18.4 5.59998" stroke="#E7E8EA" stroke-width="2" stroke-miterlimit="10" stroke-linecap="round" stroke-linejoin="round"/>
<path d="M14.7 14.7C13.2 16.2 10.8 16.2 9.20001 14.7C7.70001 13.2 7.70001 10.8 9.20001 9.19999L9.00001 9.59999C9.10001 9.49999 9.20001 9.39999 9.30001 9.29999C9.40001 9.19999 9.50001 9.09999 9.60001 8.99999C12.1 6.69999 16 6.79999 18.4 9.29999C20.8 11.7 20.9 15.4 18.8 17.9C18.7 18 18.5 18.2 18.4 18.4C18.2 18.5 18 18.7 17.9 18.8" stroke="#E7E8EA" stroke-width="2" stroke-miterlimit="10" stroke-linecap="round" stroke-linejoin="round"/>
<path d="M5.63231 18.3677C9.14206 21.8774 14.8579 21.8774 18.3677 18.3677C21.8774 14.8579 21.8774 9.14206 18.3677 5.63231C14.8579 2.12256 9.14206 2.12256 5.63231 5.63231C2.12256 9.14206 2.12256 14.8579 5.63231 18.3677Z" stroke="#E7E8EA" stroke-width="2" stroke-miterlimit="10" stroke-linecap="round" stroke-linejoin="round"/>
</svg>
