<svg width="24" height="24" viewBox="0 0 24 24" fill="none" xmlns="http://www.w3.org/2000/svg">
<path d="M20.9999 3L18.3999 5.6" stroke="#E7E8EA" stroke-width="2" stroke-miterlimit="10" stroke-linecap="round" stroke-linejoin="round"/>
<path d="M14.4 14.4L9.5 14.5L9.6 9.6C9.6 8.5 10.5 7.5 11.7 7.5C12.3 7.5 12.8 7.7 13.1 8.1C13.5 8.5 13.7 8.9 13.7 9.5V10.3H14.5C15.6 10.3 16.5 11.1 16.5 12.3C16.5 13.5 15.5 14.4 14.4 14.4Z" stroke="#E7E8EA" stroke-width="2" stroke-linecap="round" stroke-linejoin="round"/>
<path d="M5.63231 18.3677C9.14206 21.8774 14.8579 21.8774 18.3677 18.3677C21.8774 14.8579 21.8774 9.14206 18.3677 5.63231C14.8579 2.12256 9.14206 2.12256 5.63231 5.63231C2.12256 9.14206 2.12256 14.8579 5.63231 18.3677Z" stroke="#E7E8EA" stroke-width="2" stroke-miterlimit="10" stroke-linecap="round" stroke-linejoin="round"/>
</svg>
