<svg width="24" height="24" viewBox="0 0 24 24" fill="none" xmlns="http://www.w3.org/2000/svg">
<path d="M12 21C16.9706 21 21 16.9706 21 12C21 7.02944 16.9706 3 12 3C7.02944 3 3 7.02944 3 12C3 16.9706 7.02944 21 12 21Z" stroke="#E7E8EA" stroke-width="2" stroke-linecap="round" stroke-linejoin="round"/>
<path d="M12 3V1" stroke="#E7E8EA" stroke-width="2" stroke-linecap="round" stroke-linejoin="round"/>
<path d="M11.9999 13.2C13.4358 13.2 14.5999 12.0359 14.5999 10.6C14.5999 9.16406 13.4358 8 11.9999 8C10.564 8 9.3999 9.16406 9.3999 10.6C9.3999 12.0359 10.564 13.2 11.9999 13.2Z" stroke="#E7E8EA" stroke-width="2" stroke-linecap="round" stroke-linejoin="round"/>
<path d="M12.0001 21C14.154 21 15.9001 19.2539 15.9001 17.1C15.9001 14.946 14.154 13.2 12.0001 13.2C9.84619 13.2 8.1001 14.946 8.1001 17.1C8.1001 19.2539 9.84619 21 12.0001 21Z" stroke="#E7E8EA" stroke-width="2" stroke-linecap="round" stroke-linejoin="round"/>
</svg>
