<svg width="24" height="24" viewBox="0 0 24 24" fill="none" xmlns="http://www.w3.org/2000/svg">
<path d="M12 21C16.9706 21 21 16.9706 21 12C21 7.02944 16.9706 3 12 3C7.02944 3 3 7.02944 3 12C3 16.9706 7.02944 21 12 21Z" stroke="#E7E8EA" stroke-width="2" stroke-linecap="round" stroke-linejoin="round"/>
<path d="M12 3V1" stroke="#E7E8EA" stroke-width="2" stroke-linecap="round" stroke-linejoin="round"/>
<path d="M15.4 12L12 15.5L8.6 12C7.8 11.2 7.8 9.9 8.6 9.1C9 8.7 9.5 8.5 10 8.5C10.5 8.5 11 8.7 11.4 9.1L12 9.7L12.6 9.1C13.4 8.3 14.6 8.3 15.4 9.1C16.2 9.9 16.2 11.2 15.4 12Z" stroke="#E7E8EA" stroke-width="2" stroke-linecap="round" stroke-linejoin="round"/>
</svg>
