<svg width="24" height="24" viewBox="0 0 24 24" fill="none" xmlns="http://www.w3.org/2000/svg">
<path d="M12 21C16.9706 21 21 16.9706 21 12C21 7.02944 16.9706 3 12 3C7.02944 3 3 7.02944 3 12C3 16.9706 7.02944 21 12 21Z" stroke="#E7E8EA" stroke-width="2" stroke-miterlimit="10" stroke-linecap="round" stroke-linejoin="round"/>
<path d="M20.9999 3L18.3999 5.6" stroke="#E7E8EA" stroke-width="2" stroke-miterlimit="10" stroke-linecap="round" stroke-linejoin="round"/>
<path d="M10.2001 20.8C8.5001 20.5 6.9001 19.6 5.6001 18.3C4.3001 17 3.5001 15.4 3.1001 13.7C5.1001 12.1 8.0001 12.2 9.8001 14C11.7001 16 11.8001 18.9 10.2001 20.8Z" stroke="#E7E8EA" stroke-width="2" stroke-miterlimit="10" stroke-linecap="round" stroke-linejoin="round"/>
<path d="M13.7 20.8C12.5 21 11.3 21 10.2 20.8C8.49995 20.5 6.89995 19.6 5.59995 18.3C4.29995 17 3.49995 15.4 3.09995 13.7C2.89995 12.5 2.89995 11.3 3.09995 10.2C5.99995 7.60004 10.5 7.70004 13.3 10.5C16.2 13.4 16.3 17.9 13.7 20.8Z" stroke="#E7E8EA" stroke-width="2" stroke-miterlimit="10" stroke-linecap="round" stroke-linejoin="round"/>
</svg>
