<svg width="24" height="24" viewBox="0 0 24 24" fill="none" xmlns="http://www.w3.org/2000/svg">
<path d="M12 3V1" stroke="#E7E8EA" stroke-width="2" stroke-miterlimit="10" stroke-linecap="round" stroke-linejoin="round"/>
<path d="M3 12C3 15.6 5.1 18.7 8.2 20.2C9.4 20.7 10.7 21 12 21C13.3 21 14.6 20.7 15.8 20.2C16.8 19.8 17.6 19.1 18.4 18.4C20 16.7 21 14.5 21 12C21 10.5 20.6 9.1 20 7.8C18.5 5 15.5 3 12 3C11.6 3 11.2 3 10.8 3.1C7.2 3.6 4.2 6.2 3.3 9.7C3.1 10.4 3 11.2 3 12Z" stroke="#E7E8EA" stroke-width="2" stroke-miterlimit="10" stroke-linecap="round" stroke-linejoin="round"/>
<path d="M21 12.7C21 12.5 21 12.3 21 12C21 11.7 21 11.6 21 11.3C20.7 8.1 17.9 5.5 14.6 5.5C11.2 5.5 8.4 8.2 8.2 11.5C8.2 11.6 8.2 11.8 8.2 11.9C8.2 12 8.2 12.2 8.2 12.3" stroke="#E7E8EA" stroke-width="2" stroke-miterlimit="10" stroke-linecap="round" stroke-linejoin="round"/>
<path d="M15.8999 12C15.8999 14.1 14.1999 15.9 11.9999 15.9C9.8999 15.9 8.0999 14.2 8.0999 12" stroke="#E7E8EA" stroke-width="2" stroke-miterlimit="10" stroke-linecap="round" stroke-linejoin="round"/>
</svg>
