<svg width="24" height="24" viewBox="0 0 24 24" fill="none" xmlns="http://www.w3.org/2000/svg">
<path d="M12 21C16.9706 21 21 16.9706 21 12C21 7.02944 16.9706 3 12 3C7.02944 3 3 7.02944 3 12C3 16.9706 7.02944 21 12 21Z" stroke="#E7E8EA" stroke-width="2" stroke-miterlimit="10" stroke-linecap="round" stroke-linejoin="round"/>
<path d="M20.9999 3L18.3999 5.6" stroke="#E7E8EA" stroke-width="2" stroke-miterlimit="10" stroke-linecap="round" stroke-linejoin="round"/>
<path d="M3.8999 7.99997C4.8999 7.79997 5.8999 8.09997 6.6999 8.79997C7.8999 9.99997 7.8999 11.9 6.6999 13" stroke="#E7E8EA" stroke-width="2" stroke-miterlimit="10" stroke-linecap="round" stroke-linejoin="round"/>
<path d="M6.69995 13.1C7.89995 11.9 9.79995 11.9 10.9 13.1C12 14.3 12.1 16.2 10.9 17.3" stroke="#E7E8EA" stroke-width="2" stroke-miterlimit="10" stroke-linecap="round" stroke-linejoin="round"/>
<path d="M10.8999 17.3C12.0999 16.1 13.9999 16.1 15.0999 17.3C15.7999 18 16.0999 19.1 15.8999 20.1" stroke="#E7E8EA" stroke-width="2" stroke-miterlimit="10" stroke-linecap="round" stroke-linejoin="round"/>
<path d="M8.5 3.70002C9.4 3.60002 10.3 3.90002 11 4.60002C12.2 5.80002 12.2 7.70002 11 8.80002" stroke="#E7E8EA" stroke-width="2" stroke-miterlimit="10" stroke-linecap="round" stroke-linejoin="round"/>
<path d="M10.8999 8.80002C12.0999 7.60002 13.9999 7.60002 15.0999 8.80002C16.1999 10 16.2999 11.9 15.0999 13" stroke="#E7E8EA" stroke-width="2" stroke-miterlimit="10" stroke-linecap="round" stroke-linejoin="round"/>
<path d="M15.2 13.1C16.4 11.9 18.3 11.9 19.4 13.1C20.1 13.8 20.4 14.7 20.3 15.6" stroke="#E7E8EA" stroke-width="2" stroke-miterlimit="10" stroke-linecap="round" stroke-linejoin="round"/>
</svg>
