<svg width="24" height="24" viewBox="0 0 24 24" fill="none" xmlns="http://www.w3.org/2000/svg">
<path d="M20.9999 3L18.3999 5.6" stroke="#E7E8EA" stroke-width="2" stroke-miterlimit="10" stroke-linecap="round" stroke-linejoin="round"/>
<path d="M9.29995 9.29999C7.79995 10.8 7.79995 13.2 9.29995 14.8C10.8 16.3 13.2 16.3 14.8 14.8L14.4 15C14.5 14.9 14.6 14.8 14.7 14.7C14.8 14.6 14.9 14.5 15 14.4C17.3 11.9 17.2 7.99999 14.7 5.59999C12.3 3.19999 8.59995 3.09999 6.09995 5.19999C5.99995 5.29999 5.79995 5.49999 5.59995 5.59999C5.49995 5.79999 5.29995 5.99999 5.19995 6.09999" stroke="#E7E8EA" stroke-width="2" stroke-miterlimit="10" stroke-linecap="round" stroke-linejoin="round"/>
<path d="M5.63231 18.3677C9.14206 21.8774 14.8579 21.8774 18.3677 18.3677C21.8774 14.8579 21.8774 9.14206 18.3677 5.63231C14.8579 2.12256 9.14206 2.12256 5.63231 5.63231C2.12256 9.14206 2.12256 14.8579 5.63231 18.3677Z" stroke="#E7E8EA" stroke-width="2" stroke-miterlimit="10" stroke-linecap="round" stroke-linejoin="round"/>
</svg>
