<svg width="24" height="24" viewBox="0 0 24 24" fill="none" xmlns="http://www.w3.org/2000/svg">
<path d="M21 12C21 13.8 20.4 15.6 19.5 17C18.8 18 18 18.8 17 19.5C15.6 20.5 13.9 21 12 21C10.2 21 8.5 20.5 7 19.5C6 18.8 5.2 18 4.5 17C3.5 15.6 3 13.8 3 12C3 7 7 3 12 3C17 3 21 7 21 12Z" stroke="#E7E8EA" stroke-width="2" stroke-miterlimit="10" stroke-linecap="round" stroke-linejoin="round"/>
<path d="M17 19.5C15.6 20.5 13.9 21 12 21C10.2 21 8.5 20.5 7 19.5C7.3 17 9.4 15 12 15C14.6 15 16.7 17 17 19.5Z" stroke="#E7E8EA" stroke-width="2" stroke-miterlimit="10" stroke-linecap="round" stroke-linejoin="round"/>
<path d="M19.5 17C18.8 18 18 18.8 17 19.5C15.6 20.5 13.9 21 12 21C10.2 21 8.5 20.5 7 19.5C6 18.8 5.2 18 4.5 17C4.7 13.1 8 10 12 10C16 10 19.2 13.1 19.5 17Z" stroke="#E7E8EA" stroke-width="2" stroke-miterlimit="10" stroke-linecap="round" stroke-linejoin="round"/>
<path d="M12 3V1" stroke="#E7E8EA" stroke-width="2" stroke-miterlimit="10" stroke-linecap="round" stroke-linejoin="round"/>
</svg>
