<svg width="24" height="24" viewBox="0 0 24 24" fill="none" xmlns="http://www.w3.org/2000/svg">
<path d="M21.0999 3.09998L18.3999 5.69998" stroke="#E7E8EA" stroke-width="2" stroke-miterlimit="10" stroke-linecap="round" stroke-linejoin="round"/>
<path d="M5.63231 18.3677C9.14206 21.8774 14.8579 21.8774 18.3677 18.3677C21.8774 14.8579 21.8774 9.14206 18.3677 5.63231C14.8579 2.12256 9.14206 2.12256 5.63231 5.63231C2.12256 9.14206 2.12256 14.8579 5.63231 18.3677Z" stroke="#E7E8EA" stroke-width="2" stroke-miterlimit="10" stroke-linecap="round" stroke-linejoin="round"/>
<path d="M5.68508 5.68508L6.38122 6.38122M17.6188 17.6188L18.3149 18.3149M5.68508 18.3149L6.38122 17.6188M17.6188 6.38122L18.3149 5.68508M21 12.0497H17.6188M12.0497 6.38122V3M6.38122 12.0497H3M12.0497 21V17.6188M15.5304 15.5304C13.5414 13.5414 10.4586 13.5414 8.46961 15.5304C10.4586 13.5414 10.4586 10.4586 8.46961 8.46961C10.4586 10.4586 13.5414 10.4586 15.5304 8.46961C13.5414 10.4586 13.5414 13.5414 15.5304 15.5304Z" stroke="#E7E8EA" stroke-width="2" stroke-miterlimit="10" stroke-linecap="round" stroke-linejoin="round"/>
</svg>
