<svg width="24" height="24" viewBox="0 0 24 24" fill="none" xmlns="http://www.w3.org/2000/svg">
<path d="M6.69995 9.09998C7.99995 9.39998 8.99995 10.6 8.99995 12" stroke="#E7E8EA" stroke-width="2" stroke-linecap="round" stroke-linejoin="round"/>
<path d="M9 12C9 10.3 10.3 9 12 9C13.7 9 15 10.3 15 12" stroke="#E7E8EA" stroke-width="2" stroke-linecap="round" stroke-linejoin="round"/>
<path d="M15 12C15 10.6 16 9.39998 17.3 9.09998" stroke="#E7E8EA" stroke-width="2" stroke-linecap="round" stroke-linejoin="round"/>
<path d="M20 17V16.3C20 15.8 19.7 15.4 19.2 15.1L18.5 14.8C18.1 14.7 17.8 14.4 17.8 14L17.2 8.3C17 6.9 16.1 5.8 14.8 5.2L13.5 4.7C13.1 4.5 12.8 4.1 12.7 3.7L12.5 3H11.5L11.3 3.7C11.2 4.1 10.9 4.5 10.5 4.7L9.2 5.2C7.9 5.8 7 6.9 6.8 8.3L6.2 14C6.2 14.4 5.9 14.7 5.5 14.8L4.8 15.1C4.3 15.4 4 15.8 4 16.3V17H20Z" stroke="#E7E8EA" stroke-width="2" stroke-linecap="round" stroke-linejoin="round"/>
<path d="M8 17C8 19.2 9.8 21 12 21C14.2 21 16 19.2 16 17" stroke="#E7E8EA" stroke-width="2" stroke-linecap="round" stroke-linejoin="round"/>
</svg>
