<svg width="24" height="24" viewBox="0 0 24 24" fill="none" xmlns="http://www.w3.org/2000/svg">
<path d="M12 16.5C12 16.6 12 16.7 12 16.8C11.9 19.1 9.9 21 7.5 21C5 21 3 19 3 16.5H6.6C6.6 15 7.8 13.8 9.3 13.8C10.7 13.8 11.8 14.9 12 16.2C12 16.3 12 16.4 12 16.5Z" stroke="#E7E8EA" stroke-width="2" stroke-miterlimit="10" stroke-linecap="round" stroke-linejoin="round"/>
<path d="M12 16.5C12 16.6 12 16.7 12 16.8C12.1 19.2 14.1 21 16.5 21C19 21 21 19 21 16.5H17.4C17.4 15 16.2 13.8 14.7 13.8C13.3 13.8 12.2 14.9 12 16.2C12 16.3 12 16.4 12 16.5Z" stroke="#E7E8EA" stroke-width="2" stroke-miterlimit="10" stroke-linecap="round" stroke-linejoin="round"/>
<path d="M15.7999 7L11.9999 11L8.1999 7C7.2999 6.1 7.2999 4.6 8.1999 3.7C8.5999 3.2 9.1999 3 9.6999 3C10.2999 3 10.7999 3.2 11.2999 3.7L11.9999 4.4L12.6999 3.7C13.5999 2.8 14.9999 2.8 15.8999 3.7C16.6999 4.6 16.6999 6.1 15.7999 7Z" stroke="#E7E8EA" stroke-width="2" stroke-linecap="round" stroke-linejoin="round"/>
</svg>
