<svg width="24" height="24" viewBox="0 0 24 24" fill="none" xmlns="http://www.w3.org/2000/svg">
<path d="M12.5 3.7C12 3.2 11.3 2.9 10.6 3L4.6 4.3C3.7 4.5 3 5.4 3 6.4V19C3 20.1 3.9 21 5 21H13V5.1C13 4.6 12.8 4.1 12.5 3.7Z" stroke="#E7E8EA" stroke-width="2" stroke-linecap="round" stroke-linejoin="round"/>
<path d="M21 11.4V19C21 20.1 20.1 21 19 21H13V10.1C13 8.79997 14.2 7.79997 15.4 7.99997L17.5 8.69997L18 8.89997L19.4 9.29997C20.3 9.49997 21 10.4 21 11.4Z" stroke="#E7E8EA" stroke-width="2" stroke-linecap="round" stroke-linejoin="round"/>
<path d="M9.5 7.40002L6.5 8.00002" stroke="#E7E8EA" stroke-width="2" stroke-linecap="round" stroke-linejoin="round"/>
<path d="M9.5 11.9L6.5 12.5" stroke="#E7E8EA" stroke-width="2" stroke-linecap="round" stroke-linejoin="round"/>
<path d="M9.5 16.4L6.5 17" stroke="#E7E8EA" stroke-width="2" stroke-linecap="round" stroke-linejoin="round"/>
</svg>
