<svg width="24" height="24" viewBox="0 0 24 24" fill="none" xmlns="http://www.w3.org/2000/svg">
<path d="M5 12H19C20.1 12 21 12.9 21 14V19C21 20.1 20.1 21 19 21H5C3.9 21 3 20.1 3 19V14C3 12.9 3.9 12 5 12Z" stroke="#E7E8EA" stroke-width="2" stroke-linecap="round" stroke-linejoin="round"/>
<path d="M16.5 3L18.3 4.8C19.3 5.8 19.3 7.4 18.3 8.3C17.3 9.3 15.7 9.3 14.8 8.3C13.8 7.3 13.8 5.7 14.8 4.8L16.5 3Z" stroke="#E7E8EA" stroke-width="2" stroke-linecap="round" stroke-linejoin="round"/>
<path d="M8.50005 3L10.3 4.8C11.3 5.8 11.3 7.4 10.3 8.3C9.30005 9.3 7.70005 9.3 6.80005 8.3C5.80005 7.3 5.80005 5.7 6.80005 4.8L8.50005 3Z" stroke="#E7E8EA" stroke-width="2" stroke-linecap="round" stroke-linejoin="round"/>
<path d="M8.5 12V9" stroke="#E7E8EA" stroke-width="2" stroke-linecap="round" stroke-linejoin="round"/>
<path d="M16.5 12V9" stroke="#E7E8EA" stroke-width="2" stroke-linecap="round" stroke-linejoin="round"/>
<path d="M3 15.8C3.6 15.2 4.4 14.9 5.3 14.9C7.1 14.9 8.6 16.4 8.6 18.2" stroke="#E7E8EA" stroke-width="2" stroke-linecap="round" stroke-linejoin="round"/>
<path d="M8.69995 18.3C8.69995 16.5 10.2 15 12 15C13.8 15 15.3 16.5 15.3 18.3" stroke="#E7E8EA" stroke-width="2" stroke-linecap="round" stroke-linejoin="round"/>
<path d="M15.3999 18.3C15.3999 16.5 16.8999 15 18.6999 15C19.5999 15 20.3999 15.4 20.9999 15.9" stroke="#E7E8EA" stroke-width="2" stroke-linecap="round" stroke-linejoin="round"/>
</svg>
