<svg width="24" height="24" viewBox="0 0 24 24" fill="none" xmlns="http://www.w3.org/2000/svg">
<path d="M5 12H19C20.1 12 21 12.9 21 14V19C21 20.1 20.1 21 19 21H5C3.9 21 3 20.1 3 19V14C3 12.9 3.9 12 5 12Z" stroke="#E7E8EA" stroke-width="2" stroke-linecap="round" stroke-linejoin="round"/>
<path d="M12 3L13.8 4.8C14.8 5.8 14.8 7.4 13.8 8.3C12.8 9.3 11.2 9.3 10.3 8.3C9.30005 7.3 9.30005 5.7 10.3 4.8L12 3Z" stroke="#E7E8EA" stroke-width="2" stroke-linecap="round" stroke-linejoin="round"/>
<path d="M12 12V9" stroke="#E7E8EA" stroke-width="2" stroke-linecap="round" stroke-linejoin="round"/>
<path d="M3 15.8C3.6 15.2 4.4 14.9 5.3 14.9C7.1 14.9 8.6 16.4 8.6 18.2" stroke="#E7E8EA" stroke-width="2" stroke-linecap="round" stroke-linejoin="round"/>
<path d="M8.69995 18.3C8.69995 16.5 10.2 15 12 15C13.8 15 15.3 16.5 15.3 18.3" stroke="#E7E8EA" stroke-width="2" stroke-linecap="round" stroke-linejoin="round"/>
<path d="M15.3999 18.3C15.3999 16.5 16.8999 15 18.6999 15C19.5999 15 20.3999 15.4 20.9999 15.9" stroke="#E7E8EA" stroke-width="2" stroke-linecap="round" stroke-linejoin="round"/>
</svg>
