<svg width="24" height="24" viewBox="0 0 24 24" fill="none" xmlns="http://www.w3.org/2000/svg">
<path d="M19 19V5C19 3.9 18.1 3 17 3H7C5.9 3 5 3.9 5 5V19C5 20.1 5.9 21 7 21H17C18.1 21 19 20.1 19 19Z" stroke="#E7E8EA" stroke-width="2" stroke-miterlimit="10" stroke-linecap="round" stroke-linejoin="round"/>
<path d="M19 7H5" stroke="#E7E8EA" stroke-width="2" stroke-miterlimit="10" stroke-linecap="round" stroke-linejoin="round"/>
<path d="M9.5 14C9.5 14.2761 9.27615 14.5 9 14.5C8.72385 14.5 8.5 14.2761 8.5 14C8.5 13.7239 8.72386 13.5 9 13.5C9.27614 13.5 9.5 13.7239 9.5 14Z" stroke="#E7E8EA" stroke-miterlimit="10" stroke-linecap="round" stroke-linejoin="round"/>
<path d="M12.5 14C12.5 14.2761 12.2761 14.5 12 14.5C11.7239 14.5 11.5 14.2761 11.5 14C11.5 13.7239 11.7239 13.5 12 13.5C12.2761 13.5 12.5 13.7239 12.5 14Z" stroke="#E7E8EA" stroke-miterlimit="10" stroke-linecap="round" stroke-linejoin="round"/>
<path d="M15.5 14C15.5 14.2761 15.2761 14.5 15 14.5C14.7239 14.5 14.5 14.2761 14.5 14C14.5 13.7239 14.7239 13.5 15 13.5C15.2761 13.5 15.5 13.7239 15.5 14Z" stroke="#E7E8EA" stroke-miterlimit="10" stroke-linecap="round" stroke-linejoin="round"/>
<path d="M9.5 17C9.5 17.2761 9.27615 17.5 9 17.5C8.72385 17.5 8.5 17.2761 8.5 17C8.5 16.7239 8.72386 16.5 9 16.5C9.27614 16.5 9.5 16.7239 9.5 17Z" stroke="#E7E8EA" stroke-miterlimit="10" stroke-linecap="round" stroke-linejoin="round"/>
<path d="M12.5 17C12.5 17.2761 12.2761 17.5 12 17.5C11.7239 17.5 11.5 17.2761 11.5 17C11.5 16.7239 11.7239 16.5 12 16.5C12.2761 16.5 12.5 16.7239 12.5 17Z" stroke="#E7E8EA" stroke-miterlimit="10" stroke-linecap="round" stroke-linejoin="round"/>
<path d="M15.5 17C15.5 17.2761 15.2761 17.5 15 17.5C14.7239 17.5 14.5 17.2761 14.5 17C14.5 16.7239 14.7239 16.5 15 16.5C15.2761 16.5 15.5 16.7239 15.5 17Z" stroke="#E7E8EA" stroke-miterlimit="10" stroke-linecap="round" stroke-linejoin="round"/>
<path d="M9.5 11C9.5 11.2761 9.27615 11.5 9 11.5C8.72385 11.5 8.5 11.2761 8.5 11C8.5 10.7239 8.72386 10.5 9 10.5C9.27614 10.5 9.5 10.7239 9.5 11Z" stroke="#E7E8EA" stroke-miterlimit="10" stroke-linecap="round" stroke-linejoin="round"/>
<path d="M12.5 11C12.5 11.2761 12.2761 11.5 12 11.5C11.7239 11.5 11.5 11.2761 11.5 11C11.5 10.7239 11.7239 10.5 12 10.5C12.2761 10.5 12.5 10.7239 12.5 11Z" stroke="#E7E8EA" stroke-miterlimit="10" stroke-linecap="round" stroke-linejoin="round"/>
<path d="M15.5 11C15.5 11.2761 15.2761 11.5 15 11.5C14.7239 11.5 14.5 11.2761 14.5 11C14.5 10.7239 14.7239 10.5 15 10.5C15.2761 10.5 15.5 10.7239 15.5 11Z" stroke="#E7E8EA" stroke-miterlimit="10" stroke-linecap="round" stroke-linejoin="round"/>
</svg>
