<svg width="24" height="24" viewBox="0 0 24 24" fill="none" xmlns="http://www.w3.org/2000/svg">
<path d="M3 9H21M15.5 5V1M8.5 5V1M12 12.9V14.4M21 15L18.8 17.2M5.2 17.2L3 15M17.1 11.3L15.6 15.1M8.2 15.2L7 12.3M21 7V17C21 18.8 19.8 20.3 18.2 20.8C17.8 20.9 17.4 21 17 21H7C6.6 21 6.2 20.9 5.8 20.8C4.2 20.3 3 18.8 3 17V7C3 4.8 4.8 3 7 3H17C19.2 3 21 4.8 21 7ZM12 17C9.3 17 6.9 18.5 5.8 20.8C6.2 20.9 6.6 21 7 21H17C17.4 21 17.8 20.9 18.2 20.8C17.1 18.5 14.7 17 12 17Z" stroke="#E7E8EA" stroke-width="2" stroke-linecap="round" stroke-linejoin="round"/>
</svg>
