<svg width="24" height="24" viewBox="0 0 24 24" fill="none" xmlns="http://www.w3.org/2000/svg">
<path d="M6 9V19C6 20.1 6.9 21 8 21C9.1 21 10 20.1 10 19V9C10 7.9 10.9 7 12 7C13.1 7 14 7.9 14 9C14 10.1 14.9 11 16 11C17.1 11 18 10.1 18 9C18 5.7 15.3 3 12 3C8.7 3 6 5.7 6 9Z" stroke="#E7E8EA" stroke-width="2" stroke-linecap="round" stroke-linejoin="round"/>
<path d="M12 3V7" stroke="#E7E8EA" stroke-width="2" stroke-linecap="round" stroke-linejoin="round"/>
<path d="M10.3 8L6.80005 6" stroke="#E7E8EA" stroke-width="2" stroke-linecap="round" stroke-linejoin="round"/>
<path d="M17.2 6L13.7 8" stroke="#E7E8EA" stroke-width="2" stroke-linecap="round" stroke-linejoin="round"/>
<path d="M10 11H6" stroke="#E7E8EA" stroke-width="2" stroke-linecap="round" stroke-linejoin="round"/>
<path d="M10 16H6" stroke="#E7E8EA" stroke-width="2" stroke-linecap="round" stroke-linejoin="round"/>
</svg>
