<svg width="24" height="24" viewBox="0 0 24 24" fill="none" xmlns="http://www.w3.org/2000/svg">
<path d="M14 17C17.866 17 21 13.866 21 10C21 6.13401 17.866 3 14 3C10.134 3 7 6.13401 7 10C7 13.866 10.134 17 14 17Z" stroke="#E7E8EA" stroke-width="2" stroke-miterlimit="10" stroke-linecap="round" stroke-linejoin="round"/>
<path d="M3 21L9 15" stroke="#E7E8EA" stroke-width="2" stroke-miterlimit="10" stroke-linecap="round" stroke-linejoin="round"/>
<path d="M7 10.5C7 10.3 7 10.2 7 10C7 9.8 7 9.7 7 9.5C7.3 7 9.4 5 12 5C14.7 5 16.8 7.1 17 9.7C17 9.8 17 9.9 17 10C17 10.1 17 10.2 17 10.3" stroke="#E7E8EA" stroke-width="2" stroke-miterlimit="10" stroke-linecap="round" stroke-linejoin="round"/>
<path d="M11 10C11 11.7 12.3 13 14 13C15.6 13 17 11.7 17 10" stroke="#E7E8EA" stroke-width="2" stroke-miterlimit="10" stroke-linecap="round" stroke-linejoin="round"/>
</svg>
