<svg width="24" height="24" viewBox="0 0 24 24" fill="none" xmlns="http://www.w3.org/2000/svg">
<path d="M7.72 4.77L10.49 7.61M10 9.56L6.21 10.56M13.41 3.21L12.41 7.09M11.91 11.89L9.11 14.71M15.39 15.45L12.59 18.28M7.72 13.3L14.65 20.41C14.8284 20.5979 15.0432 20.7475 15.2814 20.8498C15.5195 20.952 15.7759 21.0048 16.035 21.0048C16.2941 21.0048 16.5505 20.952 16.7887 20.8498C17.0268 20.7475 17.2416 20.5979 17.42 20.41V20.41C17.7867 20.0282 17.9915 19.5194 17.9915 18.99C17.9915 18.4606 17.7867 17.9518 17.42 17.57L10.49 10.45C10.1233 10.0682 9.91855 9.55936 9.91855 9.03C9.91855 8.50064 10.1233 7.9918 10.49 7.61V7.61C10.669 7.42492 10.8835 7.27774 11.1205 7.17723C11.3576 7.07672 11.6125 7.02492 11.87 7.02492C12.1275 7.02492 12.3824 7.07672 12.6195 7.17723C12.8565 7.27774 13.071 7.42492 13.25 7.61C13.4296 7.79232 13.6436 7.9371 13.8797 8.03593C14.1157 8.13475 14.3691 8.18565 14.625 8.18565C14.8809 8.18565 15.1343 8.13475 15.3703 8.03593C15.6064 7.9371 15.8204 7.79232 16 7.61V7.61C16.3667 7.2282 16.5715 6.71936 16.5715 6.19C16.5715 5.66064 16.3667 5.1518 16 4.77V4.77C15.4616 4.20983 14.8156 3.76418 14.1008 3.45975C13.3859 3.15533 12.617 2.99841 11.84 2.99841C11.063 2.99841 10.2941 3.15533 9.57924 3.45975C8.8644 3.76418 8.21841 4.20983 7.68 4.77C6.58237 5.92105 5.97335 7.45257 5.98081 9.04306C5.98827 10.6336 6.61162 12.1593 7.72 13.3V13.3Z" stroke="#E7E8EA" stroke-width="2" stroke-linecap="round" stroke-linejoin="round"/>
</svg>
