<svg width="24" height="24" viewBox="0 0 24 24" fill="none" xmlns="http://www.w3.org/2000/svg">
<path d="M16.28 4.77L13.51 7.61M14 9.56L17.79 10.56M10.59 3.21L11.59 7.09M12.09 11.89L14.89 14.71M8.61 15.45L11.41 18.28M16.28 13.3L9.35 20.41C9.17156 20.5979 8.95675 20.7475 8.71865 20.8498C8.48055 20.952 8.22413 21.0048 7.965 21.0048C7.70587 21.0048 7.44945 20.952 7.21135 20.8498C6.97324 20.7475 6.75844 20.5979 6.58 20.41V20.41C6.21332 20.0282 6.00854 19.5194 6.00854 18.99C6.00854 18.4606 6.21332 17.9518 6.58 17.57L13.51 10.45C13.8767 10.0682 14.0815 9.55936 14.0815 9.03C14.0815 8.50064 13.8767 7.9918 13.51 7.61V7.61C13.331 7.42492 13.1165 7.27774 12.8795 7.17723C12.6424 7.07672 12.3875 7.02492 12.13 7.02492C11.8725 7.02492 11.6176 7.07672 11.3805 7.17723C11.1435 7.27774 10.929 7.42492 10.75 7.61C10.5704 7.79232 10.3564 7.9371 10.1203 8.03593C9.88426 8.13475 9.63091 8.18565 9.375 8.18565C9.11909 8.18565 8.86574 8.13475 8.62968 8.03593C8.39362 7.9371 8.17958 7.79232 8 7.61V7.61C7.63332 7.2282 7.42854 6.71936 7.42854 6.19C7.42854 5.66064 7.63332 5.1518 8 4.77V4.77C8.53841 4.20983 9.1844 3.76418 9.89924 3.45975C10.6141 3.15533 11.383 2.99841 12.16 2.99841C12.937 2.99841 13.7059 3.15533 14.4208 3.45975C15.1356 3.76418 15.7816 4.20983 16.32 4.77C17.4176 5.92105 18.0267 7.45257 18.0192 9.04306C18.0117 10.6336 17.3884 12.1593 16.28 13.3V13.3Z" stroke="#E7E8EA" stroke-width="2" stroke-linecap="round" stroke-linejoin="round"/>
</svg>
