<svg width="24" height="24" viewBox="0 0 24 24" fill="none" xmlns="http://www.w3.org/2000/svg">
<path d="M15.8 3H17C19.2 3 21 4.8 21 7V8.1" stroke="#E7E8EA" stroke-width="2" stroke-linecap="round" stroke-linejoin="round"/>
<path d="M3 8.3V7C3 4.8 4.8 3 7 3H8.1" stroke="#E7E8EA" stroke-width="2" stroke-linecap="round" stroke-linejoin="round"/>
<path d="M8.3 21H7C4.8 21 3 19.2 3 17V15.9" stroke="#E7E8EA" stroke-width="2" stroke-linecap="round" stroke-linejoin="round"/>
<path d="M20.9999 15.8V17C20.9999 19.2 19.1999 21 16.9999 21H15.8999" stroke="#E7E8EA" stroke-width="2" stroke-linecap="round" stroke-linejoin="round"/>
<path d="M15.5 16H8.5C7.7 16 7 15.3 7 14.5V9.5C7 8.7 7.7 8 8.5 8H15.5C16.3 8 17 8.7 17 9.5V14.5C17 15.3 16.3 16 15.5 16Z" stroke="#E7E8EA" stroke-width="2" stroke-linecap="round" stroke-linejoin="round"/>
<path d="M7 11H17" stroke="#E7E8EA" stroke-width="2" stroke-linecap="round" stroke-linejoin="round"/>
</svg>
