<svg width="24" height="24" viewBox="0 0 24 24" fill="none" xmlns="http://www.w3.org/2000/svg">
<path fill-rule="evenodd" clip-rule="evenodd" d="M19 18H5C3.9 18 3 17.1 3 16V8C3 6.9 3.9 6 5 6H19C20.1 6 21 6.9 21 8V16C21 17.1 20.1 18 19 18Z" stroke="#E7E8EA" stroke-width="2" stroke-linecap="round" stroke-linejoin="round"/>
<path d="M3 10H21" stroke="#E7E8EA" stroke-width="2" stroke-linecap="round" stroke-linejoin="round"/>
<path d="M15 14H17" stroke="#E7E8EA" stroke-width="2" stroke-linecap="round" stroke-linejoin="round"/>
<path d="M9 21H8" stroke="#E7E8EA" stroke-width="2" stroke-linecap="round" stroke-linejoin="round"/>
<path d="M12 20C11.4 20 11 20.4 11 21C11 21.6 11.4 22 12 22C12.6 22 13 21.6 13 21C13 20.4 12.6 20 12 20Z" fill="#E7E8EA"/>
<path d="M15 20C14.4 20 14 20.4 14 21C14 21.6 14.4 22 15 22C15.6 22 16 21.6 16 21C16 20.4 15.5 20 15 20Z" fill="#E7E8EA"/>
</svg>
