<svg width="24" height="24" viewBox="0 0 24 24" fill="none" xmlns="http://www.w3.org/2000/svg">
<path d="M17 7V19C17 20.1 16.1 21 15 21H9C7.9 21 7 20.1 7 19V7H17Z" stroke="#E7E8EA" stroke-width="2" stroke-linecap="round" stroke-linejoin="round"/>
<path d="M18 11H19C20.1 11 21 10.1 21 9V5C21 3.9 20.1 3 19 3H5C3.9 3 3 3.9 3 5V9C3 10.1 3.9 11 5 11H6" stroke="#E7E8EA" stroke-width="2" stroke-linecap="round" stroke-linejoin="round"/>
<path d="M13 12C13 12.6 12.6 13 12 13C11.4 13 11 12.6 11 12C11 11.4 11.4 11 12 11C12.6 11 13 11.5 13 12Z" stroke="#E7E8EA" stroke-width="2" stroke-linecap="round" stroke-linejoin="round"/>
<path d="M11 17H13" stroke="#E7E8EA" stroke-width="2" stroke-linecap="round" stroke-linejoin="round"/>
<path d="M6 7H18" stroke="#E7E8EA" stroke-width="2" stroke-linecap="round" stroke-linejoin="round"/>
</svg>
