<svg width="24" height="24" viewBox="0 0 24 24" fill="none" xmlns="http://www.w3.org/2000/svg">
<path d="M19.1 17.5C20.3 16 21 14.1 21 12C21 7 17 3 12 3C7 3 3 7 3 12C3 17 7 21 12 21C12.9 21 13.8 20.9 14.6 20.6C15.1 20.5 15.6 20.3 16 20" stroke="#E7E8EA" stroke-width="2" stroke-miterlimit="10" stroke-linecap="round" stroke-linejoin="round"/>
<path d="M21 21C20.7 21 20.4 21 20.1 21C18.6 21 17.3 20.7 16.1 20" stroke="#E7E8EA" stroke-width="2" stroke-miterlimit="10" stroke-linecap="round" stroke-linejoin="round"/>
<path d="M19.1 17.5C19.2 18.9 20 20.1 21 21" stroke="#E7E8EA" stroke-width="2" stroke-miterlimit="10" stroke-linecap="round" stroke-linejoin="round"/>
<path d="M16.5 12.4C16.2239 12.4 16 12.1762 16 11.9C16 11.6239 16.2239 11.4 16.5 11.4C16.7761 11.4 17 11.6239 17 11.9C17 12.1762 16.7761 12.4 16.5 12.4Z" fill="#E7E8EA" stroke="#E7E8EA" stroke-width="2" stroke-miterlimit="10" stroke-linecap="round" stroke-linejoin="round"/>
<path d="M12 12.4C11.7239 12.4 11.5 12.1762 11.5 11.9C11.5 11.6239 11.7239 11.4 12 11.4C12.2761 11.4 12.5 11.6239 12.5 11.9C12.5 12.1762 12.2761 12.4 12 12.4Z" fill="#E7E8EA" stroke="#E7E8EA" stroke-width="2" stroke-miterlimit="10" stroke-linecap="round" stroke-linejoin="round"/>
<path d="M7.5 12.4C7.22386 12.4 7 12.1762 7 11.9C7 11.6239 7.22386 11.4 7.5 11.4C7.77614 11.4 8 11.6239 8 11.9C8 12.1762 7.77614 12.4 7.5 12.4Z" fill="#E7E8EA" stroke="#E7E8EA" stroke-width="2" stroke-miterlimit="10" stroke-linecap="round" stroke-linejoin="round"/>
</svg>
