<svg width="24" height="24" viewBox="0 0 24 24" fill="none" xmlns="http://www.w3.org/2000/svg">
<path d="M4.9 17.5C3.7 16 3 14.1 3 12C3 7 7 3 12 3C17 3 21 7 21 12C21 17 17 21 12 21C11.1 21 10.2 20.9 9.4 20.6C8.9 20.5 8.4 20.3 8 20" stroke="#E7E8EA" stroke-width="2" stroke-miterlimit="10" stroke-linecap="round" stroke-linejoin="round"/>
<path d="M3 21C3.3 21 3.6 21 3.9 21C5.4 21 6.7 20.7 7.9 20" stroke="#E7E8EA" stroke-width="2" stroke-miterlimit="10" stroke-linecap="round" stroke-linejoin="round"/>
<path d="M4.9 17.5C4.8 18.9 4 20.1 3 21" stroke="#E7E8EA" stroke-width="2" stroke-miterlimit="10" stroke-linecap="round" stroke-linejoin="round"/>
<path d="M15.4043 12.5145L12 16L8.59574 12.5145C7.80142 11.7012 7.80142 10.4232 8.59574 9.60996C9.04965 9.26141 9.50355 9.02905 9.95745 9.02905C10.5248 9.02905 10.9787 9.26141 11.4326 9.60996L12 10.1909L12.5674 9.60996C13.3617 8.79668 14.6099 8.79668 15.4043 9.60996C16.1986 10.4232 16.1986 11.7012 15.4043 12.5145Z" stroke="#E7E8EA" stroke-width="2" stroke-linecap="round" stroke-linejoin="round"/>
</svg>
