<svg width="24" height="24" viewBox="0 0 24 24" fill="none" xmlns="http://www.w3.org/2000/svg">
<path d="M4.9 17.5C3.7 16 3 14.1 3 12C3 7 7 3 12 3C17 3 21 7 21 12C21 17 17 21 12 21C11.1 21 10.2 20.9 9.4 20.6C8.9 20.5 8.4 20.3 8 20" stroke="#E7E8EA" stroke-width="2" stroke-miterlimit="10" stroke-linecap="round" stroke-linejoin="round"/>
<path d="M3 21C3.3 21 3.6 21 3.9 21C5.4 21 6.7 20.7 7.9 20" stroke="#E7E8EA" stroke-width="2" stroke-miterlimit="10" stroke-linecap="round" stroke-linejoin="round"/>
<path d="M4.9 17.5C4.8 18.9 4 20.1 3 21" stroke="#E7E8EA" stroke-width="2" stroke-miterlimit="10" stroke-linecap="round" stroke-linejoin="round"/>
<path d="M9 12C9 13.7 10.3 15 12 15C13.7 15 15 13.7 15 12C15 10.3 13.7 9 12 9" stroke="#E7E8EA" stroke-width="2" stroke-miterlimit="10" stroke-linecap="round" stroke-linejoin="round"/>
</svg>
