<svg width="24" height="24" viewBox="0 0 24 24" fill="none" xmlns="http://www.w3.org/2000/svg">
<path d="M17 19H19C20.1 19 21 18.1 21 17V10C21 8.9 20.1 8 19 8H9C7.9 8 7 8.9 7 10V17C7 18.1 7.9 19 9 19H15" stroke="#E7E8EA" stroke-width="2" stroke-miterlimit="10" stroke-linecap="round" stroke-linejoin="round"/>
<path d="M17 19V21L15 19" stroke="#E7E8EA" stroke-width="2" stroke-miterlimit="10" stroke-linecap="round" stroke-linejoin="round"/>
<path d="M17 8V5C17 3.9 16.1 3 15 3H5C3.9 3 3 3.9 3 5V12C3 13.1 3.9 14 5 14H7" stroke="#E7E8EA" stroke-width="2" stroke-miterlimit="10" stroke-linecap="round" stroke-linejoin="round"/>
<path d="M14 11.5V15.5" stroke="#E7E8EA" stroke-width="2" stroke-linecap="round"/>
<path d="M12 13.5L16 13.5" stroke="#E7E8EA" stroke-width="2" stroke-linecap="round"/>
</svg>
