<svg width="24" height="24" viewBox="0 0 24 24" fill="none" xmlns="http://www.w3.org/2000/svg">
<path d="M16 20C15.5 20.2 15.1 20.4 14.6 20.6C13.8 20.9 12.9 21 12 21C7 21 3 17 3 12C3 7 7 3 12 3C12.5 3 13 3 13.5 3.1" stroke="#E7E8EA" stroke-width="2" stroke-miterlimit="10" stroke-linecap="round" stroke-linejoin="round"/>
<path d="M20.8996 10.5C20.9996 11 20.9996 11.5 20.9996 12C20.9996 14.1 20.2996 16 19.0996 17.5" stroke="#E7E8EA" stroke-width="2" stroke-miterlimit="10" stroke-linecap="round" stroke-linejoin="round"/>
<path d="M20.9996 21C20.6996 21 20.3996 21 20.0996 21C18.6996 21 17.2996 20.7 16.0996 20" stroke="#E7E8EA" stroke-width="2" stroke-miterlimit="10" stroke-linecap="round" stroke-linejoin="round"/>
<path d="M19.0996 17.5C19.1996 18.9 19.9996 20.1 20.9996 20.9" stroke="#E7E8EA" stroke-width="2" stroke-miterlimit="10" stroke-linecap="round" stroke-linejoin="round"/>
<path d="M19 7C20.1046 7 21 6.10457 21 5C21 3.89543 20.1046 3 19 3C17.8954 3 17 3.89543 17 5C17 6.10457 17.8954 7 19 7Z" stroke="#E7E8EA" stroke-width="2" stroke-miterlimit="10" stroke-linecap="round" stroke-linejoin="round"/>
<path d="M16.5 12.4C16.2239 12.4 16 12.1762 16 11.9C16 11.6239 16.2239 11.4 16.5 11.4C16.7761 11.4 17 11.6239 17 11.9C17 12.1762 16.7761 12.4 16.5 12.4Z" fill="#E7E8EA" stroke="#E7E8EA" stroke-width="2" stroke-miterlimit="10" stroke-linecap="round" stroke-linejoin="round"/>
<path d="M12 12.4C11.7239 12.4 11.5 12.1762 11.5 11.9C11.5 11.6239 11.7239 11.4 12 11.4C12.2761 11.4 12.5 11.6239 12.5 11.9C12.5 12.1762 12.2761 12.4 12 12.4Z" fill="#E7E8EA" stroke="#E7E8EA" stroke-width="2" stroke-miterlimit="10" stroke-linecap="round" stroke-linejoin="round"/>
<path d="M7.5 12.4C7.22386 12.4 7 12.1762 7 11.9C7 11.6239 7.22386 11.4 7.5 11.4C7.77614 11.4 8 11.6239 8 11.9C8 12.1762 7.77614 12.4 7.5 12.4Z" fill="#E7E8EA" stroke="#E7E8EA" stroke-width="2" stroke-miterlimit="10" stroke-linecap="round" stroke-linejoin="round"/>
</svg>
