<svg width="24" height="24" viewBox="0 0 24 24" fill="none" xmlns="http://www.w3.org/2000/svg">
<path d="M19.1 17.5C20.3 16 21 14.1 21 12C21 7 17 3 12 3C7 3 3 7 3 12C3 17 7 21 12 21C12.9 21 13.8 20.9 14.6 20.6C15.1 20.5 15.6 20.3 16 20" stroke="#E7E8EA" stroke-width="2" stroke-miterlimit="10" stroke-linecap="round" stroke-linejoin="round"/>
<path d="M21 21C20.7 21 20.4 21 20.1 21C18.6 21 17.3 20.7 16.1 20" stroke="#E7E8EA" stroke-width="2" stroke-miterlimit="10" stroke-linecap="round" stroke-linejoin="round"/>
<path d="M19.1 17.5C19.2 18.9 20 20.1 21 21" stroke="#E7E8EA" stroke-width="2" stroke-miterlimit="10" stroke-linecap="round" stroke-linejoin="round"/>
<path d="M12 8L12 16" stroke="#E7E8EA" stroke-width="2" stroke-linecap="round"/>
<path d="M16 10.5L16 13.5" stroke="#E7E8EA" stroke-width="2" stroke-linecap="round"/>
<path d="M8 10.5L8 13.5" stroke="#E7E8EA" stroke-width="2" stroke-linecap="round"/>
</svg>
