<svg width="24" height="24" viewBox="0 0 24 24" fill="none" xmlns="http://www.w3.org/2000/svg">
<path d="M19.1 17.5C20.3 16 21 14.1 21 12C21 7 17 3 12 3C7 3 3 7 3 12C3 17 7 21 12 21C12.9 21 13.8 20.9 14.6 20.6C15.1 20.5 15.6 20.3 16 20" stroke="#E7E8EA" stroke-width="2" stroke-miterlimit="10" stroke-linecap="round" stroke-linejoin="round"/>
<path d="M21 21C20.7 21 20.4 21 20.1 21C18.6 21 17.3 20.7 16.1 20" stroke="#E7E8EA" stroke-width="2" stroke-miterlimit="10" stroke-linecap="round" stroke-linejoin="round"/>
<path d="M19.1 17.5C19.2 18.9 20 20.1 21 21" stroke="#E7E8EA" stroke-width="2" stroke-miterlimit="10" stroke-linecap="round" stroke-linejoin="round"/>
<path d="M15.4043 12.5145L12 16L8.59574 12.5145C7.80142 11.7012 7.80142 10.4232 8.59574 9.60996C9.04965 9.26141 9.50355 9.02905 9.95745 9.02905C10.5248 9.02905 10.9787 9.26141 11.4326 9.60996L12 10.1909L12.5674 9.60996C13.3617 8.79668 14.6099 8.79668 15.4043 9.60996C16.1986 10.4232 16.1986 11.7012 15.4043 12.5145Z" stroke="#E7E8EA" stroke-width="2" stroke-linecap="round" stroke-linejoin="round"/>
</svg>
