<svg width="24" height="24" viewBox="0 0 24 24" fill="none" xmlns="http://www.w3.org/2000/svg">
<path d="M4.9 17.5C3.7 16 3 14.1 3 12C3 7 7 3 12 3C17 3 21 7 21 12C21 17 17 21 12 21C11.1 21 10.2 20.9 9.4 20.6C8.9 20.5 8.4 20.3 8 20" stroke="#E7E8EA" stroke-width="2" stroke-miterlimit="10" stroke-linecap="round" stroke-linejoin="round"/>
<path d="M3 21C3.3 21 3.6 21 3.9 21C5.4 21 6.7 20.7 7.9 20" stroke="#E7E8EA" stroke-width="2" stroke-miterlimit="10" stroke-linecap="round" stroke-linejoin="round"/>
<path d="M4.9 17.5C4.8 18.9 4 20.1 3 21" stroke="#E7E8EA" stroke-width="2" stroke-miterlimit="10" stroke-linecap="round" stroke-linejoin="round"/>
<path d="M7.5 12.4C7.77614 12.4 8 12.1762 8 11.9C8 11.6239 7.77614 11.4 7.5 11.4C7.22386 11.4 7 11.6239 7 11.9C7 12.1762 7.22386 12.4 7.5 12.4Z" fill="#E7E8EA" stroke="#E7E8EA" stroke-width="2" stroke-miterlimit="10" stroke-linecap="round" stroke-linejoin="round"/>
<path d="M12 12.4C12.2761 12.4 12.5 12.1762 12.5 11.9C12.5 11.6239 12.2761 11.4 12 11.4C11.7239 11.4 11.5 11.6239 11.5 11.9C11.5 12.1762 11.7239 12.4 12 12.4Z" fill="#E7E8EA" stroke="#E7E8EA" stroke-width="2" stroke-miterlimit="10" stroke-linecap="round" stroke-linejoin="round"/>
<path d="M16.5 12.4C16.7761 12.4 17 12.1762 17 11.9C17 11.6239 16.7761 11.4 16.5 11.4C16.2239 11.4 16 11.6239 16 11.9C16 12.1762 16.2239 12.4 16.5 12.4Z" fill="#E7E8EA" stroke="#E7E8EA" stroke-width="2" stroke-miterlimit="10" stroke-linecap="round" stroke-linejoin="round"/>
</svg>
