<svg width="24" height="24" viewBox="0 0 24 24" fill="none" xmlns="http://www.w3.org/2000/svg">
<path d="M8 20C8.5 20.2 8.9 20.4 9.4 20.6C10.2 20.9 11.1 21 12 21C17 21 21 17 21 12C21 11.5 21 11 20.9 10.5" stroke="#E7E8EA" stroke-width="2" stroke-miterlimit="10" stroke-linecap="round" stroke-linejoin="round"/>
<path d="M4.9 17.5C3.7 16 3 14.1 3 12C3 7 7 3 12 3C12.5 3 13 3 13.5 3.1" stroke="#E7E8EA" stroke-width="2" stroke-miterlimit="10" stroke-linecap="round" stroke-linejoin="round"/>
<path d="M3 21C3.3 21 3.6 21 3.9 21C5.4 21 6.7 20.7 7.9 20" stroke="#E7E8EA" stroke-width="2" stroke-miterlimit="10" stroke-linecap="round" stroke-linejoin="round"/>
<path d="M4.9 17.5C4.8 18.9 4 20.1 3 21" stroke="#E7E8EA" stroke-width="2" stroke-miterlimit="10" stroke-linecap="round" stroke-linejoin="round"/>
<path d="M19 7C20.1046 7 21 6.10457 21 5C21 3.89543 20.1046 3 19 3C17.8954 3 17 3.89543 17 5C17 6.10457 17.8954 7 19 7Z" stroke="#E7E8EA" stroke-width="2" stroke-miterlimit="10" stroke-linecap="round" stroke-linejoin="round"/>
<path d="M12 8L12 16" stroke="#E7E8EA" stroke-width="2" stroke-linecap="round"/>
<path d="M16 10.5L16 13.5" stroke="#E7E8EA" stroke-width="2" stroke-linecap="round"/>
<path d="M8 10.5L8 13.5" stroke="#E7E8EA" stroke-width="2" stroke-linecap="round"/>
</svg>
