<svg width="24" height="24" viewBox="0 0 24 24" fill="none" xmlns="http://www.w3.org/2000/svg">
<path d="M11 5C11 5.6 11.6 6.1 12.7 6.5C13.6 6.8 14.7 7 16 7C17.3 7 18.4 6.8 19.3 6.5C20.3 6.1 21 5.6 21 5C21 3.9 18.8 3 16 3C13.2 3 11 3.9 11 5Z" stroke="#E7E8EA" stroke-width="2" stroke-miterlimit="10" stroke-linecap="round" stroke-linejoin="round"/>
<path d="M11 5V8C11 8.6 11.7 9.1 12.7 9.5C13.6 9.8 14.7 10 16 10C17.3 10 18.4 9.8 19.3 9.5C20.3 9.1 21 8.6 21 8V5C21 5.6 20.3 6.1 19.3 6.5C18.4 6.8 17.3 7 16 7C14.7 7 13.6 6.8 12.7 6.5C11.6 6.1 11 5.6 11 5Z" stroke="#E7E8EA" stroke-width="2" stroke-miterlimit="10" stroke-linecap="round" stroke-linejoin="round"/>
<path d="M16 16C18.8 16 21 15.1 21 14V11C21 11.6 20.3 12.1 19.3 12.5C18.4 12.8 17.3 13 16 13" stroke="#E7E8EA" stroke-width="2" stroke-miterlimit="10" stroke-linecap="round" stroke-linejoin="round"/>
<path d="M16 13C17.3 13 18.4 12.8 19.3 12.5C20.3 12.1 21 11.6 21 11V8C21 8.6 20.3 9.1 19.3 9.5C18.4 9.8 17.3 10 16 10" stroke="#E7E8EA" stroke-width="2" stroke-miterlimit="10" stroke-linecap="round" stroke-linejoin="round"/>
<path d="M8 21C5.23858 21 3 18.7614 3 16C3 13.2386 5.23858 11 8 11C10.7614 11 13 13.2386 13 16C13 18.7614 10.7614 21 8 21Z" stroke="#E7E8EA" stroke-width="2" stroke-miterlimit="10" stroke-linecap="round" stroke-linejoin="round"/>
</svg>
