<svg width="24" height="24" viewBox="0 0 24 24" fill="none" xmlns="http://www.w3.org/2000/svg">
<path d="M9 18C9 19.7 7.7 21 6 21C4.3 21 3 19.7 3 18C3 16.3 4.3 15 6 15C7.7 15 9 16.3 9 18Z" stroke="#E7E8EA" stroke-width="2" stroke-linecap="round" stroke-linejoin="round"/>
<path d="M15 18C15 19.7 13.7 21 12 21C10.3 21 9 19.7 9 18C9 16.3 10.3 15 12 15C13.7 15 15 16.3 15 18Z" stroke="#E7E8EA" stroke-width="2" stroke-linecap="round" stroke-linejoin="round"/>
<path d="M15 6C15 7.7 13.7 9 12 9C10.3 9 9 7.7 9 6C9 4.3 10.3 3 12 3C13.7 3 15 4.3 15 6Z" stroke="#E7E8EA" stroke-width="2" stroke-linecap="round" stroke-linejoin="round"/>
<path d="M12 12C12 13.7 10.7 15 9 15C7.3 15 6 13.7 6 12C6 10.3 7.3 9 9 9C10.7 9 12 10.3 12 12Z" stroke="#E7E8EA" stroke-width="2" stroke-linecap="round" stroke-linejoin="round"/>
<path d="M18 12C18 13.7 16.7 15 15 15C13.3 15 12 13.7 12 12C12 10.3 13.3 9 15 9C16.7 9 18 10.3 18 12Z" stroke="#E7E8EA" stroke-width="2" stroke-linecap="round" stroke-linejoin="round"/>
<path d="M21 18C21 19.7 19.7 21 18 21C16.3 21 15 19.7 15 18C15 16.3 16.3 15 18 15C19.7 15 21 16.3 21 18Z" stroke="#E7E8EA" stroke-width="2" stroke-linecap="round" stroke-linejoin="round"/>
</svg>
