<svg width="24" height="24" viewBox="0 0 24 24" fill="none" xmlns="http://www.w3.org/2000/svg">
<path d="M16.7 12.5C16.6 13.5 16.1 14.6 15.3 15.4C14.5 16.2 13.5 16.6 12.4 16.8C11 17 9.6 16.5 8.5 15.4C7.4 14.3 7 12.9 7.1 11.5C7.2 10.5 7.7 9.39998 8.5 8.59998C9.3 7.79998 10.3 7.39998 11.4 7.19998C11.2 8.59998 11.7 9.99998 12.8 11.1C13.9 12.2 15.4 12.7 16.7 12.5ZM8.6 15.4C7.5 14.3 7.1 12.9 7.2 11.5C6.2 11.6 5.1 12.1 4.3 12.9C2.4 14.8 2.4 17.8 4.3 19.7C6.2 21.6 9.2 21.6 11.1 19.7C11.9 18.9 12.3 17.9 12.5 16.8C11.1 16.9 9.7 16.4 8.6 15.4ZM12.8 4.39998C12 5.19998 11.6 6.19998 11.4 7.29998C11.2 8.69998 11.7 10.1 12.8 11.2C13.9 12.3 15.3 12.7 16.7 12.6C17.7 12.5 18.8 12 19.6 11.2C21.5 9.29998 21.5 6.29998 19.6 4.39998C17.7 2.49998 14.7 2.49998 12.8 4.39998Z" stroke="#E7E8EA" stroke-width="2" stroke-linecap="round" stroke-linejoin="round"/>
</svg>
