<svg width="24" height="24" viewBox="0 0 24 24" fill="none" xmlns="http://www.w3.org/2000/svg">
<path d="M21 11L13.2 18.9L9.1 14.8L3 21M21 15V11H17" stroke="#E7E8EA" stroke-width="2" stroke-linecap="round" stroke-linejoin="round"/>
<path d="M13 5C13 5.6 12.4 6.1 11.3 6.5C10.4 6.8 9.3 7 8 7C6.7 7 5.6 6.8 4.7 6.5C3.7 6.1 3 5.6 3 5C3 3.9 5.2 3 8 3C10.8 3 13 3.9 13 5Z" stroke="#E7E8EA" stroke-width="2" stroke-miterlimit="10" stroke-linecap="round" stroke-linejoin="round"/>
<path d="M13 5V8C13 8.6 12.3 9.1 11.3 9.5C10.4 9.8 9.3 10 8 10C6.7 10 5.6 9.8 4.7 9.5C3.7 9.1 3 8.6 3 8V5C3 5.6 3.7 6.1 4.7 6.5C5.6 6.8 6.7 7 8 7C9.3 7 10.4 6.8 11.3 6.5C12.4 6.1 13 5.6 13 5Z" stroke="#E7E8EA" stroke-width="2" stroke-miterlimit="10" stroke-linecap="round" stroke-linejoin="round"/>
</svg>
