<svg width="24" height="24" viewBox="0 0 24 24" fill="none" xmlns="http://www.w3.org/2000/svg">
<path d="M21 12C21 15.3 18.3 18 15 18C13.9 18 12.9 17.7 12 17.2C10.2 16.2 9 14.2 9 12C9 9.8 10.2 7.8 12 6.8C12.9 6.3 13.9 6 15 6C18.3 6 21 8.7 21 12Z" stroke="#E7E8EA" stroke-width="2" stroke-linecap="round" stroke-linejoin="round"/>
<path d="M9 12C9 9.8 10.2 7.8 12 6.8C11.1 6.3 10.1 6 9 6C5.7 6 3 8.7 3 12C3 15.3 5.7 18 9 18C10.1 18 11.1 17.7 12 17.2C10.2 16.2 9 14.2 9 12Z" stroke="#E7E8EA" stroke-width="2" stroke-linecap="round" stroke-linejoin="round"/>
<path d="M16 12L15 13.5L14 12L15 10.5L16 12Z" stroke="#E7E8EA" stroke-width="2" stroke-linecap="round" stroke-linejoin="round"/>
</svg>
