<svg width="24" height="24" viewBox="0 0 24 24" fill="none" xmlns="http://www.w3.org/2000/svg">
<path d="M12 7V8H11C8.8 8 7 6.2 7 4V3H8C10.2 3 12 4.8 12 7Z" stroke="#E7E8EA" stroke-width="2" stroke-linecap="round" stroke-linejoin="round"/>
<path d="M12 10V11H13C15.2 11 17 9.2 17 7V6H16C13.8 6 12 7.8 12 10Z" stroke="#E7E8EA" stroke-width="2" stroke-linecap="round" stroke-linejoin="round"/>
<path d="M12 3V17" stroke="#E7E8EA" stroke-width="2" stroke-linecap="round" stroke-linejoin="round"/>
<path d="M16 21C18.2091 21 20 19.2091 20 17C20 14.7909 18.2091 13 16 13C13.7909 13 12 14.7909 12 17C12 19.2091 13.7909 21 16 21Z" stroke="#E7E8EA" stroke-width="2" stroke-linecap="round" stroke-linejoin="round"/>
<path d="M8 21C10.2091 21 12 19.2091 12 17C12 14.7909 10.2091 13 8 13C5.79086 13 4 14.7909 4 17C4 19.2091 5.79086 21 8 21Z" stroke="#E7E8EA" stroke-width="2" stroke-linecap="round" stroke-linejoin="round"/>
</svg>
