<svg width="24" height="24" viewBox="0 0 24 24" fill="none" xmlns="http://www.w3.org/2000/svg">
<path d="M13 5C13 5.6 12.4 6.1 11.3 6.5C10.4 6.8 9.3 7 8 7C6.7 7 5.6 6.8 4.7 6.5C3.7 6.1 3 5.6 3 5C3 3.9 5.2 3 8 3C10.8 3 13 3.9 13 5Z" stroke="#E7E8EA" stroke-width="2" stroke-miterlimit="10" stroke-linecap="round" stroke-linejoin="round"/>
<path d="M13 5V8C13 8.6 12.3 9.1 11.3 9.5C10.4 9.8 9.3 10 8 10C6.7 10 5.6 9.8 4.7 9.5C3.7 9.1 3 8.6 3 8V5C3 5.6 3.7 6.1 4.7 6.5C5.6 6.8 6.7 7 8 7C9.3 7 10.4 6.8 11.3 6.5C12.4 6.1 13 5.6 13 5Z" stroke="#E7E8EA" stroke-width="2" stroke-miterlimit="10" stroke-linecap="round" stroke-linejoin="round"/>
<path d="M8 16C5.2 16 3 15.1 3 14V11C3 11.6 3.7 12.1 4.7 12.5C5.6 12.8 6.7 13 8 13" stroke="#E7E8EA" stroke-width="2" stroke-miterlimit="10" stroke-linecap="round" stroke-linejoin="round"/>
<path d="M8 13C6.7 13 5.6 12.8 4.7 12.5C3.7 12.1 3 11.6 3 11V8C3 8.6 3.7 9.1 4.7 9.5C5.6 9.8 6.7 10 8 10" stroke="#E7E8EA" stroke-width="2" stroke-miterlimit="10" stroke-linecap="round" stroke-linejoin="round"/>
<path d="M16 21C18.7614 21 21 18.7614 21 16C21 13.2386 18.7614 11 16 11C13.2386 11 11 13.2386 11 16C11 18.7614 13.2386 21 16 21Z" stroke="#E7E8EA" stroke-width="2" stroke-miterlimit="10" stroke-linecap="round" stroke-linejoin="round"/>
</svg>
