<svg width="24" height="24" viewBox="0 0 24 24" fill="none" xmlns="http://www.w3.org/2000/svg">
<path d="M7.3 12.5C7.4 13.5 7.9 14.6 8.7 15.4C9.5 16.2 10.5 16.6 11.6 16.8C13 17 14.4 16.5 15.5 15.4C16.6 14.3 17 12.9 16.9 11.5C16.8 10.5 16.3 9.39998 15.5 8.59998C14.7 7.79998 13.7 7.39998 12.6 7.19998C12.8 8.59998 12.3 9.99998 11.2 11.1C10.1 12.2 8.6 12.7 7.3 12.5ZM15.4 15.4C16.5 14.3 16.9 12.9 16.8 11.5C17.8 11.6 18.9 12.1 19.7 12.9C21.6 14.8 21.6 17.8 19.7 19.7C17.8 21.6 14.8 21.6 12.9 19.7C12.1 18.9 11.7 17.9 11.5 16.8C12.9 16.9 14.3 16.4 15.4 15.4ZM11.2 4.39998C12 5.19998 12.4 6.19998 12.6 7.29998C12.8 8.69998 12.3 10.1 11.2 11.2C10.1 12.3 8.7 12.7 7.3 12.6C6.3 12.5 5.2 12 4.4 11.2C2.5 9.29998 2.5 6.29998 4.4 4.39998C6.3 2.49998 9.3 2.49998 11.2 4.39998Z" stroke="#E7E8EA" stroke-width="2" stroke-linecap="round" stroke-linejoin="round"/>
</svg>
