<svg width="24" height="24" viewBox="0 0 24 24" fill="none" xmlns="http://www.w3.org/2000/svg">
<path d="M13 16C13 16.6 12.4 17.1 11.3 17.5C10.4 17.8 9.3 18 8 18C6.7 18 5.6 17.8 4.7 17.5C3.7 17.1 3 16.6 3 16C3 14.9 5.2 14 8 14C10.8 14 13 14.9 13 16Z" stroke="#E7E8EA" stroke-width="2" stroke-miterlimit="10" stroke-linecap="round" stroke-linejoin="round"/>
<path d="M13 16V19C13 19.6 12.3 20.1 11.3 20.5C10.4 20.8 9.3 21 8 21C6.7 21 5.6 20.8 4.7 20.5C3.7 20.1 3 19.6 3 19V16C3 16.6 3.7 17.1 4.7 17.5C5.6 17.8 6.7 18 8 18C9.3 18 10.4 17.8 11.3 17.5C12.4 17.1 13 16.6 13 16Z" stroke="#E7E8EA" stroke-width="2" stroke-miterlimit="10" stroke-linecap="round" stroke-linejoin="round"/>
<path d="M16 20.9C17.7 20.4 19 18.9 19 17V11H14C12.9 11 12 10.1 12 9V3H9C6.8 3 5 4.8 5 7V10.4" stroke="#E7E8EA" stroke-width="2" stroke-linecap="round" stroke-linejoin="round"/>
<path d="M12 3L19 11" stroke="#E7E8EA" stroke-width="2" stroke-linecap="round" stroke-linejoin="round"/>
</svg>
