<svg width="24" height="24" viewBox="0 0 24 24" fill="none" xmlns="http://www.w3.org/2000/svg">
<path d="M14 8.5C14 10.7 12.7 12.7 10.8 13.5C10.1 13.8 9.3 14 8.5 14C7.7 14 6.9 13.8 6.2 13.5C4.3 12.7 3 10.7 3 8.5C3 5.5 5.5 3 8.5 3C11.5 3 14 5.5 14 8.5Z" stroke="#E7E8EA" stroke-width="2" stroke-miterlimit="10" stroke-linecap="round" stroke-linejoin="round"/>
<path d="M14 15.5C14 16.1 13.3 16.7 12.2 17.1C11.2 17.4 10 17.7 8.5 17.7C7.1 17.7 5.8 17.5 4.9 17.1C3.8 16.7 3 16.1 3 15.5C3 14.6 4.3 13.8 6.2 13.5C6.9 13.8 7.7 14 8.5 14C9.3 14 10.1 13.8 10.8 13.5C12.7 13.9 14 14.6 14 15.5Z" stroke="#E7E8EA" stroke-width="2" stroke-miterlimit="10" stroke-linecap="round" stroke-linejoin="round"/>
<path d="M14 15.5V18.8C14 19.5 13.3 20.1 12.1 20.5C11.1 20.8 9.9 21 8.5 21C7.1 21 5.8 20.8 4.9 20.5C3.8 20.1 3 19.5 3 18.8V15.5C3 16.1 3.7 16.7 4.8 17.1C5.8 17.4 7.1 17.7 8.5 17.7C9.9 17.7 11.2 17.5 12.2 17.1C13.3 16.8 14 16.2 14 15.5Z" stroke="#E7E8EA" stroke-width="2" stroke-miterlimit="10" stroke-linecap="round" stroke-linejoin="round"/>
<path d="M21.0001 11C20.2001 10.9 19.5001 10.7 18.9001 10.5C17.8001 10.1 17.1001 9.50005 17.1001 8.90005C17.1001 7.90005 18.8001 7.00005 21.1001 6.80005" stroke="#E7E8EA" stroke-width="2" stroke-miterlimit="10" stroke-linecap="round" stroke-linejoin="round"/>
<path d="M21 20.9C18.7 20.6 17 19.8 17 18.8V15.5C17 16.2 17.7 16.7 18.9 17.2C19.5 17.4 20.2 17.6 21 17.7" stroke="#E7E8EA" stroke-width="2" stroke-miterlimit="10" stroke-linecap="round" stroke-linejoin="round"/>
<path d="M21 14.3C20.2 14.2 19.5 14.1 18.9 13.8C17.8 13.4 17 12.8 17 12.1V8.90002C17 9.60002 17.7 10.1 18.8 10.5C19.5 10.8 20.2 10.9 21 11" stroke="#E7E8EA" stroke-width="2" stroke-miterlimit="10" stroke-linecap="round" stroke-linejoin="round"/>
<path d="M21 17.6C20.2 17.5 19.5 17.4 18.9 17.1C17.8 16.7 17 16.1 17 15.4V12.1C17 12.8 17.7 13.3 18.9 13.8C19.5 14 20.2 14.2 21 14.3" stroke="#E7E8EA" stroke-width="2" stroke-miterlimit="10" stroke-linecap="round" stroke-linejoin="round"/>
</svg>
