<svg width="24" height="24" viewBox="0 0 24 24" fill="none" xmlns="http://www.w3.org/2000/svg">
<path d="M3 10C3 10.6 3.6 11.1 4.7 11.5C5.6 11.8 6.7 12 8 12C9.3 12 10.4 11.8 11.3 11.5C12.3 11.1 13 10.6 13 10C13 8.9 10.8 8 8 8C5.2 8 3 8.9 3 10Z" stroke="#E7E8EA" stroke-width="2" stroke-miterlimit="10" stroke-linecap="round" stroke-linejoin="round"/>
<path d="M3 16V19C3 20.1 5.2 21 8 21C10.8 21 13 20.1 13 19V16C13 16.6 12.3 17.1 11.3 17.5C10.4 17.8 9.3 18 8 18C6.7 18 5.6 17.8 4.7 17.5C3.7 17.1 3 16.6 3 16Z" stroke="#E7E8EA" stroke-width="2" stroke-miterlimit="10" stroke-linecap="round" stroke-linejoin="round"/>
<path d="M3 10V13C3 13.6 3.7 14.1 4.7 14.5C5.6 14.8 6.7 15 8 15C9.3 15 10.4 14.8 11.3 14.5C12.3 14.1 13 13.6 13 13V10C13 10.6 12.3 11.1 11.3 11.5C10.4 11.8 9.3 12 8 12C6.7 12 5.6 11.8 4.7 11.5C3.6 11.1 3 10.6 3 10Z" stroke="#E7E8EA" stroke-width="2" stroke-miterlimit="10" stroke-linecap="round" stroke-linejoin="round"/>
<path d="M3 13V16C3 16.6 3.7 17.1 4.7 17.5C5.6 17.8 6.7 18 8 18C9.3 18 10.4 17.8 11.3 17.5C12.3 17.1 13 16.6 13 16V13C13 13.6 12.3 14.1 11.3 14.5C10.4 14.8 9.3 15 8 15C6.7 15 5.6 14.8 4.7 14.5C3.7 14.1 3 13.6 3 13Z" stroke="#E7E8EA" stroke-width="2" stroke-miterlimit="10" stroke-linecap="round" stroke-linejoin="round"/>
<path d="M16 7C17.3 7 18.4 6.8 19.3 6.5C20.3 6.1 21 5.6 21 5C21 3.9 18.8 3 16 3C13.2 3 11 3.9 11 5" stroke="#E7E8EA" stroke-width="2" stroke-miterlimit="10" stroke-linecap="round" stroke-linejoin="round"/>
<path d="M16 16C18.8 16 21 15.1 21 14V11C21 11.6 20.3 12.1 19.3 12.5C18.4 12.8 17.3 13 16 13" stroke="#E7E8EA" stroke-width="2" stroke-miterlimit="10" stroke-linecap="round" stroke-linejoin="round"/>
<path d="M16 7C17.3 7 18.4 6.8 19.3 6.5C20.4 6.1 21 5.6 21 5V8C21 8.6 20.3 9.1 19.3 9.5C18.4 9.8 17.3 10 16 10" stroke="#E7E8EA" stroke-width="2" stroke-miterlimit="10" stroke-linecap="round" stroke-linejoin="round"/>
<path d="M16 13C17.3 13 18.4 12.8 19.3 12.5C20.3 12.1 21 11.6 21 11V8C21 8.6 20.3 9.1 19.3 9.5C18.4 9.8 17.3 10 16 10" stroke="#E7E8EA" stroke-width="2" stroke-miterlimit="10" stroke-linecap="round" stroke-linejoin="round"/>
</svg>
