<svg width="24" height="24" viewBox="0 0 24 24" fill="none" xmlns="http://www.w3.org/2000/svg">
<path d="M20 13C20 16.3 17.3 19 14 19H10C8.3 19 6.8 18.3 5.8 17.2C5 16.5 4.5 15.5 4.2 14.5H3V11.5H4.2C4.8 9.19998 6.8 7.39998 9.2 7.09998C9.6 8.19998 10.7 8.99998 12 8.99998C13.3 8.99998 14.4 8.19998 14.8 7.09998C16.1 7.29998 17.3 7.89998 18.2 8.79998C19.3 9.79998 20 11.3 20 13Z" stroke="#E7E8EA" stroke-width="2" stroke-miterlimit="10" stroke-linecap="round" stroke-linejoin="round"/>
<path d="M9 21V19" stroke="#E7E8EA" stroke-width="2" stroke-miterlimit="10" stroke-linecap="round" stroke-linejoin="round"/>
<path d="M15 21V19" stroke="#E7E8EA" stroke-width="2" stroke-miterlimit="10" stroke-linecap="round" stroke-linejoin="round"/>
<path d="M21 13H20" stroke="#E7E8EA" stroke-width="2" stroke-miterlimit="10" stroke-linecap="round" stroke-linejoin="round"/>
<path d="M15 6C15 6.4 14.9 6.7 14.8 7.1C14.4 8.2 13.3 9 12 9C10.7 9 9.6 8.2 9.2 7.1C9.1 6.7 9 6.4 9 6C9 4.3 10.3 3 12 3C13.7 3 15 4.3 15 6Z" stroke="#E7E8EA" stroke-width="2" stroke-miterlimit="10" stroke-linecap="round" stroke-linejoin="round"/>
<path d="M9 11H15" stroke="#E7E8EA" stroke-width="2" stroke-miterlimit="10" stroke-linecap="round" stroke-linejoin="round"/>
</svg>
