<svg width="24" height="24" viewBox="0 0 24 24" fill="none" xmlns="http://www.w3.org/2000/svg">
<path d="M10 8.5C10 10.7 11.3 12.7 13.2 13.5C13.9 13.8 14.7 14 15.5 14C16.3 14 17.1 13.8 17.8 13.5C19.7 12.7 21 10.7 21 8.5C21 5.5 18.5 3 15.5 3C12.5 3 10 5.5 10 8.5Z" stroke="#E7E8EA" stroke-width="2" stroke-miterlimit="10" stroke-linecap="round" stroke-linejoin="round"/>
<path d="M10 15.5C10 16.1 10.7 16.7 11.8 17.1C12.8 17.4 14 17.7 15.5 17.7C16.9 17.7 18.2 17.5 19.1 17.1C20.2 16.7 21 16.1 21 15.5C21 14.6 19.7 13.8 17.8 13.5C17.1 13.8 16.3 14 15.5 14C14.7 14 13.9 13.8 13.2 13.5C11.3 13.9 10 14.6 10 15.5Z" stroke="#E7E8EA" stroke-width="2" stroke-miterlimit="10" stroke-linecap="round" stroke-linejoin="round"/>
<path d="M10 15.5V18.8C10 19.5 10.7 20.1 11.9 20.5C12.9 20.8 14.1 21 15.5 21C16.9 21 18.2 20.8 19.1 20.5C20.2 20.1 21 19.5 21 18.8V15.5C21 16.1 20.3 16.7 19.2 17.1C18.2 17.4 16.9 17.7 15.5 17.7C14.1 17.7 12.8 17.5 11.8 17.1C10.7 16.8 10 16.2 10 15.5Z" stroke="#E7E8EA" stroke-width="2" stroke-miterlimit="10" stroke-linecap="round" stroke-linejoin="round"/>
<path d="M2.9999 11C3.7999 10.9 4.4999 10.7 5.0999 10.5C6.1999 10.1 6.8999 9.50005 6.8999 8.90005C6.8999 7.90005 5.1999 7.00005 2.8999 6.80005" stroke="#E7E8EA" stroke-width="2" stroke-miterlimit="10" stroke-linecap="round" stroke-linejoin="round"/>
<path d="M3 20.9C5.3 20.6 7 19.8 7 18.8V15.5C7 16.2 6.3 16.7 5.1 17.2C4.5 17.4 3.8 17.6 3 17.7" stroke="#E7E8EA" stroke-width="2" stroke-miterlimit="10" stroke-linecap="round" stroke-linejoin="round"/>
<path d="M3 14.3C3.8 14.2 4.5 14.1 5.1 13.8C6.2 13.4 7 12.8 7 12.1V8.90002C7 9.60002 6.3 10.1 5.2 10.5C4.5 10.8 3.8 10.9 3 11" stroke="#E7E8EA" stroke-width="2" stroke-miterlimit="10" stroke-linecap="round" stroke-linejoin="round"/>
<path d="M3 17.6C3.8 17.5 4.5 17.4 5.1 17.1C6.2 16.7 7 16.1 7 15.4V12.1C7 12.8 6.3 13.3 5.1 13.8C4.5 14 3.8 14.2 3 14.3" stroke="#E7E8EA" stroke-width="2" stroke-miterlimit="10" stroke-linecap="round" stroke-linejoin="round"/>
</svg>
