<svg width="24" height="24" viewBox="0 0 24 24" fill="none" xmlns="http://www.w3.org/2000/svg">
<path d="M21 10C21 10.6 20.4 11.1 19.3 11.5C18.4 11.8 17.3 12 16 12C14.7 12 13.6 11.8 12.7 11.5C11.7 11.1 11 10.6 11 10C11 8.9 13.2 8 16 8C18.8 8 21 8.9 21 10Z" stroke="#E7E8EA" stroke-width="2" stroke-miterlimit="10" stroke-linecap="round" stroke-linejoin="round"/>
<path d="M21 16V19C21 20.1 18.8 21 16 21C13.2 21 11 20.1 11 19V16C11 16.6 11.7 17.1 12.7 17.5C13.6 17.8 14.7 18 16 18C17.3 18 18.4 17.8 19.3 17.5C20.3 17.1 21 16.6 21 16Z" stroke="#E7E8EA" stroke-width="2" stroke-miterlimit="10" stroke-linecap="round" stroke-linejoin="round"/>
<path d="M21 10V13C21 13.6 20.3 14.1 19.3 14.5C18.4 14.8 17.3 15 16 15C14.7 15 13.6 14.8 12.7 14.5C11.7 14.1 11 13.6 11 13V10C11 10.6 11.7 11.1 12.7 11.5C13.6 11.8 14.7 12 16 12C17.3 12 18.4 11.8 19.3 11.5C20.4 11.1 21 10.6 21 10Z" stroke="#E7E8EA" stroke-width="2" stroke-miterlimit="10" stroke-linecap="round" stroke-linejoin="round"/>
<path d="M21 13V16C21 16.6 20.3 17.1 19.3 17.5C18.4 17.8 17.3 18 16 18C14.7 18 13.6 17.8 12.7 17.5C11.7 17.1 11 16.6 11 16V13C11 13.6 11.7 14.1 12.7 14.5C13.6 14.8 14.7 15 16 15C17.3 15 18.4 14.8 19.3 14.5C20.3 14.1 21 13.6 21 13Z" stroke="#E7E8EA" stroke-width="2" stroke-miterlimit="10" stroke-linecap="round" stroke-linejoin="round"/>
<path d="M8 7C6.7 7 5.6 6.8 4.7 6.5C3.7 6.1 3 5.6 3 5C3 3.9 5.2 3 8 3C10.8 3 13 3.9 13 5" stroke="#E7E8EA" stroke-width="2" stroke-miterlimit="10" stroke-linecap="round" stroke-linejoin="round"/>
<path d="M8 16C5.2 16 3 15.1 3 14V11C3 11.6 3.7 12.1 4.7 12.5C5.6 12.8 6.7 13 8 13" stroke="#E7E8EA" stroke-width="2" stroke-miterlimit="10" stroke-linecap="round" stroke-linejoin="round"/>
<path d="M8 7C6.7 7 5.6 6.8 4.7 6.5C3.6 6.1 3 5.6 3 5V8C3 8.6 3.7 9.1 4.7 9.5C5.6 9.8 6.7 10 8 10" stroke="#E7E8EA" stroke-width="2" stroke-miterlimit="10" stroke-linecap="round" stroke-linejoin="round"/>
<path d="M8 13C6.7 13 5.6 12.8 4.7 12.5C3.7 12.1 3 11.6 3 11V8C3 8.6 3.7 9.1 4.7 9.5C5.6 9.8 6.7 10 8 10" stroke="#E7E8EA" stroke-width="2" stroke-miterlimit="10" stroke-linecap="round" stroke-linejoin="round"/>
</svg>
