<svg width="24" height="24" viewBox="0 0 24 24" fill="none" xmlns="http://www.w3.org/2000/svg">
<path d="M14 8.5C14 10.7 12.7 12.7 10.8 13.5C10.1 13.8 9.3 14 8.5 14C7.7 14 6.9 13.8 6.2 13.5C4.3 12.7 3 10.7 3 8.5C3 5.5 5.5 3 8.5 3C11.5 3 14 5.5 14 8.5Z" stroke="#E7E8EA" stroke-width="2" stroke-miterlimit="10" stroke-linecap="round" stroke-linejoin="round"/>
<path d="M14 15.5C14 16.1 13.3 16.7 12.2 17.1C11.2 17.4 10 17.7 8.5 17.7C7.1 17.7 5.8 17.5 4.9 17.1C3.8 16.7 3 16.1 3 15.5C3 14.6 4.3 13.8 6.2 13.5C6.9 13.8 7.7 14 8.5 14C9.3 14 10.1 13.8 10.8 13.5C12.7 13.9 14 14.6 14 15.5Z" stroke="#E7E8EA" stroke-width="2" stroke-miterlimit="10" stroke-linecap="round" stroke-linejoin="round"/>
<path d="M14 15.5V18.8C14 19.5 13.3 20.1 12.1 20.5C11.1 20.8 9.9 21 8.5 21C7.1 21 5.8 20.8 4.9 20.5C3.8 20.1 3 19.5 3 18.8V15.5C3 16.1 3.7 16.7 4.8 17.1C5.8 17.4 7.1 17.7 8.5 17.7C9.9 17.7 11.2 17.5 12.2 17.1C13.3 16.8 14 16.2 14 15.5Z" stroke="#E7E8EA" stroke-width="2" stroke-miterlimit="10" stroke-linecap="round" stroke-linejoin="round"/>
<path d="M17 5L19 3L21 5" stroke="#E7E8EA" stroke-width="2" stroke-linecap="round" stroke-linejoin="round"/>
<path d="M19 21V3" stroke="#E7E8EA" stroke-width="2" stroke-linecap="round" stroke-linejoin="round"/>
</svg>
