<svg width="24" height="24" viewBox="0 0 24 24" fill="none" xmlns="http://www.w3.org/2000/svg">
<path d="M15.8 3H17C19.2 3 21 4.8 21 7V8.1" stroke="#E7E8EA" stroke-width="2" stroke-linecap="round" stroke-linejoin="round"/>
<path d="M3 8.3V7C3 4.8 4.8 3 7 3H8.1" stroke="#E7E8EA" stroke-width="2" stroke-linecap="round" stroke-linejoin="round"/>
<path d="M8.3 21H7C4.8 21 3 19.2 3 17V15.9" stroke="#E7E8EA" stroke-width="2" stroke-linecap="round" stroke-linejoin="round"/>
<path d="M20.9999 15.8V17C20.9999 19.2 19.1999 21 16.9999 21H15.8999" stroke="#E7E8EA" stroke-width="2" stroke-linecap="round" stroke-linejoin="round"/>
<path d="M17 10.5C17 11.1 16.4 11.6 15.3 12C14.4 12.3 13.3 12.5 12 12.5C10.7 12.5 9.6 12.3 8.7 12C7.7 11.6 7 11.1 7 10.5C7 9.4 9.2 8.5 12 8.5C14.8 8.5 17 9.4 17 10.5Z" stroke="#E7E8EA" stroke-width="2" stroke-miterlimit="10" stroke-linecap="round" stroke-linejoin="round"/>
<path d="M17 10.5V13.5C17 14.1 16.3 14.6 15.3 15C14.4 15.3 13.3 15.5 12 15.5C10.7 15.5 9.6 15.3 8.7 15C7.7 14.6 7 14.1 7 13.5V10.5C7 11.1 7.7 11.6 8.7 12C9.6 12.3 10.8 12.5 12 12.5C13.3 12.5 14.4 12.3 15.3 12C16.4 11.6 17 11.1 17 10.5Z" stroke="#E7E8EA" stroke-width="2" stroke-miterlimit="10" stroke-linecap="round" stroke-linejoin="round"/>
</svg>
