<svg width="24" height="24" viewBox="0 0 24 24" fill="none" xmlns="http://www.w3.org/2000/svg">
<path d="M11 9C11 11.2 9.2 13 7 13C4.8 13 3 11.2 3 9C3 6.8 4.8 5 7 5C9.2 5 11 6.8 11 9Z" stroke="#E7E8EA" stroke-width="2" stroke-linecap="round" stroke-linejoin="round"/>
<path d="M21 15C21 17.2 19.2 19 17 19C14.8 19 13 17.2 13 15C13 12.8 14.8 11 17 11C19.2 11 21 12.8 21 15Z" stroke="#E7E8EA" stroke-width="2" stroke-linecap="round" stroke-linejoin="round"/>
<path d="M13 4.6C14.4 4.6 15.8 5 17 5.7C17.7 6.1 18.4 6.6 18.9 7.2M17.9 3L19 7.2" stroke="#E7E8EA" stroke-width="2" stroke-linecap="round" stroke-linejoin="round"/>
<path d="M11 19.4C9.6 19.4 8.2 19 7 18.3C6.3 17.9 5.6 17.4 5.1 16.8M6.1 21L5 16.8" stroke="#E7E8EA" stroke-width="2" stroke-linecap="round" stroke-linejoin="round"/>
</svg>
