<svg width="24" height="24" viewBox="0 0 24 24" fill="none" xmlns="http://www.w3.org/2000/svg">
<path d="M17 21H7C4.8 21 3 19.2 3 17V7C3 4.8 4.8 3 7 3H17C19.2 3 21 4.8 21 7V17C21 19.2 19.2 21 17 21Z" stroke="#E7E8EA" stroke-width="2" stroke-miterlimit="10" stroke-linecap="round" stroke-linejoin="round"/>
<path d="M1 9H5" stroke="#E7E8EA" stroke-width="2" stroke-miterlimit="10" stroke-linecap="round" stroke-linejoin="round"/>
<path d="M1 15H5" stroke="#E7E8EA" stroke-width="2" stroke-miterlimit="10" stroke-linecap="round" stroke-linejoin="round"/>
<path d="M12.504 17C11.5554 16.2073 10.8621 15.2622 10.4243 14.2256M12.504 17C11.5189 16.1768 10.8256 15.2317 10.4243 14.2256M12.504 17L13.4527 17C13.7446 17 13.9635 16.8171 13.9635 16.5732L13.9635 15.1098C14 14.5915 13.5257 14.1951 12.9419 14.1951L10.4243 14.2256M10.4243 14.2256C9.87697 12.7927 9.84048 11.2378 10.4243 9.77439M10.4243 9.77439C10.8256 8.76829 11.5189 7.82317 12.504 7L13.4527 7C13.7446 7 14 7.21341 14 7.45732V8.92073C14 9.40854 13.5257 9.80488 12.9054 9.77439L10.4243 9.77439Z" stroke="#E7E8EA" stroke-width="2" stroke-miterlimit="10" stroke-linecap="round" stroke-linejoin="round"/>
</svg>
