<svg width="24" height="24" viewBox="0 0 24 24" fill="none" xmlns="http://www.w3.org/2000/svg">
<path d="M4 7.9C4.4 7.1 5 6.3 5.6 5.7C7.3 4 9.5 3 12 3C14.3 3 16.4 3.9 18 5.3C19.6 6.7 20.7 8.7 20.9 11" stroke="#E7E8EA" stroke-width="2" stroke-linecap="round" stroke-linejoin="round"/>
<path d="M4 7.9V3" stroke="#E7E8EA" stroke-width="2" stroke-linecap="round" stroke-linejoin="round"/>
<path d="M19.9 16.1C19.5 16.9 18.9 17.7 18.3 18.3C16.7 20 14.4 21 11.9 21C9.6 21 7.5 20.1 5.9 18.7C4.3 17.2 3.2 15.2 3 13" stroke="#E7E8EA" stroke-width="2" stroke-linecap="round" stroke-linejoin="round"/>
<path d="M20 16.1V21" stroke="#E7E8EA" stroke-width="2" stroke-linecap="round" stroke-linejoin="round"/>
<path d="M8 13.5H12" stroke="#E7E8EA" stroke-width="2" stroke-linecap="round" stroke-linejoin="round"/>
<path d="M8 10.5H12" stroke="#E7E8EA" stroke-width="2" stroke-linecap="round" stroke-linejoin="round"/>
<path d="M14.9 14.9C14.5 16.1 13.4 17 12 17C11.2 17 10.4 16.7 9.9 16.1C9.4 15.5 9 14.8 9 14V10C9 8.3 10.3 7 12 7C12.8 7 13.6 7.3 14.1 7.9C14.4 8.2 14.7 8.7 14.9 9.1" stroke="#E7E8EA" stroke-width="2" stroke-linecap="round" stroke-linejoin="round"/>
</svg>
