<svg width="24" height="24" viewBox="0 0 24 24" fill="none" xmlns="http://www.w3.org/2000/svg">
<path d="M4 7.9C4.4 7.1 5 6.3 5.6 5.7C7.3 4 9.5 3 12 3C14.3 3 16.4 3.9 18 5.3C19.6 6.7 20.7 8.7 20.9 11" stroke="#E7E8EA" stroke-width="2" stroke-linecap="round" stroke-linejoin="round"/>
<path d="M4 7.9V3" stroke="#E7E8EA" stroke-width="2" stroke-linecap="round" stroke-linejoin="round"/>
<path d="M19.9 16.1C19.5 16.9 18.9 17.7 18.3 18.3C16.7 20 14.4 21 11.9 21C9.6 21 7.5 20.1 5.9 18.7C4.3 17.2 3.2 15.2 3 13" stroke="#E7E8EA" stroke-width="2" stroke-linecap="round" stroke-linejoin="round"/>
<path d="M20 16.1V21" stroke="#E7E8EA" stroke-width="2" stroke-linecap="round" stroke-linejoin="round"/>
<path d="M12 7V8M14.4 9.5C14.2 8.6 13.4 8 12.5 8H11.5C10.4 8 9.5 8.9 9.5 10C9.5 11.1 10.4 12 11.5 12H12.5C13.6 12 14.5 12.9 14.5 14C14.5 15.1 13.6 16 12.5 16H11.5C10.6 16 9.8 15.3 9.6 14.5M12 16V17" stroke="#E7E8EA" stroke-width="2" stroke-linecap="round" stroke-linejoin="round"/>
</svg>
