<svg width="24" height="24" viewBox="0 0 24 24" fill="none" xmlns="http://www.w3.org/2000/svg">
<path d="M13 4.6C14.4 4.6 15.8 5 17 5.7C17.7 6.1 18.4 6.6 18.9 7.2M17.9 3L19 7.2" stroke="#E7E8EA" stroke-width="2" stroke-linecap="round" stroke-linejoin="round"/>
<path d="M11 19.4C9.6 19.4 8.2 19 7 18.3C6.3 17.9 5.6 17.4 5.1 16.8M6.1 21L5 16.8" stroke="#E7E8EA" stroke-width="2" stroke-linecap="round" stroke-linejoin="round"/>
<path d="M14 18H18" stroke="#E7E8EA" stroke-width="2" stroke-linecap="round" stroke-linejoin="round"/>
<path d="M14 15H18" stroke="#E7E8EA" stroke-width="2" stroke-linecap="round" stroke-linejoin="round"/>
<path d="M21 18.9C20.5932 20.1 19.4746 21 18.0508 21C17.2373 21 16.4237 20.7 15.9153 20.1C15.4068 19.5 15 18.8 15 18V15C15 13.3 16.322 12 18.0508 12C18.8644 12 19.678 12.3 20.1864 12.9C20.4915 13.2 20.7966 13.7 21 14.1" stroke="#E7E8EA" stroke-width="2" stroke-linecap="round" stroke-linejoin="round"/>
<path d="M6.5 3V4M8.9 5.5C8.7 4.6 7.9 4 7 4H6C4.9 4 4 4.9 4 6C4 7.1 4.9 8 6 8H7C8.1 8 9 8.9 9 10C9 11.1 8.1 12 7 12H6C5.1 12 4.3 11.3 4.1 10.5M6.5 12V13" stroke="#E7E8EA" stroke-width="2" stroke-linecap="round" stroke-linejoin="round"/>
</svg>
