<svg width="24" height="24" viewBox="0 0 24 24" fill="none" xmlns="http://www.w3.org/2000/svg">
<path d="M21 12C21 17 17 21 12 21C7 21 3 17 3 12C3 7 7 3 12 3C17 3 21 7 21 12Z" stroke="#E7E8EA" stroke-width="2" stroke-linecap="round" stroke-linejoin="round"/>
<path d="M8 13.5H12" stroke="#E7E8EA" stroke-width="2" stroke-linecap="round" stroke-linejoin="round"/>
<path d="M8 10.5H12" stroke="#E7E8EA" stroke-width="2" stroke-linecap="round" stroke-linejoin="round"/>
<path d="M14.9 14.9C14.5 16.1 13.4 17 12 17C11.2 17 10.4 16.7 9.9 16.1C9.4 15.5 9 14.8 9 14V10C9 8.3 10.3 7 12 7C12.8 7 13.6 7.3 14.1 7.9C14.4 8.2 14.7 8.7 14.9 9.1" stroke="#E7E8EA" stroke-width="2" stroke-linecap="round" stroke-linejoin="round"/>
</svg>
