<svg width="24" height="24" viewBox="0 0 24 24" fill="none" xmlns="http://www.w3.org/2000/svg">
<path d="M13 4.6C14.4 4.6 15.8 5 17 5.7C17.7 6.1 18.4 6.6 18.9 7.2M17.9 3L19 7.2" stroke="#E7E8EA" stroke-width="2" stroke-linecap="round" stroke-linejoin="round"/>
<path d="M11 19.4C9.6 19.4 8.2 19 7 18.3C6.3 17.9 5.6 17.4 5.1 16.8M6.1 21L5 16.8" stroke="#E7E8EA" stroke-width="2" stroke-linecap="round" stroke-linejoin="round"/>
<path d="M17.5 12V13M19.9 14.5C19.7 13.6 18.9 13 18 13H17C15.9 13 15 13.9 15 15C15 16.1 15.9 17 17 17H18C19.1 17 20 17.9 20 19C20 20.1 19.1 21 18 21H17C16.1 21 15.3 20.3 15.1 19.5M17.5 21V22" stroke="#E7E8EA" stroke-width="2" stroke-linecap="round" stroke-linejoin="round"/>
<path d="M3 12H9" stroke="#E7E8EA" stroke-width="2" stroke-linecap="round" stroke-linejoin="round"/>
<path d="M3 8H7" stroke="#E7E8EA" stroke-width="2" stroke-linecap="round" stroke-linejoin="round"/>
<path d="M5 12V5C5 3.9 5.9 3 7 3C8.1 3 9 3.9 9 5" stroke="#E7E8EA" stroke-width="2" stroke-linecap="round" stroke-linejoin="round"/>
</svg>
