<svg width="24" height="24" viewBox="0 0 24 24" fill="none" xmlns="http://www.w3.org/2000/svg">
<path d="M4 7.9C4.4 7.1 5 6.3 5.6 5.7C7.3 4 9.5 3 12 3C14.3 3 16.4 3.9 18 5.3C19.6 6.7 20.7 8.7 20.9 11" stroke="#E7E8EA" stroke-width="2" stroke-linecap="round" stroke-linejoin="round"/>
<path d="M4 7.9V3" stroke="#E7E8EA" stroke-width="2" stroke-linecap="round" stroke-linejoin="round"/>
<path d="M19.9 16.1C19.5 16.9 18.9 17.7 18.3 18.3C16.7 20 14.4 21 11.9 21C9.6 21 7.5 20.1 5.9 18.7C4.3 17.2 3.2 15.2 3 13" stroke="#E7E8EA" stroke-width="2" stroke-linecap="round" stroke-linejoin="round"/>
<path d="M20 16.1V21" stroke="#E7E8EA" stroke-width="2" stroke-linecap="round" stroke-linejoin="round"/>
<path d="M12 7V8" stroke="#E7E8EA" stroke-width="2" stroke-linecap="round" stroke-linejoin="round"/>
<path d="M13 12H10V8H13C14.1 8 15 8.9 15 10C15 11.1 14.1 12 13 12Z" stroke="#E7E8EA" stroke-width="2" stroke-linecap="round" stroke-linejoin="round"/>
<path d="M13 16H10V12H13C14.1 12 15 12.9 15 14C15 15.1 14.1 16 13 16Z" stroke="#E7E8EA" stroke-width="2" stroke-linecap="round" stroke-linejoin="round"/>
<path d="M12 16V17" stroke="#E7E8EA" stroke-width="2" stroke-linecap="round" stroke-linejoin="round"/>
</svg>
