<svg width="24" height="24" viewBox="0 0 24 24" fill="none" xmlns="http://www.w3.org/2000/svg">
<path d="M13 4.6C14.4 4.6 15.8 5 17 5.7C17.7 6.1 18.4 6.6 18.9 7.2M17.9 3L19 7.2" stroke="#E7E8EA" stroke-width="2" stroke-linecap="round" stroke-linejoin="round"/>
<path d="M11 19.4C9.6 19.4 8.2 19 7 18.3C6.3 17.9 5.6 17.4 5.1 16.8M6.1 21L5 16.8" stroke="#E7E8EA" stroke-width="2" stroke-linecap="round" stroke-linejoin="round"/>
<path d="M17.5 12V13M19.9 14.5C19.7 13.6 18.9 13 18 13H17C15.9 13 15 13.9 15 15C15 16.1 15.9 17 17 17H18C19.1 17 20 17.9 20 19C20 20.1 19.1 21 18 21H17C16.1 21 15.3 20.3 15.1 19.5M17.5 21V22" stroke="#E7E8EA" stroke-width="2" stroke-linecap="round" stroke-linejoin="round"/>
<path d="M2.1001 9H6.1001" stroke="#E7E8EA" stroke-width="2" stroke-linecap="round" stroke-linejoin="round"/>
<path d="M2.1001 6H6.1001" stroke="#E7E8EA" stroke-width="2" stroke-linecap="round" stroke-linejoin="round"/>
<path d="M9.0001 9.9C8.6001 11.1 7.5001 12 6.1001 12C5.3001 12 4.5001 11.7 4.0001 11.1C3.5001 10.5 3.1001 9.8 3.1001 9V6C3.1001 4.3 4.4001 3 6.1001 3C6.9001 3 7.7001 3.3 8.2001 3.9C8.5001 4.2 8.8001 4.7 9.0001 5.1" stroke="#E7E8EA" stroke-width="2" stroke-linecap="round" stroke-linejoin="round"/>
</svg>
