<svg width="24" height="24" viewBox="0 0 24 24" fill="none" xmlns="http://www.w3.org/2000/svg">
<path d="M12 9C13.7 9 15 7.7 15 6C15 4.3 13.7 3 12 3C10.3 3 9 4.3 9 6C9 7.7 10.3 9 12 9Z" stroke="#E7E8EA" stroke-width="2" stroke-linecap="round" stroke-linejoin="round"/>
<path d="M5 21V20C5 18.1 5.8 16.3 7 15C8.3 13.7 10 13 12 13C15.9 13 19 16.1 19 20V21" stroke="#E7E8EA" stroke-width="2" stroke-linecap="round" stroke-linejoin="round"/>
<path d="M21 5L18.5 7.5H21L18.5 10" stroke="#E7E8EA" stroke-width="2" stroke-linecap="round" stroke-linejoin="round"/>
<path d="M3 5L5.5 7.5H3L5.5 10" stroke="#E7E8EA" stroke-width="2" stroke-linecap="round" stroke-linejoin="round"/>
</svg>
