<svg width="24" height="24" viewBox="0 0 24 24" fill="none" xmlns="http://www.w3.org/2000/svg">
<path d="M21 12L3 12" stroke="#E7E8EA" stroke-width="2" stroke-miterlimit="10" stroke-linecap="round" stroke-linejoin="round"/>
<path d="M11.0001 8L13.0001 8C14.0001 8 14.7001 6.9 14.3001 6L13.2001 3.8C12.7001 2.7 11.1001 2.8 10.6001 3.9L9.7001 6.1C9.3001 7 10.0001 8 11.0001 8Z" stroke="#E7E8EA" stroke-width="2" stroke-miterlimit="10" stroke-linecap="round" stroke-linejoin="round"/>
<path d="M12 8L12 12" stroke="#E7E8EA" stroke-width="2" stroke-miterlimit="10" stroke-linecap="round" stroke-linejoin="round"/>
<path d="M17.6 16L15.6 16C14.6 16 13.9 17.1 14.3 18L15.5 20.2C16 21.3 17.6 21.2 18 20.1L18.9 17.9C19.3 17 18.6 16 17.6 16Z" stroke="#E7E8EA" stroke-width="2" stroke-miterlimit="10" stroke-linecap="round" stroke-linejoin="round"/>
<path d="M16.6001 16L16.6001 12" stroke="#E7E8EA" stroke-width="2" stroke-miterlimit="10" stroke-linecap="round" stroke-linejoin="round"/>
<path d="M8.4 16L6.4 16C5.4 16 4.7 17.1 5.1 18L6.2 20.2C6.7 21.3 8.3 21.2 8.8 20.1L9.7 17.9C10.1 17 9.4 16 8.4 16Z" stroke="#E7E8EA" stroke-width="2" stroke-miterlimit="10" stroke-linecap="round" stroke-linejoin="round"/>
<path d="M7.3999 16L7.3999 12" stroke="#E7E8EA" stroke-width="2" stroke-miterlimit="10" stroke-linecap="round" stroke-linejoin="round"/>
</svg>
