<svg width="24" height="24" viewBox="0 0 24 24" fill="none" xmlns="http://www.w3.org/2000/svg">
<path d="M3 12H21" stroke="#E7E8EA" stroke-width="2" stroke-miterlimit="10" stroke-linecap="round" stroke-linejoin="round"/>
<path d="M12.9999 16H10.9999C9.9999 16 9.2999 17.1 9.6999 18L10.7999 20.2C11.2999 21.3 12.8999 21.2 13.3999 20.1L14.2999 17.9C14.6999 17 13.9999 16 12.9999 16Z" stroke="#E7E8EA" stroke-width="2" stroke-miterlimit="10" stroke-linecap="round" stroke-linejoin="round"/>
<path d="M12 16V12" stroke="#E7E8EA" stroke-width="2" stroke-miterlimit="10" stroke-linecap="round" stroke-linejoin="round"/>
<path d="M6.40005 8.00002H8.40005C9.40005 8.00002 10.1 6.90002 9.70005 6.00002L8.50005 3.80002C8.00005 2.70002 6.40005 2.80002 6.00005 3.90002L5.10005 6.10002C4.70005 7.00002 5.40005 8.00002 6.40005 8.00002Z" stroke="#E7E8EA" stroke-width="2" stroke-miterlimit="10" stroke-linecap="round" stroke-linejoin="round"/>
<path d="M7.3999 8V12" stroke="#E7E8EA" stroke-width="2" stroke-miterlimit="10" stroke-linecap="round" stroke-linejoin="round"/>
<path d="M15.6 8.00002H17.6C18.6 8.00002 19.3 6.90002 18.9 6.00002L17.8 3.80002C17.3 2.70002 15.7 2.80002 15.2 3.90002L14.3 6.10002C13.9 7.00002 14.6 8.00002 15.6 8.00002Z" stroke="#E7E8EA" stroke-width="2" stroke-miterlimit="10" stroke-linecap="round" stroke-linejoin="round"/>
<path d="M16.6001 8V12" stroke="#E7E8EA" stroke-width="2" stroke-miterlimit="10" stroke-linecap="round" stroke-linejoin="round"/>
</svg>
