<svg width="24" height="24" viewBox="0 0 24 24" fill="none" xmlns="http://www.w3.org/2000/svg">
<path fill-rule="evenodd" clip-rule="evenodd" d="M9.20259 15L5.11906 15C3.72666 15 2.70557 13.4545 3.07688 12.0909L5.21188 5C5.58319 3.81818 6.6971 3 7.90385 3L14.865 3C16.0717 3 17 3.90909 17 5.09091L17 13.4545C17 14.2727 16.6287 15.0909 16.0717 15.7273L11.9874 20.2727C11.6161 20.7273 10.9663 21 10.3165 21C8.73846 21 7.62455 19.4545 8.08868 18.0909L9.20259 15Z" stroke="#E7E8EA" stroke-width="2" stroke-linejoin="round"/>
<rect x="21" y="15" width="0.001" height="12" rx="0.0005" transform="rotate(-180 21 15)" stroke="#E7E8EA" stroke-width="2" stroke-linejoin="round"/>
</svg>
