<svg width="24" height="24" viewBox="0 0 24 24" fill="none" xmlns="http://www.w3.org/2000/svg">
<path d="M7.9 20C7.1 19.6 6.3 19 5.7 18.4C4 16.7 3 14.5 3 12C3 9.7 3.9 7.6 5.3 6C6.7 4.4 8.7 3.3 11 3.1" stroke="#E7E8EA" stroke-width="2" stroke-linecap="round" stroke-linejoin="round"/>
<path d="M7.8999 15.1L7.8999 20L2.9999 20" stroke="#E7E8EA" stroke-width="2" stroke-linecap="round" stroke-linejoin="round"/>
<path d="M16.1 4.1C16.9 4.5 17.7 5.1 18.3 5.7C20 7.3 21 9.6 21 12.1C21 14.4 20.1 16.5 18.7 18.1C17.2 19.7 15.2 20.8 13 21" stroke="#E7E8EA" stroke-width="2" stroke-linecap="round" stroke-linejoin="round"/>
<path d="M16.1 8.89999L16.1 3.99999L21 3.99999" stroke="#E7E8EA" stroke-width="2" stroke-linecap="round" stroke-linejoin="round"/>
</svg>
