<svg width="24" height="24" viewBox="0 0 24 24" fill="none" xmlns="http://www.w3.org/2000/svg">
<path d="M4 16.1C4.4 16.9 5 17.7 5.6 18.3C7.3 20 9.5 21 12 21C14.3 21 16.4 20.1 18 18.7C19.6 17.3 20.7 15.3 20.9 13" stroke="#E7E8EA" stroke-width="2" stroke-linecap="round" stroke-linejoin="round"/>
<path d="M8.9 16.1H4V21" stroke="#E7E8EA" stroke-width="2" stroke-linecap="round" stroke-linejoin="round"/>
<path d="M19.9 7.9C19.5 7.1 18.9 6.3 18.3 5.7C16.7 4 14.4 3 11.9 3C9.6 3 7.5 3.9 5.9 5.3C4.3 6.8 3.2 8.8 3 11" stroke="#E7E8EA" stroke-width="2" stroke-linecap="round" stroke-linejoin="round"/>
<path d="M15.1001 7.9H20.0001V3" stroke="#E7E8EA" stroke-width="2" stroke-linecap="round" stroke-linejoin="round"/>
</svg>
