<svg width="24" height="24" viewBox="0 0 24 24" fill="none" xmlns="http://www.w3.org/2000/svg">
<path d="M16.1 20C16.9 19.6 17.7 19 18.3 18.4C20 16.7 21 14.5 21 12C21 9.7 20.1 7.6 18.7 6C17.3 4.4 15.3 3.3 13 3.1" stroke="#E7E8EA" stroke-width="2" stroke-linecap="round" stroke-linejoin="round"/>
<path d="M16.1001 15.1L16.1001 20L21.0001 20" stroke="#E7E8EA" stroke-width="2" stroke-linecap="round" stroke-linejoin="round"/>
<path d="M7.9 4.1C7.1 4.5 6.3 5.1 5.7 5.7C4 7.3 3 9.6 3 12.1C3 14.4 3.9 16.5 5.3 18.1C6.8 19.7 8.8 20.8 11 21" stroke="#E7E8EA" stroke-width="2" stroke-linecap="round" stroke-linejoin="round"/>
<path d="M7.9 8.90002L7.9 4.00002L3 4.00002" stroke="#E7E8EA" stroke-width="2" stroke-linecap="round" stroke-linejoin="round"/>
</svg>
