<svg width="24" height="24" viewBox="0 0 24 24" fill="none" xmlns="http://www.w3.org/2000/svg">
<path d="M10.3 18.3C10.8 18.5 11.4 18.5 12 18.5C17.7 18.5 21 12 21 12C20.5 11.1 19.9 10.2 19.2 9.4M13.7 10.3C13.5 10.1 13.2 9.9 12.9 9.7C12.6 9.6 12.3 9.5 11.9 9.5C11.6 9.5 11.2 9.5 10.9 9.7C10.6 9.8 10.3 10 10.1 10.2C10 10.4 9.8 10.7 9.7 11C9.6 11.3 9.5 11.6 9.5 12C9.5 12.3 9.6 12.7 9.7 13C9.8 13.2 10 13.5 10.3 13.7M16.9 7.1C15.5 6 13.8 5.4 12 5.4C6.3 5.4 3 11.9 3 11.9C4 13.8 5.4 15.5 7.1 16.8L16.9 7.1Z" stroke="#E7E8EA" stroke-width="2" stroke-linecap="round" stroke-linejoin="round"/>
<path d="M3 21L21 3" stroke="#E7E8EA" stroke-width="2" stroke-linecap="round" stroke-linejoin="round"/>
</svg>
