<svg width="24" height="24" viewBox="0 0 24 24" fill="none" xmlns="http://www.w3.org/2000/svg">
<path d="M13.7 18.4C13.2 18.6 12.6 18.6 12 18.6C6.3 18.6 3 12.1 3 12.1C3.5 11.2 4.1 10.3 4.8 9.50001M10.3 10.4C10.5 10.2 10.8 10 11.1 9.80001C11.4 9.70001 11.7 9.60001 12.1 9.60001C12.4 9.60001 12.8 9.60001 13.1 9.80001C13.4 9.90001 13.7 10.1 13.9 10.3C14 10.5 14.2 10.8 14.3 11.1C14.4 11.4 14.5 11.7 14.5 12.1C14.5 12.4 14.4 12.8 14.3 13.1C14.2 13.3 14 13.6 13.7 13.8M7.1 7.20001C8.5 6.10001 10.2 5.50001 12 5.50001C17.7 5.50001 21 12 21 12C20 13.9 18.6 15.6 16.9 16.9L7.1 7.20001Z" stroke="#E7E8EA" stroke-width="2" stroke-linecap="round" stroke-linejoin="round"/>
<path d="M21 21L3 3" stroke="#E7E8EA" stroke-width="2" stroke-linecap="round" stroke-linejoin="round"/>
</svg>
