<svg width="24" height="24" viewBox="0 0 24 24" fill="none" xmlns="http://www.w3.org/2000/svg">
<path d="M3 12H4M20 12H21M12 21V20M12 11V3M18.4 5.6L16 8M8 8L5.6 5.6M8 16L5.6 18.4M18.4 18.4L16 16" stroke="#E7E8EA" stroke-width="2" stroke-miterlimit="10" stroke-linecap="round" stroke-linejoin="round"/>
<path d="M15.0001 13L12.0001 16L9.0001 13C8.3001 12.3 8.3001 11.2 9.0001 10.5C9.3001 10.2 9.8001 9.99998 10.2001 9.99998C10.6001 9.99998 11.1001 10.2 11.4001 10.5L12.0001 11L12.5001 10.5C13.2001 9.79998 14.3001 9.79998 15.0001 10.5C15.7001 11.2 15.7001 12.3 15.0001 13Z" stroke="#E7E8EA" stroke-width="2" stroke-linecap="round" stroke-linejoin="round"/>
</svg>
