<svg width="24" height="24" viewBox="0 0 24 24" fill="none" xmlns="http://www.w3.org/2000/svg">
<path d="M21 17H3L5 21H19L21 17Z" stroke="#E7E8EA" stroke-width="2" stroke-miterlimit="10" stroke-linecap="round" stroke-linejoin="round"/>
<path d="M17.9 17C16.2 17 14.8 15.6 14.8 13.9C14.8 12.2 16.2 10.8 17.9 10.8C19.6 10.8 21 12.2 21 13.9V17" stroke="#E7E8EA" stroke-width="2" stroke-miterlimit="10" stroke-linecap="round" stroke-linejoin="round"/>
<path d="M10 10.8H6V17H10V10.8Z" stroke="#E7E8EA" stroke-width="2" stroke-miterlimit="10" stroke-linecap="round" stroke-linejoin="round"/>
<path d="M8 3L9.4 4.4C10.2 5.2 10.2 6.4 9.4 7.2C8.6 8 7.4 8 6.6 7.2C5.8 6.4 5.8 5.2 6.6 4.4L8 3Z" stroke="#E7E8EA" stroke-width="2" stroke-miterlimit="10" stroke-linecap="round" stroke-linejoin="round"/>
</svg>
