<svg width="24" height="24" viewBox="0 0 24 24" fill="none" xmlns="http://www.w3.org/2000/svg">
<path d="M3 17H21L19 21H5L3 17Z" stroke="#E7E8EA" stroke-width="2" stroke-miterlimit="10" stroke-linecap="round" stroke-linejoin="round"/>
<path d="M6.09995 17C7.79995 17 9.19995 15.6 9.19995 13.9C9.19995 12.2 7.79995 10.8 6.09995 10.8C4.39995 10.8 2.99995 12.2 2.99995 13.9V17" stroke="#E7E8EA" stroke-width="2" stroke-miterlimit="10" stroke-linecap="round" stroke-linejoin="round"/>
<path d="M14 10.8H18V17H14V10.8Z" stroke="#E7E8EA" stroke-width="2" stroke-miterlimit="10" stroke-linecap="round" stroke-linejoin="round"/>
<path d="M16 3L14.6 4.4C13.8 5.2 13.8 6.4 14.6 7.2C15.4 8 16.6 8 17.4 7.2C18.2 6.4 18.2 5.2 17.4 4.4L16 3Z" stroke="#E7E8EA" stroke-width="2" stroke-miterlimit="10" stroke-linecap="round" stroke-linejoin="round"/>
</svg>
