<svg width="24" height="24" viewBox="0 0 24 24" fill="none" xmlns="http://www.w3.org/2000/svg">
<path d="M21 12H20M4 12H3M12 3V4M12 13V21M5.6 18.4L8 16M16 16L18.4 18.4M16 8L18.4 5.6M5.6 5.6L8 8" stroke="#E7E8EA" stroke-width="2" stroke-miterlimit="10" stroke-linecap="round" stroke-linejoin="round"/>
<path d="M9.0001 11L12.0001 8L15.0001 11C15.7001 11.7 15.7001 12.8 15.0001 13.5C14.7001 13.8 14.2001 14 13.8001 14C13.4001 14 12.9001 13.8 12.6001 13.5L12.0001 13L11.5001 13.5C10.8001 14.2 9.7001 14.2 9.0001 13.5C8.3001 12.8 8.3001 11.7 9.0001 11Z" stroke="#E7E8EA" stroke-width="2" stroke-linecap="round" stroke-linejoin="round"/>
</svg>
