<svg width="24" height="24" viewBox="0 0 24 24" fill="none" xmlns="http://www.w3.org/2000/svg">
<path d="M7.9 19.3C9.2 20.3 10.8 21 12.5 21H14.5C15.9 21 17.2 20.6 18.3 19.9C19.5 19.2 20.4 18.2 21 17H9C9 17.9 8.6 18.8 7.9 19.3Z" stroke="#E7E8EA" stroke-width="2" stroke-miterlimit="10" stroke-linecap="round" stroke-linejoin="round"/>
<path d="M14 10.8H18V17H14V10.8Z" stroke="#E7E8EA" stroke-width="2" stroke-miterlimit="10" stroke-linecap="round" stroke-linejoin="round"/>
<path d="M16 3L14.6 4.4C13.8 5.2 13.8 6.4 14.6 7.2C15.4 8 16.6 8 17.4 7.2C18.2 6.4 18.2 5.2 17.4 4.4L16 3Z" stroke="#E7E8EA" stroke-width="2" stroke-miterlimit="10" stroke-linecap="round" stroke-linejoin="round"/>
<path d="M3 17C3 18.7 4.3 20 6 20C6.7 20 7.4 19.8 7.9 19.3C8.6 18.8 9 17.9 9 17C9 15.3 7.7 14 6 14C4.3 14 3 15.3 3 17Z" stroke="#E7E8EA" stroke-width="2" stroke-miterlimit="10" stroke-linecap="round" stroke-linejoin="round"/>
</svg>
