<svg width="24" height="24" viewBox="0 0 24 24" fill="none" xmlns="http://www.w3.org/2000/svg">
<path d="M16.1 19.3C14.8 20.3 13.2 21 11.5 21H9.5C8.1 21 6.8 20.6 5.7 19.9C4.5 19.2 3.6 18.2 3 17H15C15 17.9 15.4 18.8 16.1 19.3Z" stroke="#E7E8EA" stroke-width="2" stroke-miterlimit="10" stroke-linecap="round" stroke-linejoin="round"/>
<path d="M10 10.8H6V17H10V10.8Z" stroke="#E7E8EA" stroke-width="2" stroke-miterlimit="10" stroke-linecap="round" stroke-linejoin="round"/>
<path d="M8 3L9.4 4.4C10.2 5.2 10.2 6.4 9.4 7.2C8.6 8 7.4 8 6.6 7.2C5.8 6.4 5.8 5.2 6.6 4.4L8 3Z" stroke="#E7E8EA" stroke-width="2" stroke-miterlimit="10" stroke-linecap="round" stroke-linejoin="round"/>
<path d="M21 17C21 18.7 19.7 20 18 20C17.3 20 16.6 19.8 16.1 19.3C15.4 18.8 15 17.9 15 17C15 15.3 16.3 14 18 14C19.7 14 21 15.3 21 17Z" stroke="#E7E8EA" stroke-width="2" stroke-miterlimit="10" stroke-linecap="round" stroke-linejoin="round"/>
</svg>
