<svg width="24" height="24" viewBox="0 0 24 24" fill="none" xmlns="http://www.w3.org/2000/svg">
<path d="M5.0999 9.5L18.8999 19.5" stroke="#E7E8EA" stroke-width="2" stroke-miterlimit="10" stroke-linecap="round" stroke-linejoin="round"/>
<path d="M5 15.5L12.5 21" stroke="#E7E8EA" stroke-width="2" stroke-miterlimit="10" stroke-linecap="round" stroke-linejoin="round"/>
<path d="M11.5 8L19 13.4" stroke="#E7E8EA" stroke-width="2" stroke-miterlimit="10" stroke-linecap="round" stroke-linejoin="round"/>
<path d="M12 5.5C12 4.1 10.9 3 9.5 3C8.1 3 7 4.1 7 5.5C7 6.9 8.1 8 9.5 8" stroke="#E7E8EA" stroke-width="2" stroke-miterlimit="10" stroke-linecap="round" stroke-linejoin="round"/>
<path d="M12 5.5C12 4.1 13.1 3 14.5 3C15.9 3 17 4.1 17 5.5C17 6.9 15.9 8 14.5 8" stroke="#E7E8EA" stroke-width="2" stroke-miterlimit="10" stroke-linecap="round" stroke-linejoin="round"/>
<path d="M7 21H17C18.1 21 19 20.1 19 19V10C19 8.9 18.1 8 17 8H7C5.9 8 5 8.9 5 10V19C5 20.1 5.9 21 7 21Z" stroke="#E7E8EA" stroke-width="2" stroke-miterlimit="10" stroke-linecap="round" stroke-linejoin="round"/>
</svg>
