<svg width="24" height="24" viewBox="0 0 24 24" fill="none" xmlns="http://www.w3.org/2000/svg">
<path d="M12 5.5C12 4.1 13.1 3 14.5 3C15.9 3 17 4.1 17 5.5C17 6.9 15.9 8 14.5 8" stroke="#E7E8EA" stroke-width="2" stroke-miterlimit="10" stroke-linecap="round" stroke-linejoin="round"/>
<path d="M9.5 8C8.1 8 7 6.9 7 5.5C7 4.1 8.1 3 9.5 3C10.9 3 12 4.1 12 5.5V21" stroke="#E7E8EA" stroke-width="2" stroke-miterlimit="10" stroke-linecap="round" stroke-linejoin="round"/>
<path d="M19 21H5C3.9 21 3 20.1 3 19V10C3 8.9 3.9 8 5 8H19C20.1 8 21 8.9 21 10V19C21 20.1 20.1 21 19 21Z" stroke="#E7E8EA" stroke-width="2" stroke-miterlimit="10" stroke-linecap="round" stroke-linejoin="round"/>
</svg>
