<svg width="24" height="24" viewBox="0 0 24 24" fill="none" xmlns="http://www.w3.org/2000/svg">
<path d="M10 5H5C3.89543 5 3 5.89543 3 7V19C3 20.1046 3.89543 21 5 21H10C11.1046 21 12 20.1046 12 19V7C12 5.89543 11.1046 5 10 5Z" stroke="#E7E8EA" stroke-width="2" stroke-miterlimit="10" stroke-linecap="round" stroke-linejoin="round"/>
<path d="M19 5H14C12.8954 5 12 5.89543 12 7V19C12 20.1046 12.8954 21 14 21H19C20.1046 21 21 20.1046 21 19V7C21 5.89543 20.1046 5 19 5Z" stroke="#E7E8EA" stroke-width="2" stroke-miterlimit="10" stroke-linecap="round" stroke-linejoin="round"/>
<path d="M5.5 3L7.5 5L9.5 3" stroke="#E7E8EA" stroke-width="2" stroke-miterlimit="10" stroke-linecap="round" stroke-linejoin="round"/>
<path d="M14.5 3L16.5 5L18.5 3" stroke="#E7E8EA" stroke-width="2" stroke-miterlimit="10" stroke-linecap="round" stroke-linejoin="round"/>
</svg>
