<svg width="24" height="24" viewBox="0 0 24 24" fill="none" xmlns="http://www.w3.org/2000/svg">
<path d="M5 12H10C11.1046 12 12 12.8954 12 14V19C12 20.1046 11.1046 21 10 21H5C3.89543 21 3 20.1046 3 19V14C3 12.8954 3.89543 12 5 12Z" stroke="#E7E8EA" stroke-width="2" stroke-miterlimit="10" stroke-linecap="round" stroke-linejoin="round"/>
<path d="M14 12H19C20.1046 12 21 12.8954 21 14V19C21 20.1046 20.1046 21 19 21H14C12.8954 21 12 20.1046 12 19V14C12 12.8954 12.8954 12 14 12Z" stroke="#E7E8EA" stroke-width="2" stroke-miterlimit="10" stroke-linecap="round" stroke-linejoin="round"/>
<path d="M9.5 10L7.5 12L5.5 10" stroke="#E7E8EA" stroke-width="2" stroke-miterlimit="10" stroke-linecap="round" stroke-linejoin="round"/>
<path d="M18.5 10L16.5 12L14.5 10" stroke="#E7E8EA" stroke-width="2" stroke-miterlimit="10" stroke-linecap="round" stroke-linejoin="round"/>
</svg>
