<svg width="24" height="24" viewBox="0 0 24 24" fill="none" xmlns="http://www.w3.org/2000/svg">
<path d="M3 14.1C3.6 13.4 4.5 12.9 5.5 12.9C7.3 12.9 8.7 14.3 8.7 16.1" stroke="#E7E8EA" stroke-width="2" stroke-miterlimit="10" stroke-linecap="round" stroke-linejoin="round"/>
<path d="M8.80005 16.1C8.80005 14.3 10.2 12.9 12 12.9C13.8 12.9 15.2 14.3 15.2 16.1" stroke="#E7E8EA" stroke-width="2" stroke-miterlimit="10" stroke-linecap="round" stroke-linejoin="round"/>
<path d="M15.2 16.1C15.2 14.3 16.6 12.9 18.4 12.9C19.4 12.9 20.3 13.4 20.9 14.1" stroke="#E7E8EA" stroke-width="2" stroke-miterlimit="10" stroke-linecap="round" stroke-linejoin="round"/>
<path d="M12 5.5C12 4.1 13.1 3 14.5 3C15.9 3 17 4.1 17 5.5C17 6.9 15.9 8 14.5 8" stroke="#E7E8EA" stroke-width="2" stroke-miterlimit="10" stroke-linecap="round" stroke-linejoin="round"/>
<path d="M12 5.5C12 4.1 10.9 3 9.5 3C8.1 3 7 4.1 7 5.5C7 6.9 8.1 8 9.5 8" stroke="#E7E8EA" stroke-width="2" stroke-miterlimit="10" stroke-linecap="round" stroke-linejoin="round"/>
<path d="M19 21H5C3.9 21 3 20.1 3 19V10C3 8.9 3.9 8 5 8H19C20.1 8 21 8.9 21 10V19C21 20.1 20.1 21 19 21Z" stroke="#E7E8EA" stroke-width="2" stroke-miterlimit="10" stroke-linecap="round" stroke-linejoin="round"/>
</svg>
