<svg width="24" height="24" viewBox="0 0 24 24" fill="none" xmlns="http://www.w3.org/2000/svg">
<path d="M11.7 3L3 6.3L3 12.1L8.6 14L9 13.3L7.1 11.4C6.8 11.1 6.7 10.8 6.7 10.4C6.7 10 6.9 9.7 7.2 9.5L11 6.9C11.3 6.7 11.7 6.6 12 6.7L19.4 8.8C19.8 8.9 20.3 8.8 20.6 8.5C21.2 7.8 21 6.7 20.2 6.4L11.7 3Z" stroke="#E7E8EA" stroke-width="2" stroke-miterlimit="10" stroke-linecap="round" stroke-linejoin="round"/>
<path d="M3 14L3 4" stroke="#E7E8EA" stroke-width="2" stroke-miterlimit="10" stroke-linecap="round" stroke-linejoin="round"/>
<path d="M17 21C16.1 21 15.2 20.7 14.5 20.1C13.6 19.4 13 18.3 13 17C13 15.7 13.6 14.6 14.5 13.9C15.2 13.3 16.1 13 17 13C19.2 13 21 14.8 21 17C21 19.2 19.2 21 17 21Z" stroke="#E7E8EA" stroke-width="2" stroke-linecap="round" stroke-linejoin="round"/>
</svg>
