<svg width="24" height="24" viewBox="0 0 24 24" fill="none" xmlns="http://www.w3.org/2000/svg">
<path d="M11.7 21L3 17.7V11.9L8.6 10L9 10.7L7.1 12.6C6.8 12.9 6.7 13.2 6.7 13.6C6.7 14 6.9 14.3 7.2 14.5L11 17.1C11.3 17.3 11.7 17.4 12 17.3L19.4 15.2C19.8 15.1 20.3 15.2 20.6 15.5C21.2 16.2 21 17.3 20.2 17.6L11.7 21Z" stroke="#E7E8EA" stroke-width="2" stroke-miterlimit="10" stroke-linecap="round" stroke-linejoin="round"/>
<path d="M3 10V20" stroke="#E7E8EA" stroke-width="2" stroke-miterlimit="10" stroke-linecap="round" stroke-linejoin="round"/>
<path d="M13.1001 9H17.1001" stroke="#E7E8EA" stroke-width="2" stroke-linecap="round" stroke-linejoin="round"/>
<path d="M13.1001 6H17.1001" stroke="#E7E8EA" stroke-width="2" stroke-linecap="round" stroke-linejoin="round"/>
<path d="M19.9001 9.9C19.5001 11.1 18.4001 12 17.0001 12C16.2001 12 15.4001 11.7 14.9001 11.1C14.4001 10.5 14.1001 9.8 14.1001 9V6C14.1001 4.3 15.4001 3 17.1001 3C17.9001 3 18.7001 3.3 19.2001 3.9C19.5001 4.2 19.8001 4.7 20.0001 5.1" stroke="#E7E8EA" stroke-width="2" stroke-linecap="round" stroke-linejoin="round"/>
</svg>
