<svg width="24" height="24" viewBox="0 0 24 24" fill="none" xmlns="http://www.w3.org/2000/svg">
<path d="M12.3 21L21 17.7V11.9L15.4 10L15 10.7L16.9 12.6C17.2 12.9 17.3 13.2 17.3 13.6C17.3 14 17.1 14.3 16.8 14.5L13 17.1C12.7 17.3 12.3 17.4 12 17.3L4.6 15.2C4.2 15.1 3.7 15.2 3.4 15.5C2.8 16.2 3 17.3 3.8 17.6L12.3 21Z" stroke="#E7E8EA" stroke-width="2" stroke-miterlimit="10" stroke-linecap="round" stroke-linejoin="round"/>
<path d="M21 10V20" stroke="#E7E8EA" stroke-width="2" stroke-miterlimit="10" stroke-linecap="round" stroke-linejoin="round"/>
<path d="M7 3C7.9 3 8.8 3.3 9.5 3.9C10.4 4.6 11 5.7 11 7C11 8.3 10.4 9.4 9.5 10.1C8.8 10.7 7.9 11 7 11C4.8 11 3 9.2 3 7C3 4.8 4.8 3 7 3Z" stroke="#E7E8EA" stroke-width="2" stroke-linecap="round" stroke-linejoin="round"/>
</svg>
