<svg width="24" height="24" viewBox="0 0 24 24" fill="none" xmlns="http://www.w3.org/2000/svg">
<path d="M12.3 3L21 6.3L21 12.1L15.4 14L15 13.3L16.9 11.4C17.2 11.1 17.3 10.8 17.3 10.4C17.3 10 17.1 9.7 16.8 9.5L13 6.9C12.7 6.7 12.3 6.6 12 6.7L4.6 8.8C4.2 8.9 3.7 8.8 3.4 8.5C2.8 7.8 3 6.7 3.8 6.4L12.3 3Z" stroke="#E7E8EA" stroke-width="2" stroke-miterlimit="10" stroke-linecap="round" stroke-linejoin="round"/>
<path d="M21 14L21 4" stroke="#E7E8EA" stroke-width="2" stroke-miterlimit="10" stroke-linecap="round" stroke-linejoin="round"/>
<path d="M7 21C7.9 21 8.8 20.7 9.5 20.1C10.4 19.4 11 18.3 11 17C11 15.7 10.4 14.6 9.5 13.9C8.8 13.3 7.9 13 7 13C4.8 13 3 14.8 3 17C3 19.2 4.8 21 7 21Z" stroke="#E7E8EA" stroke-width="2" stroke-linecap="round" stroke-linejoin="round"/>
</svg>
