<svg width="24" height="24" viewBox="0 0 24 24" fill="none" xmlns="http://www.w3.org/2000/svg">
<path d="M11.7 21L3 17.7V11.9L8.6 10L9 10.7L7.1 12.6C6.8 12.9 6.7 13.2 6.7 13.6C6.7 14 6.9 14.3 7.2 14.5L11 17.1C11.3 17.3 11.7 17.4 12 17.3L19.4 15.2C19.8 15.1 20.3 15.2 20.6 15.5C21.2 16.2 21 17.3 20.2 17.6L11.7 21Z" stroke="#E7E8EA" stroke-width="2" stroke-miterlimit="10" stroke-linecap="round" stroke-linejoin="round"/>
<path d="M3 10V20" stroke="#E7E8EA" stroke-width="2" stroke-miterlimit="10" stroke-linecap="round" stroke-linejoin="round"/>
<path d="M20 3L14 11M13 4.5C13 5.3 13.7 6 14.5 6C15.3 6 16 5.3 16 4.5C16 3.7 15.3 3 14.5 3C13.7 3 13 3.7 13 4.5ZM18 9.5C18 10.3 18.7 11 19.5 11C20.3 11 21 10.3 21 9.5C21 8.7 20.3 8 19.5 8C18.7 8 18 8.7 18 9.5Z" stroke="#E7E8EA" stroke-width="2" stroke-linecap="round" stroke-linejoin="round"/>
</svg>
