<svg width="24" height="24" viewBox="0 0 24 24" fill="none" xmlns="http://www.w3.org/2000/svg">
<path d="M7 15.2V13H21V12C21 7 17 3 12 3C9.5 3 7.3 4 5.6 5.6C4 7.3 3 9.5 3 12V18" stroke="#E7E8EA" stroke-width="2" stroke-miterlimit="10" stroke-linecap="round" stroke-linejoin="round"/>
<path d="M7 13V15.2C7.8 15.5 8.5 16.2 8.8 17H21V13H7Z" stroke="#E7E8EA" stroke-width="2" stroke-miterlimit="10" stroke-linecap="round" stroke-linejoin="round"/>
<path d="M3 18C3 19.7 4.3 21 6 21C7.7 21 9 19.7 9 18C9 17.7 8.9 17.3 8.8 17C8.5 16.2 7.8 15.5 7 15.2C6.7 15.1 6.3 15 6 15C4.3 15 3 16.3 3 18Z" stroke="#E7E8EA" stroke-width="2" stroke-miterlimit="10" stroke-linecap="round" stroke-linejoin="round"/>
<path d="M7 11V13V15.2" stroke="#E7E8EA" stroke-width="2" stroke-miterlimit="10" stroke-linecap="round" stroke-linejoin="round"/>
</svg>
