<svg width="24" height="24" viewBox="0 0 24 24" fill="none" xmlns="http://www.w3.org/2000/svg">
<path d="M17 15.2V13H3V12C3 7 7 3 12 3C14.5 3 16.7 4 18.4 5.6C20 7.3 21 9.5 21 12V18" stroke="#E7E8EA" stroke-width="2" stroke-miterlimit="10" stroke-linecap="round" stroke-linejoin="round"/>
<path d="M17 13V15.2C16.2 15.5 15.5 16.2 15.2 17H3V13H17Z" stroke="#E7E8EA" stroke-width="2" stroke-miterlimit="10" stroke-linecap="round" stroke-linejoin="round"/>
<path d="M21 18C21 19.7 19.7 21 18 21C16.3 21 15 19.7 15 18C15 17.7 15.1 17.3 15.2 17C15.5 16.2 16.2 15.5 17 15.2C17.3 15.1 17.7 15 18 15C19.7 15 21 16.3 21 18Z" stroke="#E7E8EA" stroke-width="2" stroke-miterlimit="10" stroke-linecap="round" stroke-linejoin="round"/>
<path d="M17 11V13V15.2" stroke="#E7E8EA" stroke-width="2" stroke-miterlimit="10" stroke-linecap="round" stroke-linejoin="round"/>
</svg>
