<svg width="24" height="24" viewBox="0 0 24 24" fill="none" xmlns="http://www.w3.org/2000/svg">
<path d="M12 21C15.4 21 18.4 19.1 19.9 16.3" stroke="#E7E8EA" stroke-width="2" stroke-linecap="round" stroke-linejoin="round"/>
<path d="M3 12C3 7 7 3 12 3C17 3 21 7 21 12" stroke="#E7E8EA" stroke-width="2" stroke-linecap="round" stroke-linejoin="round"/>
<path d="M7 11L3 12V16L7 17V11Z" stroke="#E7E8EA" stroke-width="2" stroke-linecap="round" stroke-linejoin="round"/>
<path d="M21 12V16L19.9 16.3L17 17V11L21 12Z" stroke="#E7E8EA" stroke-width="2" stroke-linecap="round" stroke-linejoin="round"/>
<path d="M10.5 14.5C10.2239 14.5 10 14.2761 10 14C10 13.7239 10.2239 13.5 10.5 13.5C10.7761 13.5 11 13.7239 11 14C11 14.2761 10.7761 14.5 10.5 14.5Z" fill="#E7E8EA" stroke="#E7E8EA" stroke-width="2" stroke-miterlimit="10" stroke-linecap="round" stroke-linejoin="round"/>
<path d="M13.5 14.5C13.2239 14.5 13 14.2761 13 14C13 13.7239 13.2239 13.5 13.5 13.5C13.7761 13.5 14 13.7239 14 14C14 14.2761 13.7761 14.5 13.5 14.5Z" fill="#E7E8EA" stroke="#E7E8EA" stroke-width="2" stroke-miterlimit="10" stroke-linecap="round" stroke-linejoin="round"/>
<path d="M5.3999 5.90002L7.5999 8.50002C8.4999 7.00002 10.0999 6.00002 11.9999 6.00002C13.8999 6.00002 15.4999 7.00002 16.2999 8.50002L18.4999 5.90002" stroke="#E7E8EA" stroke-width="2" stroke-linecap="round" stroke-linejoin="round"/>
</svg>
