<svg width="24" height="24" viewBox="0 0 24 24" fill="none" xmlns="http://www.w3.org/2000/svg">
<path d="M3 18V12C3 7 7 3 12 3C17 3 21 7 21 12V15V18" stroke="#E7E8EA" stroke-width="2" stroke-linecap="round" stroke-linejoin="round"/>
<path d="M5.3999 5.89999L7.5999 8.49999C8.4999 6.99999 10.0999 5.99999 11.9999 5.99999C13.8999 5.99999 15.4999 6.99999 16.2999 8.49999L18.4999 5.89999" stroke="#E7E8EA" stroke-width="2" stroke-linecap="round" stroke-linejoin="round"/>
<path d="M3 18C3 16.3 4.3 15 6 15H8V21H6C4.3 21 3 19.7 3 18Z" stroke="#E7E8EA" stroke-width="2" stroke-linecap="round" stroke-linejoin="round"/>
<path d="M18 15C19.7 15 21 16.3 21 18C21 19.7 19.7 21 18 21H16V15H18Z" stroke="#E7E8EA" stroke-width="2" stroke-linecap="round" stroke-linejoin="round"/>
</svg>
