<svg width="24" height="24" viewBox="0 0 24 24" fill="none" xmlns="http://www.w3.org/2000/svg">
<path d="M12 3L20 10V19C20 20.1 19.1 21 18 21H6C4.9 21 4 20.1 4 19V10L12 3Z" stroke="#E7E8EA" stroke-width="2" stroke-linecap="round" stroke-linejoin="round"/>
<path d="M15 10L9 18M8 11.5C8 12.3 8.7 13 9.5 13C10.3 13 11 12.3 11 11.5C11 10.7 10.3 10 9.5 10C8.7 10 8 10.7 8 11.5ZM13 16.5C13 17.3 13.7 18 14.5 18C15.3 18 16 17.3 16 16.5C16 15.7 15.3 15 14.5 15C13.7 15 13 15.7 13 16.5Z" stroke="#E7E8EA" stroke-width="2" stroke-linecap="round" stroke-linejoin="round"/>
</svg>
