<svg width="24" height="24" viewBox="0 0 24 24" fill="none" xmlns="http://www.w3.org/2000/svg">
<path d="M12 3L20 10V19C20 20.1 19.1 21 18 21H6C4.9 21 4 20.1 4 19V10L12 3Z" stroke="#E7E8EA" stroke-width="2" stroke-linecap="round" stroke-linejoin="round"/>
<path d="M8.6001 15H12.6001" stroke="#E7E8EA" stroke-width="2" stroke-linecap="round" stroke-linejoin="round"/>
<path d="M8.6001 12H12.6001" stroke="#E7E8EA" stroke-width="2" stroke-linecap="round" stroke-linejoin="round"/>
<path d="M15.4001 15.9C15.0001 17.1 13.9001 18 12.5001 18C11.7001 18 10.9001 17.7 10.4001 17.1C9.9001 16.5 9.6001 15.8 9.6001 15V12C9.6001 10.3 10.9001 9 12.6001 9C13.4001 9 14.2001 9.3 14.7001 9.9C15.0001 10.2 15.3001 10.7 15.5001 11.1" stroke="#E7E8EA" stroke-width="2" stroke-linecap="round" stroke-linejoin="round"/>
</svg>
