<svg width="24" height="24" viewBox="0 0 24 24" fill="none" xmlns="http://www.w3.org/2000/svg">
<path d="M12 3L20 10V19C20 20.1 19.1 21 18 21H6C4.9 21 4 20.1 4 19V10L12 3Z" stroke="#E7E8EA" stroke-width="2" stroke-linecap="round" stroke-linejoin="round"/>
<path d="M11.5 8V9" stroke="#E7E8EA" stroke-width="2" stroke-linecap="round" stroke-linejoin="round"/>
<path d="M12.5 13H9.5V9H12.5C13.6 9 14.5 9.9 14.5 11C14.5 12.1 13.6 13 12.5 13Z" stroke="#E7E8EA" stroke-width="2" stroke-linecap="round" stroke-linejoin="round"/>
<path d="M12.5 17H9.5V13H12.5C13.6 13 14.5 13.9 14.5 15C14.5 16.1 13.6 17 12.5 17Z" stroke="#E7E8EA" stroke-width="2" stroke-linecap="round" stroke-linejoin="round"/>
<path d="M11.5 17V18" stroke="#E7E8EA" stroke-width="2" stroke-linecap="round" stroke-linejoin="round"/>
</svg>
