<svg width="24" height="24" viewBox="0 0 24 24" fill="none" xmlns="http://www.w3.org/2000/svg">
<path d="M12 3L20 10V19C20 20.1 19.1 21 18 21H6C4.9 21 4 20.1 4 19V10L12 3Z" stroke="#E7E8EA" stroke-width="2" stroke-linecap="round" stroke-linejoin="round"/>
<path d="M12 8V9M14.4 10.5C14.2 9.6 13.4 9 12.5 9H11.5C10.4 9 9.5 9.9 9.5 11C9.5 12.1 10.4 13 11.5 13H12.5C13.6 13 14.5 13.9 14.5 15C14.5 16.1 13.6 17 12.5 17H11.5C10.6 17 9.8 16.3 9.6 15.5M12 17V18" stroke="#E7E8EA" stroke-width="2" stroke-linecap="round" stroke-linejoin="round"/>
</svg>
