<svg width="24" height="24" viewBox="0 0 24 24" fill="none" xmlns="http://www.w3.org/2000/svg">
<path d="M8 21H6C4.9 21 4 20.1 4 19V10L12 3L17.3 7.7" stroke="#E7E8EA" stroke-width="2" stroke-linecap="round" stroke-linejoin="round"/>
<path d="M21 13C21 13.6 20.4 14.1 19.3 14.5C18.4 14.8 17.3 15 16 15C14.7 15 13.6 14.8 12.7 14.5C11.6 14.1 11 13.6 11 13C11 11.9 13.2 11 16 11C18.8 11 21 11.9 21 13Z" stroke="#E7E8EA" stroke-width="2" stroke-miterlimit="10" stroke-linecap="round" stroke-linejoin="round"/>
<path d="M21 13V16C21 16.6 20.3 17.1 19.3 17.5C18.4 17.8 17.3 18 16 18C14.7 18 13.6 17.8 12.7 17.5C11.7 17.1 11 16.6 11 16V13C11 13.6 11.7 14.1 12.7 14.5C13.6 14.8 14.8 15 16 15C17.3 15 18.4 14.8 19.3 14.5C20.3 14.1 21 13.6 21 13Z" stroke="#E7E8EA" stroke-width="2" stroke-miterlimit="10" stroke-linecap="round" stroke-linejoin="round"/>
<path d="M21 16V19C21 19.6 20.3 20.1 19.3 20.5C18.4 20.8 17.3 21 16 21C14.7 21 13.6 20.8 12.7 20.5C11.7 20.1 11 19.6 11 19V16C11 16.6 11.7 17.1 12.7 17.5C13.6 17.8 14.7 18 16 18C17.3 18 18.4 17.8 19.3 17.5C20.3 17.1 21 16.6 21 16Z" stroke="#E7E8EA" stroke-width="2" stroke-miterlimit="10" stroke-linecap="round" stroke-linejoin="round"/>
</svg>
