<svg width="24" height="24" viewBox="0 0 24 24" fill="none" xmlns="http://www.w3.org/2000/svg">
<path d="M10 12H21" stroke="#E7E8EA" stroke-width="2" stroke-miterlimit="10" stroke-linecap="round" stroke-linejoin="round"/>
<path d="M10 4.5H21" stroke="#E7E8EA" stroke-width="2" stroke-miterlimit="10" stroke-linecap="round" stroke-linejoin="round"/>
<path d="M10 19.5H21" stroke="#E7E8EA" stroke-width="2" stroke-miterlimit="10" stroke-linecap="round" stroke-linejoin="round"/>
<path d="M3 4C3 3.44772 3.44772 3 4 3H5C5.55228 3 6 3.44772 6 4V5C6 5.55228 5.55228 6 5 6H4C3.44772 6 3 5.55228 3 5V4Z" stroke="#E7E8EA" stroke-width="2" stroke-miterlimit="10" stroke-linecap="round" stroke-linejoin="round"/>
<path d="M3 11.5C3 10.9477 3.44772 10.5 4 10.5H5C5.55228 10.5 6 10.9477 6 11.5V12.5C6 13.0523 5.55228 13.5 5 13.5H4C3.44772 13.5 3 13.0523 3 12.5V11.5Z" stroke="#E7E8EA" stroke-width="2" stroke-miterlimit="10" stroke-linecap="round" stroke-linejoin="round"/>
<path d="M3 19C3 18.4477 3.44772 18 4 18H5C5.55228 18 6 18.4477 6 19V20C6 20.5523 5.55228 21 5 21H4C3.44772 21 3 20.5523 3 20V19Z" stroke="#E7E8EA" stroke-width="2" stroke-miterlimit="10" stroke-linecap="round" stroke-linejoin="round"/>
</svg>
