<svg width="24" height="24" viewBox="0 0 24 24" fill="none" xmlns="http://www.w3.org/2000/svg">
<path d="M17 17C19.2 17 21 15.2 21 13V9C21 7.89543 20.1046 7 19 7H17H7H5C3.89543 7 3 7.89543 3 9V13C3 15.2 4.8 17 7 17" stroke="#E7E8EA" stroke-width="2" stroke-linecap="round" stroke-linejoin="round"/>
<path d="M16 3H8C7.44772 3 7 3.44772 7 4V7H17V4C17 3.44772 16.5523 3 16 3Z" stroke="#E7E8EA" stroke-width="2" stroke-linecap="round" stroke-linejoin="round"/>
<path d="M17 11H7V20C7 20.5523 7.44772 21 8 21H16C16.5523 21 17 20.5523 17 20V11Z" stroke="#E7E8EA" stroke-width="2" stroke-linecap="round" stroke-linejoin="round"/>
</svg>
