<svg width="24" height="24" viewBox="0 0 24 24" fill="none" xmlns="http://www.w3.org/2000/svg">
<path d="M16 3H17.1538C19.2692 3 21 4.76471 21 6.92157V8" stroke="#E7E8EA" stroke-width="2" stroke-linecap="round" stroke-linejoin="round"/>
<path d="M3 8V6.77358C3 4.69811 4.76471 3 6.92157 3H8" stroke="#E7E8EA" stroke-width="2" stroke-linecap="round" stroke-linejoin="round"/>
<path d="M8 21H6.77358C4.69811 21 3 19.2353 3 17.0784V16" stroke="#E7E8EA" stroke-width="2" stroke-linecap="round" stroke-linejoin="round"/>
<path d="M21 16V17.1538C21 19.2692 19.2353 21 17.0784 21H16" stroke="#E7E8EA" stroke-width="2" stroke-linecap="round" stroke-linejoin="round"/>
<path d="M9 7L11 7C12.1 7 13 7.9 13 9L13 15C13 16.1 12.1 17 11 17L9 17C7.9 17 7 16.1 7 15L7 9C7 7.9 7.9 7 9 7Z" stroke="#E7E8EA" stroke-width="2" stroke-linecap="round" stroke-linejoin="round"/>
</svg>
