<svg width="24" height="24" viewBox="0 0 24 24" fill="none" xmlns="http://www.w3.org/2000/svg">
<path d="M21 7L21 17C21 19.2 19.2 21 17 21L7 21C4.8 21 3 19.2 3 17L3 7C3 4.8 4.8 3 7 3L17 3C19.2 3 21 4.8 21 7Z" stroke="#E7E8EA" stroke-width="2" stroke-linecap="round" stroke-linejoin="round"/>
<path d="M13 13L13 15C13 16.1 12.1 17 11 17L9 17C7.9 17 7 16.1 7 15L7 13C7 11.9 7.9 11 9 11L11 11C12.1 11 13 11.9 13 13Z" stroke="#E7E8EA" stroke-width="2" stroke-linecap="round" stroke-linejoin="round"/>
</svg>
