<svg width="24" height="24" viewBox="0 0 24 24" fill="none" xmlns="http://www.w3.org/2000/svg">
<path d="M19 3L16 3C14.9 3 14 3.9 14 5L14 19C14 20.1 14.9 21 16 21L19 21C20.1 21 21 20.1 21 19L21 5C21 3.9 20.1 3 19 3Z" stroke="#E7E8EA" stroke-width="2" stroke-linecap="round" stroke-linejoin="round"/>
<path d="M8 3L5 3C3.9 3 3 3.9 3 5L3 19C3 20.1 3.9 21 5 21L8 21C9.1 21 10 20.1 10 19L10 5C10 3.9 9.1 3 8 3Z" stroke="#E7E8EA" stroke-width="2" stroke-linecap="round" stroke-linejoin="round"/>
<path d="M10 9L3 9" stroke="#E7E8EA" stroke-width="2" stroke-linecap="round" stroke-linejoin="round"/>
<path d="M21 15L14 15" stroke="#E7E8EA" stroke-width="2" stroke-linecap="round" stroke-linejoin="round"/>
<path d="M21 9L14 9" stroke="#E7E8EA" stroke-width="2" stroke-linecap="round" stroke-linejoin="round"/>
</svg>
