<svg width="24" height="24" viewBox="0 0 24 24" fill="none" xmlns="http://www.w3.org/2000/svg">
<path d="M5 21H8C9.1 21 10 20.1 10 19V5C10 3.9 9.1 3 8 3H5C3.9 3 3 3.9 3 5V19C3 20.1 3.9 21 5 21Z" stroke="#E7E8EA" stroke-width="2" stroke-linecap="round" stroke-linejoin="round"/>
<path d="M16 21H19C20.1 21 21 20.1 21 19V5C21 3.9 20.1 3 19 3H16C14.9 3 14 3.9 14 5V19C14 20.1 14.9 21 16 21Z" stroke="#E7E8EA" stroke-width="2" stroke-linecap="round" stroke-linejoin="round"/>
<path d="M14 15L21 15" stroke="#E7E8EA" stroke-width="2" stroke-linecap="round" stroke-linejoin="round"/>
<path d="M3 9L10 9" stroke="#E7E8EA" stroke-width="2" stroke-linecap="round" stroke-linejoin="round"/>
<path d="M3 15L10 15" stroke="#E7E8EA" stroke-width="2" stroke-linecap="round" stroke-linejoin="round"/>
</svg>
