<svg width="24" height="24" viewBox="0 0 24 24" fill="none" xmlns="http://www.w3.org/2000/svg">
<path d="M12.0097 2C11.7445 2 11.4902 2.10536 11.3026 2.29289C11.1151 2.48043 11.0097 2.73478 11.0097 3C11.0097 3.26522 11.1151 3.51957 11.3026 3.70711C11.4902 3.89464 11.7445 4 12.0097 4C13.414 4.00032 14.7934 4.37024 16.0093 5.07258C17.2253 5.77493 18.2349 6.78496 18.9368 8.00117C19.6387 9.21737 20.0081 10.5969 20.0079 12.0011C20.0078 13.4053 19.6379 14.7848 18.9357 16.0008C18.2335 17.2168 17.2235 18.2265 16.0074 18.9285C14.7912 19.6305 13.4117 20.0001 12.0075 20C10.6033 19.9999 9.22382 19.6302 8.00775 18.9281C6.79169 18.2259 5.78185 17.2161 5.07975 16C4.94714 15.7693 4.7283 15.6007 4.47137 15.5313C4.21445 15.4619 3.94048 15.4974 3.70975 15.63C3.47901 15.7626 3.3104 15.9814 3.24101 16.2384C3.17162 16.4953 3.20714 16.7693 3.33975 17C4.21722 18.5198 5.47922 19.782 6.99895 20.6596C8.51867 21.5373 10.2426 21.9996 11.9976 22C13.7525 22.0004 15.4767 21.539 16.9968 20.6621C18.517 19.7852 19.7796 18.5236 20.6578 17.0042C21.536 15.4848 21.9989 13.761 22 12.0061C22.0011 10.2511 21.5403 8.5268 20.6639 7.00633C19.7875 5.48585 18.5265 4.22278 17.0074 3.34401C15.4883 2.46524 13.7647 2.00171 12.0097 2Z" fill="#E7E8EA"/>
<path d="M3 13C3.55228 13 4 12.5523 4 12C4 11.4477 3.55228 11 3 11C2.44772 11 2 11.4477 2 12C2 12.5523 2.44772 13 3 13Z" fill="#E7E8EA"/>
<path d="M7.5 5.20001C8.05228 5.20001 8.5 4.7523 8.5 4.20001C8.5 3.64773 8.05228 3.20001 7.5 3.20001C6.94772 3.20001 6.5 3.64773 6.5 4.20001C6.5 4.7523 6.94772 5.20001 7.5 5.20001Z" fill="#E7E8EA"/>
<path d="M4.19995 8.5C4.75224 8.5 5.19995 8.05228 5.19995 7.5C5.19995 6.94772 4.75224 6.5 4.19995 6.5C3.64767 6.5 3.19995 6.94772 3.19995 7.5C3.19995 8.05228 3.64767 8.5 4.19995 8.5Z" fill="#E7E8EA"/>
<path d="M12 12V7" stroke="#E7E8EA" stroke-width="2" stroke-linecap="round" stroke-linejoin="round"/>
</svg>
