<svg width="24" height="24" viewBox="0 0 24 24" fill="none" xmlns="http://www.w3.org/2000/svg">
<path d="M17 21H7C4.8 21 3 19.2 3 17V7C3 4.8 4.8 3 7 3H17C19.2 3 21 4.8 21 7V17C21 19.2 19.2 21 17 21Z" stroke="#E7E8EA" stroke-width="2" stroke-linecap="round" stroke-linejoin="round"/>
<path d="M9 7L11 7C12.1 7 13 7.9 13 9L13 15C13 16.1 12.1 17 11 17L9 17C7.9 17 7 16.1 7 15L7 9C7 7.9 7.9 7 9 7Z" stroke="#E7E8EA" stroke-width="2" stroke-linecap="round" stroke-linejoin="round"/>
<path d="M21 7L19 7C17.9 7 17 7.9 17 9L17 15C17 16.1 17.9 17 19 17L21 17" stroke="#E7E8EA" stroke-width="2" stroke-linecap="round" stroke-linejoin="round"/>
</svg>
