<svg width="24" height="24" viewBox="0 0 24 24" fill="none" xmlns="http://www.w3.org/2000/svg">
<path d="M16 3H17.1538C19.2692 3 21 4.76471 21 6.92157V8" stroke="#E7E8EA" stroke-width="2" stroke-linecap="round" stroke-linejoin="round"/>
<path d="M3 8V6.77358C3 4.69811 4.76471 3 6.92157 3H8" stroke="#E7E8EA" stroke-width="2" stroke-linecap="round" stroke-linejoin="round"/>
<path d="M8 21H6.77358C4.69811 21 3 19.2353 3 17.0784V16" stroke="#E7E8EA" stroke-width="2" stroke-linecap="round" stroke-linejoin="round"/>
<path d="M21 16V17.1538C21 19.2692 19.2353 21 17.0784 21H16" stroke="#E7E8EA" stroke-width="2" stroke-linecap="round" stroke-linejoin="round"/>
<path d="M11 7L13 7C14.1 7 15 7.9 15 9L15 15C15 16.1 14.1 17 13 17L11 17C9.9 17 9 16.1 9 15L9 9C9 7.9 9.9 7 11 7Z" stroke="#E7E8EA" stroke-width="2" stroke-linecap="round" stroke-linejoin="round"/>
</svg>
