<svg width="24" height="24" viewBox="0 0 24 24" fill="none" xmlns="http://www.w3.org/2000/svg">
<path d="M11 7C8.77778 7 7 8.77778 7 11C7 8.77778 5.22222 7 3 7C5.22222 7 7 5.22222 7 3C7 5.22222 8.77778 7 11 7Z" stroke="#E7E8EA" stroke-width="2" stroke-linecap="round" stroke-linejoin="round"/>
<path d="M21 5C19.8889 5 19 5.88889 19 7C19 5.88889 18.1111 5 17 5C18.1111 5 19 4.11111 19 3C19 4.11111 19.8889 5 21 5Z" stroke="#E7E8EA" stroke-width="2" stroke-linecap="round" stroke-linejoin="round"/>
<path d="M21 15C17.6667 15 15 17.6667 15 21C15 17.6667 12.3333 15 9 15C12.3333 15 15 12.3333 15 9C15 12.3333 17.6667 15 21 15Z" stroke="#E7E8EA" stroke-width="2" stroke-linecap="round" stroke-linejoin="round"/>
</svg>
