<svg width="24" height="24" viewBox="0 0 24 24" fill="none" xmlns="http://www.w3.org/2000/svg">
<path d="M3 4L4 3M21 4L20 3M19 21L17.3 19.3M6.7 19.3L5 21M3 12C3 7 7 3 12 3C17 3 21 7 21 12C21 17 17 21 12 21C7 21 3 17 3 12Z" stroke="#E7E8EA" stroke-width="2" stroke-linecap="round" stroke-linejoin="round"/>
<path d="M12 8.5L12.7 10.8158L15 10.7807L13.1333 12.2193L13.8667 14.5L12 13.0614L10.1333 14.5L10.8667 12.2193L9 10.7807L11.3 10.8158L12 8.5Z" fill="#E7E8EA" stroke="#E7E8EA" stroke-width="2" stroke-linecap="round" stroke-linejoin="round"/>
</svg>
