<svg width="24" height="24" viewBox="0 0 24 24" fill="none" xmlns="http://www.w3.org/2000/svg">
<path d="M10 5L10 8C10 9.1 9.1 10 8 10L5 10C3.9 10 3 9.1 3 8L3 5C3 3.9 3.9 3 5 3L8 3C9.1 3 10 3.9 10 5Z" stroke="#E7E8EA" stroke-width="2" stroke-linecap="round" stroke-linejoin="round"/>
<path d="M21 16L21 19C21 20.1 20.1 21 19 21L16 21C14.9 21 14 20.1 14 19L14 16C14 14.9 14.9 14 16 14L19 14C20.1 14 21 14.9 21 16Z" stroke="#E7E8EA" stroke-width="2" stroke-linecap="round" stroke-linejoin="round"/>
<circle cx="17.5" cy="6.5" r="3.5" transform="rotate(180 17.5 6.5)" stroke="#E7E8EA" stroke-width="2"/>
<circle cx="6.5" cy="17.5" r="3.5" transform="rotate(180 6.5 17.5)" stroke="#E7E8EA" stroke-width="2"/>
</svg>
