<svg width="24" height="24" viewBox="0 0 24 24" fill="none" xmlns="http://www.w3.org/2000/svg">
<path d="M3 4L4 3M21 4L20 3M19 21L17.3 19.3M6.7 19.3L5 21M3 12C3 7 7 3 12 3C17 3 21 7 21 12C21 17 17 21 12 21C7 21 3 17 3 12Z" stroke="#E7E8EA" stroke-width="2" stroke-linecap="round" stroke-linejoin="round"/>
<path d="M12 11L12 16" stroke="#E7E8EA" stroke-width="2" stroke-linecap="round" stroke-linejoin="round"/>
<path d="M12 9C12.6 9 13 8.6 13 8C13 7.4 12.6 7 12 7C11.4 7 11 7.4 11 8C11 8.6 11.4 9 12 9Z" fill="#E7E8EA"/>
</svg>
