<svg width="24" height="24" viewBox="0 0 24 24" fill="none" xmlns="http://www.w3.org/2000/svg">
<path d="M8 10H5C3.9 10 3 9.1 3 8V5C3 3.9 3.9 3 5 3H8C9.1 3 10 3.9 10 5V8C10 9.1 9.1 10 8 10Z" stroke="#E7E8EA" stroke-width="2" stroke-linecap="round" stroke-linejoin="round"/>
<path d="M19 21H16C14.9 21 14 20.1 14 19V5C14 3.9 14.9 3 16 3H19C20.1 3 21 3.9 21 5V19C21 20.1 20.1 21 19 21Z" stroke="#E7E8EA" stroke-width="2" stroke-linecap="round" stroke-linejoin="round"/>
<path d="M8 21H5C3.9 21 3 20.1 3 19V16C3 14.9 3.9 14 5 14H8C9.1 14 10 14.9 10 16V19C10 20.1 9.1 21 8 21Z" stroke="#E7E8EA" stroke-width="2" stroke-linecap="round" stroke-linejoin="round"/>
</svg>
