<svg width="24" height="24" viewBox="0 0 24 24" fill="none" xmlns="http://www.w3.org/2000/svg">
<path d="M3 7L3 17C3 19.2 4.8 21 7 21L17 21C19.2 21 21 19.2 21 17L21 7C21 4.8 19.2 3 17 3L7 3C4.8 3 3 4.8 3 7Z" stroke="#E7E8EA" stroke-width="2" stroke-linecap="round" stroke-linejoin="round"/>
<path d="M11 13L11 15C11 16.1 11.9 17 13 17L15 17C16.1 17 17 16.1 17 15L17 13C17 11.9 16.1 11 15 11L13 11C11.9 11 11 11.9 11 13Z" stroke="#E7E8EA" stroke-width="2" stroke-linecap="round" stroke-linejoin="round"/>
</svg>
