<svg width="24" height="24" viewBox="0 0 24 24" fill="none" xmlns="http://www.w3.org/2000/svg">
<path d="M17.4001 6.46668L15.8573 8.0095L12.9906 5.14282L14.5334 3.6C15.3334 2.8 16.6001 2.8 17.4001 3.6C18.2001 4.40001 18.2001 5.66668 17.4001 6.46668Z" stroke="#E7E8EA" stroke-width="2" stroke-linecap="round" stroke-linejoin="round"/>
<path d="M15.8572 8.00938L9.93335 13.9333C9.26668 14.5999 8.33335 14.9999 7.33334 14.9999H6.66667C6.26667 14.9999 6 14.6666 6 14.3333V13.6666C6 12.7333 6.4 11.7999 7.06667 11.0666L12.9906 5.1427L15.8572 8.00938Z" stroke="#E7E8EA" stroke-width="2" stroke-linecap="round" stroke-linejoin="round"/>
<path d="M3 21C4.46724 19.8686 6.43198 19.2609 8.28169 18.9299C8.81189 18.835 9.93617 18.5088 10.385 18.9519C10.6472 19.2107 10.5815 19.6978 10.4718 20.0056C10.3911 20.2321 10.2278 20.4143 10.1033 20.618C9.9622 20.8489 10.3583 20.1386 10.5329 19.9287C11.0199 19.3432 11.679 18.8535 12.3732 18.5018C12.6952 18.3387 13.0303 18.1991 13.3826 18.1045C13.5219 18.0671 13.779 17.9722 13.9319 18.0079C14.2359 18.079 13.9059 19.5726 13.8592 19.7795C13.8416 19.8571 13.831 19.8917 13.9202 19.8365C14.1083 19.7203 14.279 19.5815 14.4695 19.4677C14.9339 19.1905 15.4382 19.0355 15.9343 18.8267C16.0393 18.7825 15.9121 19.1822 15.8967 19.2438C15.8061 19.6066 15.7323 19.9437 16.2207 20.0341C17.7982 20.326 19.4346 19.818 21 19.696" stroke="#E7E8EA" stroke-width="2" stroke-linecap="round"/>
</svg>
