<svg width="24" height="24" viewBox="0 0 24 24" fill="none" xmlns="http://www.w3.org/2000/svg">
<path d="M21 19L21 16C21 14.9 20.1 14 19 14L5 14C3.9 14 3 14.9 3 16L3 19C3 20.1 3.9 21 5 21L19 21C20.1 21 21 20.1 21 19Z" stroke="#E7E8EA" stroke-width="2" stroke-linecap="round" stroke-linejoin="round"/>
<path d="M21 8L21 5C21 3.9 20.1 3 19 3L5 3C3.9 3 3 3.9 3 5L3 8C3 9.1 3.9 10 5 10L19 10C20.1 10 21 9.1 21 8Z" stroke="#E7E8EA" stroke-width="2" stroke-linecap="round" stroke-linejoin="round"/>
<path d="M15 10L15 3" stroke="#E7E8EA" stroke-width="2" stroke-linecap="round" stroke-linejoin="round"/>
<path d="M9 21L9 14" stroke="#E7E8EA" stroke-width="2" stroke-linecap="round" stroke-linejoin="round"/>
<path d="M15 21L15 14" stroke="#E7E8EA" stroke-width="2" stroke-linecap="round" stroke-linejoin="round"/>
</svg>
