<svg width="24" height="24" viewBox="0 0 24 24" fill="none" xmlns="http://www.w3.org/2000/svg">
<path d="M16 14L19 14C20.1 14 21 14.9 21 16L21 19C21 20.1 20.1 21 19 21L16 21C14.9 21 14 20.1 14 19L14 16C14 14.9 14.9 14 16 14Z" stroke="#E7E8EA" stroke-width="2" stroke-linecap="round" stroke-linejoin="round"/>
<path d="M5 3L8 3C9.1 3 10 3.9 10 5L10 19C10 20.1 9.1 21 8 21L5 21C3.9 21 3 20.1 3 19L3 5C3 3.9 3.9 3 5 3Z" stroke="#E7E8EA" stroke-width="2" stroke-linecap="round" stroke-linejoin="round"/>
<path d="M16 3L19 3C20.1 3 21 3.9 21 5L21 8C21 9.1 20.1 10 19 10L16 10C14.9 10 14 9.1 14 8L14 5C14 3.9 14.9 3 16 3Z" stroke="#E7E8EA" stroke-width="2" stroke-linecap="round" stroke-linejoin="round"/>
</svg>
