<svg width="24" height="24" viewBox="0 0 24 24" fill="none" xmlns="http://www.w3.org/2000/svg">
<path d="M9 9V6C9 4.3 10.3 3 12 3C13.7 3 15 4.3 15 6V9M16 21H8C6.3 21 5 19.7 5 18V12C5 10.3 6.3 9 8 9H16C17.7 9 19 10.3 19 12V18C19 19.7 17.7 21 16 21Z" stroke="#E7E8EA" stroke-width="2" stroke-linecap="round" stroke-linejoin="round"/>
<path d="M12 16.5C12.5523 16.5 13 15.8284 13 15C13 14.1716 12.5523 13.5 12 13.5C11.4477 13.5 11 14.1716 11 15C11 15.8284 11.4477 16.5 12 16.5Z" stroke="#E7E8EA" stroke-width="2" stroke-linecap="round" stroke-linejoin="round"/>
</svg>
