<svg width="24" height="24" viewBox="0 0 24 24" fill="none" xmlns="http://www.w3.org/2000/svg">
<path d="M21 5L21 8C21 9.1 20.1 10 19 10L5 10C3.9 10 3 9.1 3 8L3 5C3 3.9 3.9 3 5 3L19 3C20.1 3 21 3.9 21 5Z" stroke="#E7E8EA" stroke-width="2" stroke-linecap="round" stroke-linejoin="round"/>
<path d="M21 16L21 19C21 20.1 20.1 21 19 21L5 21C3.9 21 3 20.1 3 19L3 16C3 14.9 3.9 14 5 14L19 14C20.1 14 21 14.9 21 16Z" stroke="#E7E8EA" stroke-width="2" stroke-linecap="round" stroke-linejoin="round"/>
<path d="M9 14L9 21" stroke="#E7E8EA" stroke-width="2" stroke-linecap="round" stroke-linejoin="round"/>
<path d="M9 3L9 10" stroke="#E7E8EA" stroke-width="2" stroke-linecap="round" stroke-linejoin="round"/>
</svg>
