<svg width="24" height="24" viewBox="0 0 24 24" fill="none" xmlns="http://www.w3.org/2000/svg">
<path d="M21 7L21 17C21 19.2 19.2 21 17 21L7 21C4.8 21 3 19.2 3 17L3 7C3 4.8 4.8 3 7 3L17 3C19.2 3 21 4.8 21 7Z" stroke="#E7E8EA" stroke-width="2" stroke-linecap="round" stroke-linejoin="round"/>
<path d="M7 15L7 13C7 11.9 7.9 11 9 11L15 11C16.1 11 17 11.9 17 13L17 15C17 16.1 16.1 17 15 17L9 17C7.9 17 7 16.1 7 15Z" stroke="#E7E8EA" stroke-width="2" stroke-linecap="round" stroke-linejoin="round"/>
<path d="M7 3L7 5C7 6.1 7.9 7 9 7L15 7C16.1 7 17 6.1 17 5L17 3" stroke="#E7E8EA" stroke-width="2" stroke-linecap="round" stroke-linejoin="round"/>
</svg>
