<svg width="24" height="24" viewBox="0 0 24 24" fill="none" xmlns="http://www.w3.org/2000/svg">
<path d="M19.2 12C19.2 10.5 20.5 8.7 19.8 7.5C19.1 6.3 16.8 6.5 15.6 5.8C14.4 5.1 13.5 3 12 3C10.5 3 9.60002 5.1 8.40002 5.8C7.20002 6.5 4.90002 6.3 4.20002 7.5C3.50002 8.7 4.80002 10.5 4.80002 12C4.80002 13.5 3.50002 15.3 4.20002 16.5C4.90002 17.7 7.20002 17.5 8.40002 18.2C9.60002 18.9 10.5 21 12 21C13.5 21 14.4 18.9 15.6 18.2C16.8 17.5 19.1 17.7 19.8 16.5C20.5 15.3 19.2 13.5 19.2 12Z" stroke="#E7E8EA" stroke-width="2" stroke-linecap="round" stroke-linejoin="round"/>
<path d="M12 15C13.6569 15 15 13.6569 15 12C15 10.3431 13.6569 9 12 9C10.3431 9 9 10.3431 9 12C9 13.6569 10.3431 15 12 15Z" stroke="#E7E8EA" stroke-width="2" stroke-linecap="round" stroke-linejoin="round"/>
</svg>
