<svg width="24" height="24" viewBox="0 0 24 24" fill="none" xmlns="http://www.w3.org/2000/svg">
<path d="M7 21H17C19.2 21 21 19.2 21 17V7C21 4.8 19.2 3 17 3H7C4.8 3 3 4.8 3 7V17C3 19.2 4.8 21 7 21Z" stroke="#E7E8EA" stroke-width="2" stroke-linecap="round" stroke-linejoin="round"/>
<path d="M15 7L13 7C11.9 7 11 7.9 11 9L11 15C11 16.1 11.9 17 13 17L15 17C16.1 17 17 16.1 17 15L17 9C17 7.9 16.1 7 15 7Z" stroke="#E7E8EA" stroke-width="2" stroke-linecap="round" stroke-linejoin="round"/>
<path d="M3 7L5 7C6.1 7 7 7.9 7 9L7 15C7 16.1 6.1 17 5 17L3 17" stroke="#E7E8EA" stroke-width="2" stroke-linecap="round" stroke-linejoin="round"/>
</svg>
