<svg width="24" height="24" viewBox="0 0 24 24" fill="none" xmlns="http://www.w3.org/2000/svg">
<path d="M17 3H7C4.8 3 3 4.8 3 7V17C3 17.7 3.2 18.3 3.5 18.9C4.6 16.9 5.7 14.7 6.7 12.9C7.3 11.7 9.1 11.9 9.5 13.2L10.8 18C11.8 16.6 13.4 15.9 15 15.9C16.1 15.9 17.2 16.2 18.2 16.9L20.6 18.7C20.9 18.2 21 17.6 21 16.9V7C21 4.8 19.2 3 17 3ZM15 11C13.9 11 13 10.1 13 9C13 7.9 13.9 7 15 7C16.1 7 17 7.9 17 9C17 10.1 16.1 11 15 11ZM20.6 18.8C20 20.1 18.6 21 17 21H7C5.5 21 4.2 20.2 3.5 18.9C4.6 16.9 5.7 14.7 6.7 12.9C7.3 11.7 9.1 11.9 9.5 13.2L10.8 18C11.8 16.6 13.4 15.9 15 15.9C16.1 15.9 17.2 16.2 18.2 16.9L20.6 18.8ZM17 9C17 10.1 16.1 11 15 11C13.9 11 13 10.1 13 9C13 7.9 13.9 7 15 7C16.1 7 17 7.9 17 9Z" stroke="#E7E8EA" stroke-width="2" stroke-linecap="round" stroke-linejoin="round"/>
</svg>
