<svg width="24" height="24" viewBox="0 0 24 24" fill="none" xmlns="http://www.w3.org/2000/svg">
<path d="M16.5 13C16.5 11.9 15.5 11 14.2 11C12.9 11 12 11.9 12 13" stroke="#E7E8EA" stroke-width="2" stroke-linecap="round" stroke-linejoin="round"/>
<path d="M7.5 13C7.5 11.9 8.5 11 9.8 11C11.1 11 12 11.9 12 13" stroke="#E7E8EA" stroke-width="2" stroke-linecap="round" stroke-linejoin="round"/>
<path d="M16.5 13C16.5 11.9 17.5 11 18.8 11C20.1 11 21 11.9 21 13V12C21 7 17 3 12 3C7 3 3 7 3 12V13C3 11.9 4 11 5.3 11C6.6 11 7.6 11.9 7.6 13" stroke="#E7E8EA" stroke-width="2" stroke-linecap="round" stroke-linejoin="round"/>
<path d="M12 12V19C12 20.1 11.1 21 10 21C8.9 21 8 20.1 8 19" stroke="#E7E8EA" stroke-width="2" stroke-linecap="round" stroke-linejoin="round"/>
</svg>
