<svg width="24" height="24" viewBox="0 0 24 24" fill="none" xmlns="http://www.w3.org/2000/svg">
<path d="M21 7V17C21 19.2 19.2 21 17 21H7C4.8 21 3 19.2 3 17V7C3 4.8 4.8 3 7 3H17C19.2 3 21 4.8 21 7Z" stroke="#E7E8EA" stroke-width="2" stroke-miterlimit="10" stroke-linecap="round" stroke-linejoin="round"/>
<path d="M21 13V17C21 19.2 19.2 21 17 21H7C4.8 21 3 19.2 3 17V13H9C9 14.7 10.3 16 12 16C13.7 16 15 14.7 15 13H21Z" stroke="#E7E8EA" stroke-width="2" stroke-miterlimit="10" stroke-linecap="round" stroke-linejoin="round"/>
<path d="M8 8H16" stroke="#E7E8EA" stroke-width="2" stroke-linecap="round" stroke-linejoin="round"/>
</svg>
