<svg width="24" height="24" viewBox="0 0 24 24" fill="none" xmlns="http://www.w3.org/2000/svg">
<path d="M3 8V7C3 4.8 4.8 3 7 3L8 3" stroke="#E7E8EA" stroke-width="2" stroke-linecap="round" stroke-linejoin="round"/>
<path d="M16 3L17 3C19.2 3 21 4.8 21 7L21 8" stroke="#E7E8EA" stroke-width="2" stroke-linecap="round" stroke-linejoin="round"/>
<path d="M21 16L21 17C21 19.2 19.2 21 17 21L16 21" stroke="#E7E8EA" stroke-width="2" stroke-linecap="round" stroke-linejoin="round"/>
<path d="M8 21L7 21C4.8 21 3 19.2 3 17L3 16" stroke="#E7E8EA" stroke-width="2" stroke-linecap="round" stroke-linejoin="round"/>
<path fill-rule="evenodd" clip-rule="evenodd" d="M11 11.1818V15H7V11.1818C7 9.98182 7.9 9 9 9C10.1 9 11 9.98182 11 11.1818Z" stroke="#E7E8EA" stroke-width="2" stroke-linecap="round" stroke-linejoin="round"/>
<path fill-rule="evenodd" clip-rule="evenodd" d="M17 11.1818V15H7V11.1818C7 9.98182 8 9 9.22222 9H14.7778C16 9 17 9.98182 17 11.1818Z" stroke="#E7E8EA" stroke-width="2" stroke-linecap="round" stroke-linejoin="round"/>
<path d="M14 7V11" stroke="#E7E8EA" stroke-width="2" stroke-linecap="round" stroke-linejoin="round"/>
<path d="M14 15L14 17" stroke="#E7E8EA" stroke-width="2" stroke-linecap="round" stroke-linejoin="round"/>
</svg>
