<svg width="24" height="24" viewBox="0 0 24 24" fill="none" xmlns="http://www.w3.org/2000/svg">
<path d="M17 10L13.2921 11.4872L12 12L10.7079 11.4872L7 10" stroke="#E7E8EA" stroke-width="2" stroke-linecap="round" stroke-linejoin="round"/>
<rect x="7" y="8" width="10" height="8" rx="2" stroke="#E7E8EA" stroke-width="2" stroke-linejoin="round"/>
<path d="M3 8V7C3 4.8 4.8 3 7 3L8 3" stroke="#E7E8EA" stroke-width="2" stroke-linecap="round" stroke-linejoin="round"/>
<path d="M16 3L17 3C19.2 3 21 4.8 21 7L21 8" stroke="#E7E8EA" stroke-width="2" stroke-linecap="round" stroke-linejoin="round"/>
<path d="M21 16L21 17C21 19.2 19.2 21 17 21L16 21" stroke="#E7E8EA" stroke-width="2" stroke-linecap="round" stroke-linejoin="round"/>
<path d="M8 21L7 21C4.8 21 3 19.2 3 17L3 16" stroke="#E7E8EA" stroke-width="2" stroke-linecap="round" stroke-linejoin="round"/>
</svg>
