<svg width="24" height="24" viewBox="0 0 24 24" fill="none" xmlns="http://www.w3.org/2000/svg">
<path d="M21 10.5V17C21 19.2 19.2 21 17 21H7C4.8 21 3 19.2 3 17V7C3 4.8 4.8 3 7 3H12.5" stroke="#E7E8EA" stroke-width="2" stroke-miterlimit="10" stroke-linecap="round" stroke-linejoin="round"/>
<path d="M21 13V17C21 19.2 19.2 21 17 21H7C4.8 21 3 19.2 3 17V13H9C9 14.7 10.3 16 12 16C13.7 16 15 14.7 15 13H21Z" stroke="#E7E8EA" stroke-width="2" stroke-miterlimit="10" stroke-linecap="round" stroke-linejoin="round"/>
<path d="M18 7C19.1046 7 20 6.10457 20 5C20 3.89543 19.1046 3 18 3C16.8954 3 16 3.89543 16 5C16 6.10457 16.8954 7 18 7Z" stroke="#E7E8EA" stroke-width="2" stroke-miterlimit="10" stroke-linecap="round" stroke-linejoin="round"/>
</svg>
