<svg width="24" height="24" viewBox="0 0 24 24" fill="none" xmlns="http://www.w3.org/2000/svg">
<path d="M17 17L7 17C6.5 17 6 17.5 6 18L6 20C6 20.5 6.5 21 7 21L17 21C17.5 21 18 20.5 18 20L18 18C18 17.5 17.6 17 17 17Z" stroke="#E7E8EA" stroke-width="2" stroke-linecap="round" stroke-linejoin="round"/>
<path d="M11.8 3C10.8 3 9.8 3.5 9.2 4.2C8.5 4.9 8 5.9 8 7L8 17L16 17L16 14.5L19.5 12.3C19.8 12.1 20 11.8 20 11.4L20 8.8C20 8 19.1 7.5 18.5 8L16 9.5L16 7.2C16 4.9 14.1 2.9 11.8 3Z" stroke="#E7E8EA" stroke-width="2" stroke-linecap="round" stroke-linejoin="round"/>
</svg>
