<svg width="24" height="24" viewBox="0 0 24 24" fill="none" xmlns="http://www.w3.org/2000/svg">
<path d="M17 7V17C17 17.5 17.5 18 18 18H20C20.5 18 21 17.5 21 17V7C21 6.5 20.5 6 20 6H18C17.5 6 17 6.4 17 7Z" stroke="#E7E8EA" stroke-width="2" stroke-linecap="round" stroke-linejoin="round"/>
<path d="M3 12.2C3 13.2 3.5 14.2 4.2 14.8C4.9 15.5 5.9 16 7 16H17V8H14.5L12.3 4.5C12.1 4.2 11.8 4 11.4 4H8.8C8 4 7.5 4.9 8 5.5L9.5 8H7.2C4.9 8 2.9 9.9 3 12.2Z" stroke="#E7E8EA" stroke-width="2" stroke-linecap="round" stroke-linejoin="round"/>
</svg>
