<svg width="24" height="24" viewBox="0 0 24 24" fill="none" xmlns="http://www.w3.org/2000/svg">
<path d="M7 7V17C7 17.5 6.5 18 6 18H4C3.5 18 3 17.5 3 17V7C3 6.5 3.5 6 4 6H6C6.5 6 7 6.4 7 7Z" stroke="#E7E8EA" stroke-width="2" stroke-linecap="round" stroke-linejoin="round"/>
<path d="M21 12.2C21 13.2 20.5 14.2 19.8 14.8C19.1 15.5 18.1 16 17 16H7V8H9.5L11.7 4.5C11.9 4.2 12.2 4 12.6 4H15.2C16 4 16.5 4.9 16 5.5L14.5 8H16.8C19.1 8 21.1 9.9 21 12.2Z" stroke="#E7E8EA" stroke-width="2" stroke-linecap="round" stroke-linejoin="round"/>
</svg>
