<svg width="24" height="24" viewBox="0 0 24 24" fill="none" xmlns="http://www.w3.org/2000/svg">
<path d="M7 17L17 17C17.5 17 18 17.5 18 18L18 20C18 20.5 17.5 21 17 21L7 21C6.5 21 6 20.5 6 20L6 18C6 17.5 6.4 17 7 17Z" stroke="#E7E8EA" stroke-width="2" stroke-linecap="round" stroke-linejoin="round"/>
<path d="M12.2 3C13.2 3 14.2 3.5 14.8 4.2C15.5 4.9 16 5.9 16 7L16 17L8 17L8 14.5L4.5 12.3C4.2 12.1 4 11.8 4 11.4L4 8.8C4 8 4.9 7.5 5.5 8L8 9.5L8 7.2C8 4.9 9.9 2.9 12.2 3Z" stroke="#E7E8EA" stroke-width="2" stroke-linecap="round" stroke-linejoin="round"/>
</svg>
