<svg width="24" height="24" viewBox="0 0 24 24" fill="none" xmlns="http://www.w3.org/2000/svg">
<path d="M20 18H18C17.4 18 17 17.6 17 17C17 16.4 17.4 16 18 16H20C20.6 16 21 16.4 21 17C21 17.5 20.5 18 20 18Z" stroke="#E7E8EA" stroke-width="2" stroke-miterlimit="10" stroke-linecap="round" stroke-linejoin="round"/>
<path d="M13 18H11C10.4 18 10 17.6 10 17C10 16.4 10.4 16 11 16H13C13.6 16 14 16.4 14 17C14 17.5 13.5 18 13 18Z" stroke="#E7E8EA" stroke-width="2" stroke-miterlimit="10" stroke-linecap="round" stroke-linejoin="round"/>
<path d="M6 18H4C3.4 18 3 17.6 3 17V13C3 12.4 3.4 12 4 12H6C6.6 12 7 12.4 7 13V17C7 17.5 6.6 18 6 18Z" stroke="#E7E8EA" stroke-width="2" stroke-miterlimit="10" stroke-linecap="round" stroke-linejoin="round"/>
</svg>
