<svg width="24" height="24" viewBox="0 0 24 24" fill="none" xmlns="http://www.w3.org/2000/svg">
<g clip-path="url(#clip0_106_11218)">
<path d="M12 13C12.5523 13 13 12.5523 13 12C13 11.4477 12.5523 11 12 11C11.4477 11 11 11.4477 11 12C11 12.5523 11.4477 13 12 13Z" stroke="#E7E8EA" stroke-width="2" stroke-miterlimit="10" stroke-linecap="round" stroke-linejoin="round"/>
<path d="M18.364 18.3639C21.8787 14.8492 21.8787 9.15074 18.364 5.63603C14.8492 2.12131 9.15076 2.12131 5.63604 5.63603C2.12132 9.15074 2.12132 14.8492 5.63604 18.3639" stroke="#E7E8EA" stroke-width="2" stroke-linecap="round"/>
<path d="M15.5355 15.5355C17.4882 13.5829 17.4882 10.4171 15.5355 8.46446C13.5829 6.51184 10.4171 6.51184 8.46447 8.46446C6.51184 10.4171 6.51184 13.5829 8.46447 15.5355" stroke="#E7E8EA" stroke-width="2" stroke-linecap="round"/>
<path d="M12 13L12 21" stroke="#E7E8EA" stroke-width="2" stroke-miterlimit="10" stroke-linecap="round" stroke-linejoin="round"/>
</g>
<defs>
<clipPath id="clip0_106_11218">
<rect width="24" height="24" fill="white"/>
</clipPath>
</defs>
</svg>
