<svg width="24" height="24" viewBox="0 0 24 24" fill="none" xmlns="http://www.w3.org/2000/svg">
<path d="M20 21H18C17.4 21 17 20.6 17 20V4C17 3.4 17.4 3 18 3H20C20.6 3 21 3.4 21 4V20C21 20.6 20.5 21 20 21Z" stroke="#E7E8EA" stroke-width="2" stroke-miterlimit="10" stroke-linecap="round" stroke-linejoin="round"/>
<path d="M13 21H11C10.4 21 10 20.6 10 20V10C10 9.4 10.4 9 11 9H13C13.6 9 14 9.4 14 10V20C14 20.6 13.5 21 13 21Z" stroke="#E7E8EA" stroke-width="2" stroke-miterlimit="10" stroke-linecap="round" stroke-linejoin="round"/>
<path d="M6 21H4C3.4 21 3 20.6 3 20V16C3 15.4 3.4 15 4 15H6C6.6 15 7 15.4 7 16V20C7 20.6 6.6 21 6 21Z" stroke="#E7E8EA" stroke-width="2" stroke-miterlimit="10" stroke-linecap="round" stroke-linejoin="round"/>
</svg>
