<svg width="24" height="24" viewBox="0 0 24 24" fill="none" xmlns="http://www.w3.org/2000/svg">
<path d="M17.8 14L17.2 8.2C17.1 6.9 16.2 5.7 14.9 5.1L13.6 4.5C13.2 4.3 12.9 4 12.8 3.5L12.5 3H11.5L11.3 3.7C11.2 4.1 10.9 4.5 10.5 4.7L9.2 5.2C7.9 5.8 7 6.9 6.8 8.3L6.2 14C6.2 14.4 5.9 14.7 5.5 14.8L4.8 15.1C4.3 15.4 4 15.8 4 16.3V17H20V16.3C20 15.8 19.7 15.4 19.2 15.2L18.5 14.9C18.1 14.7 17.8 14.4 17.8 14Z" stroke="#E7E8EA" stroke-width="2" stroke-linecap="round" stroke-linejoin="round"/>
<path d="M9 21H15" stroke="#E7E8EA" stroke-width="2" stroke-linecap="round" stroke-linejoin="round"/>
</svg>
