<svg width="24" height="24" viewBox="0 0 24 24" fill="none" xmlns="http://www.w3.org/2000/svg">
<path d="M19 3C20.1 3 21 3.9 21 5C21 6.1 20.1 7 19 7M13 19C13 17.9 13.9 17 15 17H5C3.9 17 3 17.9 3 19C3 20.1 3.9 21 5 21H15C13.9 21 13 20.1 13 19ZM9 3C7.9 3 7 3.9 7 5V17H15C13.9 17 13 17.9 13 19C13 20.1 13.9 21 15 21C15.8 21 16.4 20.6 16.8 20C16.8 19.9 16.9 19.9 16.9 19.8C17 19.6 17.1 19.3 17.1 19V5C17.1 4.6 17.2 4.2 17.4 3.9C17.5 3.8 17.6 3.7 17.6 3.6C18 3.2 18.5 3 19 3H9Z" stroke="#E7E8EA" stroke-width="2" stroke-miterlimit="10" stroke-linecap="round" stroke-linejoin="round"/>
</svg>
