<svg width="24" height="24" viewBox="0 0 24 24" fill="none" xmlns="http://www.w3.org/2000/svg">
<path d="M19 21C20.1 21 21 20.1 21 19C21 17.9 20.1 17 19 17M13 5C13 6.1 13.9 7 15 7H5C3.9 7 3 6.1 3 5C3 3.9 3.9 3 5 3H15C13.9 3 13 3.9 13 5ZM9 21C7.9 21 7 20.1 7 19V7H15C13.9 7 13 6.1 13 5C13 3.9 13.9 3 15 3C15.8 3 16.4 3.4 16.8 4C16.8 4.1 16.9 4.1 16.9 4.2C17 4.4 17.1 4.7 17.1 5V19C17.1 19.4 17.2 19.8 17.4 20.1C17.5 20.2 17.6 20.3 17.6 20.4C18 20.8 18.5 21 19 21H9Z" stroke="#E7E8EA" stroke-width="2" stroke-miterlimit="10" stroke-linecap="round" stroke-linejoin="round"/>
</svg>
