<svg width="24" height="24" viewBox="0 0 24 24" fill="none" xmlns="http://www.w3.org/2000/svg">
<path d="M5 3C3.9 3 3 3.9 3 5C3 6.1 3.9 7 5 7M11 19C11 17.9 10.1 17 9 17H19C20.1 17 21 17.9 21 19C21 20.1 20.1 21 19 21H9C10.1 21 11 20.1 11 19ZM15 3C16.1 3 17 3.9 17 5V17H9C10.1 17 11 17.9 11 19C11 20.1 10.1 21 9 21C8.2 21 7.6 20.6 7.2 20C7.2 19.9 7.1 19.9 7.1 19.8C7 19.6 6.9 19.3 6.9 19V5C6.9 4.6 6.8 4.2 6.6 3.9C6.5 3.8 6.4 3.7 6.4 3.6C6 3.2 5.5 3 5 3H15Z" stroke="#E7E8EA" stroke-width="2" stroke-miterlimit="10" stroke-linecap="round" stroke-linejoin="round"/>
</svg>
