<svg width="24" height="24" viewBox="0 0 24 24" fill="none" xmlns="http://www.w3.org/2000/svg">
<path d="M5 21C3.9 21 3 20.1 3 19C3 17.9 3.9 17 5 17M11 5C11 6.1 10.1 7 9 7H19C20.1 7 21 6.1 21 5C21 3.9 20.1 3 19 3H9C10.1 3 11 3.9 11 5ZM15 21C16.1 21 17 20.1 17 19V7H9C10.1 7 11 6.1 11 5C11 3.9 10.1 3 9 3C8.2 3 7.6 3.4 7.2 4C7.2 4.1 7.1 4.1 7.1 4.2C7 4.4 6.9 4.7 6.9 5V19C6.9 19.4 6.8 19.8 6.6 20.1C6.5 20.2 6.4 20.3 6.4 20.4C6 20.8 5.5 21 5 21H15Z" stroke="#E7E8EA" stroke-width="2" stroke-miterlimit="10" stroke-linecap="round" stroke-linejoin="round"/>
</svg>
