<svg width="24" height="24" viewBox="0 0 24 24" fill="none" xmlns="http://www.w3.org/2000/svg">
<path d="M21 11L13.2 18.9L9.1 14.8L3 21M21 15V11H17" stroke="#E7E8EA" stroke-width="2" stroke-linecap="round" stroke-linejoin="round"/>
<path d="M10 3L4 11M3 4.5C3 5.3 3.7 6 4.5 6C5.3 6 6 5.3 6 4.5C6 3.7 5.3 3 4.5 3C3.7 3 3 3.7 3 4.5ZM8 9.5C8 10.3 8.7 11 9.5 11C10.3 11 11 10.3 11 9.5C11 8.7 10.3 8 9.5 8C8.7 8 8 8.7 8 9.5Z" stroke="#E7E8EA" stroke-width="2" stroke-linecap="round" stroke-linejoin="round"/>
</svg>
