<svg width="24" height="24" viewBox="0 0 24 24" fill="none" xmlns="http://www.w3.org/2000/svg">
<path d="M10 13L4 21M3 14.5C3 15.3 3.7 16 4.5 16C5.3 16 6 15.3 6 14.5C6 13.7 5.3 13 4.5 13C3.7 13 3 13.7 3 14.5ZM8 19.5C8 20.3 8.7 21 9.5 21C10.3 21 11 20.3 11 19.5C11 18.7 10.3 18 9.5 18C8.7 18 8 18.7 8 19.5Z" stroke="#E7E8EA" stroke-width="2" stroke-linecap="round" stroke-linejoin="round"/>
<path d="M20 3L14 11M13 4.5C13 5.3 13.7 6 14.5 6C15.3 6 16 5.3 16 4.5C16 3.7 15.3 3 14.5 3C13.7 3 13 3.7 13 4.5ZM18 9.5C18 10.3 18.7 11 19.5 11C20.3 11 21 10.3 21 9.5C21 8.7 20.3 8 19.5 8C18.7 8 18 8.7 18 9.5Z" stroke="#E7E8EA" stroke-width="2" stroke-linecap="round" stroke-linejoin="round"/>
<path d="M10 3L4 11M3 4.5C3 5.3 3.7 6 4.5 6C5.3 6 6 5.3 6 4.5C6 3.7 5.3 3 4.5 3C3.7 3 3 3.7 3 4.5ZM8 9.5C8 10.3 8.7 11 9.5 11C10.3 11 11 10.3 11 9.5C11 8.7 10.3 8 9.5 8C8.7 8 8 8.7 8 9.5Z" stroke="#E7E8EA" stroke-width="2" stroke-linecap="round" stroke-linejoin="round"/>
<path d="M17 19V15" stroke="#E7E8EA" stroke-width="2" stroke-linecap="round" stroke-linejoin="round"/>
<path d="M19 17H15" stroke="#E7E8EA" stroke-width="2" stroke-linecap="round" stroke-linejoin="round"/>
</svg>
