<svg width="24" height="24" viewBox="0 0 24 24" fill="none" xmlns="http://www.w3.org/2000/svg">
<path d="M4 7.9C4.4 7.1 5 6.3 5.6 5.7C7.3 4 9.5 3 12 3C14.3 3 16.4 3.9 18 5.3C19.6 6.7 20.7 8.7 20.9 11" stroke="#E7E8EA" stroke-width="2" stroke-linecap="round" stroke-linejoin="round"/>
<path d="M4 7.9V3" stroke="#E7E8EA" stroke-width="2" stroke-linecap="round" stroke-linejoin="round"/>
<path d="M19.9 16.1C19.5 16.9 18.9 17.7 18.3 18.3C16.7 20 14.4 21 11.9 21C9.6 21 7.5 20.1 5.9 18.7C4.3 17.2 3.2 15.2 3 13" stroke="#E7E8EA" stroke-width="2" stroke-linecap="round" stroke-linejoin="round"/>
<path d="M20 16.1V21" stroke="#E7E8EA" stroke-width="2" stroke-linecap="round" stroke-linejoin="round"/>
<path d="M15 8L9 16M8 9.5C8 10.3 8.7 11 9.5 11C10.3 11 11 10.3 11 9.5C11 8.7 10.3 8 9.5 8C8.7 8 8 8.7 8 9.5ZM13 14.5C13 15.3 13.7 16 14.5 16C15.3 16 16 15.3 16 14.5C16 13.7 15.3 13 14.5 13C13.7 13 13 13.7 13 14.5Z" stroke="#E7E8EA" stroke-width="2" stroke-linecap="round" stroke-linejoin="round"/>
</svg>
