<svg width="24" height="24" viewBox="0 0 24 24" fill="none" xmlns="http://www.w3.org/2000/svg">
<path d="M5 21C6.10457 21 7 20.1046 7 19C7 17.8954 6.10457 17 5 17C3.89543 17 3 17.8954 3 19C3 20.1046 3.89543 21 5 21Z" stroke="#E7E8EA" stroke-width="2" stroke-linecap="round" stroke-linejoin="round"/>
<path d="M12 21C13.1046 21 14 20.1046 14 19C14 17.8954 13.1046 17 12 17C10.8954 17 10 17.8954 10 19C10 20.1046 10.8954 21 12 21Z" stroke="#E7E8EA" stroke-width="2" stroke-linecap="round" stroke-linejoin="round"/>
<path d="M19 21C20.1046 21 21 20.1046 21 19C21 17.8954 20.1046 17 19 17C17.8954 17 17 17.8954 17 19C17 20.1046 17.8954 21 19 21Z" stroke="#E7E8EA" stroke-width="2" stroke-linecap="round" stroke-linejoin="round"/>
<path d="M19.478 11.2949C19.0914 11.8271 18.3755 12.1246 17.7711 11.9499L17.002 11.7167C16.2328 11.4836 15.8503 10.7181 15.9077 9.95113L16.0195 9.36087C16.0773 8.47589 15.6399 7.65168 14.8156 7.47771C13.8812 7.30413 12.9469 7.13056 11.957 7.13414C10.9671 7.13772 9.97687 7.25928 9.09623 7.4984C8.27077 7.67834 7.82822 8.50574 7.93561 9.33114L7.98894 9.86181C8.09633 10.6872 7.59897 11.4558 6.8835 11.6354L6.11284 11.8741C5.50736 12.0532 4.84817 11.8197 4.41008 11.2314L3.69869 10.1133L3.26096 9.40704C2.82324 8.7008 2.93657 7.63866 3.59798 7.16439C4.756 6.15745 6.07807 5.44485 7.45459 4.909C8.88628 4.31397 10.4268 4.07246 12.0218 4.0077C13.6168 3.94294 15.1556 4.29129 16.5835 4.87597C17.9015 5.46105 19.274 6.22289 20.4257 7.22147C21.0289 7.75015 21.1908 8.75231 20.7486 9.46173L19.478 11.2949Z" stroke="#E7E8EA" stroke-width="2" stroke-linecap="round" stroke-linejoin="round"/>
</svg>
