<svg width="24" height="24" viewBox="0 0 24 24" fill="none" xmlns="http://www.w3.org/2000/svg">
<path d="M19.478 19.2949C19.0914 19.8271 18.3755 20.1246 17.7711 19.9499L17.002 19.7167C16.2328 19.4836 15.8503 18.7181 15.9077 17.9511L16.0195 17.3609C16.0773 16.4759 15.6399 15.6517 14.8156 15.4777C13.8812 15.3041 12.9469 15.1306 11.957 15.1341C10.9671 15.1377 9.97687 15.2593 9.09623 15.4984C8.27077 15.6783 7.82822 16.5057 7.93561 17.3311L7.98894 17.8618C8.09633 18.6872 7.59897 19.4558 6.8835 19.6354L6.11284 19.8741C5.50736 20.0532 4.84817 19.8197 4.41008 19.2314L3.69869 18.1133L3.26096 17.407C2.82324 16.7008 2.93657 15.6387 3.59798 15.1644C4.756 14.1575 6.07807 13.4448 7.45459 12.909C8.88628 12.314 10.4268 12.0725 12.0218 12.0077C13.6168 11.9429 15.1556 12.2913 16.5835 12.876C17.9015 13.4611 19.274 14.2229 20.4257 15.2215C21.0289 15.7501 21.1908 16.7523 20.7486 17.4617L19.478 19.2949Z" stroke="#E7E8EA" stroke-width="2" stroke-linecap="round" stroke-linejoin="round"/>
<path d="M12 3L12 8" stroke="#E7E8EA" stroke-width="2" stroke-linecap="round"/>
<path d="M18 5.48999L18 5.49999" stroke="#E7E8EA" stroke-width="2" stroke-linecap="round"/>
<path d="M6 5.48999L6 5.49999" stroke="#E7E8EA" stroke-width="2" stroke-linecap="round"/>
<path d="M15 4L15 7" stroke="#E7E8EA" stroke-width="2" stroke-linecap="round"/>
<path d="M9 4.5L9 6.5" stroke="#E7E8EA" stroke-width="2" stroke-linecap="round"/>
</svg>
