<svg width="24" height="24" viewBox="0 0 24 24" fill="none" xmlns="http://www.w3.org/2000/svg">
<path d="M7.29974 2.99999C8.09974 2.89999 8.99974 3.29999 9.39974 3.99999L9.89974 4.89999C10.3997 5.79999 10.0997 6.79999 9.39974 7.39999L8.79974 7.79999C7.99974 8.49999 7.69974 9.59999 8.29974 10.5C8.99974 11.5 9.69974 12.5 10.5997 13.4C11.4997 14.3 12.4997 15.1 13.4997 15.7C14.3997 16.3 15.4997 16 16.0997 15.2L16.4997 14.7C17.0997 13.9 18.1997 13.7 18.9997 14.2L19.8997 14.7C20.5997 15.1 20.9997 15.9 20.8997 16.8L20.5997 18.4L20.3997 19.4C20.1997 20.4 19.1997 21.2 18.1997 21C16.2997 20.8 14.4997 20.2 12.7997 19.4C10.9997 18.6 9.39974 17.4 7.89974 16C6.39974 14.6 5.29974 12.9 4.49974 11.1C3.79974 9.39999 3.19974 7.49999 2.99974 5.59999C2.89974 4.59999 3.59974 3.59999 4.59974 3.39999L7.29974 2.99999Z" stroke="#E7E8EA" stroke-width="2" stroke-linecap="round" stroke-linejoin="round"/>
<path d="M21 8C21 5.2 18.8 3 16 3" stroke="#E7E8EA" stroke-width="2" stroke-linecap="round" stroke-linejoin="round"/>
<path d="M17.5 8.5C17.5 7.38 16.62 6.5 15.5 6.5" stroke="#E7E8EA" stroke-width="2" stroke-linecap="round" stroke-linejoin="round"/>
</svg>
