<svg width="24" height="24" viewBox="0 0 24 24" fill="none" xmlns="http://www.w3.org/2000/svg">
<path d="M3 8V7C3 4.8 4.8 3 7 3L8 3" stroke="#E7E8EA" stroke-width="2" stroke-linecap="round" stroke-linejoin="round"/>
<path d="M16 3L17 3C19.2 3 21 4.8 21 7L21 8" stroke="#E7E8EA" stroke-width="2" stroke-linecap="round" stroke-linejoin="round"/>
<path d="M21 16L21 17C21 19.2 19.2 21 17 21L16 21" stroke="#E7E8EA" stroke-width="2" stroke-linecap="round" stroke-linejoin="round"/>
<path d="M8 21L7 21C4.8 21 3 19.2 3 17L3 16" stroke="#E7E8EA" stroke-width="2" stroke-linecap="round" stroke-linejoin="round"/>
<path d="M16.1111 17C14.6667 17 13.2778 16.6667 12 16.0556M16.1111 17C14.6111 17 13.2222 16.6667 12 16.0556M16.1111 17L16.8333 16.2778C17.0556 16.0556 17.0556 15.7222 16.8333 15.5L15.5 14.1667C15.0556 13.6667 14.3333 13.6667 13.8889 14.1111L12 16.0556M12 16.0556C10.2778 15.1667 8.83333 13.7778 7.94444 12M7.94444 12C7.33333 10.7778 7 9.38889 7 7.88889L7.72222 7.16667C7.94444 6.94444 8.33333 6.94444 8.55556 7.16667L9.88889 8.5C10.3333 8.94444 10.3333 9.66667 9.83333 10.1111L7.94444 12Z" stroke="#E7E8EA" stroke-width="2" stroke-miterlimit="10" stroke-linecap="round" stroke-linejoin="round"/>
</svg>
