<svg width="24" height="24" viewBox="0 0 24 24" fill="none" xmlns="http://www.w3.org/2000/svg">
<path d="M10.5997 13.4L7.99974 16C7.99974 16 7.99974 16 7.89974 16C6.39974 14.6 5.29974 12.9 4.49974 11.1C3.79974 9.40001 3.19974 7.50001 2.99974 5.60001C2.89974 4.60001 3.59974 3.60001 4.59974 3.40001L7.29974 3.00001C8.09974 2.90001 8.99974 3.30001 9.39974 4.00001L9.89974 4.90001C10.3997 5.80001 10.0997 6.80001 9.39974 7.40001L8.79974 7.80001C7.99974 8.50001 7.69974 9.60001 8.29974 10.5C8.99974 11.5 9.69974 12.5 10.5997 13.4Z" stroke="#E7E8EA" stroke-width="2" stroke-linecap="round" stroke-linejoin="round"/>
<path d="M13.4002 15.6C13.5002 15.6 13.5002 15.7 13.5002 15.7C14.4002 16.3 15.5002 16 16.1002 15.2L16.5002 14.7C17.1002 13.9 18.2002 13.7 19.0002 14.2L19.9002 14.7C20.6002 15.1 21.0002 15.9 20.9002 16.8L20.6002 18.4L20.4002 19.4C20.2002 20.4 19.2002 21.2 18.2002 21C16.3002 20.8 14.5002 20.2 12.8002 19.4C12.1002 19.1 11.4002 18.7 10.7002 18.3" stroke="#E7E8EA" stroke-width="2" stroke-linecap="round" stroke-linejoin="round"/>
<path d="M8 16L4 20" stroke="#E7E8EA" stroke-width="2" stroke-linecap="round" stroke-linejoin="round"/>
<path d="M19.9996 4L10.5996 13.4" stroke="#E7E8EA" stroke-width="2" stroke-linecap="round" stroke-linejoin="round"/>
</svg>
