<svg width="24" height="24" viewBox="0 0 24 24" fill="none" xmlns="http://www.w3.org/2000/svg">
<path d="M19.4 21C16.8 21 14.3 20.4 12 19.3M19.4 21C16.7 21 14.2 20.4 12 19.3M19.4 21L20.7 19.7C21.1 19.3 21.1 18.7 20.7 18.3L18.3 15.9C17.5 15 16.2 15 15.4 15.8L12 19.3M12 19.3C8.9 17.7 6.3 15.2 4.7 12M4.7 12C3.6 9.8 3 7.3 3 4.6L4.3 3.3C4.7 2.9 5.4 2.9 5.8 3.3L8.2 5.7C9 6.5 9 7.8 8.1 8.6L4.7 12Z" stroke="#E7E8EA" stroke-width="2" stroke-miterlimit="10" stroke-linecap="round" stroke-linejoin="round"/>
<path d="M21 3.53333C21 4.4 20.8 5.23333 20.4333 6M21 3.53333C21 4.43333 20.8 5.26667 20.4333 6M21 3.53333L20.5667 3.1C20.4333 2.96667 20.2333 2.96667 20.1 3.1L19.3 3.9C19 4.16667 19 4.6 19.2667 4.86667L20.4333 6M20.4333 6C19.9 7.03333 19.0667 7.9 18 8.43333M18 8.43333C17.2667 8.8 16.4333 9 15.5333 9L15.1 8.56667C14.9667 8.43333 14.9667 8.2 15.1 8.06667L15.9 7.26667C16.1667 7 16.6 7 16.8667 7.3L18 8.43333Z" stroke="#E7E8EA" stroke-width="2" stroke-miterlimit="10" stroke-linecap="round" stroke-linejoin="round"/>
</svg>
