<svg width="24" height="24" viewBox="0 0 24 24" fill="none" xmlns="http://www.w3.org/2000/svg">
<path d="M5 8C6.10457 8 7 7.10457 7 6C7 4.89543 6.10457 4 5 4C3.89543 4 3 4.89543 3 6C3 7.10457 3.89543 8 5 8Z" stroke="#E7E8EA" stroke-width="2" stroke-linecap="round" stroke-linejoin="round"/>
<path d="M12 8C13.1046 8 14 7.10457 14 6C14 4.89543 13.1046 4 12 4C10.8954 4 10 4.89543 10 6C10 7.10457 10.8954 8 12 8Z" stroke="#E7E8EA" stroke-width="2" stroke-linecap="round" stroke-linejoin="round"/>
<path d="M19 8C20.1046 8 21 7.10457 21 6C21 4.89543 20.1046 4 19 4C17.8954 4 17 4.89543 17 6C17 7.10457 17.8954 8 19 8Z" stroke="#E7E8EA" stroke-width="2" stroke-linecap="round" stroke-linejoin="round"/>
<path d="M19.478 20.2949C19.0914 20.8271 18.3755 21.1246 17.7711 20.9499L17.002 20.7167C16.2328 20.4836 15.8503 19.7181 15.9077 18.9511L16.0195 18.3609C16.0773 17.4759 15.6399 16.6517 14.8156 16.4777C13.8812 16.3041 12.9469 16.1306 11.957 16.1341C10.9671 16.1377 9.97687 16.2593 9.09623 16.4984C8.27077 16.6783 7.82822 17.5057 7.93561 18.3311L7.98894 18.8618C8.09633 19.6872 7.59897 20.4558 6.8835 20.6354L6.11284 20.8741C5.50736 21.0532 4.84817 20.8197 4.41008 20.2314L3.69869 19.1133L3.26096 18.407C2.82324 17.7008 2.93657 16.6387 3.59798 16.1644C4.756 15.1575 6.07807 14.4448 7.45459 13.909C8.88628 13.314 10.4268 13.0725 12.0218 13.0077C13.6168 12.9429 15.1556 13.2913 16.5835 13.876C17.9015 14.4611 19.274 15.2229 20.4257 16.2215C21.0289 16.7501 21.1908 17.7523 20.7486 18.4617L19.478 20.2949Z" stroke="#E7E8EA" stroke-width="2" stroke-linecap="round" stroke-linejoin="round"/>
</svg>
