<svg width="24" height="24" viewBox="0 0 24 24" fill="none" xmlns="http://www.w3.org/2000/svg">
<path d="M19.478 20.2949C19.0914 20.8271 18.3755 21.1246 17.7711 20.9499L17.002 20.7167C16.2328 20.4836 15.8503 19.7181 15.9077 18.9511L16.0195 18.3609C16.0773 17.4759 15.6399 16.6517 14.8156 16.4777C13.8812 16.3041 12.9469 16.1306 11.957 16.1341C10.9671 16.1377 9.97687 16.2593 9.09623 16.4984C8.27077 16.6783 7.82822 17.5057 7.93561 18.3311L7.98894 18.8618C8.09633 19.6872 7.59897 20.4558 6.8835 20.6354L6.11284 20.8741C5.50736 21.0532 4.84817 20.8197 4.41008 20.2314L3.69869 19.1133L3.26096 18.407C2.82324 17.7008 2.93657 16.6387 3.59798 16.1644C4.756 15.1575 6.07807 14.4448 7.45459 13.909C8.88628 13.314 10.4268 13.0725 12.0218 13.0077C13.6168 12.9429 15.1556 13.2913 16.5835 13.876C17.9015 14.4611 19.274 15.2229 20.4257 16.2215C21.0289 16.7501 21.1908 17.7523 20.7486 18.4617L19.478 20.2949Z" stroke="#E7E8EA" stroke-width="2" stroke-linecap="round" stroke-linejoin="round"/>
<path d="M17 3L17 9" stroke="#E7E8EA" stroke-width="2" stroke-linecap="round"/>
<path d="M4 6L10 6" stroke="#E7E8EA" stroke-width="2" stroke-linecap="round"/>
<path d="M14 6L20 6" stroke="#E7E8EA" stroke-width="2" stroke-linecap="round"/>
</svg>
