<svg width="24" height="24" viewBox="0 0 24 24" fill="none" xmlns="http://www.w3.org/2000/svg">
<path d="M3 6.75605C4.42683 5.33305 6.12805 4.29317 7.9939 3.63641M3 6.75605C4.48171 5.27832 6.18293 4.23844 7.9939 3.63641M3 6.75605L3 8.17904C3 8.61689 3.32927 8.94527 3.76829 8.94527L6.40244 8.94527C7.33537 9 8.04878 8.2885 8.04878 7.41281L7.9939 3.63641M7.9939 3.63641C10.5732 2.81545 13.372 2.76072 16.0061 3.63641M16.0061 3.63641C17.8171 4.23844 19.5183 5.27832 21 6.75605L21 8.17904C21 8.61689 20.6159 9 20.1768 9L17.5427 9C16.6646 9 15.9512 8.2885 16.0061 7.35808L16.0061 3.63641Z" stroke="#E7E8EA" stroke-width="2" stroke-miterlimit="10" stroke-linecap="round" stroke-linejoin="round"/>
<path d="M3 18.756C4.42683 17.3331 6.12805 16.2932 7.9939 15.6364M3 18.756C4.48171 17.2783 6.18293 16.2384 7.9939 15.6364M3 18.756L3 20.179C3 20.6169 3.32927 20.9453 3.76829 20.9453L6.40244 20.9453C7.33537 21 8.04878 20.2885 8.04878 19.4128L7.9939 15.6364M7.9939 15.6364C10.5732 14.8154 13.372 14.7607 16.0061 15.6364M16.0061 15.6364C17.8171 16.2384 19.5183 17.2783 21 18.756L21 20.179C21 20.6169 20.6159 21 20.1768 21L17.5427 21C16.6646 21 15.9512 20.2885 16.0061 19.3581L16.0061 15.6364Z" stroke="#E7E8EA" stroke-width="2" stroke-miterlimit="10" stroke-linecap="round" stroke-linejoin="round"/>
</svg>
