<svg width="24" height="24" viewBox="0 0 24 24" fill="none" xmlns="http://www.w3.org/2000/svg">
<path d="M4.7 12C3.6 9.8 3 7.3 3 4.6L4.3 3.3C4.7 2.9 5.4 2.9 5.8 3.3L8.2 5.7C9 6.5 9 7.8 8.1 8.6L4.7 12ZM4.7 12C4.9 12.3 5.1 12.7 5.3 13C5.7 13.6 6 14.2 6.5 14.7C6.9 15.2 7.3 15.7 7.8 16.2M12 19.3L15.4 15.8C16.2 15 17.5 15 18.3 15.9L20.7 18.3C21.1 18.7 21.1 19.3 20.7 19.7L19.4 21C16.7 21 14.2 20.4 12 19.3ZM12 19.3C11.7 19.1 11.3 18.9 11 18.7M12 19.3C14.2 20.4 16.7 21.1 19.3 21" stroke="#E7E8EA" stroke-width="2" stroke-miterlimit="10" stroke-linecap="round" stroke-linejoin="round"/>
<path d="M21 3L3 21" stroke="#E7E8EA" stroke-width="2" stroke-miterlimit="10" stroke-linecap="round" stroke-linejoin="round"/>
</svg>
