<svg width="24" height="24" viewBox="0 0 24 24" fill="none" xmlns="http://www.w3.org/2000/svg">
<path d="M19.4 21C16.8 21 14.3 20.4 12 19.3M19.4 21C16.7 21 14.2 20.4 12 19.3M19.4 21L20.7 19.7C21.1 19.3 21.1 18.7 20.7 18.3L18.3 15.9C17.5 15 16.2 15 15.4 15.8L12 19.3M12 19.3C8.9 17.7 6.3 15.2 4.7 12M4.7 12C3.6 9.8 3 7.3 3 4.6L4.3 3.3C4.7 2.9 5.4 2.9 5.8 3.3L8.2 5.7C9 6.5 9 7.8 8.1 8.6L4.7 12Z" stroke="#E7E8EA" stroke-width="2" stroke-miterlimit="10" stroke-linecap="round" stroke-linejoin="round"/>
<path d="M18 3L21 5.33333V8.33333C21 8.7 20.6625 9 20.25 9H15.75C15.3375 9 15 8.7 15 8.33333V5.33333L18 3Z" stroke="#E7E8EA" stroke-width="2" stroke-linecap="round" stroke-linejoin="round"/>
</svg>
