<svg width="24" height="24" viewBox="0 0 24 24" fill="none" xmlns="http://www.w3.org/2000/svg">
<path d="M20.2949 4.52201C20.8271 4.90864 21.1246 5.62449 20.9499 6.22886L20.7167 6.99803C20.4836 7.7672 19.7181 8.14974 18.9511 8.09234L18.3609 7.9805C17.4759 7.92272 16.6517 8.36007 16.4777 9.18442C16.3041 10.1188 16.1306 11.0531 16.1341 12.043C16.1377 13.0329 16.2593 14.0231 16.4984 14.9038C16.6783 15.7292 17.5057 16.1718 18.3311 16.0644L18.8618 16.0111C19.6872 15.9037 20.4558 16.401 20.6354 17.1165L20.8741 17.8872C21.0532 18.4926 20.8197 19.1518 20.2314 19.5899L19.1133 20.3013L18.407 20.739C17.7008 21.1768 16.6387 21.0634 16.1644 20.402C15.1575 19.244 14.4448 17.9219 13.909 16.5454C13.314 15.1137 13.0725 13.5732 13.0077 11.9782C12.9429 10.3832 13.2913 8.84444 13.876 7.41646C14.461 6.09847 15.2229 4.72603 16.2215 3.57432C16.7501 2.97106 17.7523 2.80923 18.4617 3.25141L20.2949 4.52201Z" stroke="#E7E8EA" stroke-width="2" stroke-linecap="round" stroke-linejoin="round"/>
<path d="M10.2949 4.52201C10.8271 4.90864 11.1246 5.62449 10.9499 6.22886L10.7167 6.99803C10.4836 7.7672 9.71814 8.14974 8.95113 8.09234L8.36087 7.9805C7.47589 7.92272 6.65168 8.36007 6.47771 9.18442C6.30413 10.1188 6.13056 11.0531 6.13414 12.043C6.13772 13.0329 6.25928 14.0231 6.4984 14.9038C6.67834 15.7292 7.50574 16.1718 8.33114 16.0644L8.86181 16.0111C9.68721 15.9037 10.4558 16.401 10.6354 17.1165L10.8741 17.8872C11.0532 18.4926 10.8197 19.1518 10.2314 19.5899L9.11327 20.3013L8.40704 20.739C7.7008 21.1768 6.63866 21.0634 6.16439 20.402C5.15745 19.244 4.44485 17.9219 3.909 16.5454C3.31397 15.1137 3.07246 13.5732 3.0077 11.9782C2.94294 10.3832 3.29129 8.84444 3.87597 7.41646C4.46105 6.09847 5.22289 4.72603 6.22147 3.57432C6.75015 2.97106 7.75231 2.80923 8.46173 3.25141L10.2949 4.52201Z" stroke="#E7E8EA" stroke-width="2" stroke-linecap="round" stroke-linejoin="round"/>
</svg>
