<svg width="24" height="24" viewBox="0 0 24 24" fill="none" xmlns="http://www.w3.org/2000/svg">
<path d="M15 14C13.3 14 12 15.3 12 17C12 15.3 10.7 14 9 14C10.7 14 12 12.7 12 11C12 12.7 13.3 14 15 14Z" fill="#E7E8EA" stroke="#E7E8EA" stroke-width="2" stroke-miterlimit="10" stroke-linecap="round" stroke-linejoin="round"/>
<path d="M17 7H10.9C9.8 7 9.5 5.5 10.6 5.1L17 3V7ZM17 7C18.1 7 19 7.9 19 9V19C19 20.1 18.1 21 17 21H7C5.9 21 5 20.1 5 19V9C5 7.9 5.9 7 7 7H8.1" stroke="#E7E8EA" stroke-width="2" stroke-miterlimit="10" stroke-linecap="round" stroke-linejoin="round"/>
</svg>
