<svg width="24" height="24" viewBox="0 0 24 24" fill="none" xmlns="http://www.w3.org/2000/svg">
<path d="M16.5 21C15 21 15 19.2 13.5 19.2C12 19.2 12 21 10.5 21C9 21 9 19.2 7.5 19.2C6.8 19.2 5.8 20.7 5.2 20.4C4.7 20.1 5.4 18.4 5.1 17.9C4.9 17.3 3 17.2 3 16.5C3 15 4.8 15 4.8 13.5C4.8 12 3 12 3 10.5C3 9 4.8 9 4.8 7.5C4.8 6.8 3.3 5.8 3.6 5.2C3.9 4.7 5.6 5.4 6.1 5.1C6.7 4.9 6.8 3 7.5 3C9 3 9 4.8 10.5 4.8C12 4.8 12 3 13.5 3C15 3 15 4.8 16.5 4.8C17.2 4.8 18.2 3.3 18.8 3.6C19.3 3.9 18.6 5.6 18.9 6.1C19.1 6.7 21 6.8 21 7.5C21 9 19.2 9 19.2 10.5C19.2 12 21 12 21 13.5C21 15 19.2 15 19.2 16.5C19.2 17.2 20.7 18.2 20.4 18.8C20.1 19.3 18.4 18.6 17.9 18.9C17.3 19.1 17.2 21 16.5 21Z" stroke="#E7E8EA" stroke-width="2" stroke-miterlimit="10" stroke-linecap="round" stroke-linejoin="round"/>
<path d="M8.5 12.3972C9.47887 11.7672 10.4712 11.1516 11.424 10.4824C11.7741 10.2365 12 10.0177 12.4132 9.66038C12.5505 9.54163 12.7927 9.25578 12.6708 9.06563C12.528 8.925 12.1261 9.04861 12 9.08497C11.5174 9.2241 11.3442 9.76364 11.2319 10.1971C10.9238 11.387 10.8293 12.6399 10.6437 13.8526C10.5968 14.1594 10.5366 14.4654 10.5003 14.7738C10.492 14.845 10.4641 15.0495 10.5028 14.9889C10.58 14.8682 10.5392 14.5673 10.5854 14.4232C10.759 13.8821 11.1109 13.3713 11.5309 12.9919C12.0283 12.5427 13.2316 11.7574 13.592 12.755C13.7029 13.0619 13.7188 13.3906 13.6844 13.7124C13.6581 13.958 13.6706 13.9265 13.8035 13.7366C14.036 13.4041 14.6833 12.6021 15.167 12.7091C15.454 12.7725 15.4662 13.4675 15.5 13.7027" stroke="#E7E8EA" stroke-width="2" stroke-linecap="round"/>
</svg>
