<svg width="24" height="24" viewBox="0 0 24 24" fill="none" xmlns="http://www.w3.org/2000/svg">
<path d="M9 14C10.7 14 12 15.3 12 17C12 15.3 13.3 14 15 14C13.3 14 12 12.7 12 11C12 12.7 10.7 14 9 14Z" fill="#E7E8EA" stroke="#E7E8EA" stroke-width="2" stroke-miterlimit="10" stroke-linecap="round" stroke-linejoin="round"/>
<path d="M7 7H13.1C14.2 7 14.5 5.5 13.4 5.1L7 3V7ZM7 7C5.9 7 5 7.9 5 9V19C5 20.1 5.9 21 7 21H17C18.1 21 19 20.1 19 19V9C19 7.9 18.1 7 17 7H15.9" stroke="#E7E8EA" stroke-width="2" stroke-miterlimit="10" stroke-linecap="round" stroke-linejoin="round"/>
</svg>
