<svg width="24" height="24" viewBox="0 0 24 24" fill="none" xmlns="http://www.w3.org/2000/svg">
<path d="M16.5 21C15 21 15 19.2 13.5 19.2C12 19.2 12 21 10.5 21C9 21 9 19.2 7.5 19.2C6.8 19.2 5.8 20.7 5.2 20.4C4.7 20.1 5.4 18.4 5.1 17.9C4.9 17.3 3 17.2 3 16.5C3 15 4.8 15 4.8 13.5C4.8 12 3 12 3 10.5C3 9 4.8 9 4.8 7.5C4.8 6.8 3.3 5.8 3.6 5.2C3.9 4.7 5.6 5.4 6.1 5.1C6.7 4.9 6.8 3 7.5 3C9 3 9 4.8 10.5 4.8C12 4.8 12 3 13.5 3C15 3 15 4.8 16.5 4.8C17.2 4.8 18.2 3.3 18.8 3.6C19.3 3.9 18.6 5.6 18.9 6.1C19.1 6.7 21 6.8 21 7.5C21 9 19.2 9 19.2 10.5C19.2 12 21 12 21 13.5C21 15 19.2 15 19.2 16.5C19.2 17.2 20.7 18.2 20.4 18.8C20.1 19.3 18.4 18.6 17.9 18.9C17.3 19.1 17.2 21 16.5 21Z" stroke="#E7E8EA" stroke-width="2" stroke-miterlimit="10" stroke-linecap="round" stroke-linejoin="round"/>
<path d="M9 10H12" stroke="#E7E8EA" stroke-width="2" stroke-miterlimit="10" stroke-linecap="round" stroke-linejoin="round"/>
<path d="M9 13H15" stroke="#E7E8EA" stroke-width="2" stroke-miterlimit="10" stroke-linecap="round" stroke-linejoin="round"/>
</svg>
