<svg width="24" height="24" viewBox="0 0 24 24" fill="none" xmlns="http://www.w3.org/2000/svg">
<path d="M19 21V5C19 3.9 18.1 3 17 3H7C5.9 3 5 3.9 5 5V21C5 19.9 6.1 19 7.3 19C8.6 19 9.6 19.9 9.6 21C9.6 19.9 10.7 19 11.9 19C13.2 19 14.2 19.9 14.2 21C14.2 19.9 15.2 19 16.5 19C18 19 19 19.9 19 21Z" stroke="#E7E8EA" stroke-width="2" stroke-miterlimit="10" stroke-linecap="round" stroke-linejoin="round"/>
<path d="M9.8999 12.1L14.0999 7.90002" stroke="#E7E8EA" stroke-width="2" stroke-miterlimit="10" stroke-linecap="round" stroke-linejoin="round"/>
<path d="M14.0999 12.1L9.8999 7.90002" stroke="#E7E8EA" stroke-width="2" stroke-miterlimit="10" stroke-linecap="round" stroke-linejoin="round"/>
</svg>
