<svg width="24" height="24" viewBox="0 0 24 24" fill="none" xmlns="http://www.w3.org/2000/svg">
<path d="M21 7V17C21 18.1 20.1 19 19 19H13V5H19C20.1 5 21 5.9 21 7Z" stroke="#E7E8EA" stroke-width="2" stroke-linecap="round" stroke-linejoin="round"/>
<path d="M13 5.09997V18.9C13 20.2 11.8 21.2 10.6 21L3.8 19.6C3.3 19.4 3 19 3 18.5V5.49997C3 4.99997 3.3 4.59997 3.8 4.49997L10.6 2.99997C11.8 2.79997 13 3.79997 13 5.09997Z" stroke="#E7E8EA" stroke-width="2" stroke-linecap="round" stroke-linejoin="round"/>
<path d="M8 15C8.82843 15 9.5 13.6569 9.5 12C9.5 10.3431 8.82843 9 8 9C7.17157 9 6.5 10.3431 6.5 12C6.5 13.6569 7.17157 15 8 15Z" stroke="#E7E8EA" stroke-width="2" stroke-linecap="round" stroke-linejoin="round"/>
<path d="M13 14H21" stroke="#E7E8EA" stroke-width="2" stroke-linecap="round" stroke-linejoin="round"/>
<path d="M13 10H21" stroke="#E7E8EA" stroke-width="2" stroke-linecap="round" stroke-linejoin="round"/>
</svg>
