<svg width="24" height="24" viewBox="0 0 24 24" fill="none" xmlns="http://www.w3.org/2000/svg">
<path d="M18 18H6C4.9 18 4 17.1 4 16V6C4 4.9 4.9 4 6 4H18C19.1 4 20 4.9 20 6V16C20 17.1 19.1 18 18 18Z" stroke="#E7E8EA" stroke-width="2" stroke-linecap="round" stroke-linejoin="round"/>
<path d="M8 20V18" stroke="#E7E8EA" stroke-width="2" stroke-linecap="round" stroke-linejoin="round"/>
<path d="M16 20V18" stroke="#E7E8EA" stroke-width="2" stroke-linecap="round" stroke-linejoin="round"/>
<path d="M15.5 11.5C15.8 11.5 16 11.3 16 11C16 10.7 15.8 10.5 15.5 10.5C15.2 10.5 15 10.7 15 11C15 11.3 15.2 11.5 15.5 11.5Z" fill="#E7E8EA" stroke="#E7E8EA" stroke-width="2" stroke-linecap="round" stroke-linejoin="round"/>
</svg>
