<svg width="24" height="24" viewBox="0 0 24 24" fill="none" xmlns="http://www.w3.org/2000/svg">
<path d="M18 18H6C4.9 18 4 17.1 4 16V6C4 4.9 4.9 4 6 4H18C19.1 4 20 4.9 20 6V16C20 17.1 19.1 18 18 18Z" stroke="#E7E8EA" stroke-width="2" stroke-linecap="round" stroke-linejoin="round"/>
<path d="M8 20V18" stroke="#E7E8EA" stroke-width="2" stroke-linecap="round" stroke-linejoin="round"/>
<path d="M16 20V18" stroke="#E7E8EA" stroke-width="2" stroke-linecap="round" stroke-linejoin="round"/>
<path d="M10.5 13.5C11.8807 13.5 13 12.3807 13 11C13 9.61929 11.8807 8.5 10.5 8.5C9.11929 8.5 8 9.61929 8 11C8 12.3807 9.11929 13.5 10.5 13.5Z" stroke="#E7E8EA" stroke-width="2" stroke-linecap="round" stroke-linejoin="round"/>
<path d="M16 8.5V13.5" stroke="#E7E8EA" stroke-width="2" stroke-linecap="round" stroke-linejoin="round"/>
</svg>
