<svg width="24" height="24" viewBox="0 0 24 24" fill="none" xmlns="http://www.w3.org/2000/svg">
<path d="M12 16.5C12 16.6 12 16.7 12 16.8C11.9 19.1 9.9 21 7.5 21C5 21 3 19 3 16.5H6.6C6.6 15 7.8 13.8 9.3 13.8C10.7 13.8 11.8 14.9 12 16.2C12 16.3 12 16.4 12 16.5Z" stroke="#E7E8EA" stroke-width="2" stroke-miterlimit="10" stroke-linecap="round" stroke-linejoin="round"/>
<path d="M12 16.5C12 16.6 12 16.7 12 16.8C12.1 19.2 14.1 21 16.5 21C19 21 21 19 21 16.5H17.4C17.4 15 16.2 13.8 14.7 13.8C13.3 13.8 12.2 14.9 12 16.2C12 16.3 12 16.4 12 16.5Z" stroke="#E7E8EA" stroke-width="2" stroke-miterlimit="10" stroke-linecap="round" stroke-linejoin="round"/>
<path d="M6.5 10C8.433 10 10 8.433 10 6.5C10 4.567 8.433 3 6.5 3C4.567 3 3 4.567 3 6.5C3 8.433 4.567 10 6.5 10Z" stroke="#E7E8EA" stroke-width="2" stroke-miterlimit="10" stroke-linecap="round" stroke-linejoin="round"/>
<path d="M17.5 10C19.433 10 21 8.433 21 6.5C21 4.567 19.433 3 17.5 3C15.567 3 14 4.567 14 6.5C14 8.433 15.567 10 17.5 10Z" stroke="#E7E8EA" stroke-width="2" stroke-miterlimit="10" stroke-linecap="round" stroke-linejoin="round"/>
<path d="M10 7C10 5.9 10.9 5 12 5C13.1 5 14 5.9 14 7" stroke="#E7E8EA" stroke-width="2" stroke-miterlimit="10" stroke-linecap="round" stroke-linejoin="round"/>
</svg>
