<svg width="24" height="24" viewBox="0 0 24 24" fill="none" xmlns="http://www.w3.org/2000/svg">
<path d="M15 12C15 13.7 13.7 15 12 15C10.3 15 9 13.7 9 12C9 10.3 10.3 9 12 9C13.7 9 15 10.3 15 12ZM19.2 12C19.2 11 19.7 10 20.6 9.5L21 9.2L19 5.7L18.5 6C17.6 6.5 16.5 6.5 15.6 6C15.5 6 15.5 5.9 15.4 5.9C14.6 5.4 14 4.5 14 3.5V3H10V3.5C10 4.5 9.5 5.4 8.6 5.9C8.5 5.9 8.4 5.9 8.3 6C7.4 6.5 6.3 6.5 5.4 6L5 5.8L3 9.2L3.4 9.4C4.3 10 4.8 11 4.8 12C4.8 13 4.3 14 3.4 14.5L3 14.8L5 18.3L5.5 18C6.4 17.5 7.5 17.5 8.4 18C8.5 18 8.5 18.1 8.6 18.1C9.4 18.6 10 19.5 10 20.5V21H14V20.5C14 19.5 14.5 18.6 15.4 18.1C15.5 18.1 15.5 18 15.6 18C16.5 17.5 17.6 17.5 18.5 18L18.9 18.2L20.9 14.7L20.5 14.5C19.7 14 19.2 13 19.2 12Z" stroke="#E7E8EA" stroke-width="2" stroke-linecap="round" stroke-linejoin="round"/>
</svg>
