<svg width="24" height="24" viewBox="0 0 24 24" fill="none" xmlns="http://www.w3.org/2000/svg">
<path d="M19 11V3C19 4.7 17.4 6 15.5 6C13.6 6 12 4.7 12 3C12 4.5 10.7 5.8 9 6C8.8 6 8.7 6 8.5 6C8.3 6 8.2 6 8 6C6.3 5.8 5 4.5 5 3V11V12V12.3C5 14.1 5.8 15.7 7.1 16.9L8 17.6" stroke="#E7E8EA" stroke-width="2" stroke-linecap="round" stroke-linejoin="round"/>
<path d="M21 16C21 16.6 20.4 17.1 19.3 17.5C18.4 17.8 17.3 18 16 18C14.7 18 13.6 17.8 12.7 17.5C11.7 17.1 11 16.6 11 16C11 14.9 13.2 14 16 14C18.8 14 21 14.9 21 16Z" stroke="#E7E8EA" stroke-width="2" stroke-miterlimit="10" stroke-linecap="round" stroke-linejoin="round"/>
<path d="M21 16V19C21 19.6 20.3 20.1 19.3 20.5C18.4 20.8 17.3 21 16 21C14.7 21 13.6 20.8 12.7 20.5C11.7 20.1 11 19.6 11 19V16C11 16.6 11.7 17.1 12.7 17.5C13.6 17.8 14.7 18 16 18C17.3 18 18.4 17.8 19.3 17.5C20.4 17.1 21 16.6 21 16Z" stroke="#E7E8EA" stroke-width="2" stroke-miterlimit="10" stroke-linecap="round" stroke-linejoin="round"/>
</svg>
