<svg width="24" height="24" viewBox="0 0 24 24" fill="none" xmlns="http://www.w3.org/2000/svg">
<path d="M9.5001 5.99998L6.5001 8.99998L3.5001 5.99998C2.8001 5.29998 2.8001 4.19998 3.5001 3.49998C3.9001 3.19998 4.3001 2.99998 4.7001 2.99998C5.2001 2.99998 5.6001 3.19998 6.0001 3.49998L6.5001 3.99998L7.0001 3.49998C7.7001 2.79998 8.8001 2.79998 9.5001 3.49998C10.2001 4.19998 10.2001 5.29998 9.5001 5.99998Z" stroke="#E7E8EA" stroke-width="2" stroke-linecap="round" stroke-linejoin="round"/>
<path d="M9.1 21L19.7 10.2C21.4 8.5 21.4 5.7 19.7 4M3 14.8C4.7 16.5 7.4 16.5 9.1 14.8L15.9 7.8M9.1 14.8L12.1 17.9M12.9 11L15.9 14.1" stroke="#E7E8EA" stroke-width="2" stroke-linecap="round" stroke-linejoin="round"/>
</svg>
