<svg width="24" height="24" viewBox="0 0 24 24" fill="none" xmlns="http://www.w3.org/2000/svg">
<path d="M21 12C21 13.8 20.4 15.6 19.5 17C18.8 18 18 18.8 17 19.5C15.6 20.5 13.9 21 12 21C10.2 21 8.5 20.5 7 19.5C6 18.8 5.2 18 4.5 17C3.5 15.6 3 13.8 3 12C3 7 7 3 12 3C17 3 21 7 21 12Z" stroke="#E7E8EA" stroke-width="2" stroke-miterlimit="10" stroke-linecap="round" stroke-linejoin="round"/>
<path d="M9.5 9C9.77614 9 10 8.77614 10 8.5C10 8.22386 9.77614 8 9.5 8C9.22386 8 9 8.22386 9 8.5C9 8.77614 9.22386 9 9.5 9Z" fill="#E7E8EA" stroke="#E7E8EA" stroke-width="2" stroke-miterlimit="10" stroke-linecap="round" stroke-linejoin="round"/>
<path d="M14.5 9C14.7761 9 15 8.77614 15 8.5C15 8.22386 14.7761 8 14.5 8C14.2239 8 14 8.22386 14 8.5C14 8.77614 14.2239 9 14.5 9Z" fill="#E7E8EA" stroke="#E7E8EA" stroke-width="2" stroke-miterlimit="10" stroke-linecap="round" stroke-linejoin="round"/>
<path d="M8.08545 15.4676C8.20529 14.7922 8.46537 14.1559 8.85207 13.5878C9.16863 13.1228 9.66129 12.6678 10.2567 12.6453C10.6563 12.6302 11.1169 12.8124 11.2045 13.2413C11.2935 13.6777 11.1844 14.1742 11.0837 14.5986C11.0378 14.7921 10.9998 14.9885 10.9419 15.1789C10.9394 15.187 10.8442 15.5041 10.8474 15.3364C10.8668 14.3272 11.5981 13.0586 12.5592 12.6952C12.9335 12.5536 13.4943 12.5145 13.6776 12.9525C13.8457 13.3541 13.8132 13.9115 13.6829 14.3177C13.6223 14.5066 13.4466 15.0621 13.4466 14.8638C13.4466 14.3494 13.6981 13.8853 13.9769 13.4671C14.4654 12.7343 15.9672 11.705 16.2138 13.1573C16.2964 13.6436 16.1403 14.096 16.1403 14.575" stroke="#E7E8EA" stroke-width="2" stroke-linecap="round"/>
</svg>
