<svg width="24" height="24" viewBox="0 0 24 24" fill="none" xmlns="http://www.w3.org/2000/svg">
<path d="M21 12C21 13.8 20.4 15.6 19.5 17C18.8 18 18 18.8 17 19.5C15.6 20.5 13.9 21 12 21C10.2 21 8.5 20.5 7 19.5C6 18.8 5.2 18 4.5 17C3.5 15.6 3 13.8 3 12C3 7 7 3 12 3C17 3 21 7 21 12Z" stroke="#E7E8EA" stroke-width="2" stroke-miterlimit="10" stroke-linecap="round" stroke-linejoin="round"/>
<path d="M9.5 9C9.77614 9 10 8.77614 10 8.5C10 8.22386 9.77614 8 9.5 8C9.22386 8 9 8.22386 9 8.5C9 8.77614 9.22386 9 9.5 9Z" fill="#E7E8EA" stroke="#E7E8EA" stroke-width="2" stroke-miterlimit="10" stroke-linecap="round" stroke-linejoin="round"/>
<path d="M14.5 9C14.7761 9 15 8.77614 15 8.5C15 8.22386 14.7761 8 14.5 8C14.2239 8 14 8.22386 14 8.5C14 8.77614 14.2239 9 14.5 9Z" fill="#E7E8EA" stroke="#E7E8EA" stroke-width="2" stroke-miterlimit="10" stroke-linecap="round" stroke-linejoin="round"/>
<path d="M13 14.5C13 15.3247 12.8069 16.0222 12.546 16.4787C12.2689 16.9636 12.0386 17 12 17C11.9614 17 11.7311 16.9636 11.454 16.4787C11.1931 16.0222 11 15.3247 11 14.5C11 13.6753 11.1931 12.9778 11.454 12.5213C11.7311 12.0364 11.9614 12 12 12C12.0386 12 12.2689 12.0364 12.546 12.5213C12.8069 12.9778 13 13.6753 13 14.5Z" stroke="#E7E8EA" stroke-width="2"/>
</svg>
