<svg width="24" height="24" viewBox="0 0 24 24" fill="none" xmlns="http://www.w3.org/2000/svg">
<path d="M18 15C18 18.3 15.3 21 12 21C8.7 21 6 18.3 6 15C6 12.7 7.2 10.8 9.1 9.79999C9.8 10.5 10.9 11 12 11C13.1 11 14.2 10.5 14.9 9.79999C16.7 10.8 18 12.7 18 15Z" stroke="#E7E8EA" stroke-width="2" stroke-miterlimit="10" stroke-linecap="round" stroke-linejoin="round"/>
<path d="M16 7C16 8.1 15.6 9 14.9 9.8C14.2 10.5 13.1 11 12 11C10.9 11 9.8 10.5 9.1 9.8C8.4 9 8 8.1 8 7C8 4.8 9.8 3 12 3C14.2 3 16 4.8 16 7Z" stroke="#E7E8EA" stroke-width="2" stroke-miterlimit="10" stroke-linecap="round" stroke-linejoin="round"/>
<path d="M17.5 12.6L19 10.3V8" stroke="#E7E8EA" stroke-width="2" stroke-miterlimit="10" stroke-linecap="round" stroke-linejoin="round"/>
<path d="M19 10.3H21" stroke="#E7E8EA" stroke-width="2" stroke-miterlimit="10" stroke-linecap="round" stroke-linejoin="round"/>
<path d="M6.5 12.6L5 10.3V8" stroke="#E7E8EA" stroke-width="2" stroke-miterlimit="10" stroke-linecap="round" stroke-linejoin="round"/>
<path d="M5 10.3H3" stroke="#E7E8EA" stroke-width="2" stroke-miterlimit="10" stroke-linecap="round" stroke-linejoin="round"/>
</svg>
