<svg width="24" height="24" viewBox="0 0 24 24" fill="none" xmlns="http://www.w3.org/2000/svg">
<path d="M8.2 13.2C8.1 12.8 8 12.4 8 12C8 11.6 8.1 11.2 8.2 10.8M8.2 13.2L4.5 16.9C3.5 15.5 3 13.8 3 12C3 10.2 3.5 8.5 4.5 7.1L8.2 10.8M8.2 13.2L3 18.4L5.6 21L10.8 15.8M8.2 13.2C8.6 14.5 9.5 15.4 10.8 15.8M8.2 13.2C8.6 14.4 9.6 15.4 10.8 15.8M8.2 10.8L3 5.6L5.6 3L10.8 8.2M8.2 10.8C8.6 9.6 9.5 8.6 10.8 8.2M8.2 10.8C8.6 9.6 9.6 8.6 10.8 8.2M10.8 8.2L7.1 4.5C8.5 3.5 10.2 3 12 3C13.8 3 15.5 3.5 16.9 4.5M10.8 8.2C11.2 8.1 11.6 8 12 8C12.4 8 12.8 8.1 13.2 8.2M16.9 4.5L13.2 8.2M16.9 4.5L18.4 3L21 5.6L15.8 10.8M13.2 8.2C14.4 8.6 15.4 9.6 15.8 10.8M13.2 8.2C14.4 8.6 15.4 9.5 15.8 10.8M15.8 10.8L19.5 7.1C20.5 8.5 21 10.2 21 12C21 13.8 20.5 15.5 19.5 16.9L15.8 13.2M15.8 10.8C15.9 11.2 16 11.6 16 12C16 12.4 15.9 12.8 15.8 13.2M15.8 13.2C15.4 14.4 14.4 15.4 13.2 15.8M15.8 13.2C15.4 14.4 14.5 15.4 13.2 15.8M15.8 13.2L21 18.4L18.4 21L16.9 19.5M13.2 15.8L16.9 19.5M13.2 15.8C12.8 15.9 12.4 16 12 16C11.6 16 11.2 15.9 10.8 15.8M16.9 19.5C15.5 20.5 13.8 21 12 21C10.2 21 8.5 20.5 7.1 19.5L10.8 15.8" stroke="#E7E8EA" stroke-width="2" stroke-linecap="round" stroke-linejoin="round"/>
</svg>
