<svg width="24" height="24" viewBox="0 0 24 24" fill="none" xmlns="http://www.w3.org/2000/svg">
<path d="M20.9 11C20.4 6.5 16.6 3 12 3C11.3 3 10.6 3.1 10 3.2C9.7 3.3 9.3 3.4 9 3.5C5.8 4.6 3.4 7.5 3.1 11C3 11.3 3 11.6 3 12C3 15.9 5.5 19.3 9 20.5" stroke="#E7E8EA" stroke-width="2" stroke-linecap="round" stroke-linejoin="round"/>
<path d="M12 7V12" stroke="#E7E8EA" stroke-width="2" stroke-linecap="round" stroke-linejoin="round"/>
<path d="M7 12H12" stroke="#E7E8EA" stroke-width="2" stroke-linecap="round" stroke-linejoin="round"/>
<path d="M22 16C22 16.6 21.4 17.1 20.3 17.5C19.4 17.8 18.3 18 17 18C15.7 18 14.6 17.8 13.7 17.5C12.7 17.1 12 16.6 12 16C12 14.9 14.2 14 17 14C19.8 14 22 14.9 22 16Z" stroke="#E7E8EA" stroke-width="2" stroke-miterlimit="10" stroke-linecap="round" stroke-linejoin="round"/>
<path d="M22 16V19C22 19.6 21.3 20.1 20.3 20.5C19.4 20.8 18.3 21 17 21C15.7 21 14.6 20.8 13.7 20.5C12.7 20.1 12 19.6 12 19V16C12 16.6 12.7 17.1 13.7 17.5C14.6 17.8 15.8 18 17 18C18.3 18 19.4 17.8 20.3 17.5C21.3 17.1 22 16.6 22 16Z" stroke="#E7E8EA" stroke-width="2" stroke-miterlimit="10" stroke-linecap="round" stroke-linejoin="round"/>
</svg>
