<svg width="24" height="24" viewBox="0 0 24 24" fill="none" xmlns="http://www.w3.org/2000/svg">
<path d="M20 10.5C20 13.5 18.2 16.1 15.6 17.3C14.6 17.8 13.6 18 12.5 18C11.4 18 10.3 17.8 9.4 17.3C8.6 16.9 7.9 16.4 7.2 15.8C5.8 14.4 5 12.6 5 10.5C5 9.2 5.3 8.1 5.9 7C7.1 4.6 9.7 3 12.5 3C12.8 3 13.2 3 13.5 3.1C16.5 3.5 19 5.7 19.7 8.6C19.9 9.2 20 9.8 20 10.5Z" stroke="#E7E8EA" stroke-width="2" stroke-miterlimit="10" stroke-linecap="round" stroke-linejoin="round"/>
<path d="M16.1 17.1L17.5 21H7.5L8.9 17.1" stroke="#E7E8EA" stroke-width="2" stroke-miterlimit="10" stroke-linecap="round" stroke-linejoin="round"/>
<path d="M5 11C5 10.8 5 10.6 5 10.5C5 10.4 5 10.1 5 9.99995C5.3 7.29995 7.6 5.19995 10.3 5.19995C13.2 5.19995 15.5 7.39995 15.6 10.2C15.6 10.3 15.6 10.4 15.6 10.5C15.6 10.6 15.6 10.7 15.6 10.8" stroke="#E7E8EA" stroke-width="2" stroke-miterlimit="10" stroke-linecap="round" stroke-linejoin="round"/>
<path d="M9.30005 10.5C9.30005 12.3 10.7 13.7 12.5 13.7C14.3 13.7 15.7 12.3 15.7 10.5" stroke="#E7E8EA" stroke-width="2" stroke-miterlimit="10" stroke-linecap="round" stroke-linejoin="round"/>
</svg>
