<svg width="24" height="24" viewBox="0 0 24 24" fill="none" xmlns="http://www.w3.org/2000/svg">
<path d="M12.5 18V14" stroke="#E7E8EA" stroke-width="2" stroke-miterlimit="10" stroke-linecap="round" stroke-linejoin="round"/>
<path d="M10 14H15L12.5 7L10 14Z" stroke="#E7E8EA" stroke-width="2" stroke-miterlimit="10" stroke-linecap="round" stroke-linejoin="round"/>
<path d="M20 10.5C20 13.5 18.2 16.1 15.6 17.3C14.6 17.8 13.6 18 12.5 18C11.4 18 10.3 17.8 9.4 17.3C8.6 16.9 7.9 16.4 7.2 15.8C5.8 14.4 5 12.6 5 10.5C5 9.2 5.3 8.1 5.9 7C7.1 4.6 9.7 3 12.5 3C12.8 3 13.2 3 13.5 3.1C16.5 3.5 19 5.7 19.7 8.6C19.9 9.2 20 9.8 20 10.5Z" stroke="#E7E8EA" stroke-width="2" stroke-miterlimit="10" stroke-linecap="round" stroke-linejoin="round"/>
<path d="M16.1 17.1L17.5 21H7.5L8.9 17.1" stroke="#E7E8EA" stroke-width="2" stroke-miterlimit="10" stroke-linecap="round" stroke-linejoin="round"/>
</svg>
