<svg width="24" height="24" viewBox="0 0 24 24" fill="none" xmlns="http://www.w3.org/2000/svg">
<path d="M5 10.5C5 13.5 6.8 16.1 9.4 17.3C10.4 17.8 11.4 18 12.5 18C13.6 18 14.7 17.8 15.6 17.3C16.4 16.9 17.1 16.4 17.8 15.8C19.2 14.4 20 12.6 20 10.5C20 9.2 19.7 8.1 19.1 7C17.9 4.6 15.3 3 12.5 3C12.2 3 11.8 3 11.5 3.1C8.5 3.5 6 5.7 5.3 8.6C5.1 9.2 5 9.8 5 10.5Z" stroke="#E7E8EA" stroke-width="2" stroke-miterlimit="10" stroke-linecap="round" stroke-linejoin="round"/>
<path d="M8.9 17.1L7.5 21H17.5L16.1 17.1" stroke="#E7E8EA" stroke-width="2" stroke-miterlimit="10" stroke-linecap="round" stroke-linejoin="round"/>
<path d="M20 11C20 10.8 20 10.6 20 10.5C20 10.4 20 10.1 20 10C19.7 7.3 17.4 5.2 14.7 5.2C11.8 5.2 9.5 7.4 9.4 10.2C9.4 10.3 9.4 10.4 9.4 10.5C9.4 10.6 9.4 10.7 9.4 10.8" stroke="#E7E8EA" stroke-width="2" stroke-miterlimit="10" stroke-linecap="round" stroke-linejoin="round"/>
<path d="M15.7 10.5C15.7 12.3 14.3 13.7 12.5 13.7C10.7 13.7 9.29995 12.3 9.29995 10.5" stroke="#E7E8EA" stroke-width="2" stroke-miterlimit="10" stroke-linecap="round" stroke-linejoin="round"/>
</svg>
