<svg width="24" height="24" viewBox="0 0 24 24" fill="none" xmlns="http://www.w3.org/2000/svg">
<path d="M10.2 7C11.3045 7 12.2 6.10457 12.2 5C12.2 3.89543 11.3045 3 10.2 3C9.09538 3 8.19995 3.89543 8.19995 5C8.19995 6.10457 9.09538 7 10.2 7Z" stroke="#E7E8EA" stroke-width="2" stroke-miterlimit="10" stroke-linecap="round" stroke-linejoin="round"/>
<path d="M14.2 7C15.3045 7 16.2 6.10457 16.2 5C16.2 3.89543 15.3045 3 14.2 3C13.0954 3 12.2 3.89543 12.2 5C12.2 6.10457 13.0954 7 14.2 7Z" stroke="#E7E8EA" stroke-width="2" stroke-miterlimit="10" stroke-linecap="round" stroke-linejoin="round"/>
<path d="M7.7001 20L12.2001 19L16.7001 20C18.8001 20.5 20.7001 18.6 20.3001 16.5L19.4001 11.6C19.2001 10.6 18.4001 10 17.4001 10H6.9001C5.9001 10 5.1001 10.7 4.9001 11.6L4.0001 16.5C3.7001 18.7 5.6001 20.5 7.7001 20Z" stroke="#E7E8EA" stroke-width="2" stroke-miterlimit="10" stroke-linecap="round" stroke-linejoin="round"/>
<path d="M6.19995 7H18.2" stroke="#E7E8EA" stroke-width="2" stroke-miterlimit="10" stroke-linecap="round" stroke-linejoin="round"/>
</svg>
