<svg width="24" height="24" viewBox="0 0 24 24" fill="none" xmlns="http://www.w3.org/2000/svg">
<path d="M18 7H6C4.3 7 3 8.3 3 10V18C3 19.7 4.3 21 6 21H18C19.7 21 21 19.7 21 18V10C21 8.3 19.7 7 18 7Z" stroke="#E7E8EA" stroke-width="2" stroke-miterlimit="10" stroke-linecap="round" stroke-linejoin="round"/>
<path d="M7.6001 7L11.0001 3.6C11.8001 2.8 13.1001 2.8 13.8001 3.6L17.2001 7" stroke="#E7E8EA" stroke-width="2" stroke-miterlimit="10" stroke-linecap="round" stroke-linejoin="round"/>
<path d="M16.5 14.5C16.7761 14.5 17 14.2761 17 14C17 13.7239 16.7761 13.5 16.5 13.5C16.2239 13.5 16 13.7239 16 14C16 14.2761 16.2239 14.5 16.5 14.5Z" fill="#E7E8EA" stroke="#E7E8EA" stroke-width="2" stroke-miterlimit="10" stroke-linecap="round" stroke-linejoin="round"/>
</svg>
