<svg width="24" height="24" viewBox="0 0 24 24" fill="none" xmlns="http://www.w3.org/2000/svg">
<path d="M10 7C11.1046 7 12 6.10457 12 5C12 3.89543 11.1046 3 10 3C8.89543 3 8 3.89543 8 5C8 6.10457 8.89543 7 10 7Z" stroke="#E7E8EA" stroke-width="2" stroke-miterlimit="10" stroke-linecap="round" stroke-linejoin="round"/>
<path d="M14 7C15.1046 7 16 6.10457 16 5C16 3.89543 15.1046 3 14 3C12.8954 3 12 3.89543 12 5C12 6.10457 12.8954 7 14 7Z" stroke="#E7E8EA" stroke-width="2" stroke-miterlimit="10" stroke-linecap="round" stroke-linejoin="round"/>
<path d="M3 10.7C8 5.69995 16 5.69995 21 10.7" stroke="#E7E8EA" stroke-width="2" stroke-miterlimit="10" stroke-linecap="round" stroke-linejoin="round"/>
<path d="M12 10C7 10 3 14 3 19V21H20.9V19C20.9 14 16.9 10 12 10Z" stroke="#E7E8EA" stroke-width="2" stroke-miterlimit="10" stroke-linecap="round" stroke-linejoin="round"/>
</svg>
