<svg width="24" height="24" viewBox="0 0 24 24" fill="none" xmlns="http://www.w3.org/2000/svg">
<path d="M18 7H6C4.3 7 3 8.3 3 10V18C3 19.7 4.3 21 6 21H18C19.7 21 21 19.7 21 18V10C21 8.3 19.7 7 18 7Z" stroke="#E7E8EA" stroke-width="2" stroke-miterlimit="10" stroke-linecap="round" stroke-linejoin="round"/>
<path d="M7.6001 7L11.0001 3.6C11.8001 2.8 13.1001 2.8 13.8001 3.6L17.2001 7" stroke="#E7E8EA" stroke-width="2" stroke-miterlimit="10" stroke-linecap="round" stroke-linejoin="round"/>
<path d="M21 16H17C15.9 16 15 15.1 15 14C15 12.9 15.9 12 17 12H21V16Z" stroke="#E7E8EA" stroke-width="2" stroke-miterlimit="10" stroke-linecap="round" stroke-linejoin="round"/>
</svg>
