<svg width="24" height="24" viewBox="0 0 24 24" fill="none" xmlns="http://www.w3.org/2000/svg">
<path d="M19 7H5C3.9 7 3 7.9 3 9V19C3 20.1 3.9 21 5 21H19C20.1 21 21 20.1 21 19V9C21 7.9 20.1 7 19 7Z" stroke="#E7E8EA" stroke-width="2" stroke-miterlimit="10" stroke-linecap="round" stroke-linejoin="round"/>
<path d="M3 12V8.5C3 7.6 3.6 6.8 4.4 6.6L16 3V7" stroke="#E7E8EA" stroke-width="2" stroke-miterlimit="10" stroke-linecap="round" stroke-linejoin="round"/>
<path d="M16.5 14.5C16.8 14.5 17 14.3 17 14C17 13.7 16.8 13.5 16.5 13.5C16.2 13.5 16 13.7 16 14C16 14.3 16.2 14.5 16.5 14.5Z" fill="#E7E8EA" stroke="#E7E8EA" stroke-width="2" stroke-miterlimit="10" stroke-linecap="round" stroke-linejoin="round"/>
</svg>
