<svg width="24" height="24" viewBox="0 0 24 24" fill="none" xmlns="http://www.w3.org/2000/svg">
<path d="M21 9V19C21 20.1 20.1 21 19 21H5C5.2 21 5.4 21 5.6 20.9L13.6 18C14.4 17.7 15 16.9 15 15.9V7H19C20.1 7 21 7.9 21 9Z" stroke="#E7E8EA" stroke-width="2" stroke-miterlimit="10" stroke-linecap="round" stroke-linejoin="round"/>
<path d="M15 5.20001V15.9C15 16.8 14.5 17.7 13.6 18L5.6 20.9C5.4 21 5.2 21 5 21C4.8 21 4.6 21 4.4 20.9C3.6 20.6 3 19.8 3 18.8V8.10001C3 7.20001 3.5 6.30001 4.4 6.00001L12.4 3.10001C13.7 2.60001 15 3.70001 15 5.20001Z" stroke="#E7E8EA" stroke-width="2" stroke-miterlimit="10" stroke-linecap="round" stroke-linejoin="round"/>
<path d="M11.5 11C11.8 11 12 10.8 12 10.5C12 10.2 11.8 10 11.5 10C11.2 10 11 10.2 11 10.5C11 10.8 11.2 11 11.5 11Z" fill="#E7E8EA" stroke="#E7E8EA" stroke-width="2" stroke-miterlimit="10" stroke-linecap="round" stroke-linejoin="round"/>
</svg>
