<svg width="24" height="24" viewBox="0 0 24 24" fill="none" xmlns="http://www.w3.org/2000/svg">
<path d="M21 7H3V19C3 20.1 3.9 21 5 21H19C20.1 21 21 20.1 21 19V7Z" stroke="#E7E8EA" stroke-width="2" stroke-miterlimit="10" stroke-linecap="round" stroke-linejoin="round"/>
<path d="M16.5 14.5C16.8 14.5 17 14.3 17 14C17 13.7 16.8 13.5 16.5 13.5C16.2 13.5 16 13.7 16 14C16 14.3 16.2 14.5 16.5 14.5Z" fill="#E7E8EA" stroke="#E7E8EA" stroke-width="2" stroke-miterlimit="10" stroke-linecap="round" stroke-linejoin="round"/>
<path d="M21 3H5C3.9 3 3 3.9 3 5C3 6.1 3.9 7 5 7" stroke="#E7E8EA" stroke-width="2" stroke-miterlimit="10" stroke-linecap="round" stroke-linejoin="round"/>
<path d="M21 3C19.9 3 19 3.9 19 5C19 6.1 19.9 7 21 7" stroke="#E7E8EA" stroke-width="2" stroke-miterlimit="10" stroke-linecap="round" stroke-linejoin="round"/>
<path d="M3 5V7" stroke="#E7E8EA" stroke-width="2" stroke-miterlimit="10" stroke-linecap="round" stroke-linejoin="round"/>
</svg>
