<svg width="24" height="24" viewBox="0 0 24 24" fill="none" xmlns="http://www.w3.org/2000/svg">
<path d="M21 16V15C21 12.8 19.2 11 17 11C16 11 15.1 11.6 14.6 12.5C14.1 13.4 13.1 14 12 14C10.9 14 9.9 13.4 9.4 12.5C8.9 11.6 8 11 7 11C4.8 11 3 12.8 3 15V16M21 7V17C21 19.2 19.2 21 17 21H7C4.8 21 3 19.2 3 17V7C3 4.8 4.8 3 7 3H17C19.2 3 21 4.8 21 7ZM17 7H7C4.8 7 3 8.8 3 11V17C3 19.2 4.8 21 7 21H17C19.2 21 21 19.2 21 17V11C21 8.8 19.2 7 17 7Z" stroke="#E7E8EA" stroke-width="2" stroke-linecap="round" stroke-linejoin="round"/>
</svg>
