<svg width="24" height="24" viewBox="0 0 24 24" fill="none" xmlns="http://www.w3.org/2000/svg">
<path d="M21 15V5C21 3.9 20.1 3 19 3H5C5.2 3 5.4 3 5.6 3.1L13.6 6C14.4 6.3 15 7.1 15 8.1V17H19C20.1 17 21 16.1 21 15Z" stroke="#E7E8EA" stroke-width="2" stroke-miterlimit="10" stroke-linecap="round" stroke-linejoin="round"/>
<path d="M15 18.8V8.09999C15 7.19999 14.5 6.29999 13.6 5.99999L5.6 3.09999C5.4 2.99999 5.2 2.99999 5 2.99999C4.8 2.99999 4.6 2.99999 4.4 3.09999C3.6 3.39999 3 4.2 3 5.2V15.9C3 16.8 3.5 17.7 4.4 18L12.4 20.9C13.7 21.4 15 20.3 15 18.8Z" stroke="#E7E8EA" stroke-width="2" stroke-miterlimit="10" stroke-linecap="round" stroke-linejoin="round"/>
<path d="M11.5 13C11.8 13 12 13.2 12 13.5C12 13.8 11.8 14 11.5 14C11.2 14 11 13.8 11 13.5C11 13.2 11.2 13 11.5 13Z" fill="#E7E8EA" stroke="#E7E8EA" stroke-width="2" stroke-miterlimit="10" stroke-linecap="round" stroke-linejoin="round"/>
</svg>
