<svg width="24" height="24" viewBox="0 0 24 24" fill="none" xmlns="http://www.w3.org/2000/svg">
<path d="M19 7H5C3.9 7 3 7.9 3 9V19C3 20.1 3.9 21 5 21H19C20.1 21 21 20.1 21 19V9C21 7.9 20.1 7 19 7Z" stroke="#E7E8EA" stroke-width="2" stroke-miterlimit="10" stroke-linecap="round" stroke-linejoin="round"/>
<path d="M18.9999 7L15.5999 3.6C14.8999 2.8 13.5999 2.8 12.7999 3.6L11.9999 4.4L9.3999 7" stroke="#E7E8EA" stroke-width="2" stroke-miterlimit="10" stroke-linecap="round" stroke-linejoin="round"/>
<path d="M5 7L8.4 3.6C9.2 2.8 10.5 2.8 11.2 3.6L12 4.4" stroke="#E7E8EA" stroke-width="2" stroke-miterlimit="10" stroke-linecap="round" stroke-linejoin="round"/>
<path d="M16.5 14.5C16.8 14.5 17 14.3 17 14C17 13.7 16.8 13.5 16.5 13.5C16.2 13.5 16 13.7 16 14C16 14.3 16.2 14.5 16.5 14.5Z" fill="#E7E8EA" stroke="#E7E8EA" stroke-width="2" stroke-miterlimit="10" stroke-linecap="round" stroke-linejoin="round"/>
</svg>
