<svg width="24" height="24" viewBox="0 0 24 24" fill="none" xmlns="http://www.w3.org/2000/svg">
<path d="M20 15.5V8.5C20 7.8 19.6 7.1 19 6.8L13 3.3C12.4 2.9 11.6 2.9 11 3.3L5 6.8C4.4 7.2 4 7.8 4 8.5V15.5C4 16.2 4.4 16.9 5 17.2L11 20.7C11.6 21.1 12.4 21.1 13 20.7L19 17.2C19.6 16.9 20 16.2 20 15.5Z" stroke="#E7E8EA" stroke-width="2" stroke-linecap="round" stroke-linejoin="round"/>
<path d="M12 13V8" stroke="#E7E8EA" stroke-width="2" stroke-linecap="round" stroke-linejoin="round"/>
<path d="M12 15C11.4 15 11 15.4 11 16C11 16.6 11.4 17 12 17C12.6 17 13 16.6 13 16C13 15.4 12.6 15 12 15Z" fill="#E7E8EA"/>
</svg>
