<svg width="24" height="24" viewBox="0 0 24 24" fill="none" xmlns="http://www.w3.org/2000/svg">
<path d="M12 21C16.9706 21 21 16.9706 21 12C21 7.02944 16.9706 3 12 3C7.02944 3 3 7.02944 3 12C3 16.9706 7.02944 21 12 21Z" stroke="#E7E8EA" stroke-width="2" stroke-miterlimit="10" stroke-linecap="round" stroke-linejoin="round"/>
<path d="M9.87913 14.1213C13.3939 17.636 17.1928 19.5355 18.3644 18.364C19.536 17.1924 17.6365 13.3934 14.1218 9.87869C10.6071 6.36397 6.80807 4.46447 5.63649 5.63605C4.46492 6.80762 6.36441 10.6066 9.87913 14.1213Z" stroke="#E7E8EA" stroke-width="2" stroke-linecap="round" stroke-linejoin="round"/>
<path d="M14.1212 14.1213C17.636 10.6066 19.5355 6.8076 18.3639 5.63603C17.1923 4.46445 13.3933 6.36395 9.87861 9.87867C6.36389 13.3934 4.4644 17.1924 5.63597 18.3639C6.80754 19.5355 10.6065 17.636 14.1212 14.1213Z" stroke="#E7E8EA" stroke-width="2" stroke-linecap="round" stroke-linejoin="round"/>
</svg>
