<svg width="24" height="24" viewBox="0 0 24 24" fill="none" xmlns="http://www.w3.org/2000/svg">
<path d="M21 12C21 13.8 20.4 15.6 19.5 17C18.8 18 18 18.8 17 19.5C15.6 20.5 13.9 21 12 21C10.2 21 8.5 20.5 7 19.5C6 18.8 5.2 18 4.5 17C3.5 15.6 3 13.8 3 12C3 7 7 3 12 3C17 3 21 7 21 12Z" stroke="#E7E8EA" stroke-width="2" stroke-miterlimit="10" stroke-linecap="round" stroke-linejoin="round"/>
<path d="M11 14.5C11 13.6753 11.1931 12.9778 11.454 12.5213C11.7311 12.0364 11.9614 12 12 12C12.0386 12 12.2689 12.0364 12.546 12.5213C12.8069 12.9778 13 13.6753 13 14.5C13 15.3247 12.8069 16.0222 12.546 16.4787C12.2689 16.9636 12.0386 17 12 17C11.9614 17 11.7311 16.9636 11.454 16.4787C11.1931 16.0222 11 15.3247 11 14.5Z" stroke="#E7E8EA" stroke-width="2"/>
<mask id="path-3-inside-1_106_17906" fill="white">
<ellipse cx="9.49984" cy="8.5" rx="1.49789" ry="2.5"/>
</mask>
<path d="M8.99773 8.5C8.99773 8.89069 8.89871 9.1475 8.84339 9.23984C8.81792 9.28235 8.83382 9.23716 8.92947 9.16964C9.03627 9.09425 9.23482 9 9.49984 9L9.49984 13C10.8934 13 11.8119 12.0679 12.2746 11.2957C12.7614 10.4832 12.9977 9.49002 12.9977 8.5H8.99773ZM9.49984 9C9.76487 9 9.96342 9.09425 10.0702 9.16964C10.1659 9.23716 10.1818 9.28235 10.1563 9.23984C10.101 9.1475 10.002 8.89069 10.002 8.5H6.00195C6.00195 9.49002 6.23825 10.4832 6.72505 11.2957C7.18774 12.0679 8.1063 13 9.49984 13L9.49984 9ZM10.002 8.5C10.002 8.10931 10.101 7.8525 10.1563 7.76016C10.1818 7.71765 10.1659 7.76284 10.0702 7.83036C9.96342 7.90575 9.76487 8 9.49984 8V4C8.1063 4 7.18774 4.93207 6.72505 5.70431C6.23825 6.51679 6.00195 7.50998 6.00195 8.5H10.002ZM9.49984 8C9.23482 8 9.03627 7.90575 8.92947 7.83036C8.83382 7.76284 8.81792 7.71765 8.84339 7.76016C8.89871 7.8525 8.99773 8.10931 8.99773 8.5H12.9977C12.9977 7.50998 12.7614 6.51679 12.2746 5.70431C11.8119 4.93207 10.8934 4 9.49984 4V8Z" fill="#E7E8EA" mask="url(#path-3-inside-1_106_17906)"/>
<mask id="path-5-inside-2_106_17906" fill="white">
<ellipse cx="14.4998" cy="8.5" rx="1.49789" ry="2.5"/>
</mask>
<path d="M13.9977 8.5C13.9977 8.89069 13.8987 9.1475 13.8434 9.23984C13.8179 9.28235 13.8338 9.23716 13.9295 9.16964C14.0363 9.09425 14.2348 9 14.4998 9L14.4998 13C15.8934 13 16.8119 12.0679 17.2746 11.2957C17.7614 10.4832 17.9977 9.49002 17.9977 8.5H13.9977ZM14.4998 9C14.7649 9 14.9634 9.09425 15.0702 9.16964C15.1659 9.23716 15.1818 9.28235 15.1563 9.23984C15.101 9.1475 15.002 8.89069 15.002 8.5H11.002C11.002 9.49002 11.2382 10.4832 11.7251 11.2957C12.1877 12.0679 13.1063 13 14.4998 13L14.4998 9ZM15.002 8.5C15.002 8.10931 15.101 7.8525 15.1563 7.76016C15.1818 7.71765 15.1659 7.76284 15.0702 7.83036C14.9634 7.90575 14.7649 8 14.4998 8V4C13.1063 4 12.1877 4.93207 11.7251 5.70431C11.2382 6.51679 11.002 7.50998 11.002 8.5H15.002ZM14.4998 8C14.2348 8 14.0363 7.90575 13.9295 7.83036C13.8338 7.76284 13.8179 7.71765 13.8434 7.76016C13.8987 7.8525 13.9977 8.10931 13.9977 8.5H17.9977C17.9977 7.50998 17.7614 6.51679 17.2746 5.70431C16.8119 4.93207 15.8934 4 14.4998 4V8Z" fill="#E7E8EA" mask="url(#path-5-inside-2_106_17906)"/>
</svg>
