<svg width="24" height="24" viewBox="0 0 24 24" fill="none" xmlns="http://www.w3.org/2000/svg">
<path d="M19 14.7C18.7 14.6 18.3 14.5 18 14.5C16.3 14.5 15 15.8 15 17.5" stroke="#E7E8EA" stroke-width="2" stroke-linecap="round" stroke-linejoin="round"/>
<path d="M15 17.5C15 15.8 13.7 14.5 12 14.5C10.3 14.5 9 15.8 9 17.5" stroke="#E7E8EA" stroke-width="2" stroke-linecap="round" stroke-linejoin="round"/>
<path d="M9 17.5C9 15.8 7.7 14.5 6 14.5C5.6 14.5 5.3 14.6 5 14.7" stroke="#E7E8EA" stroke-width="2" stroke-linecap="round" stroke-linejoin="round"/>
<path d="M7 21H17C18.1 21 19 20.1 19 19V13C19 11.9 18.1 11 17 11H7C5.9 11 5 11.9 5 13V19C5 20.1 5.9 21 7 21Z" stroke="#E7E8EA" stroke-width="2" stroke-linecap="round" stroke-linejoin="round"/>
<path d="M21 7L3 3" stroke="#E7E8EA" stroke-width="2" stroke-linecap="round" stroke-linejoin="round"/>
<path d="M12 5V11" stroke="#E7E8EA" stroke-width="2" stroke-linecap="round" stroke-linejoin="round"/>
</svg>
