<svg width="24" height="24" viewBox="0 0 24 24" fill="none" xmlns="http://www.w3.org/2000/svg">
<path d="M5 14.7C5.3 14.6 5.7 14.5 6 14.5C7.7 14.5 9 15.8 9 17.5" stroke="#E7E8EA" stroke-width="2" stroke-linecap="round" stroke-linejoin="round"/>
<path d="M9 17.5C9 15.8 10.3 14.5 12 14.5C13.7 14.5 15 15.8 15 17.5" stroke="#E7E8EA" stroke-width="2" stroke-linecap="round" stroke-linejoin="round"/>
<path d="M15 17.5C15 15.8 16.3 14.5 18 14.5C18.4 14.5 18.7 14.6 19 14.7" stroke="#E7E8EA" stroke-width="2" stroke-linecap="round" stroke-linejoin="round"/>
<path d="M17 21H7C5.9 21 5 20.1 5 19V13C5 11.9 5.9 11 7 11H17C18.1 11 19 11.9 19 13V19C19 20.1 18.1 21 17 21Z" stroke="#E7E8EA" stroke-width="2" stroke-linecap="round" stroke-linejoin="round"/>
<path d="M3 7L21 3" stroke="#E7E8EA" stroke-width="2" stroke-linecap="round" stroke-linejoin="round"/>
<path d="M12 5V11" stroke="#E7E8EA" stroke-width="2" stroke-linecap="round" stroke-linejoin="round"/>
</svg>
