<?xml version="1.0" encoding="utf-8"?>
<!-- Generator: Adobe Illustrator 22.0.1, SVG Export Plug-In . SVG Version: 6.00 Build 0)  -->
<svg version="1.1" id="Layer_1" xmlns="http://www.w3.org/2000/svg" xmlns:xlink="http://www.w3.org/1999/xlink" x="0px" y="0px"
	 viewBox="0 0 300 300" style="enable-background:new 0 0 300 300;" xml:space="preserve">
<style type="text/css">
	.st0{fill:#EDC1A4;}
	.st1{fill:#E2E0E0;}
	.st2{fill:#D39E81;}
	.st3{fill:#502E26;}
	.st4{fill:#CCCACA;}
	.st5{fill:#426800;}
	.st6{fill:#538705;}
	.st7{fill:#D47E44;}
	.st8{fill:#73341D;}
	.st9{fill:#BC672E;}
	.st10{fill:#96311D;}
	.st11{fill:#B83E21;}
	.st12{fill:#DE8D82;}
	.st13{fill:#EFBAB4;}
	.st14{fill:#FDD5D0;}
	.st15{fill:#6883CE;}
	.st16{fill:#3D4885;}
	.st17{fill:#3859AE;}
	.st18{fill:#864424;}
	.st19{fill:#FEFEFE;}
	.st20{fill:#FFFFFF;}
	.st21{fill:#A55925;}
	.st22{fill:#F4F2F2;}
	.st23{fill:#3C3E68;}
	.st24{fill:#E8997C;}
	.st25{fill:#F5C46B;}
	.st26{fill:#F7EBDA;}
	.st27{fill:#0E0C0D;}
	.st28{fill:#657C3A;}
	.st29{fill:#576C37;}
	.st30{fill:#7C995D;}
	.st31{fill:#36518C;}
	.st32{fill:#96B7E3;}
	.st33{fill:#A3B3DF;}
	.st34{fill:url(#SVGID_1_);}
	.st35{fill:url(#SVGID_2_);}
	.st36{fill:url(#SVGID_3_);}
	.st37{fill:url(#SVGID_4_);}
	.st38{fill:url(#SVGID_5_);}
	.st39{fill:#266AB7;}
	.st40{fill:#060E0D;}
	.st41{fill:#E0D4C6;}
	.st42{fill:#787E42;}
	.st43{fill:#D3D1D1;}
	.st44{fill:url(#SVGID_6_);}
	.st45{fill:url(#SVGID_7_);}
	.st46{fill:url(#SVGID_8_);}
	.st47{fill:#020508;}
	.st48{fill:#BAB6B6;}
	.st49{fill:#0F0B07;}
	.st50{fill:#2F3A68;}
	.st51{fill:#203257;}
	.st52{opacity:0.5;fill:#FFFFFF;}
	.st53{opacity:0.2;fill:#0E0C0D;}
	.st54{fill:#DD9F9B;}
	.st55{fill:#3E4D9B;}
	.st56{fill:url(#SVGID_9_);}
	.st57{fill:#5F6194;}
	.st58{fill:url(#SVGID_10_);}
	.st59{fill:url(#SVGID_11_);}
	.st60{fill:url(#SVGID_12_);}
	.st61{fill:url(#SVGID_13_);}
	.st62{fill:#070102;}
	.st63{fill:#100805;}
	.st64{fill:#FDA465;}
	.st65{fill:#2A50A1;}
	.st66{fill:#B76C39;}
	.st67{fill:#130602;}
	.st68{fill:url(#SVGID_14_);}
	.st69{fill:url(#SVGID_15_);}
	.st70{fill:url(#SVGID_16_);}
	.st71{fill:url(#SVGID_17_);}
	.st72{fill:url(#SVGID_18_);}
	.st73{fill:url(#SVGID_19_);}
	.st74{fill:#B4BDED;}
	.st75{fill:#100D08;}
	.st76{fill:#F6C85F;}
	.st77{fill:#FECF00;}
	.st78{fill:#2D59E2;}
	.st79{fill:#121F3A;}
	.st80{fill:#BBD0F5;}
	.st81{fill:#020202;}
	.st82{fill:#E2CFB7;}
	.st83{fill:#080805;}
	.st84{fill:#A87D7C;}
	.st85{fill:#182052;}
	.st86{fill:#EAEAEA;}
	.st87{fill:#DDDDDD;}
	.st88{fill:#3D4574;}
	.st89{fill:#ABC5F0;}
	.st90{fill:url(#SVGID_20_);}
	.st91{fill:#4159A8;}
	.st92{fill:#E0D0BD;}
	.st93{fill:#3D53AA;}
	.st94{fill:#0A0000;}
	.st95{fill:#BF6D36;}
	.st96{fill:#385DAE;}
	.st97{fill:#E0DCDC;}
	.st98{fill:#857E78;}
	.st99{fill:#0E213C;}
	.st100{fill:url(#SVGID_21_);}
	.st101{fill:#55608E;}
	.st102{opacity:0.3;fill:#F4F2F2;}
	.st103{opacity:0.3;}
	.st104{fill:#213987;}
	.st105{enable-background:new    ;}
</style>
<g id="_Baking_Pie_1_">
	<g id="_Baking_Pie">
		<g>
			<g>
				<path class="st7" d="M233.2111359,51.0469398v100.4115906c0,3.9111938-3.1710968,7.082428-7.0824432,7.082428H66.1361084
					c-3.9113503,0-7.0758743-3.1712341-7.0758743-7.082428V51.0469398c0-3.9111862,3.1645241-7.082428,7.0758743-7.082428
					h159.9925842C230.0400391,43.9645119,233.2111359,47.1357536,233.2111359,51.0469398z"/>
				<path class="st8" d="M220.5386505,86.5441895v57.9499512c0,4.7432709-3.8458405,8.5892029-8.5892792,8.5892029H80.3256226
					c-4.7434311,0-8.5893555-3.845932-8.5893555-8.5892029V86.5441895c0-4.7435837,3.8459244-8.5827942,8.5893555-8.5827942
					h131.6237488C216.6928101,77.9613953,220.5386505,81.8006058,220.5386505,86.5441895z"/>
				<g>
					<rect x="92.0793381" y="77.9613953" class="st3" width="1.4806916" height="70.2606354"/>
					<rect x="198.7083282" y="77.9613953" class="st3" width="1.4872497" height="70.2606354"/>
				</g>
				<g>
					<path class="st22" d="M161.8199768,71.6890106h-31.3685913c-3.1011887,0-5.6152039-2.5140076-5.6152039-5.6152039V54.6560326
						c0-3.1011925,2.5140152-5.6152077,5.6152039-5.6152077h31.3685913c3.1011963,0,5.6152039,2.5140152,5.6152039,5.6152077
						v11.4177742C167.4351807,69.1750031,164.9211731,71.6890106,161.8199768,71.6890106z"/>
					<g>
						<g>
							<path class="st22" d="M174.5718536,58.0666695h-1.6886444c-1.6068878,0-2.9095459-1.3026505-2.9095459-2.9095497V53.468483
								c0-1.6069031,1.3026581-2.9095535,2.9095459-2.9095535h1.6886444c1.6069031,0,2.9095459,1.3026505,2.9095459,2.9095535
								v1.6886368C177.4813995,56.764019,176.1787567,58.0666695,174.5718536,58.0666695z"/>
							<path class="st22" d="M174.5718536,70.1709061h-1.6886444c-1.6068878,0-2.9095459-1.3026505-2.9095459-2.9095459v-1.6886368
								c0-1.6069031,1.3026581-2.9095535,2.9095459-2.9095535h1.6886444c1.6069031,0,2.9095459,1.3026505,2.9095459,2.9095535
								v1.6886368C177.4813995,68.8682556,176.1787567,70.1709061,174.5718536,70.1709061z"/>
						</g>
						<g>
							<path class="st22" d="M119.3881454,58.0666695h-1.6886368c-1.6069031,0-2.9095535-1.3026505-2.9095535-2.9095497V53.468483
								c0-1.6069031,1.3026505-2.9095535,2.9095535-2.9095535l1.6886368,0.0000038
								c1.6069031,0,2.9095535,1.3026466,2.9095535,2.9095497v1.6886368
								C122.297699,56.764019,120.9950485,58.0666695,119.3881454,58.0666695z"/>
							<path class="st22" d="M119.3881454,70.1709061h-1.6886368c-1.6069031,0-2.9095535-1.3026505-2.9095535-2.9095459v-1.6886368
								c0-1.6069031,1.3026505-2.9095535,2.9095535-2.9095535h1.6886368c1.6069031,0,2.9095535,1.3026505,2.9095535,2.9095535
								v1.6886368C122.297699,68.8682556,120.9950485,70.1709061,119.3881454,70.1709061z"/>
						</g>
					</g>
					<g>
						<path class="st22" d="M220.224884,63.939209H185.976059c-1.5300293,0-2.7703705-1.2403336-2.7703705-2.7703629v-1.6078529
							c0-1.5300293,1.2403412-2.7703629,2.7703705-2.7703629h34.2488251c1.5300293,0,2.7703552,1.2403336,2.7703552,2.7703629
							v1.6078529C222.9952393,62.6988754,221.7549133,63.939209,220.224884,63.939209z"/>
						<path class="st22" d="M106.2953033,63.939209H72.0464859c-1.5300293,0-2.7703629-1.2403336-2.7703629-2.7703629v-1.6078529
							c0-1.5300293,1.2403336-2.7703629,2.7703629-2.7703629h34.2488174c1.5300293,0,2.7703629,1.2403336,2.7703629,2.7703629
							v1.6078529C109.0656662,62.6988754,107.8253326,63.939209,106.2953033,63.939209z"/>
					</g>
				</g>
				<g>
					<g>
						<path class="st22" d="M215.393219,136.6352386H76.8780823c-0.8144531,0-1.1782227-0.4072266-1.340332-0.7490234
							c-0.5839844-1.2314453,0.4960938-3.7612305,2.8183594-6.6025391l19.1586914-23.4370041
							c0.9956055-1.2182617,2.4692383-1.9169922,4.0429688-1.9169922h89.1557617
							c1.5737305,0,3.0473633,0.6987305,4.0429688,1.9169922l19.1586914,23.4370041l0,0
							c2.3222656,2.8413086,3.4023438,5.3710938,2.8183594,6.6025391
							C216.5714417,136.2280121,216.2076721,136.6352386,215.393219,136.6352386z M101.5577698,104.6796799
							c-1.3476563,0-2.6098633,0.5981445-3.4619141,1.6416016l-19.1586914,23.4370041
							c-2.2749023,2.7832031-3.0913086,5.027832-2.7216797,5.8066406c0.0649414,0.1376953,0.2045898,0.3203125,0.6625977,0.3203125
							c143.8706818-0.188858,138.8479614,0.3789063,139.1777344-0.3203125
							c0.3696289-0.7788086-0.4467773-3.0234375-2.7216797-5.8066406l-19.1586914-23.4370041
							c-0.8520508-1.043457-2.1142578-1.6416016-3.4619141-1.6416016H101.5577698z"/>
					</g>
					<g>
						<g>
							<path class="st22" d="M86.124176,136.0097504l21.3413086-31.91259
								c0.2767487-0.4127884,0.898735,0.0046234,0.6230469,0.4169922l-21.371582,31.9526291
								C86.35112,136.861618,85.8159561,136.3425903,86.124176,136.0097504z"/>
						</g>
						<g>
							<path class="st22" d="M101.068512,136.5268402c-0.3599091-0.3599091-0.9060974,1.4289398,15.965332-32.3891525
								c0.221138-0.4434433,0.8933487-0.1074142,0.6699219,0.3359375
								c-16.7222443,33.3144455-16.0013046,31.9495468-16.1015625,32.0497971
								C101.5279846,136.597641,101.2144089,136.6727448,101.068512,136.5268402z"/>
						</g>
						<g>
							<path class="st22" d="M115.9127502,136.1391449l10.6860352-31.9526291
								c0.1564331-0.4681473,0.8691635-0.2340698,0.7109375,0.2382813l-10.6821289,31.9413986
								C116.4827576,136.8510284,115.7472992,136.6232452,115.9127502,136.1391449z"/>
						</g>
						<g>
							<path class="st22" d="M130.8312073,136.2651215l5.3515625-32.0214767
								c0.0811005-0.4985046,0.8202209-0.3606339,0.7392578,0.1240234l-5.3461914,31.9526291
								C131.5758362,136.7811279,130.8312073,136.7967224,130.8312073,136.2651215z"/>
						</g>
						<g>
							<path class="st22" d="M145.7623596,136.2651215v-31.959465c0-0.4960175,0.75-0.496315,0.75,0v31.9526291
								C146.5123596,136.7580719,145.7623596,136.7574463,145.7623596,136.2651215z"/>
						</g>
						<g>
							<path class="st22" d="M160.6940002,136.2651215l-5.3408203-31.8974533
								c-0.0812531-0.4863586,0.6574249-0.6185303,0.7392578-0.1240234l5.3461914,31.9526291
								C161.4386292,136.7356415,160.6940002,136.7186127,160.6940002,136.2651215z"/>
						</g>
						<g>
							<path class="st22" d="M175.6334534,136.3447113l-10.6748047-31.9199142
								c-0.157959-0.4715347,0.5543518-0.7080383,0.7109375-0.2382813
								c11.0539246,33.073555,10.7055664,31.9547806,10.7055664,32.0717697
								C176.3751526,136.4653168,175.7273712,136.7754669,175.6334534,136.3447113z"/>
						</g>
						<g>
							<path class="st22" d="M190.596344,136.4262543l-16.0317383-31.9526291
								c-0.0932617-0.1850586-0.0185547-0.4101563,0.1669922-0.5029297c0.1860352-0.09375,0.4106445-0.0180664,0.5029297,0.1669922
								l16.0263672,31.9409103C191.5082703,136.5303345,190.8189087,136.8837738,190.596344,136.4262543z"/>
						</g>
						<g>
							<path class="st22" d="M205.6109924,136.5302582l-21.4248047-32.0161057
								c-0.2761383-0.4130478,0.3476257-0.8295288,0.6230469-0.4169922
								c22.6175079,33.993309,21.7558899,32.0541763,21.3520508,32.4580002
								C206.0939026,136.6220551,205.7568054,136.6760864,205.6109924,136.5302582z"/>
						</g>
					</g>
				</g>
				<g>
					<g>
						<path class="st7" d="M213.9326172,98.7369919l-10.7437592-9.1509552
							c-0.3402863-0.2898331-0.3811646-0.8006516-0.0913239-1.1409225l0.3045807-0.3575821
							c0.2898254-0.3402634,0.8006287-0.3811493,1.1408997-0.0913239l10.7437592,9.1509552
							c0.3402863,0.2898331,0.3811646,0.8006516,0.0913239,1.1409225l-0.3045807,0.3575821
							C214.7836914,98.9859314,214.2728882,99.0268173,213.9326172,98.7369919z"/>
						<path class="st7" d="M213.9326172,110.9573364l-10.7437592-9.1509552
							c-0.3402863-0.2898407-0.3811646-0.8006516-0.0913239-1.1409302l0.3045807-0.3575745
							c0.2898254-0.3402634,0.8006287-0.3811569,1.1408997-0.0913315l10.7437592,9.1509628
							c0.340271,0.2898331,0.3811646,0.8006439,0.0913239,1.1409225l-0.3045807,0.3575821
							C214.7836914,111.2062759,214.2728882,111.2471619,213.9326172,110.9573364z"/>
						<path class="st7" d="M213.9326172,123.177681l-10.7437592-9.1509628
							c-0.3402863-0.2898331-0.3811646-0.8006439-0.0913239-1.1409225l0.3045807-0.3575745
							c0.2898254-0.340271,0.8006134-0.3811569,1.1408997-0.0913315l10.7437592,9.1509628
							c0.340271,0.2898331,0.3811646,0.8006439,0.0913239,1.1409225l-0.3045807,0.3575745
							C214.7836914,123.4266205,214.2728882,123.4675064,213.9326172,123.177681z"/>
					</g>
					<g>
						<path class="st7" d="M78.3387375,98.7369919l10.7437668-9.1509552
							c0.3402786-0.2898331,0.3811722-0.8006516,0.0913315-1.1409225l-0.3045807-0.3575821
							c-0.2898331-0.3402634-0.8006287-0.3811493-1.1408997-0.0913239l-10.7437592,9.1509552
							c-0.3402863,0.2898331-0.3811798,0.8006516-0.0913315,1.1409225l0.3045807,0.3575821
							C77.4876785,98.9859314,77.9984665,99.0268173,78.3387375,98.7369919z"/>
						<path class="st7" d="M78.3387375,110.9573364l10.7437668-9.1509552
							c0.3402786-0.2898407,0.3811722-0.8006516,0.0913315-1.1409302l-0.3045807-0.3575745
							c-0.2898331-0.3402634-0.8006287-0.3811569-1.1408997-0.0913315l-10.7437592,9.1509628
							c-0.3402863,0.2898331-0.3811798,0.8006516-0.0913315,1.1409225l0.3045807,0.3575821
							C77.4876785,111.2062759,77.9984665,111.2471619,78.3387375,110.9573364z"/>
						<path class="st7" d="M78.3387375,123.177681l10.7437668-9.1509628
							c0.3402786-0.2898331,0.3811722-0.8006439,0.0913315-1.1409225l-0.3045807-0.3575745
							c-0.2898331-0.340271-0.8006287-0.3811569-1.1408997-0.0913315l-10.7437592,9.1509628
							c-0.3402863,0.2898331-0.3811798,0.8006439-0.0913315,1.1409225l0.3045807,0.3575745
							C77.4876785,123.4266205,77.9984665,123.4675064,78.3387375,123.177681z"/>
					</g>
				</g>
			</g>
			<g>
				<path class="st0" d="M232.655304,181.042572c1.3500977,2.1859894,2.479538,3.84198,2.4104919,6.4684601
					c-0.0795441,3.0247345,2.061554,7.491394,1.0953217,10.339386c-1.3216858,3.8953552-1.67453,8.0529938-2.2314148,12.1286926
					c-1.0425262,7.6308441-2.4676514,13.3755493,0.2977295,20.5637665l4.8377075,12.5744934
					c1.8257751-0.7406006,3.6734467-1.425705,5.5338135-2.0788116c1.968338-1.4124451,3.9501495-2.8066864,5.9610443-4.1645508
					c5.0059509-3.3802338,9.9363403-7.3018951,15.2460022-10.405777c-3.2076721-7.6311035-4.724823-15.97612-4.2397766-24.2419891
					c0.6729431-11.4690399,3.6243286-19.320282-14.6164093-31.1222687
					c-5.3200836-3.4423828-10.853241-6.5551605-16.557373-9.3147125c-4.8862915-2.3641205-7.901123,1.0704041-5.8516083,6.5240936
					C226.3341217,173.0855865,230.0133667,176.7647552,232.655304,181.042572z"/>
				<path class="st0" d="M28.1019344,231.7496033c8.7116108,5.1179352,19.5252666,8.2531128,30.0807247,11.2482605
					l6.1308861-15.9358826c2.7653809-7.1882324,1.3401947-12.9329376,0.2977295-20.5637665
					c-0.5569534-4.0756989-0.9096642-8.2332153-2.2314034-12.1285706c-0.9663696-2.848114,1.1748619-7.3147736,1.0953178-10.3395081
					c-0.0690575-2.6264801,1.0603943-4.2824707,2.4104156-6.4684601c2.0336685-3.2927246,10.1966248-10.8267517,7.162056-14.9825287
					c-1.0833664-1.4836121-3.0320435-2.1383057-4.8683701-2.0878448c-1.8365936,0.0504608-3.597496,0.7072754-5.2958488,1.4076538
					c-10.0103111,4.1286926-23.1141472,10.8722992-25.9557571,22.4028778
					c-1.1573334,4.6963959-0.2363777,9.6148376,0.0470123,14.4434967
					C37.6538239,210.3160248,34.4276314,222.0496521,28.1019344,231.7496033z"/>
				<g>
					<path class="st99" d="M237.7855988,193.2080536c4.7303467,0,7.2575836-5.5722809,4.1412506-9.1310272l-36.4133453-41.5828857
						c-1.7424164-1.9897919-4.2586517-3.1309967-6.9035187-3.1309967H93.6614075
						c-2.6448669,0-5.1611023,1.1412048-6.9035263,3.1309967l-36.4133415,41.5828857
						c-3.1163292,3.5587463-0.5890961,9.1310272,4.1412506,9.1310272"/>
					<path class="st8" d="M54.4858055,188.3124847c-0.1274872,0-0.3925514,0-0.5548325-0.3574829
						c-0.162014-0.3574982,0.0124855-0.5569611,0.0964127-0.652832l36.413456-41.5830231
						c0.8127289-0.9279938,1.9866638-1.4605103,3.2206192-1.4605103h104.948616
						c1.2336884,0,2.4076233,0.5322571,3.2203522,1.4605103l36.4134521,41.5830231
						c0.0839386,0.095871,0.2586975,0.2953339,0.0964203,0.652832c-0.1620178,0.3574829-0.4270782,0.3574829-0.5545654,0.3574829"/>
					
						<linearGradient id="SVGID_1_" gradientUnits="userSpaceOnUse" x1="143.2226563" y1="151.6870117" x2="145.9964447" y2="182.4298096">
						<stop  offset="0" style="stop-color:#EBBCB7"/>
						<stop  offset="1" style="stop-color:#FFEDE2"/>
					</linearGradient>
					<polyline class="st34" points="62.7347412,183.9592133 93.6959152,148.6085358 198.5784607,148.6085358 
						229.5341339,183.9592133 					"/>
					<polygon class="st12" points="101.5449371,148.6085358 73.673439,183.9592133 62.7347412,183.9592133 93.6959152,148.6085358 
											"/>
					<polygon class="st12" points="229.5341339,183.9592133 217.9536133,183.9592133 190.0766754,148.6085358 
						198.5784607,148.6085358 					"/>
				</g>
				<g>
					<path class="st13" d="M201.3996735,149.1459808c-1.2407684,7.4207001-7.4203033,8.7775879-15.1813965,9.6443176
						c-25.0538635,2.7956696-50.4939575,2.1375122-75.3737869-1.9582367
						c-6.7666473-1.1152344-15.6328354-1.2020874-18.2002182-7.5607147
						c-0.4242935-1.060791-0.8649139-2.1704559-0.7888184-3.3127747c0.0707779-1.142334,0.810463-2.3279572,1.9419022-2.5183868
						c0.7451248-0.1197815,1.5121689,0.1957397,2.2518539,0.0435638c2.039772-0.407959,2.1214447-3.6989594,4.0415726-4.5039825
						c1.767807-0.7449951,3.77491,1.142334,5.6079865,0.5713043c1.6698685-0.522171,2.2791443-2.8068237,3.943573-3.3507538
						c1.8820801-0.6092834,3.747757,1.3763123,5.7168121,1.1694183c2.2464828-0.2284241,3.5465088-3.1385498,5.8038712-3.2418671
						c1.6318207-0.0706482,3.1004333,1.4089813,4.7050323,1.1096497c1.849411-0.3426056,2.8285217-2.8774567,4.7105408-2.8827667
						c1.7025299,0,2.8937378,2.1430817,4.5908966,1.985321c1.8384552-0.1739655,2.9100647-2.9863586,4.7050323-2.5457306
						c1.6917114,0.4135284,1.9962769,3.1332397,4.0251617,2.6546326c1.7722015-0.4215851,2.8538513-2.7519531,4.7541046-2.5130768
						c2.423233,0.2984009,2.8077393,4.6430664,7.2887421,1.223877c1.0335083-0.7941437,2.1920929-1.6806946,3.4866791-1.5176239
						c2.1104889,0.2663879,3.2364197,3.1547546,5.3632507,3.1929932c1.6481476,0.0324097,3.0297852-1.7460175,4.6507111-1.4307556
						c1.6970215,0.326416,2.3280792,2.7088013,4.0033264,3.1441193c1.9473419,0.5003815,3.8348083-1.9529266,5.7277069-1.2783203
						c1.3979645,0.4950714,1.9255676,2.4804077,3.3778534,2.7685699c1.0172272,0.2013245,1.9473419-0.5330505,2.9155731-0.8974457
						c1.2727966-0.4785919,2.7251434-0.1957397,3.8348083,0.5439453c0.6200256,0.4135284,0.8159027,0.6908112,1.0007629,1.327179
						c0.5296631,1.8196716,1.7945404,2.027832,3.7151489,2.0397797c3.3103638,0.021759,3.327179,0.6307678,6.7230988,5.3740692
						L201.3996735,149.1459808z"/>
					<path class="st7" d="M198.0652466,157.963501v0.0053101c-1.0291443,2.3171539-3.3452301,4.276947-5.4991608,5.6351471
						h-0.0054474c-11.3216705,7.2698059-32.2284698,9.377655-45.7726593,9.377655
						c-8.1370544,0-16.1401367-0.6751251-22.7855988-1.7948914c-33.5485077-5.6146698-39.4907608-21.2870026-10.4164734-29.5087585
						h0.0054474c6.6430054-1.9381866,16.7254181-3.6381836,27.2350616-3.9871368c0.0054474-0.0055695,0.0108948,0,0.0108948,0
						c15.2118225-0.6390076,30.033432,1.268158,39.02771,3.9544678h0.0054474
						c3.7469177,1.0539703,7.5972443,2.4398041,10.9984589,4.2970734
						C195.7634735,148.6267853,200.3522949,152.848938,198.0652466,157.963501z"/>
					<g>
						<g>
							<path class="st11" d="M137.0025024,137.8865814c-1.9418488,0.7178955-3.8673401,1.4796295-5.7820282,2.2843933h-0.0054474
								c-6.3840408,2.6982727-13.2643738,6.0442352-19.293541,9.6822968h-0.0054474
								c-9.2500153,5.4591675-13.9827957,9.4971771-14.3437729,9.4971771c-0.3963318,0-0.5544052-0.5090027-0.2447433-0.734375
								c10.6971512-8.0462036,23.0396118-15.0831299,36.8247299-20.5172882
								C134.600296,138.0626984,135.4636841,137.9826355,137.0025024,137.8865814z"/>
						</g>
						<g>
							<path class="st11" d="M153.5383606,137.717926c-5.4405823,1.8774261-11.3188019,4.2333984-15.6111298,6.1737823h-0.0054321
								c-11.7234726,5.2391052-22.9373093,11.6138-33.7079773,19.2718964
								c-0.4439087,0.306778-0.9140167-0.3529816-0.4732208-0.6637268
								c6.8239059-4.8524475,11.3568878-7.5050659,15.6926651-10.0902557h0.0054474
								c2.8121948-1.626236,5.6624374-3.1765289,8.5453415-4.655899h0.0053787
								c3.9941483-2.1044159,10.6646652-5.2121429,17.1776199-7.8002777h0.0054474
								c0.3862305-0.1577606,0.7724152-0.3099518,1.164093-0.4568176h0.0054474
								c1.6426544-0.6472626,3.3016205-1.2618561,4.9661102-1.8602448
								C151.5981903,137.6458588,152.3308868,137.6642151,153.5383606,137.717926z"/>
						</g>
						<g>
							<path class="st11" d="M167.2510834,139.0071259c-8.4812622,3.5176849-19.13414,8.3812408-28.3610535,13.0218964h-0.0054474
								c-6.6630554,3.2131348-18.4649887,9.6947784-24.9450989,13.456955
								c-0.4607544,0.2699738-0.8769226-0.4276428-0.407959-0.7017059
								c5.5762939-3.2390747,9.6019211-5.4390106,14.5449677-8.0937653h0.0054321
								c2.9753418-1.5882721,5.9670105-3.1385498,8.9750214-4.6614838h0.0054474
								c5.503067-2.849884,16.8816376-8.2697906,28.5949097-13.2449951
								C165.7583466,138.7974396,166.1706238,138.8401489,167.2510834,139.0071259z"/>
						</g>
						<g>
							<path class="st11" d="M179.8650208,141.6452942c-10.9240875,4.5952454-21.1813354,9.5850677-31.450592,15.3336487h-0.0054474
								c-8.4256134,4.7915802-14.8760529,8.6860046-23.2317429,14.3926392
								c-0.1016922-0.0154419-0.2028885-0.0210876-1.1748581-0.1848602
								c15.133728-10.3859558,31.2266083-19.4489288,47.9211273-26.9794922h0.0054474
								c0.575943-0.2549591,3.0396729-1.3818512,6.6687164-2.910141
								C179.0273285,141.4059906,179.4461823,141.5202026,179.8650208,141.6452942z"/>
						</g>
						<g>
							<path class="st11" d="M190.868927,145.9423676c-14.8543396,6.4288177-29.1467285,14.0409698-42.2423553,22.3342285
								c-0.2556458,0.1577606-0.5167236,0.3208313-0.7724304,0.4894867
								c-2.1213684,1.3433838-4.2264252,2.719696-6.3096924,4.1231079c-1.5747528-0.0553131-1.3683929-0.0483398-1.3870697-0.048996
								c2.2845306-1.5501556,4.5908203-3.0677643,6.9188995-4.5474091c0.2556458-0.1686554,0.5167847-0.3317261,0.7724304-0.4950714
								c6.1080933-3.8709717,11.9132538-7.2745667,18.0968933-10.6339264h0.0054474
								c0.2882385-0.1577606,0.5765533-0.3155212,0.8648529-0.4677124h0.0054474
								c6.8257904-3.6967926,14.75914-7.5906525,23.1174622-11.2431946
								C190.2543335,145.6103668,190.5697937,145.7790222,190.868927,145.9423676z"/>
						</g>
						<g>
							<path class="st11" d="M198.0652466,157.963501v0.0053101c-0.1087646,0.2448883-0.2338562,0.4841766-0.3807373,0.7287903
								c-8.5195313-5.926239-17.8670349-11.0547791-25.7555542-14.4903717h-0.0054474
								c-5.3182068-2.3639832-11.0648499-4.5518799-17.12323-6.4295502c1.9640656,0.1139832,2.9222107,0.1888275,3.339798,0.2175293
								C172.6407623,142.8149567,186.2094421,149.731308,198.0652466,157.963501z"/>
						</g>
						<g>
							<path class="st11" d="M193.3003235,163.1200409c-0.2338562,0.1630859-0.4840546,0.3261566-0.7342377,0.4839172h-0.0054474
								c-15.2639923-10.4050903-30.8925171-18.0011749-47.3881378-23.6505127h-0.0054474
								c-2.2409668-0.7558899-4.4929504-1.4740601-6.7665863-2.1539764c0.7995758-0.0435638,1.6100311-0.081543,2.4259491-0.1086426
								c0.0054474-0.0055695,0.0108948,0,0.0108948,0c1.849411,0.5710449,3.6770325,1.1747437,5.4992828,1.8058014h0.0054474
								C162.1813812,144.9211884,178.1873627,152.77565,193.3003235,163.1200409z"/>
						</g>
						<g>
							<path class="st11" d="M186.2726593,168.2330322c-0.6133881,0-24.9420319-15.2636261-60.0346985-29.2150116
								c0.5276108-0.081543,1.0552826-0.1577606,1.5937805-0.2284241c0.0054398-0.0055695,0.0054398,0,0.0054398,0
								c18.989418,7.6205902,39.180687,17.3959503,58.6367264,28.6819763
								C186.8417206,167.6860962,186.668869,168.2330322,186.2726593,168.2330322z"/>
						</g>
						<g>
							<path class="st11" d="M171.5101166,170.8438416c-0.3861847,0.0709076-0.8730011,0.1593475-1.1640472,0.212204
								c-11.4784698-7.5549622-21.7276001-13.2540131-33.2836761-19.0270233h-0.0054474
								c-3.8165131-1.8813171-7.7605438-3.6998291-9.0675125-4.2752991h-0.0053787
								c-4.8476334-2.2070313-10.0319672-4.3765106-14.3927002-6.0757599
								c0.4296646-0.1253662,0.8593979-0.2448883,1.3054657-0.3646698
								c8.8213272,3.4881287,18.8597107,8.0594788,23.9877625,10.7157288h0.0054474
								c3.6432037,1.8081207,6.3562469,3.2453156,9.5189514,4.9499207h0.0054474
								C155.802002,160.9802704,163.6887817,165.6750793,171.5101166,170.8438416z"/>
						</g>
						<g>
							<path class="st11" d="M155.6378937,172.7259827c-0.4568176,0.0272217-0.91922,0.0488739-1.3815613,0.0760956
								c-2.1159363-1.3707428-4.2481384-2.719696-6.4021912-4.0359955
								c-0.2556305-0.1577606-0.5167694-0.3208466-0.7778625-0.4732971
								c-10.7365112-6.560318-22.3873825-12.740448-35.1547928-18.4395142h-0.0054474
								c-0.100235-0.0435791-4.2309036-1.9040375-9.1980515-3.9164886c0.3045731-0.1686401,0.6201019-0.3370361,0.9464493-0.4947968
								c4.8570175,1.9769745,10.3404694,4.3811646,15.7688293,6.9676361h0.0054474
								c1.8840866,0.8916473,5.4626923,2.6464539,8.6377792,4.2808838h0.0054321
								c6.8681641,3.5644836,13.1599121,7.0679016,19.7667847,11.1072083
								c0.2611389,0.1633453,0.5167847,0.321106,0.7778625,0.4788818
								C150.9818115,169.7288666,153.3207092,171.2082367,155.6378937,172.7259827z"/>
						</g>
					</g>
					<path class="st15" d="M201.3996735,149.1459808c-0.3114319,2.1546021-2.4249573,16.7695465-2.2900391,15.8343048
						c-2.6489868,9.6168213-22.8182678,12.9456635-51.4730682,12.9456635c-28.654747,0-48.5956879-3.3288422-52.1040726-12.3690643
						c0.0456314,0.2222137-0.6069336-2.9712677-3.3615189-16.4109039h1.8440323
						c0.9996948,0.7193604,1.809227,0.5661011,2.692482,0.7181702c2.326355,0.4008484,1.9648361,3.7263031,3.6878662,4.2861938
						c1.055275,0.3426208,2.1920929-0.6145935,3.2636414-0.3317261c1.4795685,0.3861694,1.7515335,2.7685699,3.258194,3.0405273
						c1.0443878,0.1904449,1.9962845-0.810318,3.0569458-0.7505646c1.4360123,0.081543,2.1703186,1.985321,3.5791702,2.2681885
						c1.6915817,0.3373108,3.0895386-1.8113708,4.7920761-1.5829468c1.6101074,0.212204,2.4096832,2.38797,4.025177,2.5675049
						c1.6318207,0.1795502,2.8611298-1.8113556,4.4983978-1.7407074c2.0234375,0.0818024,2.9100647,3.1385498,4.9389496,3.2527466
						c2.5189819,0.1354065,3.4626312-4.1323547,7.1909485-1.2836151c0.7614594,0.5821838,1.4686127,1.2674103,2.360611,1.6156158
						c2.6816559,1.0443268,3.8729248-2.9483795,6.7177124-1.3981018c0.8974457,0.489502,1.5773773,1.4143066,2.583725,1.5938416
						c2.0071106,0.3590851,3.290863-2.3770752,5.303421-2.6761475c2.3226318-0.3481903,4.0904388,2.6596832,6.4293365,2.4530487
						c1.9146881-0.1739655,3.0406036-2.3985901,4.9009094-2.8774719c2.3715668-0.6145782,4.6126709,1.8278351,7.0495148,1.577652
						c2.4422913-0.2501984,4.0414429-3.0952606,6.4946136-3.2692261c1.84935-0.1304016,3.649826,1.3380737,5.4394073,0.8376923
						c1.9201202-0.5383606,2.8665771-3.1220856,4.8518982-3.3016205c0.8267975-0.0762329,1.6155548,0.3099518,2.4042511,0.5601349
						c0.7941895,0.2501984,1.7515259,0.3426208,2.3715668-0.212204c0.7669678-0.6799316,0.6092682-1.9473572,1.1912689-2.7956696
						c0.7557831-1.1174927,2.2492523-1.0301208,3.0406036-2.5513153H201.3996735z"/>
					<path class="st22" d="M200.572876,154.8573608c-1.8899841,1.9431763-4.1628571,0.66008-5.8963623,1.8278351
						c-2.2717438,1.5229797-1.2721252,6.5574493-7.5389404,4.7321167c-1.3544769-0.3970642-3.5193481-1.4087219-4.7758179-0.4241638
						c-1.0878754,0.848587-1.4577789,2.4424286-2.7687073,3.0570068c-1.8928986,0.8918762-3.9762268-1.1532135-6.059433-0.979248
						c-2.4042969,0.1960144-3.747818,3.1603241-6.1030579,3.649826c-3.4439087,0.7194519-6.3763733-4.2028046-9.7583313-2.7794647
						c-1.7460175,0.7396851-2.719696,3.1332397-4.6125946,3.0896759c-2.2138062-0.0491333-3.3288422-3.4920502-5.5318298-3.2745361
						c-1.2184296,0.114212-1.97995,1.3054047-2.8339081,2.175766c-1.9691315,2.0015259-4.8357086,0.0270844-6.6035156-1.2727356
						c-1.0279846-0.7508392-2.2138062-1.46875-3.4811707-1.3492279c-1.871109,0.1742249-3.2201385,2.1051178-5.0913391,2.2793427
						c-2.7794571,0.2555084-4.7322464-3.4105072-7.5225983-3.2474365c-2.1486053,0.1250916-3.829361,2.5401611-5.9561844,2.1866455
						c-2.4368439-0.4026337-3.3071365-4.128418-5.7712021-4.3244324c-1.7460251-0.1412964-3.290863,1.6700745-4.9987793,1.2838898
						c-1.8766327-0.4244232-2.447731-3.1658936-4.3080978-3.6607056c-1.7242508-0.4570923-3.644371,1.2836304-5.1999664,0.4241638
						c-1.3925247-0.7670441-1.1749954-2.8503876-2.0235748-4.1937714c-0.7263412-1.150116-2.2317429-1.667984-3.0786591-2.7414703
						c-0.7125931-0.8974457-0.9028931-2.1866608-0.4785995-3.2527618c0.4242859-1.0716705,1.2488556-2.4187317,1.8519821-2.9599457
						c-0.1848526,0.8106079,0.7154007,2.4648743,1.1613312,3.1665802c0.2122116,0.3428955,0.4950714,0.6363678,0.8214874,0.8756714
						c0.9996948,0.7193604,1.809227,0.5661011,2.692482,0.7181702c2.326355,0.4008484,1.9648361,3.7263031,3.6878662,4.2861938
						c1.055275,0.3426208,2.1920929-0.6145935,3.2636414-0.3317261c1.4795685,0.3861694,1.7515335,2.7685699,3.258194,3.0405273
						c1.0443878,0.1904449,1.9962845-0.810318,3.0569458-0.7505646c1.4360123,0.081543,2.1703186,1.985321,3.5791702,2.2681885
						c1.6915817,0.3373108,3.0895386-1.8113708,4.7920761-1.5829468c1.6101074,0.212204,2.4096832,2.38797,4.025177,2.5675049
						c1.6318207,0.1795502,2.8611298-1.8113556,4.4983978-1.7407074c2.0234375,0.0818024,2.9100647,3.1385498,4.9389496,3.2527466
						c2.5189819,0.1354065,3.4626312-4.1323547,7.1909485-1.2836151c0.7614594,0.5821838,1.4686127,1.2674103,2.360611,1.6156158
						c2.6816559,1.0443268,3.8729248-2.9483795,6.7177124-1.3981018c0.8974457,0.489502,1.5773773,1.4143066,2.583725,1.5938416
						c2.0071106,0.3590851,3.290863-2.3770752,5.303421-2.6761475c2.3226318-0.3481903,4.0904388,2.6596832,6.4293365,2.4530487
						c1.9146881-0.1739655,3.0406036-2.3985901,4.9009094-2.8774719c2.3715668-0.6145782,4.6126709,1.8278351,7.0495148,1.577652
						c2.4422913-0.2501984,4.0414429-3.0952606,6.4946136-3.2692261c1.84935-0.1304016,3.649826,1.3380737,5.4394073,0.8376923
						c1.9201202-0.5383606,2.8665771-3.1220856,4.8518982-3.3016205c0.8267975-0.0762329,1.6155548,0.3099518,2.4042511,0.5601349
						c0.7941895,0.2501984,1.7515259,0.3426208,2.3715668-0.212204c0.7669678-0.6799316,0.6092682-1.9473572,1.1912689-2.7956696
						c0.7557831-1.1174927,2.2492523-1.0301208,3.0406036-2.5513153c0.6908112-1.2562714,0.2150116-3.5057831-0.7314301-4.5883484
						C203.0424194,146.0084839,203.0971985,152.302948,200.572876,154.8573608z"/>
				</g>
				<path class="st0" d="M63.3373718,226.9454193c1.4238281-3.4251099,3.2270813-11.7401123,2.6124191-15.3981018
					s-1.7189255-7.2240601-2.2487755-10.8952789c-1.1346741-7.8618774,0.4816093-16.0937042,4.5047188-22.9428711
					c1.2795639-2.1783905,2.8319702-4.3234863,3.1413498-6.8308716c0.235405-1.9078064-0.8334045-4.4091339-2.8956146-4.8016968
					c-2.2838974-0.4347687-4.2650986,1.5137177-6.1096916,2.9012451
					c-11.992012,9.0204926-15.8822021,15.0383759-13.0513191,31.9344788"/>
				<g>
					<path class="st2" d="M39.9581604,188.5966644c2.7290039-2.6035156,5.6142578-3.5029297,8.5776367-2.6650391
						c0.4787598,0.1349487,0.2712059,0.8589783-0.2041016,0.7216797c-2.6870117-0.7578125-5.3320313,0.0776367-7.855957,2.4863281
						C40.1167564,189.4817505,39.5990715,188.9393768,39.9581604,188.5966644z"/>
				</g>
				<g>
					<path class="st2" d="M49.092926,201.2621918c-4.4035721-11.8879089,0.7478333-25.0289764,11.0688477-30.7866211
						c0.7148438-0.3989258,1.3325195-0.7436523,2.0273438-1.4257813c1.1875153-1.1822968,2.3158798-2.3812714,3.784668-3.0205078
						c1.5107422-0.6572266,3.6914063-0.559082,4.7602539,0.9160156c0.2912369,0.4011993-0.3169403,0.8416748-0.6074219,0.4394531
						c-0.8393555-1.1577148-2.6103516-1.2080078-3.8540039-0.6679688c-1.3434219,0.5847931-2.4460678,1.7609711-3.5581055,2.8681641
						c-1.1683998,1.1475677-2.1347198,1.4256287-3.4326172,2.2880859
						c-9.4593849,6.2842255-13.4887238,18.3212433-9.4858398,29.128418
						C49.969059,201.4667206,49.2654877,201.7273712,49.092926,201.2621918z"/>
				</g>
				<path class="st22" d="M67.4052277,175.5443115c-1.5521393-1.4629822-3.1042786-2.9259644-4.656414-4.3889618
					c0.7763824-1.0301819,1.5750771-2.3251953,2.6806908-2.9897919c1.1056213-0.6645813,2.5992355-0.8524933,3.6565552-0.1134796
					c1.1611099,0.8115692,1.4303818,2.4902496,1.001564,3.8404083
					C69.6587982,173.2426453,68.3615646,174.4992218,67.4052277,175.5443115z"/>
				<path class="st0" d="M235.2285156,226.9454193c-1.4238281-3.4251099-3.2270813-11.7401123-2.6124268-15.3981018
					c0.6146698-3.6579895,1.7189331-7.2240601,2.2487793-10.8952789c1.1346741-7.8618774-0.4815979-16.0937042-4.504715-22.9428711
					c-1.2795715-2.1783905-2.8319702-4.3234863-3.1413574-6.8308716c-0.3145752-2.54953,2.2036438-7.3291626,5.0982513-4.9320831
					c9.2702332,7.6768951,12.2685699,9.8588409,14.5756683,13.4060364
					c4.123764,6.3403473,3.6212158,14.1681061,2.3827057,21.5600739"/>
				<g>
					<path class="st2" d="M258.0904846,189.1396332c-2.5239258-2.4077148-5.1674805-3.2436523-7.855957-2.4863281
						c-0.4698944,0.1413269-0.6864319-0.5857239-0.2041016-0.7216797c2.9633789-0.8374023,5.8481445,0.0610352,8.5776367,2.6650391
						C258.9671326,188.9393768,258.4494629,189.4817657,258.0904846,189.1396332z"/>
				</g>
				<g>
					<path class="st2" d="M248.7696838,201.0014496c4.2508087-11.476532-0.672348-24.2617188-10.730957-29.8710938
						c-2.0127869-1.1234436-2.1727142-1.6015015-2.6040039-1.9584961c-0.9521484-0.9492188-1.9370117-1.9306641-3.1416016-2.4550781
						c-1.2426758-0.5400391-3.0151367-0.4897461-3.8540039,0.6679688c-0.2888336,0.4039154-0.8988953-0.0379333-0.6074219-0.4394531
						c1.0683594-1.4750977,3.2504883-1.5732422,4.7602539-0.9160156c1.4649048,0.637085,2.5844269,1.825058,3.784668,3.0205078
						c1.0810089,1.061264,1.9982758,1.3192596,3.3222656,2.1982422c9.7647095,6.4873962,13.8905029,18.9010162,9.7739258,30.0141602
						C249.3001556,201.7276001,248.5967712,201.4664459,248.7696838,201.0014496z"/>
				</g>
				<path class="st22" d="M231.1606598,175.5443115c1.5521393-1.4629822,3.1042786-2.9259644,4.6564178-4.3889618
					c-0.7763824-1.0301819-1.5750732-2.3251953-2.6806946-2.9897919c-1.1056213-0.6645813-2.5992432-0.8524933-3.6565552-0.1134796
					c-1.1611176,0.8115692-1.4303894,2.4902496-1.0015564,3.8404083
					C228.9070892,173.2426453,230.2043152,174.4992218,231.1606598,175.5443115z"/>
				<path class="st11" d="M22.0787506,232.5842438l11.4812813-15.2289429l32.9543266,9.5901184l-2.6656113,21.6999359
					C61.7186699,254.1851501,19.9486732,238.1240387,22.0787506,232.5842438z"/>
				<path class="st11" d="M236.4575806,254.9478607l-2.0424347-18.9623108l30.5982208-15.5469208l12.8993835,17.6521606
					C280.148468,243.5887909,238.6933136,260.4458618,236.4575806,254.9478607z"/>
			</g>
		</g>
	</g>
</g>
</svg>
