<?xml version="1.0" encoding="utf-8"?>
<!-- Generator: Adobe Illustrator 22.0.1, SVG Export Plug-In . SVG Version: 6.00 Build 0)  -->
<svg version="1.1" id="Layer_1" xmlns="http://www.w3.org/2000/svg" xmlns:xlink="http://www.w3.org/1999/xlink" x="0px" y="0px"
	 viewBox="0 0 300 300" style="enable-background:new 0 0 300 300;" xml:space="preserve">
<style type="text/css">
	.st0{fill:#EDC1A4;}
	.st1{fill:#E2E0E0;}
	.st2{fill:#D39E81;}
	.st3{fill:#502E26;}
	.st4{fill:#CCCACA;}
	.st5{fill:#426800;}
	.st6{fill:#538705;}
	.st7{fill:#D47E44;}
	.st8{fill:#73341D;}
	.st9{fill:#BC672E;}
	.st10{fill:#96311D;}
	.st11{fill:#B83E21;}
	.st12{fill:#DE8D82;}
	.st13{fill:#EFBAB4;}
	.st14{fill:#FDD5D0;}
	.st15{fill:#6883CE;}
	.st16{fill:#3D4885;}
	.st17{fill:#3859AE;}
	.st18{fill:#864424;}
	.st19{fill:#FEFEFE;}
	.st20{fill:#FFFFFF;}
	.st21{fill:#A55925;}
	.st22{fill:#F4F2F2;}
	.st23{fill:#3C3E68;}
	.st24{fill:#E8997C;}
	.st25{fill:#F5C46B;}
	.st26{fill:#F7EBDA;}
	.st27{fill:#0E0C0D;}
	.st28{fill:#657C3A;}
	.st29{fill:#576C37;}
	.st30{fill:#7C995D;}
	.st31{fill:#36518C;}
	.st32{fill:#96B7E3;}
	.st33{fill:#A3B3DF;}
	.st34{fill:url(#SVGID_1_);}
	.st35{fill:url(#SVGID_2_);}
	.st36{fill:url(#SVGID_3_);}
	.st37{fill:url(#SVGID_4_);}
	.st38{fill:url(#SVGID_5_);}
	.st39{fill:#266AB7;}
	.st40{fill:#060E0D;}
	.st41{fill:#E0D4C6;}
	.st42{fill:#787E42;}
	.st43{fill:#D3D1D1;}
	.st44{fill:url(#SVGID_6_);}
	.st45{fill:url(#SVGID_7_);}
	.st46{fill:url(#SVGID_8_);}
	.st47{fill:#020508;}
	.st48{fill:#BAB6B6;}
	.st49{fill:#0F0B07;}
	.st50{fill:#2F3A68;}
	.st51{fill:#203257;}
	.st52{opacity:0.5;fill:#FFFFFF;}
	.st53{opacity:0.2;fill:#0E0C0D;}
	.st54{fill:#DD9F9B;}
	.st55{fill:#3E4D9B;}
	.st56{fill:url(#SVGID_9_);}
	.st57{fill:#5F6194;}
	.st58{fill:url(#SVGID_10_);}
	.st59{fill:url(#SVGID_11_);}
	.st60{fill:url(#SVGID_12_);}
	.st61{fill:url(#SVGID_13_);}
	.st62{fill:#070102;}
	.st63{fill:#100805;}
	.st64{fill:#FDA465;}
	.st65{fill:#2A50A1;}
	.st66{fill:#B76C39;}
	.st67{fill:#130602;}
	.st68{fill:url(#SVGID_14_);}
	.st69{fill:url(#SVGID_15_);}
	.st70{fill:url(#SVGID_16_);}
	.st71{fill:url(#SVGID_17_);}
	.st72{fill:url(#SVGID_18_);}
	.st73{fill:url(#SVGID_19_);}
	.st74{fill:#B4BDED;}
	.st75{fill:#100D08;}
	.st76{fill:#F6C85F;}
	.st77{fill:#FECF00;}
	.st78{fill:#2D59E2;}
	.st79{fill:#121F3A;}
	.st80{fill:#BBD0F5;}
	.st81{fill:#020202;}
	.st82{fill:#E2CFB7;}
	.st83{fill:#080805;}
	.st84{fill:#A87D7C;}
	.st85{fill:#182052;}
	.st86{fill:#EAEAEA;}
	.st87{fill:#DDDDDD;}
	.st88{fill:#3D4574;}
	.st89{fill:#ABC5F0;}
	.st90{fill:url(#SVGID_20_);}
	.st91{fill:#4159A8;}
	.st92{fill:#E0D0BD;}
	.st93{fill:#3D53AA;}
	.st94{fill:#0A0000;}
	.st95{fill:#BF6D36;}
	.st96{fill:#385DAE;}
	.st97{fill:#E0DCDC;}
	.st98{fill:#857E78;}
	.st99{fill:#0E213C;}
	.st100{fill:url(#SVGID_21_);}
	.st101{fill:#55608E;}
	.st102{opacity:0.3;fill:#F4F2F2;}
	.st103{opacity:0.3;}
	.st104{fill:#213987;}
	.st105{enable-background:new    ;}
</style>
<g id="Barista_Expert_1_">
	<g id="Barista_Expert">
		<g>
			<path class="st7" d="M164.4737244,72.765152c-0.1006165,0.2706833-0.1887207,0.5349045-0.276825,0.7929916
				c-1.3402557,3.9388199-1.4409637,6.2670898-1.4409637,6.2670898c-2.5197144,8.7247696-3.2828369,11.3529587-3.4859467,11.4265747
				c-0.3334351,0.1198273-5.0652466,2.7498016-5.0652466,2.7498016l-7.0788116,0.7991333
				c0,0-4.8639221-3.4985428-5.3924561-4.3606644c-0.5223083-0.8618088-4.6940155-10.231102-4.6940155-10.231102
				s-1.6045685-8.8783264,0.3460236-9.9416885c1.950592-1.0572128,2.5106201-3.6875,2.5106201-3.6875
				c30.1976776,7.5968933,19.7824554,4.9767151,22.0355835,5.543541L164.4737244,72.765152z"/>
			<path class="st18" d="M164.1968994,73.5581436c-1.3402557,3.9388199-1.4409637,6.2670898-1.4409637,6.2670898
				s-0.4089355,1.4596939-0.9501343,3.3347855c-10.5753937,2.0430069-20.0691223-4.9895477-21.9600067-14.7303314l2.391098-1.258461
				l19.6947937,4.9521027C162.6993256,72.5826569,163.4544525,73.0610275,164.1968994,73.5581436z"/>
			<path class="st7" d="M168.6016693,60.3550186c0.7177887-2.23312,4.83078-1.930687,3.721405,2.3192101
				c-0.6182861,2.3686638-2.5255585,6.0840569-4.895752,5.3533821c-0.6522522-0.2010727-1.1813049-0.8421631-1.1292877-1.5227051"/>
			<path class="st7" d="M143.6220703,50.1187553c0.022171-0.8566208-0.78508-1.5898018-1.6394806-1.6553802
				s-1.682724,0.4224586-2.2098083,1.0980835c-0.5270844,0.6756287-0.7948303,1.5168228-0.9758301,2.354393
				c-0.3929901,1.8184853-0.7305756,5.6920013,0.8758545,6.6891594c0.883606,0.5484772,2.2229462,0.0658417,2.5535889-0.9201927"/>
			<path class="st3" d="M142.4141541,56.7840958c0,0-1.7045593-5.2016945,0.2916412-11.4204483
				s5.4607391-9.8035278,11.2783966-10.9853516c5.8176422-1.1818275,17.8171997,2.8045998,19.7963104,9.3908386
				s-1.6814575,16.6527939-6.1999664,18.8262558S142.4141541,56.7840958,142.4141541,56.7840958z"/>
			<path class="st1" d="M175.4557495,91.2504883c0,0,8.8657227,4.7644119,13.6772156,14.6819534
				c4.8114777,9.9175415,11.4941254,24.2529984,11.4941254,24.2529984l-1.7503815-24.978981
				c0,0,18.3331146-1.3559418,18.9365845-0.5978699c0.5889282,0.7398071,8.0026093,19.0921097,4.6575165,37.7031784
				c-3.345108,18.6110535-11.6230316,24.29422-24.3896332,21.8570862
				c-12.7665863-2.437149-29.4470673-28.2749786-29.4470673-28.2749786L175.4557495,91.2504883z"/>
			<path class="st1" d="M111.1014404,77.8130035c0,0,8.4806137-3.4002457,14.4756317-2.800087
				c0,0,9.7395325-2.7799377,11.808197-4.7438431c0,0,0.2927399,13.9814148,13.2833405,21.0762863l15.8143921-5.8260651
				c0,0,5.7700043,2.728302,9.067627,5.8260651c3.2976074,3.0977554,4.3817749,37.3543167,0.635849,54.5398636
				l-42.9525604,6.0581818l-26.224762-10.5402679l-12.3017654-14.3777924L111.1014404,77.8130035z"/>
			<path class="st15" d="M137.3852539,70.2691345c0,0,3.457077,10.081749,13.1487732,19.4462662
				c0,0,9.6333008-4.2355347,12.2238007-9.8915863c0,0,3.5117645,3.9438629,3.725174,5.6954803
				c0.2133942,1.7516098-3.9382629,8.3280869-10.7865906,8.3560791c0,0,4.9508057,5.9262543,2.9336548,17.5092163
				c0,0-10.7158813-7.7614517-8.0111542-18.4449615c0,0-3.9769592,15.4655685-17.4059906,16.4108582
				c0,0-0.1556091-9.8932037,13.9139252-17.549942c-7.9754181-4.0767746-13.6125183-9.8977509-16.5077972-18.3855743
				C132.6373901,72.1734085,134.9269562,71.1527557,137.3852539,70.2691345z"/>
			<ellipse class="st19" cx="150.9616852" cy="92.5181427" rx="1.6640195" ry="1.8332417"/>
			<path class="st3" d="M170.7741547,87.8595657c-0.3123932,18.026413-1.8102722,34.7946701-5.0866089,49.6758652
				c-1.3785858,6.2348328-45.3915482-2.143219-47.5320816-10.5100861
				c-1.3953323-16.4112473,3.1553574-34.4686813,10.4766617-53.2923813l-3.0550537,1.279953
				c0,0-20.2930374,35.1941147-22.4544754,56.8084946l3.8865585,23.4878693c0,0-14.9947433,35.7043152-13.7429047,62.5834198
				s88.9989319,10.2915344,88.9989319,10.2915344s-2.155014-29.5227966-11.511795-60.8522186
				c0,0,4.1721191-13.2145233,6.3701935-26.7533722c2.2024536-13.5655899-3.1172638-51.2298813-3.9873657-51.3152924
				C172.2956085,88.2165833,171.5151367,87.8230057,170.7741547,87.8595657z"/>
			<g>
				<g>
					<path class="st15" d="M130.5848236,163.0967102c-1.9816895-7.9757233,2.5063629-14.7400818,8.691864-15.5125885
						c3.3245697-0.4152069,6.9100342,1.272171,8.4015198,4.2722626c-0.5675354,0.6200562-1.4066315,1.4444427-1.9741669,2.0644836
						c-1.1590576-2.2563477-3.8741608-3.5245972-6.3882751-3.1873016c-4.8246307,0.6472626-8.0439148,6.166275-5.8506927,11.8666229
						C132.543335,162.6494141,131.5065613,163.0474854,130.5848236,163.0967102z"/>
					<path class="st74" d="M167.9271545,170.3387909c-2.4723358-3.6348419-8.1563873-4.1107483-11.1310883-0.1195068
						c-0.8557434,1.1512299-1.2898712,2.5986328-1.8625641,3.9010315c-0.7467651,1.6918182-3.2581787,7.3983459-4.0585022,9.2245789
						c0,0-1.8561859,4.9895935-10.9925995,0.7926788c-8.7821655-4.0296326-13.1717224-14.5740662-11.5715179-19.2353973
						c0.7991333-2.3282623,3.5425568-4.2598877,5.3610382-5.7447815
						c3.4030151-2.7863312,11.3928223-8.4562836,14.9378815-10.0237122
						c0.1573029-0.0691376,0.5474243-0.3207703,0.7236176-0.2832794c0.5348358,0.1133728,0.5097198,1.9319305,0.6607208,2.5611572
						c0.5599518,2.2778778,1.7177887,4.4171906,3.3537598,6.1036377c2.2526093,2.3218079,8.7274017-0.4470367,10.917099,1.9377594
						c1.7366791,1.8941345,2.6238403,3.7188416,3.1902313,5.059021
						C168.1661835,166.2045746,168.3738861,168.6901398,167.9271545,170.3387909z"/>
					<path class="st15" d="M165.1874542,162.9137726c-1.1846313,1.3783417-6.2840576-0.2702637-10.5474091-3.934433
						c-4.2633362-3.6641693-6.4935608-8.752182-5.3089447-10.1305237c1.1846313-1.3783417,5.723999,1.2254486,9.9873352,4.8896179
						C163.5817871,157.4026031,166.3720703,161.5354462,165.1874542,162.9137726z"/>
					<path class="st15" d="M167.5747528,169.8920746c-2.7042542-3.2606506-7.9600677-3.4546051-10.7786865,0.3272095
						c-0.8557434,1.1512299-1.2898712,2.5986328-1.8625641,3.9010315c-0.7467651,1.6918182-3.2581787,7.3983459-4.0585022,9.2245789
						c0,0-1.8561859,4.9895935-10.9925995,0.7926788c-8.2554626-3.7879639-12.263649-12.8613892-11.8546448-17.7944336
						c1.2081604,2.5043182,2.4980316,4.9646912,4.1843872,7.1669922c2.1079102,2.7368927,4.9017181,5.0713043,8.2302856,6.0090027
						s7.2172241,0.2706757,9.63974-2.1961517c2.5421143-2.5986328,3.1524353-6.6821747,5.8077698-9.1677399
						C159.1803436,165.0898132,164.9746246,165.3848419,167.5747528,169.8920746z"/>
					<path class="st74" d="M159.5087433,156.8548431c-0.7893219,0.7366028-1.365509-0.207428-2.2772369-1.1844025
						s-1.8137207-1.6169281-1.0244141-2.3535309c0.7893219-0.7366028,2.7283173-1.0643616,3.6400452-0.0873871
						C160.7588501,154.2064972,160.2980652,156.1182404,159.5087433,156.8548431z"/>
					
						<ellipse transform="matrix(0.9605159 -0.2782252 0.2782252 0.9605159 -39.6530228 52.8800011)" class="st15" cx="166.4831543" cy="166.1476593" rx="0.8701791" ry="2.113292"/>
				</g>
				<path class="st7" d="M139.6195374,144.6183167c1.2120667,0.838974,2.1303101,2.0940399,2.5630493,3.5031738
					c0.9170685,2.9862061-1.3814545,4.102417-2.4889679,3.2868652c0.6667023,0.1552124,0.9887695,1.0190887,0.728775,1.6523285
					c-0.2599945,0.6332245-0.9382935,1.0154266-1.615921,1.112442c-0.6776276,0.0970306-1.3643036-0.0423737-2.0346222-0.1811371
					c0.599884,0.2103729,0.866333,0.9876862,0.6522217,1.5862427c-0.2141266,0.5985565-0.7927704,1.0077209-1.4035339,1.1840363
					c-0.6107178,0.1762848-1.2585144,0.1559143-1.8937836,0.1340637c0.6425323,0.0220947,0.3181152,1.7198181,0.1374512,1.9920044
					c-0.4273987,0.6438751-1.413559,0.7723541-2.1421967,0.9908752c-2.025177,0.6073761-4.1110687,1.0123444-6.2165604,1.2055817
					c-2.6534119,0.2435455-4.8991928-0.2596893-6.0598831-2.8341827c-0.5722427-1.2692871-0.3581848-2.7453308-0.0275116-4.0978088
					c0.5976181-2.4443665,1.5111237-5.0156555,2.8895721-7.1380615c0.9934921-1.5296936,3.0471573-1.5644989,4.6606216-2.0919647
					C130.7851715,143.8057098,135.7841644,141.963501,139.6195374,144.6183167z"/>
				<path class="st1" d="M111.1014404,77.8130035c0,0-21.7253799,10.3214111-40.0471115,44.83284
					c0,0-7.0651131,13.3597565,4.7213211,20.801712s27.9079895,15.5054474,39.0780869,19.1276093
					c0,0,5.540863,2.5327759,10.1020126-9.3023529c0,0,1.4515915-4.6602478-0.1532593-7.9249268
					c0,0-16.9910507-11.4526215-20.9876862-14.8414459C103.8148041,130.5064392,120.811264,79.5895309,111.1014404,77.8130035z"/>
			</g>
			<path class="st4" d="M217.9393158,104.9313812c0,2.6192322-9.400528,3.9749451-15.4664001,2.4287338
				c-1.263031-0.3177261-3.668457-1.120697-3.668457-2.4287338c0-2.8521118,10.5606384-4.0707321,16.3473358-2.1771088
				C216.875885,103.3140717,217.9393158,104.0818634,217.9393158,104.9313812z"/>
			<path class="st7" d="M216.4228516,106.5926285c-2.7711792,1.4057617-9.1737213,1.9849548-13.9499359,0.7674866
				c-1.0683289-1.0035248-2.3343201-1.7259979-3.630661-2.1583633c-2.6282043-0.9140244-3.6603241-0.2379532-5.3862305-0.4276733
				c-1.4094696-0.163765-2.9384613-0.7677994-4.2472992-1.3088455c-0.7173309-0.2955704-1.4409637-0.6418304-1.9757843-1.2080688
				c-0.5411224-0.5601044-0.8620453-1.3844299-0.6606445-2.1331711c0.1573029-0.5914383,0.7235565-1.0820999,1.3150635-1.1263428
				c-0.9375458-0.2264404-1.7115631-1.1263428-1.7115631-2.1015244c0-1.1263428,1.0320282-2.1519165,2.1582947-2.1519165
				c-2.25354-0.0776291-3.352478-2.4403458-2.1708069-3.9013367c0.5789185-0.7235489,1.7114868-0.9625854,2.4980164-0.4719238
				c-0.4216156-0.2328873-0.8557434-0.4654694-1.1829529-0.8243256c-0.9314117-1.0031281-0.4958496-2.4344635,1.7366791-2.4978638
				c1.5289764-0.0377884,2.9510345-0.0629807,4.3731079,0.5097122c-0.4530334-2.2843323-0.4404297-4.6691284,0.0314941-6.9531555
				c0.6914825-3.4144821,3.4299316-3.0500031,4.1528931-0.6857605c0.3209076,1.069809,0.1636047,2.2210388,0.2391052,3.3412399
				c0.2139893,3.1587372,1.7492676,5.5118942,4.7758942,6.4621887c2.4395142,1.2374191,4.0327301,1.02211,8.1987915,6.115921
				c2.3759003,2.9108887,4.2281952,6.3723831,5.2855377,10.1054459
				C216.3347473,106.1520462,216.3850555,106.3723373,216.4228516,106.5926285z"/>
			<path class="st7" d="M170.0864716,58.3306923c-2.4288177,4.7444077-3.3726654,10.3192863-5.4302521,15.0007057
				c-0.8054199,1.8498917-5.1785278,5.9275894-11.1499023,6.109787c-1.4578247,0.0271759-2.8392487-0.1137848-4.4801025-0.6227798
				c-0.0063019,0-0.0063019,0-0.0126038,0c-0.4216003-0.1259689-0.8494415-0.276825-1.2772675-0.4531784h-0.0063019
				c-1.5903168-0.6415787-3.0689697-1.5244217-4.4171906-2.5734482c-8.4191589-6.5565109-3.5740509-14.9063835-2.2086029-17.769249
				c1.2143707-2.5485573,0.5977325-3.4042244,3.7123871-11.2130432c2.1771851-5.4615059,4.593399-6.9654503,6.1286774-7.3117104
				c0.7299957-0.1699028,1.5039368-0.0187416,2.1331635,0.3901978c1.3275909,0.8556633,4.8891296,2.9323006,9.1364136,3.5802727
				c5.4112701,0.8181801,7.8527527,2.8945122,8.7651062,5.2227783
				C172.7418671,53.2025414,170.0864716,58.3306923,170.0864716,58.3306923z"/>
			<path class="st3" d="M152.7860718,54.1806183c0.9153748,0.3406563,1.5730438-0.367466,1.2434845-1.2054214
				c-0.1369934-0.3483047-0.4081573-0.6251526-0.6868591-0.8749504c-3.9307556-3.5229454-10.0542603-2.7065277-9.1826324-0.9464989
				c0.3745117,0.7562141,1.6014404,0.3956375,2.2624054,0.4297943
				C150.2905731,51.783432,151.9445801,53.8674622,152.7860718,54.1806183z"/>
			
				<ellipse transform="matrix(0.3805825 -0.9247469 0.9247469 0.3805825 39.2878304 172.7121277)" class="st3" cx="148.5674744" cy="57.029068" rx="2.2379975" ry="1.2195507"/>
			<path class="st3" d="M159.4228058,56.3499794c-0.9481964-0.234272-1.0926056-1.1898384-0.3482208-1.696476
				c0.3094025-0.2105865,0.6894073-0.2865448,1.0604248-0.3358994c5.2323456-0.6960526,9.831543,3.4284096,8.1198273,4.391449
				c-0.7354584,0.413784-1.54599-0.575367-2.1113129-0.919529
				C162.8351135,55.7754021,160.2944641,56.5653419,159.4228058,56.3499794z"/>
			
				<ellipse transform="matrix(0.2065641 -0.9784331 0.9784331 0.2065641 68.2211151 206.2876587)" class="st3" cx="161.30336" cy="61.0800705" rx="2.2379975" ry="1.2195507"/>
			<path class="st3" d="M153.1585999,63.474884c-0.648468,0.7187881-1.7475128,1.1282501-2.6110992,0.6907654
				c-0.2649689-0.1342316-0.4890594-0.3363686-0.7420349-0.4920197c-0.8777924-0.5400696-1.4150238,0.0923042-1.2349243,0.4940872
				c0.0878448,0.1959915,0.3082123,0.2899704,0.5101318,0.3631668c0.6317291,0.2290268,1.2744446,0.4277725,1.9251862,0.5953369
				c1.647171,0.4241333,2.1871643-0.0086212,2.7171631-1.3704071c0.9815216-2.521904,1.963028-5.043808,2.9445801-7.5657959
				c0.133194-0.3422585,0.7269135-1.7122269,0.21521-1.8892479c-0.6139679-0.2124062-0.8469391,1.2446747-0.9377747,1.5395622
				C154.130661,61.731041,153.9922943,62.5507927,153.1585999,63.474884z"/>
			<path class="st3" d="M153.5063171,79.441185c-1.4578247,0.0271759-2.8392487-0.1137848-4.4801025-0.6227798
				c-0.0063019,0-0.0063019,0-0.0126038,0c-0.4216003-0.1259689-0.8494415-0.276825-1.2772675-0.4531784h-0.0063019
				c-1.5960999-0.6439133-4.2935028-2.3070145-4.4612885-2.6425781c-0.8180237-1.5103912-0.7676392-3.3350906-0.5160065-5.0338211
				c0.1384888-0.9376984,0.3838959-4.9333649,0.8180237-5.1032639c0.2643127-0.106926,0.9942322,0.1889496,1.2836609,0.226738
				c1.3370514,0.2012329,2.7697906,0.1977005,4.0584869,0.2703705c6.5454865,0.3577805,6.364212,3.118576,9.3881073,4.6122971
				C158.4186859,70.7571335,155.5339813,77.872551,153.5063171,79.441185z"/>
			<path class="st11" d="M156.2183228,71.2363281c-0.8430481,1.6178665-3.2187195,2.8405304-5.0842133,3.0957489
				c-1.8498993,0.2451782-3.8005676-0.4405823-5.084137-1.7998123c-1.3207245-1.3864822-1.9374847-3.5262604-1.5919647-5.2916031
				C148.6927032,67.0203705,152.9965973,68.4865265,156.2183228,71.2363281z"/>
			<path class="st19" d="M156.2183228,71.2363281c-0.2391815,0.4590149-0.5978088,0.8808594-1.0320129,1.2584534
				c-3.4292755-1.5982666-7.0599213-2.7688522-10.7723083-3.4736557c-0.075592-0.5975876-0.0692902-1.201622,0.0440063-1.7804642
				C148.6927032,67.0203705,152.9965973,68.4865265,156.2183228,71.2363281z"/>
			<path class="st3" d="M140.9175262,55.9205017c0.030365-1.2139626,0.06073-2.4279289,0.0911102-3.6418915
				c-0.5804749,0.5673714-1.0881653,1.1470261-1.1090088,1.9584656S140.3669281,55.3240776,140.9175262,55.9205017z"/>
			<path class="st3" d="M168.3697968,65.8360901c0.2773895-1.4214401,0.8816376-2.7780724,1.7527161-3.9350853
				C170.3655853,63.5088196,169.6253052,64.8027267,168.3697968,65.8360901z"/>
			<g>
				<path class="st26" d="M277.9975586,265.8217163h-22.2117767l-0.0091095-0.0072632H21.9975491l10.3758678-13.5112152
					l7.4763603-9.7479553l0.0015373-0.0065918l7.8131752-10.1811066l0.0013313-0.006012l5.7553749-7.4936066l0.001297-0.0061035
					c1.3374367-1.7428741,10.2544746-13.3631287,10.6926804-13.9341888h173.6908569
					c21.5188293,29.3875885,14.0912781,19.2440186,15.6992035,21.4399109l7.4589691,10.1876984
					C284.3067627,274.4396973,276.2558899,263.4427185,277.9975586,265.8217163z"/>
				<polygon class="st7" points="226.3328247,216.911026 208.8123627,216.911026 206.0762634,210.9276733 222.730484,210.9276733 
									"/>
				<polygon class="st7" points="231.1207428,224.8644409 235.635437,232.3625793 215.8949127,232.3625793 212.4586334,224.8644409 
									"/>
				<polygon class="st7" points="241.7694702,242.5501251 247.6429901,252.3050232 225.0342255,252.3050232 
					220.5637054,242.5501251 				"/>
				<polygon class="st7" points="192.8035583,216.911026 175.2899017,216.911026 174.1919098,210.9276733 190.8462067,210.9276733 
									"/>
				<polygon class="st7" points="176.7435303,224.8644409 195.4006653,224.8644409 197.8512115,232.3625793 
					178.1159515,232.3625793 				"/>
				<polygon class="st7" points="179.9806213,242.5501251 201.1807251,242.5501251 204.3688202,252.3050232 181.766098,252.3050232 
									"/>
				<polygon class="st7" points="159.2674561,216.911026 141.7606201,216.911026 142.3143616,210.9276733 158.961853,210.9276733 
									"/>
				<polygon class="st7" points="159.6805115,224.8644409 160.0669098,232.3625793 140.3316498,232.3625793 
					141.0233917,224.8644409 				"/>
				<polygon class="st7" points="160.5919037,242.5501251 161.0945892,252.3050232 138.4918671,252.3050232 
					139.3917999,242.5501251 				"/>
				<polygon class="st7" points="127.0843048,210.9276733 125.7449951,216.911026 108.2245255,216.911026 110.4232788,210.9276733 
									"/>
				<polygon class="st7" points="105.3032455,224.8644409 123.9654083,224.8644409 122.287941,232.3625793 102.5473557,232.3625793 
									"/>
				<polygon class="st7" points="98.8029785,242.5501251 120.0088043,242.5501251 117.8264618,252.3050232 95.2176285,252.3050232 
									"/>
				<polygon class="st7" points="95.2000275,210.9276733 92.2157135,216.911026 74.6952438,216.911026 78.5390015,210.9276733 				
					"/>
				<polygon class="st7" points="88.2453308,224.8644409 84.5037155,232.3625793 64.7630615,232.3625793 69.583107,224.8644409 				
					"/>
				<polygon class="st7" points="79.4200592,242.5501251 74.5523071,252.3050232 51.9434013,252.3050232 58.2141647,242.5501251 
									"/>
				<polygon class="st11" points="226.3303223,216.9083862 231.1207428,224.8644409 212.4586334,224.8644409 208.8125,216.9083862 
									"/>
				<polygon class="st11" points="192.8004456,216.9083862 195.4006653,224.8644409 176.7435303,224.8644409 
					175.2872925,216.9083862 				"/>
				<polygon class="st11" points="159.2705231,216.9083862 159.6805115,224.8644409 141.0233917,224.8644409 141.75737,216.9083862 
									"/>
				<polygon class="st11" points="125.7453232,216.9083862 123.9654083,224.8644409 105.3032455,224.8644409 
					108.2274475,216.9083862 				"/>
				<polygon class="st11" points="92.2154541,216.9083862 88.2453308,224.8644409 69.583107,224.8644409 74.697525,216.9083862 				
					"/>
				<polygon class="st7" points="74.6952438,216.911026 69.5846329,224.8618622 53.422493,224.8618622 59.5239754,216.911026 				
					"/>
				<polygon class="st7" points="108.2274475,216.9083862 105.3032455,224.8644409 88.2453308,224.8644409 92.2154541,216.9083862 
									"/>
				<polygon class="st7" points="141.75737,216.9083862 141.0233917,224.8644409 123.9654083,224.8644409 125.7453232,216.9083862 
									"/>
				<polygon class="st7" points="175.2872925,216.9083862 176.7435303,224.8644409 159.6805115,224.8644409 
					159.2705231,216.9083862 				"/>
				<polygon class="st7" points="208.8125,216.9083862 212.4586334,224.8644409 195.4006653,224.8644409 192.8004456,216.9083862 
									"/>
				<polygon class="st7" points="248.0106964,224.8683014 231.1205597,224.8683014 226.3297577,216.9096069 
					242.1819153,216.9096069 				"/>
				<polygon class="st11" points="235.635437,232.3625793 241.7694702,242.5501251 220.5637054,242.5501251 
					215.8949127,232.3625793 				"/>
				<polygon class="st11" points="197.8512115,232.3625793 201.1807251,242.5501251 179.9806213,242.5501251 
					178.1159515,232.3625793 				"/>
				<polygon class="st11" points="160.0669098,232.3625793 160.5919037,242.5501251 139.3917999,242.5501251 
					140.3316498,232.3625793 				"/>
				<polygon class="st11" points="122.287941,232.3625793 120.0088043,242.5501251 98.8029785,242.5501251 102.5473557,232.3625793 
									"/>
				<polygon class="st11" points="84.5037155,232.3625793 79.4200592,242.5501251 58.2141647,242.5501251 64.7630615,232.3625793 
									"/>
				<polygon class="st7" points="64.7637405,232.3615723 58.2118607,242.5486908 39.8513145,242.5486908 47.6644897,232.3675842 
					47.6658211,232.3615723 				"/>
				<polygon class="st7" points="102.5473557,232.3625793 98.8029785,242.5501251 79.4200592,242.5501251 84.5037155,232.3625793 
									"/>
				<polygon class="st7" points="140.3316498,232.3625793 139.3917999,242.5501251 120.0088043,242.5501251 122.287941,232.3625793 
									"/>
				<polygon class="st7" points="178.1159515,232.3625793 179.9806213,242.5501251 160.5919037,242.5501251 
					160.0669098,232.3625793 				"/>
				<polygon class="st7" points="215.8949127,232.3625793 220.5637054,242.5501251 201.1807251,242.5501251 
					197.8512115,232.3625793 				"/>
				<polygon class="st7" points="260.9606323,242.5528412 241.7718811,242.5528412 235.6355743,232.3647003 
					253.5016632,232.3647003 				"/>
				<polygon class="st11" points="255.7766724,265.8144531 231.2232208,265.8144531 225.0327759,252.3032379 
					247.6454315,252.3032379 				"/>
				<polygon class="st11" points="208.7851715,265.8144531 184.2391968,265.8144531 181.7623901,252.3032379 
					204.367691,252.3032379 				"/>
				<polygon class="st11" points="161.7935944,265.8144531 137.2477112,265.8144531 138.4918213,252.3032379 
					161.0971222,252.3032379 				"/>
				<polygon class="st11" points="117.8267365,252.3032379 114.8021011,265.8144531 90.2486496,265.8144531 95.2214355,252.3032379 
									"/>
				<polygon class="st11" points="74.5561752,252.3032379 67.8106155,265.8144531 43.257164,265.8144531 51.9435196,252.3032379 
									"/>
				<polygon class="st7" points="51.9435196,252.3032379 43.257164,265.8144531 21.9975491,265.8144531 32.3734169,252.3032379 				
					"/>
				<polygon class="st7" points="95.2214355,252.3032379 90.2486496,265.8144531 67.8106155,265.8144531 74.5561752,252.3032379 
									"/>
				<polygon class="st7" points="138.4918213,252.3032379 137.2477112,265.8144531 114.8021011,265.8144531 
					117.8267365,252.3032379 				"/>
				<polygon class="st7" points="184.2391968,265.8144531 161.7935944,265.8144531 161.0971222,252.3032379 
					181.7623901,252.3032379 				"/>
				<polygon class="st7" points="231.2232208,265.8144531 208.7851715,265.8144531 204.367691,252.3032379 225.0327759,252.3032379 
									"/>
				<polygon class="st7" points="277.9975586,265.8217163 255.7857819,265.8217163 255.7766724,265.8144531 
					247.6454315,252.3032379 268.0975342,252.3032379 				"/>
			</g>
			<path class="st74" d="M199.4364929,206.4997559c-1.6738434,3.3700867-17.5240784,6.0267181-37.0049591,6.1080017
				c-0.9059296,0.0166473-2.5947266-0.0068512-3.6810455-0.0175476
				c-18.6376648-0.2319641-33.5629425-2.8248749-35.1864014-6.0904541
				c-0.1530533-0.2950134-0.2006531-0.6316376-0.0818024-0.9918365c1.1640549-3.520752,17.744278-6.30513,38.0180054-6.30513
				s36.8538666,2.7843781,38.0179291,6.30513C199.6359711,205.8641968,199.5898895,206.2037354,199.4364929,206.4997559z"/>
			<path class="st11" d="M197.5156555,205.9016418c-0.7928314,0.6796112-3.0644073,1.5543213-6.8208923,2.3721924
				c-15.9749603,3.4596863-45.3237,3.1522064-59.5752869-0.2454834c-3.0832367-0.7422943-4.9521103-1.5100861-5.644165-2.1202545
				c2.0134964-1.7746277,14.0129242-4.8199921,36.0233154-4.8199921
				C183.4901276,201.0881042,195.489563,204.1273193,197.5156555,205.9016418z"/>
			<path class="st74" d="M199.5669403,206.0967407c-0.2265778,2.2588196-0.6921997,4.4927673-1.3780365,6.6634216
				c-8.2880707,26.4709015-43.5529327,34.4639587-63.9799805,14.8876495
				c-6.0216827-5.7776642-9.9538422-13.339798-10.7786102-21.5449371c0.0188217,0.1321259,0.0628357,0.2645416,0.1321182,0.3966522
				c1.6233826,3.2656555,16.5487289,5.8581543,35.1863937,6.0907288c1.6294861,0.0174103,2.8840637,0.0349426,3.6810455,0.0190582
				c19.480896-0.0820313,35.3311157-2.7372131,37.0048828-6.109787
				C199.5039673,206.3674164,199.5480499,206.2350006,199.5669403,206.0967407z"/>
			<path class="st15" d="M186.3153687,230.0387573c-15.0965271,11.9750366-37.7653046,11.3529205-52.1064453-2.3909454
				C150.2533569,234.1368713,168.5574188,235.4136963,186.3153687,230.0387573z"/>
			<path class="st15" d="M199.5669403,206.0967407c-0.2265778,2.2588196-0.6921997,4.4927673-1.3780365,6.6634216
				c-13.2326965,4.002121-24.1434937,5.0842133-37.9299164,4.9333649
				c-9.4572449-0.1133728-25.6661682-0.730011-35.4695892-5.0089417c-0.6733246-2.1267242-1.1326447-4.3290253-1.3590851-6.5817108
				c0.0188217,0.1321259,0.0628357,0.2645416,0.1321182,0.3966522c1.6233826,3.2656555,16.5487289,5.8581543,35.1863937,6.0907288
				c1.0262604,0.0109711,2.774231,0.0371246,3.6810455,0.0190582c19.480896-0.0820313,35.3311157-2.7372131,37.0048828-6.109787
				C199.5039673,206.3674164,199.5480499,206.2350006,199.5669403,206.0967407z"/>
			<path class="st7" d="M190.6947632,208.2738342c-15.9749603,3.4596863-45.3237,3.1522064-59.5752869-0.2454834
				c0.5599365-1.3779602,1.7618561-2.5608368,3.1587372-3.1461334c4.6234894-1.9372406,9.6878052,1.1388092,14.4029694,1.1263428
				c6.2293701-0.0061493,11.9050293-4.9517975,18.0714111-4.0331421c4.3543701,0.6479645,8.1422577,4.1778564,12.5217438,3.7815094
				c1.6484985-0.1511688,3.1775513-0.8495178,4.769516-1.2897949c1.5918884-0.434433,3.4041443-0.5788422,4.7947235,0.3020172
				C190.0089264,205.5052948,190.644455,206.877121,190.6947632,208.2738342z"/>
			<path class="st19" d="M168.2300873,170.5760803l0.0938568,0.1405945c-0.3363342,2.359436-0.377243,4.6792908,0.2823792,6.9951477
				c0.8939972,3.1399384,4.2566681,7.2530975,3.1381226,12.1814117c-1.3145752,5.7909546-7.6121674,8.9608002-8.9788361,14.2310638
				c-0.112381,0.7487946-0.1035461,1.4185944-0.0382538,2.1704102c-2.937439-5.7347107,3.3494873-10.1704559,4.818573-15.0570221
				C169.7492218,183.908905,164.2461243,180.0901031,168.2300873,170.5760803z"/>
			<path class="st19" d="M165.5668945,173.6626587l0.147934,0.0045013
				c-0.0922546,0.1550293-0.5731506,0.3265533-0.7520752,0.4529114c-1.9228668,1.3582153-2.8732605,3.3914337-1.9546509,5.6513519
				c0.4888611,1.2023468,2.77948,3.9860687,2.1975555,6.956604c-0.5547638,2.8318787-3.8038635,4.0792389-4.2593689,7.0472717
				c-0.2467957,1.6083984,0.4430084,2.9493256,1.3705139,4.1968842c-7.2950592-2.9137726-1.2870483-8.1631317-1.0569458-12.1985474
				c0.2027588-3.5591431-3.0307007-6.4837952-0.7419891-9.5725708
				C161.8307037,174.4292297,163.4901886,173.9692383,165.5668945,173.6626587z"/>
			<path class="st27" d="M200.6271057,130.1854401c-0.8141174,6.8923798-0.9719391,15.7066498,2.0024414,22.0214844
				C198.9666138,146.2463531,199.1792297,136.438324,200.6271057,130.1854401z"/>
			<path class="st27" d="M104.1413803,130.3993073c-6.0123367,3.1860962-14.0140839,3.7124786-20.3789673,1.3491211
				C90.8140335,133.4410095,97.4467926,132.9824829,104.1413803,130.3993073z"/>
		</g>
	</g>
</g>
</svg>
