<?xml version="1.0" encoding="utf-8"?>
<!-- Generator: Adobe Illustrator 22.0.1, SVG Export Plug-In . SVG Version: 6.00 Build 0)  -->
<svg version="1.1" id="Layer_1" xmlns="http://www.w3.org/2000/svg" xmlns:xlink="http://www.w3.org/1999/xlink" x="0px" y="0px"
	 viewBox="0 0 300 300" style="enable-background:new 0 0 300 300;" xml:space="preserve">
<style type="text/css">
	.st0{fill:#EDC1A4;}
	.st1{fill:#E2E0E0;}
	.st2{fill:#D39E81;}
	.st3{fill:#502E26;}
	.st4{fill:#CCCACA;}
	.st5{fill:#426800;}
	.st6{fill:#538705;}
	.st7{fill:#D47E44;}
	.st8{fill:#73341D;}
	.st9{fill:#BC672E;}
	.st10{fill:#96311D;}
	.st11{fill:#B83E21;}
	.st12{fill:#DE8D82;}
	.st13{fill:#EFBAB4;}
	.st14{fill:#FDD5D0;}
	.st15{fill:#6883CE;}
	.st16{fill:#3D4885;}
	.st17{fill:#3859AE;}
	.st18{fill:#864424;}
	.st19{fill:#FEFEFE;}
	.st20{fill:#FFFFFF;}
	.st21{fill:#A55925;}
	.st22{fill:#F4F2F2;}
	.st23{fill:#3C3E68;}
	.st24{fill:#E8997C;}
	.st25{fill:#F5C46B;}
	.st26{fill:#F7EBDA;}
	.st27{fill:#0E0C0D;}
	.st28{fill:#657C3A;}
	.st29{fill:#576C37;}
	.st30{fill:#7C995D;}
	.st31{fill:#36518C;}
	.st32{fill:#96B7E3;}
	.st33{fill:#A3B3DF;}
	.st34{fill:url(#SVGID_1_);}
	.st35{fill:url(#SVGID_2_);}
	.st36{fill:url(#SVGID_3_);}
	.st37{fill:url(#SVGID_4_);}
	.st38{fill:url(#SVGID_5_);}
	.st39{fill:#266AB7;}
	.st40{fill:#060E0D;}
	.st41{fill:#E0D4C6;}
	.st42{fill:#787E42;}
	.st43{fill:#D3D1D1;}
	.st44{fill:url(#SVGID_6_);}
	.st45{fill:url(#SVGID_7_);}
	.st46{fill:url(#SVGID_8_);}
	.st47{fill:#020508;}
	.st48{fill:#BAB6B6;}
	.st49{fill:#0F0B07;}
	.st50{fill:#2F3A68;}
	.st51{fill:#203257;}
	.st52{opacity:0.5;fill:#FFFFFF;}
	.st53{opacity:0.2;fill:#0E0C0D;}
	.st54{fill:#DD9F9B;}
	.st55{fill:#3E4D9B;}
	.st56{fill:url(#SVGID_9_);}
	.st57{fill:#5F6194;}
	.st58{fill:url(#SVGID_10_);}
	.st59{fill:url(#SVGID_11_);}
	.st60{fill:url(#SVGID_12_);}
	.st61{fill:url(#SVGID_13_);}
	.st62{fill:#070102;}
	.st63{fill:#100805;}
	.st64{fill:#FDA465;}
	.st65{fill:#2A50A1;}
	.st66{fill:#B76C39;}
	.st67{fill:#130602;}
	.st68{fill:url(#SVGID_14_);}
	.st69{fill:url(#SVGID_15_);}
	.st70{fill:url(#SVGID_16_);}
	.st71{fill:url(#SVGID_17_);}
	.st72{fill:url(#SVGID_18_);}
	.st73{fill:url(#SVGID_19_);}
	.st74{fill:#B4BDED;}
	.st75{fill:#100D08;}
	.st76{fill:#F6C85F;}
	.st77{fill:#FECF00;}
	.st78{fill:#2D59E2;}
	.st79{fill:#121F3A;}
	.st80{fill:#BBD0F5;}
	.st81{fill:#020202;}
	.st82{fill:#E2CFB7;}
	.st83{fill:#080805;}
	.st84{fill:#A87D7C;}
	.st85{fill:#182052;}
	.st86{fill:#EAEAEA;}
	.st87{fill:#DDDDDD;}
	.st88{fill:#3D4574;}
	.st89{fill:#ABC5F0;}
	.st90{fill:url(#SVGID_20_);}
	.st91{fill:#4159A8;}
	.st92{fill:#E0D0BD;}
	.st93{fill:#3D53AA;}
	.st94{fill:#0A0000;}
	.st95{fill:#BF6D36;}
	.st96{fill:#385DAE;}
	.st97{fill:#E0DCDC;}
	.st98{fill:#857E78;}
	.st99{fill:#0E213C;}
	.st100{fill:url(#SVGID_21_);}
	.st101{fill:#55608E;}
	.st102{opacity:0.3;fill:#F4F2F2;}
	.st103{opacity:0.3;}
	.st104{fill:#213987;}
	.st105{enable-background:new    ;}
</style>
<g id="Bartender_1_">
	<g id="Bartender">
		<g>
			<path class="st7" d="M106.684021,97.1874466l-3.6867218,0.0530853l7.4214859-17.4916153l1.5907211-37.759613
				c0,0-47.7646408,45.0079803-50.8965721,77.3887787c0,0-1.2790642,12.8464966,43.496418,18.184845l20.675766-18.3641205
				L106.684021,97.1874466z"/>
			<path class="st31" d="M159.2371674,23.8437328c0,0,1.2893219-1.2632866,2.2875671-1.4132938
				c0.9982605-0.1500072,2.7030792,0.6990089,5.3326721,3.8837891c1.8320923,2.2188892,2.0547943,3.5589981,2.0769043,3.9573669
				c0.0044861,0.0807915-0.0066681,0.1553574-0.0310211,0.232523c-0.1334991,0.4231014-0.7069244,1.9647465-2.0019684,2.0718861
				C165.3991547,32.7002831,159.2371674,23.8437328,159.2371674,23.8437328z"/>
			<path class="st26" d="M126.6366425,44.0476799c0,0,19.4653473-19.0690937,32.9386292-20.6693096
				c0.0615997-0.0073147,0.1201324-0.0043926,0.1807404,0.0088272c0.7995453,0.1744061,6.4993744,1.660738,8.0311737,8.8586521
				c0.0237274,0.111454,0.0110474,0.2287064-0.0359802,0.3324966c-0.8113098,1.7904129-8.5844727,18.1075516-26.3632355,27.3097496
				C125.8048325,67.9538498,126.6366425,44.0476799,126.6366425,44.0476799z"/>
			<path class="st32" d="M141.8419189,61.6212692c0,0-0.005249,0.0053711-0.0208588,0.0158653
				c-4.9772491,4.3901863-28.4235229,24.6737022-34.7917328,26.6689644
				c-7.0327072,2.190361-15.2026901-18.9707031-15.2026901-18.9707031
				c1.2631226-1.1025009,22.9121246-21.9279709,34.8125916-26.689949c2.1539078-1.7187691,7.3001022,1.1269112,11.4976273,6.3674088
				C142.3346252,54.2533531,143.9905701,59.8973808,141.8419189,61.6212692z"/>
			<path class="st31" d="M141.8419189,61.6212692c0,0-0.005249,0.0053711-0.0208588,0.0158653
				c-0.6237183,0.550148-15.4438553,13.5833244-25.9771805,21.2764702
				c-0.9223328-3.7156906-2.1958618-7.2842407-4.3863602-10.4863663c-3.0290222-4.4229507-7.4204941-8.0808105-12.4933853-9.6529579
				c7.6878967-6.84412,19.8563156-17.000145,27.6750946-20.1288338c2.1539078-1.7187691,7.3001022,1.1269112,11.4976273,6.3674088
				C142.3346252,54.2533531,143.9905701,59.8973808,141.8419189,61.6212692z"/>
			<path class="st26" d="M218.8204346,122.2785797c0,0-6.5850983-5.3165588-28.6127625-13.0882187
				c0,0-13.9996338-13.4358978-45.4753418-13.5298538c0,0-15.9375916,46.7477722-14.5856171,81.6277771l60.9552307,29.8540344
				l23.8028412-54.6242981L218.8204346,122.2785797z"/>
			<path class="st15" d="M191.9201508,205.2633667c1.5826416,10.8530426,10.2766724,28.1886444,10.2766724,28.1886444
				s-6.634552,2.2796783-16.0674591,5.1304779c-22.5393829,6.8126373-61.0675278,16.8954773-63.3837891,7.0222168
				c-3.3057404-14.0967255,0.0746155-19.4365082,5.4082336-58.8872833
				c5.3872375-39.7177582,14.631424-59.7260666,14.631424-59.7260666c3.1495514-6.6972427,17.17836-30.1538391,17.17836-30.1538391
				c2.1957397,0.1939545,4.1504364,0.5974884,5.9375305,1.1581268c-4.590683,5.4764252-17.8911285,33.5130844-17.8911285,33.5130844
				l31.0866699,10.6486053c4.9417572-16.8010712,18.6770782-30.1694565,18.6770782-30.1694565
				c2.3844452,0.2986145,4.4125824,0.8856125,5.4867859,2.2218399c-7.2003174,2.7985992-22.8012848,36.185791-23.2362823,37.7998962
				c-0.4350128,1.6192322-3.3382568,25.1490173-1.4831085,37.197052
				C180.3963013,201.254425,191.9201508,205.2633667,191.9201508,205.2633667z"/>
			<path class="st23" d="M186.129364,238.582489l1.6979218-21.7690582
				c-40.2731476,8.5682678-58.8088531-4.2865601-62.9802628-7.8031616c0.4402466-2.7512665,0.9170837-5.7801666,1.4201508-9.1289063
				c2.7460098,2.4055634,11.6653519,8.8251648,30.0857773,10.4234161
				c22.7907867,1.9756775,35.5671997-5.0414124,35.5671997-5.0414124
				c1.5826416,10.8530426,10.2766724,28.1886444,10.2766724,28.1886444S195.5622711,235.7316895,186.129364,238.582489z"/>
			<path class="st26" d="M144.7323303,95.6605072c0,0-22.3013382-0.7493591-38.0483093,1.5269394
				c0,0,5.8398819,22.5422592-2.0746689,40.3754807c0,0,21.6967087,0.7656097,30.8474197-3.03862
				C144.6074677,130.7200928,144.7323303,95.6605072,144.7323303,95.6605072z"/>
			
				<ellipse transform="matrix(0.780394 -0.6252881 0.6252881 0.780394 -27.4510212 79.4792099)" class="st31" cx="99.4257736" cy="78.8204956" rx="4.9894705" ry="12.1563063"/>
			
				<ellipse transform="matrix(0.780394 -0.6252881 0.6252881 0.780394 -27.4510212 79.4792099)" class="st32" cx="99.4257736" cy="78.8204956" rx="2.3529696" ry="8.9136877"/>
			<ellipse class="st25" cx="144.4455109" cy="42.6616783" rx="4.0509648" ry="5.5635471"/>
			<ellipse class="st25" cx="158.6065979" cy="38.1408501" rx="4.0509648" ry="5.5635471"/>
			<path class="st7" d="M183.6526642,131.596756c0,0-2.694809,1.4300079-3.7399597,2.3918457
				c0,0-8.940918-7.4657211-20.2481384-19.0863495c-8.4844513-8.7196198-20.5737457-25.1034088-20.5737457-25.1034088
				c2.5983582-5.7827454,5.1453705-11.8443069,6.5239716-18.0460129c0.3423157-1.5399094,0.4812927-2.715683,0.0152435-4.2450256
				c-0.6527405-2.1419907-2.2301636-3.8761215-3.7675018-5.4387131
				c-5.3163757-5.4037361-11.2560272-10.1938019-17.6633682-14.2447548
				c-0.5960922-0.376873-1.2162399-0.7551346-1.9119415-0.8707161c-1.700798-0.2825699-2.8640823,1.1532516-1.551384,3.1888809
				c1.1008453,1.7070923,2.0249405,2.2687836,10.9736176,9.2335358c-4.538353-3.0699539-9.1153488-6.3360252-14.5362091-7.5647469
				c-0.4009705-0.090889-0.8140259-0.1726341-1.2209015-0.1135139c-0.9309311,0.1352692-1.3502655,0.9477806-0.8557434,1.7892036
				c0.5319443,0.9051018,4.4734116,3.9305763,5.7599411,4.8167953c1.9633408,1.3524284,3.9266815,2.7048607,5.8900223,4.0572891
				c-11.6838989-5.96418-9.6654968-5.205452-11.4294434-6.0110321c-1.072319-0.4897194-3.0243225-0.6595116-3.6152573-0.0442543
				c-0.4606247,0.4795914-0.5707626,0.9513054-0.3251495,1.5692482c0.9561462,2.4055481,5.0789413,2.8978233,12.0119476,7.3421898
				c0.3972244,0.2546387,0.8470535,0.686554,1.2855377,0.8504868c-8.1855774-3.0606537-7.0639114-2.7679939-12.1266098-3.9006271
				c-0.934967-0.2091713-2.4338303-0.7830391-3.235321-0.0009155c-0.4428482,0.432148-0.5595093,1.1620979-0.273407,1.710743
				c0.3944016,0.756321,0.4975891,0.6611748,9.4415207,5.1492882c1.2110672,0.6077194,2.4719772,1.1452255,3.5936584,1.9087143
				c0.3026352,0.2059937,2.8699722,2.0971527,2.6622543,2.4519272c-4.176506,7.1333694-2.5977783,15.8294296,3.2477722,21.0493774
				c0,0,7.5985413,25.991333,14.9728699,42.8410263s17.3196869,31.9265747,28.2560577,35.9620667
				s30.8107147-3.947052,30.8107147-3.947052s6.5453186-6.2497253,6.2999268-6.2497253
				c-0.2453766,0-0.1635895-9.6517487-0.1635895-9.6517487l-3.8443451-9.8153534l-5.8074188-13.5779114l-10.3879089,1.0540009
				L183.6526642,131.596756z"/>
			<path class="st26" d="M183.6526642,131.596756c8.9373169-1.7581177,20.9030151,22.2416687,18.371048,37.6954956
				c0,0,16.4223022-2.7332611,24.5064087-16.7432709c8.0840912-14.0100098-0.4307556-25.7886047-7.7096863-30.270401
				C207.7351685,115.4531555,183.6526642,131.596756,183.6526642,131.596756z"/>
			<path class="st11" d="M25.2228012,240.5028381v23.3490601c0,18.3120422,249.240387,18.3120422,249.240387,0v-23.3490601
				H25.2228012z"/>
			<polygon class="st18" points="277.9489136,242.290329 22,242.290329 34.0026741,231.9095459 265.946228,231.9095459 			"/>
			<rect x="22" y="242.290329" class="st3" width="256" height="5.0784144"/>
			<path class="st7" d="M142.6673737,32.1018906c-10.7511292-0.3267879-19.6765366,5.908371-28.31987,12.1241035
				c-1.0917282,0.785099-2.3117523,1.8492508-2.1273956,3.1812668c0.0983276,0.710453,0.6449585,1.338562,1.3350449,1.5340157
				c0.6900787,0.1954536,1.4242325-0.8329926,2.094696-1.087738c7.8042221-2.9652748,17.217308-1.1348991,23.3416824,4.5387955
				c0.5931396,0.5494919,1.1764069,1.1441956,1.9218292,1.4573708c1.9457855,0.8174706,3.7548065-0.9294014,1.6327362-3.5938835
				c-2.2259064-2.794857-5.353241-4.8600731-8.7976532-5.8097496c8.1493988,0.0079346,9.7925873,2.4084244,11.6763306,2.5977554
				c1.4472961,0.1454659,2.3736267-1.0688896,1.5441132-2.3536606c-0.9447937-1.4633179-5.5817108-3.8904762-8.4945221-4.8779602
				c6.7282257,0.3628769,9.1697693,2.35989,10.9577026,2.3879662c1.8092194,0.0284081,2.6526337-1.6201363,1.4997711-2.9751968
				c-0.4444122-0.5223579-1.0692749-0.8537598-1.6923218-1.1404114c-2.637085-1.2132492-5.5396118-1.8454742-8.4423828-1.838913
				c3.3040924,0.4348564,6.5588989,0.3430595,9.8629761,0.777916c2.6353607,0.3468475,3.0396881-1.6537247,0.7000122-2.8256721
				c-4.3213196-2.1645775-9.5926666-2.4696236-14.3557892-2.4828224
				c-10.0395203-0.0278206-19.6242371,3.3525085-25.8088608,11.2604675
				c-2.5314865,3.2368851-5.7687454,8.2373085-3.367012,12.2000923c0,0,7.1949081-4.8572922,7.9113007-5.3096542
				c2.7742462-1.7517815,5.7222137-3.0764236,8.6615448-4.4942741"/>
			<g>
				<path class="st21" d="M128.6739807,94.4690399c-0.4901886,0-0.4994812-0.7372971-0.0097656-0.75
					c1.753418-0.0458984,3.4853516-1.0380859,4.4121094-2.527832c0.2618103-0.4219437,0.8985901-0.0255508,0.6367188,0.3964844
					C131.8920898,94.5143127,128.7739868,94.4398651,128.6739807,94.4690399z"/>
			</g>
			<g>
				<path class="st21" d="M182.1407776,155.4304657c1.8671875-7.1660156,0.9145508-15.0092773-2.6142578-21.5195313
					c-0.2358246-0.4354401,0.4217682-0.7946472,0.6591797-0.3574219c3.6186523,6.675293,4.5957031,14.7182617,2.6806641,22.0664063
					C182.7412262,156.0995789,182.0156555,155.9110718,182.1407776,155.4304657z"/>
			</g>
			<g>
				<path class="st21" d="M79.2901917,112.3259735c9.4116211-1.9057617,18.0849609-7.4262695,23.7954102-15.1464844
					c0.2941437-0.3988571,0.8984833,0.0474091,0.6025391,0.4462891
					c-5.8193359,7.8671875-14.6577148,13.4931641-24.2495117,15.4355469
					C78.9500961,113.1571198,78.805191,112.4239044,79.2901917,112.3259735z"/>
			</g>
			<path class="st3" d="M196.028183,56.9207039c0.150528-2.5802383,0.7449341-4.9017525,2.7549591-6.7007675
				c1.831955-1.6394081,4.4384003-2.4364319,6.8704681-2.2240677c2.5059814,0.2187462,4.6208496,1.5275116,6.1829834,3.4495087
				c1.6289673,2.0036392,2.4713593,4.5869141,2.1457672,7.1661491c-0.2879639,2.2781677-1.416626,4.2811432-3.2566376,5.6581192
				c-0.812149,0.6078568-1.7889252,0.9751129-2.7086029,1.3894196c1.563324,4.3998947,2.1569214,9.1883087,0.5226135,13.6914215
				c-0.687027,1.8930054-1.2337189,3.8582611-2.4445801,5.5186157c-3.6862488,5.0545959-10.2664337,6.3105011-16.3719788,4.7236938
				c-3.7967224-0.9867477-7.2700348-2.9641037-10.4548187-5.2544785c-2.800293-2.0138626-5.5009155-4.3979263-6.8762665-7.5611115
				c-0.8641815-1.9875412-1.0872345-4.319603-0.4714966-6.4096832c0.3325958-1.1289673,1.000061-1.8579788,1.5721283-2.8368835
				c0.4639893-0.7939606,0.7470703-1.7119217,1.2064362-2.5279236c2.0785217-3.6921577,5.0478516-6.8062553,9.0551453-8.3625832
				C187.8872528,55.0349998,191.9261322,55.492321,196.028183,56.9207039z"/>
			<path class="st7" d="M193.3875122,101.0979767c-0.0262299,0.6865387-0.0890503,1.3784485-0.1729736,2.0649796
				c-0.2864075,2.4277802-1.2058258,6.9317398-2.3897095,9.0710831c-1.589035,2.8770218-21.2007751,3.2169876-23.9647827-5.82724
				c-0.1152802-0.3774338-0.1833344-0.7546005-0.2095642-1.126915c-0.136261-1.5248108,0.3720551-3.0340118,1.0848236-4.4490509
				c0.6130829-1.2105865,1.3781891-2.358223,2.0332489-3.401207c1.872818-2.9929199,3.1016998-6.3622055,6.3095703-8.4108963
				c4.1158295-2.6670456,9.690918-2.402832,13.5466156,1.2157059
				C192.6177063,93.0385895,193.5651398,97.00103,193.3875122,101.0979767z"/>
			<path class="st9" d="M193.3875122,101.0979767c-0.0262299,0.6865387-0.0890503,1.3784485-0.1729736,2.0649796
				c-2.190506,1.0688324-4.5329895,1.8392944-6.9174347,2.3738327c-3.8098602,0.8490219-7.7297363,1.1110535-11.6286316,1.1635056
				c-2.0857086,0.0261002-4.2081451-0.0158615-6.1995544-0.6343384c-0.62883-0.1937027-1.2419281-0.4610977-1.8184357-0.7860718
				c-0.136261-1.5248108,0.3720551-3.0340118,1.0848236-4.4490509c0.6130829-1.2105865,1.3781891-2.358223,2.0332489-3.401207
				c1.872818-2.9929199,3.1016998-6.3622055,6.3095703-8.4108963c4.5172424-0.817543,9.2599182-0.4088974,13.5466156,1.2157059
				C192.6177063,93.0385895,193.5651398,97.00103,193.3875122,101.0979767z"/>
			<path class="st7" d="M210.0496826,88.3707809c-0.8856812,2.0383682-2.5154114,4.2709503-4.6640625,5.0465393
				c-1.3258667,0.4820786-2.3057709,0.2934952-3.5949707-0.1571121c-2.0549469,4.2732086-4.8518982,8.1613998-9.4823151,9.7353745
				c-4.6556549,1.5825729-9.9695129,1.2640686-14.3386993-1.0263519c-3.1135559-1.6322021-5.8309326-4.360466-6.9406586-7.7491226
				c-1.034317-3.1584091-1.5874176-7.6991119-1.1586914-11.960083c-2.5996094-0.137291-3.2289581-2.0326233-3.2406158-4.6483154
				c-0.0069122-1.5536118,0.1062012-3.1367416,0.6724243-4.5835114c0.5662231-1.4467773,1.6420746-2.7539291,3.0973053-3.2980423
				s3.2883453-0.1700439,4.1989136,1.0887833c2.1218262-2.6543198,3.7222137-5.5555573,9.0759583-9.4001312
				c3.2700653,3.6944504,7.3942719,6.1419754,12.4094696,6.4771805c2.9503784,0.1939621,3.7783661-0.3615494,5.9950409,2.091011
				c0.7050323,0.7800751,1.646225,1.3719025,2.2223358,2.2652588c0.7583618,1.1759415,0.3202057,2.4019775,0.0950623,3.6911392
				c-0.3828125,2.1920776-0.9223328,4.3579865-1.6381531,6.4654388c-0.1790314,0.5270996-1.0150909,2.3198318,0.1495514,1.6970596
				c0.8200226-0.4384918,1.4451141-1.606041,2.2908936-2.1437988c1.2503815-0.7950058,2.8969727-1.1300125,4.2251129-0.4730759
				C211.8695679,82.6988907,210.9058228,86.377121,210.0496826,88.3707809z"/>
			<path class="st3" d="M178.4793701,69.6504822c1.3529053-0.0249939,3.8668213,0.8974075,5.2893829,1.7806168
				c2.1890259,1.3590622,0.6832733,3.1551437-1.1226807,2.6518173c-0.6161957-0.1717377-1.6106415-0.7767944-3.3638-1.3309555
				c-1.3110809-0.4146881-4.8428497-0.3705597-2.3759766-2.3462143
				C177.356842,70.0449142,177.8988037,69.6612015,178.4793701,69.6504822z"/>
			<path class="st3" d="M192.8927917,75.912117c0.7715912-0.1110153,1.8002014,0.1653519,2.5689545,0.3040466
				c1.779892,0.321106,3.5239105,0.9560318,4.8586731,2.2171173c2.0016479,1.8908768,1.3314972,2.9576797,0.2117615,2.8057022
				c-1.0742493-0.145813-1.9271851-0.9575958-2.8657074-1.4229889c-2.0604248-1.0217209-4.4352875-0.5695419-5.5945129-1.6552277
				C191.2854462,77.4222488,192.0473633,76.0337601,192.8927917,75.912117z"/>
			
				<ellipse transform="matrix(0.4183198 -0.9082998 0.9082998 0.4183198 33.8496094 207.0450134)" class="st3" cx="178.5762939" cy="77.0942383" rx="2.0792696" ry="1.4422014"/>
			
				<ellipse transform="matrix(0.4183198 -0.9082998 0.9082998 0.4183198 38.3767548 225.3231201)" class="st3" cx="195.110611" cy="82.6987076" rx="2.0792696" ry="1.4422014"/>
			<path class="st3" d="M189.2898407,89.327858c-0.5518036,7.8504333-13.418045,5.7908401-11.8067322-3.9723358
				C181.0046997,87.640564,185.1028137,89.0187531,189.2898407,89.327858z"/>
			<path class="st20" d="M189.2898407,89.327858c-0.0733185,1.042984-0.3981628,1.9810562-0.9431915,2.7512665
				c-3.8308411-0.4350052-7.5621338-1.6926727-10.8845215-3.6524887c-0.1729889-0.9851456-0.1520081-2.0230103,0.0209808-3.0711136
				C181.0046997,87.640564,185.1028137,89.0187531,189.2898407,89.327858z"/>
			<path class="st9" d="M203.5623932,89.1487885c0.6330109-1.2361374,1.2660217-2.4722748,1.8990326-3.7084122
				c0.8905334-1.7390213,2.9119873-0.1017609,1.478363,2.0304413
				C206.1060333,88.7108688,205.0558777,89.0998993,203.5623932,89.1487885z"/>
			<path class="st9" d="M170.2349854,78.5263748c0.6134796-1.2459488,1.2269592-2.49189,1.8404388-3.7378387
				c0.2339478-0.4751587,0.311142-1.0798798-0.1342773-1.3664398c-0.6882172-0.4427719-1.8392334-0.1331329-2.3772125,1.3931961
				C169.0671997,76.2246017,169.3822937,77.2992554,170.2349854,78.5263748z"/>
			<path class="st9" d="M183.5253754,81.4702606c-0.4156647,0.4377289-0.8381042,0.9113617-0.9756317,1.4991302
				c-0.2444458,1.0446777,0.5292206,2.1116257,1.5002441,2.5686874c0.4973297,0.2340012,1.7401886,0.7754288,2.2699432,0.4456177
				c1.0300598-0.6413116-0.5066528-1.3832016-1.1128998-1.4881134c-0.5292664-0.0915909-1.1673889-0.0737686-1.4745026-0.5144272
				c-0.2000885-0.2870712-0.172226-0.6856232-0.0207825-1.0010757c0.222168-0.4627686,0.5744171-0.7285233,3.0299377-3.1148911
				c0.8040924-0.781456,0.8264313-1.9014206-0.3963013-1.1262054
				C185.305603,79.3981934,184.3693542,80.5814743,183.5253754,81.4702606z"/>
			<path class="st14" d="M54.6243515,198.3997955c-0.4337234-2.8597565-1.6336899-8.1795807-1.5872459-10.8218384
				c0.026741-1.5286407,0.6551895-2.5470581,1.1968956-3.8326263c0.0001259-0.5979919-5.6392937-0.5979919-5.6394196,0
				c0.2745628,1.1113129,1.2868385,2.9150238,1.1834602,3.8080597c-0.3611794,3.1125793-1.0584602,6.1629639-1.6088676,9.2450867
				c-0.0191345,0.1071472-5.9520073,36.73526-6.3153381,38.4731293c0.0733109,0.6532745,0.0656357,0.9935913,0.6179581,1.4283447
				c3.8129005,3.0016785,15.8155975,1.9771118,17.5428734-0.2139282c0.2769966-0.351059,0.3377686-0.7379608,0.4448547-1.1622162
				C60.0596161,231.4609985,54.6409874,198.5009155,54.6243515,198.3997955z"/>
			<path class="st25" d="M81.6827545,198.3997955c-0.4337234-2.8597565-1.6336899-8.1795807-1.5872498-10.8218384
				c0.026741-1.5286407,0.6551895-2.5470581,1.1968994-3.8326263c0.0001221-0.5979919-5.6392975-0.5979919-5.6394272,0
				c0.2745667,1.1113129,1.2868423,2.9150238,1.1834641,3.8080597c-0.3611755,3.1125793-1.0584641,6.1629639-1.6088638,9.2450867
				c-0.293045,1.6409302-6.1798172,37.8248901-6.3153381,38.4731293c0.0733109,0.6532745,0.0656357,0.9935913,0.6179581,1.4283447
				c3.8128967,3.0016785,15.8155975,1.9771118,17.5428696-0.2139282c0.2769928-0.351059,0.3377686-0.7379608,0.4448547-1.1622162
				C87.1180191,231.4609985,81.6993866,198.5009155,81.6827545,198.3997955z"/>
			<path class="st1" d="M108.7411499,198.3997955c-0.4337234-2.8597565-1.6336899-8.1795807-1.5872421-10.8218384
				c0.026741-1.5286407,0.6551895-2.5470581,1.1968918-3.8326263c0.0001297-0.5979919-5.6392899-0.5979919-5.6394196,0
				c0.2745667,1.1113129,1.2868423,2.9150238,1.1834641,3.8080597c-0.3611832,3.1125793-1.0584641,6.1629639-1.6088715,9.2450867
				c-0.0191345,0.1071472-5.9520035,36.73526-6.3153381,38.4731293c0.0733109,0.6532745,0.0656357,0.9935913,0.6179657,1.4283447
				c3.8128967,3.0016785,15.8155899,1.9771118,17.5428696-0.2139282c0.2769928-0.351059,0.3377686-0.7379608,0.4448547-1.1622162
				C114.1764145,231.4609985,108.7577896,198.5009155,108.7411499,198.3997955z"/>
			<g>
				<g>
					<path class="st14" d="M222.7675629,236.0464478c-0.4342346,0-0.7860718-0.3518372-0.7860718-0.7860718v-18.1539154
						c0-0.4342346,0.3518372-0.786087,0.7860718-0.786087s0.7860718,0.3518524,0.7860718,0.786087v18.1539154
						C223.5536346,235.6946106,223.2017975,236.0464478,222.7675629,236.0464478z"/>
				</g>
				<ellipse class="st14" cx="222.7676086" cy="236.0240631" rx="6.0152416" ry="1.6921184"/>
				<path class="st12" d="M232.6746674,199.6771698c-0.3552856,1.5944672-8.2907104,1.7973175-9.90448,1.7973175
					c-5.4710541,0-9.9098663-0.8070526-9.9098663-1.7973175c0-0.9959106,4.4388123-1.7975922,9.9098663-1.7975922
					C228.2412262,197.8795776,232.6746674,198.6812592,232.6746674,199.6771698z"/>
				<path class="st14" d="M232.6432037,199.8186646c-1.9442139,8.4369965-4.9732361,15.0715485-10.0092773,18.3363647
					c-8.8093109-4.4754028-9.7736053-18.4778595-9.7736053-18.4778595c0,0.9902649,4.4388123,1.7973175,9.9098663,1.7973175
					C227.9792023,201.4744873,232.2501526,200.7408752,232.6432037,199.8186646z"/>
				<path class="st20" d="M214.86763,203.8972931c0.8823242,3.9851685,2.9583435,10.0127869,7.709549,12.7465973
					c3.2736206-2.3397217,5.7979889-6.5384827,7.6657715-12.7465973H214.86763z"/>
				<ellipse class="st26" cx="226.630127" cy="205.9415741" rx="0.8800453" ry="0.6988595"/>
				<ellipse class="st26" cx="218.7097168" cy="206.2004089" rx="0.8800453" ry="0.6988595"/>
				<ellipse class="st26" cx="222.6063232" cy="211.2477417" rx="0.8800453" ry="0.6988595"/>
			</g>
			<g>
				<g>
					<path class="st14" d="M247.5363159,236.0464478c-0.4342346,0-0.7860718-0.3518372-0.7860718-0.7860718v-18.1539154
						c0-0.4342346,0.3518372-0.786087,0.7860718-0.786087s0.7860718,0.3518524,0.7860718,0.786087v18.1539154
						C248.3223877,235.6946106,247.9705505,236.0464478,247.5363159,236.0464478z"/>
				</g>
				<ellipse class="st14" cx="247.5363617" cy="236.0240631" rx="6.0152416" ry="1.6921184"/>
				<path class="st12" d="M257.4434204,199.6771698c-0.010498,0.0470734-0.0209656,0.094162-0.0314636,0.1414948
					c-0.3930359,0.9222107-4.6640015,1.6558228-9.8730164,1.6558228c-5.4710541,0-9.9098663-0.8070526-9.9098663-1.7973175
					c0-0.9959106,4.4388123-1.7975922,9.9098663-1.7975922
					C253.0099792,197.8795776,257.4434204,198.6812592,257.4434204,199.6771698z"/>
				<path class="st14" d="M257.4119568,199.8186646c-1.9442139,8.4369965-4.9732361,15.0715485-10.0092773,18.3363647
					c-8.8093109-4.4754028-9.7736053-18.4778595-9.7736053-18.4778595c0,0.9902649,4.4388123,1.7973175,9.9098663,1.7973175
					C252.7479553,201.4744873,257.0189209,200.7408752,257.4119568,199.8186646z"/>
				<path class="st20" d="M239.6363831,203.8972931c0.882309,3.9851685,2.9583435,10.0127869,7.709549,12.7465973
					c3.2736206-2.3397217,5.7979736-6.5384827,7.6657715-12.7465973H239.6363831z"/>
				<ellipse class="st26" cx="251.39888" cy="205.9415741" rx="0.8800453" ry="0.6988595"/>
				<ellipse class="st26" cx="243.4784698" cy="206.2004089" rx="0.8800453" ry="0.6988595"/>
				<ellipse class="st26" cx="247.3750763" cy="211.2477417" rx="0.8800453" ry="0.6988595"/>
			</g>
		</g>
	</g>
</g>
</svg>
