<?xml version="1.0" encoding="utf-8"?>
<!-- Generator: Adobe Illustrator 22.0.1, SVG Export Plug-In . SVG Version: 6.00 Build 0)  -->
<svg version="1.1" id="Layer_1" xmlns="http://www.w3.org/2000/svg" xmlns:xlink="http://www.w3.org/1999/xlink" x="0px" y="0px"
	 viewBox="0 0 300 300" style="enable-background:new 0 0 300 300;" xml:space="preserve">
<style type="text/css">
	.st0{fill:#EDC1A4;}
	.st1{fill:#E2E0E0;}
	.st2{fill:#D39E81;}
	.st3{fill:#502E26;}
	.st4{fill:#CCCACA;}
	.st5{fill:#426800;}
	.st6{fill:#538705;}
	.st7{fill:#D47E44;}
	.st8{fill:#73341D;}
	.st9{fill:#BC672E;}
	.st10{fill:#96311D;}
	.st11{fill:#B83E21;}
	.st12{fill:#DE8D82;}
	.st13{fill:#EFBAB4;}
	.st14{fill:#FDD5D0;}
	.st15{fill:#6883CE;}
	.st16{fill:#3D4885;}
	.st17{fill:#3859AE;}
	.st18{fill:#864424;}
	.st19{fill:#FEFEFE;}
	.st20{fill:#FFFFFF;}
	.st21{fill:#A55925;}
	.st22{fill:#F4F2F2;}
	.st23{fill:#3C3E68;}
	.st24{fill:#E8997C;}
	.st25{fill:#F5C46B;}
	.st26{fill:#F7EBDA;}
	.st27{fill:#0E0C0D;}
	.st28{fill:#657C3A;}
	.st29{fill:#576C37;}
	.st30{fill:#7C995D;}
	.st31{fill:#36518C;}
	.st32{fill:#96B7E3;}
	.st33{fill:#A3B3DF;}
	.st34{fill:url(#SVGID_1_);}
	.st35{fill:url(#SVGID_2_);}
	.st36{fill:url(#SVGID_3_);}
	.st37{fill:url(#SVGID_4_);}
	.st38{fill:url(#SVGID_5_);}
	.st39{fill:#266AB7;}
	.st40{fill:#060E0D;}
	.st41{fill:#E0D4C6;}
	.st42{fill:#787E42;}
	.st43{fill:#D3D1D1;}
	.st44{fill:url(#SVGID_6_);}
	.st45{fill:url(#SVGID_7_);}
	.st46{fill:url(#SVGID_8_);}
	.st47{fill:#020508;}
	.st48{fill:#BAB6B6;}
	.st49{fill:#0F0B07;}
	.st50{fill:#2F3A68;}
	.st51{fill:#203257;}
	.st52{opacity:0.5;fill:#FFFFFF;}
	.st53{opacity:0.2;fill:#0E0C0D;}
	.st54{fill:#DD9F9B;}
	.st55{fill:#3E4D9B;}
	.st56{fill:url(#SVGID_9_);}
	.st57{fill:#5F6194;}
	.st58{fill:url(#SVGID_10_);}
	.st59{fill:url(#SVGID_11_);}
	.st60{fill:url(#SVGID_12_);}
	.st61{fill:url(#SVGID_13_);}
	.st62{fill:#070102;}
	.st63{fill:#100805;}
	.st64{fill:#FDA465;}
	.st65{fill:#2A50A1;}
	.st66{fill:#B76C39;}
	.st67{fill:#130602;}
	.st68{fill:url(#SVGID_14_);}
	.st69{fill:url(#SVGID_15_);}
	.st70{fill:url(#SVGID_16_);}
	.st71{fill:url(#SVGID_17_);}
	.st72{fill:url(#SVGID_18_);}
	.st73{fill:url(#SVGID_19_);}
	.st74{fill:#B4BDED;}
	.st75{fill:#100D08;}
	.st76{fill:#F6C85F;}
	.st77{fill:#FECF00;}
	.st78{fill:#2D59E2;}
	.st79{fill:#121F3A;}
	.st80{fill:#BBD0F5;}
	.st81{fill:#020202;}
	.st82{fill:#E2CFB7;}
	.st83{fill:#080805;}
	.st84{fill:#A87D7C;}
	.st85{fill:#182052;}
	.st86{fill:#EAEAEA;}
	.st87{fill:#DDDDDD;}
	.st88{fill:#3D4574;}
	.st89{fill:#ABC5F0;}
	.st90{fill:url(#SVGID_20_);}
	.st91{fill:#4159A8;}
	.st92{fill:#E0D0BD;}
	.st93{fill:#3D53AA;}
	.st94{fill:#0A0000;}
	.st95{fill:#BF6D36;}
	.st96{fill:#385DAE;}
	.st97{fill:#E0DCDC;}
	.st98{fill:#857E78;}
	.st99{fill:#0E213C;}
	.st100{fill:url(#SVGID_21_);}
	.st101{fill:#55608E;}
	.st102{opacity:0.3;fill:#F4F2F2;}
	.st103{opacity:0.3;}
	.st104{fill:#213987;}
	.st105{enable-background:new    ;}
</style>
<g id="Cheers_1_">
	<g id="Cheers">
		<g>
			<g>
				<g>
					<path class="st0" d="M184.245224,136.3523407c0,0-16.2335052,23.603241-20.4738007,7.0936737
						c-3.2008057-12.4490051-4.3356018-27.1088486-4.6991119-33.5574265
						c-0.1157227-2.0982666-0.155304-3.3336639-0.155304-3.3336639c0.030838-0.1000061,5.774231-30.3130646,8.6972656-25.3368683
						c2.9300079,4.9699631,1.8065033,15.54879,3.6216431,24.7572556
						c1.8136139,9.214386,11.0379333,25.6939392,11.0379333,25.6939392L184.245224,136.3523407z"/>
					<path class="st3" d="M163.823288,105.5255661c-0.470993,1.0638428-0.9546661,2.1504898-1.7338257,3.0137177
						c-0.769928,0.8530884-1.8865509,1.4561539-3.0171509,1.3493042c-0.1157227-2.0982666-0.155304-3.3336639-0.155304-3.3336639
						s3.7108002-19.4896851,6.688736-24.646286l0.2616425,0.2528c2.2311707,3.4190903,2.6302948,7.7846527,1.9491882,11.8106308
						C167.14151,97.9996872,165.4750214,101.7897263,163.823288,105.5255661z"/>
					<g>
						<path class="st3" d="M172.9879303,82.4645004c-4.2290192,1.7581711-7.2536469,0.8810654-7.7496796,0.8493423
							c-2.2263336-0.7632599-4.417984-2.2324219-6.2441559-4.6582794
							c-5.6997528-7.5742111,2.8135529-18.9424744,2.8135529-18.9424744
							c5.4506683-0.1303329,13.3047791,1.8620567,18.355011,4.9959946
							C180.1626587,64.7090836,181.7400665,78.8239059,172.9879303,82.4645004z"/>
						<path class="st1" d="M173.2650757,81.4462509c-4.2290192,1.7581787-7.2536469,0.881073-7.7496948,0.84935
							c-2.2263184-0.7632675-4.4179688-2.2324219-6.2441559-4.658287
							c-5.6997375-7.5742035,2.8135681-18.9424706,2.8135681-18.9424706
							c5.4506683-0.1303329,13.3047791,1.8620567,18.355011,4.9959946
							C180.4398041,63.6908379,182.0172119,77.8056564,173.2650757,81.4462509z"/>
						<path class="st1" d="M167.2268372,79.2853088l-8.0744324,29.6661987
							c-0.1247406,0.4583054-0.5929718,0.7263031-1.0514221,0.6015244c-0.4584503-0.1247864-0.72612-0.5930939-0.6013794-1.0513916
							l8.0744324-29.6661987L167.2268372,79.2853088z"/>
						<path class="st1" d="M159.5921631,106.7960129c-0.1672668-0.1280136-0.3720093-0.1892319-0.582077-0.1739273
							c-1.7872467,0.130188-10.3244019,0.8630219-8.8648834,2.8958817
							c1.6284943,2.2681961,14.0271606,5.3179321,15.1520996,3.8364716
							C166.2926636,112.043602,160.8573914,107.7643509,159.5921631,106.7960129z"/>
						<path class="st20" d="M178.3082275,73.3816299c0.4034576-1.0717163-0.0648346-2.2780762-1.070282-2.8262024
							c-4.227478-2.3046188-8.8940582-3.8028336-13.6743317-4.3814011c-1.1979218-0.144989-2.5182343-0.2030563-3.4964905,0.5033569
							c-1.1568451,0.8353882-1.4253845,2.4469757-1.3503113,3.8719559
							c0.2420502,4.5943146,2.9298706,9.5929871,7.4559479,10.4181213c2.6443176,0.4820786,5.8540344-0.2803116,8.1460724-1.9530487
							C176.09935,77.7149963,177.484024,75.5709763,178.3082275,73.3816299z"/>
					</g>
					<path class="st0" d="M165.7786255,97.3889313c-0.3086395,0.9201126-1.2207184,1.6047974-2.192276,1.651329
						c0.6324158,0.5090637,0.4822235,1.6086502-0.1634216,2.1001205c-0.6573486,0.5008545-2.9087219-0.9726944-3.5246735-1.451622
						c-0.0181122-0.0049362-0.0224609-0.012764-0.0224609-0.012764c-0.2532043,1.1026688-0.7376556,2.7644272-1.6882782,6.2982101
						c-0.4193878,0.1838531-0.9602356-0.2094803-1.2827911-0.5952835
						c-2.4694214-2.9008942-4.1595154-6.4514236-4.8582764-10.1921082c-0.2199707-1.1677628-0.3400421-2.3927994,0.0020752-3.530632
						c0.3359985-1.1394882,1.2220917-2.1811447,2.3838196-2.4027481c-0.5831146-0.6186981-0.6878204-1.6386719-0.2375641-2.3645859
						c0.4547882-0.7186737,1.4190063-1.0715485,2.2279053-0.8061371c-0.5841827-0.4959259-0.7206268-1.4467087-0.2993164-2.0900269
						c0.4212952-0.6433258,1.3500519-0.8894272,2.0345154-0.5477905c-0.3842316-0.6357498-0.4076233-1.4779358-0.0664215-2.1364212
						c0.3429565-0.6649628,1.4393311-0.9559174,2.1867065-1.0119095c6.2168884,5.1375122,7.0051575,5.6350632,7.6209717,6.6355896
						c0.4401093,0.7158127,0.6241608,1.6343079,0.2687378,2.3926849c-0.3615265,0.7570267-1.3641205,1.2032242-2.0863342,0.7861404
						c0.9695587,0.4844055,1.5332489,1.6745453,1.2898102,2.735466c-0.2357178,1.0567017-1.2584076,1.8862228-2.346283,1.9077454
						C165.7766418,95.3731842,166.0874939,96.4685593,165.7786255,97.3889313z"/>
					<g>
						<path class="st3" d="M165.6633606,90.5869141c-1.5175781-1.8105469-3.421875-3.3540039-5.5058594-4.4628906
							c-0.293457-0.1557617-0.4047852-0.5200195-0.2485352-0.8132324c0.1552734-0.2927246,0.5205078-0.404541,0.8129883-0.248291
							c2.2197266,1.1806641,4.2470703,2.8237305,5.8632813,4.7519531c0.2133789,0.2543945,0.1796875,0.6337891-0.074707,0.847168
							C166.2522125,90.8774338,165.874649,90.8389053,165.6633606,90.5869141z"/>
					</g>
					<g>
						<path class="st3" d="M164.5105286,95.1723633c-1.4648438-1.703125-3.1630859-3.1894531-5.046875-4.4165039
							c-0.2783203-0.1811523-0.3569336-0.5537109-0.1757813-0.8320313c0.1811523-0.2792969,0.5546875-0.3569336,0.8320313-0.1757813
							c1.9790039,1.2895508,3.7631836,2.8505859,5.3027344,4.6401367c0.2163086,0.2514648,0.1879883,0.6313477-0.0639648,0.8481445
							C165.1086884,95.4518356,164.7290649,95.425827,164.5105286,95.1723633z"/>
					</g>
					<g>
						<path class="st3" d="M163.2815247,99.5825195c-1.7753906-1.8422852-3.7783203-3.4589844-5.953125-4.8061523
							c-0.2827148-0.1748047-0.3696289-0.5454102-0.1948242-0.8276367c0.1748047-0.2827148,0.5454102-0.3696289,0.8276367-0.1948242
							c2.2602539,1.3994141,4.3413086,3.0795898,6.1865234,4.9936523c0.2304688,0.2392578,0.2231445,0.6201172-0.015625,0.8505859
							C163.8944092,99.8268967,163.5136261,99.8222961,163.2815247,99.5825195z"/>
					</g>
					<path class="st15" d="M195.5587463,171.7611694c-30.27005-6.2434692-31.4275818-22.1642914-31.4275818-22.1642914
						c-2.0031891-5.5279541-0.3610382-6.1534271-0.3610382-6.1534271
						c2.8093872,1.2012634,11.0715485-1.7830048,11.0715485-1.7830048c9.4005127-4.5864868,7.4337463-9.9932098,7.4337463-9.9932098
						c4.2308502-1.4200287,4.8160553,5.4602966,4.8160553,5.4602966c1.6261749,1.7176971,2.3964539,3.8538513,2.3964539,3.8538513
						c10.5569458,3.1331329,30.2647247,1.019577,30.2647247,1.019577
						C238.4486542,152.2676239,229.4167328,178.011322,195.5587463,171.7611694z"/>
					<g>
						<path class="st27" d="M163.8874817,150.1464844c-0.3037109-0.1347656-0.4404297-0.4897461-0.3061523-0.793457
							c0.1347656-0.3032227,0.4892578-0.4404297,0.793457-0.3061523c3.6098633,1.6005859,11.7788086-1.4624023,11.8613281-1.4936523
							c10.1162109-5.0253906,10.2539063-10.3696289,10.2543945-10.4228516
							c0.0009766-0.3305664,0.2680664-0.6000977,0.5986328-0.6015625c0.0004883,0,0.0014648,0,0.0024414,0
							c0.3291016,0,0.597168,0.2617188,0.6010742,0.5908203c0.003418,0.2470703-0.0483398,6.109375-10.9760742,11.534668
							C173.5195618,149.8918457,167.1190643,151.578064,163.8874817,150.1464844z"/>
					</g>
				</g>
				<g>
					<path class="st8" d="M203.5924988,115.0212479c0,0-1.2604065-4.9777069,4.0596008-8.7319107s18.378006-4.9130249,23.7516174,0
						c5.3735962,4.9130249,10.8376465,15.7767487,10.5692444,22.6630402
						c-0.2683868,6.8863068-6.0861206,10.1723328-9.7073517,12.6551666
						c-3.6212463,2.4828186-3.7990265-17.9386139-3.7990265-17.9386139L203.5924988,115.0212479z"/>
					<path class="st0" d="M224.0522003,152.3656311l-8.6897583,2.7008972l-5.4951935-1.4441681l-0.1687317-5.2076416
						c0.0378723-0.1019135,2.711792-7.2963104,2.5442963-6.8456421l-0.3125763-4.920105
						c1.7279663-1.0930023-6.2518158,3.9545135,16.860672-10.6649857c0,0-0.3125916,14.1409225,3.901001,12.8158188
						C234.7362061,138.1557159,224.0522003,152.3656311,224.0522003,152.3656311z"/>
					<path class="st3" d="M228.1157532,132.7044678c0.0937195,0.9438477-0.6314087,1.7564392-1.331665,2.3944244
						c-4.2322845,3.875824-9.4899139,6.6264648-15.0788269,7.9082336l0.5375519-1.4380493l-0.3125763-4.920105l9.2086945-5.8264008
						C223.5756226,130.4377441,227.8815308,130.2467804,228.1157532,132.7044678z"/>
					<path class="st15" d="M252.9355774,153.1378937c0,0,10.1021423,29.1316681,15.5386047,40.1329498
						s8.5877991,11.9923706,7.4134216,18.6913452c-1.174408,6.6989594-41.9295349,12.5343475-41.9295349,12.5343475
						l-38.7780914-27.7804871l1.0150299-26.4139557l12.4631958-15.3842468l31.6179047-13.8078461L252.9355774,153.1378937z"/>
					<path class="st16" d="M240.2761078,141.1100006l-2.6522217,16.1933899l-10.7935028,42.2016144
						c0,0-24.7181854,0.286026-23.5914764-2.8199158c1.1266937-3.1059418-0.0185394-8.1342468-1.4747009-10.5079193
						s-11.0219574-5.8537292-8.6539917-16.2159271c2.3679504-10.3622131,17.5987854-27.6596069,17.5987854-27.6596069
						l1.5353394-0.7330475l-0.2177582,9.0330353c1.7026672,0.0001068,20.6674957-11.8043365,20.6674957-11.8043365
						C236.2099152,139.1458588,240.2761078,141.1100006,240.2761078,141.1100006"/>
					<g>
						<path class="st27" d="M202.6741028,196.4794922c1.0830078-2.9863281-0.0986328-7.8300781-1.4223633-9.987793
							c-1.3210907-2.1530609-11.1784058-5.9392395-8.7280273-16.6640625
							c2.375-10.3916016,17.1079102-27.2124023,17.7338867-27.9233398c0.2192383-0.2495117,0.5996094-0.2729492,0.8486328-0.0537109
							s0.2734375,0.5991211,0.0537109,0.8486328c-0.1513672,0.171875-15.1567383,17.3017578-17.4633789,27.3959961
							c-2.2823944,9.9876099,6.9894104,13.1748505,8.5805664,15.7675781
							c1.4194336,2.3139648,2.7802734,7.5727539,1.5273438,11.0273438c0.1943359,0.269043,0.137207,0.6420898-0.1318359,0.8364258
							C203.0587769,198.1706848,202.3749847,197.3007507,202.6741028,196.4794922z"/>
					</g>
					<path class="st0" d="M233.8609619,121.4265289c-0.6376801,3.5195923-3.6384888,3.4319839-3.6384888,3.4319839
						s0.043808,1.4066086-1.2503204,6.6954575c-1.2940521,5.2888489-10.1838379,7.5956573-19.8551483,7.5394897
						c-9.664978-0.0561676-9.7524261-7.7144012-8.3708496-11.8405304c0.993988-2.9695206,1.9254761-8.9146652,2.3756409-12.0157471
						c0.2000275-1.4001999,1.0377197-2.6254959,2.2630157-3.344368c8.9773865-5.2577057,18.2235565,0.6376801,19.1862488,3.6883926
						c1.0972595,3.4290619,2.9769135,6.4069824,3.0257568,6.5080338c0.0380554-0.1000061-0.2481537-4.9624176,2.4881439-5.4701691
						C232.8356781,116.0937271,234.4986267,117.9130478,233.8609619,121.4265289z"/>
					<path class="st8" d="M230.5627594,122.6885986c0.5061798-0.5108337,1.0247803-1.0400543,1.296402-1.7059402
						s0.2371674-1.5102692-0.2753448-2.0147552c-0.6475372-0.6373825-1.734375-0.4754105-2.1670837,0.3248978
						C230.5297546,119.8936386,230.7903137,121.5509567,230.5627594,122.6885986z"/>
					<g>
						<path class="st19" d="M228.990921,117.1625366L228.990921,117.1625366
							C229.0293121,117.1644897,229.0313263,117.1644897,228.990921,117.1625366z"/>
						<path class="st19" d="M228.990921,117.1625366c-0.5164795-0.0234375-7.703125-0.3510742-9.3808594-0.4277344
							c-1.9750366-3.3975372-6.6236725-2.8479996-7.8733521,0.9609375c-0.4662476-0.1367188-0.9697876-0.0976563-1.4100952,0.121582
							c-0.5819702-1.9321289-2.2252808-3.3364258-4.1853027-3.3364258c-2.4381104,0-4.4198608,2.1694336-4.4198608,4.8447266
							c0,2.6757813,1.9817505,4.8452148,4.4198608,4.8452148c2.4322968,0,4.6062927-2.2093735,4.3917847-5.2182617
							c0.305603-0.1489258,0.6433716-0.230957,0.9849243-0.2416992c-0.3632965,3.1075745,1.8681641,5.4599609,4.3632813,5.4599609
							c3.0521545,0,5.2677612-3.3507996,4.1175537-6.5927734c1.6207275,0.074707,8.2869873,0.3808594,8.3731689,0.3852539
							C228.5408478,117.6630249,228.7472076,117.3881226,228.990921,117.1625366z M206.1413116,123.1390991
							c-1.9191895,0-3.4758301-1.706543-3.4758301-3.8134766c0-2.1064453,1.5566406-3.8129883,3.4758301-3.8129883
							c1.9254761,0,3.4821167,1.706543,3.4821167,3.8129883
							C209.6234283,121.4325562,208.0667877,123.1390991,206.1413116,123.1390991z M215.8813019,123.1390991
							c-1.9193115,0-3.4759521-1.706543-3.4759521-3.8134766c0-2.1064453,1.5566406-3.8129883,3.4759521-3.8129883
							c1.9255371,0,3.4821777,1.706543,3.4821777,3.8129883
							C219.3634796,121.4325562,217.806839,123.1390991,215.8813019,123.1390991z"/>
					</g>
					<ellipse class="st27" cx="215.5280914" cy="120.0187531" rx="0.9775977" ry="1.4439498"/>
					<ellipse class="st27" cx="205.7187805" cy="119.1576385" rx="0.9775977" ry="1.4439498"/>
					<path class="st7" d="M209.8422852,134.9050598c-3.4702606-0.3483429-5.8292236-3.9233856-4.6761932-7.4146423
						c3.1570282,1.0879211,6.5954132,1.3254089,9.8712463,0.6877441
						C216.3704376,131.7090302,213.6377106,135.2702179,209.8422852,134.9050598z"/>
					<path class="st19" d="M215.362442,130.1223297c-3.5146484,0.7363281-7.2155914,0.8379059-10.4839783-0.6126556
						c-0.0249481-0.6752167,0.0687561-1.3565521,0.2876282-2.0192566c3.1570282,1.0879211,6.5954132,1.3254089,9.8712463,0.6877441
						C215.2686462,128.790802,215.3748779,129.45961,215.362442,130.1223297z"/>
					<path class="st8" d="M208.7369995,126.5117188c0.0984955,0.490654,0.5772552,0.8323135,1.0685577,0.9275589
						c0.4913177,0.0952377,0.9970093-0.0055161,1.4872589-0.106041c0.1595154,0.0924225,0.3661499-0.1131439,0.3230896-0.2923889
						c-0.0430603-0.1792526-0.2415161-0.2825775-0.425766-0.2888565c-0.3730927-0.0127182-0.7409058,0.2675781-1.0798798,0.0714951
						c-0.3261414-0.1886673-0.2737122-0.6676788-0.1777191-1.0320358c0.1372833-0.5211639,1.2868195-3.6679153,0.8805084-3.9510117
						c-0.3347321-0.2332306-0.7670898,1.1592712-0.8851166,1.4236908
						C208.8443604,125.6918335,208.6364441,126.0109024,208.7369995,126.5117188z"/>
				</g>
				<g>
					<path class="st7" d="M80.9652328,129.109787c-0.0588379,1.6470795,0.2130203-5.962738-0.5750961,16.0979156
						l-9.8150864,4.8700409l-10.3901863-7.8023071c0,0,2.2443085-6.1765289,3.5696487-11.0838013
						c0.5938759-2.2008972,1.0065804-4.1511612,0.9440041-5.1640015
						C64.4921646,122.7455368,80.9652328,129.109787,80.9652328,129.109787z"/>
					<path class="st3" d="M80.9652328,129.109787l-0.4500961,12.6595306
						c-0.5314484,0.0747833-1.0877762-0.0189209-1.5066605-0.3440247c-0.9814682-0.756424-0.7877121-2.2628479-1.2253723-3.4194641
						c-0.4938202-1.294281-1.8003922-2.1068573-3.1320648-2.4820251c-1.325264-0.3751526-2.7256165-0.4001923-4.0822449-0.6562958
						c-2.5819244-0.4752808-4.9887848-1.794281-6.8142815-3.6758728c0.5938759-2.2008972,1.0065804-4.1511612,0.9440041-5.1640015
						C64.4921646,122.7455368,80.9652328,129.109787,80.9652328,129.109787z"/>
					<path class="st13" d="M96.796936,165.2944641c3.5819931,1.836853,6.0557175,5.6672211,6.2565079,9.6877136
						c2.2904282,0.3321075,4.2126694,2.3867188,4.3917236,4.6941528c2.7981567,1.2137451,5.3726044,3.3533783,6.6227951,6.1354523
						c4.6970215,10.4522552-14.3376236,23.4954224-25.4619827,13.3972473
						c-3.5936584-3.262146-5.11866-8.3706818-4.8783264-13.2181702c0.2403336-4.8475037,2.0594559-9.4848633,4.285347-13.7978058"/>
					<path class="st13" d="M28.1519527,206.9908905c0,0,4.6418438-34.9645996,14.6066151-52.0730438
						c2.9646988-5.0900726,7.5278244-13.4658051,13.4127579-13.500061c0.9766579-0.0056915,2.2868462,0.1230927,3.7791023,0.6226044
						c2.8000259,0.9371338,10.213253,1.7109222,11.1574669,1.3579559
						c8.9126816,1.3132019,17.9201508,3.4186859,21.7097702,7.2111969
						c7.3396454,7.3452148,5.5021973,21.7103577,1.1625137,30.5546265
						c-4.3396759,8.8442688-1.8088608,9.8565826,0.7219543,14.0071259s-2.0246506,11.8195953-2.0246506,11.8195953
						C85.6593018,206.9908905,35.3133545,206.9908905,28.1519527,206.9908905z"/>
					<g>
						<path class="st27" d="M94.6799622,196.4887695c-2.0874023-2.3974609-2.9780273-5.090332-3.6298828-7.6435547
							c-0.8087463-3.1703186,2.1985703-8.2816162,3.8725586-11.4511719
							c1.8085938-3.4682617,2.2426758-11.6787109,2.246582-11.7612305c0.0166016-0.331543,0.3071289-0.5849609,0.6308594-0.5703125
							c0.331543,0.0166016,0.5869141,0.2993164,0.5703125,0.6308594c-0.0175781,0.3476563-0.4526367,8.5581055-2.3813477,12.2563477
							c-1.446022,2.7379761-4.4529114,7.9358063-3.7739258,10.5981445c0.6152344,2.4091797,1.4492188,4.9433594,3.3720703,7.1508789
							c0.2177734,0.2504883,0.1918945,0.6303711-0.0585938,0.8486328
							C95.2756348,196.7668152,94.8977966,196.737854,94.6799622,196.4887695z"/>
					</g>
					<g>
						<path class="st27" d="M98.0906067,183.1943359c-0.3256836-0.0664063-0.5351563-0.3842773-0.4682617-0.7094727
							c0.6601563-3.2182617,2.6152344-6.0961914,5.3642578-7.8959961c0.277832-0.1835938,0.6508789-0.1044922,0.8325195,0.1733398
							c0.1821289,0.2783203,0.1044922,0.6508789-0.1738281,0.8325195c-2.4829102,1.6254883-4.2490234,4.2250977-4.8452148,7.1313477
							C98.7347336,183.0462189,98.4218445,183.2621765,98.0906067,183.1943359z"/>
					</g>
					<g>
						<path class="st27" d="M101.5930481,185.1157227c-0.4464874,0-0.7422714-0.4769592-0.5327148-0.8793945
							c1.4482422-2.777832,3.2836914-3.949707,6.1645508-5.1396484c0.3071289-0.1274414,0.6586914,0.019043,0.7851563,0.3261719
							c0.1269531,0.3066406-0.019043,0.6582031-0.3261719,0.7851563c-2.7348633,1.1303711-4.2641602,2.1044922-5.5571289,4.5839844
							C102.0193176,184.9980469,101.809845,185.1157227,101.5930481,185.1157227z"/>
					</g>
					<path class="st11" d="M116.2806168,203.7415314c-0.0062561,0.0311279-0.0125122,0.0561676-0.0187759,0.0876007
						c0-0.0314331,0.0062637-0.068985,0.0062637-0.1001129
						C116.2743607,203.7351227,116.2743607,203.7351227,116.2806168,203.7415314z"/>
					<path class="st11" d="M116.2806168,203.7415314c-0.0062561,0.0311279-0.0125122,0.0561676-0.0187759,0.0876007
						c0-0.0314331,0.0062637-0.068985,0.0062637-0.1001129
						C116.2743607,203.7351227,116.2743607,203.7351227,116.2806168,203.7415314z"/>
					<path class="st11" d="M120.4942017,203.4539795c-0.0125198,0.2063599-0.0187759,0.4062958-0.0375443,0.6126404
						C120.4004898,203.866684,120.4066696,203.6539154,120.4942017,203.4539795z"/>
					<path class="st3" d="M58.4661827,117.0841446c0,0-1.5976715-5.949791,2.0207977-12.0225067
						c3.6184654-6.0727158,12.067379-7.2415543,17.0454597-5.7275848s10.6919098,5.5201416,10.2087631,11.3269577
						C87.258049,116.4678268,60.3252831,119.439003,58.4661827,117.0841446z"/>
					<path class="st3" d="M64.3458633,101.9170609c-2.0854492-1.3605576-4.9156418-1.0167465-7.0742073-2.2580261
						c-2.1592598-1.2416763-3.2202301-4.1103592-2.3885574-6.4582214c0.8316765-2.3478699,3.4618225-3.9090576,5.9212189-3.5146866
						c0.3526421,0.0565414,0.7688293,0.129631,1.0207481-0.1235352c0.2924309-0.2938766,0.1372681-0.7798538,0.0580025-1.1867905
						c-0.2378044-1.2208939,0.4861679-2.5163116,1.5806465-3.1072845c1.8249664-0.985405,4.537178-0.3338928,6.2626572,2.5288315
						c0.8558426-0.9157104,2.353775-0.9392471,3.4943924-0.4196625c1.8849792,0.8586578,3.0240097,2.9488754,3.1085815,5.018486
						c0.1773376,4.3393631-3.269989,7.5602341-6.2652893,10.2387848"/>
					<path class="st7" d="M87.7419662,123.2080002c-2.7632446,9.8462906-8.6459579,10.7904434-8.6459579,10.7904434
						c-11.2904587,1.6691437-17.2357521-9.3710098-17.2357521-9.3710098
						c-5.9077492-0.8815765-5.5013771-7.2333221-3.4446487-9.3212585c0.7252083-0.7378006,1.5754204-0.8315201,2.3881607-0.6501923
						c1.4989319,0.3409195,2.7069244,1.5600281,2.8069687,1.6254807c-0.2184525-2.3639069-0.1372757-6.9636383,1.7317085-8.2522583
						c1.075264-0.7439041,2.5444565-0.4502487,3.776001-0.0061035c1.2315521,0.4499435,2.5131683,1.031456,3.7947006,0.7750397
						c1.5878601-0.3186874,2.7944565-1.8629684,4.4073486-1.9130325c0.9127884-0.0311356,1.7817688,0.4377365,2.6944809,0.4752808
						c1.4843979,0.0621338,2.862709-1.0148163,4.3573608-0.8379211c0.7439804,0.094017,1.6317368,0.9377441,2.1068649,1.5131454
						C87.6544342,109.4608459,90.5052109,113.3681107,87.7419662,123.2080002z"/>
					<path class="st19" d="M83.3500595,110.6674194c-1.960083,0-3.6033325,1.4038086-4.1853027,3.3359375
						c-0.4403076-0.21875-0.9438477-0.2578125-1.4100952-0.121582c-1.3787003-4.2022171-6.6966476-4.2752838-8.2321167-0.2231445
						c-2.3502197,0.269043-8.6394691,0.9882813-8.7187538,0.9975586c0.4938965,0.1123047,0.9752808,0.3310547,1.3878174,0.5688477
						c-0.427124,0.0449219,5.1469154-0.5424805,7.0988808-0.7480469c-0.6131516,3.072464,1.5354004,5.8803711,4.3195801,5.8803711
						c2.5427551,0,4.7199707-2.4020004,4.3632813-5.4604492c0.3415527,0.0112305,0.6793213,0.0932617,0.9849243,0.2416992
						c-0.2147751,3.0244293,1.9744644,5.21875,4.3917847,5.21875c2.4381104,0,4.4198608-2.1694336,4.4198608-4.8452148
						S85.7881699,110.6674194,83.3500595,110.6674194z M73.6100693,119.3256226
						c-1.9255981,0-3.4822388-1.706543-3.4822388-3.8134766c0-2.1064453,1.5566406-3.8134766,3.4822388-3.8134766
						c1.9192505,0,3.4758911,1.7070313,3.4758911,3.8134766C77.0859604,117.6190796,75.5293198,119.3256226,73.6100693,119.3256226z
						 M83.3500595,119.3256226c-1.9254761,0-3.4821167-1.706543-3.4821167-3.8134766
						c0-2.1064453,1.5566406-3.8134766,3.4821167-3.8134766c1.9191895,0,3.4758301,1.7070313,3.4758301,3.8134766
						C86.8258896,117.6190796,85.269249,119.3256226,83.3500595,119.3256226z"/>
					<ellipse class="st27" cx="73.9632263" cy="116.2051697" rx="0.9775977" ry="1.4439498"/>
					<ellipse class="st27" cx="83.7725372" cy="115.3440552" rx="0.9775977" ry="1.4439498"/>
					<path class="st3" d="M75.1353836,129.2407074c3.0758667,3.738205,9.3131104,1.5252228,9.4774704-3.5446167
						c0.0249557-0.6752243-0.0687561-1.3565521-0.2876282-2.0192566c-3.1570206,1.0879288-6.5954056,1.3254166-9.8712463,0.6877365
						C73.868248,125.9159546,74.0550766,127.9140015,75.1353836,129.2407074z"/>
					<path class="st19" d="M74.1288834,126.3087387c3.5146484,0.7363358,7.2155838,0.8379135,10.4839706-0.612648
						c0.0249557-0.6752243-0.0687561-1.3565521-0.2876282-2.0192566c-3.1570206,1.0879288-6.5954056,1.3254166-9.8712463,0.6877365
						C74.2226715,124.9772186,74.1164398,125.6460266,74.1288834,126.3087387z"/>
					<path class="st8" d="M80.7543259,122.6981277c-0.0985031,0.4906616-0.5772629,0.8323212-1.0685654,0.9275589
						c-0.4913025,0.0952454-0.9970093-0.0055084-1.4872589-0.1060333c-0.1595078,0.0924225-0.3661499-0.1131439-0.323082-0.2923889
						c0.0430603-0.1792526,0.2415161-0.2825775,0.4257584-0.2888565s0.362114,0.0593185,0.5413513,0.1024475
						c0.5822372,0.1400909,0.9545975-0.1582413,0.7162552-1.0629883c-0.137291-0.5211639-1.2868271-3.6679153-0.8805161-3.9510117
						c0.3347321-0.2332306,0.7670898,1.1592712,0.8851166,1.4236908
						C80.646965,121.8782501,80.8548737,122.197319,80.7543259,122.6981277z"/>
					<g>
						<g>
							<path class="st3" d="M140.1502838,69.9524155c-2.521347,3.8234253-5.5190277,4.788887-5.9478912,5.0401382
								c-2.2722931,0.6130829-4.9107819,0.6216965-7.7816696-0.3671112
								c-8.9619293-3.0885239-8.2666016-17.2742729-8.2666016-17.2742729
								c4.444725-3.1578369,12.0691605-5.9011078,18.0083694-6.1293678
								C136.1624908,51.2218018,145.3672943,62.0379143,140.1502838,69.9524155z"/>
							<path class="st1" d="M139.8102722,68.9533997c-2.5213623,3.8234177-5.5190277,4.788887-5.9479065,5.0401382
								c-2.2722778,0.6130829-4.9107819,0.6216965-7.781662-0.3671112
								c-8.9619293-3.0885239-8.2666016-17.2742729-8.2666016-17.2742729
								c4.444725-3.1578407,12.0691528-5.9011078,18.0083771-6.1293716
								C135.8224792,50.2227821,145.0272827,61.0388985,139.8102722,68.9533997z"/>
							<path class="st1" d="M133.5965576,70.5409241l7.7429657,23.9362335
								c0.1530457,0.449646-0.085083,0.9337616-0.5348816,1.0868607c-0.4497986,0.1530914-0.93367-0.0852814-1.0867004-0.534935
								l-7.7429657-23.9362259L133.5965576,70.5409241z"/>
							<path class="st1" d="M140.4979858,92.4445724c-0.2102661-0.0125122-0.4142151,0.0513077-0.5797577,0.1815338
								c-1.4084778,1.1079254-8.074234,6.4921036-5.7271271,7.3603439c2.6188049,0.96875,14.6014557-3.4409714,14.7049408-5.2982788
								C148.9875946,93.0447769,142.0884247,92.5392227,140.4979858,92.4445724z"/>
							<path class="st7" d="M139.47789,59.4474411c-0.2652435-1.1140137-1.3283386-1.8518524-2.4683685-1.7435722
								c-4.7932892,0.455265-9.4993286,1.8245964-13.7850494,4.0197754
								c-1.0739746,0.5500984-2.2007751,1.2407227-2.6163254,2.3735771
								c-0.4914093,1.3396912,0.1877213,2.8256607,1.0472412,3.9647217
								c2.7711792,3.6724472,7.795723,6.3115616,12.0087204,4.4629822c2.4613953-1.0800171,4.6951141-3.5078354,5.6588898-6.176712
								C140.071701,64.274971,140.0197296,61.7231941,139.47789,59.4474411z"/>
						</g>
						<path class="st7" d="M143.0534668,82.2642212c0.0184326,0.7945328-0.4667358,1.0361633-0.8725891,1.5814972
							c-0.462204,0.6308823,0.2709961,0.759613,0.5288849,1.4242401c0.1597748,0.4211349,0.1327362,0.913765-0.079361,1.3121262
							c-0.5783997,1.1124268-3.2619171,1.9411621-4.4608612,2.2082062
							c-1.3325348,0.2984238-2.1461639,1.8593979-2.7288513,3.0949554
							c-1.1802216,2.523262-1.4956207,8.1823425-7.2206726,13.8464584
							c-9.0653458,8.9031296-15.7783127-0.8996353-13.6044617-10.1378708l-0.1344376,1.3442307
							c2.1432495-4.3207092,4.0400085-9.3303833,6.1773453-13.6490402c1.3215561-2.6624222,0.709465-5.2877045,7.0265884-7.3117905
							c2.9498215-0.9415512,5.6691055-2.1320419,8.8203964-2.2204514c0.4343262-0.0121841,0.87854-0.0067596,1.2888947,0.1361313
							c0.4991608,0.1738281,0.9225769,0.6355133,1.1615448,1.0986481c0.0983887,0.1906662,0.4710693,1.7014236,0.09021,1.7701645
							c2.0911407-0.3774338,3.7189026,1.9185638,2.6244507,3.7928009
							C142.4361572,80.7382355,143.0312347,81.4777908,143.0534668,82.2642212z"/>
						<path class="st13" d="M130.3706665,109.3599777c0,0-9.5214691-17.0475845-16.4192581-14.6581573
							c0,0-2.4744873,0.381691-12.5038834,17.7780228s-19.8048096,28.293335-31.3720627,33.5740967
							c0,0-17.061306,6.978363-21.3976288,11.2723083s-9.0689507,40.1272278,15.8876953,32.6250763
							s40.8802338-29.7242889,45.9608536-36.5433807S130.3300018,114.6661224,130.3706665,109.3599777z"/>
						<g>
							<path class="st27" d="M62.384552,190.5224609c-0.078125-0.3227539,0.1206055-0.6474609,0.4433594-0.7255859
								c0.1352539-0.0327148,13.6479492-3.3823242,25.7910156-13.5849609
								c0.0703125-0.0595703,7.293457-6.1987305,9.3203125-8.5537109c0.2163086-0.2509766,0.5966797-0.28125,0.8476563-0.0634766
								c0.2519531,0.2163086,0.2802734,0.5961914,0.0634766,0.8476563c-2.0874023,2.4262695-9.1557617,8.434082-9.4555664,8.6884766
								c-12.3710938,10.3935547-26.1469727,13.8017578-26.284668,13.8349609
								C62.7921638,191.0444946,62.4631157,190.8482666,62.384552,190.5224609z"/>
						</g>
						<g>
							<path class="st3" d="M127.403595,78.9956055c-0.1352539-0.3032227,0.0014648-0.6586914,0.3046875-0.7939453
								c3.5742188-1.5925293,7.5297852-2.3359375,11.4379883-2.1459961
								c0.3320313,0.0158691,0.5878906,0.2978516,0.5717773,0.6296387s-0.2958984,0.5900879-0.6293945,0.5715332
								c-3.7231445-0.1821289-7.4873047,0.5270996-10.8911133,2.043457
								C127.8922272,79.4360886,127.5379257,79.2975159,127.403595,78.9956055z"/>
						</g>
						<g>
							<path class="st3" d="M129.3923645,81.6130371c-0.0693359-0.3249512,0.1376953-0.6442871,0.4624023-0.7138672
								c3.8925781-0.8310547,7.8779297-1.0944824,11.8457031-0.7817383c0.3310547,0.0258789,0.578125,0.3154297,0.5522461,0.6464844
								c-0.0263672,0.3310547-0.3037109,0.583252-0.6469727,0.5522461c-3.8525391-0.3029785-7.7207031-0.0483398-11.5,0.7592773
								C129.7858582,82.144249,129.4622803,81.9416199,129.3923645,81.6130371z"/>
						</g>
						<g>
							<path class="st3" d="M130.3694153,85.9245605c3.7490234-1.4768066,7.6928711-2.2741699,11.722168-2.3696289
								c0.3364258-0.0058594,0.6079102,0.2548828,0.6152344,0.5869141c0.0078125,0.3320313-0.2548828,0.6074219-0.5869141,0.6152344
								c-3.887207,0.0922852-7.6923828,0.8615723-11.3100586,2.286377
								C130.0665741,87.3397598,129.6339264,86.2144547,130.3694153,85.9245605z"/>
						</g>
					</g>
					<path class="st3" d="M61.7740173,117.0818176l-0.2000198,4.4884644
						c-1.8255272,0.1754227-3.0215645-1.8578568-2.0255165-3.4194641
						C60.0173531,117.4255295,60.9112892,117.000618,61.7740173,117.0818176z"/>
					<g>
						<path class="st27" d="M59.0466614,142.5546875c-0.3217773-0.0830078-0.5146484-0.4111328-0.4316406-0.7324219
							c0.0825195-0.3217773,0.4106445-0.5161133,0.7324219-0.4316406c0.0957031,0.0239258,9.6025391,2.4521484,13.71875,1.1181641
							c4.2075195-1.3657227,7.3500977-3.3823242,7.3813477-3.4023438c0.2802734-0.1801758,0.6508789-0.1000977,0.831543,0.1782227
							c0.1801758,0.2788086,0.1005859,0.6513672-0.1782227,0.831543c-0.1333008,0.0859375-3.3076172,2.1225586-7.6635742,3.5361328
							C69.8632813,144.8143311,62.6001396,143.4778137,59.0466614,142.5546875z"/>
					</g>
				</g>
				<g>
					<path class="st8" d="M277.99823,213.8622589v5.5772247c0,13.3019562-57.3012085,30.337738-127.9942322,30.337738
						s-128.0038452-17.0357819-128.0038452-30.337738v-5.5772247h3.4654007
						c13.3918076-10.6081848,64.0691223-18.5008698,124.5384521-18.5008698
						c60.4788055,0,111.165741,7.8926849,124.5383301,18.5008698H277.99823z"/>
					<ellipse class="st11" cx="150" cy="213.8583679" rx="128" ry="24.0777092"/>
				</g>
				<g>
					<path class="st0" d="M222.592804,190.1382751c2.0138702-0.5431519,4.4128571,0.4967499,6.1410065,1.5031433
						c3.0335236,1.7672424,5.4823914,4.6793671,6.3053131,8.136734c0.87117,3.6598053-0.3198853,7.9315033-2.4087677,10.9501343
						c-10.049408,0.9963074-19.870697,0.739212-29.8956909,1.1121063c-2.0058441,0.0743103-3.8205261,1.2621002-5.8120575,1.5167694
						c-4.3786469,0.5602264-6.7214813-0.5480347-10.637207-0.7273407c-0.9241028,0.8286285-1.9728546,2.1354675-3.3659058,1.4110718
						c-0.8435211-0.4386139-1.2479553-1.567627-0.8748322-2.4420929c-0.7582397,0.6032257-1.9587555,0.5525818-2.6634979-0.1123657
						c-0.7047424-0.6649323-0.8250275-1.8604889-0.2668457-2.6524811c-0.7794342,0.4370575-1.8742828,0.1774597-2.3744965-0.5630188
						s-0.3323517-1.8530884,0.3640747-2.4130249c-0.9988556,0.3464508-2.2189331-0.5539551-2.1358185-2.2742462
						c0.1078491-2.2329559,1.2429047-3.6557617,2.9067383-5.0498352c4.6005096-3.8543243,9.7298889-3.1416626,15.2736664-2.1900024
						c1.2111969,0.207901,2.6110992,0.6474304,3.8348389,0.5797577
						C199.4879913,196.7844086,220.7383728,191.3462982,222.592804,190.1382751z"/>
					<path class="st15" d="M232.5758362,210.7336884c0,0,5.4738922-7.6049652,0.302063-14.674057
						c-5.4189758-7.4069061-10.4050446-5.851593-10.4050446-5.851593s-1.3166962-3.3434601,2.6781921-4.0308685
						c0,0,0.0654907-0.9338379,1.4094849-2.3180237c1.3440094-1.3841858-0.2011261-7.1747437-0.3052673-8.7311859
						c-0.1041565-1.5564423-0.5361481-10.311554,2.1881104-17.5848999s7.9597931-14.5266724,11.8327332-16.4330597
						c0,0,10.1481934,4.3670959,13.5179749,14.1066895c3.2671967,9.4430847,2.5685883,41.2313538-1.1385803,46.7980652
						C248.9483185,207.5814667,243.8619385,210.8080139,232.5758362,210.7336884z"/>
					<g>
						<path class="st27" d="M242.5891418,210.1367188c-0.3251953-0.0673828-0.5341797-0.3857422-0.4667969-0.7109375
							c0.0253906-0.1225586,2.4873047-12.3007813-1.6865234-17.1230469
							c-4.2050781-4.8579102-15.2070313-5.519043-15.3178711-5.5249023
							c-0.331543-0.0185547-0.5854492-0.3022461-0.5673828-0.6337891c0.019043-0.331543,0.3076172-0.5854492,0.6337891-0.5673828
							c0.4726563,0.0263672,11.6254883,0.699707,16.1606445,5.9389648c4.5625,5.2709961,2.0634766,17.6308594,1.9550781,18.1542969
							C243.2337799,209.9888153,242.9230652,210.2042999,242.5891418,210.1367188z"/>
					</g>
					<g>
						<path class="st27" d="M253.3786926,200.3037109c-0.3017578-0.1391602-0.4331055-0.4960938-0.2944336-0.7978516
							c0.0571289-0.1245117,5.6918945-12.7670898,1.5913086-37.5688477
							c-0.0541992-0.3276367,0.1674805-0.637207,0.4951172-0.6914063c0.3330078-0.0532227,0.6367188,0.1679688,0.6914063,0.4951172
							c4.168457,25.2109375-1.4453125,37.7480469-1.6860352,38.2695313
							C254.0362091,200.3128052,253.6779327,200.4416809,253.3786926,200.3037109z"/>
					</g>
					<g>
						<path class="st3" d="M176.8650208,206.2519531c-0.2802734-0.1782227-0.3632813-0.5498047-0.1855469-0.8300781
							c1.5927734-2.5087891,4.15625-4.3745117,7.0332031-5.1181641c0.3203125-0.0844727,0.6494141,0.1098633,0.7324219,0.4316406
							c0.0834961,0.3212891-0.1098633,0.6494141-0.4316406,0.7324219c-2.5844727,0.668457-4.8876953,2.3447266-6.3183594,4.5986328
							C177.5172882,206.346344,177.1463165,206.4303284,176.8650208,206.2519531z"/>
					</g>
					<g>
						<path class="st3" d="M178.9011536,209.5478516c-0.2587891-0.2080078-0.2998047-0.5869141-0.0913086-0.8452148
							c1.5292969-1.8999023,3.5546875-3.3295898,5.8569336-4.1347656c0.3144531-0.1088867,0.6567383,0.0556641,0.7661133,0.3686523
							c0.1098633,0.3134766-0.0551758,0.6567383-0.3686523,0.7661133c-2.0605469,0.7211914-3.9492188,2.0541992-5.3178711,3.7539063
							C179.5389557,209.7143097,179.1613464,209.7576141,178.9011536,209.5478516z"/>
					</g>
					<g>
						<path class="st3" d="M181.5891418,211.9619141c-0.2817383-0.1757813-0.3676758-0.546875-0.1918945-0.8286133
							c1.3837891-2.2177734,3.6103516-3.9287109,6.109375-4.6948242c0.3188477-0.0981445,0.6542969,0.0810547,0.7509766,0.3984375
							c0.0976563,0.3173828-0.0810547,0.6538086-0.3984375,0.7509766c-2.2255859,0.6826172-4.2089844,2.206543-5.4414063,4.1821289
							C182.2418976,212.0510864,181.8731079,212.1381683,181.5891418,211.9619141z"/>
					</g>
				</g>
			</g>
			<g>
				<path class="st13" d="M103.3639297,198.403183c-2.3462296-1.6453705-4.6924591-3.2907562-7.0386887-4.9361267
					c-1.0701981-0.7505188-2.249733-1.6937561-2.2867279-3.0003662c-0.0348053-1.2295837,0.9704361-2.2177887,1.9452744-2.9679871
					c2.5078354-1.9299011,6.4322586-2.0183258,9.4455795-2.9845886c1.6602478-0.5323944,2.3361511-2.3118286,4.0622635-2.0661163
					s3.425148,1.2058716,4.1915131,2.7719269"/>
				<path class="st7" d="M124.508667,202.2848511c-0.125,0.6627045-0.293808,1.3315277-0.6877365,1.8693848
					c-0.8854446,1.208725-2.3747787,1.0019379-2.6631927-0.087616c-0.0374756,0.5314484-0.1187439,1.0625916-0.3375397,1.5503998
					c-0.7983856,1.7431641-2.7192993,1.6228027-3.4321289-0.0500641c-0.5173721-1.2271118-0.404541-1.737854-0.4188843-1.8379364
					c0,0.0311279-0.0062637,0.0686798-0.0062637,0.1001129c-0.3188324,1.4377594-0.712616,3.3132477-1.9505005,4.1508636
					c-1.0958862,0.7524567-2.1535339-0.0584564-2.7569809-1.2188873c-0.3375397-0.6376801-0.612648-1.3067932-0.8626556-1.9817047
					c-0.3188324,0.7814484-0.6314163,1.9942169-1.4691849,2.3504486c-0.2625198,0.1126404-0.4188156,0.0189362-0.6876678-0.0375366
					c-1.5378647-1.2814636-1.9129486-4.6074982-2.1880646-6.4954987c0.0000534,0.0003357-2.4945068-0.8016357-2.7381134-0.9346008
					c-1.8869781-1.0299225-4.0311432-3.8660736-4.3862534-6.8147583c-0.4636383-3.8498688,2.093071-7.0107117,5.6585388-8.0387726
					c1.9774628-0.5701904,4.0479126-0.8039856,6.099968-0.8728638c1.3196335-0.044281,2.6108856,0.6308441,3.7787399,1.2102203
					C122.9409943,188.8570404,125.8623352,195.0918427,124.508667,202.2848511z"/>
				<g>
					<path class="st3" d="M111.3992004,205.2211914c-0.328125-0.0517578-0.5522461-0.359375-0.5009766-0.6875
						c0.5380859-3.4277344-0.0258789-7.0214844-1.5878906-10.1176758c-0.1494141-0.296875-0.0302734-0.6582031,0.2661133-0.8081055
						c0.296875-0.1489258,0.6577148-0.0297852,0.8081055,0.2661133c1.6738281,3.3198242,2.2783203,7.1713867,1.7021484,10.8461914
						C112.0356064,205.0432587,111.733429,205.2726135,111.3992004,205.2211914z"/>
				</g>
				<g>
					<path class="st3" d="M116.3454895,204.0297852c-0.1499023-2.9306641-1.090332-5.7705078-2.71875-8.2119141
						c-0.1845703-0.2758789-0.1098633-0.6494141,0.1665039-0.8334961c0.2758789-0.1855469,0.6489258-0.1103516,0.8334961,0.1665039
						c1.7490234,2.621582,2.7587891,5.6704102,2.9199219,8.8173828c0.0170898,0.331543-0.2382813,0.6142578-0.5698242,0.6313477
						C116.6379547,204.6157379,116.3623428,204.3559113,116.3454895,204.0297852z"/>
				</g>
				<g>
					<path class="st3" d="M120.9455872,204.7241211c-0.3300781-0.0361328-0.5683594-0.3330078-0.5322266-0.6630859
						c0.3442383-3.1430664-0.3154297-6.3945313-1.8569336-9.1557617c-0.1621094-0.2895508-0.0581055-0.65625,0.2319336-0.8178711
						c0.2910156-0.1621094,0.65625-0.0581055,0.8178711,0.2319336c1.6625977,2.9770508,2.3735352,6.4833984,2.0024414,9.8725586
						C121.5729523,204.5185547,121.2805634,204.7605286,120.9455872,204.7241211z"/>
				</g>
			</g>
		</g>
	</g>
</g>
</svg>
