<?xml version="1.0" encoding="utf-8"?>
<!-- Generator: Adobe Illustrator 22.0.1, SVG Export Plug-In . SVG Version: 6.00 Build 0)  -->
<svg version="1.1" id="Layer_1" xmlns="http://www.w3.org/2000/svg" xmlns:xlink="http://www.w3.org/1999/xlink" x="0px" y="0px"
	 viewBox="0 0 300 300" style="enable-background:new 0 0 300 300;" xml:space="preserve">
<style type="text/css">
	.st0{fill:#EDC1A4;}
	.st1{fill:#E2E0E0;}
	.st2{fill:#D39E81;}
	.st3{fill:#502E26;}
	.st4{fill:#CCCACA;}
	.st5{fill:#426800;}
	.st6{fill:#538705;}
	.st7{fill:#D47E44;}
	.st8{fill:#73341D;}
	.st9{fill:#BC672E;}
	.st10{fill:#96311D;}
	.st11{fill:#B83E21;}
	.st12{fill:#DE8D82;}
	.st13{fill:#EFBAB4;}
	.st14{fill:#FDD5D0;}
	.st15{fill:#6883CE;}
	.st16{fill:#3D4885;}
	.st17{fill:#3859AE;}
	.st18{fill:#864424;}
	.st19{fill:#FEFEFE;}
	.st20{fill:#FFFFFF;}
	.st21{fill:#A55925;}
	.st22{fill:#F4F2F2;}
	.st23{fill:#3C3E68;}
	.st24{fill:#E8997C;}
	.st25{fill:#F5C46B;}
	.st26{fill:#F7EBDA;}
	.st27{fill:#0E0C0D;}
	.st28{fill:#657C3A;}
	.st29{fill:#576C37;}
	.st30{fill:#7C995D;}
	.st31{fill:#36518C;}
	.st32{fill:#96B7E3;}
	.st33{fill:#A3B3DF;}
	.st34{fill:url(#SVGID_1_);}
	.st35{fill:url(#SVGID_2_);}
	.st36{fill:url(#SVGID_3_);}
	.st37{fill:url(#SVGID_4_);}
	.st38{fill:url(#SVGID_5_);}
	.st39{fill:#266AB7;}
	.st40{fill:#060E0D;}
	.st41{fill:#E0D4C6;}
	.st42{fill:#787E42;}
	.st43{fill:#D3D1D1;}
	.st44{fill:url(#SVGID_6_);}
	.st45{fill:url(#SVGID_7_);}
	.st46{fill:url(#SVGID_8_);}
	.st47{fill:#020508;}
	.st48{fill:#BAB6B6;}
	.st49{fill:#0F0B07;}
	.st50{fill:#2F3A68;}
	.st51{fill:#203257;}
	.st52{opacity:0.5;fill:#FFFFFF;}
	.st53{opacity:0.2;fill:#0E0C0D;}
	.st54{fill:#DD9F9B;}
	.st55{fill:#3E4D9B;}
	.st56{fill:url(#SVGID_9_);}
	.st57{fill:#5F6194;}
	.st58{fill:url(#SVGID_10_);}
	.st59{fill:url(#SVGID_11_);}
	.st60{fill:url(#SVGID_12_);}
	.st61{fill:url(#SVGID_13_);}
	.st62{fill:#070102;}
	.st63{fill:#100805;}
	.st64{fill:#FDA465;}
	.st65{fill:#2A50A1;}
	.st66{fill:#B76C39;}
	.st67{fill:#130602;}
	.st68{fill:url(#SVGID_14_);}
	.st69{fill:url(#SVGID_15_);}
	.st70{fill:url(#SVGID_16_);}
	.st71{fill:url(#SVGID_17_);}
	.st72{fill:url(#SVGID_18_);}
	.st73{fill:url(#SVGID_19_);}
	.st74{fill:#B4BDED;}
	.st75{fill:#100D08;}
	.st76{fill:#F6C85F;}
	.st77{fill:#FECF00;}
	.st78{fill:#2D59E2;}
	.st79{fill:#121F3A;}
	.st80{fill:#BBD0F5;}
	.st81{fill:#020202;}
	.st82{fill:#E2CFB7;}
	.st83{fill:#080805;}
	.st84{fill:#A87D7C;}
	.st85{fill:#182052;}
	.st86{fill:#EAEAEA;}
	.st87{fill:#DDDDDD;}
	.st88{fill:#3D4574;}
	.st89{fill:#ABC5F0;}
	.st90{fill:url(#SVGID_20_);}
	.st91{fill:#4159A8;}
	.st92{fill:#E0D0BD;}
	.st93{fill:#3D53AA;}
	.st94{fill:#0A0000;}
	.st95{fill:#BF6D36;}
	.st96{fill:#385DAE;}
	.st97{fill:#E0DCDC;}
	.st98{fill:#857E78;}
	.st99{fill:#0E213C;}
	.st100{fill:url(#SVGID_21_);}
	.st101{fill:#55608E;}
	.st102{opacity:0.3;fill:#F4F2F2;}
	.st103{opacity:0.3;}
	.st104{fill:#213987;}
	.st105{enable-background:new    ;}
</style>
<g id="Chef_Cutting_1_">
	<g id="Chef_Cutting">
		<g>
			<path class="st51" d="M129.561554,77.2389145c-2.4079666,0.7808838-5.1016006,1.5971451-7.4129868,0.2910309
				c-1.1099167-0.6271896-1.9579849-1.7950668-1.9854355-3.0696411c-1.3859634,0.381424-3.1112289-0.4472351-4.1088486-1.4821854
				c-0.997612-1.0349579-1.372261-2.6287613-0.9402008-3.9997864c0.3154831-1.0011063,1.0221024-1.8834686,1.1151047-2.9289856
				c0.0851669-0.9575043-0.35952-1.8703079-0.6205521-2.795475c-1.4224472-5.0415497,2.7189026-10.0074997,7.9720383-9.4499474
				c8.0479126-7.5179596,21.0752258-9.7110291,31.1890869-5.3522873c1.3806458,0.5950127,2.7425079,1.3206863,3.7636108,2.4241104
				c1.0211182,1.1034241,1.660965,2.6455536,1.3789215,4.122261c1.8083038,0.2387581,3.5813141,1.6792679,4.1029205,3.4270973
				c0.5215912,1.7478294-0.0722046,3.7765198-1.4539032,4.9672585c2.2795715,2.4428635,1.9383087,6.9041061-1.9909821,9.9567413
				c-3.5014343,2.7202301-12.2532196,5.4589615-21.4851074,4.2925568"/>
			<polyline class="st3" points="155.7128448,76.8972778 154.2240143,68.0091171 130.0366364,80.083931 130.125061,93.1233673 
				139.3660583,99.7311935 151.7407684,95.7965622 154.958786,87.8371124 155.7128448,77.264595 			"/>
			<path class="st1" d="M111.4792557,115.8395844c-4.1368484,19.6266022-7.4125214,35.167511-10.1498642,48.1544189
				l-23.9202576,12.2534943c-0.0774841-0.1009674-23.8835106,3.7377777-8.6982117-39.6221313
				c15.1745987-43.3311996,29.3299332-47.1768188,29.3299332-47.1768188L111.4792557,115.8395844z"/>
			<path class="st15" d="M172.4161224,165.9292755c0,0,15.644989,16.1867981,20.5097656,48.5118866l-111.7350616-2.5972595
				c0,0,9.5242157-34.4901581,16.5503006-45.2800903C104.7672119,155.7738647,172.4161224,165.9292755,172.4161224,165.9292755z"/>
			<polygon class="st13" points="278,266.6994019 22,266.6994019 54.1480446,211.2139282 244.5718231,211.2139282 			"/>
			<rect x="22" y="266.6994019" class="st7" width="256" height="6.5350142"/>
			<path class="st20" d="M258.3422852,234.2090454c0,3.8666992,1.2139587,23.9202576-24.5947418,23.9053955
				c-23.7049103-0.0136719-26.182251-20.0386963-26.182251-23.9053955s11.3668213-7.0012665,25.388504-7.0012665
				C246.9754639,227.2077789,258.3422852,230.3423462,258.3422852,234.2090454z"/>
			<path class="st1" d="M230.6714478,162.3943634c-22.3737183,16.3534241-34.9945068,3.0928192-34.9945068,3.0928192
				s-0.136261-0.3495026-0.3851471-0.9718323c-1.8842621-4.7283173-10.256546-25.3656921-15.2752075-31.877655
				c-5.6882935-7.3709641,4.1476593-43.6867752,9.9958038-42.6617203
				c5.6882782,0.9955444,42.4306946,45.8968735,43.3609161,65.2664413
				C233.5273743,158.4124756,232.7215576,160.8951111,230.6714478,162.3943634z"/>
			<path class="st1" d="M190.0118408,89.976532c0,0-9.4273529-5.9315948-25.2083588-8.9202423
				c0,0-5.1241913-1.845314-7.5852661-3.5301819c0,0-8.3168793,20.3212357-12.2423553,23.1001358
				c0,0-19.2959137-14.0596924-16.6306458-19.400444c0,0-15.9448242,0.3641281-30.3052673,8.2239075
				c0,0,7.1969528,43.6796875-0.2988205,77.1141052c0,0,27.7660217,11.972168,51.9426651,9.5295715
				c24.1766357-2.4426117,26.4266815-8.7930908,26.4266815-8.7930908s8.4218292-20.4590607,6.5358429-37.5508118
				C180.7603455,112.6577377,190.0118408,89.976532,190.0118408,89.976532z"/>
			<path class="st4" d="M98.3352661,159.4582825c2.8887482-10.963562,4.0361023-22.3840637,3.3859787-33.7031631
				c3.5185471,13.9988174,2.3765488,29.1274338-3.2035828,42.4394455"/>
			<path class="st15" d="M126.7061996,81.2257996c0,0-1.1447601,3.3267441,1.1802979,7.0121994
				c2.3250504,3.685463,10.6016617,11.7437515,10.6016617,11.7437515s-8.3488464,8.0950241-23.9799423,13.6919708
				c0,0-2.4786453-0.7966919-1.7628784,12.539566c0.7157745,13.3362579-3.5630417,37.9394073-7.4139633,45.5699463
				c-3.8509293,7.6305542,8.4863052,4.6388397,8.4863052,4.6388397s9.1432648-27.9431915,6.7466888-56.6901093
				c0,0,16.5077896-3.6538925,28.7213516-16.69944s11.8040009-23.4755249,11.8040009-23.4755249
				s-1.6142273-2.1901093-5.3768768-2.6597214c0,0-5.8267059,13.5755844-12.1987305,18.8992844
				c0,0-12.3955688-10.8333664-13.1064453-14.5707626C130.4076691,81.2257996,128.8440704,80.190155,126.7061996,81.2257996z"/>
			<circle class="st15" cx="128.7501526" cy="130.8435822" r="2.0439587"/>
			<circle class="st15" cx="156.531189" cy="130.6303253" r="2.0439587"/>
			<circle class="st15" cx="151.7896729" cy="159.7778778" r="2.0439587"/>
			<circle class="st15" cx="123.9412613" cy="160.8316193" r="2.0439587"/>
			<path class="st4" d="M230.6714478,162.3943634c-8.5696411,6.3048401-19.2891083,10.5818634-29.1818085,6.6893311
				c-3.8158875-1.4989624-5.8126984-3.5965118-5.8126984-3.5965118s-0.136261-0.3495026-0.3851471-0.9718323
				c8.9892883-7.7570953,21.1712494-11.6224823,32.9087982-10.4698486c1.778244,0.1702728,3.5397797,0.4717255,5.1727142,1.1969147
				C233.5273743,158.4124756,232.7215576,160.8951111,230.6714478,162.3943634z"/>
			<path class="st4" d="M102.3485107,159.1589203c-0.0211182,0.1002045-1.0870895,5.157547-1.0191193,4.835083
				c-2.723793,1.3953094,9.3205032-4.7745667-23.9202576,12.2534943c0,0-7.2642746,1.1315308-11.23423-5.1371307
				c0.8479156-2.9039001,3.0900345-6.1294708,5.0779724-8.3963013c7.2245789-8.2019501,18.6587067-9.8523865,27.4634628-5.8303528
				C100.0113373,157.4819794,101.2725983,158.2056885,102.3485107,159.1589203z"/>
			<path class="st7" d="M232.2297058,154.8098907c-4.0956573,14.5008698-11.6901245,28.3445435-22.0240631,39.8177185
				c-7.228363,8.043457-9.5327911,6.7005463-12.33638,10.3986664c-1.2324219,1.6175842-1.789444,3.7212219-1.5997925,5.7415314
				c0.1066132,1.1141663,1.0191193,4.443924-1.5583344,3.7507172c-0.5748138-0.1539154-0.9598846-0.6755524-1.262085-1.1850433
				c-1.1435242-1.925705-1.771637-4.0646362-1.8427429-6.3045349c-0.4385681,7.0347595-0.3763123,7.5108795-0.7820892,8.4020844
				c-0.8192902,1.7993622-2.8013306,1.6165009-3.4959869-0.1067505c-0.3080444-0.7583008-0.290329-1.6057281-0.2666016-2.4291229
				c0.0593109-2.2754822,0-4.5506897,0.0652466-6.825882c-2.1078949,8.1209106-2.1069031,8.5124359-2.6545715,9.1661835
				c-0.3970184,0.4741821-1.0902252,0.7585907-1.647171,0.4979095c-0.7643738-0.3674316-0.8118134-1.416214-0.7406464-2.2636261
				c0.2369537-3.02771,0.4028778-6.2154236,0.645752-9.2434235c-0.675415,2.4354858-1.3508911,4.8706665-2.0263824,7.3000793
				c-0.2073669,0.7583008-0.5391388,1.6412964-1.2975922,1.8368835c-0.6814117,0.1776428-1.3865509-0.3318481-1.6768799-0.9660339
				c-0.2903442-0.6396942-0.2725525-1.3745575-0.2428894-2.0738373c0.1777191-4.6215668,0.4562531-9.5512695,3.2055054-13.2664032
				c2.1627197-2.9270325,6.3163147-3.2588806,8.5382843-6.1387482c5.1194153-6.6303101,9.2492828-14.0189209,12.2593536-21.8345642
				c1.3627625-3.5314178,2.4945068-7.1516571,3.3832855-10.8251343c7.210968-3.4663239,15.3641052-4.9950867,23.3276672-4.2130585
				C229.5633545,154.1759949,230.9321136,154.3834229,232.2297058,154.8098907z"/>
			<g>
				<path class="st3" d="M133.2899933,201.4159393L107.97995,191.0675354
					c-0.7589264-0.3103027-1.6257095,0.0533905-1.9360046,0.8123169l-2.1447983,5.2457123
					c-0.3102951,0.7589264,0.0533905,1.6257172,0.8123169,1.9360199l31.195961,12.7549591
					c1.2626801,0.5162659,2.4947205-0.8006897,1.8955688-2.0262146l-3.7411194-7.6522675
					C133.901886,201.8108063,133.6271667,201.5538025,133.2899933,201.4159393z"/>
				<path class="st6" d="M146.62117,224.3481903c0.768158-0.2786407,1.6123962-0.2008667,2.4281311-0.1531219
					c3.0186005,0.1766968,2.884201-1.0652161,4.27742-2.0280304c2.644516-1.8275452,6.0868073,1.3705139,8.935791,0.1878662
					c0.9909973-0.4113617,1.7442169-1.3102112,2.7769165-1.6014709c1.3775024-0.3884888,2.7722473,0.3990936,4.130661,0.8498535
					c1.8710022,0.6208649,3.9481049,0.6013184,5.8070984-0.0546265c0.9407501-0.331955,2.6202698-1.1973419,3.6584778-0.1506653
					c0.6375732,0.6427765,0.5183105,1.7688904-0.0326691,2.4872894c-1.1288452,1.4718781-3.2997437,1.4746552-4.6742554,2.654007
					c-0.9858246,0.8458405-1.4538727,2.2037811-2.5134735,2.9551544c-1.8659058,1.3231354-4.3292389,0.270874-6.4028778,0.2905884
					c-3.0185852,0.0287018-5.8761292,2.0979767-8.8460236,1.5572205c-2.6170807-0.4765015-4.6122284-2.8894043-7.2569122-3.1755829
					c-0.7392426-0.0800018-1.501236,0.0128632-2.2182922-0.1842957
					C144.7909698,227.4597778,144.8384247,224.9948578,146.62117,224.3481903z"/>
				<path class="st1" d="M180.5769958,220.7498779c-0.1271973-0.0152283-9.0987396,9.8045959-51.7532959-7.6353912
					c0.5377808-1.2383118,5.2918549-12.183197,4.9888153-11.4849854L180.5769958,220.7498779z"/>
				<path class="st4" d="M180.5769958,220.7498779c-0.1271973-0.0152283-9.0987396,9.8045959-51.7532959-7.6353912
					l1.1963348-2.7557373c12.2949982,4.9991913,35.0176697,12.9841766,47.7487183,9.2429352L180.5769958,220.7498779z"/>
				<path class="st52" d="M147.1999664,219.6463623c-1.528183-0.445282-3.116394-0.9408722-4.7766113-1.4842987
					l-5.2315216-15.1508789l4.3739624,1.7883606L147.1999664,219.6463623z"/>
				<path class="st52" d="M159.2890472,222.5126953c-1.4678955-0.2523499-3.0267792-0.5599823-4.6863708-0.9347229L150,208.2480011
					l4.5872955,1.8755951L159.2890472,222.5126953z"/>
			</g>
			<path class="st7" d="M137.19487,212.2253876c-0.6577606,1.3687592-2.3049927,2.3761749-3.7269897,1.8311005
				c-0.8887939-0.3437195-1.4990997-1.2087708-1.771637-2.1212921c-0.0059357-0.0237122-0.0118713-0.0532227-0.0237274-0.0769501
				c-0.2836151,3.5417633-4.7035675,4.2531128-5.0542526-0.2430267c-0.3140488,1.4399261-1.6412964,2.6958618-3.1462631,2.6721344
				c-1.4635849-0.0176392-2.7255936-1.2559204-3.0277863-2.6602783c-0.5688019,2.1270752-2.9448242,4.1951141-4.230629,1.5345459
				c-0.3081207-0.6399689-0.4029465-1.3569031-0.5095596-2.0619659c-0.4859085-3.0453644-1.4753799-6.0079956-2.9033813-8.7397308
				c-0.6636276-1.2677917-1.4042816-2.7433167-2.3996811-3.7744446
				c-1.3015289-1.3447876-28.2903595-19.2819672-32.7665939-22.4505157
				c-3.6903687-2.5996094-7.1585922-5.4819794-9.3856277-9.4034271c7.4184036-11.7892456,20.7864609-14.6924438,30.923851-9.6285095
				c5.8855972,6.6395264,18.2006149,20.4506683,24.311203,26.8059082
				c6.114975,6.3644104,12.3800812,11.8710632,14.0606537,23.8311462
				C137.7518158,209.2451172,137.8465576,210.8508301,137.19487,212.2253876z"/>
			<ellipse class="st3" cx="119.2641449" cy="246.1452484" rx="59.5633659" ry="11.9773092"/>
			<path class="st22" d="M149.3114319,248.0987244c-6.5036469,0-11.7746124-3.045166-11.7746124-6.809906
				c0-7.1778412,16.7674713-9.4226227,22.3081665-3.0532532C163.8547974,242.8237,157.9250183,248.0987244,149.3114319,248.0987244z
				"/>
			<path class="st14" d="M158.3390656,243.6139984c-1.4563293,1.2743225-3.6656494,1.6132965-5.4364166,0.8355408
				c-1.2577362-0.5624084-2.3086243-1.6298523-3.6738281-1.8617706c-1.4067383-0.2315063-2.7803345,0.4799957-4.1869659,0.7365417
				c-2.9017487,0.5238953-5.9020538-0.9762726-7.1160583-3.7732239c2.7438202-6.0365295,17.0392914-6.9252777,21.9191895-1.3155212
				c0.0164642,0.0331421,0.0247498,0.0662689,0.03302,0.0993958
				C160.4242554,240.1967316,159.7953949,242.3396912,158.3390656,243.6139984z"/>
			<path class="st11" d="M150.008606,236.7876892c1.0848541-0.4126587,2.3395233-0.059494,3.2877655,0.6098785
				c2.2353821,1.5780029,2.3356323,4.2320099,0.7732544,5.4196014c-0.7649078,0.5814362-1.9588623,0.5521088-2.8799591,0.4455109
				c-1.6916656-0.195755-3.0180206-2.0790405-2.9940033-3.7298737
				C148.2124176,238.3803101,148.907959,237.2063751,150.008606,236.7876892z"/>
			<path class="st11" d="M142.5639038,240.144165c1.0848541-0.412674,2.3395386-0.0595093,3.2877655,0.6098785
				c2.2353821,1.5779877,2.3356323,4.2320099,0.7732697,5.4196014c-0.7649231,0.5814362-1.9588623,0.5520935-2.8799744,0.4455109
				c-1.6916656-0.1957703-3.0180206-2.0790405-2.9940033-3.7298889
				C140.7677307,241.7367706,141.4632568,240.5628357,142.5639038,240.144165z"/>
			<path class="st22" d="M115.1521988,247.4360199c-6.5036545,0-11.7746201-3.045166-11.7746201-6.809906
				c0-7.1778412,16.7674789-9.4226227,22.3081665-3.0532532
				C129.6955566,242.1609955,123.7657852,247.4360199,115.1521988,247.4360199z"/>
			<path class="st14" d="M124.1798248,242.9512939c-1.4563217,1.2743225-3.6656494,1.6132965-5.436409,0.8355408
				c-1.2577438-0.5624084-2.3086243-1.6298523-3.6738358-1.8617706c-1.4067307-0.2315063-2.7803268,0.4799957-4.1869583,0.7365417
				c-2.9017563,0.5238953-5.9020615-0.9762726-7.116066-3.7732239c2.7438278-6.0365295,17.0392914-6.9252777,21.9191895-1.3155212
				c0.0164642,0.0331421,0.0247498,0.0662689,0.0330276,0.0993958
				C126.2650223,239.5340271,125.6361542,241.6769867,124.1798248,242.9512939z"/>
			<path class="st11" d="M115.8493729,236.1249847c2.0411377-0.776413,4.7834167,1.1125183,5.0913086,3.3633881
				c0.1333466,0.9748383-0.2335815,2.0605011-1.0302887,2.6660919c-0.7649155,0.5814362-1.9588623,0.5521088-2.8799667,0.4455109
				c-1.6916656-0.195755-3.0180206-2.0790405-2.9940109-3.7298737
				C114.0531845,237.7176056,114.7487259,236.5436707,115.8493729,236.1249847z"/>
			<path class="st11" d="M108.4046707,239.4814606c1.0848541-0.412674,2.3395233-0.059494,3.2877579,0.6098785
				c2.2353821,1.5779877,2.3356323,4.2320099,0.7732697,5.4196014c-0.7649231,0.5814362-1.9588699,0.5520935-2.8799744,0.4455109
				c-1.6916656-0.1957703-3.0180206-2.0790405-2.9940033-3.7298889
				C106.6084824,241.0740662,107.3040237,239.9001312,108.4046707,239.4814606z"/>
			<path class="st22" d="M82.4412308,246.4812622c-6.5036545,0-11.7746201-3.045166-11.7746201-6.809906
				c0-7.1778412,16.7674789-9.4226379,22.3081665-3.0532532C96.9845963,241.2062225,91.0548172,246.4812622,82.4412308,246.4812622z
				"/>
			<path class="st14" d="M91.4688644,241.9965363c-1.4563293,1.2743073-3.665657,1.6132965-5.4364166,0.8355408
				c-1.2577438-0.5624084-2.3086243-1.6298523-3.6738358-1.8617706c-1.4067307-0.2315063-2.7803268,0.4799805-4.1869583,0.7365417
				c-2.9017563,0.52388-5.9020538-0.9762726-7.1160583-3.7732239c2.7438202-6.0365448,17.0392838-6.9252777,21.9191818-1.3155212
				c0.0164642,0.0331268,0.0247498,0.0662537,0.0330276,0.0993958
				C93.5540543,238.5792542,92.9251862,240.722229,91.4688644,241.9965363z"/>
			<path class="st11" d="M83.1384048,235.1702271c1.0848541-0.4126587,2.3395233-0.059494,3.2877579,0.6098785
				c2.2353821,1.5780029,2.3356323,4.2320099,0.773262,5.4196014c-0.7649155,0.5814362-1.9588623,0.5521088-2.8799667,0.4455109
				c-1.6916656-0.1957703-3.0180206-2.0790405-2.9940033-3.7298737
				C81.3422165,236.7628326,82.0377579,235.588913,83.1384048,235.1702271z"/>
			<path class="st11" d="M75.6937027,238.5266876c1.0848541-0.4126587,2.3395309-0.059494,3.2877579,0.6098785
				c2.2353821,1.5780029,2.3356323,4.2320099,0.7732697,5.4196014c-0.7649231,0.5814362-1.9588623,0.5521088-2.8799744,0.4455109
				c-1.6916656-0.195755-3.0180206-2.0790405-2.9940033-3.7298737
				C73.897522,240.1193085,74.5930557,238.9453735,75.6937027,238.5266876z"/>
			<path class="st1" d="M256.0694275,234.2124329c0,0.7446289-0.6454468,1.4565277-1.8203583,2.1017609
				c-7.5875702,4.1872101-32.7045441,4.4386749-41.7780304,0.3971558c-1.6797485-0.7446289-2.6313324-1.5971222-2.6313324-2.4989166
				c0-2.7138672,8.5723877-4.9562225,19.7264099-5.3372192c2.1998444-0.0719147,3.1393127-0.0552063,3.3843536-0.057785
				C245.7179871,228.8174286,256.0694275,231.2335205,256.0694275,234.2124329z"/>
			<path class="st3" d="M254.2490692,236.3141937c-7.5875702,4.1872101-32.7045441,4.4386749-41.7780304,0.3971558
				c0.0868835-3.0032806,2.8447876-5.0015564,5.6100464-4.377243c1.9444885,0.4468536,3.6325226,2.1348877,5.6018677,1.8451996
				c2.6876221-0.3969269,3.504776-3.8377686,5.8831635-5.3040924c1.0955811-0.6602783,2.1743927-0.6227417,3.0780945-0.057785
				c0.8605957,0.5377655,1.5308685,1.4730988,2.1431732,2.3171082c0.8523102,1.1749115,2.0603485,2.407608,3.5001068,2.2173157
				c2.2340851-0.2896881,3.3842468-3.806366,5.5852966-3.3178864c1.6217804,0.3474579,2.0272217,2.6310425,3.5001068,3.4007111
				c1.4977417,0.7862396,3.4091034-0.339386,5.006134,0.2234344
				C253.4629364,234.0467834,254.1166534,235.155838,254.2490692,236.3141937z"/>
			<path class="st6" d="M230.0896912,231.1459808c0.4092102-0.1980591,0.9913788-0.0348053,1.1417389,0.3942261
				c0.1355286,0.386734-0.0752411,0.8888092,0.2079163,1.1850433c0.2984772,0.3122711,0.812851,0.0807953,1.2448273,0.0843201
				c0.6528473,0.0053406,1.1934509,0.7288666,1.0134888,1.3564453c-0.1799469,0.6275787-1.0218048,0.9547119-1.5782776,0.6132813
				c-0.3368378-0.2066498-0.6187286-0.6167297-1.008606-0.5522156c-0.3975067,0.0657806-0.5851898,0.6017761-0.9833984,0.6631622
				C229.0887604,235.0503387,229.1919403,231.5805054,230.0896912,231.1459808z"/>
			<path class="st6" d="M216.0658417,232.8100739c0.4092102-0.1980438,0.9913788-0.03479,1.1417389,0.3942413
				c0.1355286,0.3867188-0.0752411,0.8888092,0.207901,1.1850281c0.2984924,0.3122864,0.8128662,0.0807953,1.2448273,0.0843353
				c0.6528473,0.0053253,1.1934509,0.7288513,1.013504,1.3564301s-1.0218048,0.9547119-1.5782928,0.6132965
				c-0.3368378-0.206665-0.6187286-0.616745-1.008606-0.5522156c-0.3974915,0.0657654-0.5851898,0.6017761-0.9833832,0.663147
				C215.0649109,236.714447,215.1680908,233.2445984,216.0658417,232.8100739z"/>
			<path class="st6" d="M226.6079865,233.7891846c0.4351654,0.1315765,0.7527466,0.6460724,0.5726624,1.0634918
				c-0.162323,0.3762665-0.6575165,0.6027527-0.6499634,1.0124817c0.0079651,0.4319,0.5431213,0.6101532,0.8584442,0.9054108
				c0.4765625,0.446228,0.3839874,1.3446655-0.1735687,1.6843262c-0.5575562,0.3396759-1.3983765,0.009903-1.576355-0.6182404
				c-0.1077271-0.3802032-0.0372314-0.8728027-0.3677063-1.0895081c-0.3369293-0.220932-0.8381195,0.0461426-1.1725922-0.1784973
				C223.226532,235.9827118,225.6532898,233.5005341,226.6079865,233.7891846z"/>
			<path class="st6" d="M239.5436554,233.5497589c0.4351654,0.1315613,0.7527466,0.6460724,0.5726624,1.0634918
				c-0.162323,0.3762665-0.6575317,0.6027527-0.6499634,1.0124817c0.0079651,0.4319,0.5431213,0.6101379,0.8584442,0.9053955
				c0.4765625,0.4462433,0.3839722,1.3446655-0.1735687,1.6843414c-0.5575562,0.3396759-1.3983765,0.009903-1.576355-0.6182404
				c-0.1077271-0.3802032-0.0372314-0.8728027-0.3677063-1.0895081c-0.3369293-0.220932-0.8381195,0.0461426-1.1725922-0.1784973
				C236.1621857,235.7432861,238.5889587,233.2611084,239.5436554,233.5497589z"/>
			<path class="st6" d="M246.8877716,231.7110901c0.4351654,0.1315613,0.7527466,0.6460724,0.5726624,1.0634918
				c-0.162323,0.3762665-0.6575165,0.6027527-0.6499634,1.0124664c0.0079651,0.4319153,0.5431213,0.6101532,0.8584442,0.9054108
				c0.4765625,0.4462433,0.3839874,1.3446655-0.1735687,1.6843414c-0.5575409,0.3396759-1.3983765,0.009903-1.576355-0.6182404
				c-0.1077271-0.3802185-0.0372314-0.8728027-0.367691-1.0895081c-0.3369446-0.220932-0.8381348,0.0461426-1.1726074-0.1785126
				C243.5063171,233.9046173,245.933075,231.4224243,246.8877716,231.7110901z"/>
			<path class="st29" d="M151.3254089,224.3297577c0.311615,0.0942078,0.539032,0.4626312,0.4100647,0.7615509
				c-0.1162415,0.2694397-0.4708405,0.4316101-0.4654236,0.7250061c0.0057068,0.3092804,0.3889313,0.4369202,0.6147156,0.6483459
				c0.3412628,0.3195496,0.2749634,0.9628906-0.1242828,1.206131c-0.3992615,0.2432251-1.001358,0.0070953-1.1287994-0.4427185
				c-0.0771484-0.2722626-0.0266724-0.625-0.2633057-0.7801666c-0.241272-0.1582184-0.600174,0.0330353-0.8396759-0.1278229
				C148.904007,225.9004974,150.6417694,224.1230469,151.3254089,224.3297577z"/>
			<path class="st29" d="M156.630249,226.057312c0.311615,0.094223,0.539032,0.4626465,0.41008,0.7615509
				c-0.1162415,0.2694397-0.4708405,0.4316254-0.4654388,0.7250214c0.0057068,0.3092804,0.3889313,0.4369202,0.6147308,0.6483459
				c0.3412476,0.3195496,0.2749481,0.9628906-0.1242981,1.206131c-0.3992462,0.2432251-1.001358,0.0070801-1.1287994-0.4427185
				c-0.0771484-0.2722626-0.0266571-0.625-0.2633057-0.7801819c-0.241272-0.1582031-0.6001587,0.0330505-0.8396759-0.1278229
				C154.208847,227.628067,155.9466095,225.8506165,156.630249,226.057312z"/>
			<path class="st29" d="M162.995697,224.1890106c0.3115997,0.094223,0.5390167,0.4626465,0.4100647,0.7615509
				c-0.1162415,0.2694397-0.4708405,0.4316254-0.4654236,0.7250214c0.0057068,0.3092804,0.388916,0.4369202,0.6147156,0.6483459
				c0.3412628,0.3195343,0.2749634,0.9628906-0.1242981,1.2061157c-0.3992462,0.2432404-1.0013428,0.0070953-1.1287994-0.4427032
				c-0.0771332-0.2722626-0.0266571-0.625-0.2633057-0.7801819c-0.241272-0.1582031-0.6001587,0.0330353-0.8396606-0.1278229
				C160.5742798,225.7597656,162.3120422,223.9823151,162.995697,224.1890106z"/>
			<path class="st29" d="M170.4815826,224.5908966c0.311615,0.094223,0.539032,0.4626465,0.41008,0.7615509
				c-0.1162415,0.2694397-0.4708405,0.4316254-0.4654388,0.7250214c0.0057068,0.3092804,0.3889313,0.4369202,0.6147308,0.6483459
				c0.3412476,0.3195496,0.2749481,0.9628906-0.1242981,1.206131c-0.3992462,0.2432251-1.001358,0.0070801-1.1287994-0.4427185
				c-0.0771484-0.2722626-0.0266571-0.625-0.2633057-0.7801819c-0.241272-0.1582031-0.600174,0.0330353-0.8396759-0.1278229
				C168.0601807,226.1616516,169.7979431,224.384201,170.4815826,224.5908966z"/>
			<path class="st4" d="M182.8665924,137.4073944c-0.3676758-6.7555695-0.3371429-14.2357788,0.2310638-21.7573547
				c0,0-0.0059357,0,0-0.0059204c0.1481323-1.9849548,0.3318176-3.9699097,0.5510406-5.9548645
				c-5.3090057,13.2784576-6.3044739,28.2337036-2.8085632,42.1047821
				C181.9510345,146.7627869,182.7091217,141.9224854,182.8665924,137.4073944z"/>
			<path class="st7" d="M123.450531,56.9561844c0,0-0.5303497,6.2507477,1.2534103,9.4066238
				c1.7837601,3.1558838,2.8699112,22.9543457,15.065773,21.8065186c3.7265167-0.3507233,6.6190033-1.8123245,8.8392181-3.6731949
				c7.9428711-6.6573105,5.622818-16.5870209,5.6150818-16.4870148c5.1595306-3.3492889,3.605957-10.6863785,0.7657318-11.3836327
				c-1.3809509-0.3390121-2.7540894,0.8809738-3.1146088,2.2564545c-0.3605194,1.3754845,0.0090027,2.8247795,0.3773804,4.1981773
				c-1.0316162-2.2200127-2.2834778-4.3845711-3.7731018-6.3271713c-1.4896393-1.9426003-3.483429-3.5901642-5.8497314-4.2173195
				c-2.2022705-0.583683-4.5371094-0.2484169-6.768692,0.2106133
				C131.4161987,53.660511,127.9883728,56.9561844,123.450531,56.9561844z"/>
			<path class="st51" d="M133.034317,64.516983c0.3456421-0.2461243,0.4468384-1.1538239-1.0150604-1.3714981
				c-2.1834717-0.3251114-4.464447,0.039093-6.4381027,1.0279846c-1.6689529,0.8362122-1.1970444,1.5186539,0.014267,1.3350906
				c0.6739349-0.1021347,1.3356628-0.3703842,2.0058899-0.51091
				C130.8642273,64.3134918,132.6321564,64.8033524,133.034317,64.516983z"/>
			<path class="st51" d="M139.5311432,62.3997116c-0.3527985-0.1044044-0.4667816-0.5885963-0.3076935-0.9203415
				c0.6847839-1.4279709,5.0294037-2.1244431,7.2444763-1.827137c1.8501282,0.2483215,1.6256866,1.0471001,0.4204712,1.2672272
				c-1.1427612,0.2087288-1.7073517-0.057415-4.2621155,0.5786247
				C140.3656464,62.060894,139.9684296,62.5291176,139.5311432,62.3997116z"/>
			
				<ellipse transform="matrix(0.9330047 -0.3598642 0.3598642 0.9330047 -14.0680866 55.9506607)" class="st51" cx="143.2350159" cy="65.7585831" rx="1.1410158" ry="1.729352"/>
			
				<ellipse transform="matrix(0.9330047 -0.3598642 0.3598642 0.9330047 -15.9588881 51.3884315)" class="st51" cx="130.0366364" cy="68.5556717" rx="1.1410158" ry="1.729352"/>
			<path class="st3" d="M135.6205139,69.6113358c0.2485352,0.0351791,0.2008972,0.2425842,0.2323151,0.4223328
				c0.3797302,2.1722107-1.5162201,5.1560059,0.6079102,6.0487137c1.7236023,0.7232742,3.4305115-0.6202545,4.8602905-1.3552551
				c0.9417267-0.4841003,1.3188477,0.0594635,0.4435272,0.6698456c-1.295929,0.9037094-3.0645905,1.7678757-4.6392975,1.5694885
				c-2.644165-0.3329315-2.5213928-3.5235977-2.0898285-6.1629791
				C135.0957642,70.4345322,135.1160126,69.5399246,135.6205139,69.6113358z"/>
			<path class="st1" d="M150.514801,49.3585815c0,0-1.3213196,4.9652786-16.572876,8.7099266
				c-0.1025085-0.0036774-10.6720505,2.126915-12.4015579-0.4620438
				c-1.8605347-2.5775337-7.5310287-20.9396973-6.6363068-22.6226616c0.9006424-1.6826744,7.2524872-5.3978119,18.0541763-7.2465553
				c7.5073853-1.2857304,12.2357025-1.3864136,14.6591187,0.2488136c1.0664978,0.7230053,1.6886749,1.7836456,1.9019775,3.2293701
				C150.2303925,35.9437599,150.514801,49.3585815,150.514801,49.3585815z"/>
			<path class="st19" d="M146.8368073,76.0783005c-2.7837372,3.252121-7.555603,4.6440353-11.6512604,3.3985748
				c0.7903595,1.6352005,2.5617981,2.9548874,4.3750763,3.0577087s3.6123962-0.6434326,4.9977417-1.8178787
				C145.9437256,79.5422516,146.1097717,77.7426224,146.8368073,76.0783005z"/>
			<path class="st4" d="M150.514801,49.3585815c0,0-1.3213196,4.9652786-16.572876,8.7099266
				c0,0-10.4106827,2.0917702-12.3601151-0.4145927c8.4013596-1.8577652,16.3043747-5.2841072,21.6034012-12.1114426
				c3.8158875-4.9117584,5.6586304-11.5542145,4.4321442-17.5564117c1.0664978,0.7230053,1.6886749,1.7836456,1.9019775,3.2293701
				C150.2303925,35.9437599,150.514801,49.3585815,150.514801,49.3585815z"/>
			<g>
				<path class="st21" d="M131.3989563,212.1056824c0.9169922-4.0512695,0.277832-8.4523926-1.7529297-12.0749512
					c-0.2430573-0.4344635,0.4133453-0.7982941,0.6542969-0.3666992c2.1206055,3.7822266,2.7875977,8.3774414,1.8300781,12.6071777
					C132.0203247,212.755661,131.2891235,212.5888062,131.3989563,212.1056824z"/>
			</g>
			<g>
				<path class="st21" d="M126.2529602,212.0805359c0.3071289-4.2895508-0.3945313-8.6591797-2.0292969-12.6367188
					c-0.1898575-0.4600067,0.5059814-0.7419586,0.6933594-0.2851563c1.6787109,4.0842285,2.3994141,8.5710449,2.0839844,12.9755859
					C126.9652863,212.6325378,126.2176666,212.5782166,126.2529602,212.0805359z"/>
			</g>
			<g>
				<path class="st21" d="M120.1577454,211.8691101c-0.3642578-3.796875-1.3388672-7.4870605-2.8969727-10.9680176
					c-0.2028046-0.4542694,0.482666-0.7583008,0.6845703-0.3066406c1.5917969,3.5556641,2.5869141,7.3249512,2.9589844,11.2028809
					C120.9510651,212.2909698,120.2050705,212.3635254,120.1577454,211.8691101z"/>
			</g>
			<g>
				<path class="st21" d="M180.2256165,212.066864c0.6518555-4.4475098,2.378418-8.7314453,4.9931641-12.3879395
					c0.2891998-0.4033508,0.898468,0.0319672,0.6103516,0.4360352c-2.5458984,3.5600586-4.2270508,7.7307129-4.8613281,12.060791
					C180.8959808,212.6656799,180.1541595,212.5588379,180.2256165,212.066864z"/>
			</g>
			<g>
				<path class="st21" d="M184.780304,214.0949402c0.4560547-4.4147949,2.0073242-8.6950684,4.4853516-12.3779297
					c0.2761688-0.4107513,0.899704,0.0066071,0.6220703,0.4189453c-2.409668,3.5810547-3.9179688,7.7431641-4.3613281,12.0361328
					C185.475235,214.6649475,184.7288055,214.5888824,184.780304,214.0949402z"/>
			</g>
			<g>
				<path class="st21" d="M191.0879211,214.4338074c-0.9907227-4.6428223,0.2924805-9.7836914,3.3481445-13.4169922
					c0.3187256-0.3800201,0.8934937,0.1033936,0.5742188,0.4829102c-2.9106445,3.4599609-4.1323242,8.355957-3.1889648,12.7773438
					C191.9252472,214.7617035,191.1916046,214.9192047,191.0879211,214.4338074z"/>
			</g>
		</g>
	</g>
</g>
</svg>
