<?xml version="1.0" encoding="utf-8"?>
<!-- Generator: Adobe Illustrator 22.0.1, SVG Export Plug-In . SVG Version: 6.00 Build 0)  -->
<svg version="1.1" id="Layer_1" xmlns="http://www.w3.org/2000/svg" xmlns:xlink="http://www.w3.org/1999/xlink" x="0px" y="0px"
	 viewBox="0 0 300 300" style="enable-background:new 0 0 300 300;" xml:space="preserve">
<style type="text/css">
	.st0{fill:#EDC1A4;}
	.st1{fill:#E2E0E0;}
	.st2{fill:#D39E81;}
	.st3{fill:#502E26;}
	.st4{fill:#CCCACA;}
	.st5{fill:#426800;}
	.st6{fill:#538705;}
	.st7{fill:#D47E44;}
	.st8{fill:#73341D;}
	.st9{fill:#BC672E;}
	.st10{fill:#96311D;}
	.st11{fill:#B83E21;}
	.st12{fill:#DE8D82;}
	.st13{fill:#EFBAB4;}
	.st14{fill:#FDD5D0;}
	.st15{fill:#6883CE;}
	.st16{fill:#3D4885;}
	.st17{fill:#3859AE;}
	.st18{fill:#864424;}
	.st19{fill:#FEFEFE;}
	.st20{fill:#FFFFFF;}
	.st21{fill:#A55925;}
	.st22{fill:#F4F2F2;}
	.st23{fill:#3C3E68;}
	.st24{fill:#E8997C;}
	.st25{fill:#F5C46B;}
	.st26{fill:#F7EBDA;}
	.st27{fill:#0E0C0D;}
	.st28{fill:#657C3A;}
	.st29{fill:#576C37;}
	.st30{fill:#7C995D;}
	.st31{fill:#36518C;}
	.st32{fill:#96B7E3;}
	.st33{fill:#A3B3DF;}
	.st34{fill:url(#SVGID_1_);}
	.st35{fill:url(#SVGID_2_);}
	.st36{fill:url(#SVGID_3_);}
	.st37{fill:url(#SVGID_4_);}
	.st38{fill:url(#SVGID_5_);}
	.st39{fill:#266AB7;}
	.st40{fill:#060E0D;}
	.st41{fill:#E0D4C6;}
	.st42{fill:#787E42;}
	.st43{fill:#D3D1D1;}
	.st44{fill:url(#SVGID_6_);}
	.st45{fill:url(#SVGID_7_);}
	.st46{fill:url(#SVGID_8_);}
	.st47{fill:#020508;}
	.st48{fill:#BAB6B6;}
	.st49{fill:#0F0B07;}
	.st50{fill:#2F3A68;}
	.st51{fill:#203257;}
	.st52{opacity:0.5;fill:#FFFFFF;}
	.st53{opacity:0.2;fill:#0E0C0D;}
	.st54{fill:#DD9F9B;}
	.st55{fill:#3E4D9B;}
	.st56{fill:url(#SVGID_9_);}
	.st57{fill:#5F6194;}
	.st58{fill:url(#SVGID_10_);}
	.st59{fill:url(#SVGID_11_);}
	.st60{fill:url(#SVGID_12_);}
	.st61{fill:url(#SVGID_13_);}
	.st62{fill:#070102;}
	.st63{fill:#100805;}
	.st64{fill:#FDA465;}
	.st65{fill:#2A50A1;}
	.st66{fill:#B76C39;}
	.st67{fill:#130602;}
	.st68{fill:url(#SVGID_14_);}
	.st69{fill:url(#SVGID_15_);}
	.st70{fill:url(#SVGID_16_);}
	.st71{fill:url(#SVGID_17_);}
	.st72{fill:url(#SVGID_18_);}
	.st73{fill:url(#SVGID_19_);}
	.st74{fill:#B4BDED;}
	.st75{fill:#100D08;}
	.st76{fill:#F6C85F;}
	.st77{fill:#FECF00;}
	.st78{fill:#2D59E2;}
	.st79{fill:#121F3A;}
	.st80{fill:#BBD0F5;}
	.st81{fill:#020202;}
	.st82{fill:#E2CFB7;}
	.st83{fill:#080805;}
	.st84{fill:#A87D7C;}
	.st85{fill:#182052;}
	.st86{fill:#EAEAEA;}
	.st87{fill:#DDDDDD;}
	.st88{fill:#3D4574;}
	.st89{fill:#ABC5F0;}
	.st90{fill:url(#SVGID_20_);}
	.st91{fill:#4159A8;}
	.st92{fill:#E0D0BD;}
	.st93{fill:#3D53AA;}
	.st94{fill:#0A0000;}
	.st95{fill:#BF6D36;}
	.st96{fill:#385DAE;}
	.st97{fill:#E0DCDC;}
	.st98{fill:#857E78;}
	.st99{fill:#0E213C;}
	.st100{fill:url(#SVGID_21_);}
	.st101{fill:#55608E;}
	.st102{opacity:0.3;fill:#F4F2F2;}
	.st103{opacity:0.3;}
	.st104{fill:#213987;}
	.st105{enable-background:new    ;}
</style>
<g id="Chopping_1_">
	<g id="Chopping">
		<g>
			<path class="st0" d="M155.9678955,109.2664642l-7.7940216,6.9618149l-16.1758728,2.9198227l-8.9604111-4.5312271
				c-0.2439728-0.5030365-1.2962265-25.9319077-1.6202087-33.4289017l30.4687576,3.1291351
				c0.1815948,2.1446152-0.6578522-7.7689896,1.7760468,20.9743195L155.9678955,109.2664642z"/>
			<path class="st2" d="M153.5687256,104.2099152c-9.1245117,4.5503159-22.2528534,1.9591675-31.6261215-10.8523026
				l-0.5252228-12.1696396l30.4687576,3.1291351L153.5687256,104.2099152z"/>
			<path class="st98" d="M127.6429749,54.8117142c-0.4738388-1.1999855-0.9476776-2.399971-1.4215088-3.5999565
				c2.711441-3.753952,7.8691254-5.2290802,12.2832336-3.3863678c0.1541748,1.2832642,0.4141235,2.4157219,0.5682983,3.6989861"/>
			<path class="st3" d="M126.3965607,51.6552238c2.586792-3.0238647,8.4711609-4.6138306,12.2616882-2.7576866
				c0,0,5.6747894-2.7488136,3.3113403-7.9640007c-2.3634644-5.2151909-7.3490295-4.5676003-12.2013092-0.6857491
				c0,0-9.4163284-2.8754044-11.4584274,4.4719276S123.1383286,53.0992699,126.3965607,51.6552238z"/>
			<path class="st15" d="M168.7032928,105.554451c0,0,14.2942047-6.6998367,27.5975037,2.8597031
				s50.656601,54.2298584,53.3065948,77.2351837l-71.5365753-16.5157623L168.7032928,105.554451z"/>
			<path class="st15" d="M108.815918,104.2417297c0,0-12.4005585-4.6614151-22.1444855,1.2978973
				s-36.5097427,30.7663116-46.5672684,86.5986176c0,0,25.7983322,12.3508759,40.5119858,7.6125336
				c14.7136459-4.738327,24.4094772-37.7939453,24.4094772-37.7939453L108.815918,104.2417297z"/>
			<path class="st15" d="M116.7801971,105.2319489l5.6768646,0.0603485c0,7.0526581,31.204361,7.0526581,31.204361,0
				l7.1690674,0.9399338l3.9821625,2.1819229l8.4491577,46.1206207l-10.5981598,18.273056l-37.5454407-1.1705017
				l-19.0585251-6.2483978l-2.4487686-20.2612762L116.7801971,105.2319489z"/>
			<path class="st16" d="M108.815918,104.2417297l7.9642792,0.9902191l-8.0515594,48.9965363l59.2092743,0.3744202
				l-7.1074219-48.3706741l7.8728027-0.6777802c0,0,24.8856049,108.2355423,27.5527191,123.6590042s-114.6767731,0-114.6767731,0
				L108.815918,104.2417297z"/>
			<g>
				<path class="st9" d="M132.456665,160.3102722l-10.7809982,38.919754
					c-0.8155289,3.0207825,1.0064621,6.1228485,4.0419769,6.8817139l0.0000153,0.0000153
					c3.0642319,0.7660522,6.1542892-1.1562958,6.8213272-4.2435913l7.4575043-34.5161285"/>
				<path class="st22" d="M144.4707794,169.6074524l-15.2397919-3.5368347l18.618576-66.2631531
					c0,0,4.0645905,3.7180862,6.5834351,12.0638809c2.22258,7.3641205,2.1672058,15.2287903,0.056488,22.6257553
					L144.4707794,169.6074524z"/>
				<path class="st4" d="M154.4901581,134.4962006l-10.0197601,35.1113739l-4.8562622-1.1262817l9.9529266-34.8798981
					c3.0627899-10.7392578,1.5016479-21.4737015-2.9200439-29.5205841l1.2019196-4.2732391
					c0,0,4.0639343,3.716835,6.5832977,12.0629196C156.6534119,119.2372131,156.6000519,127.0981827,154.4901581,134.4962006z"/>
			</g>
			<path class="st0" d="M142.7922668,181.8973999c-0.2893829,0.4362183-0.9347992,0.6722565-1.3576508,0.3605804
				c0.9036255,0.7789612,1.2597504,2.127594,0.8635254,3.253891c-0.3916626,1.1260681-1.5222931,1.949585-2.7107391,1.9895782
				c1.0236969,0.970459,1.2062683,2.7063904,0.4094696,3.868103c-0.801239,1.1662903-2.4838257,1.6159668-3.7568207,1.0061035
				c0.9926147,1.0906372,1.2551727,2.7952881,0.6320496,4.1352234c-0.6186829,1.3397217-2.087616,2.2388763-3.5654602,2.1810608
				c0.0757446-3.9437408-4.5002594-8.3906403-8.3193512-5.4660339c-1.063797,0.8100586-1.6202011,2.0965271-2.2434387,3.276062
				c-2.6128311,4.940918-7.0863495,8.8714142-12.3254776,10.8164368c-0.462944,0.1736603-0.9348068,0.3294983-1.4111176,0.4718628
				c-4.8785477,1.4512177-10.2422104,1.2419128-14.9873047-0.6142273l2.0654373-31.0785065
				c7.4273148,0.0400696,14.3884659-1.5978699,20.5290833-4.4512482c6.2613297-2.9157715,9.4833069-5.0087585,16.0022125-1.8785248
				c2.417099,1.1573639,4.6427155,2.701828,6.5834045,4.5536194c1.8428802,1.758316,3.6144562,3.378418,3.8548431,6.0537262
				C143.0993805,180.9004364,143.0860138,181.4611969,142.7922668,181.8973999z"/>
			<path class="st2" d="M109.0072556,207.7902679c-4.8785477,1.4512177-10.2422104,1.2419128-14.9873047-0.6142273
				l2.0654373-31.0785065c0.8055878,0.0043335,1.61129-0.0089264,2.4169922-0.0445709
				C98.8674164,187.3458252,102.552948,198.51828,109.0072556,207.7902679z"/>
			<g>
				<path class="st23" d="M192.1273041,192.2463379c-4.7876892-0.4246979,3.6555481-37.1344299,7.6864471-36.9227448
					l12.7651672,14.2839813l-5.9385529,14.0118103L192.1273041,192.2463379z"/>
				<path class="st9" d="M156.6070557,160.533371l30.4845428,26.4890594
					c2.3483582,2.0677032,2.5429535,5.6600037,0.4316864,7.9692841h-0.0000153
					c-2.1312408,2.331131-5.7689667,2.4354401-8.0302887,0.2302704L154.2113037,170.5681"/>
				<path class="st20" d="M151.7272644,174.9196167l10.7504883-11.3660736l-52.1211853-44.9537277
					c0,0-1.3345871,5.3445206,1.1754684,13.692955c2.2148132,7.3664551,6.6050339,13.8919525,12.4502716,18.8922882
					L151.7272644,174.9196167z"/>
				<path class="st4" d="M123.9812546,151.1846924l27.7463913,23.7348175l3.4261322-3.6212463l-27.5628128-23.5787811
					c-8.4850159-7.2606354-13.1128235-17.0712738-13.8715439-26.2215881l-3.3622665-2.8983383
					c0,0-1.3347473,5.3431091,1.1750488,13.6920853C113.7496338,139.6594849,118.1361237,146.1830139,123.9812546,151.1846924z"/>
			</g>
			<path class="st0" d="M212.5789185,165.2854309l-8.0077972,24.7222443
				c-3.9884033,0.5296631-8.0923309,0.062149-11.875885-1.282135c-5.2118378-1.845108-13.0810547-8.1108246-15.9934082-2.3279877
				c-0.5519409,1.0862885-0.7344055,2.3860168-0.6275787,3.5923004c0.0222778,0.2492828,0.7878723,3.1780243,1.0238037,3.0089264
				c-1.2019196,0.8635254-2.9200439,0.9215546-4.1797791,0.1512756c-1.2551727-0.7743988-1.9807892-2.3368988-1.7537689-3.796814
				c-0.7254944,1.2108307-2.3769989,1.7672424-3.6856384,1.2373505c-1.3086395-0.5296783-2.1143494-2.0741272-1.793869-3.4497223
				c-1.0148926,0.6233521-2.4125366,0.5564117-3.3651733-0.1601715c-0.9480591-0.7209473-1.3931885-2.0430603-1.0727081-3.1915131
				c-0.1824646,0.4940186-0.8501434,0.6544342-1.3353729,0.4496918c-0.4807587-0.2047424-0.8056946-0.6633453-1.0548859-1.126297
				c-1.2775574-2.3590698-0.6988831-4.6870575-0.1335602-7.1754608c0.596405-2.6127167,1.5979309-5.1321869,2.9734039-7.4334412
				c3.5520782-5.9381104,9.4187927-8.2215424,16.1491241-7.8164215c4.1974945,0.2536469,8.3371735,1.2373505,12.5391235,1.3175507
				c3.82547,0.0705872,7.7979431-0.620697,11.5776978-0.5520477
				C205.8264008,161.5240479,209.9081726,162.4899292,212.5789185,165.2854309z"/>
			<path class="st2" d="M212.5789185,165.2854309l-8.0077972,24.7222443
				c-4.7826996,0.6351471-9.864502-0.1033783-14.7470245-2.532959c4.7806244-7.998764,8.1725311-16.8345337,9.957489-25.9863129
				C204.3843079,161.2622681,209.4069519,161.9653015,212.5789185,165.2854309z"/>
			<path class="st15" d="M98.4957809,174.8512115c0,0-5.1842422,19.3368988,5.1151352,34.5847321
				c0,0-26.9927292,12.6630249-51.5798073,2.5735931c-5.5836372-2.291275-8.9187813-6.370285-11.1484985-11.9787903
				c-2.1747627-5.4702911-0.26577-15.5158691,4.0958366-20.6145172
				C58.0514069,164.1341248,98.4957809,174.8512115,98.4957809,174.8512115z"/>
			<path class="st15" d="M192.1273041,192.2462921c0,0,12.52211-21.5162811,7.628479-36.5564728
				c0,0,25.6241455,6.3903809,40.8531342,15.8141174c4.9971161,3.0922241,8.3943329,8.3000641,8.9984741,14.145401
				c0.5705109,5.5200195-1.129425,11.9750671-10.2112274,15.7151794
				C221.2325592,208.8447113,203.6201935,199.9331665,192.1273041,192.2462921z"/>
			<polygon class="st11" points="42.4129562,224.2082214 258.4233704,224.2082214 278,262.8207397 22,262.8207397 			"/>
			<polygon class="st25" points="193.1633453,255.2544098 87.9348297,255.2544098 97.8830261,227.1394043 182.6453247,227.1394043 
							"/>
			<polygon class="st3" points="87.9348297,255.2544098 88.4049759,258.2849426 192.6932068,258.2849426 193.1633453,255.2544098 
							"/>
			<path class="st3" d="M118.358963,72.0325317c0,0-1.2824326-12.4474907,9.2592697-18.7306366
				s19.2438889,0.2255783,22.6760635,4.909729s4.6872253,10.4677963,4.8594818,14.7217636
				c0.1722717,4.2539673-4.3236847,10.192421-5.221817,10.1337357c-0.8981476-0.0586853-30.3290558-6.2488556-30.3290558-6.2488556
				L118.358963,72.0325317z"/>
			<path class="st0" d="M154.0570221,82.2541733c0,0,1.0078125,3.5210571-0.9030304,9.312088
				c-1.9108276,5.7910309-5.8799896,11.4660645-17.9042511,9.7473221
				c-6.6552429-0.9513092-10.7399063-6.4112396-12.33284-12.5804901c-0.7561493-2.9284744-0.3968201-3.3397903-0.9041367-3.5342865
				c-0.3355484-0.1286392-1.1072006,0.2673264-1.5167389,0.2440109c-1.7507401-0.0996399-2.8210526-1.6223907-3.572052-3.1897812
				c-1.2029572-2.5106583-2.739296-7.3888092-1.3833618-9.8165283c2.3282623-4.1686172,5.9035416,1.0939255,6.4302444,3.5903091
				c0,0-2.914917-19.847744,15.1187286-19.4131966c18.0336456,0.4345436,16.3835449,18.1107216,16.3835449,18.1107216
				s-0.162323-9.1272888,4.4013062-7.4991531C162.4380798,68.8533249,160.0159607,82.5462341,154.0570221,82.2541733z"/>
			<path class="st3" d="M120.8930435,65.0095596c4.3137665-10.5644455,16.8386917-14.7622108,24.1612167-10.2007561
				c3.4513702,2.1499786,5.4418182,5.9614716,7.2718048,9.5926552c0.914856,1.8153305,1.2895203,6.8572006,1.2114563,8.6755295
				c-1.6511536-8.5224686-2.7312317-7.3158875-4.1767731-9.5381165c-0.5276947-0.8112221-1.0655518-1.6342163-1.7992096-2.2653198
				s-1.7031708-1.055397-2.661377-0.9197464c-1.0807648,0.1530037-2.0588074,0.9889793-3.1359863,0.8124237
				c-1.3805084-0.2262726-2.0648041-1.9697113-3.4186401-2.3220291c-1.2760162-0.3320656-2.4771423,0.7018661-3.3262939,1.7105408
				s-1.8013611,2.1757164-3.1188812,2.2269783c-1.1454926,0.0445671-2.1578674-0.7982216-3.3011932-0.8816986
				c-1.7935181-0.1309509-3.1889038,1.6363449-3.633728,3.3787651c-0.4448242,1.7424164-0.302002,3.6054459-0.8465195,5.3193283
				c-0.2421951,0.7623138-1.2347488,1.1295776-1.343483,1.92202c-0.1353378,0.9863586-0.3713074,4.0750198-0.8173523,3.4110718
				l-0.752243-2.5786514L120.8930435,65.0095596z"/>
			<path class="st3" d="M151.2257538,69.3884506c1.3656311,0.1548309,1.3717957,1.0483398,0.724823,1.4172974
				c-0.2449799,0.1397171-0.5322113,0.180542-0.8116302,0.2187958c-6.8361511,0.9359055-7.1826324,1.0525513-8.0354767,0.8649292
				c-0.6233978-0.1371613-1.7702332-0.7719574-1.1512146-1.4954224c0.4762726-0.5566254,2.2929688-0.6799774,2.9904633-0.8039932
				C147.0128174,69.2220001,149.1363678,69.1515656,151.2257538,69.3884506z"/>
			<path class="st3" d="M126.4828415,70.9360428c-1.3308182,0.3432922-1.2126236,1.2289581-0.5206223,1.5043411
				c0.2620392,0.1042786,0.5521469,0.1047516,0.8341827,0.1037674c6.8998718-0.0241318,7.2592163,0.04319,8.077652-0.2612457
				c0.5982819-0.2225418,1.6456604-1.010704,0.9320068-1.6410217c-0.5490723-0.4849625-2.3652496-0.3544083-3.0732117-0.380188
				C130.6316681,70.185173,128.5189667,70.4108124,126.4828415,70.9360428z"/>
			<ellipse class="st3" cx="147.7394257" cy="75.4906998" rx="1.4339091" ry="2.2266843"/>
			<ellipse class="st3" cx="131.3085938" cy="75.4906998" rx="1.4339091" ry="2.2266843"/>
			<path class="st2" d="M139.6489716,86.5654907c0.4835968,0.1820679,1.0507507,0.125412,1.4887695-0.1487274
				c0.7718964-0.4831009,0.8110809-1.1689911,0.5714722-1.9486694c-0.8973236-2.9198532-1.7946014-5.8396149-2.6918945-8.7593689
				c-0.3193207,0.6108627-0.2896423,1.1948471-0.0813751,1.8519135c2.1484833,6.7783432,2.1616211,6.6625519,2.1447144,7.1903992
				c-0.0121918,0.3808289-0.1777954,0.7790298-0.5081024,0.9689865c-0.2195435,0.1262665-0.4893341,0.1503525-0.6987305,0.2928162
				S139.4119568,86.4762497,139.6489716,86.5654907z"/>
			<path class="st22" d="M149.2249908,86.7689056c-5.1121979,3.6832504-12.1757965,4.4676437-17.9715118,1.9956818
				c0.3714752,3.1578903,2.2988281,6.161705,5.3080597,7.1887283c3.0092468,1.0270157,6.513092,0.3092117,8.9756165-1.7023315
				C147.9996643,92.2394409,149.2790375,89.9481201,149.2249908,86.7689056z"/>
			<path class="st2" d="M154.9966125,79.1869583c-0.0044708-1.5924301-0.0089417-3.1848526-0.0134277-4.7772827
				c-0.0066986-2.385498,3.2437592-3.2201843,2.9532623-0.6161652
				C157.7117767,75.8074875,156.4035187,77.7284622,154.9966125,79.1869583z"/>
			<path class="st2" d="M120.1643677,82.1268921c0.0439987-1.5918198,0.0879898-3.1836472,0.1319885-4.7754669
				c0.042923-1.5531311-1.0958405-2.3727188-2.2364044-2.2093353c-0.6867828,0.098381-0.7603226,0.8300858-0.7006531,1.5200577
				C117.5339127,78.6810837,118.7940979,80.633934,120.1643677,82.1268921z"/>
			<g>
				<path class="st2" d="M160.8685608,184.4805603c-0.0541992-4.8950195,1.7651367-9.8149414,4.9907227-13.4975586
					c0.3271942-0.372757,0.8911285,0.1206207,0.5644531,0.4941406c-3.105957,3.5458984-4.8574219,8.2822266-4.8051758,12.9956055
					C161.6244202,184.969162,160.8744965,184.9818878,160.8685608,184.4805603z"/>
			</g>
			<g>
				<path class="st2" d="M165.4808655,187.42099c0.2773438-5.1186523,2.4926758-10.1572266,6.0771484-13.8232422
					c0.3462067-0.3555603,0.8830872,0.1704407,0.5361328,0.5244141c-3.4589844,3.5375977-5.5966797,8.3999023-5.8642578,13.3398438
					C166.2030945,187.9600525,165.4537964,187.9199371,165.4808655,187.42099z"/>
			</g>
			<g>
				<path class="st2" d="M170.7030334,190.1685486c0.5585938-4.8642578,2.590332-9.6162109,5.7216797-13.3808594
					c0.3142242-0.3828888,0.8943176,0.098175,0.5761719,0.4794922c-3.0385742,3.6538086-5.0107422,8.2661133-5.5527344,12.9873047
					C171.3907623,190.7531586,170.6470642,190.6605682,170.7030334,190.1685486z"/>
			</g>
			<g>
				<path class="st2" d="M141.313385,182.60849c-2.4477539-3.3588867-6.1855469-5.7695313-10.2543945-6.6142578
					c-0.4855804-0.1006317-0.3334351-0.8362122,0.1523438-0.734375c4.2490234,0.8818359,8.1518555,3.3994141,10.7084961,6.9072266
					C142.2112427,182.5673218,141.6063385,183.0100861,141.313385,182.60849z"/>
			</g>
			<g>
				<path class="st2" d="M139.39151,187.9156189c-2.7128906-3.1577148-6.4467773-5.3891602-10.5136719-6.2832031
					c-0.4810791-0.1057434-0.3272247-0.8348541,0.1611328-0.7324219c4.2246094,0.9287109,8.1030273,3.246582,10.9213867,6.5263672
					C140.2830048,187.8014221,139.7168732,188.2923584,139.39151,187.9156189z"/>
			</g>
			<g>
				<path class="st2" d="M136.3548889,192.980072c-2.9039459-2.4454193-6.2451172-5.1766205-10.1904297-4.6401367
					c-0.2026367,0.0351563-0.394043-0.1162109-0.421875-0.3212891c-0.027832-0.2055664,0.1162109-0.394043,0.3212891-0.421875
					c4.2417145-0.5713043,7.7632751,2.2737427,10.7744141,4.8100586
					C137.2183228,192.7270355,136.7328033,193.3002472,136.3548889,192.980072z"/>
			</g>
			<path class="st27" d="M98.4957657,174.8511047c-15.5385895-3.5329132-38.8898315-6.1744385-51.9828491,3.0021973
				C58.9278755,167.8035583,83.3306732,170.3014984,98.4957657,174.8511047z"/>
			<path class="st27" d="M91.4296646,172.8078918c1.7867432-12.2819366,5.8034592-33.3128815,8.2661133-43.9367676
				C98.0373306,140.2952576,94.0474091,161.4977875,91.4296646,172.8078918z"/>
			<path class="st27" d="M196.6207581,160.7370911c-2.9781036-6.4117279-7.3742523-18.0692902-9.2452393-24.2993164
				C190.0966949,142.2878571,194.5678558,153.914444,196.6207581,160.7370911z"/>
			<path class="st27" d="M199.8136902,155.3235168c4.618042,0.5566406,9.1821289,1.5270996,13.6822205,2.7229004
				c12.7687378,3.4198914,28.4044189,10.1495667,34.5604553,21.8913574
				c-6.961319-11.3394775-21.9676056-17.559082-34.716156-21.3383789
				C209.5593414,157.4707031,204.5122223,156.202713,199.8136902,155.3235168z"/>
			<path class="st18" d="M165.4242401,232.0471497c0,0,9.9438629,3.3159332,5.0455933,13.3105621
				c0,0-3.0730133,6.3112793-15.5504456,5.5402222c-12.4774323-0.7710419-14.1136932-8.8739166-11.0237579-14.0151978
				C146.3901215,232.7321777,165.4242401,232.0471497,165.4242401,232.0471497z"/>
			<path class="st20" d="M164.9722748,231.9339294c6.6356506,4.4487762,2.0668793,13.2832336-7.3778839,14.8653564
				c-4.4143677,0.7394562-9.2182465-0.354538-11.8382111-2.4619751s-3.1210022-5.0750122-1.710083-7.703125
				C146.917923,231.2848663,157.7384644,227.084137,164.9722748,231.9339294z"/>
			<path class="st18" d="M106.4041214,238.554184c0,0,1.7582321-8.7841492,14.7986298-9.6416168
				c0,0,8.2301254-0.5562439,10.0778732,8.9546509c1.8477325,9.5108948-7.4796295,14.3257904-14.31427,14.3479309
				C111.4487686,252.233017,106.4041214,238.554184,106.4041214,238.554184z"/>
			<path class="st20" d="M106.4041214,238.554184c3.9370117-7.0183868,15.8541565-7.6820526,19.9749374-1.242157
				c1.917984,2.997406,1.6690826,7.1302032-0.3255234,10.077179c-1.9945908,2.9469604-5.5313797,4.6868744-9.0871811,4.825943
				C109.7288055,252.4982147,102.0891113,246.2464142,106.4041214,238.554184z"/>
		</g>
	</g>
</g>
</svg>
