<?xml version="1.0" encoding="utf-8"?>
<!-- Generator: Adobe Illustrator 22.0.1, SVG Export Plug-In . SVG Version: 6.00 Build 0)  -->
<svg version="1.1" id="Layer_1" xmlns="http://www.w3.org/2000/svg" xmlns:xlink="http://www.w3.org/1999/xlink" x="0px" y="0px"
	 viewBox="0 0 300 300" style="enable-background:new 0 0 300 300;" xml:space="preserve">
<style type="text/css">
	.st0{fill:#EDC1A4;}
	.st1{fill:#E2E0E0;}
	.st2{fill:#D39E81;}
	.st3{fill:#502E26;}
	.st4{fill:#CCCACA;}
	.st5{fill:#426800;}
	.st6{fill:#538705;}
	.st7{fill:#D47E44;}
	.st8{fill:#73341D;}
	.st9{fill:#BC672E;}
	.st10{fill:#96311D;}
	.st11{fill:#B83E21;}
	.st12{fill:#DE8D82;}
	.st13{fill:#EFBAB4;}
	.st14{fill:#FDD5D0;}
	.st15{fill:#6883CE;}
	.st16{fill:#3D4885;}
	.st17{fill:#3859AE;}
	.st18{fill:#864424;}
	.st19{fill:#FEFEFE;}
	.st20{fill:#FFFFFF;}
	.st21{fill:#A55925;}
	.st22{fill:#F4F2F2;}
	.st23{fill:#3C3E68;}
	.st24{fill:#E8997C;}
	.st25{fill:#F5C46B;}
	.st26{fill:#F7EBDA;}
	.st27{fill:#0E0C0D;}
	.st28{fill:#657C3A;}
	.st29{fill:#576C37;}
	.st30{fill:#7C995D;}
	.st31{fill:#36518C;}
	.st32{fill:#96B7E3;}
	.st33{fill:#A3B3DF;}
	.st34{fill:url(#SVGID_1_);}
	.st35{fill:url(#SVGID_2_);}
	.st36{fill:url(#SVGID_3_);}
	.st37{fill:url(#SVGID_4_);}
	.st38{fill:url(#SVGID_5_);}
	.st39{fill:#266AB7;}
	.st40{fill:#060E0D;}
	.st41{fill:#E0D4C6;}
	.st42{fill:#787E42;}
	.st43{fill:#D3D1D1;}
	.st44{fill:url(#SVGID_6_);}
	.st45{fill:url(#SVGID_7_);}
	.st46{fill:url(#SVGID_8_);}
	.st47{fill:#020508;}
	.st48{fill:#BAB6B6;}
	.st49{fill:#0F0B07;}
	.st50{fill:#2F3A68;}
	.st51{fill:#203257;}
	.st52{opacity:0.5;fill:#FFFFFF;}
	.st53{opacity:0.2;fill:#0E0C0D;}
	.st54{fill:#DD9F9B;}
	.st55{fill:#3E4D9B;}
	.st56{fill:url(#SVGID_9_);}
	.st57{fill:#5F6194;}
	.st58{fill:url(#SVGID_10_);}
	.st59{fill:url(#SVGID_11_);}
	.st60{fill:url(#SVGID_12_);}
	.st61{fill:url(#SVGID_13_);}
	.st62{fill:#070102;}
	.st63{fill:#100805;}
	.st64{fill:#FDA465;}
	.st65{fill:#2A50A1;}
	.st66{fill:#B76C39;}
	.st67{fill:#130602;}
	.st68{fill:url(#SVGID_14_);}
	.st69{fill:url(#SVGID_15_);}
	.st70{fill:url(#SVGID_16_);}
	.st71{fill:url(#SVGID_17_);}
	.st72{fill:url(#SVGID_18_);}
	.st73{fill:url(#SVGID_19_);}
	.st74{fill:#B4BDED;}
	.st75{fill:#100D08;}
	.st76{fill:#F6C85F;}
	.st77{fill:#FECF00;}
	.st78{fill:#2D59E2;}
	.st79{fill:#121F3A;}
	.st80{fill:#BBD0F5;}
	.st81{fill:#020202;}
	.st82{fill:#E2CFB7;}
	.st83{fill:#080805;}
	.st84{fill:#A87D7C;}
	.st85{fill:#182052;}
	.st86{fill:#EAEAEA;}
	.st87{fill:#DDDDDD;}
	.st88{fill:#3D4574;}
	.st89{fill:#ABC5F0;}
	.st90{fill:url(#SVGID_20_);}
	.st91{fill:#4159A8;}
	.st92{fill:#E0D0BD;}
	.st93{fill:#3D53AA;}
	.st94{fill:#0A0000;}
	.st95{fill:#BF6D36;}
	.st96{fill:#385DAE;}
	.st97{fill:#E0DCDC;}
	.st98{fill:#857E78;}
	.st99{fill:#0E213C;}
	.st100{fill:url(#SVGID_21_);}
	.st101{fill:#55608E;}
	.st102{opacity:0.3;fill:#F4F2F2;}
	.st103{opacity:0.3;}
	.st104{fill:#213987;}
	.st105{enable-background:new    ;}
</style>
<g id="Coffee_Order_1_">
	<g id="Coffee_Order">
		<g>
			<path class="st0" d="M149.6672211,53.9655685l-13.6944885,0.696949l2.556366-14.2394142l0.098114-1.2511063h10.07341
				C148.719574,39.4613342,149.4255829,50.2671776,149.6672211,53.9655685z"/>
			<path class="st2" d="M149.6623077,53.852726c-1.8571777,0.067688-3.3720245-1.1412964-4.6122284-2.5022125
				c-4.3908844-4.8490372-4.5956573-10.0301933-4.8968506-11.0009613c3.1254883-0.2649803,6.3099213,0.7410316,8.7976379,2.6447639
				L149.6623077,53.852726z"/>
			<path class="st0" d="M104.4080734,164.8269196c-18.9727554-18.9693298-6.0076904-74.0864029-6.0205002-74.2623138
				l10.5689926-4.4651184c2.3878403,10.5300751,8.8087311,38.8454285,11.0252838,48.6201477
				C119.9818497,134.719635,123.2791138,183.693161,104.4080734,164.8269196z"/>
			<path class="st2" d="M104.4080734,164.8269196c-0.6623306-0.6622162-1.2854919-1.368988-1.864563-2.1195984
				c-3.4150238-22.2911072-2.3054352-43.6487045,2.5963287-65.6599731l5.3624039-4.1324234l9.4796066,41.8047104
				C119.9818497,134.719635,123.2791138,183.693161,104.4080734,164.8269196z"/>
			<path class="st15" d="M121.2239304,64.4081497c-0.1856766,1.1921539-3.1404724,35.8512726-11.4963074,34.071907
				c-1.6486893-0.3483582-3.1845398-0.8488464-4.5877838-1.4327087c-5.7948074-2.384819-9.3226776-6.0990829-9.3226776-6.0990829
				c11.5257721-25.2988358,20.8730087-32.5900841,20.8730087-32.5900841
				C116.7654037,58.4585762,121.2998734,64.509491,121.2239304,64.4081497z"/>
			<path class="st39" d="M120.384903,71.7878036c-1.3984451,10.3972092-4.6662445,27.9680328-10.65728,26.6922531
				c-1.6486893-0.3483582-3.1845398-0.8488464-4.5877838-1.4327087
				c1.2610474-13.0958862,5.7113113-25.8827057,12.8603745-36.9423637c0-0.0050316,0.0049057-0.0148544,0.009819-0.0196457
				C119.6085968,62.825737,120.683548,65.9132767,120.384903,71.7878036z"/>
			<path class="st3" d="M208.8648224,250.9810333c0,0,0.6324615,1.1860657,0.2637482,2.3620605
				s-11.5420227,7.2581024-28.3373871,10.9643707c0,0,0.6343842,1.7219543-2.2164612,3.1434021
				s-11.9880524,3.751709-15.1556549,3.1011353c0,0-2.5410156-0.9089966-3.6763153-4.3430176
				C158.4126434,262.18573,207.710968,250.6152496,208.8648224,250.9810333z"/>
			<path class="st11" d="M208.8648224,250.9810333c0.3669281,1.1833038-48.7551575,16.4112396-49.1220703,15.227951
				c0,0-4.3227386-8.7342834-6.6581421-21.4891357l35.8651123-11.2237549l2.2572021,11.0810699
				C191.2069244,244.5771637,204.3738251,239.8164368,208.8648224,250.9810333z"/>
			<path class="st3" d="M109.5658569,276.1097412c0,0-0.4084854,1.2805786-1.5082321,1.836853
				c-1.0997467,0.5563049-13.2523346-3.2052307-27.6251526-12.6520691c0,0-0.791069,1.6558228-3.7983551,0.6051025
				c-3.0072937-1.0507202-11.0514603-5.9710999-12.7953072-8.6943359c0,0-1.1215515-2.4546051,0.5466042-5.6637573
				C66.3398056,247.7817383,109.0229111,275.0278625,109.5658569,276.1097412z"/>
			<path class="st11" d="M109.5658569,276.1097412c-0.5917587,1.0884094-45.7722015-23.4797821-45.1804428-24.5682068
				c0,0,3.1968384-8.4961548,10.7053909-19.0679169l32.1965714,16.6973724l-5.4529419,9.8204346
				C101.8344345,258.9914246,114.431221,265.1031189,109.5658569,276.1097412z"/>
			<path class="st9" d="M188.9504242,233.4977875c0.5300598,4.423584-31.5686493,19.1019897-37.5998993,10.3332367
				c-1.6955872-2.4763947-12.4881744-38.9963379-13.6110992-41.7850647
				c-1.3508301-3.3693848-12.1934509,0.150528-19.8817368-9.7544098
				c-3.1649017-4.0726776-9.7938156-18.9889069-12.0018234-27.0554504
				c-1.3591537-4.9557953-3.7682877-21.2410126-3.7682877-21.2410126
				c1.9872284-5.0635986,11.0351028-7.1343231,16.1232605-9.0576935c7.0411224-2.6644135,14.5925522-5.3729095,21.9280167-3.6850433
				c11.0962524,2.5466003,17.3881683,13.8053436,22.4676666,23.9643555
				c6.6593475,13.4410553,10.633255,20.193634,16.2213745,34.0275879
				C181.6394043,196.207077,187.1741486,218.7334442,188.9504242,233.4977875z"/>
			<path class="st3" d="M167.6652069,165.2408905c-3.6898193,20.0390167-10.9958038,39.4153442-21.4960327,56.8733215
				c-0.4465942,0.7407837-0.9225159,1.4964447-1.4377441,2.2276459c-3.184433-10.1911621-6.4032288-20.8337097-6.9920044-22.2958984
				c-0.8734131-2.1785278-5.7064056-1.4770203-11.0939255-3.3807526
				c1.6192245-11.3981934,5.7898941-22.4331818,12.2126541-31.9865875l23.6060638-11.7515717
				C164.1052856,158.2172241,163.6636047,157.3781281,167.6652069,165.2408905z"/>
			<path class="st7" d="M69.3872681,241.394104c-1.6997452-3.0702362,29.352272-46.7294617,35.3630066-54.6950378
				c2.7567825-3.6533508,4.807457-7.6920013,5.0740128-12.1106262c0.1958847-3.2470551-0.8079376-6.427475-1.5266342-9.6000366
				c-1.5483398-6.8347778-1.7729721-13.9612274-0.7044754-20.8853607c0.5356216-3.470932,1.9300232-6.7676086,2.4830627-10.1889496
				c0.4053192-2.5075073,0.1583099-6.0494232,2.7640762-7.5731735c2.8403091-1.6609039,10.7657089-0.1918564,14.077919-0.2219238
				c5.3839493-0.0488663,11.2347641-0.9099884,16.3138199,0.5383911c5.5595245,1.5853958,11.1980591,5.2709732,16.4409637,7.7360001
				c3.7385254,1.7577057,7.6305847,3.6376343,10.1058197,6.9451141c2.7989349,3.7400208,1.5090942,8.7299194,0.5956116,13.3111115
				s-1.2998199,8.8702087-3.5539703,12.9617462c-11.5588226,20.9805298-54.6622086,77.2759552-60.3298721,84.6523438
				c-0.4079208,0.530899-1.0252609,0.8497009-1.693924,0.8835907
				C94.0503693,253.6920929,78.4126434,246.5796204,69.3872681,241.394104z"/>
			<path class="st15" d="M162.6594391,53.9137421c0,0-0.396637-0.6172142-4.9020996-1.2080498l-3.220871-0.2972565
				c0,0-14.664917-3.9164581-28.2595062,0.7816849l-4.182312,1.4877853c0,0-3.979599,1.6542931-5.4028091,3.6812057
				l-1.1653137,5.4898949l3.5797272,39.7563629l16.6103745,13.900116l28.0383148-39.3587494L162.6594391,53.9137421z"/>
			<path class="st11" d="M171.3841553,149.1159821c0,0-44.1992264,10.8926697-69.2969284-5.1177521
				c0,0,2.1197128-53.6250458,13.4393234-80.1505585l2.6791458,0.0637321c0,0,3.2186813-7.8015633,3.8909531-9.234272
				c0,0,2.7525787-1.7762756,4.1804962-1.486618c0,0-2.9440002,3.7387009-5.0489807,10.6669807l26.947403,0.0196457
				c0,0,2.1148071-7.6887169,6.3590393-11.4669495c0,0,2.4729767-0.1521378,3.2237091,0.2944489
				c0,0-3.140213,1.3886261-6.8791656,11.2805557l2.6447601-0.1080551c0,0,2.8262482,27.1290131,19.6168823,29.729454
				C173.1513062,96.0085602,174.4378204,130.7711945,171.3841553,149.1159821z"/>
			<path class="st3" d="M173.440033,113.0763702c-0.01474,6.6338272-0.1520233,14.1605911-0.5593109,21.2064972
				c-10.6181183-8.9546738-17.3500519-22.3989105-18.0713196-36.2748718l3.2581024-9.7448273
				C164.2057495,95.8440704,169.3772888,104.2050629,173.440033,113.0763702z"/>
			<g>
				<g>
					<path class="st0" d="M229.2923431,103.1433563c-1.6911011,19.5344467,1.1186829-12.9065933-1.6141968,18.6453552H215.818634
						c-0.8431854-9.7368011,0.1274719,1.4964066-1.6143188-18.6453552H229.2923431z"/>
					<path class="st3" d="M214.2056427,103.1447906c0-3.8330917,15.0853729-3.8330917,15.0853729,0"/>
					<polygon class="st18" points="229.2923431,103.1433563 228.8753357,107.9666519 214.6214294,107.9666519 
						214.2043152,103.1433563 					"/>
					<polygon class="st18" points="228.3453217,114.0952072 227.6780853,121.7887115 215.818573,121.7887115 
						215.1513367,114.0952072 					"/>
					<ellipse class="st19" cx="221.7483215" cy="111.1120071" rx="2.8867686" ry="4.6322565"/>
				</g>
				<g>
					<path class="st0" d="M209.2440033,103.1433563c-0.141861,1.640625-1.2106018,13.984024-1.6141968,18.6453552h-11.8595123
						c-0.8431854-9.7368011,0.1274719,1.4964066-1.6143036-18.6453552H209.2440033z"/>
					<path class="st3" d="M194.1573029,103.1447906c0-3.8330917,15.0853882-3.8330917,15.0853882,0"/>
					<polygon class="st18" points="209.2440033,103.1433563 208.8270111,107.9666519 194.5731049,107.9666519 
						194.1559906,103.1433563 					"/>
					<polygon class="st18" points="208.2969971,114.0952072 207.6297455,121.7887115 195.7702484,121.7887115 
						195.1029968,114.0952072 					"/>
					<ellipse class="st19" cx="201.6999969" cy="111.1120071" rx="2.8867686" ry="4.6322565"/>
				</g>
				<g>
					<path class="st0" d="M225.136795,126.1526031c-1.879303,1.0009766-4.0381927,1.3198624-6.0401459,2.0510712
						c-2.7967834,1.0254211-11.0351868,0.522995-13.7584076,1.7300262
						c-7.526886,3.336441-16.3392029,1.8215027-24.3959351,0.1288452c-5.2648468-1.1040039-4.720108-0.05336-9.3618011-2.7812653
						c-9.4608154-5.5604095-13.9739838-16.1023178-15.9124298-26.9476471l23.4244537-3.8565826
						c0.0166779,0.1017456,1.5353088,7.7110825,2.311142,15.5197525c5.0485382-0.3363953,8.9412079,5.9024963,12.7523193,8.2677917
						c4.8665771,3.1188507,11.2794037,3.4790421,16.3245087,1.0009842
						c5.3907013-2.6560059,11.9358063-0.0734863,17.9732056-0.0833817
						C228.7831421,123.2807846,227.0133209,125.1633606,225.136795,126.1526031z"/>
					<path class="st2" d="M180.0627899,101.970314c-0.0884094,0.0440826-0.1766968,0.0783386-0.2649841,0.11763
						c-7.1588745,2.988327-15.009552,3.729126-22.7670288,4.2885513c-0.5593109-1.9873505-1.0009766-4.0137482-1.3639526-6.0451736
						l23.4243317-3.8565826C179.091156,96.4747391,179.5328369,98.7023926,180.0627899,101.970314z"/>
					<path class="st39" d="M236.5300751,121.5796661c0,0.3581848-0.181488,0.6916809-0.4759369,0.9271927
						c-0.2895355,0.2405396-0.6967163,0.3876495-1.1432953,0.3876495h-31.618576
						c-3.2089844,0-6.4277802-0.8929291-9.1362762-2.6299133h40.7548523
						C235.803894,120.264595,236.5300751,120.8534927,236.5300751,121.5796661z"/>
				</g>
				<path class="st15" d="M182.0765533,98.048027c0,0-9.3803558,3.9539795-29.1071625,4.5666733
					c0,0-2.0041962-34.9641037,0.8641815-41.8468094s5.7679749-7.6011086,8.8258667-6.8541489
					c3.0578766,0.7469635,9.4927368,4.8760147,12.8671875,14.4442291
					C178.9010925,77.926178,182.0765533,98.048027,182.0765533,98.048027z"/>
			</g>
			<path class="st29" d="M156.5007324,30.3557529c0,0,6.1414642,0.1939659,6.3101654,2.0485706
				c0.1686859,1.8546028-6.0949707,1.4804497-7.2847137,1.2301216
				C154.336441,33.3841133,156.5007324,30.3557529,156.5007324,30.3557529z"/>
			<path class="st0" d="M158.9898987,39.7165718c-0.2011261,0.6820946-1.2512207,0.8979607-1.8449097,0.8097916
				c-0.196228,0.5151062-0.1520233,1.118618,0.1128387,1.6044922c0.0589447,0.1078148,0.1324921,0.2256889,0.1079407,0.3483543
				c-0.0342712,0.1962204-0.2845154,0.2795944-0.3532715,0.465992c-0.1242828,0.3214417,0.3288269,0.5726891,0.3288269,0.8931656
				c0,0.1667519-0.1865234,0.3287125-0.3239136,0.240303c0.1324921,0.6574173,0.0294647,1.4425354-0.0196533,2.1148071
				c-0.1046143,1.5954399-1.0289764,2.2765923-2.5710907,2.419075c-1.5848389,0.1372833-3.2138977-0.2355118-4.5778351-1.0599174
				c-0.9225311-0.5543976-1.7173462-1.2954292-2.541748-1.9871063c-2.1987152-1.8404274-2.7960052-1.6068878-4.4600983-2.7135239
				c-2.8005066-1.862709-5.5973206-4.0445023-5.485733-7.6053467c0.0589294-2.0803032,1.1285553-4.1462326,2.7232208-5.5444431
				c3.2089691-2.8124313,8.8886261-3.4449196,12.3746185-2.4044609c0.9297638,0.1904888,2.686203,1.2477512,4.0432129,3.0570869
				c0,0,0.4758148,3.1500454,0.5200195,4.8379116C157.0665283,36.8854103,159.2009735,39.0198631,158.9898987,39.7165718z"/>
			<path class="st3" d="M148.8894806,42.6449852c-0.3186951,1.0931358-0.789505,2.1382446-1.5823975,2.9205437
				c-2.1987152-1.8404274-2.7960052-1.6068878-4.4600983-2.7135239c-2.8005066-1.862709-5.5973206-4.0445023-5.485733-7.6053467
				c3.7028046-4.4605064,8.8836212-7.4880772,14.1901703-8.6063213c6.4715271,4.6956024,4.235611,3.0732746,4.7201538,3.4248466
				c-3.0299988-1.2098083-6.2969208,1.2603283-5.9419098,4.5190258c0.048996,0.4612007,0.1374054,1.0256577-0.2305908,1.3102837
				c-0.2895355,0.2158661-0.7114563,0.1226692-1.0157166-0.0687599c-0.2993622-0.1962204-0.544693-0.4808426-0.8488464-0.6672401
				c-1.7549896-1.0413475-3.4535522,1.4444389-1.8891144,2.6986694c0.7556458,0.6083031,1.9626617,0.5002518,2.5908203,1.2363548
				c1.2723694,1.4633713-0.4726563,5.6755295-1.8126373,6.6113052c-2.0540466,1.434433-4.8691406,0.8231316-7.1105957,1.8334312
				c-3.8876801,1.7522964-4.3326721,6.813549-7.2105408,9.6921997c-1.4465027,1.4468994-3.7773743,2.2669067-5.5740585,1.2882271
				c-1.5223694-0.829258-2.2004776-2.6516151-2.4811478-4.3623161c-0.1746597-1.0646019-0.2329407-2.2073212,0.2486954-3.1726799
				c1.0578003-2.1202126,4.2587662-2.5870323,5.0651474-4.815033c0.776474-2.14534-1.1862183-4.7862625,0.4343872-6.6052208
				c1.4207916-1.594696,4.3914642-0.4443588,5.9625702-1.8912048c0.659317-0.6071777,0.9039917-1.539093,1.4395752-2.2577896
				s1.7085571-1.1603889,2.2849274-0.4739685"/>
			<path class="st29" d="M156.5007324,30.3557529c-2.074585-0.3655319-3.4241486-0.3834095-5.238266,0.8275337
				c-1.41539,0.9447994-2.563736,2.2989826-3.2207336,3.872221c-0.7517395,1.8001137-0.9603119,4.3345604-4.5380554,4.9717712
				c-3.1066589,0.5533066-6.6823883-0.3536263-8.1487427-3.4337196c-0.9721527-2.0421715-0.9186096-4.4693146-0.3000031-6.6000252
				c2.0344849-7.0072727,9.6595459-9.350174,15.4538269-7.2542191S156.5007324,30.3557529,156.5007324,30.3557529z"/>
			<path class="st0" d="M149.461319,39.6333466c-0.8978882-0.1666222-1.8140106-0.3396645-2.6113586-0.784874
				c-0.7973328-0.4452095-1.4692078-1.2190323-1.5460815-2.1290092c-0.1671906-1.979126,2.3611145-3.4310455,4.3799286-2.2409821
				c0.7618866,0.4491158,1.3147888,1.2378807,1.4771118,2.1072578"/>
			<path class="st3" d="M156.0674896,33.9357834c0.5326843,0.1566582,0.56073,0.5543022,0.0102081,0.6922722
				c-0.6749725,0.1691551-2.2168732,0.4215736-2.7774811-0.0091629c-0.3882904-0.2983322-0.5318146-0.9137573,0.4307098-0.9605217
				C154.5181122,33.6201248,155.3112335,33.7133751,156.0674896,33.9357834z"/>
			<ellipse class="st3" cx="154.6960602" cy="36.2747498" rx="0.4730085" ry="0.9677991"/>
		</g>
	</g>
</g>
</svg>
