<?xml version="1.0" encoding="utf-8"?>
<!-- Generator: Adobe Illustrator 22.0.1, SVG Export Plug-In . SVG Version: 6.00 Build 0)  -->
<svg version="1.1" id="Layer_1" xmlns="http://www.w3.org/2000/svg" xmlns:xlink="http://www.w3.org/1999/xlink" x="0px" y="0px"
	 viewBox="0 0 300 300" style="enable-background:new 0 0 300 300;" xml:space="preserve">
<style type="text/css">
	.st0{fill:#EDC1A4;}
	.st1{fill:#E2E0E0;}
	.st2{fill:#D39E81;}
	.st3{fill:#502E26;}
	.st4{fill:#CCCACA;}
	.st5{fill:#426800;}
	.st6{fill:#538705;}
	.st7{fill:#D47E44;}
	.st8{fill:#73341D;}
	.st9{fill:#BC672E;}
	.st10{fill:#96311D;}
	.st11{fill:#B83E21;}
	.st12{fill:#DE8D82;}
	.st13{fill:#EFBAB4;}
	.st14{fill:#FDD5D0;}
	.st15{fill:#6883CE;}
	.st16{fill:#3D4885;}
	.st17{fill:#3859AE;}
	.st18{fill:#864424;}
	.st19{fill:#FEFEFE;}
	.st20{fill:#FFFFFF;}
	.st21{fill:#A55925;}
	.st22{fill:#F4F2F2;}
	.st23{fill:#3C3E68;}
	.st24{fill:#E8997C;}
	.st25{fill:#F5C46B;}
	.st26{fill:#F7EBDA;}
	.st27{fill:#0E0C0D;}
	.st28{fill:#657C3A;}
	.st29{fill:#576C37;}
	.st30{fill:#7C995D;}
	.st31{fill:#36518C;}
	.st32{fill:#96B7E3;}
	.st33{fill:#A3B3DF;}
	.st34{fill:url(#SVGID_1_);}
	.st35{fill:url(#SVGID_2_);}
	.st36{fill:url(#SVGID_3_);}
	.st37{fill:url(#SVGID_4_);}
	.st38{fill:url(#SVGID_5_);}
	.st39{fill:#266AB7;}
	.st40{fill:#060E0D;}
	.st41{fill:#E0D4C6;}
	.st42{fill:#787E42;}
	.st43{fill:#D3D1D1;}
	.st44{fill:url(#SVGID_6_);}
	.st45{fill:url(#SVGID_7_);}
	.st46{fill:url(#SVGID_8_);}
	.st47{fill:#020508;}
	.st48{fill:#BAB6B6;}
	.st49{fill:#0F0B07;}
	.st50{fill:#2F3A68;}
	.st51{fill:#203257;}
	.st52{opacity:0.5;fill:#FFFFFF;}
	.st53{opacity:0.2;fill:#0E0C0D;}
	.st54{fill:#DD9F9B;}
	.st55{fill:#3E4D9B;}
	.st56{fill:url(#SVGID_9_);}
	.st57{fill:#5F6194;}
	.st58{fill:url(#SVGID_10_);}
	.st59{fill:url(#SVGID_11_);}
	.st60{fill:url(#SVGID_12_);}
	.st61{fill:url(#SVGID_13_);}
	.st62{fill:#070102;}
	.st63{fill:#100805;}
	.st64{fill:#FDA465;}
	.st65{fill:#2A50A1;}
	.st66{fill:#B76C39;}
	.st67{fill:#130602;}
	.st68{fill:url(#SVGID_14_);}
	.st69{fill:url(#SVGID_15_);}
	.st70{fill:url(#SVGID_16_);}
	.st71{fill:url(#SVGID_17_);}
	.st72{fill:url(#SVGID_18_);}
	.st73{fill:url(#SVGID_19_);}
	.st74{fill:#B4BDED;}
	.st75{fill:#100D08;}
	.st76{fill:#F6C85F;}
	.st77{fill:#FECF00;}
	.st78{fill:#2D59E2;}
	.st79{fill:#121F3A;}
	.st80{fill:#BBD0F5;}
	.st81{fill:#020202;}
	.st82{fill:#E2CFB7;}
	.st83{fill:#080805;}
	.st84{fill:#A87D7C;}
	.st85{fill:#182052;}
	.st86{fill:#EAEAEA;}
	.st87{fill:#DDDDDD;}
	.st88{fill:#3D4574;}
	.st89{fill:#ABC5F0;}
	.st90{fill:url(#SVGID_20_);}
	.st91{fill:#4159A8;}
	.st92{fill:#E0D0BD;}
	.st93{fill:#3D53AA;}
	.st94{fill:#0A0000;}
	.st95{fill:#BF6D36;}
	.st96{fill:#385DAE;}
	.st97{fill:#E0DCDC;}
	.st98{fill:#857E78;}
	.st99{fill:#0E213C;}
	.st100{fill:url(#SVGID_21_);}
	.st101{fill:#55608E;}
	.st102{opacity:0.3;fill:#F4F2F2;}
	.st103{opacity:0.3;}
	.st104{fill:#213987;}
	.st105{enable-background:new    ;}
</style>
<g id="Confectioner_1_">
	<g id="Confectioner">
		<g>
			<g>
				<g>
					<g>
						<g>
							<path class="st11" d="M187.3868713,252.1165771l-40.9387512,11.4014587v9.1418457
								c0,2.9490662,2.3908081,5.3401184,5.3401184,5.3401184h35.393692
								c6.9154053-1.3415222,9.7368622-6.190979,9.7368622-13.2068787
								C196.9015808,256.6004028,187.3868713,252.1165771,187.3868713,252.1165771z"/>
							<path class="st7" d="M177.7209473,249.8772736c-2.2904053-11.3607941,0.274826-54.8999939,0.274826-54.8999939
								l-31.5476532-1.7949829v73.8026581c17.3355865-3.257782,32.3781433-10.5613403,32.3781433-10.5613403
								C178.7806244,255.4437256,178.3589935,253.0396271,177.7209473,249.8772736z"/>
							<path class="st1" d="M180.872345,248.4290771c-9.9235535,5.1330872-21.3299713,9.0380554-34.4242249,11.9125366v6.6782837
								c17.8062286-3.550354,40.9390259-14.9059296,40.9390259-14.9059296v-0.0323334
								C187.2163544,248.8775635,183.7238922,246.9443817,180.872345,248.4290771z"/>
							<path class="st3" d="M180.680954,269.4026184c-6.981781,0.4802856-26.0907135,0.8135376-34.2328339,0.9506836v2.3065796
								c0,2.9490662,2.3908081,5.3401184,5.3401184,5.3401184h35.393692
								c5.1103973-0.9913635,9.4176941-4.1990967,9.7196503-12.2207336
								C193.8080597,266.8900452,187.341507,268.9411011,180.680954,269.4026184z"/>
						</g>
						<g>
							<path class="st11" d="M105.5093689,252.1165771c0,0-9.5147018,4.4838257-9.5319061,12.6765442
								c0,7.0162964,2.8217621,11.8654175,9.7368546,13.2068787h35.3936844c2.9493256,0,5.3401184-2.3910522,5.3401184-5.3401184
								v-9.1418457L105.5093689,252.1165771z"/>
							<path class="st7" d="M114.9004745,194.9772797c0,0,2.565239,43.5391998,0.274826,54.8999939
								c-0.6380539,3.1623535-1.0596848,5.566452-1.1053162,6.5463409c0,0,15.0425644,7.3035583,32.3781357,10.5613403v-73.8026581
								L114.9004745,194.9772797z"/>
							<path class="st1" d="M112.0238953,248.4290771c-2.8515396-1.4846954-6.3440018,0.4484863-6.5147858,3.6525574v0.0323334
								c0,0,23.132782,11.3555756,40.9390106,14.9059296v-6.6782837
								C133.3538818,257.4671326,121.9474487,253.5621643,112.0238953,248.4290771z"/>
							<path class="st3" d="M112.2152863,269.4026184c-6.6605453-0.4615173-13.1270981-2.5125732-16.2206192-3.6233521
								c0.3019485,8.021637,4.6092453,11.2293701,9.7196503,12.2207336h35.3936844
								c2.9493256,0,5.3401184-2.3910522,5.3401184-5.3401184v-2.3065796
								C138.3059998,270.216156,119.1970749,269.8829041,112.2152863,269.4026184z"/>
						</g>
					</g>
					<g>
						<path class="st47" d="M146.4472351,242.8321991c-0.4895325-12.7765656-0.4847717-37.2091675,0.0017548-49.7866211
							C146.9359894,205.6579132,146.9403992,229.985672,146.4472351,242.8321991z"/>
					</g>
				</g>
			</g>
			<g>
				<path class="st3" d="M132.894455,67.0885696c-2.2654877,0.0010452-4.4059601-1.7682648-4.8312225-3.9934845
					c-0.4252701-2.2252197,0.9118958-4.6591492,3.0181274-5.4935951c-0.1576996-1.4900322-0.0032043-2.7769585,0.8071136-4.0372963
					s2.0599213-2.2321396,3.4810028-2.7071228c0.3942261-2.2462425,0.2112274-4.9084892,0.0697937-7.1846733
					c-0.1327057-2.1357231-2.2723236-2.1722527-3.7374115-2.9851074c-1.4438171-0.8010597-2.3439484-2.4893112-2.204422-4.1345673
					c0.1395264-1.6452599,1.3110809-3.1578255,2.8691864-3.7043152c1.5581055-0.5464935,3.4178009-0.0971146,4.5544434,1.1005363
					c0.5549774-1.4242172,1.2338409-2.7015648,2.4381561-3.6428394c1.2043304-0.9412727,2.8222046-1.4236012,4.3022156-1.0415382
					c1.480011,0.3820648,3.3588257,2.5116043,3.3923035,4.0397663c0.6438751-1.1449089,2.2498779-1.3735485,3.5051117-0.9865189
					c2.3277283,0.71772,3.9657288,3.2137909,3.6977844,5.6348763s-2.4121094,4.4985771-4.8404541,4.6899376l0.196579,5.8308144
					c0.2584686,1.9731522,2.0154724,2.3180008,3.0159454,3.6524658c0.4876099,0.6504021,0.7079163,1.5948334,0.2577667,2.2717094
					c1.8754578,0.2600517,3.5710144,1.5655632,4.3018036,3.3122597c1.6623383,3.9731483-1.4319153,9.432457-8.4736328,9.9383926
					c-3.100296,0.2227478-6.1776428-0.5372849-9.1930542-1.2914658"/>
				<path class="st7" d="M156.0482788,92.2639542l-17.2803192,5.4409256l-10.6085968-4.9852448l6.7799377-11.0985641
					c0,0,0.5127258-0.3644333,1.3673401-0.7575226c0.0238647-0.100029,1.6065674-4.0541611,1.2933197-6.8313446
					c-0.3141937-2.7878189,10.5547485,0.233017,10.6599274,0.2506561c0.0005646,0.1000137-0.6209717,5.1538391,0.5583344,6.614624
					l1.4129486,0.6267776l4.1363373,4.1136551L156.0482788,92.2639542z"/>
				<path class="st9" d="M148.1003418,77.5761261c-0.0057068,0.0055618-0.0057068,0.0055618-0.0114136,0.0114059
					c-2.7034454,2.6368637-7.4049225,2.7201843-10.6940002-0.5071487c0.013092-0.1018524,0.2424164-1.8851089,0.2278442-1.7718201
					l6.1817627-2.0283203c2.3415527,0.421463,4.4553528,1.0026169,4.4553528,1.0026169
					S148.0604858,75.8952713,148.1003418,77.5761261z"/>
				<path class="st7" d="M93.0654373,114.2470169c0,0-8.5201416,17.0928268-3.048996,28.7556381
					c5.4711533,11.662796,15.781868,11.9901276,23.3103256,9.8625183s12.0068817-35.0541992,12.0068817-35.0541992
					l-12.0068817-6.7712402L93.0654373,114.2470169z"/>
				<path class="st1" d="M118.214798,85.9518204c0,0-12.8419342-0.3395767-25.1493607,28.2951965
					c0,0,20.0648727,12.5914841,26.2185974,11.7753677s1.7476654-39.1432571,1.7476654-39.1432571L118.214798,85.9518204z"/>
				<path class="st1" d="M166.9846191,88.1410065c0,0,19.499115,4.6723709,25.3909454,26.1060104
					c5.8918457,21.4336319-27.0042419,27.9764023-27.0042419,27.9764023L166.9846191,88.1410065z"/>
				<path class="st1" d="M129.5908203,83.3823471l-11.3760223,2.5694733l1.3630295,51.0805893l50.3715439-1.9956818
					l-2.9647522-46.8957214c0,0-8.9898071-4.7862778-12.0467072-5.0005264l-0.1323242,8.9281006h-23.9282837L129.5908203,83.3823471
					z"/>
				<path class="st15" d="M129.5908203,83.3823471c0,0,1.5559082-1.5446091,5.3470459-1.7635422
					c0,0-4.1725159,12.0343094-5.012619,18.101532l26.1222687,0.2983093c0,0-4.8108368-16.9238434-5.8140717-18.496582
					c0,0,4.2263336,0.6667862,4.7044678,1.6184158c0,0,5.2255249,8.5402527,9.9020081,36.4532776
					c0,0,19.0554047,46.7390213,19.0318451,71.1081161c0,0,0.0000153,3.2621765-0.6694641,5.2340393
					c-0.8175507,2.4079437-26.6245422,9.910553-54.3966827,5.761261c0,0-22.8788071-2.6584473-23.9411469-6.9889374
					c-1.0623322-4.3304901,0.0368271-29.0995789,9.2825928-47.591095s9.4227676-43.7233047,9.4227676-43.7233047
					L129.5908203,83.3823471z"/>
				<path class="st19" d="M149.924408,129.1570892c0,0,1.4464111,36.8445435,0.9334106,44.2495422
					c-0.5130005,7.405014,3.1203461,16.0818176,11.8822632,14.2369385
					c8.7619171-1.8448639,7.4217529-10.5134735,5.6268616-16.0619507s-11.1820526-40.5654297-11.1820526-40.5654297
					L149.924408,129.1570892z"/>
				<path class="st19" d="M153.479248,115.8019867c0,4.6105576-4.8346863,6.621933-11.0451202,6.621933
					s-8.8530884-1.7942047-8.8530884-6.4047699c0-4.6105576,3.0238037-10.7409363,9.2342529-10.7409363
					C149.0257263,105.2782135,153.479248,111.1914215,153.479248,115.8019867z"/>
				<path class="st19" d="M137.0316772,130.1418762c0,0-0.2787476,21.4972839,0.0973969,32.8908844
					c0.3761292,11.3936005-0.7214966,24.5094299-12.809227,22.5089569s-3.6049652-25.2311249-3.6049652-25.2311249
					c3.9744873-11.7637329,8.2349014-21.6182098,12.7001266-30.1050873L137.0316772,130.1418762z"/>
				<path class="st7" d="M150.6137085,65.4288254c0.6208649-1.1920471,2.4314728-1.263176,3.234848,0.0514908
					c0.3412323,0.5584106,0.4074097,1.2675934,0.2141113,1.8928146c-0.5334473,1.7254333-2.6811218,2.3464355-4.0525665,1.164978"/>
				<path class="st7" d="M135.6035767,65.4288254c-0.3023071-0.5804138-0.9649353-0.941185-1.6189575-0.9181671
					c-1.3199768,0.0464554-2.2734222,1.4282379-1.8300018,2.8624725c0.5334473,1.7254333,2.6811218,2.3464355,4.0525665,1.164978"/>
				<path class="st7" d="M150.8686371,58.8736191c-0.7910309,0.4974174-1.864624,0.2915001-2.6379242-0.2330475
					c-1.5473938-1.049614-2.1923523-3.1519356-3.9297028-3.9285812c-1.6358185-0.7312584-3.146637,0.0940323-4.3568268,1.4057465
					c-1.1601868,1.2575264-2.5965424,3.6287842-4.8250885,3.457386c0.0773773,3.2035599-1.6051331,7.2031975-0.4016876,11.1766472
					c1.4832916,4.8974152,7.0480652,7.3591995,11.7038879,5.1053162c2.1762085-1.0535049,3.8544159-3.0849609,4.4830627-5.4196014
					c0.6715698-2.4940186,0.1779785-5.130394,0.1052246-7.7122231
					C150.9752502,61.5064888,150.7131348,60.0829201,150.8686371,58.8736191z"/>
				<path class="st3" d="M141.1298828,60.011776c0.4026489,0.2260323,0.42276,0.796627-0.4669189,0.8736763
					c-0.6833649,0.0591812-1.366745,0.1183624-2.0501099,0.1775436c-0.5809631,0.050312-1.4705048,0.3058929-2.0305328,0.1201286
					c-0.4738617-0.1571884-0.308548-0.5139809-0.002243-0.7591286c0.4483185-0.358799,1.0375214-0.4164963,1.5867615-0.4797363
					C138.6983643,59.8830566,140.6643372,59.7504387,141.1298828,60.011776z"/>
				<ellipse class="st3" cx="139.0423279" cy="62.8319588" rx="0.7487079" ry="1.1810395"/>
				<path class="st3" d="M144.4663239,60.011776c-0.4026489,0.2260323-0.42276,0.796627,0.4669189,0.8736763
					c0.6833649,0.0591812,1.3667297,0.1183624,2.0501099,0.1775436c0.5809631,0.050312,1.4705048,0.3058929,2.0305176,0.1201286
					c0.473877-0.1571884,0.3085632-0.5139809,0.002243-0.7591286c-0.4483032-0.358799-1.0375214-0.4164963-1.5867462-0.4797363
					C146.8978424,59.8830566,144.9318695,59.7504387,144.4663239,60.011776z"/>
				<ellipse class="st3" cx="146.5538635" cy="62.8319588" rx="0.7487079" ry="1.1810395"/>
				<path class="st9" d="M143.8827667,65.7772522c0.0911102,0.4548264,0.0036469,1.0161514-0.4087219,1.2285767
					c-0.39534,0.2036514-0.8921356-0.0049362-1.2975464,0.1699066c-0.4109344,0.1772232-0.4635315,0.6648407-0.0185394,0.8486786
					c0.2138672,0.088356,1.1231689,0.1616821,1.6303711,0.0431595c0.3811951-0.0890808,0.7507324-0.3110199,0.9227905-0.6626434
					c0.2954102-0.6037369-0.0397034-1.3309097-0.41745-2.4673538c-0.2768555-0.8329697-0.7831726-0.7658768-0.6893616-0.2006531
					C143.663208,65.0917206,143.8121796,65.4249344,143.8827667,65.7772522z"/>
				<path class="st19" d="M147.5877228,69.5166245c-2.9108276,0.8125992-6.0497742,0.7900009-8.9485931-0.0644073
					c0,0,1.0440063,3.6954193,4.6947021,3.5449982C146.7785645,72.855278,147.5877228,69.5166245,147.5877228,69.5166245z"/>
				<path class="st9" d="M151.7773285,67.9018936c0.0262451-0.6416855,0.0525055-1.2833633,0.0787506-1.9250412
					c0.2110901-0.0657883,0.4325714-0.1584015,0.6436615-0.2241898c0.6071472,0.0512924,0.9175415,0.8507843,0.4142303,1.443428
					C152.7142029,67.4313202,152.0776367,67.8307495,151.7773285,67.9018936"/>
				<path class="st9" d="M134.5020905,67.9018936c-0.0262451-0.6416855-0.0524902-1.2833633-0.0787354-1.9250412
					c-0.2110901-0.0657883-0.4325714-0.1584015-0.6436615-0.2241898c-0.6071472,0.0512924-0.9175568,0.8507843-0.4142456,1.443428
					C133.5652161,67.4313202,134.2017975,67.8307495,134.5020905,67.9018936"/>
				<path class="st15" d="M135.4392853,43.672287c0,0,5.2436981-1.6408424,13.9768982-1.0296593l0.196579,5.8308144
					c0,0-5.6754608-0.8608093-14.0407715,0.5393448C135.4101563,47.575634,135.3970032,45.7047768,135.4392853,43.672287z"/>
				<g>
					<polygon class="st3" points="232.6716919,142.6755371 139.6307526,142.6755371 147.063858,124.7942276 
						225.2385712,124.7942276 					"/>
					<path class="st25" d="M139.6307526,142.6755371v0.0000153c0,3.2675781,2.6488953,5.9164886,5.9164886,5.9164886h81.207962
						c3.2675781,0,5.9164886-2.6489105,5.9164886-5.9164886v-0.0000153H139.6307526z"/>
					<path class="st12" d="M200.6118469,125.8631439c0,0,3.941925,12.5741882,7.1861572,13.3856506
						s10.2908325,0.4443665,10.9187469,0s6.8354492-12.1180344,6.7675323-13.0724487
						C225.4163666,125.2219391,202.5653687,124.5382996,200.6118469,125.8631439z"/>
					<g>
						<path class="st3" d="M210.7341614,137.3454437l-3.1875-10.0734863
							c-0.1545868-0.4871674,0.5820618-0.7185287,0.7353516-0.2329102l3.1875,10.0734863
							C211.6243134,137.6004028,210.88797,137.8337097,210.7341614,137.3454437z"/>
					</g>
					<g>
						<path class="st3" d="M215.4353333,137.4033051l2.5039063-10.5651855
							c0.1175385-0.4951782,0.8682709-0.3201904,0.7509766,0.1777344l-2.5039063,10.5651855
							C216.0675964,138.0827942,215.3184967,137.8992767,215.4353333,137.4033051z"/>
					</g>
					<path class="st8" d="M226.5507202,125.3792114c-0.5092773,0.9869995-1.477417,1.7248459-2.5641327,1.9541779
						s-2.2704468-0.0543976-3.1351013-0.7514496c-1.9441833,2.3834991-5.5860443,2.5363922-7.7141113,0.2629623
						c-2.0934296,2.4106064-5.9124298,2.2639389-7.8118134-0.3105011c-1.9602966,1.6675186-4.9649353,1.1931305-6.3161774-0.9971313
						c-1.7830811-2.8902435,0.0176086-6.5039444,2.3796082-8.943985c6.0467072-6.2464905,19.926651-6.5096207,24.5147095,0.881897
						C227.4433289,119.955574,227.8893585,122.7848282,226.5507202,125.3792114z"/>
					<path class="st12" d="M173.382019,125.915802c0,0,3.9419098,12.5741882,7.186142,13.3856506s10.2908325,0.4443665,10.9187469,0
						s6.8354492-12.1180344,6.7675323-13.0724487C198.1865387,125.2745972,175.3355255,124.5909576,173.382019,125.915802z"/>
					<g>
						<path class="st3" d="M183.5041809,137.3981781l-3.1875-10.0737305
							c-0.1542816-0.4862137,0.5817108-0.7202301,0.7353516-0.2329102l3.1875,10.0737305
							C184.3943329,137.6531372,183.6579895,137.8864441,183.5041809,137.3981781z"/>
					</g>
					<g>
						<path class="st3" d="M188.2053528,137.4560394l2.5039063-10.5651855
							c0.1176758-0.4963608,0.8681183-0.3195267,0.7509766,0.1777344l-2.5039063,10.5651855
							C188.837616,138.1355286,188.0885162,137.9520111,188.2053528,137.4560394z"/>
					</g>
					<path class="st25" d="M197.1722412,127.5229187c-3.5503998,1.4321747-19.6482849,0.9338531-23.4107666-0.5811462
						c-3.0366211-1.2193298-3.1050568-3.9539795-2.0908966-6.4721985
						c4.1236267-10.150322,21.7957764-11.3216019,27.0057831-2.9399567
						C200.6603851,120.726387,200.9078979,126.0326309,197.1722412,127.5229187z"/>
					<path class="st12" d="M144.9794617,124.8468857c0,0,3.941925,12.5741806,7.186142,13.385643
						c3.2442322,0.8114624,10.2908478,0.4443665,10.9187622,0s6.8354492-12.1180344,6.7675323-13.0724411
						S146.9329834,123.5220413,144.9794617,124.8468857z"/>
					<g>
						<path class="st3" d="M153.8962708,136.5461273l-3.1875-10.0737305
							c-0.1543884-0.4865646,0.5818939-0.7196655,0.7353516-0.2329102l3.1875,10.0737305
							C154.7860413,136.7998505,154.0495911,137.0328369,153.8962708,136.5461273z"/>
					</g>
					<g>
						<path class="st3" d="M159.803009,136.3869476l2.5039063-10.5649414
							c0.1166992-0.4971237,0.868103-0.3194885,0.7509766,0.1777344l-2.5039063,10.5649414
							C160.4364471,137.0614624,159.6859283,136.8839874,159.803009,136.3869476z"/>
					</g>
					<path class="st14" d="M170.8786163,124.8052368c-0.7741547,1.1044693-1.8668365,2.0072861-3.0309906,2.6720581
						c-4.3735504,2.4919891-9.4472504,1.9514008-14.3461456,1.3559113c-2.3074036-0.2790222-4.666214-0.5753021-6.7457275-1.6007233
						c-1.6294556-0.8034286-3.4070435-2.3588104-3.9425659-4.2274399v-0.0058441
						c-0.463974-1.6989746,0.2093658-3.5395126,1.1166687-5.0422745c1.6175842-2.7736435,4.1349335-4.5821838,7.0875549-5.7088318
						h0.0057068c4.351059-1.6547394,8.1285248-1.7232971,12.2323456-0.6665497
						c3.5764313,0.921608,6.2449188,3.2101822,7.3155518,5.4183884h0.0056915
						C171.7605896,119.2618866,172.3512421,122.7047882,170.8786163,124.8052368z"/>
					<ellipse class="st19" cx="201.17099" cy="122.1178589" rx="0.5591299" ry="0.8861001"/>
					
						<ellipse transform="matrix(0.9220603 -0.3870462 0.3870462 0.9220603 -29.3578243 89.1776123)" class="st19" cx="206.7478027" cy="117.4838638" rx="0.5591299" ry="0.8861001"/>
					
						<ellipse transform="matrix(0.9903367 -0.138684 0.138684 0.9903367 -14.0351563 30.7217922)" class="st19" cx="213.4357758" cy="116.0743256" rx="0.5591299" ry="0.8861001"/>
					
						<ellipse transform="matrix(0.9903367 -0.138684 0.138684 0.9903367 -14.8988228 31.3019562)" class="st19" cx="217.1670837" cy="122.5619125" rx="0.5591299" ry="0.8861001"/>
					
						<ellipse transform="matrix(0.0570776 -0.9983698 0.9983698 0.0570776 90.605629 331.2043457)" class="st19" cx="220.6430206" cy="117.6353836" rx="0.8861001" ry="0.5591299"/>
					
						<ellipse transform="matrix(0.1240873 -0.9922713 0.9922713 0.1240873 60.8317337 315.1829834)" class="st19" cx="208.9422302" cy="123.1351013" rx="0.8861001" ry="0.5591299"/>
					
						<ellipse transform="matrix(0.1240873 -0.9922713 0.9922713 0.1240873 75.3216095 331.5977478)" class="st19" cx="225.4848328" cy="123.1351013" rx="0.8861001" ry="0.5591299"/>
					<path class="st11" d="M170.5710144,116.9999313c-3.4355621-0.4103317-13.6738129-1.7548447-21.1716461-4.0452194
						c0.5241852-0.2620621,1.0654144-0.4957428,1.618042-0.7066193c4.5916901,0.9810257,14.1344452,3.0173874,18.8357239,3.6009521
						C170.0921021,116.1613922,170.38974,116.6260605,170.5710144,116.9999313z"/>
					<path class="st11" d="M171.7446442,121.3241882c0.0171051,0.4273071,0,0.8487701-0.0569611,1.2591095
						c-4.0167084-0.0342178-14.0214233-0.5925522-27.7578278-4.6263733
						c0.1994019-0.3419037,0.4216003-0.6721191,0.6551514-0.9856415
						C149.8836365,118.2590408,163.9334259,121.4666214,171.7446442,121.3241882z"/>
					<path class="st11" d="M169.5226288,126.2921829c-0.5127106,0.450119-1.0767517,0.8434906-1.6750031,1.185112
						c-4.9168854-0.2334061-13.690918-1.1678619-25.0344391-4.4722519v-0.0058441
						c-0.1371765-0.5022736-0.1705322-0.9628525-0.1538391-1.1965179
						C147.291275,122.9366074,161.2727814,126.2067795,169.5226288,126.2921829z"/>
					<ellipse class="st11" cx="184.0858765" cy="123.1109772" rx="3.5775759" ry="3.2988336"/>
					<path class="st20" d="M183.5828705,120.9893723c1.1226654-0.2428513,1.5140686,0.5157852,1.0802155,1.1417923
						c-0.5194244,0.7495117-2.7143707,1.5982056-2.9026947,0.3465729
						C181.6280518,121.5981293,182.9503632,121.1261978,183.5828705,120.9893723z"/>
					<ellipse class="st11" cx="194.5504608" cy="119.2666473" rx="3.5775759" ry="3.2988336"/>
					<path class="st20" d="M194.0474548,117.1450424c0.413147-0.0893707,0.9282532-0.0719681,1.1529388,0.286087
						c0.7367859,1.1741028-2.745285,2.7318192-2.9754181,1.2022781
						C192.0926361,117.7537994,193.4149475,117.281868,194.0474548,117.1450424z"/>
					<ellipse class="st11" cx="184.0858765" cy="115.0365524" rx="3.5775759" ry="3.2988336"/>
					<path class="st20" d="M183.5828705,112.9149551c0.4131622-0.0893784,0.9282532-0.0719681,1.1529541,0.286087
						c0.7367859,1.1740952-2.745285,2.7318192-2.9754333,1.2022781
						C181.6280518,113.5237122,182.9503632,113.0517731,183.5828705,112.9149551z"/>
					<ellipse class="st11" cx="176.2473907" cy="118.1006241" rx="3.5775759" ry="3.2988336"/>
					<path class="st20" d="M175.7443695,115.9790268c1.1226654-0.2428513,1.5140686,0.5157776,1.0802307,1.1417847
						c-0.5194244,0.7495117-2.7143707,1.5982056-2.9026947,0.3465805
						C173.7895508,116.5877838,175.1118774,116.1158447,175.7443695,115.9790268z"/>
				</g>
				<path class="st7" d="M201.3412628,156.7911682c-2.131424,1.5925903-3.1723633,1.0485992-5.3767395-0.0576782
					c-0.4967346-0.0660858-0.3108368-0.0939789-0.766037,0.0311127c-1.4898224,0.4344025-3.2180176,0.6589966-4.6261749-0.169693
					c-0.1880951-0.1107025-2.2241516-1.6708832-1.9660187-1.7830963c-0.5101929,0.2218018-1.0353088,0.46138-1.5765686,0.6230927
					c-0.7569427,0.2250519-1.8447418,0.1894379-2.529541-0.2540131c-0.7234344-0.4684601-1.3406525-1.2888184-1.1435089-2.1816711
					c0.9371033-4.2441406,3.2659454-8.2700195,6.2338409-11.4230194c0.3880005-0.4122009,0.8063202-0.8229675,1.335083-1.0251465
					c0.5287476-0.202179,1.1973114-0.1430664,1.5686035,0.2842712c0.1898193,0.2184601,0.2834167,0.5063171,0.466629,0.7303467
					c0.5059052,0.6186523,0.7397766,0.0421753,1.0057526-0.3589478c1.0795898-1.6281128,3.1724243-3.7466736,4.8457947-2.7207947
					c0.9093475,0.5574951,1.047699,1.7990265,1.0886688,2.8648682c0.2046051-0.6190643,0.4125366-1.245285,0.7618408-1.7958221
					c1.4742889-2.3236389,4.1042023-1.1099701,3.9963074,0.8280792c0.1902924-0.5301056,0.3859253-1.0701141,0.73172-1.5146942
					c0.9074554-1.1667023,2.2686615-0.9310608,2.8806152,0.2910004c0.8010406,1.5996704,0.4508667,7.3051758,0.2433472,9.1393127
					c-0.2485046,2.1964264-0.4871063,4.7299805-1.6029358,6.6813354c-0.4669189,0.8165588-1.3274536,2.0518341-2.3034058,2.2568359
					C203.4543762,157.4792786,202.4224854,157.1906281,201.3412628,156.7911682z"/>
				<g>
					<path class="st21" d="M201.009552,154.4616547c2.0878906-4.3156738,3.1894531-9.1306152,3.1850586-13.9245605
						c0-0.5150146,0.7714844-0.5118713,0.7714844-0.0004883c0.0043945,4.909668-1.1235352,9.8410645-3.262207,14.2609863
						C201.4823151,155.2570343,200.7864227,154.9225922,201.009552,154.4616547z"/>
				</g>
				<g>
					<path class="st21" d="M196.01297,152.8078461c2.0014648-3.4814453,3.1899414-7.4396973,3.4370117-11.4467773
						c0.0302734-0.5075836,0.8010406-0.4639893,0.7705078,0.0473633c-0.2543945,4.1252441-1.4780273,8.2001953-3.5385742,11.7841797
						C196.427948,153.6344452,195.7586517,153.2514343,196.01297,152.8078461z"/>
				</g>
				<g>
					<path class="st21" d="M189.5705872,153.8349457c1.972168-3.6708984,3.2211914-7.8041992,3.6108398-11.9526367
						c0.0483704-0.5126495,0.815094-0.4332733,0.7685547,0.0722656c-0.3999023,4.2502441-1.6791992,8.4846191-3.699707,12.2456055
						C190.0075531,154.6508179,189.3292236,154.2832794,189.5705872,153.8349457z"/>
				</g>
				<g>
					<polygon class="st3" points="104.6275177,65.567482 101.7003555,66.9504852 130.3617859,126.7118683 131.9932861,124.8047562 
											"/>
					<path class="st1" d="M120.3371429,59.4321747c0,0.0055618,0,0.0055618,0,0.0055618
						c-5.2663269,13.4388733-19.8779221,20.2983093-33.2785873,16.3403091h-0.0057068
						c-11.4468613-3.3431244-19.7245407-13.9143028-19.7245407-26.3391724C67.3283081,34.2489281,79.6551819,22,94.7728195,22
						C114.1903992,22,127.3289032,41.5755234,120.3371429,59.4321747z"/>
					<path class="st7" d="M87.0585556,75.7780457h-0.0057068c-6.3981934-1.8686295-11.8278503-6.0051041-15.3602982-11.485817
						c19.6675186,2.4611893,22.3680878-14.3690186,22.3680878-14.3690186S103.5696716,64.8219147,87.0585556,75.7780457z"/>
					<path class="st11" d="M94.0606384,49.9232101c-0.4671555,1.2532654-20.9152145,7.8053017-24.4476547-11.4574394
						c2.7062759-6.204567,7.6459656-11.2067833,13.7991333-14.010149c-0.0113297,0.8832684-0.9628296,1.8630695-1.3787308,2.6322765
						c-4.7611465,8.9265747-0.116539,16.2863312,8.6942749,21.2114906
						C90.898613,48.4020424,94.0378952,49.9858055,94.0606384,49.9232101z"/>
					<path class="st7" d="M118.570961,35.7650604c-3.6520691-0.461525-8.0732727-0.5469284-12.2950134,0.5697441
						c-9.7654572,2.5810852-12.2153091,13.5884056-12.2153091,13.5884056s-4.5351257-10.5460739,1.4471664-18.4084034
						c3.361496-4.4269085,8.0675735-6.0448875,11.5486145-6.6146297
						C111.8764877,27.3101749,115.8874283,31.1047478,118.570961,35.7650604z"/>
					<path class="st11" d="M120.3371429,59.4321747c0.0057068,0,0,0.0055618,0,0.0055618
						c-2.1991959,5.6120148-6.1873856,10.3237991-11.269516,13.4345703
						c0.6950684-3.0478973,1.0711899-8.2896423-2.3757782-13.5369453
						c-5.3271484-8.1246681-12.6312103-9.4121513-12.6312103-9.4121513s9.7996063-5.1618958,19.901123,1.1737022
						C117.1067505,53.0681992,119.089447,56.1391869,120.3371429,59.4321747z"/>
				</g>
				<path class="st7" d="M123.2904587,98.7824249c1.177063-1.0397339,2.3060608-2.3461761,4.0427246-1.5321808
					c1.096489,0.5139389,1.7942123,1.6547852,2.0728683,2.833252s0.1981201,2.4083328,0.1159515,3.6165085
					c0.2138672-0.5113907,0.9127045-0.6760178,1.4230804-0.4597549c1.0900421,0.4618759,2.2193756,3.0420761,1.3483276,5.5532532
					c1.1990509-0.0690079,2.4095764,0.6103668,2.975296,1.6698074c0.5657349,1.0594406,0.4569702,2.4433136-0.267334,3.4013596
					c1.4816895,0.3862991,2.3470001,2.0095749,2.4289856,3.5386124c0.0854187,1.5932541-0.5753174,3.5400696-1.9064941,4.4656219
					c-1.4976654,1.0413208-2.7176208,1.7774277-3.7028961,3.4105453
					c-2.9525452,4.8939209-4.7373886,19.843399-15.3871765,26.1117859
					c-3.5217056,2.0728455-7.7611694,2.8982544-11.8033066,2.2980499
					c-7.2206192-1.0721741-12.4896545-6.4519348-13.288681-10.3585205
					c-0.6051865-2.9588318,0.7762527-6.0433655,2.8624802-8.2270966c1.0513-1.1004333,2.2731934-2.0192261,3.5540085-2.8348083
					c1.1553879-0.7357178,2.8758698-1.2762299,3.8464432-2.2172546c1.0800476-1.0471802,1.8935242-2.8577423,2.7427979-4.1159058
					C121.4647522,100.5771027,121.2743149,100.5633392,123.2904587,98.7824249z"/>
				<g>
					<path class="st21" d="M123.4494934,112.5319672c0.5664063-3.7487793,2.8266602-7.1821289,6.0463867-9.1843262
						c0.4308319-0.2697067,0.8421478,0.3850632,0.4072266,0.6552734c-3.0302734,1.8845215-5.1577148,5.1159668-5.690918,8.6442871
						C124.1359787,113.1529083,123.3735733,113.0359497,123.4494934,112.5319672z"/>
				</g>
				<g>
					<path class="st21" d="M126.6218567,116.0283051c0.9111328-3.0627441,2.8583984-5.7529297,5.4833984-7.5754395
						c0.4193268-0.2906189,0.8596497,0.3422089,0.4404297,0.6337891c-2.4819336,1.7229004-4.3227539,4.2663574-5.1845703,7.1618652
						C127.2156067,116.7378159,126.4757614,116.5174332,126.6218567,116.0283051z"/>
				</g>
				<g>
					<path class="st21" d="M128.5749817,120.4870453c0.9506836-3.0822754,3.3032227-5.6442871,6.2929688-6.8537598
						c0.4730225-0.1909866,0.7622528,0.5242996,0.2890625,0.715332c-2.7768555,1.123291-4.9619141,3.5029297-5.8447266,6.3659668
						C129.1607056,121.2047043,128.4239807,120.975174,128.5749817,120.4870453z"/>
				</g>
				<g>
					<path class="st21" d="M99.0456848,134.3469086c0.8842773-4.8845215,3.3232422-8.7692871,7.6757813-12.2250977
						c0.400177-0.317688,0.8793411,0.2871628,0.4794922,0.6040039c-4.1967773,3.3327637-6.546875,7.0690918-7.3964844,11.7587891
						C99.7137375,134.9862976,98.9543839,134.8496399,99.0456848,134.3469086z"/>
				</g>
			</g>
		</g>
	</g>
</g>
</svg>
