<?xml version="1.0" encoding="utf-8"?>
<!-- Generator: Adobe Illustrator 22.0.1, SVG Export Plug-In . SVG Version: 6.00 Build 0)  -->
<svg version="1.1" id="Layer_1" xmlns="http://www.w3.org/2000/svg" xmlns:xlink="http://www.w3.org/1999/xlink" x="0px" y="0px"
	 viewBox="0 0 300 300" style="enable-background:new 0 0 300 300;" xml:space="preserve">
<style type="text/css">
	.st0{fill:#EDC1A4;}
	.st1{fill:#E2E0E0;}
	.st2{fill:#D39E81;}
	.st3{fill:#502E26;}
	.st4{fill:#CCCACA;}
	.st5{fill:#426800;}
	.st6{fill:#538705;}
	.st7{fill:#D47E44;}
	.st8{fill:#73341D;}
	.st9{fill:#BC672E;}
	.st10{fill:#96311D;}
	.st11{fill:#B83E21;}
	.st12{fill:#DE8D82;}
	.st13{fill:#EFBAB4;}
	.st14{fill:#FDD5D0;}
	.st15{fill:#6883CE;}
	.st16{fill:#3D4885;}
	.st17{fill:#3859AE;}
	.st18{fill:#864424;}
	.st19{fill:#FEFEFE;}
	.st20{fill:#FFFFFF;}
	.st21{fill:#A55925;}
	.st22{fill:#F4F2F2;}
	.st23{fill:#3C3E68;}
	.st24{fill:#E8997C;}
	.st25{fill:#F5C46B;}
	.st26{fill:#F7EBDA;}
	.st27{fill:#0E0C0D;}
	.st28{fill:#657C3A;}
	.st29{fill:#576C37;}
	.st30{fill:#7C995D;}
	.st31{fill:#36518C;}
	.st32{fill:#96B7E3;}
	.st33{fill:#A3B3DF;}
	.st34{fill:url(#SVGID_1_);}
	.st35{fill:url(#SVGID_2_);}
	.st36{fill:url(#SVGID_3_);}
	.st37{fill:url(#SVGID_4_);}
	.st38{fill:url(#SVGID_5_);}
	.st39{fill:#266AB7;}
	.st40{fill:#060E0D;}
	.st41{fill:#E0D4C6;}
	.st42{fill:#787E42;}
	.st43{fill:#D3D1D1;}
	.st44{fill:url(#SVGID_6_);}
	.st45{fill:url(#SVGID_7_);}
	.st46{fill:url(#SVGID_8_);}
	.st47{fill:#020508;}
	.st48{fill:#BAB6B6;}
	.st49{fill:#0F0B07;}
	.st50{fill:#2F3A68;}
	.st51{fill:#203257;}
	.st52{opacity:0.5;fill:#FFFFFF;}
	.st53{opacity:0.2;fill:#0E0C0D;}
	.st54{fill:#DD9F9B;}
	.st55{fill:#3E4D9B;}
	.st56{fill:url(#SVGID_9_);}
	.st57{fill:#5F6194;}
	.st58{fill:url(#SVGID_10_);}
	.st59{fill:url(#SVGID_11_);}
	.st60{fill:url(#SVGID_12_);}
	.st61{fill:url(#SVGID_13_);}
	.st62{fill:#070102;}
	.st63{fill:#100805;}
	.st64{fill:#FDA465;}
	.st65{fill:#2A50A1;}
	.st66{fill:#B76C39;}
	.st67{fill:#130602;}
	.st68{fill:url(#SVGID_14_);}
	.st69{fill:url(#SVGID_15_);}
	.st70{fill:url(#SVGID_16_);}
	.st71{fill:url(#SVGID_17_);}
	.st72{fill:url(#SVGID_18_);}
	.st73{fill:url(#SVGID_19_);}
	.st74{fill:#B4BDED;}
	.st75{fill:#100D08;}
	.st76{fill:#F6C85F;}
	.st77{fill:#FECF00;}
	.st78{fill:#2D59E2;}
	.st79{fill:#121F3A;}
	.st80{fill:#BBD0F5;}
	.st81{fill:#020202;}
	.st82{fill:#E2CFB7;}
	.st83{fill:#080805;}
	.st84{fill:#A87D7C;}
	.st85{fill:#182052;}
	.st86{fill:#EAEAEA;}
	.st87{fill:#DDDDDD;}
	.st88{fill:#3D4574;}
	.st89{fill:#ABC5F0;}
	.st90{fill:url(#SVGID_20_);}
	.st91{fill:#4159A8;}
	.st92{fill:#E0D0BD;}
	.st93{fill:#3D53AA;}
	.st94{fill:#0A0000;}
	.st95{fill:#BF6D36;}
	.st96{fill:#385DAE;}
	.st97{fill:#E0DCDC;}
	.st98{fill:#857E78;}
	.st99{fill:#0E213C;}
	.st100{fill:url(#SVGID_21_);}
	.st101{fill:#55608E;}
	.st102{opacity:0.3;fill:#F4F2F2;}
	.st103{opacity:0.3;}
	.st104{fill:#213987;}
	.st105{enable-background:new    ;}
</style>
<g id="Decorating_Cake_1_">
	<g id="Decorating_Cake">
		<g>
			<path class="st8" d="M180.1867218,32.2809601c-0.8986816,2.1693993-3.8510742,5.1452293-5.9102631,6.4076805
				c-4.7147522,2.9379959-8.5259857,1.6562729-13.2241364-0.8890533c-0.8584442-0.4633255-1.9280548-0.8584518-2.1903687-1.802063
				c-2.1321564-7.6754665-2.5807343-8.746706-2.47995-10.3319988c0.2657928-4.180727,5.119873-4.5222092,6.7278748-0.2964058
				c0.4598236-0.9946785,0.895874-1.9723892,1.7440948-2.660511c0.8482208-0.6881237,2.1121063-0.9742184,3.0454102-0.4053574
				c0.9811096,0.5996342,1.2638855,1.8769951,1.4512634,3.0148029c0.67099-1.3524609,2.5003204-1.9860268,3.8629303-1.3353291
				c1.3660278,0.6472054,2.0268707,2.4663162,1.4035339,3.8391533c0.8448029-0.8448086,2.1392212-1.2059212,3.3008881-0.9231529
				C180.0097656,27.4139137,181.2637482,29.6495495,180.1867218,32.2809601z"/>
			<path class="st13" d="M174.5898285,38.4876251c-1.6682892,1.1117401-3.6646423,1.8652267-5.7025146,1.8906364
				c-2.7796783,0.0340996-5.3891296-1.2535782-7.8349915-2.5786743c-0.8584442-0.4633255-1.9280548-0.8584518-2.1903687-1.802063
				c-0.3576965-1.287674-0.718811-2.5719376-1.0799255-3.8596115
				C163.7515564,28.7580853,171.73526,31.0030842,174.5898285,38.4876251z"/>
			<path class="st8" d="M140.4066315,53.879467c0,0-3.0198517-0.9882698-2.293457-4.6703568
				c0.7263947-3.6820908,4.0267639-8.0332375,8.7153625-10.4952316c4.6886139-2.4619942,12.3023376-4.7877541,19.844696-3.2053947
				c7.5423584,1.5823555,10.4341431,7.0455666,11.6449432,13.3560524c1.2108154,6.3104897,0.0455933,14.9331017-2.471283,18.4287529
				c0,0-1.6313019-0.046608-7.6438293-6.3853912c-6.0125122-6.3387871-16.3130493-10.8132248-16.3130493-10.8132248
				L140.4066315,53.879467z"/>
			<path class="st7" d="M182.4827118,80.9635696l-11.9364624,8.4787903l-16.4465942,0.5859146
				c-4.1269989-18.4476624-2.6214294-11.7178116-2.9637451-13.2479172l2.9637451-4.9530945l9.2179718-8.3017235l6.2748718-3.0147171
				c0.0927887,0.1006317,6.6722107,7.2355309,6.2543182,6.7823448l5.7332001,7.2831802L182.4827118,80.9635696z"/>
			<path class="st9" d="M170.7506714,61.7643967c-0.020462,0.4905167-0.0953827,0.9912682-0.1703186,1.4648209
				c-0.895874,5.5151291-1.9213257,11.3266754-5.5151367,15.605278c-2.1086121,2.5173874-5.0348511,4.3364944-8.2233887,5.1234207
				l4.6363068,3.7880096c-2.3777313,0.9946747-4.8610992,1.8804016-7.3955383,2.200592L151.13591,76.7803574l2.9637451-4.9530945
				l9.2179718-8.3017235l6.2748718-3.0147171L170.7506714,61.7643967z"/>
			<polygon class="st4" points="215.088562,196.5593872 196.0387268,81.9322968 175.0623932,86.6947556 147.0985413,151.3847961 
				174.7419586,190.9191437 200.2130432,204.1381683 			"/>
			<path class="st4" d="M144.0713654,77.3684387c0,0-14.3445435-1.83918-29.7255325,22.3283005
				s24.6454697,14.0520325,24.6454697,14.0520325l9.3296967-17.552948L144.0713654,77.3684387z"/>
			<path class="st1" d="M150.4739227,76.7794495h0.6617889c0,0,0.6095886,6.5298615,12.2582703,7.7044296
				c11.6486969,1.1745758,17.8493652-6.9092865,18.1845398-9.9077148l2.4880981-0.444603l2.697464,2.7375183
				c0,0,0.7055206,23.3701096,0,25.1338882c-0.7055054,1.7637787-0.4409332,11.6409607-0.4409332,11.6409607l-6.7023773,10.4735947
				l-19.8425446,3.823616l-22.6645813-3.823616l-9.140976-5.887764l0.7476807-9.2287216l14.919281-26.3114777
				L150.4739227,76.7794495z"/>
			<path class="st1" d="M190.1854248,75.6001129c0,0,34.0111847,9.2409286,59.6842499,71.1732941
				c0,0,6.3944244,24.18367-8.0347443,29.3574829c-14.429184,5.1738129-36.1057434-12.1217499-36.1057434-12.1217499
				s-16.6440887-28.6207733-19.30159-51.0836487C183.7700806,90.462616,190.1854248,75.6001129,190.1854248,75.6001129z"/>
			<path class="st3" d="M210.5070038,152.5826721c0,0,9.1978607-8.5111237,21.3108826-5.0670166
				c12.1130066,3.4441223,21.1777649,16.2582245,8.8286896,30.411087
				c-12.3490906,14.1528625-24.4354401,5.6402588-24.4354401,5.6402588"/>
			<path class="st3" d="M80.040451,141.0357361c0,0-4.8061829,10.2196045,0.1655121,19.496048
				c4.9716873,9.2764435,14.6172791,10.0648499,20.4457626,8.2098999s10.0889969-13.5409241,10.0889969-16.340683
				S80.040451,141.0357361,80.040451,141.0357361z"/>
			<path class="st15" d="M184.0666199,74.1315613l6.1188049,1.4685516c0,0-2.4990387,76.0524139,7.185379,93.141571
				c0,0,11.3248901,7.8980713,15.7775574,13.3138428s16.5707397,32.7560883,15.3159027,53.8870697
				s-106.8943481-4.1856232-106.8943481-4.1856232s3.455368-106.5528412,5.4508743-116.3135376
				s9.9104691-30.0725479,17.0505753-38.0749969c0,0,4.468277-0.8687973,6.4025574-0.5889893
				c0,0-10.4434967,14.0578842-15.9060516,35.8347626c0,0,19.0842743,6.2378006,48.7571564,2.3587799L184.0666199,74.1315613z"/>
			<path class="st7" d="M210.5070038,152.5826721l-51.5753937,38.4306335l3.6931915,22.1706543
				c0,0,70.7424927-22.4503326,77.338028-38.1990051S230.9461517,141.4623566,210.5070038,152.5826721z"/>
			<path class="st8" d="M268.1073914,251.5585632v1.9723816C268.1073914,267.0446777,215.2280121,278,150,278
				s-118.107399-10.9553223-118.107399-24.4690552v-1.9723816c0,0.6898041,0.1391697,1.3527374,0.3780766,1.9723816
				C37.1147346,266.1214294,87.9740753,276.0276184,150,276.0276184c62.0258331,0,112.8851929-9.906189,117.729248-22.4966736
				C267.99646,252.8378448,268.1073914,252.2008057,268.1073914,251.5585632z"/>
			<path class="st25" d="M268.1073914,251.5585632c0,0.642334-0.1109619,1.2793732-0.3781433,1.9723816
				C262.8851929,266.1214294,212.0258331,276.0276184,150,276.0276184c-62.0259247,0-112.8852692-9.906189-117.7293243-22.4966736
				c-0.2383957-0.6183167-0.3780766-1.281311-0.3780766-1.9723816c0-13.5136414,52.8793793-24.4655609,118.107399-24.4655609
				S268.1073914,238.0449219,268.1073914,251.5585632z"/>
			<ellipse class="st3" cx="145.5645142" cy="255.4015656" rx="42.703598" ry="8.6794825"/>
			<path class="st10" d="M139.4315186,230.3161774c1.5271454,0.0592651,9.2374573-0.1379547,9.8782349,0.0698395
				l0.1072998,0.1744232c0.4775848,4.6328583,0.766098,13.0448608,4.1327667,16.6547546
				c2.4687042,3.162262,6.5987549,3.5948944,8.6457367,6.0527039c0.5365295,0.6444092,0.5976563,1.3669586,0.0262451,2.037262
				c-0.5547485,0.6507568-1.736557,0.8353119-2.5471191,1.0602875c-5.2887421,1.4678345-12.6396179,1.7162781-18.3256989,1.4996948
				c-4.4535828-0.1696472-9.5937653-0.3875427-13.6686096-2.4055023c-0.6224594-0.3079071-1.1007614-0.6246033-1.3757095-1.2245331
				c-0.0755768-0.164917-0.1047211-0.3529205-0.0592041-0.5285187c0.5984573-2.3088379,7.9035721-3.6688385,10.1903458-6.8003693
				l0.125351-0.1750946C139.2475433,242.8994751,139.495224,234.8131409,139.4315186,230.3161774z"/>
			<path class="st11" d="M190.4574127,219.0263824c0,1.375946-1.1781464,2.5005798-2.3027954,3.2838593
				c-6.1590271,4.2547302-23.9614868,7.3342438-44.9593201,7.3342438c-20.9977417,0-38.7968063-3.0760956-44.9592285-7.3342438
				c-1.1344299-0.7815247-2.306221-1.9117584-2.306221-3.2838593c0-5.8660889,21.1613388-10.621582,47.2654495-10.621582
				C169.2960815,208.4048004,190.4574127,213.1602936,190.4574127,219.0263824z"/>
			<path class="st10" d="M190.4574127,219.0263824v3.2838593c0,5.8660126-21.1613312,10.6214905-47.2621155,10.6214905
				c-26.1041107,0-47.2654495-4.7554779-47.2654495-10.6214905v-3.2838593c0,1.3721008,1.1717834,2.5023193,2.306221,3.2838593
				c6.1624222,4.2581482,23.9614868,7.3342438,44.9592285,7.3342438c20.9978333,0,38.800293-3.0795135,44.9593201-7.3342438
				C189.2791901,221.5270081,190.4574127,220.4023743,190.4574127,219.0263824z"/>
			<path class="st13" d="M183.6128845,182.7809753v30.6007843c0,5.6581879-18.0965576,10.2467499-40.417923,10.2467499
				c-22.3248367,0-40.4213867-4.588562-40.4213867-10.2467499v-30.6007843c0,5.6582642,18.09655,10.2468414,40.4213867,10.2468414
				C165.5163269,193.0278168,183.6128845,188.4392395,183.6128845,182.7809753z"/>
			<path class="st26" d="M183.6128845,182.7809753c0,5.6582642-18.0965576,10.2468414-40.417923,10.2468414
				c-22.3248367,0-40.4213867-4.5885773-40.4213867-10.2468414s18.09655-10.2468262,40.4213867-10.2468262
				C165.5163269,172.5341492,183.6128845,177.1227112,183.6128845,182.7809753z"/>
			<circle class="st15" cx="106.3683853" cy="190.9191437" r="1.5773711"/>
			<circle class="st15" cx="110.1601715" cy="179.6223755" r="1.5773711"/>
			<circle class="st15" cx="123.1472855" cy="186.762558" r="1.5773711"/>
			<circle class="st15" cx="141.4992981" cy="183.2076111" r="1.5773711"/>
			<circle class="st15" cx="153.9434509" cy="174.5535126" r="1.5773711"/>
			<circle class="st15" cx="159.7309723" cy="184.9040527" r="1.5773711"/>
			<circle class="st15" cx="174.7810059" cy="180.4781494" r="1.5773711"/>
			<circle class="st15" cx="116.8367691" cy="201.6180573" r="1.5773711"/>
			<circle class="st15" cx="138.4540253" cy="194.9820099" r="1.5773711"/>
			<circle class="st15" cx="147.0985413" cy="219.0246429" r="1.5773711"/>
			<circle class="st15" cx="165.8966675" cy="217.6808014" r="1.5773711"/>
			<circle class="st15" cx="169.0530548" cy="205.7155457" r="1.5773711"/>
			<circle class="st15" cx="174.7419586" cy="192.4965057" r="1.5773711"/>
			<circle class="st15" cx="180.7938385" cy="206.0273285" r="1.5773711"/>
			<circle class="st15" cx="157.9487" cy="194.9820099" r="1.5773711"/>
			<circle class="st15" cx="152.915863" cy="207.3018494" r="1.5773711"/>
			<circle class="st15" cx="123.6769791" cy="217.6808014" r="1.5773711"/>
			<circle class="st15" cx="134.4897156" cy="208.4048004" r="1.5773711"/>
			<circle class="st15" cx="107.9457626" cy="211.4839478" r="1.5773711"/>
			<circle class="st15" cx="130.1941833" cy="174.5767059" r="1.5773711"/>
			<path class="st7" d="M121.632103,116.9976578c-4.361496,18.2095871-8.7591705,52.7494125-28.1515198,47.7219467
				c-14.2222214-3.6858673-14.6139374-17.9455109-14.6139374-17.9455109
				c0.6608505-7.0310974,3.2293777-10.4716339,7.0651169-15.414505
				c6.9672775-8.9720535,16.1190109-14.6376419,24.5542145-31.0129547
				c5.1638412,5.3324661,7.7780228,8.0408478,10.1037064,10.4409485
				C122.4496307,112.7054901,122.248703,114.4258041,121.632103,116.9976578z"/>
			<path class="st21" d="M121.632103,116.9976578c-0.9913559,4.1389694-1.8498001,8.3017273-2.7593155,12.4508438
				c-3.8216705-3.5309448-9.5723801-13.7514114-10.400116-25.4228134c0.701767-1.2093277,1.3728409-2.4357071,2.0133057-3.6790543
				c5.1638412,5.3324661,7.7780228,8.0408478,10.1037064,10.4409485
				C122.4496307,112.7054901,122.248703,114.4258041,121.632103,116.9976578z"/>
			<path class="st26" d="M117.7473373,118.6412201c2.4459457-11.4033508-3.7186661-22.9583435-14.5500183-27.278183
				c1.9236069,0.0651627,3.8472137,0.1303253,5.7708206,0.1954803c-1.9207916-2.0700684-3.8415909-4.1401367-5.7623825-6.2102051
				c2.9051437,1.0977707,5.8102875,2.1955414,8.7154236,3.2933121c-0.4399414-2.7877426-0.8798828-5.5754929-1.3198242-8.3632431
				c1.4275436,2.1477661,2.8550873,4.2955322,4.2826309,6.4432983c1.0033493-2.9934769,2.006691-5.9869614,3.0100327-8.9804382
				c0.1584549,2.4773331,0.3169098,4.9546661,0.4753647,7.4319916c0.6569748-3.2479782,3.06147-6.0874786,6.1568069-7.2706451
				c-2.899498,4.287056-3.129303,9.9292297-1.8959351,14.9556274c2.4609756,10.0292816,10.1810074,18.406868,11.2171555,28.794014"
				/>
			<path class="st7" d="M113.0756836,116.1581497c1.3674393,2.5811615,7.2893906,1.5895386,10.2510681-0.7560349
				c1.2777481-1.01194,1.2248001-2.3472443,1.9605713-3.6297989c0.6370926-1.1105499,1.9179764-1.6404419,3.0457306-2.2465744
				c1.1277466-0.6061249,2.2904968-1.5567474,2.3041992-2.8369904c0.0137482-1.2859955-1.1676636-2.2831345-2.3752747-2.7254562
				c0.7903748-0.6003799,1.1586609-1.7037964,0.8873596-2.6585312c-0.2713165-0.9547348-1.1648331-1.6995773-2.1528168-1.7945862
				c0.9826736-0.6523056,1.4162598-2.0216599,0.9881134-3.1206741c-0.4281387-1.0990143-1.6738052-1.8141785-2.838768-1.6298218
				c0.8581848-0.4663239,1.1897278-1.6254272,0.8744736-2.5498505c-0.3152618-0.9244232-1.1577148-1.6005249-2.0831451-1.9128265
				c-2.3807144-0.8034058-7.966217,0.1684189-12.0699081,4.1298447c-2.1262589,2.0525513-4.5672379,5.7608871-1.9651794,8.4805908
				c0.6252213,0.6534729,1.468338,1.0517883,2.1612015,1.6330566
				C114.1047821,106.2531815,111.8282089,113.8034286,113.0756836,116.1581497z"/>
			<path class="st26" d="M145.5458527,165.2442322c-1.1547852,3.4133301-6.6870422,3.4575806-21.3690948-23.6548462
				c-2.500412-4.61586-4.8917923-9.3917999-6.4383698-14.426651c-0.5245361-1.7032547-1.1615906-3.5938873-1.4851913-5.3311615
				c-0.4700623-2.5174713,1.4614029-5.7672195,3.0351715-7.5760956c3.9655533-4.5135574,10.2115707-5.5816879,14.5560532-3.3895569
				c3.6654205,1.8498001,4.6704102,5.4913483,5.5253601,9.1567688c1.5205078,6.5233231,4.3829956,22.9552155,5.804718,36.3611755
				C145.443634,158.9285278,146.3974762,162.7268524,145.5458527,165.2442322z"/>
			<path class="st41" d="M129.5215607,126.6449432c-0.0034027-0.4598312-0.0170441-0.9231567-0.0442352-1.382988
				C129.5215607,125.7217865,129.535202,126.1817017,129.5215607,126.6449432z"/>
			<path class="st41" d="M135.6226196,126.8664169c0.1669922,0.7084961,0.3032227,1.4273148,0.408844,2.1494522
				C135.8951569,128.3005524,135.7589264,127.5817337,135.6226196,126.8664169z"/>
			<path class="st41" d="M132.9927979,113.1006165c0.8754883,4.5885696,1.7543945,9.1771469,2.6298218,13.7658005
				c-1.3421478-5.7638855-4.6157684-11.0711899-9.1907883-14.8285904c1.7952499,4.1798096,2.8308334,8.6832123,3.0454941,13.2241287
				c-0.3611145-4.217308-2.8989563-8.2267914-6.6155167-10.2775192c1.5397491,7.8281708,3.0829163,15.6563416,4.6226654,23.4845123
				c-3.5870743-7.5113831-5.8354111-15.6563416-6.6086121-23.9410172c-1.5363464,4.4898529-1.699852,9.4395294-0.4667358,14.0246964
				c-2.871666-4.418251-2.9363708-10.4273911-0.4292221-15.0261917c2.9923859-2.9422379,7.408989-4.405899,11.5379181-3.4882736
				c3.2021027,1.9792099,5.5696106,5.3176117,6.2543182,9.0306854
				C136.1813354,117.0794907,134.5870972,115.0900574,132.9927979,113.1006165z"/>
			<path class="st13" d="M140.7328339,180.7458344c3.1858673,0.5338135,8.0193481-0.1030121,9.8923798-1.8550262
				c1.4340973-1.3414154,1.2094421-3.2077789-0.5243988-4.2488556c-0.7448578-0.4472351-1.6058502-0.6528168-2.4514618-0.8522797
				c1.6179047,0.1843262,2.6877899-1.6687927,1.720993-2.9777832c-0.5401001-0.7312622-1.5133362-0.9707794-2.2531586-1.4990845
				c-1.7959595-1.2825165-1.8469696-3.9531555-0.1026001-5.3036652c-1.3090057,0.3875732-2.6784363,0.7414551-3.7489929,1.5885773
				c-1.6118469,1.2754364-2.5439453,3.3472443-1.6331024,5.2071228c0.2495422,0.5095673,0.9190674,0.9494476,0.9974976,1.4855652
				c-0.6992798,0.2857971-1.5516205,0.309433-2.2883301,0.5598907c-1.0488892,0.3565674-2.0461273,0.939621-2.734726,1.8074341
				C135.8802032,176.833847,136.1543427,179.9786835,140.7328339,180.7458344z"/>
			<path class="st7" d="M140.4066315,53.879467c0,0,2.9328003-6.7567253,7.7691803-8.1747742
				c4.8363953-1.418045,6.9726105,0.5790176,10.8967285,4.4255066c3.9241333,3.846489,7.0036316,6.8943596,8.2609253,6.2302322
				c-0.1890106-0.7059479-0.2447815-1.3425827-0.2218628-2.07304c0.0966797-3.0821075,3.3326874-3.9637299,5.514679-1.9693832
				c2.3682556,2.1645775,2.462677,6.5994987-1.4642029,10.0761871c-0.4736938,0.4193878-0.8117523,0.4045944-1.3370361,0.757225
				c-0.5844421,2.6961212-1.4210052,5.4753799-2.4464417,8.0364532c-2.1512451,5.3727722-6.1876984,9.612442-11.9171906,8.7519836
				c-3.3146667-0.4977951-5.8061218-3.039566-7.8522186-5.6944275
				C143.0170441,68.2870178,140.1114197,61.3963432,140.4066315,53.879467z"/>
			<path class="st8" d="M157.270462,56.5547943c0.1612701,0.1827469,0.2064667,0.4885864,0.0371857,0.6639595
				c-0.1915894,0.1985092-0.5163879,0.1327095-0.7859344,0.0739059c-1.3998566-0.3053665-2.9246674,0.0179482-4.0801392,0.8651276
				c-0.3128662,0.2293968-1.0635681,0.7664986-1.357132,0.1909256c-0.2141418-0.4198418,0.5185242-0.9133949,0.7959595-1.1273499
				c0.8440704-0.6509285,1.8794098-1.0522385,2.9406433-1.1472206
				C155.466507,56.0163727,156.8571014,56.0864334,157.270462,56.5547943z"/>
			<path class="st8" d="M147.4184113,59.5023918c0.1612701,0.1827431,0.2064667,0.4885864,0.0371857,0.6639595
				c-0.1915894,0.1985054-0.5163879,0.1327057-0.7859344,0.0739059c-1.3998566-0.3053665-2.9246674,0.0179443-4.0801392,0.8651276
				c-0.3128662,0.2293968-1.0635681,0.7664986-1.357132,0.1909218c-0.2141418-0.4198418,0.5185242-0.9133949,0.7959595-1.1273499
				c0.8440704-0.6509285,1.8794098-1.0522385,2.9406433-1.1472168
				C145.6144562,58.9639702,147.0050507,59.0340271,147.4184113,59.5023918z"/>
			
				<ellipse transform="matrix(0.9212621 -0.3889424 0.3889424 0.9212621 -11.1228209 64.8940887)" class="st8" cx="154.7175293" cy="59.9187927" rx="0.9690449" ry="1.3988373"/>
			
				<ellipse transform="matrix(0.9212621 -0.3889424 0.3889424 0.9212621 -13.0546169 61.246769)" class="st8" cx="144.7432861" cy="62.8663864" rx="0.9690449" ry="1.3988373"/>
			<path class="st9" d="M148.6985474,68.1955872c0.2912292,0.3503952,0.8235626,0.3974533,1.2622833,0.2744827
				s0.8260651-0.380928,1.2470398-0.5552216c0.1463318-0.060585,0.3021393-0.1144562,0.4130249-0.2275391
				c0.1108856-0.1130753,0.1579285-0.3085861,0.0549469-0.4289093c-0.1777039-0.2076035-0.3843689-0.0830383-2.3491821,0.4856415
				c0.1472931-1.018486,0.2707977-2.0404053,0.3704376-3.0646515c0.0408325-0.419838,0.4483185-2.3984451,0.0065308-2.5731926
				c-0.2972717,0.6911392-0.3871765,1.5629616-0.5617676,2.3009605
				C148.5250244,67.0145416,148.2612152,67.6694183,148.6985474,68.1955872z"/>
			<path class="st20" d="M156.4200134,68.0173187c-1.1981812,1.9289169-3.3662415,3.2498398-5.9597168,3.6310425
				c0.9273071,1.8767395,3.7382965,3.0956268,5.4307556,1.9098892
				C157.4564667,72.4615173,156.9715729,69.8458786,156.4200134,68.0173187z"/>
			<g>
				<path class="st21" d="M119.2845764,96.4342804c1.7597656-1.3842773,3.9599609-2.1455078,6.1987305-2.1455078
					c0.567627,0.0149689,0.5125427,0.75,0.0366211,0.75c-0.1000824,0.0577393-2.9234161-0.2561951-5.7714844,1.9853516
					C119.3565903,97.3298264,118.8956604,96.7414398,119.2845764,96.4342804z"/>
			</g>
			<g>
				<path class="st21" d="M121.2347717,101.1208038c1.9238281-0.9926758,3.9848633-1.6655273,6.1245117-2.0004883
					c0.4975128-0.0702362,0.6010132,0.6648483,0.1162109,0.7412109c-2.0605469,0.3222656-4.0444336,0.9702148-5.8969727,1.9262695
					C121.1393661,102.015213,120.7926102,101.3495102,121.2347717,101.1208038z"/>
			</g>
			<g>
				<path class="st21" d="M122.3475647,105.912796c1.7114258-1.4609375,3.9770508-2.2373047,6.2290039-2.1328125
					c0.5090332,0.0240097,0.4456635,0.7914124-0.0351563,0.7490234c-2.0546875-0.0991211-4.1381836,0.6162109-5.706543,1.9541016
					C122.4580917,106.8053207,121.9698792,106.2353592,122.3475647,105.912796z"/>
			</g>
			<path class="st20" d="M169.9548492,59.2984962c-0.4182892-1.2117653-0.8365631-2.4235268-1.2548523-3.6352921
				c-0.5258789-1.5234604,3.4705658-2.3743629,2.7063599,1.0656891
				C171.179245,57.751236,170.5404968,58.4302864,169.9548492,59.2984962z"/>
		</g>
	</g>
</g>
</svg>
