<?xml version="1.0" encoding="utf-8"?>
<!-- Generator: Adobe Illustrator 22.0.1, SVG Export Plug-In . SVG Version: 6.00 Build 0)  -->
<svg version="1.1" id="Layer_1" xmlns="http://www.w3.org/2000/svg" xmlns:xlink="http://www.w3.org/1999/xlink" x="0px" y="0px"
	 viewBox="0 0 300 300" style="enable-background:new 0 0 300 300;" xml:space="preserve">
<style type="text/css">
	.st0{fill:#EDC1A4;}
	.st1{fill:#E2E0E0;}
	.st2{fill:#D39E81;}
	.st3{fill:#502E26;}
	.st4{fill:#CCCACA;}
	.st5{fill:#426800;}
	.st6{fill:#538705;}
	.st7{fill:#D47E44;}
	.st8{fill:#73341D;}
	.st9{fill:#BC672E;}
	.st10{fill:#96311D;}
	.st11{fill:#B83E21;}
	.st12{fill:#DE8D82;}
	.st13{fill:#EFBAB4;}
	.st14{fill:#FDD5D0;}
	.st15{fill:#6883CE;}
	.st16{fill:#3D4885;}
	.st17{fill:#3859AE;}
	.st18{fill:#864424;}
	.st19{fill:#FEFEFE;}
	.st20{fill:#FFFFFF;}
	.st21{fill:#A55925;}
	.st22{fill:#F4F2F2;}
	.st23{fill:#3C3E68;}
	.st24{fill:#E8997C;}
	.st25{fill:#F5C46B;}
	.st26{fill:#F7EBDA;}
	.st27{fill:#0E0C0D;}
	.st28{fill:#657C3A;}
	.st29{fill:#576C37;}
	.st30{fill:#7C995D;}
	.st31{fill:#36518C;}
	.st32{fill:#96B7E3;}
	.st33{fill:#A3B3DF;}
	.st34{fill:url(#SVGID_1_);}
	.st35{fill:url(#SVGID_2_);}
	.st36{fill:url(#SVGID_3_);}
	.st37{fill:url(#SVGID_4_);}
	.st38{fill:url(#SVGID_5_);}
	.st39{fill:#266AB7;}
	.st40{fill:#060E0D;}
	.st41{fill:#E0D4C6;}
	.st42{fill:#787E42;}
	.st43{fill:#D3D1D1;}
	.st44{fill:url(#SVGID_6_);}
	.st45{fill:url(#SVGID_7_);}
	.st46{fill:url(#SVGID_8_);}
	.st47{fill:#020508;}
	.st48{fill:#BAB6B6;}
	.st49{fill:#0F0B07;}
	.st50{fill:#2F3A68;}
	.st51{fill:#203257;}
	.st52{opacity:0.5;fill:#FFFFFF;}
	.st53{opacity:0.2;fill:#0E0C0D;}
	.st54{fill:#DD9F9B;}
	.st55{fill:#3E4D9B;}
	.st56{fill:url(#SVGID_9_);}
	.st57{fill:#5F6194;}
	.st58{fill:url(#SVGID_10_);}
	.st59{fill:url(#SVGID_11_);}
	.st60{fill:url(#SVGID_12_);}
	.st61{fill:url(#SVGID_13_);}
	.st62{fill:#070102;}
	.st63{fill:#100805;}
	.st64{fill:#FDA465;}
	.st65{fill:#2A50A1;}
	.st66{fill:#B76C39;}
	.st67{fill:#130602;}
	.st68{fill:url(#SVGID_14_);}
	.st69{fill:url(#SVGID_15_);}
	.st70{fill:url(#SVGID_16_);}
	.st71{fill:url(#SVGID_17_);}
	.st72{fill:url(#SVGID_18_);}
	.st73{fill:url(#SVGID_19_);}
	.st74{fill:#B4BDED;}
	.st75{fill:#100D08;}
	.st76{fill:#F6C85F;}
	.st77{fill:#FECF00;}
	.st78{fill:#2D59E2;}
	.st79{fill:#121F3A;}
	.st80{fill:#BBD0F5;}
	.st81{fill:#020202;}
	.st82{fill:#E2CFB7;}
	.st83{fill:#080805;}
	.st84{fill:#A87D7C;}
	.st85{fill:#182052;}
	.st86{fill:#EAEAEA;}
	.st87{fill:#DDDDDD;}
	.st88{fill:#3D4574;}
	.st89{fill:#ABC5F0;}
	.st90{fill:url(#SVGID_20_);}
	.st91{fill:#4159A8;}
	.st92{fill:#E0D0BD;}
	.st93{fill:#3D53AA;}
	.st94{fill:#0A0000;}
	.st95{fill:#BF6D36;}
	.st96{fill:#385DAE;}
	.st97{fill:#E0DCDC;}
	.st98{fill:#857E78;}
	.st99{fill:#0E213C;}
	.st100{fill:url(#SVGID_21_);}
	.st101{fill:#55608E;}
	.st102{opacity:0.3;fill:#F4F2F2;}
	.st103{opacity:0.3;}
	.st104{fill:#213987;}
	.st105{enable-background:new    ;}
</style>
<g id="Delivery_Girl_1_">
	<g id="Delivery_Girl">
		<g>
			<g>
				<g>
					<rect x="162.1368713" y="266.8708801" class="st3" width="40.1257553" height="2.6406848"/>
					<path class="st3" d="M206.8347473,264.7562866h-47.6018982c-1.4937439,0-2.7046509-1.210907-2.7046509-2.7046509v-3.7303772
						h53.0112v3.7303772C209.5393982,263.5453796,208.3284912,264.7562866,206.8347473,264.7562866z"/>
					<path class="st1" d="M209.5395355,258.3190308h-53.0140381c0,0-2.3955841-3.930954,1.1303101-10.2075195
						c3.5290375-6.2663727,4.4638672-19.535141,4.4812164-19.6353302l9.9826355-1.385376l3.5608673-0.4949951l4.7612762-0.6603394
						c0,0-0.0749664,0.9404297,0.0100098,2.5407104c0.1958771,3.7422943,1.0672913,7.7461243,2.5857086,11.5430908
						c0.9906158,2.4763641,4.0185699,4.3660431,6.3916473,5.5615387c4.1338501,2.066925,8.0054626,3.073288,11.8681946,4.0559998
						C210.5647583,251.6673737,209.5395355,258.3190308,209.5395355,258.3190308z"/>
					<path class="st15" d="M199.7879028,249.2766571c-1.7583466,2.4089203-4.933136,3.3238831-7.9270325,3.3309631
						c-2.7107391,0.005127-5.6665344-0.3851013-8.2371521-1.2451935c-4.9763641-1.6654816-8.4523163-6.366684-10.0226746-11.3780212
						c-1.2953949-4.1461182-1.490387-8.5274048-1.4803772-12.8935394l8.3221436-1.1553345
						c0.016983,0.1078796-0.4542694,6.4477692,2.5956573,14.0838013
						C184.9631653,244.8290863,194.7837677,248.019989,199.7879028,249.2766571z"/>
					<circle class="st11" cx="201.9607391" cy="268.1912231" r="6.2638836"/>
					<circle class="st7" cx="201.9607391" cy="268.1912231" r="3.194663"/>
					<circle class="st11" cx="181.759491" cy="268.6184998" r="6.2638836"/>
					<circle class="st7" cx="181.759491" cy="268.6184998" r="3.194663"/>
					<circle class="st11" cx="163.6355133" cy="268.6184998" r="6.2638836"/>
					<circle class="st7" cx="163.6355133" cy="268.6184998" r="3.194663"/>
					<path class="st1" d="M182.0882721,237.3535919c-6.3974609,1.3347015-6.3670197,1.3703918-6.921875,1.2202911
						c-0.4250488-0.1150208-0.8101501-0.5001373-0.7701721-0.9350586c0.0550079-0.5702209,0.7202301-0.8403168,1.2803192-0.9753571
						c1.3803711-0.3301697,2.7807617-0.6002655,4.1861572-0.8051453c0.4700928-0.0652008,1.0852509-0.2200317,1.7054138-0.3101501
						C181.7181702,236.1333008,181.893219,236.7384338,182.0882721,237.3535919z"/>
					<path class="st1" d="M183.7737122,241.3197174c-5.0209961,2.7891998-5.1352844,2.8916931-5.6965179,2.9106903
						c-0.4351044,0.0200195-0.9202881-0.2349243-1.0102692-0.6652222c-0.2062378-1.0131836,1.3761444-1.5645447,5.8215485-3.9209595
						C183.1113281,240.2015381,183.2715302,240.6390839,183.7737122,241.3197174z"/>
					<path class="st1" d="M187.429657,244.470459c-3.0906372,3.3583984-3.2493744,3.6205902-3.8059387,3.8311005
						c-0.4101563,0.1550598-0.9503326,0.0649567-1.1703644-0.315033c-0.2901154-0.4952545,0.0950012-1.1003876,0.4700928-1.5355682
						c0.9202881-1.0700989,1.8905182-2.09552,2.9108124-3.0757599
						C186.3293762,243.7554321,186.864563,244.1205139,187.429657,244.470459z"/>
					<path class="st1" d="M191.1956635,246.4009094c-1.1602325,3.363266-1.2189484,3.7533112-1.6404572,4.1612549
						c-0.3150177,0.3050079-0.8451843,0.4400482-1.2002563,0.1851044c-0.4651489-0.3401794-0.3550873-1.0503235-0.1851196-1.5956421
						c0.3701019-1.2051544,0.7902527-2.400528,1.2603455-3.5707703
						C190.0103455,245.8709717,190.6005402,246.1459503,191.1956635,246.4009094z"/>
					<path class="st1" d="M195.6968536,248.0915375c-0.1260376,2.1219177-0.115097,2.5821381-0.3901215,3.0508575
						c-0.2250366,0.3799744-0.7001343,0.6500702-1.1102753,0.4949951c-0.5351715-0.1999969-0.620163-0.9152679-0.6001434-1.4854889
						c0.0250397-0.9101563,0.0799866-1.8203125,0.1600189-2.7307129
						C194.4214935,247.6663818,195.0716858,247.8915253,195.6968536,248.0915375z"/>
				</g>
				<g>
					
						<rect x="69.9139633" y="261.7956238" transform="matrix(0.9076317 0.4197674 -0.4197674 0.9076317 118.6794281 -13.4831772)" class="st3" width="40.1257553" height="2.2638113"/>
					<path class="st3" d="M113.7782211,270.1508484l-43.2049866-19.9817352
						c-1.3557663-0.6270294-1.9465332-2.2343903-1.3195114-3.5901642l1.5658875-3.3858032l48.1146545,22.2523804
						l-1.5658875,3.3858032C116.7413559,270.1871033,115.1339874,270.7778625,113.7782211,270.1508484z"/>
					<path class="st1" d="M118.9355316,265.4459229L70.8178177,243.190033c0,0-0.5251617-4.5710297,5.311409-8.7921143
						c3.7260208-2.6857758,7.7020493-8.4272766,10.097702-12.2332153c1.3603439-2.1656189,2.2105484-3.7060699,2.2105484-3.7060699
						l9.6425629,2.9358368c0.1003494,0.0304565,8.5830078,2.6047211,8.0421677,2.4405975
						c-0.030983,0.1002197-2.4591217,4.3260193-3.3009262,11.0578613c-0.1070786,0.8302612-0.2254868,2.0177002-0.2550659,2.8156738
						c-0.2631683,4.2513123,4.9575348,9.7322693,8.0971069,12.6434937c2.3835297,2.2219238,4.3353729,3.6691589,4.4362335,3.7509918
						C122.6565475,259.8394775,118.9355316,265.4459229,118.9355316,265.4459229z"/>
					<path class="st15" d="M113.8801193,253.1430054c-2.6071091,1.4483185-5.8727341,0.9460907-8.5930481-0.3042297
						c-2.4625092-1.1332245-4.9814758-2.7281647-6.9536209-4.5878754
						c-3.8175812-3.6005554-4.9990616-9.3265991-4.3207703-14.5342255
						c0.5646667-4.3069153,2.2268066-8.3653564,4.0686569-12.3240051l8.038414,2.4447479
						c-0.0324249,0.1049194-2.4514236,4.3661804-3.2994614,11.0540924
						c-0.1329041,1.0351563-0.2084045,1.9139404-0.2565536,2.8183746
						C102.2916489,242.8834381,109.8577499,249.895401,113.8801193,253.1430054z"/>
					<circle class="st11" cx="108.0071945" cy="271.7370605" r="6.2638836"/>
					<circle class="st7" cx="108.0071945" cy="271.7370605" r="3.194663"/>
					<circle class="st11" cx="91.0014191" cy="264.024353" r="6.2638836"/>
					<circle class="st7" cx="91.0014191" cy="264.024353" r="3.194663"/>
					<circle class="st11" cx="73.7062836" cy="256.1368103" r="6.2638836"/>
					<circle class="st7" cx="73.7062836" cy="256.1368103" r="3.194663"/>
					<path class="st1" d="M102.8202896,234.89151c-6.3667908-1.4740295-6.3541489-1.4288483-6.794754-1.7980042
						c-0.3374939-0.2828064-0.5253754-0.7940063-0.3065109-1.1719818c0.2892838-0.4944458,1.0064316-0.4603577,1.5714645-0.3478241
						c1.3914642,0.2797699,2.7758789,0.622467,4.1374741,1.0264435c0.4540405,0.1381531,1.0773697,0.2558441,1.6780701,0.4343719
						C102.9966202,233.6285858,102.901474,234.251297,102.8202896,234.89151z"/>
					<path class="st1" d="M102.6851959,239.1988068c-5.7280273,0.4239044-5.8747864,0.4689484-6.3921432,0.2506104
						c-0.4033279-0.1644745-0.7366714-0.5995331-0.6377258-1.0278473c0.2381287-1.0061798,1.905777-0.8423767,6.9297104-1.115097
						C102.5533829,237.9058533,102.5151215,238.370224,102.6851959,239.1988068z"/>
					<path class="st1" d="M104.6808624,243.5931549c-4.2148972,1.7508392-4.4690247,1.9221802-5.0625534,1.8796082
						c-0.437355-0.0314178-0.8898163-0.3399658-0.9300156-0.7772064c-0.0554276-0.5712891,0.5481262-0.9588623,1.0712509-1.1963959
						c1.2844772-0.5849609,2.5955276-1.1083832,3.9330444-1.5697937
						C103.9823761,242.4822998,104.3148651,243.0383148,104.6808624,243.5931549z"/>
					<path class="st1" d="M107.288681,246.9261322c-2.464859,2.5655823-2.6818771,2.8949432-3.2356873,3.0882721
						c-0.4139557,0.1446075-0.9518433,0.044632-1.167099-0.3358154c-0.2793961-0.5040131,0.1186142-1.102356,0.5017853-1.5259552
						c0.8417892-0.9384766,1.7249222-1.8470764,2.6428223-2.7118988
						C106.4352951,245.9476013,106.855545,246.4449158,107.288681,246.9261322z"/>
					<path class="st1" d="M110.6644287,250.3500519c-1.0050964,1.8730164-1.1883621,2.2953186-1.6347351,2.6053009
						c-0.3637466,0.2504272-0.9083405,0.2961273-1.2155075-0.0167847c-0.4017868-0.4061737-0.1786728-1.0910492,0.0788651-1.6002045
						c0.4047699-0.815567,0.8366928-1.6185913,1.2914963-2.4113007
						C109.6853409,249.4288025,110.1809692,249.9060974,110.6644287,250.3500519z"/>
				</g>
				<path class="st0" d="M202.0925446,97.261528l-1.385376,11.3230667
					c-2.6809692,0.0548935,9.6946106-0.1985016-26.1319122,0.5350494c0,0-10.0876312-0.1699677-12.2732697-13.5135803
					c-0.3050079-1.870369-0.2250366-3.4308395,0.1400604-4.7261047c2.2305603-7.9623184,15.1340027-6.106842,15.1340027-6.106842
					c0.0393982,0.1000748,2.1985321,12.2492752,7.2319031,13.463768
					C189.8732605,99.4563904,201.9920807,97.2697678,202.0925446,97.261528z"/>
				<path class="st2" d="M185.2481232,108.8996201l-10.6728668,0.2200241c0,0-10.0876312-0.1699677-12.2732697-13.5135803
					c-0.3050079-1.870369-0.2250366-3.4308395,0.1400604-4.7261047l2.5307007-0.8752365
					c0.1049957,1.7253113,0.2150116,3.4906693,0.8952484,5.0811844c0.6751709,1.5905075,2.0355072,3.0007935,3.7459869,3.2459717
					c2.8623047,0.4177246,5.1596527-2.2803116,6.8918457-3.7209549c1.0202179-0.8503189,2.1555328-1.5905075,3.3808899-2.0957718
					c1.1552734,2.7109222,2.7857208,5.206459,4.9212341,5.7217331c1.3703461,0.3299179,3.2758789,0.404892,5.3214722,0.3450623
					C190.4432526,102.4154892,187.9859467,106.2076874,185.2481232,108.8996201z"/>
				<path class="st15" d="M159.4595337,61.4849472c0,0,17.2432098,6.6642303,19.5551758,25.1081696
					c0,0-12.7397919,8.5172119-17.2110443,7.9605331C157.3323975,93.9969711,159.4595337,61.4849472,159.4595337,61.4849472z"/>
				<path class="st15" d="M190.9096069,232.682373c-0.0600281,4.7761688-47.9026337,4.1561279-47.8426819-0.6251678
					l0.8202209-6.5317535c2.0348816-15.9275208,3.6532898-27.4772491,4.3011322-46.3921661
					c0.555191-16.2494049-0.2300415-25.7919769-0.2300415-25.7919769c0.1783905-4.468689,1.9639893-49.3504486,2.0305634-51.0235138
					l9.0473785,8.0521851c0,0,24.4214325,62.3165436,27.7573395,75.4049683
					c2.0455322,8.0321503,3.1308289,23.8813171,3.6659546,34.9191437
					C190.7945862,227.6410065,190.9096069,232.682373,190.9096069,232.682373z"/>
				<path class="st16" d="M155.3802338,164.1092987c0.0596161,2.5520172-0.3232574-13.8395844,1.4203033,60.8061218
					l-12.9133911,0.6100311c2.0348816-15.9275208,3.6532898-27.4772491,4.3011322-46.3921661
					c0.555191-16.2494049-0.2300415-25.7919769-0.2300415-25.7919769l0.6401825-16.0792084
					c1.6892395-5.6301575-4.2917938,14.3043365,8.2021179-27.3373108c0.0296783,0.1028061,1.2149963,4.2097549,1.1403198,3.9509964
					l0.250061,0.8703461c0.3451233,9.3774872-0.4050751,21.2805405-1.3202972,28.6675034
					C155.4752655,154.6335297,155.4640961,162.4611053,155.3802338,164.1092987z"/>
				<path class="st3" d="M181.9022064,236.743515c-6.9067993,1.1602173-13.9687195,1.380249-20.9355316,0.66008
					c0.8752289-4.7661591,1.1703491-8.9274139,1.1703491-8.9274139l9.9826355-1.385376l3.5608673-0.4949951
					c1.6554718,0.4700928,3.2608795,1.0901337,4.771286,1.8803711
					C180.6019135,231.3438873,181.1829071,234.412796,181.9022064,236.743515z"/>
				<path class="st11" d="M190.9096069,232.682373c-0.0600281,4.7761688-47.9026337,4.1561279-47.8426819-0.6251678
					l0.8202209-6.5317535c0.280304-2.1952972,0.2250366-1.844635,0.5901794-4.6162109
					c14.9321594,3.6628876,31.0707092,2.9951324,45.9821472-0.2151489
					C190.7945862,227.6410065,190.9096069,232.682373,190.9096069,232.682373z"/>
				<path class="st0" d="M155.8152924,70.2744064h-5.3864441l-2.6556702-1.2454453l-3.9560547-2.8005447l-4.3911743-2.3507233
					l-0.2300415-0.7401848c-0.046402-0.4419785-0.6622467-10.7952271-2.055542-18.3798637
					c15.9831085,11.4527321,10.47052,7.5026703,11.6630554,8.3571892c0.0244751,0.1003761,2.1131592,8.6657791,1.9805756,8.1220245
					h0.7301636l3.5359192,3.6511116L155.8152924,70.2744064z"/>
				<path class="st2" d="M149.4486084,55.7554245c-1.5314789,0.2787361-5.4877167-0.2113266-8.1821442-1.7704849
					c-1.2753143-0.7399445-2.410614-1.7753754-3.1958618-3.0205765c-0.2350464-1.8955193-0.5001373-3.7810287-0.7951965-5.4565201
					c0.3000641-0.0100136,0.6002045-0.0100136,0.9002075-0.0051308l10.6278076,7.6121216L149.4486084,55.7554245z"/>
				<path class="st3" d="M139.3082886,48.3494568c-0.9878387,1.9917297-2.4169159,3.763134-4.1546478,5.1498909
					c-0.8456726,0.6748695-1.812088,1.2768898-2.8900909,1.3692322c-2.8512726,0.2442474-5.5440979-2.9594154-3.9692535-7.7156563
					c-1.1558075,1.5046539-3.2283936,2.0437164-5.0050735,1.3779144c-4.0943375-1.5343399-3.7169952-7.5130539,0.5300217-8.5271721
					c-4.7965088,0.809639-6.435524-7.3801651,0.4428177-7.8206749c3.9125443-0.2505703,5.4144974,2.0794373,7.6380692,0.4329262
					c1.5917053-1.1786346,2.2784882-3.3423729,4.0540619-4.2796402c0.8751984-0.4619827,2.0428314-0.5060692,2.7880249,0.1451378
					c0.8211365-0.6019154,1.8367615-1.0818024,2.6578979-1.6837177c2.6719055-1.9585896,5.4546356-3.9677238,8.6996307-4.6349602
					c2.9641876-0.609499,4.4976196,0.4721947,5.2675934,3.1682606c1.2086487,4.2321262-0.0376434,9.0740128-3.1394196,12.1966324
					L139.3082886,48.3494568z"/>
				<path class="st0" d="M153.4860229,43.6501617c0.1251678,2.509243-0.23526,5.01894-1.1344299,7.3648834
					c-1.0062256,2.6252441-1.9519501,3.5311661-5.350708,3.3150024c-2.428299-0.154438-5.002594-0.5965729-6.7944489-2.2426987
					c-1.7230225-1.5828781-2.357605-3.807373-2.9575806-6.0688629c-0.3221283,0.5572548-1.0157776,0.8310432-1.6568451,0.7734108
					c-2.3003235-0.2067947-4.1713409-3.7815704-2.8495026-6.1457825c0.9551697-1.7083778,3.1209259-1.8462372,3.9809113-0.498333
					c0.7536469-1.8940201,1.1726532-3.8655548,1.1469421-5.8624268c-0.0092468-0.7190361,0.7478027-1.1774445,1.4016571-0.8781624
					c0.8882751,0.4065819,1.9107056,0.5593605,2.9195557,0.5214729c2.6979523-0.1013222,5.0815277-2.1588955,7.8040009-1.8544846
					c1.4557343,0.1627731,2.8008575,1.5824852,3.0206451,3.0307159
					C153.4544983,37.9928055,153.3383636,40.6896973,153.4860229,43.6501617z"/>
				<path class="st3" d="M146.5328674,49.9289322c-0.9729919-0.5824699-1.4959717-1.854084-1.0903168-2.9057961
					c1.8504639-0.0698433,3.7009888-0.1350479,5.5515137-0.2000046
					C151.2237701,49.3197403,148.5624084,51.1465302,146.5328674,49.9289322z"/>
				<path class="st19" d="M150.9040222,47.9284019c-1.1063232,0.5346527-3.426239,0.7714882-5.5965118-0.0249062
					c-0.0150299-0.2952461,0.0250244-0.5951309,0.1350403-0.8803596c1.8504639-0.0698433,3.7009888-0.1350479,5.5515137-0.2000046
					C151.0290527,47.2033577,150.9990692,47.5733299,150.9040222,47.9284019z"/>
				<ellipse class="st3" cx="143.6177368" cy="40.3507996" rx="0.9319754" ry="1.2813749"/>
				<path class="st3" d="M145.0666351,39.4854088c-0.1999512-0.680706-2.1263428-0.7794342-2.7025299-0.1203117
					c-0.0939484,0.1074715-0.2780151,0.4349442-0.0246277,0.4574509c0.1842804,0.0163689,0.4527283-0.1779327,0.6324615-0.2320023
					c1.2200317-0.3670006,1.8551483,0.1692848,2.0396576,0.0926895
					C145.0810089,39.6544189,145.0878143,39.557518,145.0666351,39.4854088z"/>
				<ellipse class="st3" cx="150.8733673" cy="40.4306183" rx="0.9319754" ry="1.2813749"/>
				<path class="st3" d="M152.3222809,39.5652275c-0.1999664-0.680706-2.126358-0.7794342-2.7025299-0.1203117
					c-0.0939484,0.1074715-0.2780151,0.4349442-0.0246277,0.4574509c0.1842804,0.0163689,0.452713-0.1779327,0.6324615-0.2320023
					c1.2200317-0.3670006,1.8551331,0.1692848,2.0396576,0.0926895
					C152.3366547,39.7342377,152.3434601,39.6373367,152.3222809,39.5652275z"/>
				<path class="st2" d="M149.212326,45.0586624c-0.0511932,0.2047768-0.2518463,0.344635-0.4585114,0.3875999
					c-0.2639618,0.0548744-0.1853333,0.0476494-2.7778015-0.3937836c-0.5624237-0.0957642-0.5063171-0.5714912,0.0666809-0.4838219
					c0.6136322,0.0938835,1.2272797,0.1877708,1.8409119,0.2816544c0.5973053,0.0913849,0.8617249-0.1206017,0.6414642-0.7041702
					c-1.3498535-3.5765038-1.3376007-3.4735603-1.3272552-3.6839294c0.0069275-0.1407242,0.1030731-0.35495,0.2514038-0.2981491
					c0.1026764,0.0393105,0.248703,0.4852295,0.3005219,0.5914421c0.202652,0.4154243,0.391098,0.8377991,0.5649109,1.2660904
					C148.4735565,42.4131355,149.3137665,44.6527901,149.212326,45.0586624z"/>
				<path class="st3" d="M145.3919525,36.3661308c0.6451569,0.0405121,0.6965179,0.4597282,0.4032898,0.7108421
					c-0.3736267,0.3199615-2.2478943,0.4725456-2.7357788,0.5049515c-0.7251434,0.0481644-1.6071472,0.1948738-2.3244171,0.0597801
					c-0.6468353-0.1218262-0.6420135-0.6437988-0.1572723-0.9929619c0.5448761-0.3924713,1.4219818-0.2991562,2.0594788-0.3212204
					C143.5553894,36.295742,144.4750519,36.3085518,145.3919525,36.3661308z"/>
				<path class="st3" d="M153.6473541,36.165493c0.6451569,0.0405121,0.6965179,0.4597282,0.4032898,0.7108421
					c-0.3736267,0.3199615-2.2478943,0.4725456-2.7357635,0.5049515c-0.7251587,0.0481644-1.6071625,0.1948738-2.3244324,0.0597801
					c-0.6468353-0.1218262-0.6420135-0.6437988-0.1572571-0.9929619c0.5448761-0.3924713,1.4219666-0.2991562,2.0594635-0.3212204
					C151.810791,36.0951042,152.7304535,36.107914,153.6473541,36.165493z"/>
				<path class="st2" d="M136.0400391,44.0194588c-0.0731201-0.7284508-0.1462402-1.4569016-0.2193604-2.1853523
					c-0.4803925-0.0337639-1.0679016,0.3544273-1.239975,0.8042068
					C134.235321,43.5411224,135.2249908,44.5951653,136.0400391,44.0194588z"/>
				<path class="st1" d="M136.3562775,64.0128708l2.8409271-0.8775368c0,0,9.7386932,6.090168,12.9784698,5.19907
					c3.4051361-0.9365768-0.6619415-7.0986938-0.6619415-7.0986938l0.6619415-0.1939621h4.8990021l6.1597443,9.2321548
					l1.2716827,6.3922272l-1.8227997,5.3241882h-5.4684143l-5.0392151-0.7671814l-3.9345703-3.645607l-2.8566437-5.0766754
					L136.3562775,64.0128708z"/>
				<path class="st16" d="M128.744278,69.2902145c0,0,3.3562775-4.7933426,7.6119995-5.2773438
					c0,0,7.2471008-1.093853,18.1279297,15.7015762c0,0,5.4256134-2.5199356,9.2595062-3.3373489
					c0,0-6.8494873-13.2590637-11.5680389-15.33535c0,0,3.6706696-0.5494347,7.2838593,0.4431992
					c0,0,12.6832123,16.705864,11.7168579,26.3369446c-0.9663696,9.6310883-9.6572876,17.1341171-8.9056702,23.7139206h-29.7154236
					L128.744278,69.2902145z"/>
				<path class="st15" d="M158.1059418,111.5353241c-0.0059814,0.1049576-0.4879913,5.6819534-0.880249,21.1906738
					c-0.355072,14.3836823-5.9765472,35.1291656-9.0374146,46.4021606v0.005127
					c-0.420105,1.5402069-0.7901917,2.9006805-1.0902557,4.0460052
					c-1.855484,7.0367737-12.0782166,28.3973999-19.2701187,40.8157349
					c-2.5706863,4.4262085-4.7512589,7.7171173-6.026619,8.8172607
					c-4.8612747,4.1812897-40.2656631-10.6776276-38.0300217-17.6045074
					c0.6951904-2.1555939,2.4056015-5.131485,4.5912399-8.4072571c4.8312302-7.2719421,11.9781418-16.0142365,15.5091095-20.5054169
					c5.126358-6.5166168,15.8541718-23.2412567,16.1192551-47.4224701
					c0.2600784-24.1765594,12.5632553-27.3373108,12.5632553-27.3373108H158.1059418z"/>
				<path class="st3" d="M105.7020493,224.6653595c-0.6151505,1.3052826-1.7704849,4.0860443-2.5056686,7.891983
					c-6.3516541-2.0906372-12.2181931-5.6814423-16.9694519-10.3926392
					c1.3603439-2.1656189,2.2105484-3.7060699,2.2105484-3.7060699l9.6425629,2.9358368l6.4917068,1.9705048
					C104.9618683,223.7901306,105.3419724,224.2201691,105.7020493,224.6653595z"/>
				<path class="st11" d="M127.8279037,223.9950256c-2.5706863,4.4262085-4.7512589,7.7171173-6.026619,8.8172607
					c-4.8612747,4.1812897-40.2656631-10.6776276-38.0300217-17.6045074
					c0.6951904-2.1555939,2.4056015-5.131485,4.5912399-8.4072571
					C99.2403793,216.5279541,113.2990341,222.6496887,127.8279037,223.9950256z"/>
				<g>
					<path class="st7" d="M231.563858,77.2667236c-0.2550812,1.050087-0.4901886,2.1353302-0.3551483,3.2056808
						c0.2229767,1.7753067,2.407196,5.3616638-2.9457855,6.9019775c-2.045517,0.5899963-3.7359619,1.9553528-5.8865662,2.3805084
						c-3.2108002,0.6351776-6.5217438-0.0249023-9.7225342-0.6852341c0,0-28.157486-8.3171463-28.1576538-8.3171921
						c-2.1796875-0.6413345-1.7185059-4.2565384-1.3786163-5.8818588c0.565033-2.7019577,2.9169769-4.9471741,5.8413849-4.571434
						c1.1573486,0.1487045,2.2593384,0.6848831,3.4261169,0.6718292c2.5826721-0.0288925,4.5379791-2.6751862,7.1163788-2.8264389
						c2.4523773-0.1438522,4.5097046,2.0056076,6.957962,2.2077408c3.647049,0.3011093,6.5522461-3.7193985,10.2073822-3.5412903
						c2.9024658,0.1414261,5.0515289,2.873497,7.8820343,3.5311127c2.1651764,0.5030365,4.6801605-0.2473526,6.464798,1.2268524
						C232.6363983,72.9095154,231.9848328,75.5336227,231.563858,77.2667236z"/>
					<path class="st11" d="M232.5591125,80.887558v29.5427322c0,1.0254135-0.830307,1.8505859-1.8505249,1.8505859h-46.5623169
						c-1.0252991,0-1.8554688-0.8251724-1.8554688-1.8505859V80.887558c0-1.025177,0.8301697-1.8554764,1.8554688-1.8554764
						h46.5623169C231.7288055,79.0320816,232.5591125,79.862381,232.5591125,80.887558z"/>
					<path class="st22" d="M187.1335754,72.9758377c-0.4561768,0.2620392-1.4497833,1.3644638-0.6622314,1.7829742
						c1.0221405,0.5431747,2.5073547-0.616394,2.0083313-1.533783
						C188.2365417,72.7780457,187.5748138,72.7223892,187.1335754,72.9758377z"/>
					<path class="st22" d="M196.2598114,76.0337143c1.0570221-0.1315231,1.6207733,0.9472885,0.7944183,1.6274567
						c-0.4965668,0.4087219-1.7074738,0.6039276-2.1689606,0.1019363
						C194.1157379,76.9260101,195.5989532,76.1159515,196.2598114,76.0337143z"/>
					<path class="st22" d="M202.2958832,71.1945419c0.4726715-0.058815,1.017868,0.1699066,1.1554108,0.6259384
						c0.3675537,1.2185211-1.8862152,1.8037109-2.529953,1.1034546
						C200.1517944,72.0868454,201.6350098,71.2767792,202.2958832,71.1945419z"/>
					<path class="st22" d="M218.4753418,72.0104218c0.3798218,0.2927246,0.9466553,0.2304611,1.3475647-0.0323639
						c0.9920349-0.6503601,0.9340363-2.0161819-0.3655548-2.0655136
						C218.4202881,69.8731766,217.4778748,71.2416611,218.4753418,72.0104218z"/>
					<path class="st22" d="M211.5638885,77.2387238c0.3798218,0.2927246,0.9466705,0.2304535,1.3475647-0.0323715
						c0.9920349-0.6503601,0.9340363-2.0161743-0.3655548-2.065506
						C211.5088348,75.1014786,210.5664215,76.4699631,211.5638885,77.2387238z"/>
					<path class="st22" d="M227.2266388,74.7779007c0.3798218,0.2927322,0.9466553,0.2304611,1.3475647-0.0323639
						c0.9920349-0.6503601,0.9340363-2.0161743-0.3655548-2.065506
						C227.1715851,72.6406631,226.2291718,74.0091476,227.2266388,74.7779007z"/>
				</g>
				<path class="st0" d="M198.0664673,108.3394089c-0.9973297,1.5141449-6.2358093,3.1412277-8.1671448,3.8960495
					c-9.3412476,3.6393204-23.524704,6.8635406-31.3433228,9.4175339c-7.8212433,2.5539474-16.3631134,5.20298-24.2463989,2.0706177
					c-2.9457245-1.1704788-5.6114655-3.205925-7.3068695-5.9017105c-2.2977219-3.6557236-1.7423019-7.4340744-1.2303619-19.1100388
					c0.1800385-4.1661377,0.3600769-8.3320389,0.5401154-12.4981766l22.0058289,8.2070007
					c-0.2540741,4.9778366,0.1383514-2.710556-0.515152,10.0927658c5.5815582,0.7453079,26.6470642,1.5003967,28.2624817,0.6051407
					c1.2653503-0.7001419,1.9155426-2.1705017,2.150589-3.5959244c0.3495636-2.0827484,0.0014191-4.6822281,0.9902649-6.0965881
					c0.3650818-0.5201569,0.9602661-0.9052658,1.5904388-0.8803558c1.2153473,0.0451736,1.8854523,1.4903793,1.8755035,2.7057953
					c-0.010025,1.2202911-0.4050751,2.4557266-0.1100769,3.6359711c0-0.1150208,4.8063202-2.1805115,5.2613983-2.39077
					c0.7401886-0.3350525,1.4304352-0.6251678,2.2055969-0.840065c0.8002014-0.2200317,1.490448-0.7001419,2.3406525-0.7602158
					c1.5921936-0.1016998,2.7424316,1.1939392,1.8354492,2.7607422c-0.2751007,0.4700928-0.6751709,0.8552094-1.0702362,1.2351913
					c0.5351105-0.3951263,1.0902557-0.8000183,1.740448-0.9502029c1.7813873-0.4248962,2.9164124,1.4704437,1.0202942,3.0557404
					c2.1661987-0.7293015,3.2862244,2.6200867,0.9052124,3.5160675c0.5050659-0.0549469,0.9952545,0.0148926,1.2953186,0.3899918
					C198.4115906,107.3042221,198.3415527,107.9093628,198.0664673,108.3394089z"/>
				<path class="st2" d="M148.3083038,94.6057968l-0.3250427,6.3967133
					c-7.0018463,3.9661331-14.7089081,6.6868286-22.6510162,7.9921036c0.0228806-0.7009583,0.435585-10.1792984,0.4401245-10.282753
					C132.8642731,95.7161942,140.6163177,94.3007813,148.3083038,94.6057968z"/>
				<path class="st15" d="M151.3806305,95.9846268c0,0-11.3912811,7.9985428-30.5078201,3.3831406
					c0,0-2.8183136-24.4031754,7.8714676-30.0775528S156.0009613,90.8064346,151.3806305,95.9846268z"/>
			</g>
			<g>
				<path class="st2" d="M184.0952454,104.0811462c3.4819336-0.8959961,6.7426758-2.394043,9.6914063-4.453125
					c0.4107056-0.2827911,0.8344727,0.3317642,0.4296875,0.6152344c-3.0224609,2.1103516-6.3652344,3.6459961-9.9345703,4.5644531
					C183.7980042,104.9286499,183.616806,104.2045364,184.0952454,104.0811462z"/>
			</g>
			<g>
				<path class="st2" d="M187.7788391,105.9297791c2.996582-0.6469727,5.8486328-1.7739258,8.4775391-3.3500977
					c0.4277649-0.2547836,0.8104858,0.3891754,0.3857422,0.6435547c-2.6992188,1.6181641-5.6279297,2.7753906-8.7050781,3.4399414
					C187.4473877,106.7611084,187.2971497,106.0342407,187.7788391,105.9297791z"/>
			</g>
			<g>
				<path class="st2" d="M190.6323547,108.5635681c2.2929688-0.2021484,4.5253906-0.9731445,6.4550781-2.2299805
					c0.412262-0.2705841,0.8272705,0.3559494,0.4091797,0.628418c-2.0322266,1.3237305-4.3833008,2.1357422-6.7988281,2.3486328
					C190.1997986,109.3539429,190.141098,108.6065369,190.6323547,108.5635681z"/>
			</g>
		</g>
	</g>
</g>
</svg>
