<?xml version="1.0" encoding="utf-8"?>
<!-- Generator: Adobe Illustrator 22.0.1, SVG Export Plug-In . SVG Version: 6.00 Build 0)  -->
<svg version="1.1" id="Layer_1" xmlns="http://www.w3.org/2000/svg" xmlns:xlink="http://www.w3.org/1999/xlink" x="0px" y="0px"
	 viewBox="0 0 300 300" style="enable-background:new 0 0 300 300;" xml:space="preserve">
<style type="text/css">
	.st0{fill:#EDC1A4;}
	.st1{fill:#E2E0E0;}
	.st2{fill:#D39E81;}
	.st3{fill:#502E26;}
	.st4{fill:#CCCACA;}
	.st5{fill:#426800;}
	.st6{fill:#538705;}
	.st7{fill:#D47E44;}
	.st8{fill:#73341D;}
	.st9{fill:#BC672E;}
	.st10{fill:#96311D;}
	.st11{fill:#B83E21;}
	.st12{fill:#DE8D82;}
	.st13{fill:#EFBAB4;}
	.st14{fill:#FDD5D0;}
	.st15{fill:#6883CE;}
	.st16{fill:#3D4885;}
	.st17{fill:#3859AE;}
	.st18{fill:#864424;}
	.st19{fill:#FEFEFE;}
	.st20{fill:#FFFFFF;}
	.st21{fill:#A55925;}
	.st22{fill:#F4F2F2;}
	.st23{fill:#3C3E68;}
	.st24{fill:#E8997C;}
	.st25{fill:#F5C46B;}
	.st26{fill:#F7EBDA;}
	.st27{fill:#0E0C0D;}
	.st28{fill:#657C3A;}
	.st29{fill:#576C37;}
	.st30{fill:#7C995D;}
	.st31{fill:#36518C;}
	.st32{fill:#96B7E3;}
	.st33{fill:#A3B3DF;}
	.st34{fill:url(#SVGID_1_);}
	.st35{fill:url(#SVGID_2_);}
	.st36{fill:url(#SVGID_3_);}
	.st37{fill:url(#SVGID_4_);}
	.st38{fill:url(#SVGID_5_);}
	.st39{fill:#266AB7;}
	.st40{fill:#060E0D;}
	.st41{fill:#E0D4C6;}
	.st42{fill:#787E42;}
	.st43{fill:#D3D1D1;}
	.st44{fill:url(#SVGID_6_);}
	.st45{fill:url(#SVGID_7_);}
	.st46{fill:url(#SVGID_8_);}
	.st47{fill:#020508;}
	.st48{fill:#BAB6B6;}
	.st49{fill:#0F0B07;}
	.st50{fill:#2F3A68;}
	.st51{fill:#203257;}
	.st52{opacity:0.5;fill:#FFFFFF;}
	.st53{opacity:0.2;fill:#0E0C0D;}
	.st54{fill:#DD9F9B;}
	.st55{fill:#3E4D9B;}
	.st56{fill:url(#SVGID_9_);}
	.st57{fill:#5F6194;}
	.st58{fill:url(#SVGID_10_);}
	.st59{fill:url(#SVGID_11_);}
	.st60{fill:url(#SVGID_12_);}
	.st61{fill:url(#SVGID_13_);}
	.st62{fill:#070102;}
	.st63{fill:#100805;}
	.st64{fill:#FDA465;}
	.st65{fill:#2A50A1;}
	.st66{fill:#B76C39;}
	.st67{fill:#130602;}
	.st68{fill:url(#SVGID_14_);}
	.st69{fill:url(#SVGID_15_);}
	.st70{fill:url(#SVGID_16_);}
	.st71{fill:url(#SVGID_17_);}
	.st72{fill:url(#SVGID_18_);}
	.st73{fill:url(#SVGID_19_);}
	.st74{fill:#B4BDED;}
	.st75{fill:#100D08;}
	.st76{fill:#F6C85F;}
	.st77{fill:#FECF00;}
	.st78{fill:#2D59E2;}
	.st79{fill:#121F3A;}
	.st80{fill:#BBD0F5;}
	.st81{fill:#020202;}
	.st82{fill:#E2CFB7;}
	.st83{fill:#080805;}
	.st84{fill:#A87D7C;}
	.st85{fill:#182052;}
	.st86{fill:#EAEAEA;}
	.st87{fill:#DDDDDD;}
	.st88{fill:#3D4574;}
	.st89{fill:#ABC5F0;}
	.st90{fill:url(#SVGID_20_);}
	.st91{fill:#4159A8;}
	.st92{fill:#E0D0BD;}
	.st93{fill:#3D53AA;}
	.st94{fill:#0A0000;}
	.st95{fill:#BF6D36;}
	.st96{fill:#385DAE;}
	.st97{fill:#E0DCDC;}
	.st98{fill:#857E78;}
	.st99{fill:#0E213C;}
	.st100{fill:url(#SVGID_21_);}
	.st101{fill:#55608E;}
	.st102{opacity:0.3;fill:#F4F2F2;}
	.st103{opacity:0.3;}
	.st104{fill:#213987;}
	.st105{enable-background:new    ;}
</style>
<g id="Delivery_Man_1_">
	<g id="Delivery_Man">
		<g>
			<path class="st3" d="M115.7887421,58.2889023c-1.0825195-1.0909271-1.1609726-2.9277573-0.4355774-4.2826653
				s2.1079712-2.2616882,3.5690308-2.7384071c1.4610672-0.4767227,3.0146637-0.5736694,4.5486984-0.6670189
				c5.0185623-0.305378,6.9521713-0.5890579,8.7462234,0.1835251c1.6137085,0.6949196,2.759079,2.2114296,3.3955994,3.8490524
				c0.6365204,1.637619,0.828476,3.4085693,1.0147705,5.1556396c-2.7119751,0.980629-5.1657867,2.5488052-7.7493744,3.8300209
				c-5.6926727,2.8230209-9.2036819,2.6526184-13.8130112,0.1807098"/>
			<path class="st3" d="M94.3769302,141.02565c0,0,13.8928452,1.3098907,26.1107178-3.3924255
				c12.2178726-4.7023315,20.8467484-79.6444397,20.8467484-79.6444397
				c1.0608368-2.9274902-32.0772781-3.6399422-42.9840012,1.301136
				C88.4755707,63.7634773,94.3769302,141.02565,94.3769302,141.02565z"/>
			<path class="st8" d="M71.1389771,68.0466614l27.2113953-8.7567787l11.7764511,59.2222328
				c1.0101776,5.08004,0.2489319,10.3934784-2.3444977,14.8769379c-2.382782,4.1193085-6.462616,7.8609772-13.4053955,7.6365967
				c-15.1478882-0.4895325-18.5244598-13.3535538-21.669014-25.3066254
				c-2.0364914-7.7411041-6.1309662-24.1508255-8.7636833-34.7543869
				C62.5715828,75.4361191,65.7164612,69.7916565,71.1389771,68.0466614z"/>
			
				<ellipse transform="matrix(0.9880676 -0.1540206 0.1540206 0.9880676 -12.4242096 13.907917)" class="st20" cx="83.5482254" cy="87.138588" rx="11.3423948" ry="14.5621071"/>
			
				<ellipse transform="matrix(0.9880676 -0.1540206 0.1540206 0.9880676 -17.3998985 15.4639177)" class="st20" cx="91.1026611" cy="120.0291977" rx="9.0174875" ry="11.577239"/>
			
				<ellipse transform="matrix(0.9880676 -0.1540206 0.1540206 0.9880676 -17.3998985 15.4639177)" class="st8" cx="91.1026611" cy="120.0291977" rx="7.6061606" ry="9.7652855"/>
			<path class="st7" d="M160.0272675,62.4319839l-6.1546631,4.205925l-9.3222351-1.5035858l-5.9782715-5.5051193l1.563736-2.0889664
				c0.1694031-1.6902428-0.6125183,6.1118774,1.651947-16.4832573l15.86586,9.8674812
				c0.0133362,0.1018143,0.8373108,6.3953285,0.7858582,6.0023994L160.0272675,62.4319839z"/>
			<path class="st9" d="M158.3713226,56.4176369c-3.9775085,0.1484032-7.850708,0.4410934-11.1025085-1.8685188
				c-2.3856659-1.691925-4.635025-3.6366005-6.2308197-6.0022049l0.7497864-7.489933l15.86586,9.8674812L158.3713226,56.4176369z"/>
			<path class="st15" d="M162.5917053,34.4004326c0,0,4.5822754,2.2388573,5.6753387,1.51017
				s0.3061523-4.1255875-6.8186798-5.572546c0,0,0.4752197-6.3298206-6.2470398-7.9859734
				c-7.2189941-1.7785282-14.2868805,3.6172886-14.6963654,11.0408535c-0.0545959,0.9898033-0.039444,2.0649376,0.0606079,3.2324409
				l5.0121918,2.2389679l11.0449982-4.449604L162.5917053,34.4004326z"/>
			<path class="st7" d="M163.1722107,260.6558533c4.5661774,5.6774597,17.4312286,7.3761292,24.3637848,8.1298828
				c6.592514,0.7167664,23.8964233,1.4882507,28.0206757-3.6707153c0.2125092,0.2331848,0.3884125,0.4780273,0.5259705,0.7639465
				c0.5637512,1.1721191,0.6122894,3.8118286,0.0866089,4.9914551c-0.4285583,0.9610901-1.6360321,1.4640198-2.5611877,1.8242188
				c-11.2637024,4.3878479-37.4900818,1.1178284-46.5640717-2.9762573c-1.8587036-0.838562-3.5558929-1.9441223-4.2628784-3.9682922
				C162.2473602,264.2219543,162.4796295,262.1066895,163.1722107,260.6558533z"/>
			<path class="st3" d="M215.5557098,265.1142578c-4.1043701,5.1555176-21.4128418,4.3905334-28.0188141,3.672821
				c-6.9325562-0.7537537-19.7991791-2.4539185-24.3661194-8.1313171
				c-0.2806549-3.7168579,1.1507874-7.2573395,2.3376007-10.7014923l0.3007202-0.6777954
				c0.2726288-1.5274658-1.9681702-12.9354706-2.3410797-14.8478394l0.0762024-0.1163025
				c0.5212097-0.2566681,5.8900299,0.0199738,6.8643188,0.0841827c0.3127594,0.0238953,0.5814209,0.0520782,0.8901672-0.0121307
				c2.8748627-0.2966003,5.7336426-0.2605896,8.6125336-0.6815033c1.9807434-0.2887878,4.7112274-1.174881,6.50354-1.2831421
				l0.1442871,0.3569031c0.148407,1.6960449,1.470993,15.4253998,2.208786,16.4397278
				c0.6174927-0.0321045,0.8580017,0.0601044,1.311142,0.4851532c4.6295929,4.3603821,8.4566345,7.4254608,14.9035034,10.0440521
				C208.6432343,261.2331238,212.5646057,262.3958435,215.5557098,265.1142578z"/>
			<path class="st19" d="M197.6209564,255.8922577c-1.8644562,1.2870636-5.6253815,2.6784515-7.5861206,2.5541229
				c-0.4170074-0.0279846-0.5612946-0.0841675-0.8219299-0.4048462c0.1002502-0.2566833,0.136322-0.2486572,0.3929291-0.3408508
				c0.8603363-0.3139954,4.974411-0.7842407,7.1610718-2.3816681
				C196.9019318,255.4255676,197.3831482,255.7413177,197.6209564,255.8922577z"/>
			<path class="st19" d="M202.2640076,258.5225525c-1.7201233,1.0464478-3.809082,1.8765564-5.7256622,2.3456421
				c-0.7457275,0.1844177-1.8925018,0.4330444-2.5660858,0.0279846c0.8700409-0.8861084,3.4121399-1.2709961,4.6270447-1.743988
				c0.8740692-0.3449707,1.7281036-0.7700195,2.5741119-1.1788025
				C201.5342865,258.1656494,201.8951569,258.3502808,202.2640076,258.5225525z"/>
			<path class="st7" d="M171.2975769,234.3861084c2.875885-0.2979126,5.7337952-0.2610474,8.6123657-0.6827087
				c1.9833832-0.2904053,4.7106323-1.1739197,6.5037079-1.283905l0.1471558,0.3572388
				c0.1447449,1.6974792,1.4703064,15.4246674,2.2060547,16.4403229c-1.230545,1.55513-8.2239685,5.0154266-10.2993622,5.8249054
				c-3.0546722,1.1921997-6.8222961,1.6512451-9.3882599-0.3647461c-1.8413391-1.4469147-2.1413422-3.5271149-3.2687836-5.4004974
				c0.2703247-1.5287628-1.9696045-12.9338989-2.3421326-14.8498535l0.076416-0.1159973
				c0.5190735-0.2535248,5.8908234,0.0197906,6.8633423,0.0845337
				C170.7197723,234.4217682,170.9891968,234.4502411,171.2975769,234.3861084z"/>
			<path class="st7" d="M95.368103,252.3855286c0.0761261-0.3176727,0.2121811-0.4678192,0.4252701-0.7102814
				c0.1876068,0.7738037,0.3536377,1.5964661,0.7153702,2.3094635c2.7378769,5.396637,13.7482605,11.3928833,19.2821426,13.5911865
				c6.3964157,2.5411377,16.6136398,4.9983521,23.2728958,3.4147644c1.3860931-0.3293762,2.9268188-1.0036926,3.6844635-2.2812805
				c0.1642303-0.2766418,0.2724152-0.5823059,0.3764191-0.8853149c0.8166656,1.3902893,1.1478271,4.6180115,0.734848,6.1890259
				c-1.7340851,6.5952148-16.6348114,3.4437561-23.2375336,1.4475403
				c-6.6109848-1.9992981-23.2725906-9.4572144-26.46315-15.5952759
				C93.1338654,257.8933411,94.7264481,254.3614349,95.368103,252.3855286z"/>
			<path class="st3" d="M143.1257324,267.8248901c-0.1042633,0.3007202-0.2125244,0.6094666-0.3768768,0.8861084
				c-0.7578125,1.275116-2.2974701,1.9486084-3.6847687,2.2814331c-6.6599274,1.5838318-16.8762817-0.874176-23.2715149-3.4161682
				c-5.5688019-2.2146606-16.5434036-8.1922607-19.2820206-13.5923767c-0.3648376-0.713623-0.5292435-1.5356903-0.7177277-2.3096161
				c-0.0440521-0.4851379-0.0801773-0.978302-0.0280457-1.4634399c0.2606277-2.3215637,1.9646912-7.0206604,3.2597733-9.0215149
				c0.3167725-0.4810333,0.7337799-0.8299103,1.1747742-1.1868134l0.1323471-0.0761719
				c0.9182053-1.3551788,2.5621185-9.4024963,2.9710999-11.4472198c0.8700943,0.5892944,3.2517471,1.9366608,3.7529449,2.7225189
				c0.2686081,0.136261,0.4530792,0.22435,0.7537994,0.2805481c2.1655121,0.4119263,2.0435867,1.1772461,8.3078003,2.6623993
				c1.3753052,0.3247986,9.242012,1.4515076,9.538765,1.6237946l0.1042023,0.2807465
				c-0.1042023,1.940567-0.4369736,3.7609253-0.9141388,5.6374664c-0.2353287,0.9109802-0.7685623,1.8759003-0.4771652,2.3135376
				c3.5219421,3.1730652,1.3660583,5.9117889,9.1257706,13.3478394c1.8123322,1.7120972,3.7208862,3.315918,5.4851074,5.0800781
				C139.8379059,263.2820435,142.9802704,266.8572388,143.1257324,267.8248901z"/>
			<path class="st19" d="M133.2060699,257.0711365c-2.1651306,1.3352051-6.0143433,2.5059814-8.0952835,2.6986084
				c-0.4330597,0.0399475-0.617485,0.0520935-0.9582901-0.212616l0.0881958-0.1763916
				c1.4033508-0.7537537,3.2477417-0.8099365,4.7874451-1.275116c1.2830353-0.3888245,2.4378052-1.030365,3.6526642-1.5476379
				C132.8532257,256.7304688,133.0296783,256.902771,133.2060699,257.0711365z"/>
			<path class="st19" d="M130.6680298,254.4008942c-0.8059235,0.4369812-1.6840363,0.7698059-2.5621033,1.0746307
				c-1.1427689,0.3968506-4.9558182,1.9965515-6.0023117,1.5836792l-0.0240784-0.1163025
				c0.5496368-0.9332275,2.9792175-0.8832397,8.0391922-3.2115784
				C130.2951202,253.9558868,130.4795532,254.1802521,130.6680298,254.4008942z"/>
			<path class="st19" d="M129.2246094,252.524353c-1.8703461,1.5413818-8.4311523,3.2821045-10.805809,2.6263733
				l-0.0801697-0.2084961c0.6455383-0.6335449,5.8579636-1.126709,7.2653275-1.5678101
				c1.1908264-0.3688507,2.2092743-0.8661194,3.2116547-1.4755859
				C128.9439087,252.1114502,129.0842285,252.3199615,129.2246094,252.524353z"/>
			<path class="st7" d="M108.8132629,217.5288696c3.0053101-1.9276123,7.089386-1.7375641,10.1872635,0.0374603
				c3.0978775,1.7750397,5.2460403,4.9411011,6.2910919,8.3551178c1.5751266,5.1457062,0.8558426,10.6561279-0.4466171,15.7667389
				c-0.2352829,0.9232178-0.7688599,1.874588-0.4744263,2.3130493c-0.9370728,2.5019684-5.619339,4.2513275-8.1649094,5.0357971
				c-3.5271301,1.0869904-7.7090836,1.6360321-11.1010361-0.181015c-2.5096588-1.3447418-4.3482895-3.677887-4.7148285-6.5339813
				c-0.1075821-0.8371124,0.1488037-1.4634399-0.1885071-2.3208466c0,0,0.1301498-0.0739899,0.1302795-0.0743256
				c0.8402939-2.2596283,1.5163498-4.7271118,1.9902573-6.8253326
				C103.5173187,227.8085327,103.7157745,220.7983856,108.8132629,217.5288696z"/>
			<path class="st3" d="M212.098938,44.10495c0,0-1.738327-0.1331673-2.4967651,2.654644
				c-0.7993317,2.9380913-9.024292,34.0871315-9.024292,34.0871315s-0.5240936,2.1352234,1.7689667,1.9922562L212.098938,44.10495z"
				/>
			<path class="st15" d="M211.7225952,44.4401665L201.899826,82.269722
				c-0.0814667,0.3137741,0.1821136,0.6096115,0.5031738,0.5647278l22.9467163-3.2076492
				c0.393631-0.0550232,0.7184906-0.3356476,0.8301544-0.7171097l10.1678314-34.7374306
				c0.1366272-0.4668159-0.2238617-0.9304314-0.7099457-0.9130363l-23.4912262,0.8407326
				C211.9455414,44.107151,211.7731476,44.2455025,211.7225952,44.4401665z"/>
			<path class="st23" d="M212.7796936,57.5036011h-0.0000153c-1.1220093,0-1.8101501-0.8674698-1.5370026-1.9375496
				l1.9578705-7.6703072c0.2731476-1.0700798,1.404129-1.9375496,2.5261383-1.9375496l0,0
				c1.1220093,0,1.8101501,0.8674698,1.5370178,1.9375496l-1.9578857,7.6703072
				C215.0326843,56.6361313,213.9016876,57.5036011,212.7796936,57.5036011z"/>
			<path class="st7" d="M227.6436157,87.5725555c-0.7257538,1.1308212-2.4217834,4.0017319-3.5083618,4.5348358
				c-4.6190186,1.3531113-12.2746735,1.1360016-13.2797241-3.6405182c0.2646942-2.4499817,2.4859619-4.318306,4.0817566-6.0303955
				l-1.7240753-1.6600189c-0.7456665-0.9330978-2.983551-3.3932114-2.3616943-4.835556
				c0.2606812-0.6014328,1.2149048-0.9221191,1.8163452-0.9461975c0.714447-0.0238342,1.428772,0.2698059,1.9125671,0.789772
				c-0.4917603-0.4917679-0.8915558-1.2420883-0.9702759-2.0889664c-0.1564331-1.6758728,1.6398926-1.5717163,2.7064514-1.0824661
				c1.166748,0.5372238,2.0809326,1.4714813,3.1996155,2.0848541l0.1603546,0.0883026
				c-1.5969849-4.9590454-3.4233856-7.4507141-1.4795074-8.9414444c2.5300598-1.9405632,4.1098022,2.4217911,5.5292053,3.7209854
				l-0.388916-2.2132874c-0.1564331-0.3206863-0.252655-0.7177277-0.3569183-1.0624924
				c-0.4089355-1.3271942-0.3728485-2.5743065,0.2766876-3.8292542c0.3087463-0.5934067,0.8219299-1.1145706,1.4715271-1.2668877
				c2.5181427-0.5891914,4.4714508,5.8504219,5.2565308,8.2836266
				C231.7092743,77.3722458,232.1222687,80.5479889,227.6436157,87.5725555z"/>
			<path class="st9" d="M223.3374786,67.3525848c0.8523254,0.359642,3.49086,4.9027328,3.8873596,5.9423752
				c0.0710297,0.1855164,0.0887146,0.2694321,0.1462555,0.472023l-0.0928955,0.1471558
				c-1.4616241-0.7594376-2.6319427-2.9948654-3.5523071-4.35009L223.3374786,67.3525848z"/>
			<path class="st9" d="M221.3004608,82.6649475c-2.105072-0.6388016-7.1054077-5.2505875-7.9269104-7.5901718
				c0.4611053,0.1162949,0.8860931,0.3649368,1.2068787,0.7097015c-0.0601044-0.0601044-0.1162872-0.124321-0.1683655-0.1883392
				C216.4288788,77.3323135,220.7391663,81.7628021,221.3004608,82.6649475z"/>
			<path class="st9" d="M224.6003265,77.1559143l-0.2085114,0.2124176
				c-1.6839905,0.0080261-3.5003357-1.5076981-4.7152405-2.5821304c-0.7377014-2.2855301-1.7681885-4.5148697-2.3696289-6.8323135
				l0.2325439-0.0360184c0.725708,1.0544662,1.0906372,2.3094101,1.8724823,3.339798
				C220.9917145,73.3386078,222.9764252,75.1110001,224.6003265,77.1559143z"/>
			<path class="st11" d="M188.6074371,237.2489014c0,0-12.2050781,4.330246-27.8704681,1.9446716
				c-0.6772614-2.6445313,2.1308594,8.3204956-18.1873627-71.0174103l3.2397003-37.8983917
				c-0.0176086,0.1947174,1.0839996-12.7012863,1.4754944-17.2851715l36.6394348,5.6854401
				C185.5816956,144.478241,189.9480896,211.4463196,188.6074371,237.2489014z"/>
			<g>
				<path class="st20" d="M173.0500793,239.9385986L152.3640442,147.34729
					c-0.0605469-0.2695313,0.109375-0.5366211,0.3789063-0.5966797c0.2675781-0.0615234,0.5366211,0.109375,0.5966797,0.3789063
					l20.6860352,92.5913086c0.0605469,0.2695313-0.109375,0.5366211-0.3789063,0.5966797
					C173.3811188,240.3777161,173.1105957,240.2109375,173.0500793,239.9385986z"/>
			</g>
			<path class="st11" d="M165.1755829,123.2289276c-3.0605469,20.4057617-8.7129669,43.2913208-17.0366211,66.7633209
				c0,0.0039215,0,0.0039215,0,0.0039215c-5.6013947,15.8017426-12.2171783,31.4268951-19.719101,46.8958282
				c0,0-19.3421249,1.3111267-25.8857117-8.6928101c0,0,8.4521408-49.4940033,16.8882751-60.8490143
				c-0.0097809-0.1008453-15.0349808-30.1269989-4.1098022-51.6311493c0.1763992-0.3447647,0.3568573-0.6856155,0.5453415-1.0264664
				c11.9244385-21.4832687,0.6936493,0,0.6936493,0C119.9697723,115.2926407,101.6646118,112.07901,165.1755829,123.2289276z"/>
			<g>
				<path class="st20" d="M109.6111145,234.4488525c-0.2602539-0.0922852-0.3969727-0.3779297-0.3051758-0.6381836
					l20.4975586-58.0170898c0.8012695-2.2670898,1.0703125-4.7260742,0.7783203-7.1123047l-4.1713867-34.0961914
					c-0.0804596-0.6541901,0.9119034-0.7834625,0.9921875-0.1210938l4.1713867,34.0961914
					c0.3110352,2.5380859,0.0249023,5.1547852-0.8276367,7.5664063l-20.4970703,58.0170898
					C110.1593857,234.3977203,109.8800049,234.5416565,109.6111145,234.4488525z"/>
			</g>
			<path class="st3" d="M184.200943,123.0204239c-11.7125549,6.7729721-24.9690094,8.1761093-38.4116364,7.2573471
				c-11.65979-0.7980042-22.7582779-3.8652725-32.3772125-9.9959106c0.5172501-1.5556641,1.1467819-3.079216,1.900528-4.5628357
				c9.6891785,6.4425507,22.2506104,9.7517319,34.0612183,10.1842499
				c23.8457947,0.9114914,34.4270477-7.1982498,34.5303955-7.225235
				C183.9042358,118.6780396,184.0124969,120.2417297,184.200943,123.0204239z"/>
			<path class="st1" d="M158.4375,56.9274483c-2.6178589,4.6116562-11.675415,4.6116562-18.3009796,0.6147461l-3.8266449,21.7624397
				l2.7732849,41.2230225l3.3807526,4.8487473c0,0,20.0165405,2.0093918,31.587265-2.198822l4.947998-4.4990387
				l-0.3895721-31.556694l-6.5537567-15.9562073l-10.7435455-11.5360222L158.4375,56.9274483z"/>
			<path class="st15" d="M140.1365204,57.5422363c0,0,13.5852661,20.7579651,2.7621002,67.8742828
				c0,0-16.6328888,0.6220322-25.378746-9.0551376c-5.8521729-6.4753418,2.4760361-50.5114822,2.4760361-50.5114822
				S128.2971039,56.1782532,140.1365204,57.5422363z"/>
			<path class="st1" d="M173.4527435,63.4856606c0,0,10.8989868,9.4793205,18.4271698,18.7546806
				c7.5281677,9.2753601,12.0319977,8.7910614,19.1117096,5.509407c3.1517639,3.1917877,8.7544098,4.2842636,14.0090332,3.6260605
				c0,0-3.1346893,7.9908676-14.3636322,17.5891495s-21.2947235,4.4730911-23.0447083,3.4142075
				s-6.0833282-2.9643631-6.0833282-2.9643631L173.4527435,63.4856606z"/>
			<path class="st18" d="M120.6693726,105.6391754c17.1145477-12.7124252,14.5423431-27.6130295,12.8625488-35.0818405
				c-1.7808838-7.9182358-8.0381165-9.2878609-8.0381165-9.2878609s2.1117783-6.2458344,8.7562408-3.5357361
				c6.644455,2.7100983,10.464035,19.5545998,6.9880219,31.3556633
				c-3.4759979,11.8010635-11.8971558,18.0176773-19.9684372,22.7211609S120.6693726,105.6391754,120.6693726,105.6391754z"/>
			<path class="st18" d="M163.7935486,58.8390656c0,0,5.9150238,1.2989006,9.6591949,4.646595
				c3.7441864,3.3476906,9.8415527,15.435482,10.1839294,23.7455177c0.342392,8.3100281-1.0619812,12.6401749-1.0619812,12.6401749
				l-9.7135773-25.5000153L163.7935486,58.8390656z"/>
			<path class="st15" d="M158.4374847,56.9274521c0,0,18.6477814,41.5594406,15.6136932,66.2501297
				c0,0,7.8336639-2.3285904,9.8531036-4.4990387c0,0,6.0706787-13.0952911-3.4785614-37.094574
				c0,0-6.6207886-13.3856812-16.6321716-22.7449036L158.4374847,56.9274521z"/>
			<path class="st7" d="M130.1913605,129.4924774l9.7064514,5.7148132l-9.7064514,11.0900116
				c0,0-2.7289658,6.7472992-8.92173-7.8819733C115.0768585,123.7860489,130.1913605,129.4924774,130.1913605,129.4924774z"/>
			<path class="st1" d="M130.1913605,129.4924774l-8.92173,8.9228516c0,0-18.7734375-18.5205765-22.3295517-27.8313675
				s-0.8761978-17.1888199,1.7309494-22.6150436c3.0552368-6.3587189,19.3248901-24.4832573,22.6190491-25.1404762
				c0,0,6.5589676-1.9873505,8.8511124,15.0481224c1.7136841,12.7363434-6.5529327,19.1095047-10.0881042,24.4703369
				C122.0530853,102.3469009,118.2389908,104.5101929,130.1913605,129.4924774z"/>
			<path class="st3" d="M138.9719086,129.020752c-2.0032959,9.3662109-8.7061615,17.6026306-17.470047,21.4670258
				c5.7028732-0.6698761,10.8320923-2.85672,14.5593262-7.2247009c3.7272186-4.3679962,5.7312927-10.1681213,5.4956512-15.905365"/>
			<path class="st27" d="M148.1389465,189.9961548c6.1973114-20.1407166,12.055954-40.2980347,15.9660187-60.2236328
				C161.5914459,148.4458923,154.218338,173.7481995,148.1389465,189.9961548z"/>
			<path class="st7" d="M162.5917053,34.4004326c0,0-14.3849792-5.5447083-19.9906158,2.612751
				c-1.8058014-2.7098961-3.8387909-2.3619537-4.4930878-0.6854248c-0.43367,1.1112251-0.3210297,3.6178474,0.6953125,5.0772324
				c0.6692047,0.9609146,1.8506775,1.6253395,3.0053558,1.4305801c0,0-0.5209351,11.0193787,10.5213165,11.3442535
				c9.6428375,0.283699,11.1955109-7.7652855,11.148468-9.9452705
				C163.431427,42.0545692,162.5917053,34.4004326,162.5917053,34.4004326z"/>
			<path class="st9" d="M141.0520935,39.9693298c0.0606537-0.779747,0.1213074-1.559494,0.1819611-2.339241
				c-0.6747589-0.0824547-1.4763794,0.4686623-1.4942169,1.148201
				C139.7219849,39.4578323,140.3739319,40.0162506,141.0520935,39.9693298z"/>
			<path class="st3" d="M152.9261932,35.8970299c0.2605133-0.0024338,0.5292053,0.004631,0.7677307,0.1094322
				c0.5628204,0.2472954,0.602951,0.8906975,0.0312958,1.1837578c-0.3067169,0.1572418-0.2492371,0.1193275-4.3970337,0.5595551
				c-0.3911896,0.0415192-1.0759125,0.0440254-1.1125946-0.5054016c-0.0352325-0.5276947,0.6606445-0.6662025,1.0381317-0.782753
				C150.4394531,36.0955048,151.6858521,35.9086075,152.9261932,35.8970299z"/>
			<path class="st3" d="M158.289444,36.0811958c-0.2604675-0.006073-0.5292206-0.0027657-0.7691803,0.09869
				c-0.5662384,0.239399-0.6153564,0.8821793-0.0478668,1.1832008c0.3045044,0.1615181,0.2475586,0.1228027,4.3887939,0.6209869
				c0.390564,0.0469856,1.0751801,0.0590668,1.1195526-0.4897957c0.0426025-0.5271492-0.6512756-0.6753731-1.0270844-0.7971916
				C160.7731628,36.3144264,159.5294952,36.1101151,158.289444,36.0811958z"/>
			<ellipse class="st3" cx="160.0391541" cy="39.7461128" rx="0.803434" ry="1.311769"/>
			<ellipse class="st3" cx="152.0057526" cy="39.7461128" rx="0.803434" ry="1.311769"/>
			<path class="st9" d="M158.613266,44.3208504c0.6352081,1.294136,0.3066254,1.9938087-1.2293854,1.9727478
				c-1.8053741-0.0247536-2.3507233,0.0548592-2.537674-0.3610153c-0.1521912-0.3385315,0.1384735-0.8079834,0.8422546-0.7838936
				c0.4272461,0.0146255,0.8394928,0.1764755,1.2668304,0.1882286s0.9195251-0.2009964,1.0010986-0.620636
				c0.0631866-0.3249359-0.1394958-0.6345406-0.3159485-0.9146118c-0.189682-0.301075-1.5271912-2.6666298-0.6741791-2.6883392
				C157.3210907,41.1043015,158.4201965,43.9274864,158.613266,44.3208504z"/>
			<path class="st22" d="M157.0695953,48.430027c-2.3278351,0.2221527-4.723053-0.3311768-6.7175751-1.5518532
				c0.0951691,1.5506744,1.2389984,2.9671783,2.7397919,3.3687172
				C154.5926208,50.6484299,156.2128143,49.7260094,157.0695953,48.430027z"/>
			
				<ellipse transform="matrix(0.3530779 -0.9355939 0.9355939 0.3530779 92.675209 232.987854)" class="st22" cx="214.8138733" cy="49.479393" rx="2.1919625" ry="1.2213792"/>
			
				<ellipse transform="matrix(0.2792376 -0.9602221 0.9602221 0.2792376 101.950058 244.0583496)" class="st20" cx="213.5460815" cy="54.1186638" rx="1.1549723" ry="0.6551535"/>
		</g>
	</g>
</g>
</svg>
