<?xml version="1.0" encoding="utf-8"?>
<!-- Generator: Adobe Illustrator 22.0.1, SVG Export Plug-In . SVG Version: 6.00 Build 0)  -->
<svg version="1.1" id="Layer_1" xmlns="http://www.w3.org/2000/svg" xmlns:xlink="http://www.w3.org/1999/xlink" x="0px" y="0px"
	 viewBox="0 0 300 300" style="enable-background:new 0 0 300 300;" xml:space="preserve">
<style type="text/css">
	.st0{fill:#EDC1A4;}
	.st1{fill:#E2E0E0;}
	.st2{fill:#D39E81;}
	.st3{fill:#502E26;}
	.st4{fill:#CCCACA;}
	.st5{fill:#426800;}
	.st6{fill:#538705;}
	.st7{fill:#D47E44;}
	.st8{fill:#73341D;}
	.st9{fill:#BC672E;}
	.st10{fill:#96311D;}
	.st11{fill:#B83E21;}
	.st12{fill:#DE8D82;}
	.st13{fill:#EFBAB4;}
	.st14{fill:#FDD5D0;}
	.st15{fill:#6883CE;}
	.st16{fill:#3D4885;}
	.st17{fill:#3859AE;}
	.st18{fill:#864424;}
	.st19{fill:#FEFEFE;}
	.st20{fill:#FFFFFF;}
	.st21{fill:#A55925;}
	.st22{fill:#F4F2F2;}
	.st23{fill:#3C3E68;}
	.st24{fill:#E8997C;}
	.st25{fill:#F5C46B;}
	.st26{fill:#F7EBDA;}
	.st27{fill:#0E0C0D;}
	.st28{fill:#657C3A;}
	.st29{fill:#576C37;}
	.st30{fill:#7C995D;}
	.st31{fill:#36518C;}
	.st32{fill:#96B7E3;}
	.st33{fill:#A3B3DF;}
	.st34{fill:url(#SVGID_1_);}
	.st35{fill:url(#SVGID_2_);}
	.st36{fill:url(#SVGID_3_);}
	.st37{fill:url(#SVGID_4_);}
	.st38{fill:url(#SVGID_5_);}
	.st39{fill:#266AB7;}
	.st40{fill:#060E0D;}
	.st41{fill:#E0D4C6;}
	.st42{fill:#787E42;}
	.st43{fill:#D3D1D1;}
	.st44{fill:url(#SVGID_6_);}
	.st45{fill:url(#SVGID_7_);}
	.st46{fill:url(#SVGID_8_);}
	.st47{fill:#020508;}
	.st48{fill:#BAB6B6;}
	.st49{fill:#0F0B07;}
	.st50{fill:#2F3A68;}
	.st51{fill:#203257;}
	.st52{opacity:0.5;fill:#FFFFFF;}
	.st53{opacity:0.2;fill:#0E0C0D;}
	.st54{fill:#DD9F9B;}
	.st55{fill:#3E4D9B;}
	.st56{fill:url(#SVGID_9_);}
	.st57{fill:#5F6194;}
	.st58{fill:url(#SVGID_10_);}
	.st59{fill:url(#SVGID_11_);}
	.st60{fill:url(#SVGID_12_);}
	.st61{fill:url(#SVGID_13_);}
	.st62{fill:#070102;}
	.st63{fill:#100805;}
	.st64{fill:#FDA465;}
	.st65{fill:#2A50A1;}
	.st66{fill:#B76C39;}
	.st67{fill:#130602;}
	.st68{fill:url(#SVGID_14_);}
	.st69{fill:url(#SVGID_15_);}
	.st70{fill:url(#SVGID_16_);}
	.st71{fill:url(#SVGID_17_);}
	.st72{fill:url(#SVGID_18_);}
	.st73{fill:url(#SVGID_19_);}
	.st74{fill:#B4BDED;}
	.st75{fill:#100D08;}
	.st76{fill:#F6C85F;}
	.st77{fill:#FECF00;}
	.st78{fill:#2D59E2;}
	.st79{fill:#121F3A;}
	.st80{fill:#BBD0F5;}
	.st81{fill:#020202;}
	.st82{fill:#E2CFB7;}
	.st83{fill:#080805;}
	.st84{fill:#A87D7C;}
	.st85{fill:#182052;}
	.st86{fill:#EAEAEA;}
	.st87{fill:#DDDDDD;}
	.st88{fill:#3D4574;}
	.st89{fill:#ABC5F0;}
	.st90{fill:url(#SVGID_20_);}
	.st91{fill:#4159A8;}
	.st92{fill:#E0D0BD;}
	.st93{fill:#3D53AA;}
	.st94{fill:#0A0000;}
	.st95{fill:#BF6D36;}
	.st96{fill:#385DAE;}
	.st97{fill:#E0DCDC;}
	.st98{fill:#857E78;}
	.st99{fill:#0E213C;}
	.st100{fill:url(#SVGID_21_);}
	.st101{fill:#55608E;}
	.st102{opacity:0.3;fill:#F4F2F2;}
	.st103{opacity:0.3;}
	.st104{fill:#213987;}
	.st105{enable-background:new    ;}
</style>
<g id="Delivery_Guy_1_">
	<g id="Delivery_Guy">
		<g>
			<polygon class="st7" points="191.5839539,245.4631042 183.8310242,253.070694 168.586853,253.070694 163.1021729,246.4230042 
				164.3003387,235.860733 190.1881256,235.3663025 			"/>
			<polygon class="st7" points="112.1109238,244.2596588 113.710968,231.381546 135.669281,234.8658752 137.0482788,249.1524353 
				130.7037964,252.1054382 			"/>
			<path class="st7" d="M140.5295868,74.8110199c0,0,7.7384033,0.1852875,9.2488708-0.8856888
				s8.7726593-4.7217026,8.7726593-4.7217026l4.255661,3.3657913l6.0134583-0.157814l3.105423,3.3476257l-3.3744202,7.5647888
				l-12.3236084,3.2679825l-9.1161499-1.6339874l-4.6344147-4.1152496L140.5295868,74.8110199z"/>
			<path class="st15" d="M164.6086121,54.8722c0,0,1.1279907-11.2536049-7.3544922-13.6112061
				c-8.4824677-2.3576012-11.7119598,3.7428551-12.2089081,6.0500793s0.3118286,7.705349,0.3118286,7.705349l7.1848907,1.328022
				L164.6086121,54.8722z"/>
			<path class="st7" d="M164.0595703,56.0122643c0.5190125-1.385582,2.3199615-2.1193123,3.6595001-1.4909172
				c1.7706146,0.8306313,2.6494446,3.6344185,2.0126495,5.6524391c-0.3795166,1.2026901-1.3060455,2.2470016-2.4987335,2.6568718
				c-1.192688,0.409874-2.6255188,0.1223984-3.4897156-0.7961082"/>
			<path class="st7" d="M142.477066,56.3700218c-0.5957184-1.2772064-2.4616852-1.6845818-3.9757996-0.4337196
				c-1.384613,1.1438904-1.7996216,3.3053246-0.9371033,4.8806763c0.8625183,1.5753479,2.9070435,2.3901672,4.6166992,1.8399162"/>
			<path class="st7" d="M245.5172882,47.2946815c-1.7448425,9.8582382-1.9832611,18.7571526-1.9483185,17.9196587
				c0.0348511-0.8374939,1.9716187,30.871994-13.1852875,35.9730759
				c-15.1569061,5.0948257-31.3026123,2.9603348-31.3026123,2.9603348l-4.3330841-7.4797974l4.3330841-24.8292007
				c0.1060486-0.0009079,6.9013977-0.4623032,12.7781219,0c0,0,3.2512207-11.4926186,6.4384613-16.1571999
				c-5.9451904-5.0216179-9.4997559-12.0540085-9.5908508-13.8773041c-0.1054993-1.8340569,1.3542175-2.9855309,3.2162781-2.1810646
				c1.7621613,0.7613068,3.5968018,3.3745003,9.2070465,5.0948296c-1.8960724-4.6412926-2.9371948-9.5850372-3.3559418-14.5810375
				c-0.3579102-4.3499165,2.2733002-5.6108532,4.2400208-3.0245228c2.1868744,2.8674755,3.2803192,6.6187363,4.3330078,10.0678253
				c0,0-1.2562408-14.9593143,2.687149-15.1742973c3.9432983-0.2152672,4.6877899,15.9072838,4.6877899,15.9072838
				s0.0814362-15.191906,3.6292877-14.5231037c3.5478516,0.6747665,3.3501129,16.8609333,3.3501129,16.8609333
				s1.5121918-12.6268864,4.6296539-11.4636517C248.454483,29.9506779,247.262146,37.4361572,245.5172882,47.2946815z"/>
			<path class="st3" d="M213.377121,89.804985c0,0-4.3097229-6.7990723-5.2345428-18.1522446
				c1.2039795,0.0349274,2.4602966,0.0871811,3.7166138,0.1860123
				C211.8591919,71.8387527,210.8995056,82.4069748,213.377121,89.804985z"/>
			<path class="st3" d="M233.6460114,50.4928665c-3.1206818-3.1440468-7.434433-5.0740089-11.8582458-5.3053551
				C226.7551422,43.4194832,231.7559052,45.398262,233.6460114,50.4928665z"/>
			<path class="st1" d="M199.0810699,71.8394623v32.3082886c-1.2715607,0.517334,4.5981293-1.8707275-12.3942871,5.0425797
				l-4.4261627-12.0628738c0.1513977-2.5432739-0.5535889,9.2994843,1.5064392-25.3060303
				c0.1000214-0.0102692,0.4954834-0.0508804,0.3954468-0.0406113L199.0810699,71.8394623z"/>
			<path class="st4" d="M191.415329,107.2651443l-4.7285461,1.9251862l-4.4261627-12.0628738l1.4424591-24.2592316
				c0.140625-0.3788681,0.5666046-0.327713,0.6401978-0.216423
				C189.8047485,83.5687714,192.1365356,95.0744705,191.415329,107.2651443z"/>
			<path class="st1" d="M174.3529053,71.9603043c0,0,6.6406708-0.5647049,9.4129639-0.1406479
				c2.7722778,0.424057,4.9813538,35.0328522,3.38591,39.2055435c-1.5954285,4.1726913-14.4816895-3.1168976-14.4816895-3.1168976
				l-8.369751-15.9200592l2.5984039-10.0491562L174.3529053,71.9603043z"/>
			<path class="st1" d="M187.582489,110.4813614l-63.640564,22.846077
				c-4.7639084-24.6453094-3.1993484-16.5512924-3.524559-18.233757
				c13.8082352-49.5244064,9.953331-35.6984482,10.916893-39.1543579l9.1953278-1.1283035
				c0,0,10.7599182,9.4279938,21.5489349,5.9788971c0,0,6.6944275-1.5062943,6.7409973-8.3811874l5.1181946,0.0641785
				L187.582489,110.4813614z"/>
			<path class="st4" d="M137.9938202,100.3555984c-2.5068054,10.3177414-7.7704773,19.9553146-15.0813675,27.6557846
				l-2.4950867-12.9177017l3.0418396-10.9109955c2.8848038-2.4079742,5.9964371-4.5484314,9.2825851-6.3804626
				c0.8724365-0.488472,1.7913666-0.9655762,2.7917938-1.02948c1.0003662-0.0638962,2.0995636,0.3839645,2.4950867,1.3029633
				C138.3369446,98.7851181,138.1740723,99.6052856,137.9938202,100.3555984z"/>
			<path class="st11" d="M196.9115906,237.7277069c0,0-12.7548981,7.2935028-36.7116699,4.3504791
				c-0.8982086-9.3329315-8.4669647-87.9773865-9.2302704-95.9085999l38.5089264-10.3586273l1.6343079,9.8641968
				l5.2868805,83.9388733L196.9115906,237.7277069z"/>
			<path class="st10" d="M196.9115906,237.7277069c0,0-12.7548981,7.2935028-36.7116699,4.3504791l-6.740921-70.0382843
				l10.8413391-21.5374298c0,0,0.5758057,72.8475342,13.3073425,78.6869965
				c6.7700958,3.1060333,13.7436829,2.0765533,18.7920837,0.4245605L196.9115906,237.7277069z"/>
			<path class="st11" d="M164.3003387,150.5024719l-19.5540314,74.3657684l-4.2050781,16.0001373
				c-20.7928085,2.4312744-31.8725739-2.2216644-31.8725739-2.2216644
				c-1.0876236-4.4842529,0.378067-40.1898041,3.7863312-63.8907013
				c3.4082718-23.7008972,11.6381683-37.3223267,11.6381683-37.3223267l0.7037277,0.2269135L164.3003387,150.5024719z"/>
			<path class="st10" d="M144.7463074,224.8682404l-4.2050781,16.0001373
				c-20.7928085,2.4312744-31.8725739-2.2216644-31.8725739-2.2216644
				c-1.0876236-4.4842529,0.378067-40.1898041,3.7863312-63.8907013
				c3.4082718-23.7008972,11.6381683-37.3223267,11.6381683-37.3223267l0.7037277,0.2269135
				c-1.2446671,24.6312561-2.4834442,49.2511597-3.7223587,73.8826904
				c-0.2966309,5.8743896-0.1919098,12.7024384,4.408699,16.3667908c2.4718781,1.9657898,5.8510361,2.5590515,8.9684982,2.0529785
				c3.1175232-0.506073,5.9906769-2.0180511,8.5497437-3.867691
				C143.5598602,225.6940765,144.1414795,225.2635498,144.7463074,224.8682404z"/>
			<polygon class="st11" points="191.1153717,145.6743927 122.3873749,146.4542542 143.6812897,102.1546707 180.3082275,99.1033401 
							"/>
			<path class="st10" d="M191.1153717,145.6743927c0.6874695-5.2656708,0.4898071-12.5011597,0.4898071-12.5011597
				c-0.8291931-22.416748-13.3427124-60.6546707-17.2522736-61.2129288
				c-3.0594788-0.4368744-5.5326691,0.4513016-5.5326691,0.4513016s5.4086761,8.2985535,10.5457764,29.1505051
				C184.5030975,122.4140549,191.1153717,145.6743927,191.1153717,145.6743927z"/>
			<path class="st10" d="M149.152832,107.8535919c3.1144104-0.4435959,23.0199432-3.2260361,26.9191742-2.4428787
				c4.2329559,0.8501816,6.6812897,11.4881363,4.0527191,19.0427933c-2.6285553,7.554657-15.814209,11.7974548-25.6645203,5.287323
				c-8.3215637-5.4997787-8.1348724-15.933609-7.8764801-19.039772
				C146.7005463,109.2966766,147.6056519,108.0739594,149.152832,107.8535919z"/>
			<path class="st10" d="M131.3367615,75.9414291c0,0,2.3204651-1.7289658,8.686203-1.2003098
				c6.3657379,0.5286636,6.8508301,26.0601959,5.0761719,34.0059052c0,0-3.9922333,16.9066849-12.1605072,29.3023834
				c-2.1418457,3.250351-4.806778,6.1368408-7.9426956,8.4430084c-2.3980026,1.7634888-4.9693909,3.0781403-5.6629257,1.2826691
				l4.6108246-14.4468231c0,0,9.4859772-14.2234802,11.6508484-22.3231812s3.0705109-14.8918762,3.0705109-14.8918762
				L131.3367615,75.9414291z"/>
			<path class="st7" d="M161.7121735,73.4092331c-5.1125336,3.3220291-13.8928223,2.0576782-17.7917175-2.0296936
				c-2.4311218-2.5533829-3.3210144-6.2756729-3.1464996-9.7946281c0.1161957-2.3722191,0.6735992-4.7533798,1.3493195-7.0083733
				c0.546402-1.807991,0.8648071-4.3601685,2.3438721-5.64748c1.3086395-1.139946,3.4141541-1.7741013,5.0949707-2.006691
				c1.9949799-0.2791634,4.0248108-0.1047935,6.0314331,0.0639c5.9025269,0.4965172,8.2264709,1.8254967,8.9917755,7.4621925
				c0.08284,0.4566269,0.1646423,2.2790871,0.3141022,3.1756058c0.1149597,0.7105484,0.3884735,1.388237,0.5466766,2.2742119
				C166.2429199,64.7488708,166.3301849,70.4023209,161.7121735,73.4092331z"/>
			<path class="st19" d="M161.7935333,57.7754326c0,1.9489403-1.5917206,3.4780579-3.4780579,3.4780579
				c-1.9193573,0-3.4780579-1.5588341-3.4780579-3.4780579c0-2.4477806,2.4666595-4.1067047,4.6529388-3.2747192
				C160.8339233,54.9778214,161.7935333,56.2631721,161.7935333,57.7754326z"/>
			<path class="st19" d="M150.5915833,57.7754326c0,1.9019012-1.5354004,3.4547729-3.4314728,3.4780579h-0.0465851
				c-1.9251862,0-3.4780579-1.5588341-3.4780579-3.4780579c0-1.9251862,1.5528717-3.484024,3.4780579-3.484024
				C149.0388641,54.2914085,150.5915833,55.8480301,150.5915833,57.7754326z"/>
			<path class="st83" d="M150.5915833,57.7754326c0,1.9019012-1.5354004,3.4547729-3.4314728,3.4780579
				c-1.0585938-0.5410042-1.8030701-1.7914238-1.8030701-3.2511482c0-1.9078636,1.2679596-3.4607353,2.8441162-3.5362778
				C149.5912323,54.9196014,150.5915833,56.228241,150.5915833,57.7754326z"/>
			<path class="st83" d="M161.7935333,57.7754326c0,1.7914276-1.3551331,3.2627945-3.094162,3.4547729
				c-2.7080688-1.4299927-2.1462402-6.2437134,0.7909851-6.7294922
				C160.8339233,54.9778214,161.7935333,56.2631721,161.7935333,57.7754326z"/>
			<path class="st3" d="M161.7121735,73.4092331c-5.1125336,3.3220291-13.8928223,2.0576782-17.7917175-2.0296936
				c-3.1371307-3.2949066-3.5988922-8.1636543-2.8208313-12.6095657c0.5641632,1.7099228,1.1283722,3.4198418,1.6925354,5.1240807
				c0.2558746,0.7792778,0.7386627,1.7272453,1.5645142,1.6693077c0.8840637-0.0641785,1.1806946-1.192482,1.7448425-1.8845711
				c0.9596863-1.1865234,2.7685089-1.0644073,4.2749481-0.8374977c2.9836273,0.453537,5.5137177-0.2791634,8.497345,0.1743736
				c0.6398315,0.0931511,2.0182037,2.5650215,2.6522064,2.4369392c1.6589966-0.3317184,2.4339447-4.8518486,3.8212738-6.0311508
				c0.0406799,0.1570473,0.0697174,0.3138123,0.0988159,0.4768219
				C166.2429199,64.7488708,166.3301849,70.4023209,161.7121735,73.4092331z"/>
			<path class="st19" d="M157.8106537,65.6707687c-3.4407654,0.8867798-7.0904083,0.951767-10.5605621,0.1880417
				c0.4626007,1.7980957,1.7058411,3.543396,3.4268951,4.2398682
				C154.4835052,71.6390762,158.9129486,68.7581558,157.8106537,65.6707687z"/>
			<path class="st9" d="M153.8913574,60.5665054c0.0475769,0.1553345,0.0956879,0.3147202,0.0862732,0.4769058
				c-0.0393219,0.6782875-0.7956543,0.8720818-1.4255829,0.9661713c-1.2347565,0.1844254-1.7116394-0.2800369-1.2838287-1.4773903
				c0.1991272-0.5573235,0.7496948-3.077179,1.4027405-2.9620628
				C153.4902802,57.7145615,153.4681854,60.5665054,153.8913574,60.5665054z"/>
			<path class="st3" d="M164.6086121,54.6461182c-1.4831848-0.4142494-1.3493195-2.921505-4.9553833-6.101017
				c-1.2039795,0.4012833-2.5184479,0.5583305-3.7979736,0.5932617c-3.2746429,0.0788765-9.3746796-0.9456177-12.1383514,2.9254074
				c-0.4368286,0.6146278-0.7311707,1.2937317-1.3726044,1.7218475c0.256073-0.7744484,0.6296387-3.5569382,2.1228485-4.8565598
				c1.3086395-1.139946,3.4141541-1.7741013,5.0949707-2.006691c1.9949799-0.2791634,4.0248108-0.1047935,6.0314331,0.0639
				c5.8204041,0.4896088,8.2210541,1.7855644,8.9917755,7.4621925
				C164.5969696,54.5126419,164.6027985,54.5822182,164.6086121,54.6461182z"/>
			<path class="st16" d="M142.1417389,48.3455124c2.2015228-2.7550659,5.8190765-3.5701447,9.3182983-3.5083961
				c3.0699768,0.0541725,6.1849213,0.7492485,8.7702179,2.405735s4.0359802,3.4679031,4.3783569,7.4032669
				c-3.0028839-6.4079437-8.0818024-6.859024-10.9431305-7.1633072c-1.8309784-0.1947098-4.0243073,0.151783-5.7949371,0.6570396
				c-3.2520142,0.9279785-3.6550751,2.5061684-4.7441406,3.4537392
				C141.932663,52.6322327,140.0339661,50.9832726,142.1417389,48.3455124z"/>
			<path class="st19" d="M144.0213165,267.2001343c0.3013763,0.9848938,0.4384155,2.2038269,0.2064362,3.2156372
				c-1.6690979,7.2841492-21.1863174,9.0319824-32.0452652,6.4657898
				c-6.118988-1.4463806-11.4831467-4.1842651-9.8323059-10.2796631c2.765831,2.5365906,6.1561508,3.9854431,9.6976776,5.1066895
				c4.1446075-2.3881531,12.7293167-2.7751465,17.2681503-1.5679626c1.3273468,0.3528442,2.4534149,0.8968811,3.5615387,1.7164001
				C138.457901,271.2815552,139.5194244,270.0526123,144.0213165,267.2001343z"/>
			<path class="st15" d="M144.0184937,267.1986084c-4.501709,2.8555298-5.5602875,4.0829468-11.1437988,4.6585999
				c-1.1050873-0.8201599-2.2333984-1.3608704-3.559494-1.7156067c-4.536644-1.2098083-13.121315-0.8201599-17.2681808,1.5645447
				c-3.542099-1.1166687-6.9328995-2.565033-9.6955795-5.106781c1.2330246-6.0195007,4.1934357-11.9521027,6.9852219-17.3729553
				c1.0235825-1.698288,1.4482269-3.4138794,2.7742615-4.9667511l0.3432007-0.2095947
				c1.8553238-0.7153778,3.8212662-1.1282959,5.7579498-1.5645142c2.6871414-0.2093048,5.6243362-0.0056763,8.2416153,0.6980591
				c5.7974701,1.5812531,5.9404449,2.3924255,8.497345,3.4431305c0.8027039,0.4768219,1.465683,1.0933685,2.0938721,1.7854614
				C138.0937958,252.0327454,142.3415222,260.1355896,144.0184937,267.1986084z"/>
			<path class="st83" d="M112.4569321,244.0492401c2.9522324-3.1830444,15.0358124-3.7421875,22.4922409,2.5759583
				c-2.5966187-1.0658569-2.656601-1.8451843-8.4963455-3.4431458c-2.6142807-0.7038879-5.5520325-0.9078979-8.2391586-0.6973114
				C116.2780762,242.9238434,114.3120956,243.3343048,112.4569321,244.0492401z"/>
			<path class="st19" d="M222.9420776,259.2562866c0.9230957,0.447052,2.0902405,2.218689,2.4147491,3.186676
				c0.2223053,0.6627808,0.1066742,1.3725586-0.2185211,1.9808044c-2.0408325,3.8181458-15.4491577,5.6906433-19.7844086,6.3788147
				c-12.5359955,1.9901428-25.0139923,2.7468262-37.6825562,1.7343445
				c-1.6442413-0.1315308-5.1968079-0.0725098-6.5127563-1.0038757c-1.0462952-0.7402954-0.7312927-2.8617859-0.6420898-4.6689758
				c15.7133179,2.3795471,38.852478,2.224884,53.9016113-3.3323364
				C217.4721832,262.4039307,220.1261749,260.8508301,222.9420776,259.2562866z"/>
			<path class="st15" d="M222.9447784,259.2591858c-2.8150177,1.5934753-5.4730377,3.146637-8.526535,4.2749329
				c-15.0463562,5.5543518-38.1889191,5.7113953-53.898407,3.3326721c0.2035522-4.292572,0.942215-17.1287537,2.3264618-20.4846954
				l0.2558746,0.0409088c2.8441162,0.7037201,6.2931366,0.2848358,9.1895905,0.238266
				c5.8179474-0.0809937,10.8464508-0.1134644,15.6222229-3.7166138c1.1515961-0.8664703,2.4486542-1.9481964,3.8444824-1.5994568
				c1.3552094,0.3433533,2.0007324,1.8323212,2.6289215,3.0827484c1.9657898,3.8955994,5.9319611,7.3857422,10.2306213,8.1483154
				c3.4315491,0.6108704,6.8979645,1.9484711,10.2189789,3.0361633c1.8379974,0.598938,3.6816864,1.2154846,5.4614716,1.9833984
				C221.0021973,257.892334,222.6714325,258.4100342,222.9447784,259.2591858z"/>
			<path class="st16" d="M196.5742645,247.66745c-2.3846741,0.8783875-4.5773163,2.2975006-6.3396301,4.1295471
				c-0.4536133,0.4711304-0.901474,0.9828949-1.5063782,1.2154846c-0.6107178,0.2385559-1.4307556,0.0814972-1.6925201-0.5174408
				c-0.3256683-0.7386627,0.3664246-1.5122528,1.0061951-2.0066833c2.2741394-1.7448578,4.8099823-3.1523285,7.4853973-4.1701508
				C195.8472443,246.7833862,196.1962128,247.2312469,196.5742645,247.66745z"/>
			<path class="st16" d="M200.4885406,250.9884644c-2.0531158,0.8840637-3.9259186,2.1753845-5.4729614,3.7805176
				c-0.4536743,0.4711304-0.901535,0.9831696-1.5064392,1.2157593c-0.610733,0.2382813-1.4307556,0.0812378-1.6924591-0.5177155
				c-0.3257294-0.7386627,0.3663483-1.5122528,1.0061951-2.0066833c1.8669586-1.4307556,3.9084473-2.634613,6.0545807-3.5825806
				C199.3892822,250.2790527,199.9302216,250.6570435,200.4885406,250.9884644z"/>
			<path class="st16" d="M130.362854,246.9994049c-0.1492004,0.4488831-1.4133759,0.5713348-1.7805786,0.5705109
				c-2.9993973-0.0067902-5.9987946-0.0135651-8.9981995-0.02034c-1.1386566-0.0025787-2.6910629,0.3016205-3.7629623-0.0859222
				c-1.0024185-0.3624268-0.8125839-0.9615021,0.0482635-1.4267883c1.3355331-0.7218475,3.7549744-0.6309509,5.2361221-0.6731262
				c1.4630432-0.0416718,2.9372406,0.0251465,4.3878174,0.224762c0.9857788,0.1356506,3.9766846,0.2801361,4.646347,0.9113159
				C130.3516541,246.6996155,130.4077606,246.8643036,130.362854,246.9994049z"/>
			<path class="st16" d="M130.362854,250.8341827c-0.1492004,0.4488831-1.4133759,0.5713196-1.7805786,0.5704956
				c-2.9993973-0.0067749-5.9987946-0.0135498-8.9981995-0.02034c-1.1386566-0.0025635-2.6910629,0.3016205-3.7629623-0.0859222
				c-1.0024185-0.3624268-0.8125839-0.9614868,0.0482635-1.4267731c1.3355331-0.7218475,3.7549744-0.6309662,5.2361221-0.6731262
				c1.4630432-0.0416718,2.9372406,0.0251312,4.3878174,0.2247467c0.9857788,0.1356506,3.9766846,0.2801514,4.646347,0.9113159
				C130.3516541,250.5343781,130.4077606,250.6990662,130.362854,250.8341827z"/>
			<g>
				<path class="st7" d="M103.161438,151.3390503c2.0848007,1.4923401,4.1925888,3.0055695,5.8155899,4.9212799
					c1.6229935,1.9157104,2.7363434,4.3074646,2.5210724,6.7262573c-0.2154846,2.4211731-1.7023315,4.5688324-3.1459808,6.6047821
					c-0.5810623,0.8194427-1.1746674,1.6520386-1.993042,2.2778625c-0.8183823,0.625824-1.9106216,1.0250092-2.9538803,0.8278351
					c-1.6849899-0.3184662-2.6042328-1.9756775-3.1171036-3.4830627c-1.6198959-4.7610779-1.5721817-9.9874573,0.1344147-14.7229462
					"/>
			</g>
			<path class="st8" d="M106.0946732,159.8219147c0.734108-1.667984,2.0528107-1.1439819,2.162468,0.4886322
				c0.1877975,2.7960052-0.3370056,5.6302948-1.5206375,8.212326c-0.2774124,0.6051483-1.041748,2.3372345-1.9975891,2.1343384
				c-1.0158691-0.2156372-0.5649719-2.5182495-0.5194244-3.2016602
				C104.3937531,164.8407745,105.0254974,162.2512207,106.0946732,159.8219147z"/>
			<g>
				<polygon class="st1" points="114.1907654,183.3661957 112.9402008,232.9374084 52.7311897,225.7078094 55.8952255,176.9684143 
									"/>
				<polygon class="st4" points="137.0482788,221.3456726 112.9402008,232.9374084 114.1907654,183.3661957 
					134.5996246,178.0095215 				"/>
				<polygon class="st1" points="134.5996246,178.0095215 114.1907654,183.3661957 55.8952255,176.9684143 83.4638901,170.8847198 
									"/>
				<g>
					<path class="st27" d="M127.4214172,226.2233124c-0.4575043,0,0.0451355,2.4030609-3.4418945-45.4746094
						c-0.0235596-0.3321381,0.4759674-0.3613586,0.4990234-0.0351563
						c3.2608185,47.8810272,3.4552689,45.4748535,2.9609375,45.5090332
						C127.4336243,226.2230682,127.4277649,226.2233124,127.4214172,226.2233124z"/>
				</g>
				<g>
					<path class="st27" d="M112.9399719,233.1874237c-0.0019531,0-0.0043945,0-0.0063477,0
						c-0.1381836-0.0036621-0.2470703-0.1184082-0.2436523-0.2563477
						c1.4120331-52.7704926,1.0878067-49.7166901,1.4394531-49.8085938l20.4091797-5.3544922
						c0.3217773-0.0833893,0.4454498,0.3999786,0.1269531,0.4833984l-20.2275391,5.3068848l-1.2480469,49.385498
						C113.186554,233.0795135,113.0752258,233.1874237,112.9399719,233.1874237z"/>
				</g>
				<g>
					<path class="st27" d="M55.8677025,177.2169647c-0.3272743-0.0361023-0.2757759-0.5314178,0.0546875-0.4970703
						c61.9211769,6.912262,58.5733223,6.178772,58.5190468,6.6716309
						C114.397316,183.7901154,117.9434586,184.0254974,55.8677025,177.2169647z"/>
				</g>
				<ellipse class="st4" cx="85.0826035" cy="175.5613403" rx="4.2395048" ry="1.4070669"/>
				<ellipse class="st4" cx="106.2793121" cy="178.3903503" rx="4.2395048" ry="1.4070669"/>
				<g>
					<path class="st27" d="M106.5102844,178.7047577c-0.5328903-1.5821991-0.0984268-3.2299042,0.2739258-4.9765625
						c0.3823242-1.9094238,0.1767578-3.2844238-0.6103516-4.0869141c-1.1137848-1.134613-2.3054123-0.9347992-12.4648438-2.0065918
						c-1.8881836-0.1904297-4.0292969-0.4055176-5.8798828,0.3139648c-3.0043945,1.167923-4.640564,5.0566406-3.3828125,8.0178223
						c0.1079102,0.2541504-0.0107422,0.5476074-0.2651367,0.6555176c-0.2519531,0.1074219-0.546875-0.010498-0.6557617-0.2648926
						c-1.4796143-3.4867706,0.4168472-7.9702606,3.9414063-9.3405762c2.0742188-0.8059082,4.3413086-0.5776367,6.3427734-0.3769531
						c9.9597702,1.0640564,11.625412,0.8217316,13.078125,2.3012695c1.0332031,1.0532227,1.328125,2.7299805,0.8769531,4.9836426
						c-0.3266602,1.5328674-0.7520752,3.1389923-0.3071289,4.4614258c0.0883789,0.2617188-0.0522461,0.545166-0.3139648,0.6333008
						C106.8782959,179.1080475,106.5969238,178.9640656,106.5102844,178.7047577z"/>
				</g>
			</g>
			<path class="st7" d="M97.5254898,99.1034775c0,0-11.1817093,16.5589905-11.8701096,29.9518356
				c-0.6883926,13.3928528,1.4937744,26.3714752,1.4937744,26.3714752
				c-1.5105896,3.9761505-2.4243698,8.1111908-2.7644119,12.3509979c-0.1117401,1.3931732-0.1301651,2.8991547,0.6495285,4.0591278
				c0.7796936,1.1599579,2.6570206,1.6522369,3.5789261,0.6017456c0.3760834,1.0850983,1.5962067,1.6062317,2.7445984,1.6131744
				c1.1483994,0.0069275,2.2645798-0.9132843,2.3674469-2.0570831c0.0776825,1.1333008,1.4573669,2.2350159,2.5932465,2.2490082
				c1.1358643,0.0139771,2.1997833-0.9433289,2.3053665-2.0743713c-0.1561661,1.6728821,2.2518158,3.0886383,3.5823593,2.4143677
				c1.4938965-0.7570343,1.6252441-2.1937408,2.0590897-3.6931763c1.2426376-4.2947845,2.1892471-8.6767426,2.830162-13.103714
				c0.1512451-1.044693,0.4646149-2.1655579,0.5072632-3.2059021c0.0489502-1.1939087-0.3999176-2.6002045-0.6697388-3.7565765
				c-0.8803482-3.7666626,1.7295303-15.4441681,2.9893188-17.0757904c1.2882385-1.6684723,3.3718414-2.4605255,5.257782-3.4021149
				c5.5568085-2.7743683,10.7989349-7.8210144,13.378212-13.4710236l-4.1197815-12.7504959l-15.7830353-5.8777542
				L97.5254898,99.1034775z"/>
			<path class="st1" d="M128.5583038,116.8754578c17.5459137-18.9349365,8.3123932-36.002449,8.3123932-36.002449
				c-4.0120544-7.3117599-11.0513306-8.3115463-21.606575-1.7707901S97.5254898,99.1034775,97.5254898,99.1034775
				C108.7558441,106.8615875,119.6711731,113.9676514,128.5583038,116.8754578z"/>
			<path class="st9" d="M166.5673981,59.4655495c-0.1492767-0.7486839-0.2985687-1.4973679-0.4478455-2.2460518
				c0.7948608-0.1536102,1.4111023,0.1029053,1.5054169,0.9069672
				C167.7112274,58.8619308,167.2390442,59.1537056,166.5673981,59.4655495z"/>
			<path class="st9" d="M140.4450684,57.2170181c-0.1468201,0.9885788-0.2936554,1.9771576-0.4404755,2.9657364
				c-0.7045288-0.3778114-1.3583527-1.032795-1.2386475-1.8232193S139.6602631,57.3692932,140.4450684,57.2170181z"/>
			<path class="st83" d="M159.6702118,50.9622002c0.2460938-0.0431519,0.5016022-0.0836487,0.7430878-0.0195313
				s0.4658051,0.2623215,0.4782257,0.5118637c0.0154266,0.3097954-0.2766418,0.5386848-0.5457611,0.6929131
				c-0.8534698,0.4891014-1.8022919,0.8065605-2.7757721,0.9435844c-0.5196381,0.073143-2.5370636,0.336628-2.8897552-0.1692314
				C153.9231415,51.8358917,158.96875,51.0851974,159.6702118,50.9622002z"/>
			<path class="st83" d="M149.4428864,51.6123924c1.3576965,0.1934013,1.3108063,1.1205444,0.2750092,1.3362465
				c-0.963028,0.2005424-1.9635162,0.2083435-2.9315338,0.0369492c-0.5167236-0.0914879-2.5164948-0.4661484-2.6950531-1.0564003
				C143.7079926,50.662117,148.737854,51.5119629,149.4428864,51.6123924z"/>
		</g>
	</g>
</g>
</svg>
