<?xml version="1.0" encoding="utf-8"?>
<!-- Generator: Adobe Illustrator 22.0.1, SVG Export Plug-In . SVG Version: 6.00 Build 0)  -->
<svg version="1.1" id="Layer_1" xmlns="http://www.w3.org/2000/svg" xmlns:xlink="http://www.w3.org/1999/xlink" x="0px" y="0px"
	 viewBox="0 0 300 300" style="enable-background:new 0 0 300 300;" xml:space="preserve">
<style type="text/css">
	.st0{fill:#EDC1A4;}
	.st1{fill:#E2E0E0;}
	.st2{fill:#D39E81;}
	.st3{fill:#502E26;}
	.st4{fill:#CCCACA;}
	.st5{fill:#426800;}
	.st6{fill:#538705;}
	.st7{fill:#D47E44;}
	.st8{fill:#73341D;}
	.st9{fill:#BC672E;}
	.st10{fill:#96311D;}
	.st11{fill:#B83E21;}
	.st12{fill:#DE8D82;}
	.st13{fill:#EFBAB4;}
	.st14{fill:#FDD5D0;}
	.st15{fill:#6883CE;}
	.st16{fill:#3D4885;}
	.st17{fill:#3859AE;}
	.st18{fill:#864424;}
	.st19{fill:#FEFEFE;}
	.st20{fill:#FFFFFF;}
	.st21{fill:#A55925;}
	.st22{fill:#F4F2F2;}
	.st23{fill:#3C3E68;}
	.st24{fill:#E8997C;}
	.st25{fill:#F5C46B;}
	.st26{fill:#F7EBDA;}
	.st27{fill:#0E0C0D;}
	.st28{fill:#657C3A;}
	.st29{fill:#576C37;}
	.st30{fill:#7C995D;}
	.st31{fill:#36518C;}
	.st32{fill:#96B7E3;}
	.st33{fill:#A3B3DF;}
	.st34{fill:url(#SVGID_1_);}
	.st35{fill:url(#SVGID_2_);}
	.st36{fill:url(#SVGID_3_);}
	.st37{fill:url(#SVGID_4_);}
	.st38{fill:url(#SVGID_5_);}
	.st39{fill:#266AB7;}
	.st40{fill:#060E0D;}
	.st41{fill:#E0D4C6;}
	.st42{fill:#787E42;}
	.st43{fill:#D3D1D1;}
	.st44{fill:url(#SVGID_6_);}
	.st45{fill:url(#SVGID_7_);}
	.st46{fill:url(#SVGID_8_);}
	.st47{fill:#020508;}
	.st48{fill:#BAB6B6;}
	.st49{fill:#0F0B07;}
	.st50{fill:#2F3A68;}
	.st51{fill:#203257;}
	.st52{opacity:0.5;fill:#FFFFFF;}
	.st53{opacity:0.2;fill:#0E0C0D;}
	.st54{fill:#DD9F9B;}
	.st55{fill:#3E4D9B;}
	.st56{fill:url(#SVGID_9_);}
	.st57{fill:#5F6194;}
	.st58{fill:url(#SVGID_10_);}
	.st59{fill:url(#SVGID_11_);}
	.st60{fill:url(#SVGID_12_);}
	.st61{fill:url(#SVGID_13_);}
	.st62{fill:#070102;}
	.st63{fill:#100805;}
	.st64{fill:#FDA465;}
	.st65{fill:#2A50A1;}
	.st66{fill:#B76C39;}
	.st67{fill:#130602;}
	.st68{fill:url(#SVGID_14_);}
	.st69{fill:url(#SVGID_15_);}
	.st70{fill:url(#SVGID_16_);}
	.st71{fill:url(#SVGID_17_);}
	.st72{fill:url(#SVGID_18_);}
	.st73{fill:url(#SVGID_19_);}
	.st74{fill:#B4BDED;}
	.st75{fill:#100D08;}
	.st76{fill:#F6C85F;}
	.st77{fill:#FECF00;}
	.st78{fill:#2D59E2;}
	.st79{fill:#121F3A;}
	.st80{fill:#BBD0F5;}
	.st81{fill:#020202;}
	.st82{fill:#E2CFB7;}
	.st83{fill:#080805;}
	.st84{fill:#A87D7C;}
	.st85{fill:#182052;}
	.st86{fill:#EAEAEA;}
	.st87{fill:#DDDDDD;}
	.st88{fill:#3D4574;}
	.st89{fill:#ABC5F0;}
	.st90{fill:url(#SVGID_20_);}
	.st91{fill:#4159A8;}
	.st92{fill:#E0D0BD;}
	.st93{fill:#3D53AA;}
	.st94{fill:#0A0000;}
	.st95{fill:#BF6D36;}
	.st96{fill:#385DAE;}
	.st97{fill:#E0DCDC;}
	.st98{fill:#857E78;}
	.st99{fill:#0E213C;}
	.st100{fill:url(#SVGID_21_);}
	.st101{fill:#55608E;}
	.st102{opacity:0.3;fill:#F4F2F2;}
	.st103{opacity:0.3;}
	.st104{fill:#213987;}
	.st105{enable-background:new    ;}
</style>
<g id="Delivery_Person_1_">
	<g id="Delivery_Person">
		<g>
			<path class="st2" d="M185.842453,133.8820038c1.9962006,1.8610535,4.7989349,3.1040344,7.7614746,3.4421082
				c2.1900482,0.2499237,4.5543518,0.0474701,6.4738464,0.9637451c1.8740997,0.8945923,2.8731995,2.6449738,3.7588196,4.2902527
				c0.2583313,0.4799194,0.5223236,1.0058441,0.3704529,1.516571s-0.9389038,0.9012604-1.431778,0.5738831
				c0.2120667,0.5519257-0.0684204,1.2088165-0.6506195,1.5236969s-1.4138489,0.259491-1.9290771-0.1284637
				c0.2519226,0.4328918,0.1365204,0.995285-0.2735901,1.3332367s-1.0843811,0.4263-1.5985107,0.2094727
				c0.1455841,0.8310089-0.5595856,1.7055206-1.535614,1.9043884c-0.9760437,0.1988678-2.0834198-0.3063507-2.4114838-1.100174
				c-0.1605682-0.3885193-0.1486816-0.8121033-0.2686005-1.2107391c-0.3236542-1.0759888-1.5568237-1.8032074-2.8203735-2.1424255
				s-2.6121979-0.3866425-3.901062-0.6510468c-3.9909821-0.8187714-7.1579895-3.9104767-7.5118866-7.3332825"/>
			<path class="st3" d="M247.2880096,178.774353l-0.1629181,0.7776337
				c-0.1659851,0.7922211-0.8682098,1.3570404-1.6775818,1.3493195l-43.6174622-0.41539l-0.3782043-5.2006531
				L247.2880096,178.774353z"/>
			<polygon class="st7" points="201.4518433,176.6889496 201.6991119,126.1185532 252.8411102,128.1134186 247.2880096,178.774353 
							"/>
			<ellipse class="st3" cx="221.6479645" cy="233.1598511" rx="44.1445847" ry="44.8401527"/>
			<ellipse class="st4" cx="221.6479645" cy="233.1598511" rx="39.0210114" ry="39.635849"/>
			<ellipse class="st19" cx="221.6479645" cy="233.1598511" rx="34.6959076" ry="35.2425995"/>
			<g>
				<g>
					<g>
						<line class="st3" x1="222.035675" y1="197.9172516" x2="221.2602539" y2="268.3887329"/>
						
							<rect x="186.4100037" y="232.7781067" transform="matrix(0.0104161 -0.9999458 0.9999458 0.0104161 -13.8012161 452.3605347)" class="st4" width="70.4759445" height="0.7500407"/>
					</g>
				</g>
				<g>
					<g>
						<line class="st3" x1="197.0066833" y1="207.9634094" x2="246.2892456" y2="258.3425903"/>
						
							<rect x="221.272995" y="197.9150543" transform="matrix(0.714848 -0.6992799 0.6992799 0.714848 -99.835762 221.4779968)" class="st4" width="0.7499657" height="70.4756775"/>
					</g>
				</g>
				<g>
					<g>
						<line class="st3" x1="186.4122162" y1="232.7652893" x2="256.883728" y2="233.5407104"/>
						
							<rect x="221.2729492" y="197.9151611" transform="matrix(0.0110022 -0.9999395 0.9999395 0.0110022 -13.9296608 452.2225037)" class="st4" width="0.7500407" height="70.4759445"/>
					</g>
				</g>
				<g>
					<g>
						<line class="st3" x1="196.458374" y1="257.794281" x2="246.8375549" y2="208.5117188"/>
						
							<rect x="186.410141" y="232.7779083" transform="matrix(0.7148765 -0.6992508 0.6992508 0.7148765 -99.8352814 221.4648895)" class="st4" width="70.4756699" height="0.7499657"/>
					</g>
				</g>
			</g>
			<ellipse class="st12" cx="221.6479645" cy="233.1598511" rx="6.6095772" ry="6.7137213"/>
			<polygon class="st12" points="220.6543579,229.9815674 188.9319916,154.1797638 193.6100311,148.7572174 
				223.9746399,229.9815674 			"/>
			<path class="st3" d="M154.0973511,221.0897064c-2.6777191-0.2219238-5.4383087-0.1837006-8.0571899-0.710495
				c-7.9297028-1.595108-11.9216309-1.1403351-14.4728699-1.3249054c-1.0920715-0.07901-2.8149719-0.2631073-3.5007019-1.3683777
				c-0.9234619-1.4884796,0.540863-4.5778351,0.9301147-6.1122742c0.6196594-2.442688,1.2393036-4.8853607,1.858963-7.3280487
				c0.692276-2.7289429,1.3535614-3.5819244,4.5558472-4.0761719c4.6319275-0.7148895,7.2530212-0.797226,10.0202484,2.8321686
				c2.7307129,3.5815277,3.5795593,5.9881897,11.5698547,9.3864899c1.6296539,0.6930847,4.7707672,1.3405914,5.2065735,3.6526337
				C162.6159058,218.171463,159.7705383,221.559906,154.0973511,221.0897064z"/>
			<path class="st10" d="M124.5772705,119.1653595c0,0,34.8760986,19.1677246,39.9611816,33.1506805
				c0,0,1.734375,2.4364166-5.6569061,17.9986267s-13.8724823,29.2996674-13.8724823,29.2996674
				s-7.0012512,7.281601-13.1429138,3.8799438c-6.1416473-3.4016418,9.6755524-44.1609344,9.6755524-44.1609344
				l-14.6460342-3.8357391l-19.4408493-23.0401001L124.5772705,119.1653595z"/>
			<path class="st23" d="M160.0482025,74.4055023c0,0-1.4321289,15.0035095,2.9637756,24.450798
				s23.7973022,35.4416275,23.7973022,35.4416275l-7.1676483,5.1031647c0,0-11.906311-6.4117279-13.7096558-7.2398529
				c-1.8033295-0.828125-8.4784393-11.8697433-8.4784393-11.8697433l-8.4784393-16.4719238l-6.2395935-15.9628372
				L160.0482025,74.4055023z"/>
			<ellipse class="st3" cx="78.3520279" cy="233.1598511" rx="44.1445847" ry="44.8401527"/>
			<ellipse class="st4" cx="78.3520279" cy="233.1598511" rx="39.0210114" ry="39.635849"/>
			<ellipse class="st19" cx="78.3520279" cy="233.1598511" rx="34.6959076" ry="35.2425995"/>
			<g>
				<g>
					<g>
						<line class="st3" x1="78.3520279" y1="197.9172516" x2="77.5766068" y2="268.3887329"/>
						
							<rect x="42.7264099" y="232.7781067" transform="matrix(0.0104161 -0.9999458 0.9999458 0.0104161 -155.9881897 308.6847534)" class="st4" width="70.4759445" height="0.7500407"/>
					</g>
				</g>
				<g>
					<g>
						<line class="st3" x1="53.3230362" y1="207.9634094" x2="102.6055984" y2="258.3425903"/>
						
							<rect x="77.5894012" y="197.9150543" transform="matrix(0.714848 -0.6992799 0.6992799 0.714848 -140.8074341 121.0029526)" class="st4" width="0.7499657" height="70.4756775"/>
					</g>
				</g>
				<g>
					<g>
						<line class="st3" x1="42.728569" y1="232.7652893" x2="113.2000656" y2="233.5407104"/>
						
							<rect x="77.5893631" y="197.9151611" transform="matrix(0.0110022 -0.9999395 0.9999395 0.0110022 -156.0324249 308.5476074)" class="st4" width="0.7500407" height="70.4759445"/>
					</g>
				</g>
				<g>
					<g>
						<line class="st3" x1="52.7747269" y1="257.794281" x2="103.1539078" y2="208.5117188"/>
						
							<rect x="42.7265472" y="232.7779083" transform="matrix(0.7148765 -0.6992508 0.6992508 0.7148765 -140.8028564 120.9940262)" class="st4" width="70.4756699" height="0.7499657"/>
					</g>
				</g>
			</g>
			<path class="st12" d="M114.4297714,178.9233093l-38.2399063,51.0563965l-0.1572189,6.3401794l59.4088058,2.787796
				L114.4297714,178.9233093z M112.9835815,188.3183289l17.4327545,46.2671661l-50.4486084-2.1220093L112.9835815,188.3183289z"/>
			<polygon class="st12" points="114.4312363,178.9217224 198.0991821,170.3146667 201.4518433,176.6889496 
				114.3638077,186.0003357 			"/>
			<polygon class="st12" points="135.4401398,239.1083221 202.2626648,178.6117096 195.1081696,171.5641785 131.8661499,233.009552 
							"/>
			<g>
				<path class="st4" d="M138.8208313,253.0691528c-0.1171265-0.015213-60.6267853-7.8765564-60.5209961-7.862793
					c-6.4951172,0.0004883-11.8168945-5.4038086-11.8168945-12.0458984c0-6.644043,5.3251953-12.0493164,11.8710938-12.0493164
					l60.4575195-1.5458984c9.2480469,0,16.7641602,7.5161133,16.7641602,16.7548828
					C155.5757141,245.555481,148.0596008,253.0691528,138.8208313,253.0691528z M138.8208313,220.3152466L78.3638,221.861145
					c-6.1420898,0-11.1308594,5.0688477-11.1308594,11.2993164c0,6.2299805,4.9887695,11.2988281,11.1210938,11.2988281
					l60.5151367,7.862793c8.7768555-0.0029297,15.956543-7.1801758,15.956543-16.0019531
					C154.8257141,227.4949341,147.6460266,220.3152466,138.8208313,220.3152466z"/>
			</g>
			<circle class="st4" cx="136.630661" cy="236.3195343" r="11.4466839"/>
			<ellipse class="st3" cx="78.3520279" cy="233.1598511" rx="7.5646086" ry="7.6838012"/>
			<polygon class="st12" points="111.5754471,183.1703949 98.4488297,148.7572174 102.8707809,146.6321564 114.4312363,178.9217224 
							"/>
			<path class="st3" d="M121.1705399,149.7316437c0,3.9936066-8.0027161,3.1585236-17.7665253,4.1315765
				c-16.3994446,1.6343842-17.7665253-3.2374573-17.7665253-7.2310638s7.9543457-7.2310638,17.7665253-7.2310638
				S121.1705399,145.7380371,121.1705399,149.7316437z"/>
			<ellipse class="st3" cx="135.7150879" cy="260.1858215" rx="9.2939682" ry="3.5345187"/>
			<path class="st18" d="M147.4572906,261.6916199c-2.9909363-0.2219238-6.0744324-0.1837158-8.9996338-0.7105103
				c-3.2603455-0.5871582-6.5553131-0.98172-9.8620605-1.1815186c-4.0415726-0.2441711-8.8850555,0.4057922-10.2138748-1.5117493
				c-1.0314941-1.4884949,0.6041107-4.5778503,1.0388947-6.1122742c2.3306198-8.225174,2.4160843-8.9766693,3.2552643-9.8974762
				c0.9612579-1.0547638,2.4962463-1.3114166,3.9098892-1.5067596c4.9683838-0.6865082,8.0375977-0.8721466,11.1923218,2.8321838
				c3.026886,3.5542297,3.9771118,5.9801178,12.9231873,9.3864746c1.8202667,0.6931,5.3288116,1.3405914,5.8155975,3.6526489
				C156.9520721,258.678894,153.9314117,262.1719971,147.4572906,261.6916199z"/>
			<path class="st11" d="M139.3941193,198.8682709c-0.3457794,2.1011505-0.9169617,4.5271149-0.8382874,6.6597443
				c-0.0476837,2.4586182-2.8951874,33.4365387-3.0147095,36.4471893c-0.0414581,1.0441589,0.3230286,1.8602295-0.6298523,2.6517334
				c-0.9170685,0.7617493-2.2490387,0.9569244-3.3867645,1.1467285c-2.0452728,0.3412018-4.1714478,0.2935638-6.2052536-0.1038208
				c-2.5747681-0.4991608-2.6522827-1.1045227-3.1356201-3.4083557
				c-4.0858002-19.4750824-4.2925491-37.9769135-1.4745178-54.9154968
				c-0.0995255-1.6819458-0.7597427-3.2433929-1.5404663-4.7157898c-2.45755-5.2030792-5.9314651-10.3223419-9.5522385-14.7815857
				c-3.360672-4.7506714-6.6513062-9.6361237-11.7538452-12.5286713
				c-5.5121536-3.1247406-9.8550644-8.2969971-11.8354492-14.3299561
				c-4.0141525-12.2285309,2.5079346-24.7947311,8.5190353-27.0193787c2.5230942-0.9337769,5.3209915-0.4960556,7.9732971-0.0452728
				c6.9572678,1.1824493,14.3576736,2.5898666,19.4542618,7.4711456c2.6055374,2.4954681-0.6888351-1.5097046,0.5229034,1.8584671
				c1.218399,3.3866653,6.8688965,12.8849716,8.2466736,16.1461411c1.434967,3.3965302,6.5453644,18.2415161,7.77742,23.4806976
				C144.3310547,187.5896454,141.3230743,186.9493561,139.3941193,198.8682709z"/>
			<path class="st15" d="M90.9293747,114.0465469c0,0,14.7262039,12.353714,32.5423431,11.4285278
				c0,0,25.0666122-25.3824921,36.9523697-48.5315018c0,0,2.6247559-3.0761032-6.7449799-12.5541916
				c0,0-4.347702-5.6033287-5.3410645-5.3780708c-0.9933624,0.2252541-18.5606995,0.935833-18.5606995,0.935833
				L93.1991272,102.664299L90.9293747,114.0465469z"/>
			<path class="st0" d="M161.1475983,69.4172821c0,0-1.1160126,3.5995331-2.9604187,4.9882813
				c-0.0209808,0.0156021-0.0419617,0.0260925-0.0629425,0.0365829h-0.005249
				c-1.9649048,0.9955063-10.1755981-14.54039-10.1755981-14.54039l0.9012146-2.7928429c0,0,0.9484406,0.408844,2.1902008,0.953804
				c2.2898407,1.0006218,5.5646973,2.4730301,5.6537476,2.6984329c0.1414795,0.3456535,3.0758057,3.9559364,3.0758057,3.9559364
				L161.1475983,69.4172821z"/>
			<path class="st2" d="M161.1475983,69.4172821c0,0-1.1160126,3.5995331-2.9604187,4.9882813
				c-0.0209808,0.0156021-0.0419617,0.0260925-0.0629425,0.0365829h-0.005249
				c-3.0547028-5.124649-5.4388275-10.6471405-7.0841827-16.3794289c2.2898407,1.0006218,5.5646973,2.4730301,5.6537476,2.6984329
				c0.1414795,0.3456535,3.0758057,3.9559364,3.0758057,3.9559364L161.1475983,69.4172821z"/>
			<path class="st3" d="M127.4663773,54.4013672c0,0,8.2633743,2.3543167,10.2507706,5.3877106
				c0,0-7.9109497,3.3775711-14.9384537,11.6257629c-7.0274963,8.2481995-22.9482956,45.5188599-29.579567,45.7114868
				c-6.6312714,0.1926346-44.0853958-18.1865311-43.9563141-18.9994354
				c0.1290779-0.8128967,1.3290367-3.1809158,1.3290367-3.1809158L127.4663773,54.4013672z"/>
			<path class="st7" d="M130.1491089,54.3999863c-9.8538361,16.8054581-36.3861694,58.0220718-37.8521652,60.3518829
				c-4.1918259-0.2829666-42.3636742-18.4702301-42.3636742-18.4702301
				c7.5871887-26.738739,20.0736275-46.031517,35.1694679-65.439682c-1.0537338-0.4748726-0.7471085-1.5525455-0.6444855-1.8444138
				c0.22258-0.6465168,0.7407303-1.3064308,1.1946869-1.8129425c2.6146393-2.8872528,3.966423-6.9322186,8.9286041-4.3701515
				c4.95681,2.5623245,36.5107574,24.4437809,37.0452271,26.8592472
				C132.1611023,52.0891609,130.1491089,54.3999863,130.1491089,54.3999863z"/>
			<path class="st3" d="M128.4986267,57.187458c-0.293457,0.4978828-0.6078949,1.0113678-0.9326935,1.5458374
				c-11.7022781-4.0373535-32.9550171-20.0786934-42.4736862-27.8967133
				c-0.1047745-0.0417042-1.1056519-0.4976254-0.6339951-1.8390408c0.1100159-0.3195534,0.3090668-0.6864414,0.6182556-1.1108932
				C107.4450989,44.5019684,123.5154648,55.133503,128.4986267,57.187458z"/>
			<path class="st3" d="M130.122879,57.3813896c-0.0209808,0.0785484-0.073288,0.1309967-0.1624603,0.1573486L130.122879,57.3813896
				z"/>
			<path class="st3" d="M98.4966812,109.6207199c-0.8284378,1.538414-1.5750046,3.1213531-2.2425156,4.7401047
				c11.0861816-4.15242,28.0832062-10.4942703,38.0091095-17.1184464c-1.2189941-3.131073-2.0549774-6.4473877-3.3456116-9.5352249
				c-0.2394714,0.7631989,1.4279022,5.0658035,1.7557678,6.1152954
				C125.2239914,98.9165115,106.4817352,106.5374374,98.4966812,109.6207199z"/>
			<path class="st3" d="M154.9246826,73.4722672c-4.4334259-9.7621841-19.1357727-16.1314316-27.5228271-10.9663811
				c-1.9098969,1.1761818-1.2387695,2.6280708,0.0745087,2.7190132c1.6111603,0.1115646,3.9028778-2.0399475,6.4851685-2.3294067
				c1.8347626-0.2056656,3.6881866,0.1574211,5.4637146,0.5930481c5.2639465,1.2915268,9.888031,4.4817047,12.7046661,9.1363525
				c3.3392181,5.5181427,2.9824371,11.3770828,1.5254974,17.4143372c1.7824554-2.5803299,2.8204346-5.3803787,2.8522034-9.1030884
				C156.5193176,79.5658951,155.9987488,75.8373032,154.9246826,73.4722672z"/>
			<path class="st3" d="M184.0317688,157.897644l0.9018707,1.1638794c0.6547546,0.8449707,1.9330902,0.8330231,2.5707855-0.0249023
				c3.3193817-4.4658051,12.3908539-16.1048126,17.0749359-16.5325775c0,0,4.5419464-1.0222473,6.3519897,4.1577148
				c0.2109833,0.603775,0.7839203,1.0068054,1.4225616,1.0415039l0.6746521,0.0366364
				c1.014328,0.0550995,1.8237152-0.8262939,1.6881409-1.8330383c-0.2588959-1.9225616-1.3414307-4.8260498-5.2969666-6.5057678
				c-6.2872467-2.6698761-13.2266235,2.8710175-15.5397491,5.3822021c-1.853714,2.0124359-7.584198,8.5467529-9.787323,11.062912
				C183.583786,156.4273834,183.558609,157.2870331,184.0317688,157.897644z"/>
			<path class="st0" d="M181.9335175,135.4102478c1.9962158,2.2260742,4.7989502,3.7128296,7.7614899,4.1172028
				c2.1900482,0.2989502,4.5543518,0.0567932,6.4738464,1.152771c1.8740997,1.0700531,2.8731995,3.1637268,3.7588196,5.1316986
				c0.2583313,0.5740509,0.5223236,1.203125,0.3704529,1.8140259s-0.9389038,1.0780334-1.431778,0.6864319
				c0.2120667,0.6601868-0.0684204,1.4459076-0.6506195,1.8225403c-0.5821991,0.3766479-1.4138489,0.3103943-1.9290771-0.153656
				c0.2519226,0.517807,0.1365204,1.1904907-0.2735901,1.5947266s-1.0843811,0.5099182-1.5985107,0.2505646
				c0.1455841,0.993988-0.5595856,2.0400238-1.535614,2.2778931c-0.9760437,0.2378693-2.0834198-0.3664246-2.4114838-1.3159485
				c-0.1605682-0.4647064-0.1486816-0.9713745-0.2686005-1.4481964c-0.3236694-1.2870331-1.5568237-2.1568756-2.8203735-2.5626221
				c-1.2635498-0.4057617-2.6121979-0.4624786-3.901062-0.7787476c-3.9909821-0.9793396-7.1579895-4.6774445-7.5118866-8.7715607"/>
			<path class="st16" d="M185.069931,135.2506104c0,0-1.5886993,5.9636536-7.9404144,9.5326843
				c0,0-14.20047-8.0245209-30.1665344-23.4046326s-19.2747803-38.5112305-18.563324-43.2861176
				c0.7079468-4.7513275,8.5346985-16.1048164,19.0241852-8.5471954s1.9140167,16.2658768,14.6131439,35.0677872
				C174.7360992,123.4150467,185.069931,135.2506104,185.069931,135.2506104z"/>
			<path class="st19" d="M221.3182831,134.0333862c-5.4255371,0.895462-7.3791809,10.7086182-0.7796783,13.322525
				c0.2913513,0.115387,0.4726563,0.4068451,0.4526215,0.719574c-0.2358398,3.6814117-1.2722473,18.9772949-1.2850342,23.8232727
				c-0.0018616,0.7068634,0.8287964,0.7706146,0.7287903,0.7263336c0.3695068,0,0.6808014-0.2724152,0.7234955-0.6394501
				c0.6305237-5.4209442,1.1387939-18.8713684,1.6902924-24.1456757c0.0269012-0.2572174,0.1904144-0.4751129,0.423645-0.5868835
				C230.1330872,143.9654846,226.0742645,133.2552643,221.3182831,134.0333862z"/>
			<path class="st19" d="M93.1857224,47.6181602c-5.0348206-2.0641098-10.7924576,2.7279434-11.7693024,8.0371094
				c-0.3913422,2.1265945-0.0395813,4.5162735,1.1813431,6.3329544c0.2905197,0.4324837,0.6310883,0.847908,0.9855576,1.2430038
				c0.2857285,0.3184814,0.3297424,0.7850685,0.114769,1.1550102c-2.5306625,4.3549728-13.1144028,22.4149094-16.0818863,28.328804
				c-0.4330902,0.8631134,0.531044,1.4316483,0.4481354,1.3314896c0.4515228,0.2250824,0.9978714,0.0818176,1.273613-0.3406754
				c4.0725784-6.2402191,12.8867874-22.3667526,16.7734909-28.475914c0.1895447-0.2979355,0.5220795-0.4645996,0.8751602-0.4591064
				C97.3688507,64.9324722,98.6246033,49.8564911,93.1857224,47.6181602z"/>
			<path class="st19" d="M235.5313568,174.0082245c5.3960419-0.9392242,7.2975464-10.7680206,0.6629486-13.3288269
				c-0.2923431-0.112854-0.4761963-0.4026947-0.4588928-0.7155914c0.2035675-3.6833496,1.1059723-18.9877167,1.0763245-23.8336182
				c-0.0043335-0.7071228-0.835144-0.7631531-0.7351227-0.7199097c-0.3694916,0.0032349-0.6784058,0.2783661-0.7178802,0.645752
				c-0.5830231,5.4262695-0.9734497,18.8806152-1.4787445,24.1595612c-0.0246429,0.2574463-0.1862335,0.4767609-0.4184875,0.5905609
				c-1.4455414,0.7083282-2.5102539,1.7456512-3.1414948,3.2902222
				C228.7292328,167.9877014,231.5557556,174.6944885,235.5313568,174.0082245z"/>
			<path class="st0" d="M179.3540192,48.4127655c-0.3929901,0.8018303-1.9335175,0.3510246-2.8033447,0.361515
				c0.1309967,0.9379387,0.2619934,1.8758812,0.1414948,2.8243141c-0.2200317,1.729023-1.168457,3.4268341-0.9274597,5.1927032
				c0.1215668,0.8907089,0.4733124,1.7349472,0.7831573,2.5722809c0.2988586,0.8077049,0.6464386,1.5019875,0.3111572,2.3778
				c-0.1800232,0.4702644-0.6410217,0.8733978-1.1411896,0.8151398c-0.2396545-0.027916-0.4645691-0.1562386-0.705719-0.1486473
				c-0.2932587,0.0092278-0.5486145,0.224041-0.6894379,0.4814339c-0.0994873,0.1818275-0.1144714,0.6507759-0.2900391,0.7468147
				c-0.1674042,0.091568-0.5787201-0.1286354-0.7399902-0.1820259c-1.4000702-0.4635124-2.739212-1.0162125-4.1281738-1.6908455
				c-0.1653748-0.0803185-0.6502228-0.2205315-0.7459412-0.3715324c1.3151855,2.0749321,2.7037506,3.2329025,5.0616455,3.9822769
				c-0.7440796,1.1894455-2.5570221,4.710434-3.7778625,5.1402588c-1.2523193,0.4400558-3.1072235-0.3039474-4.5586395-1.0113678
				c-2.4302673-1.1881561-4.3862915-2.3875351-6.382019-4.4747925c-5.2356873-5.4736519-6.3263245-13.0604897-4.5848083-17.1339302
				c1.5074768-3.4982376,5.2153168-5.644455,9.03862-6.1357613c4.2907257-0.5801544,8.840683,0.9266205,12.6907349,2.5410881
				c0.9798279,0.4139633,1.9858856,0.864769,2.7037354,1.6507339
				C179.0920258,46.484436,179.7207794,47.6687584,179.3540192,48.4127655z"/>
			<path class="st3" d="M179.3540192,48.4127655c-0.3929901,0.8018303-1.9335175,0.3510246-2.8033447,0.361515
				c0,0-7.9015656-4.6843338-13.3352051-7.0158806c4.2750549-0.5780373,8.8004761,0.9097557,12.6907349,2.5410881
				c0.9798279,0.4139633,1.9858856,0.864769,2.7037354,1.6507339
				C179.0920258,46.484436,179.7207794,47.6687584,179.3540192,48.4127655z"/>
			<path class="st3" d="M170.6289673,51.7784996c1.3054352,0.1268959,2.7297516,0.428791,3.7417908,1.3208694
				c0.2158966,0.5266762,0.1832886,0.4980812-0.0260773,1.034153c-0.0516815,0.1323242-2.7882996-0.7967377-3.0578613-0.875576
				c-0.5225983-0.1528435-1.0520935-0.2875977-1.5914764-0.3663025c-0.4619446-0.0674019-0.9419403-0.1510239-0.5693817-0.7150383
				C169.47229,51.6522827,170.0192566,51.7192307,170.6289673,51.7784996z"/>
			<path class="st3" d="M171.7655334,48.5889854c3.5042419,0.362709,5.07547,2.4606819,4.187973,2.7534714
				c-0.3720245,0.1227341-1.0435333-0.3592339-1.3780823-0.4980736c-1.1401825-0.4731712-2.5927887-1.0549927-3.8144226-1.3349724
				C169.7521515,49.2781944,169.9973907,48.4059753,171.7655334,48.5889854z"/>
			<path class="st0" d="M164.3262939,65.258606c0.204361,0.8279266,1.4095306,3.4948959,1.1737061,4.1657333
				c-0.9241486,0.2324219-1.7037659,0.3195496-2.4312592,0.3195496c-3.1438751-3.2958374-6.5549774-6.3296928-9.9346008-9.3842697
				c-0.3510895-0.3198128-0.7178497-0.571312-1.08992-0.7757339c-0.5292206-1.215538-1.372757-2.2371407-2.4311981-2.8660164
				c-0.2253418-0.3929825-0.4768372-0.7598724-0.7702332-1.0899162c0.078537-1.2050476,0.3405304-2.3003349,0.7335205-3.4583054
				c0.5141754-1.5013618,0.2540588-0.4570351,1.1737061-3.8564072c-0.7597504-0.8489037-1.3728333-1.6348724-1.8234406-2.6933174
				c0.7230988-0.4295692,1.4671631-0.6444855,2.2688599-0.8854942c2.0330505-0.3915329,4.383606-0.9993591,6.093811,0.2410088
				c2.5119476,1.8844795,2.4689331,4.6213989,4.1132813,5.4966545c1.1212463-0.0734291,3.3534088-2.8557816,4.3699493-3.604908
				c-0.2777252,3.306076-1.4723358,5.2239189-2.9185181,8.1216583
				C163.0634918,58.4259148,163.5194092,61.9105721,164.3262939,65.258606z"/>
			<path class="st3" d="M166.1811371,42.1513824l-2.7036743,5.1243935
				c-4.3648071,4.4948349-10.5175781,5.8901367-13.9011536,4.8938713c0.5141754-1.5013618,0.2540588-0.4570351,1.1737061-3.8564072
				c-0.7597504-0.8489037-1.3728333-1.6348724-1.8234406-2.6933174c0.7230988-0.4295692,1.4671631-0.6444855,2.2688599-0.8854942
				c1.6871948-0.3249283,3.7778625-0.8645096,5.4335938-0.1361084c2.3269653-2.0157509,5.592041-3.0316811,8.6823578-2.9553108
				C165.5995941,41.8105927,165.8929901,41.9784279,166.1811371,42.1513824z"/>
			<path class="st13" d="M148.9263611,45.6220169c-1.6235504-0.2506638-3.5785675-0.4238129-4.6210938-1.8608284
				c-1.3458862-1.8554153-1.789978-4.6554451-2.2071228-6.8500862c-0.3022461-1.59021-0.9402618-3.5332222-0.3661346-5.1286259
				c0.7566833-2.1026955,4.4238281-1.9560261,6.2228241-2.209095c11.79039-1.6592426,26.444397-2.2586308,31.8411713,8.3151951
				c1.2982635,2.542923,3.0294189,6.8673325,2.0557098,9.761631c-0.1307526,0.3890343-0.3738251,0.8512497-0.7320862,1.0736694
				c-0.4125824,0.2561035-1.7402191,0.0943871-2.2042542,0.0643196c0.4386444-0.3754311,0.5021057-0.8645096,0.0906067-1.2491989
				c-1.5721283-1.4699745-8.1655884-2.0669365-10.3814087-1.9292946c-1.0457916,0.2586479-1.9564514,0.6592789-2.8511963,1.2595139
				c-1.0149994,0.7454796-3.2481995,3.5278397-4.3689575,3.6010094c-1.6460724-0.8972511-1.6303711-3.6437874-4.117569-5.4969711
				c-1.7246246-1.2605972-4.170105-0.6034851-6.092514-0.2401657
				C150.3956146,44.9768791,149.6486664,45.1891518,148.9263611,45.6220169z"/>
			<path class="st3" d="M145.4651642,33.5779381c0.1162872,0.0213699,0.2329254,0.0402069,0.3488464,0.0637512
				c2.3422394,0.4694633,5.7056122,4.317524,6.9104156,6.2518806c0.2582855,0.414772,0.3546295,0.6389923,0.2514038,1.1135254
				l-0.5908051,0.3180428c-1.5315552,0.3655014-2.8298187,0.4299812-4.3885345,0.265522
				c-1.5137939-1.5934868-2.6606445-4.2200851-2.9728851-6.4043846
				C144.9181824,34.4480324,145.0101929,34.1618614,145.4651642,33.5779381z"/>
			<path class="st3" d="M162.8620605,31.2773514c3.2945557,0.3361626,6.4735718,0.9258842,9.3950195,2.5650177
				c3.9781342,2.2321129,7.3070984,6.1968231,8.5488586,10.6114349c-3.1573944-0.6096458-2.8553314-1.9833717-9.0947266-7.2578239
				C168.9103699,34.8465004,165.8643036,33.2798119,162.8620605,31.2773514z"/>
			<path class="st3" d="M150.1250153,32.2724266c5.1858063-0.354269,9.564209-0.2963142,14.0295105,2.6280403
				c1.8604584,1.2182121,4.8348083,3.3619423,5.3162384,5.6400681c-0.0673981,0.5600166-0.3086243,0.8045349-0.6636353,1.209156
				c-10.0593414-0.0657425-18.8859253-7.7499275-19.0639191-9.197979L150.1250153,32.2724266z"/>
			<path class="st12" d="M164.3262939,65.258606c0.204361,0.8279266,1.4095306,3.4948959,1.1737061,4.1657333l-0.869812,0.1885605
				c-1.2470093,0.1678314-2.2740479,0.2568665-3.4844055-0.1936798c-1.2418976-1.3048325-2.8452301-2.4418182-4.1813354-3.6732178
				c-2.2741089-2.0854263-7.4196167-8.1531296-8.1216583-8.6351509c-0.1467285-2.2793541,0.3562622-4.0242424,1.163208-6.1201553
				c0.503006,0.3929825,0.5711212,0.7649879,0.7282715,1.3467865c0.6183319,1.3465309,2.6540985,7.7326279,10.8411407,14.6399193
				c-0.6389008-7.8392982-2.5942688-16.8924026-2.8609619-19.476223c-0.0366516-0.3303032,0.0209808-0.5188637,0.1782074-0.8018303
				c1.0671692,1.7341843,1.3951874,3.1640167,2.5098724,3.7727432c1.1212463-0.0734291,3.3534088-2.8557816,4.3699493-3.604908
				c-0.2777252,3.306076-1.4723358,5.2239189-2.9185181,8.1216583
				C163.0634918,58.4259148,163.5194092,61.9105721,164.3262939,65.258606z"/>
			<path class="st19" d="M107.6969223,59.0324707c0.849884-0.1087265,0.9670029,0.1882439,1.1743851,0.5165482
				c-0.0079727,0.6350136-0.18293,1.1370735-0.4488068,1.7130318c-2.2235565,4.8221245-21.0008392,41.2366829-22.9500275,43.5121651
				c-0.7691422,0.8992004-1.2418518,0.4955444-1.806488,0.081871c-0.5665436-1.5982056,7.3549042-15.2535324,8.4872589-17.8475342
				c-0.5093002-2.1491547-0.9175491-4.2729645-0.7045441-6.4884186
				C92.3412476,71.2308655,100.9973145,64.5011978,107.6969223,59.0324707z"/>
		</g>
	</g>
</g>
</svg>
