<?xml version="1.0" encoding="utf-8"?>
<!-- Generator: Adobe Illustrator 22.0.1, SVG Export Plug-In . SVG Version: 6.00 Build 0)  -->
<svg version="1.1" id="Layer_1" xmlns="http://www.w3.org/2000/svg" xmlns:xlink="http://www.w3.org/1999/xlink" x="0px" y="0px"
	 viewBox="0 0 300 300" style="enable-background:new 0 0 300 300;" xml:space="preserve">
<style type="text/css">
	.st0{fill:#EDC1A4;}
	.st1{fill:#E2E0E0;}
	.st2{fill:#D39E81;}
	.st3{fill:#502E26;}
	.st4{fill:#CCCACA;}
	.st5{fill:#426800;}
	.st6{fill:#538705;}
	.st7{fill:#D47E44;}
	.st8{fill:#73341D;}
	.st9{fill:#BC672E;}
	.st10{fill:#96311D;}
	.st11{fill:#B83E21;}
	.st12{fill:#DE8D82;}
	.st13{fill:#EFBAB4;}
	.st14{fill:#FDD5D0;}
	.st15{fill:#6883CE;}
	.st16{fill:#3D4885;}
	.st17{fill:#3859AE;}
	.st18{fill:#864424;}
	.st19{fill:#FEFEFE;}
	.st20{fill:#FFFFFF;}
	.st21{fill:#A55925;}
	.st22{fill:#F4F2F2;}
	.st23{fill:#3C3E68;}
	.st24{fill:#E8997C;}
	.st25{fill:#F5C46B;}
	.st26{fill:#F7EBDA;}
	.st27{fill:#0E0C0D;}
	.st28{fill:#657C3A;}
	.st29{fill:#576C37;}
	.st30{fill:#7C995D;}
	.st31{fill:#36518C;}
	.st32{fill:#96B7E3;}
	.st33{fill:#A3B3DF;}
	.st34{fill:url(#SVGID_1_);}
	.st35{fill:url(#SVGID_2_);}
	.st36{fill:url(#SVGID_3_);}
	.st37{fill:url(#SVGID_4_);}
	.st38{fill:url(#SVGID_5_);}
	.st39{fill:#266AB7;}
	.st40{fill:#060E0D;}
	.st41{fill:#E0D4C6;}
	.st42{fill:#787E42;}
	.st43{fill:#D3D1D1;}
	.st44{fill:url(#SVGID_6_);}
	.st45{fill:url(#SVGID_7_);}
	.st46{fill:url(#SVGID_8_);}
	.st47{fill:#020508;}
	.st48{fill:#BAB6B6;}
	.st49{fill:#0F0B07;}
	.st50{fill:#2F3A68;}
	.st51{fill:#203257;}
	.st52{opacity:0.5;fill:#FFFFFF;}
	.st53{opacity:0.2;fill:#0E0C0D;}
	.st54{fill:#DD9F9B;}
	.st55{fill:#3E4D9B;}
	.st56{fill:url(#SVGID_9_);}
	.st57{fill:#5F6194;}
	.st58{fill:url(#SVGID_10_);}
	.st59{fill:url(#SVGID_11_);}
	.st60{fill:url(#SVGID_12_);}
	.st61{fill:url(#SVGID_13_);}
	.st62{fill:#070102;}
	.st63{fill:#100805;}
	.st64{fill:#FDA465;}
	.st65{fill:#2A50A1;}
	.st66{fill:#B76C39;}
	.st67{fill:#130602;}
	.st68{fill:url(#SVGID_14_);}
	.st69{fill:url(#SVGID_15_);}
	.st70{fill:url(#SVGID_16_);}
	.st71{fill:url(#SVGID_17_);}
	.st72{fill:url(#SVGID_18_);}
	.st73{fill:url(#SVGID_19_);}
	.st74{fill:#B4BDED;}
	.st75{fill:#100D08;}
	.st76{fill:#F6C85F;}
	.st77{fill:#FECF00;}
	.st78{fill:#2D59E2;}
	.st79{fill:#121F3A;}
	.st80{fill:#BBD0F5;}
	.st81{fill:#020202;}
	.st82{fill:#E2CFB7;}
	.st83{fill:#080805;}
	.st84{fill:#A87D7C;}
	.st85{fill:#182052;}
	.st86{fill:#EAEAEA;}
	.st87{fill:#DDDDDD;}
	.st88{fill:#3D4574;}
	.st89{fill:#ABC5F0;}
	.st90{fill:url(#SVGID_20_);}
	.st91{fill:#4159A8;}
	.st92{fill:#E0D0BD;}
	.st93{fill:#3D53AA;}
	.st94{fill:#0A0000;}
	.st95{fill:#BF6D36;}
	.st96{fill:#385DAE;}
	.st97{fill:#E0DCDC;}
	.st98{fill:#857E78;}
	.st99{fill:#0E213C;}
	.st100{fill:url(#SVGID_21_);}
	.st101{fill:#55608E;}
	.st102{opacity:0.3;fill:#F4F2F2;}
	.st103{opacity:0.3;}
	.st104{fill:#213987;}
	.st105{enable-background:new    ;}
</style>
<g id="Delivering_Cake_1_">
	<g id="Delivering_Cake">
		<g>
			<path class="st10" d="M90.0469208,97.4136429c0,0,2.8489304-6.1422348,12.4852753-5.3984985l10.0895386-1.5909042
				c0,0,4.5399246-0.4559479,7.9152145,2.7890854c3.3752975,3.2450333,20.5714798,62.3852615,20.5714798,62.3852615
				l-40.6800995,6.41008L90.0469208,97.4136429z"/>
			<g>
				<path class="st0" d="M161.9113922,243.5070038c0.2395782,0.7720642,2.305542,8.4273071,2.3982544,9.6682739
					c0.241394,3.2310944,0.5121155,6.6160126-0.7735748,9.582077c-2.4022675,5.5419617-9.2085724,7.3267822-13.5418701,1.8077087
					c-1.1751251-1.4967041-2.3633881-3.5897827-2.5847473-5.4920349c-0.0654755-0.5626526-2.4898682-9.8625336-2.3184052-9.9231262
					c0.0000153-0.0000153,11.9931335-4.0858154,11.9931335-4.0858154
					C158.6434479,244.5451508,160.3105316,243.8381805,161.9113922,243.5070038z"/>
				<path class="st19" d="M161.9145203,243.504776c0.2364502,0.774292,0.2364502,0.774292-0.0031281,0.0022278
					L161.9145203,243.504776z"/>
				<path class="st9" d="M190.2188721,260.1590576c-2.9472046,1.5299988-6.3672333,2.3813477-9.5135498,3.4342651
					c-33.1003571,11.1735535-30.5272369,10.4129944-32.0881805,10.6893005
					c-0.4839325-4.6703186-3.9286194-10.0606079-2.0523224-13.5645142c0.3442535-0.6508179,0.9915466-1.1882019,1.7268066-1.1939697
					c0.9845276-0.0051575,1.5096436,0.7701111,3.1464386,1.3195496c6.3278809,2.1395569,10.0395813-4.2951355,12.9422455-7.3457184
					c1.317627-1.0285645,2.2289886-1.3914948,3.9495392-1.1940613c2.8434143,0.3221588,15.4456635,4.0326691,16.9400024,4.2653656
					C187.679245,257.47995,188.7393494,258.078064,190.2188721,260.1590576z"/>
				<path class="st3" d="M190.219223,260.1601563c0.2566833,0.5575867,0.4773407,1.1034241,0.6606445,1.6629028
					c0.2826385,0.8626099-0.1198883,1.8032837-0.9490051,2.17276c-1.8062134,0.8049316-30.2475586,10.0532837-38.8961029,13.074585
					c-0.6501923,0.2271118-1.3907776,0.0814819-1.8627167-0.4201355c-0.0039215-0.0041504-0.0078278-0.0083313-0.0117493-0.0125732
					c-0.5581512-0.6083374-0.5861511-1.578949-0.5428009-2.3539734c1.5907593-0.2816162-0.5434723,0.3259888,32.0881805-10.6893311
					C183.8519897,262.5415039,187.2720642,261.6901245,190.219223,260.1601563z"/>
			</g>
			<g>
				<path class="st0" d="M109.0586319,245.0310059c-0.2521057,0.7680664-3.0041122,8.2042999-3.6476212,9.2694244
					c-1.675499,2.7732697-3.4162369,5.6888885-6.1827545,7.3612518c-5.1691284,3.1247864-11.7505493,0.6355591-12.0842361-6.3734589
					c-0.0904922-1.9007568,0.1538696-4.295166,1.0757065-5.9737854c0.2726746-0.496521,3.6855392-9.4808197,3.8603821-9.4308624
					c0.0000153,0.0000153,12.1420517,3.6193848,12.1420517,3.6193848
					C105.7936783,243.9835205,107.5620193,244.3733215,109.0586319,245.0310059z"/>
				<path class="st19" d="M109.0624771,245.0310059c-0.2559586,0.7680664-0.2559586,0.7680664-0.0038452,0H109.0624771z"/>
				<path class="st9" d="M122.4806137,275.005249c-3.288559-0.4607544-6.5692368-1.7486267-9.7436142-2.713623
					c-33.4516449-10.0732117-30.9137955-9.2021179-32.3461075-9.8814087
					c2.3117905-4.0867615,2.6277008-10.4759216,6.1872253-12.2444458c1.8860474-0.9490814,2.5936279,0.4767151,3.1625519,1.6855621
					c2.019043,4.3091888,6.0205383,4.8964996,10.7124557,3.9620667c0.1000671,0,2.999527-0.8531189,4.8284912-1.2090302
					c1.6698837-0.0747986,2.6229477,0.1575012,3.9108124,1.3153687
					c2.1307449,1.9101563,10.2516937,12.2365723,11.3347549,13.2921143
					C121.9631805,271.3501892,122.4806137,272.4519043,122.4806137,275.005249z"/>
				<path class="st3" d="M122.480278,275.0063477c-0.1138992,0.6031799-0.2503586,1.1759033-0.425148,1.7380981
					c-0.2694855,0.8668213-1.142601,1.400238-2.0324478,1.2209167c-1.9384842-0.390564-30.4774246-9.333252-39.2767563-11.8822021
					c-0.6615219-0.1916199-1.1807175-0.7394714-1.274704-1.4217529c0.026535-0.1002808-0.2708282-0.7599182,0.9193268-2.2500916
					c1.4596558,0.6922302-0.6318359-0.0492249,32.3461075,9.8814087
					C115.9110336,273.2577209,119.1917648,274.5455933,122.480278,275.0063477z"/>
			</g>
			<path class="st15" d="M113.7536316,163.4334564l-24.6619644,78.8694458
				c-0.7353745,2.2663116,20.2304001,9.0669861,20.9657745,6.8006744l27.5946579-77.4298706L113.7536316,163.4334564z"/>
			<path class="st15" d="M124.6368332,176.2714539l19.1070786,76.2415009
				c0.3546143,1.3840179,21.5656738-4.0491791,21.2110596-5.433197l-19.0312042-77.6408234L124.6368332,176.2714539z"/>
			<path class="st0" d="M109.8474731,97.6246414c-5.9430008,0.2205734-7.3135605-5.6081924-7.3135605-5.6081924
				c-0.0079117-0.1001587-0.6052704-7.6618347-0.5671997-7.1799088l10.58255,4.2103271
				C112.5504227,89.1468735,115.7842789,97.3991776,109.8474731,97.6246414z"/>
			<path class="st2" d="M113.4314651,93.6152725c-3.3608856,2.4324875-8.968483-1.9086533-11.2008133-5.4545441
				l-0.2639389-3.3241882l10.58255,4.2103271C112.549263,89.0468674,113.4551163,91.382225,113.4314651,93.6152725z"/>
			<path class="st3" d="M111.8549881,80.6413956c-0.2906723,0.5084915-0.6959076,0.7557297-1.1340485,1.1015167
				c-0.4114609,0.3247452-0.5685883,0.8465729-0.8304291,1.2957764c-0.6149216,1.054924-1.3990326,2.0114212-2.3157043,2.8182983
				c-3.2000885,2.8168106-6.0941467,1.522583-6.6786346-0.8612442c-0.2107544-0.8595428-0.0896683-1.7673416-0.232933-2.6406708
				c-0.2637405-1.6077347-1.4090881-3.0882568-1.2950287-4.1062927c0.2448654-2.1855392,1.5697174-2.2926025,1.9706421-3.3348312
				c0.1887207-0.4905777,0.0828857-1.0408859,0.1486588-1.5623779c0.1742935-1.3819046,1.5174942-2.3347244,2.8962326-2.0070801
				c1.2993469,0.3087769,2.2505646,1.6795959,3.5860596,1.6695099c0.7686157-0.005806,1.4412994-0.4785004,2.114624-0.8492279
				c1.8089981-0.9960098,2.9508133-0.2639847,3.0781097,1.5226212c0.0494995,0.6947479-0.0275345,1.411644,0.1897659,2.0733871
				c0.1419373,0.4322433,0.4094086,0.8497849,0.3599548,1.3020401c-0.0633392,0.5792465-0.6085434,0.9630661-0.9441833,1.4393921
				C112.3201447,79.1379089,112.2409134,79.9662628,111.8549881,80.6413956z"/>
			<path class="st0" d="M112.2349396,76.1186142c1.6943207,2.5613785,2.6704788,5.5924454,2.7893295,8.6612015
				c0.134697,3.4778366-1.0533142,6.1829605-4.5068665,6.8691559c-4.7570114,0.9451752-9.325882-2.8949127-8.7071609-8.1724548
				c-0.9461746,1.0360107-2.8052673-0.592041-2.6038818-2.2589264c0.0798416-0.6608658,0.5195694-1.2881775,1.1478729-1.5080795
				c0.6282959-0.219902,1.47789-0.0449142,1.7860184,0.5451508c0.2680359-1.2813568,0.3614731-2.5991211,0.2769089-3.9054794
				c0.7077713-0.5282288,1.66185-0.7082062,2.5446854-0.7320786
				C107.5227585,75.5478592,109.6972122,75.7678604,112.2349396,76.1186142z"/>
			<g>
				<g>
					<g>
						
							<rect x="130.5591431" y="31.2145805" transform="matrix(0.9973891 -0.0722145 0.0722145 0.9973891 -2.9026957 9.747447)" class="st7" width="5.5846367" height="27.6042442"/>
						<polygon class="st7" points="129.5688477,31.4529362 131.8773193,24.6684265 135.1390381,31.0496349 						"/>
						<path class="st26" d="M135.1397858,31.0489693l0.2167206,2.9932785
							c-1.7677002,1.545517-3.5106506,3.1050491-5.2620392,4.6574821l-0.3202515-4.4231682
							c1.2083893-1.0351448,2.4291382-2.063282,3.6411133-3.1027355L135.1397858,31.0489693z"/>
						<path class="st26" d="M135.5988159,37.389019l0.3103027,4.2856483
							c-1.7634888,1.5490646-3.5022278,3.1123428-5.2617645,4.6613159l-0.3216705-4.4427338
							C132.0765533,40.3882866,133.8524475,38.901371,135.5988159,37.389019z"/>
						<path class="st26" d="M136.2140045,45.8855095l0.311142,4.297348
							c-1.7553253,1.5527153-3.4940643,3.1158028-5.2617493,4.6615105l-0.322525-4.454628
							C132.6872406,48.8773918,134.4634094,47.39431,136.2140045,45.8855095z"/>
						<path class="st26" d="M136.8331604,54.4370461l0.3000488,4.1440964l-5.5700531,0.4032936l-0.0022736-0.0312653
							C133.2982483,57.4254684,135.0741425,55.9385529,136.8331604,54.4370461z"/>
					</g>
					<g>
						
							<rect x="167.4140625" y="28.5461521" transform="matrix(0.9973891 -0.0722145 0.0722145 0.9973891 -2.6137729 12.4019403)" class="st7" width="5.5846367" height="27.6042442"/>
						<polygon class="st7" points="166.4237671,28.7845097 168.7322388,22 171.9939575,28.3812065 						"/>
						<path class="st26" d="M171.9946899,28.3805428l0.2167358,2.9932785
							c-1.7677002,1.5455132-3.5106659,3.1050491-5.2620392,4.6574821l-0.3202515-4.4231701
							c1.208374-1.0351448,2.4291382-2.0632801,3.6411133-3.1027336L171.9946899,28.3805428z"/>
						<path class="st26" d="M172.4537354,34.7205925l0.3103027,4.2856445
							c-1.7634888,1.5490685-3.5022278,3.1123466-5.2617645,4.6613197l-0.3216705-4.4427338
							C168.9314728,37.7198601,170.7073669,36.2329445,172.4537354,34.7205925z"/>
						<path class="st26" d="M173.0689087,43.217083l0.311142,4.2973442
							c-1.7553101,1.5527191-3.4940643,3.1158066-5.261734,4.6615105l-0.3225403-4.4546242
							C169.54216,46.2089615,171.3183289,44.7258835,173.0689087,43.217083z"/>
						<path class="st26" d="M173.6880798,51.7686195l0.3000488,4.1440964l-5.5700531,0.4032936l-0.0022736-0.0312653
							C170.1531677,54.7570419,171.9290619,53.2701263,173.6880798,51.7686195z"/>
					</g>
					<g>
						
							<rect x="150.7136078" y="29.7553253" transform="matrix(0.9973891 -0.0722145 0.0722145 0.9973891 -2.7446954 11.1990814)" class="st7" width="5.5846367" height="27.6042442"/>
						<polygon class="st7" points="149.7232971,29.9936829 152.0317688,23.2091732 155.2934875,29.5903797 						"/>
						<path class="st26" d="M155.2942352,29.589716l0.2167206,2.9932766
							c-1.7676849,1.545517-3.5106506,3.1050529-5.2620392,4.6574821l-0.3202515-4.4231682
							c1.2083893-1.0351448,2.4291382-2.0632801,3.6411133-3.1027336L155.2942352,29.589716z"/>
						<path class="st26" d="M155.7532806,35.9297638l0.3102875,4.2856483
							c-1.7634735,1.5490646-3.5022125,3.1123428-5.2617493,4.6613197l-0.3216705-4.4427338
							C152.2310028,38.9290314,154.006897,37.4421158,155.7532806,35.9297638z"/>
						<path class="st26" d="M156.368454,44.4262543l0.311142,4.297348
							c-1.7553101,1.5527153-3.4940643,3.1158028-5.2617493,4.6615105l-0.322525-4.4546242
							C152.8416901,47.4181366,154.6178589,45.9350548,156.368454,44.4262543z"/>
						<path class="st26" d="M156.9876099,52.9777946l0.3000488,4.1440926l-5.5700531,0.4032936l-0.0022583-0.0312653
							C153.4526978,55.9662132,155.2285919,54.4792976,156.9876099,52.9777946z"/>
					</g>
					
						<rect x="112.3470764" y="94.1391983" transform="matrix(0.9973891 -0.0722145 0.0722145 0.9973891 -7.5838227 11.5227499)" class="st13" width="86.4309311" height="33.0060883"/>
					<path class="st26" d="M196.8139954,96.3911667c0.5799103,1.0568924,1.8482361,3.1719742,3.2734985,1.6904678
						c0.9876556-1.0266418,0.3223114-4.1395187,0.0026703-5.3466034c-0.4478607-1.6913452-1.4969635-3.3124542-3.0982819-4.0174484
						c-1.9761047-0.8699951-4.2427673-0.1924591-6.3560028,0.2504349c-3.2226868,0.675415-5.2208099,0.7260361-24.2081757,1.9536285
						c-41.5559387,2.6867142-42.9365005,2.7240219-46.7091217,2.6790543
						c-1.7792587-0.0212021-3.5790024-0.1072006-5.3194504,0.2630081s-3.4536285,1.2670212-4.3792038,2.7867355
						c-2.185379,3.5882263,3.818779,10.6175537,6.3055267,6.2590866c1.1133881-1.9518356,0.6127625-4.8667221,4.4234238-0.8812561
						c2.981102,3.1178589,4.2538834-2.0258255,6.57901-2.8321915c1.277626-0.4430923,2.6957626,0.154747,3.7575912,0.9921265
						c1.0618134,0.8373795,1.924881,1.916954,3.0456848,2.6735764c1.1208038,0.7566147,2.6619263,1.1370163,3.8107147,0.423584
						c1.0519714-0.6533127,1.4298553-1.967804,1.8577728-3.1298447c1.1479645-3.1173248,3.1785431-3.6016235,5.6602631-0.3212585
						c0.8340149,1.1024094,2.1571045,2.256752,3.4305267,1.7189178c0.9076385-0.3833466,1.2746887-1.4404984,1.825058-2.2577133
						c1.3894958-2.063118,4.5445557-2.6589127,6.5907135-1.2445679c0.8885956,0.614212,1.537384,1.5109863,2.3338776,2.2406769
						c0.7964783,0.7296906,1.8686676,1.3142853,2.9223938,1.0757599c2.6112976-0.591301,4.1091614-7.585289,7.7182922-5.5238113
						c2.2119598,1.2634201,2.3203583,5.0974884,5.0005951,5.5387268c1.3539581,0.2229004,2.6308746-0.7921982,3.3309784-1.9723511
						c0.7000885-1.1801529,1.0184479-2.5499191,1.664566-3.7604675c1.5345612-2.8750839,4.3307343-3.2145233,6.2497101-0.0001678
						c0.684494,1.1465302,1.1743469,2.4429932,2.1349182,3.3705521c0.9605713,0.9275665,2.6362915,1.3271484,3.5983887,0.4011688
						c0.6586761-0.6339569,0.7540436-1.6312714,0.9651947-2.520752
						C193.7647858,94.6268311,195.5993805,94.1775742,196.8139954,96.3911667z"/>
					
						<rect x="121.2084427" y="58.0514641" transform="matrix(0.9973891 -0.0722145 0.0722145 0.9973891 -5.0627308 11.258215)" class="st8" width="63.9125061" height="35.1858749"/>
					<g>
						<g>
							<path class="st20" d="M120.3362427,59.5061111c-0.0162735-0.492897,0.7310638-0.5261078,0.75-0.0253906
								c0.0048828,0.1435547,0.543457,14.3901367,5.3608398,18.4458008c1.0039063,0.8452148,2.0913086,1.171875,3.3276367,1.0019531
								c7.9555664-1.0991211,5.9829102-22.3720703,5.9624023-22.5869141
								c-0.0478058-0.492115,0.6979065-0.5682297,0.7460938-0.0722656c0.0883789,0.90625,2.0556641,22.2055664-6.605957,23.4023438
								C122.7330017,80.6550598,120.583107,66.7181396,120.3362427,59.5061111z"/>
						</g>
						<g>
							<path class="st20" d="M144.7390747,78.5940018c-6.6895599,0-8.6038055-13.6767426-8.8276367-20.2158203
								c-0.0159912-0.484169,0.7305145-0.5405464,0.75-0.0253906c0.0048828,0.1435547,0.543457,14.390625,5.3608398,18.4462891
								c1.0039063,0.8447266,2.090332,1.1723633,3.3276367,1.0019531c7.953125-1.0991211,5.9829102-22.3725586,5.9624023-22.5874023
								c-0.0478668-0.4927139,0.697998-0.5672417,0.7460938-0.0722656
								C152.8110352,62.8588371,152.5380859,78.5940018,144.7390747,78.5940018z"/>
						</g>
						<g>
							<path class="st20" d="M151.4871216,57.2507401c-0.0160065-0.4849281,0.7317352-0.5404816,0.75-0.0253906
								c0.0048828,0.1435547,0.543457,14.3901367,5.3603516,18.4458008
								c1.0039063,0.8447266,2.0922852,1.1733398,3.3276367,1.0019531
								c7.9555664-1.0991211,5.9829102-22.3720703,5.9624023-22.5869141
								c-0.047699-0.4910126,0.6978302-0.5701332,0.7460938-0.0722656c0.0883789,0.90625,2.0556641,22.2055664-6.605957,23.4023438
								C153.8834686,78.3996735,151.7340088,64.4631882,151.4871216,57.2507401z"/>
						</g>
						<g>
							<path class="st20" d="M167.0623169,56.1228104c-0.0166168-0.5031509,0.7328796-0.5083809,0.75-0.0253906
								c0.0048828,0.1435547,0.543457,14.390625,5.3608398,18.4462891c1.0039063,0.8447266,2.0908203,1.1738281,3.3276367,1.0019531
								c7.9550781-1.0996094,5.9824219-22.3725586,5.9619141-22.5874023
								c-0.0476074-0.4900551,0.6976624-0.5719566,0.7460938-0.0722656c0.0883789,0.90625,2.0556641,22.2055664-6.6054688,23.402832
								C169.4591522,77.2722321,167.3091888,63.335186,167.0623169,56.1228104z"/>
						</g>
					</g>
					
						<rect x="122.2008972" y="85.5017548" transform="matrix(0.9973891 -0.0722145 0.0722145 0.9973891 -6.0499988 11.3656721)" class="st3" width="63.9125061" height="7.6997042"/>
					<path class="st15" d="M128.3156281,94.3910751c0.1549988,2.1405945-1.1440506,2.2010193-3.2846451,2.3560028
						c-2.1405945,0.1549911-4.3121414,0.3458481-4.4671249-1.7947464s1.4546661-4.0015335,3.5952606-4.156517
						C126.2997131,90.6408234,128.1606445,92.2504807,128.3156281,94.3910751z"/>
					
						<linearGradient id="SVGID_1_" gradientUnits="userSpaceOnUse" x1="-157.2516937" y1="278.2092896" x2="-149.4796295" y2="278.2092896" gradientTransform="matrix(0.9973891 -0.0722145 0.0722145 0.9973891 265.0019836 -195.3320618)">
						<stop  offset="0" style="stop-color:#F66A66"/>
						<stop  offset="1" style="stop-color:#FD938E"/>
					</linearGradient>
					<path class="st34" d="M136.0674133,93.8298187c0.1549835,2.1405945-1.1440582,2.2010193-3.2846527,2.3560028
						c-2.1405945,0.1549911-4.3121338,0.3458481-4.4671326-1.7947464c-0.1549835-2.1405945,1.4546661-4.0015335,3.5952606-4.156517
						C134.0514832,90.079567,135.9124298,91.6892242,136.0674133,93.8298187z"/>
					<path class="st7" d="M143.8191833,93.2685623c0.1549988,2.1405945-1.144043,2.2010193-3.2846375,2.3560028
						c-2.1405945,0.1549911-4.312149,0.3458481-4.4671326-1.7947464s1.4546661-4.0015335,3.5952606-4.156517
						C141.8032684,89.5183105,143.6641998,91.1279678,143.8191833,93.2685623z"/>
					<path class="st13" d="M151.5709686,92.7073059c0.1549835,2.1405945-1.1440582,2.2010193-3.2846527,2.3560028
						c-2.1405945,0.1549911-4.3121338,0.3458481-4.4671326-1.7947464c-0.1549835-2.1405945,1.4546661-4.0015335,3.5952606-4.156517
						C149.5550385,88.9570541,151.4159851,90.5667114,151.5709686,92.7073059z"/>
					<path class="st15" d="M159.3227386,92.1460495c0.1549988,2.1405945-1.144043,2.2010193-3.2846375,2.3560028
						c-2.1405945,0.1549911-4.312149,0.3458481-4.4671326-1.7947464s1.4546661-4.0015335,3.5952606-4.156517
						C157.3068237,88.3957977,159.1677551,90.005455,159.3227386,92.1460495z"/>
					
						<linearGradient id="SVGID_2_" gradientUnits="userSpaceOnUse" x1="-126.163414" y1="278.2092896" x2="-118.3913422" y2="278.2092896" gradientTransform="matrix(0.9973891 -0.0722145 0.0722145 0.9973891 265.0019836 -195.3320618)">
						<stop  offset="0" style="stop-color:#F66A66"/>
						<stop  offset="1" style="stop-color:#FD938E"/>
					</linearGradient>
					<path class="st35" d="M167.0745239,91.5847931c0.1549835,2.1405945-1.1440582,2.2010193-3.2846527,2.3560028
						c-2.1405945,0.1549911-4.3121338,0.3458481-4.4671326-1.7947464c-0.1549835-2.1405945,1.4546661-4.0015335,3.5952606-4.156517
						C165.0585938,87.8345413,166.9195404,89.4441986,167.0745239,91.5847931z"/>
					<path class="st7" d="M174.8262939,91.0235367c0.1549988,2.1405945-1.144043,2.2010193-3.2846375,2.3560028
						c-2.1405945,0.1549911-4.312149,0.3458481-4.4671326-1.7947464s1.4546661-4.0015335,3.5952606-4.156517
						C172.810379,87.2732849,174.6713104,88.8829422,174.8262939,91.0235367z"/>
					<path class="st13" d="M182.5780792,90.4622803c0.1549835,2.1405945-1.1440582,2.2010193-3.2846527,2.3560028
						c-2.1405945,0.1549911-4.3121338,0.3458481-4.4671326-1.7947464c-0.1549835-2.1405945,1.4546661-4.0015335,3.5952606-4.156517
						C180.562149,86.7120285,182.4230957,88.3216858,182.5780792,90.4622803z"/>
					<path class="st15" d="M190.3298492,89.9010239c0.1549988,2.1405945-1.144043,2.2010193-3.2846375,2.3560028
						c-2.1405945,0.1549911-4.312149,0.3458481-4.4671326-1.7947464s1.4546661-4.0015335,3.5952606-4.156517
						C188.3139343,86.1507721,190.1748657,87.7604294,190.3298492,89.9010239z"/>
					<circle class="st15" cx="118.9469147" cy="108.9861145" r="1.9491363"/>
					<circle class="st15" cx="130.127533" cy="119.4160614" r="1.9491363"/>
					<circle class="st15" cx="139.7995148" cy="107.0956726" r="1.9491363"/>
					<circle class="st15" cx="151.075943" cy="118.9311371" r="1.9491363"/>
					<circle class="st15" cx="162.4099121" cy="107.7934723" r="1.9491363"/>
					<circle class="st15" cx="169.9753571" cy="119.5169907" r="1.9491363"/>
					<circle class="st15" cx="181.7619476" cy="106.0116806" r="1.9491363"/>
					<circle class="st15" cx="192.2825165" cy="116.8700638" r="1.9491363"/>
					<path class="st25" d="M183.7670441,55.7896919c0.2617188-2.5902443-0.9595642-4.342041-2.7552795-4.6196404
						s-3.6433563,1.3130836-3.6357574,3.1301117c-0.6849518-1.5916901-2.2999725-2.7409286-4.0282288-2.8664665
						s-3.4924011,0.7782402-4.400177,2.2542381c-0.926239-1.2510948-2.5643311-1.9340858-4.1049805-1.711544
						c-1.5406494,0.2225456-2.9185028,1.3411827-3.4528198,2.8032494c-2.2947083-3.2431259-7.2602081-2.9841728-9.1784821,0.5377922
						c-1.0418854-1.6588326-3.0216675-2.6813507-4.9774323-2.5707474s-3.8076477,1.3498077-4.6558685,3.1155281
						c-2.4467621-2.8941841-7.0547791-2.5215454-9.0010071,0.7371864c-2.0359802-2.8570747-6.4092026-2.5462036-8.0223999,0.566433
						c-1.0890732-0.9312744-2.7820282-1.0739174-4.0115738-0.3380013c-1.2295456,0.73592-1.812767,2.3851128-1.5065842,3.784977
						c2.3250656,2.3422508,6.0615768,2.3844414,9.288147,1.6906662c3.2265778-0.6937752,6.4465027-1.9348183,9.7225952-1.5356064
						c4.0911713,0.4985352,7.655426,3.5041733,11.7768097,3.5271301c6.0868988,0.033905,10.9089203-6.3919945,16.9817352-5.976757
						c3.4304047,0.2345581,6.5188904,2.6760178,9.9502106,2.4551582
						C180.647583,60.5872803,183.475769,58.6726189,183.7670441,55.7896919z"/>
					
						<linearGradient id="SVGID_3_" gradientUnits="userSpaceOnUse" x1="-159.0800018" y1="239.8613434" x2="-154.528595" y2="239.8613434" gradientTransform="matrix(0.9973891 -0.0722145 0.0722145 0.9973891 265.0019836 -195.3320618)">
						<stop  offset="0" style="stop-color:#F66A66"/>
						<stop  offset="1" style="stop-color:#FD938E"/>
					</linearGradient>
					<path class="st36" d="M128.2358093,55.5801315c0.0907745,1.2535515-0.6699677,1.2889404-1.9235229,1.3797035
						c-1.2535553,0.0907593-2.5252304,0.2025261-2.6159973-1.0510292c-0.0907593-1.2535515,0.8518677-2.343338,2.105423-2.4340973
						C127.0552673,53.3839455,128.14505,54.3265762,128.2358093,55.5801315z"/>
					<path class="st15" d="M137.0799255,54.0018387c0.0907745,1.2535515-0.6699677,1.2889404-1.9235229,1.3797035
						c-1.2535553,0.0907593-2.525238,0.2025261-2.6159973-1.0510292c-0.0907593-1.2535515,0.8518677-2.343338,2.105423-2.4340973
						C135.8993835,51.8056526,136.9891663,52.7482834,137.0799255,54.0018387z"/>
					<path class="st19" d="M148.0293427,58.3128281c0.0907593,1.2535553-0.6699677,1.2889442-1.9235229,1.3797035
						c-1.2535553,0.0907631-2.525238,0.2025299-2.6159973-1.0510254s0.8518677-2.343338,2.105423-2.4341011
						C146.8488007,56.1166458,147.9385834,57.0592728,148.0293427,58.3128281z"/>
					
						<linearGradient id="SVGID_4_" gradientUnits="userSpaceOnUse" x1="-129.6486359" y1="239.3283539" x2="-125.0972214" y2="239.3283539" gradientTransform="matrix(0.9973891 -0.0722145 0.0722145 0.9973891 265.0019836 -195.3320618)">
						<stop  offset="0" style="stop-color:#F66A66"/>
						<stop  offset="1" style="stop-color:#FD938E"/>
					</linearGradient>
					<path class="st37" d="M157.5518494,52.923172c0.0907593,1.2535553-0.6699677,1.2889404-1.9235229,1.3797035
						s-2.525238,0.2025299-2.6159973-1.0510254s0.8518677-2.343338,2.105423-2.4341011
						S157.4610901,51.6696167,157.5518494,52.923172z"/>
					<path class="st15" d="M169.0719147,56.1455612c0.0907593,1.2535553-0.6699677,1.2889442-1.9235229,1.3797035
						c-1.2535553,0.0907631-2.525238,0.2025299-2.6159973-1.0510254s0.8518677-2.343338,2.105423-2.4341011
						C167.8913727,53.949379,168.9811554,54.8920059,169.0719147,56.1455612z"/>
					
						<linearGradient id="SVGID_5_" gradientUnits="userSpaceOnUse" x1="-108.3575439" y1="239.8613434" x2="-103.8061371" y2="239.8613434" gradientTransform="matrix(0.9973891 -0.0722145 0.0722145 0.9973891 265.0019836 -195.3320618)">
						<stop  offset="0" style="stop-color:#F66A66"/>
						<stop  offset="1" style="stop-color:#FD938E"/>
					</linearGradient>
					<path class="st38" d="M178.8258362,51.9172325c0.0907593,1.2535553-0.6699677,1.2889404-1.9235229,1.3797035
						s-2.525238,0.2025299-2.6159973-1.0510254c-0.0907745-1.2535553,0.8518677-2.343338,2.105423-2.4341011
						S178.7350769,50.6636772,178.8258362,51.9172325z"/>
				</g>
				<polygon class="st7" points="186.6102142,197.4660187 104.7860947,199.5710602 99.0554352,129.4338684 181.0098114,123.644516 
									"/>
				<path class="st11" d="M220.5435181,191.9759064l-29.5341187,4.7772522l-2.1858368,0.3544159l-2.2133484,0.3584442
					l-5.6004028-73.8215027c43.852005-1.0203171-5.797821,0.1337051,33.6930084-0.7838364L220.5435181,191.9759064z"/>
				<polygon class="st3" points="191.0093994,196.7531586 188.8235626,197.1075745 183.0025787,123.5972137 
					185.2553406,123.5460587 				"/>
			</g>
			<path class="st0" d="M119.5113983,178.4781799c3.3824768,2.6868286,7.470253,6.4525146,8.738678,10.7358551
				c0.2550354,0.8612823,0.2467346,2.6678772-1.045105,2.6942291c-0.7577438,0.0153046-1.0745697-0.3329163-5.7932587-3.5562744
				c7.2152405,9.8373871,7.3908081,9.9125977,7.674881,10.9094391c0.2050476,0.7196045,0.1162415,1.5711212-0.4142609,2.0988007
				c-0.5304871,0.5276794-1.5502396,0.5431671-1.9586945-0.0837555c0.2969818,0.7279053-0.1393433,1.6634674-0.8878708,1.9037933
				c-0.7485352,0.2403107-1.6479111-0.2664185-1.8301544-1.0311737c0.1618195,1.0175018-0.506073,2.1030273-1.4872742,2.4172516
				c-0.9812088,0.3142242-2.1554413-0.181366-2.6148071-1.1035767c0.2984543,0.6237183,0.0019836,1.6183472-0.633934,1.9457397
				c-0.6894302,0.3549347-1.6646347-0.1973724-2.2933121-0.5553741c-1.6216507-0.9234772-2.8296509-2.4554443-3.8980865-3.949173
				c-3.143013-4.3941345-5.8214645-9.1203461-7.9763336-14.0744781c-0.7463989-1.7160339-1.443161-3.5424194-1.2661133-5.4053497
				c0.3795624-3.9937286,4.7837982-7.4493103,9.9122314-6.4319153
				C116.0042725,175.4418182,117.7094269,177.046814,119.5113983,178.4781799z"/>
			<path class="st11" d="M104.0731812,184.0271912c0,0-16.8082275-24.1153412-20.2556534-37.7455597
				c-3.4474182-13.6302185,4.274971-44.3506088,6.5513611-48.750946c2.2763977-4.4003448,15.3050385-4.2831879,14.0778885,6.9235764
				s-3.2258606,30.8432846-3.2258606,30.8432846l15.5943146,40.7961884
				C116.8152313,176.0937347,116.5437698,181.7954102,104.0731812,184.0271912z"/>
			<path class="st3" d="M107.4412231,78.6543503c0.1724777,0.0322418,0.3717117,0.0922394,0.4300003,0.2577362
				c0.0516281,0.1465912-0.042305,0.3124771-0.1744308,0.39431c-0.1861572,0.115303-0.259407,0.0963364-2.4398193,0.3215485
				c-0.3440628,0.0355377-1.0034256,0.1218491-1.2073898-0.2566605c-0.1538696-0.285553,0.0823517-0.6078339,0.3333206-0.7399368
				C105.1574326,78.2236633,106.6214142,78.501091,107.4412231,78.6543503z"/>
			<path class="st3" d="M110.2777252,78.5449219c-0.1724777,0.0322495-0.3717117,0.0922394-0.4300003,0.2577438
				c-0.0516281,0.1465912,0.042305,0.3124695,0.1744308,0.39431c0.1861572,0.115303,0.259407,0.0963364,2.439827,0.3215408
				c0.3440628,0.0355377,1.0034256,0.1218491,1.2073822-0.2566528c0.1538696-0.285553-0.0823441-0.6078415-0.3333206-0.7399445
				C112.5615158,78.1142426,111.0975418,78.3916702,110.2777252,78.5449219z"/>
			<ellipse class="st3" cx="111.9299927" cy="81.1509705" rx="0.5580567" ry="0.9738637"/>
			<ellipse class="st3" cx="106.787117" cy="81.1509705" rx="0.5580567" ry="0.9738637"/>
			<path class="st2" d="M110.7017593,84.0010605c-0.0807648,0.3682556-0.5065384,0.4282532-0.8623657,0.4449844
				c-0.3933563,0.0184937-0.7867126,0.0369873-1.1800766,0.055481c-0.1375961,0.0064697-0.3067627-0.0046234-0.3669891-0.1285095
				c-0.0686951-0.1412735,0.040657-0.3838043,0.4620972-0.3328094c0.2540817,0.0307388,0.5051575,0.1085358,0.7605286,0.0916138
				s0.5290375-0.1646652,0.5812988-0.4152069c0.0511017-0.2449951-0.0459824-0.3598709-0.7833633-1.7583466
				c-0.0763168-0.1447525-0.4544525-0.7529755,0.0108261-0.7130814c0.2271423,0.0194778,0.5105438,0.8289642,0.6129303,1.0243835
				C110.6321793,83.5971069,110.7558594,83.7543869,110.7017593,84.0010605z"/>
			<path class="st2" d="M101.3940964,82.6256104c-0.0155945-0.5514679-0.0311813-1.1029358-0.0467682-1.6544037
				c-0.4914703-0.3021622-0.9317551,0.4806442-0.6765442,1.1406479
				C100.775795,82.3834381,101.1287231,82.5057602,101.3940964,82.6256104z"/>
			<path class="st20" d="M112.3485413,85.2360992c-2.0144043,0.9456711-4.4110641,1.042984-6.4955063,0.2637405
				c-0.0937271,1.1574936,0.5319214,2.4238358,1.545784,2.990097s2.3406677,0.5036926,3.3107376-0.1346893
				C111.6796188,87.7168579,112.4086685,86.3958206,112.3485413,85.2360992z"/>
			<path class="st27" d="M102.8290482,97.6918411c4.2509384,2.8393555,0.3462067,21.7753448-1.6081543,37.6057205
				C101.6084442,119.7896271,106.669487,100.8785095,102.8290482,97.6918411z"/>
			<g>
				<path class="st2" d="M119.7302856,204.4104004c-2.1460648-2.8427124-3.0367432-4.5119934-5.1723633-7.3413086
					c-0.2981644-0.3948364,0.2980728-0.8501434,0.5986328-0.4521484c2.1460648,2.8427124,3.0367432,4.5120087,5.1723633,7.3413086
					C120.6279297,204.3542175,120.029335,204.8065033,119.7302856,204.4104004z"/>
			</g>
			<g>
				<path class="st2" d="M123.8088989,202.9294434c-1.8120117-2.9165039-5.5083008-7.5961914-5.5454102-7.6435547
					c-0.3076782-0.3883972,0.2805939-0.8554077,0.5878906-0.4648438c0.0375977,0.046875,3.7602539,4.7607422,5.5942383,7.7128906
					C124.7077637,202.955246,124.0701294,203.3510284,123.8088989,202.9294434z"/>
			</g>
			<g>
				<path class="st2" d="M126.7180786,201.8952637c-0.4741211-0.675293-1.4116211-1.9145508-2.4047852-3.2270508
					c-3.4775391-4.5952148-3.4614258-4.6274414-3.309082-4.9335938c0.1513672-0.3046875,0.6972656-0.1992188,0.7202148,0.1347656
					c0.4286423,0.7851868,4.5141754,6.0371704,5.6079102,7.5952148
					C127.6166229,201.8705597,127.0041046,202.3014221,126.7180786,201.8952637z"/>
			</g>
		</g>
	</g>
</g>
</svg>
