<?xml version="1.0" encoding="utf-8"?>
<!-- Generator: Adobe Illustrator 22.0.1, SVG Export Plug-In . SVG Version: 6.00 Build 0)  -->
<svg version="1.1" id="Layer_1" xmlns="http://www.w3.org/2000/svg" xmlns:xlink="http://www.w3.org/1999/xlink" x="0px" y="0px"
	 viewBox="0 0 300 300" style="enable-background:new 0 0 300 300;" xml:space="preserve">
<style type="text/css">
	.st0{fill:#EDC1A4;}
	.st1{fill:#E2E0E0;}
	.st2{fill:#D39E81;}
	.st3{fill:#502E26;}
	.st4{fill:#CCCACA;}
	.st5{fill:#426800;}
	.st6{fill:#538705;}
	.st7{fill:#D47E44;}
	.st8{fill:#73341D;}
	.st9{fill:#BC672E;}
	.st10{fill:#96311D;}
	.st11{fill:#B83E21;}
	.st12{fill:#DE8D82;}
	.st13{fill:#EFBAB4;}
	.st14{fill:#FDD5D0;}
	.st15{fill:#6883CE;}
	.st16{fill:#3D4885;}
	.st17{fill:#3859AE;}
	.st18{fill:#864424;}
	.st19{fill:#FEFEFE;}
	.st20{fill:#FFFFFF;}
	.st21{fill:#A55925;}
	.st22{fill:#F4F2F2;}
	.st23{fill:#3C3E68;}
	.st24{fill:#E8997C;}
	.st25{fill:#F5C46B;}
	.st26{fill:#F7EBDA;}
	.st27{fill:#0E0C0D;}
	.st28{fill:#657C3A;}
	.st29{fill:#576C37;}
	.st30{fill:#7C995D;}
	.st31{fill:#36518C;}
	.st32{fill:#96B7E3;}
	.st33{fill:#A3B3DF;}
	.st34{fill:url(#SVGID_1_);}
	.st35{fill:url(#SVGID_2_);}
	.st36{fill:url(#SVGID_3_);}
	.st37{fill:url(#SVGID_4_);}
	.st38{fill:url(#SVGID_5_);}
	.st39{fill:#266AB7;}
	.st40{fill:#060E0D;}
	.st41{fill:#E0D4C6;}
	.st42{fill:#787E42;}
	.st43{fill:#D3D1D1;}
	.st44{fill:url(#SVGID_6_);}
	.st45{fill:url(#SVGID_7_);}
	.st46{fill:url(#SVGID_8_);}
	.st47{fill:#020508;}
	.st48{fill:#BAB6B6;}
	.st49{fill:#0F0B07;}
	.st50{fill:#2F3A68;}
	.st51{fill:#203257;}
	.st52{opacity:0.5;fill:#FFFFFF;}
	.st53{opacity:0.2;fill:#0E0C0D;}
	.st54{fill:#DD9F9B;}
	.st55{fill:#3E4D9B;}
	.st56{fill:url(#SVGID_9_);}
	.st57{fill:#5F6194;}
	.st58{fill:url(#SVGID_10_);}
	.st59{fill:url(#SVGID_11_);}
	.st60{fill:url(#SVGID_12_);}
	.st61{fill:url(#SVGID_13_);}
	.st62{fill:#070102;}
	.st63{fill:#100805;}
	.st64{fill:#FDA465;}
	.st65{fill:#2A50A1;}
	.st66{fill:#B76C39;}
	.st67{fill:#130602;}
	.st68{fill:url(#SVGID_14_);}
	.st69{fill:url(#SVGID_15_);}
	.st70{fill:url(#SVGID_16_);}
	.st71{fill:url(#SVGID_17_);}
	.st72{fill:url(#SVGID_18_);}
	.st73{fill:url(#SVGID_19_);}
	.st74{fill:#B4BDED;}
	.st75{fill:#100D08;}
	.st76{fill:#F6C85F;}
	.st77{fill:#FECF00;}
	.st78{fill:#2D59E2;}
	.st79{fill:#121F3A;}
	.st80{fill:#BBD0F5;}
	.st81{fill:#020202;}
	.st82{fill:#E2CFB7;}
	.st83{fill:#080805;}
	.st84{fill:#A87D7C;}
	.st85{fill:#182052;}
	.st86{fill:#EAEAEA;}
	.st87{fill:#DDDDDD;}
	.st88{fill:#3D4574;}
	.st89{fill:#ABC5F0;}
	.st90{fill:url(#SVGID_20_);}
	.st91{fill:#4159A8;}
	.st92{fill:#E0D0BD;}
	.st93{fill:#3D53AA;}
	.st94{fill:#0A0000;}
	.st95{fill:#BF6D36;}
	.st96{fill:#385DAE;}
	.st97{fill:#E0DCDC;}
	.st98{fill:#857E78;}
	.st99{fill:#0E213C;}
	.st100{fill:url(#SVGID_21_);}
	.st101{fill:#55608E;}
	.st102{opacity:0.3;fill:#F4F2F2;}
	.st103{opacity:0.3;}
	.st104{fill:#213987;}
	.st105{enable-background:new    ;}
</style>
<g id="_Delivery_Location_1_">
	<g id="_Delivery_Location">
		<g>
			<g>
				<path class="st15" d="M273.4655762,28.7257748v139.7496948c0,3.7113953-3.0018616,6.725769-6.7256165,6.725769h-91.6311798
					c-3.7237701,0-6.7256165-3.0143738-6.7256165-6.725769V28.7257748c0-3.7237606,3.0018463-6.7257748,6.7256165-6.7257748
					h91.6311798C270.4637146,22,273.4655762,25.0020142,273.4655762,28.7257748z"/>
				<path class="st0" d="M118.8129501,126.7400284c4.8038406-3.2581177,10.0977707-4.6838913,14.1545181-8.8353729
					c2.6855774-2.7482758,5.4914856-4.2823486,6.3006439-8.038765c0.2440948-1.133194,0.3204041-2.3079987,0.7079315-3.4004822
					c0.3875427-1.0924835,1.1756592-2.1358109,2.299881-2.4184113c4.0585632-1.0202103,7.9528046,2.7448044,11.0652771,5.5422668
					c1.9583282,1.7601318,2.1276703,3.131134-0.1358032,5.6509705
					c-23.0471039,25.6574097-22.5649719,25.491272-24.506546,26.4043274c-2.4536743,1.1539001-5.7008438,0.1875-7.1243286-2.120285"
					/>
				<path class="st11" d="M128.9200134,142.8364563c-0.3166504,0.4941559-2.8498764,2.0013428-6.4217987,1.1398315
					c-1.2412567-0.2913055-2.6218185-0.8738861-4.0784531-1.8869324c-5.6109924-3.9142456-7.7895279-8.6764069-7.7895279-8.6764069
					c-1.4234467-39.7489243-0.9325027-26.0394745-1.0387039-29.005249c0,0,6.8902817,1.4441071,14.6674423,18.8723679
					C132.0358276,140.7213135,129.274704,142.2792206,128.9200134,142.8364563z"/>
				<path class="st10" d="M122.4982147,143.9762878c-1.2412567-0.2913055-2.6218185-0.8738861-4.0784531-1.8869324
					c-5.6109924-3.9142456-7.7895279-8.6764069-7.7895279-8.6764069l-0.2407379-6.814209l7.1056671-3.0397415
					c2.3558731,5.2816696,4.0150528,10.879982,4.9017792,16.5920944
					C122.5996399,141.4053345,122.7262726,142.7603912,122.4982147,143.9762878z"/>
				<path class="st0" d="M109.5915298,104.4076996c0,0-1.6720123,4.5215759-1.9506302,4.5215759
					c-0.2659378-0.0507126-6.3203735,0.886879-6.3203735,0.886879s-6.3710861-1.2919693-2.6725311-4.546936
					c3.7096176-3.2767868,3.3109512-8.4495468,3.331192-8.5496216c0,0,7.2703323-0.849144,6.9663544,1.5572891
					C108.6635361,100.7037048,109.5762024,104.3077011,109.5915298,104.4076996z"/>
				<path class="st3" d="M109.1102066,101.8998337c-1.262291,0.1074295-4.5430298-0.5959167-7.3462448-2.4194183
					c0.2912979-1.5832672,0.2152252-2.7608185,0.2152252-2.7608185s7.2703323-0.849144,6.9663544,1.5572891
					C108.8189163,99.3666153,108.932869,100.7346573,109.1102066,101.8998337z"/>
				<path class="st3" d="M98.9710922,91.7070007c-1.3078461,1.0506668-3.1195602,1.435524-4.7462769,1.0254669
					c-2.018898-0.5089111-3.7004013-2.3271866-3.8381882-4.4046783c-0.1377869-2.0774841,1.4430847-4.190834,3.5087509-4.4514847
					c-0.7927246-2.4080811,0.0510788-5.2659225,2.0246658-6.8572159c1.9735794-1.591301,4.9453506-1.809967,7.1305923-0.5246735
					c3.2816544-5.6201019,11.7614975-4.3263626,11.3411255,3.1069031c-0.2540894,4.4930038-3.3099442,7.2877197-6.473175,7.3126602"
					/>
				<path class="st25" d="M126.0092468,255.9194946l6.1532745,15.231781
					c1.6842957,4.1771851,38.0990448,3.1123047,38.0053253-2.9554443c-0.0684204-4.4491577-2.002655-25.7277527-2.002655-25.7277527
					c-1.8447418,0.3614807-9.5867767,1.1651001-19.9689331,5.0816345L126.0092468,255.9194946z"/>
				<path class="st11" d="M153.2964783,245.767395c1.3972473-0.3385925,5.8662415-1.1504517,7.2213593-0.6738739
					c1.0172424,0.3577576,1.3196716,1.3869019,0.5264435,2.2134705c-0.4925842,0.5132751-5.3497162,3.6453247-8.597229,2.088501
					c-1.1872253-0.5691376-2.1012115-1.8024597-2.0463715-3.1179199"/>
				<path class="st11" d="M184.2581635,252.6375122c1.1798553,2.6598053,1.6703186,5.146698,1.5479889,6.4952698
					c-0.3412476,4.0451355-11.8329926,15.4064026-31.6187439,17.9042969
					c-16.9402771,2.1332092-19.0346375,0.0563354-19.0346375,0.0563354c-1.5863647-0.9237366-2.990921-5.9429321-2.990921-5.9429321
					c21.6207886,2.2102966,33.5199738-4.5507202,33.5199738-4.5507202
					c-2.6557922-2.4801025-5.1337738-8.8432007-4.3372955-14.5537109c1.154953-8.2435608,6.8221283-9.5797272,6.8221283-9.5797272
					C175.618103,241.4654083,181.2649841,245.8822632,184.2581635,252.6375122z"/>
				<path class="st25" d="M183.3565216,250.844162c0.3401489,0.6014709,0.6403351,1.2036133,0.9016418,1.7933502
					c-3.4944153,6.5404968-18.5763397,13.9622498-18.5763397,13.9622498l-1.1312103-1.3010559
					C176.7763824,259.0997314,181.950882,252.8083191,183.3565216,250.844162z"/>
				<path class="st15" d="M154.2141876,246.1536407c-6.6370239,13.6036835-27.6754074,10.4878693-27.6754074,10.4878693
					c-0.3852768-0.9427643-29.0637665-71.1401062-27.2321243-66.6615448
					c-0.908493-5.0357056-9.0880966-50.4271545-8.562294-47.5232391l-1.0005188-5.5352325l25.3954468-2.4064484
					c0.0149765,0.1009521,1.0093689,5.7932892,1.2792892,8.9293671c0.0505524,0.6079407,0.4432755,1.9252625,1.1399765,3.7744751
					c2.4191132,6.4851837,8.5496216,19.6707916,16.5798874,33.0462799
					C144.4486694,197.46521,154.2141876,246.1536407,154.2141876,246.1536407z"/>
				<path class="st3" d="M117.1024399,233.551239l-13.05867-31.9695435
					c1.8113174-16.5543823,4.167038-34.6289215,5.7629852-33.2101746
					c2.8879089,2.5585785,7.2197647,22.6344757,8.7271118,37.4534454
					C119.5470657,215.7549896,118.1411438,227.1297455,117.1024399,233.551239z"/>
				<path class="st25" d="M47.9788628,208.9199829l-14.7140579,5.6580658
					c-4.0351543,1.5486298-3.6013031,36.5053406,2.2221375,36.513382c4.2700157,0.0061951,24.717804-1.5061493,24.717804-1.5061493
					l-1.1990623-9.8760071L47.9788628,208.9199829z"/>
				<path class="st11" d="M54.5180779,233.1268158c-0.2676926,2.488678-0.0881348,5.0247803,0.5275269,7.4509125
					c0.8452988,3.3310547,3.6241493,3.2563477,3.7566414-0.1366425c0.1145058-2.9324188-0.3693886-5.8869171-1.4133682-8.6295929"/>
				<path class="st15" d="M108.3756332,212.1963654c-3.6226425,7.2192993-17.4032135,13.3247528-17.4032135,13.3247528
					l-31.9692307,14.1856689c-11.6021957-11.8299408-11.0196037-30.7913666-11.0196037-30.7913666l32.6532478-13.8820038
					c-3.5466843-25.3234406-2.6460266-31.9964752-2.7359161-44.8378754
					c-0.0126801-4.9650116-0.0760727-9.5249329-0.0760727-9.5249329
					c41.6239014,14.3200836,27.2677689,9.381073,30.3734436,10.4495239l3.2044067,1.1021118
					c-2.8752289,3.4578094-1.1905441,11.0951996,0.6713409,23.5207214
					C113.7167206,186.7171478,113.1840286,202.5795746,108.3756332,212.1963654z"/>
				<path class="st11" d="M50.1874733,264.8621216c-2.5710983,1.0891113-4.965168,1.5195618-6.2571335,1.3804016
					c-3.8757477-0.3927307-14.5912209-11.602356-16.6684799-30.6268616
					c-1.7732849-16.2884369,0.2532597-18.2644196,0.2532597-18.2644196
					c0.9119225-1.5072021,5.7504597-2.7738037,5.7504597-2.7738037c-2.4698277,20.709198,3.8251877,32.2354736,3.8251877,32.2354736
					c2.4225082-2.5081482,8.5678482-4.78302,14.0341415-3.9266052c7.8909569,1.2412415,9.0814972,6.7004089,9.0814972,6.7004089
					C61.0464706,256.7524414,56.7173843,262.0992432,50.1874733,264.8621216z"/>
				<path class="st3" d="M101.7386017,147.9158936c0,0-2.2165604,30.8414612-5.4971924,36.8201294
					c-2.8371964,5.1548767-12.0708389,4.9396515-16.3391495,4.8382263
					c-1.8618851-14.6798096-2.1912155-23.9004669-2.0393829-29.4864044l5.2059021-9.9807434
					c0,0,9.7781982-8.4228363,10.1455612-8.4228363C93.480278,141.7727051,101.7386017,147.9158936,101.7386017,147.9158936z"/>
				<path class="st3" d="M117.5585556,147.2188873c-2.9893341,1.583252-6.1305084,2.8882141-9.3602676,3.9012451
					c-7.4585876,2.3957062-19.1990204,3.9011536-26.2569656,1.2919769c-1.4534912-0.5324249-2.7537079-1.2201385-4.0404053-2.216568
					c-0.0126801-4.9650116-0.0760727-9.5249329-0.0760727-9.5249329l13.4261932,4.6230011
					c-0.0180283-0.1001282-1.6085663-8.9352264-1.5071945-8.3721161l25.3954468-2.4064484
					c0.0149765,0.1009521,1.0093689,5.7932892,1.2792892,8.9293671
					C116.4691315,144.0523529,116.8618546,145.3696747,117.5585556,147.2188873z"/>
				<path class="st25" d="M51.9227257,264.0259399c-0.582592,0.3166504-1.165184,0.5949707-1.7352524,0.8361816
					c-6.2190971-3.4584351-13.0967064-18.0492096-13.0967064-18.0492096l1.2666092-1.0643616
					C44.1078377,257.5791016,50.0608444,262.6455383,51.9227257,264.0259399z"/>
				<path class="st11" d="M119.0911026,123.0141296c-0.3270035,13.9829865-2.8563995,17.5564117-2.8752289,17.6564789
					c-0.0380325,0.0129852-0.0760727,0.0253448-0.1139526,0.050705c-8.5907669,3.6541901-35.5518723,1.0422058-35.6551056,1.0384064
					c0.0697784-0.8148346,0.9139481-23.5104218,5.7377777-31.8421402
					c4.8764191-8.3851089,13.1599426-7.0170746,13.1599426-7.0170746c8.9043121,3.7998352,10.246994,1.5071945,10.246994,1.5071945
					S119.3824005,109.2082062,119.0911026,123.0141296z"/>
				<path class="st3" d="M103.4863815,119.5563126c-1.4311218,3.7868423-17.9350891,14.376152-22.7609482,17.4029007
					c0.3039703-4.0781403,0.8740387-10.1706085,1.9379501-15.7819138l5.4591599-4.1795654
					C88.1225433,116.9977341,105.1710663,115.1355438,103.4863815,119.5563126z"/>
				<path class="st15" d="M85.4753723,138.8840027c0,0,16.256897-10.1921997,16.3316803-19.3271179
					s-5.1957245-15.8425293-17.0634155-10.5852127s-22.2010498,24.4384232-22.2010498,24.4384232l-5.3479652-1.8682098
					c0,0,23.6135597-27.7913437,34.7447777-29.943512c11.8718185-2.2953491,16.0282974,8.1310043,16.8830338,11.6044998
					c0.8547363,3.4734879-2.4084244,16.5261459-16.1862259,26.2249985"/>
				<path class="st7" d="M103.4358215,142.8871765l-4.8890991,22.8243408l-0.2153778,1.0006714l-3.331192,15.5790558
					c-0.2532578,1.2412567-1.4818344,2.0267029-2.7230911,1.7483978l-54.6163826-12.1595917
					c-1.2285728-0.2789154-2.0138664-1.5071869-1.7225685-2.7360687c2.2327118-9.7475739,8.41325-36.7305145,8.9675446-39.151123
					c0.2787704-1.2282715,1.4946671-1.9883575,2.7107201-1.7224121l54.0715141,11.9060059
					C102.9164658,140.4423981,103.7017593,141.6582947,103.4358215,142.8871765z"/>
				<circle class="st19" cx="50.1217537" cy="160.8517303" r="3.7819147"/>
				<circle class="st19" cx="88.1210327" cy="169.4286652" r="3.7819147"/>
				<polygon class="st8" points="98.5467224,165.7115173 98.3313446,166.7121887 39.4846802,153.6663513 39.750618,152.4881744 				
					"/>
				<path class="st0" d="M69.8394775,119.4571152c3.1494675,1.8203201,4.732132,5.9674911,3.5961533,9.4232407
					c-0.4009552,1.2197418-1.0838776,2.3296814-1.4613037,3.5572662c-0.3682175,1.1976318-0.1492081,1.8062134,0.1486893,2.9175568
					c0.7184143,2.6801453,0.9997559,5.6223297,1.5602798,8.3567047c0.8278503,4.0370331,1.3171616,8.1503296,1.9710464,12.2177277
					c0.2713165,1.6877289,0.2447662,4.2108154,0.9767914,5.7470703c0.5028687,1.0553436,2.095932,1.9004364,2.9822464,2.6211243
					c1.2184753,0.9907837,2.4369507,1.9815674,3.655426,2.9723511c0.7139511,0.5805359,1.5072403,1.396286,1.2403336,2.2769165
					c-0.2508316,0.8275452-1.3442154,1.1112366-2.168457,0.8497467c-1.3135071-0.4167023-2.2460709-1.821167-3.4335022-1.9354401
					c-0.4601974-0.044281-0.9691925,0.1494598-1.1777725,0.5620575c-0.2540436,0.5025177,0.0027771,1.1014557,0.2573776,1.6036835
					c1.868454,3.6858215,4.2873764,6.9228058,4.0282135,8.2072296c-0.1771469,0.8779297-1.2270813,1.3452301-2.1115417,1.2042542
					s-1.6297379-0.7148132-2.3328629-1.269577c-0.0828171,1.1443024-1.0192184,2.1710205-2.1510773,2.358551
					s-2.34935-0.4822998-2.7968063-1.5387421c-1.0291672,1.2723999-3.4738541,0.7328186-3.8718338-0.8545685
					c-1.0244904,0.3364105-2.1570587-0.3531647-2.6976242-1.2861786c-1.1407852-1.9689484-0.4055176-4.5908356-0.3372803-6.7384338
					c0.1917114-6.0334778-0.697876-8.5965424-2.8551636-13.62854c-7.2328415-16.8710632-5.8979721-12.7916718-7.726696-23.0664368
					c-0.2531662-1.4224243-0.4431877-2.7496796-0.2556419-4.2030487
					C55.7474289,123.0776901,63.273571,115.6621628,69.8394775,119.4571152z"/>
				<path class="st11" d="M59.7050171,121.0788956l13.4113922,12.0134659
					c1.2526245,1.1220551,3.1182938,1.2073364,4.4597244,0.1931152c2.6956329-2.0381165,7.8332596-5.34552,15.2155914-7.6365509
					c11.3698807-3.528511,14.1069031-9.1704254,11.4626465-14.9607849
					c-2.6442642-5.7903595-7.3812103-8.1582489-16.5742264-4.223465
					C78.4871292,110.3994522,61.7335854,117.5656204,59.7050171,121.0788956z"/>
				<path class="st0" d="M113.2140121,83.8883667c-0.0126801,0.0383453-0.0251999,0.0890579-0.0378799,0.1267853
					c-0.1141052,0.481163-0.3293304,0.9245987-0.4814682,1.4057617c-1.0512314,3.3440247,1.2666092,7.1061325,0.1014252,10.4241791
					c-1.3258667,3.7416458-6.5887985,5.4486694-11.4604645,2.3216324c-1.5270691-0.9802017-2.1943207-2.9439926-2.2823792-4.791153
					c0-0.2028503-0.1012726-1.3556671,0.0760651-1.4818344c-0.8231659,0.5442505-2.0392227,0.3290253-2.6346436-0.4564209
					c-1.0714417-1.4126358,0.2436142-3.595253,2.0647354-3.014389c0.2191238,0.1075668,0.4871674,0.1319733,0.8231735,0.4687958
					c0-0.1354599-0.1468582-1.173912-0.0126801-2.2295532c0.3800812-3.1465912,2.9518814-2.5115585,3.670166-4.6568756
					c0.1435852-0.4288483,0.5034714-0.765625,0.9531326-0.8138351c3.4190445-0.3666153,5.7282181,0.2374115,8.435524,1.1389999
					C113.2393723,82.5840302,113.4040375,82.9891205,113.2140121,83.8883667z"/>
				<path class="st27" d="M116.1019058,140.7212067c2.5913391-6.8703613,2.0095291-11.7046509,2.8433838-21.1645508
					c0.1877441,1.7944336,0.2125244,3.5942383,0.2218018,5.3925781
					C119.203476,130.3392639,118.8347549,136.0864105,116.1019058,140.7212067z"/>
				<path class="st85" d="M146.9934845,96.3612976l9.4300995,14.8708878
					c0.4888458,0.7709122,0.2553711,1.7834778-0.5078278,2.2674255l-7.8729706,5.0594482
					c-0.7709198,0.4888458-1.7786713,0.2633591-2.2675171-0.5075455l-9.4300995-14.8708878
					c-0.4888458-0.7709122-0.2630768-1.7785873,0.5078278-2.2674255l7.8729706-5.0594482
					C145.4891663,95.3698044,146.5046387,95.5903854,146.9934845,96.3612976z"/>
				<path class="st20" d="M147.5538635,117.7882462c-0.345932,0.2193604-0.7883148,0.1201477-1.0075684-0.2256012
					l-9.4300842-14.8708801c-0.2192535-0.3457489-0.1203461-0.7882004,0.2255859-1.0075607l7.8729706-5.0594482
					c0.3402863-0.2157745,0.7924042-0.1145477,1.0079498,0.2253647l9.4300842,14.8708878
					c0.2155457,0.3399048,0.1143188,0.7920151-0.2259521,1.0077896L147.5538635,117.7882462z"/>
				<path class="st0" d="M139.4561768,109.2818909c-0.187439-1.8522949,0.0009308-5.7424393,1.7801971-6.300766
					c0.8925018-0.2800674,1.8718109,0.3795013,2.2365417,1.2408829c0.3647308,0.8613739,0.254425,1.8471222,0.0457458,2.7589569
					c-0.4746399,2.0740356-0.6245117,4.3880081-1.9663696,6.0391693"/>
				<path class="st0" d="M156.249939,106.8083649c0.1347198,0.7921524-0.428833,2.4468384-0.8831787,3.1960526
					c-0.8558044,1.4111786-2.5206909,0.3934937-1.999115-0.7544937c-0.0925903,0.5262527-0.7913818,0.7799072-1.2711945,0.544754
					c-0.4798279-0.2351532-0.7224884-0.8033066-0.7244873-1.3376389c-0.0020294-0.5399857,0.2443085-0.9919586,0.3471375-1.5015335
					c-0.2193604,0.2704468-0.3579102,0.6051865-0.634201,0.8439789c-0.6085052,0.4867859-1.3177338,0.3744125-1.6186981-0.6559753
					c-0.2498016-0.874115-0.2140045-1.8340759,0.0920563-2.6963882c-0.1131287,0.2937775-0.2312469,0.6044312-0.4424133,0.8512115
					c-0.4798889,0.5588226-1.1537781,0.5190506-1.5227966-0.0875397c-0.4243927-0.6976013-0.6691895-2.8197327,0.2722626-4.9000168
					c0.2655334-0.5867081,0.624649-1.3238907,1.1078491-1.7649155c0.7200928-0.6572266,2.2454224-0.0640106,2.3689728,1.6817017
					c0.0382538,0.5422668-0.0424652,1.0786972-0.1345978,1.620697c0.1043549-0.519783,0.6985016-0.8325882,1.2024689-0.7046967
					c0.8131866,0.1764297,1.4042816,1.2297821,0.7937317,2.5986557c0.279892-0.3848419,0.8900452-0.4318542,1.2865601-0.1580124
					c0.3902588,0.2624588,0.5848694,0.7476273,0.6152344,1.2229462c0.0297852,0.4749146-0.0877686,0.9440842-0.2051544,1.4138718
					C155.2037048,105.7802734,156.0404053,105.870079,156.249939,106.8083649z"/>
				<path class="st3" d="M106.9494247,95.5275345c-0.6661835-0.3988037-1.0242538-1.269455-0.7465134-1.9895401
					c1.2669754-0.047821,2.533989-0.0924606,3.8010101-0.13694
					C110.1654205,95.1564407,108.2952499,96.3349457,106.9494247,95.5275345z"/>
				<path class="st19" d="M109.9422684,94.157814c-0.7574844,0.366066-2.3458786,0.5282211-3.8318253-0.0170517
					c-0.0102768-0.2021484,0.0171432-0.4074783,0.0924683-0.6027679c1.2669754-0.047821,2.533989-0.0924606,3.8010101-0.13694
					C110.0278702,93.6613922,110.0073471,93.9147034,109.9422684,94.157814z"/>
				<ellipse class="st3" cx="104.9534912" cy="88.9695816" rx="0.6381047" ry="0.8773315"/>
				<path class="st3" d="M105.3228149,88.0123444c-0.4036636-0.075737-0.9903564,0.0108871-1.2276535,0.2823486
					c-0.0643234,0.0735779-0.1903534,0.2977982-0.016861,0.3132019c0.1261749,0.0112076,0.309967-0.1218262,0.4330368-0.158844
					c0.8463211-0.2545853,1.2714462,0.1153793,1.3965073,0.0634613
					C105.9553757,88.4927826,105.9827194,88.1361618,105.3228149,88.0123444z"/>
				<ellipse class="st3" cx="109.9212875" cy="89.024231" rx="0.6381047" ry="0.8773315"/>
				<path class="st3" d="M110.9133224,88.4317169c-0.1075058-0.3659668-0.9708939-0.4974213-1.5228195-0.2893372
					c-0.4587708,0.1729813-0.5061646,0.5057983-0.3444138,0.5201721c0.1261749,0.0112076,0.309967-0.1218338,0.4330368-0.1588516
					c0.8463211-0.2545853,1.2714462,0.1153793,1.3965149,0.0634613
					C110.8875198,88.562233,110.9278259,88.4810867,110.9133224,88.4317169z"/>
				<path class="st3" d="M108.7839966,92.192955c-0.0350494,0.140213-0.1724319,0.2359695-0.3139267,0.2653885
					c-0.1807327,0.0375671-0.1268997,0.0326233-1.9019089-0.2696152c-0.3850784-0.0655746-0.3466721-0.3912888,0.0456543-0.3312683
					c0.4201508,0.0642853,0.8402939,0.1285629,1.260437,0.1928482c0.4089584,0.0625687,0.590004-0.0825729,0.4392014-0.482132
					c-0.9424973-2.4972-0.9158325-2.3782806-0.9087448-2.5223083c0.0047379-0.0963593,0.0705719-0.2430344,0.1721268-0.2041397
					C107.717598,88.8956223,108.8837204,91.7939758,108.7839966,92.192955z"/>
				<path class="st3" d="M106.1682663,86.2413559c0.1372604,0.0086212,0.2972794,0.0325775,0.3633881,0.153183
					c0.0597992,0.1090775,0.0072174,0.2526093-0.087265,0.333519c-0.2558136,0.2190704-1.5390854,0.3235474-1.8731232,0.3457336
					c-0.4965057,0.0329742-1.1003876,0.1334229-1.5914841,0.0409317c-0.4428787-0.0834198-0.4395828-0.4408035-0.1076813-0.679863
					c0.3730621-0.2687225,0.9736023-0.2048264,1.41008-0.2199326
					C104.9108047,86.1931686,105.5404816,86.2019348,106.1682663,86.2413559z"/>
				<path class="st3" d="M111.8205719,86.1039886c0.1372604,0.0086136,0.2972794,0.0325775,0.3633957,0.1531754
					c0.0597916,0.1090851,0.0072098,0.2526093-0.0872726,0.333519c-0.3393631,0.2906189-2.9827042,0.4774246-3.4646072,0.3866653
					c-0.4428787-0.0834122-0.4395828-0.4407959-0.1076813-0.679863c0.3730698-0.2687149,0.9736023-0.2048264,1.4100876-0.2199326
					C110.5631104,86.0557938,111.1927872,86.0645676,111.8205719,86.1039886z"/>
				<path class="st3" d="M98.5405884,90.8512573c-0.0500641-0.4987564-0.1001282-0.9975128-0.1501999-1.4962692
					c-0.3289108-0.0231171-0.7311707,0.2426682-0.8489838,0.550621
					C97.3049316,90.5237503,97.9825439,91.24543,98.5405884,90.8512573z"/>
				<path class="st19" d="M269.665741,30.9059601v133.7541656c0,3.7113953-3.0018616,6.7257843-6.7256165,6.7257843h-85.6356659
					c-3.7237549,0-6.7256165-3.014389-6.7256165-6.7257843V30.9059601c0-3.7237606,3.0018616-6.7257748,6.7256165-6.7257748
					h85.6356659C266.6638794,24.1801853,269.665741,27.1821995,269.665741,30.9059601z"/>
				<path class="st19" d="M265.8659058,34.4905663v126.5849457c0,3.5975952-2.9131165,6.5105591-6.5104065,6.5105591h-78.4664307
					c-3.59729,0-6.5103912-2.9129639-6.5103912-6.5105591V34.4905663c0-3.5969753,2.9131012-6.5105515,6.5103912-6.5105515
					h78.4664307C262.9527893,27.9800148,265.8659058,30.8935909,265.8659058,34.4905663z"/>
				<path class="st1" d="M265.8659058,34.4905663v18.6447754l-54.768219,14.2240105l-10.2721863-39.3793373h58.5299988
					C262.9527893,27.9800148,265.8659058,30.8935909,265.8659058,34.4905663z"/>
				<path class="st1" d="M206.2339478,68.4107361l-31.8552704,8.5749741V34.4905663
					c0-3.5969753,2.9131012-6.5105515,6.5103912-6.5105515h14.6294098L206.2339478,68.4107361z"/>
				<polygon class="st1" points="264.802002,59.2655373 238.3424988,124.2046738 174.3786774,105.0663605 174.3786774,82.9260406 
									"/>
				<path class="st1" d="M236.4931335,129.1443329l-15.3765106,38.4417419h-40.2275543
					c-3.59729,0-6.5103912-2.9129639-6.5103912-6.5105591v-50.6644058L236.4931335,129.1443329z"/>
				<path class="st1" d="M265.8659058,137.390274v23.6852417c0,3.5975952-2.9131165,6.5105591-6.5104065,6.5105591h-32.9572144
					L241.5215454,130.5L265.8659058,137.390274z"/>
				<polygon class="st1" points="265.8659058,71.0323944 265.8659058,131.8550415 243.6748657,125.5980682 				"/>
				<g>
					<path class="st15" d="M257.6901245,106.8682632l-5.2117462,8.2137222l-5.2101135-8.2105026
						c-2.3519135-4.1376419,0.8769379-8.4359665,5.2101135-8.4359665h0.0000153
						C256.8099976,98.4355164,259.7798462,103.1805573,257.6901245,106.8682632z"/>
					<circle class="st20" cx="252.4783783" cy="104.2466888" r="3.2014837"/>
				</g>
				<g>
					<path class="st15" d="M190.7088928,160.3614044c-6.0869141,0-11.0390625-4.9521484-11.0390625-11.0395508
						c0-6.0869141,4.9521484-11.0390625,11.0390625-11.0390625s11.0390625,4.9521484,11.0390625,11.0390625
						C201.7479553,155.409256,196.7958069,160.3614044,190.7088928,160.3614044z M190.7088928,139.2827911
						c-5.5356445,0-10.0390625,4.503418-10.0390625,10.0390625s4.503418,10.0395508,10.0390625,10.0395508
						s10.0390625-4.5039063,10.0390625-10.0395508S196.2445374,139.2827911,190.7088928,139.2827911z"/>
				</g>
				<g>
					<path class="st15" d="M196.3797913,141.022049c-0.253418-0.1103516-0.3691406-0.4052734-0.2587891-0.6582031
						c4.2163086-9.6733398,11.59375-17.8686523,20.7724609-23.0751953l0.5014648-0.2827148
						c5.4051056-3.0403748,5.8102112-4.508316,5.5927734-8.9125977c-0.0688477-1.3925781-0.1396484-2.8325195,0.2568359-4.2133789
						c1.7677612-6.1574173,10.1036224-6.6722183,12.5664063-11.8754883
						c1.5249023-3.2197266,0.1499023-7.1855469-0.9550781-10.3725586
						c-2.7268219-7.8647079-1.3422089-10.4449844,2.409668-14.2939453c1.6992188-1.7436523,3.3041992-3.3906288,3.4418945-6.1582069
						c0.0141602-0.2753906,0.2553711-0.4887695,0.5244141-0.4746094c0.2758789,0.0136719,0.4882813,0.2485352,0.4746094,0.5244141
						c-0.1567383,3.1450233-1.9707031,5.0063515-3.7246094,6.8061562c-3.4882507,3.5785828-4.7807312,5.7705536-2.1811523,13.269043
						c1.1645508,3.3583984,2.6137695,7.5385742,0.9145508,11.1274414
						c-2.5817108,5.4508209-10.9265442,6.2118835-12.5097656,11.7241211
						c-0.7799835,2.7157974,0.4723206,5.8183975-0.6831055,8.6630859c-1.0484467,2.5804214-3.7233887,3.9822006-6.1357422,5.3393555
						c-8.9916992,5.1005859-16.2182617,13.128418-20.3486328,22.6044922
						C196.9265289,141.0187073,196.6296844,141.1310272,196.3797913,141.022049z"/>
				</g>
				<g>
					<path class="st7" d="M251.0853577,46.9059563l-9.8784027,15.5684166l-9.8753204-15.5623055
						c-4.4578705-7.8425484,1.6621552-15.9896488,9.8753204-15.9896488h0.0000305
						C249.41716,30.9224186,255.0462646,39.9162331,251.0853577,46.9059563z"/>
					<circle class="st20" cx="241.206955" cy="41.9370003" r="6.0681357"/>
				</g>
			</g>
			<g>
				<path class="st2" d="M68.3045959,178.9346466l-1.1113281-5.4311523
					c-0.0992661-0.4846649,0.6345978-0.6387177,0.734375-0.1503906l1.1113281,5.4311523
					C69.1384201,179.2709808,68.4033203,179.4202423,68.3045959,178.9346466z"/>
			</g>
			<g>
				<path class="st2" d="M71.6234436,179.5733185l-1.6103516-5.2607422
					c-0.1457596-0.4734497,0.5709915-0.6947784,0.7167969-0.2197266l1.6103516,5.2607422
					C72.4854736,179.8291168,71.7681885,180.0462494,71.6234436,179.5733185z"/>
			</g>
			<g>
				<path class="st2" d="M77.0340881,179.5913849l-3.0273438-5.2011719
					c-0.2497025-0.4290619,0.399971-0.8047333,0.6484375-0.3769531l3.0273438,5.2011719
					C77.9317474,179.6426697,77.284462,180.02034,77.0340881,179.5913849z"/>
			</g>
		</g>
	</g>
</g>
</svg>
