<?xml version="1.0" encoding="utf-8"?>
<!-- Generator: Adobe Illustrator 22.0.1, SVG Export Plug-In . SVG Version: 6.00 Build 0)  -->
<svg version="1.1" id="Layer_1" xmlns="http://www.w3.org/2000/svg" xmlns:xlink="http://www.w3.org/1999/xlink" x="0px" y="0px"
	 viewBox="0 0 300 300" style="enable-background:new 0 0 300 300;" xml:space="preserve">
<style type="text/css">
	.st0{fill:#EDC1A4;}
	.st1{fill:#E2E0E0;}
	.st2{fill:#D39E81;}
	.st3{fill:#502E26;}
	.st4{fill:#CCCACA;}
	.st5{fill:#426800;}
	.st6{fill:#538705;}
	.st7{fill:#D47E44;}
	.st8{fill:#73341D;}
	.st9{fill:#BC672E;}
	.st10{fill:#96311D;}
	.st11{fill:#B83E21;}
	.st12{fill:#DE8D82;}
	.st13{fill:#EFBAB4;}
	.st14{fill:#FDD5D0;}
	.st15{fill:#6883CE;}
	.st16{fill:#3D4885;}
	.st17{fill:#3859AE;}
	.st18{fill:#864424;}
	.st19{fill:#FEFEFE;}
	.st20{fill:#FFFFFF;}
	.st21{fill:#A55925;}
	.st22{fill:#F4F2F2;}
	.st23{fill:#3C3E68;}
	.st24{fill:#E8997C;}
	.st25{fill:#F5C46B;}
	.st26{fill:#F7EBDA;}
	.st27{fill:#0E0C0D;}
	.st28{fill:#657C3A;}
	.st29{fill:#576C37;}
	.st30{fill:#7C995D;}
	.st31{fill:#36518C;}
	.st32{fill:#96B7E3;}
	.st33{fill:#A3B3DF;}
	.st34{fill:url(#SVGID_1_);}
	.st35{fill:url(#SVGID_2_);}
	.st36{fill:url(#SVGID_3_);}
	.st37{fill:url(#SVGID_4_);}
	.st38{fill:url(#SVGID_5_);}
	.st39{fill:#266AB7;}
	.st40{fill:#060E0D;}
	.st41{fill:#E0D4C6;}
	.st42{fill:#787E42;}
	.st43{fill:#D3D1D1;}
	.st44{fill:url(#SVGID_6_);}
	.st45{fill:url(#SVGID_7_);}
	.st46{fill:url(#SVGID_8_);}
	.st47{fill:#020508;}
	.st48{fill:#BAB6B6;}
	.st49{fill:#0F0B07;}
	.st50{fill:#2F3A68;}
	.st51{fill:#203257;}
	.st52{opacity:0.5;fill:#FFFFFF;}
	.st53{opacity:0.2;fill:#0E0C0D;}
	.st54{fill:#DD9F9B;}
	.st55{fill:#3E4D9B;}
	.st56{fill:url(#SVGID_9_);}
	.st57{fill:#5F6194;}
	.st58{fill:url(#SVGID_10_);}
	.st59{fill:url(#SVGID_11_);}
	.st60{fill:url(#SVGID_12_);}
	.st61{fill:url(#SVGID_13_);}
	.st62{fill:#070102;}
	.st63{fill:#100805;}
	.st64{fill:#FDA465;}
	.st65{fill:#2A50A1;}
	.st66{fill:#B76C39;}
	.st67{fill:#130602;}
	.st68{fill:url(#SVGID_14_);}
	.st69{fill:url(#SVGID_15_);}
	.st70{fill:url(#SVGID_16_);}
	.st71{fill:url(#SVGID_17_);}
	.st72{fill:url(#SVGID_18_);}
	.st73{fill:url(#SVGID_19_);}
	.st74{fill:#B4BDED;}
	.st75{fill:#100D08;}
	.st76{fill:#F6C85F;}
	.st77{fill:#FECF00;}
	.st78{fill:#2D59E2;}
	.st79{fill:#121F3A;}
	.st80{fill:#BBD0F5;}
	.st81{fill:#020202;}
	.st82{fill:#E2CFB7;}
	.st83{fill:#080805;}
	.st84{fill:#A87D7C;}
	.st85{fill:#182052;}
	.st86{fill:#EAEAEA;}
	.st87{fill:#DDDDDD;}
	.st88{fill:#3D4574;}
	.st89{fill:#ABC5F0;}
	.st90{fill:url(#SVGID_20_);}
	.st91{fill:#4159A8;}
	.st92{fill:#E0D0BD;}
	.st93{fill:#3D53AA;}
	.st94{fill:#0A0000;}
	.st95{fill:#BF6D36;}
	.st96{fill:#385DAE;}
	.st97{fill:#E0DCDC;}
	.st98{fill:#857E78;}
	.st99{fill:#0E213C;}
	.st100{fill:url(#SVGID_21_);}
	.st101{fill:#55608E;}
	.st102{opacity:0.3;fill:#F4F2F2;}
	.st103{opacity:0.3;}
	.st104{fill:#213987;}
	.st105{enable-background:new    ;}
</style>
<g id="Delivery_Boy_1_">
	<g id="Delivery_Boy">
		<g>
			<g>
				<ellipse class="st13" cx="171.6509705" cy="266.9533081" rx="96.7313309" ry="11.0466919"/>
				<g>
					<path class="st7" d="M120.0767517,71.6125565c0,0-14.3197784,10.7392349-13.939476,17.8483124
						c0.3802948,7.1090851,5.58461,12.9004211,22.5358047,15.0603714s13.2990417-27.3690491,13.2990417-27.3690491
						L120.0767517,71.6125565z"/>
					<path class="st1" d="M156.0198822,52.6303825c0,0-12.8101196-1.4665413-35.9431305,18.9821739
						c0,0,11.4208832,16.5186615,17.3973083,16.4172897C143.4504852,87.9284668,156.0198822,52.6303825,156.0198822,52.6303825z"/>
					<path class="st7" d="M154.8427887,54.1374855c0,0,1.5690613-6.6863289,1.1770935-10.0791931
						s6.9173279-2.0785027,6.9173279-2.0785027l4.790741,6.3891029l1.3297272,12.1703949l-8.3960266-0.7599869l-3.8955994-3.2329521
						"/>
					<path class="st3" d="M161.5975494,42.6160316c-0.7169037,0.884037-1.4568787,1.7880974-2.4432678,2.3560143
						c-1.2520447,0.7208786-2.5921021,0.6775665-3.6344299-0.3042374c-1.6783447-1.5808907-3.1611481-4.5484085-3.9990082-6.6839981
						c-1.1236115-2.8639412,0.6270294-7.0688019,4.3116608-8.5361366c2.7699585-1.1030827,4.5203857,0.2393131,5.6747437,2.962471
						C162.8928833,35.6789055,163.833786,39.8584824,161.5975494,42.6160316z"/>
					<g>
						<path class="st7" d="M196.0603027,237.0472565c3.6942749-0.5382538,7.281189-2.7717896,11.0083771-3.1737823
							c3.0849915-0.3326874,12.3861847-8.2221832,15.8998718-7.1477814
							c5.1245575,1.5669708,8.8733215,11.0310974,8.8733215,11.0310974
							c-5.8510284,4.9314728-20.8417511,10.3524323-28.3024597,9.721817
							c-1.306366-0.1104889-2.6165466-0.5289459-3.8984222-0.6027832
							C198.6260834,245.9014282,196.4686279,238.3734436,196.0603027,237.0472565z"/>
						<path class="st1" d="M258.6711121,248.1277924c1.0081482,1.6741943,1.620636,3.7314148,1.1676025,5.6764221
							c-0.794281,3.4082794-3.5044556,4.9529877-5.6966705,7.3253021
							c-12.0268707,8.8417358-26.7496185,11.4253845-41.3373718,11.9543457
							c-9.3282166,0.3381958-17.7193451,0.9753418-17.574295-5.3936768
							c0.0258789-1.1358948,0.4434967-3.4279785,0.9183502-4.3262939
							C196.6414185,264.2813416,248.8628082,253.6234131,258.6711121,248.1277924z"/>
						<path class="st11" d="M258.6733398,248.1267242c-4.995285,8.6336212-17.8836365,13.8718109-27.2699585,16.3488617
							c-6.3523102,1.670929-27.8447418,4.0947266-33.3378601,0.953949
							c-0.9243622-0.5213928-1.4221039-1.1495667-1.9139862-2.0679321
							c-0.1955109-0.3613586-0.0177917-1.4519043-0.0059204-1.9081726c0.0177917-0.7760315,0.5451813-5.4812622,1.1259613-6.9033661
							c0.9658051-2.3702698,2.4590912-5.013092,2.3702698-7.6735687c1.279892,0.0708771,2.589447,0.4915771,3.8989868,0.6041412
							c7.4604797,0.6281433,22.1798401-4.6219177,28.0284882-9.5519714l0.2725525-0.171875
							c-0.1010284,0.0622864,1.072525,1.8656158,1.1970062,2.020462c1.6164703,1.9013367,5.0676575,4.0828552,7.5197144,4.0354156
							c5.6077423-0.0494537,9.831665-5.9667053,15.4244843,0.42099
							C257.0497131,245.4601746,257.6897583,246.9002075,258.6733398,248.1267242z"/>
						<path class="st1" d="M233.4654999,240.2396088c-2.4429932,1.5899811-3.9527283,3.5552368-6.8559723,5.6293945
							c-0.2489014,0.171875-0.319931,0.2962952-0.5392609,0.0474548c-0.1481323-0.1660767-0.2547607-0.4742279-0.2073059-0.6932526
							c0.0591736-0.2667694,0.3435974-0.5630646,0.5095215-0.7705231c1.7303314-2.1214294,3.9761047-3.8337402,6.4827271-4.9419098
							C232.9611359,239.6800385,233.062561,239.8366699,233.4654999,240.2396088z"/>
						<path class="st1" d="M235.7410126,242.0766296c-0.1066132,0.0946198-0.2133179,0.1956024-0.3140717,0.3020782
							c-4.4459229,4.2935638-5.9782104,7.4536591-6.7315674,7.9996643
							c-0.3725128,0.2646942-0.7826385,0.2757721-1.0310516,0.1423492h-0.0059357
							c-0.3673859-0.1898041-0.5095978-0.6637421-0.4503632-1.066803c0.0651855-0.4088287,0.2962952-0.7644348,0.5274048-1.1078796
							c1.8488007-2.7200775,3.9998322-5.2324066,6.4234772-7.448761
							C234.7204742,241.3934937,235.2424774,241.7558594,235.7410126,242.0766296z"/>
						<path class="st1" d="M237.3231201,242.9594116c-3.9563293,8.1663055-3.7546539,7.8652039-4.0589905,8.0766296
							c-0.2133942,0.1542053-0.5511322,0.1718597-0.7170563-0.0353088c-0.201355-0.2629089-0.0463409-0.7663116,0.1185455-1.4105225
							c0-0.0525513,0.145813-0.571701,0.1600037-0.6220856c0-0.006073,0-0.0118561,0.0058594-0.0176544
							c0.6696167-2.3939972,1.789566-4.6517029,3.2532654-6.6605988
							C236.4757996,242.5268402,236.890564,242.752243,237.3231201,242.9594116z"/>
						<path class="st1" d="M239.5986328,243.7238464c-0.3437347,1.605835-0.7940826,3.1879425-1.3332672,4.7286682
							c-0.1303558,0.3735504-0.2784882,0.7586517-0.562912,1.0251312c-0.3641357,0.3345642-0.9681854,0.3901825-1.2385254-0.0355835
							c-0.2073822-0.3257904-0.1244202-0.8176727-0.0059357-1.2146454c0.9033661-2.9565277,1.7867126-3.7357941,2.1806946-4.7405396
							c0.0295715,0.006073,0.0592346,0.0176392,0.0948181,0.0295105c0.0414581-0.059021,0.082901-0.1183472,0.1184845-0.1776581
							l0.2725677,0.2844238C239.2845612,243.6645355,239.4386292,243.700119,239.5986328,243.7238464z"/>
					</g>
					<g>
						<path class="st7" d="M80.5306854,173.117569c-1.3401794,3.4844513-1.1497498,7.7056274-2.6248398,11.1520233
							c-1.2209473,2.8525543,1.1017151,14.8259277-1.5559692,17.3630524
							c-3.8761292,3.7003021-13.9634399,2.3331146-13.9634399,2.3331146
							c-1.4336319-7.5165558,1.1825485-23.2411957,5.3865662-29.4368439
							c0.7361908-1.0848236,1.7427216-2.0221252,2.4349594-3.1035614
							C71.5545731,171.0177917,79.174469,172.8240051,80.5306854,173.117569z"/>
						<path class="st1" d="M40.2037811,222.2768402c-1.9534149,0.0589294-4.0469704-0.4146881-5.5208054-1.7623444
							c-2.582428-2.3618317-2.6017418-5.4812622-3.5962639-8.5544434
							c-1.8178558-14.8161316,3.1407585-28.9174194,9.8245926-41.8946686
							c2.0202751-3.9224701,4.0253258-7.9289551,6.7589035-11.4168243c2.7276192-3.4826965,7.6529617-1.7873535,9.8733406,1.6563568
							C56.5023613,160.2850952,40.2165565,211.0338593,40.2037811,222.2768402z"/>
						<path class="st11" d="M40.2036095,222.2793121c-5.0804253-8.583786-3.3346367-22.3859863-0.8968353-31.7825775
							c1.6545448-6.3565979,10.0682793-26.2816772,15.4970284-29.5324402
							c0.9073219-0.5505219,1.698761-0.6767883,2.7403412-0.6558228c0.4108353,0.006546,1.2745438,0.6956177,1.6665421,0.9294586
							c0.6678391,0.3955994,4.5117302,3.1600037,5.4671097,4.3628845c1.5934448,2.0029755,3.166153,4.5993195,5.5291672,5.8249664
							c-0.6886902,1.0811462-1.6968842,2.0167999-2.4364243,3.1033936
							c-4.2017555,6.1966553-6.8340187,21.6009979-5.400444,29.1147919l0.0163422,0.3217926
							c-0.0036736-0.090332-1.3782616-0.0265808-2.0255127,0.0243835c-1.9349823,0.0915833-6.2640686,2.2618103-7.5236359,4.6090393
							c-2.7035255,4.913269,0.3865013,11.4940796-7.9218712,13.2414551
							C43.323658,222.1698456,41.7546959,222.0225067,40.2036095,222.2793121z"/>
						<path class="st1" d="M59.4265709,204.1652374c-0.1896248-2.9086761-1.1635475-5.1874847-1.5498886-8.7345581
							c-0.0279312-0.301178-0.1016083-0.4240417,0.2227554-0.4933777c0.2173538-0.0478058,0.5382309,0.0101624,0.7059479,0.1588135
							c0.203598,0.182251,0.3226013,0.5753326,0.4221954,0.8216095c1.0020447,2.5476379,1.3949318,5.3442688,1.1333427,8.0724182
							C60.1614723,203.999588,59.9752388,204.0112915,59.4265709,204.1652374z"/>
						<path class="st1" d="M56.7104568,205.2493439c-0.0302658-0.1392975-0.0660439-0.2817688-0.1095238-0.4217682
							c-2.0699883-7.904892-4.70961-9.8576965-3.2964211-10.7556763l0.0029068-0.0051727
							c0.3454247-0.2273254,0.8282776-0.1191864,1.1506538,0.1298828c0.3245163,0.2570648,0.5213432,0.6327209,0.7075768,1.0024261
							c1.4659348,2.9441528,2.6027222,6.0500183,3.3479195,9.2486115
							C57.854248,204.6773529,57.2761078,204.9496613,56.7104568,205.2493439z"/>
						<path class="st1" d="M55.1659126,206.1963043c-5.1818962-7.4490967-5.0181618-7.1257935-5.0534286-7.4946747
							c-0.0299377-0.2615814,0.1200943-0.5646667,0.3819847-0.6078644c0.3278427-0.0467834,0.6907959,0.3349304,1.1716843,0.7942352
							c0.0458183,0.0257263,0.4270134,0.407135,0.4639854,0.4441833c0.0052986,0.0029755,0.0103416,0.0058136,0.012516,0.0137482
							c1.7592087,1.7563629,3.1790199,3.8386078,4.2135277,6.0986481
							C55.9580536,205.6694489,55.5583954,205.9206543,55.1659126,206.1963043z"/>
						<path class="st1" d="M53.3849144,207.8057709c-1.2316704-1.0862122-2.3904266-2.2537537-3.4696083-3.4784851
							c-0.2618179-0.2966003-0.5250168-0.6143799-0.6180344-0.9928741c-0.1133347-0.4813232,0.1340408-1.035202,0.6376457-1.0623474
							c0.3856163-0.0212402,0.773819,0.2920227,1.061882,0.5897522c1.9166145,2.0068512,2.4964447,3.5276489,3.0648956,4.2230988
							c-0.0197906,0.0228119-0.0444069,0.0429993-0.0721779,0.068222c0.0311584,0.0650482,0.0625687,0.1302338,0.0968513,0.1903076
							l-0.3814659,0.0983124C53.5904579,207.5609894,53.4839668,207.677887,53.3849144,207.8057709z"/>
					</g>
					<path class="st15" d="M235.9770966,227.0337372c-14.1089935,4.8056335-29.6165161,6.7670746-46.2735748,6.3935242
						l1.1318207-42.2736816l-14.5653534-17.3976898c-2.0703583-2.4726868,7.499939,8.9573822-20.2480011-24.182724
						c2.0421448-24.1756058,1.3635559-16.1421356,1.5051575-17.8184052l0.4562836-5.421936l8.1418762,1.3865128l6.5241699,1.1081772
						l18.4228363,3.1404877C218.4371185,157.1107483,232.9135742,189.0619507,235.9770966,227.0337372z"/>
					<path class="st1" d="M237.0378265,237.0063934c-2.3762054,3.7272797-43.008606,8.3020325-46.3980865,6.3643188
						c-3.3835297-1.9316254-0.9362183-9.9434509-0.9362183-9.9434509
						c16.6570587,0.3735504,32.1645813-1.5878906,46.2735748-6.3935242
						C235.9770966,227.0337372,239.4080963,233.279129,237.0378265,237.0063934z"/>
					<g>
						<path class="st16" d="M202.9394836,229.8781586c-0.3041992-13.4836426-2.3496094-27.8356934-3.5419922-35.1906738
							c-0.7241211-4.467041-1.953125-8.7590332-3.652832-12.7568359
							c-8.7993164-20.6967773-23.4287109-27.4504395-23.5751953-27.5161133
							c-0.4532166-0.2037659-0.1454926-0.8865662,0.3066406-0.6845703
							c0.1494141,0.0671387,15.0454102,6.9428711,23.9589844,27.9072266
							c1.7231445,4.0534668,2.96875,8.4038086,3.7026367,12.9301758c1.1953125,7.3742676,3.2460938,21.7651367,3.5517578,35.2937012
							C203.700058,230.3592834,202.9514313,230.3777924,202.9394836,229.8781586z"/>
					</g>
					<path class="st16" d="M176.269989,173.7558899l-19.2169342-22.9562225
						c-2.7947998-24.4954681-1.8291626-16.0319214-2.0383911-17.8658447l2.5124817-1.1790619l8.5981598-4.0354233
						l6.1982269-2.9095993l0.325943,4.0177765L176.269989,173.7558899z"/>
					<path class="st1" d="M79.2429657,210.6964569c-5.7953262-0.4027557-9.8899155-0.9007111-11.0572586-1.2739716
						c0,0-5.1257248-27.8625336,2.9153824-44.1757965c0,0,2.9984283,0.1420746,7.5730362,0.4858093
						C77.5483017,171.2256012,73.5484695,193.6543427,79.2429657,210.6964569z"/>
					<path class="st15" d="M170.9013519,131.9680023c0,0-8.8825836,59.5411835-21.2316742,70.6874084
						c-10.7255249,9.6885376-50.5756989,9.4217682-70.426712,8.0410461
						c-5.6944962-17.0421143-1.694664-39.4708557-0.56884-44.9639587
						c11.8750763,0.9064941,34.3985748,3.1940155,42.8959732,7.9996643c0,0,3.6383743-39.3406525,5.5582886-42.7479095
						C129.0423737,127.5769806,170.9013519,131.9680023,170.9013519,131.9680023z"/>
					<g>
						<path class="st16" d="M77.2104797,186.5280609c-0.48909-0.0733643-0.3816681-0.8151855,0.1113281-0.7416992
							c0.284668,0.0429688,28.5625,4.2666016,38.8066406,3.1293945c10.575882-1.1703491,13.2506256,1.1280975,14.6889648-12.2275391
							c1.4589844-13.5456543,3.5039063-43.479248,3.5244141-43.7800293c0.0325775-0.49263,0.782074-0.4456024,0.7480469,0.0507813
							c-0.0205078,0.3010254-2.065918,30.2492676-3.5263672,43.8093262
							c-1.5218201,14.1266022-5.0407944,11.7511292-15.3525391,12.8930664
							C107.6024246,190.6140747,85.677681,187.8022461,77.2104797,186.5280609z"/>
					</g>
					<path class="st3" d="M175.4641724,71.6386566c-1.0812531,8.1088943-3.6359558,12.3108139-11.9994965,12.6157913
						c-2.7614594,0.1006851-5.5346375-0.2013855-8.2782288,0.1186295
						c-5.4812469,0.6397247-10.4291687,3.7269821-14.3993378,7.5552368
						c-8.6631622,8.3269958-11.4675446,17.3247299-16.6985931,16.893959l0.5570526-1.6234818l-5.7301559-5.5940933
						c3.140564-5.6531219,6.3818893-11.2645721,9.6884689-16.8288651
						c10.0527039-16.9053955,12.1143188-22.5707321,17.6543579-27.7698898
						c4.0057678-3.7509995,8.1568451-5.7946815,13.6440277-5.8716469
						c5.4931183-0.0711784,12.0479431,3.8739548,14.3708344,8.8453865
						C176.0745392,63.8313751,176.03302,67.4255829,175.4641724,71.6386566z"/>
					<path class="st1" d="M163.661087,53.1145134c0,0-7.5492859-3.2711792-15.081131,3.4061966
						s-30.9640579,52.6998329-21.4545364,74.4656982c0,0,27.859108,9.4902954,63.9493484,0.9811096L176.866745,71.2832031
						L163.661087,53.1145134z"/>
					<path class="st48" d="M188.8479462,122.4564743c0,0-19.1036224,18.4957962-34.0051575,2.3532639
						c-9.2722473-10.044426-7.0236206-46.1423721-7.0236206-46.1423721l34.4008484,15.4803467L188.8479462,122.4564743z"/>
					<polyline class="st3" points="148.187973,119.2834778 170.9038239,90.1694031 165.7909698,88.0291672 141.0919189,118.6051559 
											"/>
					<path class="st7" d="M250.3350067,100.6805496c-0.1066284-0.4681549-0.5273285-0.7169876-0.9243774-0.6162949
						c0.6597137-0.5079498,0.8616486-1.21138,0.734787-1.6119156c-0.1599274-0.5037384-0.7288513-0.4681473-1.2028656-0.3732452
						c-0.7407074,0.14814-1.4814148,0.3020706-2.2280579,0.4502106c1.0370026-1.0725784,3.6145782-3.1404877,1.3569336-3.365593
						c-2.1084595-0.2085876-6.0184174,1.8743134-7.8633118,2.8974457c-0.5570526,0.3081436-2.832489,1.2030716-3.1702881,1.8668213
						c1.125885-2.2163467,7.2233582-4.5035782,8.7522278-6.4354935l-0.0533752-0.6102219
						c-0.1954498-0.3023605-0.337738-0.4623642-0.6517487-0.5986404c-2.8087616-1.1790619-7.033844,2.4058609-9.9848175,2.4770355
						c-1.4754944,0.0295105-2.9272461-0.8295364-4.2545929-1.3095551
						c-5.3924255-1.9495697-11.0158844-2.7258682-17.1134338-1.2265091l-30.8904724,0.5509033l-10.7610474-4.7463303
						l-10.1981506,3.0221558l-10.0617828,13.4690475c0,0-1.3924408,33.480072,35.3526764,19.2523727
						c36.7391968-14.2334824,38.2264709-18.0790939,38.2264709-18.0790939
						c2.832489,1.0960159,5.0901337,3.0574493,8.497406,3.2472534c4.7109528,0.2664871,9.4277649-1.9081955,14.0675507-4.8649521
						c0.5925598-0.3379517,1.2029266-0.6874771,1.6888733-1.2681808
						C250.1454163,102.227066,250.4950104,101.3558655,250.3350067,100.6805496z M248.9188232,100.4019165
						c0.1362915-0.1837311,0.3081512-0.2902145,0.47995-0.3318787
						C249.2447662,100.194458,249.0788422,100.2951431,248.9188232,100.4019165z"/>
					<path class="st3" d="M148.187973,119.2834778c0,0-9.9294891,32.2638092-12.9724426,33.2587891
						c-3.6512909,1.1938934-10.3144302-1.7098541-10.3144302-1.7098541S143.3155975,118.7366333,148.187973,119.2834778z"/>
					<path class="st18" d="M148.187973,119.2834778c0,0-17.5656738-16.6943665-29.2703476-17.6759338
						c0,0-12.3575287,8.2761307-20.0789795,26.6834259c0,0-2.2791061,5.2048645,3.9726868,9.7005463
						c7.7989578,5.6082458,22.1247559,14.7526093,24.4987946,12.7996674
						C129.6841736,148.8382263,142.8460999,124.1088409,148.187973,119.2834778z"/>
					<path class="st26" d="M124.9011002,123.7700577c-2.5871887-2.2136536-6.0675888-3.8300018-9.0851898-5.4072952
						c-1.333374,1.4524841-2.4420013,3.1108932-3.2744293,4.8982544c3.0464172,2.2046509,6.2210388,4.3341064,9.6324463,5.9163361
						C123.4655838,127.6598358,124.5651932,125.7343369,124.9011002,123.7700577z"/>
					<path class="st8" d="M249.3987732,100.0700378c-0.154007,0.1244202-0.319931,0.2251053-0.47995,0.3318787
						C249.0551147,100.2181854,249.2269745,100.111702,249.3987732,100.0700378z"/>
					<path class="st1" d="M182.8404541,92.7743378c0,0-2.4464874-32.3608704-16.5244141-38.7437668
						c-14.0779419-6.3828964-20.8240509,13.7472305-18.4841003,27.662941
						c2.3399658,13.9157028,3.9884033,22.8277283,3.9884033,22.8277283
						C158.7320099,99.8219986,169.0861053,95.5479507,182.8404541,92.7743378z"/>
					<path class="st47" d="M147.3781433,75.8175583c1.5295105,7.9817734,3.744339,21.4679184,4.7965088,28.6489258
						l-0.5623169-0.2373047c4.9993896-3.3786621,12.5098877-6.8339844,20.8140869-8.8959961
						c-6.1949615,2.0657578-9.986969,3.5924911-15.5906982,6.5786133c-1.6474609,0.8935547-3.2823486,1.847168-4.807251,2.9013672
						c-0.2137604,0.1498184-0.516098,0.0307541-0.5625-0.2373047
						C150.3738098,97.8761673,148.3725433,84.2231903,147.3781433,75.8175583z"/>
					<g>
						<path class="st11" d="M266.2598877,93.8222046v5.6466064c0,0.2780304-0.2254028,0.5034103-0.503418,0.5034103h-61.7728424
							c-0.2780151,0-0.5034027-0.2253799-0.5034027-0.5034103v-5.6466064c0-0.2780304,0.2253876-0.5034103,0.5034027-0.5034103
							h61.7728424C266.0344849,93.3187943,266.2598877,93.5441742,266.2598877,93.8222046z"/>
						<rect x="203.4802246" y="95.7475357" class="st1" width="62.7796593" height="1.7959512"/>
						<ellipse class="st1" cx="234.8700562" cy="96.6455078" rx="3.7303064" ry="2.8680649"/>
					</g>
					<g>
						<path class="st13" d="M269.2921448,88.0078354l-0.1032104,5.645668
							c-0.0050659,0.277977-0.2345276,0.4992065-0.5125122,0.4941254l-61.7625275-1.1290665
							c-0.2779694-0.0050812-0.4992065-0.2345505-0.4941254-0.5125275l0.1032104-5.645668
							c0.0050812-0.277977,0.2345428-0.4992065,0.5125275-0.4941254l61.7625275,1.1290665
							C269.0760193,87.5003891,269.2972412,87.7298584,269.2921448,88.0078354z"/>
						
							<rect x="236.9579926" y="58.8671036" transform="matrix(0.0182777 -0.9998329 0.9998329 0.0182777 143.2666321 326.4234619)" class="st26" width="1.7959512" height="62.7796593"/>
						
							<ellipse transform="matrix(0.0182777 -0.9998329 0.9998329 0.0182777 143.2666321 326.4234619)" class="st26" cx="237.855957" cy="90.2569351" rx="2.8680649" ry="3.7303064"/>
					</g>
					<g>
						<path class="st11" d="M268.9622803,81.136116l-0.2384033,5.6415787
							c-0.0117493,0.2777786-0.24646,0.4934464-0.524231,0.4817047l-61.7177429-2.6083374
							c-0.2777863-0.011734-0.493454-0.2464371-0.4817047-0.5242157l0.2384186-5.6415787
							c0.011734-0.2777786,0.2464447-0.4934387,0.5242157-0.4817047l61.7177582,2.6083374
							C268.7583618,80.623642,268.9740295,80.8583374,268.9622803,81.136116z"/>
						
							<rect x="236.5832672" y="51.2416534" transform="matrix(0.0422246 -0.9991081 0.9991081 0.0422246 144.8959045 316.4118347)" class="st1" width="1.7959512" height="62.7796593"/>
						
							<ellipse transform="matrix(0.0422246 -0.9991081 0.9991081 0.0422246 144.8959045 316.4118347)" class="st1" cx="237.4812469" cy="82.631485" rx="2.8680649" ry="3.7303064"/>
					</g>
					<g>
						<path class="st13" d="M268.7281494,69.1940536l0.2325745,5.6418228
							c0.0114441,0.2777863-0.2044678,0.5122681-0.4822388,0.5237198l-61.7204437,2.5442505
							c-0.2777863,0.0114517-0.5122528-0.2044525-0.5237122-0.4822464l-0.2325745-5.6418228
							c-0.0114441-0.2777863,0.2044678-0.5122604,0.482254-0.5237122l61.7204285-2.5442581
							C268.4822083,68.7003555,268.7167053,68.9162674,268.7281494,69.1940536z"/>
						
							<rect x="206.0914154" y="72.4098511" transform="matrix(0.9991515 -0.0411873 0.0411873 0.9991515 -2.8178356 9.8434181)" class="st26" width="62.7796593" height="1.7959512"/>
						
							<ellipse transform="matrix(0.9991515 -0.0411873 0.0411873 0.9991515 -2.8178356 9.8434181)" class="st26" cx="237.4812469" cy="73.3078308" rx="3.7303064" ry="2.8680649"/>
					</g>
					<g>
						<path class="st11" d="M254.8499298,56.342865l0.892868,5.575573c0.0439758,0.2745285-0.1429443,0.5327148-0.4174652,0.5766792
							l-43.0912476,6.807045c-0.2745209,0.0439606-0.5327148-0.1429443-0.5766754-0.4174728l-0.8928833-5.575573
							c-0.0439606-0.2745285,0.1429443-0.5327187,0.4174805-0.5766792l43.0912476-6.807045
							C254.5477753,55.8814278,254.8059692,56.0683365,254.8499298,56.342865z"/>
						<polygon class="st1" points="255.1543732,58.2439728 255.4383545,60.0173302 211.3529663,66.9835815 211.0689697,65.2102203 
													"/>
						
							<ellipse transform="matrix(0.9874189 -0.1581262 0.1581262 0.9874189 -6.9071517 37.8216286)" class="st1" cx="234.2281036" cy="62.3172836" rx="3.7303064" ry="2.8680649"/>
					</g>
					<path class="st7" d="M160.2428131,36.7698822c-2.3835907-0.5835228-4.2419891,0.5227242-4.7301636,2.0838165
						c-0.633255,2.0251122,1.1848602,3.7452202,3.4228668,2.9239006c0.8990021-0.3299217,1.6402588-0.9841537,2.2984009-1.6797791"
						/>
					<path class="st3" d="M165.348999,48.6115608c0,0-3.5613403-1.3037643-4.6872253-6.5361824
						c-1.1259003-5.238205-5.818985-11.4957542-5.818985-11.4957542
						c17.9690247-6.0668221,12.1185303-4.0915394,13.3209076-4.4974957c0.0636444,0.1014652,1.2300568,1.7253799,2.19841,3.5493298
						c0.4681396,0.900713,0.8591919,1.8132915,0.971817,2.5126266c0.335556,2.0941734,5.4140015,8.8735886,5.5345612,11.4425125
						C176.9870453,46.1643257,174.1782074,49.9092484,165.348999,48.6115608z"/>
					<path class="st7" d="M174.2731018,37.8446541c-1.1809692,1.502346-2.2206726,0.6789932-3.3344879,0.8276825
						c-1.3466187,0.1797638-2.0808563,1.5475082-3.1347809,2.2791862c-1.8513031,1.2852554-3.5389252-0.1310043-4.6117859-1.6491852
						c-2.1273041-3.0102882-3.6916809-6.4236259-4.5628204-10.0024624c2.5007019-3.7157001,5.5820923-5.1733932,9.5344696-3.2177467
						c0.0636444,0.1014652,1.2300568,1.7253799,2.19841,3.5493298c0.4681396,0.900713,0.8591919,1.8132915,0.971817,2.5126266
						C171.5057831,33.2166672,172.9220276,35.5096817,174.2731018,37.8446541z"/>
					<path class="st15" d="M168.1641235,26.0826225c0,0-3.4966431-1.8476791-9.9013519,4.0760307
						c0,0-5.4751892,4.7442245-6.7419281,7.8251572c0,0-1.8094177,0.8440018-2.6651001-1.5493431
						c-0.8556976-2.3933449,0.7823181-5.0406895,3.5539551-7.7225838c2.7716522-2.6818924,7.4684296-5.5462723,11.5672455-6.4280548
						c4.0988159-0.8817844,5.0253754,0.5068493,5.3919373,1.2328339
						C169.7354431,24.2426453,169.273819,25.5926666,168.1641235,26.0826225z"/>
					<path class="st3" d="M165.1351471,30.8905163c0.1541443-0.0717945,0.3125-0.1447296,0.4820404-0.1578407
						c0.4686127-0.0362396,0.6561737,0.4027119,0.3739166,0.7429142c-0.1272736,0.1533985-0.312027,0.2453156-0.4916229,0.3317795
						c-0.8338928,0.4014778-1.6790466,0.779583-2.5341492,1.1337204c-0.3195038,0.1323242-0.8833923,0.2780457-0.9934998-0.2031631
						C161.8743134,32.3116798,162.0170746,32.3428116,165.1351471,30.8905163z"/>
					<path class="st3" d="M170.3621063,29.6314583c-0.7169952,0.3437347-1.4458313,0.663744-2.1806183,0.9718914
						c-0.3200073,0.1304913-0.8829193,0.278635-0.9955444-0.2074566c-0.0888977-0.379034,0.3081512-0.5095272,0.5866394-0.6458054
						c0.6992645-0.3318729,1.4043884-0.6576691,2.1094971-0.9837551
						C170.0480194,29.0507526,170.2080231,29.3412495,170.3621063,29.6314583z"/>
					
						<ellipse transform="matrix(0.9662713 -0.2575262 0.2575262 0.9662713 -2.429184 44.792942)" class="st3" cx="169.7875977" cy="31.6701584" rx="0.5324883" ry="0.9392572"/>
					
						<ellipse transform="matrix(0.9662713 -0.2575262 0.2575262 0.9662713 -2.9889624 43.7080154)" class="st3" cx="165.3658752" cy="33.2647133" rx="0.5324883" ry="0.9392572"/>
					<path class="st9" d="M170.8886719,36.8080025c0.3035583,0.3584366,0.2232056,0.5501709-0.1349182,0.7128525l-1.25914,0.5719604
						c-0.2077942,0.0943871-0.4555054-0.0071373-0.5337219-0.2215347c-0.3268433-0.8959312-1.6081238-4.5464516-0.7316589-4.1907005
						C168.3304749,33.7216797,168.0532227,33.4598541,170.8886719,36.8080025z"/>
					<path class="st7" d="M173.7101288,42.4784279c-0.5392609,0.8532639-1.6177063,1.3393517-2.6191864,1.1790581
						c-1.0046387-0.159771-1.8059692-1.0797157-2.0324554-2.0383949c1.6295471-0.7641487,3.2531891-1.5285835,4.8827515-2.2930183
						C174.510437,40.1796265,174.249176,41.6193123,173.7101288,42.4784279z"/>
					<path class="st20" d="M174.243454,40.1969833c-1.5235901,0.8706207-2.8837585,1.5923271-4.7761383,2.3465462
						c-0.1895905-0.28442-0.3318024-0.5983543-0.4088287-0.9244385c1.6295471-0.7641487,3.2531891-1.5285835,4.8827515-2.2930183
						C174.1071625,39.5749054,174.2078552,39.8711891,174.243454,40.1969833z"/>
				</g>
			</g>
			<path class="st9" d="M158.5714722,40.0459557c-0.2365723-0.4468613-0.4731445-0.8937225-0.7097168-1.3405876
				c-0.6425018,0.1669464-1.1236267,1.0917282-0.7203674,1.6190414S158.2420502,40.6222839,158.5714722,40.0459557z"/>
		</g>
	</g>
</g>
</svg>
