<?xml version="1.0" encoding="utf-8"?>
<!-- Generator: Adobe Illustrator 22.0.1, SVG Export Plug-In . SVG Version: 6.00 Build 0)  -->
<svg version="1.1" id="Layer_1" xmlns="http://www.w3.org/2000/svg" xmlns:xlink="http://www.w3.org/1999/xlink" x="0px" y="0px"
	 viewBox="0 0 300 300" style="enable-background:new 0 0 300 300;" xml:space="preserve">
<style type="text/css">
	.st0{fill:#EDC1A4;}
	.st1{fill:#E2E0E0;}
	.st2{fill:#D39E81;}
	.st3{fill:#502E26;}
	.st4{fill:#CCCACA;}
	.st5{fill:#426800;}
	.st6{fill:#538705;}
	.st7{fill:#D47E44;}
	.st8{fill:#73341D;}
	.st9{fill:#BC672E;}
	.st10{fill:#96311D;}
	.st11{fill:#B83E21;}
	.st12{fill:#DE8D82;}
	.st13{fill:#EFBAB4;}
	.st14{fill:#FDD5D0;}
	.st15{fill:#6883CE;}
	.st16{fill:#3D4885;}
	.st17{fill:#3859AE;}
	.st18{fill:#864424;}
	.st19{fill:#FEFEFE;}
	.st20{fill:#FFFFFF;}
	.st21{fill:#A55925;}
	.st22{fill:#F4F2F2;}
	.st23{fill:#3C3E68;}
	.st24{fill:#E8997C;}
	.st25{fill:#F5C46B;}
	.st26{fill:#F7EBDA;}
	.st27{fill:#0E0C0D;}
	.st28{fill:#657C3A;}
	.st29{fill:#576C37;}
	.st30{fill:#7C995D;}
	.st31{fill:#36518C;}
	.st32{fill:#96B7E3;}
	.st33{fill:#A3B3DF;}
	.st34{fill:url(#SVGID_1_);}
	.st35{fill:url(#SVGID_2_);}
	.st36{fill:url(#SVGID_3_);}
	.st37{fill:url(#SVGID_4_);}
	.st38{fill:url(#SVGID_5_);}
	.st39{fill:#266AB7;}
	.st40{fill:#060E0D;}
	.st41{fill:#E0D4C6;}
	.st42{fill:#787E42;}
	.st43{fill:#D3D1D1;}
	.st44{fill:url(#SVGID_6_);}
	.st45{fill:url(#SVGID_7_);}
	.st46{fill:url(#SVGID_8_);}
	.st47{fill:#020508;}
	.st48{fill:#BAB6B6;}
	.st49{fill:#0F0B07;}
	.st50{fill:#2F3A68;}
	.st51{fill:#203257;}
	.st52{opacity:0.5;fill:#FFFFFF;}
	.st53{opacity:0.2;fill:#0E0C0D;}
	.st54{fill:#DD9F9B;}
	.st55{fill:#3E4D9B;}
	.st56{fill:url(#SVGID_9_);}
	.st57{fill:#5F6194;}
	.st58{fill:url(#SVGID_10_);}
	.st59{fill:url(#SVGID_11_);}
	.st60{fill:url(#SVGID_12_);}
	.st61{fill:url(#SVGID_13_);}
	.st62{fill:#070102;}
	.st63{fill:#100805;}
	.st64{fill:#FDA465;}
	.st65{fill:#2A50A1;}
	.st66{fill:#B76C39;}
	.st67{fill:#130602;}
	.st68{fill:url(#SVGID_14_);}
	.st69{fill:url(#SVGID_15_);}
	.st70{fill:url(#SVGID_16_);}
	.st71{fill:url(#SVGID_17_);}
	.st72{fill:url(#SVGID_18_);}
	.st73{fill:url(#SVGID_19_);}
	.st74{fill:#B4BDED;}
	.st75{fill:#100D08;}
	.st76{fill:#F6C85F;}
	.st77{fill:#FECF00;}
	.st78{fill:#2D59E2;}
	.st79{fill:#121F3A;}
	.st80{fill:#BBD0F5;}
	.st81{fill:#020202;}
	.st82{fill:#E2CFB7;}
	.st83{fill:#080805;}
	.st84{fill:#A87D7C;}
	.st85{fill:#182052;}
	.st86{fill:#EAEAEA;}
	.st87{fill:#DDDDDD;}
	.st88{fill:#3D4574;}
	.st89{fill:#ABC5F0;}
	.st90{fill:url(#SVGID_20_);}
	.st91{fill:#4159A8;}
	.st92{fill:#E0D0BD;}
	.st93{fill:#3D53AA;}
	.st94{fill:#0A0000;}
	.st95{fill:#BF6D36;}
	.st96{fill:#385DAE;}
	.st97{fill:#E0DCDC;}
	.st98{fill:#857E78;}
	.st99{fill:#0E213C;}
	.st100{fill:url(#SVGID_21_);}
	.st101{fill:#55608E;}
	.st102{opacity:0.3;fill:#F4F2F2;}
	.st103{opacity:0.3;}
	.st104{fill:#213987;}
	.st105{enable-background:new    ;}
</style>
<g id="Dinner_Date_1_">
	<g id="Dinner_Date">
		<g>
			<path class="st13" d="M278,218.6941986l-10.8170166-38.3038025H30.6898232L22,218.6941986
				C22,248.4152985,278,248.4152985,278,218.6941986z"/>
			<path class="st0" d="M126.1167908,101.6637039c-0.1489716,0.2947006-0.2467041,0.4413681-0.4928513,0.6680679
				c-1.9951553,1.8429413-6.5093689,5.0088272-9.0874481,4.9213715c-4.9003525-0.165184-13.8343353-1.1197891-13.2001419-8.4806061
				c1.1400681-0.6899109,1.7664719-1.159729,2.534111-2.2641296c1.7543793-2.5335617,1.6708984-5.4007416,1.2922745-8.2459946
				c-0.1712494-1.2624741-1.1617279-3.5836334,0.2622833-5.049324c0.7935715-0.8193512,2.0599213-0.9230118,3.1999817-0.8874283
				c2.9649429,0.099762,10.2837372,1.5370331,12.7058334,2.8307114c1.3829803,0.7319717,2.6104965,1.8914948,3.0898361,3.3813705
				c1.0018463,3.1271439-1.3145752,5.7644043-0.6834259,9.641861
				C125.9174728,99.3176651,125.7058487,100.7032089,126.1167908,101.6637039z"/>
			<path class="st26" d="M100.854866,99.3811264l2.4814835-0.6085892c0,0,1.9981918,4.5043488,11.291954,5.5451355
				c9.2937622,1.0407944,11.5375671-2.8082199,11.5375671-2.8082199l0.635704,0.5678177l8.10849,19.7584839l-8.3730927,28.5825348
				l0.7102737,16.5415039l-19.9936676,2.0408478l-14.2012558-3.6876526c0,0-6.54039-9.5627899-7.3527832-10.0176392
				c-0.8123932-0.4548645,8.1649323-24.4216003,7.3527832-25.041626
				c-0.8121414-0.6200256,4.3126984-24.8114166,4.3126984-24.8114166L100.854866,99.3811264z"/>
			<path class="st15" d="M144.5565338,111.8573227c0,0,4.3798523,3.4729309,8.6686707,22.029274
				c3.4155426,14.7779236,8.0622101,35.1140442,8.0622101,35.1140442s-13.5645599,3.6684875-14.4854126,4.1963654
				c-0.9208527,0.5278625-12.3650665-3.9670258-12.3650665-3.9670258l0.7060242-17.8260651L144.5565338,111.8573227z"/>
			<path class="st9" d="M161.3726349,110.8660278c-0.460434,5.9618759,0.9600372,7.3477249,0.824295,10.6107559
				c-0.0494385,1.1872711-0.3400726,2.492157,0.3153839,3.4784851c1.0879211,1.6287231,3.848877,1.3532715,5.0740051-1.2707672
				c0.355545-0.3618927,0.6337891-0.8133087,0.8131561-1.2863159c0.3525238-0.9368057,1.2798004-0.3832474,1.2952728-1.3851242
				c0.052536-3.1908798-0.961319-8.1041641-2.5042114-10.8993378c-0.7054443-1.2809448-1.6889648-2.3830414-2.9026337-3.2015457
				c-1.2327881-0.8313828-2.1161499-1.1271667-2.4693298,0.6744843
				C161.6062164,108.6699142,161.4576263,109.7655029,161.3726349,110.8660278z"/>
			<path class="st3" d="M228.0876465,118.7517014c7.1278229-2.7282257,7.7746124-6.5997162,7.8252106-11.0737152
				c0.0556335-4.9184494-3.7076416-10.468483-7.3474884-17.2813721c-3.6398315-6.8128891-4.3352661-18.5211411-4.6180573-20.7829514
				c-0.2827911-2.2618027-1.6805725-9.4103203-7.9960327-10.4621925s-7.5000305,4.320919-7.5000305,4.320919
				c-10.3848114-1.1105537-16.762558,3.1305923-16.762558,3.1305923c-3.7895203-0.5347214-6.326416,1.8758926-6.326416,1.8758926
				c-4.0821228,3.8319016-1.9615326,10.6187744-1.9615326,10.6187744l13.4581909,11.659935l7.050354,14.6840897l4.5528412,9.8885803
				l8.3037567,5.6222916l11.4504395-1.8355637"/>
			<path class="st7" d="M221.7768097,112.0786209l-7.1804047,7.8509445l-8.8872681,2.6006927l-11.5949402-0.2914658
				l-5.7845459-3.0542526c0,0-1.0623322-4.7222061-1.2728271-4.7739182
				c-0.2137299-0.055191,1.0201874-4.2428665,1.0201874-4.2428665s5.7780609-2.2380676,7.0476532-4.1198349
				c1.4482574-2.1481781-0.0387726-7.8241043-0.6930695-10.6361847l11.2775421-7.057373c0,0,0,1.2241974,0.2622833,3.0283127
				c0.5279694,3.6501389,2.1279144,9.6808395,6.9666748,12.7543869c7.2290344,4.5958481,7.9934387,4.4630051,7.9934387,4.4630051
				L221.7768097,112.0786209z"/>
			<path class="st9" d="M205.9714203,91.3826752c-2.3319244,4.2621613-6.0209656,7.7568512-10.3706665,9.9139404
				c-0.223465-1.7554016-0.6800995-3.7829819-1.1691589-5.8848801l11.2775421-7.057373
				C205.709137,88.3543625,205.709137,89.5785599,205.9714203,91.3826752z"/>
			<path class="st10" d="M185.1620941,111.4082413c0,0-3.1849365-0.1122742-4.4412842,6.9063187
				s-4.9409485,22.7857971-4.9409485,22.7857971l-5.953537-20.4748611l-7.577652-0.0710373
				c0,0,0.1047668,40.7622986,11.7550507,46.2511597c0,0,8.1570129,1.0201416,17.6450348-26.9795837
				C201.136795,111.8262939,185.1620941,111.4082413,185.1620941,111.4082413z"/>
			<path class="st11" d="M229.912735,129.6426544c-0.2753296,7.274353-0.5085144,23.4037018-0.5085144,23.4037018
				l-9.0621796,13.7582855c0.3821564,0.2462311-31.1087494,2.1959991-31.1087494,2.1959991
				c-0.8999176-4.0248871,2.2124176,9.8951416-4.0711975-18.2086334c-3.6242065-2.6687012-5.6387482-5.285675-6.5909271-7.7666473
				v-0.0031738c-2.4355927-6.3447723,2.0565948-11.82164,4.2654724-15.1608658
				c3.0768738-4.6412354,1.0105591-15.7243423,2.3254547-16.4530792c1.3182068-0.7287292,2.914917-1.2404861,2.914917-1.2404861
				c1.1627655,2.85009,5.2468567,7.135025,14.2313843,7.0929565c8.9876862-0.0420685,18.6231384-8.6606445,18.6231384-8.6606445
				s4.7156372,1.9627304,6.3544922,4.9489822C228.924881,116.535141,230.1912231,122.3683167,229.912735,129.6426544z"/>
			<path class="st10" d="M215.0148315,171.0379944c0,0-4.6128998-45.8113251,2.9230804-53.4682541
				s12.3752441,5.3061066,11.9753571,23.9244614s-0.2514496,30.2482758-0.2514496,30.2482758L215.0148315,171.0379944z"/>
			<path class="st7" d="M208.8248291,90.6830444c-1.1044006,0.8841858-2.6363525,1.1206131-3.9351959,0.5571442
				c-0.3140717,1.9205093-1.6452637,3.5593643-3.2646637,4.6379166c-2.9943695,1.9942856-6.8001251,2.240303-10.539093,3.5561981
				c-1.4932404,0.5239105-3.9049988-0.0376968-5.4897614-3.2906799
				c-4.8982544-10.0330124-2.0792847-11.7118149-2.0792847-15.3454285
				c-0.0042114-0.5868073-0.0876923-1.1072311-0.1166382-1.7003708c2.4258728-6.3286438,6.8954315-9.3082504,6.8954315-9.3082504
				c1.2216797,5.1849899,6.0807495,10.330307,12.4694061,11.4848022c1.4250336,0.2523651,1.8058167,0.5455322,1.842865,2.1926727
				c0.0097198,0.5797577-0.1911163,1.21772,0.2558746,1.5836639c0.5732727-0.7902527,1.2502136-1.5351105,2.1214447-1.9692154
				c1.6910248-0.8391724,3.5458679-0.1909714,3.9771729,1.8041153
				C211.12117,85.6013718,210.595108,89.2657547,208.8248291,90.6830444z"/>
			<path class="st10" d="M185.2905273,150.1175842c9.0473785,2.7391815,19.3362122,0.9988251,26.9793701-4.5635376
				c-3.6123199,3.4291229-7.9076233,6.0590363-12.8202057,6.8802338
				C194.5371246,153.2554779,189.8217316,152.1854248,185.2905273,150.1175842z"/>
			<path class="st3" d="M195.1175385,80.3260498c0.8005829,0.6741638,2.0721436,2.2730789-0.3246307,1.4986191
				c-1.4431763-0.4663239-3.0629883-0.7529755-3.1917572-1.582222c-0.0415192-0.2674026,0.065094-0.5530624,0.2716522-0.7278824
				C192.6014099,78.8979187,194.387619,79.7113876,195.1175385,80.3260498z"/>
			<path class="st3" d="M186.4867859,80.0889206c-0.2040863,0.7027969-1.4412537,0.82267-2.0437012,0.936058
				c-0.3540802,0.0666428-0.8328857,0.2729263-1.1323547,0.0182953c-0.2451324-0.2084427-0.3764496-0.5433121-0.3383331-0.8628311
				c0.1101227-0.9231491,1.4363098-1.0998764,2.1734772-1.1602707
				C186.2480621,78.9310455,186.6450958,79.5383835,186.4867859,80.0889206z"/>
			<ellipse class="st3" cx="192.966629" cy="83.565361" rx="0.8896442" ry="1.403978"/>
			<ellipse class="st3" cx="184.5467834" cy="83.2997894" rx="0.8896442" ry="1.403978"/>
			<path class="st9" d="M186.5977631,86.9015274c-0.0841522,0.20121-0.1700287,0.4176407-0.1268463,0.631424
				c0.0476074,0.235611,0.247757,0.4170609,0.4703522,0.5077972c0.22258,0.0907364,0.4675903,0.1059952,0.70755,0.1201553
				c1.4186401,0.0836945,1.5983429,0.1208649,1.8232574,0.0159073c0.1702881-0.0794601,0.3002167-0.2793655,0.2353668-0.4557343
				c-0.3643494,0.0430298-2.3404694,0.0361786-2.4878845-0.2997742c-0.1739197-0.3963623,0.9753876-2.5030746,1.1398926-2.9702759
				c0.0913086-0.2593307,0.1838226-0.5260696,0.1751099-0.8008575
				C188.5259247,83.3773193,186.9343262,86.0968246,186.5977631,86.9015274z"/>
			<path class="st19" d="M185.5912323,90.8627243l7.3753967,0.10849c0,0-0.8634949,2.4527969-3.7303925,2.7958832
				C187.5063019,93.9741287,185.7549896,92.804306,185.5912323,90.8627243z"/>
			<circle class="st19" cx="207.0141144" cy="89.6365891" r="1.0427008"/>
			<path class="st9" d="M206.6796875,88.4092636c-0.0411377-0.8312073-0.0822601-1.6624069-0.1233826-2.4936142
				c-0.0340424-0.6879883,1.1386108-1.0716858,1.5706177-0.8642273c0.814621,0.3911819,0.923233,2.3186493-0.1612396,3.3809509
				C207.5520477,88.8375473,207.1473389,88.4252777,206.6796875,88.4092636z"/>
			<g>
				
					<ellipse transform="matrix(0.0298499 -0.9995544 0.9995544 0.0298499 36.4916 281.2691345)" class="st26" cx="163.142868" cy="121.8357544" rx="1.3783798" ry="4.7381806"/>
				
					<rect x="162.5556641" y="106.0124893" transform="matrix(0.9995544 0.0298499 -0.0298499 0.9995544 3.4763157 -4.8259625)" class="st26" width="1.6411878" height="16.0166168"/>
				<path class="st7" d="M165.5039063,110.2264252c0.649231,0.324791,1.3763428,0.7509918,1.4902649,1.4679413
					c0.162674,1.023819-1.0290985,1.7220993-1.8427734,1.0808487c0.4366302,0.2102203,0.8833618,0.4276428,1.2185211,0.7776566
					s0.540451,0.8663712,0.3919678,1.3276672c-0.1985474,0.6168442-1.0722504,0.8880386-1.5851746,0.4920273
					c0.4164734,0.2466125,0.8435516,0.5024796,1.1380615,0.8865814c0.2945099,0.3841095,0.4286804,0.9320755,0.2000427,1.3586807
					c-0.228653,0.4266052-0.8918457,0.5939102-1.2179871,0.2362747c0.4033508,0.3572311,0.8026428,0.7447205,1.0172577,1.2389297
					c0.2145996,0.4942169,0.2040863,1.1221161-0.1592102,1.5199966c-0.5077209,0.5560226-1.4040985,0.4344864-2.1256256,0.2192612
					c-2.0790253-0.620163-4.0339813-1.6532898-5.7176361-3.0215759c-0.4580536-0.3722534-0.940918-0.9181137-0.7538757-1.4779282
					c0.1253357-0.3751602,0.5302734-0.5995102,0.9243927-0.633049c0.3941193-0.0335312,0.7834167,0.0858688,1.1609497,0.2038727
					c-0.6644745-0.3513718-1.3535309-0.723793-1.7896881-1.3359756c-0.436142-0.612175-0.529541-1.5391312-0.0025024-2.0750732
					c0.4737854-0.4818039,1.3211517-0.4668121,1.8495483-0.0456009c-0.4726105-0.1776733-0.9582367-0.3632278-1.3282166-0.7068176
					c-0.3699646-0.3435898-0.6002502-0.8882523-0.4298706-1.3635483c0.2247772-0.6270447,1.1805725-0.8213577,1.6323395-0.3318558
					c-4.6625366-2.4123917,2.1563263-5.7884064,3.4167938-3.9212646c0.2961121,0.4386292,0.1760101,1.0245209,0.0454102,1.5373688
					C162.6047668,109.3576202,163.0661774,109.0068817,165.5039063,110.2264252z"/>
				<path class="st26" d="M170.2971191,101.9339981c-1.2262573,3.9521408-4.1904907,5.4513168-6.71521,5.2528229
					c-2.5321045,0.0508041-5.4047394-1.6259995-6.3929596-5.6442795c-1.0087128-4.0869217,1.8369446-15.180809,1.8369446-15.180809
					c0.0140076-0.4693222,10.3574524-0.1604309,10.3434448,0.3088913
					C169.369339,86.6706238,171.5479889,97.9145508,170.2971191,101.9339981z"/>
				<path class="st25" d="M158.117981,96.4804993c-0.2520599,1.9877243-0.3486023,3.9013062-0.0524139,5.1011963
					c0.8369751,3.4032059,3.2698517,4.8232269,5.4142303,4.7803116c2.1382446,0.1681137,4.6486816-1.1015854,5.6872406-4.4487839
					c0.3672638-1.1800766,0.3851624-3.0960083,0.2520752-5.0952377L158.117981,96.4804993z"/>
			</g>
			<g>
				<path class="st21" d="M164.8000793,118.6503143l-5.4121094-2.5126953
					c-0.4488373-0.2092209-0.1356812-0.8878708,0.3164063-0.6806641l5.4111328,2.5126953
					C165.568634,118.1803284,165.2484131,118.8572388,164.8000793,118.6503143z"/>
			</g>
			<g>
				<path class="st21" d="M164.7981262,115.519455l-5.3457031-2.7597656
					c-0.4432831-0.2281036-0.0926514-0.8963699,0.34375-0.6660156l5.3457031,2.7597656
					C165.5838776,115.0808945,165.2354736,115.7498474,164.7981262,115.519455z"/>
			</g>
			<g>
				<path class="st21" d="M164.3469543,112.7294159l-4.9179688-2.6191406
					c-0.4373474-0.2338791-0.0864105-0.8932571,0.3525391-0.6621094l4.9179688,2.6191406
					C165.1369019,112.3012161,164.7855225,112.9620514,164.3469543,112.7294159z"/>
			</g>
			<path class="st15" d="M82.5327911,106.3799973c0,0,7.2788086-4.9790649,18.3220749-6.9988708
				c0,0,1.2412949,15.3207169,0,26.0080719c-1.2412872,10.687355-4.9052353,24.2021561-10.3516464,33.5859299
				s-18.3197403,9.7055664-18.3197403,9.7055664l-5.4464035-9.7055664L82.5327911,106.3799973z"/>
			<path class="st15" d="M140.6302643,168.6806946c5.2495728-15.427948,3.9262695-56.8233719,3.9262695-56.8233719
				c-2.6088257-2.7103119-17.7549591-9.7800522-17.7549591-9.7800522s-4.4564743,50.6343689-0.7533722,64.7283478
				L140.6302643,168.6806946z"/>
			<g>
				<path class="st27" d="M144.1990051,163.4877167l-1.246582-25.4443359
					c-0.0246735-0.4980774,0.7258453-0.5274048,0.7490234-0.0371094l1.246582,25.4443359
					C144.9726868,163.9485626,144.2233429,163.9866943,144.1990051,163.4877167z"/>
			</g>
			<ellipse class="st14" cx="148.9363861" cy="180.3904572" rx="118.2465897" ry="19.1479282"/>
			<path class="st3" d="M102.5742188,80.0398102c-1.2000122-2.0499115-1.8330154-4.5534897-2.2842484-6.7802353
				c-0.4413681-2.1783829-0.6724396-4.7121429,0.6551361-6.6416168c2.3559418-3.4239578,9.0646439-6.1776085,13.0263367-6.9453506
				c3.5655823-0.6908073,11.163147-1.0520592,14.240242,1.1526756c1.7677002,1.2665329,1.5467987,3.7542229,1.6731873,5.6968575
				c0.1633148,2.5099792,0.1903076,5.044838-0.2123871,7.534935c-0.5967255,3.6899796-2.2469101,7.3526535-5.2173691,9.621666
				C118.3341675,88.3542786,106.264389,86.3434906,102.5742188,80.0398102z"/>
			<path class="st2" d="M125.8246994,99.3715363c-0.4719543,0.2909851-1.4324951-0.1360703-2.1246338-0.2914581
				c-3.613739-0.7846527-7.3608932-2.4077301-10.3155899-4.7546234c-3.2437286-2.5697784-3.3848419-5.4986877-3.7311172-6.7010727
				c-0.1133881-0.3853989-0.2105637-0.7999802-0.2493896-1.2113113c-0.1615753-1.8389969,1.0770187-2.7942657,2.6234665-2.8339539
				c0.8841858-0.0226974,1.7456818,0.2591171,2.5715866,0.5765152c4.3524323,1.6925888,9.7733459,5.3623734,11.4491806,9.6839981
				C125.2605286,97.0466385,125.7755203,97.3407059,125.8246994,99.3715363z"/>
			<path class="st0" d="M129.5882416,63.0528297c0,0,1.1784973,3.0651894,1.6587372,4.1002007
				c0.5845184,1.2597656,1.1350098,2.5567322,1.3990936,3.9267426c0.2742767,1.4229431,0.6504364,9.0327759,0.6719971,11.3256226
				c0.0271606,2.8862228-0.286972,12.1347961-2.0026703,14.2540741c-0.8262482,1.0205231-2.499649,0.9658813-3.6901474,0.9754486
				c-3.8451233,0.0309143-7.469368-1.3904877-10.8949356-3.1289215c-1.7331161-0.8795319-3.4510193-1.8603058-4.8031387-3.2564011
				c-1.3521118-1.3960876-2.3129196-3.2699432-2.2388306-5.2120514c-3.3870239,1.2881851-6.6297836-2.1175919-6.966217-5.3528671
				c-0.2719498-2.6154327,2.2829971-5.4390335,4.6645966-3.3284683c0.3305893,0.2929688,3.0252304,4.3139648,2.9877853,4.3341217
				c0.4524689-0.243515,0.5147247-0.5190811,0.7799225-1.1505203c1.4803848-3.5208588,0.6556702-8.2146301,0.3101349-11.925827
				c3.9103241-0.9253387,14.7667923-3.0273056,17.6298523-4.6767349
				C129.4854889,63.7120361,129.4940033,63.4579964,129.5882416,63.0528297z"/>
			<path class="st2" d="M130.5059204,83.6928101c-0.7304077,0.3236237-1.5358429,0.5122833-2.3384399,0.4964371
				c-0.7191086-0.0141983-1.1563034-0.2958298-1.4866486-0.9352798c-0.0434341-0.0840759-0.0831909-0.1733704-0.0861282-0.267952
				c-0.0029373-0.0945511,0.0387573-0.1959763,0.1229095-0.2391663c0.3033066-0.1556854,0.5675888,0.7674408,1.2379761,0.9693527
				c0.5851212,0.1762238,1.3297043-0.0063934,1.8680649-0.2470779c0.4644623-0.2075882,0.7823181-0.3091736,0.8431549-0.844986
				c0.0901642-0.7941818-0.217392-1.357399-1.84375-5.7851105c-0.2492371-0.6785278,0.3149719-0.883461,0.5756226-0.216011
				c0.673233,1.7240143,1.2501984,3.4856186,1.7272949,5.2739029
				C131.372406,82.8206177,131.3748016,83.3078308,130.5059204,83.6928101z"/>
			<path class="st3" d="M133.3590698,71.5925751c-0.026886,0.7364502-0.7549591,1.012146-1.3195038,1.3305206
				c-1.0352173,0.5837936-1.9026337,1.1655273-2.5295868,0.8401413c-0.2691345-0.1397629-0.5949707-0.6037598-0.6655273-0.8933945
				c-0.0766602-0.3165207,0.0252991-0.5571747,0.2041931-0.8143387c0.5543823-0.7964401,2.1254272-1.107399,3.087677-1.2227707
				C132.5526581,70.782814,132.8761597,70.5064163,133.3590698,71.5925751z"/>
			<path class="st19" d="M131.6952209,86.0296021c0.495163,0.352066-0.4360504,1.1210785-0.7280273,1.2793274
				c-1.8626556,1.0099945-4.8556213,0.2188339-6.7571411-0.3399353c-0.2945709-0.0865631-1.1785126-0.3929901-1.4541779-0.5984116
				c-0.7106018-0.5295258,3.3178024,0.4556961,7.7813873-0.2420502
				C131.3640747,85.9992905,131.4797668,85.8764267,131.6952209,86.0296021z"/>
			<g>
				<path class="st2" d="M107.5303192,80.1282272c-0.3751526-0.1422119-0.8491058-0.2051086-1.1366882,0.0768509
					c-1.0001678,0.9805832-0.9703674,2.0055161-0.0325546,2.9579468c0.4520721,0.4549026,0.974144,0.7024384,1.5476532,0.9351044
					c0.3720779,0.1509552,0.8103333-0.0727997,0.8887024-0.463501
					C109.0325165,82.4626541,108.5575638,80.5229416,107.5303192,80.1282272z M108.0934525,83.2591095
					c-0.0029449,0.003746-0.005928,0.0074692-0.0089493,0.0111542c-0.3613434,0.4414291-0.9829712-0.1970139-1.2620468-0.4343262
					c-0.8316727-0.7072296-1.1085358-1.4525223-0.3232727-2.2695694c0.1908951-0.198616,0.4807129-0.2777786,0.8400192-0.098053
					C108.2471313,80.9183731,108.5500793,82.6777954,108.0934525,83.2591095z"/>
			</g>
			<path class="st3" d="M120.5270691,72.6992035c2.3072052-0.3381882,3.4225845,1.1902695,1.7632065,1.9117813
				c-1.0014496,0.4354401-2.4714737,0.3488464-3.5881119,0.5874863c-0.647728,0.1384277-1.0808182,0.436203-1.6312714,0.7762299
				c-1.4343491,0.8860245-1.9294968-0.2080307-1.0695572-1.3381195
				C117.0230484,73.2938995,118.9458313,72.9001846,120.5270691,72.6992035z"/>
			<ellipse class="st3" cx="131.8944244" cy="76.1047134" rx="0.8055535" ry="1.3527297"/>
			<ellipse class="st3" cx="120.396225" cy="76.8825378" rx="0.8055535" ry="1.3527297"/>
			<g>
				
					<ellipse transform="matrix(0.0298499 -0.9995544 0.9995544 0.0298499 -23.5185528 288.1270142)" class="st20" cx="136.6706696" cy="156.1791992" rx="1.095392" ry="5.9676762"/>
				
					<rect x="136.0553131" y="139.5975647" transform="matrix(0.9995544 0.0298499 -0.0298499 0.9995544 4.4784937 -4.0209661)" class="st26" width="1.7198464" height="16.7842579"/>
				<path class="st20" d="M144.1678009,135.3235931c-1.2850189,4.1415558-4.3913269,5.7125854-7.0370636,5.5045776
					c-2.6534424,0.0532379-5.6637726-1.7039337-6.6993561-5.9147949
					c-1.0570526-4.2828064,1.9249878-15.9083939,1.9249878-15.9083939
					c0.014679-0.4918137,10.8538666-0.1681213,10.8391724,0.3236923
					C143.1955414,119.3286743,145.4786224,131.111496,144.1678009,135.3235931z"/>
				<path class="st25" d="M131.404953,129.6087189c-0.2641602,2.0829926-0.3653259,4.0882874-0.0549469,5.3456879
					c0.8771057,3.5663147,3.4265747,5.0543823,5.6737366,5.0094147c2.2407227,0.176178,4.8714752-1.1543732,5.9598236-4.6620026
					c0.3848572-1.2366333,0.4036102-3.2443848,0.2641602-5.3394318L131.404953,129.6087189z"/>
			</g>
			<path class="st0" d="M140.7163696,141.8029175c0.7202759,0.3156281,1.4516754,0.7398376,1.8060455,1.441864
				s0.1400299,1.7325287-0.6005859,1.996933c1.3616791,0.2321014,1.749054,2.0299835,0.598587,2.800293
				c0.5772858,1.0650024-0.2145844,2.5968933-1.4172821,2.7417908c0.7908936,0.0496368,1.1188812,1.1629791,0.7264862,1.8514709
				c-0.7832642,1.3742981-1.891571,1.1664886-8.4633636,3.7617188c-6.994278,2.7620544-7.9040604,3.6435699-9.419136,4.1750488
				c-0.2490234,0.0873566-2.9637146,0.8897858-2.9795914,0.8651733c-1.8317795-2.8260651-2.1749191-7.0611572-2.7855911-10.3522797
				c3.4912872-1.6526031,6.4653397-5.8125916,9.3882828-8.3716431c1.6735229-1.4651794,3.6889648-2.0009613,5.8818817-1.9305267
				C136.0280151,140.8654785,138.3161469,140.7511444,140.7163696,141.8029175z"/>
			<path class="st15" d="M120.2251968,149.1329041c1.3235931-0.4065857,5.0422134,11.6973419,3.7186203,12.1039429
				c0,0-37.0668106,18.4989319-57.1125488,13.7565308s-7.4189339-30.6152954-5.0810776-36.1603546
				c2.3378601-5.5450439,16.1374512-33.0453568,23.1655121-33.3790741
				c7.0280685-0.3337097,16.5840912,14.9901199-2.625618,46.306778
				C82.2900848,151.7607269,106.6654587,151.509201,120.2251968,149.1329041z"/>
			<g>
				<path class="st12" d="M218.4897461,177.9493256c0,5.6877289-10.2253113,9.2901764-22.8388519,9.2901764
					c-12.6135559,0-23.2005463-3.8775787-22.8388519-9.5625305c0.2633057-4.1386414,10.225296-5.4551086,22.8388519-5.4551086
					C208.2644348,172.2218628,218.4897461,173.8023071,218.4897461,177.9493256z"/>
				<ellipse class="st20" cx="195.6508942" cy="177.9493256" rx="22.83885" ry="7.5088177"/>
				<ellipse class="st1" cx="195.6508942" cy="177.9493256" rx="15.7071495" ry="5.1641011"/>
			</g>
			<g>
				<path class="st12" d="M153.0480042,177.9493256c0,5.6877289-10.2253113,9.2901764-22.8388519,9.2901764
					s-23.2005463-3.8775787-22.8388519-9.5625305c0.2633133-4.1386414,10.2253036-5.4551086,22.8388519-5.4551086
					S153.0480042,173.8023071,153.0480042,177.9493256z"/>
				<ellipse class="st20" cx="130.2091522" cy="177.9493256" rx="22.83885" ry="7.5088177"/>
				<ellipse class="st1" cx="130.2091522" cy="177.9493256" rx="15.7071495" ry="5.1641011"/>
			</g>
			<path class="st27" d="M92.7617111,127.3829269c-0.5167694,7.0140457-6.342041,18.1453476-10.1532898,24.5678635
				l-0.3310547-0.5605469l24.8916168-0.7285156c-5.8490372,0.6941986-19.2484894,1.2281342-24.8659668,1.4694824
				c-0.2953873,0.0127563-0.4798203-0.3077393-0.3341827-0.5556641c0.3575134-0.6101227,1.7755127-3.0300293,1.6852417-2.8759766
				c0.6194305-1.1479797,2.1844482-3.698349,4.6430511-8.8283691
				C89.9374619,136.5083771,92.1931305,131.0940399,92.7617111,127.3829269z"/>
			<g>
				<rect x="45.8525047" y="168.1796722" class="st8" width="8.8917656" height="15.5928059"/>
				<ellipse class="st8" cx="50.2983856" cy="183.353653" rx="8.0863523" ry="2.2229414"/>
				<ellipse class="st3" cx="50.2983856" cy="168.4696198" rx="5.7345443" ry="2.0940752"/>
				<g>
					<path class="st27" d="M49.9236145,132.5829315v-4.4487305c0-0.4960098,0.75-0.496315,0.75,0v4.4487305
						C50.6736145,133.078949,49.9236145,133.0792542,49.9236145,132.5829315z"/>
				</g>
				<path class="st26" d="M51.9789124,168.6807251c0,0.6572418-3.3610535,0.6572418-3.3610535,0v-37.2793274
					c0.0000801-0.8361206,3.3611336-0.8361206,3.3610535,0V168.6807251z"/>
				<path class="st25" d="M46.972271,121.0490875c1.1520767-3.3066788,3.8614197-6.4524841,3.1260376-10.0789566
					c2.1853447,2.9825745,3.6559219,6.4851837,4.2547226,10.1338654c0.4271812,2.6029434-0.0933037,7.834938-3.8537178,7.7106094
					C46.5510178,128.6840668,45.9824295,123.8901291,46.972271,121.0490875z"/>
			</g>
			<g>
				<rect x="238.1695709" y="168.1796722" class="st8" width="8.8917656" height="15.5928059"/>
				<ellipse class="st8" cx="242.615448" cy="183.353653" rx="8.0863523" ry="2.2229414"/>
				<ellipse class="st3" cx="242.615448" cy="168.4696198" rx="5.7345443" ry="2.0940752"/>
				<g>
					<path class="st27" d="M242.240509,132.5829315v-4.4487305c0-0.4960098,0.75-0.496315,0.75,0v4.4487305
						C242.990509,133.078949,242.240509,133.0792542,242.240509,132.5829315z"/>
				</g>
				<path class="st26" d="M244.2959747,168.6807251c0,0.6572418-3.3610535,0.6572418-3.3610535,0v-37.2793274
					c0.0000763-0.8361206,3.3611298-0.8361206,3.3610535,0V168.6807251z"/>
				<path class="st25" d="M239.2893372,121.0490875c1.1520691-3.3066788,3.8614197-6.4524841,3.1260376-10.0789566
					c2.1853485,2.9825745,3.6559143,6.4851837,4.254715,10.1338654c0.4271851,2.6029434-0.0932922,7.834938-3.853714,7.7106094
					C238.8680878,128.6840668,238.2994995,123.8901291,239.2893372,121.0490875z"/>
			</g>
		</g>
	</g>
</g>
</svg>
