<?xml version="1.0" encoding="utf-8"?>
<!-- Generator: Adobe Illustrator 22.0.1, SVG Export Plug-In . SVG Version: 6.00 Build 0)  -->
<svg version="1.1" id="Layer_1" xmlns="http://www.w3.org/2000/svg" xmlns:xlink="http://www.w3.org/1999/xlink" x="0px" y="0px"
	 viewBox="0 0 300 300" style="enable-background:new 0 0 300 300;" xml:space="preserve">
<style type="text/css">
	.st0{fill:#EDC1A4;}
	.st1{fill:#E2E0E0;}
	.st2{fill:#D39E81;}
	.st3{fill:#502E26;}
	.st4{fill:#CCCACA;}
	.st5{fill:#426800;}
	.st6{fill:#538705;}
	.st7{fill:#D47E44;}
	.st8{fill:#73341D;}
	.st9{fill:#BC672E;}
	.st10{fill:#96311D;}
	.st11{fill:#B83E21;}
	.st12{fill:#DE8D82;}
	.st13{fill:#EFBAB4;}
	.st14{fill:#FDD5D0;}
	.st15{fill:#6883CE;}
	.st16{fill:#3D4885;}
	.st17{fill:#3859AE;}
	.st18{fill:#864424;}
	.st19{fill:#FEFEFE;}
	.st20{fill:#FFFFFF;}
	.st21{fill:#A55925;}
	.st22{fill:#F4F2F2;}
	.st23{fill:#3C3E68;}
	.st24{fill:#E8997C;}
	.st25{fill:#F5C46B;}
	.st26{fill:#F7EBDA;}
	.st27{fill:#0E0C0D;}
	.st28{fill:#657C3A;}
	.st29{fill:#576C37;}
	.st30{fill:#7C995D;}
	.st31{fill:#36518C;}
	.st32{fill:#96B7E3;}
	.st33{fill:#A3B3DF;}
	.st34{fill:url(#SVGID_1_);}
	.st35{fill:url(#SVGID_2_);}
	.st36{fill:url(#SVGID_3_);}
	.st37{fill:url(#SVGID_4_);}
	.st38{fill:url(#SVGID_5_);}
	.st39{fill:#266AB7;}
	.st40{fill:#060E0D;}
	.st41{fill:#E0D4C6;}
	.st42{fill:#787E42;}
	.st43{fill:#D3D1D1;}
	.st44{fill:url(#SVGID_6_);}
	.st45{fill:url(#SVGID_7_);}
	.st46{fill:url(#SVGID_8_);}
	.st47{fill:#020508;}
	.st48{fill:#BAB6B6;}
	.st49{fill:#0F0B07;}
	.st50{fill:#2F3A68;}
	.st51{fill:#203257;}
	.st52{opacity:0.5;fill:#FFFFFF;}
	.st53{opacity:0.2;fill:#0E0C0D;}
	.st54{fill:#DD9F9B;}
	.st55{fill:#3E4D9B;}
	.st56{fill:url(#SVGID_9_);}
	.st57{fill:#5F6194;}
	.st58{fill:url(#SVGID_10_);}
	.st59{fill:url(#SVGID_11_);}
	.st60{fill:url(#SVGID_12_);}
	.st61{fill:url(#SVGID_13_);}
	.st62{fill:#070102;}
	.st63{fill:#100805;}
	.st64{fill:#FDA465;}
	.st65{fill:#2A50A1;}
	.st66{fill:#B76C39;}
	.st67{fill:#130602;}
	.st68{fill:url(#SVGID_14_);}
	.st69{fill:url(#SVGID_15_);}
	.st70{fill:url(#SVGID_16_);}
	.st71{fill:url(#SVGID_17_);}
	.st72{fill:url(#SVGID_18_);}
	.st73{fill:url(#SVGID_19_);}
	.st74{fill:#B4BDED;}
	.st75{fill:#100D08;}
	.st76{fill:#F6C85F;}
	.st77{fill:#FECF00;}
	.st78{fill:#2D59E2;}
	.st79{fill:#121F3A;}
	.st80{fill:#BBD0F5;}
	.st81{fill:#020202;}
	.st82{fill:#E2CFB7;}
	.st83{fill:#080805;}
	.st84{fill:#A87D7C;}
	.st85{fill:#182052;}
	.st86{fill:#EAEAEA;}
	.st87{fill:#DDDDDD;}
	.st88{fill:#3D4574;}
	.st89{fill:#ABC5F0;}
	.st90{fill:url(#SVGID_20_);}
	.st91{fill:#4159A8;}
	.st92{fill:#E0D0BD;}
	.st93{fill:#3D53AA;}
	.st94{fill:#0A0000;}
	.st95{fill:#BF6D36;}
	.st96{fill:#385DAE;}
	.st97{fill:#E0DCDC;}
	.st98{fill:#857E78;}
	.st99{fill:#0E213C;}
	.st100{fill:url(#SVGID_21_);}
	.st101{fill:#55608E;}
	.st102{opacity:0.3;fill:#F4F2F2;}
	.st103{opacity:0.3;}
	.st104{fill:#213987;}
	.st105{enable-background:new    ;}
</style>
<g id="Drive_Thru_1_">
	<g id="Drive_Thru">
		<g>
			<g>
				<ellipse class="st1" cx="108.8299332" cy="226.4360199" rx="86.8299332" ry="18.7973442"/>
				<polygon class="st7" points="277.9899292,87.4508972 277.9899292,231.2143555 230.0622559,213.3315125 230.0622559,79.2184525 
									"/>
				<polygon class="st15" points="277.9899292,87.4508972 214.3517914,87.677536 212.1974335,81.9768372 228.3251343,54.8329163 
					278,54.7666283 				"/>
				<path class="st15" d="M271.4412537,103.325882v69.1370239c-50.7210083-6.5827789-33.225708-4.3121643-37.0117035-4.8035278
					c0.1874695-77.0717621,0.1586761-65.2335205,0.1656952-68.122406c0-2.0375061,1.6522217-3.6896362,3.6895294-3.6896362
					h25.6779327C268.0953674,95.8473358,271.4412537,99.1972885,271.4412537,103.325882z"/>
				<path class="st19" d="M244.4920349,153.7789612c-0.8406219,3.6109772-2.2030029,7.6813507-5.6399536,9.0686035
					c-1.4079285,0.5673523-2.9524841,0.5507813-4.4100952,0.1283875l0.1532593-63.4389801
					c0-2.0375061,1.6522217-3.6896362,3.6895294-3.6896362h10.1038971
					C250.2231293,115.1979141,248.9021454,134.8465271,244.4920349,153.7789612z"/>
				<path class="st3" d="M238.2358856,151.3490448c0.3869476-1.8081512,0.0495148-3.7608948-0.9217682-5.3343658
					c-0.404129-0.6546783-0.9177704-1.2561646-1.1644745-1.9848938c-0.3526001-1.0415192-0.0719147-2.2705078,0.6978912-3.0556793
					c0.8153381-0.8316193,0.3378754-2.2079163-0.0057373-3.3207245c-0.4215698-1.3652496-1.393631-2.7232666-1.0858765-4.1947937
					c0.1500549-0.7174683,0.6819-1.3916473,1.4022217-1.5273895c-0.6200867-1.8693542-0.1569977-4.130661,1.083374-5.6605148
					s3.2848663-2.3672104,5.2420197-2.1469727c0.6175842-1.3583984,2.0649109-2.2965012,3.5570831-2.3055573
					s2.9507751,0.9114075,3.5847931,2.2622147c1.6915283-2.4836502,5.4871368-2.1479645,6.715683,0.5954514
					c0.5590515,1.2484055,0.4660339,2.8012466,1.3659058,3.8314285c0.6229858,0.7131653,1.6059265,1.0218964,2.2553101,1.7110901
					c1.7788696,1.8879852,0.2597046,4.9828491-0.0763855,6.8611603c-1.03125,5.7635498,3.908783,11.4110565,2.3874207,17.1327972
					c-1.202301,4.5217285-6.3718872,8.0070343-13.5588379,6.6730042c-2.7254333-0.5058746-5.3062592-1.6051636-7.7772217-2.8614349"
					/>
				<path class="st0" d="M254.289505,152.4703674l-4.7331085,5.8138733l-5.5529633-1.693573
					c0,0-0.7785492-3.8924408-0.948288-4.0622711c-0.1717224-0.1717224,2.5512238-4.1068878,2.6170959-4.2072601v-2.7951355
					l7.6772614-2.6252747c0.0130005,0.1913605,0.4348907,6.4015808,0.4264832,6.27771L254.289505,152.4703674z"/>
				<path class="st2" d="M253.5275879,145.5219574c-2.3934784,2.588089-5.7062225,4.3188629-9.2011414,4.7952423
					c0.666626-1.0146179,1.3457947-1.9960632,1.3457947-1.9960632v-2.7951355l7.6772614-2.6252747L253.5275879,145.5219574z"/>
				<path class="st7" d="M205.372818,138.0734711c-0.8631287,2.4425659-4.8887939,4.2911682-9.7286682,4.2911682
					c-5.4723969,0-9.9069061-2.3621979-9.9069061-5.2765503c0-0.5678711,0.1764069-1.1725464,0.5556183-1.7438507
					c1.3523712-2.0583038,5.028595-3.5328827,9.3512878-3.5328827c5.3395538,0,9.6902313,2.2470245,9.8964081,5.063446
					C205.5760345,137.2296753,205.5262756,137.6627655,205.372818,138.0734711z"/>
				<path class="st3" d="M205.372818,138.0734711c-5.3013153,1.0252838-10.7405701,0.4171295-15.9978333-0.6115417
					c-1.1636505-0.2271118-2.4845734-0.3564453-3.59935-0.7618561c-0.0034485,0-0.0034485-0.003418-0.006958-0.003418
					c0.059433-0.4717865,0.2411499-0.9260101,0.5241852-1.352417c6.136322,2.1560822,12.8457794,2.6698456,19.2476959,1.5305634
					C205.5760345,137.2296753,205.5262756,137.6627655,205.372818,138.0734711z"/>
				<path class="st19" d="M255.1733856,149.9114227l-1.3961029-0.731369c0,0-1.0789642,6.4247131-5.0578613,6.0363464
					s-3.9692688-3.135849-3.0457611-6.8942261h-1.1787109c0,0-7.3178101,14.3639221-5.6970825,17.9000397
					c1.6207123,3.5361328,9.5769958,6.5039825,9.5769958,6.5039825l5.1568604-3.8027802l2.5047455-12.1308746
					L255.1733856,149.9114227z"/>
				<path class="st11" d="M250.7661133,169.0345306l4.4072723-19.1231079c0,0,10.5709076,3.1924744,13.0542145,22.5494843
					L250.7661133,169.0345306z"/>
				<path class="st19" d="M271.4412537,103.325882v69.1370239l-6.4350281-0.8364868
					c-5.8635559-19.5990601-11.2715912-66.5200119-12.2985382-75.7790833h11.2550201
					C268.0953674,95.8473358,271.4412537,99.1972885,271.4412537,103.325882z"/>
				<path class="st15" d="M271.3930054,172.1006317l-40.8418579-8.3055725l-3.7734833,1.4627838
					c-1.8426666,0.7143097-1.6388855,3.3849335,0.2908325,3.8113861l35.8376617,7.9200897L271.3930054,172.1006317z"/>
				<path class="st93" d="M271.3930054,172.1006317c0,0,1.1941528,4.1035461-1.7200928,5.4276276
					c-3.1471558,1.4299011-6.7667542-0.5389404-6.7667542-0.5389404L271.3930054,172.1006317z"/>
				<path class="st0" d="M229.9346466,150.569931c-7.5112152,2.107605-7.5831909-0.0659332-15.4697571-6.1359558
					c-2.3326874-1.7953796-4.2479858-4.1376038-5.5135803-6.7972107c-2.2142181-4.6531219-1.9450989-6.3916626-10.4157715-7.1359406
					c-0.7878723-0.0692291-1.6856995-0.1731415-2.4685669-0.0279083c-0.690979,0.1281891-2.9812469,0.1304321-2.9134827,1.1943359
					c0.0246735,0.3873901,0.3029175,0.7093353,0.5953674,0.9645844c2.082962,1.8180084,5.1171265,1.6878052,7.5708771,2.7940979
					c1.2363586,0.5574188,2.3764038,1.4994507,2.8023376,2.7870331c-2.8002167,1.0727997-5.5486145,0.4454956-6.3479614,0.6502686
					c-0.8184509,0.2096558-0.9953613,1.0571136-0.1484833,1.6529846c1.4325256,1.0079193,3.9867096,0.3422699,4.9412689,1.2242889
					c0.5518951,0.509964,0.8806458,1.6698914,1.219101,2.346817c4.1940155,8.3883972,8.3147125,18.6593781,17.1948547,21.6156464
					c4.477478,1.4905853,9.4569092,0.7015228,13.802536-1.1383972"/>
				<path class="st11" d="M244.4949493,148.3221741c0,0-10.0065918,0.385849-15.4597778,2.1944122
					c0,0,3.2145081,15.4128265,3.3867188,15.4128265s8.2004242-0.2377625,8.2004242-0.2377625
					S243.4936523,157.3208466,244.4949493,148.3221741z"/>
				<path class="st0" d="M256.9541931,137.2914581c-0.4120483,1.6212769-1.6438751,2.3358917-2.6624756,2.2149658
					c0.1584473,0.0187988-0.1621399,2.0931549-0.2041931,2.2870178c-0.1672974,0.7713776-0.4324493,1.521698-0.7888947,2.2260132
					c-0.3069,0.6064301-0.4975433,1.1452026-0.9944305,1.6276855c-1.6883392,1.6393585-3.6906586,1.8534393-6.0308838,1.5093689
					c-2.2990875-0.3380127-4.6781464-1.2384338-5.9934998-3.154129c-1.2782135-1.8616028-1.3043823-4.2799225-1.2841492-6.5380096
					c0.014801-1.6522217,0.0544891-3.2911835,0.5853271-4.8668365c0.447525-1.3283539,0.6022949-2.5843353,1.8474731-3.4763184
					c1.0669861-0.764328,2.5221558-0.9529724,3.748764-0.4859619c1.1869507,0.4519043,2.5404053,1.7506714,3.9313965,1.2271423
					c0.6369324-0.2397156,1.1553955-0.8649445,1.8348236-0.8258514c1.048233,0.0603333,1.3134918,1.4599609,1.5915527,2.2424164
					c0.3989258,1.1226349,0.7219696,2.2722321,0.9658966,3.4384003c-0.0279083-0.720932,0.6486206-1.3508148,1.3687286-1.3950195
					C256.3076172,133.2340698,257.5556946,134.9248505,256.9541931,137.2914581z"/>
				<path class="st3" d="M244.3075714,142.9202576c0.6910553-0.4136963,1.0625-1.3168488,0.7743835-2.0638275
					c-1.3142853-0.0496063-2.6286163-0.0959167-3.9429474-0.1420593
					C240.9758606,142.4875793,242.8660889,143.7850494,244.3075714,142.9202576z"/>
				<path class="st19" d="M241.2029724,141.4993896c0.7857666,0.3797302,2.4334717,0.5479431,3.9748993-0.0176849
					c0.0106659-0.2097015-0.0177765-0.4226837-0.0959167-0.6252747c-1.3142853-0.0496063-2.6286163-0.0959167-3.9429474-0.1420593
					C241.1141663,140.984436,241.1354523,141.2472076,241.2029724,141.4993896z"/>
				<ellipse class="st3" cx="246.3780212" cy="136.1174316" rx="0.6619324" ry="0.9100923"/>
				<path class="st3" d="M245.3489532,135.5027771c0.1115112-0.3796234,1.0071411-0.5159912,1.5796814-0.3001404
					c0.4758911,0.1794434,0.5250702,0.524704,0.3572693,0.5395966c-0.1965942,0.0174713-0.3938751-0.2720032-1.1370544-0.2597504
					C245.7226257,135.4895172,245.253952,135.8261719,245.3489532,135.5027771z"/>
				<ellipse class="st3" cx="241.2247314" cy="136.174118" rx="0.6619324" ry="0.9100923"/>
				<path class="st3" d="M240.1956482,135.5594788c0.1390839-0.4734802,1.4993896-0.5660095,1.9194641-0.0854492
					c0.0667267,0.0763245,0.197464,0.3089142,0.0174866,0.3249054c-0.196579,0.0174561-0.3938751-0.2720184-1.1370392-0.2597656
					C240.5693359,135.5462036,240.1006622,135.8828735,240.1956482,135.5594788z"/>
				<path class="st2" d="M242.4044952,139.4611664c0.0363464,0.1454468,0.1788635,0.2447815,0.3256531,0.2752991
					c0.1874695,0.0389709,0.1316223,0.033844,1.9729156-0.2796936c0.1319275-0.0224609,0.3022766-0.0966339,0.2754669-0.2277374
					c-0.0466766-0.2283783-0.4457703-0.0970764-1.6303253,0.0841522c-0.4242249,0.0649109-0.61203-0.0856476-0.4555969-0.5001373
					c0.9776917-2.5904388,0.9500275-2.4670868,0.9426727-2.6164856c-0.0049133-0.0999603-0.0732117-0.2521057-0.1785583-0.2117615
					c-0.0729218,0.0279083-0.1766357,0.344635-0.2134399,0.4200592c-0.1439362,0.2950592-0.277771,0.595047-0.4012299,0.8992462
					C242.9291992,137.5821991,242.332428,139.1728973,242.4044952,139.4611664z"/>
				<path class="st3" d="M245.1178894,133.287323c-0.1423798,0.0089417-0.3083801,0.0337982-0.3769531,0.158905
					c-0.062027,0.1131592-0.0074921,0.2620392,0.0905304,0.3459778c0.3520355,0.3014679,3.0940704,0.4952545,3.5939789,0.4010925
					c0.4594116-0.0865326,0.4559937-0.4572601,0.1116943-0.705246c-0.3869934-0.2787476-1.0099487-0.2124786-1.462738-0.2281494
					C246.4223175,133.2373352,245.7691193,133.2464294,245.1178894,133.287323z"/>
				<path class="st3" d="M239.2545166,133.1448212c-0.1423798,0.0089417-0.3083801,0.0337982-0.3769531,0.158905
					c-0.062027,0.1131592-0.0074921,0.2620392,0.0905304,0.3459778c0.3520355,0.3014679,3.0940704,0.4952545,3.5939789,0.4010925
					c0.4594116-0.0865326,0.4559937-0.4572601,0.1116943-0.705246c-0.3869934-0.2787476-1.0099487-0.2124786-1.462738-0.2281494
					C240.5589447,133.0948334,239.9057465,133.1039276,239.2545166,133.1448212z"/>
				<path class="st2" d="M254.8316498,137.1920624c0,0-0.2981262-1.6480865-0.3643951-2.1491241
					c0.5673065-0.0082855,1.1760101,0.3105774,1.2464142,0.8736877
					C255.7840881,136.4797363,255.382431,137.0596313,254.8316498,137.1920624z"/>
				<path class="st0" d="M188.885025,130.0043945c-1.8229523-0.6420593-4.9928436-0.2709351-6.8553619,0.1957245
					c-5.4255219,1.3586273-6.2043152,5.7254486-7.6103668,8.0207977c-1.7775421,2.9015656-6.7445221,5.7762299-9.5150146,7.4907227
					c-1.0936279,0.6769867-2.6913452,3.7946625-4.1854248,4.7488556l-0.0167542,4.2137756l3.0348663,4.7879944
					c3.147583-0.5323334,8.5581055-5.2821655,10.4728699-7.8365021c7.5496979-10.0693207,7.358429-10.0965424,8.7974548-10.7367401
					c1.0263672-0.4568176,2.6365204-0.5768585,3.4073181-1.4468079c0.7115784-0.8028107-0.0176239-1.6431274-0.8939667-1.7223206
					c-0.5060425-0.0459595-1.0628357,0.2193909-1.4986877-0.041626c-0.4134979-0.247757-0.4576111-0.8670654-0.2218018-1.2875061
					c0.2357483-0.4204407,0.6655884-0.688736,1.0775909-0.9390411c4.0600281-2.4654083,4.2670898-2.5488129,4.6672516-3.0037842
					C190.3890076,131.4882965,189.9880524,130.3928528,188.885025,130.0043945z"/>
				<path class="st13" d="M163.6941376,165.8788605l-34.6389313,9.9216614c0,0-61.0580444-5.1472626-77.5058212-12.973587
					c-0.6204796-3.7922974,2.0348358-7.4784851,3.6936798-11.056366c1.9379311-4.1823883,3.8718147-8.3771057,6.2114029-12.3564911
					c1.4079781-2.4016571,3.6854935-6.687561,6.6006241-7.3335724c2.3880539-0.5226593,70.8410568-0.5455475,77.2284164-0.1326447
					c2.7158203,0.1723022,4.2912598,2.4234009,6.3853912,5.5158539c3.1511993,4.6668396,5.9090729,9.6774139,8.4516144,14.6920319
					C162.1868286,156.2220764,164.7832031,161.3693237,163.6941376,165.8788605z"/>
				<path class="st22" d="M158.546936,172.1689148c-1.9545135,1.1717072-4.1740417,1.975235-6.3521881,2.6873627
					c-28.1210938,9.1846619-59.2029648,8.8243561-87.2412109-0.6086121
					c-2.9152336-0.9814453-5.8552361-2.0870361-8.339798-3.8926392c-3.8192558-2.7202148-5.4397659-6.6145325-5.1305733-9.395752
					c0.2857018-3.1014557,2.4927483-6.455658,3.7598991-9.1887054c1.9379311-4.1823883,3.8718147-8.3771057,6.2114029-12.3564911
					c1.4079781-2.4016571,3.6854935-6.687561,6.6006241-7.3335724c2.3880539-0.5226593,70.8410568-0.5455475,77.2284164-0.1326447
					c2.7158203,0.1723022,4.2912598,2.4234009,6.3853912,5.5158539c3.1511993,4.6668396,5.9090729,9.6774139,8.4516144,14.6920319
					C164.2843475,160.3497925,166.6888885,167.3017426,158.546936,172.1689148z"/>
				<path class="st4" d="M158.5485992,172.1689606c-1.9545288,1.1706543-4.1769104,1.97435-6.3546448,2.6886597
					c-28.1220474,9.1820831-59.2007599,8.825058-87.2385101-0.6101532
					c-2.9168167-0.9822083-5.8584633-2.0884247-8.3437653-3.8941803c-0.4554825-6.9596558,3.1165543-13.729538,6.3298264-15.9286652
					c2.8870239-1.9794312,7.2574081-1.53302,7.7187195-1.8403931c0.138916-0.094223,0.1191711-0.3175507,0.1786346-0.4762115
					c-0.5555267-2.6888885-7.4310799-3.914032-3.0310211-10.6952362c1.4881973-2.2967377,4.5589523-3.3237457,7.1335144-3.7800903
					c4.5240707-0.8036957,10.0552979-0.396759,13.9294968,2.3018188c2.8351517,1.9732513,3.9655838,5.2259521,1.805748,8.1303711
					c-0.9424744,1.2699585-3.9486771,2.9863281-4.0478668,4.469696l0.1785202,0.3223877
					c1.6883926,0.2012939,38.7313309,0.3498535,39.2240982,0.3323364c0.4960632-0.0198669,1.0119934,0.0150146,1.4286728-0.2826691
					c-0.024826-0.6745911-0.3720474-1.0168457-0.8532791-1.463501c-2.0685654-1.909668-4.2859726-3.2491455-4.4199219-6.3594971
					c-0.0694504-1.6468658,0.4613113-3.1350708,1.5873947-4.3405914c2.6440811-2.837616,7.2277374-3.1699371,10.8539581-3.1997375
					c3.8247223-0.0346375,8.0610962,0.3621216,10.9085846,3.234375c2.6558838,2.6882935,2.9186707,6.2582703,0.0793304,8.8500061
					c-0.9226837,0.8431702-2.6341553,1.5029755-3.1748505,2.5844879c0.0467072,0.1898193-0.1972351,0.4722443,0.2678986,0.6745911
					c0.5506439,0.2256775,5.9669189-0.5197906,10.0106659,1.8801117c2.5200043,1.493042,3.7601776,4.2960205,4.677887,7.0738068
					C158.5847321,165.4252167,159.2871094,168.0802917,158.5485992,172.1689606z"/>
				<g>
					<path class="st0" d="M139.767334,159.2631073c-0.1847992,0.315155-6.5307007,2.0553436-6.5307007,2.0553436
						l-5.3615112-1.8870087c0,0-1.4410706-2.1424255-1.6367569-2.2130585
						c-0.195816-0.0762024,1.9303513-1.9249725,1.9303513-1.9249725c1.4174957-0.4570007,2.867981-2.6306152,2.4252625-5.3070831
						c-0.0272217-0.1794739,6.3784332,0.4620056,6.3784332,0.4620056c0.0228729,0.1003418-0.219635,3.460968,1.8161774,5.0083771
						C140.9365234,157.093338,139.9468231,158.9476776,139.767334,159.2631073z"/>
					<path class="st2" d="M137.2660675,153.0150452c-2.1968536,1.2396851-4.9266052,1.4900665-7.3192139,0.6959076
						c0.5709229-0.9677887,0.8863525-2.2783661,0.6471252-3.7246246c-0.0272217-0.1794739,6.3784332,0.4620056,6.3784332,0.4620056
						S136.8962708,151.6882782,137.2660675,153.0150452z"/>
					<path class="st15" d="M119.9408417,155.150177c0,0,2.8945618-0.3050842,6.5766678,0.113266
						c0,0,1.6242447,3.8130951,6.9527817,3.8728943c5.3285217,0.0597992,6.3607483-3.6675568,6.3607483-3.6675568
						s4.9000854-0.1365967,5.9971771,0.0038757c0,0,3.7743073,14.1792603,2.4808807,23.115509
						s-31.8340149,1.87677-31.8340149,1.87677l-0.4143753-15.0827637L119.9408417,155.150177z"/>
					<path class="st15" d="M145.8282166,155.4726563c7.2993469-1.796051,14.0090485-6.150116,20.4025879-11.8753204
						c2.4643555,4.957077,4.4891357,8.7275085,4.8015442,13.6604614
						c-4.9708252,8.8527527-14.8877411,11.2611694-26.8165131,11.0485077l-2.7642365-9.1589813"/>
					<path class="st15" d="M119.9408417,155.150177c0,0-6.2448502-0.2594299-10.1129532,12.9910431
						s-5.2328262,22.8485718-0.6115265,23.4651794s7.3427353-1.694046,8.9858627-3.9533386
						c1.6431274-2.2593079,1.2635193-5.9685211,1.5181274-9.095871c0.2546158-3.1273499,0.4546127-8.5732422,2.5234375-13.1404572
						C122.2437897,165.4167328,120.2266769,155.1341858,119.9408417,155.150177z"/>
					<g>
						<path class="st3" d="M141.264328,137.5015106c0.614212,1.2939453,1.1282501,3.1609039,0.6940002,4.5809784
							c-0.2213898,0.7239685-0.1648865,1.4621887-0.5384216,2.1702728c-1.1030426,2.0908966-3.4913788,2.640686-5.8636932,2.6992035
							c-2.3038177,0.056839-6.6949005-0.3862915-8.5154266-1.7560577c-1.1742783-0.8835297-1.2750778-2.0924683-1.4110565-3.4511566
							c-0.1357727-1.3565979,0.0247803-2.699173,0.6284561-3.9314423
							C128.5709381,133.0923767,138.4068146,131.4825897,141.264328,137.5015106z"/>
						<path class="st0" d="M128.4420166,149.9784851c-0.2957764-0.5005646-0.4640579-1.0284882-0.6450653-1.5767212
							c-0.51091-1.5474091-0.1029434-0.9734497-1.0832367-1.1447449c-1.3288116-0.2274017-2.1136856-1.7679901-1.8382874-2.9879303
							c0.1260147-0.5623322,0.4476776-0.8943024,0.909256-1.1994324c0.3072281-0.2030792,0.7748642-0.0974731,1.1122818-0.1725311
							c0.3130188-0.0696106,0.5989685-0.28302,0.8786545-0.4424591c2.0088654-1.1452179,3.7190247-2.9319611,4.7568817-5.1120148
							c0.4837799-1.0161896,0.9141693-1.0673981,1.5715942-0.5391693c1.6526184,1.3278351,3.3057404,2.6560822,4.9589539,3.9844055
							c0.4966278,0.3990173,1.1678009,0.752121,1.3853912,1.3619232c0.0316467,0.0887756,0.257309,0.7476196,0.2017365,0.8018799
							c0.3983002-0.2987823,0.7210236-0.5554657,1.2328491-0.6196594c1.9309387,0.6844635,1.4487915,3.7719574-0.1945496,4.4476166
							c-0.2796631,0.1146851-0.5886688,0.141098-0.888916,0.1514893
							C139.0371704,154.4757233,131.3010406,154.8170166,128.4420166,149.9784851z"/>
						<path class="st2" d="M133.7515564,143.7346039c0.2399445-0.2783508,0.4101563,0.3054962,0.4378662,0.4631195
							c0.1293182,0.7357635,0.1177673,1.8590698,0.1238861,2.6012878c0.0005646,0.0688324-0.0381012,0.3518066,0.0063934,0.4008179
							c0.1163483,0.1281586,0.2506561,0.2280121,0.3327789,0.3871002c0.3601379,0.6976776-1.0095673,1.0952454-0.9965057,0.1881866
							c0.0033569-0.2328949,0.1392975-0.4212646,0.1707306-0.6425018c0.1391449-0.9794617-0.3583374-3.0302582-0.0908966-3.3786163
							C133.7410889,143.7471161,133.7463379,143.7406616,133.7515564,143.7346039z"/>
						<path class="st3" d="M138.9546204,142.8840179c0.0891724,0.8803711-2.165451,0.3349915-2.9664917,0.2489777
							c-0.1912537-0.0316925-0.421524-0.0756378-0.5692139-0.2107239c-0.1144104-0.10466-0.2037048-0.2173462-0.2232971-0.3721466
							c-0.0890198-0.7032471,0.7011566-0.5512543,1.4002075-0.4724121c0.4227295,0.0476685,0.844574,0.103302,1.265213,0.1668243
							C138.3109741,142.3124847,138.9076996,142.4224243,138.9546204,142.8840179z"/>
						<path class="st3" d="M132.9511719,143.0347595c-0.0934143,0.077179-2.5065308,0.7578888-2.7622375,0.7650909
							c-0.1373596,0.0038605-0.2835693-0.0040436-0.3967896-0.0818939
							c-0.2534637-0.1742859-0.2539215-0.6125031,0.1628876-0.8893433c0.447464-0.2971954,2.3837891-0.8041534,2.5245667-0.8256073
							C133.1549377,141.9000702,133.3156586,142.7336426,132.9511719,143.0347595z"/>
						
							<ellipse transform="matrix(0.9934912 -0.1139084 0.1139084 0.9934912 -15.6150656 16.5454903)" class="st3" cx="136.97229" cy="144.910965" rx="0.5720446" ry="0.857518"/>
						
							<ellipse transform="matrix(0.9934912 -0.1139084 0.1139084 0.9934912 -15.67768 15.9449444)" class="st3" cx="131.6859589" cy="145.1585999" rx="0.5720446" ry="0.857518"/>
						<path class="st20" d="M135.5573578,148.8098602c-1.0536804,0.3007355-2.1685944,0.3851318-3.2555542,0.2464447
							c0.2778931,0.4217224,0.6392365,0.7641754,1.1308289,0.8799896
							C134.5586548,150.2015381,135.5822296,149.4212952,135.5573578,148.8098602z"/>
					</g>
					<path class="st2" d="M141.2029114,145.3816223c-0.0162659-0.4282837-0.0325165-0.8565826-0.0487671-1.2848816
						c-0.0089569-0.2359467,0.642868-0.4377441,0.7738342,0.2667847
						C142.0300598,144.912674,141.730957,145.1995697,141.2029114,145.3816223z"/>
					<path class="st2" d="M126.9669418,145.9427185c0.0278702-0.4277039,0.055748-0.8553925,0.0836258-1.2830963
						c0.015358-0.235611-0.6307526-0.4550323-0.7807999,0.2456818
						C126.1528168,145.4514771,126.4440308,145.7463837,126.9669418,145.9427185z"/>
					<path class="st3" d="M137.631073,134.2462006c-0.4678802,0.3229065-1.0145111,0.5093384-1.5569916,0.6872711
						l-4.8986664,0.0871429c-0.8654938-0.8199005-1.0269928-2.2320251-0.5010834-3.300415
						c2.8365326,0.016571,5.3997498,0.0372009,7.5737305,0.0663147
						C138.8273468,132.6899414,138.5006409,133.6383209,137.631073,134.2462006z"/>
				</g>
				<path class="st3" d="M181.5402069,227.7970886c0,9.1508789-26.1491699,9.1508789-26.1491699,0l-0.0000305-26.5871887h26.1492004
					V227.7970886z"/>
				<path class="st3" d="M60.9621429,227.7970886c0,9.1508789-26.149231,9.1508789-26.149231,0l0.0000038-26.5871887h26.1492081
					L60.9621429,227.7970886z"/>
				<path class="st7" d="M35.1800079,213.5301666c0,0,0.8098526,4.2974548,6.7232475,4.8089294
					c5.9133949,0.5114594,55.8353081,3.287262,85.7695465,1.8022156c0,0,28.914444-0.5254059,43.3047791-1.6221771
					c0,0,8.5828705-0.0337067,10.1355591-5.5296021c1.5526733-5.4958954-20.6926575-5.6215668-20.6926575-5.6215668
					l-71.955162,0.3729248L35.1800079,213.5301666z"/>
				<path class="st3" d="M133.9298096,156.1290588c-6.8283997,0-12.3647766,5.5364685-12.3647766,12.3647614
					c0,6.8285065,5.536377,12.3647766,12.3647766,12.3647766c6.8325348,0,12.3648682-5.5362701,12.3648682-12.3647766
					C146.2946777,161.6655273,140.7623444,156.1290588,133.9298096,156.1290588z M133.9298096,178.0594177
					c-5.2796936,0-9.5613556-4.281662-9.5613556-9.5655975c0-5.2796783,4.281662-9.5613403,9.5613556-9.5613403
					c5.2838287,0,9.5655975,4.281662,9.5655975,9.5613403C143.4954071,173.7777557,139.2136383,178.0594177,133.9298096,178.0594177
					z"/>
				<path class="st13" d="M185.309845,187.4468994c0.9975433,4.7288513-0.9637756,14.4750671-2.1330414,19.1581879
					c-0.5059509,1.9842682-2.0636597,6.3844452-2.0636597,6.3844452c-4.4298553,0.9177856-9.1921539,0.9671936-13.6963654,1.1856689
					c-62.6362152,2.958786-132.1169281-0.6429443-132.2367706-0.6450348c0,0-1.0020638-3.1202698-1.3145905-4.523941
					c-1.5930748-7.1804199-3.6142788-14.1715393-1.9247437-21.440155c0.6399155-2.772644,4.6213531-9.9005585,4.7076759-10.0504456
					c1.8354263-3.1847229,4.0875931-6.1759033,6.2157402-9.1721649c-3.2691269,0.0397186-6.8258934,0.1438751-10.0155754-0.580368
					c-1.7511311-0.3970032-3.1153183-0.9226074-4.0677891-2.5450134c-0.8780499-1.497879-1.0963516-3.4724731-0.6498165-5.1391907
					c0.3174286-1.2004395,0.9573765-2.0288391,2.0437355-2.6142883c2.3563194-1.2747955,8.4083824-1.8154297,10.9681053-1.0020599
					c2.7779694,0.8831329,3.6163521,4.2960205,4.77211,6.6177063c0,0,1.5973816-4.0380554,1.5973969-4.0380402
					c1.3528557,1.076889,2.1741562,2.5732269,5.8122978,3.0514832c5.7707329,0.7585907,44.4378815,2.9319763,82.031311,1.5121765
					c9.1673431-0.2607422,24.0894623-1.2644348,26.4801483-1.6219025c1.0367126,0.004837,1.7064514-0.0397339,2.5745697-0.6450348
					c1.4187469,0.1637421,2.8076935,0.3621216,4.1917419,0.7242279c0.9921417,0.5505676,1.6916046,1.3343964,2.4555054,2.1579437
					c0.3274841-2.0486908,0.2381134-5.4170074,2.113266-6.6969147c1.8900452-1.2898102,5.3774109-1.374115,7.5749512-0.9078369
					c1.5675964,0.3323212,3.026062,1.0914459,3.9239197,2.4604797c0.8780518,1.3295441,1.2203674,3.4031982,0.8284454,4.9408112
					c-0.2579651,1.0170898-0.932663,2.1233063-1.8701782,2.6392365c-2.7432709,1.5179901-7.9867401,1.0267639-11.1565552,1.4731903
					C176.3806305,173.1205292,184.0151825,181.3553009,185.309845,187.4468994z"/>
				<path class="st19" d="M41.0616341,180.6163483c4.3522835-0.2060089,16.8686676,1.2737885,20.3624992,3.7441254
					c2.51791,1.7802124,2.6002426,6.0315094,3.045578,8.8421478c-3.7941322-0.0170288-23.5464554,0.205658-27.4672585-1.6389618
					c-0.4599648-0.216629-0.7157478-0.5126648-0.8697968-0.9978638c-0.6088982-1.9178162,0.5766945-5.7859802,1.5679779-7.4703064
					C38.5210304,181.7016754,39.5309792,181.0408173,41.0616341,180.6163483z"/>
				<path class="st19" d="M172.7564697,179.9280548c0.8430939-0.0128174,1.5932312,0.0175629,2.3353271,0.4434967
					c2.0092621,1.1533813,2.7327118,3.717041,3.2746277,5.8342743c0.3395844,1.3253632,0.7263794,3.4678497-0.1598969,4.6431885
					c-1.0827026,1.4367981-4.017746,1.0043182-21.9359741,2.324707c-2.0648956,0.0969543-4.1287079,0.1748962-6.1844482,0.4003143
					c0.5865631-2.5874329,0.6370697-6.7304077,2.4589996-8.7356567
					C155.5936127,181.4835815,168.0712128,180.2142029,172.7564697,179.9280548z"/>
				<path class="st7" d="M148.1559448,193.7280426c-0.0352783,0.41008,0.2743378,3.0340118-1.374115,5.7544403
					c-1.6965637,2.8325195-4.7969971,4.727417-8.3388672,4.727417H78.2699432c-5.3861542,0-9.7130432-4.3761902-9.7130432-9.7178955
					v-0.7639618H148.1559448z"/>
				<path class="st94" d="M147.3125916,198.4554596c-0.1587067,0.3572845-0.3323212,0.6995392-0.5307617,1.0270233H69.9359894
					c-0.1983795-0.3274841-0.3770218-0.6697388-0.5357971-1.0270233H147.3125916z"/>
				<path class="st13" d="M163.6941376,165.8788605c1.0890656-4.5095367-1.507309-9.6567841-3.5736237-13.723114
					c-2.5425415-5.0146179-5.300415-10.0251923-8.4516144-14.6920319c-1.9134216-2.825592-3.5915375-5.3386078-6.3853912-5.5158539
					c-6.4605103-0.4176178-74.8649597-0.3846283-77.2284164,0.1326447c-2.9151306,0.6460114-5.192646,4.9319153-6.6006241,7.3335724
					c-2.3395882,3.9793854-4.2734718,8.1741028-6.2114029,12.3564911c-1.6588173,3.5778198-4.3141594,7.2640686-3.6936798,11.056366
					c-2.5218658-1.2008209-3.9960632-2.4679718-4.0374107-3.7848663c0,0,11.2384491-28.7380371,15.9301605-30.6926422
					c4.9774132-2.0745163,83.0174255-2.5672607,87.7463531-0.5259094
					c4.7248688,2.0373077,18.6424866,36.2994843,18.6424866,36.2994843L163.6941376,165.8788605z"/>
			</g>
			<g>
				<path class="st12" d="M136.7337036,189.4979248c0,0,8.1544647-9.648056,5.7592926-21.0041046
					C142.4929962,168.4938202,148.4872284,183.5215454,136.7337036,189.4979248z"/>
				<path class="st12" d="M82.1198883,189.4979248c0,0-8.1544724-9.648056-5.7592926-21.0041046
					C76.3605957,168.4938202,70.3663559,183.5215454,82.1198883,189.4979248z"/>
			</g>
		</g>
	</g>
</g>
</svg>
