<?xml version="1.0" encoding="utf-8"?>
<!-- Generator: Adobe Illustrator 22.0.1, SVG Export Plug-In . SVG Version: 6.00 Build 0)  -->
<svg version="1.1" id="Layer_1" xmlns="http://www.w3.org/2000/svg" xmlns:xlink="http://www.w3.org/1999/xlink" x="0px" y="0px"
	 viewBox="0 0 300 300" style="enable-background:new 0 0 300 300;" xml:space="preserve">
<style type="text/css">
	.st0{fill:#EDC1A4;}
	.st1{fill:#E2E0E0;}
	.st2{fill:#D39E81;}
	.st3{fill:#502E26;}
	.st4{fill:#CCCACA;}
	.st5{fill:#426800;}
	.st6{fill:#538705;}
	.st7{fill:#D47E44;}
	.st8{fill:#73341D;}
	.st9{fill:#BC672E;}
	.st10{fill:#96311D;}
	.st11{fill:#B83E21;}
	.st12{fill:#DE8D82;}
	.st13{fill:#EFBAB4;}
	.st14{fill:#FDD5D0;}
	.st15{fill:#6883CE;}
	.st16{fill:#3D4885;}
	.st17{fill:#3859AE;}
	.st18{fill:#864424;}
	.st19{fill:#FEFEFE;}
	.st20{fill:#FFFFFF;}
	.st21{fill:#A55925;}
	.st22{fill:#F4F2F2;}
	.st23{fill:#3C3E68;}
	.st24{fill:#E8997C;}
	.st25{fill:#F5C46B;}
	.st26{fill:#F7EBDA;}
	.st27{fill:#0E0C0D;}
	.st28{fill:#657C3A;}
	.st29{fill:#576C37;}
	.st30{fill:#7C995D;}
	.st31{fill:#36518C;}
	.st32{fill:#96B7E3;}
	.st33{fill:#A3B3DF;}
	.st34{fill:url(#SVGID_1_);}
	.st35{fill:url(#SVGID_2_);}
	.st36{fill:url(#SVGID_3_);}
	.st37{fill:url(#SVGID_4_);}
	.st38{fill:url(#SVGID_5_);}
	.st39{fill:#266AB7;}
	.st40{fill:#060E0D;}
	.st41{fill:#E0D4C6;}
	.st42{fill:#787E42;}
	.st43{fill:#D3D1D1;}
	.st44{fill:url(#SVGID_6_);}
	.st45{fill:url(#SVGID_7_);}
	.st46{fill:url(#SVGID_8_);}
	.st47{fill:#020508;}
	.st48{fill:#BAB6B6;}
	.st49{fill:#0F0B07;}
	.st50{fill:#2F3A68;}
	.st51{fill:#203257;}
	.st52{opacity:0.5;fill:#FFFFFF;}
	.st53{opacity:0.2;fill:#0E0C0D;}
	.st54{fill:#DD9F9B;}
	.st55{fill:#3E4D9B;}
	.st56{fill:url(#SVGID_9_);}
	.st57{fill:#5F6194;}
	.st58{fill:url(#SVGID_10_);}
	.st59{fill:url(#SVGID_11_);}
	.st60{fill:url(#SVGID_12_);}
	.st61{fill:url(#SVGID_13_);}
	.st62{fill:#070102;}
	.st63{fill:#100805;}
	.st64{fill:#FDA465;}
	.st65{fill:#2A50A1;}
	.st66{fill:#B76C39;}
	.st67{fill:#130602;}
	.st68{fill:url(#SVGID_14_);}
	.st69{fill:url(#SVGID_15_);}
	.st70{fill:url(#SVGID_16_);}
	.st71{fill:url(#SVGID_17_);}
	.st72{fill:url(#SVGID_18_);}
	.st73{fill:url(#SVGID_19_);}
	.st74{fill:#B4BDED;}
	.st75{fill:#100D08;}
	.st76{fill:#F6C85F;}
	.st77{fill:#FECF00;}
	.st78{fill:#2D59E2;}
	.st79{fill:#121F3A;}
	.st80{fill:#BBD0F5;}
	.st81{fill:#020202;}
	.st82{fill:#E2CFB7;}
	.st83{fill:#080805;}
	.st84{fill:#A87D7C;}
	.st85{fill:#182052;}
	.st86{fill:#EAEAEA;}
	.st87{fill:#DDDDDD;}
	.st88{fill:#3D4574;}
	.st89{fill:#ABC5F0;}
	.st90{fill:url(#SVGID_20_);}
	.st91{fill:#4159A8;}
	.st92{fill:#E0D0BD;}
	.st93{fill:#3D53AA;}
	.st94{fill:#0A0000;}
	.st95{fill:#BF6D36;}
	.st96{fill:#385DAE;}
	.st97{fill:#E0DCDC;}
	.st98{fill:#857E78;}
	.st99{fill:#0E213C;}
	.st100{fill:url(#SVGID_21_);}
	.st101{fill:#55608E;}
	.st102{opacity:0.3;fill:#F4F2F2;}
	.st103{opacity:0.3;}
	.st104{fill:#213987;}
	.st105{enable-background:new    ;}
</style>
<g id="Drone_Delivery_1_">
	<g id="Drone_Delivery">
		<g>
			<g>
				<path class="st24" d="M77.7983704,243.4437866c-0.5483398-0.0639648-0.9414063-0.5610352-0.8769531-1.109375
					c8.6953125-74.3261719,16.9086914-144.5302734,45.059082-169.7050781
					c0.4121094-0.3676758,1.043457-0.3330078,1.4121094,0.0791016c0.3681641,0.4116211,0.3325195,1.0439453-0.0791016,1.4121094
					C95.7285461,98.7894897,87.558136,168.6278687,78.9077454,242.5668335
					C78.8428726,243.1214905,78.336937,243.5102692,77.7983704,243.4437866z"/>
			</g>
			<g>
				<path class="st24" d="M178.620636,262.7055054l-95.3891602-25.9931641L53.941925,250.7191772
					c-0.4985352,0.2368164-1.0957031,0.027832-1.3339844-0.4707031s-0.0273438-1.0957031,0.4707031-1.3339844
					c31.3083801-14.871521,29.6383286-14.4157562,30.3198242-14.2294922l95.7475586,26.0908203
					c0.5332031,0.1450195,0.847168,0.6948242,0.7021484,1.2275391
					C179.7037201,262.5339661,179.1556091,262.8511353,178.620636,262.7055054z"/>
			</g>
			<g>
				<path class="st24" d="M178.0263977,262.2562866c-0.284668-0.4731445-0.1318359-1.0874023,0.3413086-1.3725586
					c1.0722656-0.6450195,1.7851563-1.7250977,1.956543-2.9624023
					c2.5307617-18.2875977,11.1005859-99.8432617,8.5488281-140.2578125
					c-0.5961914-9.4360352-2.9692383-18.2919922-7.0537109-26.3212891
					c-3.3520508-6.5878906-10.8706055-11.7001953-20.1123047-13.6757813
					c-0.5400391-0.1157227-0.8842773-0.6469727-0.769043-1.1870117c0.1157227-0.5400391,0.6494141-0.8852539,1.1870117-0.769043
					c9.8256836,2.1005859,17.8544922,7.6049805,21.4765625,14.7246094
					c4.2089844,8.2739258,6.6542969,17.3925781,7.2675781,27.1025391
					c2.5615234,40.5649414-6.0273438,122.328125-8.5634766,140.6582031
					c-0.2548828,1.8388672-1.3144531,3.4433594-2.9067383,4.4018555
					C178.931015,262.8797913,178.3138885,262.733429,178.0263977,262.2562866z"/>
			</g>
			<g>
				<path class="st15" d="M114.6355209,60.3899269c-0.581604,2.7096825-10.8684616,2.7995338-22.9763336,0.2006912
					c-12.107872-2.5988464-21.1766052-6.8543472-20.8701477-9.6119347
					c0.2729416-2.455986,10.8684616-2.7995338,22.9763336-0.2006912
					C105.8732452,53.3768387,115.2171326,57.6802483,114.6355209,60.3899269z"/>
				<path class="st15" d="M71.1360626,50.9073944c-0.581604,2.7096825-10.8684616,2.7995338-22.9763336,0.2006912
					c-12.107872-2.5988464-21.1766071-6.8543472-20.8701477-9.6119347
					c0.2729416-2.455986,10.8684654-2.7995338,22.9763374-0.2006912
					C62.3737907,43.8943062,71.7176743,48.1977158,71.1360626,50.9073944z"/>
			</g>
			<g>
				<path class="st15" d="M272.6795349,84.5552216c-0.7069092,2.679718-10.9868164,2.2913895-22.9608307-0.867363
					c-11.973999-3.1587524-20.8351593-7.8311234-20.4008789-10.5714951
					c0.386795-2.4406433,10.9868317-2.2913895,22.9608459,0.867363S273.3864441,81.8754959,272.6795349,84.5552216z"/>
				<path class="st15" d="M229.6677856,73.0612869c-0.7069092,2.679718-10.9868164,2.2913895-22.9608307-0.867363
					c-11.973999-3.1587524-20.8351593-7.8311234-20.4008789-10.5714912
					c0.386795-2.4406433,10.9868317-2.2913933,22.9608307,0.8673592
					C221.240921,65.6485443,230.3747101,70.3815613,229.6677856,73.0612869z"/>
			</g>
			<path class="st3" d="M231.7108002,69.3768463l-2.9504089-0.5355301l2.049942-11.2937164
				c0.1248627-0.6878777,0.7837219-1.1442947,1.4715881-1.0194359l0.4593811,0.0833817
				c0.6878815,0.1248589,1.1443024,0.7837143,1.0194397,1.4715919L231.7108002,69.3768463z"/>
			
				<rect x="74.3346481" y="31.4586468" transform="matrix(0.9839229 0.1785938 -0.1785938 0.9839229 7.9755201 -12.9352665)" class="st3" width="2.9986153" height="12.7441149"/>
			
				<ellipse transform="matrix(0.1785938 -0.9839229 0.9839229 0.1785938 31.5772743 210.7351074)" class="st15" cx="142.0033417" cy="86.455101" rx="8.4327335" ry="43.477066"/>
			<path class="st3" d="M235.4027405,90.0859375c-2.9141541,2.3508682-6.5116119,2.5641708-10.0708771,2.1049957
				c-9.1656647-1.1910248-18.4732361-2.8353653-27.6326294-3.4209976
				c-10.0787811-0.6444092-26.5408478,2.0249557-34.2671356,6.1329575l-44.9537354-8.1599808
				c-12.9261169-11.8311844-31.4215088-15.5478516-47.0152054-19.0569687
				c-2.7937546-0.6287003-6.8559875-1.1207123-9.2726631-2.6626816c-3.4945869-2.2431183-4.3271217-7.5796928-2.2962723-10.5353966
				c0.7490959-1.0990829,1.9902-1.9683113,3.3844109-2.6463928c1.0446701-4.9400597,1.2253494-8.6936378,3.4607925-10.9457436
				c1.8370667-1.8507233,4.648201-2.1167755,7.1141052-1.8706398c2.3718033,0.2367439,5.485527,0.6023636,6.8769531,2.8055687
				c1.0496902,1.6621017,0.6943665,3.6085167,0.4155273,5.434536c-0.7884445,5.1631699-1.9161072,6.7062187,0.1303787,6.6933594
				c3.0952606-0.0194473,32.1967239-0.1626892,35.7778854-0.0588417c3.0289536,0.0875626,6.0741882,0.3280983,9.1086197,0.3443832
				c12.6837082-8.2230148,28.0761032-6.276825,37.3877029,3.0048294c1.0332794,1.0280685,2.4220276,2.9251022,3.7014313,3.5156212
				c3.0944977,1.4325218,47.2215424,14.2585869,51.2237091,15.1715965c0.8036957,0.1804657,1.3449554,0.4757233,1.6785278-0.3443832
				c0.3717499-0.907402,0.4100494-2.0993881,0.6451111-3.0615234c0.6124115-2.4659271,1.1591492-5.9815521,3.2640076-7.605217
				c3.5264435-2.7336922,9.5460358-1.1319199,12.4875641,1.7277832c0.5467377,0.5301819,1.0606384,2.0937805,1.0825348,2.8209839
				c0.0216827,0.7943573-0.1203156,1.1278076-1.3340149,5.965004c-0.2406616,0.9786835-1.1153717,2.8922653-0.7107849,3.7833862
				c0.4646454,1.0387497,1.4597473,1.8916931,1.951889,2.9688873
				C238.9632721,85.2983932,238.0392761,87.9555893,235.4027405,90.0859375z"/>
			<path class="st7" d="M220.380722,84.3721313l-13.3755341-2.8964691c-0.6256866-0.1354904-1.023056-0.7525482-0.8875732-1.3782349
				l0.0904846-0.4178467c0.135498-0.625679,0.7525482-1.0230637,1.3782349-0.8875732l13.3755493,2.8964691
				c0.6256866,0.135498,1.023056,0.7525482,0.8875732,1.3782349l-0.0904846,0.4178467
				C221.6234741,84.1102371,221.0064087,84.5076218,220.380722,84.3721313z"/>
			<path class="st7" d="M87.0643616,61.9575348l-13.3755341-2.8964653
				c-0.6256866-0.1354942-1.0230713-0.7525482-0.8875809-1.3782349l0.0904846-0.4178429
				c0.1354904-0.6256828,0.7525482-1.0230637,1.3782272-0.8875732l13.3755493,2.8964691
				c0.6256866,0.1354904,1.0230637,0.7525444,0.8875732,1.378231l-0.0904846,0.4178429
				C88.307106,61.6956482,87.6900482,62.093029,87.0643616,61.9575348z"/>
			<path class="st18" d="M119.8349915,86.455101l-1.6748962,7.8455353c-0.2504349,1.2293625,0.5483475,2.4274368,1.77948,2.6690063
				l36.8573303,7.2319946c1.2480621,0.2448959,2.4523468-0.5878601,2.6638489-1.8420181l1.106308-6.5603333
				c0.210968-1.25103-0.64888-2.430603-1.9044495-2.6126022l-36.0589676-8.7566528
				C121.4178238,84.2581406,120.074173,85.2810059,119.8349915,86.455101z"/>
			<circle class="st3" cx="124.5315857" cy="93.2052536" r="2.8162951"/>
			<circle class="st3" cx="134.2704315" cy="95.2483826" r="2.8162951"/>
			<circle class="st3" cx="144.5356903" cy="97.3540802" r="2.8162951"/>
			<circle class="st3" cx="153.8139038" cy="99.2623672" r="2.8162951"/>
			<g>
				<path class="st15" d="M270.3641968,67.3689728c-0.7069092,2.6797256-9.8215637,2.5988007-20.3581085-0.1807556
					c-10.5365601-2.7795486-18.2648315-7.1530647-17.7981415-9.8848877
					c0.4156342-2.433033,9.8215332-2.5987968,20.3580933,0.1807556S271.071106,64.6892548,270.3641968,67.3689728z"/>
				<path class="st15" d="M232.5202637,57.2383156c-0.7069244,2.6797218-9.8215485,2.5987968-20.3581085-0.1807556
					s-18.2648315-7.1530685-17.7981567-9.8848915c0.4156494-2.433033,9.8215485-2.598793,20.3581085,0.1807594
					C225.258667,50.1329765,233.2271729,54.5585938,232.5202637,57.2383156z"/>
			</g>
			<g>
				<path class="st15" d="M115.0737228,40.3391418c-0.5816116,2.7096786-9.690155,3.0524445-20.3445053,0.7655869
					c-10.6543579-2.2868614-18.5775375-6.2964783-18.2383194-9.047039c0.3021088-2.4497204,9.690155-3.0524445,20.3445053-0.7655849
					S115.6553268,37.6294594,115.0737228,40.3391418z"/>
				<path class="st15" d="M76.7998505,31.9782333c-0.581604,2.7096825-9.690155,3.0524445-20.3445053,0.7655869
					s-18.5775337-6.2964783-18.2383194-9.0470352c0.3021164-2.4497223,9.690155-3.0524464,20.3445091-0.7655869
					S77.3814621,29.2685528,76.7998505,31.9782333z"/>
			</g>
			<polygon class="st11" points="168.2414703,180.6803436 150.2299347,276.7870178 67.0018234,254.8127899 80.6648102,162.7693176 
							"/>
			
				<ellipse transform="matrix(0.439951 -0.8980218 0.8980218 0.439951 -129.3309631 225.5886536)" class="st7" cx="116.1968307" cy="216.48349" rx="30.721035" ry="34.23452"/>
			<polygon class="st10" points="182.7846375,169.4396362 166.2239075,258.142334 150.2299347,276.7870178 168.2414703,180.6803436 
							"/>
			<polygon class="st10" points="182.7846375,169.4396362 168.2414703,180.6803436 80.6648102,162.7693176 101.7416077,153.5895538 
							"/>
			<polygon class="st25" points="187.273407,167.9003143 185.7423553,174.9292603 168.2414703,185.0446014 77.0454712,165.2843628 
				77.9147034,157.4386139 169.017807,176.4815521 			"/>
			<polygon class="st26" points="187.273407,167.9003143 169.017807,176.4815521 77.9147034,157.4386139 99.3579712,150.1691132 			
				"/>
			<g>
				<path class="st24" d="M153.6377258,277.7582397c-0.5361328-0.1318359-0.8642578-0.6738281-0.7324219-1.2099609
					c0.421875-1.715332,41.7319336-171.3779297,12.0341797-197.2099609l-42.4086914-4.9702148
					c-0.5488281-0.0644531-0.9414063-0.5610352-0.8769531-1.109375c0.0639648-0.5488281,0.5625-0.9453125,1.109375-0.8769531
					c45.410965,5.3820572,42.7996826,4.8683014,43.2348633,5.230957
					c31.0810547,25.9658203-9.4116211,192.3432617-11.1503906,199.4130859
					C154.7153473,277.5632629,154.1733551,277.8888855,153.6377258,277.7582397z"/>
			</g>
			<g>
				<path class="st24" d="M58.5571594,255.2357788c-4.5996094-1.1630859-7.4833984-5.71875-6.5654297-10.3706055
					C52.217804,243.7177124,74.7949524,129.793396,88.7099915,99.749939
					c14.0854492-30.4101563,33.8217773-29.3725586,34.6577148-29.3144531
					c0.5507813,0.0390625,0.9658203,0.5175781,0.9267578,1.0683594c-0.0395508,0.5498047-0.5068359,0.9589844-1.0668945,0.9267578
					c-0.2407227-0.0126953-19.2548828-0.8735352-32.703125,28.1601563
					C79.0600891,125.3427124,60.2388,213.4081421,53.9536438,245.2523804
					c-0.7119141,3.6083984,1.5253906,7.1420898,5.09375,8.0449219c0.5356445,0.1352539,0.8598633,0.6791992,0.7241211,1.2143555
					C59.6354523,255.0512695,59.0860405,255.3711395,58.5571594,255.2357788z"/>
			</g>
			<path class="st15" d="M118.0673828,87.9673386c-1.2613449-0.2538605-2.0872498-1.4698257-1.8557816-2.7354736
				c0.6318054-3.4546051,2.0432358-10.133934,2.9769974-14.4926682c0.4963226-2.3167953,2.7503891-3.8122482,5.0776215-3.3674164
				c9.4393616,1.8042755,32.2726288,6.1757736,41.1079254,7.9301376c1.9865265,0.394455,3.2421112,2.3646393,2.7626495,4.3323746
				l-3.7397461,15.3478622c-0.2997131,1.230011-1.5167542,2.0042572-2.7578735,1.7544708L118.0673828,87.9673386z"/>
			<circle class="st3" cx="142.2058563" cy="82.9442062" r="7.444756"/>
			<circle class="st20" cx="142.2058563" cy="82.9442062" r="5.5435328"/>
			
				<ellipse transform="matrix(0.1195694 -0.9928259 0.9928259 0.1195694 -44.9310112 272.5214844)" class="st25" cx="131.1902008" cy="161.5941772" rx="3.559418" ry="8.5939035"/>
			
				<ellipse transform="matrix(0.439951 -0.8980218 0.8980218 0.439951 -129.3309631 225.5886536)" class="st11" cx="116.1968307" cy="216.48349" rx="26.7958393" ry="29.8604107"/>
			<g>
				<path class="st20" d="M106.7309875,198.8617554l-0.6723633,2.6582031
					c-1.7050781-0.4306641-3.315918-0.7841797-4.8330078-1.0615234c-0.374176,1.1225281-0.9069748,3.2449188-1.1918945,4.1357422
					c1.7592773,0.2148438,3.15625,0.453125,4.1918945,0.7148438l-0.1445313,2.4931641
					c-1.7158203-0.3886719-3.2709961-0.6748047-4.6660156-0.859375c-0.5683594,2.2470703-1.0390625,4.2363281-1.4116211,5.9658203
					l-3-1.1035156c1.5158463-6.3437958,2.0562057-8.6142883,3.9589844-14.3095703
					C101.6601868,197.7787476,104.2495422,198.2338257,106.7309875,198.8617554z"/>
				<path class="st20" d="M108.7549133,215.9721069c-1.4536133-0.3671875-2.5229492-1.2929688-3.2080078-2.7773438
					c-0.6855469-1.4824219-0.7104492-3.4814453-0.074707-5.9951172s1.6977539-4.4257813,3.1870117-5.734375
					c1.4892578-1.3095703,2.9716797-1.7773438,4.4482422-1.4033203c1.4765625,0.3730469,2.5493164,1.3027344,3.2177734,2.7900391
					c0.6679688,1.4882813,0.6875,3.4765625,0.0571289,5.96875s-1.6958008,4.3994141-3.1958008,5.7207031
					C111.686554,215.8637085,110.2090149,216.340271,108.7549133,215.9721069z M109.45755,213.4379272
					c2.7803421,0.7005157,6.1879654-9.9981384,3.0229492-10.7998047
					C109.5437088,201.8980408,106.1803894,212.6077423,109.45755,213.4379272z"/>
				<path class="st20" d="M120.6499329,218.980896c-1.4536133-0.3671875-2.5229492-1.2929688-3.2084961-2.7773438
					c-0.6850586-1.4833984-0.7099609-3.4814453-0.0742188-5.9951172s1.6982422-4.4257813,3.1870117-5.734375
					c1.4887695-1.3095703,2.972168-1.7773438,4.4477539-1.4042969c1.4765625,0.3740234,2.5498047,1.3037109,3.2182617,2.7910156
					c0.6679688,1.4873047,0.6875,3.4765625,0.0571289,5.96875s-1.6958008,4.3984375-3.1958008,5.7207031
					C123.5810852,218.871521,122.1040344,219.3490601,120.6499329,218.980896z M121.3525696,216.4457397
					c0.6235352,0.1582031,1.3178711-0.2646484,2.081543-1.2666016c1.6689835-2.189743,2.4941177-6.2832642,2.1308594-7.9433594
					c-0.199707-0.9091797-0.5957031-1.4384766-1.1894531-1.5888672
					C121.4358368,204.901825,118.0780716,215.6213531,121.3525696,216.4457397z"/>
				<path class="st20" d="M139.6670227,209.0082397c2.1247711,5.2848053-2.5056152,13.7134552-8.6044922,12.1699219
					c-0.2739258-0.0693359-1.2836914-0.4326172-3.0283203-1.0878906c1.7237244-5.2649078,2.6396942-8.6210785,3.7646484-14.4052734
					C135.0773315,205.448822,138.4343414,205.9441833,139.6670227,209.0082397z M134.8349915,217.4535522
					c2.0542603-2.0745392,2.6262207-5.1799316,2.1083984-7.0878906c-0.3607788-1.3280334-1.0795288-1.9923248-2.5073242-1.8525391
					c-0.8418427,3.7779846-1.481781,6.5043335-2.5488281,9.8847656c0.0771484,0.1425781,0.215332,0.2382813,0.4135742,0.2880859
					C133.0010071,218.8637085,133.8457336,218.4525757,134.8349915,217.4535522z"/>
				<path class="st20" d="M96.5068665,214.496521c4.4227295,1.1203003,1.6304016,9.2937317-2.6894531,8.1982422
					c-0.1479492-0.0371094-0.6923828-0.2333984-1.6333008-0.5869141c0.9306564-2.8427277,1.4224701-4.6456146,2.0302734-7.7695313
					C95.0776672,214.2758179,95.8418274,214.3285522,96.5068665,214.496521z M96.9306946,218.7767944
					c0.3569565-1.412796,0.1572647-3.0487823-1.2939453-2.9130859c-0.4511032,2.0244141-0.7978439,3.5059204-1.3745117,5.3320313
					C94.603775,221.8225555,96.4257736,220.7752228,96.9306946,218.7767944z"/>
				<path class="st20" d="M98.6030579,223.7689819c0.8367996-3.7236938,1.2443008-5.1294098,2.1108398-7.7246094
					c1.4550781,0.1542969,2.8515625,0.3994141,4.1899414,0.7373047l-0.362793,1.4335938
					c-0.9277344-0.234375-1.796875-0.4248047-2.6069336-0.5722656c-0.253418,0.8613281-0.4418945,1.5244141-0.5683594,1.9882813
					c0.6455078,0.0732422,1.3969727,0.2089844,2.2543945,0.4091797l-0.0898438,1.3417969
					c-0.5517578-0.1308594-1.3916016-0.2822266-2.519043-0.4511719c-0.2358398,0.9326172-0.4018555,1.6054688-0.4975586,2.0185547
					c0.7275391,0.1269531,1.6108398,0.2265625,2.6494141,0.2988281l-0.1152344,1.3349609
					c-0.7739258,0.1259766-1.637207,0.0693359-2.5898438-0.171875L98.6030579,223.7689819z"/>
				<path class="st20" d="M104.2597961,225.0756226c0.4821167-2.6291656,1.132164-5.4860382,2.0063477-8.0361328
					l1.6025391,0.5537109c-0.8403168,2.3802948-1.5239487,5.0943756-1.7739258,6.4960938
					c0.3056641,0.0361328,1.0517578,0.1416016,2.2387695,0.3173828l-0.0952148,1.4140625
					c-0.6337891-0.0849609-1.5332031-0.1884766-2.6992188-0.3095703L104.2597961,225.0756226z"/>
				<path class="st20" d="M112.8823547,218.7504272c-0.7300339,2.2967682-1.6215439,5.6873169-2.0639648,8.3681641
					l-1.6269531-0.5605469c0.5171738-2.8350067,1.0629196-5.1248779,2.0639648-8.3681641L112.8823547,218.7504272z"/>
				<path class="st20" d="M113.7954407,219.1303101l1.5527344,0.5419922
					c-0.1772461,2.0126953-0.2573242,3.9716797-0.2416992,5.8769531l0.0522461,0.0009766
					c1.1025391-1.9433594,2.0839844-3.8701172,2.9418945-5.7773438l1.5927734,0.5390625
					c-1.2260742,2.5341797-2.7412109,5.0888672-4.5458984,7.6660156l-1.3867188-0.4746094
					C113.632843,224.4867554,113.6440735,221.6957397,113.7954407,219.1303101z"/>
				<path class="st20" d="M118.2929993,228.7484741c0.8267365-3.6695557,1.2197037-5.0570374,2.1108398-7.7236328
					c1.4545898,0.1533203,2.8515625,0.3984375,4.1899414,0.7373047l-0.3623047,1.4335938
					c-0.9277344-0.2353516-1.7973633-0.4257813-2.6074219-0.5732422c-0.2529297,0.8623047-0.4423828,1.5253906-0.5683594,1.9892578
					c0.6455078,0.0732422,1.3974609,0.2089844,2.2548828,0.4091797l-0.0898438,1.3408203
					c-0.5522461-0.1308594-1.3920898-0.28125-2.5195313-0.4511719c-0.2358398,0.9326172-0.4018555,1.6064453-0.4975586,2.0195313
					c0.7280273,0.1259766,1.6108398,0.2255859,2.6499023,0.2988281l-0.1152344,1.3339844
					c-0.7739258,0.1269531-1.6376953,0.0693359-2.590332-0.1708984L118.2929993,228.7484741z"/>
				<path class="st20" d="M123.6230774,230.1586304c0.6482391-2.0614166,1.3540421-4.4768372,2.1367188-7.828125
					c2.7465057-0.4802094,5.5820007,0.5204773,4.8916016,3.2451172c-0.2319336,0.9169922-1.140625,1.6259766-2.7250977,2.1259766
					c0.5224609,1.0742188,1.0395508,2.2421875,1.550293,3.5039063l-1.3916016,0.5283203
					c-0.3300781-0.8681641-0.9536133-2.3076172-1.8691406-4.3164063c-0.3271484,1.1904297-0.6479492,2.3037109-0.9624023,3.3398438
					L123.6230774,230.1586304z M129.1758118,225.090271c0.275589-1.0892944-0.749939-1.4699097-1.9707031-1.3779297
					c-0.3320313,1.3125-0.5825195,2.2861328-0.7519531,2.921875
					C127.3107529,226.4843597,128.9620514,225.9327545,129.1758118,225.090271z"/>
				<path class="st20" d="M132.1235657,228.8744507c-0.53125-2.4248047-0.734375-4.125-0.6098633-5.1015625l1.5043945,0.5292969
					c-0.0400391,0.9150391,0.074707,2.0517578,0.3427734,3.4091797c1.0371094-1.2333984,1.8876953-2.3691406,2.5527344-3.4082031
					l1.3959961,0.4892578c-1.0224609,1.4853516-2.1743164,2.9667969-3.456543,4.4443359
					c-0.3490753,1.2538757-0.6236267,2.2744751-0.8452148,3.4443359l-1.5839844-0.5742188
					C131.6439667,230.6086121,131.9824524,229.4694366,132.1235657,228.8744507z"/>
			</g>
			<g>
				<path class="st24" d="M149.8364563,278.3187866l-91.2792969-23.0825195
					c-0.5356445-0.1357422-0.8598633-0.6796875-0.7246094-1.2148438c0.1357422-0.5356445,0.6845703-0.8603516,1.2148438-0.7241211
					l91.2792969,23.0820313c1.0244141,0.2583008,2.1289063,0.0947266,3.0341797-0.4492188l25.0068359-15.0463867
					c0.4746094-0.284668,1.0878906-0.1313477,1.3725586,0.3413086c0.284668,0.4731445,0.1318359,1.0878906-0.3413086,1.3725586
					l-25.0068359,15.0463867C153.0391541,278.4577332,151.3813324,278.7085571,149.8364563,278.3187866z"/>
			</g>
		</g>
	</g>
</g>
</svg>
