<?xml version="1.0" encoding="utf-8"?>
<!-- Generator: Adobe Illustrator 22.0.1, SVG Export Plug-In . SVG Version: 6.00 Build 0)  -->
<svg version="1.1" id="Layer_1" xmlns="http://www.w3.org/2000/svg" xmlns:xlink="http://www.w3.org/1999/xlink" x="0px" y="0px"
	 viewBox="0 0 300 300" style="enable-background:new 0 0 300 300;" xml:space="preserve">
<style type="text/css">
	.st0{fill:#EDC1A4;}
	.st1{fill:#E2E0E0;}
	.st2{fill:#D39E81;}
	.st3{fill:#502E26;}
	.st4{fill:#CCCACA;}
	.st5{fill:#426800;}
	.st6{fill:#538705;}
	.st7{fill:#D47E44;}
	.st8{fill:#73341D;}
	.st9{fill:#BC672E;}
	.st10{fill:#96311D;}
	.st11{fill:#B83E21;}
	.st12{fill:#DE8D82;}
	.st13{fill:#EFBAB4;}
	.st14{fill:#FDD5D0;}
	.st15{fill:#6883CE;}
	.st16{fill:#3D4885;}
	.st17{fill:#3859AE;}
	.st18{fill:#864424;}
	.st19{fill:#FEFEFE;}
	.st20{fill:#FFFFFF;}
	.st21{fill:#A55925;}
	.st22{fill:#F4F2F2;}
	.st23{fill:#3C3E68;}
	.st24{fill:#E8997C;}
	.st25{fill:#F5C46B;}
	.st26{fill:#F7EBDA;}
	.st27{fill:#0E0C0D;}
	.st28{fill:#657C3A;}
	.st29{fill:#576C37;}
	.st30{fill:#7C995D;}
	.st31{fill:#36518C;}
	.st32{fill:#96B7E3;}
	.st33{fill:#A3B3DF;}
	.st34{fill:url(#SVGID_1_);}
	.st35{fill:url(#SVGID_2_);}
	.st36{fill:url(#SVGID_3_);}
	.st37{fill:url(#SVGID_4_);}
	.st38{fill:url(#SVGID_5_);}
	.st39{fill:#266AB7;}
	.st40{fill:#060E0D;}
	.st41{fill:#E0D4C6;}
	.st42{fill:#787E42;}
	.st43{fill:#D3D1D1;}
	.st44{fill:url(#SVGID_6_);}
	.st45{fill:url(#SVGID_7_);}
	.st46{fill:url(#SVGID_8_);}
	.st47{fill:#020508;}
	.st48{fill:#BAB6B6;}
	.st49{fill:#0F0B07;}
	.st50{fill:#2F3A68;}
	.st51{fill:#203257;}
	.st52{opacity:0.5;fill:#FFFFFF;}
	.st53{opacity:0.2;fill:#0E0C0D;}
	.st54{fill:#DD9F9B;}
	.st55{fill:#3E4D9B;}
	.st56{fill:url(#SVGID_9_);}
	.st57{fill:#5F6194;}
	.st58{fill:url(#SVGID_10_);}
	.st59{fill:url(#SVGID_11_);}
	.st60{fill:url(#SVGID_12_);}
	.st61{fill:url(#SVGID_13_);}
	.st62{fill:#070102;}
	.st63{fill:#100805;}
	.st64{fill:#FDA465;}
	.st65{fill:#2A50A1;}
	.st66{fill:#B76C39;}
	.st67{fill:#130602;}
	.st68{fill:url(#SVGID_14_);}
	.st69{fill:url(#SVGID_15_);}
	.st70{fill:url(#SVGID_16_);}
	.st71{fill:url(#SVGID_17_);}
	.st72{fill:url(#SVGID_18_);}
	.st73{fill:url(#SVGID_19_);}
	.st74{fill:#B4BDED;}
	.st75{fill:#100D08;}
	.st76{fill:#F6C85F;}
	.st77{fill:#FECF00;}
	.st78{fill:#2D59E2;}
	.st79{fill:#121F3A;}
	.st80{fill:#BBD0F5;}
	.st81{fill:#020202;}
	.st82{fill:#E2CFB7;}
	.st83{fill:#080805;}
	.st84{fill:#A87D7C;}
	.st85{fill:#182052;}
	.st86{fill:#EAEAEA;}
	.st87{fill:#DDDDDD;}
	.st88{fill:#3D4574;}
	.st89{fill:#ABC5F0;}
	.st90{fill:url(#SVGID_20_);}
	.st91{fill:#4159A8;}
	.st92{fill:#E0D0BD;}
	.st93{fill:#3D53AA;}
	.st94{fill:#0A0000;}
	.st95{fill:#BF6D36;}
	.st96{fill:#385DAE;}
	.st97{fill:#E0DCDC;}
	.st98{fill:#857E78;}
	.st99{fill:#0E213C;}
	.st100{fill:url(#SVGID_21_);}
	.st101{fill:#55608E;}
	.st102{opacity:0.3;fill:#F4F2F2;}
	.st103{opacity:0.3;}
	.st104{fill:#213987;}
	.st105{enable-background:new    ;}
</style>
<g id="Eating_1_">
	<g id="Eating">
		<g>
			<path class="st3" d="M149.2264099,67.0556259h-3.1733704V24.3733959c0-0.4296455,0.3482971-0.7779408,0.7779388-0.7779408
				h1.6174927c0.4296417,0,0.7779388,0.3482971,0.7779388,0.7779408V67.0556259z"/>
			<path class="st22" d="M180.6669617,69.8098145c0,10.4430008-43.0412292,15.3607559-62.3504791,5.7313843
				c-3.1817703-1.6731033-4.9970398-3.6509552-4.9970398-5.7313843c0-5.9962959,15.0726471-10.8921242,33.6737518-10.8921242
				S180.6669617,63.8135185,180.6669617,69.8098145z"/>
			<path class="st53" d="M175.7514648,75.479454c0,0-0.0204163,0-0.0204163,0.0199203
				c-13.2197266,6.6502075-41.8518829,7.2429428-57.353447,0.081665c-0.0204163-0.0199203-0.0407028-0.0398407-0.0611191-0.0398407
				c0.0611191-0.1025772,0.1019516-0.2250748,0.1834946-0.3266525v-0.0408325
				c2.8146515-4.9157486,14.5016251-8.6075363,28.53405-8.6075363c14.2363434,0,26.1068115,3.8142853,28.6767273,8.8316116
				C175.7310486,75.4187012,175.7310486,75.4595337,175.7514648,75.479454z"/>
			<path class="st23" d="M55.4344177,241.6512451c0,0,0.5050163-49.9067078,12.6349792-52.0755463
				s161.170929-0.2037964,161.170929-0.2037964s13.7233887-4.8672638,14.0900879,48.5527802
				S55.4344177,241.6512451,55.4344177,241.6512451z"/>
			<path class="st8" d="M277.99823,250.8305206v4.8097382c0,11.4714966-57.3012085,20.7642822-127.9942322,20.7642822
				s-128.0038452-9.2927856-128.0038452-20.7642822v-4.8097382h3.4654007
				c13.3918076-9.1484222,64.0691223-15.9550018,124.5384521-15.9550018c60.4788055,0,111.165741,6.8065796,124.5383301,15.9550018
				H277.99823z"/>
			<path class="st3" d="M136.9906921,149.6409302c-1.0796967-0.6820831-5.0749054-2.3590088-5.7837982-3.4212799
				c-0.546051-0.8182373-1.4136658-2.8738861-0.6014099-3.776886c0.3900909-0.4336548,1.1114197-0.5421295,1.5408173-1.0120239
				c1.3756104-1.5053864,0.5636597-2.9863892,0.3809967-4.3691864c-0.2471924-1.8712158,0.6458588-3.8473969,2.2136383-4.898407
				c1.2937469-0.8673248,2.9169617-1.1023865,4.2670135-1.8791809c3.2816315-1.8881683,4.9378357-7.168335,9.5171814-5.776062
				c1.2203979,0.3710403,2.3334045,1.037323,3.5479279,1.4271622c1.9161835,0.6150742,3.9809418,0.5135193,5.9690399,0.8259201
				c1.9880829,0.3123932,4.094223,1.2145538,4.9174042,3.0509796c0.4473114,0.9978638,0.4681396,2.1780396,1.0841675,3.0815582
				c0.4244385,0.6225433,1.0821533,1.0380096,1.644165,1.5398712c3.1674652,2.8284149,2.8625183,7.9528809-0.70755,10.3560791
				c-2.7493896,1.8507538-3.0116119,6.01828-2.4425659,9.2833405c0.2571564,1.4754791,0.8317871,2.8783112,1.1375885,4.3444824
				s0.3119049,3.088562-0.4904633,4.3532104c-0.8021545,1.264328-2.2529907,1.9417725-3.6513519,2.477066
				c-6.0578003,2.318985-12.6576233,3.2082825-19.1131744,2.5754242c-1.3467407-0.132019-2.833725-0.411972-3.641037-1.4979553
				c-0.6481171-0.8718262-0.6834259-2.03862-0.7094574-3.124649
				C135.9482269,158.1282806,137.8335876,154.6439819,136.9906921,149.6409302z"/>
			<path class="st7" d="M164.9416199,164.9767151l-1.4073181,4.7115784l-2.7534027,5.588974l-12.2171631,6.4852753
				l-13.4001617-1.4679413l-4.2219849-11.2994537l7.1589966-13.0332947h21.5788422
				c0.0542755,0.1037445,1.7163239,3.2809601,1.6113586,3.080307L164.9416199,164.9767151z"/>
			<path class="st3" d="M161.1071777,158.6945953c-5.8065796,6.4532928-14.994812,7.8358459-22.2927704,4.0592804
				c-1.1013489-0.591568-2.2843475-1.5496216-2.1211395-2.7944946c0.1427765-1.0197906,1.1828766-1.6521912,2.1007233-2.1411743
				c1.2034149-0.6324005,2.4067078-1.244873,3.6305389-1.8563538h17.2548981L161.1071777,158.6945953z"/>
			<path class="st22" d="M163.0279388,163.3238983c0,0-4.1110077,9.2906799-13.3098145,9.4686127
				c-9.1988068,0.177948-15.2303162-7.814682-15.2303162-7.814682l-8.5660019,20.1697388l-0.6412506,31.7447205
				l2.5164948,23.4447174l19.4608231,3.834137l24.5777893-9.4860687l9.087326-4.6223297l-3.1648865-16.3857422
				l-4.8272247-29.6288757L163.0279388,163.3238983z"/>
			<path class="st13" d="M161.2816315,159.0510864c0,0,11.8505707,76.7044067,14.6653137,81.4986877
				c2.8147278,4.794281,18.2876129-2.6250916,18.2876129-2.6250916l-13.8921967-71.7039185
				C180.3423615,166.2207642,174.9743652,162.6222229,161.2816315,159.0510864z"/>
			<path class="st13" d="M207.2284546,225.5063324c-2.9760437,4.3967896-10.5117493,4.3292847-17.7500458-1.2960663
				c-0.2207794-0.1631317-0.4319458-0.3360901-0.6432343-0.5085907l-3.4751129-14.2942505l3.167984-0.9121704
				c-11.0335236-56.9653778-7.4594727-38.5127869-8.1886749-42.2776031c0,0,15.0141144,6.5759735,22.4922943,24.345459
				C210.3003387,208.3321381,210.290741,220.9750061,207.2284546,225.5063324z"/>
			<path class="st54" d="M189.4784088,224.2102661c-0.2207794-0.1631317-0.4319458-0.3360901-0.6432343-0.5085907
				l-3.4751129-14.2942505l3.167984-0.9121704l-0.5472565-2.812439c2.0352631-0.4321747,4.2814789,0.2207794,5.8942871,1.5838776
				C199.6612091,212.1405334,197.5336761,223.8498993,189.4784088,224.2102661z"/>
			<path class="st13" d="M136.5747681,160.3206024c0,0-5.196228,58.1428528,0,75.4356384
				s-32.2955627,0.2469177-32.2955627,0.2469177s6.2146225-65.3012695,9.7617111-68.302887
				C117.5880051,164.6986694,130.5541229,158.9654083,136.5747681,160.3206024z"/>
			<path class="st13" d="M114.0409164,167.7002716c0,0-7.9341202,1.5984497-20.6924286,25.7566528
				s-3.1280899,35.8405304-3.1280899,35.8405304l27.7397156-41.3780975L114.0409164,167.7002716z"/>
			<path class="st7" d="M137.7931366,146.0467834c-0.4978485-1.4520874-0.2948151-3.1272736,0.5355377-4.4183807
				c0.4915161-0.764267,1.1911621-1.4059753,1.5170593-2.2542114c0.5906677-1.5373383-0.1906586-3.3479767,0.4035034-4.8839722
				c0.5536652-1.4313049,2.1730804-2.196228,3.7047119-2.2926941c1.5316315-0.0964508,3.0410156,0.3273315,4.5563354,0.5701904
				c2.7565918,0.4417877,5.6081543,0.2808838,8.2975311-0.4682007c2.4263916-0.6758423,2.6797943,0.2418518,2.408432,2.4013672
				c-0.3197021,2.5441284,1.3092957,3.5376587,1.8494263,4.8762207c0.6977081,1.7290955,0.7974243,3.7036438,0.2293701,5.48349
				c2.2092133-3.4851685,5.9488525-3.3209229,5.5839539,0.7788544c-0.3703766,4.1613007-3.2991028,5.9072266-5.5516663,5.2245026
				c-0.2697449,1.9589386-0.8674011,3.7953644-1.5575409,5.6484528c-0.6901245,1.8530731-1.8407135,3.5975647-3.5210419,4.6399994
				c-1.4659576,0.9094696-3.2234192,1.2241058-4.9445801,1.341629c-3.9854279,0.2721252-8.1237946-0.5266571-10.5950165-3.6468506
				c-1.7667084-2.2306824-2.2024689-5.2029724-2.576355-8.0238647c-0.6308136,1.2087708-3.0834351,1.3179169-4.411087-0.9108734
				c-0.4643402-0.7795105-0.7129059-1.6652985-0.9564972-2.5393066c-0.2300568-0.8253937-0.4623413-1.6739349-0.3790588-2.5267334
				c0.0832672-0.8527832,0.5540161-1.7234497,1.3541107-2.0301056c0.8860626-0.3395996,1.9185181,0.1133881,2.5372772,0.8328094
				C136.8963165,144.5685272,137.5113525,145.1406708,137.7931366,146.0467834z"/>
			<path class="st3" d="M153.4713287,141.7918854c-0.2970886-0.0512695-0.6327515-0.1285858-0.7805328-0.3913422
				c-0.1519623-0.2701721-0.0200043-0.6304321,0.2194061-0.8273315c0.2394257-0.1968842,0.5567627-0.2665405,0.8630829-0.3140106
				c1.5713501-0.2434692,3.2072449-0.0563965,4.683075,0.5355225c0.5314026,0.21315,1.2508545,0.613266,1.1632843,1.2978821
				C159.4893188,143.111496,158.3214569,142.6290894,153.4713287,141.7918854z"/>
			<ellipse class="st3" cx="156.2380676" cy="145.1370544" rx="1.3231161" ry="1.6629788"/>
			<path class="st3" d="M146.1947479,141.7918854c0.2970734-0.0512695,0.6327362-0.1285858,0.7805176-0.3913422
				c0.1519623-0.2701721,0.0200043-0.6304321-0.2194061-0.8273315c-1.1272888-0.927063-6.9395142-0.2792969-6.7094421,1.5193939
				C140.1767426,143.111496,141.3446198,142.6290894,146.1947479,141.7918854z"/>
			<ellipse class="st3" cx="143.428009" cy="145.1370544" rx="1.3231161" ry="1.6629788"/>
			<path class="st3" d="M148.2862244,151.4282074c0.5077057,1.4695892,5.0591125,1.6318665,3.9807587-1.4047241
				c-1.388504-3.9099884-1.4209595-4.1499481-1.7735138-4.5097046c-1.0028076-1.0233002-1.1305847,0.6254883-1.2930603,1.2781525
				C148.2075958,150.7803497,148.1089325,150.9150085,148.2862244,151.4282074z"/>
			<path class="st22" d="M154.3497009,153.4009705c-2.8515015,1.693634-6.4569855,2.0578613-9.5895996,0.9687347
				c0.1863861,1.6216125,1.206604,3.181778,2.692276,3.8578949c1.4856873,0.6761169,3.3204651,0.5150452,4.6656189-0.4095764
				S154.4487,155.0302582,154.3497009,153.4009705z"/>
			<ellipse class="st11" cx="150" cy="250.8271637" rx="128" ry="20.7644119"/>
			<g>
				<path class="st26" d="M133.2386475,154.9537659c1.1036377-0.6846619,2.502121-1.0180969,3.7191162-0.5645294
					s2.1050568,1.8488007,1.7138519,3.0872498c1.4243164-0.123291,2.8851166,0.6893463,3.5314789,1.9645233
					c0.6463623,1.2751923,0.4381714,2.9337921-0.5032959,4.0096741c1.8463745,1.9848633,0.8736725,5.2552338-1.7616425,5.9048004
					c-0.1891937,2.5096588-2.7622528,4.139679-5.1119995,3.239151c-2.0764618,2.1004028-5.9194031,2.0404663-7.9293442-0.1236725
					c-1.3759155,0.4949188-3.0712662-0.2012177-3.7023392-1.5202484s-0.1093369-3.0759125,1.1393814-3.8367004
					c-0.9401474-3.5374908,0.7086487-7.5259552,4.9351578-9.1140289
					C130.9490356,157.3687286,131.7188263,155.8966064,133.2386475,154.9537659z"/>
				<path class="st7" d="M106.6879349,191.0818024c-0.1332703,1.2297211,0.7114563,2.5745697,2.0813675,3.4553528
					s3.2093353,1.294693,4.8624191,1.1618958c2.2837296-0.1834717,4.0505219-1.3103485,5.5220261-2.5050659
					c5.5069809-4.4710846,8.3485031-10.0263214,9.8824768-16.131134c0.3477936-1.3841248,0.4457092-3.0914917,1.3078308-4.3117828
					c1.7231903-2.4378357,7.1249237-3.9575958,7.720993-6.9847412c0.0666351-0.3369598,0.0102081-0.5465393-0.1287537-0.8844604
					l-0.4887848-0.3889923c-2.4830933,0.1945038-7.8516388,4.0169067-10.3471375,3.7098236
					c0.745369,0.0917206,2.7835541-1.3153687,3.3560486-1.6063232c1.9130402-0.9722137,5.8683167-3.0780487,6.8818207-4.9618225
					c1.0898132-2.0256195-2.1083679-1.0312958-3.5921478-0.7670746c0.5453186-0.5388947,1.0906372-1.0777893,1.6359711-1.616684
					c0.3466187-0.3425446,0.6999359-0.8015594,0.3680115-1.2201996c-0.2353058-0.2967987-0.7456665-0.4352112-1.1757507-0.4085236
					c-0.4300995,0.0266876-0.7996979,0.183548-1.1559601,0.3372192c0.7782288-0.0399017,1.0458832-0.8347321,0.5670471-1.3481598
					c-0.4788208-0.5134277-1.4074249-0.7154083-2.1710815-0.6311646c-0.7636414,0.084259-1.4023132,0.3960114-2.0184021,0.7011871
					c-5.1057892,2.2234039-9.5986633,4.9531555-12.0418243,9.062851c-2.0145721,3.3887634-1.2447357,6.829422-2.4406128,10.2484894
					C113.2778015,181.8126221,106.9504166,188.659729,106.6879349,191.0818024z"/>
				<path class="st13" d="M113.4707794,177.4842834c0,0-18.9621735,22.3934174-26.19944,44.5529327
					c0,0-0.2525253,9.9096375,10.5871353,11.4444885c10.8396606,1.5348358,16.0290833-4.1571045,18.7171707-8.745636
					c2.6880875-4.5885468,10.3873291-35.1054688,10.2790909-40.6879425
					C126.8547363,184.0481262,117.1005173,180.3956299,113.4707794,177.4842834z"/>
				<path class="st47" d="M113.4708023,177.4842529c-8.1906281,10.5231934-15.0499268,20.8616638-21.0610962,32.6469727
					c-3.7758331,7.8100739-3.8654404,8.7617035-5.1383667,11.9057617
					C91.9914322,205.9796143,103.519249,188.4951935,113.4708023,177.4842529z"/>
				<path class="st47" d="M126.8547134,184.0482178c-1.4090271,11.2824097-4.5342484,27.2680359-8.8088989,38.1088867
					l0.0116577-0.0356445c-1.3404999,4.2731628-5.0218124,8.3203278-9.1390381,10.0351563
					c-0.6889038,0.347168-1.4341431,0.5532227-2.1582031,0.8041992c-0.730896,0.2314453-1.4944458,0.3457031-2.2359009,0.5234375
					c1.4755859-0.4003906,2.9420776-0.8398438,4.2891846-1.5498047c2.384697-1.1304474,4.9346161-3.2492218,6.6872559-5.9487305
					C119.9772339,219.094101,125.3311539,192.266861,126.8547134,184.0482178z"/>
			</g>
			<g>
				<path class="st26" d="M121.1972809,190.2453156c0,0,3.2829056-3.1822815,6.1095276-3.1593781
					c2.8266144,0.0229034,23.2672272,6.4688873,28.7636719,11.3853149c0,0,22.8351288-11.5890045,28.5179901-10.3343964
					c5.6828613,1.2545929,7.3432159,4.6148071,7.3432159,4.6148071l-4.7735748,4.0951385l-9.6189575,5.0831909
					l-11.5218964,4.5683746l-28.4629822,1.3207245l-9.4438324-7.8056641L121.1972809,190.2453156z"/>
				<path class="st15" d="M191.9316864,192.7516632l-6.5023804,31.4679718
					c-4.8520508,0.2320251-15.3020325,2.7252655-25.8251495,5.2480164l0.206131-29.9276886
					C160.0559082,198.8766937,188.9835358,191.8174591,191.9316864,192.7516632z"/>
				<path class="st15" d="M152.4548798,199.7238007c0,0-22.7780762-8.8996582-31.2575989-9.4784851
					c0,0,1.9747162,22.3044739,3.3641434,29.8677979c0,0,22.536293,6.0830841,28.2226639,9.4627838L152.4548798,199.7238007z"/>
				<path class="st55" d="M152.4549255,199.7237091c-0.0453491-1.8201141,7.3100128-2.0038605,7.3553619-0.1837463
					l-0.206131,29.9276886c-0.0131226-0.8231049-6.8331909-0.7148285-6.8200684,0.1082916L152.4549255,199.7237091z"/>
			</g>
			<g>
				<path class="st7" d="M194.2537689,211.2622681c0.8341217,1.7786255,0.2856445,2.4503174-0.8427887,3.8795776
					c-0.1217957,0.3493805-0.1142731,0.2107849-0.091629,0.5585938c0.0921631,1.1420898-0.0028992,2.4252777-0.8119659,3.3201294
					c-0.108078,0.1195221-1.5396729,1.359436-1.5823517,1.1560516c0.0843811,0.4019928,0.1793823,0.8174286,0.215683,1.2329254
					c0.1446075,1.6810913-1.3158569,2.7371979-2.3085938,2.2932587c-4.3215942-1.9324799-7.6865234-6.1800842-7.874176-7.3280792
					c-0.0674133-0.4124908,0.0749512-0.8871613,0.4392853-1.09198c0.186264-0.1047211,0.408371-0.1295166,0.5976715-0.2286224
					c0.5227509-0.2736816,0.1407166-0.5286865-0.109726-0.7807922c-1.0165253-1.0232697-2.2367401-2.852356-1.2455597-3.9096069
					c0.5386353-0.5745239,1.4570465-0.4895935,2.2339172-0.3604279c-0.8208923-0.4726105-1.7649231-1.0562897-1.8297882-2.0740051
					c-0.0632782-0.9925537,0.8714752-1.7671204,1.8388977-1.5110168c-0.355011-0.2165833-0.7163696-0.4385071-0.9863434-0.7548065
					c-0.7084961-0.8300476-0.3352814-1.7792969,0.6396179-2.0397491c1.2761536-0.3409424,5.3498993,0.7623444,6.6453247,1.1856842
					c1.5513153,0.5069427,3.3479004,1.0569611,4.5927734,2.1546021
					C195.2548065,208.2696686,195.5197601,209.2298889,194.2537689,211.2622681z"/>
				<g>
					<path class="st3" d="M192.4647522,211.2267456c-2.7983398-2.1447754-6.1035156-3.6525879-9.5576172-4.3608398
						c-0.4838409-0.0994415-0.3388977-0.8318939,0.1503906-0.7348633c3.5649414,0.730957,6.9755859,2.2871094,9.8632813,4.5004883
						C193.3169708,210.9348145,192.8529053,211.5255432,192.4647522,211.2267456z"/>
				</g>
				<g>
					<path class="st3" d="M190.519928,214.5895386c-2.2089844-1.9570313-4.8818359-3.3996582-7.7299805-4.171875
						c-0.4802399-0.1303406-0.2802277-0.8543854,0.1962891-0.7236328c2.9589844,0.802002,5.7358398,2.3007813,8.0307617,4.3339844
						C191.3899078,214.3581238,190.8870087,214.9151306,190.519928,214.5895386z"/>
				</g>
				<g>
					<path class="st3" d="M190.3041077,219.4030151c-2.3505859-1.9655762-5.1425781-3.4782715-8.0737305-4.375
						c-0.4726868-0.1447296-0.2567596-0.8614044,0.2197266-0.7172852c3.0258789,0.9257813,5.9082031,2.487793,8.3354492,4.5170898
						C191.1666412,219.146759,190.6804962,219.7179718,190.3041077,219.4030151z"/>
				</g>
			</g>
			<ellipse class="st19" cx="89.9163437" cy="251.6628571" rx="26.4470062" ry="6.9364686"/>
			<g>
				<path class="st14" d="M92.8601303,248.4823608c0.0743179,1.8561554-0.6294098,3.4845428-3.1006546,4.8957062
					c-4.4777603,2.5513763-14.0832291,1.135849-16.7816925-0.1947784c-1.2964706-0.6392517-2.7108078-1.8767853-3.1368942-3.3635559
					v-0.0046539c-0.6358261-2.3282623,1.452774-6.61763,6.5276718-8.5540924h0.0045395
					c3.4619141-1.3165894,6.4674454-1.3711395,9.7326431-0.5303345c2.8455734,0.7332764,4.96875,2.5541687,5.8205872,4.3111267
					h0.0045395C92.4385223,246.0117188,92.8148117,247.267395,92.8601303,248.4823608z"/>
				<path class="st13" d="M91.9263306,245.0417786c-2.7334976-0.3264771-10.8795319-1.3962402-16.8451614-3.2185669
					c0.4170685-0.2085114,0.8476944-0.3944397,1.2873917-0.5622253c3.6533585,0.7805481,11.2460403,2.4007874,14.9865875,2.865097
					C91.5452881,244.374588,91.7821045,244.7443085,91.9263306,245.0417786z"/>
				<path class="st13" d="M92.8601303,248.4823608c0.0136108,0.3399811,0,0.6753235-0.0453186,1.0018005
					c-3.1958847-0.0272217-11.156105-0.4714508-22.0854492-3.680954c0.1586533-0.2720337,0.3354492-0.5347748,0.5212708-0.7842255
					C75.4664764,246.0435791,86.6451569,248.5956879,92.8601303,248.4823608z"/>
				<path class="st13" d="M91.0921936,252.4351349c-0.4079361,0.358139-0.8567123,0.6711121-1.3327179,0.9429321
					c-3.9121017-0.1857147-10.8931503-0.9292145-19.9185867-3.5583344v-0.0046539
					c-0.1091385-0.3996277-0.1356888-0.7660828-0.122406-0.9520111
					C73.4038696,249.765274,84.5282135,252.3671875,91.0921936,252.4351349z"/>
			</g>
			<path class="st13" d="M109.4215317,253.1733856c-3.3156891,3.0034027-8.3515091,2.5486755-12.7485733,2.0259094
				c-1.8334808-0.2207794-3.7053986-0.4607697-5.3661499-1.2768555c-1.2960663-0.6337433-2.7072067-1.8721466-3.1295471-3.3599396
				v-0.0098419c-0.125145-0.4639587-0.139267-0.8500519-0.1249161-0.9501343
				c0.019455-2.08078,1.8783112-5.2816315,5.3567657-7.0367279c6.9891129-3.4984436,14.8785019-0.9968719,16.8477173,3.2160187
				h0.0096054c0.5394897,1.0460205,0.8810196,2.2586975,0.9215469,3.4461823
				C111.2840576,250.9081116,110.6816254,252.1189728,109.4215317,253.1733856z"/>
			<path class="st19" d="M110.6887741,246.7511749c-0.0192184,0.0098419-0.0480499,0.0098419-0.0672684,0.0098419
				c-0.5950623,0.0384369-1.2191925-0.4223328-1.7567215-0.1631165c-0.4511642,0.2207794-0.5567474,0.8156128-0.9024429,1.1709137
				c-0.4990921,0.5090485-1.3823166,0.4031219-1.9775009,0.0098419c-1.1446457-0.7274628-3.1962891-4.4595795-4.9631424-0.2306213
				c-0.8135605,1.9732513-2.1263885,2.3470154-3.4942245,0.0670319c-1.5534897-2.6224365-2.7001419-0.6052094-3.2352524-0.0571899
				c-0.8542786,0.9116974-2.4478836,0.9693604-3.369545,0.1340637c-0.7966232-0.719986-0.9886932-2.0062103-0.4799881-2.9568176
				c0.188652-0.2806854,1.3554611-1.3564911,2.966423-2.1693268c6.9891129-3.4984436,14.8785019-0.9968719,16.8477173,3.2160187
				h0.0096054C110.4199524,246.0794678,110.5639725,246.4057159,110.6887741,246.7511749z"/>
			<path class="st20" d="M242.7342224,223.7692871l-0.0480499,0.2113953l-0.009613,0.047821
				c-0.5759583,1.2576294-5.4046936,2.2462006-11.2701721,2.2462006c-5.8559723,0-10.6845856-0.9885712-11.2605591-2.2462006
				l-0.0095978-0.047821l-0.0480499-0.2113953c0-1.3724823,5.0687256-2.496048,11.3182068-2.496048
				C237.6654968,221.2732391,242.7342224,222.3968048,242.7342224,223.7692871z"/>
			<path class="st20" d="M242.6765594,224.0285034c-7.8011932,37.2565002-5.1105499,24.4066772-5.6926117,27.1864929
				c0,0.6815491-2.496048,1.2290344-5.5775604,1.2290344c-3.0718842,0-5.5679321-0.5474854-5.5679321-1.2290344
				c-0.5823364-2.7810669,2.1089783,10.0718994-5.692627-27.1864929c0.5759735,1.2576294,5.4045868,2.2462006,11.2605591,2.2462006
				C237.2718658,226.274704,242.1006012,225.2861328,242.6765594,224.0285034z"/>
			<path class="st1" d="M241.8018799,225.3884125c-0.9228363,4.4052887-5.3517151,25.5471039-5.3855286,25.7085571
				c-0.3167572,0.2784271-2.0639343,0.7677917-5.0110779,0.7677917c-2.9375458,0-4.6750946-0.4893646-5.0015259-0.7677917
				c-0.5506592-2.6286926,1.994812,9.5225677-5.3854675-25.7085571
				C225.3391876,227.333847,237.5193024,227.3249207,241.8018799,225.3884125z"/>
			<path class="st15" d="M240.1506958,233.2702942c-4.1666107,19.890213-3.6976776,17.6516266-3.7343445,17.8266754
				c-0.3167572,0.2784271-2.0639343,0.7677917-5.0110779,0.7677917c-2.9375458,0-4.6750946-0.4893646-5.0015259-0.7677917
				l-3.3214874-15.830307c0.712204-1.0192261,2.1291351-1.6036072,3.4462891-1.3532562
				c2.3135986,0.4415436,3.897522,3.1199341,6.2494965,3.0332184
				C235.647934,236.8474579,237.0738525,232.8151245,240.1506958,233.2702942z"/>
			
				<linearGradient id="SVGID_1_" gradientUnits="userSpaceOnUse" x1="146.4055939" y1="126.7427292" x2="140.2014313" y2="66.8591232">
				<stop  offset="0" style="stop-color:#FFFFFF;stop-opacity:0"/>
				<stop  offset="1" style="stop-color:#F5C46B"/>
			</linearGradient>
			<path class="st34" d="M186.7857513,122.5535049h-81.6246948c1.0821228-3.8403778-4.4016418,15.6211472,13.3389206-47.3389587
				v-0.0408325c2.8146515-4.9157486,14.5016251-8.6075363,28.53405-8.6075363
				c14.2363434,0,26.1068115,3.8142853,28.6767273,8.8316116
				C192.7458496,147.9307556,184.383316,112.3243103,186.7857513,122.5535049z"/>
		</g>
	</g>
</g>
</svg>
