<?xml version="1.0" encoding="utf-8"?>
<!-- Generator: Adobe Illustrator 22.0.1, SVG Export Plug-In . SVG Version: 6.00 Build 0)  -->
<svg version="1.1" id="Layer_1" xmlns="http://www.w3.org/2000/svg" xmlns:xlink="http://www.w3.org/1999/xlink" x="0px" y="0px"
	 viewBox="0 0 300 300" style="enable-background:new 0 0 300 300;" xml:space="preserve">
<style type="text/css">
	.st0{fill:#EDC1A4;}
	.st1{fill:#E2E0E0;}
	.st2{fill:#D39E81;}
	.st3{fill:#502E26;}
	.st4{fill:#CCCACA;}
	.st5{fill:#426800;}
	.st6{fill:#538705;}
	.st7{fill:#D47E44;}
	.st8{fill:#73341D;}
	.st9{fill:#BC672E;}
	.st10{fill:#96311D;}
	.st11{fill:#B83E21;}
	.st12{fill:#DE8D82;}
	.st13{fill:#EFBAB4;}
	.st14{fill:#FDD5D0;}
	.st15{fill:#6883CE;}
	.st16{fill:#3D4885;}
	.st17{fill:#3859AE;}
	.st18{fill:#864424;}
	.st19{fill:#FEFEFE;}
	.st20{fill:#FFFFFF;}
	.st21{fill:#A55925;}
	.st22{fill:#F4F2F2;}
	.st23{fill:#3C3E68;}
	.st24{fill:#E8997C;}
	.st25{fill:#F5C46B;}
	.st26{fill:#F7EBDA;}
	.st27{fill:#0E0C0D;}
	.st28{fill:#657C3A;}
	.st29{fill:#576C37;}
	.st30{fill:#7C995D;}
	.st31{fill:#36518C;}
	.st32{fill:#96B7E3;}
	.st33{fill:#A3B3DF;}
	.st34{fill:url(#SVGID_1_);}
	.st35{fill:url(#SVGID_2_);}
	.st36{fill:url(#SVGID_3_);}
	.st37{fill:url(#SVGID_4_);}
	.st38{fill:url(#SVGID_5_);}
	.st39{fill:#266AB7;}
	.st40{fill:#060E0D;}
	.st41{fill:#E0D4C6;}
	.st42{fill:#787E42;}
	.st43{fill:#D3D1D1;}
	.st44{fill:url(#SVGID_6_);}
	.st45{fill:url(#SVGID_7_);}
	.st46{fill:url(#SVGID_8_);}
	.st47{fill:#020508;}
	.st48{fill:#BAB6B6;}
	.st49{fill:#0F0B07;}
	.st50{fill:#2F3A68;}
	.st51{fill:#203257;}
	.st52{opacity:0.5;fill:#FFFFFF;}
	.st53{opacity:0.2;fill:#0E0C0D;}
	.st54{fill:#DD9F9B;}
	.st55{fill:#3E4D9B;}
	.st56{fill:url(#SVGID_9_);}
	.st57{fill:#5F6194;}
	.st58{fill:url(#SVGID_10_);}
	.st59{fill:url(#SVGID_11_);}
	.st60{fill:url(#SVGID_12_);}
	.st61{fill:url(#SVGID_13_);}
	.st62{fill:#070102;}
	.st63{fill:#100805;}
	.st64{fill:#FDA465;}
	.st65{fill:#2A50A1;}
	.st66{fill:#B76C39;}
	.st67{fill:#130602;}
	.st68{fill:url(#SVGID_14_);}
	.st69{fill:url(#SVGID_15_);}
	.st70{fill:url(#SVGID_16_);}
	.st71{fill:url(#SVGID_17_);}
	.st72{fill:url(#SVGID_18_);}
	.st73{fill:url(#SVGID_19_);}
	.st74{fill:#B4BDED;}
	.st75{fill:#100D08;}
	.st76{fill:#F6C85F;}
	.st77{fill:#FECF00;}
	.st78{fill:#2D59E2;}
	.st79{fill:#121F3A;}
	.st80{fill:#BBD0F5;}
	.st81{fill:#020202;}
	.st82{fill:#E2CFB7;}
	.st83{fill:#080805;}
	.st84{fill:#A87D7C;}
	.st85{fill:#182052;}
	.st86{fill:#EAEAEA;}
	.st87{fill:#DDDDDD;}
	.st88{fill:#3D4574;}
	.st89{fill:#ABC5F0;}
	.st90{fill:url(#SVGID_20_);}
	.st91{fill:#4159A8;}
	.st92{fill:#E0D0BD;}
	.st93{fill:#3D53AA;}
	.st94{fill:#0A0000;}
	.st95{fill:#BF6D36;}
	.st96{fill:#385DAE;}
	.st97{fill:#E0DCDC;}
	.st98{fill:#857E78;}
	.st99{fill:#0E213C;}
	.st100{fill:url(#SVGID_21_);}
	.st101{fill:#55608E;}
	.st102{opacity:0.3;fill:#F4F2F2;}
	.st103{opacity:0.3;}
	.st104{fill:#213987;}
	.st105{enable-background:new    ;}
</style>
<g id="Eating_Noodles_1_">
	<g id="Eating_Noodles">
		<g>
			<g>
				<path class="st3" d="M198.3906097,141.203064c-0.0570221,1.6549988-1.6110382,2.8579102-3.1474915,3.4724579
					c-2.8051758,1.1283264-6.0492401,1.115036-8.8456268-0.0351563c-1.4223022-0.5881805-2.8884583-1.4749298-4.3854675-1.1193237
					c-0.9965057,0.2370605-1.7909851,0.9965057-2.7524414,1.3433228c-1.4969025,0.5354309-3.2045135-0.0087891-4.4512634-0.996521
					c-2.4851532-1.9757538-3.4227753-5.4326782-5.8867645-7.4233093c-1.1677704-0.9394836-2.616333-1.501297-3.7270966-2.5065918
					c-1.9666443-1.7735138-2.5416412-4.9079437-1.3344269-7.2608414c1.2072144-2.3574066,4.0868835-3.7180862,6.6725616-3.1607819
					l10.9131317,1.7692337c6.1918335-1.1011047,12.1503754,1.4972992,13.8412323,3.5952606
					c0.6014557,0.7418671,0.965744,1.725296,0.7857971,2.6690674c-0.3513947,1.8654938-2.3252411,2.6659698,0.5707092,6.1588745
					C197.4994507,138.7316284,198.4389496,139.8685303,198.3906097,141.203064z"/>
				<path class="st0" d="M185.5634613,143.6790161l1.576004,0.9658508c0,0-0.0703125,5.6410065,0.7154846,5.9263
					c0.7858124,0.2853088-2.1203308,8.2835083-2.1203308,8.2835083l-5.6672668,8.7887115l-13.3627014,9.2142029
					l-11.7780151,0.6057434l2.1641693-27.4584656l1.7603302-4.6399994l3.8411255-5.4303131l3.2441711-0.1142426
					c0.0713654-0.1002197,5.0308228-7.0638123,4.7147064-6.6199493l18.806076,4.0563354
					C189.3962708,137.3572083,185.3025818,144.109314,185.5634613,143.6790161z"/>
				<path class="st2" d="M189.4572144,137.2566986l-1.4309998,2.3616943
					c-6.1483307,2.4149475-14.2920532,2.3871613-21.2953033-0.9086304l3.9202271-5.5093994L189.4572144,137.2566986z"/>
				<polygon class="st3" points="198.855957,128.4857788 197.2394714,130.779129 194.6550598,130.046936 196.1383514,126.5042725 
					198.2667084,124.9064941 198.855957,125.1184082 				"/>
				<path class="st1" d="M161.4729614,141.3952332c0,0-4.8792725,23.0257263,3.0873108,28.0023499
					c0,0,5.5389252-2.9371948,17.6696167-18.2104034c0,0,5.145462-5.4467773,3.3321075-7.5067902l0.6319275,0.2737885
					l6.1014709,1.7501984c0,0,3.8055267,0.1448975,8.0358429,1.8751373
					c4.2303314,1.7302246-0.8631744,52.513443-0.8631744,52.513443l-14.7008362,4.8683624l-57.3394547-18.9860992
					l13.5938339-43.7051392l5.5705566-3.0036469c0,0,7.6905518-0.0416412,12.8977203,0.1222839
					S161.4729614,141.3952332,161.4729614,141.3952332z"/>
				<path class="st0" d="M104.8191147,130.6560364c-0.0581818,0.1000977-3.0169983,46.6586304-21.2448959,31.5464325
					c0,0,13.6610565-16.724823,17.8855667-32.1672516C102.538887,130.4219208,103.668808,130.6356506,104.8191147,130.6560364z"/>
				<path class="st1" d="M146.5963287,139.2679596l-17.1221619,45.2993927c0,0-36.1580887-11.5639343-45.8999481-22.3648834
					c0.0562439-0.1019897,14.4744186-17.8790894,18.0891724-32.9411621
					C101.6633911,129.2613068,105.7556229,131.6228027,146.5963287,139.2679596z"/>
				<path class="st15" d="M159.4898834,139.3887177c0,0,3.2443237-0.4147186,6.4483643,0.4331512
					c0,0-3.2472382-0.9981384-20.3826141,26.7479553c0,0,18.1868134,5.7142181,39.1965027,5.4464722
					c0,0,2.5895844-24.7756805,1.4417877-28.0621185c0,0,4.2282104-0.8238983,6.1014709,1.7501984
					c0,0,1.2696991,32.8030243,0.4350586,39.4700928c0,0,19.5175171,27.9644928,18.4560852,51.4563141l-98.1023865-7.3812408
					c0,0,7.4890289-41.6370697,15.3427124-53.0473938C145.5559692,151.3159332,159.4898834,139.3887177,159.4898834,139.3887177z"/>
				<ellipse class="st11" cx="150" cy="243.1074066" rx="128" ry="17.5955372"/>
				<path class="st22" d="M196.2787323,210.646225c0,5.6856842-24.7705536,10.2983246-55.3248749,10.2983246
					c-30.5589523,0-55.3295059-4.6126404-55.3295059-10.2983246c0-5.6906586,24.7705536-10.2983246,55.3295059-10.2983246
					C171.5081787,200.3479004,196.2787323,204.9555664,196.2787323,210.646225z"/>
				<path class="st7" d="M188.4826813,212.4548645c-12.5046692,7.0294647-71.1499557,6.481781-87.963913,2.2740173
					c-5.5400467-1.1853485-8.7841034-2.6251221-8.7841034-4.1791534c0-4.5947571,25.5386963-6.4741058,30.0705185-6.7603302
					C160.5218811,201.420166,198.9286041,206.7121887,188.4826813,212.4548645z"/>
				<path class="st95" d="M132.0993805,217.7666321c-0.8077698-0.0218658-1.6066589-0.048233-2.3968506-0.0788727
					c-7.5437851-9.3224182-20.3901215-9.9018097-28.8589096-2.8885651c-0.1097488-0.0220795-0.2194977-0.0439453-0.324852-0.0703125
					l-1.9403839-1.3696747c4.6401062-5.3424225,12.2082138-7.954483,19.1529999-6.615448
					C123.877182,207.928894,129.3249512,212.1740723,132.0993805,217.7666321z"/>
				<path class="st95" d="M188.4826813,212.4548645c-0.5311584,0.298584-1.1852417,0.5838928-1.9490814,0.8603973
					c-2.6602783-2.581192-6.8262482-3.4634399-10.3469238-2.2783051c-2.6939697,0.907486-4.9160614,2.9506989-6.2071991,5.4345856
					c-0.4697571,0.0527344-0.9438934,0.1011658-1.426712,0.1493988c-0.0087891-0.0439453-0.0219727-0.0878754-0.0351563-0.1318207
					c-2.0998535-6.5004272-10.1443787-11.3437653-24.0168915-5.9042358
					c-3.9497681,1.5475311-7.84021,3.5886841-10.0132904,7.2387695c-0.3730621-0.0087891-0.7418518-0.0175781-1.1106415-0.0261536
					c-0.0965576,0.0746002-0.1931305,0.1534729-0.2852936,0.2413635c0.1991272-1.8892517,1.3456573-4.3925323,3.3977356-6.3916626
					c2.2344818-2.1773529,5.1097565-3.5689087,8.0114899-4.7103119c16.4882202-6.4651642,24.5628052,2.0001526,24.4470978,8.7709351
					c0.7770081-3.7665405,3.5909729-7.0895844,7.2388611-8.3188782
					C180.6475067,205.8860168,186.3017578,207.6569672,188.4826813,212.4548645z"/>
				<path class="st95" d="M121.5198898,217.2924957c-6.2472-0.4204712-13.3166046-1.0696716-19.49543-2.2562256
					C108.5003357,212.3800049,115.6569901,213.0426483,121.5198898,217.2924957z"/>
				<path class="st95" d="M162.9425201,217.1126556c-1.1940308,0.0921783-2.4144287,0.171051-3.6610718,0.2458649
					c-5.9279633-3.7081451-13.0259552-1.9872894-19.508606,0.5223541c-1.5649414,0-3.7933044-0.0228577-6.3960571-0.083374
					c2.0632324-1.676651,4.4823914-2.8091278,6.9755402-3.7928925c4.7805176-1.8744812,10.0483398-3.1650696,15.0352631-1.9490814
					C158.3727112,212.7841034,161.1865692,214.6410065,162.9425201,217.1126556z"/>
				<path class="st95" d="M179.940033,215.0229797c-5.2016144,1.0116272-11.5022125,1.6140747-11.6023712,1.6198273
					c1.0865784-0.929184,2.1374969-1.6519165,3.7006226-2.186142
					C174.6063995,213.59198,177.5212097,213.8290558,179.940033,215.0229797z"/>
				<path class="st3" d="M196.2787323,210.646225c0,20.8394318-15.6713715,37.7364349-35.0093994,37.7364349h-40.635582
					c-19.3336334,0-35.0093994-16.8970032-35.0093994-37.7364349c0,5.6856842,24.7705536,10.2983246,55.3295059,10.2983246
					C171.5081787,220.9445496,196.2787323,216.3319092,196.2787323,210.646225z"/>
				<path class="st0" d="M216.3064575,215.2792358c-6.9934082,4.743866-20.0640259,9.3753967-23.5353241,12.1852417
					c-2.1706696,1.756485-15.6993866,12.3162842-18.4251099,12.846817
					c-1.9041901,0.3693237-3.0326996-1.1516571-2.2904205-2.8913574c0.3257599-0.7530365,0.9263153-1.3539581,1.5065613-1.934021
					c-0.9670715,0.5904999-1.995163,1.2013702-3.1353455,1.2625122c-1.1299133,0.0506897-2.3921814-0.6620789-2.5347137-1.7918854
					c-0.1221466-0.9772034,0.6006317-1.8525085,1.3437195-2.5041504c1.5778351-1.3947296,3.4916077-2.4126892,5.5275421-2.9624329
					c-2.3311157,0.499054-4.6622314,1.0080261-7.0036011,1.5170135c-0.946701,0.2032928-2.1275024,0.3255615-2.7281342-0.4478455
					c-0.4071503-0.5293579-0.3358917-1.3236542,0.0101929-1.903717c0.3461304-0.5805511,0.9059906-0.9975739,1.4658661-1.3639069
					c2.0461121-1.3644104,4.2856445-2.4231262,6.6269531-3.1458435c-2.310791,0.5397949-4.6826019,0.8146667-7.0544739,0.8146667
					c-1.2724609,0-2.8096008-0.2649231-3.2575073-1.4558716c-0.2850494-0.783844,0.0712738-1.6899719,0.6718292-2.2799835
					c0.6006317-0.5805511,1.3946686-0.8961792,2.1784668-1.1809845c4.3263397-1.5677032,9.1413574-2.4738312,13.7425079-2.5349731
					c-2.219162-0.8956909-4.2245178-2.2904205-5.8431091-4.0614166c-0.4377136-0.4682312-0.8449249-0.9876404-1.0281525-1.598526
					c-0.1832275-0.6103821-0.0814514-1.3435364,0.3970184-1.7709961c0.7227783-0.6312561,1.8527069-0.305191,2.738327,0.061142
					c1.3029633,0.5189209,2.6059875,1.0482788,3.9089508,1.5776367c1.0485229,0.427475,2.4329529,1.3132172,3.5628662,1.4354858
					c3.2269897,0.3459625,6.6167755-3.89888,8.6730804-5.8840942c2.7688904-2.6771393,5.3951874-5.537674,7.4006042-8.8356171
					c5.4658051-8.9867554,2.6860046-19.7096405,1.791626-29.5517578
					c3.4786377-9.4184723,15.3561249-13.0608063,22.4562836-8.1128998
					c6.2401276,4.3770447,9.5179291,14.5974426,10.4239349,22.211792
					C235.6783295,197.831192,228.0436096,207.3085022,216.3064575,215.2792358z"/>
				<path class="st2" d="M223.4729614,160.7674713c-8.5509186,7.482132-15.697052,16.5419159-21.0209808,26.5789032
					c0.3461456-5.6395721-0.6921997-11.5132294-1.2928314-17.1324158c5.0695038-4.8656464,11.05513-8.7545929,17.5497437-11.4113312
					C220.5068512,159.1095581,222.0375977,159.7672119,223.4729614,160.7674713z"/>
				<path class="st1" d="M202.346756,182.9754639l-7.2799683-2.9599609
					c-10.8599854-3.5600586-5.7200317-35.9702148,5.2600098-32.4399414c0,0,14.1199951,4.7597656,22.1099854,12.5400391
					C223.8667755,161.1356201,208.886795,166.2357178,202.346756,182.9754639z"/>
				<path class="st0" d="M178.4658508,112.3444138c-4.6852264,3.6325455-8.1144409,8.855011-9.585495,14.5980682
					c-1.3506012,5.272728-0.3442993,9.1334305,4.447403,11.8725357c3.0065308,1.7186279,6.6112213,2.3660889,10.0279236,1.8011932
					c4.0835266-0.6751709,7.2464905-2.9114685,9.7480469-6.1034546c1.9107361,1.5429382,5.9864502,0.499939,6.2673798-2.5231628
					c0.1239777-1.3339539-0.6988373-2.7247772-1.9588013-3.1800537c0.7636108-0.6217346,1.0444946-1.6743164,1.0306549-2.6589355
					c-0.0374908-2.6670456-3.1451874-8.4441986-8.7087708-11.5722504
					C186.2410431,112.6143799,182.440918,111.8363342,178.4658508,112.3444138z"/>
				<path class="st15" d="M205.967514,112.5856171c-1.3435059,1.8208313-4.7659302,1.1355743-5.3863678,3.6173477
					c-0.1447906,0.6891327,0.1273193,1.3870468,0.3292389,2.058815c1.0842743,3.5646133,0.2634277,7.3090668-2.0544281,10.223999
					c-7.8753662-13.0686188-20.3908539-16.1415176-20.3908539-16.1415176
					c-0.0106049-4.2567902,3.264328-6.6794815,6.6769562-6.4750366c0.7558899,0.0443878,1.9026489,0.1834335,2.5899658-0.1448975
					c0.5056-1.6833038,2.2579803-2.8092499,3.9158325-2.6557846c2.0982513,0.1931305,3.6128387,2.0500336,5.5223541,2.9410782
					c1.3125763,0.6102524,2.7876129,0.7506485,4.2143097,1.0010071c1.426712,0.250145,2.9016418,0.6496887,3.9508667,1.6504822
					C206.3845215,109.662117,206.8278961,111.422348,205.967514,112.5856171z"/>
				<path class="st96" d="M201.3317871,115.0133286c-0.3599854,0.3071594-0.6277161,0.6803436-0.7374573,1.1369095
					c-2.2651367-5.3029861-10.1274261-9.0343628-13.187149-10.3116684c0.1141357-0.0308609,0.2238922-0.0660172,0.3248444-0.1142426
					c0.0527344-0.1755524,0.1141357-0.3423157,0.1932373-0.5047913
					C196.5337067,107.8886032,200.1333771,112.8623428,201.3317871,115.0133286z"/>
				
					<ellipse transform="matrix(0.6165937 -0.7872816 0.7872816 0.6165937 -27.1205692 193.5909576)" class="st3" cx="185.1982727" cy="124.6399918" rx="1.7961862" ry="1.3043733"/>
				
					<ellipse transform="matrix(0.6165937 -0.7872816 0.7872816 0.6165937 -26.527895 184.0884552)" class="st3" cx="175.7384491" cy="119.2802429" rx="1.7961862" ry="1.3043733"/>
				<path class="st2" d="M175.4980469,125.6086121c-0.1759491,0.7012863,0.1958466,1.4485703,0.7432556,1.9209213
					c0.5474091,0.4723434,1.2451172,0.7256699,1.9258575,0.9693069c0.7132263,0.2552643,0.8973083-0.2706909,0.3888855-0.6047134
					c-0.6855774-0.4504013-1.9762726-0.662056-2.1535187-1.6581802c-0.1866608-1.0490341,1.0266418-1.7108154,3.4215546-3.4893265
					c0.1794434-0.133255,0.9976044-0.6605988,0.8913269-0.9308624c-0.1728821-0.4395981-0.9238739,0.247467-1.086853,0.3592377
					C176.4769287,124.3364029,175.7251282,124.7035065,175.4980469,125.6086121z"/>
				<path class="st3" d="M179.962265,135.3554077c-0.9018402,1.5778961-2.8471375,1.871582-4.3399048,0.6875
					c-1.5204926-1.2078247-1.9763489-3.4580383-1.0859528-5.0014496c0.8959351-1.5680542,2.8402557-1.8746643,4.3387299-0.6833801
					C180.3735657,131.5495758,180.8582001,133.7873535,179.962265,135.3554077z"/>
				<path class="st11" d="M179.060791,136.3303986c-2.4994659,1.6462555-5.8006287-1.5238953-4.8062744-4.6448212
					C176.9028168,132.1757813,178.8926544,134.6967926,179.060791,136.3303986z"/>
				<path class="st3" d="M190.2639618,125.448143c-0.0007324-3.4739456-3.7089691-5.486969-5.1635437-4.1246414
					c-0.0954437-0.8804703,0.5052948-1.6369934,1.3857574-1.7325668c0.8804474-0.0955734,1.7382202,0.3049088,2.4869232,0.7779617
					c1.3953094,0.8816147,2.6321259,2.1759491,2.4100647,3.8188782
					C191.2765045,124.9768829,191.0225525,125.2060089,190.2639618,125.448143z"/>
				<path class="st3" d="M180.1051636,119.2141647c-0.0007324-3.4739456-3.7089844-5.486969-5.1635437-4.1246414
					c-0.095459-0.8804626,0.5052948-1.6369858,1.3857422-1.7325668c0.8804626-0.0955734,1.7382355,0.3049088,2.4869385,0.7779694
					c1.3953094,0.8816147,2.6321106,2.1759415,2.4100647,3.8188705
					C181.1177063,118.7429047,180.863739,118.9720306,180.1051636,119.2141647z"/>
				<g>
					<path class="st25" d="M144.2242126,48.2654266c-0.008667,0.1023178-0.2757874,3.2577286-0.2590332,3.0598259
						c-0.3623352,0.012146-2.7410736-0.320652-6.4750519,0.8691826c-3.6698608,1.163269-5.7111969,4.8155518-6.4223022,11.4882202
						c-3.0640717,28.616745,8.9201813,58.7562561,0.5223694,86.9673996
						c-3.8794098,13.0314941-11.976799,24.6975708-14.7543564,37.6781769
						c-2.0298691,9.5019836-1.0555038,19.7051239,2.752449,28.8326569
						c-1.1676636-0.0833893-2.3090744-0.1755524-3.4197159-0.2765198c-3.5853043-9.4090118-4.377182-19.6483917-2.335434-29.1970367
						c2.8779068-13.466568,10.971611-25.0367279,14.8114853-37.9152527
						c8.1727295-27.4350739-3.7449036-57.3190384-0.6322327-86.4141617
						c0.3117676-2.9106369,1.2599487-11.773735,8.5470428-14.0914841
						C139.2372894,48.4148254,141.8887787,48.0680122,144.2242126,48.2654266z"/>
				</g>
				<g>
					<path class="st25" d="M155.0627441,49.9952202l-0.693634,2.9938049
						c-2.5141907-0.5956955-5.4802094-0.1595154-7.9675446,0.6363983
						c-3.6655731,1.1677704-5.7068176,4.8202705-6.4224091,11.4927254
						c-3.0651855,28.6294861,8.9269104,58.7598953,0.5223541,86.967392
						c-3.8808746,13.0372467-11.9823608,24.7241058-14.7542419,37.6781769
						c-1.8902588,8.8299255-1.2407761,18.6715393,2.3616943,27.866806c-1.132515-0.0439453-2.2475586-0.0964508-3.3406219-0.1536865
						c-3.2309494-8.9515686-4.0551147-18.8623352-2.0237732-28.3540192
						c2.8785629-13.4773254,10.9926758-25.0737152,14.8113708-37.9152527
						c8.1729126-27.4350662-3.7443542-57.3330002-0.6321106-86.4141541
						c0.2897949-2.6954346,1.1238251-10.4874306,7.0193787-13.4681587c0.0043945-0.0087891,0.0131836-0.0130768,0.0219727-0.0130768
						C146.4348145,50.0658073,151.3055115,49.1233673,155.0627441,49.9952202z"/>
				</g>
				<path class="st18" d="M209.5759583,79.4773483c-0.1403961,0.7945938-0.8296356,1.3521118-1.6022491,1.3521118
					c-0.2677307,0,5.9850464,1.3045044-137.420105-29.0783005c-1.3652954-0.2897987-2.2827072-1.5716019-2.1159439-2.9545784
					c0.1624756-1.3827629,1.3389282-2.3747673,2.6690674-2.3747673c0.4566956,0-5.6861496-1.3622475,137.2268677,31.1943512
					C209.1765137,77.8092957,209.7252502,78.6257477,209.5759583,79.4773483z"/>
				<path class="st18" d="M210.0248566,69.1950378c-0.1152191,0.7986298-0.7865143,1.3776398-1.5587463,1.4020462
					c-0.2070007,0.0065384-95.7126007-17.092617-138.269989-24.7232513
					c-1.373764-0.2465286-2.3311996-1.4987144-2.2082062-2.8862686c0.118721-1.387207,1.2632523-2.4158745,2.5927277-2.4578896
					c0.456459-0.0144234-5.7263489-1.1819649,138.1437073,26.8443489
					C209.572937,67.5404282,210.1471863,68.3391418,210.0248566,69.1950378z"/>
				<g>
					<path class="st25" d="M151.313797,79.8987579c-3.5776978,10.8033829-4.719101,22.4849472-3.3011932,33.7800369
						c1.7199249,13.6697998,7.109787,27.2713699,5.6804504,41.295311
						c-1.7362061,17.1102905-13.2966003,31.7298279-14.8420258,48.2489777
						c0.0108643,0.4944305-0.9910126,7.4540405,2.0016937,14.6620789c-1.1106415,0-2.2080994-0.0042877-3.3010712-0.0175629
						c-1.7535706-4.8209381-2.204361-9.8575134-1.7647247-14.9079437
						c1.6151276-17.2838287,13.1578522-31.6608887,14.8508148-48.2972107
						c1.3712158-13.4936981-3.9507141-26.8207092-5.6716614-40.6016769
						c-1.4750519-11.7428665-0.2897034-23.8897858,3.4284973-35.1276474c1.4797211-4.4923019,3.32547-8.7207794,3.959549-13.2310867
						c0.6892395-4.8858604-0.3818512-9.2407799-2.9411774-11.9447861c-1.4236145-1.5278702-3.3730927-2.255909-5.4477692-2.4319954
						c0.0757141-0.8944931,0.2715607-3.2077827,0.2590332-3.0598259c8.7588348,0.7351151,12.3934631,9.2156906,11.1721649,17.866806
						C154.7086639,71.0170822,152.7030487,75.6635742,151.313797,79.8987579z"/>
				</g>
				<g>
					<path class="st25" d="M160.2252197,81.3342514c-3.5776825,10.8035965-4.719101,22.4849396-3.301178,33.7800369
						c1.7239227,13.7041626,7.1127014,27.236084,5.6804504,41.2953033
						c-2.1486969,21.1753845-20.4863281,40.7968903-13.4197235,61.3746185
						c-1.9131012,0.0478668-3.1021271,0.059845-3.2046051,0.0615234
						c-6.7173157-21.9061127,11.4766846-41.187088,13.5690002-61.7478027
						c1.3643341-13.4328461-3.9385223-26.822464-5.6716614-40.6016769
						c-1.4750366-11.7428665-0.2897949-23.8897781,3.4285126-35.1276398
						c1.432663-4.3494797,3.3224945-8.6996002,3.959549-13.2310867c0.8470612-6.0046654-0.9881592-12.7778168-6.8964539-14.1485023
						l0.693634-2.9938049c7.5519562,1.7550659,10.3323975,9.8987389,9.2494659,17.5724983
						c-0.5180817,3.6480026-1.7471619,7.1114426-2.9412994,10.4610672
						C160.9846649,79.1129608,160.5896149,80.2324982,160.2252197,81.3342514z"/>
				</g>
				<path class="st2" d="M194.4150543,132.5002899c0.4671326-0.2719421,0.7310028-0.780899,1.0453949-1.2205658
					c1.2047729-1.6848145,2.5428009-0.3577271,2.1014099,0.7232056c-0.2501678,0.6126404-0.9369049,0.9583588-1.5979004,0.9898224
					c-0.6609955,0.0314789-1.30513-0.1938171-1.9209137-0.4361267"/>
				<path class="st0" d="M107.9645844,71.8174286c-4.5310287,8.8511505-8.7146759,18.3685303-12.2766342,28.0148773
					c-1.4556808,3.949585-2.8299103,7.9806747-3.288002,12.1643677c-1.081955,9.8812408,3.6051407,16.2184601,9.0598373,18.0385437
					c-4.2245102,15.4424286-17.8855667,32.1672516-17.8855667,32.1672516
					c-16.7981796-13.9544678-32.9705238-29.9476471-27.576664-50.8877487
					c5.2017784-20.2369995,25.0520668-41.5227814,25.0520668-41.5227814
					c-2.5754089-1.4151077-5.2832336-2.9420547-6.7389145-5.4969025
					c-3.0805359-5.3864632,0.2885971-15.2039528,3.5526886-20.6341438c0.7023926-1.1606178,1.4862442-2.3008575,2.5449066-3.1458473
					c1.0587234-0.8549309,2.4431381-1.3842888,3.7766647-1.1705589c1.3437271,0.2137337,2.5856094,1.2828941,2.7281418,2.6264267
					c0.7430878-1.4658089,2.6670609-2.1984634,4.1940002-1.6084633c1.526947,0.6009369,2.453331,2.4430161,2.0054245,4.0211563
					c0.3969574-0.7227135,1.4149246-0.9468842,2.1783905-0.610878c0.7533493,0.33601,1.2521439,1.0994797,1.4658737,1.9037132
					c0.2239838,0.7937927,0.1934128,1.6387825,0.1730957,2.4633904c0.0305099-0.9364471,1.8628311-1.0686607,2.4328918-0.8141708
					c0.9670715,0.4478455,1.5575104,1.7202988,1.7203598,2.7074471c0.4630432,2.7148247-1.1604385,5.184166-1.0993576,7.8280792
					c0.0305099,2.0463676,1.0993576,4.0415344,2.7892075,5.1917152c1.24189,0.8554268,2.7586441,1.2520752,3.9700241,2.1477661
					C109.3286896,67.1043777,109.2574234,69.272522,107.9645844,71.8174286z"/>
				<path class="st2" d="M101.4597855,130.0352173c-4.2245102,15.4424286-17.8855667,32.1672516-17.8855667,32.1672516
					c-4.6317825-3.8476868-9.0192032-7.715744-12.9078369-11.686203
					c10.4545059-5.8736725,20.1557312-13.0804443,28.8084259-21.3976135
					C99.9742661,129.4102936,100.8393555,129.828186,101.4597855,130.0352173z"/>
				<path class="st27" d="M81.0516129,69.7911301c3.8487473,0.7525787,11.6460495-0.4744263,14.8595581-0.7265625
					C91.9198303,70.4386368,84.6635284,71.4879684,81.0516129,69.7911301z"/>
				<g>
					<path class="st2" d="M80.4955139,59.5299568c0.2089844-6.293457,2.3920898-12.5424805,6.1474609-17.597168
						c0.2939529-0.3981857,0.8983078,0.048481,0.6015625,0.4472656c-3.6650391,4.9331055-5.7954102,11.0327148-5.9990234,17.1743164
						C81.2287064,60.053875,80.4790115,60.0284729,80.4955139,59.5299568z"/>
				</g>
				<g>
					<path class="st2" d="M87.7328186,61.5489998c0.168457-6.2368164,1.8745117-12.4086914,4.9335938-17.847168
						c0.2421265-0.4316139,0.896843-0.0648232,0.6533203,0.3671875c-2.9995117,5.3334961-4.671875,11.3847656-4.8369141,17.5004883
						C88.4684448,62.0690651,87.7198944,62.0471611,87.7328186,61.5489998z"/>
				</g>
				<g>
					<path class="st2" d="M94.2928772,58.3209724c-0.6967773-3.7612305,0.4941406-7.8334961,3.1074219-10.6269531
						c0.3402786-0.3614006,0.8863983,0.1507988,0.5478516,0.5126953c-2.4536133,2.6225586-3.5717773,6.4458008-2.9179688,9.9775391
						C95.1199493,58.6703873,94.3837204,58.8152466,94.2928772,58.3209724z"/>
				</g>
			</g>
			<path class="st15" d="M192.2954254,145.7044678c-1.873291-2.5742188-6.1015015-1.7504883-6.1015015-1.7504883
				c1.1478271,3.2866211-1.4417725,28.0625-1.4417725,28.0625c-4.4178467,0.0561523-8.7073975-0.1542969-12.7327271-0.5180664
				v7.5961914h20.9802246C193.1353912,167.4071045,192.2954254,145.7044678,192.2954254,145.7044678z"/>
		</g>
	</g>
</g>
</svg>
