<?xml version="1.0" encoding="utf-8"?>
<!-- Generator: Adobe Illustrator 22.0.1, SVG Export Plug-In . SVG Version: 6.00 Build 0)  -->
<svg version="1.1" id="Layer_1" xmlns="http://www.w3.org/2000/svg" xmlns:xlink="http://www.w3.org/1999/xlink" x="0px" y="0px"
	 viewBox="0 0 300 300" style="enable-background:new 0 0 300 300;" xml:space="preserve">
<style type="text/css">
	.st0{fill:#EDC1A4;}
	.st1{fill:#E2E0E0;}
	.st2{fill:#D39E81;}
	.st3{fill:#502E26;}
	.st4{fill:#CCCACA;}
	.st5{fill:#426800;}
	.st6{fill:#538705;}
	.st7{fill:#D47E44;}
	.st8{fill:#73341D;}
	.st9{fill:#BC672E;}
	.st10{fill:#96311D;}
	.st11{fill:#B83E21;}
	.st12{fill:#DE8D82;}
	.st13{fill:#EFBAB4;}
	.st14{fill:#FDD5D0;}
	.st15{fill:#6883CE;}
	.st16{fill:#3D4885;}
	.st17{fill:#3859AE;}
	.st18{fill:#864424;}
	.st19{fill:#FEFEFE;}
	.st20{fill:#FFFFFF;}
	.st21{fill:#A55925;}
	.st22{fill:#F4F2F2;}
	.st23{fill:#3C3E68;}
	.st24{fill:#E8997C;}
	.st25{fill:#F5C46B;}
	.st26{fill:#F7EBDA;}
	.st27{fill:#0E0C0D;}
	.st28{fill:#657C3A;}
	.st29{fill:#576C37;}
	.st30{fill:#7C995D;}
	.st31{fill:#36518C;}
	.st32{fill:#96B7E3;}
	.st33{fill:#A3B3DF;}
	.st34{fill:url(#SVGID_1_);}
	.st35{fill:url(#SVGID_2_);}
	.st36{fill:url(#SVGID_3_);}
	.st37{fill:url(#SVGID_4_);}
	.st38{fill:url(#SVGID_5_);}
	.st39{fill:#266AB7;}
	.st40{fill:#060E0D;}
	.st41{fill:#E0D4C6;}
	.st42{fill:#787E42;}
	.st43{fill:#D3D1D1;}
	.st44{fill:url(#SVGID_6_);}
	.st45{fill:url(#SVGID_7_);}
	.st46{fill:url(#SVGID_8_);}
	.st47{fill:#020508;}
	.st48{fill:#BAB6B6;}
	.st49{fill:#0F0B07;}
	.st50{fill:#2F3A68;}
	.st51{fill:#203257;}
	.st52{opacity:0.5;fill:#FFFFFF;}
	.st53{opacity:0.2;fill:#0E0C0D;}
	.st54{fill:#DD9F9B;}
	.st55{fill:#3E4D9B;}
	.st56{fill:url(#SVGID_9_);}
	.st57{fill:#5F6194;}
	.st58{fill:url(#SVGID_10_);}
	.st59{fill:url(#SVGID_11_);}
	.st60{fill:url(#SVGID_12_);}
	.st61{fill:url(#SVGID_13_);}
	.st62{fill:#070102;}
	.st63{fill:#100805;}
	.st64{fill:#FDA465;}
	.st65{fill:#2A50A1;}
	.st66{fill:#B76C39;}
	.st67{fill:#130602;}
	.st68{fill:url(#SVGID_14_);}
	.st69{fill:url(#SVGID_15_);}
	.st70{fill:url(#SVGID_16_);}
	.st71{fill:url(#SVGID_17_);}
	.st72{fill:url(#SVGID_18_);}
	.st73{fill:url(#SVGID_19_);}
	.st74{fill:#B4BDED;}
	.st75{fill:#100D08;}
	.st76{fill:#F6C85F;}
	.st77{fill:#FECF00;}
	.st78{fill:#2D59E2;}
	.st79{fill:#121F3A;}
	.st80{fill:#BBD0F5;}
	.st81{fill:#020202;}
	.st82{fill:#E2CFB7;}
	.st83{fill:#080805;}
	.st84{fill:#A87D7C;}
	.st85{fill:#182052;}
	.st86{fill:#EAEAEA;}
	.st87{fill:#DDDDDD;}
	.st88{fill:#3D4574;}
	.st89{fill:#ABC5F0;}
	.st90{fill:url(#SVGID_20_);}
	.st91{fill:#4159A8;}
	.st92{fill:#E0D0BD;}
	.st93{fill:#3D53AA;}
	.st94{fill:#0A0000;}
	.st95{fill:#BF6D36;}
	.st96{fill:#385DAE;}
	.st97{fill:#E0DCDC;}
	.st98{fill:#857E78;}
	.st99{fill:#0E213C;}
	.st100{fill:url(#SVGID_21_);}
	.st101{fill:#55608E;}
	.st102{opacity:0.3;fill:#F4F2F2;}
	.st103{opacity:0.3;}
	.st104{fill:#213987;}
	.st105{enable-background:new    ;}
</style>
<g id="Eating_Sushi_1_">
	<g id="Eating_Sushi">
		<g>
			<g>
				<path class="st8" d="M131.3109283,129.480484c-10.6745529-7.8883209-14.6656723-22.1762543-9.4184036-34.5264053
					c1.5718307-3.6995087,3.9265442-7.1045532,4.818428-11.0239334c0.8817902-3.8750534,0.260643-7.9610138,1.0355225-11.8588486
					c1.1817474-5.9445496,5.419693-10.7433929,9.4949799-15.2296143c2.6579132-2.9259033,5.4158783-5.9268723,9.0010071-7.5918541
					s8.2470703-1.6671104,11.1096039,1.058918c2.5325775-1.5948792,5.5577545-1.8247261,8.5483093-1.7057037
					c5.4408264-3.4403458,11.2870941-6.4128647,17.7218933-6.5918198
					c6.4347839-0.1789589,13.2302094,2.6578484,16.4416504,8.2368431
					c3.5688324,6.1998444,2.1566315,14.2857399,5.4929352,20.6137428c1.5029907,2.8507462,3.8678131,5.1366501,5.7788239,7.7315979
					c7.1493073,9.7079468-0.7713623,12.9104691-1.7880554,18.7417145
					c-0.7844696,4.4993973,2.7586212,8.4975662,4.0447235,12.8800278c1.5427551,5.2570496-0.3415833,11.0937729-3.83255,15.3163071
					c-3.4909821,4.2225418-8.3948822,7.0410233-13.4293976,9.2021408
					C175.1046448,143.8449707,149.8876648,143.2084045,131.3109283,129.480484z"/>
				<g>
					<path class="st8" d="M213.8283691,99.7705917c-1.5471802-5.1438904,3.5739899-8.6037292,3.5682678-13.6620331
						c-0.0114288-5.3323441-4.0363922-7.1995544-7.2792816-10.5222321c-2.7061615-2.7804642-2.9573364-5.1438904-2.928772-8.8721771
						c0.0342255-5.3894882-1.3188629-11.5439262-5.2183228-15.5119591
						c-4.1449127-4.5729675-9.0719147-9.0149117-15.4377289-9.8484383
						c-6.4856873-0.8505325-11.8353119,1.3015823-16.8993378,5.1781807
						c-1.6043243,0.5254822-3.1858063,0.7652283-4.373291,2.0896683c-1.5669708-0.1094093-5.513504,0.3351021-6.7255096,1.4044533
						c-1.7927094-2.0609589-5.4751434-3.162941-8.1128082-3.3341064c-4.6193542-0.2957954-9.5509949,1.7315598-10.9446259,3.431118
						c-4.6187592,3.3000946-6.3200989,9.5688286-9.751358,13.8964806c-2.6376724,2.5691528-5.726387,5.2980499-5.7663193,9.2889404
						c-0.045723,4.0078964,3.0544281,7.6846161-0.439621,11.2528915c-0.9991226,1.0219727-2.0382385,1.9525146-2.8889084,3.117218
						c-5.6921005,7.770195-0.6565094,20.2449417-0.4053345,22.2944717c0.0400009,0.2913132,0.0171432,0.2511749,0.1484451,0.4053345
						c1.2804413,13.6131821,7.6038589,20.9304504,19.5084305,27.4386292
						c8.7065887,4.7617035,18.3495636,8.0729523,28.266449,8.4440002c9.9170074,0.3654633,20.1193542-2.3865662,27.8153992-8.655304
						c3.693924-3.0087738,6.7712097-6.7482147,10.6478119-9.5401154c4.0192566-2.9000626,8.678009-3.9108887,11.001709-8.82061
						c0.4966278-0.793663,0.8392487-1.8042068,1.0618439-2.7177429
						C220.4771881,109.2648468,215.2179718,103.3501129,213.8283691,99.7705917z M144.3183746,49.5008469
						c-5.1237335,2.6399956-7.5097656,7.8099213-10.6876831,12.6344795
						c-1.9738464,3.0028954-4.7194061,6.0458717-5.9889832,10.3223534
						c-1.0904083,3.6424255,1.1075592,7.1708374,0.0285797,10.6192398c-1.004837,3.2200851-3.9166031,5.2751923-5.4923553,8.1699524
						c-1.8154984,3.3399582-1.7983551,7.6787643-1.9639435,11.3956223
						c-0.0627975,1.3815918-0.0798721,2.7746124-0.0456543,4.1734848
						c-1.2217865-4.6075363-3.1344376-12.0638351,0.4909897-17.7842255
						c1.1132736-1.7356262,2.6319504-2.9460526,3.9279556-4.5105209c2.7403946-3.2942429,0.5766449-6.5826263,0.2626038-10.2309113
						c-0.3996201-4.607254,2.7918243-6.6453552,5.4181366-9.745575c2.8303986-2.4467278,3.927948-8.5019455,9.3916626-13.6851654
						c5.6489868-4.3158379,13.1734467-4.2725868,17.0420685-1.198719
						C152.2314453,48.193409,148.7316132,47.234436,144.3183746,49.5008469z M216.4775391,119.5990448
						c-1.261795,1.7127686-2.6320343,3.3112488-4.3847961,4.538681c-1.0219116,0.5937805-2.0267487,1.2274246-3.1514435,1.6271896
						c4.4760132-5.3666306,7.998642-13.0913925,4.4360199-19.8853302c-1.2160034-2.3179855-3.1799469-4.487381-3.2085266-7.239418
						c-0.0285797-3.6708603,2.928772-6.8167953,3.7052917-10.3334961c1.4558868-6.6057663-4.1563416-8.0902252-7.1365509-12.520462
						c-2.9003296-4.3103638-1.2332153-9.7229919-2.1352539-14.5641365
						c-0.7250824-3.9108849-2.5634308-7.3308525-4.6815491-10.6365242c3.4453735,2.774353,6.3033752,8.4829597,6.3257446,15.1810532
						c0.005722,2.534874-0.1655121,4.8812943,0.8792572,7.2678528c2.3408356,5.3666306,9.7799988,6.907959,9.2946472,13.656456
						c-0.3254547,4.4818115-5.3552704,8.3525543-3.562561,12.8970795c0.7193756,2.8604813,2.8317719,5.6635208,4.1277771,8.3241196
						C218.2587433,112.1254578,218.5613556,115.5908661,216.4775391,119.5990448z"/>
					<path class="st15" d="M165.2280884,48.622345c1.1847687-1.3261566,2.7715149-1.5645676,4.3748016-2.0933685
						c1.4582977,0.1258202,2.9178772,0.2311249,4.3364105,0.6129074
						c7.4551697,2.0075912,18.3163757,11.3812447,17.5827332,19.0704651
						c-0.0370941,0.3719635-0.0880737,0.7419434-0.1529846,1.1099319l-0.2705231,0.0546341
						c-0.7857666-1.2337723-1.418869-2.580452-2.1864166-3.8337631c-1.4271545-2.3311195-3.1241608-4.334095-4.9917145-6.3125572
						C178.4565125,51.9339218,172.8114929,49.0978394,165.2280884,48.622345z"/>
				</g>
				<path class="st0" d="M184.9178009,135.3695221l-4.7099609,10.3798828l-15.7700195,3.9902344l-16.4699707-4.1298828
					l-9.9699707-6.9101563c0.046402-0.5411377-0.2436676,2.8411255,0.9399414-10.9599686l6.1800537-4.6801758l-2.4300537-6.5097656
					c3.2566528-1.4427795-11.7974243,5.2265396,31.8500977-14.1103516
					c0.1412354,2.5537186,0.9033508,17.8987961,2.0998535,20.2001953c1.2700195,2.5,6.7600098,3.2802734,6.7600098,3.2802734
					L184.9178009,135.3695221z"/>
				<path class="st2" d="M175.3378448,114.389534c-0.8199463,1.0200195-1.8199463,1.9101563-2.8499756,2.7402344
					c-8.7900391,7.0898438-20.3800049,10.5996094-31.6300049,9.5795898l-1.9400635,1.2900391l0.0200195-0.2597656
					l6.1800537-4.6801758l-2.4300537-6.5097656l29.0200195-12.8603516c1.0700684,0.2202148,2.0900879,0.5703125,2.9599609,1.1000977
					C174.7979279,107.1297684,175.0279083,110.8992996,175.3378448,114.389534z"/>
				<path class="st15" d="M108.1694641,207.5951233c0,0-16.6815262,10.3071442-36.1871948,0.3426056
					c-3.1953812-1.6353912-5.0132751-2.1278839-7.594162-7.013031c-2.0229073-3.8289948-2.0218391-8.4993744-2.0741806-12.8193207
					c-0.2387428-19.7037964,11.1754456-36.330658,27.4262543-47.4737396
					c4.2258606-2.897644,8.6303711-4.8175964,13.1324158-7.0518494c5.0259705-2.4942627,11.4297562-5.5263977,17.2784958-5.7008286
					C130.9829559,127.5362091,108.1694641,207.5951233,108.1694641,207.5951233z"/>
				<path class="st16" d="M96.3218079,182.463913c-0.4438248,6.3133087-3.6913376,12.5862427-9.137558,15.7931213
					c-5.2340012,3.0819397-14.2421951,3.3134155-19.1857224-0.712616
					c-4.8177032-3.9235687-6.5245667-12.1470032-5.4676247-17.9391327
					c1.1515694-6.31073,5.4857979-11.9564209,11.2847481-14.6993256c4.7347946-2.239563,12.8772125-3.2093964,17.4717789,0.0583954
					C95.521637,167.9758606,96.6592102,177.6624603,96.3218079,182.463913z"/>
				<path class="st3" d="M108.9236526,105.7279129l-81.5184784,42.8266068
					c-2.6539745,1.3943024-0.5722313,5.5101624,2.1565113,4.0039673l80.6177444-44.4989929
					C111.6877441,107.226944,110.4733047,104.9137878,108.9236526,105.7279129z"/>
				<g>
					<path class="st29" d="M121.8275604,101.3311844c0,0,1.7956848,3.9311676,0.9415131,7.1940765
						c-0.8541794,3.2629166-10.3705292,6.2972717-12.2196274,6.0127945
						c-2.7743454-0.4268265-4.828064-2.2199554-4.8991547-7.3505783L121.8275604,101.3311844z"/>
					<path class="st26" d="M106.1994095,103.7115555c0.9556427-2.3059387,2.8277054-3.5272598,5.0313568-4.4886169
						c1.5438919-0.6735153,3.169014-1.2368088,4.8522949-1.2982941c5.0122452-0.1830826,7.5171204,4.3843155,4.956543,7.6614456
						c-0.91819,1.1751328-10.1213074,6.3121796-13.8577347,3.9557877c-0.8113632-0.5116882-1.4578476-1.4018478-1.5315781-2.3544006
						C105.5585938,106.0028152,105.7477341,104.8014297,106.1994095,103.7115555z"/>
					<path class="st25" d="M116.2864838,100.3595276c1.2538223,0.4226761,1.6280899,1.5876617,1.0098877,2.7200241
						c-0.4470215,0.8188324-2.4675827,2.6983185-4.0646973,3.4255066c-3.6585083,1.6657867-6.4524841-1.2099533-4.9934998-2.9565353
						C110.5840988,100.7401886,114.4841537,99.7519455,116.2864838,100.3595276z"/>
				</g>
				<path class="st3" d="M112.6467438,111.1509247l-88.9607162,23.7775421
					c-2.8962669,0.7741241-1.7743244,5.2479706,1.2195663,4.3812103l88.4513245-25.6074982
					c0.8469925-0.2452087,1.222229-1.2342224,0.7510529-1.9795532l0,0
					C113.7983932,111.232933,113.2064362,111.0013275,112.6467438,111.1509247z"/>
				<path class="st15" d="M196.0030212,131.8269958c0,0,2.9499207,2.7909851,7.7316132,5.1333466l-10.7717285,95.2387085
					l-13.4532776,0.8992462l-76.0066528-5.5890808c0,0,6.5160904-83.2299957,11.7697601-90.3766632l4.0821304-9.108017
					c0,0,6.7956772-1.3535843,10.727211-1.699173c3.9315338-0.3455963,15.0346985-3.2672119,15.0346985-3.2672119
					s-5.9010468,16.9500122,19.4029388,16.5773163c16.0017395-0.2356873,18.8740997-13.7193832,18.8740997-13.7193832
					L196.0030212,131.8269958z"/>
				<path class="st0" d="M155.6452942,54.935688c-5.2386322,8.9270935-13.8733673,15.8043709-23.7461853,18.9130592
					c0,0-13.7293167,38.507431,11.4736481,48.0403748c0,0,8.1877441,3.308876,19.812088-3.9364243
					c11.6243286-7.2452927,12.9832458-13.7746429,12.9832458-13.7746429s7.522583-0.4071655,9.0672913-9.9361038
					s-2.6969147-13.157074-6.9489136-11.7360458s-4.7011871,5.6520309-4.7011871,5.6520309
					s-15.0119781-6.9268341-16.7220612-15.9659653S155.6452942,54.935688,155.6452942,54.935688z"/>
				<path class="st20" d="M183.3938141,125.9160843c0,0-3.7035675,30.5720444-9.2901459,53.2517319
					c0,0-36.662323,1.4705353-45.3267059-3.1570892c0,0,5.7213287-46.8018188,16.3398132-52.9525757
					c0,0-9.567749,0.1968613-15.0346985,3.2672119c0,0-13.3719177,15.8966675-14.9300385,60.487442l-2.4819183,42.1330414
					c0,0,41.5907745,11.9389191,66.8395081,3.0283966c0,0,12.157486-66.7375793,14.6744537-82.2331696
					c2.5169525-15.4955902,1.8189392-17.9140778,1.8189392-17.9140778S187.7574615,125.9219971,183.3938141,125.9160843z"/>
				<path class="st8" d="M277.9965515,234.2791138v4.6174622c0,11.0128937-55.0104218,19.9341736-122.8773041,19.9341736
					s-122.8865356-8.9212799-122.8865356-19.9341736v-4.6174622h3.3268585
					c12.8564339-8.7826843,61.5077858-15.3171539,119.5596771-15.3171539
					c58.0610046,0,106.7215729,6.5344696,119.5595551,15.3171539H277.9965515z"/>
				<ellipse class="st13" cx="155.1154175" cy="234.2758789" rx="122.882843" ry="19.9342976"/>
				<g>
					<path class="st7" d="M224.4307251,229.3548279c0,0,3.0395355,9.6711273,9.6517792,12.3709412
						c4.4014893,1.7971497,22.9730377,2.0955048,26.1444855-0.8463593
						c4.3694153-4.0530853,6.3374634-9.6412201,7.0029297-11.5245819H224.4307251z"/>
					<path class="st3" d="M185.2138672,222.3800201c-1.4738312,1.2090454,5.3291626-4.3718109-14.3644714,11.7839355
						c-20.9452515-0.0204926-103.0124817-0.1007843-116.8110199-0.1142883l20.182148-11.6696472H185.2138672z"/>
					<path class="st11" d="M185.2138672,222.3800201v6.8739471l-14.3644714,11.7839355L54.038372,240.9236145v-6.8739471
						c13.798542,0.013504,96.2646637,0.0941925,116.8110199,0.1142883
						C190.5345306,218.0151825,183.7451019,223.5849152,185.2138672,222.3800201z"/>
					<path class="st19" d="M66.4306107,227.5673981c0.410965-1.5417938,1.7466125-2.6598511,3.1345673-3.4470215
						c6.4572067-3.6621552,15.3793564-1.6323242,16.1385574,2.2570038c0.2729645,1.3983459-0.5118561,2.8424072-1.6410522,3.7111816
						s-2.5485077,1.2611694-3.9456711,1.5400848c-3.3278656,0.6643524-6.810936,0.8229065-10.178627,0.3708191
						C67.845787,231.7185516,65.8001785,229.932312,66.4306107,227.5673981z"/>
					<path class="st7" d="M73.2874527,224.3631897c1.1399536-0.4165649,3.6431198-0.664505,4.7990494-0.1544495
						c1.384613,0.6109619,1.6949463,2.1821442,0.3480072,3.1007843c-0.7740936,0.5279388-4.4890747,1.5557556-6.2381821,1.3565979
						C70.4007034,228.4616547,70.4315491,225.4068146,73.2874527,224.3631897z"/>
					<path class="st19" d="M92.0950851,227.6259613c0.9259415-4.0561371,8.5179291-8.2753754,15.6601563-5.2754364
						c1.6134644,0.6777039,3.284462,1.9208832,3.6129761,3.8859253c0.2729568,1.6327515-0.5118637,3.3188934-1.6410599,4.333313
						c-1.1291962,1.0144348-2.5485077,1.4725952-3.9456711,1.7982788c-3.327858,0.7757111-6.810936,0.9608459-10.178627,0.4329834
						C93.5102615,232.4730225,91.4646606,230.3873291,92.0950851,227.6259613z"/>
					<path class="st7" d="M96.9588089,225.7545624c0.8311615-1.7905884,2.6294403-2.2587891,4.561821-2.3651733
						c0.7550507-0.0415649,1.5387878-0.0414429,2.2303467,0.3148651c1.3829727,0.7125397,1.6960297,2.5471039,0.3480072,3.6206055
						c-0.7830048,0.6235352-4.4965897,1.815567-6.2381821,1.5840149
						C96.5211182,228.7307587,96.4081802,226.9407959,96.9588089,225.7545624z"/>
					<path class="st19" d="M119.9843369,225.5040741c1.537529-3.8659515,9.6871567-6.8699493,16.2843094-2.8093262
						c1.4903259,0.9173279,2.9507141,2.4022369,2.9737244,4.3944244c0.0191193,1.655304-1.0151978,3.201004-2.2867126,4.0300903
						s-2.7443237,1.0639801-4.1749268,1.1713562c-3.407486,0.2557526-6.8777084-0.0959015-10.1244736-1.1344147
						C120.6387939,230.51091,118.9375534,228.1359711,119.9843369,225.5040741z"/>
					<path class="st7" d="M125.0776596,224.4013672c1.5787582-2.3646545,5.8363113-1.8509521,7.0263748-0.9835205
						c1.2572327,0.9163666,1.2850037,2.7772369-0.2118225,3.6311188c-0.8694305,0.4959717-4.721962,1.1038818-6.4073792,0.6077728
						C124.1883621,227.275116,124.3514862,225.4890289,125.0776596,224.4013672z"/>
					<path class="st7" d="M175.6908112,230.766861c-0.6914673-0.0461578-1.8177185-0.1752472-4.0192566-0.2397461
						c-0.256958-0.0114288-0.5139008-0.0170135-0.7707977-0.0170135
						c-6.5437927-0.1307068-13.2772522,0.8525543-18.6006775,2.4320068
						c-2.186615,0.6222229-4.3390045,1.7584839-6.5542603,0.5539246c-1.3644562-0.7423706-2.1979828-2.2494202-2.4264221-3.7854462
						c-0.6190796-4.1641541,2.8008881-11.8357849,8.0900726-14.050354c4.352478-1.9277191,9.5880737-0.0911407,13.7364044,2.2036896
						l0.0057068,0.0058441c2.1559296,1.209259,4.2376099,2.6436157,6.5427704,4.1277771
						c4.9804382,3.2884216,6.0503845,3.805191,6.9424591,4.858429
						C180.2863922,228.822525,179.414444,231.1569214,175.6908112,230.766861z"/>
					<path class="st13" d="M148.2774811,233.5044098c0.0920715-0.3435822-0.2131958-1.1058655-0.2727051-1.4747925
						c-0.5989838-3.7133331-0.5741272-7.6261749,0.1582184-11.5031891c0.1244812-0.6589966,0.2410431-2.6005249,0.7751617-3.0248871
						c0.8208618-0.6521606,0.7079926,1.5323639,0.7326965,1.9174347
						C149.9746246,224.1537781,149.5026398,228.932724,148.2774811,233.5044098z"/>
					<path class="st13" d="M156.1880341,231.9602814c-0.2683105,0.0627136-0.5423431,0.1198578-0.8106689,0.1825867
						c-0.0514221-5.6922302-1.4958801-11.3613281-4.1677704-16.3912048c0.0628662-0.028717,0.1313019-0.0627289,0.1998749-0.0914307
						c0.8392487,0.5196228,3.003067,2.1409607,3.9736176,5.515213
						C156.4221344,224.7950134,156.2566223,230.4072418,156.1880341,231.9602814z"/>
					<path class="st13" d="M164.8774872,230.6868439c-0.3082581,0.0228577-0.6165009,0.0515747-0.9248352,0.0800171
						c-1.7927704-4.8927307-6.4686127-13.5594482-7.7303314-15.8660126c0.3881989,0.0228729,0.7707367,0.0630035,1.1532898,0.119873
						c0.8163757,1.3247223,2.1752472,3.5339966,4.2190552,6.8056488
						C163.3645935,224.6522827,164.4150696,228.2319794,164.8774872,230.6868439z"/>
					<path class="st13" d="M171.6715546,230.5271149c-0.256958-0.0114288-0.5139008-0.0170135-0.7707977-0.0170135
						c-1.9240112-4.955719-4.8984985-9.5002441-8.6665802-13.2455444c-0.2911835-0.2910309-0.6052246-0.7080841-0.5480652-1.0732727
						c1.1931305,0.4739227,2.3349915,1.050415,3.4597626,1.6726379c0.178009,0.2407227,5.0778046,4.5881348,6.4571075,12.2121429
						C171.6258392,230.2246399,171.6544189,230.3729553,171.6715546,230.5271149z"/>
					<path class="st13" d="M176.5129852,230.8125763c-0.2740326,0-0.5480652-0.0170135-0.8221741-0.0457153
						c-1.3359375-2.9229279-2.6662292-5.8461304-3.99646-8.7693176c0.9077454,0.59935,1.8212891,1.1931458,2.7290344,1.7869263
						C175.7250366,225.8911438,176.4672699,228.3404236,176.5129852,230.8125763z"/>
					<ellipse class="st3" cx="245.8303223" cy="229.3548279" rx="21.3995991" ry="4.3868136"/>
				</g>
				<path class="st0" d="M94.0618896,113.5946274c1.0313416-1.0936127,2.7949219-1.4136658,4.144783-0.7521973
					c1.3498383,0.6614609,2.1775055,2.2512665,1.9452209,3.7364044c0.0589447-0.3768463,2.6474686,1.8196716,2.8204956,2.07798
					c0.7259674,1.0837784,1.0985794,2.4505997,0.9393921,3.7523346c-0.0622635,0.5091019-0.5278778,1.2521744-0.4528046,1.7266769
					c0.08918,0.5636444,0.9673386,1.3275146,1.2407074,1.8747864c1.6395721,3.282341-0.0475922,5.2051163-1.0466156,8.2703934
					c-2.889389,6.7688446-5.3052826,10.0387115-11.7363892,13.833725l-0.0254898,17.3777618
					c-0.0010071,8.5032349,0.7673416,18.2751617-4.154953,23.1204376
					c-4.7993851,4.7240448-14.4461441,5.0262299-19.9499283-0.7824402
					c-2.9844284-3.1493378-3.8787918-7.2572784-3.7466812-11.4903717c0.1188812-3.8072662,1.3764954-7.3128815,2.5453644-10.8936615
					c1.9744873-6.0480042,4.5820923-12.399292,5.8741455-18.6095428c2.6951218-9.4815674,1.5639648-10.7698517,2.861702-15.7013855
					c0.6383057-2.4256439,1.9819794-4.7878799,3.1884842-6.9912262c2.6312103-4.8051529,5.8808517-9.2719498,9.6495361-13.2484436
					c1.1041565-1.1650314,2.458374-2.3715134,4.0608978-2.2801208c1.117424,0.0637207,2.162735,0.836647,2.5511093,1.8863449
					C95.1590042,111.5511322,94.8692398,112.8184586,94.0618896,113.5946274z"/>
				<path class="st3" d="M151.2855377,77.3702316c-0.4220581-0.834198,0.1729126-1.9034882,1.0236816-2.2910538
					s1.8424072-0.2630844,2.7515106-0.0450439c2.3048859,0.552803,4.4732971,1.6658783,6.2660217,3.216423
					c0.6035919,0.5220566,1.2374115,1.1800232,1.2270355,2.0338287c-0.0077209,0.6345825-0.3401947,1.2023392-1.011261,1.253746
					c-0.803894,0.0615768-1.7619781-0.5125809-2.497406-0.7845383
					C152.4087677,78.2995377,151.7088776,78.2069778,151.2855377,77.3702316z"/>
				<path class="st3" d="M142.9581299,75.1807632c0.8664398-0.7403183,0.8980103-3.0480347-2.5843353-3.6098022
					c-2.3399811-0.3774796-4.7698059-0.1853561-7.0213928,0.5551834c-0.7581024,0.2493362-1.5964203,0.6124573-1.9156494,1.4044037
					c-0.2372742,0.5886078-0.1490936,1.2406158,0.4504089,1.5464859c0.7181702,0.3664246,1.8234711,0.2055283,2.6069183,0.2377777
					C141.5636444,75.6058121,142.2451935,75.7899323,142.9581299,75.1807632z"/>
				<ellipse class="st3" cx="155.4411621" cy="85.2954102" rx="2.1163909" ry="3.2470655"/>
				<ellipse class="st3" cx="136.6146698" cy="82.0483475" rx="2.1163909" ry="3.2470655"/>
				<path class="st19" d="M148.0149689,99.6436462l-10.8503113-0.4094467c0,0-0.5529175,9.4740448,5.3253479,9.5405807
					C148.0166168,108.8373337,148.0149689,99.6436462,148.0149689,99.6436462z"/>
				<path class="st2" d="M177.978653,87.1878738c0.3407593-0.6210861,0.7703094-1.3543167,1.4681702-1.6289444
					c1.9998627-0.7870026,5.0370331,3.5532761,1.2920227,9.5350723c-1.0321045,1.6483383-2.3569489,2.6244965-4.1009674,3.427803
					c0.826889-0.9705582,4.2549438-3.2969666,2.7291718-4.8326492c-0.3412781-0.3434982-0.8144073-0.5188599-1.2037506-0.8067398
					c-0.9690704-0.716507-1.2965851-2.0637894-1.1083374-3.2541962
					C177.1920013,88.7615585,177.5582581,87.9541092,177.978653,87.1878738z"/>
				<path class="st0" d="M180.084549,86.418869c1.7245483-0.0093613,1.6793365,3.2221451,1.3648987,4.9125595
					c-0.1576233,0.847023-0.4129181,1.5566254-1.0503235,2.1496658c-0.4033203,0.0132446-0.4735107-0.0874176-0.8152466-0.2798004
					c-0.5023041-0.2917175-1.1258087-0.6221848-1.4546356-1.114563
					C177.1691589,90.6493301,178.2145538,87.3023148,180.084549,86.418869z"/>
				<g>
					<g>
						<path class="st29" d="M140.8748779,168.154953c0,0-4.1837006,3.2488403-5.1100464,7.2776031
							c-0.9263306,4.0287628,7.6840363,12.7310486,9.8537445,13.4727478
							c3.2553711,1.1128387,6.5044861,0.3324585,9.4968414-5.1988525L140.8748779,168.154953z"/>
						<path class="st26" d="M156.4940796,179.6197052c0.2723999-3.0471649-1.0666656-5.4371643-2.9135437-7.7332611
							c-1.2939148-1.6086426-2.7386932-3.1437225-4.5317535-4.1669159
							c-2.9790344-1.6999664-7.2055969-1.6412811-9.1084442,1.6301117c-0.6743164,1.159317-0.8677063,2.5619507-0.6273499,3.8737335
							c0.3294373,1.7978516,7.4049225,12.6056366,12.8014374,12.1696625
							c1.1718597-0.0946808,2.3796844-0.694046,3.0009918-1.6865845
							C155.8881073,182.4720459,156.3653259,181.059906,156.4940796,179.6197052z"/>
						<path class="st25" d="M147.444397,170.2481384c-1.6017609-0.2533875-2.6701355,0.7991028-2.6421967,2.3800659
							c0.0202179,1.143219,1.1465759,4.3323364,2.467804,6.0295105c1.9450226,2.4984283,4.5380402,2.8244324,6.2596436,1.7540283
							c2.1568146-1.3409882-0.2707062-5.5669403-1.7568359-7.2665558
							C150.7532349,171.979126,148.9273529,170.4827423,147.444397,170.2481384z"/>
					</g>
					<path class="st15" d="M194.5,221.0250702c-0.8449554-0.490921-1.5073242-0.9706879-1.9582977-1.4273071
						c-6.3829651-6.4513397,3.8594513-31.109787,3.8594513-31.109787l7.3306427-51.5258789
						c0,0,33.0507965,22.6484985,38.8742523,61.8083649C248.0184021,235.178299,205.6273041,227.4708252,194.5,221.0250702z"/>
					<path class="st16" d="M195.7714539,191.8305817c2.0102234-11.0559692,4.0204468-22.1119385,6.0306549-33.1679077
						c-6.3638,15.5339966-9.7284851,31.6714478-9.1338959,48.4479065"/>
					<path class="st23" d="M200.4832764,216.7258606c0,0-2.4150085,3.4483948-5.9832764,4.2992096
						c-0.8449554-0.490921-1.5073242-0.9706879-1.9582977-1.4273071c-4.7272491-4.7778931-0.6386261-18.777298,1.8005829-25.7185669
						c0.8486481-2.414978,3.4078064-3.7730103,5.8834229-3.1220703c1.6344757,0.4297638,3.1780701,1.0011444,3.511795,1.6760254
						C204.502594,193.974762,200.4832764,216.7258606,200.4832764,216.7258606z"/>
					<path class="st0" d="M206.151886,208.7037811c-0.8450317,2.8088989-2.9859924,6.5940552-5.6692963,8.0213776
						c-1.5643311,0.8335266-3.1629486,0.4111786-4.750061-0.1143036
						c-7.1461487-2.362854-13.5136871-7.4634857-22.9511871-11.5269165
						c-2.1395569-0.9007416-12.1743774-2.2367401-13.867691-2.420578
						c-8.9267273-0.9681702-13.4300995-0.1734619-20.5818329-10.7789764
						c-2.5349426-3.7567291-5.3781281-9.4202423-4.3675842-14.1247864c0.2626038-1.2447205,0.9192505-2.2781219,2.003952-2.9574738
						c0.6668549,3.8592072,4.7364655,8.6861267,7.5578918,11.4020233c2.0726776,1.995163,4.6511536,3.5757141,7.4808807,4.2749481
						c3.1398773,0.7758789,6.7362671,0.2411957,9.9087219-0.4978485c4.2594147-0.9922791,6.2026978-2.2481842,3.3380432-4.7072144
						c-2.7117462-2.3277893-5.6553345-3.6838989-7.3086243-6.6597137c-0.3651428-0.6572113-0.6697235-1.3737946-0.6830292-2.1255188
						c-0.0559845-3.166153,3.783493-2.2389984,5.5599823-1.5606689c3.8797455,1.4813995,11.2401581,5.7905579,12.8662262,7.1189728
						c2.7860413,2.2781219,4.7158356,5.5037842,8.375412,6.514328c2.0325165,0.4967651,16.1857452,3.7511444,20.6731262,3.8710175
						C206.4031372,197.4450378,207.8417969,203.1029816,206.151886,208.7037811z"/>
				</g>
				<path class="st16" d="M105.6277542,208.885025c0,0,5.1106415-38.0600586,8.213829-49.0863037
					c3.1031799-11.0262604-0.2787628-1.7032776-0.2787628-1.7032776S104.8432922,180.6229706,105.6277542,208.885025z"/>
				<g>
					<path class="st3" d="M88.083252,123.7083664l5.800293-10.7270508c0.2354889-0.4370041,0.8954773-0.0802536,0.6601563,0.3564453
						L88.7434082,124.0653C88.5082016,124.5001755,87.8475494,124.1463394,88.083252,123.7083664z"/>
				</g>
				<g>
					<path class="st3" d="M94.0964355,126.8387375l5.6425781-10.5126953
						c0.233078-0.4380493,0.8954926-0.0831757,0.6611328,0.3544922l-5.6425781,10.5126953
						C94.5243759,127.6268997,93.8625412,127.275528,94.0964355,126.8387375z"/>
				</g>
				<g>
					<path class="st3" d="M97.0212402,134.3604584l6.0361328-10.3730392
						c0.2514725-0.4280853,0.8973541-0.051445,0.6484375,0.3774414l-6.0361328,10.3730392
						C97.4208069,135.1642914,96.7704239,134.7926178,97.0212402,134.3604584z"/>
				</g>
				<g>
					<path class="st3" d="M144.6252441,193.4356537c-5.6347656-3.0837402-9.7675781-8.939209-10.7851563-15.2814941
						c-0.0796051-0.4898834,0.6634369-0.6073456,0.7402344-0.1186523c0.9819336,6.1184082,4.96875,11.767334,10.4052734,14.7424316
						C145.4215851,193.016449,145.0590363,193.6748047,144.6252441,193.4356537z"/>
				</g>
				<g>
					<path class="st3" d="M145.427002,197.4063568c-3.5986328-2.4187012-6.6811523-5.4482422-9.1621094-9.0046387
						c-0.2843933-0.4072723,0.3323669-0.8352966,0.6152344-0.4291992c2.4277344,3.4799805,5.4438477,6.4445801,8.9648438,8.8112793
						C146.2571106,197.0606995,145.8375244,197.6837006,145.427002,197.4063568z"/>
				</g>
			</g>
			<path class="st2" d="M140.7056885,92.320137c-0.6942291,1.956871-0.0774384,2.8279419,1.9396667,2.5857468
				c0.8386993-0.100708,1.6773987-0.2014084,2.5160828-0.3021164c1.144455-0.1374207,1.850174-0.4664841,1.8297882-2.5062103
				c-0.016098-1.611496,0.2419739-9.1617355-2.1164093-9.0264359c-1.4664917,0.0841293-1.7441101,2.4133606-2.1182556,3.4680099
				C142.072937,88.4661331,141.3893127,90.3931351,140.7056885,92.320137z"/>
		</g>
	</g>
</g>
</svg>
