<?xml version="1.0" encoding="utf-8"?>
<!-- Generator: Adobe Illustrator 22.0.1, SVG Export Plug-In . SVG Version: 6.00 Build 0)  -->
<svg version="1.1" id="Layer_1" xmlns="http://www.w3.org/2000/svg" xmlns:xlink="http://www.w3.org/1999/xlink" x="0px" y="0px"
	 viewBox="0 0 300 300" style="enable-background:new 0 0 300 300;" xml:space="preserve">
<style type="text/css">
	.st0{fill:#EDC1A4;}
	.st1{fill:#E2E0E0;}
	.st2{fill:#D39E81;}
	.st3{fill:#502E26;}
	.st4{fill:#CCCACA;}
	.st5{fill:#426800;}
	.st6{fill:#538705;}
	.st7{fill:#D47E44;}
	.st8{fill:#73341D;}
	.st9{fill:#BC672E;}
	.st10{fill:#96311D;}
	.st11{fill:#B83E21;}
	.st12{fill:#DE8D82;}
	.st13{fill:#EFBAB4;}
	.st14{fill:#FDD5D0;}
	.st15{fill:#6883CE;}
	.st16{fill:#3D4885;}
	.st17{fill:#3859AE;}
	.st18{fill:#864424;}
	.st19{fill:#FEFEFE;}
	.st20{fill:#FFFFFF;}
	.st21{fill:#A55925;}
	.st22{fill:#F4F2F2;}
	.st23{fill:#3C3E68;}
	.st24{fill:#E8997C;}
	.st25{fill:#F5C46B;}
	.st26{fill:#F7EBDA;}
	.st27{fill:#0E0C0D;}
	.st28{fill:#657C3A;}
	.st29{fill:#576C37;}
	.st30{fill:#7C995D;}
	.st31{fill:#36518C;}
	.st32{fill:#96B7E3;}
	.st33{fill:#A3B3DF;}
	.st34{fill:url(#SVGID_1_);}
	.st35{fill:url(#SVGID_2_);}
	.st36{fill:url(#SVGID_3_);}
	.st37{fill:url(#SVGID_4_);}
	.st38{fill:url(#SVGID_5_);}
	.st39{fill:#266AB7;}
	.st40{fill:#060E0D;}
	.st41{fill:#E0D4C6;}
	.st42{fill:#787E42;}
	.st43{fill:#D3D1D1;}
	.st44{fill:url(#SVGID_6_);}
	.st45{fill:url(#SVGID_7_);}
	.st46{fill:url(#SVGID_8_);}
	.st47{fill:#020508;}
	.st48{fill:#BAB6B6;}
	.st49{fill:#0F0B07;}
	.st50{fill:#2F3A68;}
	.st51{fill:#203257;}
	.st52{opacity:0.5;fill:#FFFFFF;}
	.st53{opacity:0.2;fill:#0E0C0D;}
	.st54{fill:#DD9F9B;}
	.st55{fill:#3E4D9B;}
	.st56{fill:url(#SVGID_9_);}
	.st57{fill:#5F6194;}
	.st58{fill:url(#SVGID_10_);}
	.st59{fill:url(#SVGID_11_);}
	.st60{fill:url(#SVGID_12_);}
	.st61{fill:url(#SVGID_13_);}
	.st62{fill:#070102;}
	.st63{fill:#100805;}
	.st64{fill:#FDA465;}
	.st65{fill:#2A50A1;}
	.st66{fill:#B76C39;}
	.st67{fill:#130602;}
	.st68{fill:url(#SVGID_14_);}
	.st69{fill:url(#SVGID_15_);}
	.st70{fill:url(#SVGID_16_);}
	.st71{fill:url(#SVGID_17_);}
	.st72{fill:url(#SVGID_18_);}
	.st73{fill:url(#SVGID_19_);}
	.st74{fill:#B4BDED;}
	.st75{fill:#100D08;}
	.st76{fill:#F6C85F;}
	.st77{fill:#FECF00;}
	.st78{fill:#2D59E2;}
	.st79{fill:#121F3A;}
	.st80{fill:#BBD0F5;}
	.st81{fill:#020202;}
	.st82{fill:#E2CFB7;}
	.st83{fill:#080805;}
	.st84{fill:#A87D7C;}
	.st85{fill:#182052;}
	.st86{fill:#EAEAEA;}
	.st87{fill:#DDDDDD;}
	.st88{fill:#3D4574;}
	.st89{fill:#ABC5F0;}
	.st90{fill:url(#SVGID_20_);}
	.st91{fill:#4159A8;}
	.st92{fill:#E0D0BD;}
	.st93{fill:#3D53AA;}
	.st94{fill:#0A0000;}
	.st95{fill:#BF6D36;}
	.st96{fill:#385DAE;}
	.st97{fill:#E0DCDC;}
	.st98{fill:#857E78;}
	.st99{fill:#0E213C;}
	.st100{fill:url(#SVGID_21_);}
	.st101{fill:#55608E;}
	.st102{opacity:0.3;fill:#F4F2F2;}
	.st103{opacity:0.3;}
	.st104{fill:#213987;}
	.st105{enable-background:new    ;}
</style>
<g id="Fast_Delivery_1_">
	<g id="Fast_Delivery">
		<g>
			<path class="st11" d="M135.3251038,46.4923515l-7.4834747,10.8150978
				c-4.0444336,0.7211151-8.4202881-0.8368492-11.1137466-3.9446793c-2.6851578-3.116333-3.5966644-7.6659889-2.3039627-11.569397
				c-2.6934509,0.2897415-5.3869095-1.5498695-6.8704147-3.8208542c-1.4832993-2.2705765-1.4420242-5.4779587,0.2237778-7.6243057
				c1.6658096-2.1382542,4.8897858-2.9504185,7.3096848-1.7157841c2.5111542,1.2763157,3.6962128,4.2433262,4.0527267,7.0444241
				c5.9520645-4.8899441,14.4946747-3.9307899,17.5612793,1.5830498
				C138.3418884,40.2018242,137.8860321,44.295826,135.3251038,46.4923515z"/>
			<path class="st7" d="M139.4605865,68.1889114c-0.3894806,0.6215668-8.9340057,2.7100449-8.9340057,2.7100449
				s-5.179718-2.4777679-5.4115906-2.7100449c-0.2403717-0.2403717,1.0027618-3.6630325,1.0027618-3.6630325
				s2.3203583-1.5911446,1.367363-4.1935501c-0.9307632-2.5047646-1.5638428-5.5838203-1.5911484-5.6851501l8.2460785,3.1907883
				c0.0265656,0.1000252,0.5279388,2.9659767,1.0110626,3.5800781l3.513916,1.2350388
				C138.6650238,62.6530838,139.8500824,67.5592499,139.4605865,68.1889114z"/>
			<path class="st9" d="M134.8694611,60.8296623c-1.9460449,0.2731247-5.2177887-0.3488808-7.9727325-2.2624855
				c-0.613266-2.0472069-1.0027618-3.9199982-1.0027618-3.9199982l8.2460785,3.1907883
				C134.1400452,57.8379669,134.4797668,59.7605324,134.8694611,60.8296623z"/>
			<path class="st7" d="M171.0884552,72.8468018c0,0,15.5199432,8.5224304,28.8614807,5.9860764
				c13.3415222-2.5363617,33.6281128-7.936554,33.6281128-7.936554S227.320343,86.483902,219.1875,91.8356552
				c-8.132843,5.3517609-36.2684021,11.4689941-55.9970093,8.740097S171.0884552,72.8468018,171.0884552,72.8468018z"/>
			<path class="st3" d="M37.439209,179.0509186c2.3156891-2.9032288,4.6555748-5.3140411,8.5678101-5.7703857
				c3.9696465-0.4628754,7.7039452,1.1127625,10.7354965,3.5821838c1.6880226,1.3745575,4.9838829,4.4902954,6.9422913,6.8152771
				c1.1612625,1.3786316,0.8376083,3.372879,0.5099564,5.0503387c-1.4658165,7.5043793-4.4373207,14.86586-8.8253479,21.4644165
				c-1.4094505,2.1194763-1.0797653,1.7359924-3.5788956,3.5234528c-1.1217766,1.0643616-2.2718277,2.1098633-3.3669395,3.2012939
				c-6.6954002,6.672821-11.0802116,13.4707947-17.8625698,13.5267944
				c-2.4368382,0.0201263-5.7148685-1.2365875-7.2857399-3.7302094c-2.0664158-3.2783661-1.1057796-7.6731873-0.3882751-11.2045441
				c1.8023739-9.3742676,5.0356464-17.828537,9.1414127-26.4143829
				C33.682766,185.6363831,35.3293343,182.2612457,37.439209,179.0509186z"/>
			<path class="st7" d="M48.1001892,207.7667084c1.2749405,1.9590454,2.5142174,3.9449463,3.6903305,5.9494934
				c-1.1217766,1.0643616-2.2718277,2.1098633-3.3669395,3.2012939c-1.6164398-2.0020294-3.098835-4.1004791-4.5636635-6.2130127
				C41.9774704,207.9896851,46.201889,204.849823,48.1001892,207.7667084z"/>
			<path class="st7" d="M37.439209,179.0509186c2.3156891-2.9032288,4.6555748-5.3140411,8.5678101-5.7703857
				c3.9696465-0.4628754,7.7039452,1.1127625,10.7354965,3.5821838c1.0840492,0.8827515,2.1012611,1.8401184,3.1106873,2.806076
				c-11.3747787-0.4619598-23.2569466,8.1395416-25.4025002,12.1553345
				c-1.2685509,2.3739014-2.0516586,5.2586823-2.9446392,7.8052063c-2.4907627,7.1045227-5.9581509,15.2598724-6.2566319,22.8449097
				c-0.1070118,2.7174988,0.3017578,4.7802124,1.65518,7.1750336c-1.4792881-0.5908051-2.7757168-1.5801392-3.6293411-2.9351959
				c-2.0664158-3.2783661-1.1057796-7.6731873-0.3882751-11.2045441c1.8023739-9.3742676,5.0356464-17.828537,9.1414127-26.4143829
				C33.682766,185.6363831,35.3293343,182.2612457,37.439209,179.0509186z"/>
			<path class="st26" d="M64.4103851,184.468277c1.1725998-0.4309235,7.9982758-2.5593262,9.8895416-1.7910004
				c-3.9089584,5.9302979-2.06987,12.8759613-0.6766815,19.7836914c0.4596176,2.2771606,1.09758,4.6875458,2.0541153,6.8092957
				c-4.1451263,0.4936676-17.8118439,0.2655334-21.3513908,2.6324768
				c-1.2244453-2.7605743-2.7144699-4.6582947-5.5909462-12.4132843c-0.3110199-0.8385162-0.3027534-1.7723846,0.0503006-2.5940857
				c0.0018692-0.004364,0.0037422-0.0087128,0.0056152-0.0130615
				C53.3846092,186.2070923,54.8962784,188.3210602,64.4103851,184.468277z"/>
			<g>
				<path class="st3" d="M269.7077026,264.2398987c-9.663208,4.8895874-20.7271881,6.4726257-31.4014587,7.2928772
					c-3.6466522,0.2816467-7.2930908,0.5718079-10.9480286,0.3148499c-3.0414734-0.2237854-7.3592529-0.6960449-9.4228516-3.2239685
					c-2.5360413-3.1078491-1.7734375-8.3454285-1.3011932-12.0169678
					c0.3259583-1.2474976,0.4064178-10.1248016,7.1668549-16.2992249c2.9283447-2.6745148,6.8493042-4.3635712,10.8113861-4.1895752
					c5.5977936,0.2458496,10.3118744,3.7785339,15.0809326,6.2757263c1.331131,0.6970215,3.163208,1.7874451,4.6243134,2.0803833
					c6.0333557,1.1767731,17.4868164-2.7266388,22.1113281,4.1020966c0.6630554,0.9780731,1.0523376,2.0803833,1.408844,3.1907959
					C278.6725159,257.9328918,275.5488892,260.8337097,269.7077026,264.2398987z"/>
				<path class="st7" d="M249.6916199,242.3919525c1.4075317,0.7367706,2.8392639,1.6047516,4.3739166,2.0332184
					c0.1023254,6.5198822-6.2598267,4.6793823-6.1110992,0.8892975
					C248.0052795,244.0295105,248.8367462,243.2414856,249.6916199,242.3919525z"/>
				<path class="st7" d="M277.8411255,251.7699432c0.8266296,6.1274261-2.2594604,9.0547333-8.1360779,12.4698029
					c-9.6567688,4.8855896-20.7239532,6.4759827-31.4028778,7.2963867c-3.644104,0.2800598-7.289032,0.5707397-10.9441833,0.3095703
					c-3.0450897-0.2177124-7.3554535-0.6965942-9.4185638-3.2185059c-2.9063873-3.5519409-1.576355-10.0163269-0.8958588-14.8757019
					c0.5778809,1.263504,9.1168365,5.27771,15.7420502,10.6319275c2.0079803,1.6227722,4.5333862,2.4517517,7.1088867,2.2722473
					C250.3071289,265.9299011,274.559967,261.6002808,277.8411255,251.7699432z"/>
				<path class="st26" d="M245.6489105,240.1298218c-1.7734528,4.9393463-5.2129059,8.8691559-9.9946442,11.1150513
					c-6.1412048,2.8925476-11.7645569,0.8446045-17.7481537-1.3515167c0,0-2.2415314-2.0545654-3.6007996-4.2425842
					c-1.5247803-2.4284058-3.0165863-5.1218567-3.5800781-5.7349243
					c8.4781494-5.9837952,19.4840546-9.4975128,25.2272644-18.2492065
					c2.1667633,2.1073303,6.058197,11.3436127,7.5913391,14.5529938
					C244.1736908,237.5040436,245.0937042,238.8535004,245.6489105,240.1298218z"/>
			</g>
			<path class="st15" d="M237.7178955,223.5142059c0,0-10.8070068,17.2715302-28.219162,25.0119781
				c0,0-29.9262543-25.0447693-51.2335205-50.5289917c-19.2841644-23.0644073-18.8398438-31.0684662-19.3764191-32.072998
				c-5.792984-26.7686462,20.6442261-50.8110504,20.6442261-50.8110504s12.3153992,6.190979,37.9736328,44.8191681
				C223.156601,198.5604858,237.7178955,223.5142059,237.7178955,223.5142059z"/>
			<path class="st3" d="M158.265213,197.9971924c-19.2841644-23.0644073-18.8398438-31.0684662-19.3764191-32.072998
				c4.4173431-16.7325287,12.0003662-32.6528931,22.2355804-46.3937149
				C164.6382904,145.5950012,163.6602173,172.2474976,158.265213,197.9971924z"/>
			<path class="st26" d="M145.8379059,60.7935677c0,0,13.9767151,0.31073,25.2505493,12.0532341
				c0,0-2.1896362,22.1837845-9.3644562,23.9383621c-7.1748352,1.7545776-9.6315155-23.604332-9.6315155-23.604332
				L145.8379059,60.7935677z"/>
			<path class="st26" d="M123.0247116,66.0793304c0,0,2.1315155-1.5074081,3.0904312-1.5559158
				c0,0,2.274231,3.9833832,7.1706848,2.5252762c4.8964691-1.458107,3.3427582-3.7449074,3.3427582-3.7449074l-1.4756012-1.8848572
				c0,0,2.1787415-1.1555023,6.4318237-0.8904305c4.2530975,0.2650719,4.2131805,1.6611557,4.2131805,1.6611557
				l7.6156921,11.5304794l-1.9403076,6.9563141l-21.5205688,34.0314941l-11.2215118-0.8371506l-3.8581696-9.0598984
				l5.7872543-13.0351028L123.0247116,66.0793304z"/>
			<path class="st15" d="M106.0358582,185.1718445c0,0-31.4662933-5.4468079-37.2855682-1.9989777
				c-5.8192787,3.4478149-5.5294533,20.3859711-0.5613327,27.3260345s40.9351425,19.080307,57.6922379,10.488678
				c16.7570801-8.5916138,26.1064148-26.6100464,31.5382538-50.9846191s5.9340363-53.0476074,3.6997986-56.1321716
				c-2.2342224-3.0845718-41.6252365-2.7058105-41.6252365-2.7058105S95.0396423,145.3614502,106.0358582,185.1718445z"/>
			<path class="st26" d="M121.5675583,67.2830811c0,0-13.2629166-0.5385361-31.0226212,26.9225082
				c0,0-15.5139236,24.3971405-1.5258102,36.8585434l32.5484314-22.5463104c0,0,9.7617416-21.3280487,9.5937271-25.0886612
				C130.9932556,79.6685486,130.243927,73.2218018,121.5675583,67.2830811z"/>
			<path class="st15" d="M121.5675583,67.2830811c0,0-0.2277679-0.8291931,1.4571533-1.2037506
				c0,0,8.0418625,4.4525299,14.1241531,14.0208282c0,0,11.6627808-2.7875595,13.8802185-6.1676636
				c0,0-5.7856903-11.9948387-9.4442749-13.4039993c0,0,1.6920929-0.5759697,4.2530975,0.2650719
				c0,0,5.5292358,5.4699364,8.2067566,12.2561989c0,0,3.080246,2.2160187,6.0472412,5.2236099
				c1.1075287,1.122673,1.8704987,2.5361176,2.2160187,4.0748215c1.348465,6.0052719,4.7693176,23.0034409,4.0975647,38.2502441
				c0,0-40.7565155,7.6385727-48.0408325,3.0447693c0,0,10.1575623-10.4885101,13.5572968-33.2850571l1.3638763-8.6335678
				C133.2858276,81.7245865,130.3117218,72.2982712,121.5675583,67.2830811z"/>
			<path class="st11" d="M163.1829529,129.0830688h-14.7176666c-3.4079285,0-6.3132172-2.4707947-6.8605042-5.8344803
				l-4.6523132-28.593689h37.5479889l-4.4497223,28.5479279
				C169.5231781,126.5874252,166.6084137,129.0830688,163.1829529,129.0830688z"/>
			<path class="st19" d="M177.088974,94.9592133c0,1.5599899-42.0037079,1.5599899-42.0037079,0l0.0000305-1.8899536
				c0-0.600563,0.4868622-1.08741,1.0874176-1.08741h39.8287811c0.6005554,0,1.0874176,0.4868393,1.0874329,1.0873947
				L177.088974,94.9592133z"/>
			<path class="st7" d="M168.7405853,111.0276413c0.7950287-0.6222916,2.7057495,0.8251495,0.5469055,2.7513199
				c-0.5469055,0.4888382-1.1767578,0.9117126-1.5247803,1.5498734c0.6794434-0.3731079,1.4916077,0.5054245,1.3590698,1.2678146
				c-0.1242371,0.7623901-0.7872772,1.3010025-1.4171295,1.748558c-7.699173,5.6026001-13.773819,7.1192856-22.7161255,7.5085754
				c0,0-32.9513245,14.2130814-46.3856201,12.1994553c-13.5141525-2.0311279-13.0439453-17.753685-0.6215668-24.7550201
				c10.1891937-5.7390671,17.5488586-6.3498154,27.6722565-4.1025009c0.5800934,0.1327286,1.1601791,0.2322769,1.7321777,0.33992
				c3.4356232,0.6381836,4.2275238,1.3027649,7.4505005,2.162941c9.6325073,2.6028442,11.3352509-3.7701187,15.1579742-8.080368
				c2.1848145-2.4522552,4.4464417-1.1050415,3.4641418,2.6602707c-0.4641571,1.8731995-1.2763214,3.6549454-2.3786316,5.237999
				c11.6056061-4.1631699,14.7622528-9.7022781,16.8154907-10.6742783c1.9007568-0.8906403,3.5497284,0.4784775,2.9504089,2.5024567
				c-0.2154846,0.7130203-0.6630402,1.3345871-1.1271973,1.922966c0.3731079-0.314827,1.0857239-0.1740036,1.3758698,0.2735596
				c0.3480072,0.5220184,0.2484589,1.2180405,0.0744476,1.8230133
				C170.7378235,108.7813416,169.8843689,110.0742493,168.7405853,111.0276413z"/>
			
				<linearGradient id="SVGID_1_" gradientUnits="userSpaceOnUse" x1="88.5671463" y1="121.5472107" x2="127.3857727" y2="121.5472107">
				<stop  offset="0" style="stop-color:#401800"/>
				<stop  offset="1" style="stop-color:#764027"/>
			</linearGradient>
			<path class="st34" d="M127.3857727,109.5356369c-7.9433517,0.2015991-16.4093933,0.48069-23.8103333,4.0693207
				c-10.1898956,4.9324036-13.8756714,14.0555496-11.7019196,21.5059586
				c-6.016777-5.3703156-3.7294006-16.2683716,6.1078186-21.8126984
				c10.1891937-5.7390671,17.5488586-6.3498154,27.6722565-4.1025009
				C126.2336884,109.3284454,126.8137741,109.4279938,127.3857727,109.5356369z"/>
			<path class="st11" d="M240.8000793,78.6644287c0,0-14.9891968,8.4268799-25.6121979,7.9368134
				c-10.631546-0.4900665-17.9819489-0.743866-19.1631165-3.8154449c-1.2468109-3.2556229-2.162796-11.6091232,0.647522-13.6766434
				c2.7562561-2.0388947,24.8247528-6.842598,39.3238831-3.7449493c1.3738556,0.2973709,2.5202026,1.2510223,3.0801239,2.5375061
				c0.1040039,0.172493,0.4631958,1.1881561,0.5426178,1.4262009
				C240.4151154,71.6641769,241.1677399,75.0070724,240.8000793,78.6644287z"/>
			<path class="st3" d="M239.6189117,69.3279114c-5.1540527,2.7041321-13.2393341,6.4230194-18.9007721,6.5802536
				c-7.4552917,0.2102127-21.4470367-1.7851028-25.8134308-2.4324036c0.0525513-0.5601349,0.1311646-1.0852432,0.2450256-1.5838547
				c5.3550873,0.8575134,18.1919403,2.7472916,25.6209564,2.4148788c6.2301178-0.288826,13.7992706-3.9111481,18.305603-6.4050751
				C239.1802979,68.0742035,239.5394897,69.0898666,239.6189117,69.3279114z"/>
			<path class="st13" d="M240.8000793,63.1832161c0,0-14.9891968,8.4268837-25.6121979,7.9368095
				c-10.631546-0.4900665-17.9819489-0.7438583-19.1631165-3.8154449
				c-1.2354889-3.2260666-2.1764679-11.5990677,0.647522-13.6766472c2.7562561-2.0388908,24.8247528-6.8425941,39.3238831-3.7449455
				c1.3738556,0.2973747,2.5202026,1.2510223,3.0801239,2.5375061c0.1040039,0.1724968,0.4631958,1.1881599,0.5426178,1.4262009
				C240.4151154,56.1829605,241.1677399,59.525856,240.8000793,63.1832161z"/>
			<path class="st12" d="M239.6189117,53.8466949c-5.1540527,2.7041359-13.2393341,6.4230232-18.9007721,6.5802536
				c-7.4552917,0.2102127-21.4470367-1.785099-25.8134308-2.4323997c0.0525513-0.5601387,0.1311646-1.0852432,0.2450256-1.5838585
				c5.3550873,0.8575134,18.1919403,2.7472916,25.6209564,2.4148827c6.2301178-0.2888298,13.7992706-3.9111519,18.305603-6.4050789
				C239.1802979,52.5929909,239.5394897,53.608654,239.6189117,53.8466949z"/>
			<path class="st25" d="M240.8000793,48.4740524c0,0-14.9891968,8.4268799-25.6121979,7.9368134
				c-10.631546-0.4900703-17.9819489-0.743866-19.1631165-3.8154488c-1.2449188-3.2506714-2.1643524-11.607975,0.647522-13.6766434
				c2.7562561-2.0388947,24.8247528-6.842598,39.3238831-3.7449493c1.3738556,0.2973747,2.5202026,1.2510223,3.0801239,2.5375061
				c0.1040039,0.1724968,0.4631958,1.1881599,0.5426178,1.4262009
				C240.4151154,41.4737968,241.1677399,44.8166924,240.8000793,48.4740524z"/>
			<path class="st26" d="M239.6189117,39.1375313c-5.1540527,2.7041397-13.2393341,6.4230232-18.9007721,6.5802574
				c-7.4552917,0.2102127-21.4470367-1.785099-25.8134308-2.4324036c0.0525513-0.5601387,0.1311646-1.0852432,0.2450256-1.5838585
				c5.3550873,0.8575134,18.1919403,2.7472916,25.6209564,2.4148827c6.2301178-0.288826,13.7992706-3.9111519,18.305603-6.4050789
				C239.1802979,37.8838272,239.5394897,38.8994904,239.6189117,39.1375313z"/>
			<path class="st26" d="M199.9537659,45.7292137c21.2740326,1.2513809,21.4055786,1.0730553,22.4182281,1.6978989
				c0.82724,0.5104294,0.7576447,1.3140907,0.8166199,2.2107468c0.2462463,3.7434921-0.5827637,5.3091278-4.6890869,5.6545143
				c-4.5293732,0.3809662-9.1031036,0.2269096-13.597168-0.453373c-1.9715271-0.298439-4.4498444-0.47295-6.1963806-1.5045891
				c-1.3771362-0.8134384-1.928894-3.5743446-1.880249-5.0465775c0.0330811-1.001194,0.5485992-2.0548515,1.4818115-2.4189949
				C198.8243408,45.6671867,199.398056,45.6965256,199.9537659,45.7292137z"/>
			<path class="st12" d="M200.3602142,60.4636917c19.3738098,1.1396065,19.4936066,0.977211,20.415802,1.5462418
				c0.7533417,0.4648399,0.6899567,1.1967163,0.7436829,2.0132828c0.2242432,3.4091187-0.5307159,4.8349075-4.2702637,5.1494446
				c-4.1248016,0.3469391-8.2900085,0.2066422-12.3826599-0.4128723c-1.7954254-0.2717819-4.0523682-0.4307098-5.6428986-1.3702011
				c-1.2541351-0.7407837-1.7566071-3.2550812-1.7123108-4.5958099c0.0301361-0.9117661,0.4996033-1.8713112,1.3494568-2.2029266
				C199.3316498,60.4072113,199.8541412,60.4339256,200.3602142,60.4636917z"/>
			<path class="st3" d="M217.5675507,77.447525c2.39328,0.1407776,2.3590393,0.8763733,2.4439545,2.1672974
				c0.1960297,2.9800644-0.4639282,4.2264099-3.7328186,4.501358c-4.4329834,0.3728561-13.3144684-0.1159592-15.7569427-1.5586624
				c-1.096283-0.6475525-1.5355225-2.8454056-1.4967957-4.0174026c0.0263367-0.7970123,0.4367371-1.6357956,1.1796265-1.9256744
				C200.804306,76.3804245,199.9998779,76.4141617,217.5675507,77.447525z"/>
			<path class="st7" d="M216.2769775,86.6207962c3.3115234-2.5922318,8.2682953-5.2498398,9.3854218-9.3042145
				c0.3178406-1.1535645,0.6340637-2.4785843,1.6856537-3.0494614c0.8633728-0.4687042,2.0601501-0.1787338,2.6132355,0.6331635
				c0.5531006,0.8119049,0.3848724,2.0317612-0.3673401,2.6636505c2.7710266-6.5617752,2.7449188-6.7957458,3.4254608-7.1652145
				c0.5484314-0.2977448,1.3107147-0.1049347,1.6516266,0.4177551c0.3409119,0.5226974,0.2100677,1.298027-0.2835083,1.6798935
				c0.2393341-0.806633,0.4907074-1.6365814,1.0225067-2.2885818c0.5318146-0.6520004,1.4210815-1.0878296,2.2246857-0.8385315
				c0.8035889,0.2492981,1.2809906,1.3624268,0.7331848,2.0010452c0.4341736-1.0771866,1.1822968-2.3141708,2.342514-2.2617874
				c0.8889313,0.0401306,1.5655365,0.906929,1.6882172,1.7882614c0.1226654,0.88134-0.1762085,1.7626495-0.5014496,2.5909119
				c-3.1924896,8.130043-9.491272,14.9954834-17.3169098,18.8747787c-7.8256378,3.879303-9.6032257,4.5097198-24.6303406,6.0178452"
				/>
			<g>
				<path class="st21" d="M225.8672638,85.5823441c2.25-3.0146484,3.7363281-6.5732422,4.2983398-10.2924805
					c0.074234-0.4936905,0.8156891-0.3764267,0.7412109,0.1123047c-0.5800781,3.840332-2.1152344,7.515625-4.4389648,10.628418
					C226.1750183,86.4249268,225.5669708,85.9831314,225.8672638,85.5823441z"/>
			</g>
			<g>
				<path class="st21" d="M231.8755646,82.2512894c1.4628906-3.4453125,2.4160156-7.0771484,2.8334961-10.7949219
					c0.0229492-0.2055664,0.2124023-0.3491211,0.4145508-0.3305664c0.2055664,0.0229492,0.3540039,0.2084961,0.3305664,0.4145508
					c-0.425293,3.7895508-1.3969727,7.4916992-2.8881836,11.0039063
					C232.3725891,83.0012512,231.6812592,82.7077942,231.8755646,82.2512894z"/>
			</g>
			<g>
				<path class="st21" d="M235.3072052,81.2966995c1.6787109-3.2133789,2.8012695-6.6621094,3.3359375-10.2490234
					c0.0732422-0.488205,0.8150482-0.3820648,0.7421875,0.1103516c-0.5473633,3.6704102-1.6958008,7.1982422-3.4130859,10.4863281
					C235.7431641,82.0824738,235.0766907,81.7389221,235.3072052,81.2966995z"/>
			</g>
			<g>
				<path class="st21" d="M161.0366974,110.8684769c3.2734375-1.3740234,6.2900391-3.4663086,8.7231445-6.050293
					c0.3401031-0.3623123,0.8859558,0.1537552,0.5458984,0.5136719c-2.5043945,2.6601563-5.609375,4.8134766-8.9790039,6.2280273
					C160.8703918,111.7527771,160.5786438,111.0606079,161.0366974,110.8684769z"/>
			</g>
			<g>
				<path class="st21" d="M161.2378693,114.9758987c3.5668945-1.390625,5.2148438-2.4262695,8.0146484-5.0375977
					c0.3617096-0.3371277,0.8753052,0.2087021,0.5117188,0.5488281c-2.8496094,2.6572266-4.6240234,3.7724609-8.2539063,5.1879883
					C161.045517,115.8519516,160.7766571,115.1568832,161.2378693,114.9758987z"/>
			</g>
			<g>
				<path class="st21" d="M161.2075958,118.9070511c2.4301758-0.7861328,4.7050781-2.1196289,6.5791016-3.8564453
					c0.3640137-0.3370972,0.8738098,0.2126846,0.5097656,0.5498047c-1.953125,1.8105469-4.324707,3.2006836-6.8583984,4.0205078
					C160.9656982,119.772316,160.7354431,119.0601501,161.2075958,118.9070511z"/>
			</g>
			<path class="st7" d="M134.6953125,40.9123573c-1.432251-1.8141136-2.6396179-1.4347115-3.2250824,0.0954132
				c-0.2227631,0.58218-0.3475647,1.2190857-0.7276917,1.7131081c-0.6255798,0.8130264-1.7827148,1.0188637-2.8003845,0.8895836
				s-1.9853058-0.5258636-3.0002213-0.6751709c-2.7812271-0.4091568-4.0681458,1.6149826-3.0452881,3.750351
				c0.4537582,0.9473,1.250618,1.6781044,2.0284958,2.3839188c-0.6652679,0.1273308-1.3113403,0.2478447-1.8020172,0.714798
				c-1.1575317,1.1015701-0.716156,2.7621307,0.5992889,3.0359344c0.5916061,0.1231384,1.2443161-0.124691,1.6051025-0.6094551
				c0.123085,2.8749886,1.8645477,5.3432884,4.5817566,6.2906685c2.7171936,0.9473801,5.9715271,0.0789261,7.8554382-2.0963097
				c1.6101227-1.859127,2.1750183-4.4647636,1.9260712-6.9115791
				C138.2191467,44.8579102,137.7991791,44.8437805,134.6953125,40.9123573z"/>
			<path class="st3" d="M130.0973053,45.805088c0.6665955-0.1802521,0.8311768,0.2211342,0.6252136,0.5250626
				c-0.2710876,0.4000359-2.4606018,1.4912148-3.0615768,1.7606583c-0.3692932,0.1655731-1.2084885,0.5563698-1.5807877,0.1960106
				c-0.3177185-0.3075256-0.0488358-0.7713242,0.22435-1.0061722
				C127.2199554,46.4936943,128.9549866,46.1139717,130.0973053,45.805088z"/>
			<path class="st3" d="M136.0147858,43.3807755c0.5396118-0.149086,0.6741333,0.1825256,0.5067749,0.4348564
				c-0.2196198,0.3311348-1.989212,1.2326164-2.4815521,1.4581642c-0.2993317,0.1371269-0.979538,0.4607773-1.281311,0.1623344
				c-0.2575226-0.2546921-0.0395813-0.6388054,0.1818542-0.8333054
				C133.6825562,43.9510765,135.0888824,43.6365929,136.0147858,43.3807755z"/>
			
				<ellipse transform="matrix(0.9443215 -0.3290243 0.3290243 0.9443215 -7.716126 47.1924095)" class="st3" cx="135.5802917" cy="46.3948708" rx="0.6758344" ry="1.0070459"/>
			
				<ellipse transform="matrix(0.9443215 -0.3290243 0.3290243 0.9443215 -8.8258181 45.4147453)" class="st3" cx="129.7730255" cy="48.7848167" rx="0.6758344" ry="1.0070459"/>
			<path class="st9" d="M135.1706085,50.5531578c0.0582275,0.657444-1.9876709,1.1622238-2.7351685,1.3476067
				c-0.3952332,0.0980186-0.5047302-0.1460609-0.3855591-0.349453c0.1738281-0.2966728,0.8006287-0.3491821,1.2129517-0.5233498
				c0.3040466-0.1284294,0.5935211-0.3864098,0.6029663-0.7163315c0.0091095-0.3177414-0.1581421-0.4971924-1.2983246-2.3655624
				c-0.1191254-0.1952019-0.2855377-0.7582474,0.1317902-0.6112404c0.2432709,0.085701,0.5868835,0.7246056,0.7469635,0.924736
				C135.0648499,50.2831192,135.1510773,50.3327789,135.1706085,50.5531578z"/>
			<path class="st19" d="M136.1494904,51.757267c0.7321625,0.0018959,1.0384369,0.6340485,0.688446,1.2277451
				c-0.3118134,0.5289345-2.2301331,1.966095-3.6780548,2.2091141c-0.8026123,0.1347084-3.2463074-0.2431755-2.3116608-1.5266457
				c0.3960571-0.5438919,1.3355103-0.671936,1.9292297-0.8714371
				C135.639679,51.8342628,135.7850494,51.7563248,136.1494904,51.757267z"/>
		</g>
	</g>
</g>
</svg>
