<?xml version="1.0" encoding="utf-8"?>
<!-- Generator: Adobe Illustrator 22.0.1, SVG Export Plug-In . SVG Version: 6.00 Build 0)  -->
<svg version="1.1" id="Layer_1" xmlns="http://www.w3.org/2000/svg" xmlns:xlink="http://www.w3.org/1999/xlink" x="0px" y="0px"
	 viewBox="0 0 300 300" style="enable-background:new 0 0 300 300;" xml:space="preserve">
<style type="text/css">
	.st0{fill:#EDC1A4;}
	.st1{fill:#E2E0E0;}
	.st2{fill:#D39E81;}
	.st3{fill:#502E26;}
	.st4{fill:#CCCACA;}
	.st5{fill:#426800;}
	.st6{fill:#538705;}
	.st7{fill:#D47E44;}
	.st8{fill:#73341D;}
	.st9{fill:#BC672E;}
	.st10{fill:#96311D;}
	.st11{fill:#B83E21;}
	.st12{fill:#DE8D82;}
	.st13{fill:#EFBAB4;}
	.st14{fill:#FDD5D0;}
	.st15{fill:#6883CE;}
	.st16{fill:#3D4885;}
	.st17{fill:#3859AE;}
	.st18{fill:#864424;}
	.st19{fill:#FEFEFE;}
	.st20{fill:#FFFFFF;}
	.st21{fill:#A55925;}
	.st22{fill:#F4F2F2;}
	.st23{fill:#3C3E68;}
	.st24{fill:#E8997C;}
	.st25{fill:#F5C46B;}
	.st26{fill:#F7EBDA;}
	.st27{fill:#0E0C0D;}
	.st28{fill:#657C3A;}
	.st29{fill:#576C37;}
	.st30{fill:#7C995D;}
	.st31{fill:#36518C;}
	.st32{fill:#96B7E3;}
	.st33{fill:#A3B3DF;}
	.st34{fill:url(#SVGID_1_);}
	.st35{fill:url(#SVGID_2_);}
	.st36{fill:url(#SVGID_3_);}
	.st37{fill:url(#SVGID_4_);}
	.st38{fill:url(#SVGID_5_);}
	.st39{fill:#266AB7;}
	.st40{fill:#060E0D;}
	.st41{fill:#E0D4C6;}
	.st42{fill:#787E42;}
	.st43{fill:#D3D1D1;}
	.st44{fill:url(#SVGID_6_);}
	.st45{fill:url(#SVGID_7_);}
	.st46{fill:url(#SVGID_8_);}
	.st47{fill:#020508;}
	.st48{fill:#BAB6B6;}
	.st49{fill:#0F0B07;}
	.st50{fill:#2F3A68;}
	.st51{fill:#203257;}
	.st52{opacity:0.5;fill:#FFFFFF;}
	.st53{opacity:0.2;fill:#0E0C0D;}
	.st54{fill:#DD9F9B;}
	.st55{fill:#3E4D9B;}
	.st56{fill:url(#SVGID_9_);}
	.st57{fill:#5F6194;}
	.st58{fill:url(#SVGID_10_);}
	.st59{fill:url(#SVGID_11_);}
	.st60{fill:url(#SVGID_12_);}
	.st61{fill:url(#SVGID_13_);}
	.st62{fill:#070102;}
	.st63{fill:#100805;}
	.st64{fill:#FDA465;}
	.st65{fill:#2A50A1;}
	.st66{fill:#B76C39;}
	.st67{fill:#130602;}
	.st68{fill:url(#SVGID_14_);}
	.st69{fill:url(#SVGID_15_);}
	.st70{fill:url(#SVGID_16_);}
	.st71{fill:url(#SVGID_17_);}
	.st72{fill:url(#SVGID_18_);}
	.st73{fill:url(#SVGID_19_);}
	.st74{fill:#B4BDED;}
	.st75{fill:#100D08;}
	.st76{fill:#F6C85F;}
	.st77{fill:#FECF00;}
	.st78{fill:#2D59E2;}
	.st79{fill:#121F3A;}
	.st80{fill:#BBD0F5;}
	.st81{fill:#020202;}
	.st82{fill:#E2CFB7;}
	.st83{fill:#080805;}
	.st84{fill:#A87D7C;}
	.st85{fill:#182052;}
	.st86{fill:#EAEAEA;}
	.st87{fill:#DDDDDD;}
	.st88{fill:#3D4574;}
	.st89{fill:#ABC5F0;}
	.st90{fill:url(#SVGID_20_);}
	.st91{fill:#4159A8;}
	.st92{fill:#E0D0BD;}
	.st93{fill:#3D53AA;}
	.st94{fill:#0A0000;}
	.st95{fill:#BF6D36;}
	.st96{fill:#385DAE;}
	.st97{fill:#E0DCDC;}
	.st98{fill:#857E78;}
	.st99{fill:#0E213C;}
	.st100{fill:url(#SVGID_21_);}
	.st101{fill:#55608E;}
	.st102{opacity:0.3;fill:#F4F2F2;}
	.st103{opacity:0.3;}
	.st104{fill:#213987;}
	.st105{enable-background:new    ;}
</style>
<g id="Finding_Location_1_">
	<g id="Finding_Location">
		<g>
			<g>
				<path class="st11" d="M198.5993347,230.5503082c-0.1415405,0.0318146-8.7856903,3.8110199-20.3126526,3.0030975
					c-11.3879242-0.8097839-24.9607239-5.0864258-24.9607239-5.0864258l-3.9815216-39.2675018
					c0.1745148,0.0491943,21.0959473,10.9746246,34.9988708,9.7939148L198.5993347,230.5503082z"/>
				<path class="st15" d="M165.8526917,151.187912c-4.2784729,0-7.7594452-3.4807281-7.7594452-7.7592163V41.0467949
					c0-4.2784729,3.4809723-7.7592049,7.7594452-7.7592049h71.3894196c4.2789612,0,7.7599335,3.480732,7.7599335,7.7592049
					v102.381897c0,4.2784882-3.4809723,7.7592163-7.7599335,7.7592163H165.8526917z"/>
				<path class="st86" d="M242.9953766,41.0468903v102.3817596c0,3.1802063-2.572876,5.7528687-5.7530823,5.7528687h-71.3895264
					c-3.1802063,0-5.753067-2.5726624-5.753067-5.7528687V41.0468903c0-3.1802025,2.5728607-5.7528648,5.753067-5.7528648
					h71.3895264C240.4225006,35.2940254,242.9953766,37.8666878,242.9953766,41.0468903z"/>
				<path class="st20" d="M238.7776184,127.7471848l0.0001068-86.7002945c0-0.8464355-0.6886749-1.5351143-1.5355225-1.5351143
					h-71.3895416c-0.8464355,0-1.5351105,0.6886787-1.5351105,1.5351143l-0.0001068,86.7002945H238.7776184z"/>
				<path class="st87" d="M186.1990814,39.511776c-0.0900879,0.1693382-21.9356689,41.2327538-21.8816376,41.1312981V41.0468903
					c0-0.8435516,0.6917725-1.5351143,1.5353241-1.5351143H186.1990814z"/>
				<polygon class="st87" points="238.7776184,55.2776756 238.7776184,75.5817795 195.5541229,75.5817795 204.2342834,55.2776756 
									"/>
				<path class="st87" d="M238.7776184,41.0468903v10.7552605h-36.7957458
					c-42.3791351,97.5469971,12.8579559-29.5881214-26.3777313,60.7018242l-11.2866974-7.1701736V87.172348
					c12.5779114-23.5155487,13.1218109-24.5249329,25.5005035-47.6605721h47.4243469
					C238.0858459,39.511776,238.7776184,40.2033386,238.7776184,41.0468903z"/>
				<polygon class="st87" points="173.8158264,116.6203995 168.9822998,127.7471848 164.3174438,127.7471848 
					164.3174438,110.5639725 				"/>
				<path class="st87" d="M201.9818726,99.0747223v3.4417572h36.7957458v25.2307053h-39.1828613l-20.7176361-13.1681061
					c8.5970917-20.1010437,4.6479187-10.8577728,15.1670227-35.4628754h44.7334747v19.958519H201.9818726z"/>
				<polygon class="st87" points="191.2688293,127.7471848 173.2422638,127.7471848 177.1055908,118.7123871 				"/>
				<polygon class="st15" points="168.5858612,72.6293488 166.8987579,75.8013153 164.3174438,73.9115601 164.3174438,69.508461 
									"/>
				<polygon class="st15" points="171.1080627,74.4766769 187.0595245,86.1430359 185.6001892,89.5090027 169.4125214,77.6486359 
									"/>
				<rect x="215.7655487" y="39.511776" class="st15" width="3.9984188" height="12.2903748"/>
				<rect x="215.7655487" y="55.2776756" class="st15" width="3.9984188" height="20.3041"/>
				<polygon class="st15" points="215.7655487,79.1162033 219.7639771,79.1162033 219.7639771,100.1122742 203.044754,100.1122742 
					203.044754,127.7471848 199.5947571,127.7471848 199.5947571,99.7749405 188.645401,91.7443237 190.0879364,88.3614731 
					202.0072021,97.0840607 215.7655487,97.0840607 				"/>
				<path class="st7" d="M251.984848,38.6885872l-10.3129425,20.6034889l-10.2905579-20.6034889
					C227.5333557,31.0160751,233.1036835,22,241.6719055,22C250.2917023,22,255.8010254,31.0586834,251.984848,38.6885872z"/>
				<path class="st19" d="M233.9794464,37.389389c-2.8853302-5.7532196,1.2933044-12.4809399,7.6889038-12.4809399
					c6.4404297,0,10.561615,6.7726536,7.7118378,12.4798489l-7.7085571,15.4007301L233.9794464,37.389389z"/>
				<circle class="st7" cx="241.6780853" cy="33.6555443" r="5.193193"/>
				<circle class="st7" cx="217.6236115" cy="98.0509033" r="4.4655724"/>
				<circle class="st7" cx="174.335083" cy="61.5845604" r="4.4655724"/>
				<g>
					<path class="st3" d="M203.3628235,55.8306999h-1.4468536c-0.3696442,0-0.6693115-0.2996674-0.6693115-0.6693268v-8.3577805
						h2.7854919v8.3577805C204.0321503,55.5310326,203.7324829,55.8306999,203.3628235,55.8306999z"/>
					<circle class="st7" cx="202.7197418" cy="44.479187" r="4.4655724"/>
				</g>
				<g>
					<path class="st3" d="M170.6835632,113.7318497l-1.4468536-0.0000076c-0.3696594,0-0.6693268-0.2996674-0.6693268-0.6693268
						v-8.3577728h2.7855072v8.3577805C171.35289,113.4321823,171.0532227,113.7318497,170.6835632,113.7318497z"/>
					<circle class="st7" cx="170.0404816" cy="102.3803329" r="4.4655724"/>
				</g>
				<circle class="st13" cx="201.4301758" cy="138.5205078" r="6.3097711"/>
				<path class="st15" d="M109.7156372,182.2510529c0,0-18.0210495,0.4878235-22.5595398,1.0859985
					c-4.5384827,0.598175-14.5240479,6.2736206-11.9352036,19.8209686
					c2.5888519,13.547348,20.2819214,17.4306183,20.2819214,17.4306183l25.5237503-9.1571655l2.8998947-12.4418793
					L109.7156372,182.2510529z"/>
				<path class="st0" d="M135.3836365,191.789444c-0.3018341,0.6967163-12.1472549,6.1338806-12.2483597,6.1832886
					l-13.783577-2.5479584l-3.3909836-3.5344238v-7.1277466c0.1000061-0.0427551,1.8835144-0.1666718,2.3703232-1.1808929
					c0.438385-0.9872742,0.0021591-11.5061798,0-11.6074677l17.7482147,0.4810944
					c3.5157928,15.6127014,2.3013306,10.2196045,2.5644226,11.3879242l2.4378815-0.6833191
					c0.1022186,0.0316467,4.2988434,1.3309937,4.032196,1.2484283l0.2698822,0.0840302
					C135.3836365,184.4924011,135.7126312,191.0467987,135.3836365,191.789444z"/>
				<path class="st2" d="M127.0579071,176.8077698c-5.7699585,2.0751038-12.2652512,2.0330963-18.5749893,0.0424347
					c-0.0240707-0.6741486,0.0221558-0.5712585-0.0675507-2.5141754c-0.0422134-1.3917847-0.0843277-2.3617859-0.0843277-2.3617859
					l17.7482147,0.4810944L127.0579071,176.8077698z"/>
				<path class="st3" d="M132.1192017,193.6956635c-3.6273041,1.8390808-8.9839249,4.2770691-8.9839249,4.2770691
					l-13.783577-2.5479584l-3.3909836-3.5344238v-7.1277466c0,0,1.1808853-0.1182098,1.9064255-0.6413116
					c6.5106735,7.8496399,18.3804703,6.9409027,23.7880707-0.7842407l3.4585419,1.0713196
					c0.0084381,0.0420227,0.0167847,0.0757904,0.0252228,0.1177979
					C135.9030457,187.808609,134.4651031,191.3507843,132.1192017,193.6956635z"/>
				<path class="st88" d="M137.5322571,140.6570435c1.1432037,0.2479553,2.6413116,1.8643188,3.2714996,2.825943
					c1.2561188,1.9168091,1.6076813,4.4159088,1.0843048,6.6354675c-0.3643799,1.5463257-1.1670532,2.724762-2.1393127,3.9550781
					C131.2279816,155.481781,129.0115051,142.0652924,137.5322571,140.6570435z"/>
				<path class="st1" d="M132.3109741,122.842926c0.9677277,0.9643631,2.0330963,2.4130325,1.9976959,3.8470612
					c-0.0326538,1.3199005-1.020813,2.23909-1.9369659,3.062149c1.9287262,2.4447784,4.0326233,7.8815155,5.160553,10.9049072
					c2.9855804,8.8444977,3.7680054,22.5863953-2.8546295,29.2820587c-1.7810059,1.8008575-5.6829987,4.3014679-8.1915588,4.6322937
					c-3.6349869,1.2479248-7.9913864,1.8158722-12.0582199,1.433609c-2.2630692-0.2127228-4.2063751-0.9021606-6.3178329-1.6480255
					c-7.1882553-2.5392303-11.7548676-8.80867-15.2163391-15.4566193c-1.0500488-2.0166931-1.2707062-3.1301117-2.7731628-4.8268127
					c-1.635704-1.8471832-4.1791763-8.8817291-4.0005569-13.4977417c0.2411575-6.2462006,4.5241852-11.868454,9.2780914-15.5142365
					C108.2479019,115.2069778,125.731041,116.2853394,132.3109741,122.842926z"/>
				<path class="st88" d="M108.4744797,176.1413422c-1.9938583-0.5935211-5.3488312-2.8925934-6.4126129-3.6901398
					c-5.9341736-4.4489441-6.4890137-6.5181274-8.0375061-7.1495667c-3.0475235-1.2157288-5.766777-6.4949036-4.2261963-11.134613
					c0.1435471-0.4304199,0.4217758-0.8097687,0.7677612-1.1133423c6.8418427-5.9056091,14.1897049,6.8613892,8.4691696,11.9950562
					c-0.4217682,0.3797607-0.9025497,0.6915588-1.3749847,1.0037842c3.6763,4.6373138,8.7743607,6.9807434,10.761261,8.4200287
					C108.446701,175.0211792,108.4575882,175.5004425,108.4744797,176.1413422z"/>
				<path class="st0" d="M252.321228,147.43573l-0.1805725,0.7622375c-0.8925934,3.485321-3.6740723,8.7319489-7.9657593,13.1024017
					c-1.5486145,1.5727234-3.5400848,2.4818878-5.092041,3.9417572c-1.7940979,1.6876526-3.1682587,4.3720093-4.4308014,6.4676361
					c-2.5738983,4.2722321-4.6846771,8.8236084-6.2796326,13.5494843
					c-2.5809937,7.6471558-7.495636,14.7132416-11.3753204,21.8493195
					c-11.9686737,22.0110779-18.3994904,23.4356079-18.3994904,23.4356079s-14.858017,5.8891449-18.8308105-9.3500366
					c-3.9610901-15.2428436,4.5673523-22.1955872,4.5747681-22.2016449c1.3153839-1.0717316,2.417511-2.4824829,3.5445862-3.7386322
					c18.3289337-20.4279022,11.8760681-13.7490234,32.0495911-34.1954498
					c6.0332336-6.1148682,4.0975037-9.1198578,4.8866425-12.7095642c0.9944153-4.5235291,2.3617249-5.5055695,5.3171692-9.0394745
					c1.7657166-2.0868225,3.4912567-4.2236023,5.3171692-6.2599792c1.9362488-2.1573639,4.0029907-4.2436829,5.7987671-6.5210724
					c1.2239227-1.3745575,2.9093628-3.6818161,4.8958282-3.7621536c1.3963776-0.0640564,2.5361938,0.9603043,2.4679413,2.437561
					c-0.1203918,3.2105789-8.2767487,10.3234024-8.4573212,12.1794968c1.5148926-0.9929504,3.3809204-2.9396667,5.3372498-2.5379791
					c0.6521301,0.1302948,1.2640991,0.461441,1.6152039,1.0233154c0.6420898,1.0331268-0.0902557,1.9060669,0.1003571,2.7084656
					c0.3410797,1.3946533,3.230423,0.6020508,2.3174896,4.3441162l-0.3110046,0.9131165
					c1.0935059,0.1204987,1.9663239,0.2307281,2.7287903,1.1536255
					C252.4566193,145.593338,252.5630646,146.7585754,252.321228,147.43573z"/>
				<g>
					<path class="st2" d="M230.7711182,145.0132599c-0.4643097-0.1766052-0.1969604-0.8772125,0.2666016-0.7011719
						c3.3422852,1.2739258,5.6469727,1.8334961,7.0390625,1.7236328c1-0.0878906,1.5317383-0.5087891,1.7768555-1.4082031
						c0.4286957-1.4552155-4.2715759-4.1618195-5.7348633-4.890625c-0.4443207-0.220993-0.1099396-0.892868,0.3339844-0.6708984
						c1.9124146,0.9496613,6.7246552,3.712265,6.1225586,5.7661133c-0.3256836,1.1953125-1.1230469,1.8359375-2.4355469,1.9506836
						C236.0546265,146.9522552,232.7266083,145.7581635,230.7711182,145.0132599z"/>
				</g>
				<g>
					<path class="st2" d="M231.2584229,157.9087677c2.8295898-5.9321289,0.4570313-12.6308594,0.4326172-12.6977539
						c-0.1700439-0.467926,0.5371094-0.7201233,0.7050781-0.2558594c0.1035156,0.2856445,2.5029297,7.0639648-0.4609375,13.2768555
						C231.7213287,158.6791382,231.0443573,158.3567963,231.2584229,157.9087677z"/>
				</g>
				<g>
					<path class="st2" d="M235.7843018,140.037674l4.0356445-2.8208008c0.4086304-0.2848816,0.83461,0.3315125,0.4296875,0.6142578
						l-4.0356445,2.8208008C235.8079529,140.9367676,235.3776398,140.32164,235.7843018,140.037674z"/>
				</g>
				<g>
					<path class="st2" d="M237.6719971,149.8706818c-0.6005859-0.6279297-1.0688477-1.7734375,0.1176758-3.6611328
						c0.2640076-0.4200592,0.8993073-0.020813,0.6347656,0.3994141c-1.1240234,1.7885742-0.4360352,2.5073242-0.2099609,2.7436523
						c2.3661499,2.4808655,8.4436646-3.2278595,10.730957-5.7714844c0.3310394-0.3708038,0.8892212,0.1296234,0.5595703,0.4990234
						C246.8101807,147.1049652,240.5288239,152.8631592,237.6719971,149.8706818z"/>
				</g>
				<g>
					<path class="st2" d="M239.8927002,143.7071075c2.894043-2.8041992,7.081543-5.4165039,7.1235352-5.4423828
						c0.4203033-0.2631226,0.8171997,0.3755035,0.3955078,0.6367188c-0.0410156,0.0258789-4.1616211,2.5966797-6.9970703,5.3442383
						C240.0602264,144.5906219,239.5362854,144.0541382,239.8927002,143.7071075z"/>
				</g>
				<g>
					<path class="st2" d="M242.3487549,154.1319122c-1.7552795-1.191864-0.9320068-3.5651093,0.3549805-5.1835938
						c0.3116913-0.3869629,0.8943481,0.0815735,0.5859375,0.4682617c-0.9663544,1.2424622-1.8503571,3.1905823-0.5200195,4.0952148
						c1.7796783,1.1996613,7.4771729-5.7023621,9.3828125-5.6918945c0.2070313,0.0068359,0.3696289,0.1801758,0.362793,0.387207
						s-0.1879883,0.3671875-0.387207,0.362793c-0.1650085,0.1016083-0.0049133-0.468277-3.2705078,2.3154297
						C247.2042847,152.294281,244.0150146,155.2643433,242.3487549,154.1319122z"/>
				</g>
				<path class="st7" d="M162.4584351,270.1079712c-8.3884888,4.3465576-19.3009033,6.8364258-28.6521301,7.8920288
					c-0.1685333-0.0572205-61.7366562-20.960022-61.8913574-21.0125427
					c6.0446167-74.3332977,4.5509109-55.9645538,4.7914047-58.9220581c0,0,17.444664-13.631897,29.254364-13.3027954
					c0,0,1.8726501,6.0144043,12.8134689,7.3303986c9.6670532,1.1557617,13.0159149-5.6601868,13.6654663-7.2714996
					c0.0844421-0.2108917,0.1265564-0.3291016,0.1265564-0.3291016c0.1000061,0.0223846,11.879837,0.8230438,17.1324463,4.9772797
					c5.2553101,4.158432,6.9171753,11.8599396,8.1656189,21.8560944c1.250946,10.1237335,0.4275055,20.006073,0.4470978,19.6800842
					c0.0246582,0.5323334-1.4456787,20.1913757,5.2209167,34.4170837c0.3986053,0.8505859,1.2359924,1.8865662,1.1766663,2.8611145
					C164.6509247,269.2375183,163.2325439,269.7068481,162.4584351,270.1079712z"/>
				<path class="st19" d="M99.5850754,187.1890564c0,0,8.4827957,10.5698853,21.0719147,10.8771057
					c12.589119,0.3072052,18.1002274-10.8771057,18.1002274-10.8771057l16.3079224,32.3863068
					c0,0-13.5455017-4.7133331-37.8932724-1.928894s-30.01577,14.0063782-30.01577,14.0063782L99.5850754,187.1890564z"/>
				<path class="st19" d="M125.1528168,214.2615814c5.2919617,19.740448,6.4964294,38.1775513,1.6736069,54.6934662h1.3397751
					c4.668869-16.1764221,3.3756409-34.7474976-1.3397751-54.6934662H125.1528168z"/>
				<path class="st88" d="M92.4331436,188.3861694c0,0-0.5028458,16.5849304-5.8392258,29.5836182
					s-6.404541,15.5801697-6.404541,15.5801697l-2.4166641,9.6713104c0,0,7.6569901-3.1395721,12.8933487-10.9150848
					c5.2363663-7.7755127,11.4715652-25.5259552,11.0507126-36.0610504c0,0-0.2633514-7.860672-2.8543777-10.3739777
					C98.8623962,185.8711548,95.7295303,186.2303162,92.4331436,188.3861694z"/>
				<path class="st11" d="M78.5074387,242.6888428c9.8507919-29.5012665-1.7973175-44.6226807-1.7973175-44.6226807
					s-14.6965446,7.9835663-25.0528374,37.309967c0,0-5.0215836,12.8233643-3.7930527,15.7154541
					S78.5074387,242.6888428,78.5074387,242.6888428z"/>
				<path class="st10" d="M79.5997772,244.4688873c0.5441284-0.6082611-8.2954865,9.274826-21.6624107,24.218277
					c-1.0094757-0.4698181-0.0167198-0.0935059-3.1211967-1.0964355c-1.9317627-1.2822266-4.51297-3.3993225-6.4109573-6.4868469
					c-3.4585342-5.6012878-2.2354279-19.4692078,12.1555824-23.3327332
					C73.8129349,234.2115936,79.5997772,244.4688873,79.5997772,244.4688873z"/>
				<path class="st11" d="M79.5997772,245.2115173c-10.536293,11.5056152-12.3253784,13.4592896-21.5443001,23.5263062
					c-0.1153107-0.0597839-1.6536903-0.6765137-3.7285271-2.1932983c-1.7039871-1.2315369-3.6863098-3.036438-5.2131844-5.45755
					c-3.3742027-5.3483734-2.1847687-18.5749817,11.8856926-22.2613831
					C69.091713,236.7006226,75.7402954,239.4912872,79.5997772,245.2115173z"/>
				<path class="st0" d="M140.6402435,237.7857819c0.8313904-0.5588226,1.7007904-1.1326599,2.6928864-1.2714996
					c0.9920807-0.1388397,2.1415405,0.2982635,2.486557,1.2387238c0.2789917,0.7604828-0.0439606,1.6384735-0.6001434,2.2273865
					c-2.3960266,2.5369568-15.2619629,4.9411316-22.8512039,11.082962
					c-1.3301926,1.0764923-2.7573547,1.8129883-4.1731796,2.7891235
					c-4.2560883,2.9342957-17.5758667,15.1869202-41.0611801,21.1655884
					c-3.7958679,0.9663391-7.7273102,1.7146912-11.6155243,1.2412109
					c-5.8008194-0.7064209-10.7367287-4.5393982-11.970417-10.3887024
					c-2.3118668-10.9353943,4.7222023-17.3421021,10.2715569-20.6025543c3.3209534-1.9429474,6.153389-2.7881317,6.05336-2.7542725
					c14.8712463-5.0350647,17.6769791-4.9095001,41.8438568-8.5915833c2.9378433-0.4476013,6.3858261-1.2855682,7.4468536-4.0614471
					c0.7701111-2.0147858,0.2314835-4.8888397,2.1656036-5.8436127c1.672699-0.8257294,3.6754227,0.9641113,3.8007126,2.8253174
					c0.1252823,1.8611908-0.9505844,3.5664368-1.9835129,5.1197662c13.2546387-8.8680267,11.6964874-7.9624786,13.0131683-8.7064514
					c1.1379242-0.6429596,2.0370178-1.726944,3.2724762-2.197403c1.0350189-0.3941345,2.3718262-0.2292023,3.0095978,0.6762695
					c0.566452,0.804184,0.4123383,1.9459381-0.1031189,2.7837219c-1.0326233,1.67836-3.2163086,2.3904266-4.1446228,4.1416168
					c1.2491455-1.4360046,2.8592072-2.5555573,4.640274-3.226593c2.4633789-0.9281006,3.9312286,0.7012177,1.9243011,2.988205
					c-1.4219666,1.6204224-3.0624542,3.0488129-4.8630676,4.2343597c1.3570251-1.0930481,2.9423981-1.9012756,4.6241455-2.3574066
					c0.5348358-0.14505,1.1350708-0.2476196,1.6195526,0.0213623c0.5888672,0.3269348,0.7891388,1.1182098,0.6244812,1.7713013
					s-0.6123505,1.1940155-1.0702515,1.6879425C144.2497711,235.3363647,142.5454102,236.7011261,140.6402435,237.7857819z"/>
				<path class="st88" d="M158.3281555,241.6853333c-0.5313416-1.315979-1.5267639-4.3697357-3.1716461-11.3879242
					c-2.792099-11.9023743-12.4929199-33.9359894-21.004425-44.0334778
					c-0.1004333-0.0636749-1.9636536-2.532135-5.5084076-2.4206696l-0.4807739-0.9704132
					c0.1029968,0.0257721,8.6915894-1.0409698,14.4246826,3.762207
					c5.9639587,4.8421631,11.0504913,13.5392151,13.2268066,27.6262512
					c0.4690247,3.0416107,1.9753571,12.8085022,2.5222015,16.3903351
					C158.3198242,230.8876495,158.091629,237.4326935,158.3281555,241.6853333z"/>
				<path class="st10" d="M186.781189,233.3680573c-0.6495514,0.0671234-1.3158875,0.1346741-1.9992065,0.1771088
					c-4.702652-2.2733765-6.6242676-4.1388702-8.9669495-8.6126099c-4.2255707-8.0613556-2.2928619-20.6147156,5.4071808-25.8296051
					c0.8773346,0.0168915,1.7208862,0,2.539093-0.0675507c-4.1442871,1.288559-6.6170654,5.1176758-7.9462738,9.23703
					C172.0220795,220.0550385,177.6387482,230.7838135,186.781189,233.3680573z"/>
				<path class="st0" d="M122.0555115,172.5731354c-13.8510284-1.2822113-17.545784-13.8254852-19.9667664-19.4691925
					c-0.1517792-0.3455811-0.3036652-0.7002106-0.4555511-1.0544434c-2.437767-5.4406433-5.6179657-11.8265839,3.6273041-14.0870361
					c9.4814987-2.1006317,18.1278839-4.4624176,25.222168-7.3135071c2.1932068,3.2897644,3.7706451,7.0181885,4.9009705,10.6032715
					c2.0666656,6.596405,2.615097,12.6701355,2.6740875,14.4416656
					C138.1420593,158.4436798,135.9151764,173.8553467,122.0555115,172.5731354z"/>
				<path class="st3" d="M135.3836365,141.2522278c-0.7506714-0.2953339-1.4255524-0.7591095-2.0835419-1.2315521
					c-2.8343201-2.0499725-5.6348572-4.2263947-7.9968338-6.799057
					c-14.8090973,4.4812622-14.5277405,4.2691803-15.1923447,4.9093018
					c-0.4808807,0.4724426-0.7002182,1.1475372-0.919548,1.7801971c-1.5857697,4.529541-4.1924133,8.7052765-7.5581741,12.138382
					c-2.437767-5.4406433-5.6179657-11.8265839,3.6273041-14.0870361c9.4814987-2.1006317,18.1278839-4.4624176,25.222168-7.3135071
					C132.6758728,133.9387207,134.2533112,137.6671448,135.3836365,141.2522278z"/>
				<path class="st3" d="M108.8128891,143.1701508c2.2230606-1.6777954,5.3350143-1.7620544,6.3920746-1.1547089
					c0.9297714,0.5342102,0.5958633,1.6207428-0.3803177,1.894577c-0.9652481,0.270752-2.2486954-0.3756256-4.564888,0.358902
					c-0.5121155,0.1623993-1.8661423,1.0769196-2.1014404,0.1567688
					C108.0197983,143.8840179,108.4163284,143.4694366,108.8128891,143.1701508z"/>
				<path class="st3" d="M129.1204987,137.8722992c-2.7711945-0.2783356-5.4738159,1.2667236-6.0613708,2.3349152
					c-0.5168076,0.9395599,0.3330765,1.6943817,1.3094101,1.4210815c0.9653931-0.2702332,1.7260895-1.4894104,4.0867081-2.0653839
					c0.5219269-0.1273499,2.1540222-0.0495758,1.8769226-0.9580231
					C130.1690369,138.0701141,129.6148376,137.9219513,129.1204987,137.8722992z"/>
				<path class="st19" d="M113.2657852,155.7359161c-2.2929077,0.1543121-4.2516403-1.7244568-4.4286423-4.1419678
					c-0.2828064-4.1015472,4.3361511-6.3111115,7.0268402-3.3993225
					C118.3809052,150.8515625,116.80233,155.4871216,113.2657852,155.7359161z"/>
				<path class="st3" d="M114.4973297,153.1970215c-1.4086609,0-2.5559769-1.2150726-2.5559769-2.7077637
					c0-2.157074,2.2566681-3.4280548,3.9226303-2.294632C118.0212021,149.6343689,117.0495453,153.1970215,114.4973297,153.1970215z
					"/>
				<path class="st3" d="M116.5640945,148.9030762c-2.9026413-2.1004639-5.7129898-1.1743927-6.7316208,1.8222046
					c-0.3120041,0.8942108-0.4048843,1.8304291-0.4385605,2.7753143c-0.3121033-0.5651245-0.5865555-1.1994019-0.6372223-1.8913879
					c-0.1686707-2.4462128,1.6606293-4.687088,3.9381714-4.8473053
					C114.3617706,146.6483917,115.6584091,147.5046082,116.5640945,148.9030762z"/>
				<path class="st19" d="M128.9442596,150.8084412c-2.0726089,0.1394806-3.8431473-1.5587616-4.0031433-3.7440033
					c-0.2804718-4.067749,4.6599121-5.8455505,6.7253418-2.599884
					C133.4030914,146.9400635,131.91008,150.5997925,128.9442596,150.8084412z"/>
				<path class="st3" d="M130.0574799,148.5134888c-1.2733154,0-2.3104019-1.0983276-2.3104019-2.4476013
					c0-2.4350891,2.9551926-3.3228607,4.1785965-1.4337921
					C133.0332642,146.2194824,131.9538422,148.5134888,130.0574799,148.5134888z"/>
				<path class="st3" d="M131.9256744,144.6320953c-2.6209259-1.8966064-5.1618729-1.0680847-6.0848541,1.6471252
					c-0.2820282,0.8083038-0.3659821,1.6545715-0.3964233,2.508667
					C122.9964142,144.3554993,128.9773712,140.0796356,131.9256744,144.6320953z"/>
				<path class="st3" d="M125.8555374,153.2106018c0.4416275,0.3670197,0.6691132,1.0602875,0.3378983,1.5293579
					c-2.0492325,2.9021759,0.2778549,0.8237762,0.3965988,0.7098389c0.8462753-0.8119354,0.8322601-1.7155457,0.1185913-2.4726105
					C125.8940277,152.1130524,122.9726105,150.814682,125.8555374,153.2106018z"/>
				<path class="st3" d="M129.1586304,159.7663879c0,0-3.6707382,5.412384-11.1279907,2.8262482
					c-1.3605347-0.4718323-2.2919235-1.9793396-2.2932968-2.4738617c-0.0012207-0.4355621,0.4396973-0.6490631,0.7787094-0.2835541
					c0.431015,0.4647064,0.9571762,2.7306976,5.2569809,2.4977264
					C124.442688,162.1883087,126.9644089,161.2939148,129.1586304,159.7663879z"/>
			</g>
			<g>
				<path class="st2" d="M132.885376,231.3115997c4.8212891-2.1972656,5.2387695-2.4912109,8.9287109-6.2915039
					c0.3483734-0.3553925,0.8826447,0.1673889,0.5380859,0.5224609c-3.746582,3.8588867-4.2602539,4.2207031-9.1557617,6.4516602
					C132.7456665,232.1998901,132.4338074,231.5180206,132.885376,231.3115997z"/>
			</g>
			<g>
				<path class="st2" d="M135.2886963,235.5225372c3.0078125-1.4550781,5.7973633-3.5205078,8.0668945-5.9736328
					c0.3375397-0.3619843,0.8880157,0.1444244,0.5507813,0.5097656c-2.3662109,2.5566406-5.1557617,4.6220703-8.2915039,6.1386719
					C135.1690826,236.4139862,134.8414917,235.7379456,135.2886963,235.5225372z"/>
			</g>
			<g>
				<path class="st2" d="M136.2598877,239.8296661l7.0600586-3.5751953
					c0.4418793-0.2238617,0.7819672,0.4438782,0.3388672,0.6689453l-7.0600586,3.5751953
					C136.1547699,240.7225952,135.8179779,240.0529633,136.2598877,239.8296661z"/>
			</g>
		</g>
	</g>
</g>
</svg>
