<?xml version="1.0" encoding="utf-8"?>
<!-- Generator: Adobe Illustrator 22.0.1, SVG Export Plug-In . SVG Version: 6.00 Build 0)  -->
<svg version="1.1" id="Layer_1" xmlns="http://www.w3.org/2000/svg" xmlns:xlink="http://www.w3.org/1999/xlink" x="0px" y="0px"
	 viewBox="0 0 300 300" style="enable-background:new 0 0 300 300;" xml:space="preserve">
<style type="text/css">
	.st0{fill:#EDC1A4;}
	.st1{fill:#E2E0E0;}
	.st2{fill:#D39E81;}
	.st3{fill:#502E26;}
	.st4{fill:#CCCACA;}
	.st5{fill:#426800;}
	.st6{fill:#538705;}
	.st7{fill:#D47E44;}
	.st8{fill:#73341D;}
	.st9{fill:#BC672E;}
	.st10{fill:#96311D;}
	.st11{fill:#B83E21;}
	.st12{fill:#DE8D82;}
	.st13{fill:#EFBAB4;}
	.st14{fill:#FDD5D0;}
	.st15{fill:#6883CE;}
	.st16{fill:#3D4885;}
	.st17{fill:#3859AE;}
	.st18{fill:#864424;}
	.st19{fill:#FEFEFE;}
	.st20{fill:#FFFFFF;}
	.st21{fill:#A55925;}
	.st22{fill:#F4F2F2;}
	.st23{fill:#3C3E68;}
	.st24{fill:#E8997C;}
	.st25{fill:#F5C46B;}
	.st26{fill:#F7EBDA;}
	.st27{fill:#0E0C0D;}
	.st28{fill:#657C3A;}
	.st29{fill:#576C37;}
	.st30{fill:#7C995D;}
	.st31{fill:#36518C;}
	.st32{fill:#96B7E3;}
	.st33{fill:#A3B3DF;}
	.st34{fill:url(#SVGID_1_);}
	.st35{fill:url(#SVGID_2_);}
	.st36{fill:url(#SVGID_3_);}
	.st37{fill:url(#SVGID_4_);}
	.st38{fill:url(#SVGID_5_);}
	.st39{fill:#266AB7;}
	.st40{fill:#060E0D;}
	.st41{fill:#E0D4C6;}
	.st42{fill:#787E42;}
	.st43{fill:#D3D1D1;}
	.st44{fill:url(#SVGID_6_);}
	.st45{fill:url(#SVGID_7_);}
	.st46{fill:url(#SVGID_8_);}
	.st47{fill:#020508;}
	.st48{fill:#BAB6B6;}
	.st49{fill:#0F0B07;}
	.st50{fill:#2F3A68;}
	.st51{fill:#203257;}
	.st52{opacity:0.5;fill:#FFFFFF;}
	.st53{opacity:0.2;fill:#0E0C0D;}
	.st54{fill:#DD9F9B;}
	.st55{fill:#3E4D9B;}
	.st56{fill:url(#SVGID_9_);}
	.st57{fill:#5F6194;}
	.st58{fill:url(#SVGID_10_);}
	.st59{fill:url(#SVGID_11_);}
	.st60{fill:url(#SVGID_12_);}
	.st61{fill:url(#SVGID_13_);}
	.st62{fill:#070102;}
	.st63{fill:#100805;}
	.st64{fill:#FDA465;}
	.st65{fill:#2A50A1;}
	.st66{fill:#B76C39;}
	.st67{fill:#130602;}
	.st68{fill:url(#SVGID_14_);}
	.st69{fill:url(#SVGID_15_);}
	.st70{fill:url(#SVGID_16_);}
	.st71{fill:url(#SVGID_17_);}
	.st72{fill:url(#SVGID_18_);}
	.st73{fill:url(#SVGID_19_);}
	.st74{fill:#B4BDED;}
	.st75{fill:#100D08;}
	.st76{fill:#F6C85F;}
	.st77{fill:#FECF00;}
	.st78{fill:#2D59E2;}
	.st79{fill:#121F3A;}
	.st80{fill:#BBD0F5;}
	.st81{fill:#020202;}
	.st82{fill:#E2CFB7;}
	.st83{fill:#080805;}
	.st84{fill:#A87D7C;}
	.st85{fill:#182052;}
	.st86{fill:#EAEAEA;}
	.st87{fill:#DDDDDD;}
	.st88{fill:#3D4574;}
	.st89{fill:#ABC5F0;}
	.st90{fill:url(#SVGID_20_);}
	.st91{fill:#4159A8;}
	.st92{fill:#E0D0BD;}
	.st93{fill:#3D53AA;}
	.st94{fill:#0A0000;}
	.st95{fill:#BF6D36;}
	.st96{fill:#385DAE;}
	.st97{fill:#E0DCDC;}
	.st98{fill:#857E78;}
	.st99{fill:#0E213C;}
	.st100{fill:url(#SVGID_21_);}
	.st101{fill:#55608E;}
	.st102{opacity:0.3;fill:#F4F2F2;}
	.st103{opacity:0.3;}
	.st104{fill:#213987;}
	.st105{enable-background:new    ;}
</style>
<g id="Food_Reviews_1_">
	<g id="Food_Reviews">
		<g>
			<path class="st0" d="M81.1742859,120.262146c-4.8300858-0.8129959-9.6129761-1.9188309-14.3154449-3.3036728
				c-2.4671478-0.7209625-2.7448578-1.7102127-2.1125641-3.6343613c1.4886856-4.6127014,3.0104828-9.2112045,4.4708939-13.833374
				c0.5693893-1.7919159,1.2251816-2.4205093,3.700592-1.9376373c4.2296066,0.8086395,6.4273224,1.7894058,7.6042633,7.349144
				c0.5284042,2.5005951,0.7924728,5.1163025,0.7467651,7.7649918
				C81.2687912,113.9475327,81.731575,120.262146,81.1742859,120.262146z"/>
			<path class="st2" d="M81.4484406,117.9226227c-1.9094009-2.286644-6.7557907-8.499733-8.2471771-10.8700867
				c-0.8695374-1.3468704-1.6399536-2.755249-2.3110275-4.2156601c2.9915619,3.7525101,5.9643097,6.3897247,10.3690872,8.1856766
				c0.0285797,1.1039505,0.0003815,1.6459122,0.0141983,2.0322571
				C81.2806091,113.9402466,81.4484406,116.1905823,81.4484406,117.9226227z"/>
			<path class="st3" d="M56.9159775,71.4238739c-0.6920052-0.1127167-1.4161186-0.2064819-2.0927925-0.3914261
				c-7.2442665-1.9821396-5.8542023-11.175663,0.3186646-13.9397736c3.7781715-1.691803,9.3189278-0.7404518,11.0721169,3.388382
				c0.8649368,2.0377655,0.4363022,3.8084793-0.3556671,5.7561417c3.1949158-1.0176773,6.52565-1.3274536,9.4773254-1.0044785
				c5.2777023,0.5774918,10.6770935,3.7298965,14.3242188,7.5591507c0,0,0.2322617,1.8244858,0.1486206,3.1080627
				c-0.5533371,8.4908905-3.4860687,20.2765427-9.878891,25.8947983c-4.9894943,4.3849487-12.6044846,5.5078201-18.647274,2.7496414
				c-9.4342232-4.3061676-12.574604-16.8871613-8.7820168-25.9959106c0.3542099-0.8507156,1.0967712-2.307251,2.0031853-3.7450256
				C54.7566338,74.4018555,56.5132675,71.3582764,56.9159775,71.4238739z"/>
			<path class="st0" d="M89.6598434,72.7918701c5.177681,6.3455811,5.4122543,12.2259445,6.5532227,15.0183334
				c0.9305954,2.2755966,3.4626541,3.9901428,3.2481461,6.7027893c-0.1288757,1.6318054-1.1540527,2.841301-3.8332825,2.8370209
				c-0.4470367,4.2793961-0.7521439,9.0854645-3.8033981,11.8434982c-6.0495224,5.4681702-13.0377274,3.4642792-18.5830307-2.307869
				c-1.0553513-1.098526-2.0320511-2.3072739-2.6171265-3.7137604c-0.5850754-1.4064941-0.7455292-3.0396042-0.173172-4.4513245
				c-4.6916962,0.1810303-7.0331306-8.3967209-1.7715759-12.6610184c3.6538162-2.9300461,5.9491196,0.8186111,8.8357544,0.8572845
				c3.1412659,0.0419464,6.4386673-6.9727402,8.0047455-9.1954498
				C86.7708893,75.9696121,88.1508026,74.3264465,89.6598434,72.7918701z"/>
			<path class="st3" d="M92.3889999,81.9300919c0.6133575,0.7389679-1.511528,1.6783905-1.998024,1.9364014
				c-3.1438446,1.6673431-3.3098679,2.1858521-3.8154373,2.1649857c-0.1797104-0.0074158-0.3527908-0.1098099-0.4458237-0.2637405
				c-0.2725754-0.4509964,0.2646332-1.4787827,0.5125198-1.8681335
				C88.1436996,81.5413284,91.7743683,81.1895905,92.3889999,81.9300919z"/>
			<path class="st19" d="M71.9476318,95.7121506c-1.4194489,2.6790466-5.4433899,0.885376-3.9799347-1.9476471
				C69.4580841,90.8795624,73.4306412,92.915741,71.9476318,95.7121506z"/>
			<ellipse class="st3" cx="90.764061" cy="88.7066956" rx="1.4872181" ry="2.2112162"/>
			<path class="st8" d="M186.8806915,258.6582336c-5.5567627,3.326416-11.8390808,5.7941589-19.9986725,6.4302368
				l-0.3314209-51.7817383h20.0629578L186.8806915,258.6582336z"/>
			<path class="st16" d="M162.1287842,265.4068298c0,0,16.6027985-0.4603577,18.3350677-4.8514404
				c1.732254-4.3911133-2.8277283-36.131134-15.494339-45.1721191l-66.3730545-1.2721405l-22.4621277,5.0666504
				l2.0266571,27.6976624l10.5497742,12.1266327L162.1287842,265.4068298z"/>
			<path class="st7" d="M278.0291138,188.4430084c0,3.7066956-5.377533,6.5222473-8.7717285,8.0106354
				c-42.3864899,18.5786591-196.0882263,18.568985-238.4565735,0
				c-32.4409218-14.2256622,28.3753605-29.9824982,119.225914-29.9824982
				C220.7201233,166.4711456,278.0291138,176.3062439,278.0291138,188.4430084z"/>
			<path class="st8" d="M240.9442596,183.2007904c0,5.777832-8.60495,12.8464355-31.3444366,12.8464355
				c-21.7026978,0-31.3444214-7.0686035-31.3444214-12.8464355c0-5.7778473,14.033371-8.0769806,31.3444214-8.0769806
				S240.9442596,177.4229431,240.9442596,183.2007904z"/>
			<ellipse class="st20" cx="209.599823" cy="183.2007904" rx="31.3444309" ry="10.4617071"/>
			<path class="st8" d="M278.0291138,188.4430084v8.0106354c0,12.1319275-57.3089905,21.9718628-128.0023804,21.9718628
				c-70.6885376,0-127.9976273-9.8399353-127.9976273-21.9718628v-8.0106354c0,3.7065277,5.3771343,6.5220795,8.7717113,8.0106354
				c42.3880081,18.5776215,196.0888672,18.5704193,238.4565735,0
				C272.6490479,194.9663696,278.0291138,192.150528,278.0291138,188.4430084z"/>
			<path class="st12" d="M90.343071,120.8039703c0,0-24.3783646-6.3714066-38.1666145-1.9186554
				c-13.78825,4.4527435-18.7997055,22.3672028-20.1298752,32.3217163
				c-1.3301735,9.9545135-4.0797291,42.6755676-4.0797291,42.6755676v16.533371c0,0,60.1255798,15.6470795,78.7428894,6.7189331
				l-0.4208908-29.0073853L90.343071,120.8039703z"/>
			<path class="st11" d="M23.7122097,262.9069214c0,0-5.7902184-78.868103,14.0489521-97.2972107
				c17.6922798-16.4348145,37.1963577-0.0046997,45.5617599,27.3741913s9.8626862,59.1341095,20.225235,63.2384186
				c9.9263382,3.9315186,28.1050415,0.4298096,49.3825073-3.8419189c0.5261993-0.1056366,1.0525513-0.2250671,1.577301-0.337677
				c1.489563-0.3196869,6.9018707-0.9231567,7.6207886,6.9593506l0.0000305,6.4047546
				C151.7173157,268.9092712,23.6366329,267.0936279,23.7122097,262.9069214z"/>
			<path class="st14" d="M86.3232574,119.8031387c0,0-7.4731445,0.8391571-15.7451782,3.415184
				s-18.8607635,1.0531845-19.4422722-3.9649429c-0.5815086-5.0181198,4.781723-6.8499146,8.2162437-6.5898209
				C62.7865715,112.923645,79.5804596,115.7384491,86.3232574,119.8031387z"/>
			<g>
				<path class="st23" d="M164.6383209,131.0439453l-4.7874908,37.7164459
					c-0.2105255,1.6584625,2.3203735,2.4651184,3.9885406,2.3552246l11.5934143-1.8536987
					c1.2652893-0.0833588,2.295578-1.0487671,2.4609375-2.3059692l6.135849-34.7579651
					c0.2094269-1.5921783-1.5417175-3.4776917-4.137558-3.4776917h-12.6164551
					C165.9367981,128.7202911,164.8069,129.7158356,164.6383209,131.0439453z"/>
				<path class="st15" d="M166.2323151,132.0643158l-4.5769806,36.0579834
					c-0.2105103,1.6584625,1.1438446,3.0973053,2.8119965,2.9874115l12.5594482-0.8274231
					c1.2652893-0.0833588,2.295578-1.0487671,2.4609375-2.3059692l4.6339874-35.2305603
					c0.2094269-1.5921783-1.0298157-3.0050812-2.6356964-3.0050812h-12.6164551
					C167.5307922,129.7406769,166.4008942,130.7362061,166.2323151,132.0643158z"/>
				<path class="st0" d="M180.584549,150.5584106c0.4544983,1.6882782-4.1378326,11.0854492-13.7529297,14.7215271
					c-2.8459473,1.0762482-3.4552612,0.7032013-4.6540375,1.252594c-0.4300385,0.1938477-0.4915314,0.680542-0.6379547,1.0823059
					c-2.6040955,4.1401978-4.9293213,8.4550934-7.500412,12.6139984
					c-4.3054352,6.956955-12.6801147,18.8668671-19.3439941,23.3753815
					c-6.9940414,4.6830292-16.2697678,4.3925629-24.0418396,0.3876953
					c-5.7559967-8.6420898-5.0674286-16.4705658,0.2836075-24.6940002
					c0.7960892-1.2476807,22.2775497-3.8714294,20.8280563-3.6862793
					c1.4745026-1.5359955,13.1621857-14.1313019,14.6036835-15.5491333
					c1.4320221-1.4035339,2.9066315-2.7694397,4.4850769-4.0077362c1.1768036-0.921463,2.6656036-1.4556885,3.7479095-2.4763794
					c2.2779083-2.150528,4.758316-6.8953705,8.1516418-7.4955902c0,0-0.6229706,5.1230774-0.6229401,5.1230774
					c4.9673004,0.051651,9.059967-2.0445099,12.3191986-5.6915436c1.1192932-1.2524567,2.412323-3.0092163,3.6289673-3.7371368
					c1.1950378-0.7149963,1.7689819,1.192749,0.8333893,1.8868866c0.6888123-0.1458893,1.3035431,0.5975037,1.3057098,1.30159
					c0.0021667,0.704071-0.4038086,1.3361359-0.7949829,1.9215546c0.2720947-0.3233337,1.1141815-0.1601257,0.9545898,1.0033112
					c-0.1043396,0.7600098-0.449707,1.4901123-0.9778442,2.0473633
					C179.7772522,149.5957336,180.4728394,150.1434021,180.584549,150.5584106z"/>
				<path class="st2" d="M120.994194,203.3586884c0.0755768,1.2050629,0.2410431,2.4338989,0.311882,3.6484375
					c-3.7241287-0.2503967-7.4152527-1.3470001-10.6526947-3.015213c-3.4027863-5.1089783-4.3574753-9.7120972-3.9367828-13.8428345
					c2.0794449-4.1496735,4.5275421-8.1147156,7.2971039-11.8342285c5.2460403-1.1058502,15.4922485-2.4198303,17.4300079-2.6656036
					C125.8119431,183.9736938,120.3243179,193.0872192,120.994194,203.3586884z"/>
				<path class="st14" d="M110.6529541,203.9921112c0,0-27.7375412-21.1819458-29.6378403-56.8940277
					c0,0-2.9617844-25.91819,9.3279572-26.2941132c13.3912277-0.4096146,28.3384552,18.0923462,41.4206924,54.8058319
					C131.7637634,175.6098022,112.3556519,196.8330231,110.6529541,203.9921112z"/>
				<g>
					<path class="st2" d="M172.2621613,150.0979614c2.706543-1.6962891,4.8994141-4.1000977,6.3417969-6.9516602
						c0.225647-0.4453583,0.8922729-0.1019592,0.6689453,0.3388672c-1.503418,2.9726563-3.7900391,5.4794922-6.6123047,7.2485352
						C172.2384491,150.9963074,171.8426666,150.3620453,172.2621613,150.0979614z"/>
				</g>
				<g>
					<path class="st2" d="M173.5092316,152.8338013c2.2568359-1.6923828,4.1616211-3.8959961,5.5073242-6.3735352
						c0.2337036-0.4336853,0.8967743-0.080307,0.6591797,0.3583984c-1.3974609,2.5712891-3.3740234,4.8583984-5.7163086,6.6147461
						C173.5630493,153.732132,173.1123505,153.1311798,173.5092316,152.8338013z"/>
				</g>
				<g>
					<path class="st2" d="M174.1542511,155.3630981c2.1088867-1.4614258,3.9018555-3.4077148,5.1865234-5.628418
						c0.2526398-0.430069,0.8961182-0.0522461,0.6494141,0.3759766c-1.3398438,2.3154297-3.2099609,4.3447266-5.4082031,5.8686523
						C174.1737976,156.2626038,173.7467957,155.6452789,174.1542511,155.3630981z"/>
				</g>
			</g>
			
				<ellipse transform="matrix(0.1133628 -0.9935536 0.9935536 0.1133628 18.5603771 285.0180969)" class="st23" cx="168.9738922" cy="132.109787" rx="1.6043684" ry="1.0937471"/>
			
				<ellipse transform="matrix(0.1133628 -0.9935536 0.9935536 0.1133628 13.7776537 288.3964539)" class="st23" cx="168.4754181" cy="136.4786987" rx="1.6043684" ry="1.0937471"/>
			
				<ellipse transform="matrix(0.1133628 -0.9935536 0.9935536 0.1133628 18.5941525 290.0092163)" class="st23" cx="171.7872925" cy="134.586441" rx="1.6043684" ry="1.0937471"/>
			<path class="st19" d="M94.8278656,101.2179871c-1.8804092,0.8350372-4.2007675,0.5802917-5.8552094-0.6428452
				C89.4830856,104.7973328,93.9893875,104.4167938,94.8278656,101.2179871z"/>
			<path class="st15" d="M170.3228607,40.7888947v56.8032455c0,4.4471283-3.6060944,8.0533371-8.0533295,8.0533371h-44.0805664
				c-4.4473572,0-8.0533295-3.6062088-8.0533295-8.0533371V40.7888947c0-4.4427414,3.6059723-8.0487175,8.0533295-8.0487175
				h44.0805664C166.7167664,32.7401772,170.3228607,36.3461533,170.3228607,40.7888947z"/>
			<path class="st19" d="M118.1889114,102.8098297c-2.876976,0-5.217659-2.3406754-5.217659-5.217659V40.7889214
				c0-2.8744431,2.340683-5.2130432,5.217659-5.2130432h44.0805588c2.8769836,0,5.2176666,2.3386002,5.2176666,5.2130432v56.8032494
				c0,2.8769836-2.340683,5.217659-5.2176666,5.217659H118.1889114z"/>
			<path class="st4" d="M167.4871826,46.1309395v-5.3420448c0-2.8744431-2.3406677-5.2130432-5.2176514-5.2130432h-44.0805664
				c-2.8769836,0-5.217659,2.3386002-5.217659,5.2130432v5.3420448H167.4871826z"/>
			<polyline class="st15" points="157.9646759,103.4202881 164.8500366,117.6912537 144.6633759,103.4202881 			"/>
			<g>
				<path class="st19" d="M124.7473145,39.1489067h-7.1278152c-0.6638565,0-0.7287674-0.7840271-0.6839752-0.6839828
					c0-0.3777542,0.3062286-0.6839828,0.6839828-0.6839828h7.1278076c0.6638565,0,0.728775,0.7840271,0.6839828,0.6839828
					C125.4312973,38.8426781,125.1250687,39.1489067,124.7473145,39.1489067z"/>
				<path class="st19" d="M124.7473145,41.6983681h-7.1278152c-0.6638565,0-0.7287674-0.7840271-0.6839752-0.6839828
					c0-0.3777542,0.3062286-0.6839828,0.6839828-0.6839828h7.1278076c0.6638565,0,0.728775,0.7840271,0.6839828,0.6839828
					C125.4312973,41.3921356,125.1250687,41.6983681,124.7473145,41.6983681z"/>
				<path class="st19" d="M124.7473145,44.2478256h-7.1278152c-0.6638565,0-0.7287674-0.7840233-0.6839752-0.6839828
					c0-0.3777504,0.3062286-0.683979,0.6839752-0.683979h7.1278152c0.6638565,0,0.728775,0.7840271,0.6839828,0.6839828
					C125.4312973,43.941597,125.1250687,44.2478256,124.7473145,44.2478256z"/>
			</g>
			<circle class="st19" cx="160.4450073" cy="40.9497223" r="3.1687799"/>
			<rect x="118.8255081" y="52.6307869" class="st22" width="42.8304787" height="17.6711407"/>
			<rect x="118.8715134" y="76.4667435" class="st22" width="42.8304787" height="17.6711407"/>
			<g>
				<ellipse class="st4" cx="127.1943817" cy="61.6844177" rx="4.2703147" ry="5.5555015"/>
				<ellipse class="st4" cx="140.4247742" cy="61.6397896" rx="4.2703147" ry="5.5555015"/>
				<ellipse class="st4" cx="153.6551514" cy="61.7290459" rx="4.2703147" ry="5.5555015"/>
			</g>
			<g>
				<circle class="st7" cx="125.8273315" cy="89.1435623" r="2.0532675"/>
				<circle class="st7" cx="135.4669495" cy="89.1435623" r="2.0532675"/>
				<circle class="st7" cx="145.1065674" cy="89.1435623" r="2.0532675"/>
				<circle class="st7" cx="154.74617" cy="89.1435623" r="2.0532675"/>
			</g>
			<rect x="124.151825" y="79.4501343" class="st4" width="32.2698631" height="1.1443613"/>
			<rect x="124.151825" y="81.9380035" class="st4" width="32.2698631" height="1.1443613"/>
			<g>
				<path class="st24" d="M237.3388519,182.5396729c-0.1160583,0.1152954,0.8042755,3.2082062-9.950058,5.5489349
					c-17.2507172,3.7653503-44.1011353,0.8338318-45.4642792-5.1091003c0,0-0.052887-0.4382324-0.0530701-0.4398346
					c-0.1378632-1.1423798,1.0988617-1.9165039,1.7287598-2.6726379c0.8514404-1.022049,1.6963348-1.6283722,3.0678253-1.8195496
					c1.4469299-0.2017059,2.9728241-0.0409088,4.3223419-0.6004791c1.4447479-0.5990601,2.5571594-1.9774475,4.1058807-2.1957703
					c1.5712585-0.2214813,3.0500031,0.8305054,4.6338043,0.927948c2.5636597,0.1577148,4.8582916-2.1798706,7.3977966-1.7950439
					c1.6694641,0.2529907,3.0601349,1.6584167,4.7486115,1.6457672c1.2770538-0.0095673,2.4027252-0.8360443,3.6563263-1.0797729
					c1.616333-0.3142548,2.635437,0.1632538,11.1200714,2.2211914c2.2617188,0.5478058,5.0466309,0.7664948,7.1613922,1.7216034
					C235.1482086,179.4954224,237.3388519,180.8522186,237.3388519,182.5396729z"/>
				<path class="st28" d="M194.331543,179.4701538c-2.1680756-1.1704407-4.8928986-0.3826294-6.0988464,1.7719116
					c1.1240845,0.3824921,2.3394012,0.6078491,3.4602661,0.2160339S193.690567,180.4696655,194.331543,179.4701538z"/>
				<path class="st28" d="M205.6609039,184.1811523c-1.1734467-2.1664429-3.8849335-2.9990387-6.0736694-1.8563538
					c0.7312164,0.9355011,1.6248169,1.7894745,2.777298,2.0752716
					C203.5169983,184.6858673,204.577301,184.666626,205.6609039,184.1811523z"/>
				<path class="st28" d="M216.868515,177.8262939c-1.9485016-1.5079193-4.7652588-1.1743774-6.3059845,0.7549896
					c1.0467682,0.5604553,2.2091675,0.9807281,3.378891,0.7766876
					C215.1111298,179.1539307,216.0733185,178.7080688,216.868515,177.8262939z"/>
				<path class="st28" d="M220.2328796,185.5322418c-1.9485016-1.5079041-4.7652588-1.1743774-6.3059845,0.7550049
					c1.0467834,0.5604553,2.2091827,0.9807281,3.378891,0.7766876S219.4376831,186.4140167,220.2328796,185.5322418z"/>
				<path class="st28" d="M229.627655,182.0830231c-1.3220825-2.079071-4.0851593-2.7200012-6.1886292-1.4270477
					c0.7948608,0.8820801,1.7460022,1.671463,2.9156342,1.8759613S228.580658,182.6430817,229.627655,182.0830231z"/>
				<circle class="st11" cx="202.6240692" cy="178.2611694" r="1.3030013"/>
				<circle class="st11" cx="210.1634674" cy="185.8515472" r="1.3030013"/>
				<circle class="st11" cx="220.3287201" cy="179.6230927" r="1.3030013"/>
				<circle class="st11" cx="233.6423035" cy="182.0570984" r="1.3030013"/>
				<circle class="st11" cx="193.7015533" cy="184.2825165" r="1.3030013"/>
			</g>
		</g>
	</g>
</g>
</svg>
