<?xml version="1.0" encoding="utf-8"?>
<!-- Generator: Adobe Illustrator 22.0.1, SVG Export Plug-In . SVG Version: 6.00 Build 0)  -->
<svg version="1.1" id="Layer_1" xmlns="http://www.w3.org/2000/svg" xmlns:xlink="http://www.w3.org/1999/xlink" x="0px" y="0px"
	 viewBox="0 0 300 300" style="enable-background:new 0 0 300 300;" xml:space="preserve">
<style type="text/css">
	.st0{fill:#EDC1A4;}
	.st1{fill:#E2E0E0;}
	.st2{fill:#D39E81;}
	.st3{fill:#502E26;}
	.st4{fill:#CCCACA;}
	.st5{fill:#426800;}
	.st6{fill:#538705;}
	.st7{fill:#D47E44;}
	.st8{fill:#73341D;}
	.st9{fill:#BC672E;}
	.st10{fill:#96311D;}
	.st11{fill:#B83E21;}
	.st12{fill:#DE8D82;}
	.st13{fill:#EFBAB4;}
	.st14{fill:#FDD5D0;}
	.st15{fill:#6883CE;}
	.st16{fill:#3D4885;}
	.st17{fill:#3859AE;}
	.st18{fill:#864424;}
	.st19{fill:#FEFEFE;}
	.st20{fill:#FFFFFF;}
	.st21{fill:#A55925;}
	.st22{fill:#F4F2F2;}
	.st23{fill:#3C3E68;}
	.st24{fill:#E8997C;}
	.st25{fill:#F5C46B;}
	.st26{fill:#F7EBDA;}
	.st27{fill:#0E0C0D;}
	.st28{fill:#657C3A;}
	.st29{fill:#576C37;}
	.st30{fill:#7C995D;}
	.st31{fill:#36518C;}
	.st32{fill:#96B7E3;}
	.st33{fill:#A3B3DF;}
	.st34{fill:url(#SVGID_1_);}
	.st35{fill:url(#SVGID_2_);}
	.st36{fill:url(#SVGID_3_);}
	.st37{fill:url(#SVGID_4_);}
	.st38{fill:url(#SVGID_5_);}
	.st39{fill:#266AB7;}
	.st40{fill:#060E0D;}
	.st41{fill:#E0D4C6;}
	.st42{fill:#787E42;}
	.st43{fill:#D3D1D1;}
	.st44{fill:url(#SVGID_6_);}
	.st45{fill:url(#SVGID_7_);}
	.st46{fill:url(#SVGID_8_);}
	.st47{fill:#020508;}
	.st48{fill:#BAB6B6;}
	.st49{fill:#0F0B07;}
	.st50{fill:#2F3A68;}
	.st51{fill:#203257;}
	.st52{opacity:0.5;fill:#FFFFFF;}
	.st53{opacity:0.2;fill:#0E0C0D;}
	.st54{fill:#DD9F9B;}
	.st55{fill:#3E4D9B;}
	.st56{fill:url(#SVGID_9_);}
	.st57{fill:#5F6194;}
	.st58{fill:url(#SVGID_10_);}
	.st59{fill:url(#SVGID_11_);}
	.st60{fill:url(#SVGID_12_);}
	.st61{fill:url(#SVGID_13_);}
	.st62{fill:#070102;}
	.st63{fill:#100805;}
	.st64{fill:#FDA465;}
	.st65{fill:#2A50A1;}
	.st66{fill:#B76C39;}
	.st67{fill:#130602;}
	.st68{fill:url(#SVGID_14_);}
	.st69{fill:url(#SVGID_15_);}
	.st70{fill:url(#SVGID_16_);}
	.st71{fill:url(#SVGID_17_);}
	.st72{fill:url(#SVGID_18_);}
	.st73{fill:url(#SVGID_19_);}
	.st74{fill:#B4BDED;}
	.st75{fill:#100D08;}
	.st76{fill:#F6C85F;}
	.st77{fill:#FECF00;}
	.st78{fill:#2D59E2;}
	.st79{fill:#121F3A;}
	.st80{fill:#BBD0F5;}
	.st81{fill:#020202;}
	.st82{fill:#E2CFB7;}
	.st83{fill:#080805;}
	.st84{fill:#A87D7C;}
	.st85{fill:#182052;}
	.st86{fill:#EAEAEA;}
	.st87{fill:#DDDDDD;}
	.st88{fill:#3D4574;}
	.st89{fill:#ABC5F0;}
	.st90{fill:url(#SVGID_20_);}
	.st91{fill:#4159A8;}
	.st92{fill:#E0D0BD;}
	.st93{fill:#3D53AA;}
	.st94{fill:#0A0000;}
	.st95{fill:#BF6D36;}
	.st96{fill:#385DAE;}
	.st97{fill:#E0DCDC;}
	.st98{fill:#857E78;}
	.st99{fill:#0E213C;}
	.st100{fill:url(#SVGID_21_);}
	.st101{fill:#55608E;}
	.st102{opacity:0.3;fill:#F4F2F2;}
	.st103{opacity:0.3;}
	.st104{fill:#213987;}
	.st105{enable-background:new    ;}
</style>
<g id="_Food_Stall_1_">
	<g id="_Food_Stall">
		<g>
			<path class="st1" d="M214.5471344,70.0714874C189.5449677,92.2360382,42.0681725,78.1429901,75.1051559,47.0191612
				c3.9683533-3.729763,8.6035233-6.4054794,13.3950653-8.9328575c13.1645203-6.9570255,27.210022-11.5426483,41.8153152-14.3831844
				c11.6072998-2.261919,14.7019653-2.5007591,25.4316711,0.6588783c16.400116,4.8163719,31.4005737,13.296175,45.3719025,23.002882
				c4.2302399,2.936058,13.0220642,8.9387321,15.3134155,13.5924492
				C217.9461365,63.9856644,217.3333588,67.610199,214.5471344,70.0714874z"/>
			<path class="st4" d="M214.5435486,70.0737C191.8681183,90.1758804,64.5969467,80.5589523,70.6394577,53.9699516
				c31.8977509-14.9550629,112.3454819-11.5549736,145.7894592,6.9899864
				C217.9429474,63.9874191,217.3299408,67.6130981,214.5435486,70.0737z"/>
			<path class="st53" d="M207.9489288,56.9913864C180.9308319,68.3395309,107.4524002,64.5164337,80.8153992,50.26511
				C114.7515869,40.5593452,174.4714813,43.6005859,207.9489288,56.9913864z"/>
			<path class="st3" d="M151.2679138,106.7114258c-3.3559113-1.9237976-4.2591705-6.1409836-3.0919037-7.9312286
				c0.4704895-0.7215805,1.4093933-1.1822281,2.2229156-0.8989868c0.1763611-1.2218628,0.4852448-2.5009842,1.3554077-3.3766785
				c0.870163-0.8757019,2.4630737-1.1324387,3.3084564-0.2327805c0.1400146-1.0149994,0.9699707-1.8975143,1.974472-2.0995255
				s2.111084,0.2910538,2.6325989,1.1730118c0.4906921-1.1567307,1.910202-1.8268356,3.1151276-1.4705276
				c1.2049408,0.356308,2.031723,1.6906586,1.8143921,2.9282227c0.7697144-0.5371552,1.9076233-0.4643631,2.6026001,0.1665039
				c0.6949921,0.6308594,0.8772583,1.7564316,0.4168854,2.574379c1.9622345-0.3940811,3.5618896,1.6188965,2.7345123,3.4414749
				c1.7478333,0.9906235,1.8351593,3.51017,0.1405945,4.6121216c1.0888977,0.9726639,0.5289459,2.7923279-0.916748,2.98629
				c0.2865295,0.6938553,0.1099854,1.5537109-0.4267731,2.0785294c-0.5367432,0.5248184-1.4003601,0.6819916-2.0876007,0.3799362
				c0.0737,0.624382-0.3722229,1.2268143-0.9421692,1.4922562c-0.569931,0.2654419-1.2322845,0.2507095-1.8507843,0.1378479
				c-2.0697632-0.3776855-3.8003693-1.7445984-5.4367981-3.0669632L151.2679138,106.7114258z"/>
			<path class="st7" d="M168.1673431,117.9403229l-0.4363708,4.8493347l-3.8119812,4.3468323l-6.5946198-0.2962723
				l-3.1778107-2.4863739c0.0226288-0.1002502,1.8979034-8.4093704,1.778244-7.8792191
				c0.0127716-0.1008759,0.5531616-4.3724747,0.518692-4.1000061l9.4350433-2.7826462
				c0.0239868,0.1024857,0.3862,1.6501846,0.3622131,1.5477066c0.1663666,0.7277451,1.0705414,4.6829529,1.0126343,4.4296417
				L168.1673431,117.9403229z"/>
			<path class="st3" d="M165.9937439,110.1024628c-0.263443-0.1728897-0.6257019-0.1070251-0.9303131-0.0246964
				c-2.9332581,0.7651978-6.3022461,1.8207855-8.7928314,3.6472092l-0.3457794,2.7498093
				c-0.1043549,0.4640961-0.9955597,4.4276352-0.9385529,4.174118l0.9056244,0.5186768
				c2.2969971-0.9797211,4.5610657-2.1241074,6.4546509-3.7460022c1.8935852-1.630127,3.4084473-3.7871704,3.8859711-6.240593
				c0-0.0082321,0-0.024704,0.0082245-0.0329361v-0.0082321L165.9937439,110.1024628z"/>
			<path class="st7" d="M135.6408997,140.3990173c-7.8653564,11.1422119-15.7307053,22.2844086-23.5960617,33.4266052
				c3.8034286,0.1922302,7.5751877,0.9978943,11.1252289,2.3763885c2.7512283-5.4541473,8.275383-8.8335876,12.6622391-13.0847626
				c5.324646-5.1599731,9.1174774-11.8815765,10.7816467-19.1070709"/>
			<path class="st1" d="M167.8197021,115.7236404l-0.5625305-0.1567078c0,0,0.0697937,6.0259476-3.6451111,7.3916016
				c-3.71492,1.365654-6.4552917-1.0898895-6.8530884-2.7298203s-0.8359375-3.7567215-0.8359375-3.7567215l-1.0755463,0.5101852
				l-2.0842133,5.5178299l-3.0233765,21.0143661l5.2462006,6.5823517l11.5966644-2.1738129l8.2518768-3.3018188l0.791275-5.0630951
				l-6.803009-23.0860062L167.8197021,115.7236404z"/>
			<path class="st1" d="M153.3278351,117.6088791c0,0-7.983963-0.0240631-14.3412476,11.3305283
				s-5.087204,13.1483002-5.087204,13.1483002s7.4980164,7.5814209,10.6005707,8.323349
				c3.1025696,0.7419128,6.7793884-16.7335205,6.7793884-16.7335205L153.3278351,117.6088791z"/>
			<path class="st57" d="M146.4446564,142.358078l1.8976746,0.2068634c0,0,2.6804047-19.1203461,4.9855042-24.9560623
				c0,0,0.9147339-0.7045135,1.6982574-0.7114182c0,0-4.0439453,23.2491455-3.4594879,25.8914185
				c0,0,11.4359589,1.3666992,20.2460938-1.8649139l-3.9929962-25.2002792
				c0.657074,0.0948792,1.2746429,0.3284378,1.8387604,0.7481232c0,0,3.0881653,19.6503067,6.4203491,25.1385727
				s5.3519287,13.3364563,5.3519287,13.3364563s0.9806061,18.4191589-0.3162231,28.0022736l-39.9144287-3.9674072
				c0,0,4.2058105-18.2137146,5.0729065-24.7316895C146.8820343,149.6719208,146.4446564,142.358078,146.4446564,142.358078z"/>
			<path class="st18" d="M141.9864349,44.8477516c-3.0166016,14.8894882-24.9626846,123.2118988-27.9673843,138.0426178
				l-3.0297775-6.8581238c3.7120819-18.0488739,23.8213806-115.818161,27.0123291-131.332428
				C139.3189697,44.7327766,140.6443634,44.7822227,141.9864349,44.8477516z"/>
			<g>
				<polygon class="st15" points="210.421524,247.5991516 92.6093063,247.5991516 87.7238617,186.7241516 215.3069763,186.7241516 
									"/>
				<polygon class="st7" points="205.8242645,242.7538147 97.2065582,242.7538147 92.7023849,189.0996094 210.3284454,189.0996094 
									"/>
				<polygon class="st11" points="73.3373108,188.9624939 84.0845413,171.2352905 215.1136475,171.2352905 229.693512,188.9624939 
									"/>
				<rect x="73.3373108" y="188.9624939" class="st26" width="156.3562164" height="3.5840216"/>
			</g>
			<g>
				<g>
					<path class="st3" d="M106.9787827,262.0762634l34.2827072-29.7275238
						c0.3733826-0.326416,0.8665771,0.2419128,0.4912109,0.5664063l-34.2827072,29.7275238
						C107.0951385,262.9684143,106.6037979,262.4004517,106.9787827,262.0762634z"/>
				</g>
				<g>
					<path class="st3" d="M141.3171539,262.5809021L106.92556,232.9788666
						c-0.3761597-0.3240204,0.1133423-0.8917389,0.4892578-0.5683594l34.3915939,29.6020355
						C142.1830902,262.3370056,141.6920319,262.9040833,141.3171539,262.5809021z"/>
				</g>
				<g>
					<path class="st3" d="M123.6828842,270.1768494l0.6162109-45.3725433c0.0058823-0.498703,0.7570038-0.4844666,0.75,0.0102539
						l-0.6162109,45.3725433C124.4257431,270.6877136,123.6758423,270.6746216,123.6828842,270.1768494z"/>
				</g>
				<path class="st3" d="M124.1572876,217.8449402c-16.4412308,0-29.7622223,13.3210907-29.7622223,29.7540741
					s13.3209915,29.7540741,29.7622223,29.7540741c16.4329834,0,29.7539825-13.3210754,29.7539825-29.7540741
					S140.590271,217.8449402,124.1572876,217.8449402z M124.1572876,272.3144226
					c-13.658577,0-24.7236481-11.0650635-24.7236481-24.7154083c0-13.6503296,11.0650711-24.7154083,24.7236481-24.7154083
					c13.6503296,0,24.7154083,11.0650787,24.7154083,24.7154083
					C148.8726959,261.2493591,137.8076172,272.3144226,124.1572876,272.3144226z"/>
				<g>
					<path class="st3" d="M146.8654938,247.9742279h-47.431633c-0.4960175,0-0.496315-0.75,0-0.75h47.431633
						C147.3615112,247.2242279,147.3618164,247.9742279,146.8654938,247.9742279z"/>
				</g>
				<circle class="st3" cx="124.153511" cy="247.5991669" r="4.4613695"/>
				<path class="st1" d="M124.1572876,269.5233154c-12.1106796,0-21.9244156-9.8136292-21.9244156-21.9243011
					s9.813736-21.9243164,21.9244156-21.9243164c12.1024323,0,21.924408,9.8136444,21.924408,21.9243164
					S136.2597198,269.5233154,124.1572876,269.5233154z M124.1572876,222.883606
					c-13.658577,0-24.7236481,11.0650787-24.7236481,24.7154083c0,13.6503448,11.0650711,24.7154083,24.7236481,24.7154083
					c13.6503296,0,24.7154083-11.0650635,24.7154083-24.7154083
					C148.8726959,233.9486847,137.8076172,222.883606,124.1572876,222.883606z"/>
			</g>
			<g>
				<g>
					<path class="st3" d="M180.1316071,267.3904724l23.6196289-20.4809418
						c0.3744049-0.3256989,0.8662567,0.2421875,0.4912109,0.5664063l-23.6196289,20.4809418
						C180.2479706,268.2826233,179.7566376,267.7146606,180.1316071,267.3904724z"/>
				</g>
				<g>
					<path class="st3" d="M203.7893219,267.9146423l-23.6938477-20.3942719
						c-0.3754883-0.3234558,0.1122131-0.8927155,0.4892578-0.5683594l23.6938477,20.3942719
						C204.6552582,267.6707458,204.1641998,268.2378235,203.7893219,267.9146423z"/>
				</g>
				<g>
					<path class="st3" d="M191.5998688,273.0579529l0.4243164-31.2595062c0.0072937-0.5152283,0.7568512-0.4734802,0.75,0.0102539
						l-0.4243164,31.2595062C192.3427277,273.5688171,191.5928345,273.5557251,191.5998688,273.0579529z"/>
				</g>
				<path class="st3" d="M192.0432434,237.0053101c-11.3272095,0-20.5047455,9.177597-20.5047455,20.4991455
					c0,11.3215332,9.177536,20.4991455,20.5047455,20.4991455c11.3215485,0,20.4990692-9.1776123,20.4990692-20.4991455
					C212.5423126,246.1829071,203.3647919,237.0053101,192.0432434,237.0053101z M192.0432434,274.5321655
					c-9.4100952,0-17.0334015-7.623291-17.0334015-17.02771c0-9.4044342,7.6233063-17.0277405,17.0334015-17.0277405
					c9.4044342,0,17.0277405,7.6233063,17.0277405,17.0277405
					C209.0709839,266.9088745,201.4476776,274.5321655,192.0432434,274.5321655z"/>
				<g>
					<path class="st3" d="M207.6882477,257.8794861H175.010025c-0.2070313,0-0.375-0.1679688-0.375-0.375
						s0.1679688-0.375,0.375-0.375h32.6782227C208.1842651,257.1294861,208.1845703,257.8794861,207.6882477,257.8794861z"/>
				</g>
				<circle class="st3" cx="192.0406494" cy="257.5045471" r="3.0736704"/>
				<path class="st1" d="M192.0432434,272.6092529c-8.3436737,0-15.1048737-6.7611389-15.1048737-15.1047974
					c0-8.343689,6.7612-15.1048126,15.1048737-15.1048126c8.3379974,0,15.1048737,6.7611237,15.1048737,15.1048126
					C207.1481171,265.848114,200.3812408,272.6092529,192.0432434,272.6092529z M192.0432434,240.4767151
					c-9.4100952,0-17.0334015,7.6233063-17.0334015,17.0277405c0,9.4044189,7.6233063,17.02771,17.0334015,17.02771
					c9.4044342,0,17.0277405-7.623291,17.0277405-17.02771
					C209.0709839,248.1000214,201.4476776,240.4767151,192.0432434,240.4767151z"/>
			</g>
			<path class="st15" d="M177.9165039,174.7793884c0,0,0.0948029,7.240509,9.8073578,8.8607788
				c9.8895416,1.6498108,23.1426849,1.4888153,28.6693115-0.1814575c3.1341553-0.9472198,8.3367004-3.2450714,8.7688751-8.6793213
				H177.9165039z"/>
			<path class="st16" d="M225.1561584,174.7749176c0,4.1640167-26.7913361,6.0071106-40.7179108,3.1327515
				c-8.3412323-1.6697693-7.9027252-3.9927979-3.0411377-5.5006256c8.7431488-2.6977081,31.1387482-2.9830017,40.6465302,0.1121063
				C223.0797272,172.8755646,225.1561584,173.6706848,225.1561584,174.7749176z"/>
			<path class="st13" d="M198.9395142,164.5699158c-0.2329102,1.7522278-0.6551208,3.7062378-1.336853,5.7348328
				c-1.2248383,3.5666199-3.3445282,7.1704712-4.6840668,8.6946869c-3.7953644-0.2457428-7.9218597-0.8148956-11.3173676-1.7858887
				c2.7021179-6.5967712,11.1654205-15.8759918,13.6032867-16.9194641c0.9077454-0.3975525,1.8288422-0.3343353,2.4593658,0.009964
				C199.0517578,161.0793915,199.143631,163.0082703,198.9395142,164.5699158z"/>
			<path class="st7" d="M198.9395142,164.5699158c-0.2329102,1.7522278-0.6551208,3.7062378-1.336853,5.7348328
				c-1.2248383,3.5666199-3.3445282,7.1704712-4.6840668,8.6946869c-1.5370483-0.0995331-3.4341278-0.3093262-4.959671-0.5102539
				c3.2925873-5.7749481,7.736557-11.4455566,9.3478088-18.3281403c0.122467,0.0204315,0.2449188,0.0817261,0.3571472,0.1430054
				C199.0517578,161.0793915,199.143631,163.0082703,198.9395142,164.5699158z"/>
			<path class="st13" d="M208.5628204,166.9577332c-0.4922333,4.0474243-2.0260468,8.4667053-4.5310211,12.337677
				c-3.9037933,0.0964813-8.3613434-0.0313873-12.5011292-0.4080963
				c2.1495514-4.7447662,7.3415985-11.1395569,11.2152863-14.7155304c1.4290314-1.2703705,2.8360748-2.3280182,4.5514526-1.4694519
				C208.6751251,163.4572296,208.7771454,165.3861237,208.5628204,166.9577332z"/>
			<path class="st7" d="M208.5628204,166.9577332c-0.4922333,4.0474243-2.0260468,8.4667053-4.5310211,12.337677
				c-1.1835938,0.0292511-5.1544037,0.0239563-5.5004425-0.0204315c3.2099304-5.3274078,6.985611-10.6332855,8.3986816-16.7256317
				c0.122467,0.0303955,0.2449188,0.0916901,0.3673706,0.1529846
				C208.6751251,163.4572296,208.7771454,165.3861237,208.5628204,166.9577332z"/>
			<path class="st13" d="M217.032959,168.9070435c-0.4512177,3.4088745-1.4907379,6.7247009-3.0410767,9.7351074
				c-1.7103271,0.2923126-9.9530334,0.7919617-13.2358551,0.6637268c1.5847626-2.931015,4.4852905-6.7397156,6.0719299-8.5726013
				h0.0102081c1.2394257-1.4821625,4.6715088-5.31987,6.4495697-6.0921021
				c0.801239-0.3454742,1.6632538-0.395401,2.4798126,0.009964
				C217.1452637,165.4165192,217.2370605,167.3453979,217.032959,168.9070435z"/>
			<path class="st7" d="M217.032959,168.9070435c-0.4512177,3.4088745-1.4907379,6.7247009-3.0410767,9.7351074
				c-0.246582,0.0421448-4.7402496,0.4903259-5.7045593,0.4903259c2.9097595-4.6556091,5.8475342-9.3004303,7.112854-14.6343079
				c0.1224518,0.0308838,0.2449188,0.0921783,0.3673706,0.1529694
				C217.1452637,165.4165192,217.2370605,167.3453979,217.032959,168.9070435z"/>
			<path class="st13" d="M222.0946503,172.172348c-0.2787628,1.6725616-0.4595184,2.9270477-1.336853,5.2454987h-0.0102081
				c-3.1404419,0.8672485-7.2478027,1.3112946-10.4499054,1.5815887c1.6985321-2.8190002,6.6159668-9.0648346,8.9293671-10.1028595
				c0.6105804-0.2616272,1.2949677-0.2929535,1.8981171,0.0104675
				C222.1763153,169.4985199,222.247757,170.9784393,222.0946503,172.172348z"/>
			<path class="st7" d="M222.0946503,172.172348c-0.2787628,1.6725616-0.4595184,2.9270477-1.336853,5.2454987h-0.0102081
				c-1.1906891,0.3288116-3.2848358,0.7328186-4.2962646,0.8775024c1.8371582-3.0014343,3.5974579-6.0743866,4.3881378-9.5009155
				c0.0918121,0.0204315,0.1836853,0.0612793,0.2857056,0.1126099
				C222.1763153,169.4985199,222.247757,170.9784393,222.0946503,172.172348z"/>
			<g>
				
					<linearGradient id="SVGID_1_" gradientUnits="userSpaceOnUse" x1="-2177.8530273" y1="629.2005005" x2="-2168.4418945" y2="629.2005005" gradientTransform="matrix(0.8351887 -0.5499634 0.5499634 0.8351887 1590.9191895 -1557.2773438)">
					<stop  offset="0" style="stop-color:#616C2D"/>
					<stop  offset="1" style="stop-color:#908B42"/>
				</linearGradient>
				<path class="st34" d="M119.182785,167.7017212c-1.5261536-2.9076538-0.7496796-6.5639648,1.9530563-8.5742798
					c1.2481766,2.7447815,0.9801102,6.1239319-0.6852112,8.6375885c0.9443741-2.8014832,3.4540787-5.0164032,6.3512192-5.6052246
					c-0.8708572,3.231369-3.5787811,5.8986664-6.822937,6.7205658"/>
				
					<linearGradient id="SVGID_2_" gradientUnits="userSpaceOnUse" x1="-3265.8339844" y1="-147.8538513" x2="-3257.6501465" y2="-147.8538513" gradientTransform="matrix(0.5687759 -0.8224925 0.8224925 0.5687759 2086.295166 -2434.9370117)">
					<stop  offset="0" style="stop-color:#616C2D"/>
					<stop  offset="1" style="stop-color:#908B42"/>
				</linearGradient>
				<path class="st35" d="M108.6474609,168.1209412c-2.1767349-1.8483276-2.7401047-5.0495605-1.2145462-7.5500793
					c1.8995667,1.8074188,2.7827759,4.6197357,2.2575836,7.1886444c-0.1498566-2.5664825,1.1534729-5.1691895,3.2982788-6.5866089
					c0.348999,2.8892365-0.9670029,5.9212646-3.3158188,7.6395416"/>
				<polygon class="st3" points="144.1964111,179.4962463 77.3618317,179.4962463 85.3163681,168.4102783 137.1796875,167.938858 
									"/>
				<path class="st7" d="M77.3618317,179.4962463L77.3618317,179.4962463c0,2.347229,1.9028015,4.2500305,4.2500229,4.2500305
					h58.3345413c2.347229,0,4.2500305-1.9028015,4.2500305-4.2500305l0,0H77.3618317z"/>
				
					<linearGradient id="SVGID_3_" gradientUnits="userSpaceOnUse" x1="-5153.6875" y1="-993.5422363" x2="-5145.6464844" y2="-993.5422363" gradientTransform="matrix(0.1405562 -0.9900727 0.9900727 0.1405562 1799.4008789 -4795.3447266)">
					<stop  offset="0" style="stop-color:#616C2D"/>
					<stop  offset="1" style="stop-color:#908B42"/>
				</linearGradient>
				<path class="st36" d="M93.0996704,167.7821808c-2.7253418-0.6669312-4.6279678-3.2319946-4.3870239-6.0999146
					c2.4638214,0.7528534,4.4764633,2.835556,5.144577,5.3237c-1.2601776-2.1891785-1.2594376-5.0491638,0.0018692-7.2376862
					c1.5770798,2.3851929,1.7539749,5.6279755,0.4457016,8.170578"/>
				<g>
					<path class="st7" d="M101.8937759,171.2984009c-0.4935303,1.7337494-1.9218369,2.813324-3.3015747,3.8747559
						c-1.7286301,1.3298187-3.5674438,2.7069244-5.7301025,2.9888c-2.2293549,0.2905731-4.3748856-1.2116241-5.1473083-3.2716675
						c-0.4285736-1.1430206-0.5167923-1.9726105,0.07621-3.0337219
						C93.9104767,160.9065094,103.5082245,165.6269684,101.8937759,171.2984009z"/>
					<path class="st13" d="M100.5661469,170.9955292c-0.4542313,1.5734558-1.8592224,2.5465851-3.2677841,3.6038055
						c-1.3234634,0.9871979-2.7282028,1.9341278-4.3571243,2.1379395c-1.8833008,0.2440643-3.6952744-1.0180206-4.3469391-2.7384033
						c-0.4216156-1.1018066-0.4203796-1.7886505,0.2036743-2.7895966
						C93.9509659,162.3490906,101.9218216,166.2897339,100.5661469,170.9955292z"/>
					<path class="st14" d="M100.5661469,170.9955292c-0.4542313,1.5734558-1.8592224,2.5465851-3.2677841,3.6038055
						c-2.4234772,0.6328888-4.3872604-0.7937927-5.0696869-2.5957336c-0.3664703-0.9573669-0.4376755-1.649292,0.061142-2.53508
						c0.6612778-1.1899719,1.5756607-2.4909973,2.5856705-3.4203949c0.0610123-0.0203705,0.1119614-0.0308228,0.1731033-0.0407562
						C98.6424637,165.3558807,101.3919296,168.1290741,100.5661469,170.9955292z"/>
					<path class="st11" d="M88.4001007,172.821991c-0.0681229,0.5632629,0.2283554,1.2144165,0.7810287,1.3426819
						c0.9110794,0.2114258,1.6923447-1.0421143,2.6000671-0.8166962c0.4860077,0.120697,0.7622223,0.6146393,1.0328598,1.0359802
						c0.7579651,1.1799927,1.7088928,0.9396973,1.9674454-0.2910004c0.0945358-0.4499512,0.1368103-0.9477997,0.4532776-1.2813263
						c0.6562271-0.6915894,1.9586716-0.1813965,2.6770172-0.8082275c0.6095963-0.5319366,0.4186096-1.506958,0.1764526-2.2789307
						c-0.159874-0.5096588-0.3197479-1.0193176-0.4796219-1.5289917c-0.2352524-0.749939-0.6432877-1.6419678-1.4282455-1.6821136
						c-1.1182251-0.0571594-1.6753769,1.6903839-2.7946091,1.6587219c-0.5508118-0.0155792-1.127327-0.4778137-1.5958862-0.187851
						c-0.5397034,0.3339996-0.2461929,1.2423553-0.6494751,1.7324524c-0.3141556,0.3817749-0.8921967,0.3465271-1.3801422,0.4275208
						c-0.7281723,0.1209869-0.759697,0.5670776-0.8782501,1.1242371
						C88.7705841,171.7921143,88.4653397,172.2825623,88.4001007,172.821991z"/>
				</g>
				<g>
					<path class="st7" d="M101.9535599,176.881897c1.6055145,0.6186676,3.2486343,0.1489563,4.850029-0.2941132
						c2.00634-0.5551147,4.111969-1.1671448,5.5681839-2.6547394c1.5011215-1.5334778,1.5868683-4.0319519,0.4590683-5.8033905
						c-0.6257553-0.9828796-1.2078171-1.5262909-2.3574371-1.6830444
						C98.4653244,164.8092804,96.7988434,174.8955841,101.9535599,176.881897z"/>
					<path class="st13" d="M102.4845581,175.6955261c1.4607086,0.5566406,3.0092621,0.0436401,4.6239929-0.4238434
						c1.5124893-0.4427643,3.0409088-0.9706116,4.1312485-2.0959625c1.2670364-1.2962494,1.3444595-3.4025269,0.4064102-4.8869171
						c-0.59832-0.9539185-1.1228638-1.3471985-2.2444153-1.4457245
						C99.6464996,165.6830444,98.1383667,174.0365448,102.4845581,175.6955261z"/>
					<path class="st14" d="M102.4845581,175.6955261c1.4607086,0.5566406,3.0092621,0.0436401,4.6239929-0.4238434
						c1.8736038-1.4850464,1.9126205-3.8015747,0.9300308-5.3562469c-0.669899-1.0682983-1.2258911-1.3491821-2.2501907-1.4380493
						c-1.5300064-0.1936951-2.844017-0.1391754-3.8109283,0.0385895c-0.0505676,0.0348358-0.0877686,0.0677032-0.1304398,0.1086273
						C99.2874908,170.9915924,99.8244705,174.6801453,102.4845581,175.6955261z"/>
					<path class="st11" d="M110.8601151,167.4652405c0.4686737,0.2713165,0.7951202,0.8711548,0.575737,1.366272
						c-0.3616562,0.8161926-1.7660828,0.6925812-2.1151352,1.5142365c-0.1868973,0.4399414,0.0312881,0.934082,0.1972885,1.382309
						c0.4649124,1.2553253-0.2641296,1.8426361-1.35112,1.3334808c-0.3974228-0.186142-0.8013763-0.4396362-1.237381-0.3897095
						c-0.9040833,0.1035461-1.2625046,1.3896942-2.1528473,1.5777893c-1.0884933,0.22995-1.9364929-1.3090057-2.7301483-2.4167328
						c-0.4369354-0.609848-0.8830643-1.4330139-0.4631577-2.0547028c0.5981903-0.8856354,2.2507477-0.3075714,2.8689804-1.1793365
						c0.304245-0.4290161,0.282608-1.1340027,0.7726822-1.3249359c0.564476-0.2199097,1.0887833,0.5252686,1.6940155,0.4989929
						c0.4714813-0.020462,0.7763672-0.4815521,1.1181793-0.8072052c0.5102005-0.4859161,0.8685074-0.2539215,1.3614731-0.0245667
						C109.86203,167.1567078,110.4112625,167.2053986,110.8601151,167.4652405z"/>
				</g>
				<g>
					<path class="st7" d="M111.8830185,176.881897c1.6055145,0.6186676,3.2486267,0.1489563,4.850029-0.2941132
						c2.00634-0.5551147,4.1119614-1.1671448,5.5681839-2.6547394c1.5011215-1.5334778,1.5868683-4.0319519,0.4590683-5.8033905
						c-0.6257629-0.9828796-1.2078171-1.5262909-2.3574448-1.6830444
						C108.394783,164.8092804,106.7282944,174.8955841,111.8830185,176.881897z"/>
					<path class="st13" d="M112.4140167,175.6955261c1.460701,0.5566406,3.0092545,0.0436401,4.6239929-0.4238434
						c1.5124893-0.4427643,3.0409088-0.9706116,4.1312485-2.0959625c1.2670364-1.2962494,1.3444595-3.4025269,0.4064102-4.8869171
						c-0.59832-0.9539185-1.1228638-1.3471985-2.2444153-1.4457245
						C109.4814911,165.6717987,108.1437988,174.0655518,112.4140167,175.6955261z"/>
					<path class="st14" d="M112.4140167,175.6955261c1.460701,0.5566406,3.0092545,0.0436401,4.6239929-0.4238434
						c1.8736038-1.4850464,1.9126205-3.8015747,0.9300308-5.3562469c-0.669899-1.0682983-1.2258911-1.3491821-2.2501907-1.4380493
						c-1.5300064-0.1936951-2.844017-0.1391754-3.810936,0.0385895c-0.05056,0.0348358-0.0877609,0.0677032-0.1304398,0.1086273
						C109.2169495,170.9915924,109.7539291,174.6801453,112.4140167,175.6955261z"/>
					<path class="st11" d="M120.789566,167.4652405c0.4686737,0.2713165,0.7951279,0.8711548,0.575737,1.366272
						c-0.3616486,0.8161926-1.7660751,0.6925812-2.1151352,1.5142365c-0.1868896,0.4399414,0.0312881,0.934082,0.1972961,1.382309
						c0.4649124,1.2553253-0.2641296,1.8426361-1.3511276,1.3334808c-0.3974152-0.186142-0.8013687-0.4396362-1.2373734-0.3897095
						c-0.9040833,0.1035461-1.2625046,1.3896942-2.1528473,1.5777893c-0.7555695,0.1596069-1.3895645-0.545639-1.839325-1.1734009
						c-0.2969437-0.414444-0.5938873-0.8288879-0.8908234-1.2433319c-0.4369354-0.609848-0.8830719-1.4330139-0.4631577-2.0547028
						c0.5981903-0.8856354,2.2507401-0.3075714,2.8689804-1.1793365c0.304245-0.4290161,0.282608-1.1340027,0.7726746-1.3249359
						c0.564476-0.2199097,1.0887909,0.5252686,1.6940231,0.4989929c0.4714813-0.020462,0.7763672-0.4815521,1.1181793-0.8072052
						c0.5102005-0.4859161,0.8685074-0.2539215,1.3614731-0.0245667
						C119.7914886,167.1567078,120.3407211,167.2053986,120.789566,167.4652405z"/>
				</g>
				
					<linearGradient id="SVGID_4_" gradientUnits="userSpaceOnUse" x1="-583.9660645" y1="953.3613892" x2="-575.2521973" y2="953.3613892" gradientTransform="matrix(0.9934335 -0.1144112 0.1144112 0.9934335 603.7861938 -845.5061035)">
					<stop  offset="0" style="stop-color:#616C2D"/>
					<stop  offset="1" style="stop-color:#908B42"/>
				</linearGradient>
				<path class="st37" d="M132.9504089,170.3217163c-0.0477142-3.0401306,2.120163-5.737915,5.1930237-6.2713013
					c-0.1140594,2.7894897-1.746048,5.4704285-4.1716003,6.852829c1.9498444-1.9212036,4.9485626-2.7042694,7.5887756-1.9816742
					c-2.0684967,2.3071747-5.4198761,3.3813934-8.4441833,2.7065887"/>
				<g>
					<path class="st7" d="M123.8701782,176.881897c1.6055145,0.6186676,3.2486267,0.1489563,4.8500214-0.2941132
						c2.0063477-0.5551147,4.111969-1.1671448,5.5681915-2.6547394c1.5011139-1.5334778,1.5868683-4.0319519,0.4590607-5.8033905
						c-0.6257477-0.9828796-1.2078094-1.5262909-2.3574371-1.6830444
						C120.3819427,164.8092804,118.7154541,174.8955841,123.8701782,176.881897z"/>
					<path class="st13" d="M124.4011688,175.6955261c1.4607086,0.5566406,3.0092621,0.0436401,4.6239929-0.4238434
						c1.5124969-0.4427643,3.0409241-0.9706116,4.1312561-2.0959625c1.2670288-1.2962494,1.3444519-3.4025269,0.4064026-4.8869171
						c-0.5983124-0.9539185-1.1228638-1.3471985-2.2444153-1.4457245
						C121.4686508,165.6717987,120.1309509,174.0655518,124.4011688,175.6955261z"/>
					<path class="st14" d="M124.4011688,175.6955261c1.4607086,0.5566406,3.0092621,0.0436401,4.6239929-0.4238434
						c1.8736115-1.4850464,1.9126282-3.8015747,0.9300385-5.3562469c-0.6699066-1.0682983-1.2258911-1.3491821-2.2501984-1.4380493
						c-1.5299988-0.1936951-2.8440094-0.1391754-3.8109283,0.0385895c-0.05056,0.0348358-0.0877686,0.0677032-0.1304398,0.1086273
						C121.2041016,170.9915924,121.7410812,174.6801453,124.4011688,175.6955261z"/>
					<path class="st11" d="M132.7767334,167.4652405c0.4686737,0.2713165,0.7951202,0.8711548,0.5757294,1.366272
						c-0.3616486,0.8161926-1.7660828,0.6925812-2.1151276,1.5142365c-0.1869049,0.4399414,0.0312805,0.934082,0.1972809,1.382309
						c0.46492,1.2553253-0.2641296,1.8426361-1.35112,1.3334808c-0.3974152-0.186142-0.8013763-0.4396362-1.237381-0.3897095
						c-0.9040756,0.1035461-1.2624969,1.3896942-2.1528397,1.5777893c-0.7555695,0.1596069-1.3895645-0.545639-1.8393326-1.1734009
						c-0.296936-0.414444-0.5938797-0.8288879-0.8908157-1.2433319c-0.4369431-0.609848-0.8830719-1.4330139-0.4631577-2.0547028
						c0.5981827-0.8856354,2.2507401-0.3075714,2.8689728-1.1793365c0.3042526-0.4290161,0.282608-1.1340027,0.7726822-1.3249359
						c0.564476-0.2199097,1.0887833,0.5252686,1.6940231,0.4989929c0.4714813-0.020462,0.7763672-0.4815521,1.1181793-0.8072052
						c0.5101929-0.4859161,0.8684998-0.2539215,1.3614655-0.0245667
						C131.7786407,167.1567078,132.3278809,167.2053986,132.7767334,167.4652405z"/>
				</g>
			</g>
			<path class="st7" d="M163.993042,100.0755692c0,0-2.6004333-2.8684006-9.105896-0.8533096
				c-6.5054779,2.0150986-4.0974121,4.2583542-4.0241547,5.7452011c0.0732727,1.4868546,0.5963745,10.7449036,5.0921478,11.252243
				c4.4957886,0.5073395,9.9203796-3.988266,10.0665894-5.9915771s0.1946869-3.3304062,0.1946869-3.3304062
				c1.0971069,0,2.2021332,0.3507538,3.0850525-0.3004761s1.3549652-1.838623,1.0995178-2.9055786
				c-0.2554626-1.0669556-1.2567444-1.9270248-2.3533936-1.9591904c-1.0966339-0.0321655-2.1704865,0.8117218-2.342514,1.895256
				C165.4118042,102.4473801,164.6477356,101.1005707,163.993042,100.0755692z"/>
			<path class="st3" d="M154.4802399,103.6304703c0.991745-0.2049484,1.176651,0.46418,0.742218,0.8347015
				c-0.3525543,0.3006973-1.4434662,0.45224-3.0499573,0.9052658c-0.3169403,0.0893784-1.0357971,0.2119598-0.9481506-0.3248138
				c0.0717468-0.439415,0.7609863-0.6536713,1.0964813-0.7895889
				C153.3994141,103.8190536,153.3405457,103.8659821,154.4802399,103.6304703z"/>
			<path class="st3" d="M160.3315735,103.0780334c1.0098419,0.0759201,1.0034332,0.7700958,0.4838104,1.0067444
				c-0.4216919,0.1920471-1.5121918,0.0374985-3.1813202,0.0308914c-0.3292999-0.001297-1.0541382-0.0812988-0.8221283-0.5732193
				c0.1899109-0.4027023,0.911499-0.4189911,1.2714386-0.4573288
				C159.2405853,102.9618683,159.1710663,102.9907913,160.3315735,103.0780334z"/>
			<path class="st3" d="M166.9910431,105.4854889c0.0139465-0.6071854-0.0871277-1.2168121-0.2962494-1.7870102
				c1.2939301-1.1078262,2.2187958,0.3375092,1.2099457,1.2789307
				C167.6605072,105.2053223,167.2955475,105.348114,166.9910431,105.4854889z"/>
			<ellipse class="st3" cx="158.9631195" cy="105.6738052" rx="0.656186" ry="0.9165773"/>
			<ellipse class="st3" cx="153.8594513" cy="106.4020615" rx="0.656186" ry="0.9165773"/>
			<path class="st3" d="M155.2854309,109.1000671c0.141098,0.3146286,0.5318756,0.3057938,0.85466,0.2723618
				c0.8677063-0.0898819,1.2333374-0.3571625,1.1069489-1.2880402c-0.0452423-0.3331146-0.5394287-2.5243378-0.9678955-2.3592072
				c-0.2555237,0.0984802-0.3955078,1.0186691-0.4647217,1.2409973
				C155.26474,108.732132,155.1823425,108.8701935,155.2854309,109.1000671z"/>
			<path class="st20" d="M159.5334473,109.0601578c-1.3954926,1.4293823-3.4941864,2.1367416-5.4702148,1.8437271
				c-0.1048584,0.8349304,0.4311218,1.6994705,1.165741,2.1098862
				C157.3249969,114.1847763,159.9920959,111.9441223,159.5334473,109.0601578z"/>
			<path class="st7" d="M178.3086548,148.5363159c0.0820465,1.0700989-0.4556122,2.1220703-1.2386932,2.8559723
				c-2.623764,2.4589691-8.7578278,2.5336456-11.9664154,2.5116119c-8.5977478-0.0590363-12.6616516,0.1224213-18.229126,6.7865906
				c-0.2910919,0.3484192-0.5791473,0.7207642-0.6868286,1.1618042c-0.2329254,0.9539948,0.5450287,1.6885834,1.4979401,1.1912231
				c0.4552765-0.2376404,0.3823853-0.2210236,4.2830505-4.4765625c-0.1358185,0.340271-0.2373505,0.6304932-0.4522858,0.9079132
				c-0.1931305,0.2492828-0.3558655,0.4639435-0.3999176,0.7892761c-0.2114105,1.5617065,1.8343811,1.7969666,2.4141235,0.5046539
				c-0.8626709,0.9099884-0.4568024,2.2090607,0.4912415,2.370575c0.4876251,0.0830688,1.0282898-0.2521362,1.1138-0.7393341
				c-0.490921,0.5180969-0.4177551,1.4586487,0.1473236,1.8946381c0.951355,0.7340393,2.8400879-0.7441711,3.9570923-0.8490601
				c1.6408691-0.1540833,3.3088379,0.2554321,4.8921967,0.6354523c4.2847595,1.0284119,8.6992188,1.7769165,13.0871735,1.3736877
				c14.3907928-1.3224182,19.3646851-14.2945862,13.8071899-24.5707855"/>
			<path class="st1" d="M169.6584625,116.4719925c0,0,14.1934357,0.0841827,18.7573242,12.4372635
				c4.5638885,12.3530579,4.8310089,14.3038788,4.8310089,14.3038788l-15.0200043,6.1232452l-2.186203-5.1817017
				C171.0517883,132.3303223,170.9839783,123.7555695,169.6584625,116.4719925z"/>
		</g>
	</g>
</g>
</svg>
