<?xml version="1.0" encoding="utf-8"?>
<!-- Generator: Adobe Illustrator 22.0.1, SVG Export Plug-In . SVG Version: 6.00 Build 0)  -->
<svg version="1.1" id="Layer_1" xmlns="http://www.w3.org/2000/svg" xmlns:xlink="http://www.w3.org/1999/xlink" x="0px" y="0px"
	 viewBox="0 0 300 300" style="enable-background:new 0 0 300 300;" xml:space="preserve">
<style type="text/css">
	.st0{fill:#EDC1A4;}
	.st1{fill:#E2E0E0;}
	.st2{fill:#D39E81;}
	.st3{fill:#502E26;}
	.st4{fill:#CCCACA;}
	.st5{fill:#426800;}
	.st6{fill:#538705;}
	.st7{fill:#D47E44;}
	.st8{fill:#73341D;}
	.st9{fill:#BC672E;}
	.st10{fill:#96311D;}
	.st11{fill:#B83E21;}
	.st12{fill:#DE8D82;}
	.st13{fill:#EFBAB4;}
	.st14{fill:#FDD5D0;}
	.st15{fill:#6883CE;}
	.st16{fill:#3D4885;}
	.st17{fill:#3859AE;}
	.st18{fill:#864424;}
	.st19{fill:#FEFEFE;}
	.st20{fill:#FFFFFF;}
	.st21{fill:#A55925;}
	.st22{fill:#F4F2F2;}
	.st23{fill:#3C3E68;}
	.st24{fill:#E8997C;}
	.st25{fill:#F5C46B;}
	.st26{fill:#F7EBDA;}
	.st27{fill:#0E0C0D;}
	.st28{fill:#657C3A;}
	.st29{fill:#576C37;}
	.st30{fill:#7C995D;}
	.st31{fill:#36518C;}
	.st32{fill:#96B7E3;}
	.st33{fill:#A3B3DF;}
	.st34{fill:url(#SVGID_1_);}
	.st35{fill:url(#SVGID_2_);}
	.st36{fill:url(#SVGID_3_);}
	.st37{fill:url(#SVGID_4_);}
	.st38{fill:url(#SVGID_5_);}
	.st39{fill:#266AB7;}
	.st40{fill:#060E0D;}
	.st41{fill:#E0D4C6;}
	.st42{fill:#787E42;}
	.st43{fill:#D3D1D1;}
	.st44{fill:url(#SVGID_6_);}
	.st45{fill:url(#SVGID_7_);}
	.st46{fill:url(#SVGID_8_);}
	.st47{fill:#020508;}
	.st48{fill:#BAB6B6;}
	.st49{fill:#0F0B07;}
	.st50{fill:#2F3A68;}
	.st51{fill:#203257;}
	.st52{opacity:0.5;fill:#FFFFFF;}
	.st53{opacity:0.2;fill:#0E0C0D;}
	.st54{fill:#DD9F9B;}
	.st55{fill:#3E4D9B;}
	.st56{fill:url(#SVGID_9_);}
	.st57{fill:#5F6194;}
	.st58{fill:url(#SVGID_10_);}
	.st59{fill:url(#SVGID_11_);}
	.st60{fill:url(#SVGID_12_);}
	.st61{fill:url(#SVGID_13_);}
	.st62{fill:#070102;}
	.st63{fill:#100805;}
	.st64{fill:#FDA465;}
	.st65{fill:#2A50A1;}
	.st66{fill:#B76C39;}
	.st67{fill:#130602;}
	.st68{fill:url(#SVGID_14_);}
	.st69{fill:url(#SVGID_15_);}
	.st70{fill:url(#SVGID_16_);}
	.st71{fill:url(#SVGID_17_);}
	.st72{fill:url(#SVGID_18_);}
	.st73{fill:url(#SVGID_19_);}
	.st74{fill:#B4BDED;}
	.st75{fill:#100D08;}
	.st76{fill:#F6C85F;}
	.st77{fill:#FECF00;}
	.st78{fill:#2D59E2;}
	.st79{fill:#121F3A;}
	.st80{fill:#BBD0F5;}
	.st81{fill:#020202;}
	.st82{fill:#E2CFB7;}
	.st83{fill:#080805;}
	.st84{fill:#A87D7C;}
	.st85{fill:#182052;}
	.st86{fill:#EAEAEA;}
	.st87{fill:#DDDDDD;}
	.st88{fill:#3D4574;}
	.st89{fill:#ABC5F0;}
	.st90{fill:url(#SVGID_20_);}
	.st91{fill:#4159A8;}
	.st92{fill:#E0D0BD;}
	.st93{fill:#3D53AA;}
	.st94{fill:#0A0000;}
	.st95{fill:#BF6D36;}
	.st96{fill:#385DAE;}
	.st97{fill:#E0DCDC;}
	.st98{fill:#857E78;}
	.st99{fill:#0E213C;}
	.st100{fill:url(#SVGID_21_);}
	.st101{fill:#55608E;}
	.st102{opacity:0.3;fill:#F4F2F2;}
	.st103{opacity:0.3;}
	.st104{fill:#213987;}
	.st105{enable-background:new    ;}
</style>
<g id="Food_Rider_1_">
	<g id="Food_Rider">
		<g>
			<path class="st26" d="M32.8584251,208.7313995c-2.8615799-5.7120056-1.7777958-13.1564026,2.5936317-17.8153992
				c2.4863014-2.6498566,6.0397339-4.4206543,9.6697502-4.2581482c3.6300201,0.1625214,7.209301,2.4841156,8.3717461,5.9268188"/>
			<path class="st11" d="M37.191494,214.0032806c-2.3195229-0.9532471-4.9385681-2.2457428-5.4850426-4.6932373
				c-0.5087643-2.278595,1.0408783-4.4560547,2.5001793-6.2785034
				c8.8582306-11.0625763,10.1387558-13.1023102,13.0841904-14.4979248
				c3.0040131-1.4233551,6.6281281-0.9635162,9.6446037,0.4332428c3.0164757,1.3967438,5.550209,3.6341553,8.0368195,5.8402405"/>
			<path class="st7" d="M216.1774597,194.5158234l-14.6166077,44.1680756c0,0-1.1788177,5.7030487-9.1195374,9.4113464
				c-7.9369812,3.7121277-63.4697113,0.8269806-63.4697113,0.8269806l-98.7876358-6.8517914
				c-2.6194687-4.9919128-2.7205124-11.0353546-1.1900063-16.4613953c1.53055-5.4223938,4.5691319-10.3057556,7.9894123-14.7812958
				c7.7386322-10.1261292,17.6439552-18.583313,28.8553123-24.638092c1.3733673-0.7445831,2.7915878-1.47052,3.8843002-2.5894928
				c1.088913-1.1188049,1.8074112-2.7316589,1.4369507-4.2471466c-0.4976807-2.039505-2.6756058-3.1546478-4.685112-3.76091
				c-8.7003784-2.6269684-18.8264694-0.8269958-26.4004745-5.8563538
				c-5.0518303-3.3567352-7.7349319-9.3738708-7.1549339-15.4100189c1.2274208,0.0412903,2.3313217,0.2095795,3.5624847,0.2508698
				c-0.9467621,4.2171783,1.407032,8.6629181,4.864727,11.2560883c7.0918045,5.318985,16.6586571,3.8794861,24.918663,6.1408386
				c3.4951019,0.9616547,6.911644,2.1555328,10.2645493,3.5250244l62.3919907-1.1076508c0,0,14.6578064-8.2362671,13.497757,2.72052
				c-1.1536713,10.924118-14.3785858,47.0868073-12.4611969,51.8804932
				c1.919693,4.7936401,44.7891388,7.8770294,52.0114136,0.6923218c7.4983521-7.4607697,8.3996277-41.1005249,6.9453583-52.7935486
				c-1.6091309-12.9588318-10.081192-48.673584-10.081192-48.673584l5.5195923,0.9543457l12.2591095,20.7648163
				L216.1774597,194.5158234z"/>
			<path class="st11" d="M238.0088348,187.9185486c-0.2711182,9.7324982-3.2127838,13.5023346-3.2406158,13.6025543
				c-1.1137848,1.4619598-29.9431,39.3033142-30.6216125,40.1939392c-3.9778595,3.0758972-7.8921204,5.35112-11.7052917,6.3802032
				c11.9073792-10.1858978,16.225769-39.8420105,14.3509827-63.6456299
				c-1.6166229-20.4804993-17.9583282-56.2325134-17.9583282-56.2325134l15.8327942-4.6101913
				c0,0,5.0106659,21.6592178,14.901001,40.8038406C229.4581604,183.5590363,238.2819977,178.204071,238.0088348,187.9185486z"/>
			<path class="st3" d="M237.4924316,193.5280457c-0.9242859,5.6356201-2.7242126,7.9930573-2.7242126,7.9930573
				l-21.8276825,28.6495209l-8.3935089,2.5295715c2.3238373-16.9105072,14.3397064-32.1407318,30.2436218-38.3340149
				C235.6513062,194.0332642,236.5681458,193.7262878,237.4924316,193.5280457z"/>
			<g>
				<path class="st18" d="M60.7689857,98.1767807c-0.080368,2.0126953-1.052906,3.8734207-2.0254936,5.6408234
					c-5.6324654,10.2288513-11.9752998,20.0645828-18.973526,29.4097366l-4.7063828-10.2881165
					c4.2528267-10.6818695,10.8634758-20.5576019,16.8845901-26.8343964
					c1.5941734-1.6788254,3.6831093-3.3068619,5.8735237-2.6977692
					C59.7625351,93.9482269,60.8535385,96.1597519,60.7689857,98.1767807z"/>
				<path class="st3" d="M55.9822311,102.1474533c-1.4503632-1.8733292-3.3236351-3.4082413-5.4294472-4.4992447
					c0.2785645-0.3170624,1.1046677-1.2403107,1.3953896-1.5433807
					C53.8721886,97.6356201,55.3141403,99.7750854,55.9822311,102.1474533z"/>
				<path class="st3" d="M50.396328,109.3529282c-1.4672966-1.8945923-3.3659134-3.4421005-5.4971237-4.5331039
					c0.4016953-0.5665588,0.8118515-1.1289902,1.2262421-1.687088
					C48.1678696,104.6717834,49.7028389,106.891777,50.396328,109.3529282z"/>
				<path class="st3" d="M44.7680969,116.3637009c-1.2601013-1.6278305-2.8415794-3.0021133-4.6133194-4.0507813
					c0.3171425-0.5583038,0.6385193-1.1164017,0.9683571-1.6662369
					C42.8525467,112.1479416,44.1465111,114.1565094,44.7680969,116.3637009z"/>
			</g>
			<g>
				<path class="st7" d="M71.406105,99.1424179c-0.0803757,2.0126953-1.0529099,3.8734207-2.0254974,5.640831
					c-5.6324654,10.2288513-11.9752998,20.0645752-18.973526,29.409729l-4.7063866-10.2881165
					c4.2795105-10.7488861,10.9158707-20.6122208,16.884594-26.8343964
					c1.5941772-1.6788254,3.6831055-3.3068619,5.8735199-2.6977615
					C70.3996506,94.9138641,71.490654,97.1253891,71.406105,99.1424179z"/>
				<path class="st8" d="M66.6193466,103.1130905c-1.4503632-1.8733215-3.3236389-3.4082413-5.429451-4.4992371
					c0.2785683-0.31707,1.1046715-1.2403183,1.3953934-1.5433884
					C64.5093002,98.6012573,65.9512558,100.7407227,66.6193466,103.1130905z"/>
				<path class="st8" d="M61.0334435,110.3185654c-1.4672966-1.8945923-3.3659134-3.4421005-5.4971237-4.5331039
					c0.4016914-0.5665588,0.8118515-1.1289902,1.2262421-1.687088
					C58.804985,105.6374207,60.3399544,107.8574142,61.0334435,110.3185654z"/>
				<path class="st8" d="M55.4052124,117.3293381c-1.2601013-1.6278305-2.8415794-3.0021133-4.6133194-4.0507813
					c0.3171425-0.5583038,0.6385155-1.1164017,0.9683571-1.6662369
					C53.4896622,113.1135864,54.7836266,115.1221466,55.4052124,117.3293381z"/>
			</g>
			<g>
				<path class="st18" d="M83.8731766,98.4300385c-0.080368,2.0126953-1.0529022,3.8734207-2.0254898,5.640831
					c-5.6324692,10.2288437-11.975296,20.0645752-18.973526,29.4097214l-4.7063866-10.2881088
					c4.245945-10.6645737,10.8476448-20.5410995,16.884594-26.8343964c1.5941772-1.6788254,3.6831055-3.3068619,5.8735199-2.6977692
					C82.8667297,94.2014847,83.9577332,96.4130096,83.8731766,98.4300385z"/>
				<path class="st3" d="M79.0864258,102.4007111c-1.4503632-1.8733215-3.3236389-3.4082413-5.429451-4.4992447
					c0.2785645-0.3170624,1.1046677-1.2403107,1.3953934-1.5433807
					C76.9763794,97.8888779,78.418335,100.0283432,79.0864258,102.4007111z"/>
				<path class="st3" d="M73.5005188,109.6061859c-1.4672928-1.8945923-3.3659134-3.4421005-5.4971161-4.5331039
					c0.4016876-0.5665588,0.8118439-1.1289902,1.2262344-1.687088
					C71.2720642,104.9250412,72.8070297,107.1450348,73.5005188,109.6061859z"/>
				<path class="st3" d="M67.8722916,116.6169586c-1.2601013-1.6278305-2.8415756-3.0021133-4.6133194-4.0507813
					c0.3171425-0.5583038,0.6385155-1.1164017,0.9683533-1.6662369
					C65.9567413,112.4011993,67.2507019,114.4097672,67.8722916,116.6169586z"/>
			</g>
			<g>
				<path class="st7" d="M49.0067215,96.4135056c-0.0803719,2.0126953-1.052906,3.8734207-2.0254974,5.640831
					c-5.6324615,10.2288437-11.975296,20.0645752-18.9735241,29.409729l-4.7063847-10.2881165
					c4.2610149-10.7024307,10.8796577-20.5744705,16.884594-26.8343964
					c1.5941734-1.6788254,3.6831055-3.3068619,5.8735199-2.6977692
					C48.0002708,92.1849518,49.0912704,94.3964767,49.0067215,96.4135056z"/>
				<path class="st8" d="M44.2199669,100.3841782c-1.450367-1.8733215-3.3236389-3.4082413-5.429451-4.4992447
					c0.2785645-0.3170624,1.1046715-1.2403107,1.3953934-1.5433807
					C42.1099205,95.872345,43.5518723,98.0118103,44.2199669,100.3841782z"/>
				<path class="st8" d="M38.6340637,107.589653c-1.4672966-1.8945923-3.3659172-3.4421005-5.4971237-4.5331039
					c0.4016914-0.5665588,0.8118477-1.1289902,1.2262383-1.687088
					C36.4056053,102.9085083,37.9405708,105.1285019,38.6340637,107.589653z"/>
				<path class="st8" d="M33.0058289,114.6004257c-1.2600994-1.6278305-2.8415756-3.0021133-4.6133156-4.0507813
					c0.3171425-0.5583038,0.6385155-1.1164017,0.9683552-1.6662369
					C31.0902824,110.3846664,32.384243,112.3932343,33.0058289,114.6004257z"/>
			</g>
			<path class="st11" d="M197.0815125,216.9684143c-0.4153595,6.8031921-1.3995361,14.8112488-3.6971893,18.7592621
				c-4.4343719,7.618866-49.3769531,3.3191071-53.5157471,2.2227936
				c-4.0526733-1.0701904-0.1683655-11.4208984-0.0037384-11.8511963c-0.1496429,1.3358612,0.1097412,1.8990631,0.3342438,2.4603729
				c1.9197083,4.7936554,44.116806,7.245285,51.3390808,0.0605621
				C193.7796783,226.3899384,195.8877716,222.7613525,197.0815125,216.9684143z"/>
			<ellipse class="st3" cx="75.4523926" cy="242.7097626" rx="32.2884178" ry="33.2053833"/>
			<ellipse class="st19" cx="75.4523926" cy="242.7097626" rx="16.1656857" ry="16.6247768"/>
			<ellipse class="st13" cx="75.4523926" cy="242.7097626" rx="9.4640169" ry="9.7327871"/>
			<path class="st3" d="M153.2519684,157.2737427c0,0,3.1913452,15.4620819,0.3638458,19.1358185
				s-79.961113,5.5129242-79.702179-0.1844635c0.2589417-5.697403-0.636467-15.1955414,2.3447342-18.0471191
				S147.9385834,156.2398834,153.2519684,157.2737427z"/>
			<path class="st11" d="M218.4640656,103.7078629c0,0-2.1169891-1.0924225-7.9099884-0.3558731
				c-6.3529205,0.8077469-18.6451263,5.4652786-21.3091278,9.3063965
				c-2.6640015,3.8411255,5.4679718,20.1188049,29.2191162,19.7241516V103.7078629z"/>
			<path class="st8" d="M172.258728,113.0158081c0,0,22.2404938-5.144043,30.4050598,0.1455765
				c1.6799774,1.0884094,3.210968,2.4895248,4.2025299,4.2467499c1.1256714,1.9948959,1.1854095,3.9287262,1.1348419,6.1566925
				c-0.0101929,0.4490967-0.0296478,0.9277725-0.2880096,1.2952423c-0.2583466,0.3674774-0.8500214,0.5331345-1.1590271,0.2070923
				c0.4367523,0.493866,0.2976532,1.3754044-0.2699585,1.7107849c-0.5676117,0.3353729-1.4068756,0.0319214-1.6287537-0.588913
				c0.067337,0.9167328-0.2240601,1.8551102-0.7988434,2.5724411c-1.0850677,1.3541565-2.2698212,0.5183716-2.1047668-0.1890259
				c0.2840118,0.9369812-0.6747742,2.0034027-1.6365814,1.8202972c-1.4816742-0.282074-0.8843384-1.8112946-1.0164948-2.7575455
				c-0.1900787-1.3609924-0.8535156-2.8265839-1.9550934-3.6789703c-1.6130981-1.2482071-3.8677826-1.09552-5.8963165-0.8829498
				c-19.6284332,2.0568542-20.4376526,2.4026871-22.5862427,1.5105667c-1.6076508-0.667511-2.8864746-2.4733047-2.3444672-4.1274872
				"/>
			<path class="st2" d="M171.7289429,82.987381c2.9686432-1.8527374,5.4197998-4.525322,7.0095215-7.6427307
				c0.4944153-0.9695358,0.9145813-1.9925003,1.6010742-2.836998c2.6876526-3.3062592,6.800766-0.3665009,4.9774628,4.0236511
				c-0.4370422,1.0522995-1.1136627,1.9846191-1.7840576,2.9059753"/>
			<path class="st0" d="M166.7641144,91.4945908c0.5378113-4.3180237,3.2750397-8.3037338,7.1120911-10.355957
				c5.3699036-2.8720779,11.0891724-1.7445374,17.693985-8.0005722c0.7997742-0.7575302,1.8038635-1.6470413,2.8510284-1.3050995
				c0.7415924,0.2421646,1.1581116,1.0318832,1.350235,1.7879868c0.5883789,2.3154755-0.2579651,4.8138123-1.7112122,6.7100372
				s-3.4543152,3.2886429-5.4625549,4.5826797c-6.4450531,4.1529541-8.359436,5.5082092-11.8811035,16.1220703"/>
			<path class="st15" d="M146.6970673,70.0876007c0,0,4.3309937,1.6281357,7.2570343,7.3705673
				c2.0514069,4.0259247,4.5393829,9.9020386,5.337738,20.743042c0,0,4.5666351-8.6512451,6.5019836-8.93013
				c1.9353638-0.2788849,11.1312714,4.6831741,14.1203461,9.2523346c0,0-7.8489227,17.659996-10.8932953,19.0604095
				c-3.0443878,1.4004135-15.5263519-4.6274643-15.5263519-4.6274643l-3.9576874,1.5830841L146.6970673,70.0876007z"/>
			<path class="st0" d="M147.3565216,70.3717346c0,0-0.2133179,0.7858734,0.0710754,2.4025803
				c0.2844086,1.6201706-7.5440369,2.4098892-7.5440369,2.4098892l-6.2455292-9.1606522
				c0.2800903-0.5928879-0.4375763,0.926239,6.5074615-13.7746811l10.1747437,6.4662666
				C149.3042755,62.7110023,148.3931732,66.2944946,147.3565216,70.3717346z"/>
			<path class="st2" d="M150.3202362,58.7151375l-1.0589447,4.1650925
				c-3.7608337-2.7205124-6.9528503-6.2232475-9.3103943-10.2196922l0.1945953-0.4116669L150.3202362,58.7151375z"/>
			<path class="st0" d="M162.5943298,51.6089897c-0.5089111,0.1271706-1.0440521,0.082222-1.5679169,0.0374565
				c-0.3292999,0.7109604-0.3517303,1.6315041-0.0187225,2.3349724c0.4289551,0.8909378-0.22052,0.6883583-0.4116211,1.0179329
				c-0.1858978,0.3123665,0.2469635,0.6510696,0.3667145,0.8306427c0.3294373,0.5022392,0.0267639,1.1754227-0.5575714,1.2649689
				c0.3143311,1.8447342-1.0328217,3.9178734-2.761673,4.6326714c-1.0589905,0.4377975-2.2527466,0.4191589-3.3866119,0.2543449
				c-10.9534302-1.5576401-16.2801819-14.4234161-8.883728-24.8474922
				c3.3651581-4.7416458,6.6447754-4.8784065,11.8063354-4.0338974c1.227417,0.1982498,2.7803497,0.2581825,3.1882629,1.4294128
				c0.9333191,2.6948471,1.3492889,5.6051178,1.1488495,8.565712c-0.1047821,1.5304604-0.3368378,3.2107506,0.5350952,4.4755363
				c0.3479919,0.508873,0.849472,0.894413,1.2386627,1.3696671
				C164.2635956,50.1385841,163.8350677,51.2989731,162.5943298,51.6089897z"/>
			<path class="st3" d="M161.1611328,37.471241c-3.8418121,1.6541901-8.1003571,0.602684-10.7622833-2.2302742
				c-0.4873047-0.5184517-0.3871765-0.8792648,0.2769165-1.115139c1.3621216-0.4902382,2.7391968-0.9802895,4.1387329-1.3544998
				c0.7933655,0.0785675,1.5866394,0.2019043,2.365036,0.3292618c1.227417,0.1982498,2.7803497,0.2581825,3.1882629,1.4294128
				C160.7008514,35.4916573,160.9665375,36.4721298,161.1611328,37.471241z"/>
			<path class="st49" d="M145.2376556,54.6865463c1.2902374-0.1877937,2.2584381-1.3438416,2.6706848-2.58078
				s0.3896332-2.5687523,0.4640656-3.8704529c0.230484-4.0307426,1.4488525-8.0014191,3.5187683-11.4677505
				c0.2466278-0.413002,0.5142059-0.8512726,0.4974365-1.3320122c-0.0279083-0.8006744-0.8811798-1.3778839-1.682312-1.3716927
				c-0.8011475,0.0061874-1.5331268,0.4398651-2.1808014,0.911438c-4.8563995,3.535984-7.1004944,9.448307-7.2546082,15.4771461"/>
			<path class="st4" d="M162.1605835,227.6119385c0,0-0.5489807,2.2055817-0.0214386,2.6244354
				c0.5275269,0.4188538,29.7216644,2.9993744,31.2176361,0.3195648c0,0,0.8157806-1.4315186,0.0271606-2.1996002
				C192.5953369,227.5882568,162.1605835,227.6119385,162.1605835,227.6119385z"/>
			<polygon class="st0" points="165.2980804,218.2049255 166.8901672,206.300293 180.7507019,209.513855 178.6613007,217.5389099 
				170.6820679,221.1215057 			"/>
			<path class="st16" d="M165.4160461,216.5453949c0,0-4.1121216,7.5493317-3.2554626,11.0665436
				c0,0,21.0742798,2.5235443,31.2233582,0.7444c0,0-0.1962128-5.5308075-9.2739563-8.3601837
				c0,0-4.4730682-0.8762512-4.9542542-3.0873871S165.4160461,216.5453949,165.4160461,216.5453949z"/>
			<path class="st22" d="M153.3857269,231.8959808c0,0-0.5172729,2.2132416,0.0162201,2.6244659
				c0.533493,0.4112396,29.7616577,2.5724792,31.2190247-0.1285248c0,0,0.7951355-1.4430847-0.0044098-2.1997681
				C183.8170013,231.4354706,153.3857269,231.8959808,153.3857269,231.8959808z"/>
			<polygon class="st0" points="156.368515,221.4090118 157.9606018,209.5043793 171.8211365,212.7179565 169.73172,220.7429962 
				161.7524872,224.325592 			"/>
			<path class="st50" d="M171.8211365,209.5043793h8.8987579l4.3523102-19.4425812c0,0,3.7231903-15.8893127,3.7464752-20.7864227
				s0.6109467-16.2941895-9.2360382-23.6976013c-6.9996185-5.2625732-20.61026-8.4125671-29.2714539-9.9108276
				c-0.7793121-0.1348114-1.6545105-0.1456451-2.403717-0.3028564c-0.7212677-0.1513519-0.9009399-0.0179138-1.0163422-0.8592377
				c-0.0179138-0.1306,0.33815-1.4817657,0.3355408-1.4822693c-2.4316406-0.4658203-2.571991-0.5233612-12.7133484-2.6014252
				c-0.2956085-0.0605621-1.8983154-0.6225433-2.1593323-0.4421387c-0.0705261,0.0487518-10.3257294,7.1368103-10.3257294,7.1368103
				l51.4485626,22.3005676l-3.4871979,37.2432404L171.8211365,209.5043793z"/>
			<path class="st16" d="M101.0447464,126.9334106c0,0-7.3780212,14.5893707-5.1957855,23.2527924
				c2.1822357,8.6634064,11.798851,15.8254547,24.2514877,16.9472046
				c12.4526367,1.1217651,21.3622589,1.4683228,28.0773315,0.9378357c0,0,12.3144226-1.0367432,12.8661194,0.6711273
				c1.9144592,5.9266663-2.6889191,25.9624634-4.9239349,43.4508667c-0.0893097,0.698822,0.4718018,1.3045197,1.1758423,1.2788544
				l14.5750885-0.5310516c0,0,17.7783203-44.4043884,11.8844299-58.2550354
				c-4.052063-9.5223236-24.5402374-13.1248474-36.949646-14.4465179
				c-6.1983337-0.660141-11.8013153-3.9859772-15.2795258-9.1587067l-0.0791321-0.117691L101.0447464,126.9334106z"/>
			<path class="st1" d="M137.479599,66.7666397c0,0,4.5497284,5.7512054,9.9482269,6.0092697
				c0,0,7.5169525,9.4702682,5.0818329,40.176651l-5.281189,20.0740509c0,0-40.5681305,6.3451996-46.1837234-6.0932007
				c0,0,4.9159927-8.9137192,10.4477234-16.9524536C117.0242081,101.9422302,137.479599,66.7666397,137.479599,66.7666397z"/>
			<path class="st15" d="M120.7978897,71.8605957c0,0-4.9453125,4.6130295-5.1538925,14.5611267
				c-0.0587769,2.8032455-1.0203552,5.5135803-2.1483459,8.0805359
				c-2.6363144,5.9994583-7.3610687,16.2870331-10.3378983,20.0556641l19.9206848,12.3754883l10.912056-21.5395126"/>
			<path class="st15" d="M172.2587433,109.6966476c1.2039337-0.0372772,1.7456512,17.4360199,0.5417175,17.4732971
				c0,0-29.8635712,6.5818558-39.1642151-0.0000229c-9.3006439-6.5818939-17.7842102-42.3704376-16.7541428-47.6772232
				c1.0300674-5.306778,8.8901901-16.0054474,17.4228134-15.5061111s13.9803314,42.4812241,13.9803314,42.4812241
				C156.788147,108.3912964,163.5848999,109.1769943,172.2587433,109.6966476z"/>
			<path class="st27" d="M133.6362457,127.1697159c-8.8907852-6.0870056-16.2122192-34.2491608-16.7792282-45.1333008
				C118.1058884,91.8386536,125.5160751,120.5550766,133.6362457,127.1697159z"/>
			<path class="st27" d="M152.995163,107.4514542c1.4350128,0.1607132,11.2403107,1.3158493,14.4562988,1.5737305
				c4.8332825,0.4246292,5.0214844,0.1167755,5.1550598,0.5488281c1.2080994,3.9254379,1.6569519,10.4340439,0.1939392,17.5957031
				c0.283371-3.0847931,0.4769287-5.6621094,0.3670044-8.769043c-0.1378937-2.7884216-0.3944092-5.9206238-1.2564087-8.5810547
				l0.3362427,0.2456055C168.1695404,109.9588928,160.0298157,108.9659348,152.995163,107.4514542z"/>
			<path class="st15" d="M156.4820099,220.783844c0,0-4.0033417,7.6075745-3.096283,11.1121368
				c0,0,21.1083374,2.2207947,31.230835,0.2961731c0,0-0.275589-5.52742-9.3930054-8.2262115
				c0,0-4.4851837-0.8119507-4.9980469-3.0159607C169.7126312,218.7459717,156.4820099,220.783844,156.4820099,220.783844z"/>
			<path class="st26" d="M163.1444092,34.5113678c-0.1031799,0.7003746-1.1287842,0.8061676-1.9009705,1.0102539
				c-3.2668457,0.8607941-6.7133484,1.1339607-10.0737457,0.7634048c-0.3329926-0.0374603-0.7371826,0.2581825-0.9803772,0.4452858
				c-2.1929016,1.6802902-3.3342133,5.1192551-3.8955383,7.7350693c-0.8391418,3.9220123-0.2848358,7.6627388,0.3218231,8.9097748
				c0.2918854,0.6062622,0.4302979,0.7708931-0.1085358,1.2724571c-1.8083801,1.6901588-5.8788605,2.8311577-9.6209259,1.4032898
				c-5.9073486-2.2656898-9.8337708-9.5824013-7.3681641-18.852829c1.916626-7.2242165,8.3422089-12.9854908,15.7729034-13.0973415
				c3.0386353-0.0447655,6.0547333,0.6137562,8.9099579,1.6428318c3.9028931,1.4083366,7.6009674,3.6680813,8.7415314,7.6601563
				C163.0583496,33.8077126,163.1931,34.189415,163.1444092,34.5113678z"/>
			<path class="st15" d="M163.1444092,34.5113678c-3.2892761,1.2161789-6.8592529,1.6201744-10.3243866,1.0140915
				c-0.9205933-3.5549927-3.9853821-6.2718506-7.4168549-7.5815849c-2.6381989-1.0066013-5.482193-1.2909126-8.3224335-1.2611294
				c4.0985718-2.6224918,9.1978607-3.794508,17.1201019-0.9391804c3.9028931,1.4083366,7.6009674,3.6680813,8.7415314,7.6601563
				C163.0583496,33.8077126,163.1931,34.189415,163.1444092,34.5113678z"/>
			<path class="st49" d="M137.0899658,51.3879662c-1.7956543-3.3216286-0.4187469-8.3839226,3.2051086-7.0194283
				c1.5870209,0.5968628,2.4869995,1.7138786,3.2013855,3.2039795c0.4838409,1.2610931,0.7240906,2.4825096,0.1414337,3.7626762
				C142.2171936,54.4490623,138.6316833,54.2378769,137.0899658,51.3879662z"/>
			<path class="st3" d="M159.4403687,42.6241951c0.2689209,0.0171509,0.5791626,0.0653458,0.7151489,0.2979927
				c0.1395569,0.2387619,0.0064697,0.5618515-0.2171173,0.7246094c-0.2976379,0.2166557-0.3779755,0.1874504-3.6565094,0.6463013
				c-0.5553436,0.0777206-1.3449707,0.1618347-1.6696014-0.4244919
				C153.811554,42.4223747,157.7990875,42.5195389,159.4403687,42.6241951z"/>
			<ellipse class="st3" cx="157.4636841" cy="46.4550934" rx="0.8347214" ry="1.4439243"/>
			<g>
				<path class="st49" d="M175.1830597,84.7556152l20.0661469-20.3962326
					c0.2225494-0.2262115,0.554657-0.3056335,0.8554688-0.2045822l4.9981537,0.9767075
					c0.5790558,0.194519,1.3303223,2.0866241,0.9043121,2.5244293l-21.0593719,22.3558273
					c-1.1481934,0.6849899-2.5855865-0.3811111-2.9091949-0.7260208l-2.8691406-3.380806
					C174.8648071,85.5802536,174.8708191,85.0729904,175.1830597,84.7556152z"/>
				<path class="st11" d="M173.6924591,83.5242538l20.0661469-20.3962364
					c0.2225494-0.2262115,0.554657-0.3056335,0.8554688-0.2045822l6.2981415,2.1157265
					c0.5790558,0.194519,0.7563629,0.9270172,0.330368,1.3648224l-22.1541595,22.7678604
					c-0.329834,0.3389587-0.8758698,0.333992-1.1994629-0.0109177l-4.2101288-4.4873505
					C173.3742065,84.3488846,173.3802185,83.841629,173.6924591,83.5242538z"/>
				<polygon class="st20" points="174.6902771,84.1107941 194.4302063,64.04599 200.1129761,65.9549484 178.4977875,88.1689987 				
					"/>
			</g>
			<path class="st0" d="M188.0692902,84.5333405c0.8140411-2.2313995,0.650528-4.8003693-0.4398651-6.910553
				c-0.2755127-0.5331879-0.6093597-1.0438385-0.7775574-1.619957c-0.6211395-2.1273804,1.6996002-2.882576,2.8811951-1.3675385
				c0.621933,0.7974167,0.7201843,1.8711853,0.7943573,2.8797302c-0.3037109-5.4939651-0.4698181-6.0302505,0.1040955-6.5951385
				c0.5447693-0.5362244,1.5309296-0.2779388,2.0072479,0.3199158c0.4763336,0.5978546,0.5810089,1.401207,0.6681213,2.1606216
				c-0.2521057-1.2599258-0.3450775-2.5516129-0.2760315-3.8346558c0.042511-0.7898102,0.2765045-1.7401886,1.0357513-1.9618759
				c0.5430756-0.1585617,1.1338501,0.1666565,1.4602661,0.628746s0.4472198,1.034111,0.5605621,1.5883865
				c-0.2725677-0.8488846-0.5479431-1.7486954-0.348053-2.617569c0.1999054-0.8688736,1.0691528-1.6499557,1.9294128-1.4157791
				c0.92453,0.2516708,1.2307892,1.3981018,1.291153,2.3543777c0.3571014,5.6562347-2.4799805,11.407959-7.185318,14.5671158"/>
			<circle class="st13" cx="194.3536987" cy="126.1684341" r="6.2141056"/>
			<circle class="st3" cx="194.3536987" cy="126.1684341" r="4.2329521"/>
			<g>
				<path class="st3" d="M201.3678284,128.6805115c0.2817383-3.7722168-1.3442383-7.6254883-4.2431641-10.0561523
					c-0.3806763-0.3191757,0.1031189-0.8937073,0.4814453-0.574707c3.0810547,2.5830078,4.809082,6.6779785,4.5097656,10.6865234
					C202.0788269,129.2345428,201.3314056,129.1775208,201.3678284,128.6805115z"/>
			</g>
			<g>
				<path class="st3" d="M204.2945862,126.1902771c-0.2993164-3.2055664-1.9833984-6.3137207-4.5048828-8.3149414
					c-0.3891602-0.3079453,0.0770569-0.895607,0.4658203-0.5874023c2.6791992,2.1257324,4.4682617,5.4274902,4.7861328,8.8325195
					C205.0873871,126.6158447,204.3408966,126.6884232,204.2945862,126.1902771z"/>
			</g>
			<g>
				<path class="st3" d="M206.2389221,125.2727966c-0.3813477-3.3994141-2.0053711-6.7177734-4.4560547-9.1044922
					c-0.3560486-0.3460922,0.1694336-0.8834991,0.5234375-0.5371094c2.6103516,2.5422363,4.2719727,5.9367676,4.6777344,9.5581055
					C207.0390015,125.6821899,206.2947845,125.7711792,206.2389221,125.2727966z"/>
			</g>
			<ellipse class="st13" cx="218.4640656" cy="118.0452042" rx="3.8731618" ry="14.3373365"/>
			<ellipse class="st14" cx="218.4640656" cy="118.0452042" rx="1.870995" ry="6.9258885"/>
			<ellipse class="st3" cx="245.7115784" cy="242.7097626" rx="32.2884178" ry="33.2053833"/>
			<ellipse class="st19" cx="245.7115784" cy="242.7097626" rx="16.1656857" ry="16.6247768"/>
			<ellipse class="st13" cx="245.7115784" cy="242.7097626" rx="9.4640169" ry="9.7327871"/>
			<path class="st7" d="M202.874527,238.9685669c1.3996582-11.7413635,6.830719-31.7957306,30.1595764-38.9783478
				c27.1694489-8.365097,42.7480927,15.5530701,42.7480927,15.5530701s4.5679321,5.6935577,0.3783569,11.792099
				c-4.1896057,6.0985413-14.5480652,0.924942-14.5480652,0.924942s-16.6815491-8.1826935-32.3894653,6.8263245
				c-15.7079163,15.0090332-19.1762238,17.0970306-25.5914307,16.588089
				C203.4606171,250.5297699,202.0655975,245.7545776,202.874527,238.9685669z"/>
			<path class="st11" d="M128.9726257,248.9239197c0,0-5.5378494-1.8473663-4.2317963-8.1437836
				s6.6764221-15.1617584,2.7094421-29.1878204c-3.9669952-14.026062-22.599617-15.3573456-39.7689514-13.3747406
				s-41.515213,10.9981232-51.1941452,22.8792725s-11.6855202,16.8332977-10.8065567,20.195816
				c1.0872078,4.1591492,2.1241837,7.4218903,18.7707405,7.5126495S128.9726257,248.9239197,128.9726257,248.9239197z"/>
			<g>
				<path class="st3" d="M128.8541565,249.2796326c-0.0585938-0.0195313-5.8388672-2.0285645-4.4804688-8.5756836
					c1.2982559-6.2541962,6.6343842-15.1543121,2.7158203-29.0095215
					c-3.9956055-14.1262207-23.6113281-14.9230957-39.3652344-13.104248
					c-17.5898438,2.03125-41.4560547,11.09375-50.9467773,22.7434082c-1.9067383,2.3415527-3.4990234,4.3901367-4.8671894,6.2624512
					c-0.2907581,0.3999329-0.8989334-0.040329-0.6054688-0.4423828c1.3759785-1.8830566,2.9755878-3.9418945,4.8916035-6.2937012
					c9.6108398-11.7976074,33.7026367-20.9663086,51.4418945-23.0148926
					c23.0083008-2.6569824,36.8964844,2.0620117,40.1728516,13.6452637
					c3.9911041,14.1110687-1.4180069,23.1753082-2.703125,29.3659668c-1.2207031,5.8845215,3.7709961,7.6401367,3.9838867,7.7121582
					C129.5617828,248.7262268,129.3242645,249.4363403,128.8541565,249.2796326z"/>
			</g>
			<path class="st11" d="M83.0111771,115.9955444v41.8290863c0,0.6848297-0.5538254,1.2386475-1.2386627,1.2386475H23.238657
				c-0.6848335,0-1.238657-0.5538177-1.238657-1.2386475v-41.8290863c0-0.6848373,0.5538235-1.2386627,1.238657-1.2386627
				h58.5338593C82.4573517,114.7568817,83.0111771,115.3107071,83.0111771,115.9955444z"/>
			<rect x="22" y="127.0197449" class="st20" width="61.0111732" height="4.1013246"/>
			<rect x="22" y="142.6954498" class="st20" width="61.0111732" height="4.1049786"/>
			<g>
				<path class="st3" d="M100.5289612,240.9197693H49.1822815c-0.4960136,0-0.496315-0.75,0-0.75h51.3466797
					C101.024971,240.1697693,101.0252762,240.9197693,100.5289612,240.9197693z"/>
			</g>
			<g>
				<path class="st3" d="M87.1676331,234.2320251H63.8522034c-0.4960136,0-0.496315-0.75,0-0.75h23.3154297
					C87.6636429,233.4820251,87.6639481,234.2320251,87.1676331,234.2320251z"/>
			</g>
		</g>
	</g>
</g>
</svg>
