<?xml version="1.0" encoding="utf-8"?>
<!-- Generator: Adobe Illustrator 22.0.1, SVG Export Plug-In . SVG Version: 6.00 Build 0)  -->
<svg version="1.1" id="Layer_1" xmlns="http://www.w3.org/2000/svg" xmlns:xlink="http://www.w3.org/1999/xlink" x="0px" y="0px"
	 viewBox="0 0 300 300" style="enable-background:new 0 0 300 300;" xml:space="preserve">
<style type="text/css">
	.st0{fill:#EDC1A4;}
	.st1{fill:#E2E0E0;}
	.st2{fill:#D39E81;}
	.st3{fill:#502E26;}
	.st4{fill:#CCCACA;}
	.st5{fill:#426800;}
	.st6{fill:#538705;}
	.st7{fill:#D47E44;}
	.st8{fill:#73341D;}
	.st9{fill:#BC672E;}
	.st10{fill:#96311D;}
	.st11{fill:#B83E21;}
	.st12{fill:#DE8D82;}
	.st13{fill:#EFBAB4;}
	.st14{fill:#FDD5D0;}
	.st15{fill:#6883CE;}
	.st16{fill:#3D4885;}
	.st17{fill:#3859AE;}
	.st18{fill:#864424;}
	.st19{fill:#FEFEFE;}
	.st20{fill:#FFFFFF;}
	.st21{fill:#A55925;}
	.st22{fill:#F4F2F2;}
	.st23{fill:#3C3E68;}
	.st24{fill:#E8997C;}
	.st25{fill:#F5C46B;}
	.st26{fill:#F7EBDA;}
	.st27{fill:#0E0C0D;}
	.st28{fill:#657C3A;}
	.st29{fill:#576C37;}
	.st30{fill:#7C995D;}
	.st31{fill:#36518C;}
	.st32{fill:#96B7E3;}
	.st33{fill:#A3B3DF;}
	.st34{fill:url(#SVGID_1_);}
	.st35{fill:url(#SVGID_2_);}
	.st36{fill:url(#SVGID_3_);}
	.st37{fill:url(#SVGID_4_);}
	.st38{fill:url(#SVGID_5_);}
	.st39{fill:#266AB7;}
	.st40{fill:#060E0D;}
	.st41{fill:#E0D4C6;}
	.st42{fill:#787E42;}
	.st43{fill:#D3D1D1;}
	.st44{fill:url(#SVGID_6_);}
	.st45{fill:url(#SVGID_7_);}
	.st46{fill:url(#SVGID_8_);}
	.st47{fill:#020508;}
	.st48{fill:#BAB6B6;}
	.st49{fill:#0F0B07;}
	.st50{fill:#2F3A68;}
	.st51{fill:#203257;}
	.st52{opacity:0.5;fill:#FFFFFF;}
	.st53{opacity:0.2;fill:#0E0C0D;}
	.st54{fill:#DD9F9B;}
	.st55{fill:#3E4D9B;}
	.st56{fill:url(#SVGID_9_);}
	.st57{fill:#5F6194;}
	.st58{fill:url(#SVGID_10_);}
	.st59{fill:url(#SVGID_11_);}
	.st60{fill:url(#SVGID_12_);}
	.st61{fill:url(#SVGID_13_);}
	.st62{fill:#070102;}
	.st63{fill:#100805;}
	.st64{fill:#FDA465;}
	.st65{fill:#2A50A1;}
	.st66{fill:#B76C39;}
	.st67{fill:#130602;}
	.st68{fill:url(#SVGID_14_);}
	.st69{fill:url(#SVGID_15_);}
	.st70{fill:url(#SVGID_16_);}
	.st71{fill:url(#SVGID_17_);}
	.st72{fill:url(#SVGID_18_);}
	.st73{fill:url(#SVGID_19_);}
	.st74{fill:#B4BDED;}
	.st75{fill:#100D08;}
	.st76{fill:#F6C85F;}
	.st77{fill:#FECF00;}
	.st78{fill:#2D59E2;}
	.st79{fill:#121F3A;}
	.st80{fill:#BBD0F5;}
	.st81{fill:#020202;}
	.st82{fill:#E2CFB7;}
	.st83{fill:#080805;}
	.st84{fill:#A87D7C;}
	.st85{fill:#182052;}
	.st86{fill:#EAEAEA;}
	.st87{fill:#DDDDDD;}
	.st88{fill:#3D4574;}
	.st89{fill:#ABC5F0;}
	.st90{fill:url(#SVGID_20_);}
	.st91{fill:#4159A8;}
	.st92{fill:#E0D0BD;}
	.st93{fill:#3D53AA;}
	.st94{fill:#0A0000;}
	.st95{fill:#BF6D36;}
	.st96{fill:#385DAE;}
	.st97{fill:#E0DCDC;}
	.st98{fill:#857E78;}
	.st99{fill:#0E213C;}
	.st100{fill:url(#SVGID_21_);}
	.st101{fill:#55608E;}
	.st102{opacity:0.3;fill:#F4F2F2;}
	.st103{opacity:0.3;}
	.st104{fill:#213987;}
	.st105{enable-background:new    ;}
</style>
<g id="Food_Basket_1_">
	<g id="Food_Basket">
		<g>
			<path class="st3" d="M135.1803741,33.3993187c-2.6687927,7.3993073-3.6834869,10.4116287-6.1794128,17.8580551
				c-4.7272339,14.1033363-20.3597412,66.9148407-24.4705963,81.15625
				c0.4863434,5.7528381,1.7135468,6.4214783,2.1663742,15.7563324c4.7690735-1.8378448,5.4099121-0.9874878,6.5117188-1.4519196
				c2.6054459-10.4278717,24.0849075-84.8557739,32.0022202-109.636322c0.860733-2.6775551,1.8011932-5.3786736,2.6126251-8.0902004
				C147.4014282,27.7823086,136.6293945,31.340786,135.1803741,33.3993187z"/>
			<path class="st3" d="M163.0502014,134.1090851c1.0231476-9.0367279,2.0462952-18.0734634,3.0694427-27.1101913
				c1.6717072-0.080162,3.3434296-0.1603241,5.0151367-0.2404861c-4.1544495,14.1304932-8.3089142,28.2609863-12.4633789,42.3914795
				"/>
			<path class="st29" d="M180.016098,105.3953247c5.9789124-2.1780548,12.6565552-2.3884506,18.7607117-0.591095
				c-1.9260712,6.3838654-6.0578766,12.0794525-11.5286102,15.8918839
				c-3.4542236,2.4071732-7.5722046,4.0994186-11.776947,3.8842697c-4.1303101-0.2113342-12.2559204-4.0688934-8.9949493-9.21064
				C169.4038239,110.7537918,174.9880981,107.2269745,180.016098,105.3953247z"/>
			<path class="st11" d="M174.2921753,176.026886c-14.7054138,6.019165-31.1120148,1.809433-41.2831879-9.0506439
				l-2.3688049-6.0246277c-1.0543518-6.4491882-2.1087189-12.953186-1.6433716-19.4571991
				c0.4656677-6.5180511,2.6017914-13.1176605,7.1478424-17.8004303c4.559433-4.6827774,11.802887-7.0241699,17.8823395-4.6694107
				c4.0392609,1.5471115,7.3668213,4.9569016,11.666153,5.4636841c7.2160492,0.8484421,13.8022919-6.8737335,20.8127594-4.9568939
				c3.9162445,1.0677338,6.4358063,4.8606186,7.9555054,8.626091
				C201.9944611,146.7330322,193.182312,168.3139343,174.2921753,176.026886z"/>
			<g>
				<path class="st30" d="M106.1633148,80.0726318c1.9544907,4.7471466,6.4784012,19.1390076,7.1382828,21.8036346
					c0.4714127,1.9038467,0.6548004,3.8490906,1.0635071,5.7590866c0.3300018,1.5421829,1.1074066,2.7801056,0.657135,4.4400787
					c-0.9080276,3.3475342-4.8495331,4.5024414-7.6967468,2.5683212c-1.7519226-1.1900787-2.3719177-3.1352844-2.9769135-5.0464172
					c-2.1101227-6.6656418-2.7989273-18.1269379-3.2057266-24.0727386c2.1394424,4.096283,3.7243423,8.5918579,5.2257004,12.9573517
					c0.3911057-2.630661-0.199379-6.6836777-0.3087387-9.4535446
					C105.9414825,86.0392075,106.052597,83.0601654,106.1633148,80.0726318z"/>
				<path class="st13" d="M132.8572845,133.8634338c0.0018768,0.0113373,0.0018768,0.0113373,0.0018768,0.0113373
					c9.8634033,74.6674347,7.0506744,52.1133423,7.4825897,64.2082977c0.1321259,3.9051361,0.2797394,7.831604,0.7542877,11.7156982
					c0.2663879,2.1164551,0.524704,4.2581329,0.1306305,6.3525848c-0.3957672,2.0825043-1.5602112,4.1369934-3.4723511,5.0614166
					c-2.4409332,1.1912994-5.502594,0.2168732-7.5017395-1.6249084c-2.748291-2.514679-4.6731491-7.4602661-6.8839264-12.9110718
					c-0.9762497-2.4409332-1.3483047-4.9094238-2.3439636-7.3232422
					c-8.6418533-20.8524628-16.3819199-42.034668-23.541008-66.2574463
					c-1.2333908-4.3375854-2.667717-9.1136627-1.9071503-13.9962997c0.8126984-5.1231308,4.1859589-7.1725311,9.1779938-7.7351608
					c1.3009415-0.0716019,2.590744-0.284729,3.8763123-0.4493713c2.0951614-0.2506256,4.0918655-0.7355957,5.9324493-1.8038025
					c3.5631714-2.0886536,8.6781235-2.0360489,12.0066757,0.4987488
					C130.8849335,112.919075,131.0709076,119.735054,132.8572845,133.8634338z"/>
				<path class="st11" d="M135.8419495,156.5496979c0.1171722,0.8519287,0.2202759,1.6945343,0.3371735,2.546524
					c-4.6769409-0.2779846-11.0790329-0.3058472-13.9689941-0.7473907
					C125.0639343,158.1395264,131.4504547,157.2036743,135.8419495,156.5496979z"/>
				<path class="st7" d="M110.9841537,128.3347015c-1.0163651,0.4291534-8.8323669,2.7883453-13.9399414,3.2586975
					c-0.2522278-0.8774109-0.4950714-1.7686157-0.7026443-2.6650543c1.7864227,0.1999207,8.1993942,0.1371002,13.5895386-0.7535858
					c0.2439499-0.0403137,0.4862137-0.0925903,0.7185287-0.1309662
					C111.5743713,127.8909836,111.4281158,128.1758423,110.9841537,128.3347015z"/>
				<path class="st7" d="M117.8255539,146.7673492c-4.6029358,2.2648163-9.640419,3.4906311-14.5902939,4.7386627
					c-0.3279953-0.972702-0.6421127-1.9354706-0.9467621-2.9114532
					C106.5992355,148.0289307,104.6498489,149.6551819,117.8255539,146.7673492z"/>
				<path class="st7" d="M128.1956635,111.2869949c-3.7271118,3.0153046-13.4956512,5.3690643-18.0050278,5.6730194
					l-0.125473-0.182663c5.668396-1.3067474,11.625206-3.9736328,16.5047989-7.1671371
					C127.1846161,110.0815506,127.7299576,110.6360245,128.1956635,111.2869949z"/>
				<path class="st11" d="M132.4949951,131.0943451c0.0190582,0.1503601,0.3448639,2.6354218,0.3641663,2.780426
					c-0.1184845,0.2229767-0.2387238,0.4334259-0.3572998,0.655838c-5.3633423,0.6239929-10.7802048,2.0086517-16.1761475,2.1478729
					c3.1824188-1.0387421,6.4452744-1.7335052,9.6141968-2.8539429
					C127.993187,133.1035004,130.31604,131.8483734,132.4949951,131.0943451z"/>
			</g>
			<g>
				<path class="st3" d="M64.4190445,131.3658447c-3.2033882-0.671051-5.7587357-3.1913147-8.4319649-4.9341736
					c-13.0826607-8.5610809-18.3063965-10.2853699-20.1961098-13.8727188
					c-1.3374825-2.5301361-0.4989624-4.5572052,1.6367683-5.5580597c1.9432487-0.8952866,3.3917007-0.4594345,5.2524376,0.3059082
					l0.3648453-0.2236786c-2.2005424-1.8598404-5.6256104-4.2344055-4.8634453-7.1715393
					c0.3479881-1.3515015,1.3866158-2.2028046,2.5907135-2.956131c-1.7192841-2.3316727-4.851944-5.652359-4.4986-8.7142944
					c0.4167862-3.6426468,4.9042549-5.1510773,7.748848-2.5789185c3.285614,2.9676285,8.255146,10.7043991,11.3170815,14.4609528
					c-0.9539452-2.849762-2.602787-6.6534576-1.1776237-9.585434c1.0554619-2.1856155,3.5832291-1.8190079,5.7348747-0.7538452
					c2.8497543,4.0158768,5.7348747,15.7328796,7.4308662,20.9143066c1.4945145,4.626915,4.0488434,9.1594772,4.4042969,14.0613174
					C72.0829697,129.5311432,68.7118225,132.2767334,64.4190445,131.3658447z"/>
				<path class="st30" d="M65.7682877,124.1468811c-0.8760376-1.1521225-15.0231781-21.3563156-15.0405006-21.458313
					c-0.0161171-0.0954437,0.0288544-0.1908875,0.0432739-0.2863159c0.6345711,0.2197113,1.1206779,0.5688095,1.5677567,1.068924
					c2.0491982,2.2922516,3.8133659,5.31707,5.5910873,7.8629761c2.7457123,3.9325562,6.253231,8.2299042,8.3885384,12.4907761
					L65.7682877,124.1468811z"/>
				<path class="st30" d="M63.0292397,126.3017197l-0.6005974,0.4358521
					c-5.3697395-7.1600342-12.3414612-14.4258728-19.7484665-19.4307709l0.3648453-0.2236786
					c4.2749176,1.1304703,8.4673233,7.5602417,12.0470543,10.1391678
					c-2.8042603-5.4831161-9.3404808-10.7132339-16.9104996-17.3107071c0.0940132-0.3651276,0.2472572-0.7066879,0.447361-1.0246658
					C47.4829559,105.2488403,60.0811615,119.944397,63.0292397,126.3017197z"/>
				<path class="st7" d="M130.1329041,199.3374786c-6.4741974-1.398819-12.4634705-2.9412842-19.1010056-5.0048828
					c-3.1441574-0.9775238,7.9253769-0.8245697,4.8283691-1.9429626c-3.0855103-1.1304779-6.1592331-2.3201752-9.1973038-3.5800171
					l-2.861824-1.0833282c-0.7486115-0.2690887-41.1005898-44.0065613-41.7584572-44.290802
					c-3.2608566-4.4312897-5.0408173-9.7231903-2.3670311-14.5316772l2.7557411-2.1666412
					c1.118103-0.8009338,1.7293358-1.0347672,3.3327599-2.5910034l0.5534515-0.3179779
					c1.4602432-1.4013062,3.3914108-2.366745,4.6869125-3.933075c9.2834702-7.8344803,14.0353165,0.4505615,20.2314758,10.6572571
					c2.6142883,4.2631226,30.3709335,50.6734161,32.6436691,55.1366577
					C126.140892,190.1516876,128.2253113,194.6977234,130.1329041,199.3374786z"/>
			</g>
			<g>
				<path class="st1" d="M176.2191772,172.7933502c0,0,18.04245-43.1253052,29.8392487-71.311203
					c5.5952301-13.3685989,20.6755829-20.0155792,34.3192749-15.129303l0.0000458,0.0000153
					c14.3603973,5.142952,21.7015686,21.0724411,16.2823486,35.3308868l-24.4104614,64.2261047L176.2191772,172.7933502z"/>
			</g>
			<path class="st3" d="M199.8734436,137.1022797c-0.8664398-7.2749786-1.7328796-14.5499649-2.5993347-21.8249435
				c1.2960663-0.3715591,2.5921173-0.7431183,3.8881683-1.1146774c-0.6483154,11.8474274-1.2966461,23.6948547-1.9449615,35.5422821
				"/>
			<path class="st29" d="M207.8747406,111.4537811c4.2861023-2.8119736,9.483429-4.2100449,14.6018524-3.9278717
				c-0.6543427,10.5842438-8.1273041,18.6278-14.6229095,19.8108673c-3.2777557,0.5969925-10.3616943-0.9273834-8.7541199-5.5614014
				C200.5427551,117.6152344,204.27034,113.8185272,207.8747406,111.4537811z"/>
			<path class="st25" d="M228.4460144,148.7135315c-3.5845032,21.1335144-27.9969025,31.7207184-46.0597382,19.7085724
				l-2.969986-4.2867126c-2.0176697-4.8623505-4.0454712-9.7676849-4.8816223-14.9536591
				c-0.8384857-5.1970367-0.3821564-10.76651,2.3178558-15.2779236c2.710495-4.5139008,7.9579926-7.6874542,13.1599579-6.9636383
				c3.4530334,0.4672546,6.6919556,2.526535,10.1568146,2.1300049c5.8150482-0.6672363,9.5535889-7.9387054,15.4047241-7.7302017
				c3.2680511,0.1140747,5.9441376,2.6229553,7.8311157,5.2949829
				C227.8859558,132.9574127,229.7304382,141.0787659,228.4460144,148.7135315z"/>
			<path class="st15" d="M223.1448517,85.115448l2.5410767-6.4878845c0.3021545-0.7714539,1.1556244-1.1710434,1.9416199-0.9090652
				l29.2921906,9.7632828c0.8474731,0.2824707,1.283844,1.218689,0.9552307,2.0493622l-2.6754303,6.7630386
				c-0.3061981,0.7740173-1.1671448,1.1701813-1.9541931,0.8992157l-29.1578064-10.0384369
				C223.2505798,86.8668137,222.8220367,85.9396591,223.1448517,85.115448z"/>
			<path class="st8" d="M85.1241989,131.7299805c-4.7929993,6.8420563-11.3995895,12.3650513-18.9008942,16.0272827
				c-1.1069031-1.1655426-2.0372696-2.1430664-2.7321663-2.8733215
				C71.4636612,141.98703,78.8827438,137.5002289,85.1241989,131.7299805z"/>
			<path class="st8" d="M264.3830261,148.8884888c-0.3768311,0.1838226-13.6668854,43.8294525-19.3836212,85.5656586
				c-4.9813232,35.4229889-10.045166,43.4783173-26.5908203,43.4662323c-14.752655,0-110.0905457-0.2428284-124.6278915-0.2823181
				c0,0-18.8537521-0.4007874-23.6231766-29.6999054c-5.1103897-31.5380249-18.0138893-89.3147278-21.3265877-97.6368713
				c0.5062981,0.1765289,1.0246696,0.3536377,1.5309677,0.5180817c0.0117874,0,0.0117874,0,0.0117874,0.0120697
				c71.851944,24.7952728,143.5236053,26.4247437,213.75-1.8371582
				C264.2062073,148.9592133,264.3005066,148.9235535,264.3830261,148.8884888z"/>
			<g>
				<path class="st19" d="M197.2349548,171.3806152c-9.5975037,1.6134796-20.1374664,2.8382568-31.4542542,3.3212585
					c-30.2749481,1.2792206-63.7714615-5.6244965-92.396225-15.2268677
					c0.0114975,0.1178741,0.0235748,0.2236786,0.0468674,0.3415527
					c28.6110916,9.5071106,62.0063553,16.4846802,92.3608627,15.179718
					c11.3170776-0.4830017,21.8685303-1.7077789,31.4663239-3.3327637
					C197.2467499,171.557724,197.2467499,171.4634094,197.2349548,171.3806152z M197.2349548,171.3806152
					c-9.5975037,1.6134796-20.1374664,2.8382568-31.4542542,3.3212585
					c-30.2749481,1.2792206-63.7714615-5.6244965-92.396225-15.2268677
					c0.0114975,0.1178741,0.0235748,0.2236786,0.0468674,0.3415527
					c28.6110916,9.5071106,62.0063553,16.4846802,92.3608627,15.179718
					c11.3170776-0.4830017,21.8685303-1.7077789,31.4663239-3.3327637
					C197.2467499,171.557724,197.2467499,171.4634094,197.2349548,171.3806152z M197.2349548,171.3806152
					c-9.5975037,1.6134796-20.1374664,2.8382568-31.4542542,3.3212585
					c-30.2749481,1.2792206-63.7714615-5.6244965-92.396225-15.2268677
					c0.0114975,0.1178741,0.0235748,0.2236786,0.0468674,0.3415527
					c28.6110916,9.5071106,62.0063553,16.4846802,92.3608627,15.179718
					c11.3170776-0.4830017,21.8685303-1.7077789,31.4663239-3.3327637
					C197.2467499,171.557724,197.2467499,171.4634094,197.2349548,171.3806152z M197.2349548,171.3806152
					c-9.5975037,1.6134796-20.1374664,2.8382568-31.4542542,3.3212585
					c-30.2749481,1.2792206-63.7714615-5.6244965-92.396225-15.2268677
					c0.0114975,0.1178741,0.0235748,0.2236786,0.0468674,0.3415527
					c28.6110916,9.5071106,62.0063553,16.4846802,92.3608627,15.179718
					c11.3170776-0.4830017,21.8685303-1.7077789,31.4663239-3.3327637
					C197.2467499,171.557724,197.2467499,171.4634094,197.2349548,171.3806152z M197.2349548,171.3806152
					c-9.5975037,1.6134796-20.1374664,2.8382568-31.4542542,3.3212585
					c-30.2749481,1.2792206-63.7714615-5.6244965-92.396225-15.2268677
					c0.0114975,0.1178741,0.0235748,0.2236786,0.0468674,0.3415527
					c28.6110916,9.5071106,62.0063553,16.4846802,92.3608627,15.179718
					c11.3170776-0.4830017,21.8685303-1.7077789,31.4663239-3.3327637
					C197.2467499,171.557724,197.2467499,171.4634094,197.2349548,171.3806152z"/>
			</g>
			<g>
				<path class="st7" d="M99.668808,277.6495667h-2.0018997c-11.7026367-21.3668213-26.8220444-121.7075958-26.6497498-122.7671661
					l0.859642,0.2121735l0.8717117,0.03508c0,0.6730804,2.9188919,18.9841003,4.2039108,26.6379547
					c2.6493759,15.8819427,4.9531403,27.7991943,5.228569,29.3934174h0.0120773
					C84.5958252,223.9760132,92.7623215,266.6358948,99.668808,277.6495667z"/>
			</g>
			<g>
				<path class="st7" d="M126.9191513,277.7202759h-1.801796c-7.8962936-23.9937286-17.2725754-90.9045258-19.348259-112.4865265
					h-0.0120697c-0.2823334-2.6260834-0.42379-4.1331787-0.4002151-4.2159882l0.8478546,0.2472534l0.8714294,0.0707245
					C107.0760956,164.0550385,117.3558426,249.1817322,126.9191513,277.7202759z"/>
			</g>
			<g>
				<path class="st7" d="M213.6037903,277.9088745c-0.5888062,0.0115051-1.2011871,0.0115051-1.8371582,0
					c10.6013031-25.8783417,24.5299683-116.1827087,24.5299683-117.6800232l0.6949005,0.0115051l1.0479584-0.2587585
					C238.3018341,160.7622833,224.8358612,249.5697174,213.6037903,277.9088745z"/>
			</g>
			<g>
				<path class="st7" d="M185.6941986,277.8617249c-0.624176,0-1.236557,0-1.8725281-0.0120544
					c9.7391663-26.1052246,13.7312622-60.6687012,13.7312622-88.356781
					c0.0458832-4.3138428-0.0911865-16.5192108-0.3179779-18.1122742c-0.0235748-0.5767365-0.0471497-0.8947144-0.0589447-0.9297943
					l1.6957092-0.5065918C199.3383942,171.3328552,202.1791992,233.3107758,185.6941986,277.8617249z"/>
			</g>
			<g>
				
					<rect x="101.0357437" y="222.734787" transform="matrix(0.0175754 -0.9998456 0.9998456 0.0175754 -71.4521408 374.5170898)" class="st7" width="107.6346283" height="1.7667068"/>
			</g>
			<g>
				<path class="st7" d="M256.893219,175.4672241c-0.1647339,0.6710358-0.3415527,1.3426361-0.5180969,2.037262
					c-66.9099121,21.6254883-135.0826263,23.6972656-200.6670532-0.8947296
					c-0.1647415-0.6951752-0.329483-1.3777161-0.4827232-2.0608368
					C121.7337952,199.6189575,190.1398163,197.364502,256.893219,175.4672241z"/>
			</g>
			<g>
				<path class="st7" d="M249.9807129,205.2493439c-0.1296539,0.6238861-0.2593231,1.2483368-0.3887024,1.8843079
					c-66.0703888,13.3289795-135.4280701,11.8181305-187.1005402,0.3179779
					c-0.1296654-0.6359558-0.2708282-1.2719269-0.4004936-1.9078827
					C113.8430252,217.2411499,183.6034698,218.8250885,249.9807129,205.2493439z"/>
			</g>
			<g>
				<path class="st7" d="M245.2466583,232.6411438c-0.0825195,0.6118011-0.1650391,1.2126923-0.2472534,1.8130035
					c-55.3327332,6.8011932-123.1374664,5.938797-177.2557983-0.329483
					c-0.1060867-0.6003113-0.2236786-1.2132721-0.3297653-1.8250732
					C121.1756592,238.5883484,188.8404388,239.5170746,245.2466583,232.6411438z"/>
			</g>
			<g>
				<path class="st7" d="M75.9000168,259.0376587l0.0897064-1.7641296
					c1.0798645,0.0552063,108.5850754,5.4712219,159.9726563,0.0037537l0.1863098,1.7566528
					C195.9101563,263.3157043,116.2063675,261.1013489,75.9000168,259.0376587z"/>
			</g>
			<path class="st26" d="M264.5242004,148.9356384c-0.0235901,0.0822144-0.1176147,0.1880188-0.2826233,0.3415527
				c-1.7310791,1.5306702-11.0695496,6.6413727-26.355072,11.9999084
				c-24.5434265,8.3860626-48.501297,12.7197418-72.0942993,13.7191772
				c-4.2806702,0.1840363-9.0673218,0.1817322-10.9634552,0.1058044
				c-54.5368881-0.9745636-105.8947525-24.6593475-106.0567627-24.6593475
				c-0.0353661-0.0115051-0.0589409-0.0471497-0.0825157-0.0707245c-0.0115013-0.0471497-1.9429626-4.404007,3.1677361-7.8310699
				c5.1449242-3.4857788,13.9577217,8.0204926,60.7418709,17.5936127
				c39.7531357,8.1223145,71.3459396,6.0202942,105.0910263-3.3442688
				c25.7803345-7.1113586,37.5666504-16.5436707,42.4415741-15.8628235
				C263.9884644,141.4545135,265.6077271,145.7167511,264.5242004,148.9356384z"/>
			<path class="st8" d="M209.9807739,169.1844177c0.2580566,1.3352203-12.9938507,3.9048462-13.2519073,2.5581207
				c-0.1550293-16.7273102-1.4560852-21.3995056-4.1741333-40.9561615
				c-0.5610352-4.0396271-1.2905579-8.0677414-1.7055969-12.1298294c-1.3352051-11.3781128-3.4336395-22.78965-5.4419556-34.0664063
				c-1.7958527-10.083931-4.2327728-39.1176033-16.9784851-48.8146591
				c-7.2167053-5.4905396-16.5296173-7.4976101-25.5800476-4.6830635c-2.0581818,0.6402855-5.2953339,0.9920235-7.6683502,2.3069878
				c0.0826263-0.1011238,1.3910522-2.5559559,4.8794403-5.500864c11.329422-9.5643177,28.0281219-6.2320557,37.4627228,2.0163898
				c7.0062103,6.1253662,10.1687622,14.5219955,12.5781708,23.2207832
				c3.0217285,10.9094429,5.3267975,22.0000572,7.5596619,33.0926323
				c1.5371094,7.6414795,3.3213196,15.4286957,4.1628876,23.1709824c0.5385895,3.0073929,1.4924622,6.1714783,1.772995,9.1788712
				c0.7064209,5.3984222,1.0214386,3.4718323,4.8584442,30.6327515
				C209.3095245,155.2411041,209.7669067,163.0462189,209.9807739,169.1844177z"/>
			<path class="st20" d="M250.5810242,121.9089661c-2.0959015,3.9095001-5.169632,7.1951141-8.2433472,10.3984985
				c3.897995-8.8206711,5.3936005-22.0453491,0.6831055-30.4652405
				C251.5298157,101.9777832,256.2028198,111.4255447,250.5810242,121.9089661z"/>
		</g>
	</g>
</g>
</svg>
