<?xml version="1.0" encoding="utf-8"?>
<!-- Generator: Adobe Illustrator 22.0.1, SVG Export Plug-In . SVG Version: 6.00 Build 0)  -->
<svg version="1.1" id="Layer_1" xmlns="http://www.w3.org/2000/svg" xmlns:xlink="http://www.w3.org/1999/xlink" x="0px" y="0px"
	 viewBox="0 0 300 300" style="enable-background:new 0 0 300 300;" xml:space="preserve">
<style type="text/css">
	.st0{fill:#EDC1A4;}
	.st1{fill:#E2E0E0;}
	.st2{fill:#D39E81;}
	.st3{fill:#502E26;}
	.st4{fill:#CCCACA;}
	.st5{fill:#426800;}
	.st6{fill:#538705;}
	.st7{fill:#D47E44;}
	.st8{fill:#73341D;}
	.st9{fill:#BC672E;}
	.st10{fill:#96311D;}
	.st11{fill:#B83E21;}
	.st12{fill:#DE8D82;}
	.st13{fill:#EFBAB4;}
	.st14{fill:#FDD5D0;}
	.st15{fill:#6883CE;}
	.st16{fill:#3D4885;}
	.st17{fill:#3859AE;}
	.st18{fill:#864424;}
	.st19{fill:#FEFEFE;}
	.st20{fill:#FFFFFF;}
	.st21{fill:#A55925;}
	.st22{fill:#F4F2F2;}
	.st23{fill:#3C3E68;}
	.st24{fill:#E8997C;}
	.st25{fill:#F5C46B;}
	.st26{fill:#F7EBDA;}
	.st27{fill:#0E0C0D;}
	.st28{fill:#657C3A;}
	.st29{fill:#576C37;}
	.st30{fill:#7C995D;}
	.st31{fill:#36518C;}
	.st32{fill:#96B7E3;}
	.st33{fill:#A3B3DF;}
	.st34{fill:url(#SVGID_1_);}
	.st35{fill:url(#SVGID_2_);}
	.st36{fill:url(#SVGID_3_);}
	.st37{fill:url(#SVGID_4_);}
	.st38{fill:url(#SVGID_5_);}
	.st39{fill:#266AB7;}
	.st40{fill:#060E0D;}
	.st41{fill:#E0D4C6;}
	.st42{fill:#787E42;}
	.st43{fill:#D3D1D1;}
	.st44{fill:url(#SVGID_6_);}
	.st45{fill:url(#SVGID_7_);}
	.st46{fill:url(#SVGID_8_);}
	.st47{fill:#020508;}
	.st48{fill:#BAB6B6;}
	.st49{fill:#0F0B07;}
	.st50{fill:#2F3A68;}
	.st51{fill:#203257;}
	.st52{opacity:0.5;fill:#FFFFFF;}
	.st53{opacity:0.2;fill:#0E0C0D;}
	.st54{fill:#DD9F9B;}
	.st55{fill:#3E4D9B;}
	.st56{fill:url(#SVGID_9_);}
	.st57{fill:#5F6194;}
	.st58{fill:url(#SVGID_10_);}
	.st59{fill:url(#SVGID_11_);}
	.st60{fill:url(#SVGID_12_);}
	.st61{fill:url(#SVGID_13_);}
	.st62{fill:#070102;}
	.st63{fill:#100805;}
	.st64{fill:#FDA465;}
	.st65{fill:#2A50A1;}
	.st66{fill:#B76C39;}
	.st67{fill:#130602;}
	.st68{fill:url(#SVGID_14_);}
	.st69{fill:url(#SVGID_15_);}
	.st70{fill:url(#SVGID_16_);}
	.st71{fill:url(#SVGID_17_);}
	.st72{fill:url(#SVGID_18_);}
	.st73{fill:url(#SVGID_19_);}
	.st74{fill:#B4BDED;}
	.st75{fill:#100D08;}
	.st76{fill:#F6C85F;}
	.st77{fill:#FECF00;}
	.st78{fill:#2D59E2;}
	.st79{fill:#121F3A;}
	.st80{fill:#BBD0F5;}
	.st81{fill:#020202;}
	.st82{fill:#E2CFB7;}
	.st83{fill:#080805;}
	.st84{fill:#A87D7C;}
	.st85{fill:#182052;}
	.st86{fill:#EAEAEA;}
	.st87{fill:#DDDDDD;}
	.st88{fill:#3D4574;}
	.st89{fill:#ABC5F0;}
	.st90{fill:url(#SVGID_20_);}
	.st91{fill:#4159A8;}
	.st92{fill:#E0D0BD;}
	.st93{fill:#3D53AA;}
	.st94{fill:#0A0000;}
	.st95{fill:#BF6D36;}
	.st96{fill:#385DAE;}
	.st97{fill:#E0DCDC;}
	.st98{fill:#857E78;}
	.st99{fill:#0E213C;}
	.st100{fill:url(#SVGID_21_);}
	.st101{fill:#55608E;}
	.st102{opacity:0.3;fill:#F4F2F2;}
	.st103{opacity:0.3;}
	.st104{fill:#213987;}
	.st105{enable-background:new    ;}
</style>
<g id="_Food_Delivery_1_">
	<g id="_Food_Delivery">
		<g>
			<path class="st0" d="M33.0363274,255.5077362l1.6333542-11.0191803l14.9356918,4.3339691l-0.9162483,11.6483612
				c0,0-7.4827194,3.4673767-8.4288712,3.1732178s-6.5523987-4.2177124-6.5523987-4.2177124L33.0363274,255.5077362z"/>
			<path class="st19" d="M30.0824661,267.389679c2.0833778,0.9206543,4.4831429,1.4449463,6.6791344,2.033905
				c6.7193184,1.7878723,13.5078812,3.2553101,20.3656921,4.4023743c2.6243286,0.4325867,5.6265068,0.3427124,8.1430626,1.1898499
				c-1.2973099,1.3650208-3.224472,1.471283-5.0119934,1.5140381c-5.0378532,0.1196289-26.6641312-3.3289185-30.1121464-6.5281372
				C29.5625839,269.460022,29.9022579,268.4156799,30.0824661,267.389679z"/>
			<path class="st15" d="M65.269928,275.0137024c-2.6082878-0.0233459-5.5175018-0.7520447-8.1447334-1.1851501
				c-6.8567924-1.1472778-13.6450653-2.6158752-20.36483-4.4061279c-2.1923599-0.5881348-4.5959854-1.1106567-6.6769905-2.0305481
				c0.6810303-4.0888062,1.6155815-7.9625854,2.9529533-11.88414c1.6997833,1.5666656,3.2765541,3.3409576,5.5664063,4.0323944
				c3.0779495,0.930481,4.3029404-1.3288574,6.7293053-2.4891968c1.1799507-0.5678406,2.3580704-0.7241821,3.6051826-0.3103333
				c0.7111015,0.9432373,1.6832275,1.6369629,2.5704002,2.4054565c7.5675125,6.509552,7.7967911,6.8743286,9.8536072,8.3059998
				c1.7763214,1.2399597,3.5567703,3.413208,3.809761,5.6203918
				C65.2491302,273.718689,65.2794876,274.3675842,65.269928,275.0137024z"/>
			<g>
				<path class="st16" d="M46.981514,263.2699585c1.3959961-1.822998,3.597168-3.0031738,5.8881836-3.1572266
					c0.1904297-0.010498,0.3852539,0.142334,0.3989258,0.3491211c0.0141602,0.206543-0.1420898,0.385498-0.3491211,0.3994141
					c-2.0786133,0.1396484-4.0756836,1.2104492-5.3422852,2.8647461
					C47.2760544,264.1199341,46.6795273,263.6644287,46.981514,263.2699585z"/>
			</g>
			<g>
				<path class="st16" d="M49.5884476,265.0526733c1.3554688-1.7700195,2.7661133-3.3720703,5.1064453-3.5292969
					c0.190918-0.0095215,0.3852539,0.142334,0.3989258,0.3491211c0.0141602,0.206543-0.1420898,0.385498-0.3491211,0.3994141
					c-2.0297852,0.1362305-3.2661133,1.5463867-4.5605469,3.2368164
					C49.882988,265.9026489,49.2864609,265.4471436,49.5884476,265.0526733z"/>
			</g>
			<g>
				<path class="st16" d="M51.262764,266.5304565c1.3554688-1.7700195,2.7661133-3.3720703,5.105957-3.5290527
					c0.1953125-0.0078125,0.3852539,0.142334,0.3989258,0.3491211c0.0141602,0.2067871-0.1420898,0.385498-0.3491211,0.3994141
					c-2.0292969,0.1359863-3.265625,1.5461426-4.5600586,3.2365723
					C51.5573044,267.3804321,50.9607773,266.9249268,51.262764,266.5304565z"/>
			</g>
			<path class="st0" d="M78.680191,260.1921997l-0.923111-11.1012573l15.5305252,0.812973l1.7648315,11.5503082
				c0,0-6.4945831,5.0827332-7.4828949,5.012146c-0.9883041-0.0706177-7.3416977-2.611969-7.3416977-2.611969L78.680191,260.1921997
				z"/>
			<path class="st0" d="M76.383194,45.7920113c-0.0082703,0.1023521-0.468544,5.7980423-0.4405441,5.4516029l-0.2629852,3.2485504
				l-0.986412,7.1216316c0,0-10.3310852,0.7497635-11.0281105,0.5458679c-0.6905212-0.197155-5.4647675-3.517952-5.4647675-3.517952
				l2.8671646-5.938385c0.0286255-0.1003304,3.2228432-11.2961845,3.1893883-11.1793518L76.383194,45.7920113z"/>
			<path class="st3" d="M76.3503571,46.2258148l-0.4077072,5.0177994
				c-5.3619308,0.0790634-10.2217407-3.2158432-12.0736923-8.3649254l0.3550568-1.2429695
				C68.3472366,42.9377708,72.3981247,44.4700508,76.3503571,46.2258148z"/>
			<path class="st15" d="M82.1806564,27.2226467c0,0-2.0272141-5.6058998-8.9438477-5.2132912
				c-6.916626,0.3926086-10.7927017,3.3345165-12.2343826,6.8414402s0.381485,9.9504852,0.381485,9.9504852
				s9.8414459,0.4730682,9.9301987,0.4730682C71.4028549,39.2743492,82.1806564,27.2226467,82.1806564,27.2226467z"/>
			<path class="st0" d="M123.5606918,84.5866852c0.0315475,0.5529022-1.0701141,1.8426895-1.3392181,2.294281
				c-2.6824493,4.5014954-4.7217407,7.5304337-7.0737076,10.7638474c-3.3525085,4.6089096-7.4037857,5.2610321-11.7752914,2.6583557
				c-2.9817276-1.775238-10.7576981-10.4139023-13.0589218-12.9754791c-2.2320023-2.48452-0.0607452-3.6325607,2.0636902-4.9360352
				c3.3706436-2.0681,6.7412796-4.1362,10.1119156-6.2042999c0.1647873-0.1011047,0.3295746-0.2022171,0.4943542-0.3033218
				l7.6952667,7.7882843l11.9072952-16.1675949C122.5860748,67.5047226,123.5604782,84.5828781,123.5606918,84.5866852z"/>
			<path class="st48" d="M152.4470673,63.0839729c0,0,3.957901,38.7628746,3.855957,45.1455421
				c0,0-4.0456848,5.3532791-6.1934814,4.8151703s-6.1759186-21.9873962-6.1759186-21.9873962L152.4470673,63.0839729z"/>
			<path class="st1" d="M119.217598,64.6985703c0,0,29.2373428-1.4994316,33.2294693-1.6145973
				c0,0-3.3023682,44.4566383-2.3375244,49.9607124c0,0-32.1756058,3.3093567-36.9361115-0.8573074L119.217598,64.6985703z"/>
			<path class="st15" d="M85.0653381,57.3761826c0,0,11.7116013,7.5401611,17.918541,18.509285L89.3601608,92.3294144
				l-6.2680817-17.4766159L85.0653381,57.3761826z"/>
			<path class="st15" d="M39.1540375,121.1745529c0,0,6.3452644-24.6352158,5.7665062-33.217926
				s0.8946877-27.8802109,4.929615-30.3545341c4.0349236-2.4743195,11.2167511-4.9005585,11.2167511-4.9005585
				s10.03965,4.6738625,14.6104813,1.7920074c0,0,7.0919495,2.5402565,8.7658844,3.0538673
				s7.5124512,13.4817657,3.5824432,27.8302078c-3.9300003,14.3484344-1.8863983,18.5670547-3.3012009,20.6235504
				S39.1540375,121.1745529,39.1540375,121.1745529z"/>
			<g>
				<g>
					<path class="st7" d="M182.2773895,100.1767426c-2.1121826-0.5653763-2.858139-0.7115021-4.9703522-1.2768784
						c-5.3546295,2.3628845-11.1849518,3.4123154-17.0164948,2.913887
						c-0.6646881-0.0568161-1.4240112-0.1915131-1.7632904-0.7659225c-0.3943024-0.667572,0.204071-1.6664429,0.978714-1.6337509
						c-0.6263275,0.1392365-1.2164307,0.0370712-1.8530884-0.042572c-0.6366577-0.0796509-1.278656-0.423439-1.5383606-1.0101395
						c-0.2597046-0.5867081,0.0129089-1.4029388,0.6310272-1.5750046c-0.6792297,0.1460571-1.3786011,0.292717-2.0633698,0.1753235
						c-0.6847534-0.1173859-1.3604584-0.5632095-1.5365448-1.2352753c-0.1760864-0.6720734,0.3569641-1.4958038,1.0494537-1.4396591
						c-0.527359-0.0526733-1.0641937-0.1459732-1.523407-0.4105682c-1.1739807-0.6764297-1.118988-2.0148773,0.0232086-2.704422
						c0.5075531-0.3064041,1.1054535-0.4184799,1.6893921-0.5210342c4.102066-0.7204666,8.2398529-1.2376175,12.3930664-1.5489273
						c-1.9213409-0.5534821-3.6160889-1.4032211-5.2550354-2.5485306c-2.8778381-2.0110626-1.3583679-4.7892761,2.8336029-3.4985428
						c4.7690277,1.4684143,9.4249878,3.3038864,13.9131165,5.4848175c2.2010803-0.364563,2.9544373-1.2961807,5.1762085-1.0923386
						C184.1953735,87.5160141,183.0275269,100.2455597,182.2773895,100.1767426z"/>
					<path class="st7" d="M248.5122833,59.5818901l-3.4589386,3.8666611h-9.2985992
						c0.0135651-0.1745071,0.7534332-9.6913109,0.7167664-9.2196884c2.266098-4.2081299,5.8317413-5.5155449,10.771637-3.5641861
						L248.5122833,59.5818901z"/>
					<path class="st3" d="M242.0217743,51.9208107c-1.6703491,1.6703529-3.5971069,3.0841446-5.6949158,4.169136l0.1446533-1.861084
						c1.0587463-1.9660835,2.3805389-3.2681351,3.9456482-3.919323c0.2433167-0.032753,0.4801331-0.0523376,0.7233582-0.0722466
						C242.457901,50.1408119,243.0470886,50.8726425,242.0217743,51.9208107z"/>
					<path class="st11" d="M231.1587219,40.4606476c-2.052002,0.4071274-4.2879028-1.1038361-4.6755371-3.1595993
						c-0.479187-2.5414009,1.9258881-5.9765282,3.5746765-6.7705002c0.8102875-0.3901882,1.8581696-0.4026184,2.5442963,0.1787987
						c0.7691193-1.8587475,3.2196503-2.7994537,5.0349884-1.9328232c1.8153381,0.8666286,2.6247406,3.3636055,1.6630554,5.1304245
						c0.8589325-0.8539963,1.827652-1.6243324,2.9496002-2.0807686c2.899231-1.1794949,5.5942535,0.312336,5.9927979,2.9005432
						c0.2073975,1.3469124-0.3544464,2.7857666-1.419693,3.6357307c1.2080536-0.7929611,2.5086212-1.6149406,3.9536743-1.6136322
						c1.7867889,0.0016174,3.4567261,1.4670181,3.6904602,3.2384605s-0.9989471,3.6198349-2.7241821,4.0848503
						c1.1588593-0.0421143,2.2345581,0.8304863,2.6174927,1.9250526c1.6319275,4.6644363-6.3517303,8.8596954-11.6694336,7.8063087
						c-3.0330963-0.6008301-5.7909088-2.8027725-6.6983643-5.7586555"/>
					<path class="st7" d="M233.1536713,59.1832352c0,0,13.6945038-1.3024101,17.2026978-0.818264
						c3.508194,0.4841499-5.6447601,9.0401726-5.6447601,9.0401726l-8.3451843,2.7856827
						c0,0-5.6791229-2.0892639-5.8052673-2.1887512C230.4349976,67.9025879,233.1536713,59.1832352,233.1536713,59.1832352z"/>
					<path class="st1" d="M205.6160431,250.8029022c1.1004333-2.7238007,3.3841248-3.4620361,6.3205566-3.7504578
						c4.8399811-0.4753876,10.0084229,0.6413422,11.8898468,5.1009369c0.7829895,1.8559113-0.0597382,5.1046448,0.6239319,7.9519958
						c0.0766907,2.6015625,0.8576508,5.3971558,0.5761719,7.9751282c-0.1305695,1.1959229-0.5712128,1.9573975-1.5233917,2.6906738
						c-5.398407,4.1552734-18.6521301,4.0387878-25.2021179,3.1210327
						c-2.9945526-0.4195251-8.1193695-1.2253723-10.0017548-3.9007568
						c-2.7537994-3.9146729,5.6102142-8.2160645,9.7510071-10.5758972c2.151825-1.2358398,3.982254-3.2390137,5.4954834-5.1736755
						C205.2625275,252.0470428,205.1978607,251.8379669,205.6160431,250.8029022z"/>
					<path class="st7" d="M224.3517456,237.3664856l-0.0328217,1.5782013
						c-0.0485535,3.1044922-0.7207642,10.6798401-0.3550568,13.5862885
						c-4.3220215,2.3480988-12.1256409,2.3221436-18.3473816-1.7294312
						c-0.1007538-4.062912-0.5873871-11.0990295-0.6115417-15.0790863l-0.0394897-0.197464l0.3551331,0.0394897
						C206.8658752,235.7555847,215.6821289,238.0198822,224.3517456,237.3664856z"/>
					<path class="st11" d="M224.3517456,237.3664856c-0.0533447,1.8249664,0.0108643,1.4561768-0.1774902,4.9320679
						c-6.4510956,0.657608-13.0666809-0.302475-19.0641479-2.7685089c-0.059082-1.4138031-0.0985718-2.7225952-0.1051636-3.8075867
						l-0.0394897-0.197464l0.3551331,0.0394897C206.8658752,235.7555847,215.6821289,238.0198822,224.3517456,237.3664856z"/>
					<path class="st1" d="M247.524292,249.2730255c3.5623627-2.4881287,11.0263977-2.7719116,14.3570251-1.227417
						c2.2085266,1.0241547,2.4815674,0.3738098,3.1800537,2.6480255c0.9888,3.2193756,0.9647217,7.702179,1.3658752,10.2101135
						c0.3929749,1.752655,1.0810852,4.4495544,0.3453064,6.1528625
						c-3.1592407,7.3124084-32.7740021,15.3999634-35.1412811,8.0625916
						c-1.3128357-4.0727539,5.5322723-8.1637268,7.9232788-10.6968994
						c5.6972809-6.0360413,3.4081421-9.6341095,5.7506714-13.3269501
						C245.8439636,250.2460632,246.698761,249.8496094,247.524292,249.2730255z"/>
					<path class="st7" d="M265.0644226,250.696228c-1.3744812,1.8543396-6.7010803,3.6695099-6.7010803,3.6695099
						c-8.8317261,2.2621307-13.592804-2.0190735-13.592804-2.0190735c-0.3469543-1.469162,1.2568512,5.3221588-3.3932037-14.3684845
						l20.2740326-4.3271179C262.0013733,235.3989258,260.3858643,227.3308258,265.0644226,250.696228z"/>
					<path class="st11" d="M263.4072266,242.4234619c-7.0101318,0.9337463-14.1583405,0.7497559-21.109314-0.5590363
						l-0.920578-3.8862457l20.2740326-4.3271179L263.4072266,242.4234619z"/>
					<path class="st15" d="M238.2996826,110.8426208l-6.8325653,52.8257599
						c-0.5471954,8.7837524-4.3111267,69.177475-4.7545013,76.3744507
						c-8.0096283,2.3279724-23.5029297-1.979248-23.5029297-1.979248s-2.078064-20.0374756-4.4717712-52.9111786
						c-2.3936157-32.8672638,9.5814056-69.4107895,9.5814056-69.4107895L238.2996826,110.8426208z"/>
					<path class="st16" d="M230.9870758,171.3490448l-3.0578918,49.1103516
						c-1.519043-6.0960541-4.5901031-20.3136292-5.4449463-38.3452148
						c-1.1442261-24.2393646,3.3668823-54.0424042,3.3668823-54.0424042L230.9870758,171.3490448z"/>
					<path class="st15" d="M265.0613708,127.6036148c-3.5275269,34.9666214-3.4041443,72.3247604,0.6396179,112.2517014
						c0,0-9.1117554,3.8841095-25.3161316,0.8141632c0,0-11.5644989-55.5135498-14.3486786-75.0426788
						s0.4680328-41.1494141,0.4680328-41.1494141L265.0613708,127.6036148z"/>
					<path class="st1" d="M233.1177216,65.1914673c-2.2241211,8.3147888-4.4661407,16.7438889-8.8382263,24.2194672
						c-4.3428192,7.4197693-11.0527954,13.8203506-19.5178528,15.8747635
						c-6.7102661,1.6788483-14.0197906,0.0549774-20.5700226-2.2621384c-1.2428894-0.4405441-2.5054474-0.8746643-3.73526-1.3742981
						c-1.5975952-0.6271057-1.5874939-0.6564331-1.7030945-1.7297516c-0.2772675-2.4552383-0.2928619-5.1882706,0.0262451-7.9372253
						c0.0591583-0.4800415,0.6247711-5.0964661,0.9798279-5.10289c0.2630615-0.0067444,0.8548431-0.0330734,1.6834412-0.0857315
						c4.1692963-0.2562332,14.2241516-0.992836,16.8282623-1.2362289c3.1697235-0.302475,6.904892,0.0722504,8.8382263-2.4528656
						c14.6449585-19.1165733,25.8835449-23.7660713,25.8835449-23.7660713L233.1177216,65.1914673z"/>
					<path class="st47" d="M233.0093079,59.8307381c-0.3091431,5.0964699-1.8644104,11.7788429-3.054718,16.7504005
						c-1.446701,4.3993683-3.1828003,8.6802444-5.5172729,12.6721344
						c-4.2416229,7.2468643-10.78479,13.5468063-18.8734131,15.7103653
						c3.9128113-13.4218979,10.1798553-26.1662827,18.4262085-37.4705353
						c1.0389862-1.4205399,2.117569-2.8343353,3.4656067-3.9719849
						C228.8103638,62.3898888,231.2534637,59.936058,233.0093079,59.8307381z"/>
					<path class="st3" d="M205.9274139,103.7761612c7.7052002-2.3731918,15.9881287-5.0114212,20.6247101-11.9761658
						c3.1371613-4.7124252,4.4657745-12.7537384,13.2369537-24.8793869
						c0.8681641-1.2001801,1.7832642-2.3929749,2.9612122-3.2910652c3.208847-2.4464722,6.7253571-1.3636627,8.3424225,2.0493584
						c2.040451,4.3066483,1.2591553,16.3103867-6.8748627,27.0957336
						c-4.6905518,6.2194824-10.9726563,11.1195297-17.791153,14.886673"/>
					<path class="st16" d="M233.1536713,59.1832352c0,0-0.2302399,4.6448441,7.4538269,2.322422
						c7.6840515-2.322422,9.3744202-3.140686,9.3744202-3.140686s9.9655609,2.3102913,14.5022736,10.4969902
						s6.8205566,24.3507156,5.1500854,46.3063736c0,0-0.8960876,13.3699951-4.9059143,14.2978516
						c-13.9503632,3.2280579-51.8219299-0.5534668-58.7505341-9.8377609c0,0,0.9396362-18.7823639,7.3109589-31.31633
						S228.3770752,61.9739075,233.1536713,59.1832352z"/>
					<path class="st3" d="M180.4563599,101.6492615c-1.5975952-0.6271057-1.5874939-0.6564331-1.7030945-1.7297516
						c-0.2772675-2.4552383-0.2928619-5.1882706,0.0262451-7.9372253c0.0591583-0.4800415,0.6247711-5.0964661,0.9798279-5.10289
						c0.2630615-0.0067444,0.8548431-0.0330734,1.6834412-0.0857315
						C180.3841095,91.6602249,180.0487366,96.6841278,180.4563599,101.6492615z"/>
					<path class="st47" d="M256.6999817,62.706749c0,0,9.3453369,3.6866302,5.9902649,28.3501816
						s-8.4261475,24.5372162-10.1074524,25.3446045s-9.1374969,3.729866-20.3630676,2.3726654
						C220.9941406,117.4169922,256.6999817,62.706749,256.6999817,62.706749z"/>
					<path class="st16" d="M223.4637604,153.7078705c2.6437225-11.5726013-4.3592682-17.2434998-2.4438019-24.9013672
						c-0.5674896,8.1976013,5.8855133,14.0565033,3.7102356,26.0126801"/>
					<path class="st7" d="M242.1536102,48.4302864c-0.8081818,1.8165283-1.7330627,3.8718491-3.2719269,5.2038765
						c-1.9053955,1.649292-4.9249725,1.9272461-7.0808868,0.8022957c-0.3735352-0.1949158-0.6925964-0.4413986-1.0233154-0.6983299
						c-1.618988-1.2577667-0.3266754-1.7843628-1.1920319-2.8838005c-0.1017456-0.1292801-0.2324371-0.2803726-0.1786957-0.4358711
						c0.0557861-0.1613731,0.2885284-0.2271118,0.3063965-0.3969154c0.0138092-0.1311951-0.1110229-0.2307129-0.1670074-0.3501663
						c-0.1370239-0.2923813,0.1240234-0.5841827,0.1057129-0.8782005c-0.016098-0.2583771-0.2450409-0.6322784-0.4535675-0.7833977
						c-0.4790802-0.3472099-1.3196106-0.1986389-0.9081573-1.4140854c0.576889-1.7041168,1.2553101-3.3683167,1.9150085-5.0412865
						c0.2621613-0.6648445,0.4258423-1.3672791,0.9831696-1.8465996c1.1662292-1.0029716,3.0023651-0.8186226,4.508255-0.6477928
						c3.1133423,0.3531799,5.3181,1.0433273,5.8043213,4.3168983c0.1462097,0.9843369,0.0876617,1.9862175,0.0287781,2.9796104
						c0.4944916-0.7449722,1.2927094-1.2613869,2.1616974-1.4720192s1.9055328,0.1334801,2.2977142,0.9370384
						c0.5690613,1.1659889-0.3236237,2.6613808-1.9826355,2.8159256
						C243.3347931,48.7000313,242.7623291,48.7209435,242.1536102,48.4302864z"/>
					<g>
						<path class="st7" d="M199.202652,118.7258682c-2.1121826-0.5653763-2.8581543-0.7115021-4.9703522-1.2768784
							c-5.3546295,2.3628845-11.1849518,3.4123154-17.0164948,2.913887
							c-0.6646881-0.0568161-1.4240112-0.1915131-1.7632904-0.7659225c-0.3943024-0.667572,0.204071-1.6664505,0.978714-1.6337509
							c-0.6263275,0.1392365-1.2164307,0.0370712-1.8530884-0.0425797c-0.6366577-0.0796432-1.278656-0.4234314-1.5383606-1.0101395
							c-0.2597046-0.5867004,0.0129089-1.4029312,0.6310272-1.5749969c-0.6792297,0.1460571-1.3786011,0.292717-2.0633698,0.1753235
							c-0.6847534-0.1173859-1.3604584-0.5632095-1.5365448-1.2352829
							c-0.1760864-0.6720657,0.3569641-1.4958038,1.0494537-1.4396515c-0.527359-0.0526733-1.0641937-0.1459732-1.523407-0.4105682
							c-1.1739807-0.6764297-1.118988-2.0148773,0.0232086-2.704422c0.5075531-0.3064041,1.1054535-0.4184799,1.6893921-0.5210419
							c4.102066-0.720459,8.2398529-1.2376099,12.3930664-1.5489197c-1.9213409-0.5534821-3.6160889-1.4032288-5.2550354-2.5485382
							c-0.7528839-0.526123-1.536377-1.2565384-1.4865112-2.1736832c0.0474396-0.8728485,0.8860779-1.5373688,1.7478333-1.6840134
							c0.8617401-0.1466446,1.7368469,0.1019211,2.5722809,0.3591614c4.7690277,1.4684143,9.4249725,3.3038788,13.9131165,5.4848099
							c2.2010803-0.3645554,2.9544373-1.2961731,5.1762085-1.0923386
							C201.120636,106.0651398,199.9527893,118.7946854,199.202652,118.7258682z"/>
						<path class="st1" d="M253.7140808,110.8227158c0,0-6.0894623,8.4834061-25.1403809,10.0089417
							c-14.2438965,1.1376495-23.9633026-0.2366486-27.9615326-0.9995728
							c-1.3547058-0.2629852-2.0518188-0.4537125-2.0518188-0.4537125s-2.880249-9.2527618-0.3419647-14.4410629
							c3.5377197-0.8309784,26.7329102-6.0956039,29.9804382-8.6083221c0,0,6.2736206-24.8247299,14.1451721-31.6374664
							c7.864975-6.8063126,14.4805603-3.3275375,16.9400024,0.901001
							C262.3155823,70.8203201,267.1884766,86.9253159,253.7140808,110.8227158z"/>
						<path class="st3" d="M200.6121674,119.8320847c-1.3547058-0.2629852-2.0518188-0.4537125-2.0518188-0.4537125
							s-2.880249-9.2527618-0.3419647-14.4410629c0,0,0.6379395-0.1448212,1.729599-0.3946304
							C199.0272217,109.6063919,199.2574615,114.8736877,200.6121674,119.8320847z"/>
					</g>
				</g>
				<path class="st3" d="M235.1806793,42.2039719c0.3402405,0.1491699,0.3754883,0.5245552,0.0536652,0.724865
					c-0.4683533,0.2915154-2.7896881,0.4179535-3.5415497,0.4135323c-0.3084564-0.001812-0.9057617-0.0541153-0.891861-0.4907532
					c0.0132294-0.4158783,0.5828857-0.4829483,0.8832855-0.5295105
					C232.3872528,42.2131386,234.7009125,41.9936371,235.1806793,42.2039719z"/>
				<ellipse class="st3" cx="233.0164185" cy="45.0502548" rx="0.6018875" ry="0.942957"/>
				<path class="st3" d="M242.7268677,47.5982437c0-0.3611336,0-0.7222672,0-1.0833969
					c0.1728516-0.1801987,0.2735596-0.2913513,0.5012512-0.393856c0.6612549-0.2976837,1.1646423,0.3230782,0.7126312,1.040432
					C243.6634064,47.6015587,243.2451935,47.5536499,242.7268677,47.5982437z"/>
			</g>
			<path class="st11" d="M92.7305832,128.8486481c0,0-46.6341515,7.8219147-53.5873413-7.6726303
				c8.0022659-3.5663147,13.3969269-11.7789459,16.9634285-23.2871704c0.809082-2.5770569,1.5285301-5.3341064,2.1577911-8.2126236
				c0.4796333-2.2477951,0.929081-4.5848541,1.3187141-6.9819107l28.3521957-0.7799911
				C87.9539871,82.029274,93.9381485,96.6437378,92.7305832,128.8486481z"/>
			<path class="st47" d="M92.8205872,115.661911c-5.4846649,0.1199951-10.9393234-0.3000031-16.184166-1.9185257
				c-8.4517136-2.5770569-15.8843536-8.3619003-20.5297508-15.854538c0.809082-2.5770569,1.5285301-5.3341064,2.1577911-8.2126236
				c12.1082191,2.6985168,23.646801,7.7926331,33.9566765,14.8052673
				C92.5207672,107.8092728,92.7305832,111.5248642,92.8205872,115.661911z"/>
			<path class="st11" d="M68.1744232,84.8693924c0,0-5.7282677-28.0999184-18.3242645-27.2672997
				c0,0,1.3020782-2.6400719,5.6948013-2.8875961c0,0,12.5885239,3.0623741,17.3727036,29.3759117"/>
			<path class="st11" d="M82.6510239,83.1048431c-0.2891541-11.1411362-1.4007111-21.0373764-4.6036682-27.7669487
				c0,0,2.7789078-0.4766884,5.0447235,1.763916c0,0,4.4036026,14.9850807,4.4036026,25.2628746
				S82.6510239,83.1048431,82.6510239,83.1048431z"/>
			<path class="st11" d="M39.1540375,121.1745529c0,0-4.5336914,29.5477219-5.6809044,51.0281143
				c-1.1472168,21.4803772-2.5789719,76.7472992-2.5789719,76.7472992s18.0880547,1.4810181,25.6013145,0.7523651
				l12.1047897-87.2540131l1.0264053-16.7073822v-20.3228683L39.1540375,121.1745529z"/>
			<path class="st11" d="M99.705452,250.4194489c0,0-19.5967789,4.0577087-29.9737778,2.3411255
				c0.0057526,0.1004028-3.9429474-68.3976135-6.6747475-115.8444672v-15.6182098l29.6647224,7.5429077L99.705452,250.4194489z"/>
			<g>
				<path class="st0" d="M72.4189224,83.1015854l4.7528229,9.1919098c0,0,24.7006989,12.1331863,35.0138168,11.2575836
					c4.4730301-0.3797684,8.3547745-1.7676315,12.7212448-2.809845c1.9849548-0.4737778,2.3751984,0.8377838,1.1004257,2.0466309
					c-1.6604919,1.5746155-3.6906815,2.7568588-5.8796844,3.4239044c3.6442032,0.9767456,7.7486343,1.3816986,11.5207062,1.3059692
					c0.9724121-0.0195236,2.1987915,0.0847778,2.5315399,0.9987106c0.2398224,0.6586838-0.1903534,1.4099121-0.7922058,1.7692947
					s-1.32901,0.4224777-2.0278778,0.4769211c0.5605621-0.3270569,1.3493805,0.1444626,1.4646301,0.7831497
					c0.1152649,0.6386871-0.3119354,1.2852097-0.8840027,1.5917053c-0.5720673,0.306488-1.2537994,0.3322449-1.8993835,0.265686
					c0.5462494-0.108696,1.0562286,0.4816818,0.9942627,1.0351791c-0.0619812,0.5534973-0.5494385,0.9871521-1.0836639,1.1446609
					c-0.5342255,0.1575012-1.107193,0.0903244-1.6551666-0.0092697c0.3831635,0.3058472,0.1982727,0.9799728-0.2218628,1.2326279
					c-0.4201431,0.252655-0.9482422,0.2082977-1.4345474,0.1461868c-3.9970169-0.5104675-7.9099274-1.6737289-11.5366745-3.4297104
					c-6.618248-3.2043915-14.5671387-0.2298889-21.9157333-0.4896393
					c-6.6019516-0.2333527-13.4124908-0.2499542-19.5540009-2.6835022
					c-5.8667526-2.3246765-16.968544-11.0428162-20.1134758-20.4203491"/>
				<path class="st15" d="M54.8047295,94.8887177l17.614193-11.7871323c0,0-11.7496262-28.9060135-22.4285202-25.5354118
					C39.311512,60.9367714,44.0681992,83.4482498,54.8047295,94.8887177z"/>
			</g>
			<path class="st10" d="M72.348938,136.4822998c-0.0293198,9.6676636,1.2039261,39.2720795-2.1109772,92.2296295
				c-0.1117401,1.6899414-0.4142151,10.3637695-1.1704788,11.2843475l-0.0723267-0.0391693l-1.7426834-30.1713409
				c-0.2152939-10.3657379-1.5447464-26.4013977-1.5519485-26.5014954
				c1.7732086-17.7320709,1.7461472-14.7963257,3.4063721-28.7440643l1.3086319-11.1135101
				c0.2828064-2.3742065,0.4537964-4.8598328,1.0456543-7.1746216c2.6304398-1.9859924,3.6891785-3.7353363,4.9320679-6.7077332
				c0.1183243-0.2761536,0.0131683-0.1907349,0.328804-0.2430725
				C77.2884598,131.7251434,74.2657242,134.9044495,72.348938,136.4822998z"/>
			<path class="st20" d="M127.2987595,67.9198532c0,0,5.0753403-1.286705,14.0386429-0.8567886
				c0.3667603,0.0175934,0.669281,0.3031082,0.700592,0.6689606c0.0853577,0.9975967,0.1922607,2.9276657-0.1310425,4.0053253
				c-0.4492645,1.4975433-13.8594208,1.3490448-14.3086853,0.6002731
				C127.1490021,71.5888443,126.696022,68.0506973,127.2987595,67.9198532z"/>
			<path class="st0" d="M133.2249451,59.2317619c1.5402069-0.8588257,2.1761932-0.4099464,3.5270386,0.5105896
				c0.3205109,0.0870895,0.1959381,0.0890694,0.5059662,0.0469131c1.0168915-0.1543884,2.171936-0.1499901,3.0241241,0.5181961
				c0.1138306,0.0892525,1.314209,1.2931786,1.1347656,1.3442039c0.35466-0.100853,0.7206879-0.2120667,1.0904694-0.2707138
				c1.4962616-0.2352562,2.533844,1.0060768,2.1987915,1.9229774c-1.4585724,3.9914055-5.0504303,7.2718086-6.0666199,7.5120735
				c-0.3651276,0.0863342-0.799118-0.0112839-1.0054626-0.324646c-0.105484-0.1602097-0.1416626-0.3575287-0.2423248-0.520813
				c-0.2779541-0.4508896-0.4822693-0.0927505-0.6922607,0.147377c-0.852356,0.9746399-2.4134521,2.1823807-3.4225311,1.3613358
				c-0.5483704-0.4461746-0.5300903-1.2739334-0.4633026-1.9777145c-0.1888428,0.3886948-0.3804932,0.7817917-0.6583557,1.1127472
				c-1.1727753,1.3968353-2.7937317,0.3683319-2.552475-0.89534c-0.1716003,0.3315201-0.3475952,0.6690598-0.6138458,0.9307175
				c-0.6987,0.6866531-1.572197,0.412178-1.8667603-0.4444199c-0.4241638-1.2334442,0.6266708-8.1044884,2.2840271-10.2734451
				C130.482193,58.5236626,131.3253632,58.2259941,133.2249451,59.2317619z"/>
			<g>
				<path class="st2" d="M129.296463,69.5756302c0.4306641-3.2438965,1.6118164-6.4016113,3.4155273-9.1320801
					c0.2757874-0.4142723,0.8987885,0.0008507,0.6259766,0.4135742c-1.7416992,2.6362305-2.8818359,5.6853027-3.2983398,8.8171387
					C129.9747467,70.1659088,129.230896,70.0679398,129.296463,69.5756302z"/>
			</g>
			<g>
				<path class="st2" d="M132.4917755,69.4125443c0.5332031-2.7053223,1.703125-5.2919922,3.3833008-7.4799805
					c0.3010254-0.3929787,0.8973236,0.0623512,0.5947266,0.4570313c-1.6103516,2.0966797-2.730957,4.5754395-3.2416992,7.1679688
					C133.1309052,70.0448456,132.3959503,69.898613,132.4917755,69.4125443z"/>
			</g>
			<g>
				<path class="st2" d="M136.6602325,69.6015091c0.6391602-2.7719727,1.8583984-5.4560547,3.5263672-7.7624512
					c0.2918091-0.4019852,0.8983154,0.0381584,0.6074219,0.4394531c-1.609375,2.2258301-2.7861328,4.8164063-3.4033203,7.4914551
					C137.2782288,70.2575226,136.5478516,70.0849457,136.6602325,69.6015091z"/>
			</g>
			<g>
				<path class="st2" d="M126.2017288,109.56147c-0.4324493-0.2419357-0.0661011-0.8968887,0.3662109-0.6542969
					c1.677742,0.9384766,3.6577225,1.3908691,5.5771561,1.2731934c0.1977539-0.0131836,0.3847656,0.1445313,0.3974609,0.3513184
					c0.012207,0.2067871-0.1450195,0.3845215-0.3515625,0.3972168
					C130.1881561,111.0520782,128.0518799,110.5970993,126.2017288,109.56147z"/>
			</g>
			<g>
				<path class="st2" d="M124.3941116,111.7094193c-0.3875504-0.3096924,0.0794067-0.8950119,0.4677734-0.5864258
					c2.7267456,2.1753311,5.8514633,1.9693909,5.7514725,1.953125c0.4915619,0,0.4985657,0.7413025,0.0068359,0.75
					C128.383194,113.866066,126.1177597,113.0840149,124.3941116,111.7094193z"/>
			</g>
			<g>
				<path class="st2" d="M128.4639435,116.0470657c-1.8486404-0.1525879-3.6245193-0.921875-5.0004959-2.166748
					c-0.3672791-0.3317184,0.1334686-0.8898392,0.5029297-0.5561523c1.2543945,1.1347656,2.8735352,1.8364258,4.5590897,1.9753418
					C129.014801,115.3399963,128.9640656,116.0827866,128.4639435,116.0470657z"/>
			</g>
			<path class="st16" d="M64.7050476,32.2706108c0,0,0.5244064-4.3904648,17.2347717-6.0553818
				c0,0,7.6453857-0.9546947,8.8888245,1.9018135c1.4571533,3.3474731-1.3385849,5.4043922-8.8888245,7.1018791
				S64.7050476,32.2706108,64.7050476,32.2706108z"/>
			<path class="st0" d="M81.7214966,31.6101112c0,0,1.7731018,11.7458382-2.8045197,15.8265457
				s-7.3398819,2.7980995-10.0252304,1.7264938c-2.6853409-1.0716057-5.2622452-4.9906425-5.4233017-5.7959251
				c-3.3328743,0.059845-5.2039795-3.4588852-3.62183-6.1770706c1.1434288-1.9644547,3.3428383-1.9903984,4.1590614-0.7163544
				c0.1769485-1.2862663,0.317749-2.3484077,0.4946976-3.6346703c0.1863098-1.3543835,2.2938156-1.8980808,3.636528-2.1374702
				c3.0102081-0.5366898,6.0839844-0.7159653,9.1361771-0.5328636
				C78.8874359,30.2656422,80.4751892,30.5794563,81.7214966,31.6101112z"/>
			<path class="st47" d="M73.7813263,34.4807777c0.1948624,0.0117493,0.3947449,0.0261841,0.571907,0.1081772
				c0.4584274,0.212162,0.4403992,0.7193565,0.0014648,0.9314613c-0.2405167,0.1162224-0.1288376,0.0887947-2.7296219,0.2473373
				c-0.6044159,0.0368462-1.2103424,0.0737-1.8150787,0.0427628c-1.206192-0.0617104-1.6788864-1.1991577-0.2630615-1.3561554
				C70.9300995,34.3009796,72.3958817,34.3972702,73.7813263,34.4807777z"/>
			<path class="st47" d="M81.4902878,34.4807777c0.1948624,0.0117493,0.3947525,0.0261841,0.5719147,0.1081772
				c0.4584198,0.212162,0.4403915,0.7193565,0.0014572,0.9314613c-0.240509,0.1162224-0.12883,0.0887947-2.7296219,0.2473373
				c-0.6044083,0.0368462-1.2103348,0.0737-1.8150787,0.0427628c-1.206192-0.0617104-1.6788788-1.1991577-0.2630615-1.3561554
				C78.6390686,34.3009796,80.1048431,34.3972702,81.4902878,34.4807777z"/>
			<ellipse class="st47" cx="79.3931351" cy="38.0862579" rx="0.8760229" ry="1.5110583"/>
			<ellipse class="st47" cx="71.5915451" cy="37.7248192" rx="0.8760229" ry="1.5110583"/>
			<path class="st19" d="M78.3902664,41.5446548c-2.342186,0.9527702-5.0585709,0.9458885-7.3959045-0.0187302
				c-0.0415421,2.7812042,2.7187347,3.7738609,4.8518677,2.5916214
				C76.8490677,43.5617447,78.0272369,42.632225,78.3902664,41.5446548z"/>
			<path class="st8" d="M62.9200897,40.4303741c0.0172806-0.8642807,0.0345612-1.7285576,0.0518417-2.5928383
				c-0.6091309,0.0148468-1.1933327,0.0168648-1.5241776,0.5285263
				C60.7139664,39.5008736,61.6440735,41.051487,62.9200897,40.4303741z"/>
			<path class="st3" d="M62.9594345,40.7754021c0.0018311-0.9623032,0.0036659-1.9246063,0.005497-2.8869095
				c-0.8065758,0.127903-1.7405548,0.6823502-1.6825447,1.4969406
				C61.3403931,40.2000237,62.1428719,40.7630844,62.9594345,40.7754021z"/>
			<path class="st19" d="M78.5143967,272.4346924c2.2384567,0.4211731,4.6945496,0.3842773,6.9669952,0.4568176
				c6.9499893,0.2080994,13.89431,0.0884399,20.8329849-0.3589783c2.6538162-0.1773987,5.5563507-0.949707,8.1997986-0.6988831
				c-0.9517517,1.624939-2.8038788,2.1679688-4.5345306,2.6173096c-4.8777618,1.2655945-26.7205429,2.8407898-30.8073883,0.5123901
				C78.4804535,274.5690308,78.5729675,273.474762,78.5143967,272.4346924z"/>
			<path class="st15" d="M114.5132828,271.8316956c-2.5448608,0.5721741-5.5435944,0.5262756-8.2003632,0.7038269
				c-6.9377213,0.446991-13.8820267,0.5654602-20.8330002,0.3551331c-2.2687149-0.0725403-4.7281647-0.0330505-6.9641342-0.45401
				c-0.2695618-4.1363831-0.2432327-8.1212158,0.1644058-12.2444458c2.0123215,1.1376648,3.9522324,2.5055237,6.3394318,2.6564636
				c3.2090607,0.2038879,3.8864136-2.2753296,5.9841461-3.9584961c1.0193253-0.8220215,2.1307297-1.242981,3.4393616-1.1245117
				c0.9075012,0.7561951,2.0122452,1.2098999,3.0513153,1.7557678c8.8528137,4.6118469,9.159256,4.9147339,11.4884033,5.8395081
				c2.0123215,0.8020935,4.2415466,2.5119324,4.9913101,4.603241
				C114.1976471,270.5755615,114.3752136,271.2004089,114.5132828,271.8316956z"/>
			<g>
				<path class="st16" d="M94.028389,264.5690308c0.9428711-2.0932617,2.8168945-3.7443848,5.0126953-4.4169922
					c0.4734039-0.1455994,0.6948471,0.571228,0.2197266,0.7172852c-1.9926758,0.6101074-3.6928711,2.1083984-4.5488281,4.0078125
					C94.5083618,265.3297424,93.824913,265.0209961,94.028389,264.5690308z"/>
			</g>
			<g>
				<path class="st16" d="M96.9732132,265.710144c0.9160156-2.0327148,1.9238281-3.9143066,4.1665039-4.6008301
					c0.4735184-0.1459961,0.6947556,0.5712585,0.2197266,0.7172852c-1.9458008,0.595459-2.828125,2.2507324-3.7026367,4.1916504
					C97.453186,266.4708557,96.7697372,266.1621094,96.9732132,265.710144z"/>
			</g>
			<g>
				<path class="st16" d="M98.9404984,266.7670288c0.9160156-2.0327148,1.9238281-3.9140625,4.1660156-4.6008301
					c0.4756546-0.1453552,0.6928787,0.5718384,0.2197266,0.7172852c-1.9453125,0.5957031-2.8271484,2.2507324-3.7021484,4.1916504
					C99.4210052,267.5265198,98.7356949,267.2219543,98.9404984,266.7670288z"/>
			</g>
			<path class="st20" d="M131.3652649,88.617897c-1.6261292,1.86866-3.2522736,3.7373276-4.8783951,5.6059952
				c-0.5038223-0.1883087-1.3996658-0.1622467-1.9360123-0.2025833c-2.663353-0.2003326-2.7754517,3.2163773-0.3745575,3.6109238
				c0.6992035,0.1149063,1.4340515-0.1119232,1.9900284-0.5512085c-0.2377396,0.9903412,0.1401291,2.1020126,0.9321594,2.7423172
				c0.6113892,0.494278,1.5841599,0.667923,2.1549301,0.1272354c0.4109497-0.3893127,0.4871826-1.0351944,0.335495-1.580574
				s-0.4928894-1.0151443-0.8275452-1.4717102c2.6303253-3.4247818,5.4750519-7.3363724,8.1053772-10.7611542"/>
			<path class="st48" d="M137.5975037,77.7793655c5.3947601-2.2573624,8.7774658,1.6320496,6.1230011,7.0552139
				c-1.7325897,3.5397415-4.9946136,6.2976837-8.7731934,7.4174652c-4.7688446,1.4132538-7.3532333-1.5033493-4.1572113-7.9611816
				C132.2105865,81.4206772,134.6303101,79.0209503,137.5975037,77.7793655z"/>
		</g>
	</g>
</g>
</svg>
