<?xml version="1.0" encoding="utf-8"?>
<!-- Generator: Adobe Illustrator 22.0.1, SVG Export Plug-In . SVG Version: 6.00 Build 0)  -->
<svg version="1.1" id="Layer_1" xmlns="http://www.w3.org/2000/svg" xmlns:xlink="http://www.w3.org/1999/xlink" x="0px" y="0px"
	 viewBox="0 0 300 300" style="enable-background:new 0 0 300 300;" xml:space="preserve">
<style type="text/css">
	.st0{fill:#EDC1A4;}
	.st1{fill:#E2E0E0;}
	.st2{fill:#D39E81;}
	.st3{fill:#502E26;}
	.st4{fill:#CCCACA;}
	.st5{fill:#426800;}
	.st6{fill:#538705;}
	.st7{fill:#D47E44;}
	.st8{fill:#73341D;}
	.st9{fill:#BC672E;}
	.st10{fill:#96311D;}
	.st11{fill:#B83E21;}
	.st12{fill:#DE8D82;}
	.st13{fill:#EFBAB4;}
	.st14{fill:#FDD5D0;}
	.st15{fill:#6883CE;}
	.st16{fill:#3D4885;}
	.st17{fill:#3859AE;}
	.st18{fill:#864424;}
	.st19{fill:#FEFEFE;}
	.st20{fill:#FFFFFF;}
	.st21{fill:#A55925;}
	.st22{fill:#F4F2F2;}
	.st23{fill:#3C3E68;}
	.st24{fill:#E8997C;}
	.st25{fill:#F5C46B;}
	.st26{fill:#F7EBDA;}
	.st27{fill:#0E0C0D;}
	.st28{fill:#657C3A;}
	.st29{fill:#576C37;}
	.st30{fill:#7C995D;}
	.st31{fill:#36518C;}
	.st32{fill:#96B7E3;}
	.st33{fill:#A3B3DF;}
	.st34{fill:url(#SVGID_1_);}
	.st35{fill:url(#SVGID_2_);}
	.st36{fill:url(#SVGID_3_);}
	.st37{fill:url(#SVGID_4_);}
	.st38{fill:url(#SVGID_5_);}
	.st39{fill:#266AB7;}
	.st40{fill:#060E0D;}
	.st41{fill:#E0D4C6;}
	.st42{fill:#787E42;}
	.st43{fill:#D3D1D1;}
	.st44{fill:url(#SVGID_6_);}
	.st45{fill:url(#SVGID_7_);}
	.st46{fill:url(#SVGID_8_);}
	.st47{fill:#020508;}
	.st48{fill:#BAB6B6;}
	.st49{fill:#0F0B07;}
	.st50{fill:#2F3A68;}
	.st51{fill:#203257;}
	.st52{opacity:0.5;fill:#FFFFFF;}
	.st53{opacity:0.2;fill:#0E0C0D;}
	.st54{fill:#DD9F9B;}
	.st55{fill:#3E4D9B;}
	.st56{fill:url(#SVGID_9_);}
	.st57{fill:#5F6194;}
	.st58{fill:url(#SVGID_10_);}
	.st59{fill:url(#SVGID_11_);}
	.st60{fill:url(#SVGID_12_);}
	.st61{fill:url(#SVGID_13_);}
	.st62{fill:#070102;}
	.st63{fill:#100805;}
	.st64{fill:#FDA465;}
	.st65{fill:#2A50A1;}
	.st66{fill:#B76C39;}
	.st67{fill:#130602;}
	.st68{fill:url(#SVGID_14_);}
	.st69{fill:url(#SVGID_15_);}
	.st70{fill:url(#SVGID_16_);}
	.st71{fill:url(#SVGID_17_);}
	.st72{fill:url(#SVGID_18_);}
	.st73{fill:url(#SVGID_19_);}
	.st74{fill:#B4BDED;}
	.st75{fill:#100D08;}
	.st76{fill:#F6C85F;}
	.st77{fill:#FECF00;}
	.st78{fill:#2D59E2;}
	.st79{fill:#121F3A;}
	.st80{fill:#BBD0F5;}
	.st81{fill:#020202;}
	.st82{fill:#E2CFB7;}
	.st83{fill:#080805;}
	.st84{fill:#A87D7C;}
	.st85{fill:#182052;}
	.st86{fill:#EAEAEA;}
	.st87{fill:#DDDDDD;}
	.st88{fill:#3D4574;}
	.st89{fill:#ABC5F0;}
	.st90{fill:url(#SVGID_20_);}
	.st91{fill:#4159A8;}
	.st92{fill:#E0D0BD;}
	.st93{fill:#3D53AA;}
	.st94{fill:#0A0000;}
	.st95{fill:#BF6D36;}
	.st96{fill:#385DAE;}
	.st97{fill:#E0DCDC;}
	.st98{fill:#857E78;}
	.st99{fill:#0E213C;}
	.st100{fill:url(#SVGID_21_);}
	.st101{fill:#55608E;}
	.st102{opacity:0.3;fill:#F4F2F2;}
	.st103{opacity:0.3;}
	.st104{fill:#213987;}
	.st105{enable-background:new    ;}
</style>
<g id="Grilling_Steak_1_">
	<g id="Grilling_Steak">
		<g>
			<path class="st26" d="M47.5793839,216.4778595c-2.0262566,13.029892-3.7543449,29.5899811-2.1345329,41.4163055
				l20.254467-9.9580383l-2.354351-16.746109l7.8210182-19.6264648L47.5793839,216.4778595z"/>
			<path class="st11" d="M92.4979782,50.1883354c0,0-0.4484482-1.245472-0.9512863-2.9777298
				c-0.9280624-3.1865654-2.0417328-8.00494-0.866127-9.6831932c1.8174133-2.5910225,13.6507339-10.7659016,21.2612228-9.0566807
				c0.0759354,0.1000118,1.3025513-0.55793,7.2622986,9.9150677
				C125.1517105,48.8114433,92.4979782,50.1883354,92.4979782,50.1883354z"/>
			<path class="st13" d="M92.4979782,50.1883354c0,0-0.4484482-1.245472-0.9512863-2.9777298
				c7.0226898-6.1178474,15.6308212-10.4101601,24.7493362-12.3206635c0.247551-0.0540047,0.5028381-0.1004562,0.7579346-0.1389732
				c0.6342545,1.0287018,1.3534851,2.2349014,2.1501236,3.6348305
				C125.1517105,48.8114433,92.4979782,50.1883354,92.4979782,50.1883354z"/>
			<path class="st11" d="M132.4373322,56.1279373c-4.0372162,3.9985046-9.4434814,7.9509354-15.9169769,11.1065369
				c-0.0077438,0.0075531-0.0232239,0.0075531-0.0309677,0.01548c-5.8845291,2.8621902-12.4579315,4.9478302-18.840332,5.8312149
				c-9.3119659,1.2994766-16.6516876-0.1774902-18.3686447-3.7043152
				c-2.7843781-5.7156563,1.848381-16.9687195,24.7183685-26.8917198
				c21.160675-9.1805458,33.3342438-8.4226112,36.1185303-2.6994057
				C141.8265228,43.2970734,138.8643799,49.7627296,132.4373322,56.1279373z"/>
			<path class="st7" d="M122.0734329,114.5673599l-3.5653458,11.4078979l-6.195076,0.5725098l-11.9724808-6.5895309
				l-10.0699005-8.871254l-5.3288498-15.0816269l4.4857559-7.8965607c0,0,7.1695938-16.1643372,9.9307404-20.5729599
				c2.776123-4.4076958,16.7380829,17.9128571,16.8218155,18.0129089c-0.0193405,0.1008453-0.9649506,5.0308609-0.9049301,4.7179184
				c0,0,3.3643417,2.9157944,3.488121,2.9157944c0.0773239-0.0464478,0-0.526062,0-0.526062l1.9798965,3.751152
				L122.0734329,114.5673599z"/>
			<path class="st26" d="M118.511673,91.2243652l1.0385284,4.7133865l-8.7556992,5.9120331l0.5426712,20.9347458
				l-6.0788498-21.2221298c-11.2244568-1.6786346-18.9286041-12.2904587-18.9286041-12.2904587
				c-4.9560242-0.3119354-12.3478546,1.5355072-12.3478546,1.5355072l-5.6836548,34.8547363
				c0,10.1363678-11.1489258,39.3083038-11.1489258,39.3083038c-5.7071609,20.1533966-8.3475609,38.6761322-9.5699005,51.50737
				h31.8819199l50.6578522-51.6659851l12.0176086-62.9477386C134.9250641,95.2285385,118.511673,91.2243652,118.511673,91.2243652z"
				/>
			<path class="st3" d="M116.1800919,85.5487442l-0.7347031,3.8130798c-0.9745178-0.1159363-1.9412842-0.379158-2.861702-0.7114868
				c-8.2668381-2.9510422-13.8740158-10.8034744-13.9061127-19.6526413l4.8957901-0.1314163
				C108.6856384,73.6072311,116.1800919,85.5487442,116.1800919,85.5487442z"/>
			<path class="st8" d="M183.5510559,168.2463379c-2.3288727,8.5564423-2.4686127,8.6072235-2.5855103,10.0729523
				c-0.46875,5.8774872-3.3847198,10.6420898-4.0012054,16.1506348c-0.2324066,2.0766602,0.4351501,4.1235046-0.033783,6.1489716
				c-0.7880707,3.4038696-5.127182,4.6019287-7.7282715,1.5370026c-0.7572021-0.8922272-0.7022095-2.0500488-0.4729462-3.1596222
				c0.493515-2.3883514,2.0293121-4.4024963,3.2189331-6.4769135c3.5109406-6.1222534,4.8922424-13.2910004,6.2939453-20.1231079
				c0.3576355-1.743103,2.0169678-3.0301361,3.5639038-3.9095001
				C182.4611511,168.1143951,182.8050842,168.1402893,183.5510559,168.2463379z"/>
			<path class="st7" d="M161.9973297,142.8297577c0.384964,1.6578064,0.3911743,3.9871674,1.2047577,5.4850464
				c1.2339783,2.2718658,5.0448456,3.9827423,7.1087494,5.4496765c5.6574097,4.0210266,11.3148041,8.0420532,16.9721985,12.0630646
				c2.9554901,2.1006317,4.0498199,2.1778107,5.6952515,7.1362915c0.9533997,2.8730927,1.2355652,5.9729004,0.7697601,8.9664459
				c-0.1624603,1.0441589-0.4317322,2.205246-1.1233978,3.0388336c-0.5661774,0.6823578-1.8614197,0.5166168-1.6399078-0.6039734
				c-0.0136414,0.819458-0.0429077,1.66362-0.3779755,2.4115753c-0.3350677,0.7479401-1.0528717,1.3838654-1.8723602,1.3722687
				s-1.5832977-0.8873749-1.2897186-1.6525574c0.430542,1.2190094-0.6347351,2.7047424-1.9274292,2.6881866
				s-2.3195648-1.5290985-1.8579407-2.7366638c-0.0076294,0.8633575-0.0225983,1.7595825-0.399292,2.5364685
				c-0.8032074,1.6564941-2.8518829,1.7416534-3.4757996-0.2403564c-0.6899261-2.1917114,0.6716309-8.0162201-2.3918304-11.4302063
				c0.2117004,0.925415-0.1787109,2.0697784-0.3423767,2.9983521c-0.2085114,1.1831207-0.5838013,2.3369446-1.1126404,3.4156799
				c-0.3742065,0.7634735-0.7750092,1.0628967-1.6516724,0.7918854c-0.6055145-0.1871796-1.1511993-0.6703644-1.4042053-1.2511749
				c-0.9550323-2.1924438,0.9212646-5.0363464-0.6484375-6.9801788c-1.6331329-2.0223999-4.5746613-0.6363068-6.3101654,0.0436707
				c-8.5700684,3.3577423-18.3674622,0.9853516-22.1426086-3.0237274c-2.54599-2.7038727-5.4627991-4.9433441-6.4653625-8.7260742
				c-0.6692963-2.5252991-0.6734314-5.1725616-0.6732635-7.7850494c0.0001526-2.2977905,0.0097504-4.651474,0.8015594-6.8085327
				c1.1133118-3.0329285,3.6838226-5.3522797,6.553772-6.8360443c2.8699646-1.4837494,6.052887-2.2333374,9.1987152-2.9694824"/>
			<path class="st26" d="M142.1367798,101.8639984c0,0,12.7715454,11.9356308,19.8605499,40.9657593
				c0,0-5.0750732,7.3852081-25.5877533,10.2376404C136.4095764,153.0673981,129.1138,113.5818787,142.1367798,101.8639984z"/>
			<path class="st47" d="M136.4095764,136.3012543c0.7103119-7.2093353,1.2892761-10.4623337,1.2086182-18.6318359
				C138.8146362,123.3132019,138.0261688,131.1499939,136.4095764,136.3012543z"/>
			<path class="st3" d="M109.3352814,59.5543098l-0.3170319,7.2545586l-7.98172,2.939209
				c-0.0452423-0.1000214-6.2354965-4.3172379-3.7664413-9.6831932c0.2164917-0.1393509,0.4639435-0.2477341,0.7424545-0.3092918
				c1.5931854-2.2896614,4.0526962-4.5170097,7.6722336-6.4350662c0.0541916-0.0309677,0.1082916-0.0540047,0.162384-0.0849724
				l2.2893829,2.3278046L109.3352814,59.5543098z"/>
			<path class="st7" d="M118.771019,86.6393814c-9.431282-0.7130814-16.2281265-6.8857193-19.82267-15.9554977
				c0,0-2.6373825-1.4078598-3.3102493-4.6793976c-0.7217178-3.4351997,0.9399338-7.5393295,4.2847595-5.9010811
				c3.4339218,1.6861839,3.7974091,3.650692,3.7974091,3.650692s2.5987625-1.2299881,2.5290833-4.1997871
				c-0.0540924-2.4671555-0.4330597-5.3365021-0.5645752-6.2337837c0.3620453-0.2068863,1.6694412-0.8622131,3.11689-1.4539337
				c6.8834305-2.8153458,12.4983521-3.2485046,16.5356598-2.2352829c-0.3199692,2.9171066-0.4536057,6.1059875-0.1933594,9.0566826
				c0.4954224,5.86343,1.7321396,5.5544548,2.2351913,9.8300972
				C128.2144165,75.5796738,126.0489044,87.1884766,118.771019,86.6393814z"/>
			<path class="st3" d="M110.8490143,59.0522003c1.4782715-0.8372574,3.1786194-1.2781563,4.8774719-1.2647285
				c0.5098801,0.0040283,1.0465851,0.0574341,1.4650955,0.3487129c0.4185181,0.291275,0.6614304,0.8897285,0.4065247,1.331337
				c-0.226326,0.3921013-0.7252121,0.5148354-1.1708374,0.5947304c-1.6032104,0.2874374-3.2202454,0.4977188-4.8436432,0.629879
				c-0.4881363,0.0397377-1.2739792,0.0647278-1.5225372-0.4808235
				C109.8278122,59.6992836,110.4807358,59.2607841,110.8490143,59.0522003z"/>
			<path class="st3" d="M125.1439667,58.6879921c-1.0131226,0.270771-2.0340881,0.5026436-3.0550537,0.7039299
				c-0.4485474,0.0849686-0.9590225,0.1544571-1.3070297-0.1314201c-0.4021912-0.3172226-0.3944473-0.9667702-0.108284-1.3923759
				c0.6689682-0.9764214,3.0623856-1.4583588,4.3388519-1.5234222
				C125.0356827,57.1101913,125.0743866,57.8990898,125.1439667,58.6879921z"/>
			<ellipse class="st62" cx="114.6086731" cy="64.6563492" rx="1.1771015" ry="1.5390569"/>
			<ellipse class="st62" cx="123.0305634" cy="63.642334" rx="1.1771015" ry="1.5390569"/>
			<path class="st19" d="M122.9145737,74.7127304c-2.9585419,0.6689148-6.1400909,0.3057632-8.8717957-1.0126495
				c0.986496,3.3364029,4.161438,4.5793304,6.854599,3.8826752c0.6524658-0.1687698,1.2856064-0.4586563,1.7754517-0.9215164
				C123.1626816,76.1983719,122.9179764,75.3866653,122.9145737,74.7127304z"/>
			<path class="st3" d="M120.243576,69.7499924c-0.242775,0.7788315-1.4356003,0.6450348-2.2790985,0.369545
				c-0.2004852-0.0654831-0.5924835-0.1390991-0.6053696-0.4068985c-0.0217743-0.4527588,0.5247192-0.1764679,1.8003845-0.1674118
				c0.2693863,0.001915,0.4697876-0.2440033,0.39888-0.503891c-0.6731949-2.4675598-0.2050171-0.8241196-1.2668457-4.637558
				c-0.0969543-0.348175-0.3964539-0.9605789-0.2816238-1.3025398c0.7287292,0.1423798,0.9389725,1.9125786,1.1160736,2.4871941
				C120.3010635,69.4010849,120.3535843,69.3971024,120.243576,69.7499924z"/>
			<path class="st15" d="M89.4299927,88.107666c-1.3509293,3.149559-0.9721603,26.4023666,1.3023453,33.1285858
				c2.2745132,6.7262192,6.3744354,13.7080994,17.4010086,13.3199005s18.3418121-1.7978058,18.3763046-14.5630188
				s-11.2376099-29.7285767-11.2376099-29.7285767l3.2395554,0.9599228
				c10.1571503,15.9170914,21.7431335,40.1000748,23.804718,70.4270401
				c1.791748,26.3576965-8.8377533,82.1712341-8.8377533,82.1712341l-70.6849823,8.9941101
				c-8.1376724-36.0297089-7.2241402-75.1851807-7.2241402-75.1851807s-0.461441,1.8083801,11.8700447-7.2334747
				c12.3314819-9.0418701,14.0224838-31.1949463,14.3136368-36.3826294
				c1.87117-33.3396454,4.5765991-44.7436371,4.5765991-44.7436371
				C87.3643723,88.4097824,88.3978882,87.960762,89.4299927,88.107666z"/>
			<path class="st8" d="M72.7697525,191.4550934l57.8011856,10.5636749c1.1709442,0.2139893,0.875351,1.9749146-0.301178,1.7950592
				l-58.1527863-8.8901978c-0.5164795-0.0789642-0.860611-0.5755463-0.7531815-1.0868683l0.3516083-1.6734619
				C71.8168411,191.6804962,72.2844543,191.3664093,72.7697525,191.4550934z"/>
			<path class="st7" d="M29.5473938,143.5631866l32.0642929,11.2207794
				c-0.5793571,1.7540436-2.3211403,4.7743378-2.0808792,6.5795135c0.1816978,1.3652039,2.3861771,2.3791046,3.4019814,3.1376495
				c7.940464,5.9295502,15.863018,11.8922577,23.424633,18.2980804c4.4120789,3.7377014,9.0078964,8.0379333,9.3600082,14.0284729
				c0.2003403,3.408432-1.535965,8.0005188-3.6908188,7.5989075c-0.57621-0.1073914-1.0612106-0.7082825-0.9091263-1.2743378
				c-0.269928,0.4096527-0.7428894,0.9168396-1.1294174,1.2189484s-0.9091187,0.4741364-1.3761902,0.3240662
				c-0.4670639-0.1500702-0.8104095-0.6925812-0.6357803-1.1510315c-0.31884,0.4359741-0.8960114,0.6800232-1.3835068,0.9125671
				s-1.0903244,0.2707825-1.5569916-0.0011597c-0.4666748-0.2719269-0.7348022-0.8914185-0.5205307-1.3872223
				c-0.3497849,0.3204193-0.9216843,0.6088257-1.3552933,0.8015289c-3.2314987,1.4361572-3.3920822-7.6151733-4.0661545-9.2736511
				c-0.6545334-1.6103973-1.7627258-3.2478027-3.276535-4.1651764c-1.5082932-0.914032-3.4689789-0.3976898-5.190773-0.4544983
				c-10.8570633-0.3581848-22.5693932-0.4695129-32.6111794-5.8464661
				c-3.8751984-2.0749969-8.1103401-5.2046814-10.3026428-9.1079254
				c-2.4882679-4.4302063-3.2845402-11.8122864-3.0262871-15.4591675c0.2586346-3.652298,1.9656601-11.3634644,4.6813564-15.9998779
				"/>
			<path class="st26" d="M73.9818649,90.8074493c0,0-14.01614,0.5678635-26.2012863,17.0547867
				s-19.811718,36.7018509-19.811718,36.7018509s9.2529488,10.9868011,33.3925781,12.9267731
				C77.0203934,136.5496826,80.6779785,114.2603302,73.9818649,90.8074493z"/>
			<ellipse class="st7" cx="150" cy="256.1699829" rx="128" ry="15.5921249"/>
			<rect x="73.4342728" y="233.2311096" class="st13" width="191.6763611" height="26.7599201"/>
			<rect x="71.1659851" y="228.0180511" class="st11" width="197.1229248" height="6.3439236"/>
			<polygon class="st11" points="268.2889099,228.0180511 71.1659851,228.0180511 102.1727371,206.9085541 237.282135,206.9085541 
							"/>
			<polygon class="st3" points="231.9754639,208.5416565 222.1838989,208.5416565 241.3208618,226.6659698 254.583847,226.6659698 
							"/>
			<polygon class="st3" points="218.892334,208.5416565 209.100769,208.5416565 223.5993042,226.6659698 236.8622894,226.6659698 
							"/>
			<polygon class="st3" points="196.0174408,208.5416565 205.8777466,226.6659698 219.1407318,226.6659698 205.8091125,208.5416565 
							"/>
			<polygon class="st3" points="182.9343109,208.5416565 188.1562042,226.6659698 201.4190826,226.6659698 192.7258911,208.5416565 
							"/>
			<polygon class="st3" points="169.8510895,208.5416565 170.4345551,226.6659698 183.697525,226.6659698 179.6427612,208.5416565 
							"/>
			<polygon class="st3" points="156.767868,208.5416565 152.7129974,226.6659698 165.9759827,226.6659698 166.559433,208.5416565 
							"/>
			<polygon class="st3" points="143.6846313,208.5416565 134.9913483,226.6659698 148.254425,226.6659698 153.4763031,208.5416565 
							"/>
			<polygon class="st3" points="130.6014099,208.5416565 117.2697906,226.6659698 130.5328674,226.6659698 140.3929901,208.5416565 
							"/>
			<polygon class="st3" points="117.51828,208.5416565 99.548233,226.6659698 112.8113098,226.6659698 127.3098602,208.5416565 			
				"/>
			<polygon class="st3" points="104.4349594,208.5416565 81.826683,226.6659698 95.0896606,226.6659698 114.2266312,208.5416565 			
				"/>
			<path class="st1" d="M209.5327759,123.4386902c0.6691437,0.4927139,1.2810059,1.3099823,1.8965454,1.9008942
				c9.8618622,9.4654999,11.7033691,11.4815979,13.111145,16.3130188
				c-6.4216766-1.8843689-10.2416382-8.7777405-12.9536743-13.7902603
				C210.8191223,126.44384,209.7192078,125.0799332,209.5327759,123.4386902z"/>
			<path class="st1" d="M202.5391083,45.073185l0.1361542,0.2163963
				c-7.35466,10.1496086-14.4927063,22.1208344-17.3709717,34.4123917
				c-0.3106232,1.3039856-1.2430725,7.1328201-1.7327881,7.8768616l-0.2599945,0.015976l-0.4178009-0.608551
				c-1.7633972-3.2980804-1.3013153-7.4763718-0.7730103-11.0394516
				C183.8711395,64.1423187,193.0932617,52.0645256,202.5391083,45.073185z"/>
			<path class="st1" d="M209.4145813,71.3939972c4.8384552,1.8702545,9.3736267,6.9979935,11.4206543,11.6736374
				c4.3787079,10.0018005,0.5619354,20.162735-5.012558,28.7936249
				c-7.4280853,11.501236-15.1906891,19.9749832-4.8480835,29.2027664
				c2.8510895,2.5428772,7.0032043,5.0647736,9.2737274,10.3020782c2.3263245,5.3664246,1.4025269,11.9759216-0.721405,17.2518005
				c-2.6199646,6.5076294-8.0506287,13.438385-13.7875977,17.5607452
				c-3.3140717,2.3809357-6.9247437,4.1469879-10.6592865,5.7539215
				c5.5978088-4.6247253,10.4169464-11.4685822,12.995285-18.2555237c3.2547913-8.8816528,1.837204-17.600647-3.126297-25.8757019
				c-1.8935852-3.1569214-3.960907-6.099472-5.2016449-9.6072998c-1.2340851-3.4884949-0.9404602-8.7650604-2.85466-11.7129211
				c-1.1091003-1.7078857-3.868454-2.4921722-6.4450684-0.5642776c-1.8592529,1.3912125-2.8626404,3.3839645-3.2128601,5.6470718
				c-0.7020874,4.5394897,1.0666351,9.361618,3.5641022,13.1001282c0.6967468,1.0430145,1.5729675,1.9571533,2.2810516,2.9888306
				c0.272644,0.3971558,0.4800415,0.7267303,0.4034729,1.2234192l-0.3528748,0.2154083
				c-3.0767059,0.1335907-8.8778992-3.7682343-11.2908173-11.1133728
				c-2.7873993-8.4857635,0.1921082-15.422821,7.2959595-20.4477005c5.8785858-4.1580811,12.315918-6.5526505,16.2850494-14.508667
				c2.9661865-5.9693222,2.2890472-13.4916458,0.0429382-19.5668259c-1.6368408-4.4264145-4.5581055-8.9720078-3.1506042-11.4742279
				C203.4936218,69.8811493,207.6955719,70.7293243,209.4145813,71.3939972z"/>
			<path class="st47" d="M27.9689083,144.5639496c11.0982838,10.8332214,30.7731686,12.4391174,28.8834209,12.1728516
				c1.5047607,0.1708984,3.0196533,0.253418,4.5283203,0.3847656l-0.3325195,0.1723633
				c5.1233406-8.3306732,14.8492165-25.7532959,15.52808-35.5166016
				c-0.3280563,10.6485291-9.8372421,27.348114-14.908329,35.9213867c-0.0715332,0.1147461-0.199707,0.1733398-0.3259277,0.1616211
				c-1.5247803-0.1430664-3.0546875-0.2373047-4.5743408-0.4213867c-4.9314346-0.7311096-7.9522514-1.2675934-13.369751-3.2231445
				C36.0658798,151.36203,31.0304127,147.7922058,27.9689083,144.5639496z"/>
			<g>
				<path class="st7" d="M191.4735718,217.3503723c-22.6432037,3.4619598-57.7355804,0.6398163-57.7355804-4.307785
					c0-3.5086365,16.403656-5.0007324,19.8922577-5.2904358c5.9756622-0.4651642,12.3153229-0.6115112,18.2372284-0.5101929
					C200.745224,207.7723541,213.6547089,213.9174347,191.4735718,217.3503723z"/>
				<path class="st13" d="M202.6726379,213.0425873v5.8391418c0,3.2250824-15.4296265,5.8391418-34.4634094,5.8391418
					c-19.0338745,0-34.4712372-2.6140594-34.4712372-5.8391418v-5.8391418c0,1.0596619,1.6783447,2.0570221,4.6095276,2.9157867
					C156.0670013,221.1585693,202.6726379,218.9212341,202.6726379,213.0425873z"/>
				<path class="st3" d="M153.630249,207.7521515l-12.5680237,8.8867493
					c-1.4049072-0.3047333-2.0952454-0.5035858-2.8770905-0.7269745l11.9183807-7.8346252
					C151.2327728,207.9609985,152.4160156,207.8529816,153.630249,207.7521515z"/>
				<path class="st3" d="M162.5167999,207.2959595l-14.779892,10.4490662
					c-1.1292572-0.1472931-2.2043152-0.3017426-3.2175293-0.4641266l15.0430145-9.884491
					C160.5291595,207.3499603,161.5114136,207.3190002,162.5167999,207.2959595z"/>
				<path class="st3" d="M171.8674774,207.2419586l-15.9247284,11.2609863
					c-0.5627441-0.0395813-1.7222137-0.1046143-3.5730896-0.2787018l16.7444-11.0057068
					C169.4816742,207.2201233,170.37883,207.2164917,171.8674774,207.2419586z"/>
				<path class="st3" d="M179.3695831,207.5282135l-15.9787292,11.2995148
					c-0.1000824-0.0030212-1.4321289-0.0281982-3.7975006-0.131424l17.2007751-11.2998962
					C176.8951263,207.4009247,177.7477722,207.4235992,179.3695831,207.5282135z"/>
				<path class="st3" d="M187.3358154,208.1932526l-15.0584106,10.6499634
					c-1.2993774,0.0230255-2.6219788,0.0385132-3.9677277,0.0385132l16.6439514-10.9362183
					C185.7657471,208.022934,186.5623932,208.1003418,187.3358154,208.1932526z"/>
				<path class="st3" d="M195.1859131,209.4152985l-12.6375122,8.9407501
					c-1.3766937,0.1080017-2.7998505,0.1933594-4.2615356,0.2703857l14.6717072-9.636734
					C193.7397308,209.1211243,194.4821777,209.2684021,195.1859131,209.4152985z"/>
				<path class="st3" d="M200.4684143,210.9927216l-8.9948425,6.3576508
					c-1.4153137,0.2164001-2.9389343,0.4176788-4.5554352,0.5955505l11.6631775-7.6567535
					C199.3005524,210.5134888,199.927063,210.7453766,200.4684143,210.9927216z"/>
			</g>
			<g>
				<path class="st3" d="M83.6333313,203.6186981c1.2373047-3.0849609,1.2685547-6.6367188,0.0864258-9.7441406
					c-0.1768646-0.4638519,0.5248718-0.7301331,0.7011719-0.2666016c1.2485352,3.28125,1.215332,7.0317383-0.0913086,10.2900391
					C84.1460037,204.3570251,83.4479828,204.0808868,83.6333313,203.6186981z"/>
			</g>
			<g>
				<path class="st3" d="M87.7431946,203.573288c0.7265625-3.4174805,0.7827148-7.0405273,0.1621094-10.4780273
					c-0.0879211-0.4888763,0.6497726-0.6196136,0.7382813-0.1328125c0.6376953,3.5317383,0.5800781,7.2548828-0.1669922,10.7670898
					C88.3723679,204.2181702,87.6399841,204.0600128,87.7431946,203.573288z"/>
			</g>
			<g>
				<path class="st3" d="M90.651886,203.5713348c0.7543945-3.3452148,0.5117188-6.9575195-0.6835938-10.1713867
					c-0.1726761-0.4643707,0.5291214-0.7272949,0.703125-0.2617188c1.2451172,3.3486328,1.4980469,7.112793,0.7119141,10.5981445
					C91.2744446,204.2222748,90.5424728,204.0584106,90.651886,203.5713348z"/>
			</g>
			<g>
				<path class="st3" d="M183.3413391,187.8335419c0.3989258-2.4277344,0.0229492-4.9819336-1.0581055-7.1928711
					c-0.2175293-0.4455872,0.4562531-0.7759552,0.6738281-0.3291016c1.1489258,2.3491211,1.5483398,5.0634766,1.1245117,7.6430664
					C184.0009918,188.4446716,183.2606354,188.3224487,183.3413391,187.8335419z"/>
			</g>
			<g>
				<path class="st3" d="M186.9785461,187.5913544c0.140625-3.2827148-0.4863281-6.6064453-1.8139648-9.6113281
					c-0.2009583-0.4533386,0.4858856-0.7569427,0.6855469-0.3027344c1.3745117,3.109375,2.0234375,6.5488281,1.8774414,9.9462891
					C187.7069702,188.122879,186.9573975,188.0894012,186.9785461,187.5913544z"/>
			</g>
			<g>
				<path class="st3" d="M190.6728821,184.9868622c0.0410156-3.3051758-0.6357422-6.652832-1.9580078-9.6811523
					c-0.1989746-0.4541473,0.4896851-0.7551575,0.6875-0.2998047c1.3642578,3.1245117,2.0629883,6.5795898,2.0205078,9.9907227
					C191.4169464,185.4953766,190.6670074,185.4861603,190.6728821,184.9868622z"/>
			</g>
		</g>
	</g>
</g>
</svg>
