<?xml version="1.0" encoding="utf-8"?>
<!-- Generator: Adobe Illustrator 22.0.1, SVG Export Plug-In . SVG Version: 6.00 Build 0)  -->
<svg version="1.1" id="Layer_1" xmlns="http://www.w3.org/2000/svg" xmlns:xlink="http://www.w3.org/1999/xlink" x="0px" y="0px"
	 viewBox="0 0 300 300" style="enable-background:new 0 0 300 300;" xml:space="preserve">
<style type="text/css">
	.st0{fill:#EDC1A4;}
	.st1{fill:#E2E0E0;}
	.st2{fill:#D39E81;}
	.st3{fill:#502E26;}
	.st4{fill:#CCCACA;}
	.st5{fill:#426800;}
	.st6{fill:#538705;}
	.st7{fill:#D47E44;}
	.st8{fill:#73341D;}
	.st9{fill:#BC672E;}
	.st10{fill:#96311D;}
	.st11{fill:#B83E21;}
	.st12{fill:#DE8D82;}
	.st13{fill:#EFBAB4;}
	.st14{fill:#FDD5D0;}
	.st15{fill:#6883CE;}
	.st16{fill:#3D4885;}
	.st17{fill:#3859AE;}
	.st18{fill:#864424;}
	.st19{fill:#FEFEFE;}
	.st20{fill:#FFFFFF;}
	.st21{fill:#A55925;}
	.st22{fill:#F4F2F2;}
	.st23{fill:#3C3E68;}
	.st24{fill:#E8997C;}
	.st25{fill:#F5C46B;}
	.st26{fill:#F7EBDA;}
	.st27{fill:#0E0C0D;}
	.st28{fill:#657C3A;}
	.st29{fill:#576C37;}
	.st30{fill:#7C995D;}
	.st31{fill:#36518C;}
	.st32{fill:#96B7E3;}
	.st33{fill:#A3B3DF;}
	.st34{fill:url(#SVGID_1_);}
	.st35{fill:url(#SVGID_2_);}
	.st36{fill:url(#SVGID_3_);}
	.st37{fill:url(#SVGID_4_);}
	.st38{fill:url(#SVGID_5_);}
	.st39{fill:#266AB7;}
	.st40{fill:#060E0D;}
	.st41{fill:#E0D4C6;}
	.st42{fill:#787E42;}
	.st43{fill:#D3D1D1;}
	.st44{fill:url(#SVGID_6_);}
	.st45{fill:url(#SVGID_7_);}
	.st46{fill:url(#SVGID_8_);}
	.st47{fill:#020508;}
	.st48{fill:#BAB6B6;}
	.st49{fill:#0F0B07;}
	.st50{fill:#2F3A68;}
	.st51{fill:#203257;}
	.st52{opacity:0.5;fill:#FFFFFF;}
	.st53{opacity:0.2;fill:#0E0C0D;}
	.st54{fill:#DD9F9B;}
	.st55{fill:#3E4D9B;}
	.st56{fill:url(#SVGID_9_);}
	.st57{fill:#5F6194;}
	.st58{fill:url(#SVGID_10_);}
	.st59{fill:url(#SVGID_11_);}
	.st60{fill:url(#SVGID_12_);}
	.st61{fill:url(#SVGID_13_);}
	.st62{fill:#070102;}
	.st63{fill:#100805;}
	.st64{fill:#FDA465;}
	.st65{fill:#2A50A1;}
	.st66{fill:#B76C39;}
	.st67{fill:#130602;}
	.st68{fill:url(#SVGID_14_);}
	.st69{fill:url(#SVGID_15_);}
	.st70{fill:url(#SVGID_16_);}
	.st71{fill:url(#SVGID_17_);}
	.st72{fill:url(#SVGID_18_);}
	.st73{fill:url(#SVGID_19_);}
	.st74{fill:#B4BDED;}
	.st75{fill:#100D08;}
	.st76{fill:#F6C85F;}
	.st77{fill:#FECF00;}
	.st78{fill:#2D59E2;}
	.st79{fill:#121F3A;}
	.st80{fill:#BBD0F5;}
	.st81{fill:#020202;}
	.st82{fill:#E2CFB7;}
	.st83{fill:#080805;}
	.st84{fill:#A87D7C;}
	.st85{fill:#182052;}
	.st86{fill:#EAEAEA;}
	.st87{fill:#DDDDDD;}
	.st88{fill:#3D4574;}
	.st89{fill:#ABC5F0;}
	.st90{fill:url(#SVGID_20_);}
	.st91{fill:#4159A8;}
	.st92{fill:#E0D0BD;}
	.st93{fill:#3D53AA;}
	.st94{fill:#0A0000;}
	.st95{fill:#BF6D36;}
	.st96{fill:#385DAE;}
	.st97{fill:#E0DCDC;}
	.st98{fill:#857E78;}
	.st99{fill:#0E213C;}
	.st100{fill:url(#SVGID_21_);}
	.st101{fill:#55608E;}
	.st102{opacity:0.3;fill:#F4F2F2;}
	.st103{opacity:0.3;}
	.st104{fill:#213987;}
	.st105{enable-background:new    ;}
</style>
<g id="Grocery_Delivery_1_">
	<g id="Grocery_Delivery">
		<g>
			<g>
				<polygon class="st0" points="127.0192108,241.3764496 131.6822357,227.0171509 107.1463547,223.1083527 
					101.3695831,241.3127899 119.5504837,247.2624054 				"/>
				<path class="st7" d="M119.8255463,259.7974243l-6.7184448,1.6501465l-13.8834534-2.8854675
					c0,0-2.137413-3.8493652-1.9337082-10.0428619c0.1378326-4.4021606,1.8873215-10.0675812,3.3650665-12.6075439
					c1.6528168-2.8816223,2.6152191-1.343689,2.6152191-1.343689c15.6336136,10.9700165,23.7490158,6.8091583,23.7490158,6.8091583
					l-1.6148682,12.4108582L119.8255463,259.7974243z"/>
				<path class="st26" d="M105.6584854,251.8083191c-3.0281296-1.1138306-5.8296814-2.8031769-8.2645874-4.917099
					c0.4041519-4.085907,2.086586-8.9607391,3.2611084-10.9795227c2.5076523,2.8887787,5.7284164,5.1526337,9.2974167,6.5243225
					C108.522171,245.5595551,107.0887604,248.6848297,105.6584854,251.8083191z"/>
				<path class="st7" d="M122.2048721,270.936676c0,0-1.801033,3.4226074-2.9135437,4.6053772
					c-1.1125107,1.1827393-18.9396133,4.3702393-37.1938629-9.8284607
					c-18.2542572-14.1986694-21.1100426-27.9186401-20.0580788-29.6886444s2.8221245-2.4815369,2.8221245-2.4815369
					L122.2048721,270.936676z"/>
				<path class="st8" d="M122.2044983,270.938446c0,0-17.1976013,5.9226379-36.3597641-8.2487183
					c-20.7793198-15.369873-20.9822311-29.1449127-20.9822311-29.1449127s4.1189346-2.6284485,15.2917633,2.1235657
					c7.2203827,3.0689087,15.8700027,5.2978821,18.268074,6.0011444
					c15.7550507,19.6657104,26.9820328,12.1184998,26.9820328,12.1184998
					C128.320343,259.3577271,122.2044983,270.938446,122.2044983,270.938446z"/>
				<path class="st3" d="M87.7032928,250.7901306c-1.0022964,0.3718262-1.3917999-1.1468811-1.2583008-1.8395081
					c0.7358551-3.8337402-0.08078-8.1109009-1.9101868-11.5699615c0.6929016,0.2498474,1.3918991,0.4961853,2.0858307,0.7333832
					c1.3306122,3.6186676,1.9204407,7.5161133,1.7098007,11.3680115
					C88.3024216,249.9956055,88.1859512,250.6104736,87.7032928,250.7901306z"/>
				<path class="st3" d="M94.5268631,251.6799774c-1.0041504,0.3688202-1.3919296-1.1467743-1.2584305-1.8394012
					c0.631134-3.3267212,0.1110306-6.8843842-1.1586151-9.9631958c0.6369705,0.1925507,1.2437134,0.3737488,1.8105164,0.5409241
					c0.99543,3.2103119,1.421608,6.5962067,1.2349854,9.9488831
					C95.1273041,250.8807373,95.0093918,251.5004425,94.5268631,251.6799774z"/>
				<path class="st15" d="M163.1219482,130.1425934c-0.0230713,0.1125946-9.5534363,46.6232452-9.5765839,46.7362213
					c-2.0012512,6.1717224-16.5393829,51.0060883-18.4185791,56.8013611
					c-14.9615631,3.6199493-32.3064499-9.174408-32.3064499-9.174408
					c7.9644165-39.9451141,26.4228897-105.1863022,26.801796-105.0733337
					C129.32547,119.3375702,133.3321686,120.6183624,163.1219482,130.1425934z"/>
				<path class="st16" d="M160.7851257,141.5506897l-7.2397614,35.328125l-12.5217133,38.6154938
					c-3.9621124-3.1218872-5.1737213-8.0868835-6.122879-12.9904327c-5.192215-26.831665-5.3284607-54.634079-0.4221649-81.5189743
					l22.6667023,7.246376C158.564682,132.5957184,159.7580414,137.0499115,160.7851257,141.5506897z"/>
				<polygon class="st0" points="213.3976288,224.3027344 203.6557312,213.8439636 189.1442566,232.3554535 
					201.5568542,245.5032043 214.8368378,233.1895447 				"/>
				<path class="st7" d="M225.3382416,238.7227478l-1.7218628,6.3191071l-8.7688141,10.164978
					c-0.1001434-0.0353394-7.3613434,0.0146179-14.3499603-7.100296c-1.1922607-1.2155914-2.8684692-3.0309753-3.7395477-4.4941254
					c-1.625473-2.6923523,0.0897522-2.7821045,0.0897522-2.7821045
					c16.2646027-7.8980408,16.5504303-16.5272675,16.5504303-16.5272675l9.5300751,7.0404053L225.3382416,238.7227478z"/>
				<path class="st26" d="M212.2148895,246.7769165c-2.3135681,1.9944305-4.9993439,3.5368347-7.868042,4.5806274
					c-3.1960907-2.2123108-6.4576874-5.8452148-7.5887909-7.7451324c3.5434418-0.7479095,6.8973999-2.3732605,9.6729736-4.6968536
					C208.3590088,241.5348816,210.286972,244.1575928,212.2148895,246.7769165z"/>
				<path class="st7" d="M235.6515045,241.872818c0,0,2.0051117,3.0636444,2.4727631,4.5280151
					c0.4676514,1.464386-5.0871277,17.6844635-25.2284393,26.2677155s-32.8095398,4.64151-33.7910767,2.9573364
					c-0.9815369-1.6841431-0.7569275-3.4762878-0.7569275-3.4762878L235.6515045,241.872818z"/>
				<path class="st8" d="M235.6527863,241.8739319c0,0-3.0016174,16.9560852-23.5375824,26.3033447
					c-22.2711639,10.1349487-33.7657623,3.972168-33.7657623,3.972168s-0.2825317-4.617157,8.7854614-11.6807861
					c6.13797-4.7836304,13.2592773-12.2620087,13.3627014-12.3621216
					c23.5176849-4.002182,22.4307098-16.763092,22.4307098-16.763092
					C228.8783722,231.4896851,235.6527863,241.8739319,235.6527863,241.8739319z"/>
				<path class="st3" d="M203.1203003,261.170166c-0.1528931,1.0004578-1.588913,0.6248779-2.1008301,0.1960449
					c-2.8349304-2.3709412-6.7503815-3.6607361-10.4541321-3.7362976c0.5252228-0.4586792,1.0503693-0.9240112,1.5656128-1.3893433
					c3.6066284,0.5617371,7.1035461,1.8647461,10.1948853,3.8093567
					C202.7380219,260.3091125,203.1934052,260.6881104,203.1203003,261.170166z"/>
				<path class="st3" d="M206.9927826,255.931366c-0.1562195,1.0006104-1.5888672,0.625061-2.1007843,0.196228
					c-2.4634247-2.0512848-5.647049-3.2558289-8.7788391-3.6199341c0.4521179-0.4387207,0.8809204-0.8576355,1.2798004-1.2499237
					c3.1145935,0.6514893,6.1128998,1.8548431,8.8020782,3.5501404
					C206.6072235,255.0670776,207.0659485,255.4494781,206.9927826,255.931366z"/>
				<path class="st15" d="M208.1562042,214.0384064c0,0-8.2037354,20.5825043-27.0344696,23.6905212
					c0,0-26.6755219-26.4229584-33.0843048-42.7406921s-13.272995-70.5396957-13.272995-70.5396957
					s43.9971924-16.8828812,45.6592255-15.3106079c0,0,19.940979,13.435791-2.0077515,69.8781357
					C182.0358734,183.3396454,203.6515656,209.2366943,208.1562042,214.0384064z"/>
				<path class="st16" d="M180.6563263,181.7019348c-2.5661621,5.2986755-6.3190308,12.6713257-7.1699677,12.2957458
					c-1.3196411-0.5784607,4.9295502-14.9816132,4.9295502-14.9816132S179.2569122,180.0233459,180.6563263,181.7019348z"/>
			</g>
			<path class="st25" d="M186.4770966,43.9858322c0.8420868,1.5868797-18.029953-7.2210503-38.4554596,8.9074211
				c-21.1976547,16.738102-17.5171204,28.6337013-17.63591,28.9900475
				c-0.1187744,0.3563461,15.2041016,2.1181488,15.2041016,2.1181488L186.4770966,43.9858322z"/>
			<path class="st0" d="M200.865387,49.3325577l0.6448364,2.7322807l-1.691925,4.0886803l-5.2353821,2.5029411
				c0,0-9.1743774-1.8913651-9.7594147-2.6824532c-0.5803986-0.7842484-2.6200256-9.1465225-2.6791992-9.3738899
				l4.3312378-2.6159058c1.7814331,0.101738-6.0536804-0.345726,15.4236145,0.8808403L200.865387,49.3325577z"/>
			<path class="st2" d="M201.7661896,44.8583946c-0.2559662,0.8177071-1.11026,1.336277-1.9013519,1.7152634
				c-5.178894,2.4896317-11.0790863,3.4668846-16.7864685,2.7855186l-0.2559509-0.0564842
				c-0.3922119-1.5224419-0.6781158-2.7025757-0.6781158-2.7025757l4.3312378-2.6159058L201.7661896,44.8583946z"/>
			<path class="st26" d="M215.6754303,67.3906097c0,0-8.9101563-13.2906036-14.8094177-18.0565834
				c0,0,0.2917633,3.6146049-8.9888153,2.4164467c-9.2805786-1.1981621-6.8626251-5.2882156-6.5361176-6.0948257
				c0.3265228-0.8066101,1.1360016-1.669857,1.1360016-1.669857s-15.6642914-6.509903-39.2017059,21.6497231
				s-8.4733124,48.6244354-8.4733124,48.6244354l41.9816437-4.0285034L215.6754303,67.3906097z"/>
			<path class="st15" d="M212.7279968,63.1866989c0,0,1.2128296-3.7612877-3.468689-7.0044632
				c-4.6815033-3.2431717-19.1831512-6.1796341-43.0346985,12.8665237l7.582016,2.6341095
				c0,0,15.3986511-11.1216545,22.8970642-12.4690628C204.2021179,57.8664017,209.7689514,60.0444107,212.7279968,63.1866989z"/>
			<path class="st3" d="M180.1981049,69.4904709L145.02565,52.8678246l-36.596817-8.9579887l11.5701981,24.0010986
				l33.1440201,16.0905151c0,0,14.7199249-5.0826416,15.2948151-5.0325012
				C169.0127563,79.0190964,180.1981049,69.4904709,180.1981049,69.4904709z"/>
			<g>
				<path class="st3" d="M138.3405914,47.794651c-0.2380371-2.70298-0.4760895-5.4059639-0.7141418-8.1089439
					c-0.5269928-0.0387344-1.0540009-0.0774727-1.5809937-0.1162109c1.1786957,4.2492561,2.3574066,8.4985123,3.5361023,12.7477684"
					/>
				<path class="st29" d="M127.3374023,38.7415657c1.0644989,3.7297058,4.5285187,6.1555634,7.171524,6.1022644
					c1.3058929-0.0263367,3.9073639-1.1041603,2.9262238-2.6658936
					C135.8764801,39.6968994,131.5774994,37.6910744,127.3374023,38.7415657z"/>
				<path class="st11" d="M140.0405426,61.1094971c2.7926483-0.1993561,5.5874329,1.6542511,7.5632477-0.2226105
					l0.7161102-4.8026276c0.3934784-1.9131775,0.7874756-3.8426971,0.7017212-5.7857056
					c-0.2443542-5.5498085-4.4918518-7.9882736-7.6906433-6.920578c-1.2897186,0.4253464-2.3722687,1.412281-3.7342987,1.5251923
					c-2.2860413,0.1888657-4.2926941-2.1716194-6.5238647-1.6624336c-1.2463837,0.2835312-2.0774384,1.3918457-2.5926056,2.5008621
					C124.9457779,53.3159218,131.2609863,61.7377319,140.0405426,61.1094971z"/>
				<path class="st3" d="M170.597702,60.6058388c1.205246-2.4619904,2.4104767-4.9239807,3.6157074-7.3859711
					c0.5091095,0.1342659,1.018219,0.2685318,1.5273285,0.4027977c-2.6503906,3.6098976-5.3007965,7.2197914-7.9511871,10.829689"/>
				<path class="st29" d="M184.2214203,55.6648064c-2.372406,3.1829376-6.5127716,4.3072586-8.9527588,3.4099312
					c-1.2171478-0.4476204-3.2694397-2.3025055-1.7806396-3.4518204
					C175.8639374,53.7887688,180.6308136,53.3121109,184.2214203,55.6648064z"/>
				<path class="st11" d="M169.799881,73.5271454c-4.8565216,0.3134689-9.4419403-2.2768326-11.4757385-6.4380798
					l-1.5678101-1.7730484c0.3251648-1.9245834-1.1637115-3.9095955-0.3775177-5.7070122
					c0.7876892-1.8013611,5.3604736-3.5788307,7.1888733-4.4775658c1.8323975-0.8974838,4.2366028-0.8801765,5.8249359,0.357193
					c1.0570526,0.8171921,1.7155304,2.0948334,2.9539642,2.6419601c2.0788422,0.9176826,4.8210449-0.649868,6.7320099,0.5509491
					c1.0678253,0.6699409,1.4459991,1.9801674,1.5271606,3.1887589
					C181.0195313,67.8723679,176.1859589,73.1201935,169.799881,73.5271454z"/>
				<g>
					<path class="st30" d="M156.8074341,32.191082c-0.0066833,0.0141373-0.0131073,0.0282745-0.0200653,0.0422745
						c-0.5077515,1.0217133-2.1827087,5.5301895-2.4384155,6.3941383c-0.1667175,0.5633659-0.2429047,1.1416245-0.3898926,1.7073784
						c-0.1186676,0.4568024-0.3757324,0.8189316-0.2491913,1.3177757c0.2556458,1.0077515,1.4903564,1.3842278,2.4056702,0.8339577
						c1.5406494-0.9261971,2.0174255-6.6281166,2.2255707-8.6256943c-0.713913,1.2021294-1.2565155,2.5282173-1.7715302,3.8162651
						C156.4156189,36.4489212,156.838623,36.2406349,156.8074341,32.191082z"/>
					<path class="st13" d="M145.0249329,64.6050949c-0.1330566,0.8056183-0.0596619,1.6387939-0.1168213,2.4621353
						c-0.2815094,4.1744843-0.6320343,4.2823257-0.449234,5.3783951c0.3000183,1.7777252,2.0825348,2.227684,3.4321594,1.1218643
						c0.8890381-0.7234497,1.5366516-2.163681,2.2945862-3.7877579c0.3311462-0.7189865,0.4718018-1.4515533,0.8088226-2.1622849
						c4.4574585-9.3586426,7.8902435-18.7506752,8.4543762-20.7750244c1.0967712-3.7208824-0.2329407-5.0057068-2.4908142-5.3105164
						c-0.4100189-0.0328941-0.8152008-0.1078796-1.2194977-0.1683693c-0.6590729-0.0933151-1.2848663-0.2556114-1.8558807-0.5903854
						c-1.3470764-0.7974319-3.4481354-0.6636887-4.3951874,0.6144981
						C148.6399231,42.5240517,148.7627258,42.4232521,145.0249329,64.6050949z"/>
					<path class="st11" d="M146.7191162,54.7258492c-0.0449982,0.2529259-0.0854645,0.5031967-0.1303864,0.7561378
						c1.4790955-0.0413475,3.5004578,0.0071754,4.4169617-0.0987968
						C150.10672,55.2954636,148.0993347,54.9597855,146.7191162,54.7258492z"/>
					<path class="st7" d="M159.2019501,47.6306534c0.0878754-0.2593231,0.1729126-0.5228386,0.2468719-0.7882309
						c-0.1691284,0.013073-1.2640076-0.0161018-1.4465027-0.0242691c-1.2298889-0.0429535-1.9653168-0.1634445-3.0621643-0.366436
						C153.7740936,46.23592,157.0709686,47.3847542,159.2019501,47.6306534z"/>
					<path class="st7" d="M152.4987488,51.9696121c1.4318237,0.7160187,3.0106049,1.126152,4.5615234,1.542141
						c0.1126862-0.287056,0.2209015-0.5712738,0.3262482-0.8595161
						C156.0853424,52.4536514,156.6119385,52.9429207,152.4987488,51.9696121z"/>
					<path class="st7" d="M149.5585175,41.3006706c1.1482697,0.9319649,4.210022,1.7203484,5.6307373,1.8509903l0.0413361-0.0533409
						c-1.7771912-0.4398651-3.6326599-1.2877579-5.1430969-2.2830734
						C149.8890228,40.9502945,149.7116547,41.1107445,149.5585175,41.3006706z"/>
					<path class="st11" d="M148.0150299,47.1671791c-0.0189209,0.1137276-0.1221161,0.715992-0.141098,0.8256302
						c0.0353088,0.067524,0.0712891,0.1313286,0.1066284,0.1986809c1.6873169,0.2336273,3.3843689,0.6944847,5.0865173,0.7838936
						c-0.9949036-0.3379059-2.0184326-0.5739861-3.008316-0.9361267
						C149.4173431,47.8060875,148.6958313,47.4113045,148.0150299,47.1671791z"/>
				</g>
				<g>
					<path class="st3" d="M169.5036621,47.8524361c1.0175934-0.1716042,1.8479919-0.9002266,2.7082977-1.3960533
						c2.4526215-1.4189148,4.8668365-2.5802422,5.7071075-3.1600037c1.1439362-0.7828789,1.4371796-1.9414215,0.3346405-2.467659
						c-0.6050568-0.2841415-1.0664215-0.1670685-1.6610413,0.0445633l-0.1130829-0.0699158
						c0.878067-0.6594849,2.0827942-1.42276,1.4711914-2.4041328c-0.1402283-0.2401314-0.4233093-0.4464912-0.658493-0.5948067
						c0.5646973-0.679821,1.5848694-1.6419258,1.5021057-2.5578423c-0.0626678-0.7014885-0.7115021-1.3216705-1.7683411-1.1530647
						c-1.0517273,0.1545448-2.8646393,2.8925934-4.3623657,4.5259094c0.3279572-0.8410568,0.8842316-1.9603233,0.4618835-2.8470154
						c-0.3167572-0.6695976-1.1314087-0.5665665-1.8033752-0.275631c-0.9374084,1.1718559-1.958374,4.6391449-2.5424957,6.1687012
						c-0.5137787,1.3620033-1.3643036,2.6945572-1.5225983,4.1526566
						C167.100708,47.244175,168.146637,48.0847168,169.5036621,47.8524361z"/>
					<path class="st30" d="M169.1455688,45.688446c0.4400635-0.5139961,4.8708191-6.1631851,4.9499359-6.2633209
						c0.0059814-0.0283089-0.0073242-0.0571594-0.0109711-0.0857353c-0.6683044,0.19767-1.2754822,1.2420502-2.3439789,2.5990982
						c-0.9037781,1.1479378-2.0514679,2.3978653-2.7656403,3.6491013L169.1455688,45.688446z"/>
					<path class="st30" d="M169.9900208,46.3551292l0.1855011,0.1352654
						c1.7625122-2.0867767,4.0317535-4.190876,6.4171448-5.6171112l-0.1130829-0.0699158
						c-1.3601837,0.2990494-2.7441559,2.1785851-3.8984985,2.915596c0.9422913-1.6190147,3.0811157-3.1352882,5.5012817-5.0102997
						c-0.0262451-0.1096802-0.0714111-0.2128601-0.1315918-0.3094292
						C175.0958099,40.2171593,170.9804688,44.4861488,169.9900208,46.3551292z"/>
					<path class="st7" d="M170.1411438,51.4698181c-0.2243652,0.0849533-13.355011,12.7572784-13.5987091,12.8342819
						c-2.5249481,0.8571777-2.9688721,1.0053482-3.8525543,1.2830429c-0.9872437,0.3057861,2.5096283,0.359024,1.5057983,0.6216354
						c-2.1557159,0.5658112-3.9726715,0.9529037-6.0763702,1.3229675c1.7569885-3.7220383,2.6191559-4.8713341,5.7838593-9.5899239
						v-0.0032463c8.7195587-13.1812782,9.5875702-14.4279251,11.3283844-14.5427284
						c0.8775177-0.0598946,1.675293,0.448616,2.3002167,0.9772491c0.3955536,0.4786453,0.9972229,0.7844315,1.442627,1.2164955
						l0.1728668,0.0998192c0.484787,0.4715157,0.6723328,0.5459366,1.0271149,0.8011475l0.8509827,0.6713028
						C171.8279266,48.6261215,171.1986542,50.1948547,170.1411438,51.4698181z"/>
				</g>
				<g>
					<path class="st1" d="M133.8195648,59.2097359c0,0-5.2904816-13.0160522-8.7496872-21.5231438
						c-1.6407089-4.0349197-6.3389969-6.1502914-10.6921692-4.814785l-0.0000153,0.0000076
						c-4.5818405,1.4056625-7.0491486,6.0891609-5.4723816,10.3877869l7.1024551,19.3628464L133.8195648,59.2097359z"/>
				</g>
				<path class="st3" d="M126.6875763,48.360054c0.3419189-2.1610222,0.6838455-4.3220406,1.0257645-6.4830589
					c-0.4056625-0.1222687-0.8113251-0.2445412-1.2169876-0.3668098c0.0932922,3.5375366,0.1865845,7.0750732,0.2798843,10.6126099"
					/>
				<path class="st29" d="M119.8299408,39.3425255c0.1049576,3.0987358,2.3388672,5.6147842,4.4301224,6.0355377
					c1.0291595,0.2070618,3.2798462-0.1844788,2.8159103-1.5801735
					C126.3381653,41.5783195,123.3581238,39.2582054,119.8299408,39.3425255z"/>
				<path class="st25" d="M121.1715088,57.3927612c3.1987915,2.2941742,7.5060272,2.3626709,10.7422333,0.459137
					l0.9779053-1.2515297c0.6826782-1.4315796,1.3689575-2.8758888,1.6816711-4.4144287
					c0.8900909-4.3766861-1.9448547-7.0487328-4.6771698-6.7677307c-1.0944824,0.1086388-2.1363525,0.6937675-3.2264633,0.5448036
					c-1.8295059-0.2505264-2.9413834-2.4513779-4.7905121-2.4411621c-1.0327759,0.0049934-1.9011841,0.7291489-2.5220108,1.5089417
					C116.2683182,48.8970337,117.0603256,54.4495201,121.1715088,57.3927612z"/>
				<path class="st15" d="M119.8296509,32.6559143l-0.7412109-1.9566326
					c-0.0881348-0.2326546-0.3538132-0.3593521-0.6044083-0.2882328l-9.3391571,2.6504593
					c-0.270195,0.0766792-0.4167633,0.3518982-0.3208313,0.6024437l0.781044,2.0398483
					c0.089386,0.2334595,0.35746,0.3591995,0.6084671,0.285408l9.299324-2.7336731
					C119.779808,33.1770668,119.9238129,32.90448,119.8296509,32.6559143z"/>
				<path class="st8" d="M162.9637299,47.7771873c1.4488068,2.0822029,3.4825439,3.787281,5.8162384,4.9456062
					c0.3603973-0.3376312,0.6632996-0.6207733,0.8895416-0.8323021
					C167.1798553,50.9561348,164.8798828,49.5527344,162.9637299,47.7771873z"/>
				<path class="st8" d="M164.4104919,56.8782234c-0.2393341,0.2293396-0.4786835,0.4586792-0.7180176,0.6846123
					c-1.6753235-1.0736656-3.1312256-2.4531136-4.244812-4.052002
					C160.9069672,54.8638268,162.5922394,56.0006256,164.4104919,56.8782234z"/>
				<path class="st8" d="M157.749115,60.8868866c-1.4227142-0.7511597-2.7224274-1.7550278-3.8459473-2.9450645v-0.0032463
					c0.1562195-0.2361565,0.3190918-0.475399,0.4786377-0.7180481
					C155.3557739,58.5834236,156.4892883,59.8198776,157.749115,60.8868866z"/>
				<path class="st8" d="M163.968399,53.2183571c-1.6786652-0.8909073-3.1877899-2.1340179-4.4409637-3.6165314
					c0.2028046-0.295887,0.3889313-0.5718079,0.55513-0.8211136C161.1628876,50.4493942,162.47258,51.9518738,163.968399,53.2183571
					z"/>
				<path class="st20" d="M110.822319,43.380703c0.6249161,1.1840515,1.5643845,2.1907959,2.5046234,3.173027
					c-1.1476517-2.664093-1.4954834-6.6197166,0.0707474-9.0879135
					C110.672081,37.430191,109.1656036,40.2425613,110.822319,43.380703z"/>
			</g>
			<path class="st8" d="M141.9874725,59.609005l38.2106323,9.8814659
				c-4.1208954,22.2094727-10.6128998,46.3392029-18.5973969,71.6781235c0,0-28.3503571,0.7431793-46.5912476-5.1206818
				L141.9874725,59.609005z"/>
			<path class="st7" d="M141.9874725,59.609005L108.428833,43.9098358c0,0-20.4472427,50.8228455-21.9942551,74.5848541
				c0,0,14.4304504,12.4942169,28.5748825,17.5532227L141.9874725,59.609005z"/>
			<path class="st0" d="M158.6964111,124.9015121c-0.3579254,2.617897-1.6690521,3.854805-9.8391418,14.4696884
				c-1.3362732,1.7318268-2.7756195,3.543335-4.81987,4.3245239c-2.0410156,0.7844238-4.8365173,0.039917-5.4681396-2.0541687
				c-0.8276062,1.1634216-2.3300781,1.8016205-3.7395477,1.5954895c-1.412735-0.2093811-2.6659088-1.2598419-3.1179352-2.6094208
				c-0.8841553,1.352829-2.7788544,1.9379425-4.2746811,1.3197174c-1.4925766-0.6216278-2.4165878-2.3768158-2.0841827-3.9589996
				c-0.5718079,0.9473877-1.8781433,1.3661499-2.8919907,0.9306793c-1.0137711-0.4387207-1.6054611-1.6785889-1.3096619-2.7423401
				c0.2626114-0.9407349,1.0769882-1.605545,1.8481979-2.2070618c4.0120697-3.1346436,7.6685257-6.3689346,11.680687-9.5001678
				c-2.8487396,0-5.697403,0.0032501-8.5494614,0.0032501c-6.085968,0.016861-4.6556091-5.3648376-0.4188309-5.9599228
				c3.7761536-0.5286407,7.5423431-0.4155121,11.2951202-1.4659653c3.9422607-1.1023636,7.599884-3.0193405,10.623703-5.5179596
				c2.5728149,1.9080887,6.8242493,3.8692474,8.6957245,6.4685974
				C157.7823029,120.0251541,159.0354767,122.4284363,158.6964111,124.9015121z"/>
			<path class="st2" d="M152.8560791,134.1822357c-2.0578766-2.2590027-6.6498718-10.7235489-8.499588-20.3265381
				c1.1434479-0.6946793,2.2404022-1.4726181,3.2741852-2.3268433c2.5728149,1.9080887,6.8242493,3.8692474,8.6957245,6.4685974
				C161.2645111,124.8750229,157.9974365,127.502449,152.8560791,134.1822357z"/>
			<path class="st25" d="M215.255661,80.711731c-10.1858215,30.6182022-56.0173492,51.2582397-56.0173492,51.2582397
				c-11.2448425-8.3905029-14.2126617-21.706398-14.2126617-21.706398s33.7398376-25.3181229,42.15065-38.0161896
				c8.4107971-12.6980667,24.4368591-13.2183952,28.4991302-4.8567734
				C217.2927094,70.7195358,216.289856,77.6029587,215.255661,80.711731z"/>
			<g>
				<path class="st2" d="M124.7488098,138.1680908l7.2988281-6.1162109c0.3807983-0.318512,0.861496,0.2559509,0.4814453,0.5751953
					l-7.2988281,6.1162109C124.8533478,139.057373,124.3674011,138.4884644,124.7488098,138.1680908z"/>
			</g>
			<g>
				<path class="st2" d="M131.8264465,139.9205322l6.1015625-6.5942383c0.3384094-0.362915,0.8874817,0.144989,0.5507813,0.5097656
					l-6.1015625,6.5942383C132.0383148,140.7937317,131.4901428,140.2848511,131.8264465,139.9205322z"/>
			</g>
			<g>
				<path class="st2" d="M138.3552551,141.5059814l2.8540039-3.9384766
					c0.2913971-0.4018555,0.8983459,0.0384979,0.6074219,0.4404297l-2.8540039,3.9384766
					C138.6728821,142.3463135,138.0621948,141.9108582,138.3552551,141.5059814z"/>
			</g>
			<path class="st3" d="M193.8291931,27.4548531c-0.6325684-2.7300549,0.6726685-4.7715149,2.1811676-5.2933998
				c2.4267731-0.8396721,4.5928345,1.6581192,6.3522797,3.436739c2.7755737,2.8061657,5.6236267,5.6329403,6.6334839,9.5852375
				c0.3915558,1.5313911,0.5085602,3.3413391-0.3776398,4.7311249c-0.4982452,0.7813721-1.3618774,1.206131-2.0738373,1.7582397
				c-0.3052063,0.2366867-0.5268555,0.6548843-0.8251801,0.8564911c-0.3802795,0.2569847-1.1582794,0.1461868-1.5961304,0.144249
				c-3.8139648-0.01688-5.2978516-0.5735054-6.9745178-4.0885544
				C194.7619781,33.5810699,194.4017944,29.9260292,193.8291931,27.4548531z"/>
			<path class="st0" d="M186.9038391,39.6148262c-0.0988464-0.8145447-0.3212738-1.6052589-0.2034912-2.4434319
				c0.4178467-2.9737129,3.59021-4.4753647,4.0942535-5.4030972c0.0003815-0.0007095,0.5069275-0.9330578,0.5069275-0.9330578
				c0.8299866-1.0334511,1.6656647-1.7989788,2.7941895-2.4877243c1.9668427-0.2017689,3.4998932,0.6395473,4.9837494,1.8534927
				c3.7242737,3.0460472,4.7457581,6.7736168,4.0171509,9.8826904c-0.0474091,0.2023048-0.4225311,0.9499283-0.2955475,1.1180649
				c0.0818634,0.1083832,1.1122894-0.159771,1.3174133-0.1530495c1.2338867,0.0404205,1.9058838,1.0087929,1.3755798,2.2847672
				c-0.7217407,1.7365761-2.8460693,2.4167671-4.4429016,1.4159355
				C194.0816345,48.3332901,187.5056152,44.574234,186.9038391,39.6148262z"/>
			<path class="st20" d="M190.0383911,38.0511513c0.6382446,0.5039444,1.5267487,0.6731377,2.305542,0.4390259
				c0.9555359-0.2872353,1.087326-1.0592155,0.5395966-1.5881767c-0.4479065-0.4325752-1.7752228-0.8177528-2.382843-0.9644279
				c-0.3439026-0.0830154-0.933609-0.3225708-1.2362671-0.0322838
				C188.6713867,36.4740753,189.5872803,37.6949654,190.0383911,38.0511513z"/>
			<path class="st3" d="M186.287674,45.6887398c-1.1318054-0.4558258-2.2188416-1.2146416-2.2099915-2.4343071
				c0.0048676-0.6696358,0.3083344-1.1441383,1.6023712-3.8438988c0.3142548-0.6556168,0.624115-1.8076859,1.1499786-2.2910194
				c-0.0186005,0.0171013,0.8049011,1.2584457,0.8907776,1.4501343c0.300705,0.6712532,0.4532623,1.2577896,1.0975647,1.7066154
				c0.6429138,0.4478683,1.4965973,0.577816,2.2436523,0.3415337c0.490799-0.1552277,0.9864044-0.4617729,1.482132-0.3230934
				c0.767807,0.214798,0.9747467,1.3292732,2.4131012,1.1821442c0.4936676-0.050499,0.9379883-0.5711861,1.438858-0.4145012
				c1.1893158,0.377758,0.4440765,4.3286972-2.9660187,4.9820251
				C191.0075378,46.5085068,188.621521,46.6286774,186.287674,45.6887398z"/>
			<path class="st3" d="M194.8083191,37.7021713c-1.0517578,0.0598488-0.977829-1.534153-1.757431-2.0193253
				c-0.5170441-0.3217773-1.2036743-0.0744667-1.3968964,0.5029449c0.115509-0.2352448,0.036377-0.4509277-0.0803223-0.6855888
				c-0.3860168-0.7762451-1.2588806-0.3720169-1.6832428-0.3400688c-0.4917145,0.0370216-0.9954681-0.1924133-1.2902985-0.5876617
				c-0.1997986,0.7139587,0.0289154,1.569149,0.6156616,2.0223351s1.4514008,0.5091782,2.0917053,0.1354523
				c0.2699127,0.5859032,0.775589,1.0590744,1.3781128,1.2895164S194.2163239,37.9584236,194.8083191,37.7021713z"/>
			<path class="st3" d="M199.2851257,33.9363937c0.6630096,0.331192,0.4916687,0.8062134,0.0734253,0.9119339
				c-0.7087555,0.1791611-3.199646-1.2934952-2.7956543-1.8596649c0.156311-0.2190437,0.6381683,0.0636253,0.837677,0.1364174
				C198.0434265,33.3596344,198.6729584,33.6305923,199.2851257,33.9363937z"/>
			<path class="st3" d="M193.6038818,31.5877838c0.6630096,0.331192,0.4916687,0.8062172,0.0734253,0.9119377
				c-0.7087555,0.1791573-3.199646-1.2934971-2.7956543-1.8596668c0.156311-0.2190456,0.6381683,0.0636234,0.837677,0.1364174
				C192.3621826,31.0110264,192.9917145,31.2819843,193.6038818,31.5877838z"/>
			<path class="st3" d="M196.6578369,34.6190796c-0.0034485,0.0047073-0.0073547,0.0086021-0.0107574,0.0133095
				c-0.3056183,0.4244347-0.3630066,0.9055099-0.1281433,1.0746346c0.2282867,0.1644173,0.6477661-0.0284042,0.951767-0.4291382
				C197.109436,35.0890923,196.9045563,34.8861542,196.6578369,34.6190796z"/>
			<path class="st3" d="M191.4041138,32.2062798c-0.0034485,0.0047073-0.0073395,0.0086021-0.0107422,0.0133095
				c-0.3056335,0.4244347-0.3630066,0.9055138-0.1281433,1.0746346c0.2282867,0.1644173,0.6477661-0.0284004,0.951767-0.4291382
				C191.8557129,32.6762924,191.6508331,32.4733582,191.4041138,32.2062798z"/>
			<path class="st2" d="M192.6039886,33.9352074c-0.2633972,0.131012-0.2212372,0.298439,0.0104675,0.4649467
				c0.3204041,0.2302513,0.6408081,0.4605026,0.9612274,0.6907539c0.288559,0.2073746,0.4557648-0.0314178,0.1790466-0.2474442
				c-0.2717285-0.2121353-0.5434418-0.4242668-0.8151245-0.636425c0.3160858-0.1660194,0.6321716-0.3320389,0.9482574-0.4980545
				c0.130661-0.0686226,0.7537079-0.2959518,0.5124512-0.4307022c-0.1771851-0.0989609-0.7087097,0.1886101-0.8825378,0.2553711
				C193.2070618,33.652977,192.9020081,33.7869835,192.6039886,33.9352074z"/>
			<path class="st2" d="M202.558136,43.9827805c-0.4129028-0.1196098-0.450058-0.4559212,0.0092621-0.5476494
				c0.2861023-0.0571365,1.1863098-0.0826912,1.0519714-0.5604057c-0.0390625-0.1389046-0.1721344-0.1513786-0.1677399-0.3312569
				c0.0028992-0.1189156,0.087326-0.2702026,0.1819611-0.3402786c0.3162842-0.2342186,0.5873566,0.1888847,0.6520233,0.4713478
				C204.478241,43.5159149,203.6136475,44.2885437,202.558136,43.9827805z"/>
			<path class="st27" d="M167.2426758,92.3794556c5.1433563-4.9525375,16.1119843-15.170578,20.7991028-21.0351563
				c1.5618744-1.9208145,1.7576904-2.4065475,2.458313-3.4335938
				C186.9550323,75.4501953,173.8555603,87.2852097,167.2426758,92.3794556z"/>
			<path class="st27" d="M181.1018829,119.4321899c8.2852936-6.1990967,19.047287-15.1037064,25.510849-23.21875
				c1.2762604-1.4219284,4.2757111-5.8146591,4.9148254-7.0761719c0.4354553-0.8544922,0.8835907-1.7060547,1.3417206-2.559082
				C208.3995819,99.2475281,192.603775,112.6412277,181.1018829,119.4321899z"/>
		</g>
	</g>
</g>
</svg>
