<?xml version="1.0" encoding="utf-8"?>
<!-- Generator: Adobe Illustrator 22.0.1, SVG Export Plug-In . SVG Version: 6.00 Build 0)  -->
<svg version="1.1" id="Layer_1" xmlns="http://www.w3.org/2000/svg" xmlns:xlink="http://www.w3.org/1999/xlink" x="0px" y="0px"
	 viewBox="0 0 300 300" style="enable-background:new 0 0 300 300;" xml:space="preserve">
<style type="text/css">
	.st0{fill:#EDC1A4;}
	.st1{fill:#E2E0E0;}
	.st2{fill:#D39E81;}
	.st3{fill:#502E26;}
	.st4{fill:#CCCACA;}
	.st5{fill:#426800;}
	.st6{fill:#538705;}
	.st7{fill:#D47E44;}
	.st8{fill:#73341D;}
	.st9{fill:#BC672E;}
	.st10{fill:#96311D;}
	.st11{fill:#B83E21;}
	.st12{fill:#DE8D82;}
	.st13{fill:#EFBAB4;}
	.st14{fill:#FDD5D0;}
	.st15{fill:#6883CE;}
	.st16{fill:#3D4885;}
	.st17{fill:#3859AE;}
	.st18{fill:#864424;}
	.st19{fill:#FEFEFE;}
	.st20{fill:#FFFFFF;}
	.st21{fill:#A55925;}
	.st22{fill:#F4F2F2;}
	.st23{fill:#3C3E68;}
	.st24{fill:#E8997C;}
	.st25{fill:#F5C46B;}
	.st26{fill:#F7EBDA;}
	.st27{fill:#0E0C0D;}
	.st28{fill:#657C3A;}
	.st29{fill:#576C37;}
	.st30{fill:#7C995D;}
	.st31{fill:#36518C;}
	.st32{fill:#96B7E3;}
	.st33{fill:#A3B3DF;}
	.st34{fill:url(#SVGID_1_);}
	.st35{fill:url(#SVGID_2_);}
	.st36{fill:url(#SVGID_3_);}
	.st37{fill:url(#SVGID_4_);}
	.st38{fill:url(#SVGID_5_);}
	.st39{fill:#266AB7;}
	.st40{fill:#060E0D;}
	.st41{fill:#E0D4C6;}
	.st42{fill:#787E42;}
	.st43{fill:#D3D1D1;}
	.st44{fill:url(#SVGID_6_);}
	.st45{fill:url(#SVGID_7_);}
	.st46{fill:url(#SVGID_8_);}
	.st47{fill:#020508;}
	.st48{fill:#BAB6B6;}
	.st49{fill:#0F0B07;}
	.st50{fill:#2F3A68;}
	.st51{fill:#203257;}
	.st52{opacity:0.5;fill:#FFFFFF;}
	.st53{opacity:0.2;fill:#0E0C0D;}
	.st54{fill:#DD9F9B;}
	.st55{fill:#3E4D9B;}
	.st56{fill:url(#SVGID_9_);}
	.st57{fill:#5F6194;}
	.st58{fill:url(#SVGID_10_);}
	.st59{fill:url(#SVGID_11_);}
	.st60{fill:url(#SVGID_12_);}
	.st61{fill:url(#SVGID_13_);}
	.st62{fill:#070102;}
	.st63{fill:#100805;}
	.st64{fill:#FDA465;}
	.st65{fill:#2A50A1;}
	.st66{fill:#B76C39;}
	.st67{fill:#130602;}
	.st68{fill:url(#SVGID_14_);}
	.st69{fill:url(#SVGID_15_);}
	.st70{fill:url(#SVGID_16_);}
	.st71{fill:url(#SVGID_17_);}
	.st72{fill:url(#SVGID_18_);}
	.st73{fill:url(#SVGID_19_);}
	.st74{fill:#B4BDED;}
	.st75{fill:#100D08;}
	.st76{fill:#F6C85F;}
	.st77{fill:#FECF00;}
	.st78{fill:#2D59E2;}
	.st79{fill:#121F3A;}
	.st80{fill:#BBD0F5;}
	.st81{fill:#020202;}
	.st82{fill:#E2CFB7;}
	.st83{fill:#080805;}
	.st84{fill:#A87D7C;}
	.st85{fill:#182052;}
	.st86{fill:#EAEAEA;}
	.st87{fill:#DDDDDD;}
	.st88{fill:#3D4574;}
	.st89{fill:#ABC5F0;}
	.st90{fill:url(#SVGID_20_);}
	.st91{fill:#4159A8;}
	.st92{fill:#E0D0BD;}
	.st93{fill:#3D53AA;}
	.st94{fill:#0A0000;}
	.st95{fill:#BF6D36;}
	.st96{fill:#385DAE;}
	.st97{fill:#E0DCDC;}
	.st98{fill:#857E78;}
	.st99{fill:#0E213C;}
	.st100{fill:url(#SVGID_21_);}
	.st101{fill:#55608E;}
	.st102{opacity:0.3;fill:#F4F2F2;}
	.st103{opacity:0.3;}
	.st104{fill:#213987;}
	.st105{enable-background:new    ;}
</style>
<g id="Juice_Stall_1_">
	<g id="Juice_Stall">
		<g>
			<g>
				<path class="st16" d="M61.3539391,195.3307343c0.0746651-5.5531158,0.3569679-11.1435547,2.2604485-16.411377
					c2.6440659,4.9621735,2.8517151,11.0908966,3.2143478,16.593689c1.1458817-2.2797546,3.8132858-9.4710693,5.4447861-10.7839203
					l0.237648,0.0503235c1.2846756,2.7571411-1.2026291,15.2941895-1.8428192,18.2671967
					c1.9808044-3.1100159,4.0679321-6.066391,6.723671-8.6478119c-0.2209854,5.9344177-2.497757,12.2431183-4.7492065,17.6799164
					c2.1641235-1.724823,3.8099594-3.9119415,6.096405-5.5624542c-1.6890488,7.2028198-6.1340866,15.2286377-14.4431305,15.6502075
					c-8.8331528,0.4481659-14.1632309-9.6109314-16.1278419-16.9440613
					c2.3377686,1.8421326,4.5632133,3.9602509,6.5570183,6.1667023c-1.6551704-6.0957336-3.1736832-11.1762238-3.5489845-17.562912
					c2.4947548,2.5570679,4.5028915,5.576767,6.1850586,8.7151337c-0.8415871-6.3570404-2.2781105-11.4858551-1.4311943-18.0612183
					C58.5945473,187.5968475,60.0177422,191.5214386,61.3539391,195.3307343z"/>
				<path class="st79" d="M152.0414124,91.5805969c0,0-2.1077118-5.9799423-0.5776978-8.9143448
					c1.5299988-2.9344025,3.8488159-4.8882294,9.0115814-4.8371582c5.1627808,0.0510712,7.6047363,4.1474609,7.6005859,8.4214478
					c-0.0041656,4.2739868-1.4855194,6.8050613-1.4855194,6.8050613s-6.1131897,0.4339523-6.5747986,0.4856873
					C159.5539703,93.5930328,152.0414124,91.5805969,152.0414124,91.5805969z"/>
				<path class="st0" d="M176.5665894,120.609787l-14.1772003,8.1839447l-11.7963257-6.2396851l-4.1460114-5.989502
					l2.6869049-10.3558121c0,0,1.0784454-0.1641769,2.7951202-0.339653
					c1.2240601-0.1268234,2.2204132-1.0411911,2.4481049-2.2465591c0.0189667-0.1009216,0.8194122-4.3599854,0.7686768-4.090065
					l9.0086823-0.2388916c0.0095215,0.1002426,0.4256439,4.480011,0.399231,4.2021332
					c0.1157074,1.2427216,1.0449371,2.2576752,2.2727203,2.4705048c1.4106445,0.2425308,2.7354584,0.5858307,3.8922577,1.0523071
					C178.0929413,110.0039673,176.5665894,120.609787,176.5665894,120.609787z"/>
				<path class="st2" d="M164.5239868,103.1748047c-2.7669067,1.4329071-7.1787872,0.0816727-9.777359-1.5264359l0.399231-2.1159134
					l9.0086823-0.2388916L164.5239868,103.1748047z"/>
				<polyline class="st8" points="231.9212189,188.3191528 242.8226166,46.014225 238.379776,46.014225 229.0170898,191.3949127 
									"/>
				<polyline class="st8" points="92.9018478,188.3191528 80.8779144,49.5216141 85.2095413,49.5216141 94.4982452,189.1005859 				
					"/>
				<path class="st15" d="M106.1060104,127.9615479c0,0,23.969368-17.4589767,28.3059769-18.0443115
					c4.3366241-0.5853271,1.4644318,16.7227554,1.4644318,16.7227554
					c-2.8052063,1.4478531,10.4402466-5.3885574-20.9766541,10.8267288"/>
				<path class="st15" d="M180.8866425,109.6491852c0,0-6.4247589-3.035965-10.5554352-2.6004486
					c0,0,0.1806793,12.3814316-9.8015289,13.2436447c-9.9822083,0.8622208-11.3967285-14.0852051-11.3967285-14.0852051
					s-9.6879578,0.5334625-16.6812592,4.6350861s-4.0411224,79.3079605-4.0411224,79.3079605l67.1134033,0.046463
					l-7.8265381-45.4088745L180.8866425,109.6491852z"/>
				<path class="st79" d="M132.7623444,115.8830414c-1.2561035,3.5815659-3.9023895,7.1177826-3.5092316,11.1635361
					c1.1928558-0.739769,1.2514954-3.2614365,1.5471649-4.4954987
					C131.3403625,120.2969437,131.995224,118.0703659,132.7623444,115.8830414z"/>
				<path class="st8" d="M105.6105347,175.1642761c0.0040665-2.3038788-0.7270813-4.6035156-2.0608978-6.4820251
					c0.7677689-0.0292053,1.5355453-0.0584106,2.3033218-0.0876007c0.5011139,2.735199,0.5235596,5.5574188,0.0660172,8.3002472"/>
				<polygon class="st7" points="88.5098572,197.6378937 236.3374634,197.6378937 232.9526978,270.7575073 94.5611191,270.7575073 
									"/>
				<polygon class="st9" points="236.3383484,197.6347504 235.934433,206.2576752 89.2242203,206.2576752 88.5073013,197.6347504 
									"/>
				<g>
					<path class="st8" d="M228.8099213,65.7002945h-16.493988c-3.6896057,0-6.6806335-2.9910202-6.6806335-6.6806374V33.3429298
						h29.8552704v25.6767273C235.4905701,62.7092743,232.4995422,65.7002945,228.8099213,65.7002945z"/>
					<path class="st8" d="M198.9946747,65.7002945h-16.493988c-3.689621,0-6.6806335-2.9910202-6.6806335-6.6806374V33.3429298
						h29.8552551v25.6767273C205.6753082,62.7092743,202.6842804,65.7002945,198.9946747,65.7002945z"/>
					<path class="st8" d="M169.1794128,65.7002945h-16.493988c-3.6896057,0-6.6806335-2.9910202-6.6806335-6.6806374V33.3429298
						h29.8552551v25.6767273C175.8600464,62.7092743,172.8690338,65.7002945,169.1794128,65.7002945z"/>
					<path class="st8" d="M139.364151,65.7002945h-16.4939804c-3.6896133,0-6.6806412-2.9910202-6.6806412-6.6806374V33.3429298
						h29.8552704v25.6767273C146.0447998,62.7092743,143.053772,65.7002945,139.364151,65.7002945z"/>
					<path class="st8" d="M109.5488968,65.7002945H93.0549164c-3.6896133,0-6.6806412-2.9910202-6.6806412-6.6806374V33.3429298
						h29.8552628v25.6767273C116.229538,62.7092743,113.2385101,65.7002945,109.5488968,65.7002945z"/>
				</g>
				<g>
					<path class="st11" d="M245.5212402,54.3573685h-20.3036346c-4.5418091,0-8.2236786-3.6818657-8.2236786-8.2236786V22
						h36.7509918v24.1336899C253.7449188,50.6755028,250.0630493,54.3573685,245.5212402,54.3573685z"/>
					<path class="st26" d="M208.8195038,54.3573685h-20.3036346c-4.5418091,0-8.2236786-3.6818657-8.2236786-8.2236786V22
						h36.7509918v24.1336899C217.0431824,50.6755028,213.3613129,54.3573685,208.8195038,54.3573685z"/>
					<path class="st11" d="M172.1177521,54.3573685h-20.3036346c-4.5418091,0-8.2236786-3.6818657-8.2236786-8.2236786V22
						h36.7509918v24.1336899C180.3414307,50.6755028,176.6595612,54.3573685,172.1177521,54.3573685z"/>
					<path class="st26" d="M135.4160156,54.3573685H115.112381c-4.5418091,0-8.2236786-3.6818657-8.2236786-8.2236786V22h36.7509918
						v24.1336899C143.6396942,50.6755028,139.9578247,54.3573685,135.4160156,54.3573685z"/>
					<path class="st11" d="M98.7142715,54.3573685H78.4106369c-4.5418091,0-8.2236786-3.6818657-8.2236786-8.2236786V22h36.7509918
						v24.1336899C106.9379501,50.6755028,103.2560806,54.3573685,98.7142715,54.3573685z"/>
				</g>
				<polygon class="st8" points="88.5098572,197.6378937 92.9018478,188.3191528 231.9212189,188.3191528 236.3374634,197.6378937 
									"/>
				<path class="st11" d="M114.8815842,176.7951965c-0.9339752-2.6614838-4.0251236-5.1275177-6.9110641-3.9126282
					c-2.4426956,1.0283051-2.5013733,0.8806305-4.3989258,0.4219971c-1.8935471-0.4576721-4.0118027,0.1783447-5.3400574,1.6033783
					c-1.6472473,1.7672729-1.6309204,4.9277649-1.3429565,7.193161c0.3093338,2.4335327,1.248764,4.8827209,3.0239334,6.6256866
					c0.8739777,0.8581238,2.0902863,1.4551392,3.3043823,1.293335c1.3650589-0.1819153,2.8111267-1.2647705,4.2171249-0.7129822
					c0.6556473,0.257309,1.9720688,1.3184814,3.8283157,0.5190277c2.6856842-1.1566772,3.2813492-4.9275513,3.7416153-7.441803
					C115.3434143,180.5300446,115.505806,178.5739899,114.8815842,176.7951965z"/>
				<path class="st8" d="M126.1826401,176.3878937c0.0040665-2.3038788-0.7270813-4.6035156-2.0608978-6.4820251
					c0.7677765-0.0292053,1.5355453-0.0583954,2.3033218-0.0876007c0.5011139,2.735199,0.5235596,5.5574188,0.0660172,8.3002472"/>
				<path class="st11" d="M135.4536896,178.0188141c-0.9339752-2.6614838-4.025116-5.1275177-6.9110718-3.9126282
					c-2.442688,1.0283051-2.5013657,0.8806305-4.3989182,0.4219971c-1.8935471-0.4576721-4.0118027,0.1783447-5.3400574,1.6033783
					c-1.6472473,1.7672882-1.6309204,4.9277649-1.3429565,7.193161c0.3093338,2.4335327,1.248764,4.8827209,3.0239334,6.6256866
					c0.8739777,0.8581238,2.0902863,1.4551392,3.3043823,1.2933502c1.3650589-0.1819305,2.8111343-1.2647858,4.2171173-0.7129974
					c0.6556549,0.257309,1.9720764,1.3184967,3.8283234,0.5190277c2.6856842-1.1566772,3.2813416-4.9275513,3.7416229-7.441803
					C135.9155121,181.7536621,136.0779114,179.7976074,135.4536896,178.0188141z"/>
				<g>
					<path class="st7" d="M207.2174835,185.4285889c-1.3754272-2.6723175-1.8684998-6.6896362-0.2750092-9.5594177
						c2.8046265-5.0509186,12.3097687-3.713501,15.3408813-0.0463867c1.1247253,1.360733,1.3582306,3.1286774,1.1298828,4.8293915
						C221.9308472,191.6930847,210.7529907,192.2976837,207.2174835,185.4285889z"/>
					<path class="st16" d="M215.4974823,168.115921c0.5403595-0.1962738,0.9964142-0.2854767,1.5684814-0.2854767
						l0.0492706,0.1705322c-1.6580505,1.4598846-3.5441132,1.7875671-4.6214905,3.9229126
						c4.1516571-0.4045258,6.2493134-0.4676056,9.5922852,2.3204498c1.2736664,1.062439,2.8649139,2.5323944,3.5970917,4.0325928
						l-0.0514984,0.3388519c-3.8076782,1.4395599-10.9076843-3.6339569-14.3790894-5.8059845
						C211.4963684,172.3958282,212.0913086,169.353241,215.4974823,168.115921z"/>
				</g>
				<path class="st7" d="M175.5067139,150.12854l-0.8060455,11.5835876l-1.9069977,27.3879089
					c0,1.2164917-4.9185181,2.2017365-10.9827271,2.2017365c-6.0679474,0-10.9827271-0.9852448-10.9827271-2.2017365
					l-1.9107361-27.3879089l-0.8060455-11.5835876H175.5067139z"/>
				<path class="st80" d="M175.5067139,150.12854l-0.8060455,11.5835876
					c-1.8995209,0.8471375-6.9524231,1.4553833-12.8897247,1.4553833s-10.9939423-0.6082458-12.8934631-1.4553833
					l-0.8060455-11.5835876H175.5067139z"/>
				<ellipse class="st22" cx="161.8104553" cy="150.1272583" rx="13.6978474" ry="2.2017369"/>
				<g>
					<circle class="st11" cx="163.1817017" cy="142.4009094" r="8.9055548"/>
					<g>
						<path class="st7" d="M162.9100189,142.9614258c0.0767517,0.0569611,0.1482697,0.111145,0.1860046,0.2034912
							c0.1778412,0.4352417,0.0943909,4.5803223,0.0474854,5.2826996c-0.0185089,0.2779236-0.0642395,0.5388031-0.1562958,0.8020172
							c-0.756134,0.7631531-2.4395599,0.2043762-3.4125519-0.2525787c-0.4558563-0.2702179-0.9876099-0.7316437-0.9966278-1.2592316
							C158.5671234,147.0941315,162.2367706,143.637146,162.9100189,142.9614258z"/>
						<path class="st11" d="M158.4529114,147.7400208c-0.0115662-0.6954041,3.2498016-3.7627258,4.4448242-4.9433594
							c0.1563721,0.1161194,0.2568207,0.1806488,0.3139648,0.3210449c0.2016602,0.4934082,0.0908203,4.8195801,0.0561523,5.3381348
							c-0.0205078,0.3120117-0.0722656,0.5771484-0.1625977,0.8349609l-0.0292969,0.0466309
							C162.0605621,150.3634491,158.479599,149.2395935,158.4529114,147.7400208z M162.91922,143.1286926
							c-0.4746857,0.467804-4.225769,4.0448456-4.2163086,4.6069336c0.0082855,0.4768677,0.5257111,0.9109497,0.9355469,1.1540527
							c0.9103546,0.4270782,2.5376892,0.9758453,3.2397461,0.291748c0.0771484-0.2277832,0.1220703-0.4643555,0.140625-0.7421875
							C163.0435181,148.0691986,163.1955109,143.3856049,162.91922,143.1286926z"/>
					</g>
					<g>
						<path class="st7" d="M163.6119843,143.0517731l0.2519836,0.032486
							c0.2416534,0.1785736,4.3296509,4.2664185,4.4809875,4.4888306c0.063797,0.0939636,0.0581207,0.2453003,0.0215607,0.3535309
							c-0.404007,1.2012939-3.8324738,2.1503754-4.5336761,1.6765442c-0.3218231-0.2174683-0.293869-0.6338501-0.3130341-0.9803314
							C163.4776764,147.8616791,163.4352722,143.6132507,163.6119843,143.0517731z"/>
						<path class="st11" d="M163.4006653,148.7566223c-0.0066071-0.2731628-0.0785065-0.8959961-0.0400391-3.3510742
							c0.0416107-2.7492371,0.1485596-2.2958527,0.1635742-2.4912109l0.3881836,0.0500488l0.0258789,0.0192871
							c0.2695313,0.1989746,4.3579102,4.2956543,4.5102539,4.519043c0.0952148,0.1401367,0.0791016,0.3376465,0.0361328,0.4638672
							c-0.1526337,0.4545135-0.6259918,0.7531586-1.0092773,1.0136719c-0.9751892,0.5277557-1.8657684,0.7806549-2.800293,0.8452148
							l-0.0722656,0.0053711C163.7559814,149.8926392,163.4341278,149.6774597,163.4006653,148.7566223z M163.7053528,143.1897278
							c-0.1817017,0.8604431-0.0566406,5.4556122-0.0551758,5.5576172c0.028244,0.7394714,0.191864,0.8890381,0.9335938,0.8339844
							c0.100708-0.0103607,0.4832611-0.0233459,1.0014648-0.1391602c0.8181458-0.1823883,2.415329-0.8183136,2.6625977-1.5554199
							c0.0297852-0.0878906,0.0268555-0.1945801-0.0063477-0.2434082c-0.1396484-0.1992188-4.0273438-4.0944824-4.4287109-4.4396973
							L163.7053528,143.1897278z"/>
					</g>
					<g>
						<path class="st7" d="M162.1403656,134.9598541c0.3889008,0.0137177,0.8982544,0.0099945,1.0947876,0.3935699
							c0.1160889,0.2265015,0.0965729,6.0984039-0.0455933,6.5308685l-0.0942383,0.0208282
							c-0.558609-0.3922577-1.0390015-0.967041-1.5185242-1.4526825c-1.4754486-1.4825897-3.4680634-2.9573364-2.6491394-4.0444336
							C159.4294586,135.7420502,161.3013611,135.0733185,162.1403656,134.9598541z"/>
						<path class="st25" d="M163.068634,142.0388489c-0.1021271-0.0878754-0.2866974-0.1343842-1.222168-1.1245117
							c-1.6619568-1.7561646-3.9615173-3.329834-3.0185547-4.581543c0.5380859-0.7145996,2.4667969-1.3847656,3.2958984-1.4968262
							c0.1000671-0.0014648,0.9551086-0.0625153,1.2226563,0.4604492c0.1459961,0.2849121,0.1123047,6.1689453-0.0380859,6.6269531
							l-0.0219727,0.067627L163.068634,142.0388489z M162.146759,135.0849915
							c-0.8168945,0.1140137-2.6401367,0.762207-3.1196289,1.3981934c-0.7806396,1.0379028,1.2899323,2.4454041,3.0009766,4.2595215
							c0.3359375,0.3557129,0.6826172,0.7226563,1.0610352,1.003418c0.1040039-0.8449707,0.137207-6,0.0307617-6.3449707
							C162.9940643,135.1579132,162.6867065,135.09729,162.146759,135.0849915z"/>
					</g>
					<g>
						<path class="st7" d="M156.5426025,142.6828003c0.878479-0.0415039,5.9373016-0.1420135,6.26474,0.0935211
							c-0.2036285,0.6110535-1.9169006,2.1399078-2.4536591,2.6811981c-0.767395,0.7188263-1.3725891,1.7558594-2.3997955,1.6457214
							c-0.6776886-0.0726776-1.1256714-0.4884186-1.4549866-1.0852203
							c-0.3945923-0.7144775-0.9157715-1.8643188-0.6458588-2.6814728
							C155.9721832,142.9754486,156.2135468,142.8347321,156.5426025,142.6828003z"/>
						<path class="st11" d="M156.3894348,146.0788879c-0.4492188-0.8139648-0.9272461-1.9567871-0.6552734-2.7814941
							c0.1362305-0.4135742,0.4233398-0.5742188,0.7563477-0.7280273c7.3537445-0.2398682,6.2105865,0.15271,6.4643555,0.1591797
							c-0.1023102,0.1367188,0.2876282,0.1347351-2.0537109,2.3730469
							c-1.2574005,1.2001038-1.4412689,1.5918579-2.0585938,1.9394531
							C158.0947113,147.4615173,157.0375671,147.2333679,156.3894348,146.0788879z M156.5730286,142.8066711
							c-0.2958984,0.1376953-0.4985352,0.2568359-0.6015625,0.5688477
							c-0.2671661,0.8106384,0.3146057,2.0509644,0.7514648,2.7817383c0.4149017,0.689209,1.2897797,1.0632477,1.996582,0.6660156
							c0.3837891-0.2158203,0.7226563-0.5839844,1.050293-0.9401855c0.8069763-0.8774567,2.4961853-2.3352966,2.8696289-3.0349121
							C161.8933411,142.6948547,157.7146301,142.754425,156.5730286,142.8066711z"/>
					</g>
					<g>
						<path class="st7" d="M164.0607605,142.6589203c0.9788513-0.0154419,6.21698-0.1651764,6.7299957,0.1753845
							c0.2983246,0.1983185,0.350296,0.65065,0.3292542,1.0083466c-0.0726776,1.2355804-0.7985535,2.3992004-1.6459351,3.2552185
							c-0.2802887,0.2831268-0.5650635,0.4370728-0.8970642,0.2139435c-0.2545319-0.1710663-1.3866272-1.2411499-1.609024-1.4527588
							C163.8104401,142.85466,164.1186066,143.0043793,164.0607605,142.6589203z"/>
						<path class="st11" d="M168.2214661,147.1682434c-0.8649902-0.6373596-3.8720398-3.7372742-3.9741211-3.840332
							c-0.3121643-0.312912-0.2630005-0.3683929-0.3100586-0.6484375l-0.0234375-0.1433105
							c0.9837341-0.0051575,6.3672028-0.1894684,6.9462891,0.1938477c0.3417969,0.2280426,0.4083862,0.7133331,0.3847656,1.119873
							c-0.0893555,1.5144043-1.0922852,2.7402344-1.6821289,3.3359375c-0.137207,0.138916-0.2910156,0.2751465-0.4868164,0.3300781
							C168.6235657,147.6431427,168.338974,147.2567291,168.2214661,147.1682434z M164.2024231,142.7812805
							c0.0053711,0.0407715,0.0117188,0.0812988,0.0244141,0.1203613c0.0760498,0.2288818,2.6466827,2.6951294,2.8271484,2.8669434
							c1.6485748,1.5680847,1.7319489,1.5681763,1.9545898,1.5065918c0.1464844-0.0412598,0.2709961-0.1584473,0.3764648-0.2651367
							c1.6531219-1.6702728,1.9171753-3.684967,1.3364258-4.0717773
							C170.2453766,142.6219635,164.7161865,142.7787781,164.2024231,142.7812805z"/>
					</g>
					<g>
						<path class="st7" d="M168.7033997,137.5482178c0.5717621,0.0519562,0.8358917,0.1344452,1.2688599,0.7103882
							c0.5944366,0.7909393,1.2129211,2.3537445,1.0333252,3.3419037c-0.0780334,0.4293671-0.4800873,0.7550354-0.7806244,0.7441864
							c-1.3107758-0.0473175-5.639267,0.1410065-6.1554871-0.1018066l-0.0084534-0.1628571
							c0.5388031-0.693924,1.2700348-1.3005981,1.9052582-1.912674
							C166.8747711,139.2919312,167.7662201,138.3926086,168.7033997,137.5482178z"/>
						<path class="st11" d="M164.0163879,142.3559875l-0.0673828-0.0317383l-0.015625-0.2839355
							c1.1506958-1.2556152,3.5347595-3.495636,4.7270508-4.621582c0.6174774,0.0593262,0.9247742,0.1177979,1.4121094,0.7646484
							c0.5673828,0.7556152,1.2504883,2.3713379,1.0561523,3.4396973c-0.0891876,0.4885712-0.5407867,0.8569183-0.9082031,0.8466797
							C168.9241333,142.4238281,164.5601349,142.6115723,164.0163879,142.3559875z M164.1897278,142.1523743
							c0.6967773,0.1786346,4.8982239,0.0280914,6.0395508,0.0673828c0.1025391,0.001709,0.1860352-0.0251465,0.2587891-0.0795898
							c0.2197266-0.1655273,0.3476563-0.3039551,0.3945313-0.5620117c0.1640625-0.9013672-0.4008789-2.4333496-1.0102539-3.2443848
							c-0.3953705-0.5255737-0.6258545-0.607254-1.1259766-0.6560059c-0.4725494,0.4273376-4.1548615,3.931839-4.5581055,4.4423828
							L164.1897278,142.1523743z"/>
					</g>
					<g>
						<path class="st7" d="M157.8343201,137.7093506c0.4869385-0.0362091,0.6224976-0.0068359,0.800415,0.1002045
							c0.9710236,0.5840454,2.1372833,2.434494,4.195343,4.2253571c0.0611725,0.1756592,0.0675812,0.177124,0.0055237,0.351181
							c-0.6714935,0.0930786-1.3786774,0.0474854-2.0561523,0.0435638c-0.895813-0.0014648-3.4065857,0.156723-4.1408691,0.0056763
							c-0.2758789-0.0566711-0.5237885-0.2246094-0.6652222-0.4696198
							c-0.2718048-0.4707642-0.1102753-1.1094971,0.0305786-1.5973206
							C156.3130341,139.2975006,156.8241577,138.2643127,157.8343201,137.7093506z"/>
						<path class="st11" d="M156.6130676,142.5576477c-0.3183594-0.0654297-0.5913086-0.2583008-0.7480469-0.529541
							c-0.2895508-0.5014648-0.1420898-1.1374512,0.019043-1.6943359c0.3969727-1.3747559,0.9970703-2.2434082,1.8901367-2.7341309
							l0.0512695-0.0151367c0.5723267-0.0379333,0.6990051,0.0124512,0.8735352,0.1179199
							c1.0722961,0.6448364,2.0077209,2.3178864,4.2128906,4.2382813l0.0249023,0.0217285
							c0.0566254,0.1782684,0.1045685,0.2180786,0.0166016,0.4655762l-0.0253906,0.0712891
							c-2.2145081,0.1390533-0.9368744,0.0057373-3.2817383,0.0839844
							C158.9965668,142.6051178,157.2029572,142.679245,156.6130676,142.5576477z M157.8703918,137.8320618
							c-0.8173828,0.4589844-1.3725586,1.2768555-1.7460938,2.5710449c-0.1469727,0.5073242-0.2832031,1.0834961-0.0424805,1.5
							c0.3184509,0.5524445,0.899353,0.5192566,3.5556641,0.4304199c1.8838196-0.063324,2.2996521,0.0371704,3.1049805-0.0612793
							c0.0170898-0.0578613,0.0102539-0.0803223-0.0195313-0.1647949c-2.2456207-1.9629059-3.1137848-3.5665894-4.152832-4.1906738
							C158.35466,137.7868347,158.1371155,137.814209,157.8703918,137.8320618z"/>
					</g>
					<g>
						<path class="st7" d="M168.568222,137.2756805c-0.8116302,0.9629669-1.8429108,1.8330078-2.7494965,2.7101746
							c-0.6240234,0.6030426-1.2156982,1.2397308-1.8375244,1.8456726
							c-0.1399841,0.0276794-0.2884064-0.0276642-0.4007111-0.1257019
							c-0.2824402-0.2460327-0.1416321-4.6583557-0.1285858-5.1555634c0.0273285-1.0428009-0.0229034-1.2545929,0.134964-1.4495239
							C164.2258911,134.311615,167.7441559,134.9999542,168.568222,137.2756805z"/>
						<path class="st11" d="M163.4983215,141.8000793c-0.1764526-0.1538086-0.1557922-0.5218506-0.1699219-0.7197266
							c-0.0871124-1.1209106-0.0310516-3.4112854-0.0014648-4.5332031c0.026413-1.1222076-0.0175171-1.3019714,0.1625977-1.5251465
							c0.6209717-0.7669983,4.2975464-0.269989,5.1962891,2.2111816l0.0244141,0.0678711l-0.0463867,0.0551758
							c-1.0123901,1.2014771-1.2120972,1.1392059-4.6220703,4.5908203
							C163.8636475,141.9761658,163.6894073,141.9665222,163.4983215,141.8000793z M163.6838684,135.1794739
							c-0.1274109,0.1576996-0.0825195,0.4748077-0.0888672,0.7131348c-0.145752,5.7613068-0.0601654,5.8272705,0.3286133,5.8205566
							c1.1362305-1.1110535,1.0447083-1.118866,2.6289063-2.5891113c0.6459961-0.5993652,1.3129883-1.2185059,1.8730469-1.873291
							C167.5901184,135.0855408,164.2029572,134.5396423,163.6838684,135.1794739z"/>
					</g>
				</g>
				<path class="st0" d="M169.1178741,137.1903381c-0.5463409-0.3818665-0.7912445-0.7769928-2.5264435-3.2279816
					c0.5859222,1.0149536,1.1754913,2.0262604,1.7651367,3.0413971c0.4068146,0.7053528,0.6717529,1.5860138-0.212738,2.0934906
					c-0.3544312,0.1999664-0.8724976,0.0557251-1.1949158-0.1502228c-0.2761841-0.1764221-0.5005646-0.4213562-0.7215118-0.6633911
					c-0.7350616-0.8051758-1.6751862-1.4974518-2.4102478-2.3026428c0.767868,0.8947296,1.9851227,2.5265198,2.126358,3.6960754
					c0.1040955,0.8620605-0.4508972,1.4669952-1.3373108,1.1611938c-0.7208099-0.2486725-1.0299683-0.6928864-3.2871246-3.2382813
					c0.8317413,1.1770477,1.6057281,2.4205627,1.6882782,3.8534851c0.0092926,0.1614532,0.0084534,0.3280792-0.0507965,0.4785461
					c-0.2527161,0.6419067-1.1261597,0.557724-1.578476,0.2141113c-0.3993225-0.3097687-0.6381226-0.7762451-0.8882141-1.2128448
					c-1.9181213-3.3473358-6.0940094-7.1126862-10.2028503-5.8327942
					c-3.4914703,1.0910187-11.4148712,7.9713593-30.2463455,15.1363068
					c-5.3462219,2.0413513-11.2211761,3.658905-15.957283,0.4216461c-3.5751114-2.4442749-4.9820175-7.2695923-4.2431259-11.5349426
					c0.7388916-4.2655334,3.2877579-8.0197754,6.2657471-11.1619415c2.6719513,0.604599,5.2581711,1.5337219,7.9301224,2.1383209
					c4.9334641-1.7651367,9.9714203-3.2764511,15.0429993-4.5902481c7.8834229-2.0403748,16.2342529-3.9213257,24.2866516-2.6345062
					c4.4623566,0.7167892,7.6800842,1.0089951,12.3859863,2.3584518c0.8658142,0.25,1.8547058,0.6568909,2.0673523,1.5300827
					c0.2430267,1.0220032-0.9158173,2.253334-2.5300903,1.9256821c1.9794312,1.6107483,3.8200684,3.2167664,5.6014709,6.265564
					C172.243515,137.2616119,170.4087677,138.0927887,169.1178741,137.1903381z"/>
				<path class="st15" d="M206.3166656,142.1947784c-4.149826,3.5787506-13.7443237,6.5157471-16.8603516,7.4038696
					c-0.6307373,0.1791229-0.99646,0.276062-0.99646,0.276062s0,0-0.0037384-0.0036469
					c-13.4680786-9.3929596-7.5681458-40.2216873-7.5681458-40.2216873
					C198.0805054,115.5197067,206.3166656,142.1947784,206.3166656,142.1947784z"/>
				<path class="st0" d="M188.4607697,149.8742828l4.5576782,8.2842712c0,0-10.6717072,11.5782928-13.3226166,15.8273926
					c-3.87323-0.8005676-7.9364166-2.0370178-8.8214111-1.8430328c-0.8541107,0.1872253-1.1868744,1.0869141,0.0747375,1.8488464
					c0.9578705,0.5784912,1.9655762,1.0744476,3.0083008,1.4805603c-1.6398163,0.013031-6.7356415,0.3457489-7.6551208,0.8986206
					c-0.6634064,0.3988953-0.5596619,1.1591187,0.1253052,1.4393463c0.4086914,0.1672058,0.3630676,0.1260986,5.3362122,0.1235962
					c-2.8197937,0.6547546-4.9615173,0.9112244-5.5688324,1.3412628c-0.7550201,0.5346069-0.6211395,1.6385193,1.0267639,1.6420898
					c1.3503265,0.0029297,2.7009125-0.1937408,3.994339-0.5816193c-1.0374451,0.3328247-2.0301819,0.8046417-2.9433594,1.3988953
					c-2.3409729,1.5233917-0.3305054,3.1198273,0.781662,2.7327728c1.2844086-0.4470062,2.5342712-1.1647949,3.7721405-1.7315521
					c-0.9112091,0.5167084-1.7150879,1.2217712-2.3461914,2.0578308c-0.8078308,1.0701599-0.3903656,1.7673187,0.6104736,1.7482605
					c1.468689-0.0279694,2.7918854-0.9519196,4.0090637-1.6911926c3.7263336-2.2632294,4.6317291-3.9600372,6.3851929-4.8008423
					c1.1410522-0.5471497,2.4428406-0.614624,3.7030182-0.7300262c4.0137787-0.3675385,8.4510498-1.1408691,12.0690002-2.9299774
					c6.7414246-3.3337097,16.2367401-10.7684021,15.2977448-18.376297
					c-0.2037201-1.6504211-0.8817291-3.1995544-1.5520325-4.7214203c-1.903656-4.3220825-4.6867828-11.096756-4.6867828-11.096756"
					/>
				<path class="st79" d="M189.4563141,149.5986481c-0.6307373,0.1791229-0.99646,0.276062-0.99646,0.276062
					c-2.1807556-2.9637299-4.568161-7.573349-5.321579-11.4640503
					C183.2763977,138.6905365,187.4261322,146.9676056,189.4563141,149.5986481z"/>
				<path class="st0" d="M152.9445648,95.6332016c-0.2230225-2.5983276-0.2313232-5.3526535,1.0224152-7.6393967
					c1.1189423-2.0408783,3.2487183-3.5150833,5.5630493-3.7622986c2.3143311-0.2472229,4.7428589,0.7734985,6.1218262,2.6485138
					c1.947937,2.648674,1.6230927,6.1377792,1.2959137,9.1824875c-0.2928619,2.7254639-0.6266937,3.7384567-3.0353851,5.1905136
					c-3.0676117,1.8492889-7.1941528,1.2950745-9.6313629-1.7181396
					C153.294342,98.3150177,153.0784607,97.1930161,152.9445648,95.6332016z"/>
				<path class="st0" d="M166.1824799,91.0068436c0.0923462-0.7135925,0.9122314-1.1886368,1.6160278-1.0389099
					c1.1251068,0.239357,1.9396057,1.648735,1.1110535,3.6024246c-0.4992981,1.17733-1.3053131,1.6858063-2.5284576,1.3132629
					c-0.5215759-0.1588516-0.9886932-0.4551926-1.4485321-0.7481232"/>
				<path class="st0" d="M153.2950439,91.1878738c-0.0923309-0.7136002-0.9122314-1.1886444-1.6160278-1.0389175
					c-0.7037811,0.1497269-1.2313995,0.795845-1.3906555,1.4975433c-0.2727509,1.2018127,0.4170685,2.8541641,1.2210236,3.3134003
					c1.0047913,0.573967,2.1207428-0.0606079,3.0355835-0.6433716"/>
				<path class="st81" d="M158.6436768,89.8404388c0.7265015,0.0737228,0.6952515,0.5505753,0.3542938,0.7207718
					c-0.1963043,0.0979767-0.1610565,0.0709915-3.5331573,0.2378922c-0.3609619,0.0178604-0.7439728,0.0308533-1.0590973-0.14608
					c-0.2282867-0.1281662-0.5645905-0.6019058-0.3173981-0.853157c0.1887665-0.1918716,1.0999146-0.0807419,1.3651123-0.0864334
					C156.5181122,89.690567,157.5841827,89.7329254,158.6436768,89.8404388z"/>
				<path class="st81" d="M166.1828461,89.8404388c0.7265015,0.0737228,0.6952515,0.5505753,0.3542938,0.7207718
					c-0.1963043,0.0979767-0.1610565,0.0709915-3.5331726,0.2378922c-0.3609467,0.0178604-0.7439575,0.0308533-1.059082-0.14608
					c-0.2282867-0.1281662-0.5645905-0.6019058-0.3173981-0.853157c0.1887665-0.1918716,1.0998993-0.0807419,1.3651123-0.0864334
					C164.0572815,89.690567,165.1233521,89.7329254,166.1828461,89.8404388z"/>
				<ellipse class="st81" cx="163.9428864" cy="92.2594833" rx="0.761195" ry="1.0005686"/>
				<ellipse class="st81" cx="157.1583862" cy="92.1431351" rx="0.761195" ry="1.0005686"/>
				<path class="st22" d="M162.2844238,95.1713486c-0.2662659,0.9947739-1.1822815,1.7812881-2.2058868,1.894043
					c-1.0235901,0.1127548-2.0888367-0.4555283-2.5652466-1.3684921
					C159.1705933,95.7448044,160.6869049,95.615036,162.2844238,95.1713486z"/>
				<path class="st7" d="M81.6208344,248.0233765c-0.1611328,2.1567383-1.0394363,9.4046326-2.5231094,10.8356628
					c-2.2746201,2.1870728-8.401474,5.4404297-14.0252991,6.0126038c-2.5485497,0.2613831-5.1136169,0.040863-7.5292053-0.7798767
					h-0.003334c-0.2332954-0.0766602-0.466671-0.1632385-0.6999626-0.2532349H56.836586
					c-2.0609093-0.7919922-4.0638237-2.0581665-5.5961266-3.7097473c-6.3951569-6.8293152-5.8487892-20.780365-2.7530632-28.8703461
					c0.8064461-2.1206818,1.7878189-3.9515533,2.9363976-5.8195801c2.2594109-3.6398926,6.0915031-4.8712769,10.3922806-4.7594604
					c1.1151543,0.0112305,1.7559509,0.0704041,2.4930763,0.0932617c3.1282806,0.1064911,10.1831055-1.923996,14.7652206,8.6791534
					l0.003334,0.003418C81.5642471,235.1642609,82.0577316,241.9703369,81.6208344,248.0233765z"/>
				<g>
					<path class="st8" d="M75.4947281,223.8924713c-3.8189621,6.3338776-23.8293686,27.0725403-27.6072884,30.6569519
						c-0.2296867-0.6249084-0.2969666-0.8393097-0.4699249-1.413269c6.5942192-6.59198,21.936306-22.374176,27.100666-30.1837006
						C74.8435135,223.3246918,74.9142609,223.3040619,75.4947281,223.8924713z"/>
				</g>
				<g>
					<path class="st8" d="M70.0685883,220.8994293c-6.5509453,8.2164001-14.5546684,16.3839874-23.8109512,23.8443146
						c-0.0066719-0.6000366,0-1.1766357,0.0166817-1.7265472c6.9802094-5.6167755,15.2576218-13.6839142,22.2477989-22.3210297
						C69.0220642,220.7293701,69.5353622,220.7926788,70.0685883,220.8994293z"/>
				</g>
				<g>
					<path class="st8" d="M61.0195198,220.6828156c-3.9692078,4.3209229-9.9143867,10.0996704-13.3720474,13.1386719
						c0.2491989-0.8841553,0.5090218-1.6983185,0.8399239-2.5630493c3.9967499-3.6652069,7.1885643-6.8654327,10.578949-10.4390717
						C59.3848343,220.7890472,59.9284592,220.7001953,61.0195198,220.6828156z"/>
				</g>
				<g>
					<path class="st8" d="M79.344368,230.0817871c-8.1445084,11.4351196-17.9364357,22.4692993-27.1472969,30.9769287
						c-0.3366356-0.2932739-0.6565895-0.6065674-0.9566116-0.9299316
						c4.5695648-4.2284088,10.1320343-9.9387512,14.8718987-15.4117279
						c5.6152573-6.3818207,9.4501877-11.7333221,12.6053619-16.0483704
						c0.1200256,0.2532349,0.2400436,0.5132904,0.3566513,0.7831268l0.003334,0.003418
						C79.1214752,229.5557098,79.2270889,229.7957458,79.344368,230.0817871z"/>
				</g>
				<g>
					<path class="st8" d="M81.380867,238.1010132c-6.7946091,11.2569733-15.5243835,18.2160645-24.5409431,25.7375183H56.836586
						c-0.4599152-0.1767273-0.9132385-0.3800049-1.3698196-0.6066895
						c9.6726227-7.884903,19.4003525-15.9881592,25.5808029-27.2406464
						C81.1775131,236.6911621,81.287529,237.3943787,81.380867,238.1010132z"/>
				</g>
				<g>
					<path class="st8" d="M81.5041428,249.3399811c-0.0092926,0.1439362-0.1251984,1.2450867-0.2799988,2.3064117
						c-5.6064377,6.1733398-9.5519104,9.4213562-13.4619675,12.7786865c-0.6318741,0.125885-1.335228,0.3087463-2.6897507,0.4465637
						C71.3530426,259.9299316,76.3763428,255.0719147,81.5041428,249.3399811z"/>
				</g>
				<g>
					<path class="st8" d="M76.2013626,260.9487c-0.3833389,0.2301025-0.7966309,0.4667358-1.2365265,0.7066345
						c-7.4538345-6.1072388-15.4646034-13.6991577-22.7544212-21.9511261
						c-1.2176056-1.3545227-4.1900024-4.8551025-4.8195076-5.6527557c0.0833244-0.0733948,0.1699066-0.1500549,0.2565651-0.2299652
						c0.103344-0.3666534,0.2133598-0.7466583,0.3433113-1.14328C56.6673431,243.3528748,66.0673294,252.622879,76.2013626,260.9487
						z"/>
				</g>
				<g>
					<path class="st8" d="M80.4109116,255.7359924c-0.1366272,0.5133057-0.2766647,0.9732056-0.41996,1.3764954
						c-11.4453278-9.2900848-21.9467773-20.0968933-29.6637306-29.8004456
						c0.2199478-0.3998566,0.4566612-0.8132324,0.7099724-1.2365265
						C60.3049927,237.6059265,70.3099442,247.5242615,80.4109116,255.7359924z"/>
				</g>
				<g>
					<path class="st8" d="M81.6208344,248.0233765c-0.0480042,0.6424713-0.0915375,1.0534668-0.1467133,1.6232147
						c-9.3356476-8.0159454-17.6773033-15.9649506-26.8440208-27.3872681
						c0.4000244-0.2367859,0.8066406-0.4366455,1.2165947-0.6099701
						C63.4496727,230.9479675,71.5104675,239.4389954,81.6208344,248.0233765z"/>
				</g>
				<g>
					<path class="st8" d="M81.6574478,240.9607544c-7.1134415-6.3043518-13.8686676-13.2184906-19.8413734-20.2813568
						c0.6378441,0.006424,1.2030106,0.0333405,1.8098793,0.0633087c5.4935837,6.4324799,12.381012,13.4361115,17.8648453,18.2815552
						C81.5607834,239.6708527,81.6174927,240.3174286,81.6574478,240.9607544z"/>
				</g>
				<g>
					<path class="st8" d="M79.0743713,229.4518127c-2.2136459-2.1295929-5.4483643-5.4332428-8.0892029-8.3258362
						c1.1498718,0.3399658,2.3397751,0.9133148,3.5096588,1.8598328c0.0100098-0.0099182,0.0166855-0.0232697,0.0233536-0.0333557
						C75.6071243,224.19841,77.2505112,225.2313385,79.0743713,229.4518127z"/>
				</g>
				<g>
					<path class="st8" d="M69.5186768,263.9584961c-0.5032883,0.1532898-1.0199127,0.2932434-1.5464783,0.4165955
						c-3.8027802-2.8520813-14.62883-13.9075623-21.6612625-22.2411041c0.0144806-0.234024,0.0389442-0.8953552,0.1400414-1.9231567
						C54.0214958,249.3998718,62.2562599,257.6986084,69.5186768,263.9584961z"/>
				</g>
				<g>
					<path class="st8" d="M60.1595802,264.7417603c-0.8698692-0.1401062-1.7431526-0.353302-2.6163597-0.6499939h-0.003334
						c-3.6197243-3.5371399-6.5134125-6.4620667-9.8957481-10.2289581
						c-0.3075867-0.9230804-0.5580978-1.8926086-0.7565994-2.8530731
						C51.2782021,256.0019531,55.753727,260.6132202,60.1595802,264.7417603z"/>
				</g>
				<g>
					<circle class="st26" cx="98.7967911" cy="252.2929688" r="25.7070293"/>
					<path class="st25" d="M98.0125427,253.9109955c0.2215805,0.1644135,0.4280243,0.3208313,0.5369263,0.5873871
						c0.5134048,1.2563782,0.2724762,13.2216797,0.137085,15.2492065c-0.0534058,0.8022461-0.1854324,1.5553284-0.4511642,2.315094
						c-0.3603516,0.3637085-0.6878967,0.5760498-1.1689072,0.740448c-2.754509,0.9414368-6.1964722-0.3023071-8.6818695-1.4695435
						c-1.3158798-0.7800293-2.8508377-2.111969-2.8768616-3.6349487
						C85.4762192,265.8405762,96.0691223,255.861557,98.0125427,253.9109955z"/>
					<path class="st25" d="M99.7507629,253.883667l0.7274094,0.0937805
						c0.6975555,0.5154724,12.4980545,12.3155518,12.9349289,12.9576111
						c0.1841736,0.2712097,0.1677704,0.7080688,0.062233,1.0204773c-1.1682968,3.4738464-11.0664825,6.2049255-13.0870209,4.8395996
						c-0.9289932-0.6277771-0.8482895-1.8297424-0.9036407-2.8298645c-0.170845-3.0869751-0.1464767-6.1911926-0.0989304-9.28125
						C99.3996353,259.7809448,99.4768219,254.7540588,99.7507629,253.883667z"/>
					<path class="st25" d="M95.5027466,230.5252991c1.1226196,0.0396118,2.592926,0.0288544,3.1602631,1.1360931
						c0.3351135,0.6538239,0.2787704,17.6038361-0.1316147,18.8522034l-0.272049,0.0601349
						c-1.6124954-1.1323242-2.9992142-2.7915039-4.3833923-4.1933594c-1.9959793-2.0056305-7.6908188-6.8776398-8.1592255-9.437439
						c-0.1505356-0.8216095,0.0088272-1.5692139,0.5121231-2.2373352
						C87.6773758,232.7832184,93.0808411,230.8528442,95.5027466,230.5252991z"/>
					<path class="st25" d="M79.3440781,252.8186035c2.5358582-0.119812,17.1387939-0.4099426,18.0840073,0.2699585
						c-0.587822,1.7638855-5.5333939,6.177124-7.0828247,7.7395935c-2.2151871,2.0749817-3.9621353,5.0685425-6.9272995,4.7505798
						c-1.6092529-0.1725464-3.0280914-1.1578674-3.8620834-2.5449219c-1.3312531-2.2140808-3.0127258-5.8745728-2.2023087-8.3281097
						C77.6975174,253.6633453,78.3942337,253.2571716,79.3440781,252.8186035z"/>
					<path class="st25" d="M101.0462341,252.749649c2.8255615-0.0445557,17.9460907-0.4767914,19.4269867,0.5062714
						c0.861145,0.5724945,1.0111847,1.8782043,0.9504471,2.9107361c-0.2097931,3.5666809-2.3051376,6.9255676-4.751236,9.3966064
						c-0.3591461,0.362793-0.754715,0.721405-1.2462921,0.8591309c-1.9644318,0.550293-14.1564484-12.597168-14.2432632-12.8595428
						C101.0966873,253.3017273,101.0916443,253.0208588,101.0462341,252.749649z"/>
					<path class="st25" d="M114.7358932,238.2850494c1.6504669,0.1499634,2.4129028,0.3881226,3.6627197,2.0506439
						c1.71595,2.2831573,3.5012512,6.7943726,2.9828262,9.6468506c-0.1629028,0.8964233-0.6419754,1.3683319-1.2769089,1.8463745
						c-0.2799377,0.2107544-0.6262741,0.3144226-0.9764557,0.3017731
						c-3.7837296-0.1365814-16.2784424,0.4070587-17.7685928-0.293869l-0.0243912-0.4700928
						c1.5553207-2.0031128,3.6660843-3.754364,5.4997559-5.5211945
						C109.4573212,243.318512,112.0305939,240.7225189,114.7358932,238.2850494z"/>
					<path class="st25" d="M83.0728073,238.4620819c0.876152-0.065155,1.587677-0.1456604,2.3104858,0.2892761
						c3.0954895,1.8618317,5.5925064,6.5253296,12.1103821,12.1970062c0.17659,0.5070801,0.1950989,0.5112915,0.015976,1.0137482
						c-1.9383621,0.2686768-3.979744,0.1370697-5.9353561,0.1257324c-2.5858917-0.0042114-9.8335342,0.4524231-11.9531326,0.0164032
						c-0.7963638-0.1635895-1.512001-0.6483612-1.9202805-1.3556061c-0.7845993-1.3589478-0.318306-3.202713,0.088295-4.6108704
						C78.6814194,243.0464783,80.1568527,240.0640717,83.0728073,238.4620819z"/>
					<path class="st25" d="M108.6357193,231.7467499c2.6712418,1.2437592,4.6869812,2.9264832,5.7099915,5.7516174
						c-2.3428726,2.7797089-5.3197937,5.2911987-7.9367981,7.8232574c-1.8013,1.7407532-3.5092545,3.5786438-5.304245,5.327774
						c-0.404068,0.079895-0.8325195-0.0798798-1.1567154-0.362854c-0.8750229-0.7622375-0.3559952-15.4552155-0.3194351-16.7906799
						c0.0197067-0.7198944-0.130722-1.6971588,0.3378448-2.2757874c0.2844391-0.3512421,0.7114487-0.5640411,1.1506348-0.6707916
						C103.169693,230.0503387,106.5622177,230.781311,108.6357193,231.7467499z"/>
				</g>
			</g>
			<path class="st2" d="M114.0361404,130.0998383c-5.1386261,3.1732788-6.0438843,8.6639099-6.9026794,13.0869141
				C106.643158,136.0623169,110.3731842,131.2954102,114.0361404,130.0998383z"/>
		</g>
	</g>
</g>
</svg>
