<?xml version="1.0" encoding="utf-8"?>
<!-- Generator: Adobe Illustrator 22.0.1, SVG Export Plug-In . SVG Version: 6.00 Build 0)  -->
<svg version="1.1" id="Layer_1" xmlns="http://www.w3.org/2000/svg" xmlns:xlink="http://www.w3.org/1999/xlink" x="0px" y="0px"
	 viewBox="0 0 300 300" style="enable-background:new 0 0 300 300;" xml:space="preserve">
<style type="text/css">
	.st0{fill:#EDC1A4;}
	.st1{fill:#E2E0E0;}
	.st2{fill:#D39E81;}
	.st3{fill:#502E26;}
	.st4{fill:#CCCACA;}
	.st5{fill:#426800;}
	.st6{fill:#538705;}
	.st7{fill:#D47E44;}
	.st8{fill:#73341D;}
	.st9{fill:#BC672E;}
	.st10{fill:#96311D;}
	.st11{fill:#B83E21;}
	.st12{fill:#DE8D82;}
	.st13{fill:#EFBAB4;}
	.st14{fill:#FDD5D0;}
	.st15{fill:#6883CE;}
	.st16{fill:#3D4885;}
	.st17{fill:#3859AE;}
	.st18{fill:#864424;}
	.st19{fill:#FEFEFE;}
	.st20{fill:#FFFFFF;}
	.st21{fill:#A55925;}
	.st22{fill:#F4F2F2;}
	.st23{fill:#3C3E68;}
	.st24{fill:#E8997C;}
	.st25{fill:#F5C46B;}
	.st26{fill:#F7EBDA;}
	.st27{fill:#0E0C0D;}
	.st28{fill:#657C3A;}
	.st29{fill:#576C37;}
	.st30{fill:#7C995D;}
	.st31{fill:#36518C;}
	.st32{fill:#96B7E3;}
	.st33{fill:#A3B3DF;}
	.st34{fill:url(#SVGID_1_);}
	.st35{fill:url(#SVGID_2_);}
	.st36{fill:url(#SVGID_3_);}
	.st37{fill:url(#SVGID_4_);}
	.st38{fill:url(#SVGID_5_);}
	.st39{fill:#266AB7;}
	.st40{fill:#060E0D;}
	.st41{fill:#E0D4C6;}
	.st42{fill:#787E42;}
	.st43{fill:#D3D1D1;}
	.st44{fill:url(#SVGID_6_);}
	.st45{fill:url(#SVGID_7_);}
	.st46{fill:url(#SVGID_8_);}
	.st47{fill:#020508;}
	.st48{fill:#BAB6B6;}
	.st49{fill:#0F0B07;}
	.st50{fill:#2F3A68;}
	.st51{fill:#203257;}
	.st52{opacity:0.5;fill:#FFFFFF;}
	.st53{opacity:0.2;fill:#0E0C0D;}
	.st54{fill:#DD9F9B;}
	.st55{fill:#3E4D9B;}
	.st56{fill:url(#SVGID_9_);}
	.st57{fill:#5F6194;}
	.st58{fill:url(#SVGID_10_);}
	.st59{fill:url(#SVGID_11_);}
	.st60{fill:url(#SVGID_12_);}
	.st61{fill:url(#SVGID_13_);}
	.st62{fill:#070102;}
	.st63{fill:#100805;}
	.st64{fill:#FDA465;}
	.st65{fill:#2A50A1;}
	.st66{fill:#B76C39;}
	.st67{fill:#130602;}
	.st68{fill:url(#SVGID_14_);}
	.st69{fill:url(#SVGID_15_);}
	.st70{fill:url(#SVGID_16_);}
	.st71{fill:url(#SVGID_17_);}
	.st72{fill:url(#SVGID_18_);}
	.st73{fill:url(#SVGID_19_);}
	.st74{fill:#B4BDED;}
	.st75{fill:#100D08;}
	.st76{fill:#F6C85F;}
	.st77{fill:#FECF00;}
	.st78{fill:#2D59E2;}
	.st79{fill:#121F3A;}
	.st80{fill:#BBD0F5;}
	.st81{fill:#020202;}
	.st82{fill:#E2CFB7;}
	.st83{fill:#080805;}
	.st84{fill:#A87D7C;}
	.st85{fill:#182052;}
	.st86{fill:#EAEAEA;}
	.st87{fill:#DDDDDD;}
	.st88{fill:#3D4574;}
	.st89{fill:#ABC5F0;}
	.st90{fill:url(#SVGID_20_);}
	.st91{fill:#4159A8;}
	.st92{fill:#E0D0BD;}
	.st93{fill:#3D53AA;}
	.st94{fill:#0A0000;}
	.st95{fill:#BF6D36;}
	.st96{fill:#385DAE;}
	.st97{fill:#E0DCDC;}
	.st98{fill:#857E78;}
	.st99{fill:#0E213C;}
	.st100{fill:url(#SVGID_21_);}
	.st101{fill:#55608E;}
	.st102{opacity:0.3;fill:#F4F2F2;}
	.st103{opacity:0.3;}
	.st104{fill:#213987;}
	.st105{enable-background:new    ;}
</style>
<g id="Kneading_1_">
	<g id="Kneading">
		<g>
			<path class="st7" d="M164.0671082,102.3808212c-0.4462585,0.7610931-15.7710724,4.9634705-15.7710724,4.9634705
				l-12.9475861-4.5569534c0,0-3.480072-5.1737747-3.9526215-5.3443375
				c-0.4728851-0.184021,4.6616211-4.6486359,4.6616211-4.6486359c3.4231262-1.1036377,6.9259338-6.3527222,5.8568115-12.8161469
				c-0.0657349-0.4334488,15.4033508,1.1156769,15.4033508,1.1156769c0.0227966,0.0999985-0.532074,8.3566818,4.38591,12.0948029
				C166.8906097,97.1409988,164.5005646,101.6190872,164.0671082,102.3808212z"/>
			<path class="st9" d="M158.0267639,87.2922974c-5.3052216,2.993721-11.8973083,3.5983658-17.6752472,1.6805573
				c1.3787231-2.3371429,2.1404572-5.5020676,1.5627441-8.9946365c-0.0657349-0.4334488,15.4033508,1.1156769,15.4033508,1.1156769
				S157.1337433,84.0882568,158.0267639,87.2922974z"/>
			<path class="st26" d="M116.1878433,92.4484634c0,0,6.9901199-0.7367477,15.882103,0.2735367
				c0,0,3.9224091,9.2082748,16.7903442,9.352684s15.3606873-8.8568192,15.3606873-8.8568192
				s11.8332825-0.3298798,14.4826355,0.0093384c0,0,9.1146545,34.2417145,5.9911499,55.821991
				c-3.1235199,21.5802765-76.8764267,4.5322113-76.8764267,4.5322113l-1.0006866-36.4235611L116.1878433,92.4484634z"/>
			<path class="st15" d="M193.8572235,232.3155365c0,0-97.0192261,15.0682983-97.4142532,5.0711365
				c-0.3832092-9.6479645,6.2358398-45.4685364,11.3687134-58.3399658
				c4.7803955-11.5143433,7.7526016-46.9920502,7.7526016-46.9920502s1.9122086,0.5195923,3.80336,0.9346619
				c0.8938141,0.2080383,1.7668304,0.3744812,2.4526062,0.4576874c0,0,6.1727448-32.1114883,10.2465668-40.7365875
				c0,0,2.3067169-0.0619049,3.9903412,0.0832138c0,0-6.6715546,22.9657745-7.1287384,41.9006119
				c0,0,18.9962463,5.4659119,39.88414-0.062912c0,0-0.0416107-27.2270813-7.1081848-41.4429245
				c0,0,2.7433624-0.6231155,3.9697876,0.103508c0,0,9.6851044,23.0286942,10.1633453,40.3418274
				c0.6806335-0.1806946,8.286377-1.8792267,8.6669769-3.3459167l-2.6396027,40.2169952
				c1.7815857,5.2404785,5.7138672,26.5732574,6.71315,32.0688629
				C191.3630066,217.7252045,193.8572235,232.3155365,193.8572235,232.3155365z"/>
			<path class="st3" d="M127.1199875,215.7097473c-0.0208054,0.9346619-0.311554,2.0367737-1.1845703,2.3686218
				c-2.1871872,0.8339386-7.2087097-4.7912903-23.0908508-21.8017578c0.7065811-3.117569,1.4547653-6.0484314,2.1824036-8.6880188
				c7.7107391,5.0711517,14.2990646,11.8472137,19.1210632,19.7030792
				C125.748436,209.8693542,127.1823959,212.6956787,127.1199875,215.7097473z"/>
			<path class="st8" d="M22.9100285,256.3623962c0,0,10.4883213,11.5217896,127.7679672,12.472168
				s126.4120941-12.472168,126.4120941-12.472168H22.9100285z"/>
			<path class="st11" d="M48.4686317,222.8142395l-26.2613049,32.0643311
				c-0.4856625,0.5929718-0.0637817,1.4838257,0.7027016,1.4838257h254.1800537c0.7373657,0,1.16745-0.8321838,0.7409668-1.4336853
				l-22.8495331-32.2248077L48.4686317,222.8142395z"/>
			<ellipse class="st8" cx="230.8046417" cy="238.4196777" rx="28.059782" ry="9.2191849"/>
			<g>
				<path class="st14" d="M206.3190765,240.226532H85.7278976l17.0905609-19.0969696
					c1.6247253-1.8154755,3.9457397-2.8530731,6.3820648-2.8530731h73.6459274c2.4363098,0,4.7573242,1.0375977,6.3820648,2.8530731
					L206.3190765,240.226532z"/>
				<path class="st19" d="M179.0688629,228.5920868c0,4.7129974-14.5830383,8.5336609-32.5721283,8.5336609
					s-32.5721436-3.8206635-32.5721436-8.5336609c0-4.7130127,12.9878845-14.1508331,30.9769745-14.1508331
					S179.0688629,223.8790741,179.0688629,228.5920868z"/>
				<path class="st13" d="M85.7278976,240.226532L85.7278976,240.226532c0,3.3823853,2.7419662,6.1243591,6.1243515,6.1243591
					h108.3424683c3.3823853,0,6.1243591-2.7419739,6.1243591-6.1243591l0,0H85.7278976z"/>
			</g>
			<circle class="st19" cx="147.9493103" cy="147.2950897" r="2.925025"/>
			<circle class="st19" cx="165.6626892" cy="146.026886" r="2.925025"/>
			<circle class="st19" cx="130.1209106" cy="145.8106232" r="2.925025"/>
			<path class="st3" d="M121.8705215,196.130661c-6.4869385-3.3220215-11.4638672-9.0998077-14.5893631-15.7181854
				c0.184021-0.4860229,0.3677292-0.945755,0.5386047-1.3657379c4.7797623-11.516449,7.734375-46.9980927,7.734375-46.9980927
				s3.7758484-17.1297913,5.6800308-16.7098083c-4.7418594,46.9511871-3.0931396,56.9055023,5.0878296,74.4889069
				C129.3071594,196.2316132,125.9391479,198.2276764,121.8705215,196.130661z"/>
			<path class="st3" d="M184.7315369,182.5527802c-2.6526184,4.9769287-6.0930939,9.4806519-10.4002991,13.1316071
				c-4.042511,3.4560242-7.9763031,2.0971527-6.0536499-3.2437897c6.7759552-18.8831024,12.5991516-31.2164001,8.7585144-79.7912979
				c2.3637543-0.5911789,7.1832733,18.7690659,7.4721375,17.6392746l-2.6394653,40.2226105
				C182.5647888,172.5860901,183.575943,176.9981232,184.7315369,182.5527802z"/>
			<path class="st26" d="M116.1878433,92.4484634c0,0-15.0807877-0.626503-24.4219208,31.3722458
				s-12.6368179,55.1773529-1.4767685,56.6663971c11.1600418,1.4890594,17.7320633-4.0909729,21.7000809-9.5469971
				c3.9680099-5.4560089,3.0512924-14.4134369,3.666153-21.9657288c0.6148605-7.5522766,1.0978394-20.7036285,6.0938721-31.7330704
				C121.7492599,117.2413101,116.8781128,92.4098434,116.1878433,92.4484634z"/>
			<path class="st7" d="M122.0698929,212.4476013c-1.5264435,4.9313507-1.9460526,10.2019196-1.219101,15.3126678
				c0.173996,1.2232971,0.449295,2.5112457,1.3047485,3.4028168c0.8554535,0.8915863,2.4736633,1.1515808,3.2864532,0.2209473
				c0.5506058-0.6304474,0.5635986-1.5521851,0.5473709-2.3890686c-0.0487976-2.5168915,0.0666122-4.9456635,0.017807-7.4625702
				c-0.4112167,5.4328918,2.7000122,10.3091278,4.6044617,11.3226624c1.6142731,0.8591003,3.0292969-0.2151184,3.0526886-1.992218
				c0.0113373-0.8622131-0.2819061-1.6945496-0.514389-2.5249023c-0.7318115-2.6137848-0.8459625-5.701889-0.3964233-8.3786926
				c0.3210907,3.2191162,1.1796722,6.3839722,2.5294647,9.3240204c0.4842834,1.0548553,1.2882996,2.2363586,2.4466553,2.162323
				c0.7761536-0.0496063,1.410202-0.7012177,1.6743011-1.4327545c0.2640839-0.7315216,0.2309418-1.5328064,0.1791534-2.3088226
				c-0.221344-3.3159485-0.307724-6.6113892-1.0816803-9.843338c1.0832214,1.9958496,2.1664276,3.9916992,3.2496338,5.9875488
				c0.3108521,0.5727539,0.7117767,1.2109833,1.3571625,1.3011932c0.5500336,0.0768738,1.0837555-0.3064423,1.3487396-0.7945404
				c0.2649841-0.4880829,0.3156738-1.0609131,0.341629-1.6156921c0.3796844-8.1124573-3.7075043-16.2943726-10.4219208-20.8630676
				c0,0-15.9397202-31.6422119-17.3976822-32.9176788s-6.1205673-5.4525757-15.1351013-3.1182098
				s-11.3099213,8.2859039-11.0233536,9.9093475C91.1070862,177.3730164,122.0698929,212.4476013,122.0698929,212.4476013z"/>
			<path class="st26" d="M179.34758,171.9790344c0,0-1.7889099-0.3426361-0.5077667-10.2986603
				c1.2811432-9.9560394,1.2811432-33.8976669-1.9518433-43.3345184c-3.2330017-9.4368439-2.5725555-24.984993,1.8156433-25.1186523
				c4.3881989-0.1336517,17.6097107,2.4116287,23.2756042,19.575798
				c5.6658783,17.1641617,8.1159973,44.3196182,6.1614532,65.1332169c0,0-0.6916809,8.5670776-12.7826996,3.2289124
				C183.2669678,175.8269806,179.34758,171.9790344,179.34758,171.9790344z"/>
			<path class="st7" d="M168.2966919,214.3476868c0.8304443,5.0949707,0.517807,10.3729553-0.9082947,15.334259
				c-0.3413544,1.1875153-0.7919617,2.4250641-1.7624054,3.1898956c-0.9704285,0.7648315-2.6090393,0.7987671-3.2854462-0.2352448
				c-0.4582214-0.7004852-0.34375-1.6151733-0.2120361-2.4417877c0.3960876-2.4860229,0.6173553-4.9074402,1.013443-7.3934631
				c-0.3433685,5.4375916-4.0984955,9.837204-6.1247253,10.5778809c-1.7174835,0.6278229-2.97052-0.6316071-2.7481384-2.3948822
				c0.1078949-0.8555298,0.5133209-1.6393585,0.8583221-2.4296265c1.0859222-2.4875946,1.6256409-5.5303192,1.5502625-8.2435608
				c-0.7627869,3.1438751-2.050415,6.1597595-3.7934723,8.8851013c-1.7979279,2.8111725-3.7957001,1.9860382-4.1822357,0.1531982
				c-0.1604767-0.7610016-0.0169525-1.5500183,0.141571-2.3114319c0.6773682-3.2535553,1.2182465-6.5054626,2.4313354-9.599472
				c-1.348587,1.8270416-2.6971741,3.6540833-4.0457611,5.4811249c-0.3870087,0.5243073-0.8722534,1.1010284-1.5239258,1.1011963
				c-0.5553741,0.0001373-1.0310211-0.4532471-1.2260132-0.9732666c-0.1950073-0.5200195-0.1660614-1.0943604-0.1151276-1.6473999
				c0.7448425-8.0871277,5.9232941-15.6258392,13.2045593-19.2230072c0,0,20.1587677-29.1363678,21.7789764-30.1981659
				s6.8152313-4.5546112,15.4207764-0.9971161c8.605545,3.5574799,10.0565948,9.7690887,9.5484772,11.3373718
				C203.8087006,183.887558,168.2966919,214.3476868,168.2966919,214.3476868z"/>
			<path class="st15" d="M267.43927,216.8092194c-0.0918579,0.4334412-0.1838684,0.8668823-0.3021545,1.2868652
				l-0.0131531,0.0134735c0,0.0262909,0,0.0525665-0.01297,0.0653992c-0.105011,0.4071503-0.2232971,0.8143158-0.3677368,1.2214661
				c-0.0918579,0.302002-0.210144,0.6040039-0.3282776,0.9060059c-0.0655823,0.184021-0.1444397,0.3674011-0.2232971,0.5642548
				c-0.3283081,0.8014832-0.7091675,1.5895081-1.1291504,2.3640747
				c-6.0143738,11.0701752-15.503891,19.6435394-30.2158356,20.0256958
				c-15.0045166,0.3897705-23.9651947-11.1753235-29.6907196-20.0128784
				c-0.8665771-1.339447-1.5757294-2.6391449-2.0747375-3.8208618c-0.0918427-0.1974792-0.1707153-0.3943329-0.2364349-0.5911713
				c-0.0787048-0.1705627-0.1312866-0.3411255-0.1837006-0.5123138c-0.0131531-0.0128326-0.0131531-0.0391235-0.0262909-0.0519409
				c-0.0131531-0.0134735-0.0131531-0.0269318-0.0131531-0.0397491c-0.1708679-0.4988556-0.2888489-0.9720459-0.3677216-1.4183197
				c0-5.2789307,14.5892029-9.5595398,32.5927582-9.5595398c8.2897339,0,22.6356964,1.127121,29.598526,5.554657
				C266.3625488,214.0251617,267.43927,215.3780823,267.43927,216.8092194z"/>
			<path class="st16" d="M267.43927,216.8092194c-0.0918579,0.4334412-0.1838684,0.8668823-0.3021545,1.2868652
				c-0.0131531,0.0262909-0.0131531,0.0525818-0.026123,0.0788727c-0.105011,0.4071503-0.2232971,0.8143158-0.3677368,1.2214661
				c-0.0918579,0.302002-0.210144,0.6040039-0.3282776,0.9060059c-0.0655823,0.184021-0.1444397,0.3674011-0.2232971,0.5642548
				c-0.3283081,0.8014832-0.7091675,1.5895081-1.1291504,2.3640747
				c-19.5435181,8.6759338-41.2608948,8.2609253-59.9065552,0.0128174c-0.8665771-1.339447-1.5757294-2.6391449-2.0747375-3.8208618
				c-0.0918427-0.1974792-0.1707153-0.3943329-0.2364349-0.5911713c-0.0787048-0.1705627-0.1312866-0.3411255-0.1837006-0.5123138
				c-0.0131531-0.0128326-0.0131531-0.0391235-0.0262909-0.0519409c-0.0131531-0.0134735-0.0131531-0.0269318-0.0131531-0.0397491
				c-0.1708679-0.4988556-0.2888489-0.9720459-0.3677216-1.4183197c0-5.2789307,14.5892029-9.5595398,32.5927582-9.5595398
				c1.5888672,0,3.1514587,0.0391235,4.6747589,0.0916901c8.4436951,1.1163177,16.7952271,2.9417877,24.9237671,5.4629669
				C266.3625488,214.0251617,267.43927,215.3780823,267.43927,216.8092194z"/>
			<path class="st15" d="M267.1371155,218.0960846l-0.0131531,0.0134735
				c-0.2494202,0.5379486-0.6434326,1.063736-1.1817017,1.5625763c-4.1365051,3.8997345-16.4933929,6.710083-31.0955658,6.710083
				c-14.6025085,0-26.9723816-2.8231812-31.1088715-6.710083c-0.4727173-0.4468994-0.827301-0.8931732-1.0767212-1.3529053
				c-0.0131531-0.0128326-0.0131531-0.0391235-0.0262909-0.0519409c-0.0131531-0.0134735-0.0131531-0.0269318-0.0131531-0.0397491
				c-0.2495728-0.4597473-0.3677216-0.9322968-0.3677216-1.4183197c0-5.2789307,14.5892029-9.5595398,32.5927582-9.5595398
				c8.2897339,0,22.6356964,1.127121,29.598526,5.554657C266.4562988,214.0848389,268.1546631,215.9286346,267.1371155,218.0960846z
				"/>
			<path class="st23" d="M265.9422607,219.6721344c-0.8141479,0.7745667-1.956604,1.4971924-3.3880615,2.1665955
				c-5.7383423,2.7442932-16.0073547,4.5434875-27.7075043,4.5434875c-12.8690491,0-24.0177765-2.1928864-29.2967072-5.3840942
				c-0.7091522-0.4199829-1.3263092-0.8662567-1.8121643-1.3259888c8.0366974-7.5449677,41.8918152-9.0622101,57.4376526-2.7840576
				c1.2607422,0.4988556,2.3635864,1.0509186,3.2697449,1.6286316
				C265.0231018,218.8841095,265.5219421,219.2649841,265.9422607,219.6721344z"/>
			<path class="st19" d="M262.5541992,221.8387299c-5.7383423,2.7442932-16.0073547,4.5434875-27.7075043,4.5434875
				c-12.8690491,0-24.0177765-2.1928864-29.2967072-5.3840942c0.2099915-0.393692,0.4727173-0.7745667,0.7615814-1.1163177
				c2.153595-2.5339813,6.1850891-3.2040405,9.047699-1.5363007c-0.1911621-4.4384308,2.9258423-8.8720398,7.2355194-10.1506958
				c4.2940674-1.273407,9.3365631,0.7091522,11.6084595,4.5697632c0.9585876-3.9785919,5.4363556-6.749176,9.4152679-5.8168945
				c3.9448547,0.9137878,6.8211975,5.2935028,5.9092255,9.3626862c1.6698914-3.8755341,8.5195313-4.9300537,11.6477356,0.577713
				C262.0290527,218.3717957,262.4754944,220.1055908,262.5541992,221.8387299z"/>
			<g>
				<path class="st3" d="M138.0932312,43.912056c9.5481262-5.3918381,24.2518158-5.325592,29.5890045,5.9163933
					c1.4832764,3.1247711,2.7246399,7.633297,1.6759338,11.062664c-0.5346375,1.7483063-0.3981628,3.5310669-1.3002472,5.2410126
					c-0.8845062,1.676651-2.261673,3.0979919-3.8769379,4.0834274c-6.1559601,3.7556381-17.8942413,2.5662994-24.8728333,0.7545166
					c-2.1109924-0.5480576-4.231781-1.2490692-5.9745636-2.5603409c-2.8357697-2.1336441-3.0791931-5.0531273-3.4075775-8.3342476
					c-0.3278656-3.276062,0.059845-6.5182343,1.5176849-9.4940605
					C132.9667816,47.4723969,135.1016235,45.6014175,138.0932312,43.912056z"/>
				<path class="st7" d="M136.7174377,79.9592514c-1.5340118-2.5961227-2.1026459-6.4775467-2.5002747-6.4831772
					c-0.5592041,0.0041199-1.1211853,0.0075607-1.6734161-0.0889359c-3.2174835-0.5505981-5.1026154-4.2773209-4.4393005-7.2155609
					c0.304306-1.3579941,1.0811005-2.1596909,2.1957855-2.8965302c0.7419281-0.4904404,1.8712158-0.2354202,2.6860504-0.4166489
					c0.7559204-0.168129,1.4464569-0.6834831,2.1218872-1.0685272c11.2741241-6.4271049,10.7536316-14.3844414,13.6062775-14.446537
					c0.9349976-0.0203514,0.6116943-0.0560837,13.651886,10.4214134c1.199295,0.9636116,2.8201447,1.8163261,3.3455963,3.2889366
					c0.076416,0.2144012,0.6213989,1.8054504,0.4871674,1.9364586c0.9618683-0.7215385,1.7412262-1.3413811,2.9772339-1.4963989
					c1.1327209,0.4015198,1.9833984,1.0850067,2.4998779,2.192894c1.2354431,2.6574707,0.2163086,7.2377853-2.9696808,8.547699
					c-0.6753845,0.2769623-1.4215851,0.340744-2.1466675,0.3658524c-0.4196014,1.7962265-0.9835052,3.5634232-1.7532196,5.2415771
					C159.1080933,90.2658386,143.1800385,90.8963699,136.7174377,79.9592514z"/>
				<path class="st9" d="M150.5969391,65.9992065c0.4468689,2.542511,0.216568,7.1418076,0.314621,7.2498322
					c0.2809601,0.3094864,0.6053009,0.5506363,0.8036194,0.9348221c0.3323517,0.643837,0.1477509,1.2312851-0.6483002,1.5833359
					c-0.3068695,0.135704-0.6562347,0.2207336-0.9773865,0.123558c-0.5055084-0.152977-0.7883911-0.7243576-0.780777-1.252449
					c0.0080872-0.5624161,0.3363953-1.0173035,0.4122925-1.5515671c0.3360901-2.3658218-0.8568726-7.3288574-0.2195129-8.1590881
					C150.0099487,64.2653427,150.4633789,65.2393494,150.5969391,65.9992065z"/>
				<path class="st3" d="M162.1044769,62.8267365c0.2153625,2.1260223-5.2293549,0.8089752-7.1638184,0.6012459
					c-0.8945923-0.1481857-1.8004456-0.5117149-1.9138336-1.4075661c-0.2160645-1.7069588,1.4657288-1.488739,6.4367371-0.7379761
					C160.5501404,61.4465446,161.9911957,61.7120361,162.1044769,62.8267365z"/>
				<path class="st3" d="M147.6066742,63.190773c-0.2255859,0.1863708-6.0530548,1.8302383-6.6705627,1.8476181
					c-1.7073364,0.0480499-1.7627106-1.5498428-0.5648499-2.3454514c0.565155-0.3753624,1.278244-0.5931854,1.915802-0.8127327
					c0.7009888-0.2413902,3.792923-1.121933,4.1808167-1.1810532
					C148.0987701,60.4505844,148.4868927,62.4635811,147.6066742,63.190773z"/>
				
					<ellipse transform="matrix(0.9934912 -0.1139084 0.1139084 0.9934912 -6.6901293 18.3605556)" class="st3" cx="157.3173218" cy="67.7216492" rx="1.3814385" ry="2.0708325"/>
				
					<ellipse transform="matrix(0.9934912 -0.1139084 0.1139084 0.9934912 -6.8413391 16.9102879)" class="st3" cx="144.5512848" cy="68.319664" rx="1.3814385" ry="2.0708325"/>
				<path class="st20" d="M153.9004059,77.1371155c-2.5445557,0.7262573-5.2369995,0.9300766-7.8618927,0.5951614
					c0.6710815,1.018425,1.5437012,1.8454285,2.7308502,2.1250839
					C151.4886169,80.4979172,153.9604492,78.6136856,153.9004059,77.1371155z"/>
			</g>
			<path class="st9" d="M167.533905,68.8582382c-0.0392609-1.0342865-0.0785065-2.0685806-0.1177673-3.1028748
				c-0.0166626-0.439415,0.8133392-0.6550674,1.1977692-0.4415741c0.3844147,0.213501,0.5906219,0.653511,0.67099,1.0858383
				C169.5314178,67.7257538,168.8090973,68.418602,167.533905,68.8582382z"/>
			<path class="st9" d="M133.1552734,70.2132111c0.0673065-1.0328445,0.1346283-2.0656891,0.2019501-3.0985336
				c0.028595-0.4388046-0.7952576-0.6769104-1.1853333-0.4739304c-0.3900757,0.2029877-0.6081543,0.6372375-0.7002258,1.067215
				C131.1892395,69.0269165,131.8924866,69.7391205,133.1552734,70.2132111z"/>
			<path class="st3" d="M143.3152771,43.8320923c-2.1498413-2.0298424-2.4960938-5.5735435-1.0970306-8.1782837
				s4.2835236-4.2333984,7.2286377-4.4948215s5.9109955,0.7268467,8.3789825,2.3550587
				c4.2702789,2.817234,4.0615845,6.3724861,1.0853424,8.4492264c-1.1283569,0.7873421-2.4556122,1.2290344-3.7621002,1.660511"/>
		</g>
	</g>
</g>
</svg>
