<?xml version="1.0" encoding="utf-8"?>
<!-- Generator: Adobe Illustrator 22.0.1, SVG Export Plug-In . SVG Version: 6.00 Build 0)  -->
<svg version="1.1" id="Layer_1" xmlns="http://www.w3.org/2000/svg" xmlns:xlink="http://www.w3.org/1999/xlink" x="0px" y="0px"
	 viewBox="0 0 300 300" style="enable-background:new 0 0 300 300;" xml:space="preserve">
<style type="text/css">
	.st0{fill:#EDC1A4;}
	.st1{fill:#E2E0E0;}
	.st2{fill:#D39E81;}
	.st3{fill:#502E26;}
	.st4{fill:#CCCACA;}
	.st5{fill:#426800;}
	.st6{fill:#538705;}
	.st7{fill:#D47E44;}
	.st8{fill:#73341D;}
	.st9{fill:#BC672E;}
	.st10{fill:#96311D;}
	.st11{fill:#B83E21;}
	.st12{fill:#DE8D82;}
	.st13{fill:#EFBAB4;}
	.st14{fill:#FDD5D0;}
	.st15{fill:#6883CE;}
	.st16{fill:#3D4885;}
	.st17{fill:#3859AE;}
	.st18{fill:#864424;}
	.st19{fill:#FEFEFE;}
	.st20{fill:#FFFFFF;}
	.st21{fill:#A55925;}
	.st22{fill:#F4F2F2;}
	.st23{fill:#3C3E68;}
	.st24{fill:#E8997C;}
	.st25{fill:#F5C46B;}
	.st26{fill:#F7EBDA;}
	.st27{fill:#0E0C0D;}
	.st28{fill:#657C3A;}
	.st29{fill:#576C37;}
	.st30{fill:#7C995D;}
	.st31{fill:#36518C;}
	.st32{fill:#96B7E3;}
	.st33{fill:#A3B3DF;}
	.st34{fill:url(#SVGID_1_);}
	.st35{fill:url(#SVGID_2_);}
	.st36{fill:url(#SVGID_3_);}
	.st37{fill:url(#SVGID_4_);}
	.st38{fill:url(#SVGID_5_);}
	.st39{fill:#266AB7;}
	.st40{fill:#060E0D;}
	.st41{fill:#E0D4C6;}
	.st42{fill:#787E42;}
	.st43{fill:#D3D1D1;}
	.st44{fill:url(#SVGID_6_);}
	.st45{fill:url(#SVGID_7_);}
	.st46{fill:url(#SVGID_8_);}
	.st47{fill:#020508;}
	.st48{fill:#BAB6B6;}
	.st49{fill:#0F0B07;}
	.st50{fill:#2F3A68;}
	.st51{fill:#203257;}
	.st52{opacity:0.5;fill:#FFFFFF;}
	.st53{opacity:0.2;fill:#0E0C0D;}
	.st54{fill:#DD9F9B;}
	.st55{fill:#3E4D9B;}
	.st56{fill:url(#SVGID_9_);}
	.st57{fill:#5F6194;}
	.st58{fill:url(#SVGID_10_);}
	.st59{fill:url(#SVGID_11_);}
	.st60{fill:url(#SVGID_12_);}
	.st61{fill:url(#SVGID_13_);}
	.st62{fill:#070102;}
	.st63{fill:#100805;}
	.st64{fill:#FDA465;}
	.st65{fill:#2A50A1;}
	.st66{fill:#B76C39;}
	.st67{fill:#130602;}
	.st68{fill:url(#SVGID_14_);}
	.st69{fill:url(#SVGID_15_);}
	.st70{fill:url(#SVGID_16_);}
	.st71{fill:url(#SVGID_17_);}
	.st72{fill:url(#SVGID_18_);}
	.st73{fill:url(#SVGID_19_);}
	.st74{fill:#B4BDED;}
	.st75{fill:#100D08;}
	.st76{fill:#F6C85F;}
	.st77{fill:#FECF00;}
	.st78{fill:#2D59E2;}
	.st79{fill:#121F3A;}
	.st80{fill:#BBD0F5;}
	.st81{fill:#020202;}
	.st82{fill:#E2CFB7;}
	.st83{fill:#080805;}
	.st84{fill:#A87D7C;}
	.st85{fill:#182052;}
	.st86{fill:#EAEAEA;}
	.st87{fill:#DDDDDD;}
	.st88{fill:#3D4574;}
	.st89{fill:#ABC5F0;}
	.st90{fill:url(#SVGID_20_);}
	.st91{fill:#4159A8;}
	.st92{fill:#E0D0BD;}
	.st93{fill:#3D53AA;}
	.st94{fill:#0A0000;}
	.st95{fill:#BF6D36;}
	.st96{fill:#385DAE;}
	.st97{fill:#E0DCDC;}
	.st98{fill:#857E78;}
	.st99{fill:#0E213C;}
	.st100{fill:url(#SVGID_21_);}
	.st101{fill:#55608E;}
	.st102{opacity:0.3;fill:#F4F2F2;}
	.st103{opacity:0.3;}
	.st104{fill:#213987;}
	.st105{enable-background:new    ;}
</style>
<g id="Location_Tracking_1_">
	<g id="Location_Tracking">
		<g>
			<g>
				<path class="st23" d="M220.5471497,104.6439056h-61.6805725c-4.5487671,0-8.1845398-5.7842178-8.00354-10.3293686
					l2.5736542-64.6234055C153.6077881,25.3948078,157.1404877,22,161.4402161,22h61.7790833
					c3.8464661,0,6.9209137,3.1993237,6.7678528,7.0427437l-2.6721497,69.0974731
					C227.1703186,101.7732239,224.1830444,104.6439056,220.5471497,104.6439056z"/>
				<path class="st15" d="M216.6972351,102.6431503h-61.6805878c-4.5487671,0-8.1845398-3.7834625-8.0035248-8.3286133
					l2.5736389-64.6234055C149.7578735,25.3948078,153.2905731,22,157.5903015,22h61.7790833
					c3.8464661,0,6.9209137,3.1993237,6.7678375,7.0427437l-2.6721497,67.0967255
					C223.3203888,99.7724762,220.3331146,102.6431503,216.6972351,102.6431503z"/>
				<g>
					<path class="st20" d="M221.8043213,28.8700676c-1.668396,41.9597359-0.9589081,24.1162262-1.1403961,28.6807251
						l-0.0400543,1.0003777c-0.9694672,24.3353424-0.4899292,12.2731018-1.4905548,37.4174194
						c-0.0533295,1.3105545-1.1237183,2.340889-2.437561,2.340889h-61.6799316c-2.0770874,0-3.7544861-1.729126-3.6713562-3.8214264
						c3.8239746-95.9621582-0.8900146,22.3474045,2.574295-64.6242828c0.0766907-1.9774704,1.6906281-3.5280228,3.6713867-3.5280228
						h61.779953C220.7524719,26.3357468,221.8607635,27.4808788,221.8043213,28.8700676z"/>
				</g>
				<g>
					<path class="st1" d="M176.210495,26.3357468c-0.0031738,0.1235428-0.7865295,30.6668472-1.8473816,71.973732h-1.0003815
						c0.0029449-0.1141891,0.0602417-2.3381729,0.0567017-2.2008667c0.0278168-1.0829468,1.0402374-40.5758095,0.977066-38.1343193
						l0.8136139-31.638546H176.210495z"/>
				</g>
				<g>
					<path class="st1" d="M220.6639252,57.5507927l-0.0400543,1.0003777
						c-19.1374359,0.176136-18.5745544,0.1707001-40.031723,0.3668404
						c0.1002045-0.0009041-11.3413239,0.1059494-27.8404846,0.2567673l0.0400085-1.0003777
						c32.5940704-0.3004608-2.7076416,0.0252953,28.1572571-0.2601891c0,0,0,0.0034218,0.0033417,0
						C185.0300293,57.8768959,166.2415009,58.0488358,220.6639252,57.5507927z"/>
				</g>
				<g>
					<path class="st1" d="M219.6268311,83.5672684l-0.039978,1.0003738
						c-30.1448517,0.2803345-10.2459564,0.0963745-67.8722382,0.6268692l0.0400085-1.0003815
						C218.481369,83.5773087,194.5594635,83.7983398,219.6268311,83.5672684z"/>
				</g>
				<g>
					<path class="st1" d="M221.4608612,37.5365829c-0.004303,0.1006012-0.0476074,1.1143303-0.0433197,1.0137253
						c-4.0447845-0.9431-7.5505066,1.9213943-9.7570038,5.4454117c-7.5717926,12.0850868-2.2687225,29.3195953-12.558075,40.76194
						h-0.0033417c-6.4511261,7.1940002-16.0757904,9.8658524-25.3528595,12.2914124
						c-0.6187286,0.1416245-0.8742371-0.7034988-0.326828-0.9404602c0.4645691-0.1978226,8.810318-2.0163803,15.0556946-4.9551544
						c16.1876678-7.6322327,15.8138428-19.2837067,17.8000336-33.4693108h0.0033417
						c0.7336273-5.0018845,1.8540039-9.9404335,4.5350342-14.2185745
						C213.2452393,39.5836868,217.02742,36.6381569,221.4608612,37.5365829z"/>
				</g>
				<g>
					<path class="st1" d="M189.6272125,71.7397537c-0.260849-0.0906906-0.3987579-0.3757935-0.3078918-0.636795
						c1.1309509-3.250412-0.1600647-7.1641579-3.0029297-9.1036911c-1.8856201-1.2868042-4.337616-1.7830086-6.1271362-3.4212112
						c-2.8015137-2.5641174-2.7958221-6.9249725-1.3421478-9.9072151
						c2.9438477-6.0409393,11.9947815-9.7081718,18.5429535-10.7885704
						c0.2725677-0.0459175,0.5299835,0.1395378,0.5749207,0.4121017s-0.1395264,0.5299835-0.4120941,0.5749245
						c-6.2161713,1.0255394-15.0325317,4.5482368-17.8066711,10.2398605
						c-1.290863,2.6484566-1.3211365,6.4980507,1.1184235,8.7309914c1.6266479,1.4889488,4.0639648,2.0011559,6.0154419,3.332634
						c3.2036743,2.1857185,4.658493,6.5962372,3.3839264,10.2590714
						C190.1729736,71.6936111,189.8869934,71.8304825,189.6272125,71.7397537z"/>
				</g>
				<g>
					<path class="st15" d="M204.8912964,26.3357468l-1.7206116,39.8582764
						c-0.1600647,3.6981735-3.1845551,6.6025848-6.8826447,6.6125183l-25.4562073,0.0833664
						c-2.2842255,0.0066757-4.1416168,1.8006439-4.2283173,4.0816116l-0.8169556,21.3379593h-2.6710052l0.8236237-21.4380951
						c0.1401215-3.7180328,3.1645355-6.6390533,6.8859863-6.649147l25.4528961-0.0833664
						c2.2741852-0.0066757,4.1282349-1.7907104,4.2282867-4.0614243l1.7172852-39.7416992H204.8912964z"/>
				</g>
				<circle class="st7" cx="202.2339478" cy="40.4591179" r="5.2523508"/>
				<circle class="st20" cx="202.2339478" cy="40.4591179" r="3.070266"/>
			</g>
			<path class="st0" d="M98.9673309,80.5124207c-0.0423737,1.100563-1.028038,10.8231354-1.3871613,11.9078064
				c-1.3038788-0.3567429-3.0512009-0.1434479-4.4416962-0.2466736c-1.6506042-0.1234207-8.9400558-0.9070816-10.0171204-2.010849
				c-0.1500397-0.1566391-0.0566635-0.5068665-0.0433121-0.7136536c0.2967453-1.4271317,1.323822-7.9295807,1.3838196-9.3834152
				c0.7499542,0.3605881,1.1384964-1.3488541,1.9541092-1.6207275c0.8102798-0.2733765,1.84729-1.1936493,2.3942108-1.8172531
				c1.8125992,2.4304657,4.5583496,0.4764023,7.5661621,1.0036316
				C97.1995239,77.7628479,98.1528397,80.7231369,98.9673309,80.5124207z"/>
			<path class="st2" d="M98.9673309,80.5124207c-0.0233688,0.6068344-0.3301239,3.7813721-0.6569061,6.7159042
				c-1.4202118,0.3466797-2.7529449-0.2022781-4.0382233-0.907074c-3.2579041-1.7907181-6.078949-4.3649292-8.159729-7.442749
				c0.0392914-0.1038208,1.1607132-3.0668793,1.090416-2.8811264c3.1002731-0.3668671,6.4465714,0.1995239,9.6236572,1.9406662
				C97.5367737,78.7184525,98.2970734,80.6858215,98.9673309,80.5124207z"/>
			<path class="st3" d="M74.9155655,64.2004852c0.279808-1.2226486,1.278717-2.2079353,2.6034622-2.4083252
				c0.5323792-0.0805283,0.9874344,0.0685387,1.4791565,0.2737122c1.3551559,0.5654488,2.0926208,1.5362511,2.6305313,2.8502426
				c1.5453339-1.248703,3.2022324-1.9668694,5.1580276-2.2924576c4.9093475-0.8178329,7.472847-0.0007439,10.1329575,1.6489487
				c0,0,0.1801071,1.6269531-0.087822,2.606163c-0.2407532,0.8799057-0.6359558,1.7557602-0.9842606,2.595047
				c-0.3365936,0.8110657-1.2316513,1.4375992-1.8455353,2.0463486c-7.723999,7.6594238-6.0992584,5.7076569-6.927597,9.3069992
				c-0.1708832,0.7425385-0.5866928,1.5108566-1.3111115,1.7470322c-1.415451,0.4614716-2.4533539-1.1506882-3.2928619-1.9337158
				c-0.6418304-0.5986481-1.1443176-1.4310303-1.5989304-2.1738815c-0.1369019-0.2237015-1.5352325-2.560257-1.4728851-2.6068115
				c-0.4326019,0.3230286-0.9094772,0.7332001-1.4195709,0.919693c-1.9662323,0.7185822-3.0029297-0.8432083-3.6038895-2.8502426
				l-0.2131119,0.0905991c-2.0241318,0.8604965-4.7294312-0.7892227-3.1043243-3.9164581
				c0.0877151-0.1687927,0.3266068-0.4361343,0.2853851-0.6337585c-0.0358276-0.1717606-0.3277664-0.4013443-0.4279709-0.5551529
				C69.1224213,66.1628571,72.0475082,62.9178009,74.9155655,64.2004852z"/>
			<path class="st0" d="M96.9197006,64.2726059c0.7505188,0.579071,1.379837,1.1519012,1.8981628,1.9600525
				c1.0812225,1.6485825,4.789711,5.2611237,4.3450546,10.861618c-0.1529999,1.9279861-0.8453369,3.7761993-2.362854,5.0444794
				c-0.7266846,0.6071777-1.5660553,0.9517822-2.4278488,1.3168335c-4.3510056,1.2587967-7.6358566-0.4664536-10.1505585-4.1474838
				c-3.967247,3.2954865-6.3761368-1.6819305-4.468811-3.6518631c0.3443222-0.3553925,0.7800522-0.5396118,1.2748108-0.5430222
				c1.2915726-0.0090866,2.1738052,0.8569717,2.9876251,1.72332c1.1397858-4.5839233,0.0272369-5.5229797,0.6611176-7.5782166
				c0.7019806-2.2748566,3.5825958-3.9178391,5.7740021-4.4282227c0.6806946-0.1583939,1.6991806-0.1200714,2.2933044-0.4524689
				C96.8033142,64.3441315,96.860939,64.307518,96.9197006,64.2726059z"/>
			<path class="st3" d="M95.1454697,68.4515381c0.2979126,0.0006027,0.4476089,0.274147,0.2531586,0.5207901
				c-0.1047897,0.1329193-0.0995178,0.110611-2.0340576,1.279068c-0.2436447,0.1471634-0.7435074,0.4469833-1.01651,0.1917114
				c-0.2375793-0.2221603,0.0056458-0.5056152,0.1931381-0.6625824
				C93.2767563,69.1647186,94.8564224,68.4509506,95.1454697,68.4515381z"/>
			<path class="st3" d="M99.6782684,66.5423355c0.295105,0.0407486,0.4065781,0.3319702,0.1806641,0.5501556
				c-0.1217499,0.1175919-0.1135178,0.096199-2.1878815,0.9932785c-1.1235733,0.4859009-1.4123306-0.1621094-0.7524033-0.5775375
				C97.730484,66.9971695,99.3919296,66.5028,99.6782684,66.5423355z"/>
			
				<ellipse transform="matrix(0.9159905 -0.4011999 0.4011999 0.9159905 -20.7241364 44.1025658)" class="st40" cx="94.9471588" cy="71.5369034" rx="0.6922869" ry="1.0420896"/>
			
				<ellipse transform="matrix(0.9159905 -0.4011999 0.4011999 0.9159905 -19.4758682 45.7462349)" class="st40" cx="99.4960861" cy="69.3780899" rx="0.6922869" ry="1.0420896"/>
			<path class="st2" d="M99.42556,72.3983459c0.2401962,0.2208633,0.5014496,0.4951248,0.461937,0.8190308
				c-0.0650787,0.533577-0.8365707,0.7221298-1.8139343,1.106926c-0.4529724,0.1783371-0.6037598-0.1871796-0.1676254-0.3976746
				c0.5036926-0.2430954,1.0073853-0.4861984,1.5110855-0.7292938c-2.1925507-2.3159637-2.1255798-2.2087097-2.1305847-2.3826065
				c-0.0032272-0.1123505,0.0611343-0.1941223,0.1817474-0.2038116c0.1450806-0.0116501,0.2134476,0.126442,0.3108368,0.2144012
				C98.3430405,71.3347473,98.8663559,71.8841324,99.42556,72.3983459z"/>
			<path class="st20" d="M100.8156281,76.3520203c-1.2758179,0.7296448-2.9351196,0.7355881-4.2161255,0.0150986
				c0.0908737,0.5030594,0.3527603,0.948761,1.2576218,1.17659C99.0369873,77.8407822,100.0968857,77.333725,100.8156281,76.3520203
				z"/>
			<path class="st0" d="M135.0702972,75.8698502c0.8234863-2.0966644,1.021286-4.4345932,0.5617371-6.639801
				c-0.2704468-1.29776-0.8453827-2.8344803-0.163147-4.1472702c0.4321899-0.8314667,1.1140137-0.6738434,1.798996-1.0982666
				c0.7897644-0.4893456,1.2591248-1.6168365,1.7681885-2.3973808c1.3223114-2.0274544,2.6446075-4.0549088,3.9669037-6.0823631
				c1.0721893-1.6439857,2.365036-0.9113007,1.6595154,0.8340111c-1.037674,2.566967-2.0753326,5.1339302-3.1130066,7.700901
				c-0.0293732-0.8547363,1.4341125-1.4071007,2.1871948-1.0017586c0.7530823,0.4053459,0.7880249,1.6730003,0.0584106,2.1192055
				c0.4693756-0.5416031,1.4390259-0.5189209,1.8825684,0.0440445c0.4435272,0.5629654,0.238678,1.510994-0.3977203,1.8405991
				c0.3971405-0.5985107,1.4090118-0.4897308,1.8364563,0.087532c0.4274597,0.5772552,0.3584137,1.402832,0.0422516,2.0477982
				c-0.3161774,0.6449661-0.838623,1.1600342-1.31427,1.6982727c-2.1653748,2.4503403-3.4894714,5.6307373-3.7027588,8.8937912"/>
			<path class="st0" d="M145.3786621,108.1708908c1.6406403-1.5435104,2.8187408-3.5725784,3.3458557-5.762619
				c0.3101959-1.2888336,0.4472656-2.923851,1.6251526-3.8190765c0.746109-0.5669556,1.2951508-0.1330261,2.0958099-0.2239456
				c0.9231415-0.1048279,1.8293915-0.9235229,2.6232452-1.4115829c6.7695618-4.161972,6.5957031-4.1149139,7.0501251-4.1954422
				c0.8603668-0.1524506,1.5427704,0.6906052,0.2797089,1.8555298c-2.0352936,1.8771439-4.0705719,3.7542877-6.1058655,5.6314316
				c0.3387756-0.7852783,1.897934-0.659111,2.4055023,0.0292206c0.5075684,0.6883392-0.0026703,1.8492966-0.8529968,1.940834
				c0.655838-0.2890091,1.5227509,0.1459503,1.6831055,0.8444748c0.1603546,0.6985321-0.4300385,1.4680405-1.1462708,1.4940033
				c0.6148529-0.3713379,1.483139,0.1595078,1.6228485,0.8640823c0.1396942,0.7045746-0.275589,1.4214172-0.8370972,1.8693695
				c-0.5615082,0.4479446-1.2539825,0.6902847-1.9140472,0.9735794c-3.0049438,1.2896957-5.5613708,3.5989761-7.1489105,6.4577866"
				/>
			<path class="st0" d="M141.7529755,226.7878723c-0.0208435,0.100174-1.6508484,7.9303131-1.547287,7.4328156l-0.2000275,6.0589294
				c0,0-5.2453461,3.1311493-7.1160431,2.9144287c-1.870697-0.2200623-8.1830978-0.7302551-8.1830978-0.7302551l-0.566864-5.058548
				c-0.001297-0.1013184-0.1210022-9.4464264-0.1134033-8.8533478L141.7529755,226.7878723z"/>
			<path class="st3" d="M141.7529755,226.7878723l-1.2471313,5.9855804
				c-2.8770447,1.010849-9.641098,1.9699707-16.4095383,1.1437378l-0.0700531-5.3652954L141.7529755,226.7878723z"/>
			<polygon class="st1" points="161.6769562,255.0753937 146.7768402,247.8500671 114.3018265,248.7669373 116.5925751,261.2176819 
				128.2844849,264.8803101 144.0035248,263.7195435 156.4564972,261.3092346 			"/>
			<polygon class="st4" points="124.2457275,254.6604309 128.2844849,278 109.1602859,266.6538086 114.3018265,248.7669373 			"/>
			<polygon class="st22" points="128.2844849,278 165.2655029,278 161.6769562,255.0753937 124.2457275,254.6604309 			"/>
			<path class="st0" d="M95.2154312,258.5231323l-6.575798,4.4550476l-5.4686966-0.5368958l-3.9815598-5.9222412
				c0.0074234-0.1000671,0.5791931-0.8660583,0.3034134-4.6316986c-0.2700348-3.734726,15.3358154-0.7769928,15.3358154-0.7769928
				C94.8368073,251.2675018,95.2404861,259.0032654,95.2154312,258.5231323z"/>
			<path class="st3" d="M95.0120239,254.6216888c-1.8440094,0.5277863-5.1480103,0.6972351-8.9200287-0.0666809
				c-2.2308578-0.4501953-4.40168-1.1437378-6.552475-1.8907623c-0.0133514-0.2434235-0.0267029-0.5034485-0.04673-0.7769012
				c-0.2700348-3.734726,15.3358154-0.7769928,15.3358154-0.7769928L95.0120239,254.6216888z"/>
			<path class="st15" d="M76.3153763,266.6538086c0,0-0.5441132,2.2891846,0,3.365387c0,0,6.2234344,3.9732056,18.4301376,5.9146423
				c11.4968719,1.8285522,15.2639008,1.6296387,18.9877243-0.1375732c4.5267563-2.1482239,3.7136078-5.8713379,3.3944397-6.4694214
				c-0.3327866-0.6235657-4.6188507,4.9971924-4.6188507,4.9971924l-12.3091125-0.3026733l-11.7373734-3.3295288
				L76.3153763,266.6538086z"/>
			<path class="st11" d="M111.8383484,179.606781c-2.1056061,15.859726-2.6443176,19.9113617-9.5902786,72.2605286
				c-0.1333923,2.8777924-28.5440826,1.5705872-28.4107285-1.3104706l-0.0099335-98.9005432l35.4933548-4.3084259
				L111.8383484,179.606781z"/>
			<path class="st3" d="M110.9847183,186.0525665l-2.0474854,15.405777
				c-19.9008102-15.5192719-23.6855545-44.9403381-23.6855545-44.9403381L110.9847183,186.0525665z"/>
			<path class="st11" d="M121.1261139,145.2011719c0,0,19.7238922,25.6883392,21.9749298,34.4039154
				c2.2510376,8.7155914,6.3613281,25.8430176,3.6757965,49.8468781c0,0-13.4055328,5.7272797-24.8059692,2.4743958
				l-3.6686554-34.8185883c0,0-28.0708542-7.9340668-34.259758-46.6916351L121.1261139,145.2011719z"/>
			<path class="st23" d="M77.8922195,259.0548706c0,0-1.0447464,1.5766907-1.5768433,7.598938
				c0,0,2.9293518,2.6347046,16.3495941,6.3295593s15.9014664,2.989624,19.0833969,2.1987915
				c3.1819229-0.790863,5.3856812-3.148468,5.5449829-4.4247742c0.1593018-1.2762756-0.7007751-2.6096191-0.7007751-2.6096191
				l-5.6307983-0.5163879l-15.9922409-0.9775696c0,0-13.1662216-6.4213562-13.3007507-6.4549866
				C81.5342636,260.1651917,77.8922195,259.0548706,77.8922195,259.0548706z"/>
			<path class="st15" d="M91.5139618,270.3191223c11.7572708,3.7598877,16.232048,3.7854919,20.0199432,2.7350769
				c3.7878952-1.0504456,5.169281-3.8601074,5.05867-4.9064331c-0.1106033-1.0462952-10.0853119-4.4934998-13.9436646-6.857605
				s-5.3412247-6.1148682-5.3412247-6.1148682c-3.5223618-0.746109-7.3506775,2.9318848-7.3506775,2.9318848
				c-6.3120041,1.9966736-10.7692566-1.5883179-10.7692566-1.5883179s-0.9374008-0.0485535-1.2955322,2.5360107
				c0,0,1.5566177,1.5360107,3.7419891,5.6531372C83.4965363,268.2165833,91.5139618,270.3191223,91.5139618,270.3191223z"/>
			<path class="st15" d="M158.325882,252.2107849c-0.7436066,0.263443-1.59729,0.3134308-2.3675995,0.4034729
				c-2.6942902,0.3100891-5.4120331,0.2167206-8.116333,0.1234131c-23.1015778-0.8184204-23.5506363-0.5755005-25.2661972-1.5673218
				c-0.9777832-0.56604-1.713913-1.6796265-1.6672897-2.7510223c0.3944168-1.2622528,0.1258469-1.2807465,0.6168442-4.6917114
				c0.1134109-0.7469482,0.2667847-2.5076294,0.9003677-2.9745178c-0.1167068-0.1199951-0.1267166-0.0833588-0.1300583-0.2500916
				c-0.0133514-0.7635498,0.9403839-2.6175995,1.5072479-3.1478271l0.336792,0.0500641
				c3.5325089,2.2839508,13.7202225,0.7664948,16.0660324-3.1845551c1.4172058,0.8636169,2.8343964,1.8006439,4.3083038,2.567627
				c2.2675323,1.1804504,15.4591522,7.3360901,16.2328033,8.6199493c0.3734741,0.6001587,0.8236237,1.163681,0.9303589,1.8706512
				l-0.1434021,0.453537C162.3016968,249.6234436,160.139389,251.2703094,158.325882,252.2107849z"/>
			<path class="st23" d="M121.1261139,247.6295166c0.0789108-1.3057709,0.2120438-2.6059418,0.3993835-3.9005432
				c0.1129761-0.7485199,0.2656937-2.5084534,0.8995514-2.9773865c0.8565979,0.794693,1.3741379,1.7937012,2.0185318,2.7806854
				c3.8709488,5.9253693,5.7167435,4.2753754,22.908638,4.3180847c4.3158722,0.0109253,10.0166931,0.9410858,12.7671967-1.7131042
				c0.2290802-0.2208252,0.429184-0.4780121,0.6259003-0.7278137c0.3732758,0.5975189,0.8246155,1.1609802,0.9316406,1.8692169
				l-0.1416473,0.4527588c-2.5992584,3.8616028-11.232605,2.7300873-20.9707489,2.5181122
				c-4.8522949-0.1055908-9.802536,0.0857391-14.6230469-0.5092468
				C124.083931,249.5109253,122.3447189,249.1830902,121.1261139,247.6295166z"/>
			<path class="st13" d="M125.8769684,146.040741c-0.283432,0.4002228-3.8981171,5.2420502-22.5451584,8.5899963
				c-18.6470413,3.3479309-30.2347412-0.4902649-31.6252365-1.0904236c-1.393837-0.6035767-1.3672104-4.0615845-1.3672104-4.0615845
				c-1.5271912-21.4247437,2.5309753-45.3571014,5.7255402-54.2204666c1.9640427-5.4520874,4.3582535-7.5394592,5.9055481-8.3364716
				c0.9536438-0.493515,1.5906067-0.4967651,1.6105881-0.4967651c-0.8069839,1.7405624,6.4757919,2.4275055,14.4221039,3.027832
				c17.3410034,7.25737,22.8618393,42.0894547,22.915329,42.192482
				C120.9184723,131.64534,126.1570969,145.6439514,125.8769684,146.040741z"/>
			<path class="st12" d="M101.6778641,91.5035934c-1.2280502,1.5266342-3.2228928,1.5379715-5.178627,1.3504486
				c-3.0544968-0.2968292-6.0756073-0.8868942-9.0133591-1.7640152c-2.3889618-0.7097931-4.8005524-1.7486267-5.5154266-4.1682358
				c0.9536438-0.493515,1.5906067-0.4967651,1.6105881-0.4967651c-0.8069839,1.7405624,6.4757919,2.4275055,14.4221039,3.027832
				C99.2936249,89.9929352,100.517395,90.6832962,101.6778641,91.5035934z"/>
			<path class="st13" d="M143.7836914,77.2381287c0,0-0.1233368,1.0572052-0.450119,2.8212128
				c-1.440567,7.7928162-6.8026123,29.3676758-22.6785431,34.3895874
				c-19.4640427,6.1588898-22.2617264-24.7160187-22.2617264-24.7160187
				c-0.0400543,0.0232849,9.176796,3.5413742,16.7329483,2.1941833c6.125679-1.090416,14.9623413-13.0916824,18.0901489-17.5933762
				c0.7269592-1.0503616,1.1470795-1.69384,1.1470795-1.69384
				C134.6703186,72.0162735,144.0905304,76.6112671,143.7836914,77.2381287z"/>
			<path class="st3" d="M85.7345276,108.3999634c0,0,5.1743774,21.0274658,18.8996277,28.3297119
				c13.5089569,7.1871796,22.6915207,0.8838654,22.6915207,0.8838654l-0.8894348-9.6487579l-24.2369919-11.3402405
				L85.7345276,108.3999634z"/>
			<path class="st14" d="M152.9004974,113.168335c-0.2967072,0.437973-4.7331238,9.7924881-16.1327515,17.4899902
				c-11.5776825,7.8162537-20.8645096,8.4865875-29.584465,4.7718201
				c-8.7199631-3.7113647-15.1357117-14.0520172-19.1605835-21.2313156
				c-4.021492-7.1760406-4.5083694-17.9867554,1.0770645-21.8282089c5.5820999-3.8448715,13.9519577-0.3302002,18.2902603,6.075531
				s8.4798355,15.9426956,15.6492004,15.9827499c7.1515732,0.0381088,21.6681442-8.230423,22.6252213-8.3364792
				C146.3746796,105.3654251,153.6141052,112.4414978,152.9004974,113.168335z"/>
			<g>
				<path class="st2" d="M139.9599915,67.2106476c-0.0626221-0.8904648,0.884903-3.0214462,1.5258789-4.0825195
					c0.2548676-0.4243774,0.8984375-0.0372047,0.6420898,0.3876953c-0.5849609,0.96875-1.0336914,2.0131836-1.3344727,3.1044922
					c-0.0704041,0.2579041-0.1735992,0.6835327,0.0483398,0.8334961c0.2484131,0.1666336,0.6167145-0.1548386,0.8325195-0.3579102
					c0.7651367-0.71875,1.4555664-1.5209961,2.0527344-2.3847656c0.2828674-0.4072876,0.899292,0.0182343,0.6171875,0.4267578
					c-0.5192261,0.750351-2.0536499,2.6705933-2.8623047,3.0068359
					C140.7370758,68.4517136,140.0165405,68.0315933,139.9599915,67.2106476z"/>
			</g>
			<g>
				<path class="st2" d="M143.6138,71.2091827c-1.0671387-1.1014328,0.4054565-3.5793533,1.5834961-4.6113281
					c0.3749084-0.3255463,0.8667908,0.2373657,0.4941406,0.5644531c-0.7460938,0.6538086-1.296875,1.5-1.5917969,2.4467773
					c-0.0898438,0.2895508-0.203125,0.8144531,0.0522461,1.0776367c0.1958008,0.2016602,0.5620117,0.1845703,0.8232422,0.0644531
					c0.3417969-0.1577148,0.6201172-0.4707031,0.8891602-0.7729492c0.3305664-0.370285,0.8902893,0.1283646,0.5605469,0.4990234
					c-0.3056641,0.3427734-0.6518555,0.7314453-1.1362305,0.9545898
					C144.7392578,71.6851959,144.0464172,71.6553879,143.6138,71.2091827z"/>
			</g>
			<g>
				<path class="st2" d="M135.839386,68.287796c-0.2917328-0.4002533,0.3134308-0.8438568,0.6064453-0.4414063
					c0.6989899,0.9611053,1.6283722,2.0934143,2.8803711,1.9086914c0.543457-0.0820313,0.9980469-0.4980469,1.0571289-0.9672852
					c0.0634766-0.503418-0.2768555-1.0175781-0.6010742-1.4594727c-0.8217773-1.1240234-1.7304688-2.1987305-2.7001953-3.1943359
					c-0.3468628-0.3562393,0.1914215-0.8773575,0.5371094-0.5234375c0.9946289,1.0209961,1.9257813,2.1230469,2.7685547,3.2749023
					c0.4389648,0.5991211,0.8330078,1.2563477,0.7397461,1.9960938c-0.1015625,0.8037109-0.8120117,1.4824219-1.6889648,1.6147461
					C137.8822479,70.7372208,136.7576447,69.5509491,135.839386,68.287796z"/>
			</g>
			<g>
				<path class="st2" d="M142.327179,70.3917999c-0.8994904-0.2855377-1.5536957-1.3534164-1.1328125-2.8803711
					c0.1306305-0.4801636,0.85466-0.2785797,0.7226563,0.1992188c-0.3106689,1.1306763,0.1286011,1.8051224,0.6367188,1.9663086
					c0.300293,0.0961914,0.6591797-0.0297852,0.784668-0.2729492c0.2265778-0.4414063,0.8939972-0.0970154,0.6660156,0.34375
					C143.7116699,70.3163071,142.9730225,70.5967941,142.327179,70.3917999z"/>
			</g>
			<g>
				<path class="st2" d="M155.0068665,100.3947296l1.8237305-1.1162109
					c0.4245758-0.2601166,0.8137512,0.3819275,0.3916016,0.6396484l-1.8237305,1.1162109
					C154.9794922,101.2924652,154.5796814,100.6555252,155.0068665,100.3947296z"/>
			</g>
			<g>
				<path class="st2" d="M156.3525696,102.5251007l1.6020508-0.7148438c0.4550934-0.202919,0.7570648,0.4839478,0.3056641,0.6845703
					l-1.6020508,0.7148438C156.2068634,103.4132309,155.8986664,102.7268372,156.3525696,102.5251007z"/>
			</g>
			<g>
				<path class="st2" d="M157.2202454,104.7350616l1.6918945-0.6235352c0.470871-0.1679153,0.7220917,0.5333405,0.2597656,0.7041016
					l-1.6928711,0.6235352C157.015564,105.6096344,156.7515106,104.9081879,157.2202454,104.7350616z"/>
			</g>
			<path class="st2" d="M86.586792,78.3793259c-0.2488022-0.5825806-0.4975967-1.1651611-0.7463989-1.7477417
				c-0.3772736,0.1307449-0.8094559,0.3680878-0.9742584,0.7317734c-0.3521652,0.7771683,0.0986938,1.5706482,0.7799072,1.6191177
				C85.9966965,79.0074234,86.4804611,78.7143936,86.586792,78.3793259z"/>
			<path class="st12" d="M143.7836914,77.2381287c0,0-0.1233368,1.0572052-0.450119,2.8212128
				c-1.0489197-0.9111099-4.0721436-4.3380585-10.1171722-5.7256241c0.7269592-1.0503616,1.1470795-1.69384,1.1470795-1.69384
				C134.6703186,72.0162735,144.0905304,76.6112671,143.7836914,77.2381287z"/>
			<path class="st12" d="M152.9004974,113.168335c0,0-0.4601746,0.9770889-1.4638977,2.5642776
				c-1.6972961-3.617897-4.571701-6.6791077-8.0830383-8.5930786c1.2604828-0.6203537,2.100769-1.0238266,2.3108826-1.0471115
				C146.3746796,105.3654251,153.6141052,112.4414978,152.9004974,113.168335z"/>
		</g>
	</g>
</g>
</svg>
