<?xml version="1.0" encoding="utf-8"?>
<!-- Generator: Adobe Illustrator 22.0.1, SVG Export Plug-In . SVG Version: 6.00 Build 0)  -->
<svg version="1.1" id="Layer_1" xmlns="http://www.w3.org/2000/svg" xmlns:xlink="http://www.w3.org/1999/xlink" x="0px" y="0px"
	 viewBox="0 0 300 300" style="enable-background:new 0 0 300 300;" xml:space="preserve">
<style type="text/css">
	.st0{fill:#EDC1A4;}
	.st1{fill:#E2E0E0;}
	.st2{fill:#D39E81;}
	.st3{fill:#502E26;}
	.st4{fill:#CCCACA;}
	.st5{fill:#426800;}
	.st6{fill:#538705;}
	.st7{fill:#D47E44;}
	.st8{fill:#73341D;}
	.st9{fill:#BC672E;}
	.st10{fill:#96311D;}
	.st11{fill:#B83E21;}
	.st12{fill:#DE8D82;}
	.st13{fill:#EFBAB4;}
	.st14{fill:#FDD5D0;}
	.st15{fill:#6883CE;}
	.st16{fill:#3D4885;}
	.st17{fill:#3859AE;}
	.st18{fill:#864424;}
	.st19{fill:#FEFEFE;}
	.st20{fill:#FFFFFF;}
	.st21{fill:#A55925;}
	.st22{fill:#F4F2F2;}
	.st23{fill:#3C3E68;}
	.st24{fill:#E8997C;}
	.st25{fill:#F5C46B;}
	.st26{fill:#F7EBDA;}
	.st27{fill:#0E0C0D;}
	.st28{fill:#657C3A;}
	.st29{fill:#576C37;}
	.st30{fill:#7C995D;}
	.st31{fill:#36518C;}
	.st32{fill:#96B7E3;}
	.st33{fill:#A3B3DF;}
	.st34{fill:url(#SVGID_1_);}
	.st35{fill:url(#SVGID_2_);}
	.st36{fill:url(#SVGID_3_);}
	.st37{fill:url(#SVGID_4_);}
	.st38{fill:url(#SVGID_5_);}
	.st39{fill:#266AB7;}
	.st40{fill:#060E0D;}
	.st41{fill:#E0D4C6;}
	.st42{fill:#787E42;}
	.st43{fill:#D3D1D1;}
	.st44{fill:url(#SVGID_6_);}
	.st45{fill:url(#SVGID_7_);}
	.st46{fill:url(#SVGID_8_);}
	.st47{fill:#020508;}
	.st48{fill:#BAB6B6;}
	.st49{fill:#0F0B07;}
	.st50{fill:#2F3A68;}
	.st51{fill:#203257;}
	.st52{opacity:0.5;fill:#FFFFFF;}
	.st53{opacity:0.2;fill:#0E0C0D;}
	.st54{fill:#DD9F9B;}
	.st55{fill:#3E4D9B;}
	.st56{fill:url(#SVGID_9_);}
	.st57{fill:#5F6194;}
	.st58{fill:url(#SVGID_10_);}
	.st59{fill:url(#SVGID_11_);}
	.st60{fill:url(#SVGID_12_);}
	.st61{fill:url(#SVGID_13_);}
	.st62{fill:#070102;}
	.st63{fill:#100805;}
	.st64{fill:#FDA465;}
	.st65{fill:#2A50A1;}
	.st66{fill:#B76C39;}
	.st67{fill:#130602;}
	.st68{fill:url(#SVGID_14_);}
	.st69{fill:url(#SVGID_15_);}
	.st70{fill:url(#SVGID_16_);}
	.st71{fill:url(#SVGID_17_);}
	.st72{fill:url(#SVGID_18_);}
	.st73{fill:url(#SVGID_19_);}
	.st74{fill:#B4BDED;}
	.st75{fill:#100D08;}
	.st76{fill:#F6C85F;}
	.st77{fill:#FECF00;}
	.st78{fill:#2D59E2;}
	.st79{fill:#121F3A;}
	.st80{fill:#BBD0F5;}
	.st81{fill:#020202;}
	.st82{fill:#E2CFB7;}
	.st83{fill:#080805;}
	.st84{fill:#A87D7C;}
	.st85{fill:#182052;}
	.st86{fill:#EAEAEA;}
	.st87{fill:#DDDDDD;}
	.st88{fill:#3D4574;}
	.st89{fill:#ABC5F0;}
	.st90{fill:url(#SVGID_20_);}
	.st91{fill:#4159A8;}
	.st92{fill:#E0D0BD;}
	.st93{fill:#3D53AA;}
	.st94{fill:#0A0000;}
	.st95{fill:#BF6D36;}
	.st96{fill:#385DAE;}
	.st97{fill:#E0DCDC;}
	.st98{fill:#857E78;}
	.st99{fill:#0E213C;}
	.st100{fill:url(#SVGID_21_);}
	.st101{fill:#55608E;}
	.st102{opacity:0.3;fill:#F4F2F2;}
	.st103{opacity:0.3;}
	.st104{fill:#213987;}
	.st105{enable-background:new    ;}
</style>
<g id="Making_Pizza_1_">
	<g id="Making_Pizza">
		<g>
			<path class="st8" d="M130.9113007,251.1044617c0.6898041,9.8309326-17.2854691,15.5131531-38.6081772,15.5131531
				s-39.4099846-5.0127563-38.6081734-15.1192017c0.5685768-7.1666718,17.2854652-10.9151611,38.6081734-10.9151611
				S130.4080963,243.9329071,130.9113007,251.1044617z"/>
			<path class="st7" d="M107.022583,39.2248611c0,0,78.4969788,39.106987,89.6392517,5.7431297
				c0,0-19.9552612,9.8089104-27.4486542,3.8649635c-7.4933777-5.943943-32.4169312-19.8067036-33.7242584-19.9940376
				c-1.307312-0.1873341-13.6167068-0.9024868-13.6167068-0.9024868L107.022583,39.2248611z"/>
			<path class="st0" d="M170.8933716,126.2303162c0,0,3.6020508-2.0148849,5.1137238-4.3317947
				c1.7476807-2.6786499,10.2273865-19.656105,13.3530426-28.2279816c0.3069916-0.8418961,0.7772369-1.6326523,1.0647736-2.4636459
				c0.7588806-2.1931686,0.1774445-9.0435944-1.1045532-13.3561401c-0.713913-2.4015121-1.1591339-2.9561844-1.1606598-3.8302536
				c-0.0023346-1.337738,1.2762451-2.1677628,2.8335419-0.4759674c1.2338104,1.3403625,2.2545471,2.8764496,3.0122986,4.5331497
				c1.1021729-1.6033401,6.530365-8.8549347,7.2010193-9.6786118c0.4115601-0.5054779,0.9236298-1.058609,1.5747681-1.0282516
				c0.8098145,0.0377502,1.2752991,0.9567566,0.8182831,1.6322708c0.3265686-0.7503738,1.1993408-2.6855164,2.0178375-2.6490097
				c0.4232635,0.0188828,0.7198486,0.4728622,0.7224426,0.8965378c0.0026093,0.4236679-0.2062683,0.8162613-0.4095917,1.1879654
				c0.2279205-0.3562393,0.4685059-0.6824036,0.8252716-0.9095001s0.8670044-0.271759,1.1800385,0.0125961
				c0.6638031,0.6029816,0.0276184,2.2345886-0.4721832,2.9809494c0.0804749-0.2585602,0.8361664-0.8963165,1.1011505-0.8405304
				c1.6490326,0.347168,0.1360321,5.2732239-0.1504364,6.1711273c-2.5419159,7.9674835-4.4746704,10.1418304-6.2416992,17.98172
				c0,0-3.4059906,25.2567978-7.0287476,36.2999725c-3.6227722,11.0431671-9.5775299,16.8373566-11.3839569,17.6368408
				C181.9533234,148.5712433,169.4010468,131.6137085,170.8933716,126.2303162z"/>
			<path class="st3" d="M137.177063,120.2771606c2.9632568,2.5929947,4.9717407,6.6590576,4.0256042,10.4812775
				c-0.6186066,2.4990082-2.3766632,4.5448151-4.1880493,6.374176c-3.4115448,3.4454346-7.2184601,6.4990845-11.3220291,9.0817719
				c-3.6325607,2.2862549-7.6789017,4.2493286-11.9710541,4.2513733c-1.9186707,0.0009155-3.607933-0.5483704-5.3606262-1.2620697
				c-1.4582977-0.5938263-1.9489136-1.5556183-2.4722824-3.0667114c-1.1210175-3.2366943-0.8119583-6.9887543,0.9897079-9.923172
				c1.8700027-3.0457306,6.6047592-4.2297974,6.4980545-6.5127106c-0.0888596-1.9011993-0.1332855-3.5254745,0.5545883-5.3547974
				c1.362442-3.6232758,4.2272491-6.1518555,7.7230072-7.8473434c4.8682709-2.3611755,4.3220444-2.3334885,10.4717026,0.58004
				C133.9310455,117.9343109,135.6692657,118.9577789,137.177063,120.2771606z"/>
			<path class="st0" d="M140.2375641,151.611145l-5.6782379,5.9155579l-11.61306,1.9216614l-6.7480392-3.1271362l-1.3602905-4.35672
				l1.3602905-2.6527405c0,0,5.5039215-3.0108337,5.1650925-8.7713318
				c-0.3363419-5.7137299-2.1376877-10.0511017-2.1638184-10.1512604l16.671669,4.2791901
				c-0.0089111,1.25914-0.226944,8.0490723,0.7891083,9.7397308l3.0641327,1.2198944L140.2375641,151.611145z"/>
			<path class="st2" d="M136.5392609,144.1660614c-2.9951172,0.5314941-9.7448196-0.6502991-15.2485046-4.5937958
				c-0.2081833-2.3768921-0.6584015-4.4730072-1.0843353-6.0606842c5.3248749-0.1938171,10.688385,0.7114716,15.6308899,2.7009735
				C135.8131409,138.4734039,135.8663177,142.5831146,136.5392609,144.1660614z"/>
			<path class="st15" d="M119.6593475,180.0023499l0.6390228,9.0282745l-10.7320633,5.7266998l-5.6298447-8.3600616
				l-7.8129883,4.7488403c-0.5906219-7.5275726-12.1116791-22.4323883-12.1116791-22.4323883
				c10.5528946-11.4049377,26.1499786-16.3667603,26.1499786-16.3667603l5.5813904,3.9742737
				c6.2424698,24.0279388,4.0894623,15.7407837,4.5552063,17.5334625L119.6593475,180.0023499z"/>
			<path class="st23" d="M119.6593475,180.0023499l0.6390228,9.0282745l-10.7320633,5.7266998l-5.6298447-8.3600616
				c0,0,12.0680618-2.9723206,10.1559753-28.2122803c0,0,0.9730072,0.3195648,2.3429871,0.8036499l3.8629456,14.8660583
				L119.6593475,180.0023499z"/>
			<path class="st23" d="M114.9275513,149.7226868l1.2683945-0.4107971c0,0,0.8019943,3.1593933,11.6090851,3.841629
				c10.8070908,0.6822205,10.9473953-3.8251953,10.9168167-4.2431335s-2.0592194-4.500824-2.0592194-4.500824l1.8339844,0.9195862
				l5.3755951,8.2196808c0,0,1.6258392,7.3871002,1.6258392,7.5907898c0,0.2037048-2.0331116,6.5636292-2.0331116,6.5636292
				l-5.4663696,2.9396973l-8.5986938-1.9355011l-8.6445084-5.5233765l-5.8278122-10.0049286V149.7226868z"/>
			<path class="st15" d="M139.7253723,145.627533c0,0,25.2849731-15.1235962,31.1679993-19.3972168
				c0,0,8.3028107,15.9250183,15.7859192,19.0974884c0,0-25.7009888,26.5779266-32.6961823,25.266449
				C146.9879303,169.2827911,139.7253723,145.627533,139.7253723,145.627533z"/>
			<path class="st15" d="M184.913269,246.1713715c0,0-100.4997101,13.3315582-102.382782-1.3943329
				c-1.5297089-11.9953766,16.5651779-35.7249603,23.3422928-44.1285095
				c1.5441818-1.9169312,2.5027084-3.0351868,2.5027084-3.0351868c-5.8331757-5.9930878-4.5019608-10.9983826-4.4438705-11.2113495
				c0.0048447-0.0047302,0.0048447-0.0047302,0.0048447-0.0047302c3.2058792,2.9969482,7.8792343,5.3180084,10.0591812,1.3940887
				c2.9964218-5.3927155,3.6402893-16.904007,2.0137253-24.5138397c0,0-2.1056747-7.8322601-5.8475952-10.9305573
				c0,0,0.3339844-0.2952271,0.8422928-0.6873474c0.8843765-0.6850739,2.8071136-2.0703278,3.9258194-1.9363251
				c0,0,5.3151779,6.9321747,13.1331329,11.6228638c7.8226776,4.6954346,10.9837341,6.268692,12.6876984,3.0011597
				c1.6991272-3.2675323-1.3215179-17.5138397-2.2558289-19.0195007l1.2295227,0.3001862
				c0.1000061,0.0997009,16.3700409,15.5102386,19.2857666,20.0167236c3.1282959,4.846756,4.3631592,9.237854-0.7212677,18.1092529
				C170.5246124,208.4900665,187.411972,241.3320618,184.913269,246.1713715z"/>
			<path class="st23" d="M140.3828125,209.9233246c0,0-25.3657684-4.2597961-34.5100327-9.2747955
				c1.5441818-1.9169312,2.5027084-3.0351868,2.5027084-3.0351868s9.5653534,4.5744019,23.9329224,4.4051666
				C146.6758423,201.8490448,140.3828125,209.9233246,140.3828125,209.9233246z"/>
			<path class="st26" d="M119.6593475,200.9243774c6.1187744-19.9585876,3.3498535-25.4576721,1.08918-31.2715759
				c-1.9623413-5.0610809-5.532074-14.7059479-9.7444611-17.9931946c0.4937134-0.3824463,1.1472092-0.856842,1.8153-1.2392731
				c1.8539429,1.8249817,7.9969406,8.9263916,12.6537781,26.6196289c0,0,24.6929016-0.4646912,28.5122986-5.3685913
				c0,0-3.5482941-16.444046-15.4905548-26.3435669c0,0,1.263443-0.4937744,3.4466553,1.5926361
				c4.3507996,4.1573181,8.7570953,9.2945862,10.9353943,14.9001007c2.1166229,5.451355,5.089859,14.3291779,6.9271393,19.8860168
				c0.0306244,0.1000061,12.9959869,32.631546,12.8862,53.1177826l-71.1935959-1.263382
				C101.4966812,233.5609589,113.5406418,220.8879242,119.6593475,200.9243774z"/>
			<path class="st0" d="M96.1221695,191.1437378c-2.8561935,3.8551483-8.3899002,5.5710449-12.112587,6.3141937
				c-3.0049286,0.5998688-6.1392212,0.407074-8.9792023-0.7435455c-8.5561523-3.4665375-8.1310959-12.1220245-5.8021851-18.1217804
				c2.7265396-7.0241089,10.7639999-17.4529877,10.7639999-17.4529877
				c-7.8444672,1.5347443-15.1433182-1.9028168-16.7858963-4.5730133c-0.7293739-1.1856689-0.8570824-2.8313446,0.0130234-3.9179535
				c0.8701019-1.0866241,2.8341904-1.1859894,3.5679245-0.003006c-0.987709-0.579483-1.1761322-2.1525116-0.3532181-2.9488831
				c0.8229141-0.7963562,2.3889313-0.5564575,2.9357071,0.4497223c-0.7971573-0.6776123-0.8373566-2.0607452-0.0809021-2.7835236
				s2.136322-0.6196747,2.7769623,0.207489c-1.1884537-0.979248,0.4320831-4.0536194,3.5804291-1.7288208
				c0.8295898,0.6125793,1.5412903,1.3971558,2.4597244,1.8661499c1.3329239,0.6806488,2.9105072,0.6070862,4.4032822,0.4984589
				c4.6538467-0.338623,8.3353653,1.9299774,8.6666031,6.8848114c0.158165,2.3658905-0.1623306,3.2557678-3.109581,19.291687
				C92.1988983,180.2819824,95.1614609,185.9290161,96.1221695,191.1437378z"/>
			<g>
				<path class="st2" d="M86.5920715,186.4189606c-0.6342773-7.5683594,1.0527344-11.9882813,1.125-12.1728516
					c0.1805725-0.4619751,0.8781662-0.1885376,0.6982422,0.2729492c-0.0166016,0.0439453-1.6943359,4.4580078-1.0761719,11.8374023
					C87.3811874,186.8504944,86.6328125,186.9140625,86.5920715,186.4189606z"/>
			</g>
			<g>
				<path class="st2" d="M79.9289856,160.7700348c0.0444336-0.0078125,4.4541016-0.7817383,8.125-3.3183594
					c0.4082108-0.2814484,0.835228,0.3351135,0.4267578,0.6171875c-3.8125,2.6342773-8.2392578,3.4086914-8.4257813,3.4404297
					C79.5709229,161.59729,79.4367676,160.8536377,79.9289856,160.7700348z"/>
			</g>
			<ellipse class="st12" cx="150" cy="250.8443604" rx="128" ry="22.9491901"/>
			<path class="st0" d="M136.650589,138.1294861c-5.3222046,3.0926819-11.7361908,2.2921906-16.0859528-1.45224
				c-0.7600403,0.6244812-1.7766495,0.7698517-2.7592926,0.808609c-2.3843689,0.082428-3.9026642-2.0320129-3.1706848-3.8097534
				c0.3726959-0.9100189,1.3940964-1.5394592,2.3574066-1.3699799c-0.8374481-1.021347-1.442543-2.3234863-2.3332367-3.2431946
				c-1.129776-1.2178268-1.5989761-2.5318222-1.079483-4.0955276c1.159111-3.5208435,7.5959702-6.9318924,11.3516388-8.1953125
				c2.3093948-0.7702026,2.715271-1.2691116,4.177597-0.0437317c4.8987427,3.9622498,9.9151917,9.5881729,9.9865723,15.8632889
				C139.1241608,135.0170135,138.7950287,136.8757935,136.650589,138.1294861z"/>
			<path class="st2" d="M129.1085815,116.7283554c-5.7798691,2.7546234-10.862709,6.9612427-14.6337051,12.1360245
				c-4.1970749-4.7432327,4.6240921-10.1303787,10.4561081-12.0922928
				C127.1955185,116.0168457,127.6524963,115.5082092,129.1085815,116.7283554z"/>
			<path class="st3" d="M123.2793045,123.3765411c0.5986938-0.1233444,1.1051483,0.3982315,0.4094772,1.2825394
				c-0.5787888,0.7357254-2.0346756,2.3344803-2.9438095,2.5532379c-0.3246994,0.078125-0.9793167,0.0471878-1.0299149-0.3899078
				c-0.0407639-0.3521881,0.5612335-0.888031,0.7735748-1.133667
				C120.9739227,125.1273499,122.5645065,123.5238113,123.2793045,123.3765411z"/>
			<path class="st3" d="M129.2297974,118.5736465c0.5986938-0.1233521,1.1051483,0.3982315,0.4094849,1.2825317
				c-0.5787964,0.7357254-2.0346832,2.3344803-2.9438171,2.5532379c-0.3246994,0.0781326-0.9793167,0.0471878-1.0299072-0.3899078
				c-0.0407715-0.3521881,0.5612335-0.888031,0.7735672-1.1336594
				C126.9244156,120.3244553,128.5149994,118.7209167,129.2297974,118.5736465z"/>
			
				<ellipse transform="matrix(0.8348091 -0.5505396 0.5505396 0.8348091 -46.532959 92.3147964)" class="st3" cx="130.5644531" cy="123.6986923" rx="1.0200849" ry="1.6045951"/>
			
				<ellipse transform="matrix(0.8348091 -0.5505396 0.5505396 0.8348091 -49.6570129 89.7032471)" class="st3" cx="124.6506042" cy="127.5987549" rx="1.0200849" ry="1.6045951"/>
			<path class="st2" d="M131.9875793,127.4421768c1.2930908,0.5812149,1.4056854,1.2797012,0.3783875,2.1761093
				c-1.3719177,1.197113-1.4445953,1.2893524-1.6697998,1.3599854c-0.4926605,0.1544952-0.8537292-0.3809509-0.1885834-0.904068
				c1.5042572-1.1830444,1.6654053-1.7827454-0.3431091-2.6754761c-0.2717285-0.1207657-1.8568573-1.0797272-0.8199158-1.1362305
				c0.3428345-0.0186768,0.9867401,0.4352112,1.3038483,0.5777435
				C131.0947876,127.0408859,131.5411835,127.2415314,131.9875793,127.4421768z"/>
			<path class="st20" d="M135.0058746,129.5292664c-0.5253601,1.4349213-1.7719269,2.5126038-3.1525574,3.1674805
				c-1.3806305,0.6548615-2.9024353,0.9405212-4.4047318,1.2199707c0.7603683,0.4356384,1.5886154,1.2496643,2.424324,1.513382
				c2.4648743,0.7778625,4.2626343-0.4607697,4.8869781-2.5811157
				C135.1019287,131.6873474,135.2233582,130.72052,135.0058746,129.5292664z"/>
			<g>
				<path class="st2" d="M73.2204895,156.5507965c-0.0092773,0-0.0180664-0.0004883-0.0273438-0.0009766
					c-2.9990234-0.2133789-5.9013672-1.8979492-7.5737305-4.3964844c-0.2765656-0.4125061,0.3482132-0.8292542,0.6230469-0.4169922
					c1.546875,2.3100586,4.2304688,3.8676758,7.0043945,4.0654297c0.206543,0.0146484,0.3618164,0.1938477,0.347168,0.4008789
					C73.5798645,156.3999176,73.4153137,156.5507965,73.2204895,156.5507965z"/>
			</g>
			<g>
				<path class="st2" d="M74.9079895,153.5996246c-0.1027527-0.0290527-3.728775-0.0424347-6.2519531-3.2368164
					c-0.3067932-0.3884583,0.2793808-0.8552246,0.5888672-0.4648438c1.362793,1.7255859,3.4873047,2.8291016,5.6835938,2.9521484
					C75.4104233,152.8774567,75.3903656,153.5996246,74.9079895,153.5996246z"/>
			</g>
			<g>
				<path class="st2" d="M77.0334778,150.9433746c-2.2138672-0.425293-4.2675781-1.5791016-5.7822266-3.2490234
					c-0.3336487-0.3675995,0.2221527-0.8701782,0.5556641-0.5039063c1.40625,1.550293,3.3125,2.621582,5.3681641,3.0166016
					C77.6658554,150.3014221,77.5154877,151.041748,77.0334778,150.9433746z"/>
			</g>
			<g>
				<path class="st2" d="M200.0334778,76.5595856l3.3920898-8.6303711c0.1829376-0.462059,0.8793488-0.1871185,0.6982422,0.2744141
					l-3.3920898,8.6303711C200.5503845,77.2941971,199.8513184,77.0237885,200.0334778,76.5595856z"/>
			</g>
			<g>
				<path class="st2" d="M202.197052,75.8188629l3.6005859-7.7788086c0.2088013-0.4479294,0.8894348-0.1361237,0.6806641,0.3154297
					l-3.6005859,7.7788086C202.6699677,76.5817566,201.9883118,76.2703552,202.197052,75.8188629z"/>
			</g>
			<g>
				<path class="st2" d="M204.0168762,77.1504059l3.5673828-7.1772461c0.2201233-0.4437637,0.8931274-0.1108704,0.671875,0.3339844
					l-3.5673828,7.1772461C204.4683075,77.9252625,203.7954102,77.5956802,204.0168762,77.1504059z"/>
			</g>
			<path class="st9" d="M107.022583,39.2248611c4.2166748-7.8315639,13.1500244-12.3903084,22.0269623-12.950449
				c8.8769226-0.5601406,17.662735,2.4028072,25.4794464,6.6469479c6.7118835,3.6442642,12.9144745,8.2558632,19.9437256,11.2424088
				c7.0292664,2.9865417,15.3398895,4.1832924,22.1891174,0.8042221c-4.0782928,9.2359581-17.0541687,15.101284-34.8783264,7.524231
				c-12.3036499-5.2302856-22.9042358-14.5813293-36.2268753-16.941597
				C118.9648132,34.3828049,112.521965,35.4074326,107.022583,39.2248611z"/>
			<ellipse class="st11" cx="92.3031235" cy="251.4984131" rx="38.6081772" ry="13.0171757"/>
			<ellipse class="st14" cx="92.3031235" cy="250.5756073" rx="29.5959473" ry="9.9786024"/>
			<ellipse class="st11" cx="71.88134" cy="252.7097473" rx="4.0461116" ry="2.1341457"/>
			<ellipse class="st11" cx="72.5778275" cy="246.1691284" rx="4.0461116" ry="2.1341457"/>
			<ellipse class="st11" cx="83.3892822" cy="249.0297241" rx="3.5195723" ry="2.1341457"/>
			<ellipse class="st11" cx="86.9088516" cy="254.8439026" rx="3.5195723" ry="2.1341457"/>
			<ellipse class="st11" cx="102.016716" cy="254.1559601" rx="3.5195723" ry="2.1341457"/>
			<ellipse class="st11" cx="111.6329956" cy="251.0005035" rx="3.5195723" ry="2.1341457"/>
			<ellipse class="st11" cx="96.0261154" cy="248.8663483" rx="3.5195723" ry="2.1341457"/>
			<ellipse class="st11" cx="105.0162506" cy="244.822464" rx="3.5195723" ry="2.1341457"/>
			<ellipse class="st11" cx="90.4284286" cy="244.0349884" rx="3.5195723" ry="2.1341457"/>
			<polygon class="st8" points="139.5926208,251.4383087 139.5926208,255.3005676 213.5335999,255.3005676 225.6677856,238.1381226 
				225.6677856,234.6375732 			"/>
			<polygon class="st11" points="213.1764221,251.5801392 225.6677856,234.6375732 159.201004,234.6375732 139.5926208,251.4383087 
							"/>
			<ellipse class="st14" cx="185.167923" cy="242.688324" rx="21.696125" ry="6.2775593"/>
			<ellipse class="st12" cx="185.167923" cy="242.688324" rx="18.2628059" ry="4.3503547"/>
			<path class="st1" d="M130.7544708,116.4622116c-5.0925217-1.3264923-17.3058395,7.3046799-17.3929977,13.5251389
				c-6.9390411-6.917244-5.7278748-6.3405075-7.7839737-5.7751465c-4.2814789,1.2068939-8.1300583-1.2556076-8.4713898-3.8726349
				c-0.1936417-1.4423065,0.9052277-3.068985,2.3623047-3.0446396c-2.5995026-1.4184418-3.8726349-4.8795624-2.8028336-7.643631
				c1.064949-2.7640762,4.3228531-4.4777374,7.2031631-3.7856522c-0.5309982-5.0350647,4.2791748-9.315834,8.5827179-8.0598755
				c1.4715576,0.4308929,2.7543793,1.6023331,3.1416702,3.0836411c0.8374481-2.2218475,3.5192642-3.5580292,5.799263-2.8850937
				c2.2751465,0.672699,3.8048553,3.2528839,3.3013916,5.57164c2.6184998-0.2850189,4.8092499,2.8229141,2.8270111,5.2475815
				c-0.6658249,0.8165054-1.7960052,0.7998962-1.5490341,1.8490982c0.2178116,0.944046,1.6506653,2.2558823,2.2654648,3.0061111
				C129.0263367,114.6516342,129.8589325,115.5859985,130.7544708,116.4622116z"/>
			<path class="st4" d="M130.7544708,116.4622116c-5.0925217-1.3264923-17.3058395,7.3046799-17.3929977,13.5251389
				c-6.0079346-5.9890594-5.5355148-5.7198029-6.1817017-5.992836c2.4988251-7.7019501,11.0333633-11.937233,18.8259125-13.9125595
				c-0.4561157,0.9730453,1.4651413,2.6615601,2.2315445,3.5967941
				C129.0263367,114.6516342,129.8589325,115.5859985,130.7544708,116.4622116z"/>
		</g>
	</g>
</g>
</svg>
