<?xml version="1.0" encoding="utf-8"?>
<!-- Generator: Adobe Illustrator 22.0.1, SVG Export Plug-In . SVG Version: 6.00 Build 0)  -->
<svg version="1.1" id="Layer_1" xmlns="http://www.w3.org/2000/svg" xmlns:xlink="http://www.w3.org/1999/xlink" x="0px" y="0px"
	 viewBox="0 0 300 300" style="enable-background:new 0 0 300 300;" xml:space="preserve">
<style type="text/css">
	.st0{fill:#EDC1A4;}
	.st1{fill:#E2E0E0;}
	.st2{fill:#D39E81;}
	.st3{fill:#502E26;}
	.st4{fill:#CCCACA;}
	.st5{fill:#426800;}
	.st6{fill:#538705;}
	.st7{fill:#D47E44;}
	.st8{fill:#73341D;}
	.st9{fill:#BC672E;}
	.st10{fill:#96311D;}
	.st11{fill:#B83E21;}
	.st12{fill:#DE8D82;}
	.st13{fill:#EFBAB4;}
	.st14{fill:#FDD5D0;}
	.st15{fill:#6883CE;}
	.st16{fill:#3D4885;}
	.st17{fill:#3859AE;}
	.st18{fill:#864424;}
	.st19{fill:#FEFEFE;}
	.st20{fill:#FFFFFF;}
	.st21{fill:#A55925;}
	.st22{fill:#F4F2F2;}
	.st23{fill:#3C3E68;}
	.st24{fill:#E8997C;}
	.st25{fill:#F5C46B;}
	.st26{fill:#F7EBDA;}
	.st27{fill:#0E0C0D;}
	.st28{fill:#657C3A;}
	.st29{fill:#576C37;}
	.st30{fill:#7C995D;}
	.st31{fill:#36518C;}
	.st32{fill:#96B7E3;}
	.st33{fill:#A3B3DF;}
	.st34{fill:url(#SVGID_1_);}
	.st35{fill:url(#SVGID_2_);}
	.st36{fill:url(#SVGID_3_);}
	.st37{fill:url(#SVGID_4_);}
	.st38{fill:url(#SVGID_5_);}
	.st39{fill:#266AB7;}
	.st40{fill:#060E0D;}
	.st41{fill:#E0D4C6;}
	.st42{fill:#787E42;}
	.st43{fill:#D3D1D1;}
	.st44{fill:url(#SVGID_6_);}
	.st45{fill:url(#SVGID_7_);}
	.st46{fill:url(#SVGID_8_);}
	.st47{fill:#020508;}
	.st48{fill:#BAB6B6;}
	.st49{fill:#0F0B07;}
	.st50{fill:#2F3A68;}
	.st51{fill:#203257;}
	.st52{opacity:0.5;fill:#FFFFFF;}
	.st53{opacity:0.2;fill:#0E0C0D;}
	.st54{fill:#DD9F9B;}
	.st55{fill:#3E4D9B;}
	.st56{fill:url(#SVGID_9_);}
	.st57{fill:#5F6194;}
	.st58{fill:url(#SVGID_10_);}
	.st59{fill:url(#SVGID_11_);}
	.st60{fill:url(#SVGID_12_);}
	.st61{fill:url(#SVGID_13_);}
	.st62{fill:#070102;}
	.st63{fill:#100805;}
	.st64{fill:#FDA465;}
	.st65{fill:#2A50A1;}
	.st66{fill:#B76C39;}
	.st67{fill:#130602;}
	.st68{fill:url(#SVGID_14_);}
	.st69{fill:url(#SVGID_15_);}
	.st70{fill:url(#SVGID_16_);}
	.st71{fill:url(#SVGID_17_);}
	.st72{fill:url(#SVGID_18_);}
	.st73{fill:url(#SVGID_19_);}
	.st74{fill:#B4BDED;}
	.st75{fill:#100D08;}
	.st76{fill:#F6C85F;}
	.st77{fill:#FECF00;}
	.st78{fill:#2D59E2;}
	.st79{fill:#121F3A;}
	.st80{fill:#BBD0F5;}
	.st81{fill:#020202;}
	.st82{fill:#E2CFB7;}
	.st83{fill:#080805;}
	.st84{fill:#A87D7C;}
	.st85{fill:#182052;}
	.st86{fill:#EAEAEA;}
	.st87{fill:#DDDDDD;}
	.st88{fill:#3D4574;}
	.st89{fill:#ABC5F0;}
	.st90{fill:url(#SVGID_20_);}
	.st91{fill:#4159A8;}
	.st92{fill:#E0D0BD;}
	.st93{fill:#3D53AA;}
	.st94{fill:#0A0000;}
	.st95{fill:#BF6D36;}
	.st96{fill:#385DAE;}
	.st97{fill:#E0DCDC;}
	.st98{fill:#857E78;}
	.st99{fill:#0E213C;}
	.st100{fill:url(#SVGID_21_);}
	.st101{fill:#55608E;}
	.st102{opacity:0.3;fill:#F4F2F2;}
	.st103{opacity:0.3;}
	.st104{fill:#213987;}
	.st105{enable-background:new    ;}
</style>
<g id="Making_Food_1_">
	<g id="Making_Food">
		<g>
			<path class="st8" d="M129.5828552,52.2353134c0,0-2.5077057-1.6657372-2.4949417-4.3882599l0.5679245-8.8239021
				c0,0,10.1555023-5.6014633,10.5078278-5.8741188c0.3523254-0.2726517,9.5193481-3.8745041,9.5193481-3.8745041
				s7.9765015-1.5200081,11.4224091,3.1202927s2.3683472,8.0636978,2.2726746,11.9432106
				c-0.0956879,3.8795128,2.3557892,7.5563622,3.1127472,8.5730247c0.756958,1.0166588,1.4249725,6.114624-4.6985168,6.9832573
				c-6.1234741,0.8686333-10.4222107-2.6429596-10.4222107-2.6429596L129.5828552,52.2353134z"/>
			<path class="st26" d="M127.0879135,47.8470535c0,0-0.1164474-3.9138908,4.7710342-9.2854652
				c4.8874969-5.3715782,13.6074371-0.4372559,18.5448608,5.370285c0,0,2.6638489,3.3968887,4.5240479,2.7485313
				l1.7775269,0.9507713c0,0,0.8032684-5.0052452-1.2105408-10.1708031s-6.2716217-9.5060406-8.8345642-8.844635
				c-2.5629578,0.6614075-17.0312195,2.8523159-17.0312195,2.8523159S121.9815445,35.1154976,127.0879135,47.8470535z"/>
			<path class="st14" d="M133.8469391,32.1816025c-2.3626099,2.1234207-4.9232788,4.026371-7.6379318,5.6760826
				c-1.0325012,0.6274567-2.8123093,1.7301903-4.0936127,1.2895737c-1.0402527-0.3577232-1.3940964-1.7615623-1.188324-2.7232208
				c0.1999207-0.9343185,0.6360931-1.5499039,2.345726-4.3831139c-0.6963882,0.089756-1.4157028,0.1780205-2.0910339-0.0141678
				c-1.358902-0.3867207-1.8483353-1.7718849-0.7573242-2.7848034c1.3242035-1.2294178,7.8643799-3.2581921,14.3016663-2.2099152
				c4.5105286-3.0558014,11.325058-5.0806751,12.9084625-5.0305882c0.7356873,0.0232735,1.4929504,0.2791042,1.9790802,0.8317852
				c0.8034668,0.9134636,0.5350342,2.5419693-0.519104,3.1492367c1.1372223-0.1425228,2.2289124,0.808485,2.4603119,1.9310055
				c0.9637909,4.675539-8.8339844,7.6127567-16.1431427,3.7348042"/>
			<ellipse class="st13" cx="134.5836639" cy="29.5058365" rx="3.7708344" ry="4.1290727"/>
			<path class="st7" d="M159.6055603,70.845871l-0.9671631,7.4194107l-8.5753479,11.1354523l-6.9122925,1.16745
				l-6.5700226-13.269928c0.1616211-1.3507767-0.5854492,4.8932724,1.5805664-13.2106018
				c1.3570251-1.3546829-4.9152527,4.9067078,13.269928-13.246891c0.0574799,0.1006775,2.5776825,4.5144119,2.4181213,4.2349739
				l2.8898468,5.0718307l1.6986237,1.4508209L159.6055603,70.845871z"/>
			<path class="st11" d="M138.4916077,70.4213943l-1.1913605,0.8138199l0.8610535-7.1475601l11.3001709-11.2886581
				c0.0708313-0.0115166,0.1415405-0.0351295,0.2122345-0.047226c0.955719-0.2108994,2.2162628-0.4030724,2.9724884,0.2240448
				C155.6699524,54.9933777,154.722168,68.3080673,138.4916077,70.4213943z"/>
			<path class="st1" d="M191.9370422,77.4635544c-1.2871857,1.9360123-11.6898651,17.5822906-13.0104523,19.5685425
				c-0.6587524,3.4059601,2.3859558-12.3363037-6.4402924,33.2986526c0,0-45.3065338,2.5359039-47.9723282,0
				c-2.6657867-2.5243988-4.9069595-58.069191-4.9069595-58.069191c13.199234-6.6055908,18.6251221-6.6528168,18.7784729-6.6528168
				c1.014389,4.7302933,11.0641785,18.5427628,11.0641785,18.5427628s2.7130127-7.5847015,6.1572113-14.1902924
				c3.3146057-6.3809738,1.2740021-9.5895996,1.1323242-9.8136444c0.1416779,0.0944557,1.6279297,0.8610458,16.9502563,6.381546
				C190.5923462,72.6272888,191.9370422,77.4635544,191.9370422,77.4635544z"/>
			<path class="st4" d="M186.1572266,86.1569748L178.92659,97.0320969l-3.3382263,17.2330475
				c-4.598526-9.2811279-3.6379089-19.5551758-0.6015778-24.3927078
				C177.456604,85.9912491,181.7586823,84.0905151,186.1572266,86.1569748z"/>
			<path class="st15" d="M193.708786,196.6981201h-87.2866364c0.0251999-0.1005707,7.5556412-52.12323,18.0942383-66.3617401
				l-1.4626236-7.6077423c0.353775-1.0856705,0.6486664-2.2767334,0.8964691-3.5507431
				c3.2437592-16.6553726-1.9462891-48.0666275-1.9462891-48.0666275l9.8846359-3.9158936l3.9632568,32.8148499
				c3.5976868,2.0999222,21.8334656,0.6957474,21.8334656,0.6957474l9.2948608-36.6132507
				c0,0,6.192627,0.7786865,7.6199799,2.7720566c0,0-6.9947815,35.0207443-7.2071686,45.8492126l8.5399323,0.3421173
				C175.9697418,113.1662979,193.9510651,144.8684387,193.708786,196.6981201z"/>
			<path class="st3" d="M182.6564178,128.6851349c-34.4547272,9.5423737-58.1400299,1.6512451-58.1400299,1.6512451
				l-1.4626236-7.6077423c0.353775-1.0856705,0.6486664-2.2767334,0.8964691-3.5507431
				c17.9999313,4.1169052,36.9198074,4.1048126,54.9079208-0.0587463
				C179.9552002,121.5957413,181.2644806,124.7928543,182.6564178,128.6851349z"/>
			<path class="st1" d="M128.8926239,124.8395004c0,0-0.3303223,1.9582367-3.1612625,4.3530502
				c-1.1795502,1.0021515-2.7955246,2.0757294-5.0130844,3.1256866c-7.501915,3.5386505-17.4337692,9.4243011-26.4809647-1.2388763
				c-9.0706635-10.686203-2.0051804-25.5014114,2.7484436-31.4700012c0,0,15.8884888-25.1834869,22.6118622-27.3536758
				l2.1940918,30.1257324c1.0840683-0.5008087,2.3591614-0.5248108,3.5032272,0.023613
				C125.2949371,102.4050293,131.6409149,108.4087524,128.8926239,124.8395004z"/>
			<path class="st4" d="M129.5741425,117.8982468c-0.0470886,2.0642166-0.2594757,4.3760834-0.6839447,6.9361877
				c0,0-0.330307,1.9576645-3.1612549,4.3524704c-2.8131866-2.4770508-4.0437698-11.0413437-4.5530396-14.7564621
				c-1.0724792-8.0249786,0.5926208-11.9416962,0.6133881-12.0431519l0.0352707-0.023613
				c1.1041946-0.2674637,1.0341034-0.3657303,1.663208-0.3657303c0.5307388-0.0115204,1.1559372,0.0944595,1.8047485,0.4129562
				C125.2925186,102.4109039,129.8101349,106.681015,129.5741425,117.8982468z"/>
			<path class="st3" d="M182.6564178,128.6851349c-34.4547272,9.5423737-58.1400299,1.6512451-58.1400299,1.6512451
				L182.6564178,128.6851349z"/>
			<path class="st8" d="M174.7185364,276.6266785c-13.1662292,1.9269714-27.7714386,1.7392578-43.4503784-0.0256958
				c-5.0682831-0.5704956-10.0074768-2.1966248-14.2232208-5.0672607
				c-26.7316742-18.2022705-21.5596542-71.9989166-21.5596542-71.9989166H209.783493
				c0,0,5.6067963,60.6859283-27.1643982,74.9569244C180.1075897,275.5854187,177.4289703,276.2299805,174.7185364,276.6266785z"/>
			<ellipse class="st11" cx="152.6343384" cy="199.5355988" rx="57.1462135" ry="14.0309429"/>
			<path class="st8" d="M203.3077698,197.7303467c0,1.0966187-0.7902069,2.1586761-2.2646332,3.1608276
				c-0.0118103,0-0.0118103,0-0.0118103,0c-6.416687,4.329422-25.6551971,7.4787292-48.3969421,7.4787292
				c-23.6500244,0-43.513443-3.3969574-49.1044922-8.0091858c-1.0263519-0.8374329-1.5688934-1.7220917-1.5688934-2.6303711
				c0-5.8741302,22.6827087-10.6395569,50.6733856-10.6395569S203.3077698,191.8562164,203.3077698,197.7303467z"/>
			<path class="st13" d="M201.0313263,200.8911743c-6.416687,4.329422-25.6551971,7.4787292-48.3969421,7.4787292
				c-23.6500244,0-43.513443-3.3969574-49.1044922-8.0091858c-0.0118103-0.0708466-0.0118103-0.1531982-0.0118103-0.2240448
				c1.6276398,0.742981,3.396965-0.6957397,4.3524704-2.1943665c0.9555054-1.4974823,1.7457047-3.3261261,3.3971024-3.9631348
				c2.7955322-1.0966034,5.8977509,1.9582367,8.7523117,1.0142517c3.1644211-1.0656586,3.9261169-6.5576477,9.5425186-3.3025055
				c1.2620544,0.7314606,2.4415894,1.63974,3.8569946,2.0290833c4.1520386,1.1559296,8.6580048-3.6094971,12.7864227-3.8335419
				c3.9161835-0.2125244,7.3013306,3.2080536,11.2175293,3.1729279c3.7272644-0.0236206,7.0772858-3.1493073,10.7456665-2.5123138
				c2.4888306,0.4360046,4.399704,2.5474396,6.8531036,3.1493073c3.1612549,0.7902069,6.393219-1.0378571,9.6487732-1.0027313
				c2.3002167,0.0115204,4.4822083,0.9670258,6.5936432,1.8989105c2.34729,1.0378723,4.7063904,2.0878296,6.7705994,3.621582
				C199.1086578,199.0043488,200.0876312,199.9241486,201.0313263,200.8911743z"/>
			<path class="st11" d="M129.5705566,193.1247101c1.3471832,0.0707703,2.7967834,0.4093475,3.646698,1.4570007
				c0.9173279,1.1307678,0.8596191,2.8355713,0.1650543,4.1152954c-1.3225708,2.4367676-5.9635086,4.9232635-9.6914749,4.3214569
				c-2.987854-0.4823303-6.6248245-3.7540588-3.7662201-6.5317841
				C122.368103,194.1123199,126.225975,192.9490204,129.5705566,193.1247101z"/>
			<path class="st11" d="M155.661026,199.4708252c1.1740417,0.6644897,2.3202362,1.6143341,2.6133423,2.9311523
				c0.3163605,1.4212799-0.4960175,2.9211884-1.6886444,3.7565002c-2.2709503,1.5905609-7.5337524,1.7448578-10.6014404-0.4572296
				c-2.4586639-1.7649078-4.2535248-6.3157501-0.4558105-7.526001
				C148.774704,197.1407318,152.7462921,197.8211517,155.661026,199.4708252z"/>
			<path class="st11" d="M176.1430054,189.4145355c1.3341217,0.200119,2.7444,0.6766663,3.489502,1.8012695
				c0.8042145,1.2138214,0.5826721,2.9051514-0.2318573,4.1120758c-1.5509949,2.2981415-6.4097443,4.3263397-10.0624695,3.368454
				c-2.927536-0.7677155-6.2326813-4.3743439-3.1199493-6.8639984
				C168.8789215,189.7042236,172.8308716,188.9176941,176.1430054,189.4145355z"/>
			<path class="st7" d="M175.4381104,190.4843292c2.2740173,0.5006561,2.3746185,2.1788483,0.5128326,3.354599
				c-5.6219177,3.5503387-12.9432068,0.0198517-6.038208-2.8375854
				C171.6469421,190.2836914,173.6012421,190.0799103,175.4381104,190.4843292z"/>
			<path class="st7" d="M146.5162201,201.0683594c0.1364594-1.2796631,1.3287048-2.256485,2.5906372-2.5088959
				s2.5670166,0.077774,3.7757568,0.5195313c0.8658295,0.3164368,1.7313995,0.7053223,2.3857422,1.35466
				c2.2240143,2.2069702-0.3235931,5.1197815-2.9379272,4.8016968
				C150.2162628,204.9781189,146.2216187,203.8312531,146.5162201,201.0683594z"/>
			<path class="st7" d="M128.4477844,194.2138062c2.4950714-0.1120148,3.1212006,1.4559784,2.2707062,2.7549286
				c-0.7521973,1.1488342-3.609375,2.6290894-4.8630676,3.1902618c-0.9980087,0.4467163-2.0965881,0.8287659-3.167572,0.6075287
				c-0.895668-0.1850891-1.899437-1.0721893-1.9584427-2.0422668c-0.0611115-1.0046387,0.9070053-1.7154236,1.624382-2.2661285
				C124.0963516,195.1204071,126.2504425,194.312439,128.4477844,194.2138062z"/>
			<path class="st6" d="M113.6008911,196.6288452c0.6316299-0.1343079,1.4579468,0.0120239,1.6402054,0.6315308
				c0.1966553,0.6684418-0.6080704,1.6359558,0.9164734,2.1102142c0.3941193,0.1226044,0.8183365,0.1791534,1.1659698,0.4016571
				c0.5341339,0.3418884,0.7764282,1.07724,0.550148,1.6696777c-0.2262802,0.5924225-0.8971024,0.9790192-1.5231476,0.8777618
				c-0.8847504-0.1430969-1.5725403-1.113739-2.4563751-0.9650879c-0.5551376,0.0933685-0.9429626,0.6083984-1.4698334,0.8066406
				c-0.445343,0.1675568-0.9770126,0.0801544-1.3453674-0.2212372
				C109.1384735,200.3519287,111.8670883,196.9974823,113.6008911,196.6288452z"/>
			<path class="st6" d="M167.6143799,199.9470673c0.6316376-0.1343079,1.457962,0.0120239,1.640213,0.6315308
				c0.1289825,0.4384308-0.137207,0.921875-0.0047455,1.3592834c0.2545929,0.840744,1.4620819,0.7524872,2.0871887,1.1526031
				c0.5341339,0.3418732,0.7764282,1.0772247,0.5501556,1.6696625c-0.2262878,0.5924225-0.89711,0.9790192-1.5231476,0.8777618
				c-0.8847504-0.1430969-1.5725555-1.113739-2.4563904-0.9650879c-0.55513,0.0933685-0.9429474,0.6083984-1.4698334,0.8066406
				c-0.445343,0.1675568-0.977005,0.0801544-1.3453522-0.2212372
				C163.1519775,203.6701508,165.8805847,200.3157196,167.6143799,199.9470673z"/>
			<path class="st6" d="M187.1685486,194.7629547c0.6316376-0.1342926,1.4579468,0.0120392,1.640213,0.6315308
				c0.1966553,0.668457-0.608078,1.6359558,0.9164734,2.1102142c0.3941193,0.1226044,0.8183289,0.1791687,1.1659698,0.4016724
				c0.5341339,0.3418732,0.7764282,1.0772247,0.5501404,1.6696625c-0.2262726,0.5924377-0.8970947,0.9790192-1.5231476,0.8777618
				c-0.8847504-0.1430969-1.5725403-1.1137238-2.4563751-0.9650726c-0.55513,0.0933685-0.9429626,0.6083832-1.4698334,0.8066254
				c-0.445343,0.167572-0.977005,0.0801697-1.3453674-0.2212372
				C182.706131,198.4860535,185.4347534,195.1316071,187.1685486,194.7629547z"/>
			<path class="st6" d="M146.9944763,189.9197845c0.6316376-0.1342926,1.4579468,0.0120392,1.640213,0.6315308
				c0.1289825,0.438446-0.137207,0.9218903-0.0047455,1.3592987c0.2545776,0.840744,1.4620667,0.7524872,2.0871887,1.1525879
				c0.5341339,0.3418884,0.7764282,1.07724,0.5501404,1.6696625c-0.2262726,0.5924377-0.8970947,0.9790192-1.5231476,0.8777771
				c-0.8847504-0.1430969-1.5725403-1.113739-2.4563751-0.9650879c-0.5551453,0.0933685-0.9429626,0.6083832-1.4698334,0.8066254
				c-0.445343,0.167572-0.977005,0.0801697-1.3453674-0.2212219
				C142.5320587,193.6428833,145.2606812,190.2884369,146.9944763,189.9197845z"/>
			<path class="st6" d="M135.848587,199.9470673c0.6316376-0.1343079,1.457962,0.0120239,1.640213,0.6315308
				c0.1966553,0.6684418-0.6080627,1.6359558,0.9164734,2.1102142c0.3941193,0.1226044,0.8183441,0.1791534,1.1659698,0.4016724
				c0.5341339,0.3418732,0.7764282,1.0772247,0.5501556,1.6696625c-0.2262878,0.5924225-0.89711,0.9790192-1.5231476,0.8777618
				c-0.8847504-0.1430969-1.5725403-1.113739-2.4563751-0.9650879c-0.5551453,0.0933685-0.9429626,0.6083984-1.4698334,0.8066406
				c-0.445343,0.1675568-0.9770203,0.0801544-1.3453674-0.2212372
				C131.3861847,203.6701508,134.1147919,200.3157196,135.848587,199.9470673z"/>
			<ellipse class="st3" cx="138.6369476" cy="196.1941833" rx="2.2049809" ry="1.18282"/>
			<path class="st3" d="M160.7062073,197.2581635c-0.7029572-0.0353699-1.4164734-0.0726776-2.0831604-0.2984009
				c-1.9133911-0.6478577-2.1557465-2.5049744-1.1379089-3.2096405c0.6787872-0.4699402,1.602417-0.1885376,2.3682709,0.1197662
				c0.6501617,0.261734,1.3138275,0.5436249,1.8139954,1.0345764s0.8057861,1.2438202,0.5787964,1.9069061
				s-1.1125336,1.0731201-1.6851044,0.6689301"/>
			<path class="st3" d="M181.2277374,203.4563751c-0.7029724-0.0353851-1.4164886-0.0726929-2.0831604-0.2984161
				c-1.9133911-0.6478424-2.1557617-2.5049591-1.1379242-3.2096252c0.6787872-0.4699402,1.6024323-0.1885529,2.3682861,0.119751
				c0.6501465,0.261734,1.3138123,0.5436249,1.8139801,1.0345764c0.5001678,0.4909668,0.8057861,1.2438354,0.5787964,1.9069214
				s-1.1125336,1.0731049-1.6851044,0.6689301"/>
			<path class="st3" d="M129.3609924,206.0478821c-0.8910065-0.0448303-1.9497681-0.1427917-2.3417358-1.0306549
				c-0.1818924-0.4120178-0.0896454-0.9576721,0.2806549-1.214035c0.4343338-0.300705,1.0253448-0.1206512,1.5153961,0.0766296
				c0.4160156,0.1674805,0.8406677,0.3478546,1.1607208,0.6620026c0.3200378,0.3141479,0.5155945,0.7958832,0.3703613,1.2201691
				c-0.1452484,0.4242859-0.7118835,0.6866608-1.0782623,0.4280396"/>
			<path class="st14" d="M163.6750946,165.6699982c-0.0161591,4.972702-0.8477631,11.8803101-5.3079681,14.0249939
				c-6.0158234,2.9016418-11.807312-1.9697571-16.0655975-7.548996c-4.0509491-5.3038635-1.0046844-12.9556274,5.40242-14.2375336
				L124.4078522,79.315239c-0.3657303-1.2267761,0.5543518-2.4650726,1.8518295-2.4650726
				c0.8493881,0,1.5923615,0.5540695,1.8400192,1.3678894l23.6027985,78.9123001l1.2503815-0.2476654
				C158.4967041,155.8091278,163.6985626,160.0319977,163.6750946,165.6699982z"/>
			<path class="st13" d="M161.8231201,176.0031433c-0.8020172,1.6391602-1.9108582,2.9488678-3.4559937,3.6918488
				c-6.0158234,2.9016418-11.807312-1.9697571-16.0655975-7.548996c-2.5949554-3.3975372-2.288269-7.785141,0-10.828476
				C143.1025085,171.1529999,152.010788,177.9967041,161.8231201,176.0031433z"/>
			<path class="st7" d="M140.4849701,107.164238c-0.7547913,0.943985-2.8544159,0.6490936-3.9631195,1.1092834
				c-1.4851837,0.6135941-1.9409332,1.8315277-2.9519653,2.9174042c-3.1605072,3.3944702-7.1957092,4.925087-11.1622238,4.812027
				c-1.2194519-0.0347595-1.0788727-0.4571686-1.2317581-1.5725098c-0.7314606-5.4732666-0.2123871-9.0234375,0.2240448-10.7691422
				c1.5024338-0.7187881,2.652298-2.0914993,3.2083359-3.6331024c0.5543518-1.5804138,1.2149734-2.8071899,2.4889755-3.9867401
				c4.3400116-3.9787598,10.4857178-3.0479965,11.6538086-0.8259201c0.4836578,0.920372,0.047226,2.323967-0.9789734,2.4892654
				c1.002594-0.2718506,2.1585236,0.3651581,2.4534149,1.356369c0.2948761,1.0027313-0.318512,2.1701889-1.3091431,2.4886856
				c0.70755-0.3184967,1.6276398,0.1180725,1.8400269,0.8610458c0.2123718,0.7314606-0.3421173,1.5925064-1.0970459,1.6984863
				C140.8388977,103.9440918,140.9451599,106.5744629,140.4849701,107.164238z"/>
			<path class="st7" d="M144.9221497,130.6449585c-5.8751221,0.4844666-8.7479401,4.4530029-8.2764282,6.5973511
				c0.2115326,0.9620819,1.2489014,1.7683411,2.1795197,1.4453888c-0.5246887,0.4689789-0.6786652,1.303833-0.3557892,1.9291382
				c0.3228607,0.6252899,1.0926971,0.983139,1.7788696,0.8269043c-0.4382782,0.540863-0.4417114,1.3881378-0.007843,1.9325256
				c0.4338837,0.5444031,1.2605591,0.7301025,1.8855743,0.4235535c-0.6324158,0.9437561-0.0990448,2.338974,0.8846741,2.9072418
				c2.1638031,1.2499847,4.7819519-0.6786499,6.3524017-1.4278564c2.1987152-1.0489349,4.7214661-1.4058838,7.1248779-1.0081177
				c2.8121338,0.4654083,4.4311676,0.0460968,3.9558868-3.2119293c-0.7560577-5.1826172-4.8288727-9.1506195-9.8818817-10.0357666
				C148.7030945,130.6977692,146.8097229,130.4893036,144.9221497,130.6449585z"/>
			<path class="st1" d="M151.4267273,131.9127655c4.1838531,9.4767151,7.5151672,18.7806396,9.4689331,27.8058014
				c0,0,35.1440887-11.8267975,40.7670441-22.7641754s2.2953644-30.76297-9.7290192-59.4899292
				c0,0-24.0394592-4.3024597-14.6685333,31.1983414c0,0,1.2341919,5.8792496,0.3748169,10.2087936
				C177.6399689,118.8715973,154.7005768,128.7352448,151.4267273,131.9127655z"/>
			<path class="st4" d="M121.8245621,102.363678c-0.7965088-0.0610352-1.5924377-0.0288086-2.3805237,0.0664063
				c-5.9544144,0.5450592-12.1261368,3.9178467-15.5925293,5.6137695c4.985733-3.3852158,9.6813507-5.0911789,13.1767578-5.6259766
				C118.6127701,102.1825256,120.2475052,102.051178,121.8245621,102.363678z"/>
			<path class="st4" d="M120.8705063,102.3729553c-6.3592148-2.5127411-12.002182-3.481308-18.9561462-3.1787109
				C108.0224533,98.1340637,115.3419952,99.3265305,120.8705063,102.3729553z"/>
			<path class="st4" d="M177.7193909,118.7264709c7.8120117,0.3268204,15.4524078,6.2565079,17.6735229,13.7993164
				C192.416275,125.3417282,185.7861023,119.9244385,177.7193909,118.7264709z"/>
			<g>
				<path class="st3" d="M130.2239075,99.500946c2.2636719-1.6845703,5.1728516-2.4868164,7.9780273-2.1987305
					c0.2060547,0.0209961,0.355957,0.2050781,0.3349609,0.4111328c-0.0205078,0.2060547-0.2089844,0.3623047-0.4111328,0.3349609
					c-2.6254883-0.2685547-5.3393555,0.4804688-7.4536133,2.0541992
					C130.2789154,100.3960114,129.8240662,99.7984695,130.2239075,99.500946z"/>
			</g>
			<g>
				<path class="st3" d="M132.3718567,102.5141296c2.1455078-1.0952148,4.5493164-1.581543,6.9521484-1.3999023
					c0.4950714,0.0374527,0.4384613,0.7857819-0.0556641,0.7480469c-2.2636719-0.1674805-4.5322266,0.2880859-6.5556641,1.3198242
					C132.2710419,103.4068527,131.9314575,102.7389908,132.3718567,102.5141296z"/>
			</g>
			<g>
				<path class="st3" d="M132.9031067,106.8730164c1.7905273-1.9638672,4.4511719-3.0737305,7.0981445-2.9848633
					c0.4717865,0.0177994,0.4979401,0.732872-0.0263672,0.75c-2.4331055-0.0805664-4.8730469,0.9375-6.5175781,2.7397461
					C133.1252136,107.7451706,132.5688324,107.2401276,132.9031067,106.8730164z"/>
			</g>
			<g>
				<path class="st3" d="M138.3869934,138.6493835c1.6430664-1.387207,3.7270508-2.2548828,5.8686523-2.4423828
					c0.4989624-0.0377502,0.5557404,0.7041779,0.0654297,0.7470703c-1.9887695,0.1743164-3.9243164,0.9799805-5.449707,2.2685547
					C138.4879913,139.5425415,138.010437,138.9678192,138.3869934,138.6493835z"/>
			</g>
			<g>
				<path class="st3" d="M139.8283997,141.3910828c1.2817383-1.3637695,3.0830078-2.2744141,4.9414063-2.4985352
					c0.1992188-0.0258789,0.3925781,0.121582,0.4169922,0.3271484c0.0249023,0.2055664-0.121582,0.3925781-0.3271484,0.4169922
					c-1.6865234,0.2041016-3.3212891,1.0302734-4.484375,2.2680664
					C140.0337524,142.2664948,139.4896088,141.7520599,139.8283997,141.3910828z"/>
			</g>
			<g>
				<path class="st3" d="M141.884552,143.773407c1.1069336-1.0639648,2.484375-1.8007813,3.9833984-2.1298828
					c0.4857025-0.1055908,0.6447754,0.6261139,0.1611328,0.7324219c-1.3642578,0.2998047-2.6176758,0.9702148-3.625,1.9384766
					C142.0462799,144.6578064,141.5263062,144.1175995,141.884552,143.773407z"/>
			</g>
			<path class="st7" d="M153.2906036,52.4963913c1.6309052,0.0673866,3.1500702-1.1611404,3.6833496-2.7038727
				c1.1679688-3.3787804-2.0408173-8.2015648-4.1802216-5.2015877c-0.629303,0.8824425-0.9219208,2.4862709-1.3133087,3.7792816
				c-1.4175568-5.1566467-7.6822662-5.281292-7.6822662-5.281292c-7.691452-1.0489082-9.2276611-4.0657692-9.2276611-4.0657692
				s-0.8117065,3.7785378-2.783432,5.3486214c-1.2791138,1.0185661-2.3700256,2.3972588-2.9595032,3.9293518
				c-0.615448,1.5996323-0.5449677,3.1721115-0.0898438,4.7835236c0.9867249,3.4934921,2.6011505,6.8086967,4.7420959,9.7402763
				c3.874649,5.3055382,6.1433868,5.6850777,10.0997162,4.4798851c2.7724152-0.8445587,5.4683075-2.1709366,7.4516907-4.2841797
				C153.6554108,60.2246323,154.5154419,56.1103897,153.2906036,52.4963913z"/>
			<path class="st8" d="M147.105835,47.2324867c0.3230743,0.1121559,0.6033325,0.4186935,0.5752258,0.7595253
				c-0.0387573,0.4703217-0.5751038,0.7054749-1.0268555,0.8419342c-4.7611237,1.4381828-4.7601929,1.4833679-5.2555542,1.4352455
				c-0.6230927-0.0605354-1.1039886-0.5451164-0.5315399-0.9971313c0.4785309-0.3778572,1.0759888-0.6660957,1.6229095-0.9293404
				C143.5691376,47.8233261,146.1753235,46.9094582,147.105835,47.2324867z"/>
			<path class="st8" d="M130.1506958,51.1177521c-0.254364,0.2286034-0.3939056,0.6198006-0.2359009,0.9231033
				c0.2180176,0.4185371,0.8035736,0.4274368,1.2729034,0.3781433c4.9463959-0.5195122,4.9630585-0.4775009,5.4010468-0.7138481
				c0.5509338-0.2972984,0.806427-0.9303894,0.1035309-1.125206
				C134.9982452,50.1104202,130.9933167,50.3604164,130.1506958,51.1177521z"/>
			
				<ellipse transform="matrix(0.9545985 -0.2978954 0.2978954 0.9545985 -8.8635349 45.6207809)" class="st8" cx="145.2353668" cy="51.8888054" rx="1.234284" ry="1.553345"/>
			
				<ellipse transform="matrix(0.9545985 -0.2978954 0.2978954 0.9545985 -10.0872297 42.3868828)" class="st8" cx="134.0141449" cy="54.2864037" rx="1.234284" ry="1.553345"/>
			<path class="st8" d="M138.6165924,58.0112762c-0.0697479,1.173275,0.4781494,1.5000153,1.5674286,1.0337524
				c0.5796509-0.2481117,1.1481476-0.5222473,1.7032318-0.8213043c0.2121429-0.114296,0.4460449-0.2653351,0.4782562-0.5041504
				c0.0435181-0.3225708-0.3376465-0.566082-0.6609039-0.5279541c-0.3232574,0.0381317-0.5926208,0.2531891-0.8640137,0.432869
				c-0.7427826,0.4917374-1.2622986,0.2514305-1.4377594-0.3688202c-0.1230621-0.435051-0.0095673-1.0153351-0.0766907-2.2605553
				c-0.0189514-0.3517723,0.0358276-1.0387993-0.1452789-1.3459435
				C138.5966949,52.6584702,138.7542572,55.6959457,138.6165924,58.0112762z"/>
			<path class="st11" d="M144.5971069,58.6361084c-1.616272,2.0734673-4.5891724,2.9707336-7.0826874,2.137661
				c0.6494904,2.961235,4.2425995,3.762043,6.1600494,1.651268
				C144.5642548,61.445549,145.0591583,59.8761215,144.5971069,58.6361084z"/>
		</g>
	</g>
</g>
</svg>
