<?xml version="1.0" encoding="utf-8"?>
<!-- Generator: Adobe Illustrator 22.0.1, SVG Export Plug-In . SVG Version: 6.00 Build 0)  -->
<svg version="1.1" id="Layer_1" xmlns="http://www.w3.org/2000/svg" xmlns:xlink="http://www.w3.org/1999/xlink" x="0px" y="0px"
	 viewBox="0 0 300 300" style="enable-background:new 0 0 300 300;" xml:space="preserve">
<style type="text/css">
	.st0{fill:#EDC1A4;}
	.st1{fill:#E2E0E0;}
	.st2{fill:#D39E81;}
	.st3{fill:#502E26;}
	.st4{fill:#CCCACA;}
	.st5{fill:#426800;}
	.st6{fill:#538705;}
	.st7{fill:#D47E44;}
	.st8{fill:#73341D;}
	.st9{fill:#BC672E;}
	.st10{fill:#96311D;}
	.st11{fill:#B83E21;}
	.st12{fill:#DE8D82;}
	.st13{fill:#EFBAB4;}
	.st14{fill:#FDD5D0;}
	.st15{fill:#6883CE;}
	.st16{fill:#3D4885;}
	.st17{fill:#3859AE;}
	.st18{fill:#864424;}
	.st19{fill:#FEFEFE;}
	.st20{fill:#FFFFFF;}
	.st21{fill:#A55925;}
	.st22{fill:#F4F2F2;}
	.st23{fill:#3C3E68;}
	.st24{fill:#E8997C;}
	.st25{fill:#F5C46B;}
	.st26{fill:#F7EBDA;}
	.st27{fill:#0E0C0D;}
	.st28{fill:#657C3A;}
	.st29{fill:#576C37;}
	.st30{fill:#7C995D;}
	.st31{fill:#36518C;}
	.st32{fill:#96B7E3;}
	.st33{fill:#A3B3DF;}
	.st34{fill:url(#SVGID_1_);}
	.st35{fill:url(#SVGID_2_);}
	.st36{fill:url(#SVGID_3_);}
	.st37{fill:url(#SVGID_4_);}
	.st38{fill:url(#SVGID_5_);}
	.st39{fill:#266AB7;}
	.st40{fill:#060E0D;}
	.st41{fill:#E0D4C6;}
	.st42{fill:#787E42;}
	.st43{fill:#D3D1D1;}
	.st44{fill:url(#SVGID_6_);}
	.st45{fill:url(#SVGID_7_);}
	.st46{fill:url(#SVGID_8_);}
	.st47{fill:#020508;}
	.st48{fill:#BAB6B6;}
	.st49{fill:#0F0B07;}
	.st50{fill:#2F3A68;}
	.st51{fill:#203257;}
	.st52{opacity:0.5;fill:#FFFFFF;}
	.st53{opacity:0.2;fill:#0E0C0D;}
	.st54{fill:#DD9F9B;}
	.st55{fill:#3E4D9B;}
	.st56{fill:url(#SVGID_9_);}
	.st57{fill:#5F6194;}
	.st58{fill:url(#SVGID_10_);}
	.st59{fill:url(#SVGID_11_);}
	.st60{fill:url(#SVGID_12_);}
	.st61{fill:url(#SVGID_13_);}
	.st62{fill:#070102;}
	.st63{fill:#100805;}
	.st64{fill:#FDA465;}
	.st65{fill:#2A50A1;}
	.st66{fill:#B76C39;}
	.st67{fill:#130602;}
	.st68{fill:url(#SVGID_14_);}
	.st69{fill:url(#SVGID_15_);}
	.st70{fill:url(#SVGID_16_);}
	.st71{fill:url(#SVGID_17_);}
	.st72{fill:url(#SVGID_18_);}
	.st73{fill:url(#SVGID_19_);}
	.st74{fill:#B4BDED;}
	.st75{fill:#100D08;}
	.st76{fill:#F6C85F;}
	.st77{fill:#FECF00;}
	.st78{fill:#2D59E2;}
	.st79{fill:#121F3A;}
	.st80{fill:#BBD0F5;}
	.st81{fill:#020202;}
	.st82{fill:#E2CFB7;}
	.st83{fill:#080805;}
	.st84{fill:#A87D7C;}
	.st85{fill:#182052;}
	.st86{fill:#EAEAEA;}
	.st87{fill:#DDDDDD;}
	.st88{fill:#3D4574;}
	.st89{fill:#ABC5F0;}
	.st90{fill:url(#SVGID_20_);}
	.st91{fill:#4159A8;}
	.st92{fill:#E0D0BD;}
	.st93{fill:#3D53AA;}
	.st94{fill:#0A0000;}
	.st95{fill:#BF6D36;}
	.st96{fill:#385DAE;}
	.st97{fill:#E0DCDC;}
	.st98{fill:#857E78;}
	.st99{fill:#0E213C;}
	.st100{fill:url(#SVGID_21_);}
	.st101{fill:#55608E;}
	.st102{opacity:0.3;fill:#F4F2F2;}
	.st103{opacity:0.3;}
	.st104{fill:#213987;}
	.st105{enable-background:new    ;}
</style>
<g id="Making_Coffee_1_">
	<g id="Making_Coffee">
		<g>
			<g>
				<path class="st0" d="M144.6422729,91.0936203c0,0-9.7807312,2.3956604-12.6768951,2.3956604
					c-2.8960876,0-9.2345352-2.9018555-9.2345352-2.9018555l-6.878952-6.2815628l-0.4551468-5.9059448
					c0,0,4.9728851-0.3131104,6.6798248-5.2461243c0.6030807-1.746666,0.8249893-3.3797073,0.8591614-4.7624283
					c0.0606384-2.5669861-0.4791183-4.1102524-0.495079-4.2103958c27.5715103,0.3025589,11.410881,0.1255569,18.605629,0.2047501
					c-0.092392,1.9978561-0.7232819,9.0786972,0.8193665,10.4352875c1.5760803,1.5474701,5.3313446,2.6229248,7.3056946,2.8390656
					C151.1969299,77.8876114,144.6422729,91.0936203,144.6422729,91.0936203z"/>
				<path class="st2" d="M122.9356766,68.391449c3.4261246,6.7229614,11.4467697,9.8309326,18.9299698,6.4294815
					c-1.3562317-1.1867065-1.035675-7.1962051-0.9217529-9.006958c-4.3702545-2.2184029-9.6333466-3.3930206-14.9698639-3.049736
					c-0.1004944,0.1001358-3.378212,3.3660889-3.16922,3.1578445L122.9356766,68.391449z"/>
				<path class="st22" d="M224.2014465,74.3117599c0,0,10.2301483,6.2342529,9.8946381,16.2769699
					s-8.0727692,15.257309-18.2015381,16.1669464c-10.1287689,0.9096451-45.8608093,12.867218-45.8608093,12.867218
					l-12.533432-42.0978394l30.2587738-1.8210678l11.7064514-4.8961334L224.2014465,74.3117599z"/>
				<path class="st11" d="M199.934967,99.9253311c0.8887329-4.1956482,1.5986786-8.4711914,1.3824463-12.7544785
					c-0.5819702-11.5280914-7.9165344-17.8666687-15.0749359-17.6211014
					c-6.0100861,0.2061768-11.0277863,5.2567291-12.91008,10.9682922
					c-1.7565613,5.3301086-1.7584686,12.4063721-0.0617371,17.7578735c1.7275543-0.5510864,4.6143036-1.7458725,4.9599457-3.7179489
					c0.2326355-1.3273697-0.6155853-3.2599792-0.7776489-4.6109543c-0.2186584-1.8225861-0.2780304-3.6657639-0.0105591-5.4870071
					c0.5938721-4.0435257,3.1470032-8.0790558,7.0876007-9.1627502c3.5513458-0.9766541,7.4881897,0.7204971,9.8070526,3.5820923
					s3.195282,6.6775589,3.144165,10.3603821c-0.0511322,3.6828308-0.9516602,7.2946701-1.8468781,10.8674011"/>
				<path class="st22" d="M114.3125305,78.8512192l1.0868378-0.4522781c0,0,3.4610062,8.7903824,14.4518127,10.8460693
					c10.9908142,2.0556946,16.6700897-5.9771729,16.6700897-5.9771729s2.1287231-3.7878952,2.6485901-5.6056442l0.9262695-0.1835327
					l13.9098511,29.5199738l-6.505661,15.0331955l-21.2136536,2.6452255l-12.0007248-2.5060043l-7.19133-9.0362396
					l-2.3470993-14.4923172l-1.1611023-18.7950058L114.3125305,78.8512192z"/>
				<path class="st15" d="M106.8262787,81.1218109c0,0,5.4568787,31.7786255,5.759491,36.9033508
					s-11.8461838,20.7354584-13.5817261,27.5857849s-3.5737381,54.5401611-3.5737381,54.5401611l82.7153702-17.6029053
					l-1.2049713-65.0827789c0,0-7.023056-1.405571-19.4403992-39.9403687
					c-2.3622437-0.5806503-4.8470154-0.506752-7.4041748-0.0463943l11.4308167,35.2056885
					c0,0-22.3444214,3.9600143-40.5552597,2.5863876l-6.6591568-36.4195175
					C114.3125305,78.8512192,109.9338837,79.2967834,106.8262787,81.1218109z"/>
				<path class="st11" d="M227.7133942,133.2837219c-4.6884003,9.5987701-12.0623627,15.6297302-16.4719543,13.4791107
					l-43.4303131-11.4137726l24.7905121-50.690361l35.6238403,27.3507767
					C232.6350861,114.1601028,232.4074707,123.6905212,227.7133942,133.2837219z"/>
				<path class="st10" d="M196.0838013,97.7452469c-0.4836273,5.2230606-2.2418213,11.3568192-5.2517548,17.5130844
					c-6.8845673,14.0881042-17.7065887,22.9470215-24.1816559,19.7834625
					c-0.9957123-0.4836884-1.8264008-1.2290955-2.5034637-2.1847992c-3.7040558-5.2744598-2.5661011-17.1263657,3.2602539-29.046608
					c6.8846436-14.087822,17.706665-22.941185,24.1759644-19.7834549
					C195.2246246,85.8080521,196.7096558,91.019722,196.0838013,97.7452469z"/>
				<path class="st20" d="M196.0838013,97.7452469c-0.4836273,5.2230606-2.2418213,11.3568192-5.2517548,17.5130844
					c-6.8845673,14.0881042-17.7065887,22.9470215-24.1816559,19.7834625
					c-0.9957123-0.4836884-1.8264008-1.2290955-2.5034637-2.1847992
					c1.8195648-19.8862915,19.6859131-42.0775909,29.4276428-37.3137741
					C194.570282,96.0324707,195.4066772,96.7778625,196.0838013,97.7452469z"/>
				<path class="st0" d="M224.2049103,74.3100128c-1.7999878,3.9599609-5.4499512,6.8398438-9.4299927,8.5898438
					c-3.3499756,1.4799805-6.8299561,2.2802734-10.4099731,2.9301758c-0.6699829,0.1298828-1.3400269,0.2397461-2.0200195,0.3598633
					c-2.5799561-5.8999023-6.7199707-11.1801758-11.4500122-15.5498047c-1.6283112,1.2473984-1.0614471,3.6480484-1.5,5.4399414
					c-0.2299805,0.9296875-0.8299561,1.8696289-1.75,2.1298828c-0.7999878,0.2299805-1.789978-0.2797852-1.9599609-1.0400391
					c-0.0300293,0.6899414-0.5100098,1.3701172-1.1799927,1.5600586c-0.8000488,0.2397461-1.7300415-0.2299805-2.0200195-1
					c0.460022,0.9296875-0.1500244,2.2299805-1.1699829,2.4697266c-0.960022,0.2304688-2.0200195-0.5498047-2.1300049-1.5297852
					c-0.0100098,0.6801758-0.6400146,1.2998047-1.3300171,1.3901367c-0.75,0.0996094-1.5-0.3203125-1.9699707-0.9003906
					c-1.8015289-2.2136002-1.9649963-9.3623962,2.7699585-13.75c3.460022-3.2099648,9.0100098-4.2597694,13.7200317-4.0195351
					C202.3102112,61.895813,215.7331543,69.0651779,224.2049103,74.3100128z"/>
				<ellipse class="st13" cx="152.1649628" cy="243.6283875" rx="86.1677628" ry="34.362545"/>
				<ellipse class="st84" cx="152.1649628" cy="243.6283875" rx="55.0218773" ry="21.9419842"/>
				<path class="st7" d="M211.3566742,190.7463684c0,0,0.5037384,28.5315399-19.3261871,50.3632965
					s-50.7194366,17.725235-64.576622,11.2425842c-18.6355515-8.7180481-29.6837463-28.9261169-31.4643784-42.1101837
					c-1.780632-13.1840515-1.7291489-19.495697-1.7291489-19.495697H211.3566742z"/>
				<path class="st7" d="M96.2310715,193.4067078c0,0-7.8917999-5.6386871-15.7923203,0.4243011
					s-6.3616638,17.4566956-0.5771484,25.859848c3.8782959,5.6340027,16.2223053,11.6954803,26.9650192,13.3142395
					s-0.7358017-6.9165497-0.7358017-6.9165497s-15.0964737-2.3374939-20.7926788-13.162323
					c-5.6961975-10.8248291,0.7277374-13.5455627,3.6229248-12.1851959
					c2.895195,1.3603668,16.1396332,13.8690186,16.1396332,13.8690186L96.2310715,193.4067078z"/>
				<ellipse class="st26" cx="152.8085022" cy="190.7463684" rx="58.5481682" ry="24.3379745"/>
				<ellipse class="st7" cx="152.8085022" cy="190.7463531" rx="54.5653572" ry="20.3551083"/>
				<path class="st19" d="M182.6793976,173.5123596c3.2038116,0.5696411,7.3972321,2.8682404,9.6757355,5.1985168
					c1.791626,1.8325043,3.0063629,4.3945007,2.9127502,6.9884796c-0.1124115,3.1230621-2.0615845,5.310257-4.2125397,7.3237152
					l-0.2910767,0.1387939c0.1351471-0.7881775,2.2125702-2.6780548,2.708374-3.7203827
					c1.0541992-2.2168732,1.1300201-4.6783295,0.2913971-6.9736481
					C192.00177,177.6424866,186.9746857,175.5347443,182.6793976,173.5123596z"/>
				<path class="st19" d="M130.2242889,178.8379059l0.060318,0.0422058
					c-7.1498642,1.874527-15.8644485,5.5472107-15.8562622,13.238205c0.0042877,4.2250671,2.40345,6.2787628,5.1457672,9.0500793
					l-0.2897568-0.0570221c-4.0471878-2.3412628-5.846283-5.4806519-6.0895386-8.4369354
					C112.5663452,185.0302582,122.7344513,179.485199,130.2242889,178.8379059z"/>
				<path class="st19" d="M168.9984589,179.5934601c9.1525269-0.3103638,20.1706085,7.5632935,15.4982758,15.4521179
					c-2.8300171,4.7798462-9.3138123,6.7442017-14.3623047,7.9714813c-0.4268951,0.0962524-0.7690582,0.1770172-1.2108002,0.1107483
					c1.2157593-0.7467651,5.3488617-1.5951996,8.7655945-3.5225983c10.6432648-6.0040283,7.3306122-15.9809418-4.9763184-19.2238922
					C171.4797058,180.0566254,170.2313232,179.8947601,168.9984589,179.5934601z"/>
				<path class="st19" d="M142.0723877,183.8818054c3.7994995,0.6381989,7.8518219,3.0406494,9.2607269,6.7847595
					c0.3817291,1.0139923,0.5284271,2.7344055,1.1250763,3.5670929l0.2564545-0.15625
					c0.4470062-0.9651947,0.3708496-2.0273132,0.6055756-3.045929c0.8777008-3.8087921,9.1426849-8.2174072,16.2940369-6.3271942
					c4.7631226,1.2590485,5.8868103,4.0766754,4.9997253,6.6802368c-1.9250946,5.6488495-13.5535278,6.5811462-21.036972,11.8220825
					c-2.9420776-1.7438354-5.9939423-3.4886322-9.1924896-4.7228394c-4.4752655-1.727005-9.6305847-2.605835-13.5609283-5.482666
					c-2.1578522-1.5791473-3.3739624-3.2847595-1.7557068-5.3741913
					C131.7751312,184.1300659,137.6608429,183.1405334,142.0723877,183.8818054z"/>
				<path class="st19" d="M177.5745697,123.1024017c5.8743744-5.9191818-1.326004-9.3958282-4.3851929-6.6720886
					c-1.1017151,0.9809036-1.7388,2.3637161-2.5213776,3.6141052c-4.336731,6.9290771-13.3608246,10.0606842-16.3207703,17.8527527
					c-1.2011719,3.1620941-1.141098,6.6899261-2.3093719,9.8643341c-0.9875336,2.6833191-2.8072052,4.989502-3.8797913,7.6399689
					c-1.7593231,4.3474731-1.2354584,9.4802856,1.1572876,13.4247284c0.6781769,1.1179962,1.8944397,1.9530029,2.3219452,3.1672363
					c0.4173126,1.1853027,0.3071289,2.5456848-0.2955017,3.6483765c-0.6807861,1.2456665-2.4181824,2.5902863-0.8675842,5.0479431
					c0.4897156,0.7761536,1.1792908,1.4020386,1.8600311,2.0175323c2.2233734-1.300293,4.5090332-2.4825745,5.7118835-4.7601471
					c0.8118896-1.5372772,1.0174561-3.3846893,0.5633392-5.062851c-1.1815338-4.3662872-5.9698486-6.3578644-7.5125732-12.0157623
					c-0.6378021-2.3391418,0.7667389-4.9080353,2.1514282-6.6903534c1.182663-1.5222778,2.9796295-3.0352478,3.8074341-4.7862701
					c0.4003296-0.8468018,0.1413574-2.156189,0.1786957-3.0791321
					C157.8235931,131.7498322,170.2801666,130.4524536,177.5745697,123.1024017z"/>
				<path class="st0" d="M141.3949127,148.0199738c1.75,0,3.3400269,1.5898438,3.3400269,3.3300781
					c0,1.5297852-1.210022,2.9399414-2.6799927,3.2700195c0.9299927,0.0600586,1.8099976,0.8100586,2.0700073,1.7397461
					c0.3200073,1.1699219-0.1900024,2.4399414-1.0200195,3.3100586c-0.8399658,0.8798828-1.960022,1.4199219-3.0700073,1.8798828
					c-5.9599609,2.4501953-12.7399902,3.3300781-19.039978,2.0302734c-1.3300171-0.2700195-2.6300049-0.6401367-3.9000244-1.1201172
					l-5.6799927-6.9399414l-0.960022-10.9702148l8.5200195-4.3300781c4.321701-1.3449707,7.0514679-4.7085571,7.4100342-10.0200195
					c0.1099854-1.7299805-0.1300049-3.5097656,0.3699951-5.1796875c0.5-1.6601563,2.1399536-3.1899414,3.8200073-2.75
					c1.5799561,0.4101563,2.289978,2.2197266,2.6199951,3.8198242c0.7299805,3.5400391,0.75,7.2299805,0.0499878,10.7900391
					c2.2000122-0.8999023,4.4099731-0.8500977,6.7799683-0.7998047c3.433548,0.1003418,4.1637268,2.2897491,2.6900024,3.8798828
					c-0.4199829,0.449707-0.9499512,0.7900391-1.4899902,1.1000977c1.1900024-0.5102539,2.710022-0.1103516,3.5400391,0.909668
					c0.8999634,1.1103516,0.9499512,2.8100586,0.1999512,4.0400391
					C144.2349396,147.2397003,142.8149567,147.9696808,141.3949127,148.0199738z"/>
				<path class="st2" d="M120.9949493,163.5800323c-1.3300171-0.2700195-2.6300049-0.6401367-3.9000244-1.1201172
					l-5.6799927-6.9399414l-0.960022-10.9702148l8.5200195-4.3300781c0.1600342-0.0498047,0.3200073-0.0996094,0.4700317-0.1699219
					C118.2849274,147.879837,118.8249664,155.9599152,120.9949493,163.5800323z"/>
				<path class="st22" d="M106.8262787,81.1218109c0,0,8.1729431,33.3201065,6.7601318,38.2780609
					s-9.6288528,17.5333862-9.6288528,17.5333862l15.0155182,3.2914886c0,0-7.2983246,10.9060211-1.8784637,22.2384949
					c0,0-31.5523148,13.173996-49.8259125-7.2244415s13.6584854-56.6738663,17.7837677-60.9833603
					C91.2868881,87.7426147,100.0661545,82.3961411,106.8262787,81.1218109z"/>
				<g>
					<path class="st3" d="M131.7511292,143.7415924c-0.5003204-0.0385284-0.4311371-0.7991638,0.0585938-0.7475586
						c3.3793945,0.262207,6.8183594-0.5878906,9.6845703-2.3955078c0.4209595-0.2646942,0.8194733,0.3697205,0.4003906,0.6342773
						C138.8894043,143.1280365,135.2831421,144.0175323,131.7511292,143.7415924z"/>
				</g>
				<g>
					<path class="st3" d="M128.3033752,150.2003326c-0.494812-0.0345001-0.4424133-0.7837372,0.0527344-0.7480469
						c4.4746094,0.3149414,9.0849609-0.2827148,13.3310547-1.7299805c0.4668579-0.1604462,0.7136536,0.5488892,0.2421875,0.7099609
						C137.5233765,149.9339294,132.8010406,150.5182495,128.3033752,150.2003326z"/>
				</g>
				<g>
					<path class="st3" d="M131.4142151,156.3429108c-0.490448-0.086441-0.3560791-0.8256226,0.1298828-0.7387695
						c3.4580078,0.6071777,7.144043,0.1879883,10.3774414-1.1779785c0.4608917-0.1911469,0.7466583,0.499054,0.2919922,0.690918
						C138.8426361,156.5408173,135.0068665,156.973175,131.4142151,156.3429108z"/>
				</g>
				<g>
					<path class="st3" d="M178.858551,79.3187485c-0.9775391-3.3898926-0.7949219-7.0603027,0.5151367-10.3352051
						c0.1834106-0.4602814,0.8812561-0.1823578,0.6962891,0.2783203c-1.2480469,3.1208496-1.4223633,6.6186523-0.4907227,9.848877
						C179.7165222,79.5888443,178.9955597,79.7940598,178.858551,79.3187485z"/>
				</g>
				<g>
					<path class="st3" d="M182.4176331,78.2489243c-1.0102539-2.6525879-1.0327148-5.7038574-0.0615234-8.3713379
						c0.1707611-0.4655228,0.874527-0.2094498,0.7050781,0.2568359c-0.9106445,2.5004883-0.8896484,5.3608398,0.0576172,7.8474121
						C183.2953186,78.445343,182.594574,78.7124481,182.4176331,78.2489243z"/>
				</g>
				<g>
					<path class="st3" d="M185.4195862,77.6056137c-0.8012695-1.090332-1.0556641-2.6376953-0.6982422-4.2451172
						c0.3115234-1.4030762,1-2.6542969,1.6660156-3.864502c0.2384796-0.4348831,0.8962708-0.0739822,0.6572266,0.3613281
						c-0.640625,1.1640625-1.3027344,2.3676758-1.5908203,3.6657715c-0.3105469,1.3964844-0.1025391,2.7224121,0.5703125,3.6381836
						C186.3177338,77.5614014,185.7143707,78.004837,185.4195862,77.6056137z"/>
				</g>
				<path class="st3" d="M114.5630875,56.6584587c-4.0310059-4.8282356-5.2339478-11.4502106-5.1377716-17.7392197
					c0.0299149-1.9562225,0.2041168-4.0136604,1.2929382-5.6391335c1.0888214-1.6254768,3.3757782-2.602417,5.0760498-1.6345539
					c1.0816498,0.6157131,1.6608047,1.8136234,2.3636627,2.8407803s1.802269,2.0145302,3.0303879,1.8125648
					c1.5667496-0.2576599,2.1675644-2.1526527,2.4583969-3.7135849c0.4033508-2.1648197,0.8358459-4.3619118,1.8570633-6.3128757
					c3.1554718-6.0283184,9.5286713-5.0284119,11.4112854-0.93647c0.6418152,1.3950138,0.7031708,2.9829102,1.1585541,4.4494095
					s1.5415802,2.9482708,3.0740662,3.0455608c1.3938141,0.0884895,2.5792389-0.9921284,3.4125061-2.1129322
					c0.8332672-1.1208057,1.5576019-2.4082794,2.7789307-3.0856781c1.7593536-0.9758015,4.0877991-0.315733,5.5169525,1.1002502
					c1.4291687,1.4159813,2.1141815,3.4173489,2.5114746,5.3895702c0.7705536,3.8251839,0.6216125,7.8323402-0.4307709,11.5897675
					c-0.9963837,3.5574608-2.8917236,6.9903755-5.9126129,9.1169891
					c-4.2821808,3.0145073-10.5770569,2.7624283-14.6044617-0.5848465"/>
				<path class="st0" d="M144.7207336,67.8698273c2.1643524-2.5891037,3.6061554-5.7692604,4.3344879-9.0531197
					c0.3056183-1.3779602,0.6893768-3.0713654,0.5070343-4.489769c-0.2397003-1.8644333-0.9949951-3.8117027-1.4667053-5.6391182
					c-0.2116547-0.8199425-0.4834747-1.7230682-1.2126465-2.1536751c-1.3171539-0.7778549-3.4501801,0.591526-4.7124481-4.0613098
					c-0.2481079-0.914547-0.4720001-1.8697624-1.1640625-2.5612106c-0.3531342-0.3528252-0.8235779-0.5950165-1.3227539-0.5966988
					c-2.0398712-0.0068626-2.1271515,3.8821335-5.3544159,1.590519c-0.6786194-0.4818802-1.3422546-1.0651665-2.1649628-1.1911926
					c-1.0164795-0.1557007-1.5840607,0.5150375-1.6529083,1.3873901c-0.0924072,1.1707993-0.1644287,2.3123856-0.7485657,3.3672218
					c-0.7178192,1.2962379-2.3447952,2.2187729-3.708519,1.6393394c-0.812294-0.3451347-1.4917831-1.1730728-2.3679581-1.0669479
					c-0.8238144,0.0997849-1.3051834,0.9929008-1.4561539,1.8088875c-0.1509705,0.8159904-0.1256943,1.6968193-0.5495529,2.4102364
					c-0.4527206,0.7619858-1.4542847,0.3796463-2.3291779-0.0756416c-0.328331-0.1708565-0.7245407,0.0201988-0.8048096,0.3815155
					c-0.3054886,1.375164-0.3085556,3.3487396-0.3610306,4.5295944c-0.2709198,6.096859,1.151413,13.2141724,6.9576645,16.3983841
					C134.6393127,75.7019424,141.3483734,71.904007,144.7207336,67.8698273z"/>
				<path class="st0" d="M119.9588699,53.247963c-0.1880035-1.2500191-1.2584-2.2861633-2.4968109-2.5396042
					c-2.427742-0.4968376-4.810051,1.638504-4.6842575,4.6251373c0.1645508,3.9067421,4.2999344,6.1030769,7.331459,4.2364082"/>
				<path class="st0" d="M148.2028809,51.9925995c0.1669464-0.8911247,1.1722107-1.4662743,2.0687714-1.3314857
					c0.8965454,0.1347847,1.63237,0.8420219,2.0023499,1.6697159c0.3699951,0.8276939,0.423996,1.7619247,0.3811951,2.6675377
					c-0.1633453,3.4563103-2.0664825,4.5982552-4.3657227,4.098053c-0.9393158-0.2043495-1.802536-0.6590996-2.6480408-1.1164818"/>
				<path class="st3" d="M128.6753998,49.0200996c2.0585632-0.1108894,2.201828,1.4196014,0.5852661,1.7115822
					c-1.1386871,0.2056732-5.6952591,0.8536873-6.7481689,0.3585434c-0.5582123-0.2625084-0.8088913-0.7313271-0.2833481-1.0345612
					c0.5594788-0.3228226,1.5206223-0.3777046,2.1522903-0.5015068
					C125.7979889,49.2765236,127.2339783,49.097744,128.6753998,49.0200996z"/>
				<path class="st3" d="M144.6456604,50.0450706c0.5857544,0.4802399,0.5720978,1.4847679-0.9099121,1.3995018
					c-1.1552124-0.0664673-5.7369232-0.5025673-6.6447601-1.23032c-0.4812927-0.3858337-0.6153259-0.9002876-0.0334167-1.0721436
					C137.7052917,48.9508133,143.7776642,49.3334389,144.6456604,50.0450706z"/>
				<ellipse class="st3" cx="140.616272" cy="54.117691" rx="1.2493794" ry="1.6852347"/>
				<ellipse class="st3" cx="127.3903503" cy="54.117691" rx="1.2493794" ry="1.6852347"/>
				<path class="st22" d="M140.4483185,59.4531593c-3.769577,2.3299217-8.7333679,2.5931244-12.7282028,0.6749153
					c0.0605087,2.2587128,1.2453995,4.4615784,3.2088852,5.5797043c1.9634857,1.1181183,4.5114441,1.1295395,6.4848785,0.0290756
					C139.3873138,64.6363831,140.3675537,61.7112389,140.4483185,59.4531593z"/>
				<path class="st3" d="M149.1090851,55.8156395c0.2454681-0.8023872,0.2427521-1.6788254-0.0076599-2.4796791
					c0.3921051,0.1362762,0.8377686,0.0798683,1.2298584,0.2161446c0.3447876,0.4996681,0.4176636,1.1755447,0.1873322,1.7372284
					C150.2882843,55.8510208,149.7054138,55.7019005,149.1090851,55.8156395z"/>
				<path class="st3" d="M117.2087173,55.8156395c-0.2454605-0.8023872-0.2427521-1.6788254,0.0076599-2.4796791
					c-0.3920975,0.1362762-0.8377609,0.0798683-1.2298584,0.2161446c-0.3447876,0.4996681-0.4176636,1.1755447-0.1873322,1.7372284
					C116.0295181,55.8510208,116.6123886,55.7019005,117.2087173,55.8156395z"/>
				<path class="st10" d="M229.2763519,121.1587219c-10.0403595-5.7339706-21.3621521-12.0593491-31.4025269-17.7932129
					c1.1054535-4.0082779,1.0740051-7.8507462,0.4965973-11.9683838l30.1187134,22.351799
					C229.365799,116.3276749,229.5352783,118.781395,229.2763519,121.1587219z"/>
			</g>
			<path class="st47" d="M103.9575577,136.9334412c-8.1926041-2.9155579-15.7775269,2.0182343-22.0506744,6.2539063
				C87.7944794,137.5606537,96.7701645,133.1126709,103.9575577,136.9334412z"/>
			<path class="st2" d="M224.2049103,74.3100128c-1.7999878,3.9599609-5.4499512,6.8398438-9.4299927,8.5898438
				c-3.3499756,1.4799805-6.8299561,2.2802734-10.4099731,2.9301758c6.7399902-2.8203125,12.7700195-7.3500977,17.3200073-13.050293
				C222.5249176,73.2797394,223.3649445,73.7899933,224.2049103,74.3100128z"/>
		</g>
	</g>
</g>
</svg>
