<?xml version="1.0" encoding="utf-8"?>
<!-- Generator: Adobe Illustrator 22.0.1, SVG Export Plug-In . SVG Version: 6.00 Build 0)  -->
<svg version="1.1" id="Layer_1" xmlns="http://www.w3.org/2000/svg" xmlns:xlink="http://www.w3.org/1999/xlink" x="0px" y="0px"
	 viewBox="0 0 300 300" style="enable-background:new 0 0 300 300;" xml:space="preserve">
<style type="text/css">
	.st0{fill:#EDC1A4;}
	.st1{fill:#E2E0E0;}
	.st2{fill:#D39E81;}
	.st3{fill:#502E26;}
	.st4{fill:#CCCACA;}
	.st5{fill:#426800;}
	.st6{fill:#538705;}
	.st7{fill:#D47E44;}
	.st8{fill:#73341D;}
	.st9{fill:#BC672E;}
	.st10{fill:#96311D;}
	.st11{fill:#B83E21;}
	.st12{fill:#DE8D82;}
	.st13{fill:#EFBAB4;}
	.st14{fill:#FDD5D0;}
	.st15{fill:#6883CE;}
	.st16{fill:#3D4885;}
	.st17{fill:#3859AE;}
	.st18{fill:#864424;}
	.st19{fill:#FEFEFE;}
	.st20{fill:#FFFFFF;}
	.st21{fill:#A55925;}
	.st22{fill:#F4F2F2;}
	.st23{fill:#3C3E68;}
	.st24{fill:#E8997C;}
	.st25{fill:#F5C46B;}
	.st26{fill:#F7EBDA;}
	.st27{fill:#0E0C0D;}
	.st28{fill:#657C3A;}
	.st29{fill:#576C37;}
	.st30{fill:#7C995D;}
	.st31{fill:#36518C;}
	.st32{fill:#96B7E3;}
	.st33{fill:#A3B3DF;}
	.st34{fill:url(#SVGID_1_);}
	.st35{fill:url(#SVGID_2_);}
	.st36{fill:url(#SVGID_3_);}
	.st37{fill:url(#SVGID_4_);}
	.st38{fill:url(#SVGID_5_);}
	.st39{fill:#266AB7;}
	.st40{fill:#060E0D;}
	.st41{fill:#E0D4C6;}
	.st42{fill:#787E42;}
	.st43{fill:#D3D1D1;}
	.st44{fill:url(#SVGID_6_);}
	.st45{fill:url(#SVGID_7_);}
	.st46{fill:url(#SVGID_8_);}
	.st47{fill:#020508;}
	.st48{fill:#BAB6B6;}
	.st49{fill:#0F0B07;}
	.st50{fill:#2F3A68;}
	.st51{fill:#203257;}
	.st52{opacity:0.5;fill:#FFFFFF;}
	.st53{opacity:0.2;fill:#0E0C0D;}
	.st54{fill:#DD9F9B;}
	.st55{fill:#3E4D9B;}
	.st56{fill:url(#SVGID_9_);}
	.st57{fill:#5F6194;}
	.st58{fill:url(#SVGID_10_);}
	.st59{fill:url(#SVGID_11_);}
	.st60{fill:url(#SVGID_12_);}
	.st61{fill:url(#SVGID_13_);}
	.st62{fill:#070102;}
	.st63{fill:#100805;}
	.st64{fill:#FDA465;}
	.st65{fill:#2A50A1;}
	.st66{fill:#B76C39;}
	.st67{fill:#130602;}
	.st68{fill:url(#SVGID_14_);}
	.st69{fill:url(#SVGID_15_);}
	.st70{fill:url(#SVGID_16_);}
	.st71{fill:url(#SVGID_17_);}
	.st72{fill:url(#SVGID_18_);}
	.st73{fill:url(#SVGID_19_);}
	.st74{fill:#B4BDED;}
	.st75{fill:#100D08;}
	.st76{fill:#F6C85F;}
	.st77{fill:#FECF00;}
	.st78{fill:#2D59E2;}
	.st79{fill:#121F3A;}
	.st80{fill:#BBD0F5;}
	.st81{fill:#020202;}
	.st82{fill:#E2CFB7;}
	.st83{fill:#080805;}
	.st84{fill:#A87D7C;}
	.st85{fill:#182052;}
	.st86{fill:#EAEAEA;}
	.st87{fill:#DDDDDD;}
	.st88{fill:#3D4574;}
	.st89{fill:#ABC5F0;}
	.st90{fill:url(#SVGID_20_);}
	.st91{fill:#4159A8;}
	.st92{fill:#E0D0BD;}
	.st93{fill:#3D53AA;}
	.st94{fill:#0A0000;}
	.st95{fill:#BF6D36;}
	.st96{fill:#385DAE;}
	.st97{fill:#E0DCDC;}
	.st98{fill:#857E78;}
	.st99{fill:#0E213C;}
	.st100{fill:url(#SVGID_21_);}
	.st101{fill:#55608E;}
	.st102{opacity:0.3;fill:#F4F2F2;}
	.st103{opacity:0.3;}
	.st104{fill:#213987;}
	.st105{enable-background:new    ;}
</style>
<g id="Meal_Order_1_">
	<g id="Meal_Order">
		<g>
			<g>
				<path class="st3" d="M93.2730942,265.7645874c4.9902878,4.7419128,27.2011948,7.0597229,34.4032898,6.8703003
					c5.0752792-0.1332703,10.2198563-1.1195374,14.7673416-3.4310608c0.0376282,0.4259949,1.4436951,3.9094543-0.2947845,5.5848694
					c-2.7489929,2.649292-11.2406158,3.1827087-14.9087677,3.210907
					c-5.6187363,0.0426636-31.1550522-3.4561462-34.1844101-7.1954956
					c-0.7444839-0.9191589-0.1433182-2.9904785,0.0332413-4.0379028L93.2730942,265.7645874z"/>
				<path class="st11" d="M93.2730942,265.7645874c4.9902878,4.7419128,27.2011948,7.0597229,34.4032898,6.8703003
					c5.0752792-0.1332703,10.2198563-1.1195374,14.7673416-3.4310608l0.236145,0.9056702
					c-2.9261932,2.2525635-6.9618835,3.1767578-10.5394135,3.6690979
					c-9.8704987,1.3581848-31.1675949-1.0182495-39.0514526-7.0123901L93.2730942,265.7645874z"/>
				<path class="st3" d="M95.3908157,258.0227966c6.5754318,1.0567017,7.7588425,5.6175842,10.0665054,9.0263062
					c7.0929642-1.4275208,9.006546-0.4666443,15.6698761,1.3324585c3.8554153-4.1315613,8.242691-7.5879517,13.6722565-7.5128784
					c3.7280579,1.8439636,6.2227325,4.1081543,7.5677643,8.105896l0.0765076,0.229248
					c-4.5474854,2.3115234-9.6920624,3.2977905-14.7673416,3.4310608c-7.202095,0.1894226-29.413002-2.1283875-34.4032898-6.8703003
					C93.7663803,263.1187744,94.5177612,260.5654297,95.3908157,258.0227966z"/>
				<path class="st1" d="M98.8277054,247.9564667c6.9454193,0.2553711,13.8908386,0.5107269,20.8362579,0.766098
					c0.8084259,0.0297241,1.7735138,0.1559296,2.1264877,0.8838348c0.22509,0.4641724,0.1076584,1.0115051,0.0289764,1.521347
					c-0.1760025,1.1404419,0.6337891,2.552948,1.3924789,3.3834686c1.5209045,1.6648712,3.5687103,2.3183746,5.6081314,3.0542755
					c0.9145813,0.3300171,5.4335327,2.5518188,5.9794159,3.3031921c-5.4597473-0.07547-9.8238449,3.3888245-13.6722565,7.5128784
					c-6.6633301-1.7991028-8.5769119-2.7599792-15.6698761-1.3324585
					c-2.3253708-3.4348755-3.5081406-7.9723511-10.0665054-9.0263062
					C96.1330948,254.2571106,97.5123749,251.3347931,98.8277054,247.9564667z"/>
				<path class="st15" d="M101.1619949,241.902832c0.5324936-0.1031647,0.9867554,0.0995026,1.5079575,0.1913757
					c3.0052109,0.5309143,5.3836288,0.1017914,8.4258423,0.3112793c4.3878632,0.3022919,9.1292114,1.4415741,13.5233459,1.3822937
					c-0.3998337,0.7965546-2.3563995,6.4295197-2.7816315,7.2128906c-0.799675,0.0288544-13.3870392,2.0024109-24.1088181-0.3722076
					L101.1619949,241.902832z"/>
				<path class="st1" d="M157.7929535,249.6514282c-0.3001251-0.6739197,0.2178192-4.7935333,0.2821045-5.559021
					c1.0583954-0.1803284,2.2434845-1.0713806,3.3247681-1.1300201c2.3538971-0.1348572,4.1895752-0.1854706,6.5417633-0.344986
					c4.6500397-0.3217621,8.6864319-0.5720215,13.316391-1.0818787c0.1608734,1.612442,0.956543,6.7009888,1.6499786,8.1968231
					c0.6853027,1.4782715,1.9379578,2.6667023,3.3430023,3.4616241c2.0269318,1.146759,4.3595123,1.5996552,6.6358795,2.0912476
					s4.7392426,1.5362549,6.6463928,2.8727417c0.9338684,0.6544495,1.678833,1.2195129,1.4521942,2.3370972
					c-0.1777496,0.8765564-0.9738312,1.4721375-1.7269897,1.9544983
					c-8.3926239,5.3750305-18.9556427,7.2454529-28.6836395,5.0791321
					c-5.2409515-1.1671143-10.2870026-3.5914917-12.5701294-8.4986572
					c-0.4464874-0.9596558-0.5078888-2.5891418-0.5184174-3.6454163c-0.0114746-1.1504517-0.1165771-1.5303497,0.0354156-2.6707916
					C157.8311462,250.391571,158.2097931,250.0162048,157.7929535,249.6514282z"/>
				<path class="st3" d="M154.9545746,264.3256226c2.4697113,0.3918762,5.8764801,2.0258789,8.75,2.6724854
					c10.633194,2.3927612,23.5524902,3.9121399,34.3283539,1.7749634c2.7715912-0.5497437,5.4334259-1.4601135,8.0497589-2.5144348
					l0.3386841,1.5567017c0.004715,0.463501,0.0144348,0.935791-0.0583191,1.3945618
					c-0.1831512,1.15625-0.7306824,2.0010681-1.6881104,2.6652832c-9.7712402,6.7782898-47.0606689,0.5264893-49.6720886-3.4730835
					C154.2589722,267.262207,154.6874542,265.8008423,154.9545746,264.3256226z"/>
				<path class="st11" d="M154.9545746,264.3256226c2.4697113,0.3918762,5.8764801,2.0258789,8.75,2.6724854
					c10.633194,2.3927612,23.5524902,3.9121399,34.3283539,1.7749634c2.7715912-0.5497437,5.4334259-1.4601135,8.0497589-2.5144348
					l0.3386841,1.5567017c-2.1208649,0.743866-4.2611694,1.4582214-6.4504089,1.9737854
					c-11.346283,2.6715698-25.9006958,1.22052-37.1196594-1.6178589c-2.6756439-0.677063-5.7285156-1.4140015-8.0848846-2.8637695
					L154.9545746,264.3256226z"/>
				<path class="st3" d="M157.4862518,255.384613c2.809845,0.2762756,5.2251587,1.7323303,7.0029602,3.9068298
					c1.1919861,1.4579163,1.8837891,3.1425476,2.4940491,4.9046631c6.104187-0.2261047,11.8693695-0.4177246,17.8757324,1.0097961
					c6.836319-9.3501892,15.6577148-10.8821716,20.4707489-0.7078247c0.2728271,0.5767517,0.5136719,1.1691284,0.7529449,1.7605591
					c-2.616333,1.0543213-5.2781677,1.9646912-8.0497589,2.5144348
					c-10.7758636,2.1371765-23.6951599,0.6177979-34.3283539-1.7749634c-2.7509308-0.6190186-6.2935181-2.2827148-8.75-2.6724854
					C155.4437866,262.4829102,156.7267151,256.5443115,157.4862518,255.384613z"/>
				<path class="st15" d="M158.075058,244.0924072c1.0583954-0.1803284,2.2434845-1.0713806,3.3247681-1.1300201
					c2.3538971-0.1348572,4.1895752-0.1854706,6.5417633-0.344986c4.6500397-0.3217621,8.6864319-0.5720215,13.316391-1.0819244
					c0.0849762,0.8517303,0.9746246,5.0401764,1.1442871,5.8733978c-6.4425659,1.5604706-18.01091,3.3131714-24.4393463,2.3911896
					l-0.1699677-0.1486359C157.4928284,248.9775085,158.0107727,244.8578949,158.075058,244.0924072z"/>
				<path class="st3" d="M128.1341553,45.8657532c-4.1480331,6.482235-12.8505859,6.0971069-15.16716,3.3162766
					c-0.6806107-0.8170013-0.9131546-2.0762901-0.3142014-2.9549026c0.2162323-0.3171844,0.5200119-0.5632477,0.7701874-0.8544083
					c1.1971893-1.3933678-0.5217819-2.0346107-1.0757599-2.5131416c-0.7322845-0.6325493-0.9481049-1.7330589-0.6795273-2.6626892
					c0.62677-2.1694221,3.0743332-2.9072762,4.0037308-3.3658676c0.5184784-0.2558327,0.2947845-0.9526939,0.0568924-1.3641129
					c0.2192612-3.2597351,6.437355-5.144062,10.8103409-2.1519012c2.3944778,1.6383896,3.8696213,4.5386162,3.7835312,7.438694"/>
				<path class="st0" d="M138.7913513,55.2006569v7.3209839l-8.4814148,3.4204521l-7.3211975-3.4204521l-1.7186813-2.5023384
					l0.4242783-1.9353638c-0.0030136-0.1073494-0.4276199-15.2191582-0.4242783-15.1011353
					c14.4451828,2.6845856,9.8227615,1.8255272,10.7629929,2.000267c0.0340576,0.1013718,3.3623047,10.0085068,3.1562042,9.3950272
					L138.7913513,55.2006569z"/>
				<path class="st2" d="M134.8602142,53.3908615c-1.4547424,1.0348015-3.3683472,1.3595123-5.1434631,1.0781403
					c-3.364151-0.534153-5.9885254-2.903286-8.2735519-5.3729362l-0.1472397-5.1651344l0.1861343-0.8398895
					c0.0606689-0.0128937,0.1255722-0.0215645,0.1862411-0.034668l10.3647156,1.9266968L134.8602142,53.3908615z"/>
				<path class="st0" d="M137.0509491,35.0512962c0,0,2.6758728,3.4145088,1.2549438,8.535984
					c-1.4209442,5.1214752-7.0122375,8.1291542-11.9337921,6.9723701c-4.9215469-1.1567802-7.4189835-7.1329346-7.4189835-7.1329346
					c-1.8969116,0.1257668-3.6793823-1.3501015-3.674202-3.2511749c0.0022583-0.8277969,0.3430023-1.6899796,1.0302277-2.1514702
					s1.7337723-0.396904,2.2413177,0.2570419c0.2634506,0.339447,0.3568954,0.7764931,0.5302658,1.169651
					s0.4905319,0.7829018,0.9195099,0.8075485c0.60495,0.0347519,1.0024185-0.6979103,0.912117-1.2970886
					s-0.4842606-1.0997391-0.7706146-1.6337547c-3.7002487-6.9004803,9.4148865-11.0878239,15.4668274-7.7647953
					C138.2639008,31.0206738,138.3939056,34.0619087,137.0509491,35.0512962z"/>
				<path class="st3" d="M117.6791077,33.7962952c-0.9151306,1.4568481,0.2438049,3.6736641,1.4341354,4.6625519
					c0.1307449,0.1086159,0.2729797,0.2130661,0.439064,0.2492256c0.8123245,0.1768532,1.6695862-2.7501564,2.0347137-3.3594513
					c2.2719421-3.7911949,6.1003571-6.0836506,10.1361694-6.5542564
					C126.2531815,27.145092,120.3504028,29.543705,117.6791077,33.7962952z"/>
				<path class="st15" d="M150.5848083,52.5725327l27.9553833,15.3713226l-6.7231598-18.0287895
					c0,0,4.9317017-2.255619,12.1293335,0.9555321s28.5437469,21.325264,26.9343719,35.6605148
					c-1.6093597,14.3352585-18.6704102,19.8842773-22.8023987,18.9758224
					c-4.1319733-0.9084625-40.1821136-17.5581284-40.1821136-17.5581284l-4.2032928-24.6710892L150.5848083,52.5725327z"/>
				<path class="st11" d="M185.9782104,244.6839905c-12.9926758,4.9357605-35.7960663,2.6367798-35.7960663,2.6367798
					c-9.7631989-91.1545563-6.1277924-56.2090149-13.888855-133.4082642c0,0,22.1365204-7.3729935,29.1632385,6.5937729
					C172.4789124,134.468811,185.9782104,244.6839905,185.9782104,244.6839905z"/>
				<path class="st3" d="M157.6201935,185.0024414c-0.0952301,21.6342316-5.3425446,45.8792572-8.0224609,56.8718262
					l-7.1869507-67.1111755l-3.4375763-34.1983643l11.2176056-14.6119461
					C150.1908112,125.9527817,157.7501068,155.9343414,157.6201935,185.0024414z"/>
				<path class="st11" d="M95.6104279,246.7127228c0,0,21.7579422,3.2069702,31.5395203,1.9474335
					c0,0,23.7449799-87.6693115,26.2566376-119.055069v-13.0184021l-38.3424072-0.8800278
					c0,0-5.3702774,59.3615952-7.9754944,72.7539291C104.4834747,201.8529205,95.6104279,246.7127228,95.6104279,246.7127228z"/>
				<path class="st15" d="M167.7944489,119.1165314c0,0-9.6590118,4.2947998-25.8079529,5.1391296
					c-8.0311737,0.419838-17.6642456-0.0131073-28.5181427-2.2514038c0.0019989-0.1001968,4.3026047-20.943222-0.9092331-32.3367691
					c-5.1953583-11.3517456-5.6369781-27.6610298-5.6369781-27.6610298s0.9914703-0.4371719,2.8877258-1.0605927
					c1.8356857-0.6018524,4.5243759-1.3855133,7.9921799-2.1216049c0.0044403,0,0.0044403,0,0.008667,0
					c1.2036057-0.2553711,2.4981079-0.5065155,3.8836212-0.7403221c0,0,4.4939423,5.6414146,11.4686584,3.2644348
					c6.1652069-2.1040611,2.0262604-6.9702759,2.0262604-6.9702759c1.1403046-0.1759987,12.9517822-2.1865387,15.3955536-1.8055649
					C151.7902985,57.0868874,167.183075,114.1471863,167.7944489,119.1165314z"/>
				<path class="st11" d="M172.3708344,116.5882263c-0.1100159,0.0278549-14.3868256,3.6588821-30.3794098,7.6653519
					c-8.0319672,0.4192963-17.6661987-0.0102234-28.5258331-2.2513809c0,0,2.1887512-10.6709518,1.5498428-20.9231262
					c8.5410995-9.5151749,9.0648193-22.483696,3.0788498-32.0547791c-3.2987213-5.2989159-7.1314011-7.4981499-8.2834244-8.0739059
					c-0.2303543-0.1150513-0.3455353-0.167717-0.3455353-0.167717s3.9270172-2.2933159,8.3358383-1.9578819
					c0.0104828,0,0.0104828,0,0.0104828,0s8.5660553,6.5342903,14.5560303,19.2786827l16.6400909-4.3248291
					c0,0-1.7174225-12.5771904-9.3620605-20.1065292c-0.0313263-0.0419312-0.0627747-0.0731201-0.1045685-0.1048241
					c0,0,4.8169861-1.6960831,8.6812286-1.0364647c2.0176392,3.8927345,8.6585541,16.2324905,12.3464508,25.5726471
					C164.5482483,88.1465073,172.3708344,116.5882263,172.3708344,116.5882263z"/>
				<g>
					<path class="st3" d="M142.4687653,71.6598053c1.0513611-4.3026505,2.6947327-8.4614296,5.5720825-11.6700096
						c2.8773499-3.2085838,7.1094208-5.3956299,11.8941193-5.2655067c4.89505,0.1331291,9.9472809,2.6907539,13.8018188,6.273098
						c3.8545532,3.5823402,8.2358856,8.8826256,10.2311859,13.5084572l8.8073273,4.2707901
						c-3.0805359-7.5415192-7.28479-14.9214745-13.0940399-20.7617912
						c-5.8092346-5.840313-13.3669128-10.0100212-20.6273499-10.2270622
						c-7.096756-0.2121429-13.3128815,3.3534088-17.4935913,8.5843811s-6.5068512,12.0110474-7.9515533,19.0256882
						L142.4687653,71.6598053z"/>
					<path class="st26" d="M147.2593231,69.8598862c1.0513763-4.3026581,2.6947327-8.4614334,5.5720825-11.6700134
						c7.0398712-7.8502617,17.7110596-6.413414,25.6959534,1.0075912c3.854538,3.5823441,8.2358856,8.8826218,10.2311707,13.508461
						l8.8073273,4.2707901c-3.0805206-7.5415268-7.28479-14.9214783-13.0940247-20.761795
						c-5.8092499-5.840313-13.3669128-10.0100212-20.6273499-10.2270584
						c-7.0967712-0.2121468-13.3128967,3.353405-17.4936066,8.5843773s-6.5068512,12.0110435-7.9515533,19.0256844
						L147.2593231,69.8598862z"/>
					<polygon class="st92" points="150.1908112,121.5106354 131.5741119,125.0566559 129.3920441,77.1335907 
						146.5930634,68.8947067 					"/>
					<polygon class="st3" points="210.4873199,123.0650558 199.4082336,127.7581329 131.5741119,125.0566559 
						150.1908112,121.5106354 					"/>
					<path class="st7" d="M210.4873199,123.0650558l-60.2965088-1.5544205l-2.2945862-33.5618286l-1.3031616-19.0541
						l57.0580139,4.2341309C212.5376587,138.0420227,210.0261536,119.696434,210.4873199,123.0650558z"/>
				</g>
				<path class="st0" d="M153.3539429,116.6957855c0.5940552,0.2035446,1.5982513,0.4629288,1.9369507,1.0596085
					c0.1367188,0.2408447,0.0944061,0.3838425,0.0912628,0.649147c-0.0060577,0.5153427-1.2025146,1.2453079-1.6049805,1.4019928
					c-0.710083,0.2764359-4.1558685,0.7270966-7.4259644,0.2518158c-0.4213104-0.0612335-1.6947174-0.2750168-1.8390503,0.3799896
					c-0.1005554,0.4564133,0.7631989,0.8372116,1.0828705,1.0300217c0.8826447,0.5323639,1.7997437,1.0091782,2.7219849,1.4686203
					c1.4720764,0.7333527,3.0654449,1.6365662,4.6804657,2.0142212c4.1936493,0.9806442,7.0117645-2.5493698,10.5541687-2.5135574
					c1.2493744,0.0126343,3.0232391,0.3749466,3.4014587,1.7662888c0.1947327,0.7163849-0.0153198,1.4748993-0.2471161,2.1801682
					c-0.6080017,1.8499222-1.3746185,3.6476517-2.2881165,5.3673477c-0.7345428,1.3827972-1.920105,2.40979-3.219696,3.291748
					c-2.5482635,1.7293243-5.6315918,2.3975983-8.6701202,2.5127716
					c-8.3162994,0.3151855-17.7448883-3.0027008-23.1902466-4.4173279
					c-1.863472-3.3439941-1.9307938-7.1502075-1.1694641-10.9880447c0.3241577-1.6340332,0.7673645-3.2901993,1.3885803-4.8384476
					c0.4516602-1.125679,1.0266571-2.3199615,2.2084045-2.8234634c0.6751556-0.2876663,1.4690857-0.0960617,2.1897888-0.1026001
					c1.0061493-0.0091248,6.0688629-0.2021484,8.3451691,0.1321487
					C145.3282471,114.9629211,149.486908,115.3708496,153.3539429,116.6957855z"/>
				<path class="st15" d="M132.745163,114.3300247c0,0-5.7687759,11.2446899-1.680954,19.2730942
					c0,0-26.7718582,2.500946-36.9704132-9.607048s-2.659996-33.9610062,2.4160538-47.1134415
					s9.1477051-15.0551147,10.4113235-14.875988c1.2636185,0.1791306,13.4785843,9.0745888,8.8453217,31.3032341
					l-5.3931122,13.147583C110.3733826,106.4574585,127.3999176,111.3335342,132.745163,114.3300247z"/>
				<path class="st0" d="M164.3883514,46.8838425c-0.4797974-0.6510353-1.3146362-0.9502563-2.1204071-0.8810959
					c2.9184113-2.4436569,7.4485168-3.4907303,13.5003662-1.2224731c2.0292511,0.7605743,4.0508728,1.8654747,5.1997223,3.7029953
					c2.3220215,3.7139282,0.3947601,8.5508347-3.3324127,11.2329903c-0.3079987,0.2216454-1.2836456,1.0191765-1.6813049,0.8962708
					c-0.8683624-0.2684402-1.0756683-0.7269211-1.7382813-1.2261696c-0.8351746,0.4336662-1.6497955,0.8792572-2.4865265,0.5478592
					c-0.7371674-0.2918701-0.9993439-0.7676773-1.3158569-1.4811287c-0.8558502,0.005043-1.3388824,1.2998734-2.5357513,0.5397034
					c-0.7250519-0.4603615-0.6965027-1.4801826-0.9439392-2.22435c-0.3869781,0.2455444-0.9655609,0.6566696-1.4444275,0.6585503
					c-1.3633118,0.0042152-1.4209442-1.2655067-1.2881775-2.3017616
					C164.9445496,49.3247719,165.3082428,48.1320343,164.3883514,46.8838425z"/>
				<g>
					<path class="st2" d="M151.827179,128.6835632c-0.5006409-0.0153503-0.4682312-0.7679596,0.0214844-0.75
						c3.9155273,0.1147461,7.644043-0.1450195,13.6630859-4.4541016c0.4035034-0.2892151,0.8395996,0.3208008,0.4365234,0.609375
						C160.3288269,128.1131744,156.526535,128.8198547,151.827179,128.6835632z"/>
				</g>
				<g>
					<path class="st2" d="M150.5976868,132.2236023c-0.4908447-0.0894623-0.348526-0.8306885,0.1347656-0.7373047
						c5.4458008,0.9951172,11.265625-0.809082,15.1904297-4.7114258c0.3504639-0.3492966,0.8813629,0.1815338,0.5283203,0.5322266
						C162.3418579,131.3924866,156.2596283,133.2608185,150.5976868,132.2236023z"/>
				</g>
				<g>
					<path class="st2" d="M153.004425,135.492157c-0.9121094,0-1.5229492-0.0644531-3.1767578-0.2416992
						c-0.4929047-0.0537262-0.4145355-0.7977295,0.0800781-0.7460938c2.5454102,0.2744141,2.5478516,0.2744141,5.0996094,0.1870117
						c2.8369141-0.0952148,5.3061523-0.6499023,7.3398438-1.6474609c0.4443207-0.217514,0.7764893,0.4547272,0.3300781,0.6738281
						c-2.1293945,1.0444336-4.7011719,1.6240234-7.6445313,1.7236328
						C154.1103821,135.4721375,153.5107727,135.492157,153.004425,135.492157z"/>
				</g>
				<g>
					<path class="st2" d="M166.476593,56.8110046c1.4379883-2.8422852,1.7519531-6.2270508,0.8613281-9.2866211
						c-0.1394043-0.4779358,0.583252-0.6846848,0.7197266-0.2099609c0.9433594,3.2402344,0.6108398,6.8251953-0.9121094,9.8354492
						C166.9219971,57.5919838,166.2518921,57.2545433,166.476593,56.8110046z"/>
				</g>
				<g>
					<path class="st2" d="M170.2036438,58.3285828c1.5029297-3.1762695,1.8608398-6.9487305,0.9814453-10.3500977
						c-0.0517578-0.2001953,0.0688477-0.4047852,0.2695313-0.4570313c0.1958008-0.0493164,0.4047852,0.0688477,0.4570313,0.2695313
						c0.9223633,3.5683594,0.546875,7.5263672-1.0302734,10.8588867
						C170.6696777,59.0974998,169.9907532,58.7777634,170.2036438,58.3285828z"/>
				</g>
				<g>
					<path class="st2" d="M173.6679993,59.3217468c1.3300781-3.1787109,1.3935547-6.8500977,0.1748047-10.0722656
						c-0.1761169-0.466095,0.5283813-0.7279434,0.7011719-0.265625c1.2861328,3.3999023,1.2192383,7.2734375-0.1845703,10.6269531
						C174.1688232,60.0678864,173.4755249,59.7806091,173.6679993,59.3217468z"/>
				</g>
				<path class="st7" d="M137.0509491,35.0512962c-1.7232208-5.2733669-7.2042999-6.2908344-12.8758316-3.0219612
					c-5.6716461,3.2731056-8.4468002,3.4375725-8.4468002,3.4375725s-3.6973801-9.0312099,4.7320786-12.3476486
					c5.7148819-2.2514076,9.7109756-0.6754227,12.0056076,0.9610233c1.5456543,1.1041412,2.3163147,2.2340736,2.3163147,2.2340736
					s6.6283264-0.8485603,7.5851746,2.8834915C143.3200073,32.9299011,137.0509491,35.0512962,137.0509491,35.0512962z"/>
				<path class="st19" d="M134.7823181,26.3143559c0,0-1.8400269-0.6449814-7.3427658,3.2775421
					c-5.4985123,3.9267483-6.7843475,0.8441181-6.1694946-1.1950436c0.5670853-1.8746929,3.8358536-5.5676365,11.1959457-4.3165722
					C134.0116577,25.1844234,134.7823181,26.3143559,134.7823181,26.3143559z"/>
				<path class="st3" d="M128.9108734,34.5090179c0.2905579-0.0531807,0.7827606-0.1966515,1.0265045,0.044487
					c0.4544983,0.4496269-0.3730774,0.7630959-0.6516724,0.8895683c-1.1503601,0.5222168-2.3789063,0.8723946-3.6321869,1.0323868
					c-0.2907791,0.0371208-0.9412994,0.0563164-0.8726273-0.4072838c0.049675-0.3353691,0.8658981-0.5516968,1.1289673-0.6626472
					C126.8737335,34.999012,127.8817596,34.6973534,128.9108734,34.5090179z"/>
				<path class="st3" d="M135.6813202,33.4271812c0.2953796-0.0029068,0.8048248-0.0604324,1.0039368,0.2187042
					c0.3712616,0.5204773-0.4976196,0.6883888-0.7936859,0.7655525c-1.2225189,0.3186188-2.4927521,0.4543915-3.7549744,0.3985481
					c-0.2928467-0.0129585-0.9371338-0.1048622-0.7904968-0.549984c0.1060791-0.3220062,0.9472351-0.3961258,1.2253571-0.4606438
					C133.5904999,33.5629807,134.6351776,33.4374542,135.6813202,33.4271812z"/>
				<ellipse class="st3" cx="134.7063904" cy="36.365303" rx="0.6560494" ry="1.1928722"/>
				<ellipse class="st3" cx="128.6934509" cy="37.7992821" rx="0.6560494" ry="1.1928722"/>
				<path class="st2" d="M134.658844,41.333252c-0.2374573,0.6417809-1.1002502,0.6933823-3.0116577,1.0775337
					c-0.4918365,0.0988503-0.5399475-0.3182602-0.0531769-0.4223289c1.6894379-0.3611755,2.1313324-0.3890953,2.3357697-0.7835579
					c0.2016449-0.389122-0.0894775-0.8423424-0.3658447-1.1825485c-0.4249115-0.5230598-0.8498383-1.0461197-1.274765-1.5691795
					c-0.1555786-0.1915207-1.0311737-1.0162506-0.4198456-1.1667175c0.3712158-0.0913696,0.9227295,0.9167061,1.1313782,1.1824684
					C134.2939453,40.1161575,134.8946991,40.6957779,134.658844,41.333252z"/>
				<path class="st20" d="M133.9920349,44.4140129c-2.056839,0.9038391-4.4590607,0.9924126-6.5768814,0.2424965
					c-0.2282944,0.8127975,0.0775986,1.9161568,0.70858,2.4770775c1.2564545,1.1169586,3.4644623,0.9003754,4.7051849-0.5720406
					C133.4141998,45.8669624,134.0427856,45.3208885,133.9920349,44.4140129z"/>
			</g>
			<path class="st20" d="M175.8015137,97.7974396c-2.0312042,2.3341675-4.0624237,4.668335-6.0936279,7.0024948
				c-0.6293335-0.2352142-1.7483368-0.2026596-2.4182892-0.2530518c-2.0502625-0.154213-3.0297852,1.499321-2.4666748,2.9466553
				c0.6355286,1.6334229,2.8453979,2.1703949,4.4845734,0.8752594c-0.2969666,1.2370453,0.1750336,2.6256409,1.1643677,3.4254532
				c1.6312256,1.3187485,3.6944885,0.2831345,3.1108093-1.8153763c-0.1894836-0.6812439-0.6156769-1.2680206-1.0337067-1.8383255
				c3.2855835-4.2779236,6.8389282-9.1639175,10.1244965-13.4418335"/>
			<path class="st11" d="M183.5862579,84.2589569c6.7386322-2.8196869,10.9640045,2.0386047,7.6482849,8.8127213
				c-3.5981598,7.351181-11.7409058,10.5797882-15.2583466,9.4846344c-4.3638611-1.358696-2.3125763-7.295639-0.8931122-10.1637955
				C176.8574219,88.8073425,179.8799133,85.8098297,183.5862579,84.2589569z"/>
		</g>
	</g>
</g>
</svg>
