<?xml version="1.0" encoding="utf-8"?>
<!-- Generator: Adobe Illustrator 22.0.1, SVG Export Plug-In . SVG Version: 6.00 Build 0)  -->
<svg version="1.1" id="Layer_1" xmlns="http://www.w3.org/2000/svg" xmlns:xlink="http://www.w3.org/1999/xlink" x="0px" y="0px"
	 viewBox="0 0 300 300" style="enable-background:new 0 0 300 300;" xml:space="preserve">
<style type="text/css">
	.st0{fill:#EDC1A4;}
	.st1{fill:#E2E0E0;}
	.st2{fill:#D39E81;}
	.st3{fill:#502E26;}
	.st4{fill:#CCCACA;}
	.st5{fill:#426800;}
	.st6{fill:#538705;}
	.st7{fill:#D47E44;}
	.st8{fill:#73341D;}
	.st9{fill:#BC672E;}
	.st10{fill:#96311D;}
	.st11{fill:#B83E21;}
	.st12{fill:#DE8D82;}
	.st13{fill:#EFBAB4;}
	.st14{fill:#FDD5D0;}
	.st15{fill:#6883CE;}
	.st16{fill:#3D4885;}
	.st17{fill:#3859AE;}
	.st18{fill:#864424;}
	.st19{fill:#FEFEFE;}
	.st20{fill:#FFFFFF;}
	.st21{fill:#A55925;}
	.st22{fill:#F4F2F2;}
	.st23{fill:#3C3E68;}
	.st24{fill:#E8997C;}
	.st25{fill:#F5C46B;}
	.st26{fill:#F7EBDA;}
	.st27{fill:#0E0C0D;}
	.st28{fill:#657C3A;}
	.st29{fill:#576C37;}
	.st30{fill:#7C995D;}
	.st31{fill:#36518C;}
	.st32{fill:#96B7E3;}
	.st33{fill:#A3B3DF;}
	.st34{fill:url(#SVGID_1_);}
	.st35{fill:url(#SVGID_2_);}
	.st36{fill:url(#SVGID_3_);}
	.st37{fill:url(#SVGID_4_);}
	.st38{fill:url(#SVGID_5_);}
	.st39{fill:#266AB7;}
	.st40{fill:#060E0D;}
	.st41{fill:#E0D4C6;}
	.st42{fill:#787E42;}
	.st43{fill:#D3D1D1;}
	.st44{fill:url(#SVGID_6_);}
	.st45{fill:url(#SVGID_7_);}
	.st46{fill:url(#SVGID_8_);}
	.st47{fill:#020508;}
	.st48{fill:#BAB6B6;}
	.st49{fill:#0F0B07;}
	.st50{fill:#2F3A68;}
	.st51{fill:#203257;}
	.st52{opacity:0.5;fill:#FFFFFF;}
	.st53{opacity:0.2;fill:#0E0C0D;}
	.st54{fill:#DD9F9B;}
	.st55{fill:#3E4D9B;}
	.st56{fill:url(#SVGID_9_);}
	.st57{fill:#5F6194;}
	.st58{fill:url(#SVGID_10_);}
	.st59{fill:url(#SVGID_11_);}
	.st60{fill:url(#SVGID_12_);}
	.st61{fill:url(#SVGID_13_);}
	.st62{fill:#070102;}
	.st63{fill:#100805;}
	.st64{fill:#FDA465;}
	.st65{fill:#2A50A1;}
	.st66{fill:#B76C39;}
	.st67{fill:#130602;}
	.st68{fill:url(#SVGID_14_);}
	.st69{fill:url(#SVGID_15_);}
	.st70{fill:url(#SVGID_16_);}
	.st71{fill:url(#SVGID_17_);}
	.st72{fill:url(#SVGID_18_);}
	.st73{fill:url(#SVGID_19_);}
	.st74{fill:#B4BDED;}
	.st75{fill:#100D08;}
	.st76{fill:#F6C85F;}
	.st77{fill:#FECF00;}
	.st78{fill:#2D59E2;}
	.st79{fill:#121F3A;}
	.st80{fill:#BBD0F5;}
	.st81{fill:#020202;}
	.st82{fill:#E2CFB7;}
	.st83{fill:#080805;}
	.st84{fill:#A87D7C;}
	.st85{fill:#182052;}
	.st86{fill:#EAEAEA;}
	.st87{fill:#DDDDDD;}
	.st88{fill:#3D4574;}
	.st89{fill:#ABC5F0;}
	.st90{fill:url(#SVGID_20_);}
	.st91{fill:#4159A8;}
	.st92{fill:#E0D0BD;}
	.st93{fill:#3D53AA;}
	.st94{fill:#0A0000;}
	.st95{fill:#BF6D36;}
	.st96{fill:#385DAE;}
	.st97{fill:#E0DCDC;}
	.st98{fill:#857E78;}
	.st99{fill:#0E213C;}
	.st100{fill:url(#SVGID_21_);}
	.st101{fill:#55608E;}
	.st102{opacity:0.3;fill:#F4F2F2;}
	.st103{opacity:0.3;}
	.st104{fill:#213987;}
	.st105{enable-background:new    ;}
</style>
<g id="Menu_Board">
	<g id="Menu_Boardv">
		<g>
			<path class="st8" d="M231.5245514,63.4504967l10.7437439,201.6466675l-13.4689178-0.3211975v-18.2472992l-132.9876099-5.0174255
				v19.606369l-13.2898331-0.4480286l-0.769043-22.4284363l25.6837692-132.9650879
				c1.1697693-0.6582489-14.3619003,8.0817261,129.6949921-72.9819107L231.5245514,63.4504967z"/>
			<polygon class="st3" points="95.8117676,261.1176147 102.6485825,261.1176147 102.6485825,237.6030731 93.1662369,237.6030731 
							"/>
			<path class="st3" d="M74.9208603,27.3366337L56.0114899,271.8628845l13.9392929,0.6727295l2.2101593-25.7768707
				l137.0802612,4.5529938l-2.065567,26.3457642L220.4871368,278l16.656723-244.7180176
				c0.2543182-2.8473988-1.8815002-5.3475246-4.7336731-5.5411091L221.16362,26.9775391
				c-3.0098114-0.2156506-5.6759644,1.8483829-5.9508667,4.8533688l-0.6106567,6.6750011L96.4123306,35.1131172l0.524025-7.913353
				c0.1633835-2.4672756-1.7562256-4.5761623-4.227951-4.6448402l-12.0285797-0.4024582
				C77.7234573,22.070322,75.14888,24.3879299,74.9208603,27.3366337z"/>
			<path class="st11" d="M69.5854721,27.1201458L50.6761093,271.6463928l13.9392929,0.6727295l2.2101593-25.7768707
				l136.6243896,4.9139099l-1.6096802,25.984848l13.3114777,0.3424988l16.3709564-250.0637512l-15.7316437-1.1271534
				c-3.0098267-0.2156506-5.6387939,2.0168343-5.9136963,5.0218201l-0.6106415,6.6749992L91.0769501,34.8966293l0.5240173-7.9133511
				c0.1633835-2.4672775-1.756218-4.5761642-4.2279434-4.6448402l-12.1021271-0.3362598
				C72.314537,21.9200344,69.8134995,24.1714439,69.5854721,27.1201458z"/>
			<path class="st20" d="M215.3452911,51.2731133c-18.810379,309.4620972-7.344635,121.5097351-11.2365417,184.7132263
				c-1.3504486-0.0470276,15.8634796,0.552475-135.0558319-4.7035522
				c1.0528412-12.1325378,1.7322006-24.2949829,2.5834503-36.450119c0.5523071-7.8096008,0.4628067-15.5892944,0.3209915-23.3690033
				c1.1572952-0.8585358,2.0681458-2.150177,2.5160065-3.9645844c4.0209808-14.0243835,2.632225-37.6445007,4.5918121-54.249382
				c0.2240219-1.8964386-0.634697-3.6656494-1.9786453-4.9948349c0.9665451-11.2946243,0.8117142-22.9459076,2.6729507-34.165062
				c1.3663712-8.272583,3.8524857-17.5232849,3.3448334-26.2661552
				C83.212883,47.8264847,213.6217346,51.228157,215.3452911,51.2731133z"/>
			<path class="st7" d="M215.3398285,51.2704468c-0.5711823,9.3943367-2.2300873,36.6793823-2.2846985,37.5773468
				c-47.3521576-1.7600708-31.02034-1.1530228-34.553421-1.2843475l-6.8315735-0.2537308
				c-0.1268616-0.0046997-39.9883881-1.4809952-38.7046509-1.4334488
				c-5.2937775-0.2051468-54.2888031-2.0195236-54.3911057-2.0233078
				c1.1995087-14.4066696,5.1630173-25.1313515,4.5244598-36.0319748
				c0.1009979,0.0026321,109.2980728,2.8504143,109.0062332,2.8446579
				C233.2389069,51.7326965,195.2895355,50.7476349,215.3398285,51.2704468z"/>
			<g>
				<path class="st20" d="M101.1222076,48.2916298l-19.9197159,17.993206
					c0.4702835-2.5008812,0.9407425-5.0469666,1.2916336-7.6003418l11.7069168-10.5722275L101.1222076,48.2916298z"/>
				<path class="st20" d="M120.6985092,48.8067551L81.754982,83.972168l-3.180603-0.1192093
					c0.1044464-1.2544479,0.2239304-2.5088959,0.3583679-3.7556915l34.8520737-31.477169L120.6985092,48.8067551z"/>
				<polygon class="st20" points="140.2748108,49.3142204 101.0997925,84.6892624 94.2683105,84.4351578 133.3611298,49.1352196 
									"/>
				<polygon class="st20" points="159.8585968,49.822052 120.4521637,85.405983 113.6131134,85.151886 152.9449005,49.6426888 				
					"/>
				<polygon class="st20" points="179.4349823,50.3371735 139.7970581,86.1299973 132.9654846,85.8762665 172.5213013,50.1505203 
									"/>
				<polygon class="st20" points="199.0187683,50.845005 159.1493378,86.8467255 152.3178558,86.5929871 192.105072,50.6656418 				
					"/>
				<polygon class="st20" points="215.3398285,51.2704468 215.1456909,54.4734688 178.501709,87.563446 171.6701355,87.3097153 
					211.6814728,51.1734734 				"/>
				<polygon class="st20" points="214.3916016,66.9195328 213.9735413,73.7211227 197.8466187,88.2801743 191.0150452,88.0264359 
									"/>
				<polygon class="st20" points="213.2194519,86.1671829 213.05513,88.8477936 210.3599396,88.7508163 				"/>
			</g>
			<path class="st7" d="M209.8158722,142.1348114c-0.2094421,3.4411316,0.7573547-12.4433899-2.0414581,33.541275
				l-132.7796326-3.670105c0,0,2.3270721-32.4411774,2.0309372-32.4411774
				C228.9622192,142.5053711,207.7443085,142.0947266,209.8158722,142.1348114z"/>
			<polygon class="st3" points="85.9095535,47.8957176 71.9029922,231.3843842 66.2063828,231.1831512 80.3099213,47.7462502 			"/>
			<g>
				<path class="st7" d="M191.0156555,194.2513275c-62.5180359-1.0852203-31.5508118-0.5476685-40.5058594-0.703125
					c-0.8286133-0.0146484-1.4882813-0.6977539-1.4741211-1.5258789c0.0151367-0.8291016,0.675293-1.4912109,1.5258789-1.4741211
					l40.4794922,0.703125c0.8286133,0.0146484,1.4882813,0.6977539,1.4741211,1.5258789
					C192.5005188,193.5970306,191.8320618,194.2513275,191.0156555,194.2513275z"/>
			</g>
			<g>
				<path class="st7" d="M129.1782532,193.177597c-61.8650742-1.0741272-31.2427521-0.54245-40.1030273-0.6962891
					c-0.8286133-0.0146484-1.4882813-0.6977539-1.4741211-1.5258789c0.0146484-0.828125,0.6787109-1.4790039,1.5258789-1.4741211
					l40.0766602,0.6962891c0.8286133,0.0146484,1.4882813,0.6977539,1.4741211,1.5258789
					C130.6631165,192.5228119,129.9946594,193.177597,129.1782532,193.177597z"/>
			</g>
			<g>
				<path class="st7" d="M189.5962219,207.8104095c-62.5180359-1.0852203-31.5508118-0.5476685-40.5058594-0.703125
					c-0.8286133-0.0146484-1.4882813-0.6977539-1.4741211-1.5258789c0.0151367-0.8286133,0.7192383-1.4804688,1.5258789-1.4741211
					l40.4794922,0.703125c0.8286133,0.0146484,1.4882813,0.6977539,1.4741211,1.5258789
					C191.0810852,207.1561127,190.4126282,207.8104095,189.5962219,207.8104095z"/>
			</g>
			<g>
				<path class="st7" d="M127.7588196,206.7361908c-61.8650894-1.0733795-31.2427521-0.5420685-40.1030273-0.6958008
					c-0.8286133-0.0146484-1.4882813-0.6977539-1.4741211-1.5258789c0.0146484-0.828125,0.6767578-1.4682617,1.5258789-1.4741211
					l40.0766602,0.6958008c0.8286133,0.0146484,1.4882813,0.6977539,1.4741211,1.5258789
					C129.2436829,206.0814056,128.5752258,206.7361908,127.7588196,206.7361908z"/>
			</g>
			<g>
				<path class="st7" d="M188.1767883,221.3694916c-62.5180359-1.0852203-31.5508118-0.5476685-40.5058594-0.703125
					c-0.8286133-0.0146484-1.4882813-0.6977539-1.4741211-1.5258789c0.0151367-0.8286133,0.7172852-1.4697266,1.5258789-1.4741211
					l40.4794922,0.703125c0.8286133,0.0146484,1.4882813,0.6977539,1.4741211,1.5258789
					C189.6616516,220.7151947,188.9931946,221.3694916,188.1767883,221.3694916z"/>
			</g>
			<g>
				<path class="st7" d="M126.339386,220.2952728c-61.8650894-1.0733795-31.2427521-0.5420685-40.1030273-0.6958008
					c-0.8286133-0.0146484-1.4882813-0.6977539-1.4741211-1.5258789c0.0151367-0.828125,0.6748047-1.4575195,1.5258789-1.4741211
					l40.0766602,0.6958008c0.8286133,0.0146484,1.4882813,0.6977539,1.4741211,1.5258789
					C127.8242493,219.6404877,127.1557922,220.2952728,126.339386,220.2952728z"/>
			</g>
			<polygon class="st3" points="249.3238983,265.2688599 242.2682953,265.097168 231.5245514,63.4504967 237.1316528,32.2941437 			
				"/>
			<g>
				<path class="st78" d="M106.0083237,106.3098679c0.4848633,0.3251953,0.9506836,0.2939453,1.3964844-0.09375
					c1.0111389-0.9183655,2.6135788-3.9216919,2.6870117-6.1816406c0.1381302-4.2111893-4.6220016-7.6353226-10.8823242-4.8608398
					c-6.7867889,3.0078049-11.4960098,11.4341812-6.7060547,16.5454102c2.9320221,3.130928,7.4519424,3.495018,10.9912109,5.4101563
					c5.3364105,2.8853378-1.5394058,5.6180801-4.8129883,4.4746094c-1.0566025-0.3672867-1.1434174-0.5415268-1.1166992-1.3598633
					c0.0244064-0.7420959-0.5281601-1.1787796-1.0522461-1.1953125c-1.8059998-0.0591812-1.6959076,3.1344147-0.4038086,4.5146484
					c1.0922852,1.1655273,2.6201172,1.7807617,4.5839844,1.8452148c9.1554031,0.2995758,13.3343277-8.5658112,3.6865234-12.9526367
					c-4.0172272-1.8232803-8.1804657-2.943306-8.0981445-5.4892578c0.1153641-3.5187531,4.8968811-8.3619156,8.1879883-8.2539063
					c1.5927734,0.0522461,2.3701172,0.6503906,2.3330078,1.7944336c-0.0371094,1.1289063-0.440918,2.5859375-1.2109375,4.3725586
					C105.3550034,105.4753952,105.4941635,105.9519577,106.0083237,106.3098679z"/>
				<path class="st78" d="M168.5512848,103.85186c0.019043-0.5878906-0.1767578-1.097168-0.5883789-1.5288086
					c-1.2718353-1.3336945-3.6583862-0.6449966-3.7280273,1.4570313c-0.019043,0.5878906,0.1694336,1.0927734,0.5654297,1.5166016
					C166.0083771,106.5820236,168.4812622,105.9675751,168.5512848,103.85186z"/>
				<path class="st78" d="M200.3881989,113.0208054c-0.4535217,2.6501541-2.1763306,9.3972168-4.1674805,10.9853516
					c-2.9417572-5.5483322,0.1459045-22.6516113,0.3867188-24.6005859c0.2656708-2.5343704-3.5577393-3.8428192-4.784668-0.6669922
					c-0.9156647,2.4285965-1.3468628,11.0395584-1.2722778,14.6860352c-0.648407,2.5993271-2.1081696,8.21772-4.3981323,9.5791016
					c-0.2836914-0.3188477-0.4956055-1.0761719-0.6333008-2.2724609
					c-0.6200104-5.3321991,1.0108337-12.7667847,1.0429688-13.7822266c0.068924-2.0833664-2.4553833-3.2082443-3.9584961-1.8017578
					c-0.6069336,0.5688477-1.0322266,1.7392578-1.2758789,3.5112305c-3.2350616-2.7388687-8.6122742,0.303566-9.1280518,6.3085938
					c-0.508667,1.2513428-2.4923706,6.1273193-3.9554443,6.0810547c-0.0766602-0.0332031-0.1777344-0.2421875-0.3046875-0.6259766
					c-0.3726654-1.1237564-0.4973907-3.2532883-0.4521484-4.6235352c0.0925751-2.8267899,0.5611267-4.6166992,0.7680664-6.4536133
					c0.1899872-1.1494904-0.8248444-2.4647827-2.2626953-2.512207c-1.3983307-0.0452881-2.2316742,1.1282883-2.6577148,2.4667969
					c-0.1914063,0.6000977-0.328186,1.5092773-0.4127197,2.7197266c-1.6026306,3.2151413-5.5850525,9.3216629-9.1966553,9.2036133
					c-0.7885742-0.0258789-1.4541016-0.512207-1.9951172-1.4589844c-1.5544891-2.7140656-0.5255432-9.6040192,1.9492188-11.6855469
					c0.230957-0.1933594,0.4082031-0.2880859,0.5322266-0.2841797c0.6871033,0.0229034,1.0346832,1.5834961,1.109375,2.265625
					c0.0703125,0.7143555,0.4375,1.0820313,1.1020508,1.1040039c0.8193359,0.0268555,1.2504883-0.609375,1.2929688-1.9082031
					c0.034256-1.0457382-0.3369751-2.1988602-0.7670898-3.1479492c-1.9888763-4.3734818-9.8527069-2.3615723-11.3413086,6.3496094
					c-1.4147949,2.529335-4.4904785,7.6328049-7.3989258,7.5380859c-0.8349609-0.0273438-1.5410156-0.4609375-2.1171875-1.300293
					c-0.5761719-0.8388672-0.8393555-2.0244141-0.7895508-3.5551758l0.0048828-0.1396484
					c0.5576172,0.003418,1.1992188-0.1074219,1.9262695-0.331543c1.6803131-0.5157166,2.5082245-1.6034622,3.3413086-3.1181641
					c3.1274414-5.6887131-3.3477173-10.1423645-8.1411133-4.5390625c-0.5269775,0.6240234-0.9628296,1.2856445-1.322937,1.9790039
					c-0.8495636-0.0557098-2.5020599-0.006691-3.9729538,0.2163086c-0.5150528-4.3986969-4.2499771-6.7620316-8.1123047-3.2954102
					c-1.1457596,1.0265732-1.9454269,1.9847717-2.4838867,2.809082c0.1447983-0.9134369,0.62146-3.3735046,0.6337891-3.7641602
					c0.0939331-2.8526382-3.5510025-3.4601669-4.6298828-1.1259766c-0.8692551,1.8290024-1.2562027,8.5836105-1.3227539,10.6147461
					c-0.1407318,4.3075485,0.3352966,12.7750549,1.5043945,16.4653244c0.3515625,1.0639648,0.8681641,1.6074219,1.5488281,1.6298828
					c0.9034576,0.0295715,1.4635239-0.7296906,1.4897461-1.5302734c0.0178299-0.5661469-0.3596878-5.3160248-0.2744141-10.7831955
					l0.0566406-0.2998047c0.7339249-4.20755,2.3003616-11.0286026,6.3930664-12.3066406
					c0.1679688,0.0678711,0.3208008,0.378418,0.4575195,0.9321289c0.1367188,0.5541992,0.199707,1.2255859,0.1899414,2.0146484
					c-3.3652496,1.5868683-5.8235626,4.1002884-5.9458008,7.8398438c-0.2036514,6.1706085,9.4064178,4.7069473,10.4526367-6.4848633
					c1.0661545-0.2241211,2.1014938-0.3657227,3.1099777-0.4335938c-1.2054291,5.4645004,1.7848206,11.2754364,7.2572021,11.4541016
					c3.4520416,0.1132736,6.2200775-2.8849792,8.1427002-5.75c0.4033356,2.22155,1.3183899,3.8672943,2.2767334,4.8608398
					c5.3511353,5.5476913,11.2564697,1.3956528,15.1332397-5.269043c0.9697876,7.3923569,5.4040527,9.8583145,8.9512329,4.4082031
					c0.3422852-0.5258789,0.6673584-1.1108398,0.9840088-1.7236328c0.6508484,1.1447449,1.6842651,2.1589432,3.0057373,2.2026367
					c2.4559021,0.079628,4.0642548-2.9897079,5.074707-5.3603516c0.1672974,3.5035172,1.1449738,9.3255768,4.6601563,9.4404297
					c2.6383972,0.0877991,4.454834-3.7306137,5.4152222-6.1748047c0.536026,2.9653091,1.7707214,7.1765976,4.7659302,7.2744141
					c1.9174805,0.0629883,3.5878906-2.0419922,5.0136719-6.3144531c1.0357666-3.0787811,1.6077271-6.5771179,1.6337891-7.3769531
					C202.5628967,111.8534012,200.6980438,111.637001,200.3881989,113.0208054z M137.6738434,108.6692429
					c0.3426819-0.3216705,0.9645538-0.3755035,0.9462891,0.1704102c-0.0296173,0.9062271-0.6926422,2.1778107-1.2734375,2.7211914
					c-0.4790039,0.4487305-1.0292969,0.7021484-1.6499023,0.7592773
					C136.1045074,110.7390671,136.7636871,109.5217819,137.6738434,108.6692429z M119.4712143,118.546196
					c-0.0551758-0.2182617-0.078125-0.4516602-0.0703125-0.6992188c0.0606461-1.8462219,1.2092209-3.0493317,2.7338867-4.0668945
					C121.595726,116.0378952,120.7080307,117.6272507,119.4712143,118.546196z M176.8374176,118.1477585
					c-0.5465851-3.6790237,1.8606567-7.1051331,3.2729492-6.3481445
					C179.9392395,112.1167221,178.1566162,116.7030563,176.8374176,118.1477585z"/>
			</g>
			<g>
				<path class="st20" d="M127.9956284,144.3137665c-0.2779846-1.7252808-2.7740173-2.392868-3.7714844-0.949707
					c-0.9289627,1.3279419-4.5949554,8.6821594-5.9731445,10.3618164
					c-1.2423401-2.4128265-3.3681412-9.3440704-4.0317383-10.0688477c-0.4106827-1.5916595-3.2945557-1.9265747-3.6083984-0.6064453
					c-0.8307037,3.3714447-0.926796,18.5093536,0.1455078,22.1948242c0.5678177,1.8408813,3.104187,1.9059143,3.1362305,0.4423828
					c0.0129776-0.5425568-0.6506195-5.4960327-0.1679688-14.9511719c1.0966797,2.7333984,2.0610352,4.5341797,2.8920898,5.402832
					c0.7817612,0.8153687,2.3425064,1.1352539,3.2944336,0.2246094c1.7372589-1.6622467,3.8001709-5.7641296,4.71875-7.4135742
					c-0.0173035,0.8056183,0.048172,2.4654083-0.0146484,5.3564453c-0.2150879,9.965744-0.5236359,9.4136963,0.1254883,10.2397461
					c0.52742,0.6693573,2.3421783,1.0079803,2.5864258-0.4711914c0.2515488-1.5210571,0.7654037-7.0127869,0.8447189-10.6948242
					C128.2031097,151.9464111,128.1516571,145.2222443,127.9956284,144.3137665z"/>
				<path class="st20" d="M173.0517731,157.8606415c-0.3286133-0.0073242-0.5405273,0.090332-0.6352539,0.2924805
					c-0.1629028,0.1527405-1.6269989,4.2673035-3.5004883,5.3481445c-0.1015625-0.0244141-0.2285156-0.1889648-0.3803711-0.4926758
					c-0.1523438-0.3037109-0.2958984-0.8710938-0.4306641-1.7011719c-0.5193176-3.200592,0.289856-7.6003265,0.3115234-8.4453125
					c0.0365295-1.6931763-3.8375397-3.4200592-4.003418,0.3383789c-0.3469238,0.9082031-2.0228729,7.4480438-3.9692383,9.6914063
					c-0.3178711-1.0273438-0.4570313-2.4306641-0.418457-4.2094727c0.1099701-5.0388489,1.1622467-4.9519348,0.2851563-6.081543
					c-1.1205139-1.3995667-3.5339203-1.2415314-3.7915039,0.0024414c-0.2884369,1.5242767-0.4578705,3.37146-0.3953857,5.4863281
					c-1.2214966,2.6196289-2.2032471,4.2509766-2.9429932,4.8823242
					c-0.8471832-2.5894775,1.8019104-11.6929321-3.3134766-11.8061523c-1.8895569-0.0396118-3.5074158,2.4878082-4.359375,4.1733398
					c0.2662659-1.97789,0.3625183-2.5856018,0.3681641-2.8481445c0.0412903-1.8801422-3.6741638-2.5016479-3.9584961-0.9365234
					c-0.1188049,0.6764984-0.4176788,3.6900177-0.4468994,6.1044922c-0.9388733,1.8201904-3.4851074,5.2541504-5.6488037,5.206543
					c-1.3193359-0.0290527-1.8158569-2.2480469-1.8603516-3.5771484c2.6439667,0.4406738,4.8729858-2.0230865,4.9321289-4.7216797
					c0.0416718-1.9344635-1.7211304-3.6773224-3.7114258-3.7202148c-1.4389648-0.03125-2.6972656,0.6245117-3.7753906,1.9672852
					c-3.5123367,4.3765106-1.3717957,12.1364288,4.8603516,12.2724609c1.9264526,0.0419922,3.7410889-0.9628906,5.4440918-3.0102539
					c0.0844116,0.7163086,0.1677246,1.2456055,0.2492676,1.5693359c0.3809204,1.5155487,2.5268402,3.0510101,3.2983398,0.0039063
					c1.1157227-4.3740234,2.5449219-7.5283203,4.2871094-9.4628906c0.1104126,3.8705139-0.4621735,7.2865448,0.8168945,9.3525391
					c0.6504822,1.0523682,1.6534576,1.6695251,2.9389648,1.6972656c1.6473389,0.0354767,2.7468719-1.5471802,3.5270386-2.9765625
					c0.1126709,0.300293,0.2224121,0.6044922,0.3616333,0.8676758c1.4042816,2.6494141,4.5878754,3.2570496,6.2919922,0.3916016
					c0.2529297-0.4248047,0.4301758-0.7475586,0.5317383-0.9658203c0.1501617-0.3288574,0.5750732-1.3369446,0.5820313-1.3564453
					c0.9934082,4.1533051,4.8312836,5.4268341,6.8266602,3.515625c1.7683716-1.692749,3.2920074-5.1260376,3.3085938-5.8964844
					C174.7455902,158.2153931,173.6563873,157.8736725,173.0517731,157.8606415z M135.4726715,153.8972626
					c0.2216797-0.2675781,0.371582-0.4003906,0.4511719-0.3989258c0.0947113,0.1033173,0.1278381,0.2401733,0.1533203,0.3779297
					c0.2585907,1.3923798-0.8207397,3.1543121-1.9882813,3.4589844
					C134.2187653,156.5676727,135.0084991,154.4577789,135.4726715,153.8972626z"/>
			</g>
		</g>
	</g>
</g>
</svg>
