<?xml version="1.0" encoding="utf-8"?>
<!-- Generator: Adobe Illustrator 22.0.1, SVG Export Plug-In . SVG Version: 6.00 Build 0)  -->
<svg version="1.1" id="Layer_1" xmlns="http://www.w3.org/2000/svg" xmlns:xlink="http://www.w3.org/1999/xlink" x="0px" y="0px"
	 viewBox="0 0 300 300" style="enable-background:new 0 0 300 300;" xml:space="preserve">
<style type="text/css">
	.st0{fill:#EDC1A4;}
	.st1{fill:#E2E0E0;}
	.st2{fill:#D39E81;}
	.st3{fill:#502E26;}
	.st4{fill:#CCCACA;}
	.st5{fill:#426800;}
	.st6{fill:#538705;}
	.st7{fill:#D47E44;}
	.st8{fill:#73341D;}
	.st9{fill:#BC672E;}
	.st10{fill:#96311D;}
	.st11{fill:#B83E21;}
	.st12{fill:#DE8D82;}
	.st13{fill:#EFBAB4;}
	.st14{fill:#FDD5D0;}
	.st15{fill:#6883CE;}
	.st16{fill:#3D4885;}
	.st17{fill:#3859AE;}
	.st18{fill:#864424;}
	.st19{fill:#FEFEFE;}
	.st20{fill:#FFFFFF;}
	.st21{fill:#A55925;}
	.st22{fill:#F4F2F2;}
	.st23{fill:#3C3E68;}
	.st24{fill:#E8997C;}
	.st25{fill:#F5C46B;}
	.st26{fill:#F7EBDA;}
	.st27{fill:#0E0C0D;}
	.st28{fill:#657C3A;}
	.st29{fill:#576C37;}
	.st30{fill:#7C995D;}
	.st31{fill:#36518C;}
	.st32{fill:#96B7E3;}
	.st33{fill:#A3B3DF;}
	.st34{fill:url(#SVGID_1_);}
	.st35{fill:url(#SVGID_2_);}
	.st36{fill:url(#SVGID_3_);}
	.st37{fill:url(#SVGID_4_);}
	.st38{fill:url(#SVGID_5_);}
	.st39{fill:#266AB7;}
	.st40{fill:#060E0D;}
	.st41{fill:#E0D4C6;}
	.st42{fill:#787E42;}
	.st43{fill:#D3D1D1;}
	.st44{fill:url(#SVGID_6_);}
	.st45{fill:url(#SVGID_7_);}
	.st46{fill:url(#SVGID_8_);}
	.st47{fill:#020508;}
	.st48{fill:#BAB6B6;}
	.st49{fill:#0F0B07;}
	.st50{fill:#2F3A68;}
	.st51{fill:#203257;}
	.st52{opacity:0.5;fill:#FFFFFF;}
	.st53{opacity:0.2;fill:#0E0C0D;}
	.st54{fill:#DD9F9B;}
	.st55{fill:#3E4D9B;}
	.st56{fill:url(#SVGID_9_);}
	.st57{fill:#5F6194;}
	.st58{fill:url(#SVGID_10_);}
	.st59{fill:url(#SVGID_11_);}
	.st60{fill:url(#SVGID_12_);}
	.st61{fill:url(#SVGID_13_);}
	.st62{fill:#070102;}
	.st63{fill:#100805;}
	.st64{fill:#FDA465;}
	.st65{fill:#2A50A1;}
	.st66{fill:#B76C39;}
	.st67{fill:#130602;}
	.st68{fill:url(#SVGID_14_);}
	.st69{fill:url(#SVGID_15_);}
	.st70{fill:url(#SVGID_16_);}
	.st71{fill:url(#SVGID_17_);}
	.st72{fill:url(#SVGID_18_);}
	.st73{fill:url(#SVGID_19_);}
	.st74{fill:#B4BDED;}
	.st75{fill:#100D08;}
	.st76{fill:#F6C85F;}
	.st77{fill:#FECF00;}
	.st78{fill:#2D59E2;}
	.st79{fill:#121F3A;}
	.st80{fill:#BBD0F5;}
	.st81{fill:#020202;}
	.st82{fill:#E2CFB7;}
	.st83{fill:#080805;}
	.st84{fill:#A87D7C;}
	.st85{fill:#182052;}
	.st86{fill:#EAEAEA;}
	.st87{fill:#DDDDDD;}
	.st88{fill:#3D4574;}
	.st89{fill:#ABC5F0;}
	.st90{fill:url(#SVGID_20_);}
	.st91{fill:#4159A8;}
	.st92{fill:#E0D0BD;}
	.st93{fill:#3D53AA;}
	.st94{fill:#0A0000;}
	.st95{fill:#BF6D36;}
	.st96{fill:#385DAE;}
	.st97{fill:#E0DCDC;}
	.st98{fill:#857E78;}
	.st99{fill:#0E213C;}
	.st100{fill:url(#SVGID_21_);}
	.st101{fill:#55608E;}
	.st102{opacity:0.3;fill:#F4F2F2;}
	.st103{opacity:0.3;}
	.st104{fill:#213987;}
	.st105{enable-background:new    ;}
</style>
<g id="Mobile_Delivery_1_">
	<g id="Mobile_Delivery">
		<g>
			<path class="st15" d="M235.2829285,264.2922974c-24.1080322,3.2332153-74.9788513,10.6315002-97.8309937,13.3392944
				c-13.325943,1.57901-22.6764832-2.1254883-24.4313278-7.1455994L30.9540901,36.2792816
				C29.1779003,31.1850529,31.9153748,22.3196602,49.0003128,22h104.3563461
				c6.5407104,0.4323158,10.2841339,5.9307499,12.2824402,11.5209732l80.2305756,217.7568665
				C248.1397247,257.5856018,243.5992584,263.1720886,235.2829285,264.2922974z"/>
			<path class="st22" d="M125.5472641,269.7128601L42.818058,32.1343613
				c-1.5135994-4.3394241,2.5861473-7.3730659,7.674263-7.3644886l98.0054321,0.1683865
				c6.8742218,0.0130749,12.7478333,3.9707775,14.254364,8.18293L240.9888,251.2430267
				c1.9238434,5.3461761-1.9370575,10.0919952-8.9804688,11.0406036
				c-23.4997864,3.1516113-69.1923218,9.7262573-94.3368988,13.3648682
				C132.3985748,276.4126587,126.8497086,273.4355469,125.5472641,269.7128601z"/>
			<path class="st1" d="M229.2848511,257.1092834c-37.0739594,4.9576721-94.2616272,13.4539185-94.9215088,13.3862
				c-0.7552948-0.0710144-1.4312286-0.5175171-1.6273346-1.059906
				c-2.2874146-6.5699463-79.6102753-228.6615143-82.7120667-237.5707855
				c-0.40345-1.1068554,0.6823196-1.8517208,1.8986168-1.8445244l19.4449158,0.0334148
				c0.5048828,1.0431862,1.2101517,2.4494495,1.8902664,3.8055897c1.2559967,2.4535217,4.6985092,4.2436447,8.1326675,4.2228622
				c3.4442749-0.0209465-15.0633469,0.0916061,49.4177399-0.3005257c4.2728882-0.0334167,6.7515717-2.7831879,5.2368164-5.8292065
				l-0.8845673-1.790123c14.7216797,0.0323696,14.8979034,0.0053024,15.4182587,0.0541973
				c2.2950134,0.2169914,4.4063416,1.5688534,4.9822235,3.2047386
				c33.0158691,92.0749588,22.2284393,61.9893646,78.234726,218.1299591
				C234.7803192,254.2384949,232.8233337,256.6251831,229.2848511,257.1092834z"/>
			<path class="st20" d="M157.7265167,39.4590607c-26.5552826,24.4482307-53.056366,48.7458954-79.5950394,73.1440048
				c-13.450264-38.6172867-8.803215-25.2750702-9.8101196-28.166008
				c16.8537598-15.5267563,33.7032394-31.0535088,50.5569992-46.5845413l11.9297943-0.0709038
				c4.2728882-0.0334167,6.7515717-2.7831879,5.2368164-5.8292065l-0.8845673-1.790123
				c14.7216797,0.0323696,14.8979034,0.0053024,15.4182587,0.0541973c2.2950134,0.2169914,4.4063416,1.5688534,4.9822235,3.2047386
				L157.7265167,39.4590607z"/>
			<path class="st20" d="M185.7089386,117.4976807c-26.7389526,24.5774994-53.4445038,49.0631256-80.2084198,73.7115326
				l-8.4581528-24.2936859l7.9365616-12.4055481c23.5509338-21.7025299,47.1060333-43.400795,70.6570587-65.1031189
				C189.4400177,127.9026489,184.6753235,114.6151962,185.7089386,117.4976807z"/>
			<path class="st7" d="M115.2219467,187.6972656l-16.6310959-61.1200943
				c-0.5616074-2.0639496,0.8284683-4.148674,2.949707-4.4237137l35.4551849-4.5971527
				c1.8006744-0.2334824,3.4843597,0.9383163,3.8909302,2.707962l12.4543304,54.2102203l-1.9690399,11.3493347
				L115.2219467,187.6972656z"/>
			<path class="st0" d="M179.4748993,129.840683v4.0224762l-3.1755066,3.7763519l-5.7792816-3.133728
				c0,0-2.5453186-3.2922516-1.6148071-4.5106659c0.9438629-1.2306824,0.7434235-7.4058685,0.9597473-7.586113
				c0.2002869-0.1668701,5.6457367,0.9514008,6.7098083,3.6053085c0.5173187,1.2976608,1.2267609,2.2407074,1.8108978,2.8666229
				C178.9949646,129.5360718,179.4748993,129.840683,179.4748993,129.840683z"/>
			<path class="st2" d="M178.3857574,128.8809357c-0.3547211,0.5215912-0.9847107,0.8763123-1.6231537,0.9722748
				c-0.8930206,0.1335602-1.8026428-0.1502686-2.6246643-0.5257721c-1.7483521-0.7927704-3.2922516-2.0196381-4.4815216-3.5301208
				c0.1001434-1.7192154,0.1085052-3.3048782,0.2086334-3.3883133c0.2002869-0.1668701,5.6457367,0.9514008,6.7098083,3.6053085
				C177.0921783,127.3119736,177.8016205,128.2550201,178.3857574,128.8809357z"/>
			<path class="st0" d="M181.9409485,127.2034836c-4.6109009,0.8012314-12.4180908-2.8291321-12.7852325-3.4634018
				c-0.3672638-0.6342621-4.1769257-5.8459091-4.1769257-5.8459091l2.5745544-4.8447037l3.2714691-3.1128464
				c0.1001587-0.0226135,4.5509033-1.0274353,4.2687073-0.9637222l7.6986847,0.8469772
				c0.0963135,0.1003799,1.2812958,1.335495,1.1849823,1.2351151
				C183.9771881,111.0549927,186.5476685,126.4023438,181.9409485,127.2034836z"/>
			<path class="st3" d="M183.8144989,110.8881226c-2.1489105-0.3129578-4.3855438-0.3671494-6.4385071,0.3337402
				c-2.1030731,0.7177963-3.9891663,2.3451233-4.5482483,4.4940491c-0.0668335,0.2587585-0.1169434,0.5258713-0.2462311,0.7593613
				c-0.2674866,0.4831848-0.7307739,0.6171341-1.2559967,0.116951c-1.7307587-1.6043167-1.7857819-4.7664566,0.6968231-6.9267883
				l3.0711823-0.6925354l7.6986847,0.8469772L183.8144989,110.8881226z"/>
			<g>
				<path class="st2" d="M221.1618042,156.7056885c-0.1863708-0.0615082-0.6093597-0.6417999-1.7660065-1.2809601
					c0.4909821,0.4251556,0.9757996,1.0174103,1.1768646,1.3525848c0.31633,0.5273438-0.002121,0.9024506-0.4524231,0.6034698
					c-0.2730255-0.181366-0.4217529-0.3140411-1.0388184-0.8070374c-0.0831299-0.0664978-0.1040802-0.0678253-0.1647491-0.1191254
					c-0.0721283-0.0609589-0.3836517-0.3339996-0.4744415-0.3080139c-0.0645599,0.0184937,0.0025635,0.0037231-0.0230865,0.0168915
					c-0.0105133,0.0054932-0.0061035-0.003891-0.0050354,0.004425c0.0215759,0.1660767,0.1660767,0.2043762,0.27565,0.3364868
					c0.2722168,0.3281403,0.8021545,1.0043335,0.8936157,1.4861298c0.0149384,0.0782623,0.144577,0.3294067,0.0802917,0.4816895
					s-0.2836914,0.1783752-0.3830872,0.0906372c-0.0993195-0.0878143-0.1059418-0.1331787-0.1521912-0.2045441
					c-0.629837-0.9729462-1.5143585-1.481842-1.9432373-1.5461578c0.485733,0.3698273,1.5651855,1.1062775,1.7332916,1.6807556
					c0.1952209,0.6665192-1.522644-0.3746643-2.1594543-0.6956177c-3.1951599-1.6094208-8.4678345-0.3005066-12.3130188-0.1036682
					c-2.5871582,0.1324463-13.3134918,0.540863-16.0538025-0.3297882c-2.780777-0.8834991-4.1786804-4.1707458-5.5927582-6.4846344
					c-1.6893768-2.7643585-3.2794647-5.5894012-4.7659912-8.4679413c-0.6573486-1.2729187-1.3008575-2.5742645-1.5935059-3.9767456
					c-0.4780884-2.2913055,0.224472-5.1555786,2.9102325-5.5303345c1.4020996-0.1956482,2.8262024,0.3837738,3.9280243,1.2727051
					c1.1018219,0.888916,1.930191,2.0654144,2.7146149,3.243927c1.8941803,2.8457947,3.2337952,6.0094452,4.5729218,9.1409302
					c0.3787537,0.8856659,0.5618286,2.3720551,1.3224945,3.0099792c1.184967,0.9937897,3.3322449,1.1184082,4.7956696,1.2973633
					c4.1235809,0.5041809,8.27034,0.8186493,12.422821,0.9420319c3.631012,0.1078949,7.4213867,0.5397949,10.536377,2.6064453
					c0.6302032,0.4425354,1.4986572,1.2228699,1.7813873,1.9313812
					C221.5331879,156.6222382,221.3591919,156.7707672,221.1618042,156.7056885z"/>
			</g>
			<path class="st11" d="M247.9816895,216.5846558c0,0-8.8688507-34.7134857-23.9308777-55.1809845l-14.818634-0.943634
				c0,0,17.4710846,40.1467896,11.4593201,51.8115234L247.9816895,216.5846558z"/>
			<path class="st3" d="M235.5606689,157.6728516c0,4.2854004-2.2949982,7.7613373-5.1283112,7.7613373
				c-2.8875122,1.3477783-15.2512817,0.020874-15.2512817,0.020874c-4.0652008,0-6.3990936-6.7193604-4.4022675-11.7379608
				c0.175766-2.5665588,1.8824158-3.670105,4.4022675-3.7847137c9.943573-0.4881744,15.2512817-0.0250549,15.2512817-0.0250549
				C233.2656708,149.9073334,235.5606689,153.383255,235.5606689,157.6728516z"/>
			<polygon class="st0" points="212.1157532,220.8088074 210.1687622,211.4620056 219.525589,211.4620056 221.2904968,223.8576355 
							"/>
			<path class="st3" d="M218.4339905,220.0248566c0.5252075-0.3784332,1.2855377-1.2161407,2.1300964-0.963974
				c0.5509949,0.164505,0.8441315,0.7440948,1.1234894,1.2467041c2.3652802,4.2554932,8.4838257,7.0874329,7.6920319,8.9546204
				c-0.2392426,0.5641785-0.7825012,0.9911957-1.3330383,1.2264404c-0.6987762,0.2985687-1.4745026,0.3544464-2.2339325,0.3812103
				c-3.9705658,0.1399841-7.9320831-0.4078827-11.8510895-1.0609436c-0.8739014-0.1456299-1.8228302-0.3385162-2.3915405-1.0178375
				c-0.6665955-0.7962646-0.4998627-1.7892609-0.4516296-2.7385559c0.0559082-1.1001129,0.0724335-2.213501,0.1832733-3.3184662
				c0.1195374-1.1926575,0.0640869-2.8525085,1.7327423-2.7086792c0.6975555,0.0601349,1.3287964,0.4240875,2.00383,0.6099243
				C216.1916351,220.9528198,217.4750519,220.7157898,218.4339905,220.0248566z"/>
			<path class="st23" d="M180.6838989,166.6358643c0,0,30.7752991,8.7152252,34.29039,14.2946625
				c3.5150757,5.579422,5.9046783,33.3643646,5.9046783,33.3643646c0.0326996,0.9807281-10.4002838,1.3292389-10.4329834,0.3485107
				l-4.520462-21.9886475l-11.218811-8.4908142l-19.7999115-10.2617493L180.6838989,166.6358643z"/>
			<path class="st11" d="M144.5614319,209.5180817c0,0-12.5312347,0.4143372-13.0719147,4.7768555
				c-0.8439178,6.8092957,14.3790131,5.5164948,16.2089539,5.1625214
				C149.5283966,219.1034851,144.5614319,209.5180817,144.5614319,209.5180817z"/>
			<path class="st3" d="M185.0056458,232.6637268c0,11.7087402-6.8432465,21.2017212-21.4854431,21.2017212
				c-13.8855286,0-21.4896088-8.5737305-21.4896088-21.2017212c0-11.6899109,9.6013947-21.2017212,21.4896088-21.2017212
				C175.3874664,211.4620056,185.0056458,220.9549866,185.0056458,232.6637268z"/>
			<ellipse class="st19" cx="159.4553375" cy="231.9815979" rx="10.2468433" ry="11.8989172"/>
			<ellipse class="st3" cx="159.4553375" cy="231.9815979" rx="7.1335015" ry="8.2836189"/>
			<path class="st11" d="M217.7136078,228.8717651l-19.5262756,1.353302
				c0.5545959-19.53508-8.3998871-35.6623688-8.3998871-35.6623688l-46.6316986-6.0624084l-0.9308167,30.9815979
				l-0.2118988,0.6008453l11.3244629,7.6380768l11.5129395,3.2820587l12.8888397,2.6651154l18.2362823,4.4642944h22.1787262
				C216.9821167,235.9850006,217.810791,229.2150879,217.7136078,228.8717651z"/>
			<polygon class="st0" points="197.8076477,222.2433167 195.8606415,212.8965149 205.2174683,212.8965149 206.9823914,225.2921448 
							"/>
			<path class="st8" d="M204.1258698,221.4593658c0.5252075-0.378418,1.2855377-1.2161407,2.1300964-0.963974
				c0.5509949,0.164505,0.8441315,0.7440948,1.1234894,1.2467041c2.3652802,4.2554932,8.4838409,7.0874329,7.6920471,8.9546204
				c-0.2392578,0.5641937-0.7825165,0.9912109-1.3330383,1.2264404c-0.6987762,0.298584-1.4745178,0.3544464-2.2339325,0.3812103
				c-3.9705811,0.1399841-7.9320984-0.4078674-11.8510895-1.0609436c-0.8739014-0.1456299-1.8228455-0.338501-2.3915405-1.0178375
				c-0.6666107-0.7962646-0.4998779-1.7892609-0.4516296-2.7385559c0.0558929-1.1001129,0.0724182-2.213501,0.1832581-3.3184662
				c0.1195374-1.1926575,0.0640869-2.8525085,1.7327576-2.7086639c0.6975555,0.0601196,1.3287964,0.4240723,2.0038147,0.6099091
				C201.8835297,222.3873291,203.1669464,222.1502991,204.1258698,221.4593658z"/>
			<path class="st11" d="M246.1847687,212.1490173l-19.1164551-4.1418762
				c-2.5523682-0.553009-5.1221924,0.8583984-6.0248871,3.309021l-5.8777466,15.9568024
				c-4.2165527,9.9337463,0.0280609,10.9716492,0.1269684,11.1034851c1.4250183,1.8979034,2.8210602-6.8029938,3.9571533-4.7346649
				l6.8222656-8.270401l22.7586517-7.8695221L246.1847687,212.1490173z"/>
			<path class="st9" d="M218.0596008,241.1143951c0,0,5.4429321,0.3487244,8.8391113-2.8930664
				c3.3961639-3.241806,3.4893036-12.0108185,3.4893036-12.0108185l-6.7207184,1.838623l-5.9536896,9.0144043
				L218.0596008,241.1143951z"/>
			<path class="st3" d="M266.5516357,241.6952057c0,14.7455902-10.509613,22.8008881-25.2242126,20.9804535
				c-12.1594238-1.4812317-17.7508545-10.3108215-17.7508545-20.9804535c0-11.6898956,9.6014099-21.2017212,21.489624-21.2017212
				C256.9334412,220.4934845,266.5516357,229.9864807,266.5516357,241.6952057z"/>
			<ellipse class="st19" cx="241.0013123" cy="241.013092" rx="10.2468433" ry="11.8989172"/>
			<ellipse class="st3" cx="241.0013123" cy="241.013092" rx="7.1335015" ry="8.2836189"/>
			<path class="st7" d="M133.2106934,230.4558105c6.0823822,1.5278931,35.5199738,8.3468018,84.8489075,10.6585846
				c0,0,8.594101-19.1099243,25.1916809-11.54953c0.4243164,0.1932831,0.8716431,0.3258667,1.3353424,0.3746338
				c3.5393524,0.3722076,19.4478607,1.9920502,23.9105682,1.5210876c0.6532288-0.0689392,1.1148071-0.668396,0.9966431-1.3145599
				c-0.7178955-3.9259186-4.6304016-18.3731995-23.3091125-18.1047974
				c-21.6113281,0.3105469-32.5344391,21.6077271-32.5344391,21.6077271s-24.1050415-0.3735352-33.9548492-2.2954254
				c0,0,3.1465759-21.4145508-20.5519104-21.4150696c-18.0686035-0.0003967-25.0441895,14.7197876-26.7010498,19.035553
				C132.2021027,229.6001434,132.5602112,230.2924194,133.2106934,230.4558105z"/>
			<path class="st3" d="M192.3734589,200.1565704l-49.4586639-3.6362c0,0-7.8899536,0.6646576-6.3206635-6.4840546
				c1.5692749-7.1487122,53.0624542-3.5213928,54.508194-1.005188
				C193.0828857,192.4781494,193.5138702,199.1256561,192.3734589,200.1565704z"/>
			<path class="st16" d="M207.6874237,215.0639801c0,0-4.1751404,2.1573181-11.7118378,1.3329163l-6.3190002-26.8752594
				c0,0-23.3114471,0.5852356-27.5982971-8.8581543c-4.2868652-9.4434052,1.4598389-16.5983429,1.4598389-16.5983429
				l15.8524323,1.9699402c0,0,20.3101959,8.9772186,23.5102844,15.9021301
				C206.0809479,188.8621216,207.6874237,215.0639801,207.6874237,215.0639801z"/>
			<path class="st15" d="M179.4753113,129.8390656c0.0862122,1.5611572-1.053833,3.0335693-2.5128021,3.5957489
				c-1.4589539,0.5621796-3.1429138,0.3145905-4.5371552-0.3930054c-1.3942413-0.7076111-2.5328979-1.8348083-3.5214233-3.0461884
				c-2.3947754-0.3442993-4.8615112,0.9110413-6.2343597,2.9032288c-2.8634796,4.1552887-1.5596008,9.6388702-0.9105072,14.1141205
				c1.1078491,7.6383514,0.7699127,15.4838562-0.9906616,22.998642c7.0357056,1.9067535,14.4264832,2.0735474,21.4562378,0.1449738
				c1.391449-0.3817291,2.7947235-0.8535614,3.9280243-1.746582c-1.1236725-5.5941925,3.6602478-12.0076447,3.9149628-18.050705
				c0.2163849-5.1339111-2.5436707-9.865509-5.2111816-14.2573547
				C183.4360352,133.7633514,181.9441833,131.0185852,179.4753113,129.8390656z"/>
			<path class="st18" d="M213.8869629,156.6305542l-8.7299194,4.5943146
				c-1.1693573,0.6154022-1.4701233,2.1542664-0.6184998,3.1646423l0.2678375,0.3177795
				c0.6472321,0.7678986,1.7524109,0.9601898,2.6209564,0.4560089l8.4620819-4.9120941
				c1.3616943-0.7904358,1.3767548-2.7516479,0.0273743-3.562912
				C215.814682,156.6593018,214.9559479,156.0679779,213.8869629,156.6305542z"/>
			<g>
				<path class="st0" d="M214.5058746,161.3268127c-0.2146912-0.0708618-0.7019806-0.7393494-2.0344238-1.475647
					c0.3759308,0.325531,1.4966431,1.4734344,1.5096741,1.9698334c0.0089874,0.3340454-0.2596283,0.5593719-0.6751251,0.2835083
					c-0.3145142-0.2089233-0.4858551-0.3617706-1.196701-0.9296875c-0.0831146-0.0664978-0.2758942-0.1883698-0.368988-0.2811737
					c-0.0685577-0.0682526-0.292984-0.2321777-0.3673553-0.2108765c-0.0743713,0.021286,0.0029602,0.0042725-0.0265961,0.019455
					c-0.0121155,0.0063171-0.007019-0.0044861-0.0057983,0.0050964c0.0248566,0.1913147,0.1913147,0.2354279,0.3175354,0.387619
					c0.3135986,0.3780212,0.9240723,1.1569672,1.0294342,1.7119904c0.0172119,0.0901642,0.1665649,0.3794708,0.0924988,0.5549011
					c-0.0740509,0.1754303-0.3268127,0.2054749-0.4413147,0.1044159c-0.22995-0.2033234-0.5061035-1.0439453-1.767395-1.7598572
					c-0.2131195-0.1211243-0.405365-0.2207642-0.6464996-0.2569275c0.5994873,0.4564514,1.8036957,1.2765961,1.9967194,1.936203
					c0.2790375,0.9526978-2.5688019-1.0035858-3.4776459-1.2417297c-1.6104584-0.4223633-3.3120422-0.1471863-5.1864166-0.9243164
					c-0.6073914-0.2518311-1.1984406-0.8291931-1.8248901-0.9890442c-0.7244415-0.1848602-1.6372681,0.2006836-2.3467255,0.3566132
					c-5.0579834,1.1116333-9.036972,1.9861298-14.0951385,3.0977936c-2.3578644,0.5182037-4.8662415,1.0287628-7.1384277,0.2131653
					c-3.1758118-1.1399689-4.6655121-4.0617065-6.2257843-6.7935486c-2.3187561-4.0598755-4.6632385-8.0997162-6.8038635-12.2447357
					c-0.7572632-1.4663849-1.4985809-2.9655151-1.8357086-4.5811462c-0.5507507-2.6395416,0.2585907-5.9391632,3.3525391-6.3708649
					c1.6152039-0.2253876,3.2557526,0.4421082,4.5250244,1.4661255c1.8197174,1.4681244,2.9290771,3.3767548,3.8243256,5.454483
					c1.0959167,2.5434875,2.6798401,4.974884,3.9940186,7.4145203c1.1140289,2.0681,2.0243683,5.3678894,4.4151154,6.1628723
					c1.9147339,0.6366882,9.8368835,0.2688293,17.4170685,0.9837341c4.141037,0.3905487,8.6934204,0.9475098,12.241272,3.3013458
					c0.7259827,0.5097961,1.7264252,1.4087372,2.0521393,2.2249146
					C214.9337006,161.2306671,214.7332458,161.4017792,214.5058746,161.3268127z"/>
			</g>
			<path class="st11" d="M215.181076,149.9323883c-0.1836853,0.0083618-0.358902,0.0208893-0.5258789,0.0417633
				C214.8305206,149.9449158,215.0057373,149.9323883,215.181076,149.9323883z"/>
			<ellipse class="st19" cx="231.6072388" cy="157.5220795" rx="3.0003066" ry="6.140193"/>
			<path class="st3" d="M169.8925171,125.9494781c-0.1945953,0.821434,0.054245,1.8783798-0.5225372,2.4947815
				c-0.6327667,0.676239-1.611496,0.939682-2.5369873,0.9059143c-0.9255066-0.0337677-1.818924-0.3291779-2.6975861-0.6218262
				c-3.0013123-0.9995651-3.1615143-2.5784149-2.5457764-3.4104843c0.9602509-1.2976074,3.1955109-0.1233826,4.999115-4.7308807
				c0.5501556-1.4054565,2.9786987-8.9737015,5.2923584-5.2708511c0.9503632,1.5210037,0.2555389,3.3152695-0.1186523,4.8948822
				C171.2939148,122.1889572,170.3610535,123.9715424,169.8925171,125.9494781z"/>
			<path class="st16" d="M183.9791718,111.0546417c-2.5592041-1.0196152-5.0573578-0.9536438-7.7313385-0.5960846
				c-2.9401398,0.3931503-4.6941071,3.7811813-4.1329346,6.6070023c0.143219,0.7211838,0.4201202,1.4364471,0.3437958,2.1677399
				s-0.6912231,1.4858856-1.4163513,1.3641968c-0.3797455-0.0637207-0.7397614-0.3538055-1.1097717-0.2472534
				c-1.0200653,0.2937546-0.2299805,2.6492844,0.0884705,4.7599869c0.0575714,0.381546-0.2682495,0.7113113-0.6499939,0.6550522
				c-1.9932861-0.2937927-7.3718567-1.7507324-7.9753418-8.9333038
				c-0.7425537-8.8375473,8.0884552-11.6987686,11.1637115-11.9366608
				C182.1040955,104.1569748,183.9791718,111.0546417,183.9791718,111.0546417z"/>
			<ellipse class="st19" cx="169.6669006" cy="117.2292175" rx="1.9325769" ry="2.6052227"/>
			<path class="st3" d="M178.4328461,114.257019c1.1859283-0.1545258,1.3202667,0.7658615,0.2897491,0.9922867
				c-0.533844,0.1172867-3.1210938,0.6720123-3.1930237-0.1727219
				C175.4622192,114.2855225,177.8985748,114.3266373,178.4328461,114.257019z"/>
			<path class="st3" d="M183.9687805,114.4594879c0.2012787,0.0124741,0.4093018,0.0270386,0.5880585,0.1203537
				c0.382019,0.1994171,0.403595,0.6578598-0.0177917,0.8339386c-0.1486816,0.0621262-0.3135376,0.0709991-0.4746399,0.0749969
				c-0.546402,0.0135574-3.1919403,0.0658035-3.1018066-0.7771835
				C181.0470123,113.9221725,183.4310303,114.4261627,183.9687805,114.4594879z"/>
			<ellipse class="st3" cx="182.9051971" cy="117.5613098" rx="0.4617435" ry="0.8826244"/>
			<ellipse class="st3" cx="178.0697479" cy="117.2292175" rx="0.4617435" ry="0.8826244"/>
			<path class="st2" d="M181.7602386,121.2549438c-0.0476379,0.1575089-0.1984711,0.2664185-0.3572845,0.3095398
				c-0.2344971,0.0636673-0.4350739,0.0237274-2.1104279-0.0974731c-0.1499329-0.010849-0.3307495-0.0435028-0.3834839-0.1842804
				c-0.063446-0.169426,0.1240387-0.3331604,0.3014526-0.3686447c0.4741516-0.094841,0.9128876,0.256134,1.3868103,0.2463226
				c0.2369232-0.0048981,0.4896393-0.1242905,0.5727539-0.3462067c0.1412811-0.3772125-0.2700958-0.7529449-0.4576263-1.7746429
				c-0.0329437-0.1795731-0.0899353-0.8522415,0.1841583-0.4897308c0.2079468,0.2750092,0.289917,0.8127136,0.4067993,1.1400299
				C181.7480469,120.9352188,181.8199921,121.0573654,181.7602386,121.2549438z"/>
			<path class="st19" d="M183.1896515,122.1051483c-1.8722992,0.6072388-4.0059204,0.3508987-5.6810913-0.6825409
				c-0.0743103,0.9139328,0.5000153,1.8719101,1.2791901,2.3552933
				C180.2277222,124.6712189,182.3813934,124.1342545,183.1896515,122.1051483z"/>
			<g>
				<path class="st3" d="M107.3344879,188.0572968l-9.772522-41.5151215
					c-0.176651-0.7505188,0.3625412-1.4853516,1.1371078-1.5360413c21.2936172-1.3883362,41.2502365-2.3726349,59.3156815-2.9250031
					c0.8003235-0.0223236,1.3960266,0.6860199,1.2746429,1.4480438l-6.8033142,42.7218933
					c-0.0939331,0.589035-0.5900574,1.029953-1.1860199,1.0539856l-42.6966324,1.7161713
					C107.9799576,189.0434875,107.4673386,188.6210938,107.3344879,188.0572968z M100.3382187,147.4087219l9.1967392,39.0693207
					l40.6398163-1.6334381l6.4039764-40.213974C139.363739,145.1768646,120.4576416,146.1108551,100.3382187,147.4087219z"/>
			</g>
			<g>
				<path class="st3" d="M115.2219467,187.6972656l-8.3145065-41.7871094
					c-0.1348801-0.6780701,0.3054123-1.3371887,0.9834824-1.4720764c0.6776657-0.1334534,1.3369904,0.3054199,1.4720764,0.98349
					l8.3145142,41.7871094c0.1348801,0.6780701-0.3054199,1.337204-0.98349,1.4720764
					C116.0102921,188.8158112,115.3560715,188.3708649,115.2219467,187.6972656z"/>
			</g>
			<g>
				<path class="st3" d="M127.650322,187.0668793l-3.8685455-42.2406616
					c-0.0631638-0.6884613,0.4439621-1.2976532,1.1324234-1.360611c0.6884613-0.0668335,1.2974625,0.4439545,1.3606262,1.1324158
					l3.8685455,42.2406616c0.0631561,0.6884613-0.4439697,1.2976532-1.132431,1.360611
					C128.328476,188.2639618,127.7137146,187.7591858,127.650322,187.0668793z"/>
			</g>
			<g>
				<path class="st3" d="M139.6094666,187.7642975c-0.6886749-0.0619354-1.1966095-0.6705322-1.1344604-1.3589935
					l3.844696-42.6670837c0.0617371-0.6886749,0.6735992-1.1959991,1.3589935-1.1344757
					c0.6886749,0.0619507,1.1966095,0.6705322,1.1344757,1.3589935l-3.8447113,42.667099
					C140.9064636,187.3193054,140.2962952,187.8267365,139.6094666,187.7642975z"/>
			</g>
			<g>
				<path class="st3" d="M100.6526031,159.5583649c-0.0189514-0.6911163,0.5258713-1.2666931,1.21698-1.2858429
					l53.8065643-1.4812469c0.6841888-0.0030518,1.2669067,0.5260773,1.2858429,1.21698
					c0.0189514,0.6911163-0.5258636,1.2666931-1.21698,1.2858429l-53.8065567,1.4812469
					C101.2181473,160.7879791,100.6710815,160.2279205,100.6526031,159.5583649z"/>
			</g>
			<g>
				<path class="st3" d="M104.3092575,175.103653c-0.0266953-0.6909027,0.5120163-1.2723999,1.202713-1.2988892
					l47.7328568-1.8318787c0.6968231-0.0360718,1.2723999,0.5120087,1.2988892,1.202713
					c0.0267029,0.6909027-0.5120087,1.2723999-1.202713,1.2988892l-47.7328644,1.8318939
					C104.9435577,176.3395996,104.336441,175.8122253,104.3092575,175.103653z"/>
			</g>
			<g>
				<path class="st3" d="M111.3127365,124.8363571c-8.9590302-17.1789932,7.9941711-25.6231613,14.6742249-12.6647949
					c1.5431671,2.9937057,2.0654068,6.3652573,2.5261307,9.3398514c0.0699005,0.4518814-0.2335968,0.844162-0.6780396,0.876709
					c-0.0015717,0.0001068-0.0031509,0.0002136-0.0045242,0.0003052c-0.4428711,0.0298233-0.8574295-0.3092651-0.927063-0.7593384
					c-0.4618683-2.9821854-0.9395218-6.0660019-2.3500519-8.8021164
					c-5.64505-10.9523163-19.7254257-3.8275299-11.8110733,11.3461761c0.2158279,0.4142075,0.0710754,0.8984909-0.3236847,1.0814362
					C112.0203247,125.4399567,111.5265579,125.2461014,111.3127365,124.8363571z"/>
			</g>
			<path class="st15" d="M83.0551071,29.5504303h29.0044556c1.3140717,0,2.1166229,1.4784946,2.0249939,1.3783703
				c0.6979218,1.291563,0.182724,2.6180973-1.0168152,2.6180973H84.0632858c-0.9744034,0-1.9899979-0.8946381-2.2684021-1.9982319
				v-0.0000038C81.5164871,30.4450703,82.0807037,29.5504303,83.0551071,29.5504303z"/>
			
				<ellipse transform="matrix(0.8052194 -0.592977 0.592977 0.8052194 5.4447012 79.6728058)" class="st15" cx="123.997612" cy="31.5486641" rx="1.6202213" ry="2.1759419"/>
			<g>
				<path class="st13" d="M259.2518311,89.0650558l-24.396637,38.4492111l-24.3890076-38.4341202
					c-11.0095825-19.3686905,4.105011-39.4895287,24.3889923-39.4895287h0.0000916
					C255.1318817,49.5906181,269.0340576,71.8025818,259.2518311,89.0650558z"/>
				<circle class="st20" cx="234.8551941" cy="76.793251" r="14.986434"/>
			</g>
		</g>
	</g>
</g>
</svg>
