<?xml version="1.0" encoding="utf-8"?>
<!-- Generator: Adobe Illustrator 22.0.1, SVG Export Plug-In . SVG Version: 6.00 Build 0)  -->
<svg version="1.1" id="Layer_1" xmlns="http://www.w3.org/2000/svg" xmlns:xlink="http://www.w3.org/1999/xlink" x="0px" y="0px"
	 viewBox="0 0 300 300" style="enable-background:new 0 0 300 300;" xml:space="preserve">
<style type="text/css">
	.st0{fill:#EDC1A4;}
	.st1{fill:#E2E0E0;}
	.st2{fill:#D39E81;}
	.st3{fill:#502E26;}
	.st4{fill:#CCCACA;}
	.st5{fill:#426800;}
	.st6{fill:#538705;}
	.st7{fill:#D47E44;}
	.st8{fill:#73341D;}
	.st9{fill:#BC672E;}
	.st10{fill:#96311D;}
	.st11{fill:#B83E21;}
	.st12{fill:#DE8D82;}
	.st13{fill:#EFBAB4;}
	.st14{fill:#FDD5D0;}
	.st15{fill:#6883CE;}
	.st16{fill:#3D4885;}
	.st17{fill:#3859AE;}
	.st18{fill:#864424;}
	.st19{fill:#FEFEFE;}
	.st20{fill:#FFFFFF;}
	.st21{fill:#A55925;}
	.st22{fill:#F4F2F2;}
	.st23{fill:#3C3E68;}
	.st24{fill:#E8997C;}
	.st25{fill:#F5C46B;}
	.st26{fill:#F7EBDA;}
	.st27{fill:#0E0C0D;}
	.st28{fill:#657C3A;}
	.st29{fill:#576C37;}
	.st30{fill:#7C995D;}
	.st31{fill:#36518C;}
	.st32{fill:#96B7E3;}
	.st33{fill:#A3B3DF;}
	.st34{fill:url(#SVGID_1_);}
	.st35{fill:url(#SVGID_2_);}
	.st36{fill:url(#SVGID_3_);}
	.st37{fill:url(#SVGID_4_);}
	.st38{fill:url(#SVGID_5_);}
	.st39{fill:#266AB7;}
	.st40{fill:#060E0D;}
	.st41{fill:#E0D4C6;}
	.st42{fill:#787E42;}
	.st43{fill:#D3D1D1;}
	.st44{fill:url(#SVGID_6_);}
	.st45{fill:url(#SVGID_7_);}
	.st46{fill:url(#SVGID_8_);}
	.st47{fill:#020508;}
	.st48{fill:#BAB6B6;}
	.st49{fill:#0F0B07;}
	.st50{fill:#2F3A68;}
	.st51{fill:#203257;}
	.st52{opacity:0.5;fill:#FFFFFF;}
	.st53{opacity:0.2;fill:#0E0C0D;}
	.st54{fill:#DD9F9B;}
	.st55{fill:#3E4D9B;}
	.st56{fill:url(#SVGID_9_);}
	.st57{fill:#5F6194;}
	.st58{fill:url(#SVGID_10_);}
	.st59{fill:url(#SVGID_11_);}
	.st60{fill:url(#SVGID_12_);}
	.st61{fill:url(#SVGID_13_);}
	.st62{fill:#070102;}
	.st63{fill:#100805;}
	.st64{fill:#FDA465;}
	.st65{fill:#2A50A1;}
	.st66{fill:#B76C39;}
	.st67{fill:#130602;}
	.st68{fill:url(#SVGID_14_);}
	.st69{fill:url(#SVGID_15_);}
	.st70{fill:url(#SVGID_16_);}
	.st71{fill:url(#SVGID_17_);}
	.st72{fill:url(#SVGID_18_);}
	.st73{fill:url(#SVGID_19_);}
	.st74{fill:#B4BDED;}
	.st75{fill:#100D08;}
	.st76{fill:#F6C85F;}
	.st77{fill:#FECF00;}
	.st78{fill:#2D59E2;}
	.st79{fill:#121F3A;}
	.st80{fill:#BBD0F5;}
	.st81{fill:#020202;}
	.st82{fill:#E2CFB7;}
	.st83{fill:#080805;}
	.st84{fill:#A87D7C;}
	.st85{fill:#182052;}
	.st86{fill:#EAEAEA;}
	.st87{fill:#DDDDDD;}
	.st88{fill:#3D4574;}
	.st89{fill:#ABC5F0;}
	.st90{fill:url(#SVGID_20_);}
	.st91{fill:#4159A8;}
	.st92{fill:#E0D0BD;}
	.st93{fill:#3D53AA;}
	.st94{fill:#0A0000;}
	.st95{fill:#BF6D36;}
	.st96{fill:#385DAE;}
	.st97{fill:#E0DCDC;}
	.st98{fill:#857E78;}
	.st99{fill:#0E213C;}
	.st100{fill:url(#SVGID_21_);}
	.st101{fill:#55608E;}
	.st102{opacity:0.3;fill:#F4F2F2;}
	.st103{opacity:0.3;}
	.st104{fill:#213987;}
	.st105{enable-background:new    ;}
</style>
<g id="Online_Grocery_1_">
	<g id="Online_Grocery">
		<g>
			<g>
				<path class="st15" d="M149.2321167,254.2459717c-17.0650177,5.4655457-50.8149185,16.7362976-66.8011169,22.0889893
					c-4.654129,1.5616455-9.5959625-1.3559875-10.5000763-6.1849365L29.3658981,41.585743
					c-0.9142704-4.9006958,2.4761829-9.5651093,7.4178886-10.2127476l68.5170288-8.9791718
					c5.4142685-0.7088413,10.4588089,2.9176407,11.4964905,8.2908974l40.6745377,209.629715
					C158.6533661,246.3759613,155.1191864,252.3557281,149.2321167,254.2459717z"/>
				<path class="st15" d="M142.019104,256.6408691c-17.0650177,5.4655457-44.3031387,15.1075745-60.4562073,19.9333496
					c-9.4194489,2.8140869-15.7193298,0.0024719-16.6234436-4.8265076L22.1528854,43.9806366
					c-0.9142704-4.9006958,2.0863895-10.5977554,14.0532379-12.5101738l61.8816833-6.6817455
					c5.4142685-0.7088432,10.4588089,2.9176407,11.4964905,8.2908955l40.6745377,209.6296997
					C151.4403534,248.7708588,147.9061737,254.7506104,142.019104,256.6408691z"/>
				<path class="st19" d="M73.7481918,269.8096924L31.184042,41.2471809
					c-0.7207298-3.8612022,1.9437466-7.5298157,5.8397961-8.0405693l68.5174103-8.9791718
					c4.4950562-0.5879097,8.5979538,2.4475079,9.4406967,6.8079967l40.674408,209.6312256
					c1.0013123,5.1374664-2.0036163,10.2177582-6.9895935,11.8185425
					c-16.6344757,5.3276062-49.0069504,16.1307983-66.8228149,22.096283
					C78.2137985,275.7980652,74.4397812,273.499115,73.7481918,269.8096924z"/>
				<path class="st22" d="M147.094574,247.5939484c-26.7612915,8.5576019-66.7462082,22.1712494-67.232666,22.1712494
					c-0.5239868,0-0.9658203-0.380249-1.0685349-0.9039612L50.827713,118.6558762l-1.6027985-8.5788498
					c-0.3233643-1.7373199-12.6105499-67.7518539-12.9862862-69.7705536
					c-0.1857719-0.9497795,0.4649086-1.8879395,1.4486618-2.0136566l13.5924149-1.7773705
					c0.2877007,0.9862595,0.6882744,2.3221741,1.0788155,3.6064148c0.7191277,2.3216743,3.0101967,3.7804947,5.4143906,3.4418755
					l34.5717392-4.9112282c2.9897537-0.431427,4.9006958-3.4007378,4.0375977-6.2877808L95.87883,30.669632
					c11.6255951-1.5179462,10.4347992-1.387085,10.7773666-1.387085c1.592514,0,2.9795914,1.1508026,3.2774506,2.7229996
					c41.274147,212.7801208,3.3775406,17.4104004,40.6745377,209.63974
					C151.1218719,244.2238159,149.6013489,246.7822571,147.094574,247.5939484z"/>
				<polygon class="st3" points="90.4990997,138.7216187 145.8047791,130.9295807 171.3739319,133.9890137 150.9228363,150 
					100.7278137,149.7376862 				"/>
				<path class="st6" d="M118.6311874,152.5705261c-1.4334183-4.8625641-5.4020538-8.9001007-10.2392349-10.4170074
					c-0.882103-0.2766266-1.804657-0.4812317-2.5871887-0.9734344s-1.4133377-1.3637695-1.3018112-2.2814636
					c0.1115265-0.9177094,1.2290497-1.6571808,2.0156784-1.1715546c-1.4362946-0.6720428-2.8725815-1.3440704-4.308876-2.0161133
					c-1.0275421-0.4807892-2.2270889-1.2436371-2.1169968-2.3727417c0.087677-0.8992462,1.0581207-1.5000153,1.9616241-1.5034332
					s1.7440643,0.4295349,2.5428848,0.8516846c-0.724823-2.2710724-5.1265869-1.3464355-5.7209091-3.6551056
					c-0.3432465-1.3333664,1.1783142-2.5452805,2.5519409-2.4512253s2.5276413,1.021759,3.5818253,1.9074173
					c-2.4236908-4.1892166-5.1530609-7.9813461-7.6678696-12.0743637c-0.365387-0.5946808-0.7175827-1.4094086-0.250824-1.9283447
					c0.5586319-0.6210861,1.5725937-0.0949554,2.1980438,0.4587936c3.9743271,3.5186844,7.3417511,7.7210693,9.9096222,12.3667603
					c-0.5069351-1.3445129-1.0220718-2.7822037-0.7192307-4.1868286c0.3028336-1.4046326,1.7892838-2.6489334,3.1339417-2.1423721
					c0.5790634,0.2181396,1.017067,0.7101822,1.3243103,1.2473068c1.2909164,2.2567596,0.527153,5.0830841-0.2664261,7.5588989
					c0.0678253-0.8777161,0.6880493-1.9554367,1.1490326-2.7054138c0.4609909-0.7499847,1.4302444-1.2667923,2.2402649-0.9220581
					c1.0658646,0.4536209,1.1449432,1.9099121,1.0534973,3.064682c-0.1729431,2.1838684-0.3458862,4.3677368-0.5188217,6.55159
					c-0.0074158-0.6239624-0.0118713-1.2654419,0.2113571-1.8481598c0.2232361-0.5827332,0.7303925-1.1010132,1.3528061-1.1457825
					c0.7184525-0.0516968,1.3543243,0.5467377,1.5908661,1.2270966c0.8292084,2.3850098-2.2132187,10.3614807-0.3106766,15.6061707
					c1.6510239,4.5513306,3.297966,9.1041565,4.9469452,13.6562347"/>
				<path class="st8" d="M110.6273117,143.3311768l-20.128212-4.6095581l-12.1215515,81.7592621
					c0,0,24.5325089,10.7292786,34.2112198,10.2759399l13.2537689-46.009964L110.6273117,143.3311768z"/>
				<path class="st7" d="M162.763031,132.7893829c-1.1095428,3.9345093-2.5993347,7.8283691-4.9931183,11.1368103
					c-5.1094666,7.0828094-13.066864,9.6259613-20.4246216,5.4555206c-2.1163635-1.2125092-4.5925446-2.7636261-4.9931183-5.3732452
					c-0.503418-3.2878723,1.2636719-7.253479,2.2190857-10.3256226
					c2.9894562-9.4863281,10.9799042-28.6323013,19.2430878-34.4072037
					c4.8509827-3.402153,10.1190186-2.2101593,11.1473236,7.4074783
					C165.8965149,115.4159775,165.1362457,124.3334503,162.763031,132.7893829z"/>
				<path class="st8" d="M160.6260986,117.3267975c-2.4657745-5.496666-8.2705841-9.2977295-14.2808075-9.513443
					c1.4075165-2.2604675,2.9588928-4.4386673,4.8185425-6.2983093
					C156.6395721,104.9671631,158.8142548,111.5765991,160.6260986,117.3267975z"/>
				<path class="st8" d="M155.7459717,128.1761475c-2.5993347-5.8152161-8.9281311-9.7191162-15.2774811-9.5239716
					c1.1713715-2.4862137,2.4453278-4.9312973,3.8014374-7.3252106
					C151.0735779,114.0046387,153.7377472,121.7802887,155.7459717,128.1761475z"/>
				<path class="st8" d="M150.7117157,138.7380524c-2.5069122-5.5995026-8.4862976-9.4421997-14.6199341-9.5244751
					c0.9261627-2.6252899,2.7191315-7.0758209,2.9384613-7.4074783c3.6947937,1.385704,6.4477692,4.5811844,8.3013,8.1062851
					C148.800766,132.7071228,149.7664642,135.7276001,150.7117157,138.7380524z"/>
				<g>
					<path class="st11" d="M144.6238861,130.4194489c-1.9604645-10.1689682-17.6982727-11.8960342-23.876091,0.8854523
						c-1.5119553,3.1281433-3.2035065,8.401413-1.5954514,11.7433319c1.3767319,2.8611755,4.7475815,6.8767242,8.2600784,6.4085999
						c1.9541245-0.2604218,4.0241928-1.8105469,6.0369034-1.0206604c0.5296021,0.20784,1.0119324,0.5206909,1.5346985,0.745163
						c1.2423859,0.5334778,2.7038422,0.5326843,3.9456482-0.0021515c3.8446198-1.6558075,4.6973267-7.0539246,5.3562164-10.6531525
						C144.7812347,135.8201294,145.1204681,132.9952545,144.6238861,130.4194489z"/>
				</g>
				<path class="st6" d="M124.9778671,127.2664795c2.396698-1.6158752,5.1322708-2.726593,7.9770584-3.2389069
					c-2.2377625,1.0186234-3.7592773,3.4398422-3.7063599,5.8979645c1.0051727-1.78862,2.5651703-3.2602768,4.4092712-4.1596146
					c0.1295929,1.6195068,0.2591858,3.2390213,0.3887634,4.8585129c0.4877167-1.3823853,0.9754181-2.7647858,1.4631348-4.1471863
					c1.787262,0.5182877,3.2195587,2.1029053,3.5551758,3.9332886c0.2951508-2.0013275-0.2373962-4.1120224-1.4466858-5.7337723
					c1.6569366-0.0169067,3.3023529,0.7888107,4.3050232,2.1080551c0.0822296-2.9080582-2.4606476-5.2221222-5.3484802-4.8662186
					c1.1588745-0.9263763,2.3177643-1.8527603,3.4766388-2.7791443c-2.0198975-0.3710403-4.2150726,0.4676514-5.4729767,2.0910187
					c-0.0112152-1.3236389-1.3947144-2.2358627-2.6987305-2.4632492c-1.2868652-0.2243958-2.6060028-0.0578003-3.8844452-0.3581009
					c2.1400299,0.781723,3.569397,2.5093689,1.390976,4.199234
					C127.5878296,124.0034485,125.9862823,125.1226959,124.9778671,127.2664795z"/>
				<path class="st0" d="M130.8205414,123.9573975c-0.1334381,0.6882706-0.3389893,1.3865814-0.7602539,1.9414139
					c-0.4108582,0.5447998-1.0684052,0.9451218-1.7362366,0.9145203c-1.7499924,0-3.6356888-3.9680481-4.2123032-5.6301041
					c0.13694,2.6964188,0.9917755,5.106987-0.0205612,7.2740326c-0.5239868,1.0991364-1.6232452,1.9825592-2.8356247,1.9624939
					c-2.749176-0.0732269-3.9041748-3.8328705-4.5205612-6.5034943c0.3513794,4.483963-3.4258652,8.1743469-5.5375519,6.9243774
					c-0.7089615-0.4108582-1.0171051-1.2531433-1.2535172-2.0342255c-0.4315491-1.4176788-0.7909851-2.8458939-1.088974-4.2941818
					c0.1231613,0.9451218,0.0821533,1.920845-0.0925522,2.8353653c-0.2465668,1.3048096-1.2122574,2.5684967-2.5273514,2.7636414
					c-1.9520798,0.2874451-3.7601776-1.7156677-4.5102768-3.3084412
					c-3.0409393-6.4323959-6.4662704-12.2304077-12.7294388-18.4208679
					c-6.5585098-6.4933319-9.5988998-4.1438217-15.7191925-0.4519958
					c-7.1403503,4.2841568-16.2634964,5.0958405-24.0512314,2.1470947l-5.9075203-31.7363663
					c7.5308876,3.0821838,17.5377045,6.8937759,21.3493004,7.0482864c6.4417877,0.2568512,7.7054596-0.1339417,17.9177094-4.1918488
					c4.8492737-1.9313812,9.5445328-4.7772903,14.7432175-5.7023468c9.9451141-1.7773743,16.9520111,8.6405563,21.904007,15.8629227
					c3.2686386,4.7808075,6.5020142,10.6032486,8.4245834,16.048027c0.9658127,2.7636337,1.9212265,4.7878189,2.517189,7.6542969
					C130.7589722,117.9570694,131.4165192,121.0086517,130.8205414,123.9573975z"/>
				<g>
					<path class="st2" d="M108.4853821,124.5779953c-0.0083008-0.0498047-0.8554688-5.0776367-3.0205078-10.3762207
						c-2.1567383-5.2790527-13.3950195-17.5537109-13.5083008-17.677002
						c-0.3353882-0.365181,0.2164612-0.8722076,0.5527344-0.5073242
						c0.4658203,0.5078125,11.4423828,12.4978027,13.6499023,17.9006348
						c2.1982422,5.3796387,3.0576172,10.4865723,3.0664063,10.5378418
						C109.306221,124.9442215,108.5676117,125.068779,108.4853821,124.5779953z"/>
				</g>
				<g>
					<path class="st2" d="M116.3618469,123.8895187c0.0068359-0.081543,0.6660156-8.1865234-0.9746094-12.3703613
						c-2.2744141-5.7995605-12.8969727-20.9936523-21.4506836-26.5366211
						c-0.4154739-0.2690048-0.0093994-0.8990173,0.4082031-0.6293945
						c8.6704102,5.6186523,19.4360352,21.015625,21.7407227,26.8920898
						c1.7045898,4.3469238,1.0522461,12.3679199,1.0234375,12.7072754
						C117.0678635,124.4501343,116.3195038,124.3858566,116.3618469,123.8895187z"/>
				</g>
				<g>
					<path class="st2" d="M123.7378235,121.2069016c-0.003418-0.0644531-0.3476563-6.505127-2.7792969-13.4023438
						c-2.4301758-6.8911133-17.6484375-25.2841797-17.8017578-25.4689941
						c-0.3171158-0.3820572,0.2607727-0.8607559,0.5771484-0.4790039
						c0.6298828,0.7595215,15.4575195,18.6821289,17.9316406,25.6984863
						c2.4697266,7.0048828,2.8178711,13.5493164,2.8212891,13.6147461
						C124.5115051,121.6676788,123.7621002,121.7058411,123.7378235,121.2069016z"/>
				</g>
				<path class="st11" d="M61.3790779,116.4676437l-10.5513649,2.1882324l-1.6027985-8.5788498
					c-0.6754684-3.6294785,2.4469223,13.147995-6.6060791-35.4962921L58.84132,79.1523361
					C62.2419319,78.9160614,64.7898483,116.2414017,61.3790779,116.4676437z"/>
				<g>
					<path class="st0" d="M228.2279358,235.1761017c-2.6404877,0.5342712-5.8869629-1.2325745-8.4247131-1.9825439
						c-6.6165009-1.9624939-13.2122955-3.9761505-19.9520569-5.4249268
						c-12.2474976-2.6080322-12.7963104-1.5322876-21.1231842,1.9318848
						c-6.6164856,2.7636261-13.5514069,5.3832855-20.7740173,5.9175415
						c-8.3577118,0.6066132-11.7247772-0.9724426-19.2122345-5.9280853
						c-11.7782669-7.7914124-13.798378-9.0094299-15.4623489-11.4864502
						c-1.7053833-2.5479279-2.2602158-7.2123413,1.6542206-7.6743622
						c5.1187363-0.5900116,14.1872177,4.4048157,18.5649643,6.6263885c3.8527374,1.9524536,4.6335602,1.5822296,8.5375977,0.3291016
						c0.1175079,0,6.8703461-2.9013062,10.2535095-4.7572327c0.074234-1.1222687,0.0877991-2.6948547,0.0821381-4.2841492
						c-4.1095734,0.534256-13.0890045,0.647644-17.02388-0.2463226c-1.1039429-0.2430267-2.3466949-0.7359772-3.4314575-1.4588165
						c-1.4589539-0.965683-2.3630676-2.2193298-2.6404877-3.9555664c-0.2465515-1.5310669-0.0102692-3.1132965,0.934967-4.3664246
						c4.2945709-5.7229156,17.1267242-2.958786,23.5992432-4.0273132
						c10.1403809-2.2193298,15.2979279-7.7776947,26.5169983-6.8837433
						c8.1586456,0.6749268,10.164032,4.2770386,13.1404114,6.7603302c2.5787811,2.1370697,5.9795074,3.2361908,9.2774048,3.5753174
						c3.0616302,0.3080139,5.8766785-0.6882782,9-0.2157135c6.2260742,0.9245605,12.0410309,4.72612,15.1232147,10.2433472
						C243.2464905,219.3063049,236.3340607,233.5229797,228.2279358,235.1761017z"/>
					<path class="st13" d="M147.2695618,196.9980011c1.2972412-0.1268311,2.8639069-0.1239014,3.9507446,0.6850891
						c1.9255371,1.4346008,1.8156128,5.2228851,0.3123016,7.0078278c-1.2389526,1.470993-2.8012085,1.6135712-4.5859833,1.7246552
						c-1.3485565-0.1371002-2.6604614-0.2236176-3.8404083-0.9647827c-2.1442261-1.3462982-2.4698792-4.1192627-1.0325928-6.0372009
						C143.3382568,197.7358704,145.3117828,197.2941589,147.2695618,196.9980011z"/>
					<path class="st11" d="M217.1939545,197.6175232c2.3474426-0.6719055,49.4568024-3.2598419,55.8627472-3.0641022
						c1.6381531,4.0665741,2.6579285,8.3252258,3.4581299,12.6278839
						c2.4221802,13.0266724,1.9786682,25.8590698-2.0487061,38.5305786
						c-9.2914734,1.6300812-29.062439,2.9287872-38.274353,0.7499847c-4.5036316-1.0648499-6.3403625-1.8733826-8.6985779-9.0417938
						C223.1963196,224.3586121,219.6743011,211.1211853,217.1939545,197.6175232z"/>
				</g>
				<g>
					<path class="st2" d="M131.0732727,217.8773041c-0.3903198-0.3061829,0.075119-0.897049,0.4638672-0.5888672
						c9.0673828,7.1455078,21.8422852,8.9663086,32.5454102,4.6401367c0.4584503-0.1864166,0.7421875,0.5088348,0.28125,0.6953125
						C153.39151,227.059494,140.3269958,225.1699829,131.0732727,217.8773041z"/>
				</g>
				<g>
					<path class="st2" d="M128.5156555,221.4603119c-0.3489075-0.3535919,0.1871033-0.8804169,0.5341797-0.5263672
						c7.5693359,7.6855469,19.2241211,10.9648438,29.6850586,8.3525391
						c0.4776764-0.1220551,0.6656036,0.6062622,0.1816406,0.7275391
						C148.2444458,232.6772614,136.2992859,229.3640442,128.5156555,221.4603119z"/>
				</g>
				<polygon class="st18" points="110.6273117,143.3311768 112.588768,230.7568207 177.2405701,209.3877869 
					171.3739319,133.9890137 				"/>
				<g>
					<path class="st0" d="M198.2118988,203.5078888c-9.1885223,4.0036011-19.3156281,5.8132935-29.3223267,5.2970123
						c-2.2234802-0.1147156-4.5902863-0.7117767-6.7954102-0.4937134c-1.7695313,0.1750031-3.4746704,0.5515594-5.2967682,0.602829
						c-6.4868164,0.1825256-16.4835205,0.4566345-17.5214081-6.039032c-0.2465515-1.5310516-0.0102692-3.1132813,0.934967-4.3664246
						c4.2945709-5.7229156,17.1267242-2.9587708,23.5992432-4.0273132
						c10.1403809-2.2193298,15.2979279-7.7776947,26.5169983-6.8837433
						c2.8561859,0.2362823,5.7946472,0.9451294,8.2397308,2.5067902
						C205.9711609,194.7940826,206.526062,199.8852692,198.2118988,203.5078888z"/>
					<path class="st2" d="M183.473938,209.0580597c-1.9210968-0.2051697-3.8370209,0.5892944-5.7378082,1.0513153
						c-1.7156677,0.421402-3.5647125,0.7779083-5.1983643,1.4661713c-3.0699005,1.2858887-6.2688446,2.2226563-9.3890076,3.3732452
						c-2.3049774,0.8499908-3.9597321,1.7515869-6.5986938,1.8936157c-0.3838043,0.0206604-0.9252472-0.1668701-1.3092651-0.1831512
						c-0.259613-0.0110016,10.8931427-4.0665283,11.1692505-4.4134674c0.2782288-0.3495789,0.1061554-1.514267,0.111496-1.9594116
						c0.0085297-0.7107239,0.0053864-1.4215393,0.0106659-2.132309c1.9110565-0.5548248,3.9555664-0.6265717,5.9383698-0.6060028
						C176.5744629,207.5480652,179.3155365,207.118576,183.473938,209.0580597z"/>
					<path class="st7" d="M147.2695618,197.0904236c1.2972412-0.1268311,2.8639069-0.1239014,3.9507446,0.6851044
						c1.9255371,1.4345856,1.8156128,5.2228699,0.3123016,7.0078125c-1.2389526,1.470993-2.8012085,1.6135864-4.5859833,1.7246552
						c-1.3485565-0.1371002-2.6604614-0.2236176-3.8404083-0.9647827c-2.1442261-1.3462982-2.4698792-4.1192627-1.0325928-6.0371857
						C143.3382568,197.8283081,145.3117828,197.3865967,147.2695618,197.0904236z"/>
				</g>
			</g>
			<path class="st7" d="M120.1328354,123.154335l1.3908386-0.2522659c0.9105148-0.1651459,1.7777786,0.4571304,1.9000778,1.3743896
				c0.2324524,1.7433548,0.3627548,4.2521515-0.7735367,4.4339447c-1.5256653,0.2441101-2.9623184-0.2552032-3.8105087-3.5771484
				C118.6096191,124.2321014,119.2176971,123.3203125,120.1328354,123.154335z"/>
			<path class="st7" d="M127.0851669,119.5869827l1.390831-0.2522659c0.9105225-0.1651382,1.7777863,0.4571304,1.9000854,1.3743896
				c0.2324524,1.7433548,0.3627472,4.2521439-0.7735443,4.4339523c-1.52565,0.2441025-2.9623108-0.2552032-3.8105011-3.5771561
				C125.5619431,120.6647491,126.1700287,119.7529602,127.0851669,119.5869827z"/>
			<path class="st7" d="M112.0770569,123.8530273l1.410965-0.0874786c0.9236908-0.0572662,1.7117462,0.6627045,1.7252579,1.5883636
				c0.0256653,1.7593079-0.7955933,4.2434845-1.9876633,4.2856293c-1.6005554,0.0565948-2.214325-0.5722198-2.6657028-3.9721146
				C110.4374695,124.7451248,111.1486816,123.9105835,112.0770569,123.8530273z"/>
			<path class="st7" d="M104.3897476,123.7996445l1.0759888-0.3672104c0.7043991-0.2404022,1.4687042,0.15065,1.6758347,0.8655396
				c0.3936768,1.3587341,0.2843399,3.4592285-0.6314697,3.7448425c-1.2296219,0.3834991-1.8393478,0.0261536-2.9118195-2.5143661
				C103.3073502,124.8392792,103.681778,124.0412598,104.3897476,123.7996445z"/>
		</g>
	</g>
</g>
</svg>
