<?xml version="1.0" encoding="utf-8"?>
<!-- Generator: Adobe Illustrator 22.0.1, SVG Export Plug-In . SVG Version: 6.00 Build 0)  -->
<svg version="1.1" id="Layer_1" xmlns="http://www.w3.org/2000/svg" xmlns:xlink="http://www.w3.org/1999/xlink" x="0px" y="0px"
	 viewBox="0 0 300 300" style="enable-background:new 0 0 300 300;" xml:space="preserve">
<style type="text/css">
	.st0{fill:#EDC1A4;}
	.st1{fill:#E2E0E0;}
	.st2{fill:#D39E81;}
	.st3{fill:#502E26;}
	.st4{fill:#CCCACA;}
	.st5{fill:#426800;}
	.st6{fill:#538705;}
	.st7{fill:#D47E44;}
	.st8{fill:#73341D;}
	.st9{fill:#BC672E;}
	.st10{fill:#96311D;}
	.st11{fill:#B83E21;}
	.st12{fill:#DE8D82;}
	.st13{fill:#EFBAB4;}
	.st14{fill:#FDD5D0;}
	.st15{fill:#6883CE;}
	.st16{fill:#3D4885;}
	.st17{fill:#3859AE;}
	.st18{fill:#864424;}
	.st19{fill:#FEFEFE;}
	.st20{fill:#FFFFFF;}
	.st21{fill:#A55925;}
	.st22{fill:#F4F2F2;}
	.st23{fill:#3C3E68;}
	.st24{fill:#E8997C;}
	.st25{fill:#F5C46B;}
	.st26{fill:#F7EBDA;}
	.st27{fill:#0E0C0D;}
	.st28{fill:#657C3A;}
	.st29{fill:#576C37;}
	.st30{fill:#7C995D;}
	.st31{fill:#36518C;}
	.st32{fill:#96B7E3;}
	.st33{fill:#A3B3DF;}
	.st34{fill:url(#SVGID_1_);}
	.st35{fill:url(#SVGID_2_);}
	.st36{fill:url(#SVGID_3_);}
	.st37{fill:url(#SVGID_4_);}
	.st38{fill:url(#SVGID_5_);}
	.st39{fill:#266AB7;}
	.st40{fill:#060E0D;}
	.st41{fill:#E0D4C6;}
	.st42{fill:#787E42;}
	.st43{fill:#D3D1D1;}
	.st44{fill:url(#SVGID_6_);}
	.st45{fill:url(#SVGID_7_);}
	.st46{fill:url(#SVGID_8_);}
	.st47{fill:#020508;}
	.st48{fill:#BAB6B6;}
	.st49{fill:#0F0B07;}
	.st50{fill:#2F3A68;}
	.st51{fill:#203257;}
	.st52{opacity:0.5;fill:#FFFFFF;}
	.st53{opacity:0.2;fill:#0E0C0D;}
	.st54{fill:#DD9F9B;}
	.st55{fill:#3E4D9B;}
	.st56{fill:url(#SVGID_9_);}
	.st57{fill:#5F6194;}
	.st58{fill:url(#SVGID_10_);}
	.st59{fill:url(#SVGID_11_);}
	.st60{fill:url(#SVGID_12_);}
	.st61{fill:url(#SVGID_13_);}
	.st62{fill:#070102;}
	.st63{fill:#100805;}
	.st64{fill:#FDA465;}
	.st65{fill:#2A50A1;}
	.st66{fill:#B76C39;}
	.st67{fill:#130602;}
	.st68{fill:url(#SVGID_14_);}
	.st69{fill:url(#SVGID_15_);}
	.st70{fill:url(#SVGID_16_);}
	.st71{fill:url(#SVGID_17_);}
	.st72{fill:url(#SVGID_18_);}
	.st73{fill:url(#SVGID_19_);}
	.st74{fill:#B4BDED;}
	.st75{fill:#100D08;}
	.st76{fill:#F6C85F;}
	.st77{fill:#FECF00;}
	.st78{fill:#2D59E2;}
	.st79{fill:#121F3A;}
	.st80{fill:#BBD0F5;}
	.st81{fill:#020202;}
	.st82{fill:#E2CFB7;}
	.st83{fill:#080805;}
	.st84{fill:#A87D7C;}
	.st85{fill:#182052;}
	.st86{fill:#EAEAEA;}
	.st87{fill:#DDDDDD;}
	.st88{fill:#3D4574;}
	.st89{fill:#ABC5F0;}
	.st90{fill:url(#SVGID_20_);}
	.st91{fill:#4159A8;}
	.st92{fill:#E0D0BD;}
	.st93{fill:#3D53AA;}
	.st94{fill:#0A0000;}
	.st95{fill:#BF6D36;}
	.st96{fill:#385DAE;}
	.st97{fill:#E0DCDC;}
	.st98{fill:#857E78;}
	.st99{fill:#0E213C;}
	.st100{fill:url(#SVGID_21_);}
	.st101{fill:#55608E;}
	.st102{opacity:0.3;fill:#F4F2F2;}
	.st103{opacity:0.3;}
	.st104{fill:#213987;}
	.st105{enable-background:new    ;}
</style>
<g id="Online_Order_1_">
	<g id="Online_Order">
		<g>
			<ellipse class="st11" cx="153.6101532" cy="188.5556793" rx="124.3898468" ry="42.011467"/>
			<path class="st3" d="M209.7654724,185.7773895l-8.5663757,22.5238342
				c-0.5451813,1.4334412-1.9193115,2.3809967-3.4529419,2.3809967H98.6861801c-2.8807144,0-4.6529922-3.15065-3.1571274-5.6125336
				l14.0940781-23.1959229c0.6749268-1.1107941,1.8839417-1.7851715,3.18367-1.7758331l93.1709976-3.5418701
				C208.5531006,176.5745697,210.6809692,183.370224,209.7654724,185.7773895z"/>
			<g>
				<path class="st25" d="M229.0298157,191.6639099l-1.6035156-1.1953125
					c0.371582-0.4985352,0.7978516-1.0336914,1.2426758-1.5917969c5.7014008-7.1518402,4.2563934-7.7850952-1.6337891-9.3022461
					c-2.9072266-0.7495117-5.9130859-1.5244141-6.8427734-3.6943359c-1.5061798-3.5201874,0.572464-8.3128967,6.796875-10.0024414
					c5.8729706-1.5937042,12.688446,0.1374207,17.690918-2.8276367c4.5005646-2.6669922,6.1528168-7.6735687-2.0595703-12.8452148
					c-9.2207031-5.8046875-19.0195313-10.8164063-29.1240234-14.8955078l0.7490234-1.8544922
					c10.2143555,4.1235352,20.1196289,9.1894531,29.4404297,15.0576172
					c9.3647919,5.8974609,7.7567902,12.8544922,2.0136719,16.2583008
					c-5.5949554,3.3161011-12.5405731,1.5042572-18.1870117,3.0375977c-5.0027924,1.3569794-6.502533,4.8990479-5.4814453,7.284668
					c0.9712524,2.2688904,8.3246918,2.4971771,10.8803711,4.6503906
					C236.7593536,182.9850006,231.616806,188.1923828,229.0298157,191.6639099z"/>
			</g>
			<path class="st8" d="M182.4387817,137.1836853l-0.6499786,18.7393951c0,0,0.521759,10.7760468-9.8901978,12.5478058
				c-10.4119415,1.771759-50.1571426-2.3102417-52.5705566-3.1475067s23.2455139-5.0390625,25.1021729-10.2121887
				c1.8566589-5.1731415,1.8484802-15.6248932,2.1334381-18.9143372S182.4387817,137.1836853,182.4387817,137.1836853z"/>
			<path class="st19" d="M207.4836426,180.2562714l-9.1421661,24.037735
				c-0.4328918,1.1381989-1.5239868,1.8905792-2.7417297,1.8905792H94.6624146c-2.2873764,0-3.6946259-2.501709-2.5068588-4.4565277
				l15.020607-24.7207794c0.5359116-0.8820038,1.495903-1.4174805,2.5279312-1.4100647l95.0588913,0.6830444
				C206.8078461,176.2949524,208.2105713,178.3449097,207.4836426,180.2562714z"/>
			<path class="st89" d="M193.6675262,180.5978699c5.4158783-0.0316772,5.8597107-0.1119385,6.48703,0.4274445
				c0.7945404,0.683136-0.0623932,2.518692-0.4257507,3.3122711c-0.4297333,0.9385529-1.8978882,0.8817596-2.7946014,0.9199677
				c-1.6759949,0.0714111-4.6225891,0.1396332-6.0681915,0.0981445c-0.6419525-0.0184326-1.7940369,0.1114197-2.3119202-0.3677368
				c-0.6956482-0.6436157,0.1096191-2.0189056,0.2785339-2.741806
				C189.382843,179.8914948,191.2589569,180.6119537,193.6675262,180.5978699z"/>
			<path class="st89" d="M155.662735,196.5242615c0.2111664-0.4442444,0.6442413-0.7362976,1.135437-0.762146
				c2.7834778-0.1463928,10.8772583-0.215332,11.5916595,0.1769257c1.3543549,0.7443848,1.3122559,4.1134491-0.5097656,4.1620483
				c-2.9494934,0.0786743-11.2457428,0.2484741-12.0483856-0.1311035c-0.3271179-0.1550903-0.5133057-0.6065826-0.590683-0.9333801
				C155.0485992,198.2263184,155.290802,197.3067169,155.662735,196.5242615z"/>
			<path class="st89" d="M135.2745514,196.5242615c0.2111664-0.4442444,0.6442566-0.7362976,1.1354523-0.762146
				c2.7834778-0.1463928,10.8772583-0.215332,11.5916595,0.1769257c1.3543549,0.7443848,1.3122559,4.1134491-0.5097656,4.1620483
				c-2.9495087,0.0786743-11.2457428,0.2484741-12.0483856-0.1311035c-0.3271179-0.1550903-0.5133057-0.6065826-0.590683-0.9333801
				C134.6604309,198.2263184,134.9026337,197.3067169,135.2745514,196.5242615z"/>
			<path class="st89" d="M177.4549103,196.5242615c0.2111664-0.4442444,0.6442566-0.7362976,1.1354523-0.762146
				c2.7834778-0.1463928,10.8772583-0.215332,11.5916595,0.1769257c1.3543549,0.7443848,1.3122559,4.1134491-0.5097656,4.1620483
				c-2.9495087,0.0786743-11.2457428,0.2484741-12.0483856-0.1311035c-0.3271179-0.1550903-0.5133057-0.6065826-0.590683-0.9333801
				C176.8407898,198.2263184,177.0829926,197.3067169,177.4549103,196.5242615z"/>
			<path class="st89" d="M183.2045746,188.5258789c2.3409882-0.0688324,9.7573853-0.2185211,10.9099579,0.0177307
				c0.3443909,0.0704651,0.584137,0.1416168,0.7468414,0.4808655c0.4327545,0.9023743,0.0825958,2.2129364-0.2498779,3.0965729
				c-0.3832397,1.0186157-1.4114685,1.1708679-2.3862457,1.1953125c-3.3147125,0.0831451-6.3757477,0.3165283-9.3769226,0.028183
				c-0.4366455-0.0421448-0.8321686-0.0970612-1.0988464-0.483963c-0.472229-0.6850128-0.2677155-1.8664093-0.0867004-2.6426239
				C181.8461914,189.4307709,182.3964691,188.5496368,183.2045746,188.5258789z"/>
			<path class="st89" d="M165.4621429,188.5258789c2.3409882-0.0688324,9.7573853-0.2185211,10.9099579,0.0177307
				c0.3443909,0.0704651,0.584137,0.1416168,0.7468414,0.4808655c0.4327545,0.9023743,0.0825958,2.2129364-0.2498627,3.0965729
				c-0.383255,1.0186157-1.4114838,1.1708679-2.386261,1.1953125c-3.3147125,0.0831451-6.3757477,0.3165283-9.3769226,0.028183
				c-0.4366455-0.0421448-0.8321533-0.0970612-1.0988464-0.483963c-0.472229-0.6850128-0.2677155-1.8664093-0.0867004-2.6426239
				C164.1037598,189.4307709,164.6540527,188.5496368,165.4621429,188.5258789z"/>
			<path class="st89" d="M147.3158417,188.5258789c2.3409882-0.0688324,9.7573853-0.2185211,10.9099579,0.0177307
				c0.3443909,0.0704651,0.584137,0.1416168,0.7468414,0.4808655c0.4327545,0.9023743,0.0825958,2.2129364-0.2498779,3.0965729
				c-0.3832397,1.0186157-1.4114685,1.1708679-2.3862457,1.1953125c-3.3147125,0.0831451-6.3757477,0.3165283-9.3769226,0.028183
				c-0.4366455-0.0421448-0.8321686-0.0970612-1.0988464-0.483963c-0.472229-0.6850128-0.2677155-1.8664093-0.0867004-2.6426239
				C145.9574585,189.4307709,146.5077362,188.5496368,147.3158417,188.5258789z"/>
			<path class="st89" d="M129.2053223,188.5258789c2.3409882-0.0688324,9.7573853-0.2185211,10.9099579,0.0177307
				c0.3443909,0.0704651,0.584137,0.1416168,0.7468414,0.4808655c0.4327545,0.9023743,0.0825958,2.2129364-0.2498779,3.0965729
				c-0.3832397,1.0186157-1.4114685,1.1708679-2.3862457,1.1953125c-3.3147125,0.0831451-6.3757477,0.3165283-9.3769226,0.028183
				c-0.4366455-0.0421448-0.8321533-0.0970612-1.0988541-0.483963c-0.4722137-0.6850128-0.2677002-1.8664093-0.0866928-2.6426239
				C127.8469391,189.4307709,128.3972168,188.5496368,129.2053223,188.5258789z"/>
			<path class="st89" d="M174.8587799,180.9312897c2.0555878-0.0323334,4.1139679-0.0621796,6.1694489-0.0083923
				c1.1333466,0.0296631,2.7071533-0.306488,3.1036682,1.2990723c0.1794434,0.7256927,0.1260071,2.0727997-0.3369598,2.6793518
				c-0.5259247,0.6890259-1.5662994,0.5358276-2.3211212,0.5423279
				c-10.6005249,0.0912781-11.0631866,0.3396912-11.5484924-0.5338287c-0.3319244-0.5971832-0.2439117-2.1185455-0.037735-2.749115
				C170.4278259,180.5083771,173.3052521,180.9557343,174.8587799,180.9312897z"/>
			<path class="st89" d="M151.5910645,181.0249939c10.5263214,0.1456299,12.3384094-0.5830383,12.9274292,0.5464935
				c0.3654633,0.7001953,0.1661377,1.6688232-0.0386963,2.3821564c-0.2076111,0.7219543-0.3285217,1.2252808-0.9986877,1.608017
				c-1.8864441,0.0048523-10.7594147,0.3143616-11.904892,0.0355835c-0.5271454-0.1285095-0.9945374-0.3955383-1.2308197-0.9102325
				c-0.4076233-0.887085,0.0110626-1.9848938,0.3813629-2.817749
				C150.9537354,181.3583527,151.0791168,181.2350311,151.5910645,181.0249939z"/>
			<path class="st89" d="M131.5552673,181.0249939c10.5263214,0.1456299,12.3384247-0.5830383,12.9274292,0.5464935
				c0.3654785,0.7001953,0.166153,1.6688232-0.038681,2.3821564c-0.2076111,0.7219543-0.328537,1.2252808-0.9986877,1.608017
				c-1.8864441,0.0048523-10.7594299,0.3143616-11.9049072,0.0355835c-0.5271301-0.1285095-0.9945221-0.3955383-1.2308197-0.9102325
				c-0.407608-0.887085,0.0110779-1.9848938,0.3813782-2.817749
				C130.9179382,181.3583527,131.043335,181.2350311,131.5552673,181.0249939z"/>
			<path class="st0" d="M145.2144775,182.1932068c-0.579834,0.9725342-1.5331879,1.3204041-2.5960083,1.5909119
				c-3.0028076,0.7361145-5.6507721,0.2154846-8.4708862-1.0370178c-1.3720093,0.6633453-7.6268387,0.5733948-9.2888412,0.3799591
				l-1.4042358,1.6299133c-4.8506012,4.9598999-5.5979309,7.7362976-7.4724045,14.2745209
				c2.9909439-1.4950562,8.0995712-6.4414215,16.7418976-7.1179199c1.0886078-0.0836639,2.1128845,0.0773773,3.1758575,0.090271
				c1.4284515,0.0222778,4.5400391-0.6229248,5.3335571,0.7149506c0.2255249,0.3865509,0.2061768,0.8759766,0.0580292,1.2946167
				c-0.1997223,0.5605011-0.6377106,1.2883301-1.043457,1.7330933c-3.4502258,3.7665405-4.3750916,4.6581573-11.640152,10.3129578
				c-5.3274918,4.1160126-3.1326828,2.8908386-16.265213,10.6287537c-5.30793,3.1305695-10.9701843,6.125885-14.7579651,11.1634674
				c-2.1062851,2.7506104-4.4962769,5.5911713-6.3062668,8.5415039
				c-5.6430664-11.1826477-17.8756332-18.5455933-28.8780556-23.6794281
				c3.4977837-3.9294891,7.6526299-9.4885712,9.7655144-14.2940369c2.458992-5.5623474,2.2670975-9.6469727,8.2195816-23.2739868
				c2.2055283-5.0437927,5.8854141-8.6050568,10.4227371-10.6413422c1.5265884-0.6828461,3.1756973-1.8230438,4.9084702-1.6170197
				c1.4300308,0.1676483,2.7506027,1.0886078,3.3947678,2.3769379c2.660202-4.3559265,8.6309967-5.2324371,12.4260101-1.8488312
				c1.4300308-1.938797,5.7072296-3.362381,7.8072205-2.2737732c2.7119217,1.4044037,3.4463577,3.1500702,3.9873581,5.4946136
				c0.0128937,0.0452881,4.3160477,0.2255096,4.8056107,0.4189606c1.7184601,0.6687927,3.1950073,1.7349701,4.8955841,2.5250702
				c3.3431854,1.5393372,4.8119049,4.5025635,7.3950195,7.0405579c1.3463745,1.4430847,2.763504,3.1887512,4.3223419,4.3934174
				C145.0792389,181.4908447,145.2273865,181.600296,145.2144775,182.1932068z"/>
			<path class="st15" d="M22.04006,230.5671387c0,0,29.1080341-20.1821594,40.3579865-20.1821594
				s33.2246475,15.6334839,31.5155029,26.006897c-1.7091446,10.3734283-10.6953583,20.2914429-10.6953583,20.2914429
				C81.3924713,262.6792908,20.2143421,236.5631256,22.04006,230.5671387z"/>
			<g>
				
					<ellipse transform="matrix(0.9865878 -0.1632316 0.1632316 0.9865878 -17.1694279 20.6146336)" class="st11" cx="116.8590698" cy="114.7863998" rx="14.7157526" ry="9.8612871"/>
				<path class="st3" d="M218.303833,141.8513489l-120.7365799-1.1101532
					c-3.8733826-0.035614-6.9092712-3.3393555-6.6180344-7.2019348l6.3101654-83.6908875
					c0.2807922-3.7240868,3.3728561-6.6091805,7.1074448-6.6316948l113.1537857-0.7176323
					c9.2416687-0.5041313,12.9186707,1.6978569,12.9116669,6.8161316l-4.4716797,85.336731
					C225.7477112,138.7147369,222.3720703,141.8887634,218.303833,141.8513489z"/>
				<path class="st15" d="M211.6771393,141.8513489l-120.7365875-1.1101532
					c-3.8733826-0.035614-6.9092636-3.3393555-6.6180344-7.2019348l6.310173-83.6908875
					c0.2807922-3.7240868,3.3728561-6.6091805,7.1074448-6.6316948l119.5550003-0.7207489
					c3.7275238-0.0224724,6.7055054,3.0967522,6.510437,6.8192482l-4.4716644,85.336731
					C219.1210175,138.7147369,215.7453766,141.8887634,211.6771393,141.8513489z"/>
				<path class="st19" d="M91.8656006,127.812912l5.5347366-72.4954453c0.216362-2.8339386,2.5702209-5.0281601,5.4123535-5.0452957
					l108.0936661-0.6516037c3.1413116-0.0189362,5.6509399,2.6097298,5.486557,5.7467918l-3.8625336,73.7116241
					c-0.1525879,2.9118958-2.5658569,5.1902771-5.48172,5.1752777L97.2827835,133.689682
					C94.1140518,133.6733856,91.6243744,130.9724884,91.8656006,127.812912z"/>
				<path class="st7" d="M204.3433075,52.913353c1.9434509-0.1025963,5.5166779-0.6342278,7.0162354,0.7665405
					c1.8968353,1.7723312,0.6165009,5.3443718-3.0512695,5.6983871c-1.8809509,0.1813049,4.960495,0.0309258-98.4021835,0.6390572
					c-1.9572601,0.0359268-5.1536255,0.5181618-6.7436905-0.8549576c-1.8450928-1.5929489-0.8178711-5.1168289,2.5724945-5.3926773
					C106.8491516,53.6789322,190.3840637,53.2920609,204.3433075,52.913353z"/>
				<path class="st13" d="M139.0917664,102.3215179l-1.3909912,23.731102
					c-0.0836639,1.2949448-1.1530914,2.2932816-2.4414215,2.2932816h-34.5401535
					c-1.4171371,0-2.5381393-1.1917801-2.4478607-2.608757l1.3909836-23.7314224
					c0.0838242-1.2883301,1.1530838-2.2866669,2.4478683-2.2866669h34.5338669
					C138.0611877,99.7190552,139.1820374,100.9108276,139.0917664,102.3215179z"/>
				<path class="st13" d="M141.5472565,67.6603699l-1.390976,23.7311096
					c-0.0836792,1.2949371-1.1530914,2.2932663-2.4414215,2.2932663h-34.5401535
					c-1.4171371,0-2.5381393-1.1917725-2.4478683-2.6087494l1.3909836-23.7314148
					c0.0838242-1.2883377,1.1530838-2.2866669,2.4478683-2.2866669h34.5338593
					C140.5166931,65.0579147,141.6375275,66.2496796,141.5472565,67.6603699z"/>
				
					<ellipse transform="matrix(0.7245375 -0.6892354 0.6892354 0.7245375 -20.0481567 127.6112976)" class="st1" cx="149.6241913" cy="88.8869171" rx="3.8192325" ry="3.5031648"/>
				
					<ellipse transform="matrix(0.7245375 -0.6892354 0.6892354 0.7245375 -28.3889637 130.3752899)" class="st1" cx="148.9116821" cy="100.7036972" rx="3.8192325" ry="3.5031648"/>
				
					<ellipse transform="matrix(0.7245375 -0.6892354 0.6892354 0.7245375 -36.7297707 133.1392822)" class="st1" cx="148.199173" cy="112.5204697" rx="3.8192325" ry="3.5031648"/>
				
					<ellipse transform="matrix(0.7245375 -0.6892354 0.6892354 0.7245375 -45.0705795 135.9032745)" class="st1" cx="147.4866791" cy="124.3372421" rx="3.8192325" ry="3.5031648"/>
				<path class="st1" d="M206.5712433,90.2003937h-48.2649078c-0.5951691,0-1.077652-0.4824829-1.077652-1.077652v-0.3375854
					c0-0.5951691,0.4824829-1.077652,1.077652-1.077652h48.2649078c0.5951691,0,1.077652,0.4824829,1.077652,1.077652v0.3375854
					C207.6488953,89.7179108,207.1664124,90.2003937,206.5712433,90.2003937z"/>
				<path class="st1" d="M206.2208099,102.1860046h-48.2649078c-0.5951691,0-1.077652-0.4824829-1.077652-1.077652v-0.3375854
					c0-0.5951691,0.4824829-1.077652,1.077652-1.077652h48.2649078c0.5951843,0,1.0776672,0.4824829,1.0776672,1.077652v0.3375854
					C207.2984772,101.7035217,206.8159943,102.1860046,206.2208099,102.1860046z"/>
				<path class="st1" d="M205.4989319,114.0324783h-48.2649231c-0.5951691,0-1.077652-0.4824829-1.077652-1.077652v-0.3375854
					c0-0.5951691,0.4824829-1.077652,1.077652-1.077652h48.2649231c0.5951691,0,1.077652,0.4824829,1.077652,1.077652v0.3375854
					C206.5765839,113.5499954,206.094101,114.0324783,205.4989319,114.0324783z"/>
				<path class="st1" d="M204.8374023,126.0734863h-48.2649078c-0.5951691,0-1.077652-0.4824829-1.077652-1.077652v-0.3375854
					c0-0.5951691,0.4824829-1.077652,1.077652-1.077652h48.2649078c0.5951691,0,1.077652,0.4824829,1.077652,1.077652v0.3375854
					C205.9150543,125.5910034,205.4325714,126.0734863,204.8374023,126.0734863z"/>
				<path class="st13" d="M200.2741089,64.2862015c1.6083221-0.0295639,5.5404816-0.617321,6.8918152,0.3078079
					c0.7868958,0.5388412,1.1444244,1.3440475,1.3081512,2.2141495c0.3708344,1.9661179,0.6968231,9.5370789-0.4621582,10.894043
					c-1.0809326,1.2656937-0.6806183,0.5712814-53.7429504,0.892868c-2.0128326-0.002739-5.3436584,0.5062256-7.1369171-0.6733856
					c-0.5437775-0.3574219-0.9794769-0.9689636-1.0854645-1.5852737c-0.2975311-1.7316971-0.3109283-10.319191,0.7286835-11.3533859
					c0.4798126-0.4773483,2.2146454-0.5517502,2.9545135-0.5881042
					C151.7916107,64.293335,189.631485,64.4825745,200.2741089,64.2862015z"/>
				<path class="st8" d="M106.1167603,75.2286911c-0.4307556,0.1163788,3.7711105,14.4390335,15.0515823,14.3471832
					c9.586235-0.0780029,12.7153397-6.29599,15.0187912-14.3472214"/>
				<ellipse class="st7" cx="121.1519318" cy="75.228653" rx="15.0352087" ry="3.5339634"/>
				<path class="st7" d="M133.4108124,75.9738235l-26.5718842-0.8052063
					c-0.641098-3.0639038,2.3518753-5.637291,5.2694016-4.5802536c0.9642258,0.3443909,1.9492264,1.1456375,3.5751572-0.9533539
					c0.5603409-0.7149353,1.1335831-1.5264359,2.0161667-1.7456665c1.9633408-0.5110931,3.2238312,1.8636017,5.0824051,2.1709137
					c1.1724319,0.2060242,2.2997208-0.4123535,3.4141235-0.8372879c1.1079483-0.4252548,2.5316925-0.5991898,3.3368988,0.2705002
					c0.5990295,0.6504593,0.7213745,1.7456665,1.5265961,2.0998306c0.5024567,0.2192307,1.0756989,0.0515823,1.6233063,0.0839844
					c1.0049438,0.0512695,1.9196014,0.8630829,2.0870972,1.8551254S134.3448334,75.5935516,133.4108124,75.9738235z"/>
				<path class="st19" d="M115.5568085,74.5166016c0.5600433,0.1768112,0.9395599,0.8001251,0.8395233,1.37883
					c-0.100029,0.5787048-0.6667557,1.0384521-1.2536545,1.0170135c-0.8664551-0.031662-1.6101303-0.9577103-2.4441528-0.7207718
					c-0.9236832,0.2624054-1.6698685,1.0522614-2.5025482,0.0029907c-0.5161285-0.650383-0.3317337-1.4579163,0.2566071-1.9885635
					c0.7840729-0.7071838,1.6398926-0.7056503,2.4149628-0.0746155
					C113.7572632,74.8558578,114.5662918,74.2039032,115.5568085,74.5166016z"/>
				<path class="st19" d="M121.4903183,73.2006912c0.380127,0.2899246,0.4988022,0.871994,0.2625351,1.2875977
					c-0.2362747,0.415596-0.7971497,0.6113358-1.2406998,0.432991c-0.6548386-0.263298-0.9688873-1.1776962-1.6729889-1.2263412
					c-0.7798004-0.0538788-1.5691757,0.3451614-1.9173889-0.6881561c-0.2158356-0.6404877,0.1481781-1.2080612,0.745163-1.4521332
					c0.7955933-0.3252716,1.450592-0.0879745,1.8700714,0.6091385
					C120.0185471,72.9640198,120.8180084,72.6879272,121.4903183,73.2006912z"/>
				<path class="st19" d="M126.3027954,75.6634293c0.4712753,0.0803146,0.8466187,0.5407562,0.8302917,1.0185471
					c-0.0163193,0.4777832-0.4222183,0.9115372-0.8978729,0.9595032c-0.7022247,0.0708008-1.4048843-0.5932846-2.0511017-0.3094864
					c-0.7156754,0.3143082-1.2295761,1.0342026-2.0177155,0.2806473c-0.4885101-0.4670715-0.4296036-1.1387711-0.0141602-1.632103
					c0.5536499-0.6574402,1.2439499-0.751358,1.9391251-0.3286667
					C124.8893661,76.137085,125.4692764,75.5213928,126.3027954,75.6634293z"/>
				<path class="st19" d="M132.2303619,73.9577713c0.3984985,0.2640762,0.5555115,0.836998,0.3473206,1.2673492
					c-0.2082062,0.4303513-0.7548676,0.6628494-1.209259,0.5143051c-0.6708679-0.2193069-1.0448456-1.1108704-1.7506256-1.1127243
					c-0.7816467-0.0020523-1.5428314,0.4484406-1.9587936-0.5595169c-0.2578278-0.6247711,0.0677643-1.2152328,0.6472549-1.4983444
					c0.7722626-0.3773041,1.4415588-0.18396,1.9063416,0.4838104
					C130.7461243,73.8191986,131.525528,73.4907074,132.2303619,73.9577713z"/>
				
					<ellipse transform="matrix(0.9865878 -0.1632316 0.1632316 0.9865878 -16.9232998 20.5944099)" class="st19" cx="116.8590698" cy="113.2785568" rx="14.7157526" ry="9.8612871"/>
				<path class="st4" d="M128.1407318,115.5757675c-4.1878281,6.9712601-17.8673477,8.3490067-22.3806152,2.2812958
					c-3.675972-4.9139252,1.5952835-12.0760345,11.1003647-12.9338455
					C125.5526962,104.1383133,131.6931763,109.6687012,128.1407318,115.5757675z"/>
				<path class="st8" d="M128.1407318,115.5757675c-4.1878281,6.9712601-17.8673477,8.3490067-22.3806152,2.2812958
					c-0.8801575-2.2651443-0.5064774-3.2070694,0.4057617-4.8919144c1.1980286-2.2200012,3.4640961-3.3873749,5.898468-4.0381622
					c3.0774918-0.8268433,6.3003998-1.1023331,9.4735794-0.8075943c2.1435623,0.1990509,4.4401855,0.7616196,5.7798843,2.445961
					C128.4163208,111.9431763,128.6498413,113.8876877,128.1407318,115.5757675z"/>
				<path class="st7" d="M105.8214722,114.9066086c0.2112427,0.8866272,0.351059,1.752037,1.0971527,2.375267
					c1.2309799,1.0282745,2.9080887,0.6481094,4.3728485,0.1613541c1.1484833,2.6616974,5.5125885,3.4613113,8.7238998-0.5942459
					c1.5422134,1.049736,3.6350021,1.2252197,5.2957764,0.3753815c2.8146896-1.4403152,3.5805893-5.1289749,2.1310425-7.0676346
					c-0.4125824-0.5518036-0.6139069-1.9298096-3.4761734-2.5203857c-1.7026749-0.3513184-3.4586639-0.3104401-5.1966934-0.2680511
					c-6.6638107,0.1625366-7.1260376-0.2926636-10.2635651,2.6334076c-0.7090073,0.6612167-1.4249191,1.3304977-1.9611588,2.1381836
					C106.0134201,112.9399567,105.5987854,113.9719315,105.8214722,114.9066086z"/>
				
					<ellipse transform="matrix(0.9699879 -0.2431532 0.2431532 0.9699879 -23.0030746 32.8947144)" class="st19" cx="121.7523117" cy="109.6309662" rx="4.8056946" ry="3.5387461"/>
				<path class="st76" d="M118.7851944,109.3323288c0.3545837-1.1318436,1.9383316-2.1083221,3.1027832-2.2992096
					c2.6353226-0.4319992,4.1102524,2.327507,2.0105667,3.8979568c-0.9200058,0.6881104-2.6147308,1.0056152-3.4953461,0.8488922
					C119.3184662,111.5869293,118.4340744,110.4531326,118.7851944,109.3323288z"/>
			</g>
			<path class="st19" d="M235.3527374,201.981842c-3.6074066,6.4224701-10.1198425,10.9058533-15.9237976,10.5255737
				c-6.8990021-0.4573212-10.1843109-7.6010437-7.3435974-15.9557037
				c2.924469-8.6581726,10.9877472-14.743576,17.6180267-14.3006439
				C237.5765686,182.7600098,240.8803406,192.1912384,235.3527374,201.981842z"/>
			<path class="st89" d="M235.3527374,201.981842c-5.3608704-5.9472046-12.826355-9.7965088-20.5746613-10.8347778
				c3.7232971-5.5399017,9.6238098-9.2501526,14.925293-8.8959961
				C237.5765686,182.7600098,240.8803406,192.1912384,235.3527374,201.981842z"/>
			<path class="st19" d="M233.1624756,183.1720276c-1.9621735,6.3472595-5.517334,11.9634094-9.8685303,16.2073517
				l1.1015015-3.8197174c2.9785309-3.6478424,5.7177124-8.0392609,7.800766-12.8062744
				C232.5312042,182.8757477,232.8532867,183.0109863,233.1624756,183.1720276z"/>
			<g>
				<path class="st2" d="M91.3647766,176.7591248c1.6044922-4.5898438,4.2265625-8.875,7.581543-12.3920898
					c0.3420792-0.3595886,0.8850021,0.1579895,0.5429688,0.5175781c-3.2822266,3.4404297-5.8466797,7.6323242-7.4165039,12.121582
					C91.9085083,177.4753571,91.2012863,177.2262573,91.3647766,176.7591248z"/>
			</g>
			<g>
				<path class="st2" d="M105.3017883,173.9607849c1.0771484-3.9160156,3.0371094-7.621582,5.6689453-10.7163086
					c0.3222122-0.3759003,0.8929672,0.1073456,0.5712891,0.4863281c-2.5610352,3.0117188-4.46875,6.6176758-5.5166016,10.4291992
					C105.8931046,174.6386108,105.1697235,174.4430695,105.3017883,173.9607849z"/>
			</g>
			<g>
				<path class="st2" d="M110.6660461,179.4788513c0.5688477-4.0683594,3.5014648-8.4863281,7.2978516-10.9936523
					c3.2128906-2.1230469,6.7651367-2.7421875,10.2744141-1.7919922c0.4795837,0.1301575,0.2817078,0.8579407-0.1962891,0.7236328
					c-4.1616211-1.1259766-7.5532227,0.2993164-9.6645508,1.6938477c-3.5708008,2.3583984-6.4360352,6.6645508-6.9682617,10.4716797
					C111.3401337,180.0736084,110.5981369,179.9706116,110.6660461,179.4788513z"/>
			</g>
			<path class="st2" d="M141.6907501,183.9709473c-2.6345367,0.4444427-5.0630646-0.122345-7.5431671-1.2238464
				c-1.3720093,0.6633453-7.6268387,0.5733948-9.2888412,0.3799591l-1.4042358,1.6299133
				c-4.8506012,4.9598999-5.5979309,7.7362976-7.4724045,14.2745209c0.5669479-0.2833862,1.1143951-0.6117706,1.6555557-0.9662476
				c-0.2898407,0.3544769-0.5925827,0.695755-0.9920425,0.908371c-0.4508896,0.2447205-1.0692596,0.2642212-1.4300308-0.1031647
				c-0.393013-0.3994598-0.3285294-1.0436249-0.2255249-1.5909119c0.9855957-5.1599426,3.0533447-10.1135406,6.0488205-14.4358826
				c1.6039658-2.3190613,3.7553864-4.6123352,6.5575714-4.9020233
				C132.8676758,177.4109802,136.5000458,183.8545074,141.6907501,183.9709473z"/>
		</g>
	</g>
</g>
</svg>
