<?xml version="1.0" encoding="utf-8"?>
<!-- Generator: Adobe Illustrator 22.0.1, SVG Export Plug-In . SVG Version: 6.00 Build 0)  -->
<svg version="1.1" id="Layer_1" xmlns="http://www.w3.org/2000/svg" xmlns:xlink="http://www.w3.org/1999/xlink" x="0px" y="0px"
	 viewBox="0 0 300 300" style="enable-background:new 0 0 300 300;" xml:space="preserve">
<style type="text/css">
	.st0{fill:#EDC1A4;}
	.st1{fill:#E2E0E0;}
	.st2{fill:#D39E81;}
	.st3{fill:#502E26;}
	.st4{fill:#CCCACA;}
	.st5{fill:#426800;}
	.st6{fill:#538705;}
	.st7{fill:#D47E44;}
	.st8{fill:#73341D;}
	.st9{fill:#BC672E;}
	.st10{fill:#96311D;}
	.st11{fill:#B83E21;}
	.st12{fill:#DE8D82;}
	.st13{fill:#EFBAB4;}
	.st14{fill:#FDD5D0;}
	.st15{fill:#6883CE;}
	.st16{fill:#3D4885;}
	.st17{fill:#3859AE;}
	.st18{fill:#864424;}
	.st19{fill:#FEFEFE;}
	.st20{fill:#FFFFFF;}
	.st21{fill:#A55925;}
	.st22{fill:#F4F2F2;}
	.st23{fill:#3C3E68;}
	.st24{fill:#E8997C;}
	.st25{fill:#F5C46B;}
	.st26{fill:#F7EBDA;}
	.st27{fill:#0E0C0D;}
	.st28{fill:#657C3A;}
	.st29{fill:#576C37;}
	.st30{fill:#7C995D;}
	.st31{fill:#36518C;}
	.st32{fill:#96B7E3;}
	.st33{fill:#A3B3DF;}
	.st34{fill:url(#SVGID_1_);}
	.st35{fill:url(#SVGID_2_);}
	.st36{fill:url(#SVGID_3_);}
	.st37{fill:url(#SVGID_4_);}
	.st38{fill:url(#SVGID_5_);}
	.st39{fill:#266AB7;}
	.st40{fill:#060E0D;}
	.st41{fill:#E0D4C6;}
	.st42{fill:#787E42;}
	.st43{fill:#D3D1D1;}
	.st44{fill:url(#SVGID_6_);}
	.st45{fill:url(#SVGID_7_);}
	.st46{fill:url(#SVGID_8_);}
	.st47{fill:#020508;}
	.st48{fill:#BAB6B6;}
	.st49{fill:#0F0B07;}
	.st50{fill:#2F3A68;}
	.st51{fill:#203257;}
	.st52{opacity:0.5;fill:#FFFFFF;}
	.st53{opacity:0.2;fill:#0E0C0D;}
	.st54{fill:#DD9F9B;}
	.st55{fill:#3E4D9B;}
	.st56{fill:url(#SVGID_9_);}
	.st57{fill:#5F6194;}
	.st58{fill:url(#SVGID_10_);}
	.st59{fill:url(#SVGID_11_);}
	.st60{fill:url(#SVGID_12_);}
	.st61{fill:url(#SVGID_13_);}
	.st62{fill:#070102;}
	.st63{fill:#100805;}
	.st64{fill:#FDA465;}
	.st65{fill:#2A50A1;}
	.st66{fill:#B76C39;}
	.st67{fill:#130602;}
	.st68{fill:url(#SVGID_14_);}
	.st69{fill:url(#SVGID_15_);}
	.st70{fill:url(#SVGID_16_);}
	.st71{fill:url(#SVGID_17_);}
	.st72{fill:url(#SVGID_18_);}
	.st73{fill:url(#SVGID_19_);}
	.st74{fill:#B4BDED;}
	.st75{fill:#100D08;}
	.st76{fill:#F6C85F;}
	.st77{fill:#FECF00;}
	.st78{fill:#2D59E2;}
	.st79{fill:#121F3A;}
	.st80{fill:#BBD0F5;}
	.st81{fill:#020202;}
	.st82{fill:#E2CFB7;}
	.st83{fill:#080805;}
	.st84{fill:#A87D7C;}
	.st85{fill:#182052;}
	.st86{fill:#EAEAEA;}
	.st87{fill:#DDDDDD;}
	.st88{fill:#3D4574;}
	.st89{fill:#ABC5F0;}
	.st90{fill:url(#SVGID_20_);}
	.st91{fill:#4159A8;}
	.st92{fill:#E0D0BD;}
	.st93{fill:#3D53AA;}
	.st94{fill:#0A0000;}
	.st95{fill:#BF6D36;}
	.st96{fill:#385DAE;}
	.st97{fill:#E0DCDC;}
	.st98{fill:#857E78;}
	.st99{fill:#0E213C;}
	.st100{fill:url(#SVGID_21_);}
	.st101{fill:#55608E;}
	.st102{opacity:0.3;fill:#F4F2F2;}
	.st103{opacity:0.3;}
	.st104{fill:#213987;}
	.st105{enable-background:new    ;}
</style>
<g id="Online_Location_1_">
	<g id="Online_Location">
		<g>
			<path class="st3" d="M168.7934265,243.6947937c-0.8923798-5.7836456,53.4681396-14.1710663,54.3605194-8.3874359
				l-7.0947876,15.2486267l-24.3715515,1.0575409L168.7934265,243.6947937z"/>
			<path class="st9" d="M158.7945404,193.1522522c-4.4290771,13.9198761-8.1142883,25.5031586-13.5607147,42.6143036
				l-1.8450623,5.8014069c-8.4981995,26.7026978-5.5671539,17.4928894-6.2012329,19.48526
				c-10.6496964,3.8900452-22.3552399,5.186554-33.7737503,5.2070923
				c-14.3097763,0.025177-28.8440094-2.0256348-39.1242218-11.9924622
				c1.9839096-3.5779724-7.1813087,12.9514465,19.3775864-34.9473267
				c-0.1402054,0.2537842,1.8681946-3.3644409,10.9880295-19.8183441
				C104.02388,198.5746613,144.976944,194.5202179,158.7945404,193.1522522z"/>
			<path class="st11" d="M143.3887634,241.5679626c-8.4981995,26.7026978-5.5671539,17.4928894-6.2012329,19.48526
				c-10.6496964,3.8900452-22.3552399,5.186554-33.7737503,5.2070923
				c-14.3097763,0.025177-28.8440094-2.0256348-39.1242218-11.9924622
				c1.9839096-3.5779724-7.1813087,12.9514465,19.3775864-34.9473267
				c6.4421616,7.6924896,15.431427,13.2223816,24.9485245,16.5896759
				C119.7266922,239.8512878,131.5961456,241.0812378,143.3887634,241.5679626z"/>
			<path class="st3" d="M158.1231384,195.2638092l-6.0731049,19.0853577
				c-3.894989,0.8200531-8.0001221,0.4304199-11.987381,0.025528c-32.777153-3.2986298-35.3400421-3.1940918-40.1953278-5.4322968
				c-2.8956375-1.3377991-5.5298996-3.5927582-6.8829041-6.4267731l1.6707535-3.013443l61.1873703-6.0579071
				C156.6472015,194.0028229,157.4108276,194.6026611,158.1231384,195.2638092z"/>
			<path class="st9" d="M132.0112915,200.6603241c0,0-20.8024063,8.9379578-38.0377197,1.54776
				c-15.6055908-6.6932831-9.1122589-37.217804-8.6100235-43.0960388c0.9125366-10.6105194,3.1050797-33.710495,3.146759-34.6092529
				c0.0902023-2.1691742,2.4051208-2.609581,4.35112-1.9936981c1.634903,0.5382767,2.017395,0.9633102,3.3447495,2.0551224
				c10.9519196,9.0441208,25.9832611,13.7655106,32.95047,25.7840347c0.6611328,1.142868,1.6195679,2.624054,1.7476959,3.9666138
				c0.102478,1.1378632-0.189682,2.3833313-0.1537781,3.551712
				C130.9329071,164.3887329,131.8174438,193.9100189,132.0112915,200.6603241z"/>
			<path class="st15" d="M187.9865417,33.3975525v161.0118408c0,6.2906952-5.1000519,11.390976-11.390976,11.390976h-70.1219711
				c-6.2909317,0-11.390976-5.1002808-11.390976-11.390976V33.3975525c0-6.2906857,5.1000443-11.3909683,11.390976-11.3909683
				c0.167778,0.0000267,64.5906296,0.0096912,64.7639389,0.0096912c0.0099335,0.0101738,0.0099335,0.0101738,0.0196228,0
				c0.3712921-0.0150948,0.4217377-0.0096912,5.3384094-0.0096912
				C182.8864899,22.0065842,187.9865417,27.1068668,187.9865417,33.3975525z"/>
			<path class="st1" d="M182.0364075,35.3791161v159.028595c0,6.2883911-5.099411,11.3878632-11.3877411,11.3878632h-62.1918411
				c-6.2883835,0-11.3877335-5.099472-11.3877335-11.3878632V35.3791161c0-6.2883835,5.09935-11.3876076,11.3877335-11.3876076
				h62.1918411C176.9369965,23.9915085,182.0364075,29.0907326,182.0364075,35.3791161z"/>
			<path class="st4" d="M178.4488983,43.579113v150.828598c0,4.2999573-3.500351,7.8003693-7.8002319,7.8003693h-62.1918411
				c-4.299881,0-7.8002319-3.500412-7.8002319-7.8003693V43.579113c0-4.299942,3.500351-7.800106,7.8002319-7.800106h62.1918411
				C174.9485474,35.779007,178.4488983,39.279171,178.4488983,43.579113z"/>
			<path class="st15" d="M178.4488983,179.745163v14.6625519c0,4.2999573-3.500351,7.8003693-7.8002319,7.8003693h-62.1918411
				c-4.299881,0-7.8002319-3.500412-7.8002319-7.8003693V179.745163H178.4488983z"/>
			<circle class="st20" cx="140.7065887" cy="190.9766235" r="9.4572926"/>
			<circle class="st20" cx="115.6231613" cy="190.9766235" r="6.6417956"/>
			<path class="st15" d="M150.9122925,30.0541725c-0.1998749,0.2049484-0.486908,0.3330746-0.7943268,0.3330746h-15.4416962
				c-0.6201019,0-1.1274719-0.507246-1.1274719-1.1273499c0-0.6241608,0.5105743-1.1275997,1.1274719-1.1275997h15.4416962
				C151.1170959,28.1322975,151.625,29.341692,150.9122925,30.0541725z"/>
			<path class="st15" d="M129.6435547,30.3872471h-0.1128082c-0.6559448,0-1.1838379-0.5585461-1.1274719-1.22995
				c0.0889282-0.9365463,1.3441162-1.3755722,2.0397491-0.6969299
				C131.1480103,29.1830101,130.6409454,30.3872471,129.6435547,30.3872471z"/>
			<path class="st20" d="M162.5972595,95.6133652c-1.5494385,0.7312698-3.7063904,1.7492676-3.572113,1.6858902
				c-0.0510559-0.1053543-2.8377991-5.8557281-2.664978-5.4991074
				c-23.0529938-47.517662-24.6679993-50.8475647-27.1778717-56.0211411h4.0129089
				c42.0332184,85.5445099-15.4675674-31.4879017,27.3879547,55.7393646h0.0051422
				C160.6374054,91.618454,162.6764069,95.773407,162.5972595,95.6133652z"/>
			<path class="st20" d="M178.4488983,56.9759293v3.8282356c-78.9731979,3.1334991-24.3573608,0.9646683-77.792305,3.0802536
				V59.73312C110.0793686,59.399147,173.1049194,57.1653366,178.4488983,56.9759293z"/>
			<path class="st20" d="M178.4488983,90.3294601v4.3817749c-0.7536469,0.0403519-15.7685089,0.8445663-77.792305,4.171814
				v-3.3620224C144.0036469,92.6280289,134.8596497,93.2316666,178.4488983,90.3294601z"/>
			<polygon class="st20" points="158.9016113,93.8298798 150.1638794,138.4334869 154.0030212,140.4493713 162.5977325,93.8298798 
							"/>
			<path class="st20" d="M178.4488983,157.0312653v4.5817261c-5.9051361-4.724823-69.7853088-55.8366318-77.792305-62.2432175
				v-1.2196884l3.5721054-0.8508301c0.1013489,0.0815735,53.5569763,43.1036987,50.2711029,40.4567108L178.4488983,157.0312653z"/>
			<circle class="st20" cx="107.7387314" cy="41.934021" r="3.9470799"/>
			<circle class="st20" cx="171.8483887" cy="41.934021" r="3.9470799"/>
			<circle class="st13" cx="171.8483887" cy="41.934021" r="2.8608215"/>
			<path class="st20" d="M152.4190826,138.3915863c-33.7248306,16.8692474,46.5915222-23.3005905-51.7624893,25.89151v-5.8374481
				c4.6072388-2.1708679-16.7655106,7.8996582,46.8680801-22.0835419
				C147.6272278,136.4046326,152.7401428,138.5247192,152.4190826,138.3915863z"/>
			<g>
				<ellipse class="st7" cx="157.3237915" cy="98.0334015" rx="11.1581421" ry="7.5009475"/>
				<path class="st15" d="M163.5327911,88.0095062l-5.8164978,11.6330032c-0.1617279,0.3234406-0.623291,0.3234406-0.7850037,0
					l-5.8164978-11.6330032c-2.3078308-4.6156464,1.0485229-10.0463562,6.2089844-10.0463562h0.0000153
					C162.4842529,77.96315,165.8406067,83.3938599,163.5327911,88.0095062z"/>
				<circle class="st13" cx="157.3237915" cy="84.8039856" r="4.7912507"/>
			</g>
			<g>
				<path class="st27" d="M158.7944946,163.6424561c-6.6357422,0-12.034668-5.3989258-12.034668-12.034668
					s5.3989258-12.0341797,12.034668-12.0341797s12.0341797,5.3984375,12.0341797,12.0341797
					S165.4302368,163.6424561,158.7944946,163.6424561z M158.7944946,140.0736084
					c-6.3603516,0-11.534668,5.1743164-11.534668,11.5341797c0,6.3603516,5.1743164,11.534668,11.534668,11.534668
					c6.3598633,0,11.5341797-5.1743164,11.5341797-11.534668
					C170.3286743,145.2479248,165.1543579,140.0736084,158.7944946,140.0736084z"/>
			</g>
			<path class="st9" d="M217.8699799,245.1767426c-0.0050659,8.7555389-45.0025177,8.7297516-44.9974518-0.0257874
				c-4.64328-8.3741608-9.1379089-16.8355408-13.4787598-25.3686218c-2.9981842-5.9192657-5.791275-12.1000519-7.5747681-18.5318298
				c-2.026886-7.2822571-4.04599-20.9573059-3.946228-23.1495667c0.025589-0.7227173,0.2767181-1.4248962,0.850708-1.9016113
				c0.6675568-0.5593719,1.7409363-0.499054,2.5984039-0.3483429c2.746994,0.5072479,4.6842041,2.7519379,6.2883911,4.8790131
				c1.916748,2.5264587,3.443985,5.3504639,4.4946289,8.3433838c-0.722702-2.0652618-0.9276581-4.4228058-1.5374908-6.544632
				c-1.8040161-6.267868-3.3825531-12.6125488-4.9559631-18.9367218c-1.0044861-4.033432-2.849472-9.0968628-2.0857849-13.2584229
				c0.7664642-3.9953461,4.3135223-5.5792389,7.6721039-3.7464142c4.8455811,2.6397095,11.1625061,26.7133179,11.203186,26.8139038
				c4.4449921-4.7268677,11.4504395-2.3010406,12.8894348,3.2236481c-0.082077-0.9992218,0.614975-2.0344849,1.5528259-2.4701538
				c2.4165344-1.1250153,7.5091553,0.8367615,9.424881,5.453064c-0.1793518-0.4409332,0.8046722-1.5682831,1.0763092-1.845047
				c0.584198-0.5945892,1.3119659-0.9942169,2.1165619-1.204422c1.7220459-0.4612122,3.413269,0.5277557,4.7047729,1.609314
				c3.2646179,2.746933,5.1147461,7.2518158,6.754776,11.0903168
				C218.0355835,205.9141846,223.3566437,228.0080261,217.8699799,245.1767426z"/>
			<path class="st25" d="M155.2783813,185.1578217c-0.2304382,2.1795197-3.2474213,3.7807617-6.2935181,2.1781158
				c-0.2574005-1.6642914-1.1865845-7.5979309-1.1120911-9.2350006c0.025589-0.7227173,0.2767181-1.4248962,0.850708-1.9016113
				c0.6675568-0.5593719,1.7409363-0.499054,2.5984039-0.3483429
				C154.9354248,183.3019714,155.4083862,183.9191742,155.2783813,185.1578217z"/>
			<path class="st25" d="M160.7877502,158.9998016c-3.3621674,0.905777-7.2037354-3.7614288-7.1750031-9.0710907
				c0.9402008-3.7880707,4.4374847-5.0591736,7.585022-3.3415222c0.4611969,0.2512512,0.932724,0.6969299,1.414505,1.296524
				c0.3946381,0.7379608,0.7277069,1.5580139,0.9634399,2.439621
				C164.677597,154.4028168,163.4270782,158.2876129,160.7877502,158.9998016z"/>
			<g>
				<path class="st21" d="M178.6543579,197.9989014c-0.0371094-0.1738281-3.7583008-17.4775391-6.484375-24.5068359
					c-0.1794586-0.4644623,0.5201569-0.7319336,0.6992188-0.2714844c2.7475586,7.0849609,6.480957,24.4467773,6.5185547,24.6210938
					C179.492569,198.3304138,178.7584839,198.4857483,178.6543579,197.9989014z"/>
			</g>
			<g>
				<path class="st21" d="M189.3486938,193.2073975c-0.8530273-5.7700195-2.4458008-11.4160156-4.7338867-16.7807617
					c-0.1948547-0.4550323,0.4941864-0.7511139,0.6894531-0.2939453c2.3139648,5.4233398,3.9243164,11.1313477,4.7866211,16.965332
					C190.1634674,193.5886383,189.4218597,193.6977692,189.3486938,193.2073975z"/>
			</g>
			<g>
				<path class="st21" d="M200.944397,195.9515381c-0.7407227-5.7158203-2.3330078-11.2724609-4.7319336-16.5151367
					c-0.2069092-0.4512329,0.4753571-0.7637329,0.6816406-0.3125c2.4306641,5.3115234,4.0439453,10.9404297,4.7944336,16.730957
					C201.7516479,196.3469543,201.0091705,196.4431,200.944397,195.9515381z"/>
			</g>
			<g>
				<path class="st21" d="M168.5122681,207.520874l-6.6870117-18.2802734
					c-0.1706543-0.4651947,0.5332031-0.7236938,0.7041016-0.2578125l6.6870117,18.2802734
					C169.3870544,207.728363,168.683136,207.98703,168.5122681,207.520874z"/>
			</g>
			<path class="st25" d="M91.5955658,122.2786179c-0.0717545,2.5419846-0.138382,5.0839615-0.210144,7.6209335
				c-0.0512314,1.7116699-0.2767639,3.736145-1.7732239,4.5662079c-0.614975,0.343338-1.3376846,0.3998871-2.02948,0.251236
				C88.5135803,124.5192947,87.7311783,122.0423889,91.5955658,122.2786179z"/>
			<path class="st9" d="M96.2061768,124.5642166l0.4264526,0.3222504c1.0391388,0.7852325,1.8327332,1.852417,2.2598495,3.0828552
				c1.2459335,3.5892868,1.7577515,10.5089035-2.0461197,23.1256638
				C92.0753784,166.9195099,96.2061768,124.5642166,96.2061768,124.5642166z"/>
			<path class="st26" d="M145.2338257,235.7665558l-1.8450623,5.8014069l-1.3734589,4.3052063
				c-22.6672668,2.7711792-45.2614594-4.6917114-61.8023987-20.320816c0.580101-1.0459595-2.1014557,3.789032,5.6734085-10.2294769
				C101.7868652,230.2657013,123.311676,237.7615509,145.2338257,235.7665558z"/>
			<path class="st11" d="M169.4810181,248.9847565c3.1699524,24.3498077,2.0766296,15.9515533,2.3131561,17.7683563
				c8.5777435,5.0129089,18.4698486,7.9537659,28.3131409,9.7496033c12.3357697,2.2501221,25.188385,2.7449951,35.6053772-4.2487793
				c-1.1536102-3.3943176,4.175766,12.2866821-11.2676392-33.153595
				c-6.7531586,5.630249-15.3659973,8.9989624-24.0971985,10.4206085
				C190.1527863,251.189209,179.7259064,250.4014587,169.4810181,248.9847565z"/>
			<path class="st26" d="M168.7934113,243.6947327l0.6876068,5.2900238l0.5139465,3.9263763
				c19.1150513,5.9195251,39.760788,3.0025482,56.458313-7.8990173c-0.3373566-0.9922943,1.2220917,3.5946503-3.2993469-9.7046356
				C207.1154938,245.7169647,187.386795,248.8288879,168.7934113,243.6947327z"/>
		</g>
	</g>
</g>
</svg>
