<?xml version="1.0" encoding="utf-8"?>
<!-- Generator: Adobe Illustrator 22.0.1, SVG Export Plug-In . SVG Version: 6.00 Build 0)  -->
<svg version="1.1" id="Layer_1" xmlns="http://www.w3.org/2000/svg" xmlns:xlink="http://www.w3.org/1999/xlink" x="0px" y="0px"
	 viewBox="0 0 300 300" style="enable-background:new 0 0 300 300;" xml:space="preserve">
<style type="text/css">
	.st0{fill:#EDC1A4;}
	.st1{fill:#E2E0E0;}
	.st2{fill:#D39E81;}
	.st3{fill:#502E26;}
	.st4{fill:#CCCACA;}
	.st5{fill:#426800;}
	.st6{fill:#538705;}
	.st7{fill:#D47E44;}
	.st8{fill:#73341D;}
	.st9{fill:#BC672E;}
	.st10{fill:#96311D;}
	.st11{fill:#B83E21;}
	.st12{fill:#DE8D82;}
	.st13{fill:#EFBAB4;}
	.st14{fill:#FDD5D0;}
	.st15{fill:#6883CE;}
	.st16{fill:#3D4885;}
	.st17{fill:#3859AE;}
	.st18{fill:#864424;}
	.st19{fill:#FEFEFE;}
	.st20{fill:#FFFFFF;}
	.st21{fill:#A55925;}
	.st22{fill:#F4F2F2;}
	.st23{fill:#3C3E68;}
	.st24{fill:#E8997C;}
	.st25{fill:#F5C46B;}
	.st26{fill:#F7EBDA;}
	.st27{fill:#0E0C0D;}
	.st28{fill:#657C3A;}
	.st29{fill:#576C37;}
	.st30{fill:#7C995D;}
	.st31{fill:#36518C;}
	.st32{fill:#96B7E3;}
	.st33{fill:#A3B3DF;}
	.st34{fill:url(#SVGID_1_);}
	.st35{fill:url(#SVGID_2_);}
	.st36{fill:url(#SVGID_3_);}
	.st37{fill:url(#SVGID_4_);}
	.st38{fill:url(#SVGID_5_);}
	.st39{fill:#266AB7;}
	.st40{fill:#060E0D;}
	.st41{fill:#E0D4C6;}
	.st42{fill:#787E42;}
	.st43{fill:#D3D1D1;}
	.st44{fill:url(#SVGID_6_);}
	.st45{fill:url(#SVGID_7_);}
	.st46{fill:url(#SVGID_8_);}
	.st47{fill:#020508;}
	.st48{fill:#BAB6B6;}
	.st49{fill:#0F0B07;}
	.st50{fill:#2F3A68;}
	.st51{fill:#203257;}
	.st52{opacity:0.5;fill:#FFFFFF;}
	.st53{opacity:0.2;fill:#0E0C0D;}
	.st54{fill:#DD9F9B;}
	.st55{fill:#3E4D9B;}
	.st56{fill:url(#SVGID_9_);}
	.st57{fill:#5F6194;}
	.st58{fill:url(#SVGID_10_);}
	.st59{fill:url(#SVGID_11_);}
	.st60{fill:url(#SVGID_12_);}
	.st61{fill:url(#SVGID_13_);}
	.st62{fill:#070102;}
	.st63{fill:#100805;}
	.st64{fill:#FDA465;}
	.st65{fill:#2A50A1;}
	.st66{fill:#B76C39;}
	.st67{fill:#130602;}
	.st68{fill:url(#SVGID_14_);}
	.st69{fill:url(#SVGID_15_);}
	.st70{fill:url(#SVGID_16_);}
	.st71{fill:url(#SVGID_17_);}
	.st72{fill:url(#SVGID_18_);}
	.st73{fill:url(#SVGID_19_);}
	.st74{fill:#B4BDED;}
	.st75{fill:#100D08;}
	.st76{fill:#F6C85F;}
	.st77{fill:#FECF00;}
	.st78{fill:#2D59E2;}
	.st79{fill:#121F3A;}
	.st80{fill:#BBD0F5;}
	.st81{fill:#020202;}
	.st82{fill:#E2CFB7;}
	.st83{fill:#080805;}
	.st84{fill:#A87D7C;}
	.st85{fill:#182052;}
	.st86{fill:#EAEAEA;}
	.st87{fill:#DDDDDD;}
	.st88{fill:#3D4574;}
	.st89{fill:#ABC5F0;}
	.st90{fill:url(#SVGID_20_);}
	.st91{fill:#4159A8;}
	.st92{fill:#E0D0BD;}
	.st93{fill:#3D53AA;}
	.st94{fill:#0A0000;}
	.st95{fill:#BF6D36;}
	.st96{fill:#385DAE;}
	.st97{fill:#E0DCDC;}
	.st98{fill:#857E78;}
	.st99{fill:#0E213C;}
	.st100{fill:url(#SVGID_21_);}
	.st101{fill:#55608E;}
	.st102{opacity:0.3;fill:#F4F2F2;}
	.st103{opacity:0.3;}
	.st104{fill:#213987;}
	.st105{enable-background:new    ;}
</style>
<g id="Order_Delivery_1_">
	<g id="Order_Delivery">
		<g>
			<g>
				<path class="st1" d="M264.9393616,248.1893921c-4.0806885,5.9571381-12.5248413,13.645874-18.2991486,18.2335205
					c-6.4539185,4.8740845-15.1360474,12.6869507-23.7181396,11.4452209
					c-4.6290894-0.672699-7.9232941-3.5701904-10.6242065-7.22995c-2.3704529-3.2205811-3.4812012-5.6347351-4.3600159-7.6853943
					c-0.1103973-0.5380249-0.144928-0.9554138-0.1173096-1.5073547c-0.1483002-1.6384583-1.303894-3.6356812-1.9661407-5.1395874
					c-0.6002045-0.9589386-3.0683899-5.4889374-3.5996094-6.4858704c0.5725708-0.4794312,1.7902222-0.5656586,2.5146332-0.7519379
					c3.5700836-0.921051,5.6702423-2.365387,8.6953888-4.4867401c1.1107788-0.78302,5.6179199-4.2227173,6.8597412-4.2813263
					c1.4624329-0.9658356,4.3738556,1.7426147,5.5984039,0.4836273c0.1416321-0.1456146,0.2184906-0.5257568,0.2860413-0.717865
					c0.8761444,0.0830231,1.7776337,0.0182648,2.6680298,0.0477448c3.5939941,0.1190033,8.0886841-0.0977936,11.6889801-1.0848236
					c9.7384033-2.6697998,16.8938599-7.9566193,22.6348267-4.4403534c1.962677,1.2003937,3.6149597,3.3907928,4.0909424,5.64328
					C267.9196167,243.1946564,266.5605469,245.8230591,264.9393616,248.1893921z"/>
				<path class="st7" d="M220.3230286,240.2992249c1.4639282-0.964798,2.690155-0.7001801,5.8859711-0.23349
					c-0.8799286,4.7991791-5.881012,16.2255859-9.8857727,18.9671936c-2.3711395,1.6229553-5.6822205,2.2714233-8.5028076,2.4125061
					c-0.2236481-2.478363-2.9811859-6.7820435-5.566803-11.6251068c0.5729523-0.4808502,1.7909393-0.566391,2.517395-0.7537079
					c3.5697937-0.9192657,5.6703186-2.3626099,8.6947632-4.4867706
					C214.5771637,243.7989197,219.0812531,240.3582153,220.3230286,240.2992249z"/>
				<path class="st3" d="M202.2536163,249.8203278c0.5729523-0.4808502,1.7909393-0.566391,2.517395-0.7537079
					c3.5697937-0.9192657,5.6703186-2.3626099,8.6947632-4.4867706c1.1113892-0.7809296,5.6154633-4.2216187,6.8572845-4.2806549
					c0.216507,8.8918304-6.7058868,14.8616028-14.4698486,16.0083618
					C205.2533569,255.3479309,202.7865601,250.8185883,202.2536163,249.8203278z"/>
				<path class="st15" d="M264.9393616,248.1893921c-4.0806885,5.9571381-12.5248413,13.645874-18.2991486,18.2335205
					c-6.4539185,4.8740845-15.1360474,12.6869507-23.7181396,11.4452209
					c-4.6290894-0.672699-7.9232941-3.5701904-10.6242065-7.22995c-0.6347198-0.8623657-1.2072906-1.7695923-1.7833099-2.6733093
					c2.8802032,0.6863403,5.9226074,0.5932007,8.8132477,0.0586243c11.2726593-2.093811,22.1003113-7.6508484,28.6956329-17.2746735
					c2.2317505-3.2527771,5.8742676-9.5444946,4.9878235-13.6424408c-0.2155914-1.0091705-0.9521027-1.3225098-1.6833496-1.8833618
					c0.1216431-0.0321808,4.4463043-1.7936707,7.0506592-1.7936707c1.7131958-0.0779572,3.3540344,0.2596741,4.8222656,1.1589508
					c1.962677,1.2003937,3.6149597,3.3907928,4.0909424,5.64328
					C267.9196167,243.1946564,266.5605469,245.8230591,264.9393616,248.1893921z"/>
			</g>
			<g>
				<path class="st1" d="M68.7228317,217.4789734c0.5236206-0.8016357,1.1338196-1.3304291,1.8609543-1.9354706
					c0.9903259,5.2883148,5.3141632,11.2937164,9.7087097,14.3329926c2.8430023,1.9658356,6.7808533,4.0682373,10.1795578,4.7650146
					c-0.5312119,1.4625549-0.8526993,3.0034027-1.1165771,4.5349426l-0.3649521,0.0331116
					c0.224556,0.7205811-0.0520859,5.2255096-0.0051651,6.4466095c0.235939,6.1582184,1.5998383,9.1126404,4.0972061,14.6037445
					c0.6422806,1.4122009,1.1527939,2.9454651,1.8426743,4.3190308c0.7609406,1.354248,0.8902969,3.8298645,0.459465,5.2693176
					c-0.5274124,1.7626648-1.784729,3.1579285-3.4159546,3.9778748c-4.3193512,2.1720886-10.2444077,1.0534363-14.5799713-0.4784546
					c-5.1465149-1.8188782-8.4306946-4.2034302-12.2088318-8.0257568
					c-5.4293747-6.1288757-9.3003006-17.5681763-11.3309669-25.6108093
					c-1.128994-4.4714661-1.0617294-8.7515106,1.3642426-12.7879944c1.607769-2.6753845,5.7405052-7.0054169,8.8128929-7.7553253
					C65.5624847,218.5017395,67.1247253,217.9770813,68.7228317,217.4789734z"/>
				<path class="st7" d="M68.7228317,217.4789734c0.5236206-0.8016357,1.1338196-1.3304291,1.8609543-1.9354706
					c0.9903259,5.2883148,5.3141632,11.2937164,9.7087097,14.3329926c2.8430023,1.9658356,6.7808533,4.0682373,10.1795578,4.7650146
					c-0.5312119,1.4625549-0.8526993,3.0034027-1.1165771,4.5349426l-0.3649521,0.0331116
					c-1.7219315-0.0344849-3.6087646-0.3963318-5.2851791-0.7885437c-5.0192337-1.1748505-9.9515533-4.4507599-12.6438141-8.8956757
					C68.9563599,226.0497131,67.7428513,221.4933929,68.7228317,217.4789734z"/>
				<path class="st15" d="M65.1799469,265.3219299c-5.4293747-6.1288757-9.3003006-17.5681763-11.3309669-25.6108093
					c-1.128994-4.4714661-1.0617294-8.7515106,1.3642426-12.7879944c1.607769-2.6753845,5.7405052-7.0054169,8.8128929-7.7553253
					c-3.9878616,7.5669861-1.4994545,21.2642365,0.9751511,29.2751465
					c1.5512009,5.0220032,3.8850708,9.6904449,8.7470093,12.1964264c4.521492,2.3304138,16.0828781,4.6446228,21.1769638,3.9395752
					c0.7609406,1.354248,0.8902969,3.8298645,0.459465,5.2693176c-0.5274124,1.7626648-1.784729,3.1579285-3.4159546,3.9778748
					c-4.3193512,2.1720886-10.2444077,1.0534363-14.5799713-0.4784546
					C72.2422638,271.5288086,68.9580841,269.1442566,65.1799469,265.3219299z"/>
				<path class="st3" d="M70.5837936,215.5434875c0.6962509-0.9283295,1.2431488-1.7559814,2.2537842-2.3820953
					c7.0316696-4.3563385,19.4830017,3.3236389,18.8850098,16.8510437
					c-0.0754318,1.7063751-0.3357391,3.1827545-1.2505341,4.6290741c-3.3987045-0.6967773-7.3365555-2.7991791-10.1795578-4.7650146
					C75.8842087,226.8277283,71.5713959,220.8177795,70.5837936,215.5434875z"/>
			</g>
			<path class="st7" d="M163.6741943,75.3776398c0,0-1.0555573-0.6120605-1.0858459-5.5183945
				s-16.7784424-4.6687775-16.7784424-4.6687775s4.9720764,10.8471222,3.6520538,13.7848663
				c-1.3200378,2.9377365,0,5.3909073,0,5.3909073l4.1314545,2.2108765l6.3903351-0.2422867
				c0,0,2.1503143-0.9388657,2.5743103-0.9691544c0.4240112-0.0302811,3.301178-3.4223175,3.301178-3.4223175l0.6360016-2.3017349
				l-0.290451-1.9653854l-0.5575562-1.1064224l-1.211441-0.9259491L163.6741943,75.3776398z"/>
			<path class="st3" d="M247.9673615,44.5411835l0.0046234,0.0872116
				c-0.0859833,1.5531921-10.7790222,5.086483-24.2213745,7.9758606
				c-13.3714752,2.8741417-24.5252228,4.0508537-25.3476105,2.7034149l-0.0434418-0.1035004
				c-0.3240204-1.5074463,10.5188904-5.1153336,24.2174683-8.0597839
				C236.2756958,44.1999168,247.6433563,43.0337372,247.9673615,44.5411835z"/>
			<g>
				<path class="st1" d="M223.7751312,59.0741386c0,0,2.9637451-15.879261,4.9023438-26.2579842
					c0.9194794-4.9226379,5.5314178-8.2632656,10.4955139-7.6032715l0.0000153,0.0000038
					c5.2248688,0.694664,8.8616638,5.5430717,8.0662689,10.7535477l-3.5828247,23.4701958L223.7751312,59.0741386z"/>
			</g>
			<path class="st15" d="M233.2613373,26.0462246l0.3873291-2.3763371c0.0460663-0.2825603,0.3053741-0.4795303,0.5899353-0.448101
				l10.6047974,1.1712818c0.3068085,0.0338879,0.5222168,0.3184834,0.4715271,0.6229725l-0.4127502,2.4790478
				c-0.0472412,0.2837238-0.3093262,0.4800777-0.5948944,0.4456882l-10.5793762-1.2739944
				C233.4242249,26.6302147,233.2121277,26.3481102,233.2613373,26.0462246z"/>
			<g>
				<g>
					<path class="st30" d="M208.1948395,22c1.1712646,1.7036533,4.178894,7.0004616,4.6680908,8.0016785
						c0.347641,0.7115784,0.5850983,1.4639378,0.9085236,2.1832657c0.2611237,0.5808029,0.6730652,1.0035286,0.6361694,1.6970406
						c-0.0744171,1.3985519-1.5323944,2.1889229-2.8205109,1.6669922c-0.7925873-0.3211517-1.2023926-1.0364456-1.6033936-1.739563
						c-1.3986206-2.4523354-2.6430664-6.9184456-3.3081818-9.231142c1.1921692,1.4355412,2.199295,3.0757694,3.1624146,4.6717319
						c-0.0688171-1.0716877-0.6458435-2.6215858-0.9240417-3.7057648C208.6135559,24.3742409,208.4046326,23.1887798,208.1948395,22
						z"/>
					<path class="st13" d="M230.950943,62.4351997c0.3646698,1.0419464,0.4765167,2.1683388,0.7500916,3.2514381
						c1.3121948,5.2361221,1.8454895,5.6201782,1.8825073,7.0577011c0.0581055,2.4286652-2.0650635,3.4525757-4.0406189,2.2878189
						c-1.2983246-0.7595215-2.4778442-2.5485458-3.8131256-4.512764c-0.5924988-0.8807602-0.9488373-1.8236694-1.5467224-2.6920853
						c-8.4458618-12.2240562-14.8804779-23.9206352-15.7199707-25.7071991
						c-0.5891266-1.2090263-1.0595703-2.48032-1.1359863-3.8150826c-0.1138916-2.0914116,1.0438538-3.1866837,2.9668121-3.832386
						c0.5075073-0.1386566,0.9985809-0.3322372,1.4921265-0.5063171c0.8058319-0.276722,1.5529175-0.6375999,2.1888733-1.2154732
						c1.5137024-1.387476,4.1852264-1.6693459,5.6769104-0.1985512
						C220.830368,33.7072182,220.4936829,32.8494797,230.950943,62.4351997z"/>
					<path class="st11" d="M226.4004059,49.67239c0.1185455,0.3263779,0.2307434,0.6502609,0.3491821,0.9766808
						c-1.8699036,0.2871208-4.3996124,0.8193588-5.5779419,0.890274
						C222.2804718,51.2145615,224.7222595,50.303196,226.4004059,49.67239z"/>
					<path class="st7" d="M214.3059845,40.5274315c0.0354919,0.121315-3.1773529,1.9079247-5.3393555,2.5851364
						c-0.1740112-0.3249741-0.3455048-0.6561852-0.5035248-0.9924583
						C211.3119812,41.833477,214.2476501,40.3358841,214.3059845,40.5274315z"/>
					<path class="st7" d="M218.4580231,47.339386c-1.6249237,1.2846603-3.5095367,2.1960182-5.3576965,3.1087227
						c-0.2120209-0.356163-0.4177246-0.7095795-0.6208038-1.0690155
						C214.1332703,48.7900162,213.501709,49.5974236,218.4580231,47.339386z"/>
					<path class="st7" d="M219.5411682,32.4529228c-1.2154846,1.5066032-4.8720703,3.2646904-6.6264343,3.7673225
						l-0.065033-0.0614662c2.1268158-0.9968452,4.2520905-2.5551071,5.9074097-4.2298508
						C219.0397491,32.0628395,219.3020935,32.2354546,219.5411682,32.4529228z"/>
					<path class="st11" d="M222.9191437,39.9074211c0.0354919,0.1010475,0.3374939,0.9489594,0.3796844,1.0667267
						c-0.0278473,0.0980797-0.0574646,0.1913605-0.0853882,0.2892227c-2.0643311,0.7014313-4.0852509,1.7076912-6.2035828,2.2205238
						c1.1681671-0.6801033,2.3972931-1.2312469,3.5532074-1.9424553
						C221.3124542,41.0825729,222.1229401,40.3899841,222.9191437,39.9074211z"/>
				</g>
				<g>
					<path class="st3" d="M196.0679321,45.7911034c-1.3215332,0.006916-2.5441589-0.7711792-3.7473602-1.2323685
						c-6.015274-2.3173866-8.1151733-2.5256767-9.1499329-3.7627945c-0.742691-0.8853302-0.5836792-1.7567024,0.1745148-2.3330345
						c0.6911774-0.5183258,1.2999573-0.4691696,2.0994568-0.3249283l0.1250458-0.1192589
						c-0.8515015-0.4541397-2.2127228-1.0174446-2.4884186-2.028286c-0.1833801-0.7257843,0.2395172-1.2988014,0.7318573-1.776947
						c-0.8765717-0.7745819-2.3950195-1.8196678-2.5153503-3.0584068c-0.1470184-1.4983749,1.5286713-2.432478,2.8401642-1.6755981
						c1.5488739,0.8927326,4.1671906,3.5252838,5.6947021,4.7484322c-0.6184082-1.0440483-1.5920715-2.4057178-1.2782593-3.6841011
						c0.0747681-0.3079376,0.2344208-0.5612125,0.5175629-0.7144566c0.4877472-0.265379,1.1629181-0.2012806,1.6824188-0.0697613
						c1.4657593,1.3435287,3.5989532,5.7242165,4.7081299,7.6257706c0.982605,1.6997452,2.3755798,3.272316,2.931839,5.1772461
						C198.9377289,44.4165115,197.8398895,45.786438,196.0679321,45.7911034z"/>
					<path class="st30" d="M195.9880219,42.8267975c-0.6779022-0.581459-7.657547-7.1013222-7.7583466-7.1948204
						c-0.0144501-0.0363121-0.0048065-0.0778046-0.0072021-0.116703c0.8837738,0.1079979,1.8754883,1.3285103,3.5839844,2.9185791
						c1.4176178,1.3194656,3.1669159,2.7182961,4.3714294,4.2191658L195.9880219,42.8267975z"/>
					<path class="st30" d="M195.0895691,43.9098778l-0.2001038,0.2230263
						c-2.7273712-2.3709145-6.0961151-4.6476631-9.4448547-5.9949265l0.1250458-0.1192589
						c1.7835388,0.0835304,3.9841614,2.2660637,5.6161499,2.9803886c-1.580658-1.9368668-4.6524353-3.4676666-8.1446075-5.3988037
						c0.006134-0.1521187,0.0376434-0.2999573,0.0896606-0.4424667
						C187.1659698,36.918026,193.386322,41.6503639,195.0895691,43.9098778z"/>
					<path class="st7" d="M227.777359,67.0480957c-2.6745148-0.0028458-5.1697693-0.1035538-7.9651642-0.3549805
						c-1.3241577-0.1190948,3.0587158-0.9980087,1.7412109-1.1767273c-0.6711426-0.0942154-0.9517975-0.1247635-5.1562653-0.8176727
						c-0.3160706-0.0423965-19.9639893-13.8857918-20.2431641-13.9412498
						c-1.6632996-1.4726372-2.8150024-3.410675-2.1674957-5.5357971l0.9040375-1.0891571
						c0.3734283-0.4110603,0.5948792-0.5552368,1.0958099-1.305645l0.1914978-0.1724892
						c0.45755-0.6770973,1.1380005-1.2220917,1.51651-1.9503593c1.7259827-2.2325554,3.4993439-2.4965401,5.8268127-0.5423698
						c2.4522095,2.0719566,20.1126709,21.3934975,20.6295013,22.0290794
						C225.4219818,63.7605705,226.6305847,65.378334,227.777359,67.0480957z"/>
				</g>
				<path class="st8" d="M204.272583,44.177948c-1.311554,3.1077309-3.4509888,5.8486252-6.1015015,7.9308777
					c-0.5358734-0.3661957-0.9860992-0.6731453-1.3223877-0.9024658
					C199.7501831,49.3862534,202.2982788,46.985466,204.272583,44.177948z"/>
			</g>
			<path class="st20" d="M245.2019348,36.4839516c-0.4241791,1.47295-1.223999,2.8061333-2.0297852,4.1115379
				c0.6763611-3.2629547,0.2212982-7.8392792-1.9814758-10.3417282
				C244.0751495,29.6816692,246.3398895,32.5340919,245.2019348,36.4839516z"/>
			<path class="st11" d="M247.9719849,44.6283951l2.6679993,39.4468079
				c0.2388153,3.5403442-2.1579742,6.7193298-5.6248016,7.4645081l-22.8209076,4.9052582
				c-3.345459,0.7190933-6.7324219-1.0367584-8.0731506-4.1885605l-15.7181244-36.9487381
				c0.8223877,1.3474388,11.9761353,0.1707268,25.3476105-2.7034149
				C237.1929626,49.7148781,247.8860016,46.1815872,247.9719849,44.6283951z"/>
			<g>
				<path class="st7" d="M254.7282562,85.3463974c-0.4415436-0.1448441-0.9485931,0.0483398-1.2555542,0.4001846
					c-0.3070374,0.3483963-0.731308,0.7968369-0.7554779,1.2590027c-0.0551605-0.7312317-0.7105255-1.3763123-1.445282-1.3970261
					c-0.5760345-0.0137253-1.1210632,0.3173981-1.4970856,0.7554855c-0.3759308,0.4380798-0.5518494,0.7967453-0.7863922,1.3245163
					c-0.6754761-1.517601-1.4406891-2.1441498-3.0285797-1.2866211c-1.0211029,0.5484848-1.9040833,1.1900253-2.5628967,2.1489716
					c-0.2966766-1.6350174-2.3559723-2.669838-3.8461456-1.9316177c-1.1106873,0.5553131-1.7039795,1.7867737-2.680191,2.5559845
					c-3.5597076,2.7977448-8.832428-1.3250961-13.0215302-3.2769394c-5.5139313-2.5641251-9.1830139-1.7987289-13.8631439,2.142067
					c-2.4752197,2.0858078-6.2086945,4.3628998-8.0926361,6.3171921c-1.2021332,1.2470169-1.3660126,4.0340652-1.5545197,5.699028
					c-0.5214539,4.6053925,0.2563477,9.3629303,2.2876282,13.5341263c1.3044891,2.6787415,2.6745605,2.9143295,4.904068,1.7223892
					c5.2309723-2.7965851,9.7857056-6.8431854,13.1902466-11.6995468c0.4914856-0.7010574,0.6551514-1.4123001,1.4589081-1.2875824
					c0.4967041,0.0770721,1.4425354,0.8515854,4.8277588,1.2329178c4.7658997,0.5368652,9.6071777-0.5252533,14.0128632-2.3107147
					c12.1970673-4.9430313,14.2667236-14.7979355,14.2667236-14.7979355
					C255.4699249,86.0260086,255.1697845,85.4878769,254.7282562,85.3463974z"/>
				<g>
					<path class="st21" d="M234.9042053,97.7402039c3.7915039-1.8154297,6.796875-5.296875,8.0405273-9.3120117
						c0.1447601-0.4701767,0.8638916-0.2548904,0.7167969,0.2216797c-1.3046875,4.2114258-4.4570313,7.8623047-8.4331055,9.7670898
						C234.7846527,98.628479,234.4525909,97.9577408,234.9042053,97.7402039z"/>
				</g>
				<g>
					<path class="st21" d="M241.2972717,98.1235046c3.1410828-2.7436066,6.5638275-5.8011322,7.1767578-10.0571289
						c0.0699921-0.4876556,0.8138428-0.3859329,0.7421875,0.1074219c-0.6461945,4.4828796-4.1387329,7.6436157-7.4257813,10.5141602
						C241.4191589,99.0157013,240.9229584,98.4498596,241.2972717,98.1235046z"/>
				</g>
				<g>
					<path class="st21" d="M248.0970764,95.5942078c2.1328125-2.3813477,3.6425781-5.2856445,4.3662109-8.3999023
						c0.1116638-0.4854507,0.8426208-0.3125916,0.7304688,0.1699219c-0.7519531,3.2363281-2.3212891,6.2553711-4.5380859,8.7299805
						C248.3249512,96.4640884,247.7661896,95.9636765,248.0970764,95.5942078z"/>
				</g>
			</g>
			<path class="st15" d="M124.5815201,138.6021423c-3.9473419,0.7269897-7.8447418-2.1616669-9.6148682-5.7639771
				s-1.9027252-7.76017-1.999855-11.772728c-0.2045059-8.4480438-0.3930893-16.9992676,1.4839478-25.2386932
				c5.0707169-22.2584305,23.4313202-29.4621277,30.4548187-20.8738251
				c1.6183319,1.9788895,2.2702789,4.5588303,2.7722168,7.0654297c1.9699402,9.8377914,2.3122406,19.9995422,1.0087738,29.9475937
				c-0.6130829,4.6790848-1.6087036,9.3720245-3.7352448,13.5848007c-2.1265564,4.2127762-5.4868164,7.9379654-9.8329315,9.7767258"
				/>
			<path class="st4" d="M165.5004425,75.509201c0,0,9.9506073-2.233902,14.0847015,13.0605011
				c0,0,1.7536621,10.8229218,7.7712555,13.937912c6.0175781,3.1149902,0.9203339,14.6546021,0.9203339,14.6546021
				l-12.9555206,6.654747l-4.530899-3.7521439l-5.2898712-11.1148453l-1.3648682-10.6634521L165.5004425,75.509201z"/>
			<path class="st4" d="M216.4730988,111.0460815c0,0-17.9529572,20.1981812-27.6906433,19.0426025
				c-9.1403961-1.0677338-15.9404297-6.8137131-14.0943298-15.6948166
				c1.7592468-8.4406128,18.1873627-15.9723053,20.3121643-17.1658707
				c2.1007233-1.1865768,12.5745392-7.2455292,12.5123901-7.2766037c-0.0207062-0.0103607,0.0414429,0.0207214,0.062149,0.0310745
				C210.6868744,97.0833206,216.4730988,111.0460815,216.4730988,111.0460815z"/>
			<path class="st18" d="M177.9064636,122.9760437c0,0-5.1844788,29.796051-13.9770203,52.5690613
				c-3.418335,8.8511505-7.3817902,16.6434021-11.7969666,21.206955
				c-17.9943848,18.6151276-30.1900787,26.125412-30.5272751,26.4120789c0,0-18.3612061,13.1905365-25.0600128,11.765976
				c-6.6987305-1.4246521-13.5802841-4.8498993-21.4000702-16.3329926
				c-7.81987-11.4831085-1.2072906-17.3056641,1.4176636-18.9923859c2.6250381-1.6868134,40.3788071-23.369751,40.3788071-23.369751
				l9.0305328-32.8142853l22.0693207-25.1013641L177.9064636,122.9760437z"/>
			<path class="st3" d="M163.9294434,175.545105c-3.418335,8.8511505-7.3817902,16.6434021-11.7969666,21.206955
				c-2.4973755,2.5835266-4.9015961,4.9636688-7.1851501,7.147171
				c-0.8155518-12.8349457-7.3481903-23.6793365-14.2115479-34.7735291
				c-2.7009125-4.3669128-5.4017487-8.737381-8.1061172-13.1042938l4.0496063-2.8078766
				c12.5627213,2.8457642,24.3045273,9.2306366,33.5213394,18.2301788
				C161.5113983,172.7199707,162.787674,174.0893707,163.9294434,175.545105z"/>
			<path class="st18" d="M163.4794922,122.4026413c0,0,20.3049011,27.7387619,27.6416779,39.23452
				s35.6065674,56.712265,37.1317596,73.0043488c0,0,0.7894287,9.2513885-16.180603,16.0693817
				c-16.9700165,6.8179779-23.8220215-0.7742615-27.5614777-7.2680817
				c-3.7394562-6.4938049-13.5438385-36.3836517-17.5984802-44.643158
				c-4.0546417-8.2595215-10.6368561-12.5088043-22.8014832-21.4239807
				c-12.1646271-8.9151611-23.5533218-16.9731293-24.2329025-30.2329102s7.0261917-24.1672668,7.0261917-24.1672668
				L163.4794922,122.4026413z"/>
			<polygon class="st13" points="106.4036255,164.6035004 81.6403046,198.7871857 75.1451187,201.4742889 100.8017883,167.6148224 
							"/>
			<path class="st1" d="M177.9064636,122.9760437c0,0-30.0547638,5.2292786-51.0030136,0
				c0,0-1.6453781-17.9369354-1.728157-26.315567c-0.086235-8.378624,13.9253082-25.429039,14.9394073-25.3876038
				c0,0,4.8981476,0.0689697,5.6121979,1.3004379c0.717514,1.2313766,4.587738,11.8935547,14.104599,10.0791626
				c6.6849976-1.276268,5.8743591-4.3497467,4.8016357-6.0640869c-0.4553375-0.7278671-0.9589386-1.2107468-0.9589386-1.2107468
				c0.0724182,0,6.3848572,0.0172653,11.0139313,6.0606308C179.3412781,87.5124664,182.4118652,116.8824234,177.9064636,122.9760437
				z"/>
			<path class="st15" d="M131.406662,74.0941849c1.470047-1.6973343,3.0787964-3.2240601,5.3307648-3.6390152
				c13.8665619-2.5551071,21.9460602,18.5370026,3.513443,35.281662
				c-4.9368591,4.4847641-10.7570038,7.8630829-16.5284271,11.2061691
				c-1.8939514-1.5615387-2.9547501-3.9609299-3.3224411-6.3879242c-0.3676834-2.4269943-0.1046677-4.9036407,0.2617493-7.3308258
				C121.9875107,94.4422226,125.8911896,80.4624252,131.406662,74.0941849z"/>
			<path class="st21" d="M101.9844894,129.9612427c-0.2359772,3.6103668-0.4719543,7.2207336-0.7079315,10.8311005
				c-0.0993652,1.5202179-0.2702942,3.197876-1.3885574,4.2324829c-3.0364304,2.8092499-9.5090637-1.3911743-8.7314072-7.2794495
				c0.3831177-2.9009247,2.6509628-5.4616394,5.484314-6.1925507"/>
			<polygon class="st12" points="106.4036255,164.6035004 100.8017883,167.6148224 57.1771126,130.1680908 65.2177048,130.1680908 
							"/>
			<path class="st13" d="M87.4208374,160.668335c1.8649521-2.7172241,3.3917465-5.6663055,4.5340347-8.7576752
				c1.067627-2.8893127,1.7985001-6.0761566,0.932724-9.0322418c-1.199028-4.0939026-5.5454712-6.8991699-9.805687-6.6795959
				c-5.0382462,0.2596588-8.9720535,3.838562-11.8002853,8.0388641l-3.2712402-1.2466736
				c3.6705551-5.4512482,8.77491-10.0938873,15.3113785-10.4307709c5.5278091-0.2848969,11.1675034,3.355072,12.7232895,8.6670685
				c1.1233902,3.8356476,0.1750488,7.9707184-1.2102432,11.7197266c-1.4821625,4.0111847-3.4632492,7.837738-5.88311,11.3634491
				L87.4208374,160.668335z"/>
			<path class="st7" d="M106.4036255,128.6883698c-0.6079636,1.5412292-1.7945786,2.7596283-2.8893051,3.966156
				c-1.0653763,1.1741638-1.9043808,2.4688721-2.9342804,3.6836548c-7.3819351,8.7071075-6.2950592,11.5223999-9.418396,10.6417389
				c-0.5941696-0.1675262-0.5929794-0.1030731-1.0223846,0.3684387c-0.6852875,0.7524872-1.5740662,1.2657471-2.6258469,1.1914825
				c-1.3004761-0.0918274-2.4810867-1.1100769-2.7629166-2.3829498c-0.5729904,1.7438965-3.3138657,2.8985901-4.730072,0.7597198
				c-0.2610168-0.3942108-0.7965546-1.5045013-0.5040665-1.9857635c-0.611496,1.006134-2.2571411,0.8340759-3.0342026-0.0504761
				c-0.7770615-0.8845673-0.9040604-2.1532898-0.9260788-3.3304901c-0.0823517-4.4028931,0.8107376-8.8187561,2.5784912-12.8509979
				c1.8100357-4.1287003,3.5837173-8.2845535,5.5460739-12.3669968
				C85.8815765,112.2845535,108.6045609,124.641037,106.4036255,128.6883698z"/>
			<path class="st1" d="M83.6097946,116.3319244c0,0,11.7650146,9.9447479,22.7229843,12.3564911
				c0,0,11.9819489-15.731926,28.3036804-25.445549s15.6443939-22.9980621,11.3322754-27.8638
				s-13.0574951-9.5407333-32.212204,3.2475281S85.796051,111.6791458,83.6097946,116.3319244z"/>
			<polygon class="st14" points="100.8017883,167.6148224 75.1451187,201.4742889 32.5518112,161.9199219 57.1771126,130.1680908 
							"/>
			
				<ellipse transform="matrix(0.6645647 -0.7472308 0.7472308 0.6645647 -101.093605 106.4417343)" class="st19" cx="68.0103836" cy="165.8211975" rx="8.5659533" ry="13.2401648"/>
			<path class="st15" d="M180.1105957,110.2408447c-0.7968292-6.2951736-1.7247009-12.6145096-3.9702759-18.5405731
				c-2.280014-6.0227432-6.0881805-11.6901016-11.5071869-15.1118851c-0.4553375-0.7278671-0.9589386-1.2107468-0.9589386-1.2107468
				c0.0724182,0,7.0353546-0.2251282,11.6644287,5.8182449C178.3879395,85.1764297,183.7206421,104.1847687,180.1105957,110.2408447
				z"/>
			<g>
				<path class="st21" d="M79.1146545,144.9057312c0.7592773-4.2753906,2.1425781-8.4052734,4.1108398-12.2749023
					c0.2249908-0.4418335,0.8936996-0.1026306,0.6689453,0.3398438c-1.9350586,3.8041992-3.2949219,7.8637695-4.0415039,12.065918
					C79.7662048,145.5254517,79.0280304,145.3938599,79.1146545,144.9057312z"/>
			</g>
			<g>
				<path class="st21" d="M84.5697327,146.1908875c-0.8632813-3.5703125-0.1538086-7.5209961,1.8984375-10.5678711
					c0.2766037-0.4113922,0.8994904,0.0069122,0.6220703,0.4189453c-1.9365234,2.875-2.6064453,6.6030273-1.7915039,9.9731445
					C85.4144592,146.4967041,84.686409,146.6740723,84.5697327,146.1908875z"/>
			</g>
			<g>
				<path class="st21" d="M90.2313538,146.676239c-0.2011719,0-0.3676758-0.159668-0.375-0.3623047
					c-0.1005859-2.9448242,0.5322266-5.8994141,1.8305664-8.543457c0.2178574-0.4474945,0.8913422-0.1139069,0.6728516,0.3300781
					c-1.2436523,2.5341797-1.8500977,5.3657227-1.753418,8.1879883c0.0068359,0.2070313-0.1552734,0.3803711-0.3623047,0.3876953
					C90.2396545,146.676239,90.23526,146.676239,90.2313538,146.676239z"/>
			</g>
			<path class="st7" d="M168.7172699,64.2118607c-1.448822,5.29142-6.1813965,8.1820679-13.1146698,6.1606827
				c-6.9333496-2.024765-8.5718079-3.5529099-8.9374695-3.9702759l-5.6018372-6.5297089l1.6626434-8.4268875
				c4.5584259-2.1240044,6.8631439-3.1978874,11.4451141-5.332859l10.0067444-0.3207703l0.1379395,2.6353951
				C164.350174,48.5274506,170.1692047,58.9276123,168.7172699,64.2118607z"/>
			<path class="st3" d="M168.7172699,64.2118607c-1.448822,5.29142-6.1813965,8.1820679-13.1146698,6.1606827
				c-6.9333496-2.024765-8.5718079-3.5529099-8.9374695-3.9702759l-5.6018372-6.5297089l1.6626434-8.4268875l1.7695007-0.8244553
				l1.6384735,0.0483398c0.5174103,3.5011101,1.5694885,6.9194412,3.1148224,10.0997849
				c1.321701,2.7201271,5.7827454,4.5368423,7.835083,2.174221c0.4647675-0.5350189,0.7232666-1.2303543,1.2183685-1.7374268
				c0.5865326-0.6007118,1.4276428-0.863327,2.2319031-1.104248c4.8690948-1.4585571,5.1789246-0.3223,6.2720795-0.2807503
				c0.3104553,0.0118027,0.6529541-0.1200333,0.778717-0.4041214c0.1136627-0.2567329,0.0231323-0.5539436,0.0438995-0.8339462
				c0.0140686-0.1897964,0.1417542-0.4311829,0.3383179-0.4855919c0.3263092-0.0903282,0.340683,0.1397667,0.4363251,0.3586617
				c0.2684326,0.6143456,0.3268433,1.4489937,0.4177551,2.1097107
				C168.9864044,61.7667732,169.0415802,63.0315285,168.7172699,64.2118607z"/>
			<path class="st7" d="M147.2888489,64.4412842c-0.1489105-0.4275131-0.4724121-0.7684326-0.7984314-1.0825272
				c-1.0081177-0.971283-0.9869232-1.0838814-1.2502747-2.3642235c-0.0936584-0.4553337-0.2396393-0.9263573-0.5798492-1.2431564
				c-0.7026672-0.6543274-2.1106873-0.0865631-2.7016754,0.468441c-2.8709869,2.6961861,1.2579651,8.359314,4.3942719,6.2364883
				C146.9793091,66.0323105,147.5621643,65.2260056,147.2888489,64.4412842z"/>
			<path class="st15" d="M170.1591034,44.49506c-0.7933807,1.7729607-5.8433685,3.9323769-5.8433685,3.9323769
				c-1.4762726-2.8492966-7.4921112-1.4867134-15.6326599,3.2286034c-8.4200745,4.8739738-7.6577606,8.0682144-7.6197815,8.2165184
				c-1.0002899-0.9658546-1.8005829-2.1662407-2.3938751-3.2217789c-0.9520416-1.7074432-1.4556427-3.6425972-1.3315125-5.5914803
				c0.2104645-3.2493172,1.4073944-7.0574799,9.6273651-10.9622345c0.0827789-0.0379829,0.1621094-0.0758781,0.2448883-0.1137733
				c10.7379761-4.9741096,12.6213379,2.6318588,12.6213379,2.6318588
				C163.9391174,41.0623932,171.9530945,40.5029984,170.1591034,44.49506z"/>
			<path class="st1" d="M159.8314972,42.6151505c-5.7570343,1.1555862-13.914856,6.5158958-13.914856,6.5158958
				c-0.7795715-4.4531555,0.3587494-7.509285,1.2935181-9.1477547
				C157.9481354,35.009182,159.8314972,42.6151505,159.8314972,42.6151505z"/>
			<path class="st3" d="M155.5920715,50.410984c0.3030243-0.092701,0.6221619-0.1873703,0.9509735-0.1661606
				c0.6708221,0.0432777,1.1075134,0.608387-0.1115723,0.9712143c-0.8155365,0.2427216-4.737915,1.7893066-5.2068176,1.1876144
				C150.4962616,51.4689941,154.782074,50.6587868,155.5920715,50.410984z"/>
			<path class="st3" d="M163.4361115,48.9474907c0.3149414-0.0349731,0.6461029-0.0688934,0.9652863,0.0128479
				c0.3191681,0.0817451,0.6134338,0.3210716,0.5643768,0.5493927c-0.0567169,0.2639885-0.4887238,0.3466148-0.8538971,0.3843536
				c-0.8463745,0.087471-4.9873505,0.8808098-5.3367004,0.2026825
				C158.2324982,49.0433693,162.594223,49.0409813,163.4361115,48.9474907z"/>
			
				<ellipse transform="matrix(0.9520844 -0.3058355 0.3058355 0.9520844 -8.1716032 52.4433098)" class="st3" cx="163.2815857" cy="52.3004799" rx="0.8539818" ry="1.3126694"/>
			
				<ellipse transform="matrix(0.9520844 -0.3058355 0.3058355 0.9520844 -8.9744482 50.1630974)" class="st3" cx="155.6031036" cy="53.7225723" rx="0.8539818" ry="1.3126694"/>
			<path class="st21" d="M163.4519043,56.6832199c0.0032043,0.3387604-0.3394318,0.5664902-0.649353,0.7032967
				c-0.8508148,0.3755722-1.7807617,0.5707664-2.7107849,0.5689888c0.7449493-0.4078865,1.4898834-0.815773,2.2348175-1.2236595
				c-2.1612549-1.9339218-2.3029938-2.023407-2.4720917-2.3251762c-0.1475372-0.2633133-0.2241974-0.6494064,0.1668701-0.6337471
				c0.273056,0.0109329,0.7839508,0.5719719,0.9973755,0.7360458
				C163.1876068,56.1762924,163.4481201,56.2865677,163.4519043,56.6832199z"/>
			<path class="st19" d="M166.1199188,61.1684685c-1.9376526,1.12463-4.147583,1.7763214-6.3854218,1.8830261
				c0.3923492,1.0149269,1.2353821,1.9811516,2.3012238,2.200222c1.0658264,0.2190704,2.2324677-0.1378326,2.9933014-0.9157257
				C165.789856,63.5580902,166.3625793,62.229187,166.1199188,61.1684685z"/>
			<path class="st21" d="M144.7394409,65.0512161c0.2568054-0.0331497,0.5018005-0.2515335,0.4884338-0.5101166
				c-0.0148621-0.2874146-0.3105621-0.4711456-0.5821991-0.566227c-0.2716217-0.0950775-0.58078-0.1715126-0.7394562-0.4116211
				c-0.283905-0.4296379,0.0878296-0.9856491,0.162323-1.4044495c0.0821533-0.4619598-0.2180023-0.9231606-0.7230835-0.7204056
				c-0.3441467,0.1381569-0.4129181,0.7276535-0.4386139,1.0439758
				C142.7834167,64.0019608,144.0012817,65.1464844,144.7394409,65.0512161z"/>
		</g>
	</g>
</g>
</svg>
