<?xml version="1.0" encoding="utf-8"?>
<!-- Generator: Adobe Illustrator 22.0.1, SVG Export Plug-In . SVG Version: 6.00 Build 0)  -->
<svg version="1.1" id="Layer_1" xmlns="http://www.w3.org/2000/svg" xmlns:xlink="http://www.w3.org/1999/xlink" x="0px" y="0px"
	 viewBox="0 0 300 300" style="enable-background:new 0 0 300 300;" xml:space="preserve">
<style type="text/css">
	.st0{fill:#EDC1A4;}
	.st1{fill:#E2E0E0;}
	.st2{fill:#D39E81;}
	.st3{fill:#502E26;}
	.st4{fill:#CCCACA;}
	.st5{fill:#426800;}
	.st6{fill:#538705;}
	.st7{fill:#D47E44;}
	.st8{fill:#73341D;}
	.st9{fill:#BC672E;}
	.st10{fill:#96311D;}
	.st11{fill:#B83E21;}
	.st12{fill:#DE8D82;}
	.st13{fill:#EFBAB4;}
	.st14{fill:#FDD5D0;}
	.st15{fill:#6883CE;}
	.st16{fill:#3D4885;}
	.st17{fill:#3859AE;}
	.st18{fill:#864424;}
	.st19{fill:#FEFEFE;}
	.st20{fill:#FFFFFF;}
	.st21{fill:#A55925;}
	.st22{fill:#F4F2F2;}
	.st23{fill:#3C3E68;}
	.st24{fill:#E8997C;}
	.st25{fill:#F5C46B;}
	.st26{fill:#F7EBDA;}
	.st27{fill:#0E0C0D;}
	.st28{fill:#657C3A;}
	.st29{fill:#576C37;}
	.st30{fill:#7C995D;}
	.st31{fill:#36518C;}
	.st32{fill:#96B7E3;}
	.st33{fill:#A3B3DF;}
	.st34{fill:url(#SVGID_1_);}
	.st35{fill:url(#SVGID_2_);}
	.st36{fill:url(#SVGID_3_);}
	.st37{fill:url(#SVGID_4_);}
	.st38{fill:url(#SVGID_5_);}
	.st39{fill:#266AB7;}
	.st40{fill:#060E0D;}
	.st41{fill:#E0D4C6;}
	.st42{fill:#787E42;}
	.st43{fill:#D3D1D1;}
	.st44{fill:url(#SVGID_6_);}
	.st45{fill:url(#SVGID_7_);}
	.st46{fill:url(#SVGID_8_);}
	.st47{fill:#020508;}
	.st48{fill:#BAB6B6;}
	.st49{fill:#0F0B07;}
	.st50{fill:#2F3A68;}
	.st51{fill:#203257;}
	.st52{opacity:0.5;fill:#FFFFFF;}
	.st53{opacity:0.2;fill:#0E0C0D;}
	.st54{fill:#DD9F9B;}
	.st55{fill:#3E4D9B;}
	.st56{fill:url(#SVGID_9_);}
	.st57{fill:#5F6194;}
	.st58{fill:url(#SVGID_10_);}
	.st59{fill:url(#SVGID_11_);}
	.st60{fill:url(#SVGID_12_);}
	.st61{fill:url(#SVGID_13_);}
	.st62{fill:#070102;}
	.st63{fill:#100805;}
	.st64{fill:#FDA465;}
	.st65{fill:#2A50A1;}
	.st66{fill:#B76C39;}
	.st67{fill:#130602;}
	.st68{fill:url(#SVGID_14_);}
	.st69{fill:url(#SVGID_15_);}
	.st70{fill:url(#SVGID_16_);}
	.st71{fill:url(#SVGID_17_);}
	.st72{fill:url(#SVGID_18_);}
	.st73{fill:url(#SVGID_19_);}
	.st74{fill:#B4BDED;}
	.st75{fill:#100D08;}
	.st76{fill:#F6C85F;}
	.st77{fill:#FECF00;}
	.st78{fill:#2D59E2;}
	.st79{fill:#121F3A;}
	.st80{fill:#BBD0F5;}
	.st81{fill:#020202;}
	.st82{fill:#E2CFB7;}
	.st83{fill:#080805;}
	.st84{fill:#A87D7C;}
	.st85{fill:#182052;}
	.st86{fill:#EAEAEA;}
	.st87{fill:#DDDDDD;}
	.st88{fill:#3D4574;}
	.st89{fill:#ABC5F0;}
	.st90{fill:url(#SVGID_20_);}
	.st91{fill:#4159A8;}
	.st92{fill:#E0D0BD;}
	.st93{fill:#3D53AA;}
	.st94{fill:#0A0000;}
	.st95{fill:#BF6D36;}
	.st96{fill:#385DAE;}
	.st97{fill:#E0DCDC;}
	.st98{fill:#857E78;}
	.st99{fill:#0E213C;}
	.st100{fill:url(#SVGID_21_);}
	.st101{fill:#55608E;}
	.st102{opacity:0.3;fill:#F4F2F2;}
	.st103{opacity:0.3;}
	.st104{fill:#213987;}
	.st105{enable-background:new    ;}
</style>
<g id="Order_Rider_1_">
	<g id="Order_Rider">
		<g>
			<g>
				<g class="st105">
					<g>
						<path class="st3" d="M22.5975056,247.5040741l-0.581934-10.8648682
							c0.306406,5.7205658,5.0983849,10.6925201,11.507679,10.7440796l0.5819206,10.8648834
							C27.6958771,258.1965942,22.9038982,253.2246552,22.5975056,247.5040741z"/>
					</g>
					<g>
						<polygon class="st3" points="265.6427917,249.2505035 266.2247314,260.115387 34.1051712,258.2481689 33.5232506,247.3832855 
													"/>
					</g>
					<g>
						<path class="st3" d="M277.4024963,237.2874298l0.5819092,10.8648834
							c0.3370667,6.2933044-4.8298645,12.0187988-11.7596741,11.9630737l-0.5819397-10.8648834
							C272.5726013,249.3062439,277.739563,243.5807343,277.4024963,237.2874298z"/>
					</g>
					<g>
						<path class="st18" d="M247.4562988,178.2358856c4.8106689,0.0386963,9.0948486,2.9611969,10.7816467,7.3639679
							l18.4386597,48.2981262c2.8486938,7.4582825-2.8689575,15.4181976-11.0338135,15.3525238l-232.1195374-1.867218
							c-8.1647377-0.0656738-13.7049026-8.1161652-10.6910191-15.5272827l19.5165958-47.9927979
							c1.7752113-4.3749237,6.1233749-7.2279816,10.9430656-7.1892242L247.4562988,178.2358856z"/>
						<path class="st1" d="M33.5477066,244.385437c-6.0974674-0.0484009-10.14254-5.9811249-7.9382839-11.4000092
							l19.5163708-47.9931946c1.3115005-3.2333679,4.4790039-5.3211365,8.0690422-5.3211365l194.2366638,1.5622864
							c3.5539398,0.0287933,6.7721863,2.2141418,8.0065918,5.438736l18.4380951,48.2947083
							c2.0992737,5.4968872-2.1488342,11.2863159-8.1324768,11.2863159L33.5477066,244.385437z"/>
						<polygon class="st20" points="68.6970901,179.6773834 48.6661415,244.1693115 252.1745758,246.0964813 
							231.9301605,180.9172516 						"/>
					</g>
				</g>
			</g>
			<path class="st3" d="M40.8980446,217.346283c-2.1520119,0.455719-3.7962837-0.9499512-3.1806946-2.7191467l6.328289-18.1873627
				c0.6248703-1.7958527,2.8312263-2.2437439,2.7302399-2.19487c2.1520081-0.455719,3.7962837,0.9499512,3.1806908,2.7191467
				l-6.328289,18.1873627C43.0034142,216.9472656,40.7970543,217.3951569,40.8980446,217.346283z"/>
			<ellipse class="st3" cx="252.1745758" cy="207.3903351" rx="7.9642272" ry="5.5442133"/>
			<g>
				<path class="st26" d="M242.2093811,175.4935608c2.0994415-4.1907043,1.304306-9.6524048-1.9028625-13.0705566
					c-1.8241119-1.9441223-4.4311523-3.2432861-7.0943604-3.124054c-2.6632233,0.1192322-5.2892303,1.8225098-6.1420746,4.3482971"
					/>
				<path class="st11" d="M239.0303497,179.3613586c1.7017517-0.6993713,3.6232605-1.6476288,4.0242004-3.4432678
					c0.3732605-1.6717224-0.7636566-3.2692566-1.8343048-4.6063232c-6.4989777-8.1162415-7.4384613-9.6127319-9.5994263-10.6366425
					c-2.203949-1.0442657-4.8628387-0.7068939-7.0759277,0.3178558c-2.2130737,1.0247498-4.071991,2.6662598-5.8963318,4.28479"/>
				<path class="st7" d="M107.7144089,165.0640717l10.7237091,32.4046326c0,0,0.8648605,4.1841278,6.6906967,6.9047699
					c5.8230896,2.723465,46.5655823,0.6067352,46.5655823,0.6067352l72.4771423-5.0269318
					c1.921814-3.662384,1.9959564-8.0962677,0.8730621-12.0771637c-1.1229095-3.9782257-3.3522034-7.5609894-5.861557-10.8445282
					c-9.1603394-11.986557-18.1307983-15.8365326-22.4234924-19.3855896
					c-3.074234-2.5417023-5.7211914-6.7663879-9.9476929-6.6409454c-2.8831024,0.0855865-5.7834473-0.0555878-8.6673126-0.106781
					c-6.9027863-0.1225433-13.8055725-0.2450867-20.7083588-0.3676453
					c-4.3473206-0.077179-8.6946259-0.1543427-13.0419312-0.2315216c0,0-10.753952-6.0426788-9.9028625,1.9959412
					c0.8464203,8.0146637,10.5490875,34.5460052,9.1423645,38.0629578
					c-1.4084167,3.5169373-32.8602753,5.779129-38.1590118,0.5079346
					c-5.5012894-5.4736938-6.162529-30.1540527-5.0955734-38.7328339c1.1805573-9.5074615,7.396225-35.7101593,7.396225-35.7101593
					l-4.0495377,0.7001724l-8.9941025,15.2344284L107.7144089,165.0640717z"/>
				<path class="st3" d="M102.9371719,181.8327789c2.663147,2.7846985,4.810112,6.3155823,7.1520538,9.3900146
					c0.0025635,0.0033722-2.6797409,9.3296509-2.6797409,9.3296509c2.9184113,2.2566833,14.92173,3.06604,17.7193298,3.8210297
					c-8.7360458-7.4730377-11.9043045-29.2307281-10.5288315-46.6946411
					c1.186058-15.0258484,13.175415-41.2558899,13.175415-41.2558899c-2.8180466-0.8205566-5.7676697-1.4625626-8.5129242-2.4945602
					c-1.837471-0.6907425-2.5467758-1.1832428-4.3209152,0.231842c-1.4326248,1.1426849-2.3753815,2.9248886-3.1409149,4.5516129
					c-5.7993698,12.3234558-10.3801117,25.2200165-13.6537476,38.4405975
					C94.6299133,171.3557281,96.8595581,175.4777527,102.9371719,181.8327789z"/>
				<path class="st3" d="M121.7244492,181.5367737c0.3047409,4.991272,1.0267944,10.8665161,2.7125092,13.7630463
					c3.2533493,5.5897064,36.2262039,2.4351044,39.2626877,1.6307831c2.9733124-0.7851563,0.1235352-8.3791199,0.0027466-8.6948242
					c0.109787,0.980072-0.0805054,1.39328-0.245224,1.8050995c-1.4084167,3.5169373-32.3670044,5.3156128-37.665741,0.0444336
					C124.146904,188.4490356,122.6002655,185.7868652,121.7244492,181.5367737z"/>
				<ellipse class="st3" cx="210.9596252" cy="200.4223328" rx="23.688921" ry="24.3616676"/>
				<ellipse class="st19" cx="210.9596252" cy="200.4223328" rx="11.8602171" ry="12.1970367"/>
				<ellipse class="st13" cx="210.9596252" cy="200.4223328" rx="6.9434295" ry="7.1406169"/>
				<path class="st3" d="M153.8807068,137.7408142c0,0-2.3413849,11.3440094-0.2669373,14.0393066
					c2.0744324,2.6952972,58.6647644,4.0446472,58.4747925-0.1353455s0.4669495-11.1484528-1.7202606-13.2405548
					C208.1811066,136.3121185,157.7789612,136.9822998,153.8807068,137.7408142z"/>
				<path class="st7" d="M106.0367966,98.4413452c0,0,1.5531693-0.8014755,5.8032913-0.2610931
					c4.6609268,0.5926132,13.6792984,4.0096893,15.6337891,6.8277893c1.954483,2.8181-4.0116653,14.7604828-21.4370804,14.4709396
					V98.4413452z"/>
				<path class="st0" d="M139.9360962,105.2702637c0,0-16.3171082-3.7740097-22.3071671,0.1068039
					c-1.2325439,0.7985306-2.3557816,1.8264847-3.083252,3.1156998c-0.8258667,1.4635849-0.8697052,2.8823776-0.8326035,4.5169601
					c0.0074768,0.329483,0.021759,0.6806717,0.2113037,0.9502716c0.1895447,0.2696075,0.6236343,0.3911438,0.8503418,0.1519394
					c-0.3204346,0.3623276-0.2183762,1.0090866,0.1980591,1.2551422s1.0321808,0.0234222,1.1949615-0.4320602
					c-0.049408,0.6725693,0.1643829,1.3610306,0.5860825,1.8873062c0.7782822,0.9712982,1.6708984,0.4043198,1.5441971-0.1386871
					c-0.208374,0.687439,0.4950562,1.4698334,1.2007065,1.335495c1.087059-0.2069473,0.6488113-1.3288879,0.7457657-2.0231171
					c0.1394501-0.9985123,0.6261978-2.0737686,1.4343796-2.6991348c1.1834793-0.9157639,2.8376694-0.8037415,4.3259277-0.647789
					c14.4007339,1.5090485,14.9944229,1.7627716,16.5707779,1.1082535c1.1794739-0.4897308,2.1177063-1.8145828,1.720047-3.0281982"
					/>
				<path class="st2" d="M140.3247833,83.2394257c-4.4477997-2.7758789-5.2845306-6.418129-6.3173065-7.6886215
					c-1.349762-1.6604233-3.2957764-1.2061615-3.8483582,0.5041351c-0.5438995,1.6833878,0.5611572,3.2820892,1.5054626,4.579895"/>
				<path class="st0" d="M143.9673004,89.4808731c-0.394577-3.167984-2.4027863-6.0921631-5.2178955-7.5978165
					c-3.9397278-2.1071472-8.1357574-1.2799072-12.9814835-5.8697433c-0.5867615-0.5557785-1.3234253-1.2083817-2.0916977-0.9575119
					c-0.5440826,0.1776733-0.8496704,0.7570648-0.9906235,1.3117905c-0.4316711,1.6987839,0.1892624,3.5317307,1.2554626,4.9229279
					s2.5343018,2.4127655,4.0076904,3.3621597c4.728508,3.046875,6.1330338,4.0411835,8.7167587,11.8282089"/>
				<path class="st15" d="M158.6898193,73.7752914c0,0-3.1775055,1.1945038-5.3242493,5.4075394
					c-1.5050354,2.9536819-3.3303833,7.2647858-3.9161072,15.2184677c0,0-3.3503876-6.3471298-4.7702942-6.5517349
					c-1.4199066-0.2046127-8.1666412,3.4358826-10.3596191,6.7881241c0,0,5.7584839,12.9565353,7.9920502,13.9839783
					c2.233551,1.0274353,11.3911438-3.3950119,11.3911438-3.3950119l2.9036407,1.1614532L158.6898193,73.7752914z"/>
				<path class="st0" d="M158.2059937,73.9837494c0,0,0.1565094,0.5765762-0.0521393,1.7626953
					c-0.2086639,1.1886673,5.5348053,1.7680511,5.5348053,1.7680511l4.5821381-6.7208557
					c-0.2055054-0.4349899,0.3210297,0.6795425-4.7743073-10.1060219l-7.4648743,4.7440834
					C156.0973206,65.6900787,158.258316,74.1895065,158.2059937,73.9837494z"/>
				<path class="st2" d="M156.0316162,65.4317017l0.7769165,3.0557861c2.759201-1.9959488,5.1010742-4.5657883,6.830719-7.4978409
					l-0.1427612-0.3020287L156.0316162,65.4317017z"/>
				<path class="st49" d="M159.7605438,62.476059c-0.9466095-0.1377792-1.6569366-0.9859314-1.9593964-1.8934326
					c-0.3024597-0.9074974-0.2858582-1.8846054-0.3404694-2.8396187c-0.1690979-2.9572182-1.062973-5.8703728-2.581604-8.4135017
					c-0.1809387-0.3030052-0.377243-0.6245499-0.3649597-0.977253c0.0204773-0.587429,0.6464996-1.0109062,1.2342682-1.0063629
					c0.5877686,0.0045395,1.1248016,0.3227158,1.5999756,0.6686935c3.562973,2.5942268,5.2093964,6.9319,5.322464,11.3550568"/>
				<path class="st4" d="M147.3447571,189.3455811c0,0,0.402771,1.6181641,0.0157318,1.9254456
					c-0.3870392,0.3072968-21.8057861,2.2005463-22.9033279,0.2344666c0,0-0.5985107-1.0502625-0.019928-1.6137848
					C125.0158157,189.3282013,147.3447571,189.3455811,147.3447571,189.3455811z"/>
				<polygon class="st0" points="145.0428772,182.4439697 143.8748169,173.7099304 133.7058105,176.067627 135.238739,181.9553375 
					141.0928345,184.5837555 				"/>
				<path class="st16" d="M144.9563446,181.2264252c0,0,3.0169067,5.5386963,2.3884125,8.1191559
					c0,0-15.4614868,1.8514252-22.9075241,0.5461273c0,0,0.143959-4.0577545,6.8039932-6.1335754
					c0,0,3.2817383-0.6428833,3.6347656-2.2651062C135.2290192,179.8707886,144.9563446,181.2264252,144.9563446,181.2264252z"/>
				<path class="st22" d="M153.7825775,192.4886322c0,0,0.3795013,1.6237793-0.0119019,1.9254761
					c-0.3914032,0.301712-21.8351288,1.8873444-22.9043427-0.0942993c0,0-0.583374-1.0587311,0.0032349-1.6138916
					C131.4561768,192.1507721,153.7825775,192.4886322,153.7825775,192.4886322z"/>
				<polygon class="st0" points="151.5942078,184.794693 150.4261475,176.0606689 140.2571411,178.4183655 141.7900696,184.3060608 
					147.644165,186.934494 				"/>
				<path class="st50" d="M140.2571411,176.0606689h-6.5287323l-3.1931305-14.2643585c0,0-2.731575-11.6574554-2.7486572-15.2503052
					c-0.0170898-3.5928497-0.4482346-11.9544983,6.7761536-17.3861237c1.365036-1.0262909,2.8917236-1.8283005,4.4463654-2.5252991
					c3.877533-1.7384415,8.0291901-2.8688889,12.1683502-3.7872391c1.6123505-0.3577347,3.2333832-0.6771927,4.8607635-0.9587097
					c0.5717621-0.0988998,1.2138672-0.106842,1.7635193-0.2221909c0.5291748-0.1110382,0.6610107-0.0131378,0.7456665-0.630394
					c0.0131378-0.0958099-0.2480927-1.0871201-0.24617-1.0874863c1.8675537-0.3577576,3.7312469-0.761879,5.5952911-1.1438446
					c1.2440186-0.2549057,2.4880371-0.509819,3.7320557-0.7647324c0.2168884-0.0444412,1.3927307-0.456749,1.5842438-0.324379
					c0.0517426,0.035759,7.5756226,5.2360229,7.5756226,5.2360229l-37.7460632,16.3611755l2.5584412,27.3241119
					L140.2571411,176.0606689z"/>
				<path class="st16" d="M192.1833801,115.4811401c0,0,5.4130096,10.7037277,3.8119659,17.0597839
					c-1.6010284,6.3560486-8.6564026,11.6105957-17.7924957,12.4335938
					c-9.1360779,0.822998-15.67276,1.0772705-20.5993805,0.6880493c0,0-9.0346832-0.7606201-9.4394379,0.4924011
					c-1.4045715,4.3481903,1.9727783,19.0477753,3.6125336,31.878418c0.0655212,0.5127106-0.3461609,0.957077-0.8626862,0.9382629
					l-10.6932526-0.3896179c0,0-13.0433426-32.5780029-8.7191925-42.7397461
					c2.9728546-6.9862061,18.0043335-9.6292572,27.1087036-10.5989227
					c4.5475006-0.4843292,8.6582184-2.9243851,11.2100677-6.7194443l0.0580597-0.0863419L192.1833801,115.4811401z"/>
				<path class="st1" d="M165.4523621,71.3388138c0,0-3.3379822,4.2194672-7.2986755,4.4087982
					c0,0-5.5149384,6.9480133-3.728363,29.4762497l3.8746185,14.7276611c0,0,29.7634735,4.6552429,33.8834381-4.4703827
					c0,0-3.6066895-6.5396957-7.6651459-12.437439C180.4597931,97.1459579,165.4523621,71.3388138,165.4523621,71.3388138z"/>
				<path class="st15" d="M177.6911621,75.0760803c0,0,5.2315521,1.9989777,5.3845825,9.2975616
					c0.0431213,2.0566483,1.3542633,4.4774017,2.1818237,6.3606873c1.9341736,4.4016037,5.9633789,24.695015,8.1473541,27.459877
					c-4.5422363,2.9618912-11.1601105,4.0315781-18.9776917,4.0068588l-6.4150391-22.5227356"/>
				<path class="st15" d="M151.5109406,184.3360291c0,0,2.9371033,5.5814209,2.271637,8.1526031
					c0,0-15.4864807,1.6293182-22.9130096,0.2172852c0,0,0.202179-4.0552673,6.8913269-6.0352936
					c0,0,3.2906342-0.5957031,3.6669006-2.2127075C141.8040771,182.8409119,151.5109406,184.3360291,151.5109406,184.3360291z"/>
				<path class="st49" d="M159.2762146,61.6502686c1.7836914,4.0746231,5.5577545,9.0535736,10.7227325,7.69384
					c2.9076538-0.7654648,5.1139069-3.6461411,5.0952606-6.6528091c-0.0187988-3.0314789-1.9969025-5.6537361-3.8828583-8.0272141
					c-0.4640961-0.5840645-1.0090485-1.2144318-1.7511902-1.2908859c-1.9636841-0.2021828-1.8965759,2.7169113-3.971405,2.789032
					c-2.082428,0.0723839-4.2321167-1.4659615-5.0104828-3.347805"/>
				<g>
					<path class="st49" d="M137.7906036,84.5367203l-14.7218475-14.9640274
						c-0.1632843-0.1659698-0.4069366-0.2242355-0.6276321-0.1500931l-3.6669769,0.7165756
						c-0.4248352,0.1427155-0.9760132,1.5308838-0.6634674,1.8520813l15.4505539,16.4017181
						c0.842392,0.5025558,1.8969574-0.2796021,2.1343689-0.5326538l2.1049957-2.4803848
						C138.0240936,85.1417236,138.0196838,84.7695618,137.7906036,84.5367203z"/>
					<path class="st11" d="M138.8842163,83.6333084L124.1623535,68.669281
						c-0.1632767-0.1659622-0.406929-0.2242355-0.6276321-0.1500931l-4.6207275,1.5522308
						c-0.4248352,0.1427155-0.5549164,0.6801224-0.2423706,1.0013275l16.2537613,16.70401
						c0.2419739,0.2486877,0.6425781,0.2450409,0.8799896-0.0080109l3.0888367-3.2922211
						C139.117691,84.2383194,139.1132813,83.8661575,138.8842163,83.6333084z"/>
					<polygon class="st20" points="138.1521454,84.0636368 123.6696243,69.3427658 119.5003738,70.743309 135.3587036,87.0410004 
											"/>
				</g>
				<path class="st0" d="M128.3364258,84.373642c-0.5972443-1.6371002-0.477272-3.5218658,0.3227081-5.0700378
					c0.2021332-0.3911819,0.447052-0.765831,0.5704651-1.1885071c0.1234131-0.4226685,0.1035156-0.9197006-0.1842651-1.2529602
					c-0.4849243-0.5615234-1.4732971-0.3353958-1.9295731,0.2496414c-0.4562836,0.5850372-0.5283813,1.3728256-0.5827942,2.1127625
					c0.2216415-4.0093994,0.3469315-4.4219894-0.0763626-4.8386307c-0.3996811-0.3934097-1.1231995-0.2039108-1.4726563,0.2347107
					c-0.3494644,0.4386215-0.4262619,1.0280151-0.490181,1.5851746c0.1849594-0.9243622,0.2531815-1.8720322,0.2025146-2.8133621
					c-0.031189-0.5794525-0.202858-1.2767105-0.7598877-1.4393539c-0.3984375-0.116333-0.8318787,0.1222687-1.0713501,0.4612885
					c-0.2394791,0.3390198-0.3281174,0.7586899-0.4112701,1.1653442c0.1999741-0.6227951,0.4020081-1.282959,0.2553482-1.9204178
					c-0.1466522-0.6374664-0.7843857-1.2105179-1.415535-1.0387115c-0.678299,0.184639-0.9029846,1.0257416-0.9472809,1.7273254
					c-0.2619858,4.1497879,1.8194809,8.3696365,5.271637,10.6874008"/>
				<circle class="st7" cx="123.7257614" cy="114.919899" r="4.5590792"/>
				<circle class="st20" cx="123.7257614" cy="114.919899" r="3.1055739"/>
				<g>
					<path class="st3" d="M118.304718,117.1584091c-0.1943359,0-0.3588867-0.1499023-0.3735352-0.347168
						c-0.2216797-2.9726563,1.0600586-6.0092773,3.3442383-7.9243164c0.3756638-0.3184967,0.8639832,0.2538681,0.4814453,0.5751953
						c-2.1020508,1.762207-3.2817383,4.5571289-3.0776367,7.293457c0.0151367,0.206543-0.1396484,0.3862305-0.3461914,0.4018555
						C118.323761,117.1579208,118.3139954,117.1584091,118.304718,117.1584091z"/>
				</g>
				<g>
					<path class="st3" d="M115.7846985,114.8756943c0.2363281-2.5253906,1.5625-4.9731445,3.5488281-6.5493164
						c0.3859787-0.3080826,0.8561325,0.2784576,0.4658203,0.5878906c-1.8286133,1.4511719-3.050293,3.7055664-3.2675781,6.0307617
						C116.4846191,115.438858,115.7390442,115.3696671,115.7846985,114.8756943z"/>
				</g>
				<g>
					<path class="st3" d="M114.3603821,114.1901474c0.300293-2.6796875,1.5292969-5.1914063,3.4609375-7.0727539
						c0.3549805-0.3456345,0.8790588,0.1908417,0.5234375,0.5371094c-1.7817383,1.7353516-2.9624023,4.1479492-3.2392578,6.6196289
						C115.050293,114.7659683,114.305397,114.6837921,114.3603821,114.1901474z"/>
				</g>
				<ellipse class="st3" cx="106.0367966" cy="108.9601593" rx="2.8416078" ry="10.5188198"/>
				<ellipse class="st14" cx="106.0367966" cy="108.9601593" rx="1.3726858" ry="5.0812902"/>
				<ellipse class="st3" cx="82.084938" cy="199.4413147" rx="23.688921" ry="24.3616676"/>
				<ellipse class="st19" cx="82.084938" cy="199.4413147" rx="11.8602171" ry="12.1970367"/>
				<ellipse class="st13" cx="82.084938" cy="199.4413147" rx="6.9434295" ry="7.1406169"/>
				<path class="st25" d="M112.9576035,206.0186157c0.7304382-3.0512085,0.926796-6.2067261,0.5554276-9.3220825
					c-1.0268784-8.6142426-5.0114594-23.3274536-22.1270599-28.5971069
					c-19.9333115-6.1371765-31.3628235,11.4107666-31.3628235,11.4107666s-3.3513489,4.1771698-0.2775841,8.651474
					c3.0737648,4.4742889,10.6734047,0.6785889,10.6734047,0.6785889s12.2387009-6.0033722,23.7630692,5.0082397
					S108.2509842,206.3920135,112.9576035,206.0186157L112.9576035,206.0186157z"/>
				<path class="st25" d="M171.6936493,204.9814453c0,0,4.0629272-1.3553467,3.1047211-5.9748077
					c-0.9582062-4.6194763-4.8982697-11.1236725-1.9878235-21.4141235s16.5805664-11.2671661,29.177124-9.8125916
					s30.458313,8.0689545,37.5594177,16.7857513s8.5732727,12.3500214,7.9284058,14.8169861
					c-0.7976532,3.0514221-1.5584412,5.4451904-13.7714539,5.5117798
					C221.4910278,204.9610138,171.6936493,204.9814453,171.6936493,204.9814453z"/>
				<g>
					<path class="st3" d="M230.2329407,199.2087097h-37.6708984c-0.4960175,0-0.4963226-0.75,0-0.75h37.6708984
						C230.7289581,198.4587097,230.729248,199.2087097,230.2329407,199.2087097z"/>
				</g>
				<g>
					<path class="st3" d="M219.4702454,194.3024597h-17.1054688c-0.4960175,0-0.4963226-0.75,0-0.75h17.1054688
						C219.9662628,193.5524597,219.9665527,194.3024597,219.4702454,194.3024597z"/>
				</g>
				<path class="st3" d="M180.0297241,69.8935623c0,0-6.1872253,0.2974319-8.0799561,2.1009674
					c0,0,4.9996796,3.6686707,8.5802765,10.6117172s8.6442566,35.7191391,13.2679596,36.9420242
					c4.6236877,1.2228851,33.9317932-5.5365143,33.9745178-6.1283569c0.0427094-0.5918427-0.4112854-2.4510574-0.4112854-2.4510574
					L180.0297241,69.8935623z"/>
				<path class="st7" d="M178.1466064,69.4525757c4.2217407,13.6091385,16.5008392,48.0728989,16.6741943,48.5767517
					c2.9891663,0.488884,32.7696533-6.0180664,32.7696533-6.0180664
					c-0.9407196-20.0156021-6.5420837-35.6075439-13.9563904-51.7084808
					c0.513504-0.1008263,0.8279114-0.5200043,0.7549591-1.1891098c-0.0248108-0.2423782-0.1043701-0.532589-0.2518158-0.881279
					c-0.0779724-0.1811142-0.1725311-0.3738708-0.2895203-0.5873985c-1.361969-2.455761-1.6474915-5.517128-5.5512848-4.5323944
					c-3.9000549,0.9857979-29.6405487,11.1716118-30.4119415,12.7796593
					C177.1131744,67.5003204,178.1466064,69.4525757,178.1466064,69.4525757z"/>
				<path class="st3" d="M178.8480835,71.6801453c0.1243591,0.3976593,0.2608795,0.8097153,0.4012299,1.2381897
					c8.8774414-0.9149094,26.4283905-8.6904297,34.3930054-12.6176071c0.0803833-0.0120926,0.8578033-0.1679955,0.7467041-1.1870575
					c-0.0248108-0.2423782-0.1043701-0.532589-0.2518158-0.881279
					C195.7087555,66.2278366,182.6832581,71.0555649,178.8480835,71.6801453z"/>
				<path class="st3" d="M191.0605011,114.5301666c0.3733978,1.2030563,0.682724,2.4262924,0.9311523,3.6639328
					c-7.2696686-4.4711075-18.4187164-11.3087234-24.5256195-17.3682404
					c1.2954712-2.0467834,2.3455811-4.2775955,3.6857605-6.2838821c0.0639038,0.5731125-1.7108307,3.386795-2.0879517,4.0840073
					c1.8835907,1.9116898,4.0337982,3.5362549,6.1667328,5.1553802
					C179.112854,106.70578,186.9476776,111.9429703,191.0605011,114.5301666z"/>
				<path class="st3" d="M168.72435,74.6952438c1.9136047-0.12603,2.3076782,0.0249634,4.3290405,0.435524
					c1.5092468,0.3065414,2.9378052,1.0213242,4.0710602,2.0665283c1.3775024,1.2704773,0.3107147,2.6757813-1.4951324,1.4240723
					c-2.2219543-1.5401535-2.5350189-2.6111603-7.1477814-2.3915176c-3.9030609,0.1858521-7.6159363,1.803566-10.2525177,4.7074051
					c-3.1257172,3.4425278-3.6835175,7.637291-3.4875641,12.1103668
					C151.1953583,84.9219971,157.5800323,75.4291992,168.72435,74.6952438z"/>
				<path class="st19" d="M205.2080383,70.7542725c5.5177002-0.8878937,10.0949097,8.401535,4.1802521,12.535675
					c-0.2528229,0.176712-0.3602448,0.4970474-0.2700195,0.7920151c1.0622864,3.4723511,5.5301361,17.8867416,6.6433868,22.5251389
					c0.1631165,0.6796799-0.6338654,0.9378815-0.5329895,0.8612366c-0.3538971,0.0839539-0.7139587-0.1062317-0.8382263-0.4480591
					c-1.8355255-5.0487442-5.3782349-17.8156052-7.1047668-22.7418518c-0.084198-0.2402496-0.2903137-0.4117966-0.539093-0.4658432
					C199.4716187,82.2318802,200.9893341,71.4389648,205.2080383,70.7542725z"/>
				<path class="st19" d="M193.1487122,76.3872528c-0.5788116-0.2157288-0.7097321-0.0264587-0.9091644,0.1700058
					c-0.2411957,1.0941086,0.3955536,2.7855911,2.3120728,10.6642838c1.5879211,6.645546,3.3119049,13.2555542,5.1719208,19.8300323
					c0.400116,1.3705597,0.9347534,3.9560242,1.524704,5.0925674c0.1530457,0.2953568,0.3034821,0.3929901,0.5713806,0.5733109
					c0.2479858-0.0455856,0.4516754-0.1208115,0.6833954-0.2195435c0.6598511-1.0290527-2.6614532-11.9146423-3.0309143-13.9214096
					c0.7100372-1.4252167,1.344986-2.8492203,1.5588226-4.4394455
					C201.927948,87.4693985,196.9550018,81.3252716,193.1487122,76.3872528z"/>
				<path class="st15" d="M139.9360809,102.8351135c-0.8832855-0.0273514-1.2807312,12.7922134-0.3974457,12.8195648
					c0,0,21.9098969,4.8288879,28.7334595-0.0000229c6.8235779-4.8289032,13.0476837-31.0857544,12.2919464-34.9791565
					c-0.755722-3.8934097-6.8379211-11.1482849-13.0980072-10.7819366
					c-6.2601013,0.3663483-9.9414063,30.5726624-9.9414063,30.5726624
					C151.2863312,101.8774185,146.2997894,102.4538574,139.9360809,102.8351135z"/>
				<path class="st27" d="M168.2720795,115.6546936c0.5253296-0.5397949,1.1088867-1.0002441,1.5236816-1.6271973
					c0.222229-0.2978516,0.4557495-0.5849609,0.6669312-0.8886719l0.5750732-0.9545898
					c0.4094849-0.6174316,0.7357178-1.2875977,1.0792236-1.9453125c0.3588257-0.6491699,0.6453247-1.3376465,0.9518433-2.0141602
					c1.2014771-2.7180176,2.2449341-5.5100098,3.1487427-8.3479004c0.9503174-2.8237305,1.7454834-5.6984863,2.4996948-8.5825195
					c0.6251678-2.3359756,1.3634491-5.5282898,1.8651733-8.7526855c-0.1293335,2.9956055-0.6779785,5.958252-1.3040161,8.8864746
					c-0.6420288,2.9287109-1.4476929,5.8193359-2.3486328,8.6811523c-0.9697876,2.8378906-2.0123291,5.6606445-3.3413696,8.3601074
					C172.2389374,111.1197815,170.7232513,113.8717346,168.2720795,115.6546936z"/>
				<path class="st27" d="M154.0691376,101.1876526c-5.183075,1.2156296-11.3751678,1.9523392-14.121582,2.0161133
					l0.3362427-0.2456055c-0.8610077,2.6303482-1.0514069,6.6337814-0.9417114,9.4746094
					c0.0184937,1.0742188,0.1191406,2.1442871,0.1965332,3.2219238c-1.1003113-4.8344269-0.9099579-9.7968445,0.0496826-12.9423828
					c0.1224518-0.4019241,0.3244781-0.1559143,3.8661499-0.4614258
					C144.5427856,102.167923,153.968811,101.197998,154.0691376,101.1876526z"/>
			</g>
			<path class="st0" d="M165.1559448,60.1558952c-0.5096283,2.1682701-1.3488312,4.3170204-2.8977051,5.9056511
				c-2.1546173,2.2078781-6.4219971,3.7554855-9.2729492,2.8176804c-1.5588684-0.5093765-3.0976257-1.9784698-3.1775208-3.627121
				c-0.2598114-0.0297623-0.5296173-0.0600128-0.7494202-0.1995544c-0.2299347-0.1502762-0.3698425-0.449852-0.2598114-0.6899033
				c0.1512909-0.3442612,0.917038-0.5176163,0.3197021-1.1987915c-0.4573364-0.5231323-0.6031647-0.6450081-0.0200043-1.5188599
				c0.2099152-0.3098221,0.3697052-0.7396698,0.1199036-1.0094872c-0.3198242-0.3395844-0.8992157-0.0995331-1.249054-0.3995972
				c-0.8362732-0.7310219-0.4897461-1.6588402,0.2798157-2.4780884c1.0902405-1.1243248,1.657196-1.5192184,1.4488525-3.5173378
				c-0.2498169-2.4678459,0.9093323-5.8353958,0.9093323-5.8353958c0.0929871-0.1004524,0.9623108-1.0396767,0.869339-0.9392242
				C155.7955017,41.0146942,168.5390472,45.8299332,165.1559448,60.1558952z"/>
			<path class="st3" d="M162.2582397,66.0615463c-1.0397491,1.0654526-2.5100403,1.9121933-3.2375183,2.0985031
				c-2.1244812-1.8945389-2.0249023-4.9731674-0.8794556-7.6040688c0.4597321-1.0494919,1.0592499-2.0487289,1.4789734-3.1279831
				c1.1591492-2.9777107-0.0500031-7.2444763-3.1576233-8.533535c-2.3131561-0.9525871-4.6694794-0.1992722-5.5458221-0.8289566
				l0.5596313-0.5996399c0.7294312-1.0895042,1.8186798-1.9087029,3.0477295-2.3683128
				c1.9247589-0.3961487,4.3067932-0.3563347,6.0753174,0.5493851c1.956665,0.8468628,4.4104462,3.8072548,4.9861908,7.894371
				C166.1200256,57.3515396,165.0508118,63.1972809,162.2582397,66.0615463z"/>
			<path class="st11" d="M159.2067413,50.7370567c0.1824799,0.4189262,0.6800385,0.5942955,1.1317596,0.6403275
				c0.4620667,0.0470886,1.5376587-0.0413742,1.787323,0.4827156c0.0743103,0.1560097,0.0808868,0.3353081,0.077179,0.5083237
				c-0.0296783,1.3821449-0.696167,2.8274879-1.2074432,4.0918808c-2.4237823,5.9940643-3.7901611,11.3040085,2.6410828,10.5547638
				c5.6453094-0.6576767,10.6779633-4.6372948,12.0579987-7.7172318c0.6147766-1.3720627,0.9361267-2.8811378,1.0572968-4.3770561
				c0.650116-8.0903702-5.8711548-14.4398956-13.4980927-14.992485c-3.4777679-0.2495956-6.9621277,0.5391731-9.614212,2.9186478
				c-1.5093079,1.3511772-2.9228363,3.4943771-3.0318451,5.561039c1.5406494-0.1433678,3.0610657-0.4503784,4.6058197-0.5681343
				C161.5780029,47.3546867,158.7062073,49.5879669,159.2067413,50.7370567z"/>
			<ellipse class="st3" cx="167.0634613" cy="58.0746536" rx="2.6625354" ry="2.6829135"/>
			<path class="st3" d="M150.8831177,52.8343811c-0.7914276,0.0899391-0.7879944,0.6955643-0.0317535,0.8191795
				c0.9312134,0.1522179,1.8821259,0.181694,2.8209076,0.0874405c0.8293915-0.0832787,1.9764862-0.9852448,0.5414734-1.0484428
				C153.1062164,52.6437836,151.9836731,52.7093086,150.8831177,52.8343811z"/>
			<ellipse class="st3" cx="152.4859314" cy="55.7751656" rx="0.8056988" ry="1.1807021"/>
			<g>
				<path class="st4" d="M140.5444641,213.6139832h-18.2299805c-0.4960175,0-0.496315-0.75,0-0.75h18.2299805
					C141.0404816,212.8639832,141.0407715,213.6139832,140.5444641,213.6139832z"/>
			</g>
			<g>
				<path class="st4" d="M100.7065735,232.690155H66.8198547c-0.4960175,0-0.496315-0.75,0-0.75h33.8867188
					C101.2025833,231.940155,101.2028809,232.690155,100.7065735,232.690155z"/>
			</g>
			<g>
				<path class="st4" d="M217.7251282,231.3898621h-28.6435547c-0.4960175,0-0.4963226-0.75,0-0.75h28.6435547
					C218.2211456,230.6398621,218.2214355,231.3898621,217.7251282,231.3898621z"/>
			</g>
		</g>
	</g>
</g>
</svg>
