<?xml version="1.0" encoding="utf-8"?>
<!-- Generator: Adobe Illustrator 22.0.1, SVG Export Plug-In . SVG Version: 6.00 Build 0)  -->
<svg version="1.1" id="Layer_1" xmlns="http://www.w3.org/2000/svg" xmlns:xlink="http://www.w3.org/1999/xlink" x="0px" y="0px"
	 viewBox="0 0 300 300" style="enable-background:new 0 0 300 300;" xml:space="preserve">
<style type="text/css">
	.st0{fill:#EDC1A4;}
	.st1{fill:#E2E0E0;}
	.st2{fill:#D39E81;}
	.st3{fill:#502E26;}
	.st4{fill:#CCCACA;}
	.st5{fill:#426800;}
	.st6{fill:#538705;}
	.st7{fill:#D47E44;}
	.st8{fill:#73341D;}
	.st9{fill:#BC672E;}
	.st10{fill:#96311D;}
	.st11{fill:#B83E21;}
	.st12{fill:#DE8D82;}
	.st13{fill:#EFBAB4;}
	.st14{fill:#FDD5D0;}
	.st15{fill:#6883CE;}
	.st16{fill:#3D4885;}
	.st17{fill:#3859AE;}
	.st18{fill:#864424;}
	.st19{fill:#FEFEFE;}
	.st20{fill:#FFFFFF;}
	.st21{fill:#A55925;}
	.st22{fill:#F4F2F2;}
	.st23{fill:#3C3E68;}
	.st24{fill:#E8997C;}
	.st25{fill:#F5C46B;}
	.st26{fill:#F7EBDA;}
	.st27{fill:#0E0C0D;}
	.st28{fill:#657C3A;}
	.st29{fill:#576C37;}
	.st30{fill:#7C995D;}
	.st31{fill:#36518C;}
	.st32{fill:#96B7E3;}
	.st33{fill:#A3B3DF;}
	.st34{fill:url(#SVGID_1_);}
	.st35{fill:url(#SVGID_2_);}
	.st36{fill:url(#SVGID_3_);}
	.st37{fill:url(#SVGID_4_);}
	.st38{fill:url(#SVGID_5_);}
	.st39{fill:#266AB7;}
	.st40{fill:#060E0D;}
	.st41{fill:#E0D4C6;}
	.st42{fill:#787E42;}
	.st43{fill:#D3D1D1;}
	.st44{fill:url(#SVGID_6_);}
	.st45{fill:url(#SVGID_7_);}
	.st46{fill:url(#SVGID_8_);}
	.st47{fill:#020508;}
	.st48{fill:#BAB6B6;}
	.st49{fill:#0F0B07;}
	.st50{fill:#2F3A68;}
	.st51{fill:#203257;}
	.st52{opacity:0.5;fill:#FFFFFF;}
	.st53{opacity:0.2;fill:#0E0C0D;}
	.st54{fill:#DD9F9B;}
	.st55{fill:#3E4D9B;}
	.st56{fill:url(#SVGID_9_);}
	.st57{fill:#5F6194;}
	.st58{fill:url(#SVGID_10_);}
	.st59{fill:url(#SVGID_11_);}
	.st60{fill:url(#SVGID_12_);}
	.st61{fill:url(#SVGID_13_);}
	.st62{fill:#070102;}
	.st63{fill:#100805;}
	.st64{fill:#FDA465;}
	.st65{fill:#2A50A1;}
	.st66{fill:#B76C39;}
	.st67{fill:#130602;}
	.st68{fill:url(#SVGID_14_);}
	.st69{fill:url(#SVGID_15_);}
	.st70{fill:url(#SVGID_16_);}
	.st71{fill:url(#SVGID_17_);}
	.st72{fill:url(#SVGID_18_);}
	.st73{fill:url(#SVGID_19_);}
	.st74{fill:#B4BDED;}
	.st75{fill:#100D08;}
	.st76{fill:#F6C85F;}
	.st77{fill:#FECF00;}
	.st78{fill:#2D59E2;}
	.st79{fill:#121F3A;}
	.st80{fill:#BBD0F5;}
	.st81{fill:#020202;}
	.st82{fill:#E2CFB7;}
	.st83{fill:#080805;}
	.st84{fill:#A87D7C;}
	.st85{fill:#182052;}
	.st86{fill:#EAEAEA;}
	.st87{fill:#DDDDDD;}
	.st88{fill:#3D4574;}
	.st89{fill:#ABC5F0;}
	.st90{fill:url(#SVGID_20_);}
	.st91{fill:#4159A8;}
	.st92{fill:#E0D0BD;}
	.st93{fill:#3D53AA;}
	.st94{fill:#0A0000;}
	.st95{fill:#BF6D36;}
	.st96{fill:#385DAE;}
	.st97{fill:#E0DCDC;}
	.st98{fill:#857E78;}
	.st99{fill:#0E213C;}
	.st100{fill:url(#SVGID_21_);}
	.st101{fill:#55608E;}
	.st102{opacity:0.3;fill:#F4F2F2;}
	.st103{opacity:0.3;}
	.st104{fill:#213987;}
	.st105{enable-background:new    ;}
</style>
<g id="Order_Food_1_">
	<g id="Order_Food">
		<g>
			<g>
				<path class="st8" d="M90.8574142,190.7880859c9.2498093-17.7780914,17.5610962-36.0444489,24.8876953-54.6976166
					c1.4008255-3.5664368,2.7898331-7.3740845,2.0983963-11.1428604c-0.831131-4.5302582-4.6485977-8.1049728-8.979248-9.673233
					c-4.330658-1.5682526-9.1014099-1.4091339-13.6521912-0.6989594c-5.660881,0.8834076-11.4089966,2.7143631-15.5430679,6.6811447
					c-3.263031,3.1309967-5.2603683,7.3371735-6.915863,11.5454712c-3.6045532,9.1628571-5.9253693,18.8296509-6.8735657,28.630249
					c-0.4434967,4.5839233-0.5834045,9.2535858,0.3966141,13.7534332c0.9800262,4.4998474,3.1694031,8.8522491,6.7386017,11.7625427
					c3.5692062,2.9102783,8.6234741,4.1740417,12.9501343,2.5963745"/>
				<path class="st15" d="M188.7559204,30.6596127v152.1937866c0,4.78685-3.877655,8.6644592-8.6595917,8.6644592H85.9155502
					c-4.7819672,0-8.6596146-3.8776093-8.6596146-8.6644592V30.6596127C77.2559357,25.877615,81.1335831,22,85.9155502,22
					h94.1807785C184.8782654,22,188.7559204,25.877615,188.7559204,30.6596127z"/>
				<path class="st19" d="M184.9682312,30.6596127v152.1937866c0,2.6893311-2.1826477,4.8767853-4.8719025,4.8767853H85.9155502
					c-2.6892853,0-4.8719254-2.1874542-4.8719254-4.8767853V30.6596127c0-2.6844845,2.1826401-4.8719273,4.8719254-4.8719273
					h94.1807785C182.7855835,25.7876854,184.9682312,27.9751282,184.9682312,30.6596127z"/>
				<path class="st13" d="M173.9176788,37.8560753v39.5293388c0,3.2527313-2.6371918,5.8898239-5.8898621,5.8898239H96.9424362
					c-3.2526703,0-5.8898468-2.6370926-5.8898468-5.8898239V37.8560753c0-3.2524986,2.6371765-5.889822,5.8898468-5.889822
					h71.0853806C171.2804871,31.9662533,173.9176788,34.6035767,173.9176788,37.8560753z"/>
				<path class="st14" d="M173.9176788,119.2723465v23.2943497c0,3.2527313-2.6371918,5.8898315-5.8898621,5.8898315H96.9424362
					c-3.2526703,0-5.8898468-2.6371002-5.8898468-5.8898315v-23.2943497c0-3.2525024,2.6371765-5.8898239,5.8898468-5.8898239
					h71.0853806C171.2804871,113.3825226,173.9176788,116.0198441,173.9176788,119.2723465z"/>
				<path class="st11" d="M95.9796219,196.8188171c-1.1078796,5.3407593-2.4477539,11.2872314-2.4477539,11.2872314
					c-3.3108521,11.04216-9.4098129,38.8969879-10.8943329,41.9250793c-0.9706192,1.9742889-2.9023132,3.8632813-4.829277,4.9098358
					c-6.6379242,3.6075897-15.0323715,0.099411-21.6892548-1.822876c-2.5803375-0.5398102-5.1891098-1.7044983-7.693737-2.5709686
					c-5.9500313-2.0671082-13.8008881-3.7388611-18.2377129-9.2750244
					c-4.9972878-6.2536316-0.7307816-11.8958435,3.6551018-23.2564392
					c3.1911201-8.2760773,6.2402382-16.6469421,9.6586075-24.8282471c0.1089478-0.2603149,0.1562233-0.3597107,0.374054-0.5303345
					c-0.0899887-0.1183624-0.1136246-0.2746429-0.085247-0.4212036c0.250946-1.4111328,4.1569977-11.0079651,4.9950333-12.433197
					c0.5491714-0.9279633,1.3446121-2.1210938,2.2962723-2.6465759c2.802906-1.5530853,6.9219894,0.1560516,9.7012024,1.0273743
					c5.2036438,1.9232178,28.8954239,8.3635254,30.287323,8.9908905
					C94.7060394,188.8125305,96.8081818,192.7992554,95.9796219,196.8188171z"/>
				<path class="st7" d="M84.3372421,120.5396423c-0.9705582,3.9155273-3.2052765,7.8973999-2.5756531,11.9548798
					l0.0094757-0.0663452c-0.0909805,0.5458679,1.6061172,8.1570587,1.8465652,15.2122345
					c0.5809555,16.6308289-4.0180359,31.5858002-6.5479965,35.2302704v0.0663452
					c-0.0142136-0.0048523-0.0236969-0.0048523-0.0379105-0.0094757c-0.279274,0.4071198-0.5918274,0.7952728-0.9421844,1.1598511
					l0.1467972-1.3256073c-1.7695923-0.4024506-11.6811523-3.1840057-15.4537582-4.5783234
					c1.1410561-4.3321228,2.9260101-8.8489532,3.2195587-13.3327332c0.3368378-5.1300659-1.6434097-13.8995667-0.0331192-22.4988556
					c2.1021347-11.183197,8.1055832-21.3766937,9.7437363-32.6734009c0.5918274-3.2007141,1.3446732-5.4591293,3.1248932-8.2194443
					c0.4924164-0.4260712,0.9753571-0.7101898,1.5577011-0.9989395c0.8096008-0.4260635,2.3199081,0.1232224,3.1816406,0.3456192
					c1.4061661,0.3504715,2.5141068,1.3919449,3.2715683,2.5945587
					C87.765152,108.0544281,85.558754,115.5777817,84.3372421,120.5396423z"/>
				<path class="st7" d="M78.3956223,100.4604721c0.3330231,0.2761688,0.3149261,0.2283249,0.6210175,0.3468399
					c3.5217819,1.3611298,2.0580444,8.6016617-1.9205399,10.1259537c-0.6500931,0.2487411-1.4567566,0.2897034-2.0982666-0.0095825
					c-0.5582581-0.2602921-0.9318542-0.7591019-1.2846451-1.2436829c0.5899658-3.2035446,1.3437805-5.4626846,3.1255798-8.2196198
					C77.3306351,101.034256,77.8139114,100.7495117,78.3956223,100.4604721z"/>
				<path class="st14" d="M167.9824677,92.8973465h-30.8757935c-0.439743,0-0.7962341-0.3564835-0.7962341-0.7962265v-2.3064728
					c0-0.439743,0.3564911-0.7962265,0.7962341-0.7962265h30.8757935c0.439743,0,0.7962189,0.3564835,0.7962189,0.7962265V92.10112
					C168.7786865,92.540863,168.4222107,92.8973465,167.9824677,92.8973465z"/>
				<path class="st14" d="M167.9824677,100.4208298h-30.8757935c-0.439743,0-0.7962341-0.3564835-0.7962341-0.7962265v-2.3064728
					c0-0.439743,0.3564911-0.7962265,0.7962341-0.7962265h30.8757935c0.439743,0,0.7962189,0.3564835,0.7962189,0.7962265v2.3064728
					C168.7786865,100.0643463,168.4222107,100.4208298,167.9824677,100.4208298z"/>
				<path class="st14" d="M167.9824677,107.944313h-30.8757935c-0.439743,0-0.7962341-0.3564835-0.7962341-0.7962265v-2.3064728
					c0-0.439743,0.3564911-0.7962265,0.7962341-0.7962265h30.8757935c0.439743,0,0.7962189,0.3564835,0.7962189,0.7962265v2.3064728
					C168.7786865,107.5878296,168.4222107,107.944313,167.9824677,107.944313z"/>
				<path class="st14" d="M128.9048615,92.8973465H98.0290604c-0.439743,0-0.7962265-0.3564835-0.7962265-0.7962265v-2.3064728
					c0-0.439743,0.3564835-0.7962265,0.7962265-0.7962265h30.8758011c0.439743,0,0.7962189,0.3564835,0.7962189,0.7962265V92.10112
					C129.7010803,92.540863,129.3446045,92.8973465,128.9048615,92.8973465z"/>
				<path class="st14" d="M128.9048615,100.4208298H98.0290604c-0.439743,0-0.7962265-0.3564835-0.7962265-0.7962265v-2.3064728
					c0-0.439743,0.3564835-0.7962265,0.7962265-0.7962265h30.8758011c0.439743,0,0.7962189,0.3564835,0.7962189,0.7962265v2.3064728
					C129.7010803,100.0643463,129.3446045,100.4208298,128.9048615,100.4208298z"/>
				<path class="st14" d="M128.9048615,107.944313H98.0290604c-0.439743,0-0.7962265-0.3564835-0.7962265-0.7962265v-2.3064728
					c0-0.439743,0.3564835-0.7962265,0.7962265-0.7962265h30.8758011c0.439743,0,0.7962189,0.3564835,0.7962189,0.7962265v2.3064728
					C129.7010803,107.5878296,129.3446045,107.944313,128.9048615,107.944313z"/>
				<path class="st14" d="M167.9824677,158.9658051h-30.8757935c-0.439743,0-0.7962341-0.3564758-0.7962341-0.7962189v-2.3064728
					c0-0.439743,0.3564911-0.7962189,0.7962341-0.7962189h30.8757935c0.439743,0,0.7962189,0.3564758,0.7962189,0.7962189v2.3064728
					C168.7786865,158.6093292,168.4222107,158.9658051,167.9824677,158.9658051z"/>
				<path class="st14" d="M167.9824677,166.4893036h-30.8757935c-0.439743,0-0.7962341-0.3564911-0.7962341-0.7962341v-2.3064728
					c0-0.439743,0.3564911-0.7962189,0.7962341-0.7962189h30.8757935c0.439743,0,0.7962189,0.3564758,0.7962189,0.7962189v2.3064728
					C168.7786865,166.1328125,168.4222107,166.4893036,167.9824677,166.4893036z"/>
				<path class="st14" d="M167.9824677,174.0127869h-30.8757935c-0.439743,0-0.7962341-0.3564911-0.7962341-0.7962341V170.91008
					c0-0.439743,0.3564911-0.7962189,0.7962341-0.7962189h30.8757935c0.439743,0,0.7962189,0.3564758,0.7962189,0.7962189v2.3064728
					C168.7786865,173.6562958,168.4222107,174.0127869,167.9824677,174.0127869z"/>
				<path class="st14" d="M128.9048615,158.9658051H98.0290604c-0.439743,0-0.7962265-0.3564758-0.7962265-0.7962189v-2.3064728
					c0-0.439743,0.3564835-0.7962189,0.7962265-0.7962189h30.8758011c0.439743,0,0.7962189,0.3564758,0.7962189,0.7962189v2.3064728
					C129.7010803,158.6093292,129.3446045,158.9658051,128.9048615,158.9658051z"/>
				<path class="st14" d="M128.9048615,166.4893036H98.0290604c-0.439743,0-0.7962265-0.3564911-0.7962265-0.7962341v-2.3064728
					c0-0.439743,0.3564835-0.7962189,0.7962265-0.7962189h30.8758011c0.439743,0,0.7962189,0.3564758,0.7962189,0.7962189v2.3064728
					C129.7010803,166.1328125,129.3446045,166.4893036,128.9048615,166.4893036z"/>
				<path class="st14" d="M128.9048615,174.0127869H98.0290604c-0.439743,0-0.7962265-0.3564911-0.7962265-0.7962341V170.91008
					c0-0.439743,0.3564835-0.7962189,0.7962265-0.7962189h30.8758011c0.439743,0,0.7962189,0.3564758,0.7962189,0.7962189v2.3064728
					C129.7010803,173.6562958,129.3446045,174.0127869,128.9048615,174.0127869z"/>
				<circle class="st19" cx="152.4268799" cy="131.4645691" r="14.6552038"/>
				<circle class="st15" cx="152.4268799" cy="131.4645691" r="11.2157564"/>
				<circle class="st19" cx="112.7496719" cy="131.4645691" r="14.6552038"/>
				<circle class="st15" cx="112.7496719" cy="131.4645691" r="11.2157564"/>
				<circle class="st19" cx="152.4268799" cy="56.7089844" r="14.6552038"/>
				<circle class="st13" cx="152.4268799" cy="56.7089844" r="11.2157564"/>
				<circle class="st19" cx="112.7496719" cy="56.7089844" r="14.6552038"/>
				<circle class="st13" cx="112.7496719" cy="56.7089844" r="11.2157564"/>
				<path class="st7" d="M233.3139343,201.8262482c-2.3580475,1.526886-12.7630768,6.9820099-17.9486694,9.5364532
					c-3.8271179,1.8827057-8.1249084,4.2980347-12.1772461,5.5871582c-1.3097229-2.4962921-3.4791107-4.583847-5.382431-6.6304474
					c-2.4969025-2.6611786-5.1369629-5.5461884-8.1455231-7.5927887c-7.3134918-4.9650726-9.5269623-3.2661285-19.340332-10.8475342
					c-1.6985779-1.5349426-3.1926727-3.1518402-4.6661682-4.8906403
					c-6.5179596-8.5458221-11.7447968-19.8379364-17.0481567-29.389801c-0.834259-1.7814941-2.8895111-5.3970184-4.031723-8.2473297
					c3.0824127-4.4667816,9.3555298-2.9816895,13.1186066,0.756485c2.4764252,2.4563141,4.1136627,5.6491089,5.9351654,8.6370544
					c4.4001007,7.2040558,10.1510315,13.5896606,16.8843994,18.7061462
					c-0.5663605-0.4435883-0.4398804-1.0617828-2.5787354-4.625824
					c-4.4354095-7.6857147-9.8245239-15.3739929-11.3177185-17.2321472
					c-0.6139526-0.7574768-1.3916626-1.2891235-2.0056152-2.0466003c-1.8215027-2.3333893-3.3564453-4.9935608-5.0141754-7.4498749
					c-11.9914398-17.8793182-12.142334-17.5341187-11.9111938-19.3606949
					c0.2660675-2.0256042,3.0903778-4.0112457,5.3212128-4.2360916c2.9266205-0.2867966,7.5519409,7.5727997,10.2329712,10.6836548
					c1.0820007,1.6228943,7.3634644,7.6804199,10.0691986,11.0923767l0.2660675,0.2038574l0.3683777-0.4906616l0.1023102-0.1019287
					c2.3126526-2.3333893,6.5286255-3.8483429,9.7622833-3.889328c1.9442902,0.2458344,3.3359528,0.8804016,4.7686005,2.2314758
					l1.0028076,1.5759125c2.9675903-1.3300781,6.8970032-2.0875702,10.0487213-0.8394165
					c1.5349426,0.634552,1.8829498,1.6778412,3.0493927,2.6191864l0.2047424-0.0609436
					c1.4939728-1.084259,4.7276306-1.084259,6.5081482-0.7774658c1.9851379,0.326767,4.0727081,1.391037,5.2597656,3.0898743
					c1.9237976,2.7830811,3.2949829,8.5141449,4.4410706,11.8708344c2.9880676,8.5541229,5.8737183,17.1292267,8.6980133,25.7253113
					C229.5891266,190.87677,231.7175293,196.3200378,233.3139343,201.8262482z"/>
				<path class="st26" d="M236.8862915,239.4207916c-1.4156494,0.2697906-35.3059845-1.5766602-35.3059845-1.5766602
					s-7.2581329-14.3032227-1.8891144-19.4165039c5.3879395-5.1331482,37.0875549-20.1534576,40.471405-19.568161
					c3.3852539,0.5869598,10.7238922,3.3426514,13.7161407,14.483078
					C256.8710327,224.4832001,238.3066711,239.151001,236.8862915,239.4207916z"/>
				<path class="st11" d="M257.3065796,268.1645813c-8.7582397,5.1978149-23.9983826,11.7642822-33.8807983,9.2988281
					c-2.1210938-0.5303345-4.4931335-1.624054-5.6199799-3.5983582
					c-0.0576782-0.1006165-16.1831207-35.9182281-16.2254944-36.0209198
					c10.4939575-3.0434723,21.0604706-7.0765076,31.475647-12.1821289
					c5.2832794-2.5858307,15.9714661-8.1856842,20.8227844-12.319458c3.2385101,5.4306946,5.799881,11.4388885,8.654892,17.0873566
					C273.3712463,251.8224487,278.8512573,255.3668671,257.3065796,268.1645813z"/>
				<path class="st26" d="M95.9796219,196.8188171c-1.1078796,5.3407593-2.4477539,11.2872314-2.4477539,11.2872314
					c-0.2476196,0.8258514-0.195755,0.65448-0.4308624,1.4772491c-5.7373199-0.5911865-6.547287-2.1387482-8.6406555-4.4410095
					c0,0,0,0-0.0047379,0c-0.0094223-0.014328-0.0189056-0.0189514-0.0189056-0.0189514
					c-0.0047379,0-0.0094757-0.0046234-0.0142136-0.0046234c-3.6598434-0.9896851-7.4807053-2.3437195-11.1215897-3.4325867
					c-9.8385239-2.9024963-19.648613-5.9136353-29.4255867-9.0290527c-0.0899887-0.1183624-0.1136246-0.2746429-0.085247-0.4212036
					c0.250946-1.4111328,4.1569977-11.0079651,4.9950333-12.433197c0.5491714-0.9279633,1.3446121-2.1210938,2.2962723-2.6465759
					c2.802906-1.5530853,6.9219894,0.1560516,9.7012024,1.0273743c3.610817,1.3345184,6.1921692,1.9742889,15.349617,4.6257172
					l-0.0284348-0.0804443c0.3219757,0.075592,0.6439514,0.1419373,0.9658737,0.2082825v0.1419525
					c13.8658752,3.9836731,13.0810318,3.6810608,14.000267,4.0953827
					C94.7060394,188.8125305,96.8081818,192.7992554,95.9796219,196.8188171z"/>
				<path class="st10" d="M84.4195251,205.1210632c2.9683456,0.8615112,6.3198853,1.6460419,9.1115112,2.9842072
					c-3.1705093,10.4533081-9.3985672,38.8779297-10.8936386,41.9242249
					c-0.9691925,1.9743805-2.9039459,3.864212-4.8314209,4.9116974c-6.6343536,3.6055603-15.0283852,0.0971222-21.6861954-1.8240967
					c0.279789-0.1489716,0.2005081-0.1407166,0.4508972-0.1806946c5.4409485-0.8665924,9.1764832-2.2209778,12.5132523-7.6471405
					c1.3140564-2.1372375,2.2155304-4.6943207,3.1916504-7.0089569c3.4532776-8.1865845,6.3264923-16.6691284,9.1732864-25.0843048
					C82.3652039,210.4876251,83.6250763,207.8595123,84.4195251,205.1210632z"/>
				<path class="st13" d="M95.9796219,196.8188171c-0.40168,1.9363861-2.1434631,10.2056732-2.7129211,12.1821289
					c-2.9828186-1.3776093-8.2666016-3.6314087-8.8063507-3.8586578c0,0,0,0-0.0047379,0
					c-0.0236435-0.014328-0.0378571-0.0189514-0.0378571-0.0189514c0.0460205-0.1213837,3.2206879-8.2187195,6.6521454-17.9489746
					C94.7060394,188.8125305,96.8081818,192.7992554,95.9796219,196.8188171z"/>
				<g>
					<path class="st7" d="M143.1174774,57.2168236c-0.6420898-0.6771851-1.0965576-1.6112595-0.8723145-2.5587387
						c0.8224182-3.4749832,3.3990936-1.8870316,5.1607361-2.9443932c0.6754761-0.4054375,1.1331177-1.1679192,1.8886414-1.3911934
						c1.4271698-0.4217644,2.7323151,1.3251419,4.2094879,1.1444206c1.0263367-0.1255646,1.8902435-1.2040138,2.9304962-0.8464813
						c0.5365143,0.1843948,0.8567505,0.732563,1.3368835,1.0347519c1.2519379,0.7879601,3.5079956-0.3712578,4.5803223,1.8008881
						c0.8515472,1.7249489-0.4121399,4.3379822-2.8199768,4.5384789"/>
					<path class="st8" d="M160.8661346,62.4519501h-16.8173828c-0.9943695,0-1.8004761-0.8060951-1.8004761-1.8004684V57.100708
						c0-0.359581,0.2915039-0.6510773,0.6510925-0.6510773h19.1161652c0.3595734,0,0.6510773,0.2914963,0.6510773,0.6510773
						v3.5507736C162.6666107,61.6458549,161.8605042,62.4519501,160.8661346,62.4519501z"/>
					<path class="st11" d="M146.2751465,55.2138939c0.4808655-0.4731712,0.1716156-1.4278946,0.6991577-1.8483887
						c0.3341675-0.2663574,0.8466644-0.1533356,1.1813965,0.1123047s0.5503235,0.6489906,0.8160858,0.9836273
						c0.7713318,0.9712181,1.6499786,0.7880936,2.1780243-0.1450005c0.236908-0.4186287,0.3642426-0.8939934,0.6186523-1.3022232
						s0.6989746-0.7579803,1.1752625-0.6906548c0.8378296,0.1184273,1.0518494,1.2213478,1.5863495,1.7345467
						c0.2912598,0.2796516,0.7687225,0.4256859,1.1004028,0.1954079c0.3887482-0.2698975,0.3677063-0.8750572,0.6969757-1.2149887
						c0.3849487-0.3974304,1.0857544-0.2487679,1.4922791,0.1265564c0.4065247,0.3753204,0.6216736,0.9079895,0.9220123,1.3726654
						c0.8376465,1.2959328,2.0161438,1.0237808,2.3680115,0.0109749c0.2554016-0.7351227-0.057663-1.802269-0.4554901-2.1518669
						c-0.2142944-0.1883087-0.544342-0.2686005-0.7914276-0.126049c-0.2746887,0.1584663-0.3719482,0.5312881-0.6508942,0.6821136
						c-0.3843842,0.2078285-0.8397827-0.1205711-1.1077271-0.465744s-0.5418701-0.7678032-0.9762726-0.8150101
						c-0.6916656-0.0751686-1.0753479,0.828083-1.7291718,1.0659103c-1.282196,0.466404-2.4155121-1.8024559-3.6876984-1.183773
						c-0.500946,0.2436142-0.6770325,0.8520622-0.8547516,1.379982c-0.1777344,0.5279198-0.5137329,1.1172142-1.069809,1.1497536
						c-1.0075226,0.0589561-1.2288055-1.5093613-2.3748474-2.2903023c-1.1740875-0.8000565-2.4369202-0.1879616-2.5025177,0.7728806
						c-0.0244446,0.3580704,0.148941,0.9499817-0.2899017,1.1258965c-0.4040222,0.1619568-0.6470184-0.2766075-0.9089966-0.458168
						C143.9585724,54.5024147,145.4143066,56.0609627,146.2751465,55.2138939z"/>
				</g>
				<g>
					<path class="st7" d="M103.4402695,57.2168236c-0.6420822-0.6771851-1.0965576-1.6112595-0.8723145-2.5587387
						c0.8224258-3.4749832,3.3990936-1.8870316,5.1607285-2.9443932c0.6754913-0.4054375,1.1331329-1.1679192,1.888649-1.3911934
						c1.4271698-0.4217644,2.7323227,1.3251419,4.2094955,1.1444206c1.0263214-0.1255646,1.8902435-1.2040138,2.9304962-0.8464813
						c0.5365067,0.1843948,0.8567505,0.732563,1.3368835,1.0347519c1.2519302,0.7879601,3.5079956-0.3712578,4.5803146,1.8008881
						c0.5273514,1.0682297,0.1824265,2.5084381-0.5601883,3.3794022c-0.5635071,0.6608925-1.3942719,1.0870056-2.2597885,1.1590767"
						/>
					<path class="st8" d="M121.1889343,62.4519501h-16.8173904c-0.9943695,0-1.8004684-0.8060951-1.8004684-1.8004684V57.100708
						c0-0.359581,0.2914963-0.6510773,0.6510849-0.6510773h19.1161652c0.359581,0,0.6510773,0.2914963,0.6510773,0.6510773
						v3.5507736C122.9894028,61.6458549,122.1833038,62.4519501,121.1889343,62.4519501z"/>
					<path class="st11" d="M106.5979385,55.2138939c0.4808655-0.4731712,0.1716156-1.4278946,0.6991653-1.8483887
						c0.3341599-0.2663574,0.8466568-0.1533356,1.1813889,0.1123047s0.5503311,0.6489906,0.8160934,0.9836273
						c0.7713242,0.9712181,1.649971,0.7880936,2.1780243-0.1450005c0.236908-0.4186287,0.3642273-0.8939934,0.6186371-1.3022232
						c0.2544174-0.4082298,0.6989899-0.7579803,1.1752701-0.6906548c0.8378296,0.1184273,1.0518494,1.2213478,1.5863571,1.7345467
						c0.2912598,0.2796516,0.7687225,0.4256859,1.1003952,0.1954079c0.3887482-0.2698975,0.3677139-0.8750572,0.6969757-1.2149887
						c0.3849411-0.3974304,1.0857544-0.2487679,1.4922791,0.1265564c0.4065323,0.3753204,0.6216736,0.9079895,0.92202,1.3726654
						c0.8376389,1.2959328,2.0161438,1.0237808,2.3680115,0.0109749c0.255394-0.7351227-0.0576706-1.802269-0.4554977-2.1518669
						c-0.2142868-0.1883087-0.5443344-0.2686005-0.7914276-0.126049c-0.2746887,0.1584663-0.3719482,0.5312881-0.6509018,0.6821136
						c-0.3843765,0.2078285-0.8397675-0.1205711-1.1077118-0.465744s-0.5418777-0.7678032-0.9762802-0.8150101
						c-0.6916656-0.0751686-1.0753403,0.828083-1.7291641,1.0659103c-1.282196,0.466404-2.4155197-1.8024559-3.687706-1.183773
						c-0.5009384,0.2436142-0.6770248,0.8520622-0.8547516,1.379982s-0.5137253,1.1172142-1.069809,1.1497536
						c-1.0075226,0.0589561-1.2288055-1.5093613-2.3748474-2.2903023c-1.1740875-0.8000565-2.4369125-0.1879616-2.5025101,0.7728806
						c-0.0244522,0.3580704,0.1489334,0.9499817-0.2899094,1.1258965c-0.4040146,0.1619568-0.6470184-0.2766075-0.9089966-0.458168
						C104.2813721,54.5024147,105.7370987,56.0609627,106.5979385,55.2138939z"/>
				</g>
				<g>
					<path class="st20" d="M111.1751862,129.6357727c-0.6741486-0.9522858,0.2208862-2.2430725,1.3499603-1.9433136
						c-0.342659-0.8609848,0.2670975-1.8126602,1.1943283-1.8589783c0.535759-0.0267639,1.0435181,0.2619781,1.5798111,0.274147
						c1.0925903,0.0247955,1.8709793-1.0736237,1.4824295-2.0971298c1.6455383,0.6196899,1.6265945,2.741394,0.2338867,3.5240326
						c0.5012589,0.2182693,0.8108521,0.8068695,0.7066879,1.3435822c-0.1041565,0.5366974-0.6114502,0.9667664-1.1579666,0.9816895
						c0.3469696-0.030838,0.6452789,0.3113556,0.6650543,0.6591187c0.0603943,1.0619507-1.847229,2.246582-3.3944778,1.3600006"/>
					<path class="st7" d="M110.9519424,129.0550842l5.6620102,2.5922546l-6.4884109,7.3882599
						c-0.2494812,0.2840729-0.7153854,0.0667419-0.6580429-0.3069458L110.9519424,129.0550842z"/>
				</g>
				<path class="st13" d="M216.2055054,232.9627228c-4.7621002,1.7971802-9.4768677,3.3882751-14.6251984,4.8814087
					c0,0-7.2581329-14.3032227-1.8891144-19.4165039c1.2026062-1.1457367,3.7261353-2.7887573,6.9598541-4.6446838
					C209.8326874,220.1792908,213.0191193,226.5710144,216.2055054,232.9627228z"/>
				<path class="st10" d="M246.814743,273.4343567c-7.7931366,3.2857971-16.7652588,5.6815186-23.3889618,4.0290527
					c-2.1210938-0.5303345-4.4931335-1.624054-5.6199799-3.5983582
					c-0.0576782-0.1006165-16.1831207-35.9182281-16.2254944-36.0209198
					c5.1614075-1.4969177,9.877533-3.0896759,14.6251984-4.8814087c2.0311127,4.0766602,4.0575256,8.1482391,6.0886993,12.2248993
					c4.772522,9.5827332,9.9994812,19.6722107,19.156189,25.2164001
					C243.1596375,271.4362488,245.0534821,272.3783264,246.814743,273.4343567z"/>
			</g>
			<path class="st20" d="M156.5051117,127.3496246c0.8564606,1.126297-3.9077454,4.7490387-4.7641907,3.6227417
				l-2.0030518-2.6341248c-0.7335663-0.9646759-0.2617188-2.5576782,1.053894-3.5580826l0,0
				c1.3156128-1.0003967,2.9767609-1.0293579,3.7103119-0.0646896L156.5051117,127.3496246z"/>
			<path class="st7" d="M152.4120483,156.2685699c-0.143158,0.8394165-0.9413605,1.3920441-1.6985931,1.780777
				c-0.4911652,0.2448273-1.0028076,0.4706726-1.5349426,0.634552c-1.7400665-3.4824829-3.2359924-6.069458-4.4820404-9.0457764
				c1.5865631-0.5605621,2.916153,0.2120972,4.1340332,1.3710632c0.4503174,0.4297028,2.1080475,3.0289154,2.5992126,3.0289154
				C151.961853,154.6926422,152.5348358,155.450119,152.4120483,156.2685699z"/>
		</g>
	</g>
</g>
</svg>
