<?xml version="1.0" encoding="utf-8"?>
<!-- Generator: Adobe Illustrator 22.0.1, SVG Export Plug-In . SVG Version: 6.00 Build 0)  -->
<svg version="1.1" id="Layer_1" xmlns="http://www.w3.org/2000/svg" xmlns:xlink="http://www.w3.org/1999/xlink" x="0px" y="0px"
	 viewBox="0 0 300 300" style="enable-background:new 0 0 300 300;" xml:space="preserve">
<style type="text/css">
	.st0{fill:#EDC1A4;}
	.st1{fill:#E2E0E0;}
	.st2{fill:#D39E81;}
	.st3{fill:#502E26;}
	.st4{fill:#CCCACA;}
	.st5{fill:#426800;}
	.st6{fill:#538705;}
	.st7{fill:#D47E44;}
	.st8{fill:#73341D;}
	.st9{fill:#BC672E;}
	.st10{fill:#96311D;}
	.st11{fill:#B83E21;}
	.st12{fill:#DE8D82;}
	.st13{fill:#EFBAB4;}
	.st14{fill:#FDD5D0;}
	.st15{fill:#6883CE;}
	.st16{fill:#3D4885;}
	.st17{fill:#3859AE;}
	.st18{fill:#864424;}
	.st19{fill:#FEFEFE;}
	.st20{fill:#FFFFFF;}
	.st21{fill:#A55925;}
	.st22{fill:#F4F2F2;}
	.st23{fill:#3C3E68;}
	.st24{fill:#E8997C;}
	.st25{fill:#F5C46B;}
	.st26{fill:#F7EBDA;}
	.st27{fill:#0E0C0D;}
	.st28{fill:#657C3A;}
	.st29{fill:#576C37;}
	.st30{fill:#7C995D;}
	.st31{fill:#36518C;}
	.st32{fill:#96B7E3;}
	.st33{fill:#A3B3DF;}
	.st34{fill:url(#SVGID_1_);}
	.st35{fill:url(#SVGID_2_);}
	.st36{fill:url(#SVGID_3_);}
	.st37{fill:url(#SVGID_4_);}
	.st38{fill:url(#SVGID_5_);}
	.st39{fill:#266AB7;}
	.st40{fill:#060E0D;}
	.st41{fill:#E0D4C6;}
	.st42{fill:#787E42;}
	.st43{fill:#D3D1D1;}
	.st44{fill:url(#SVGID_6_);}
	.st45{fill:url(#SVGID_7_);}
	.st46{fill:url(#SVGID_8_);}
	.st47{fill:#020508;}
	.st48{fill:#BAB6B6;}
	.st49{fill:#0F0B07;}
	.st50{fill:#2F3A68;}
	.st51{fill:#203257;}
	.st52{opacity:0.5;fill:#FFFFFF;}
	.st53{opacity:0.2;fill:#0E0C0D;}
	.st54{fill:#DD9F9B;}
	.st55{fill:#3E4D9B;}
	.st56{fill:url(#SVGID_9_);}
	.st57{fill:#5F6194;}
	.st58{fill:url(#SVGID_10_);}
	.st59{fill:url(#SVGID_11_);}
	.st60{fill:url(#SVGID_12_);}
	.st61{fill:url(#SVGID_13_);}
	.st62{fill:#070102;}
	.st63{fill:#100805;}
	.st64{fill:#FDA465;}
	.st65{fill:#2A50A1;}
	.st66{fill:#B76C39;}
	.st67{fill:#130602;}
	.st68{fill:url(#SVGID_14_);}
	.st69{fill:url(#SVGID_15_);}
	.st70{fill:url(#SVGID_16_);}
	.st71{fill:url(#SVGID_17_);}
	.st72{fill:url(#SVGID_18_);}
	.st73{fill:url(#SVGID_19_);}
	.st74{fill:#B4BDED;}
	.st75{fill:#100D08;}
	.st76{fill:#F6C85F;}
	.st77{fill:#FECF00;}
	.st78{fill:#2D59E2;}
	.st79{fill:#121F3A;}
	.st80{fill:#BBD0F5;}
	.st81{fill:#020202;}
	.st82{fill:#E2CFB7;}
	.st83{fill:#080805;}
	.st84{fill:#A87D7C;}
	.st85{fill:#182052;}
	.st86{fill:#EAEAEA;}
	.st87{fill:#DDDDDD;}
	.st88{fill:#3D4574;}
	.st89{fill:#ABC5F0;}
	.st90{fill:url(#SVGID_20_);}
	.st91{fill:#4159A8;}
	.st92{fill:#E0D0BD;}
	.st93{fill:#3D53AA;}
	.st94{fill:#0A0000;}
	.st95{fill:#BF6D36;}
	.st96{fill:#385DAE;}
	.st97{fill:#E0DCDC;}
	.st98{fill:#857E78;}
	.st99{fill:#0E213C;}
	.st100{fill:url(#SVGID_21_);}
	.st101{fill:#55608E;}
	.st102{opacity:0.3;fill:#F4F2F2;}
	.st103{opacity:0.3;}
	.st104{fill:#213987;}
	.st105{enable-background:new    ;}
</style>
<g id="Pizza_Delivery_1_">
	<g id="Pizza_Delivery">
		<g>
			<path class="st3" d="M91.019455,248.2607269c0,2.9990082-1.5332108,6.5322876-8.1160812,5.430191
				c-3.2082138-0.5371246-3.6635742-2.4311829-3.6635742-5.430191c0-2.9990234,2.6369629-5.430191,5.8898239-5.430191
				C88.3824921,242.8305359,91.019455,245.2617035,91.019455,248.2607269z"/>
			<ellipse class="st18" cx="83.1842422" cy="248.2607269" rx="5.8898311" ry="5.430191"/>
			<path class="st3" d="M159.1415558,262.2012634c0,2.9990234-1.9346619,6.2609863-8.557663,4.914032
				c0,0-3.2220001-1.9150085-3.2220001-4.914032s2.6369781-5.4301758,5.8898315-5.4301758
				C156.5045929,256.7710876,159.1415558,259.20224,159.1415558,262.2012634z"/>
			<ellipse class="st11" cx="83.1842422" cy="248.2607269" rx="4.4016871" ry="4.0581813"/>
			<ellipse class="st3" cx="83.1842422" cy="248.2607269" rx="3.158921" ry="2.9124002"/>
			<ellipse class="st11" cx="83.1842422" cy="248.2607269" rx="1.9453832" ry="1.7935663"/>
			<ellipse class="st18" cx="150.5838928" cy="261.6851196" rx="5.8898311" ry="5.430191"/>
			<ellipse class="st11" cx="150.5838928" cy="261.6851196" rx="4.4016871" ry="4.0581813"/>
			<ellipse class="st3" cx="150.5838928" cy="261.6851196" rx="3.158921" ry="2.9124002"/>
			<ellipse class="st11" cx="150.5838928" cy="261.6851196" rx="1.9453832" ry="1.7935663"/>
			<g>
				<path class="st3" d="M60.9261818,214.9441833c6.1157646,1.1109314,10.0752296,5.7445679,15.3332481,7.5637665
					c3.4531479,1.1945038,7.4740372,1.6093903,11.07901,2.252182c6.1766129,1.0667877,71.7532043,13.1834412,75.7498779,13.9514465
					c4.0437317,0.7769012,9.015152,2.1341248,13.0397949,2.3743286c3.979248,0.2374725,7.6384888-1.4527893,11.986557-0.7294464
					c1.9338531,0.3217316,3.7165375,1.0699463,4.9765472,2.627121c0.9781799,1.1948395,1.526123,2.2791138,1.3398285,3.8632507
					c-0.5671539,4.8234863-7.4364319,9.5971069-11.8756561,11.64505
					c-10.2489014,4.0904541-15.709259,3.3405457-26.1140594,0.6417542
					c0.1365051,1.4953308-82.4190216-15.4442902-87.1107025-16.7276917
					c-6.1413574-1.6796417-13.9350853-8.031189-17.7188416-13.2165375c-1.5892448-2.1781158-2.832531-4.979599-2.3449745-7.7278595
					C49.948597,217.6206512,54.4896355,213.7748871,60.9261818,214.9441833z"/>
				<path class="st7" d="M69.3306274,242.4059448c-6.1413574-1.6796417-13.9350853-8.031189-17.7188416-13.2165375
					c-3.3302689-4.56427-3.5450974-9.5757141,1.1262589-12.7149811c-1.0836105,1.7257233-1.7755394,2.7004852-1.3285828,4.8011627
					c1.2337341,5.8008575,8.3665771,12.9552002,13.2301788,15.9723053
					c4.9626541,3.0788879,12.3574142,3.7848816,22.6943665,5.7923279
					c0.1000595,0.019165,75.0215836,14.3748779,78.877861,14.8163757c3.0727234,0.3517456,5.8295135,0.2033386,8.8469543-0.5206604
					c6.1434174-1.4739227,13.3404083-4.799469,16.7338409-10.4246216c0.7373047-1.2224731,1.2456665-2.4875946,1.2985535-3.9277344
					c0.9781799,1.1948395,1.526123,2.2791138,1.3398285,3.8632507c-0.5671539,4.8234863-7.4364319,9.5971069-11.8756561,11.64505
					c-10.2489014,4.0904541-15.5705109,3.2012939-26.3825073,1.2735291
					C135.6876678,255.7255402,77.875351,244.7433472,69.3306274,242.4059448z"/>
			</g>
			<path class="st7" d="M155.6121826,242.3753967c0,0,1.1808472,2.1271667-2.3501129,3.3956909
				c-3.4338074,1.2336121-25.7861862,0.4229126-44.6647263-4.6166382c-1.3362656-0.35672-2.4022903-1.4783173-2.5198212-2.856369
				c-0.0581436-0.6816711,0.1511612-1.6638031,0.4171753-2.6454773
				C107.0877304,233.4641418,155.6121826,242.3753967,155.6121826,242.3753967z"/>
			<path class="st26" d="M155.6135254,242.3758392c-5.1549072,2.9815369-46.3066864-2.9846191-48.5818329-5.6598511
				c-2.1498566-2.5301208-1.4783554-20.5843811-1.2232971-21.0231628c0,0,22.9217529-10.9631195,29.6404266-0.9672394
				C141.7656708,224.1094971,153.8426514,240.7324371,155.6135254,242.3758392z"/>
			<g>
				<path class="st7" d="M118.3052521,239.8195953c-0.3284988-0.0548248-0.6480865-0.1185608-0.967453-0.1733856
					c-1.0460815-7.6916656-4.2045364-15.5545502-11.8307114-16.9608154c0-0.3102264,0.0093613-0.6204529,0.0093613-0.9217682
					C113.7759399,223.1598206,117.171051,231.5205536,118.3052521,239.8195953z"/>
			</g>
			<path class="st7" d="M31.9666004,212.8115234c0,0-1.7873726,1.6506195-3.8553238-1.4799194
				c-2.0110664-3.0444336-6.5121708-24.9539337-6.0825558-44.4888153c0.0304089-1.3827209,0.8679295-2.6838531,2.1790447-3.124115
				c0.6485634-0.2177887,1.6523228-0.2467957,2.6690674-0.2206116
				C29.1434727,163.5564423,31.9666004,212.8115234,31.9666004,212.8115234z"/>
			<path class="st26" d="M31.9664841,212.8129272c-4.1195221-4.3061676-8.0578537-45.6964417-5.9957924-48.5415039
				c1.9496098-2.6874695,19.6501045-6.3068542,20.1367722-6.1628571c0,0,16.0753174,19.6769104,7.9529724,28.569931
				C46.4376221,195.0362854,33.1442108,210.7034912,31.9664841,212.8129272z"/>
			<g>
				<path class="st7" d="M25.6226521,175.959198c-0.0244598-0.3321381-0.038147-0.6577301-0.0604439-0.9810028
					c7.2257481-2.8363037,14.1180325-7.7655029,13.6799488-15.5078735c0.3014183-0.0733948,0.6050491-0.1377106,0.8978043-0.2089996
					C40.7376976,167.6166382,33.417675,172.8935699,25.6226521,175.959198z"/>
			</g>
			<path class="st7" d="M174.6418915,104.4569778l3.9772186,4.5740891c0,0,25.3118591-12.7615051,30.4181366-15.1103363
				c5.1062927-2.3488312,32.1677399,2.9499588,32.1677399,2.9499588s-8.0607758,8.26371-17.8382874,10.3228989
				c-9.7775116,2.0591812-8.1026459,2.4464798-12.359436,6.53302c-4.2567902,4.0865326-20.3812256,20.3544312-32.5381775,20.2848511
				c-12.1569519-0.0695648-28.966568-19.8808975-28.966568-19.8808975L174.6418915,104.4569778z"/>
			<g>
				<path class="st13" d="M272.8543091,97.582077c0.4290161,0.9311295-20.5391083,10.9542007-20.9681244,10.0230713
					l-66.13591-16.5770416c-0.9676666-1.9808121,1.1410675-6.0066223,1.1410675-6.0066223
					c90.0671844,6.5605392,31.012207,2.2580185,87.7612762,6.389946
					C275.2004089,93.6935577,272.8543091,97.582077,272.8543091,97.582077z"/>
				<path class="st14" d="M186.8935699,85.0205917c-0.3385315-0.827713,20.0992737-9.4437637,21.5634003-8.8147049
					l66.1967468,15.2095566c0.4267883,0.9306793-20.6064148,10.5780029-21.0332031,9.6473236L186.8935699,85.0205917z"/>
				<path class="st19" d="M199.1622009,89.3101425c0,0,3.7369843-0.1406479,5.7415771,1.3112259
					c0,0,0.1757507,1.9512253-1.0293884,3.2993622c0,0-4.1175537-0.2975616-5.3094788-1.5059509
					C198.5649109,92.4147797,198.7312622,90.0990677,199.1622009,89.3101425z"/>
				<path class="st19" d="M244.9764252,100.7245865c0,0,3.736969-0.1406479,5.7415771,1.3112259
					c0,0,0.1757507,1.9512177-1.0293884,3.2993622c0,0-4.1175537-0.2975616-5.3094788-1.5059509
					C244.3791351,103.8292236,244.5454712,101.513504,244.9764252,100.7245865z"/>
			</g>
			<g>
				<path class="st7" d="M274.4871826,88.7808151c0.4289856,0.9311218-20.5391235,10.9541931-20.9681396,10.0230713
					l-66.13591-16.5770493c-0.9676666-1.9808121,1.1410675-6.0066223,1.1410675-6.0066223
					c0.1377411,0.0100327,26.9479675,1.9629135,87.761261,6.389946
					C276.833252,84.8922882,274.4871826,88.7808151,274.4871826,88.7808151z"/>
				<path class="st26" d="M188.5264282,76.2193222c-0.3385315-0.827713,20.0992737-9.4437637,21.5634003-8.8146973
					l66.1967316,15.209549c0.4267883,0.9306793-20.6064148,10.5780029-21.0331879,9.6473236L188.5264282,76.2193222z"/>
				<path class="st19" d="M200.7950592,80.5088806c0,0,3.7369843-0.1406555,5.7415771,1.3112183
					c0,0,0.1757507,1.9512253-1.0293884,3.2993622c0,0-4.1175537-0.2975616-5.3094788-1.5059509
					C200.1977692,83.6135101,200.3641052,81.2977982,200.7950592,80.5088806z"/>
				<path class="st19" d="M246.6092682,91.923317c0,0,3.7369843-0.1406479,5.7415771,1.3112259
					c0,0,0.1757507,1.9512253-1.0293884,3.2993622c0,0-4.1175537-0.2975616-5.3094635-1.5059509
					C246.0119934,95.0279541,246.1783295,92.7122421,246.6092682,91.923317z"/>
			</g>
			<path class="st1" d="M158.7314301,76.9587479c0,0,13.4889526,12.2073669,17.6713409,28.6143875
				c0,0-13.1584625,14.7555161-23.5262756,13.2875061c0,0-8.3492889-6.8171539-8.9915466-12.0790024
				S158.7314301,76.9587479,158.7314301,76.9587479z"/>
			<path class="st15" d="M91.4075623,93.3224945c0,0-6.3437576-1.1736679-6.4038467-4.9105682
				c-0.0600891-3.7368927,12.3316498-36.2620468,19.7303543-41.8409958
				c7.3987122-5.578949,33.3408051,8.9325867,37.2986755,12.0323868
				c3.9578552,3.0997963-17.3747482,18.3554306-17.3747482,18.3554306L91.4075623,93.3224945z"/>
			<path class="st16" d="M90.4025497,94.9722214c4.9185028-10.3084183,10.5635376-20.2701035,16.8793564-29.7866974
				c4.7223816-7.1156197,9.2531128-11.3212509,17.6461029-8.7383614"/>
			<path class="st3" d="M137.2171783,47.0421677c5.4850006-8.6340675,8.1734161-0.4752426,7.7324371,2.6089172
				c-0.2309418,1.6151199-1.0289001,3.1193237-1.1637115,4.7452888c-0.1575317,1.9002266,0.5916901,3.9076347-0.1354523,5.6702843
				c-1.1310425,2.7417221-4.8331604,3.1774178-7.0311737,4.0986938c-2.2705536,0.9516754-4.1546021,2.6312637-6.3180389,3.8062744
				c-5.2718582,2.8632736-12.1952972,2.3494492-16.9867249-1.2606888c-1.0141525-0.7641144-1.9604645-1.6874542-2.4445267-2.8613586
				c-0.4840546-1.1739044-0.4178391-2.6391754,0.4259872-3.5880318c1.0133591-1.1395073,2.7369537-1.2205658,4.1229858-1.8564186
				c1.9421005-0.8909569,3.1852493-2.8679619,5.0559158-3.900528c4.6387482-2.5604897,10.8122787,1.5256271,15.4363632-1.0829048
				c0.9102783-0.5135117,1.888916-1.4709778,1.3428802-2.3621368
				C137.2541199,51.0595589,136.5561676,48.0826721,137.2171783,47.0421677z"/>
			<path class="st3" d="M164.1575928,48.5540619c0,0-0.4955139,1.9959259-2.5686188,1.8322601
				c-2.0730896-0.1636658-17.6073914,5.520668-17.723465,5.679039c-0.1160736,0.1583672-2.4298859-2.2924118-2.4298859-2.2924118
				l0.3126984-6.1496391l1.3464508-2.316452l5.4602661-1.9623222h7.8679962l3.7111053,1.4226036L164.1575928,48.5540619z"/>
			<path class="st7" d="M150.9265442,61.6571732c-0.0207825,0.100174-1.7441101,8.4047394-1.6341705,7.8749771l-0.2830505,2.4704285
				c-0.2699585,0.0409241-13.0873413,10.0529404-15.7109833-4.5808563
				c-0.0901642-0.5019989,2.9080353-4.7869301,2.9080353-4.7869301s2.8178711-3.7571678,4.0402069-8.94244
				C154.848465,64.5820313,149.8549957,60.858036,150.9265442,61.6571732z"/>
			<path class="st3" d="M150.9265442,61.6571732l-1.1579285,5.609993c-1.2135773,0.2348404-4.1184998-0.9869995-5.9031067-2.8948441
				c-3.102356-3.316597-2.306427-5.8804703-3.1684418-10.3457184L150.9265442,61.6571732z"/>
			<path class="st11" d="M122.9517365,170.1693573c-4.1311111,1.6332397-41.1458359,16.4060669-51.6671524,20.1647034
				c-11.1095276,3.9616241-19.7359123,2.2914734-23.5058746-5.1851501
				c-3.7701836-7.476181-10.0230713-25.8972015-0.6391716-32.3147888
				c7.4215813-5.0572205,31.6760597-8.763443,41.5437889-10.0961609c2.6382599-0.3467865,4.2448883-0.5384521,4.2448883-0.5384521
				C102.0475693,138.8766174,122.9517365,170.1693573,122.9517365,170.1693573z"/>
			<path class="st3" d="M122.9517365,170.1693573c0,0-5.8878326,2.3458557-13.793251,5.4770966
				c-0.091156-1.3603668,0.1005096-2.8210144,0.0822372-4.1902924c-0.0639648-4.1078186-2.263855-7.9143372-5.0206757-10.9541931
				c-5.1887207-5.7205963-13.2017593-10.0078125-15.5367203-17.7640076
				c2.6382599-0.3467865,4.2448883-0.5384521,4.2448883-0.5384521
				C102.0475693,138.8766174,122.9517365,170.1693573,122.9517365,170.1693573z"/>
			<path class="st11" d="M152.7464752,171.3616333c-0.9128571,6.4171448-1.9262085,12.8253632-3.048996,19.2246704
				c-1.2139435,6.3805847-2.6837311,19.461792-5.8330078,24.6558533c-1.2693176,2.1013031-3.8905029,4.2526855-5.6598511,5.0755005
				c-9.9591064,4.5094147-22.4376907,2.8388367-32.4061584-0.9676819c-2.2727661-1.0590363-4.1078262-2.4189606-5.2214737-4.7559052
				c-2.8114243-5.9058838,2.2364349-17.8825836,4.3634491-23.8526459
				c4.5267944-12.5541687,9.8341522-23.4567261,9.5029068-25.3864136c-0.3195877-1.8622437-1.305542-3.1401367-2.5377502-4.5094147
				c-4.1236877-4.5823669-9.2217026-7.9859924-14.0912552-11.6707001
				c-8.1311188-6.1526794-16.2825775-13.6791687-20.0016708-23.4203033
				c-2.1710739-5.6865158-2.1739502-12.0043411,0.234848-17.616951c1.9460526-4.5343933,5.5964432-7.8790665,8.9959335-11.321907
				c1.6335297-1.6543579,3.0800476-3.4724503,5.2047119-4.5233078c2.1692886-1.0729294,4.7148743-1.2208252,7.0932617-1.156723
				c17.8741531,0.4816971,32.7011185,11.315567,35.7497787,18.4083862
				c2.5705109,5.9804153-1.6283264,11.441452-4.6457977,16.3573761
				c3.8658142,4.1570358,17.7566376,19.3388901,19.9093018,24.6103897
				C153.032486,157.0692902,153.9147186,162.8535919,152.7464752,171.3616333z"/>
			<path class="st1" d="M155.5221558,75.0596085c-8.8909302,33.3644714-19.7082825,39.5079346-19.7082825,39.5079346
				c-21.4065018-1.1138763-45.0218048-21.3788681-45.0218048-21.3788681
				c14.6607895-16.7073059,7.8681488-8.812912,30.4710312-35.4914856l6.5450592,2.2910385
				c6.3168564,2.7751007,8.3981705,2.6471748,8.3981705,2.6471748c-0.4838409,3.194973,4.3999939,5.8791466,4.3999939,5.8791466
				c8.4621429,4.9564896,8.6812134,1.022049,8.6812134,1.022049
				C150.957901,70.4311752,155.5221558,75.0596085,155.5221558,75.0596085z"/>
			<path class="st4" d="M117.3195267,79.4687424c0,0-5.1303177,7.0652237-19.178978,5.3491745l4.2903519-4.8927536
				l1.8987961-2.2366562c1.8620224-0.4564285,3.1766968-0.7301025,3.1766968-0.7301025L117.3195267,79.4687424z"/>
			<path class="st15" d="M123.2104797,57.5162239c-0.3053207,0.4256706,1.4146576,10.2111778-2.7161179,19.484005
				c-3.4998245,7.8564529-8.0179214,11.9374237-14.9553299,13.4037628s-13.0494537,0.3073807-13.0494537,0.3073807
				l-1.6963196,2.0253525c0,0-1.0036163,0.1105042,6.5937119,3.5175171
				c7.5973282,3.4070206,20.3694839,4.1244507,29.688942-6.9906006s7.4542694-25.7385674,7.4542694-25.7385674
				C134.0783081,61.3711243,125.0050735,56.3858299,123.2104797,57.5162239z"/>
			<path class="st15" d="M159.4894257,77.1963959c0,0,2.6158447,8.6625061-4.9163361,20.4404755
				s-15.2463989,15.5292435-17.0964355,15.5723648c0,0,4.1150055-2.6576157,7.806076-18.6420898
				c3.6910858-15.9844742,3.6216736-24.1847305,3.6216736-24.1847305l0.2545776-1.2902069
				C149.1589813,69.0922089,158.1538391,73.4794922,159.4894257,77.1963959z"/>
			<path class="st7" d="M92.0045319,77.9555054c-6.521347,2.685257-12.9668655,5.5546646-19.3262863,8.603653
				c-5.9143219,2.8355789-9.350563,5.3252106-10.2031059,12.3412018c-0.6919479,5.6943817,0.9972954,8.1212845-1.459465,9.9506836
				c-1.3797798,1.0274429-3.6575317,0.40728-4.3259621-1.1778641c-0.5295563-1.255806-0.1070023-2.6819229,0.1948853-4.0109634
				s0.4105797-2.9049377-0.5480728-3.8736877c-2.400219-2.425499-7.8436966,1.6268768-6.359333,6.6639786
				c0.3762856,1.2768936,1.1764412,2.3857422,1.6660118,3.6236343c1.3798714,3.4890289-1.1270409,6.061203-5.2255554,3.8543472
				c-2.916317-1.5702972-5.2040863-4.2723236-6.2719727-7.4076614c-1.9212875-5.6409607,0.5027084-13.0490799,5.5636177-16.3636475
				c5.6382828-3.6925888,10.0966949-14.9500046,17.0160942-21.6494064
				c12.8494949-12.4409561,25.496727-13.9846039,25.496727-13.9846039L92.0045319,77.9555054z"/>
			<path class="st1" d="M88.2221146,54.5251694c0,0-6.9374313,9.4018593,0.6301651,25.40065
				c0,0,7.6301193,1.3781433,12.0490799,2.4375763c4.4189529,1.059433,14.209404,0.4331741,16.1197357-2.4375763
				c1.9103317-2.8707581,9.8448944-14.5283737,4.2458649-22.2310791
				C121.2669601,57.6947403,111.0816727,52.8497276,88.2221146,54.5251694z"/>
			<path class="st7" d="M162.4450073,48.7552567c0,0-2.8494873-3.1191826-15.6948853-1.4626465
				c0,0-1.0794983,9.0904083-5.1367188,7.4191856c0,0,1.091217,11.1576424,10.415802,10.5902901
				s9.7544556-7.947731,9.7544556-7.947731L162.4450073,48.7552567z"/>
			<path class="st19" d="M155.6876373,59.4176636c-2.5056915-0.2000351-4.940506-1.208374-6.8539734-2.8384514
				c-0.4692535,1.2612953-0.3540497,2.7967834,0.4085083,3.9056435c0.762558,1.1088562,2.1864319,1.7599945,3.5063934,1.4977951
				C154.2003479,61.6942711,154.759552,60.570694,155.6876373,59.4176636z"/>
			<ellipse class="st75" cx="159.4467163" cy="53.2622566" rx="0.844282" ry="1.2040781"/>
			<ellipse class="st75" cx="150.562439" cy="52.2522964" rx="0.844282" ry="1.2040781"/>
			<path class="st3" d="M156.7632446,55.430378c0.6877899,1.0786819,0.3410034,1.6682396-0.7407227,1.7727013
				c-0.6974487,0.0673523-2.7918091-0.0080261-2.3407135-0.5475464c0.3165283-0.3785629,1.6703949,0.1339111,2.1341248,0.1118889
				c0.256958-0.0122032,0.5294037-0.1390724,0.6240845-0.378273c0.1480103-0.3739929-0.1777344-0.7439537-0.3460846-1.0520325
				c-0.7426453-1.3590775-0.7754974-1.3907738-0.7919617-1.5305481c-0.0118408-0.1004944,0.0226898-0.2132912,0.1094208-0.2654037
				c0.2268982-0.1363373,0.5155029,0.5775261,0.6131134,0.7306175
				C156.270752,54.6579781,156.5169983,55.0441742,156.7632446,55.430378z"/>
			<path class="st26" d="M164.1575928,48.5540619c0,0-2.9425964-1.5054512-4.4840546-1.9104195
				c-2.9886322-0.7851677-6.1812592-0.9019852-9.2795563-0.5820923c-1.2870483,0.132885-2.5684814,0.5113602-3.8369598,0.6296616
				c-0.9335327,0.0870667-1.7449036,0.2500572-2.4558258,0.9230919c-0.737793,0.6984749-1.1336365,1.7425499-1.0443726,2.7545967
				c0.1082458,1.2269897,0.878006,2.4420776,0.4979095,3.6137161c-0.2440796,0.7523537-0.9862061,1.3147926-1.7765198,1.3463936
				c-0.790329,0.0315971-1.5749817-0.469799-1.8783417-1.2002602c-0.6886597-1.6581879,0.8412628-3.1767197,1.096756-4.8171501
				c0.4444122-2.8534088-3.0558014-3.3050079-3.6628265-0.2148018c-0.1265106,0.6440277-0.1033478,1.3068504-0.0796814,1.9627609
				c0,0-4.5067139-4.6262245-1.9963837-10.5714951c2.5103455-5.9452744,13.0304565-10.0406952,20.7453003-6.7403641
				S164.3355408,45.3651772,164.1575928,48.5540619z"/>
			
				<ellipse transform="matrix(0.9859634 -0.1669617 0.1669617 0.9859634 -4.3179183 25.5368404)" class="st3" cx="149.717926" cy="38.4486542" rx="1.7479089" ry="1.9954998"/>
			
				<ellipse transform="matrix(0.9859634 -0.1669617 0.1669617 0.9859634 -4.6514573 24.5200481)" class="st3" cx="143.5039215" cy="39.9239349" rx="1.7479089" ry="1.9954998"/>
			
				<ellipse transform="matrix(0.9859634 -0.1669617 0.1669617 0.9859634 -4.3049445 26.6631584)" class="st3" cx="156.4230347" cy="38.9346504" rx="1.7479089" ry="1.9954998"/>
			<g>
				<path class="st13" d="M276.1188049,79.9795456c0.4290161,0.9311218-20.5391235,10.9541931-20.9681244,10.0230713
					l-66.13591-16.5770493c-0.9676819-1.9808121,1.1410675-6.0066147,1.1410675-6.0066147l10.1416321,0.7394562
					c7.123291,0.5185547,70.2227936,5.1120148,77.6196136,5.6504898
					C278.4649048,76.0910187,276.1188049,79.9795456,276.1188049,79.9795456z"/>
				<path class="st14" d="M190.1580658,67.4180603c-0.3385315-0.8277206,20.0992737-9.4437675,21.563385-8.8147049
					l66.1967621,15.209549c0.4267883,0.9306793-20.6064148,10.5780029-21.0332031,9.6473236L190.1580658,67.4180603z"/>
				
					<ellipse transform="matrix(0.0947976 -0.9954966 0.9954966 0.0947976 152.016983 327.1004944)" class="st13" cx="255.8729095" cy="79.9598846" rx="1.7440268" ry="4.3221531"/>
				
					<ellipse transform="matrix(0.0947976 -0.9954966 0.9954966 0.0947976 168.6066589 334.4930725)" class="st13" cx="268.2327576" cy="74.5339279" rx="1.7440268" ry="4.3221531"/>
				
					<ellipse transform="matrix(0.0947976 -0.9954966 0.9954966 0.0947976 131.326828 268.5696411)" class="st13" cx="213.3431702" cy="62.0714607" rx="1.7440268" ry="4.3221531"/>
				
					<ellipse transform="matrix(0.0947976 -0.9954966 0.9954966 0.0947976 115.6756592 260.118866)" class="st13" cx="200.8707275" cy="66.4522705" rx="1.7440268" ry="4.3221531"/>
				<path class="st19" d="M202.4266968,71.7076111c0,0,3.736969-0.1406555,5.7415771,1.3112183
					c0,0,0.1757507,1.9512253-1.0293884,3.2993622c0,0-4.1175537-0.2975616-5.3094788-1.5059509
					C201.8294067,74.8122406,201.9957428,72.4965286,202.4266968,71.7076111z"/>
				<path class="st19" d="M248.2409058,83.1220551c0,0,3.7369843-0.1406555,5.7415771,1.3112183
					c0,0,0.1757507,1.9512253-1.0293884,3.2993622c0,0-4.1175537-0.2975616-5.3094788-1.5059509
					C247.6436157,86.2266846,247.809967,83.9109726,248.2409058,83.1220551z"/>
			</g>
		</g>
	</g>
</g>
</svg>
