<?xml version="1.0" encoding="utf-8"?>
<!-- Generator: Adobe Illustrator 22.0.1, SVG Export Plug-In . SVG Version: 6.00 Build 0)  -->
<svg version="1.1" id="Layer_1" xmlns="http://www.w3.org/2000/svg" xmlns:xlink="http://www.w3.org/1999/xlink" x="0px" y="0px"
	 viewBox="0 0 300 300" style="enable-background:new 0 0 300 300;" xml:space="preserve">
<style type="text/css">
	.st0{fill:#EDC1A4;}
	.st1{fill:#E2E0E0;}
	.st2{fill:#D39E81;}
	.st3{fill:#502E26;}
	.st4{fill:#CCCACA;}
	.st5{fill:#426800;}
	.st6{fill:#538705;}
	.st7{fill:#D47E44;}
	.st8{fill:#73341D;}
	.st9{fill:#BC672E;}
	.st10{fill:#96311D;}
	.st11{fill:#B83E21;}
	.st12{fill:#DE8D82;}
	.st13{fill:#EFBAB4;}
	.st14{fill:#FDD5D0;}
	.st15{fill:#6883CE;}
	.st16{fill:#3D4885;}
	.st17{fill:#3859AE;}
	.st18{fill:#864424;}
	.st19{fill:#FEFEFE;}
	.st20{fill:#FFFFFF;}
	.st21{fill:#A55925;}
	.st22{fill:#F4F2F2;}
	.st23{fill:#3C3E68;}
	.st24{fill:#E8997C;}
	.st25{fill:#F5C46B;}
	.st26{fill:#F7EBDA;}
	.st27{fill:#0E0C0D;}
	.st28{fill:#657C3A;}
	.st29{fill:#576C37;}
	.st30{fill:#7C995D;}
	.st31{fill:#36518C;}
	.st32{fill:#96B7E3;}
	.st33{fill:#A3B3DF;}
	.st34{fill:url(#SVGID_1_);}
	.st35{fill:url(#SVGID_2_);}
	.st36{fill:url(#SVGID_3_);}
	.st37{fill:url(#SVGID_4_);}
	.st38{fill:url(#SVGID_5_);}
	.st39{fill:#266AB7;}
	.st40{fill:#060E0D;}
	.st41{fill:#E0D4C6;}
	.st42{fill:#787E42;}
	.st43{fill:#D3D1D1;}
	.st44{fill:url(#SVGID_6_);}
	.st45{fill:url(#SVGID_7_);}
	.st46{fill:url(#SVGID_8_);}
	.st47{fill:#020508;}
	.st48{fill:#BAB6B6;}
	.st49{fill:#0F0B07;}
	.st50{fill:#2F3A68;}
	.st51{fill:#203257;}
	.st52{opacity:0.5;fill:#FFFFFF;}
	.st53{opacity:0.2;fill:#0E0C0D;}
	.st54{fill:#DD9F9B;}
	.st55{fill:#3E4D9B;}
	.st56{fill:url(#SVGID_9_);}
	.st57{fill:#5F6194;}
	.st58{fill:url(#SVGID_10_);}
	.st59{fill:url(#SVGID_11_);}
	.st60{fill:url(#SVGID_12_);}
	.st61{fill:url(#SVGID_13_);}
	.st62{fill:#070102;}
	.st63{fill:#100805;}
	.st64{fill:#FDA465;}
	.st65{fill:#2A50A1;}
	.st66{fill:#B76C39;}
	.st67{fill:#130602;}
	.st68{fill:url(#SVGID_14_);}
	.st69{fill:url(#SVGID_15_);}
	.st70{fill:url(#SVGID_16_);}
	.st71{fill:url(#SVGID_17_);}
	.st72{fill:url(#SVGID_18_);}
	.st73{fill:url(#SVGID_19_);}
	.st74{fill:#B4BDED;}
	.st75{fill:#100D08;}
	.st76{fill:#F6C85F;}
	.st77{fill:#FECF00;}
	.st78{fill:#2D59E2;}
	.st79{fill:#121F3A;}
	.st80{fill:#BBD0F5;}
	.st81{fill:#020202;}
	.st82{fill:#E2CFB7;}
	.st83{fill:#080805;}
	.st84{fill:#A87D7C;}
	.st85{fill:#182052;}
	.st86{fill:#EAEAEA;}
	.st87{fill:#DDDDDD;}
	.st88{fill:#3D4574;}
	.st89{fill:#ABC5F0;}
	.st90{fill:url(#SVGID_20_);}
	.st91{fill:#4159A8;}
	.st92{fill:#E0D0BD;}
	.st93{fill:#3D53AA;}
	.st94{fill:#0A0000;}
	.st95{fill:#BF6D36;}
	.st96{fill:#385DAE;}
	.st97{fill:#E0DCDC;}
	.st98{fill:#857E78;}
	.st99{fill:#0E213C;}
	.st100{fill:url(#SVGID_21_);}
	.st101{fill:#55608E;}
	.st102{opacity:0.3;fill:#F4F2F2;}
	.st103{opacity:0.3;}
	.st104{fill:#213987;}
	.st105{enable-background:new    ;}
</style>
<g id="Popcorn_Cart_1_">
	<g id="Popcorn_Cart">
		<g>
			<g>
				<polygon class="st14" points="220.5149078,118.73246 217.3527527,218.8716888 82.6467972,218.8716888 79.7068405,118.73246 				
					"/>
				<path class="st7" d="M223.6807251,44.3179398H76.3187714C79.5682297,42.4454956,63.3142357,51.8115807,115.0495377,22
					h69.8967667C190.7467957,25.3421249,221.18573,42.8803787,223.6807251,44.3179398z"/>
				<polygon class="st20" points="238.1642456,90.5864334 61.8357544,90.5864334 76.3171463,44.3179398 223.6791077,44.3179398 				
					"/>
				<path class="st101" d="M209.0141449,120.0747681c-0.4169006,13.112442-2.5068817,78.8457947-2.7733459,87.2267914H93.7958145
					c-0.0181503-0.6141357,0.2497253,8.4525146-2.5771027-87.2267914h8.7050705
					c0.0769424,2.8404312,2.0732193,76.5362854,2.188385,80.787735h95.8418884
					c0.003006-0.1035614,2.1310883-73.1085968,2.3549347-80.787735H209.0141449z"/>
				<polygon class="st7" points="82.6467972,218.8716888 102.1121674,200.8625031 197.9540558,200.8625031 217.3527527,218.8716888 
									"/>
				<polygon class="st11" points="199.1241302,30.1685753 100.875412,30.1685753 115.0495377,22 184.9463043,22 				"/>
				<path class="st82" d="M115.9248657,199.9651947c-0.321579,2.1152039-2.5689011,3.9231415-5.1524429,4.1249542
					c-1.7225571,4.0173035-7.9002228,5.800415-11.7987671,2.6910248c-1.8307953-1.4602051-2.6175308-3.7424164-1.9896927-5.7718201
					c-1.8716202,0.7162018-4.1834335,1.1987305-5.9173813,0.2787933c-1.3577271-0.7203369-1.9630585-2.204071-1.5980377-3.4953461
					s1.5904007-2.3574066,3.0663681-2.8994904c1.2631378-0.463913,2.556488-0.4813538,3.9077682-0.4731293
					c0.0715561-0.8759308-0.7060699-1.6913147-0.4558487-2.7118225c0.8980103-3.6624603,6.7368851-2.9917145,7.5689468-0.0938263
					c0.8544159-2.0977173,4.1514893-3.2598724,6.577301-2.3097382c2.4433441,0.9497528,3.4391327,3.7631226,2.0102234,5.6405334
					C114.5788803,195.6624146,116.2466812,197.8506775,115.9248657,199.9651947z"/>
				<path class="st7" d="M94.9216614,216.2889709c-2.401619,0.818573-5.4311752,0.1139526-6.9245758-1.6254578
					c-5.1118546,0.7631378-10.0615463-2.7519836-8.6959305-7.0674286c0.641304-2.0265656,2.6710815-3.7169037,5.1334-4.2749481
					c-1.6861267-0.9778137-3.3425598-2.3847351-3.2260284-4.0748138c0.1726074-2.5034332,4.1400146-4.1387482,7.5063934-2.1215515
					c1.117363,0.6695404,1.7763443,1.5817108,2.4368362,2.547821c0.9640198-0.382843,1.4432983-1.3402863,2.6490707-1.6675262
					c4.3317566-1.1756287,6.5043335,3.3174133,3.8478775,5.3422241c2.6469421-0.4305573,5.5117722,1.3412628,5.7058716,3.5388489
					c0.203186,2.2098694-2.2861481,4.3121033-4.9840546,4.2245483
					C98.8164978,213.1998138,97.3226395,215.4709167,94.9216614,216.2889709z"/>
				<path class="st20" d="M116.8535156,214.0745544c-0.321579,2.1152039-2.5689011,3.9231415-5.1524353,4.1249542
					c-1.7225647,4.0173035-7.9002228,5.8004303-11.7987747,2.6910248c-1.8307877-1.4602051-2.6175308-3.7424164-1.9896927-5.7718048
					c-1.8716202,0.7161865-4.1834335,1.1987152-5.9173813,0.2787781c-1.3577271-0.7203369-1.9630585-2.204071-1.5980377-3.4953461
					s1.5904007-2.3573914,3.0663681-2.8994904c1.2631454-0.463913,2.556488-0.4813385,3.9077682-0.4731293
					c0.0715561-0.8759308-0.7060699-1.6912994-0.4558487-2.7118225c0.8980179-3.6624451,6.7368851-2.9916992,7.5689545-0.0938263
					c0.8544083-2.0977173,4.1514893-3.2598724,6.5772934-2.3097382c2.4433441,0.9497528,3.4391327,3.7631226,2.010231,5.6405334
					C115.5075302,209.7717743,117.1753311,211.9600525,116.8535156,214.0745544z"/>
				<path class="st26" d="M130.1537781,193.5847626c-0.321579,2.1152191-2.5689011,3.9231415-5.1524429,4.1249695
					c-1.7225571,4.0172882-7.9002228,5.800415-11.7987747,2.6910248c-1.8307877-1.4602051-2.6175232-3.7424164-1.9896851-5.7718201
					c-1.8716202,0.7161865-4.1834412,1.1987305-5.9173889,0.2787781c-1.3577194-0.7203217-1.9630585-2.2040558-1.5980377-3.4953308
					c0.3650284-1.291275,1.5904007-2.3574066,3.0663681-2.8994904c1.2631454-0.4639282,2.556488-0.4813538,3.9077682-0.4731445
					c0.0715637-0.8759308-0.7060699-1.6912994-0.4558487-2.7118073c0.8980179-3.6624603,6.7368851-2.9917145,7.5689545-0.0938416
					c0.8544159-2.0977173,4.1514893-3.2598572,6.577301-2.3097229c2.4433365,0.9497375,3.4391327,3.7631073,2.0102234,5.6405182
					C128.807785,189.2819977,130.4755859,191.4702606,130.1537781,193.5847626z"/>
				<path class="st82" d="M137.7814789,184.3134766c-0.321579,2.1152039-2.5688934,3.9231415-5.1524353,4.1249542
					c-1.7225647,4.0173035-7.9002228,5.8004303-11.7987671,2.6910248c-1.8307953-1.4602051-2.6175308-3.7424164-1.9896927-5.7718201
					c-1.8716202,0.7162018-4.1834412,1.1987305-5.9173889,0.2787933c-1.3577194-0.7203369-1.9630508-2.204071-1.5980301-3.4953461
					s1.5904007-2.3573914,3.0663681-2.8994904c1.2631378-0.463913,2.556488-0.4813538,3.9077606-0.4731293
					c0.0715637-0.8759308-0.7060699-1.6913147-0.4558411-2.7118225c0.8980103-3.6624603,6.7368774-2.9917145,7.5689468-0.0938263
					c0.8544159-2.0977173,4.1514893-3.2598724,6.577301-2.3097382c2.4433441,0.9497528,3.4391327,3.7631226,2.0102234,5.6405334
					C136.4355011,180.0106964,138.103302,182.1989746,137.7814789,184.3134766z"/>
				<path class="st26" d="M152.2348328,199.9651947c-0.321579,2.1152039-2.5688934,3.9231415-5.1524353,4.1249542
					c-1.7225647,4.0173035-7.9002228,5.800415-11.7987671,2.6910248c-1.8307953-1.4602051-2.6175385-3.7424164-1.9897003-5.7718201
					c-1.8716125,0.7162018-4.1834412,1.1987305-5.9173813,0.2787933c-1.3577194-0.7203369-1.9630585-2.204071-1.5980377-3.4953461
					s1.5904007-2.3574066,3.0663681-2.8994904c1.2631378-0.463913,2.556488-0.4813538,3.9077606-0.4731293
					c0.0715637-0.8759308-0.7060699-1.6913147-0.4558411-2.7118225c0.8980103-3.6624603,6.7368927-2.9917145,7.5689545-0.0938263
					c0.8544159-2.0977173,4.1514893-3.2598724,6.577301-2.3097382c2.4433289,0.9497528,3.4391327,3.7631226,2.0102234,5.6405334
					C150.888855,195.6624146,152.5566559,197.8506775,152.2348328,199.9651947z"/>
				<path class="st26" d="M148.6209259,214.8766174c-0.321579,2.1152039-2.5689087,3.9231415-5.1524506,4.1249542
					c-1.7225494,4.0173035-7.9002228,5.8004303-11.7987671,2.6910248c-1.8307953-1.4602051-2.6175232-3.7424164-1.9896851-5.7718048
					c-1.8716278,0.7161865-4.1834412,1.1987152-5.9173889,0.2787781c-1.3577271-0.7203369-1.9630585-2.204071-1.5980377-3.4953461
					s1.5904007-2.3573914,3.0663681-2.8994904c1.2631454-0.463913,2.556488-0.4813538,3.9077682-0.4731293
					c0.0715637-0.8759308-0.7060699-1.6913147-0.4558411-2.7118225c0.8980103-3.6624603,6.7368774-2.9917145,7.5689392-0.0938263
					c0.8544159-2.0977173,4.1514893-3.2598724,6.577301-2.3097382c2.4433441,0.9497528,3.4391327,3.7631226,2.0102234,5.6405334
					C147.2749329,210.5738373,148.9427338,212.7621155,148.6209259,214.8766174z"/>
				<path class="st7" d="M136.803894,209.6412811c-0.321579,2.1152191-2.5688934,3.9231567-5.1524353,4.1249695
					c-1.7225494,4.0173035-7.9002151,5.800415-11.7987671,2.6910248c-1.8307953-1.4602051-2.6175308-3.7424164-1.9896927-5.7718201
					c-1.8716202,0.7161865-4.1834335,1.1987305-5.9173813,0.2787933c-1.3577271-0.7203369-1.9630585-2.204071-1.5980377-3.4953461
					s1.5904007-2.3574066,3.0663681-2.8994904c1.2631378-0.463913,2.556488-0.4813538,3.9077682-0.4731445
					c0.0715561-0.8759155-0.7060699-1.6912994-0.4558487-2.7118073c0.8980179-3.6624603,6.7368851-2.9917145,7.5689545-0.0938263
					c0.8544083-2.0977173,4.1514816-3.2598724,6.5772934-2.3097382c2.4433441,0.9497528,3.4391327,3.7631073,2.0102234,5.6405182
					C135.4579163,205.3385162,137.1257172,207.5267792,136.803894,209.6412811z"/>
				<path class="st20" d="M163.3769836,211.5533752c-0.321579,2.1152191-2.5689087,3.9231567-5.1524353,4.1249695
					c-1.7225647,4.0173035-7.900238,5.800415-11.7987823,2.6910248c-1.8307953-1.4602051-2.6175232-3.7424164-1.9896851-5.7718201
					c-1.8716278,0.7161865-4.1834412,1.1987305-5.9173889,0.2787933c-1.3577271-0.7203369-1.9630585-2.204071-1.5980377-3.4953461
					s1.5904083-2.3574066,3.0663757-2.8994904c1.2631378-0.463913,2.556488-0.4813538,3.9077606-0.4731445
					c0.0715637-0.8759155-0.7060699-1.6912994-0.4558411-2.7118073c0.8980103-3.6624603,6.7368774-2.9917145,7.5689545-0.0938263
					c0.8544006-2.0977173,4.151474-3.2598724,6.5772858-2.3097382c2.4433441,0.9497375,3.4391327,3.7631073,2.0102234,5.6405182
					C162.0309906,207.2506104,163.6987915,209.4388733,163.3769836,211.5533752z"/>
				<path class="st82" d="M170.2812958,196.5965271c-0.321579,2.1152191-2.5688934,3.9231415-5.1524353,4.1249695
					c-1.7225494,4.0173035-7.9002228,5.800415-11.7987671,2.6910248c-1.8307953-1.4602051-2.6175232-3.7424164-1.9896851-5.7718201
					c-1.8716278,0.7161865-4.1834412,1.1987305-5.9173889,0.2787781c-1.3577271-0.7203217-1.9630585-2.2040558-1.5980377-3.4953308
					s1.5904083-2.3574066,3.0663605-2.8994904c1.2631531-0.4639282,2.556488-0.4813538,3.9077759-0.4731445
					c0.0715637-0.8759308-0.7060699-1.6912994-0.4558563-2.7118073c0.8980255-3.6624603,6.7368927-2.9917145,7.5689545-0.0938416
					c0.8544159-2.0977173,4.1514893-3.2598572,6.577301-2.3097229c2.4433441,0.9497375,3.4391327,3.7631073,2.0102234,5.6405182
					C168.935318,192.2937622,170.6031189,194.4820251,170.2812958,196.5965271z"/>
				<path class="st7" d="M181.6567383,181.593338c-0.4030762,2.6512909-3.2199707,4.91745-6.4582977,5.1704102
					c-2.1591339,5.0354614-9.9024963,7.2705078-14.7891083,3.3730469c-2.2947998-1.8302765-3.2809296-4.6909027-2.4939728-7.2346497
					c-2.3459625,0.8977051-5.2436981,1.502533-7.4171143,0.3494415c-1.701828-0.9028931-2.4605713-2.7626801-2.0030365-4.3812103
					c0.4575348-1.6185455,1.9934692-2.9548798,3.8435211-3.6343536c1.5832672-0.5814972,3.2044067-0.6033478,4.8981628-0.5930481
					c0.0896912-1.0979309-0.885025-2.1199646-0.5713806-3.3991089c0.2693329-1.0984192,1.0398712-2.1287384,2.2440643-2.6930695
					c2.6500702-1.2419434,6.5412292,0.1306458,7.2431946,2.5754395c1.0709686-2.629364,5.2036743-4.0860596,8.2442932-2.8951111
					c3.0625916,1.1904449,4.3107605,4.7168579,2.5196991,7.0700836
					C179.9696198,176.2000427,182.0601196,178.9429169,181.6567383,181.593338z"/>
				<path class="st20" d="M192.8919678,189.2084045c-0.321579,2.1152191-2.5688934,3.9231567-5.1524353,4.1249695
					c-1.7225494,4.0173035-7.9002228,5.800415-11.7987671,2.6910248c-1.8307953-1.4602051-2.6175232-3.7424164-1.9896851-5.7718201
					c-1.8716278,0.7161865-4.1834412,1.1987305-5.9173889,0.2787933c-1.3577271-0.7203369-1.9630585-2.204071-1.5980377-3.4953461
					s1.5904083-2.3574066,3.0663757-2.8994904c1.2631378-0.4639282,2.556488-0.4813538,3.9077606-0.4731445
					c0.0715637-0.8759155-0.7060699-1.6912994-0.4558411-2.7118073c0.8980103-3.6624603,6.7368774-2.9917145,7.5689392-0.0938416
					c0.8544159-2.0977173,4.1514893-3.2598572,6.577301-2.3097229c2.4433441,0.9497375,3.4391327,3.7631073,2.0102234,5.6405182
					C191.54599,184.9056396,193.2137909,187.0939026,192.8919678,189.2084045z"/>
				<path class="st26" d="M187.6161499,205.1803131c-0.321579,2.1152039-2.5688934,3.9231415-5.1524353,4.1249542
					c-1.7225647,4.0173035-7.9002228,5.8004303-11.7987671,2.6910248c-1.8307953-1.4602051-2.6175385-3.7424164-1.9897003-5.7718201
					c-1.8716125,0.7162018-4.1834259,1.1987305-5.9173737,0.2787933c-1.3577271-0.7203369-1.9630585-2.204071-1.5980377-3.4953461
					s1.5903931-2.3573914,3.0663605-2.8994904c1.2631378-0.463913,2.556488-0.4813538,3.9077759-0.4731293
					c0.0715485-0.8759308-0.7060699-1.6913147-0.4558563-2.7118225c0.8980103-3.6624603,6.7368927-2.9917145,7.5689545-0.0938263
					c0.8544159-2.0977173,4.1514893-3.2598724,6.577301-2.3097382c2.4433441,0.9497528,3.4391327,3.7631226,2.0102234,5.6405334
					C186.2701721,200.877533,187.937973,203.0658112,187.6161499,205.1803131z"/>
				<path class="st26" d="M174.3158875,215.9891357c-0.321579,2.1152191-2.5688934,3.9231567-5.1524353,4.1249695
					c-1.7225494,4.0173035-7.9002228,5.800415-11.7987671,2.6910248c-1.8307953-1.4602051-2.6175232-3.7424164-1.9896851-5.7718201
					c-1.8716278,0.7161865-4.1834412,1.1987305-5.9173889,0.2787933c-1.3577271-0.7203369-1.9630585-2.204071-1.5980377-3.4953461
					s1.5904083-2.3574066,3.0663605-2.8994904c1.2631531-0.4639282,2.5565033-0.4813538,3.9077759-0.4731445
					c0.0715637-0.8759155-0.7060699-1.6912994-0.4558411-2.7118073c0.8980103-3.6624603,6.7368774-2.9917145,7.5689392-0.0938416
					c0.8544159-2.0977173,4.1514893-3.2598572,6.577301-2.3097229c2.4433441,0.9497375,3.4391327,3.7631073,2.0102234,5.6405182
					C172.9699097,211.6863708,174.6377106,213.8746338,174.3158875,215.9891357z"/>
				<path class="st82" d="M187.6161499,215.9891357c-0.321579,2.1152191-2.5688934,3.9231567-5.1524353,4.1249695
					c-1.7225647,4.0173035-7.9002228,5.800415-11.7987671,2.6910248c-1.8307953-1.4602051-2.6175385-3.7424164-1.9897003-5.7718201
					c-1.8716125,0.7161865-4.1834259,1.1987305-5.9173737,0.2787933c-1.3577271-0.7203369-1.9630585-2.204071-1.5980377-3.4953461
					s1.5903931-2.3574066,3.0663605-2.8994904c1.2631378-0.4639282,2.556488-0.4813538,3.9077759-0.4731445
					c0.0715485-0.8759155-0.7060699-1.6912994-0.4558563-2.7118073c0.8980103-3.6624603,6.7368927-2.9917145,7.5689545-0.0938416
					c0.8544159-2.0977173,4.1514893-3.2598572,6.577301-2.3097229c2.4433441,0.9497375,3.4391327,3.7631073,2.0102234,5.6405182
					C186.2701721,211.6863708,187.937973,213.8746338,187.6161499,215.9891357z"/>
				<path class="st20" d="M207.2120667,212.5101013c-0.321579,2.1152039-2.5688934,3.9231415-5.1524353,4.1249542
					c-1.7225647,4.0173035-7.9002228,5.8004303-11.7987671,2.6910248c-1.8307953-1.4602051-2.6175385-3.7424164-1.9897003-5.7718048
					c-1.8716125,0.7161865-4.1834412,1.1987152-5.9173737,0.2787781c-1.3577271-0.7203369-1.9630585-2.204071-1.5980377-3.4953461
					s1.5903931-2.3573914,3.0663605-2.8994904c1.2631378-0.463913,2.556488-0.4813538,3.9077759-0.4731293
					c0.0715485-0.8759308-0.7060699-1.6913147-0.4558563-2.7118225c0.8980103-3.6624603,6.7368927-2.9917145,7.5689545-0.0938263
					c0.8544159-2.0977173,4.1514893-3.2598724,6.577301-2.3097382c2.4433289,0.9497528,3.4391327,3.7631226,2.0102234,5.6405334
					C205.8660889,208.2073212,207.5338898,210.3955994,207.2120667,212.5101013z"/>
				<path class="st82" d="M204.9593201,196.5965271c-0.321579,2.1152191-2.5689087,3.9231415-5.1524353,4.1249695
					c-1.7225647,4.0173035-7.9002228,5.800415-11.7987823,2.6910248c-1.8307953-1.4602051-2.6175232-3.7424164-1.9896851-5.7718201
					c-1.8716278,0.7161865-4.1834412,1.1987305-5.9173889,0.2787781c-1.3577271-0.7203217-1.9630585-2.2040558-1.5980377-3.4953308
					s1.5904083-2.3574066,3.0663757-2.8994904c1.2631378-0.4639282,2.556488-0.4813538,3.9077606-0.4731445
					c0.0715637-0.8759308-0.7060699-1.6912994-0.4558411-2.7118073c0.8980103-3.6624603,6.7368774-2.9917145,7.5689545-0.0938416
					c0.8544006-2.0977173,4.151474-3.2598572,6.5772858-2.3097229c2.4433441,0.9497375,3.4391327,3.7631073,2.0102386,5.6405182
					C203.613327,192.2937622,205.2811279,194.4820251,204.9593201,196.5965271z"/>
				<path class="st7" d="M221.710495,211.5533752c-0.321579,2.1152191-2.5688934,3.9231567-5.1524353,4.1249695
					c-1.7225647,4.0173035-7.9002228,5.800415-11.7987671,2.6910248c-1.8307953-1.4602051-2.6175385-3.7424164-1.9897003-5.7718201
					c-1.8716125,0.7161865-4.1834259,1.1987305-5.9173737,0.2787933c-1.3577271-0.7203369-1.9630585-2.204071-1.5980377-3.4953461
					s1.5903931-2.3574066,3.0663605-2.8994904c1.2631378-0.463913,2.556488-0.4813538,3.9077759-0.4731445
					c0.0715485-0.8759155-0.7060699-1.6912994-0.4558563-2.7118073c0.8980103-3.6624603,6.7368927-2.9917145,7.5689545-0.0938263
					c0.8544159-2.0977173,4.1514893-3.2598724,6.577301-2.3097382c2.4433441,0.9497375,3.4391327,3.7631073,2.0102234,5.6405182
					C220.3645172,207.2506104,222.0323181,209.4388733,221.710495,211.5533752z"/>
				<path class="st26" d="M222.274704,194.0097809c-0.321579,2.1152039-2.5689087,3.9231415-5.1524506,4.1249542
					c-1.7225494,4.0173035-7.9002228,5.8004303-11.7987671,2.6910248c-1.8307953-1.4602051-2.6175232-3.7424164-1.9896851-5.7718201
					c-1.8716278,0.7162018-4.1834412,1.1987305-5.9173889,0.2787933c-1.3577271-0.7203369-1.9630585-2.204071-1.5980377-3.4953461
					s1.5904083-2.3573914,3.0663757-2.8994904c1.2631378-0.463913,2.556488-0.4813538,3.9077606-0.4731293
					c0.0715637-0.8759308-0.7060699-1.6913147-0.4558411-2.7118225c0.8980103-3.6624603,6.7368774-2.9917145,7.5689392-0.0938263
					c0.8544159-2.0977173,4.1514893-3.2598724,6.577301-2.3097382c2.4433441,0.9497528,3.4391327,3.7631226,2.0102234,5.6405334
					C220.9287109,189.7070007,222.5965118,191.8952789,222.274704,194.0097809z"/>
				<path class="st20" d="M210.5955353,176.0914001c-0.321579,2.1152039-2.5688934,3.9231415-5.1524353,4.1249542
					c-1.7225647,4.0173035-7.9002228,5.800415-11.7987823,2.6910248c-1.83078-1.4602051-2.6175232-3.7424164-1.9896851-5.7718201
					c-1.8716278,0.7162018-4.1834412,1.1987305-5.9173889,0.2787933c-1.3577118-0.7203369-1.9630585-2.204071-1.5980377-3.4953461
					s1.5904083-2.3574066,3.0663757-2.8994904c1.2631378-0.463913,2.556488-0.4813538,3.9077606-0.4731293
					c0.0715637-0.8759308-0.7060699-1.6913147-0.4558411-2.7118225c0.8980103-3.6624603,6.7368774-2.9917145,7.5689545-0.0938263
					c0.8544006-2.0977173,4.1514893-3.2598724,6.577301-2.3097382c2.4433289,0.9497528,3.4391327,3.7631226,2.0102234,5.6405334
					C209.2495422,171.78862,210.9173431,173.9768829,210.5955353,176.0914001z"/>
				<path class="st82" d="M198.1525269,171.567688c-0.321579,2.1152039-2.5688934,3.9231415-5.1524353,4.1249542
					c-1.7225647,4.0173035-7.9002228,5.8004303-11.7987671,2.6910248c-1.8307953-1.4601898-2.6175385-3.7424011-1.9897003-5.7718048
					c-1.8716125,0.7161865-4.1834412,1.1987152-5.9173889,0.2787781c-1.3577118-0.7203369-1.9630432-2.2040558-1.5980225-3.4953308
					s1.5903931-2.3574066,3.0663605-2.8994904c1.2631378-0.4639282,2.556488-0.4813538,3.9077606-0.4731445
					c0.0715637-0.8759308-0.7060699-1.6912994-0.4558411-2.7118073c0.8980103-3.6624603,6.7368774-2.9917145,7.5689545-0.0938416
					c0.8544159-2.0977173,4.1514893-3.2598572,6.577301-2.3097382c2.4433289,0.9497528,3.4391327,3.7631226,2.0102234,5.6405334
					C196.8065491,167.2649231,198.47435,169.453186,198.1525269,171.567688z"/>
				<path class="st26" d="M170.2812958,172.292923c-0.321579,2.1152039-2.5688934,3.9231415-5.1524353,4.1249542
					c-1.7225494,4.0173035-7.9002228,5.8004303-11.7987671,2.6910248c-1.8307953-1.4602051-2.6175232-3.7424164-1.9896851-5.7718048
					c-1.8716278,0.7161865-4.1834412,1.1987152-5.9173889,0.2787781c-1.3577271-0.7203369-1.9630585-2.204071-1.5980377-3.4953461
					s1.5904083-2.3573914,3.0663605-2.8994751c1.2631531-0.4639282,2.556488-0.4813538,3.9077759-0.4731445
					c0.0715637-0.8759308-0.7060699-1.6912994-0.4558563-2.7118225c0.8980255-3.6624451,6.7368927-2.9916992,7.5689545-0.0938263
					c0.8544159-2.0977173,4.1514893-3.2598724,6.577301-2.3097382c2.4433441,0.9497528,3.4391327,3.7631226,2.0102234,5.6405334
					C168.935318,167.9901428,170.6031189,170.178421,170.2812958,172.292923z"/>
				<path class="st20" d="M157.9660187,184.3134766c-0.321579,2.1152039-2.5688934,3.9231415-5.1524353,4.1249542
					c-1.7225647,4.0173035-7.9002228,5.8004303-11.7987671,2.6910248c-1.8307953-1.4602051-2.6175385-3.7424164-1.9897003-5.7718201
					c-1.8716125,0.7162018-4.1834259,1.1987305-5.9173737,0.2787933c-1.3577271-0.7203369-1.9630585-2.204071-1.5980377-3.4953461
					s1.5903931-2.3573914,3.0663605-2.8994904c1.2631378-0.463913,2.556488-0.4813538,3.9077759-0.4731293
					c0.0715485-0.8759308-0.7060699-1.6913147-0.4558563-2.7118225c0.8980103-3.6624603,6.7368927-2.9917145,7.5689545-0.0938263
					c0.8544159-2.0977173,4.1514893-3.2598724,6.577301-2.3097382c2.4433441,0.9497528,3.4391327,3.7631226,2.0102234,5.6405334
					C156.6200409,180.0106964,158.2878418,182.1989746,157.9660187,184.3134766z"/>
				<path class="st82" d="M148.1615906,168.1990356c-0.321579,2.1152039-2.5688934,3.9231415-5.1524353,4.1249542
					c-1.7225647,4.0173035-7.9002228,5.8004303-11.7987671,2.6910248c-1.8307953-1.4602051-2.6175385-3.7424164-1.9897003-5.7718048
					c-1.8716125,0.7161865-4.1834335,1.1987152-5.9173813,0.2787781c-1.3577194-0.7203369-1.9630508-2.2040558-1.5980301-3.4953461
					c0.3650208-1.291275,1.5904007-2.3573914,3.0663681-2.8994751c1.2631378-0.4639282,2.556488-0.4813538,3.9077682-0.4731445
					c0.0715485-0.8759308-0.7060776-1.6912994-0.4558563-2.7118225c0.8980255-3.6624451,6.7368927-2.9916992,7.5689545-0.0938263
					c0.8544159-2.0977173,4.1514893-3.2598724,6.577301-2.3097382c2.4433441,0.9497528,3.4391327,3.7631226,2.0102234,5.6405334
					C146.8156128,163.8962555,148.4834137,166.0845337,148.1615906,168.1990356z"/>
				<path class="st20" d="M132.206543,172.292923c-0.321579,2.1152039-2.5688934,3.9231415-5.1524429,4.1249542
					c-1.7225571,4.0173035-7.9002228,5.8004303-11.7987671,2.6910248c-1.8307953-1.4602051-2.6175308-3.7424164-1.9896927-5.7718048
					c-1.8716202,0.7161865-4.1834412,1.1987152-5.9173889,0.2787781c-1.3577194-0.7203369-1.9630508-2.204071-1.5980301-3.4953461
					s1.5904007-2.3573914,3.0663681-2.8994751c1.2631378-0.4639282,2.556488-0.4813538,3.9077606-0.4731445
					c0.0715637-0.8759308-0.7060699-1.6912994-0.4558411-2.7118225c0.8980103-3.6624451,6.7368774-2.9916992,7.5689468-0.0938263
					c0.8544159-2.0977173,4.1514893-3.2598724,6.577301-2.3097382c2.4433365,0.9497528,3.4391251,3.7631226,2.010231,5.6405334
					C130.8605499,167.9901428,132.5283508,170.178421,132.206543,172.292923z"/>
				<path class="st7" d="M117.7795181,184.3134766c-0.321579,2.1152039-2.5689011,3.9231415-5.1524429,4.1249542
					c-1.7225571,4.0173035-7.9002228,5.8004303-11.7987671,2.6910248c-1.8307953-1.4602051-2.6175308-3.7424164-1.9896927-5.7718201
					c-1.8716202,0.7162018-4.1834412,1.1987305-5.9173813,0.2787933c-1.3577271-0.7203369-1.9630585-2.204071-1.5980377-3.4953461
					s1.5904007-2.3573914,3.0663681-2.8994904c1.2631378-0.463913,2.556488-0.4813538,3.9077682-0.4731293
					c0.0715561-0.8759308-0.7060699-1.6913147-0.4558487-2.7118225c0.8980103-3.6624603,6.7368851-2.9917145,7.5689468-0.0938263
					c0.8544159-2.0977173,4.1514893-3.2598724,6.577301-2.3097382c2.4433365,0.9497528,3.4391327,3.7631226,2.0102234,5.6405334
					C116.4335327,180.0106964,118.1013336,182.1989746,117.7795181,184.3134766z"/>
				<path class="st20" d="M99.7756805,192.4656525c-0.321579,2.1152191-2.5688934,3.9231415-5.1524353,4.1249695
					c-1.7225571,4.0173035-7.9002228,5.800415-11.7987747,2.6910248c-1.8307877-1.4602051-2.6175232-3.7424164-1.9896851-5.7718201
					c-1.8716202,0.7161865-4.1834412,1.1987305-5.9173889,0.2787781c-1.3577194-0.7203217-1.9630585-2.2040558-1.5980377-3.4953308
					c0.3650284-1.291275,1.5904007-2.3574066,3.0663681-2.8994904c1.2631454-0.4639282,2.556488-0.4813538,3.9077682-0.4731445
					c0.0715637-0.8759308-0.7060699-1.6912994-0.4558487-2.7118073c0.8980179-3.6624603,6.7368851-2.9917145,7.5689545-0.0938416
					c0.8544159-2.0977173,4.1514893-3.2598572,6.577301-2.3097229c2.4433365,0.9497375,3.4391327,3.7631073,2.0102234,5.6405182
					C98.4296951,188.1628876,100.0975037,190.3511505,99.7756805,192.4656525z"/>
				<path class="st8" d="M228.0631409,123.115242c-0.6985321,24.939949-3.9543304,141.1814575-4.2581635,152.0293579
					C223.7605438,276.7316284,222.1758118,278,220.2392273,278h-3.0695343c-1.9698944,0-3.5695038-1.3078308-3.5695038-2.9221497
					v-4.2086792h-127.20784v4.2086792c0,1.6143188-1.5958557,2.9221497-3.5657425,2.9221497h-3.0658875
					c-1.9365311,0-3.5213165-1.2683716-3.5657043-2.8554077c-0.5411835-19.3052673-3.9068451-139.3652191-4.2618637-152.0293579
					h7.7720642c3.3663177,109.6431503,2.7955399,91.052681,2.9399567,95.7564468H217.35112
					c0.4409332-13.3523407,2.8748932-87.0589142,3.1621094-95.7564468H228.0631409z"/>
				<path class="st3" d="M79.7052155,123.115242l0.2591705,8.462822c-2.5993347-0.0333252-5.1986694-0.0666656-7.7980042-0.1000061
					l-0.2332306-8.3628159H79.7052155z"/>
				<path class="st3" d="M228.0631409,123.115242l-0.2888184,10.3351822
					c-1.7843323,0.0481567-3.0730133,0.0236664-7.6017609-0.033493l0.3406677-10.3016891H228.0631409z"/>
				<path class="st102" d="M220.5132294,119.3040161c-2.534729,79.8516846,0.8410187-26.4739532-3.1621094,99.5676727H82.6451721
					c-0.3282166-11.1159515-2.6112671-88.4382629-2.9399567-99.5676727H220.5132294z"/>
				<polygon class="st3" points="217.4806671,214.8389587 217.35112,218.8716888 82.6451721,218.8716888 82.5266647,214.8389587 
									"/>
				<g class="st103">
					<path class="st3" d="M220.5132294,119.3040161l-0.3850555,12.1315155
						c-2.495636-1.5020752-4.0471191-3.9841232-3.8323669-6.7242661l-0.0777435,0.9861755
						c-0.3221436,4.0721359-4.4432983,7.240181-9.4197693,7.240181h-0.0222473c-5.3838043,0-9.6789856-3.6838074-9.4308777-8.092865
						l-0.0407715,0.7101517c-0.2295227,4.1297684-4.3839874,7.3827133-9.4271851,7.3827133h-0.0407257
						c-5.3134308,0-9.5789948-3.5957947-9.4345856-7.9501801l-0.0147858,0.4278946
						c-0.1407471,4.1874161-4.3248138,7.5222855-9.4346313,7.5222855h-0.0481415
						c-5.2467651,0-9.4864349-3.507782-9.4382935-7.8076477l0.0666199-5.8259583H220.5132294z"/>
					<path class="st3" d="M228.0631409,123.115242l-0.2702942,9.6310959
						c-2.4577637,0.4672699-5.2626343,0.0999756-7.557312-1.2470856l0.2776947-8.3840103H228.0631409z"/>
					<path class="st3" d="M79.7052155,123.115242l0.2517624,8.2687302
						c-2.3172989,1.4309387-5.1699982,1.8421631-7.7535324,1.3623657
						c-0.0028152-0.1002808-0.2884445-10.2780151-0.2702942-9.6310959H79.7052155z"/>
					<path class="st3" d="M159.529007,119.3040161l-0.0666656,5.9686432
						c-0.0444336,4.2450409-4.2581635,7.6649628-9.4382935,7.6649628h-0.0481415
						c-5.18013,0-9.3938599-3.4199219-9.4420013-7.6649628c-0.0481415,4.2360077-4.2470398,7.6649628-9.4382935,7.6649628
						h-0.0481415c-5.1135178,0-9.2938843-3.3348694-9.4345932-7.5222855l-0.0148239-0.4278946
						c0.1444092,4.3543854-4.1211166,7.9501801-9.4383011,7.9501801h-0.0370178
						c-5.0431366,0-9.1976089-3.2529449-9.4272232-7.3827133l-0.0406799-0.7101517
						c0.2480545,4.4090576-4.0471191,8.092865-9.4308853,8.092865h-0.0222397c-4.9764633,0-9.0976715-3.168045-9.4197617-7.240181
						l-0.0777893-0.9861755c0.2073288,2.6703568-1.2589417,5.0947647-3.6434937,6.6090012l-0.3554459-12.0162506H159.529007z"/>
				</g>
				<g>
					<path class="st7" d="M74.28508,127.8331833h-0.0000153c-4.9115601,0-9.0023804-3.086647-9.4071426-7.0979691
						l-3.0421448-30.1485596h19.5919724l2.2771149,29.0145874C84.0547638,124.0595474,79.7365952,127.8331833,74.28508,127.8331833z
						"/>
					<path class="st26" d="M93.2248611,127.8331833h-0.0222778c-4.9779358,0-9.1002884-3.1679611-9.4197845-7.2389679
						l-2.3550491-30.0075607h19.5919724l1.6344452,29.1560822
						C102.901207,124.1496201,98.6080551,127.8331833,93.2248611,127.8331833z"/>
					<path class="st7" d="M112.1614685,127.8331833h-0.0382004c-5.0447159,0-9.1977921-3.2506714-9.4292984-7.3804626
						l-1.6742477-29.866066h19.5919724l0.9854355,29.2979355
						C121.743576,124.2386017,117.4764938,127.8331833,112.1614685,127.8331833z"/>
					<path class="st26" d="M131.0948944,127.8331833h-0.04776c-5.1118622,0-9.2948151-3.3347397-9.4356613-7.522316
						l-0.9997787-29.7242126h19.5919647l0.3300781,29.4400024
						C140.5819397,124.3264389,136.3419495,127.8331833,131.0948944,127.8331833z"/>
					<path class="st7" d="M150.0251312,127.8331833h-0.0509491c-5.1793213,0-9.3912659-3.4201126-9.4388428-7.6643829
						l-0.3316803-29.5821457h19.59198l-0.331665,29.5821457
						C159.4163818,124.4130707,155.2044373,127.8331833,150.0251312,127.8331833z"/>
					<path class="st26" d="M168.952179,127.8331833h-0.04776c-5.2470551,0-9.4870605-3.5067444-9.438858-7.8065262
						l0.3300781-29.4400024h19.5919647l-0.9997711,29.7242126
						C178.2469788,124.4984436,174.0640259,127.8331833,168.952179,127.8331833z"/>
					<path class="st7" d="M187.8760376,127.8331833h-0.0381927c-5.315033,0-9.5821228-3.5945816-9.4356689-7.9485931
						l0.9854279-29.2979355h19.59198l-1.6742401,29.866066C197.073822,124.5825119,192.9207611,127.8331833,187.8760376,127.8331833
						z"/>
					<path class="st26" d="M206.7967224,127.8331833h-0.0222778c-5.383194,0-9.6763458-3.6835632-9.429306-8.0904465
						l1.6344452-29.1560822h19.5919647l-2.3550415,30.0075607
						C215.8970032,124.6652222,211.7746582,127.8331833,206.7967224,127.8331833z"/>
					<path class="st7" d="M225.7142487,127.8331833h-0.0000305c-5.4515076,0-9.7696686-3.7736359-9.4197845-8.2319412
						l2.2771149-29.0145874h19.59198l-3.0421448,30.1485596
						C234.7166138,124.7465363,230.6257935,127.8331833,225.7142487,127.8331833z"/>
				</g>
				<polygon class="st1" points="76.3171463,44.3179398 84.3484268,44.3179398 69.263443,90.5864334 61.8357544,90.5864334 				"/>
				<polygon class="st1" points="238.1642456,90.5864334 229.984848,90.5864334 215.8996277,44.3179398 223.6791077,44.3179398 				
					"/>
			</g>
			<g>
				<g>
					<path class="st104" d="M105.9275208,66.2267075c-0.2114792-5.0569611-0.1026459-10.0895882,0.0546875-14.7548828
						c1.2202148-0.4287109,2.4736328-0.6386719,3.7617188-0.628418c2.4457474,0.0194702,4.9762878,1.9688911,4.9916992,4.9331055
						c0.0153275,3.1569023-2.8890076,5.0652771-5.9291992,5.8657227c0.0083008,1.5854492,0.0385742,3.2133789,0.0908203,4.8837891
						L105.9275208,66.2267075z M111.1360168,54.0387192c-0.7647476-0.8917427-1.4081879-0.7315674-2.2412109-0.6118164
						c-0.0625,1.9951172-0.0961914,3.9267578-0.1010742,5.7949219
						C111.9203033,58.281353,112.3271942,55.4339714,111.1360168,54.0387192z"/>
					<path class="st104" d="M122.4431458,66.7179184c-1.3896484-0.0112305-2.5649414-0.6254883-3.5244141-1.8427734
						c-0.9589844-1.2177734-1.4453125-3.0615234-1.4580078-5.5317383c-0.0409775-7.9710846,5.6775131-10.4379654,8.7304688-6.480957
						c0.9453125,1.2250977,1.4238281,3.0615234,1.4365234,5.5102539s-0.5009766,4.4545898-1.5405273,6.0175781
						C125.0471497,65.95327,123.8327942,66.7286606,122.4431458,66.7179184z M120.3635559,59.3028793
						c0.0087891,1.6630859,0.2148438,2.8959961,0.6196289,3.6987305c0.4042969,0.8032227,0.9047852,1.206543,1.5014648,1.2114258
						c0.5966797,0.0043945,1.1210938-0.5429688,1.5742188-1.6435547c0.9865952-2.39785,0.7828217-6.3733025,0.0688477-7.8334961
						C122.829155,52.0884857,120.3367691,53.936245,120.3635559,59.3028793z"/>
					<path class="st104" d="M131.8161926,66.430809c-0.2114868-5.0569611-0.1026459-10.0895882,0.0546875-14.7548828
						c1.2202148-0.4287109,2.4741211-0.6386719,3.762207-0.628418c5.439743,0.0433044,8.1383209,8.4092712-0.9375,10.7988281
						c0.0083008,1.5854492,0.0385742,3.2133789,0.0908203,4.8837891L131.8161926,66.430809z M137.025177,54.2428207
						c-0.7667694-0.8940926-1.4097137-0.7313499-2.2412109-0.6118164c-0.0625,1.9951172-0.0961914,3.9267578-0.1010742,5.7949219
						C137.7375793,58.5070763,138.2761383,55.7080956,137.025177,54.2428207z"/>
					<path class="st104" d="M148.45047,53.9937973c-1.5528412-0.0130196-2.3764038,4.7976799-2.3686523,6.371582
						c0.0131836,2.4912109,0.6889648,3.7421875,2.0283203,3.7524414c1.2500458,0.0096893,1.7145386-1.737587,2.0371094-2.8500977
						l2.7734375,0.2338867c-0.3696289,1.7382813-0.9267578,3.0644531-1.6713867,3.9785156s-1.7866211,1.3657227-3.125,1.3549805
						c-5.4358368-0.0422134-5.899704-7.0845299-3.7089844-12.2368164c0.7504425-1.8172798,2.2272339-3.3372345,4.2177734-3.3208008
						c3.3712769,0.0254555,3.7026825,3.4272804,3.8115234,6.8027344l-2.8173828-0.2773438
						c-0.0092773-1.8261719-0.1899414-2.9741211-0.5415039-3.4433594
						C148.9236145,54.1173325,148.712677,53.9957504,148.45047,53.9937973z"/>
					<path class="st104" d="M161.0364075,67.0221176c-1.3896484-0.0112305-2.5649414-0.6254883-3.5244141-1.8427734
						c-0.9584961-1.2182617-1.4448242-3.0615234-1.4575195-5.5317383c-0.0409698-7.9710846,5.6775055-10.4379654,8.7304688-6.480957
						c0.9453125,1.2246094,1.4238281,3.0615234,1.4365234,5.5102539s-0.5009766,4.4541016-1.5405273,6.0175781
						C163.6408997,66.2574692,162.4260559,67.0328598,161.0364075,67.0221176z M158.9568176,59.6070786
						c0.0087891,1.6630859,0.2148438,2.8959961,0.6196289,3.6987305c0.4042969,0.8032227,0.9047852,1.206543,1.5014648,1.2109375
						c0.5966797,0.0048828,1.1210938-0.5424805,1.5742188-1.6430664c0.988205-2.4028091,0.7825623-6.3738251,0.0688477-7.8334961
						C161.4345703,52.41745,158.9296417,54.161087,158.9568176,59.6070786z"/>
					<path class="st104" d="M170.2566223,66.5636215c0.2159576-4.278656,0.3174744-8.5015984,0.1879883-14.3286133
						c1.597168-0.7236328,3.2607422-1.0786133,4.9926758-1.0649414c2.4742737,0.0198097,4.5273895,1.6030502,4.5424805,4.5791016
						c0.0087891,1.6704102-1.1987305,3.2675781-3.6206055,4.7905273c1.3320313,1.6245117,2.6948242,3.4116211,4.0874023,5.3613281
						l-2.0878906,1.4912109c-0.9233398-1.3520508-2.5795898-3.5585938-4.9672852-6.6210938
						c-0.0317383,2.1801758-0.0869141,4.2246094-0.1645508,6.1347656L170.2566223,66.5636215z M177.3152161,55.5367661
						c-0.0096588-1.9574852-1.885437-2.2066002-3.871582-1.5375977c0.012207,2.3920898,0.0146484,4.1689453,0.0063477,5.3291016
						C174.8422852,58.6970177,177.3227234,57.0619774,177.3152161,55.5367661z"/>
					<path class="st104" d="M193.3821106,51.6085434c0.020874,8.7161903,0.1893158,10.4831314-0.074707,15.1157227
						l-2.4462891-0.2524414c-1.8984375-4.1621094-3.449707-7.28125-4.6538086-9.3569336
						c0.0253906,2.0947266,0.0498047,5.4350586,0.0737305,10.0209961l-2.5556641-0.2958984
						c-0.2371674-4.3073616,0.1000824-10.2219887,0.4487305-14.5185547l2.9047852,0.2988281
						c1.4609375,3.8754883,2.7705078,6.8232422,3.9306641,8.8422852c-0.109375-4.2758789-0.2285156-7.6450195-0.3574219-10.1088867
						L193.3821106,51.6085434z"/>
					<path class="st104" d="M111.5481262,70.5655746l2.8173828,0.2768555
						c0.5708008,3.5288086,1.2797852,6.9243164,2.1259766,10.1860352l0.0874023-0.0205078
						c0.9990234-3.7993164,1.8017578-7.5151367,2.4091797-11.1479492l2.8828125,0.2558594
						c-0.9501953,4.8613281-2.3720703,9.8823242-4.2661133,15.0615234l-2.5117188-0.2319336
						C113.5823059,79.8243637,112.4006653,75.0304184,111.5481262,70.5655746z"/>
					<path class="st104" d="M125.3537903,85.1959457c-0.2059021-6.5959854-0.1442032-9.2247696,0.1889648-14.1381836
						c2.4863281-0.3481445,4.9155273-0.5131836,7.2880859-0.4946289l0.0136719,2.6113281
						c-1.6450195-0.0126953-3.1728516,0.0249023-4.5839844,0.112793c-0.0498047,1.5849609-0.0800781,2.8017578-0.0898438,3.6508789
						c1.1044922-0.1469727,2.4140625-0.2285156,3.9277344-0.2451172l0.4272461,2.3388672
						c-0.9755859,0.0068359-2.4375,0.1010742-4.3867188,0.2841797c0.0087891,1.6982422,0.0224609,2.9228516,0.0410156,3.6728516
						c1.265625-0.0888672,2.7783203-0.2890625,4.5371094-0.6010742l0.3833008,2.3383789
						c-1.2338867,0.5419922-2.6953125,0.8071289-4.3833008,0.793457L125.3537903,85.1959457z"/>
					<path class="st104" d="M146.493927,70.3311996c0.0208435,8.7004852,0.1895599,10.4915466-0.0751953,15.1157227
						l-2.4458008-0.2524414c-1.8989258-4.1625977-3.4501953-7.28125-4.6538086-9.3574219
						c0.0253906,2.0952148,0.0498047,5.4355469,0.0732422,10.0214844l-2.5551758-0.2963867
						c-0.237793-4.3161621,0.1008759-10.2313156,0.4487305-14.5180664l2.9047852,0.2988281
						c1.4604492,3.8754883,2.7705078,6.8232422,3.9306641,8.8417969c-0.109375-4.2753906-0.2290039-7.6450195-0.3579102-10.1083984
						L146.493927,70.3311996z"/>
					<path class="st104" d="M158.7825012,72.4449692c3.1623535,4.4515305,0.8621979,13.2540741-4.8974609,13.2094727
						c-0.2617188-0.0024414-1.2524414-0.109375-2.9702148-0.3208008c0.3248291-5.2555695,0.3687592-8.5813675,0.0356445-14.1821289
						C153.8974152,70.1691971,156.9836884,69.9151154,158.7825012,72.4449692z M156.4060364,81.3541489
						c1.3599854-2.3827667,1.1555939-5.3850632,0.2475586-7.0366211c-0.6265106-1.1370544-1.4234009-1.6024551-2.6801758-1.1459961
						c0.1211243,3.6863556,0.1796417,6.3550949,0.0068359,9.7236328c0.1020508,0.1142578,0.2480469,0.1713867,0.4375,0.1728516
						C155.0867004,83.0733871,155.7497864,82.5025864,156.4060364,81.3541489z"/>
					<path class="st104" d="M168.5451965,86.1729965c-1.3896484-0.0107422-2.5644531-0.625-3.5239258-1.8427734
						s-1.4453125-3.0615234-1.4580078-5.5317383c-0.0409698-7.9710846,5.6779938-10.4374771,8.730957-6.4804688
						c0.9448242,1.2246094,1.4233398,3.0615234,1.4360352,5.5102539s-0.5004883,4.4541016-1.5405273,6.0170898
						C171.150177,85.4083481,169.934845,86.184227,168.5451965,86.1729965z M168.5871887,83.6681137
						c0.5966797,0.0048828,1.1210938-0.5429688,1.5737305-1.6430664c0.9876556-2.3989105,0.7833405-6.3728333,0.0693359-7.8339844
						c-0.3901367-0.7954102-0.8686523-1.1958008-1.4360352-1.2001953
						C165.9887695,72.9694824,165.4549255,83.6424866,168.5871887,83.6681137z"/>
					<path class="st104" d="M177.7654114,85.7149887c0.1990051-3.942749,0.3252106-8.2908783,0.1875-14.3291016
						c1.597168-0.7231445,3.2617188-1.078125,4.9936523-1.0644531c2.4684601,0.0197678,4.5263367,1.5964661,4.5424805,4.5791016
						c0.0083008,1.6704102-1.1987305,3.2670898-3.6206055,4.7905273c1.3320313,1.6240234,2.6943359,3.4111328,4.0874023,5.3613281
						l-2.0878906,1.4912109c-0.9233398-1.3520508-2.5800781-3.559082-4.9677734-6.6210938
						c-0.0322266,2.1796875-0.0869141,4.2241211-0.1645508,6.1347656L177.7654114,85.7149887z M184.8244934,74.6881332
						c-0.0112152-1.9499588-1.8711395-2.2105026-3.871582-1.5380859c0.012207,2.3920898,0.0141602,4.1689453,0.0058594,5.3291016
						C182.3507233,77.8489761,184.8320007,76.2136612,184.8244934,74.6881332z"/>
				</g>
			</g>
		</g>
	</g>
</g>
</svg>
