<?xml version="1.0" encoding="utf-8"?>
<!-- Generator: Adobe Illustrator 22.0.1, SVG Export Plug-In . SVG Version: 6.00 Build 0)  -->
<svg version="1.1" id="Layer_1" xmlns="http://www.w3.org/2000/svg" xmlns:xlink="http://www.w3.org/1999/xlink" x="0px" y="0px"
	 viewBox="0 0 300 300" style="enable-background:new 0 0 300 300;" xml:space="preserve">
<style type="text/css">
	.st0{fill:#EDC1A4;}
	.st1{fill:#E2E0E0;}
	.st2{fill:#D39E81;}
	.st3{fill:#502E26;}
	.st4{fill:#CCCACA;}
	.st5{fill:#426800;}
	.st6{fill:#538705;}
	.st7{fill:#D47E44;}
	.st8{fill:#73341D;}
	.st9{fill:#BC672E;}
	.st10{fill:#96311D;}
	.st11{fill:#B83E21;}
	.st12{fill:#DE8D82;}
	.st13{fill:#EFBAB4;}
	.st14{fill:#FDD5D0;}
	.st15{fill:#6883CE;}
	.st16{fill:#3D4885;}
	.st17{fill:#3859AE;}
	.st18{fill:#864424;}
	.st19{fill:#FEFEFE;}
	.st20{fill:#FFFFFF;}
	.st21{fill:#A55925;}
	.st22{fill:#F4F2F2;}
	.st23{fill:#3C3E68;}
	.st24{fill:#E8997C;}
	.st25{fill:#F5C46B;}
	.st26{fill:#F7EBDA;}
	.st27{fill:#0E0C0D;}
	.st28{fill:#657C3A;}
	.st29{fill:#576C37;}
	.st30{fill:#7C995D;}
	.st31{fill:#36518C;}
	.st32{fill:#96B7E3;}
	.st33{fill:#A3B3DF;}
	.st34{fill:url(#SVGID_1_);}
	.st35{fill:url(#SVGID_2_);}
	.st36{fill:url(#SVGID_3_);}
	.st37{fill:url(#SVGID_4_);}
	.st38{fill:url(#SVGID_5_);}
	.st39{fill:#266AB7;}
	.st40{fill:#060E0D;}
	.st41{fill:#E0D4C6;}
	.st42{fill:#787E42;}
	.st43{fill:#D3D1D1;}
	.st44{fill:url(#SVGID_6_);}
	.st45{fill:url(#SVGID_7_);}
	.st46{fill:url(#SVGID_8_);}
	.st47{fill:#020508;}
	.st48{fill:#BAB6B6;}
	.st49{fill:#0F0B07;}
	.st50{fill:#2F3A68;}
	.st51{fill:#203257;}
	.st52{opacity:0.5;fill:#FFFFFF;}
	.st53{opacity:0.2;fill:#0E0C0D;}
	.st54{fill:#DD9F9B;}
	.st55{fill:#3E4D9B;}
	.st56{fill:url(#SVGID_9_);}
	.st57{fill:#5F6194;}
	.st58{fill:url(#SVGID_10_);}
	.st59{fill:url(#SVGID_11_);}
	.st60{fill:url(#SVGID_12_);}
	.st61{fill:url(#SVGID_13_);}
	.st62{fill:#070102;}
	.st63{fill:#100805;}
	.st64{fill:#FDA465;}
	.st65{fill:#2A50A1;}
	.st66{fill:#B76C39;}
	.st67{fill:#130602;}
	.st68{fill:url(#SVGID_14_);}
	.st69{fill:url(#SVGID_15_);}
	.st70{fill:url(#SVGID_16_);}
	.st71{fill:url(#SVGID_17_);}
	.st72{fill:url(#SVGID_18_);}
	.st73{fill:url(#SVGID_19_);}
	.st74{fill:#B4BDED;}
	.st75{fill:#100D08;}
	.st76{fill:#F6C85F;}
	.st77{fill:#FECF00;}
	.st78{fill:#2D59E2;}
	.st79{fill:#121F3A;}
	.st80{fill:#BBD0F5;}
	.st81{fill:#020202;}
	.st82{fill:#E2CFB7;}
	.st83{fill:#080805;}
	.st84{fill:#A87D7C;}
	.st85{fill:#182052;}
	.st86{fill:#EAEAEA;}
	.st87{fill:#DDDDDD;}
	.st88{fill:#3D4574;}
	.st89{fill:#ABC5F0;}
	.st90{fill:url(#SVGID_20_);}
	.st91{fill:#4159A8;}
	.st92{fill:#E0D0BD;}
	.st93{fill:#3D53AA;}
	.st94{fill:#0A0000;}
	.st95{fill:#BF6D36;}
	.st96{fill:#385DAE;}
	.st97{fill:#E0DCDC;}
	.st98{fill:#857E78;}
	.st99{fill:#0E213C;}
	.st100{fill:url(#SVGID_21_);}
	.st101{fill:#55608E;}
	.st102{opacity:0.3;fill:#F4F2F2;}
	.st103{opacity:0.3;}
	.st104{fill:#213987;}
	.st105{enable-background:new    ;}
</style>
<g id="Rain_Delivery_1_">
	<g id="Rain_Delivery">
		<g>
			<path class="st3" d="M143.3735046,38.2084007c-0.3782806-0.6930656-0.7647095-1.412384-0.8290253-2.1993408
				c-0.0643158-0.7869606,0.2834015-1.6651306,1.0112305-1.9712448c0.8937531-0.3758965,1.9503174,0.287426,2.3534241,1.1692429
				c0.4031067,0.881813,0.3292542,1.8980484,0.2473297,2.8641663"/>
			<polyline class="st3" points="147.9603882,82.6030731 153.6184235,141.5448914 155.0370941,139.9937439 149.0288696,71.1243057 
							"/>
			<path class="st3" d="M154.2500916,97.7827988c0,0,0.2867279,7.3751831,3.299469,8.3025284
				c3.0127411,0.9273376,0.5040436-6.8010712,0.5040436-6.8010712l-1.1329651-4.93647l-0.8497162-0.242775"/>
			<polygon class="st0" points="156.6580658,109.4623795 157.8178558,104.7860565 165.0163879,106.5856934 165.1557617,110.7318878 
				166.3286285,113.4093094 162.5419006,115.2089462 157.8553467,113.7467422 155.9432373,111.7221527 			"/>
			<g>
				<path class="st1" d="M163.9215088,275.0840149c0.3482361,0.658783,1.0634308,0.9634705,1.7489777,1.1476746
					c6.8231049,1.8356323,18.3678131,2.4072876,29.1855774-0.0513611c1.068634-0.2377014,2.969986-0.4771118,3.8093872-1.1705017
					c0.2725677-0.2216492,0.3716278-0.5616455,0.3786011-0.9034729c0.030304-2.4668884-1.5307617-4.534729-3.6812439-5.8047791
					c-1.3469543-0.8018799-2.8035126-1.2093811-4.3014984-1.6331787c-5.4899902-1.576355-6.8596649-1.7364807-7.594635-2.7087097
					c-0.0291595-0.0406189-0.0568695-0.0779724-0.0828247-0.1199951c-0.1730804-0.2746582-0.2158203-0.6518555-0.3465118-0.9602356
					c-0.2600098-0.6136169-2.551651-1.572113-2.9581299-2.1026917c-5.0015259,1.4391785-9.792923,0.4803772-14.5715179-1.1996765
					c0,0-1.5271454,6.1029358-1.2722015,12.1690063C163.9261322,272.7297668,163.405777,274.1022644,163.9215088,275.0840149z"/>
				<path class="st13" d="M177.6384735,267.9365845c0.072052,0.0865784,0.1900635,0.1302795,0.3022461,0.134491
					c0.3523712,0.0137634,0.6503143-0.2455444,0.9170074-0.4456787c0.3041229-0.2277832,0.5920563-0.4750977,0.8785553-0.725708
					c1.4911652-1.3018494,1.2000732-1.2427979,4.1525269-2.5305481c-0.1610565-0.1161499-0.3052826-0.2548828-0.4221344-0.4094543
					c-1.5756836,0.6872253-4.303772,1.5731201-5.5675812,3.3265076
					C177.7728424,267.4592896,177.4565125,267.7113647,177.6384735,267.9365845z"/>
				<path class="st13" d="M179.4306183,269.2443848c0.3135376,0.7068481,3.1573944-1.2531738,5.2585602-2.1413574
					c1.233551-0.5227661,2.6013794-0.7463684,3.8986053-1.0532837c0.0443573-0.0117188,0.0918884-0.0248413,0.1367035-0.0443726
					c-0.3786926-0.1089783-0.760437-0.2164001-1.1391449-0.3253479c-1.9540863,0.2319336-3.8465424,0.8670349-5.6405945,1.7104797
					c-0.3461609,0.1625977-2.159256,1.0412292-2.4210663,1.3603821
					C179.4164429,268.888916,179.3595123,269.0813904,179.4306183,269.2443848z"/>
				<path class="st12" d="M164.2358246,271.7446289c-0.3084564,0.9860535-0.8298187,2.3562927-0.3137512,3.337677
					c0.34758,0.6612549,1.0624847,0.9651489,1.7477417,1.1496582c6.7780762,1.822052,18.2201843,2.4234009,29.186554-0.0504761
					c1.0688782-0.2396545,2.9689026-0.4784241,3.8094482-1.1708374c0.5884094-0.4848022,0.3578186-1.475708,0.2177124-2.3158875
					c-9.4514923,1.5021667-19.0668793,1.9573669-28.5453796,0.3865356
					C168.2869568,272.7414246,166.2664185,272.1921997,164.2358246,271.7446289z"/>
				<path class="st2" d="M180.2349701,250.9098053c-4.1615448-0.0561829-10.7447357-0.4134064-14.7261047-1.7137299
					c-0.2630463,2.7461243,0.4365845,7.6625977,0,10.3817749c4.7767334,1.6807251,9.5686798,2.6365051,14.5703125,1.1988525
					C179.9689484,259.7506409,180.1424561,251.8078613,180.2349701,250.9098053z"/>
			</g>
			<g>
				<path class="st1" d="M117.332016,270.020874c0.1932449,0.7196655,0.8229141,1.1755676,1.4504318,1.5074158
					c6.245079,3.3050232,17.3745651,6.426239,28.4682083,6.4313354c1.0947418,0.0055847,3.0017853,0.1943665,3.9742126-0.2952881
					c0.68396-0.3378601,0.6754761-1.3720093,0.7283478-2.2082214c-0.0518799-1.9681396-1.0183258-3.703949-2.458786-5.0659485
					c-1.1352386-1.0809937-2.4649353-1.8017883-3.8313904-2.5476685c-5.1924133-2.8606567-5.9242096-3.1287537-6.4827881-3.8346863
					c-0.575592-0.653595-0.4055939-1.1168823-0.4993896-1.641571c-0.1172485-0.6560364-0.2669525-1.3520203-0.5454712-1.9596558
					c-5.196228,0.2925415-9.6550446-1.7063599-13.9412308-4.4057007c-1.9440918,3.6246033-3.4630051,7.431488-5.8147202,10.835144
					C117.8593445,267.7264404,117.0471878,268.9491272,117.332016,270.020874z"/>
				<path class="st13" d="M132.2937317,266.0981445c0.0510254,0.1004028,0.1563873,0.16922,0.2648468,0.1982422
					c0.3404999,0.0916748,0.6885986-0.0950012,0.9930878-0.230896c0.3471069-0.1545715,0.6827698-0.3317871,1.0177765-0.5124817
					c1.7430267-0.9382019,1.4460907-0.945282,4.6108093-1.5451965c-0.1312408-0.1490173-0.2410736-0.3163147-0.3206787-0.492981
					c-1.5448151,0.2928467-4.5110016,0.5475769-6.1672974,2.007019
					C132.5307465,265.6625671,132.1663361,265.8381042,132.2937317,266.0981445z"/>
				<path class="st13" d="M133.7507019,267.7712708c0.1080322,0.5511475,1.7761993,0.0041504,2.12323-0.0758362
					c4.4246216-1.0566101,2.9859314-0.9674988,7.5147247-1.0054626c0.0458679-0.0015869,0.0951233-0.0038147,0.143158-0.0129089
					c-0.345047-0.1903381-0.6934052-0.3798523-1.0384521-0.5701904c-3.6487732-0.3874817-8.1069794,0.8661194-8.5423279,1.2038879
					C133.8158264,267.4215088,133.7175751,267.5965271,133.7507019,267.7712708z"/>
				<path class="st12" d="M118.3800964,266.8346558c-0.5197372,0.8929443-1.3323822,2.1131897-1.0471344,3.1846619
					c0.1920395,0.7219238,0.8216095,1.177002,1.4487762,1.5090942c6.2041931,3.2817993,17.2270203,6.4091797,28.4689484,6.4324341
					c1.0954132,0.0036926,3.0010223,0.1928101,3.97435-0.2956238c0.6813812-0.342041,0.6766052-1.359375,0.7265778-2.2097168
					c-9.5490723-0.6342773-19.0254517-2.3258057-27.9184113-5.9623718
					C122.1086884,268.7062378,120.2605743,267.7220154,118.3800964,266.8346558z"/>
				<path class="st2" d="M141.6460724,251.7610626c-4.0451508-0.9789581-10.4386749-3.6948395-14.0318527-5.8468628
					c-0.8663254,2.6191406-2.389534,7.5333862-3.4190826,10.0877228c4.2842026,2.6995544,8.7442551,4.6956177,13.9402542,4.4046326
					C138.2557831,259.3816223,141.3564301,252.6161499,141.6460724,251.7610626z"/>
			</g>
			<path class="st3" d="M147.0219574,111.4468231c-6.3929749-0.040329-37.1062546,43.8127441-19.3602142,62.8128815
				c15.4364319,16.527298,40.9130402-19.6991119,40.9130402-19.6991119L147.0219574,111.4468231z"/>
			<path class="st15" d="M183.499176,252.3474426c0,0-13.436615,2.8099518-21.8665466,1.8827515
				c-0.9369202-6.4537048-8.9299622-61.5121765-9.7993011-67.5003662V158.544342
				c2.6368256,0.5174408-9.5444794-1.8729858,25.767746,5.0566254c0,0,0.1711578,1.2160492,0.4564209,3.3876648
				C179.7620392,179.9438477,185.5496063,226.9078217,183.499176,252.3474426z"/>
			<path class="st15" d="M169.4100037,155.4991608v18.7605438c-4.8939972,16.666275-18.3835297,62.6042786-23.2893677,79.3109283
				c-9.8349915-0.1570587-19.7947388-5.0886536-19.7947388-5.0886536
				c0.5594864-3.3516998-3.1120758,18.6433563,14.8486786-88.9533386L169.4100037,155.4991608z"/>
			<path class="st7" d="M196.9999542,158.2983093c-2.368042,5.221344-10.4711151,2.181839-14.0000305-3.123703
				c-0.5063324-0.7560272-0.6917725-1.6046906-1.1161499-2.3999023
				c0.0549164,0.1028137-10.4175262-19.4194946-10.4589844-19.5023041l-0.2353668-18.3969803
				c0,0,20.1335144,25.1866226,22.7794495,30.6210709c1.185379,2.4312134,3.2985229,6.6372223,3.2985229,9.3321381
				C197.267395,156.062439,197.5455475,157.1001892,196.9999542,158.2983093z"/>
			<path class="st9" d="M194.8318024,160.5199127c-2.3199005,1.2034149-5.6425934,0.0014954-7.8344269-1.4156036
				c-1.2921295-2.4606476-1.0295258-5.3336792,0.4564514-7.4671326l2.3143158,0.1568909
				C193.8259277,150.19104,197.7203064,156.7456818,194.8318024,160.5199127z"/>
			<path class="st23" d="M178.0574951,166.9886322c-0.8059235,0.3280487-1.6581879,0.5706024-2.5033264,0.7845917
				c-8.9796143,2.2641907-14.877182,1.1120148-23.1795044,0.3113251c-4.1273804-0.3980408-8.2467499-1.4806061-12.0374603-2.7956696
				l0.8373718-5.7602386l28.2354279-4.02948v6.4936218l8.1910706,1.6081848
				C177.6010742,163.6009674,177.7722321,164.8170166,178.0574951,166.9886322z"/>
			<path class="st7" d="M177.6010742,163.6009674c0,0-20.88237,5.1777954-35.524292-2.6031036
				c-5.1738129-0.5072174,0.9619141-26.9069214,4.1472321-48.7147446c0,0,6.2048035-1.4122849,10.4340515-2.8207397
				c0,0,0.7702637,3.6088104,5.0637054,3.9154358c0,0,3.7085876,0.2531662,3.4339905-2.6459274
				c0,0,4.3790436,2.2287369,6.0336609,4.1435318c0,0,2.9205475,9.4463501,3.9475098,17.0169144
				C176.1604156,139.4628906,177.6010742,163.6009674,177.6010742,163.6009674z"/>
			<path class="st9" d="M147.2474518,144.5052338c-0.5027771,0.9627075-1.0662231,1.9147949-1.8542938,2.663681
				c-1.380722,1.3000946-3.1699829,1.6853943-4.7641754,0.5813904c0.7988129-6.7753601,2.3500061-15.4550629,3.8334198-24.3485794
				l4.7784576-4.7748947C152.1043549,127.0462265,151.3661652,136.6243896,147.2474518,144.5052338z"/>
			<path class="st3" d="M167.7871246,112.2311478c0,0,4.099411,18.5663986,6.8091278,23.8468857l0.615921-3.5967102
				c0,0-2.0118713-14.3494263-4.0236206-17.6048431C171.1885529,114.8764801,170.4634247,112.8958054,167.7871246,112.2311478z"/>
			<path class="st3" d="M149.1316071,110.9812698c0,0,3.7705841,1.1255951,4.5382996,8.6566238
				c0.7677307,7.5310287-2.0111237,25.3419037-10.0471649,32.316452l-1.0614929-3.2406921
				c0,0,3.7872314-4.833786,5.0990906-8.722168s3.4085846-9.6833954,2.9942627-14.7115021
				c-0.4143066-5.0281143-4.4295197-12.9955063-4.4295197-12.9955063S147.0366211,110.7282562,149.1316071,110.9812698z"/>
			<g>
				<polygon class="st18" points="190.791214,129.2264557 175.2494812,126.7434692 148.0274811,131.9986572 
					169.5806427,144.1229248 185.0367279,136.3573151 				"/>
				<polygon class="st11" points="148.0274811,131.9986572 164.4131622,134.7375183 164.4131622,163.6401215 
					147.9603882,159.5282898 				"/>
				<polyline class="st11" points="164.4131622,134.7375183 190.791214,129.2264557 190.791214,156.5552368 
					164.4131622,163.6401215 				"/>
				<polygon class="st19" points="170.7715912,136.121994 170.9730072,144.9104309 186.9973602,141.3355865 
					186.9973602,132.9884033 				"/>
			</g>
			<path class="st0" d="M151.1897125,164.635437c1.4074097-0.4146881,1.905365-0.5252228,3.3127899-0.9399261
				c3.6316376,1.4952698,7.5603485,2.1014557,11.463913,1.6692963c1.9526367-0.2161865,1.2105103-1.6716614,0.4860535-1.6229095
				c0.4224854,0.0828857,0.8166351,0.0044556,1.2423859-0.0596466c0.4257355-0.0641022,0.850647-0.3054962,1.0150146-0.7034302
				c0.1643829-0.397934-0.032196-0.9409027-0.4497223-1.0459595c0.4580994,0.0865936,0.9297028,0.1732483,1.3871002,0.0830078
				c0.4573822-0.0902405,0.903183-0.4006348,1.010025-0.8544312c0.1068573-0.4537811-0.2645569-0.9974213-0.7281342-0.9481506
				c1.8440857-0.2308807,1.9282379-1.5594177,0.9541016-2.1147614c-1.0584412-0.6034088-8.2596436-1.0914459-9.4815216-1.1523743
				c1.2795868-0.4035187,2.4022064-1.0019684,3.4824371-1.7977448c0.4962311-0.3655701,1.0095673-0.8686829,0.9607391-1.4830933
				c-0.0464783-0.5847321-0.6201935-1.0164337-1.2007294-1.1003571c-0.5805511-0.0839233-1.1634064,0.0975037-1.7195282,0.2840729
				c-3.17453,1.065033-6.2670593,2.3744049-9.2412262,3.9127045c-1.4826355-0.2076416-2.0036316-0.8199615-3.4906311-0.6459503
				C149.6907349,156.17453,150.6876526,164.6941833,151.1897125,164.635437z"/>
			<path class="st7" d="M146.2250824,112.2844772c0,0-8.7789612,7.1307449-15.2549591,23.7997818
				c-6.1319046,15.7833557-0.6783447,22.7845459,10.2300568,27.8262177c0,0,7.2586212,2.230545,9.936676,2.6935272
				c2.5012665,0.5615387,5.3030853-11.9151917,2.8018036-12.4767303c0,0-7.6822205-2.8683624-10.315918-8.0566406
				c0,0,0.914444-10.6746216,5.5453796-16.1926575C153.799057,124.3599319,150.3159332,111.2940216,146.2250824,112.2844772z"/>
			<g>
				<path class="st23" d="M154.9764709,222.0804901l14.0737305-47.9262695
					c0.1394196-0.4779968,0.8587036-0.2643585,0.7197266,0.2109375l-14.0737305,47.9262695
					C155.5572815,222.7663116,154.8370056,222.5574799,154.9764709,222.0804901z"/>
			</g>
			<g>
				<path class="st23" d="M170.3988342,253.1259003l-6.9946289-59.6386719
					c-0.0239258-0.2055664,0.1230469-0.3916016,0.3291016-0.4160156c0.199707-0.0214844,0.3916016,0.1230469,0.4160156,0.3291016
					l6.9946289,59.6386719C171.2012329,253.5311127,170.4567719,253.6183167,170.3988342,253.1259003z"/>
			</g>
			<path class="st0" d="M183.1496887,161.2383881c-2.0516968-0.6201324-4.0170593-1.5236969-5.8158569-2.6900177
				c-1.6483917-1.0688019-0.332428-2.036972,0.2932587-1.6685638c-0.4148102-0.1153412-0.7319336-0.3621826-1.0837402-0.6103973
				c-0.3517914-0.2481995-0.6233368-0.65448-0.5918274-1.0838776c0.0315094-0.4293823,0.4506683-0.8265686,0.8709869-0.7332611
				c-0.448288-0.128006-0.9086914-0.2620239-1.2770538-0.5477753s-0.627655-0.763092-0.5196686-1.2166138
				c0.1079712-0.4535217,0.6837158-0.7729034,1.0759888-0.5209808c-0.2956085-0.1977234-0.5839844-0.4225006-0.7723236-0.7241669
				c-0.4814758-0.7712402-0.0262604-1.5463409,0.8677673-1.5939026c1.2166595-0.064743,7.8721466,2.7280731,8.9916229,3.2215118
				c-0.9627991-0.9344482-1.6978912-1.9727478-2.3065948-3.1684265c-1.0688324-2.0995026,0.7081451-3.2645874,2.7825165-1.17659
				c0.5802155,0.5840302,1.187088,1.1578979,1.664093,1.8261261c0.4115906,0.5765991,0.8641052,1.083847,1.4446869,1.4975586
				c1.5648041,1.1150513,1.8683624,0.5612488,3.074295,1.1638641c0.9843597,0.4918976,1.8127289,1.3036652,2.2959747,2.2949219
				c0.546875,1.1217804,0.8741455,3.2536774,0.0129547,4.3304291c-0.3210602,0.4014435-1.0746613,0.6723022-1.5276794,0.8849182
				C190.0538635,161.9317322,185.8728333,162.0614471,183.1496887,161.2383881z"/>
			<path class="st0" d="M168.1832733,108.0823059c-1.1981201,1.750946-3.9332275,2.4355927-5.9158936,2.0718536
				c-1.7898407-0.3290939-3.267807-1.5790482-4.2292786-3.1736832c-0.082016-0.1497421-0.164032-0.2996597-0.2460327-0.4457474
				c-0.0252228-0.1008606-0.7438812-1.2695923-0.823761-2.977623c-0.4421844,0.2317505-1.0305328,0.1354599-1.5226898,0.0428314
				c-1.4801483-0.2831802-2.1769714-1.9039307-1.4263763-3.0632935c0.3637238-0.5561371,1.2623596-0.8878326,1.9220581-0.8094788
				l-0.994873-2.0504379c0.235321-0.8521423,0.977066-2.0361633,1.7294464-2.5033264
				c0.7488861-0.4706421,1.6082611-0.7274704,2.471283-0.9235306c2.8812408-0.6560822,6.0371704-0.4279861,8.9255981,0.1997147
				C168.0766144,94.5495911,169.6083527,105.9968872,168.1832733,108.0823059z"/>
			<path class="st3" d="M168.7823792,104.6303787c-0.0392151,1.5797882-0.2068024,2.8778534-0.5991058,3.4519272
				c-1.1981201,1.750946-3.9332275,2.4355927-5.9158936,2.0718536c-1.7898407-0.3290939-3.267807-1.5790482-4.2292786-3.1736832
				c-0.082016-0.1497421-0.164032-0.2996597-0.2460327-0.4457474c-0.0024719-0.0098801-0.2369232-0.4390411-0.2425079-0.4494019
				c0,0-0.6454163-1.3729401-0.5812531-2.5282211c0.0677338-1.1518097-1.0270081-3.8299408-1.0270081-3.8299408l-0.994873-2.0504379
				l4.543045-2.1430664c-0.3245087,1.9647675-0.3031464,3.990303,0.0641632,5.9481049
				C160.552002,106.8316574,165.4037018,102.0209198,168.7823792,104.6303787z"/>
			<path class="st15" d="M168.4940186,93.1545105c0,0,4.6916656-0.4200516,6.7121887,1.0694122
				c0.4187164,0.30867,0.1774902,0.9797287-0.3427124,0.9797287h-7.0763702c0,0-2.6045685,0-9.0534821,1.8705139
				c0,0-4.0048218,1.1464005-4.483551,0.7086334c0,0-0.9772797-2.9178619,1.7200623-6.0315094
				s7.9147949-3.7475357,10.1211243-2.0435333C168.2976227,91.4117508,168.4940186,93.1545105,168.4940186,93.1545105z"/>
			<path class="st3" d="M163.1655884,97.6125031c0.1736145-0.0370178,0.3534851-0.0741043,0.5270996-0.0370483
				c0.4184265,0.0892944,0.4927521,0.5483627,0.101181,0.7476654c-0.1919098,0.0976868-0.1073456,0.0745544-2.2109528,0.2240906
				c-0.2533112,0.018013-1.1049957,0.2323837-1.0635223-0.0914917
				C160.588089,97.9192963,162.7643585,97.6125031,163.1655884,97.6125031z"/>
			<path class="st3" d="M166.3242493,97.398201c-0.1736145-0.0370178-0.3534851-0.0741043-0.5270996-0.0370483
				c-0.4184265,0.0892944-0.4927521,0.5483627-0.101181,0.7476654c0.1919098,0.0976791,0.1073456,0.0745544,2.210968,0.2240906
				c0.2532959,0.018013,1.1049805,0.2323837,1.0635071-0.0914917
				C168.9017487,97.7049942,166.7254791,97.398201,166.3242493,97.398201z"/>
			<ellipse class="st3" cx="166.9453888" cy="99.4607925" rx="0.4381257" ry="0.6729994"/>
			<ellipse class="st3" cx="163.0664368" cy="99.5883865" rx="0.4381257" ry="0.6729994"/>
			<path class="st2" d="M166.1835327,101.8836441c0.1398468,0.3752747-0.0985413,0.7964096-0.4964752,0.8414688
				c-0.4225159,0.0478363-0.8637238-0.0551758-1.2086029-0.3052673c0.0444641-0.1840515,0.2739563-0.2481384,0.4632874-0.2471848
				c0.1893463,0.0009537,0.400589,0.0262375,0.5474091-0.0933228c0.3677521-0.2994919-0.035675-0.8695679-0.507019-1.8184967
				c-0.0857544-0.1726151-0.2022095-0.5914688,0.133255-0.4946976c0.2327881,0.0671539,0.3980865,0.5955429,0.4949493,0.7914047
				C165.8238831,100.9894028,166.0153046,101.4321976,166.1835327,101.8836441z"/>
			<path class="st20" d="M166.9487,105.1113052c0.3175659-0.005188,0.7134399,0.0399399,0.8231964,0.3379898
				c0.0740509,0.2011337-0.0357819,0.4337234-0.2061005,0.5638351c-0.6493835,0.4960785-4.2262573,0.4299088-4.2848358-0.3416977
				C163.2165375,104.8230438,166.4272003,105.1198273,166.9487,105.1113052z"/>
			<path class="st2" d="M156.2525177,102.0954514c-0.2167969-0.4194336-0.433609-0.8388748-0.6504211-1.2583084
				c-0.07547-0.1460114-0.2410278,0.0595703-0.3500824,0.1825485s-0.1364288,0.3026428-0.1059418,0.4641571
				C155.2213745,101.8828125,155.8554535,102.1801758,156.2525177,102.0954514z"/>
			<g>
				<path class="st2" d="M170.3421936,160.5043182c-1.3660278-0.1383362-3.0841827-0.080246-6.2412109-1.0454102
					c-0.4749146-0.1438904-0.2547607-0.8629456,0.21875-0.7167969c1.9599609,0.5986328,3.9907227,0.9394531,6.0356445,1.012207
					C170.8440247,159.7727509,170.8291626,160.5043182,170.3421936,160.5043182z"/>
			</g>
			<g>
				<path class="st2" d="M163.2909241,161.4296112c-0.4610748-0.1797638-0.1895752-0.8794708,0.2734375-0.6982422
					c1.6010742,0.6274414,3.3549805,0.8955078,5.0693359,0.7788086c0.515213-0.0129852,0.5293579,0.7152252,0.0507813,0.7480469
					C166.8800964,162.381897,165.0096283,162.1029053,163.2909241,161.4296112z"/>
			</g>
			<g>
				<path class="st2" d="M161.3207092,162.6727753c-0.3967133-0.2963715,0.0504456-0.8988037,0.4492188-0.6005859
					c1.3710938,1.0258789,3.1376953,1.5454102,4.8461914,1.4160156c0.5151825-0.0138702,0.5331879,0.7130432,0.0556641,0.7480469
					C164.7345428,164.3775024,162.797287,163.7780762,161.3207092,162.6727753z"/>
			</g>
			<g>
				<path class="st2" d="M182.7044983,155.1151581c-2.6191406-0.2895508-5.1274414-1.2646484-7.253418-2.8203125
					c-0.4004669-0.2930603,0.0417938-0.8989258,0.4423828-0.6054688c2.0209961,1.4785156,4.4042969,2.4052734,6.8930664,2.6806641
					c0.2060547,0.0224609,0.3544922,0.2080078,0.331543,0.4135742
					C183.0944672,154.9993744,182.893219,155.1421051,182.7044983,155.1151581z"/>
			</g>
			<g>
				<path class="st2" d="M183.0882874,156.9398651c-2.4179688-0.2050781-4.7817383-0.9985352-6.8344727-2.2949219
					c-0.4207153-0.2648621-0.0169067-0.8999786,0.4003906-0.6337891c1.9516602,1.2319336,4.1987305,1.9863281,6.4975586,2.1816406
					C183.6462708,156.2348785,183.5820313,156.9847412,183.0882874,156.9398651z"/>
			</g>
			<g>
				<path class="st2" d="M183.3924866,159.0292206c-2.1943359-0.3413086-4.3417969-0.9609375-6.3823242-1.8408203
					c-0.4567719-0.1967621-0.1567688-0.8860779,0.296875-0.6884766c1.9824219,0.8549805,4.0688477,1.456543,6.2006836,1.7880859
					C183.9963837,158.3638153,183.8849182,159.1030731,183.3924866,159.0292206z"/>
			</g>
			<path class="st13" d="M209.0808105,79.6300125c-8.8185272-26.9970436-35.3503571-45.3373108-64.84198-42.6845322
				c-29.4916153,2.6527748-52.324585,25.4334106-56.183754,53.5708084L209.0808105,79.6300125z"/>
			<path class="st22" d="M189.1064453,81.4267044c-6.7261505-27.1852493-25.1107483-46.258358-44.8676147-44.4812241
				c-19.7568741,1.7771301-34.4425888,23.8249207-36.2094269,51.7741165L189.1064453,81.4267044z"/>
			<path class="st13" d="M165.1548615,83.5811539c-4.2171783-27.4109306-12.8322144-47.3628159-20.9160309-46.6356735
				c-8.0838165,0.7271385-12.9999847,21.8961563-12.257843,49.6196671L165.1548615,83.5811539z"/>
			<path class="st22" d="M210.9008026,52.0743294c-0.7845001,1.0555153-2.3321228,1.6403847-3.469696,0.9771614
				c-0.7689056-0.4532089-1.1842957-1.3792648-1.2088165-2.2858467c-0.0249939-0.898632,0.2781525-1.7723656,0.6489868-2.5924683
				c0.7702637-1.7081184,1.996933-3.8619804,3.5624084-4.9746056c1.2623596-0.8949776,1.1803131,0.2604828,1.3336639,1.4906387
				c0.0820618,0.6632233,0.1355133,1.330101,0.1604919,2.0004654
				C211.9872894,48.5118065,211.9449768,50.6758728,210.9008026,52.0743294z"/>
			<path class="st1" d="M210.9008026,52.0743294c-0.7845001,1.0555153-2.3321228,1.6403847-3.469696,0.9771614
				c-0.6596527-0.3888092-1.0555115-1.1232452-1.173172-1.8864136c2.7324524-0.0349045,4.6655273-1.9754257,5.6699066-4.4754028
				C211.9872894,48.5118065,211.9449768,50.6758728,210.9008026,52.0743294z"/>
			<path class="st22" d="M131.8178558,101.8500443c-0.7845001,1.0555115-2.3321228,1.6403809-3.469696,0.9771576
				c-0.7689056-0.4532089-1.1843033-1.3792648-1.2088242-2.2858429c-0.0249863-0.8986359,0.2781601-1.7723694,0.6489944-2.5924759
				c0.7702637-1.7081146,1.996933-3.8619766,3.5624084-4.9746017c1.2623596-0.8949814,1.1803131,0.2604828,1.3336639,1.4906387
				C132.9511108,96.6206589,133.1208191,100.1049728,131.8178558,101.8500443z"/>
			<path class="st1" d="M131.8178558,101.8500443c-0.7845001,1.0555115-2.3321228,1.6403809-3.469696,0.9771576
				c-0.6596451-0.3888092-1.0555115-1.1232452-1.173172-1.8864136c2.7324524-0.0349045,4.6655273-1.9754257,5.6699066-4.4754028
				C132.9043427,98.2875137,132.86203,100.4515839,131.8178558,101.8500443z"/>
			<path class="st22" d="M97.1287766,114.9210434c-0.7844925,1.0555115-2.3321152,1.6403809-3.4696884,0.9771576
				c-0.7689133-0.4532089-1.1843033-1.3792648-1.2088242-2.2858429c-0.0249863-0.8986359,0.2781601-1.7723694,0.6489868-2.5924759
				c0.7702637-1.7081146,1.9969406-3.8619766,3.5624084-4.9746017c1.2623672-0.8949814,1.1803131,0.2604828,1.3336716,1.4906387
				C98.2620392,109.691658,98.4317474,113.175972,97.1287766,114.9210434z"/>
			<path class="st1" d="M97.1287766,114.9210434c-0.7844925,1.0555115-2.3321152,1.6403809-3.4696884,0.9771576
				c-0.6596527-0.3888092-1.0555115-1.1232452-1.173172-1.8864136c2.7324524-0.0349045,4.6655273-1.9754257,5.6699066-4.4754028
				C98.215271,111.3585129,98.1729507,113.522583,97.1287766,114.9210434z"/>
			<path class="st22" d="M106.989418,45.2014618c-0.7844925,1.0555115-2.3321152,1.6403809-3.4696884,0.9771576
				c-0.7689133-0.4532089-1.1843033-1.3792648-1.2088242-2.2858429c-0.0249863-0.8986359,0.2781601-1.7723694,0.6489868-2.5924721
				c0.7702637-1.7081184,1.9969406-3.8619804,3.5624084-4.9746056c1.2623672-0.8949776,1.1803131,0.2604828,1.3336716,1.4906387
				C108.1226807,39.9720802,108.2923889,43.4563942,106.989418,45.2014618z"/>
			<path class="st1" d="M106.989418,45.2014618c-0.7844925,1.0555115-2.3321152,1.6403809-3.4696884,0.9771576
				c-0.6596527-0.3888092-1.0555115-1.1232452-1.173172-1.8864136c2.7324524-0.0349045,4.6655273-1.9754219,5.6699066-4.4754028
				C108.0759125,41.6389351,108.0335922,43.8030014,106.989418,45.2014618z"/>
			<path class="st20" d="M147.2126923,66.7428284c-0.7845001,1.0555115-2.3321228,1.6403809-3.4696808,0.9771576
				c-0.6596527-0.3888092-1.0555267-1.1232452-1.1731873-1.8864136c-0.1624298-1.0030518,0.2007294-2.0794067,0.6133423-2.9919052
				c0.7702637-1.7081146,1.996933-3.8619766,3.5624084-4.9746056c1.2623749-0.8949738,1.1803131,0.2604866,1.3336639,1.4906425
				C148.3459473,61.513443,148.5156708,64.997757,147.2126923,66.7428284z"/>
			<path class="st22" d="M147.2126923,66.7428284c-0.7845001,1.0555115-2.3321228,1.6403809-3.4696808,0.9771576
				c-0.6596527-0.3888092-1.0555267-1.1232452-1.1731873-1.8864136c2.7324677-0.0349045,4.6655426-1.9754257,5.6699219-4.4754066
				C148.2991943,63.1803017,148.2568665,65.344368,147.2126923,66.7428284z"/>
			<path class="st22" d="M175.0222321,31.1934299c-0.7845001,1.0555172-2.3321228,1.6403828-3.469696,0.9771633
				c-0.7689056-0.4532108-1.1843109-1.3792686-1.2088165-2.2858486c-0.0249939-0.898632,0.2781525-1.7723656,0.6489868-2.5924702
				c0.7702637-1.7081165,1.996933-3.8619804,3.5624084-4.9746056c1.2623596-0.8949776,1.1803131,0.2604828,1.3336639,1.4906406
				C176.1554871,25.9640484,176.3251953,29.4483643,175.0222321,31.1934299z"/>
			<path class="st1" d="M175.0222321,31.1934299c-0.7845001,1.0555172-2.3321228,1.6403828-3.469696,0.9771633
				c-0.6596527-0.3888111-1.0555115-1.1232491-1.173172-1.8864174c2.7324524-0.0349026,4.6655273-1.9754238,5.6699066-4.4754028
				C176.1087189,27.6309052,176.0664063,29.7949715,175.0222321,31.1934299z"/>
			<path class="st22" d="M192.6112061,102.8829803c-0.7845001,1.0555115-2.3321228,1.6403809-3.4696808,0.9771576
				c-0.6596527-0.3888092-1.0555267-1.1232452-1.1731873-1.8864136c-0.1624298-1.0030518,0.2007294-2.0794067,0.6133423-2.9919052
				c0.7702637-1.7081146,1.996933-3.8619766,3.5624084-4.9746017c1.2623596-0.8949738,1.1803131,0.2604828,1.3336639,1.4906387
				c0.0820618,0.6632233,0.1355133,1.330101,0.1605072,2.0004654
				C193.6977081,99.3204575,193.6553802,101.48452,192.6112061,102.8829803z"/>
			<path class="st1" d="M192.6112061,102.8829803c-0.7845001,1.0555115-2.3321228,1.6403809-3.4696808,0.9771576
				c-0.6596527-0.3888092-1.0555267-1.1232452-1.1731873-1.8864136c2.7324677-0.0349045,4.6655426-1.9754257,5.6699219-4.4754028
				C193.6977081,99.3204575,193.6553802,101.48452,192.6112061,102.8829803z"/>
		</g>
	</g>
</g>
</svg>
