<?xml version="1.0" encoding="utf-8"?>
<!-- Generator: Adobe Illustrator 22.0.1, SVG Export Plug-In . SVG Version: 6.00 Build 0)  -->
<svg version="1.1" id="Layer_1" xmlns="http://www.w3.org/2000/svg" xmlns:xlink="http://www.w3.org/1999/xlink" x="0px" y="0px"
	 viewBox="0 0 300 300" style="enable-background:new 0 0 300 300;" xml:space="preserve">
<style type="text/css">
	.st0{fill:#EDC1A4;}
	.st1{fill:#E2E0E0;}
	.st2{fill:#D39E81;}
	.st3{fill:#502E26;}
	.st4{fill:#CCCACA;}
	.st5{fill:#426800;}
	.st6{fill:#538705;}
	.st7{fill:#D47E44;}
	.st8{fill:#73341D;}
	.st9{fill:#BC672E;}
	.st10{fill:#96311D;}
	.st11{fill:#B83E21;}
	.st12{fill:#DE8D82;}
	.st13{fill:#EFBAB4;}
	.st14{fill:#FDD5D0;}
	.st15{fill:#6883CE;}
	.st16{fill:#3D4885;}
	.st17{fill:#3859AE;}
	.st18{fill:#864424;}
	.st19{fill:#FEFEFE;}
	.st20{fill:#FFFFFF;}
	.st21{fill:#A55925;}
	.st22{fill:#F4F2F2;}
	.st23{fill:#3C3E68;}
	.st24{fill:#E8997C;}
	.st25{fill:#F5C46B;}
	.st26{fill:#F7EBDA;}
	.st27{fill:#0E0C0D;}
	.st28{fill:#657C3A;}
	.st29{fill:#576C37;}
	.st30{fill:#7C995D;}
	.st31{fill:#36518C;}
	.st32{fill:#96B7E3;}
	.st33{fill:#A3B3DF;}
	.st34{fill:url(#SVGID_1_);}
	.st35{fill:url(#SVGID_2_);}
	.st36{fill:url(#SVGID_3_);}
	.st37{fill:url(#SVGID_4_);}
	.st38{fill:url(#SVGID_5_);}
	.st39{fill:#266AB7;}
	.st40{fill:#060E0D;}
	.st41{fill:#E0D4C6;}
	.st42{fill:#787E42;}
	.st43{fill:#D3D1D1;}
	.st44{fill:url(#SVGID_6_);}
	.st45{fill:url(#SVGID_7_);}
	.st46{fill:url(#SVGID_8_);}
	.st47{fill:#020508;}
	.st48{fill:#BAB6B6;}
	.st49{fill:#0F0B07;}
	.st50{fill:#2F3A68;}
	.st51{fill:#203257;}
	.st52{opacity:0.5;fill:#FFFFFF;}
	.st53{opacity:0.2;fill:#0E0C0D;}
	.st54{fill:#DD9F9B;}
	.st55{fill:#3E4D9B;}
	.st56{fill:url(#SVGID_9_);}
	.st57{fill:#5F6194;}
	.st58{fill:url(#SVGID_10_);}
	.st59{fill:url(#SVGID_11_);}
	.st60{fill:url(#SVGID_12_);}
	.st61{fill:url(#SVGID_13_);}
	.st62{fill:#070102;}
	.st63{fill:#100805;}
	.st64{fill:#FDA465;}
	.st65{fill:#2A50A1;}
	.st66{fill:#B76C39;}
	.st67{fill:#130602;}
	.st68{fill:url(#SVGID_14_);}
	.st69{fill:url(#SVGID_15_);}
	.st70{fill:url(#SVGID_16_);}
	.st71{fill:url(#SVGID_17_);}
	.st72{fill:url(#SVGID_18_);}
	.st73{fill:url(#SVGID_19_);}
	.st74{fill:#B4BDED;}
	.st75{fill:#100D08;}
	.st76{fill:#F6C85F;}
	.st77{fill:#FECF00;}
	.st78{fill:#2D59E2;}
	.st79{fill:#121F3A;}
	.st80{fill:#BBD0F5;}
	.st81{fill:#020202;}
	.st82{fill:#E2CFB7;}
	.st83{fill:#080805;}
	.st84{fill:#A87D7C;}
	.st85{fill:#182052;}
	.st86{fill:#EAEAEA;}
	.st87{fill:#DDDDDD;}
	.st88{fill:#3D4574;}
	.st89{fill:#ABC5F0;}
	.st90{fill:url(#SVGID_20_);}
	.st91{fill:#4159A8;}
	.st92{fill:#E0D0BD;}
	.st93{fill:#3D53AA;}
	.st94{fill:#0A0000;}
	.st95{fill:#BF6D36;}
	.st96{fill:#385DAE;}
	.st97{fill:#E0DCDC;}
	.st98{fill:#857E78;}
	.st99{fill:#0E213C;}
	.st100{fill:url(#SVGID_21_);}
	.st101{fill:#55608E;}
	.st102{opacity:0.3;fill:#F4F2F2;}
	.st103{opacity:0.3;}
	.st104{fill:#213987;}
	.st105{enable-background:new    ;}
</style>
<g id="Recipe_Book_1_">
	<g id="Recipe_Book">
		<g>
			<path class="st3" d="M272.0622559,89.8612671c1.5890808-0.1260071,2.9195557,0.0650406,4.1821899,1.150383
				c1.0249939,0.8811493,1.6144104,2.1403427,1.7363281,3.4798965c0.136261,1.4947586,1.0259094-1.0406036-33.7373657,93.9628143
				c23.1420288,4.0554962,25.5641785,3.1484528,27.3604431,5.7715912c0.6381836,0.9321289,0.7470093,2.0593567,0.5187378,3.1453247
				c-0.3254089,1.5490723-0.4992371,1.5574646-2.0681152,2.8948517
				c-1.9708862,1.6804047-31.0616608,24.6751099-31.1645966,24.756073l-8.5848083,6.8941193
				c-1.2360535,0.9978027-2.6966248,2.4743042-4.0980988,3.1859894c-2.8094788,1.4267883-5.4482574-0.2213898-8.2145996-0.5997467
				c1.5965881-4.1953278,2.8804626-8.5372925,4.3535309-12.7804565l9.109848-25.7504272
				c6.1721039-17.2218475,34.5431519-94.7553329,36.3276672-99.4013977
				C269.8879395,91.1160049,269.7209167,91.2800903,272.0622559,89.8612671z"/>
			<path class="st11" d="M272.0622253,89.861145c-2.3488464,1.4231949-2.1758423,1.2588882-4.2788086,6.709137
				c-1.8210449,4.7411346-30.0458679,81.8739319-36.3276672,99.4013977
				c-12.3942413,34.582428-11.1778107,32.5251465-13.4633789,38.5308838
				c-12.1300812-1.6075287-190.6607361-31.8772125-193.70224-32.5582428c-0.5318794-0.1191406-0.944313-0.28862-1.2407417-0.7814026
				c-0.6175575-1.0262299-1.1600685-2.3376617-1.0428104-3.5524445c0.2181721-2.2621765-1.137413,2.0207062,39.0719452-92.0381012
				c3.35215-7.8414383,13.0487366-34.1775665,17.0435944-37.6687164c2.9381714-2.5676956,6.5175629-2.1830902,10.0926361-1.8517685
				c36.2243958,3.3571091,52.553093,6.9926224,77.8180923,10.1603622
				c20.4928284,2.5694122,41.1432648,4.1080475,61.6092834,6.8834229
				c13.356842,1.8113022,26.7725525,3.4830017,40.0496521,5.8280182
				C269.0680542,89.1667709,270.7794495,89.2512436,272.0622253,89.861145z"/>
			<path class="st3" d="M252.2293091,91.0912704l2.9337769,3.7478561l-44.6664276,124.2703552
				c0,0-168.7898865-28.7662811-170.0605774-29.5513458c-1.2707024-0.78508-2.4126968-2.2097778-2.4126968-2.2097778
				L252.2293091,91.0912704z"/>
			<path class="st11" d="M232.747757,220.5079346c3.379425-9.8448639,6.3539886-17.3635254,10.0466461-28.1177673
				c0.4502716-1.3017273,0.8411255-2.7003784,1.4490051-3.9358063c7.7849579,1.3642731,15.6177673,2.4333344,23.4133911,3.7325592
				c-0.9628906,0.9302063-10.3456726,8.4263916-11.4790649,9.3227692
				C248.3227081,207.7618713,240.3670044,213.9727631,232.747757,220.5079346z"/>
			<path class="st22" d="M120.5911026,193.8543701c0,0,47.0291824,2.3041229,87.4908218,22.5294189l44.1473846-125.2925186
				c0,0-54.4825134-36.6100197-86.9077606-15.7846069L120.5911026,193.8543701z"/>
			<path class="st15" d="M165.3215485,75.3066635c0,0-32.9601898-21.9301643-78.3418274-3.8060684l-48.96838,115.8271332
				c0,0,31.3229179-11.1348419,82.5797577,6.5266418L165.3215485,75.3066635z"/>
			<path class="st7" d="M167.9137573,91.1118851l-35.941803,94.7421646
				c24.9282074,1.5444336,48.0802307,5.8098755,69.3234253,12.9996796l33.4213409-97.1345444
				C212.5998383,94.7427902,190.3511658,90.7749786,167.9137573,91.1118851z"/>
			<g>
				<path class="st19" d="M224.7235718,108.128891c-18.581543-6.9233398-52.6162109-8.4750977-52.9580078-8.4897461
					c-0.6594543-0.0291748-0.6221313-1.0269623,0.0439453-0.9990234c0.3427734,0.0151367,34.5356445,1.5737305,53.2636719,8.5512695
					c0.2583008,0.0966797,0.3901367,0.3847656,0.2939453,0.6435547
					C225.2726288,108.0877533,224.9902802,108.2260895,224.7235718,108.128891z"/>
			</g>
			<g>
				<path class="st19" d="M219.4642944,122.6513519c-18.5795898-6.9228516-52.6162109-8.4750977-52.9580078-8.4897461
					c-0.2758789-0.012207-0.4897461-0.2456055-0.4775391-0.5214844c0.012207-0.2753906,0.2583008-0.4833984,0.5209961-0.4775391
					c0.3432617,0.0151367,34.5361328,1.5732422,53.2641602,8.5512695
					C220.4241333,121.9422607,220.0970459,122.8819351,219.4642944,122.6513519z"/>
			</g>
			<g>
				<path class="st19" d="M214.4003296,137.5600433c-18.581543-6.9233398-52.6162109-8.4750977-52.9580078-8.4897461
					c-0.6741028-0.0298309-0.6038361-1.047821,0.0439453-0.9990234c0.3427734,0.0151367,34.5356445,1.5737305,53.2636719,8.5512695
					c0.2583008,0.0966797,0.3901367,0.3847656,0.2939453,0.6435547
					C214.9493866,137.5189056,214.667038,137.6572418,214.4003296,137.5600433z"/>
			</g>
			<g>
				<path class="st19" d="M208.6278687,152.4809418c-18.581543-6.9233398-52.6162109-8.4750977-52.9580078-8.4897461
					c-0.6578369-0.0290985-0.6226196-1.0280457,0.0439453-0.9990234c0.3427734,0.0151367,34.5356445,1.5737305,53.2636719,8.5512695
					c0.2583008,0.0966797,0.3901367,0.3847656,0.2939453,0.6435547
					C209.1769257,152.4398041,208.894577,152.5781403,208.6278687,152.4809418z"/>
			</g>
			<g>
				<path class="st19" d="M202.855896,167.4018402c-18.5800781-6.9228516-52.6166992-8.4750977-52.9584961-8.4897461
					c-0.2758789-0.012207-0.4897461-0.2456055-0.4775391-0.5214844c0.012207-0.2749023,0.2602539-0.4995117,0.5209961-0.4775391
					c0.3432617,0.0151367,34.5361328,1.5732422,53.2646484,8.5512695
					C203.8157349,166.692749,203.4886475,167.632431,202.855896,167.4018402z"/>
			</g>
			<g>
				<path class="st19" d="M197.0834351,182.3222504c-18.5800781-6.9223633-52.6166992-8.4746094-52.9584961-8.4892578
					c-0.2758789-0.012207-0.4897461-0.2456055-0.4775391-0.5214844c0.012207-0.2753906,0.2539063-0.4907227,0.5209961-0.4775391
					c0.3432617,0.0151367,34.5361328,1.5732422,53.2646484,8.5507813
					C198.0432739,181.6131592,197.7161865,182.5528412,197.0834351,182.3222504z"/>
			</g>
			<g>
				<path class="st23" d="M125.8758087,148.4733582c0,12.8112183-14.5304108,25.0121002-32.0618134,26.7083282
					c-17.531395,1.6962433-31.7433968-7.3142395-31.7433968-20.1254425c0-12.8112183,14.2120018-24.5718231,31.7433968-26.2680511
					C111.3453979,127.0919571,125.8758087,135.6621552,125.8758087,148.4733582z"/>
				<path class="st13" d="M129.2401428,145.5398102c0,12.8112183-15.6127014,25.0121002-34.449913,26.7083282
					c-18.8372116,1.6962433-34.1077881-7.3142395-34.1077881-20.1254425c0-12.8112183,15.2705765-24.5718231,34.1077881-26.2680588
					C113.6274414,124.1584091,129.2401428,132.7286072,129.2401428,145.5398102z"/>
				
					<ellipse transform="matrix(0.9865878 -0.1632316 0.1632316 0.9865878 -22.8736382 17.4566765)" class="st19" cx="94.7902298" cy="147.9185791" rx="34.36092" ry="23.0258636"/>
				<path class="st4" d="M121.1326218,153.2825012c-4.3972397,7.3198547-14.5415115,13.0847778-26.3391113,14.1483002
					c-11.4491348,1.0277405-21.3252335-2.6454926-25.9190674-8.8215179
					c-8.7005424-11.6306152,4.0240021-28.2242279,25.9190674-30.2002258
					C115.0896301,126.5763397,129.4275055,139.4896545,121.1326218,153.2825012z"/>
				<path class="st8" d="M121.1326218,153.2825012c-4.3972397,7.3198547-14.5415115,13.0847778-26.3391113,14.1483002
					c-11.4491348,1.0277405-21.3252335-2.6454926-25.9190674-8.8215179
					c-2.071579-5.3313446-1.1601334-7.5299835,0.9474335-11.4225159c2.7973709-5.1836395,8.0885849-7.9094238,13.7727814-9.4290009
					c7.1858749-1.9306641,14.7112732-2.5739288,22.1205826-1.8857117
					c5.0051498,0.4647675,10.3677139,1.7783508,13.4958801,5.7112579
					C121.7761002,144.8005066,122.3213882,149.3408813,121.1326218,153.2825012z"/>
				<path class="st7" d="M69.0177078,151.720047c0.4932404,2.0702362,0.8197174,4.0909576,2.5618134,5.5461884
					c1.3678818,1.1426239,3.2235565,1.5733948,5.0048218,1.5119476c1.7812729-0.0614319,3.5142899-0.5731354,5.2056656-1.1352081
					c1.0771179,2.4962921,3.6216125,4.3169861,6.2703476,4.9300079c4.1940384,0.9706573,9.5701981-0.5971832,14.0997467-6.3175507
					c3.6010437,2.4511261,8.4876404,2.8608551,12.365509,0.8764954c6.5722198-3.3630829,8.3605804-11.9760132,4.9759445-16.5027466
					c-0.9607773-1.2849731-1.4065552-4.5004883-8.1167755-5.885025c-3.975708-0.8203278-8.0759125-0.7248688-12.1341629-0.625885
					c-16.1308289,0.3934479-16.8854294-0.4536743-23.9651718,6.1489258
					c-1.6555099,1.5439301-3.3271561,3.1066895-4.5792542,4.9926147
					C69.465889,147.1279602,68.4977264,149.5375977,69.0177078,151.720047z"/>
				
					<ellipse transform="matrix(0.9699879 -0.2431532 0.2431532 0.9699879 -30.7081661 30.0104427)" class="st19" cx="106.2158127" cy="139.4015503" rx="11.221179" ry="8.2628851"/>
				<path class="st76" d="M99.2876816,138.7042389c0.4524765-1.4443665,1.5995483-2.5678253,2.835228-3.4418945
					c10.0956116-7.1411896,17.4760437,6.4976044,4.4704132,9.0034637c-1.162384,0.2239685-2.3621979,0.3610229-3.5276489,0.1536102
					C100.5328598,143.9686584,98.4678268,141.3212891,99.2876816,138.7042389z"/>
				<path class="st13" d="M81.1240387,146.059433c0.123558,0.2615051-0.0968781,0.6890564-0.3285141,0.8261871
					c-0.1766281,0.1045685-0.457634,0.0916748-0.6640701,0.1149445c-0.4324036,0.0487518-0.9848938,0.0476379-1.2408447-0.3728638
					c-0.1454697-0.2390137-0.0805817-0.5657959,0.1004333-0.7791595
					C79.5719757,145.1637573,80.9264297,145.6411896,81.1240387,146.059433z"/>
				<path class="st13" d="M114.908371,148.3656464c0.2442169,0.6444092,0.2688904,1.3584442,0.1194763,2.0283051
					c-0.1731415,0.7762451-0.4467239,0.0939026-0.6964417-0.2809296c-1.1162567-1.674942-1.8376236-2.5742188-1.3415527-3.1253815
					C113.6041946,146.3050842,114.6206207,147.6063538,114.908371,148.3656464z"/>
				<path class="st13" d="M90.6998215,136.2590332c0.2423325,0.0103302,0.4649658,0.047226,0.7038498,0.0875549l0.1491623,0.2845612
					c-0.4149399,1.1694489-2.8632813,2.2619629-3.9042206,2.8091583l-0.5762787-0.0293884l-0.1741714-0.2329407
					C87.2752609,138.079834,89.6926498,136.8322144,90.6998215,136.2590332z"/>
				<path class="st13" d="M89.016449,148.3391876c0.5342331,0.469574-0.5016708,1.4003601-1.3018646,2.8791351
					c-1.348732,2.4924774-1.4112854,3.5708923-2.0697861,3.5508881c-0.6707306-0.0203705-0.4651108-1.0319519-0.3772812-1.4350281
					c0.2373199-1.0890503,0.7580872-2.1198273,1.3889542-3.0319824
					C87.1013565,149.6589508,88.4279938,147.821991,89.016449,148.3391876z"/>
				<path class="st22" d="M75.0674973,143.0818634c1.5158005,0.4745789-1.0106964,4.0427704-2.0479355,5.0944214
					c-0.359436,0.3644257-1.1396255,1.0018768-1.6802292,0.587616c-0.2920685-0.2238922-0.3566742-0.816452-0.3131638-1.1434174
					c0.141098-1.0603333,0.8191376-2.0053558,1.5132675-2.7830658
					C73.1090927,144.199173,74.2365799,142.8217316,75.0674973,143.0818634z"/>
				<path class="st13" d="M118.5821381,143.1647339c2.7962036,3.7828827-0.5561142,9.8255615-4.1950073,12.8455048
					c-2.0761185,1.7227478-3.8115005,2.039566-5.5108109,1.7663879c0.6332016-0.3874207,1.4830856-0.4705963,2.1791306-0.7454529
					c2.4023666-0.9477692,4.6674805-3.0139923,6.0289154-5.1934357
					C118.7331696,149.198349,119.2778702,146.1925049,118.5821381,143.1647339z"/>
				<path class="st13" d="M102.7141342,154.0962677c0.5046082,0.0915527,1.7420273,0.3960571,1.0556641,1.1108246
					c-0.4989014,0.5195465-0.7713242-0.1951141-1.3439026-0.0131073c-2.092247,0.6650696-5.3286667,5.1165771-10.8037491,5.0730743
					c-0.985817-0.0078278-1.0697174-0.6366882-0.6721497-0.9984131c0.5778656-0.5257568,1.7513657-0.3576355,3.2155762-0.7472382
					C97.4078293,157.6587219,99.8646164,155.73349,102.7141342,154.0962677z"/>
			</g>
			<g>
				<path class="st20" d="M87.146904,93.1738129c1.029007-3.8296051,1.9017563-7.4625702,2.9008789-12.6333008
					c1.6181641-0.6791992,3.2280273-1.0356445,4.8295898-1.0693359c2.2827988-0.0479431,3.89254,1.2878571,3.3388672,3.9160156
					c-0.3095703,1.472168-1.7319336,2.9111328-4.2670898,4.3173828c0.9262695,1.3969727,1.8486328,2.9355469,2.7680664,4.6176758
					l-2.2177734,1.3686523c-0.5996094-1.1669922-1.7148438-3.0683594-3.3447266-5.7045898
					c-0.4443359,1.9223633-0.8842773,3.7255859-1.3198242,5.4116211L87.146904,93.1738129z M95.7880173,83.2704926
					c0.2287674-1.0871277-0.4129105-1.6310425-1.4511719-1.609375c-0.5390625,0.0112305-1.1533203,0.1303711-1.8442383,0.3554688
					c-0.4438477,2.1079102-0.7802734,3.6738281-1.0092773,4.6962891
					C92.7899551,86.1639557,95.4980316,84.6460037,95.7880173,83.2704926z"/>
				<path class="st20" d="M98.0336227,92.8535004c1.0659103-5.8263931,1.6331329-8.1642761,2.8657227-12.465332
					c2.3701172-0.3725586,4.6533203-0.581543,6.8486328-0.6274414l-0.4848633,2.3012695
					c-1.5214844,0.0317383-2.9443359,0.1049805-4.2695313,0.2192383c-0.3476563,1.3989258-0.6079102,2.4716797-0.7783203,3.2207031
					c1.0527344-0.1586914,2.28125-0.2651367,3.6860352-0.3193359l-0.0483398,2.0498047
					c-0.9052734,0.03125-2.2783203,0.1533203-4.1196289,0.3657227c-0.3149414,1.4970703-0.5356445,2.5751953-0.6611328,3.2363281
					c1.1904297-0.1118164,2.6303711-0.328125,4.3198242-0.6494141l-0.0898438,2.0507813
					c-1.2470703,0.5107422-2.6518555,0.7822266-4.2133789,0.8149414L98.0336227,92.8535004z"/>
				<path class="st20" d="M113.2606735,81.750473c-1.432991,0.0295105-3.1122284,4.2725143-3.4082031,5.6777344
					c-0.4624023,2.1953125-0.0732422,3.2797852,1.1660156,3.2539063c0.7176819-0.0150299,1.4189377-0.747345,1.7563477-1.3217773
					c0.1772461-0.3022461,0.4023438-0.7163086,0.6738281-1.2436523l2.5263672,0.1333008
					c-1.1207352,2.5638962-2.6625443,4.7686691-5.4609375,4.8271484c-3.0811996,0.0651398-4.0260391-2.3689651-3.40625-5.3125
					c0.7122498-3.3845367,3.265152-8.3392944,6.8388672-8.4130859c3.084465-0.0643158,2.7923584,2.8484344,2.2373047,5.8950195
					l-2.5581055-0.1699219C113.8608017,83.9617386,114.3256836,81.72686,113.2606735,81.750473z"/>
				<path class="st20" d="M122.7304001,79.3730316c-1.008461,3.7114716-2.2127304,9.1645355-2.7431641,13.4130859
					l-2.6791992-0.1679688c0.6352005-4.4721756,1.3543472-8.1344223,2.7431641-13.4125977L122.7304001,79.3730316z"/>
				<path class="st20" d="M122.4608688,92.5849457c0.7762299-4.495285,1.8395844-8.9410477,2.8598633-13.0053711
					c1.2119141-0.4101563,2.4150391-0.6279297,3.6064529-0.652832c5.0688934-0.1059418,5.9027405,7.2063293-2.9238358,9.5424805
					c-0.2939453,1.3969727-0.5756836,2.8310547-0.8457031,4.3017578L122.4608688,92.5849457z M129.6088257,81.7060394
					c-0.5272522-0.7482834-1.1205597-0.6147995-1.9599686-0.4799805c-0.4375,1.7602539-0.8359375,3.4628906-1.1962891,5.1098633
					C129.6173248,85.3993607,130.4090576,82.848465,129.6088257,81.7060394z"/>
				<path class="st20" d="M132.0267944,92.1430511c1.0704193-5.8510666,1.6355591-8.1725159,2.8657227-12.4658203
					c2.3710938-0.3720703,4.6533203-0.581543,6.8496094-0.6274414l-0.4848633,2.3017578
					c-1.5224609,0.0317383-2.9453125,0.1044922-4.2695313,0.2192383c-0.3476563,1.3984375-0.6079102,2.4716797-0.7783203,3.2202148
					c1.0517578-0.1582031,2.2802734-0.2646484,3.6860352-0.3188477l-0.0483398,2.0493164
					c-0.90625,0.0317383-2.2792969,0.1538086-4.1196289,0.3657227c-0.3149414,1.4970703-0.5356445,2.5756836-0.6611328,3.2363281
					c1.1894531-0.1118164,2.6293945-0.328125,4.3198242-0.6494141l-0.0898438,2.0512695
					C136.0407562,92.8576584,133.1934967,92.1223373,132.0267944,92.1430511z"/>
				<path class="st20" d="M92.3060837,97.1806488c1.6708984-0.4819336,3.140625-0.7363281,4.4140625-0.7631836
					c4.6816254-0.0970078,5.5289536,4.2981415,0.6879883,6.5239258c1.4379883,0.5541992,2.0131836,1.5161133,1.7241211,2.8881836
					c-0.4632263,2.2032623-3.8364182,3.9546356-6.1313477,4.0029297c-0.1611328,0.003418-1.2944336-0.0605469-3.3989258-0.1899414
					C90.8551559,105.1735687,91.6486053,101.8154144,92.3060837,97.1806488z M93.9257126,107.5405121
					c1.3851395-0.0289154,3.6595383-1.7033997,1.8759766-2.7963867c-0.5112305-0.3115234-1.2163086-0.4956055-2.1162109-0.5517578
					c-0.3374023,1.4731445-0.5961914,2.5776367-0.7783203,3.3134766
					C93.1415329,107.5380707,93.4813766,107.5497894,93.9257126,107.5405121z M96.2347946,98.6259613
					c-0.4511719,0.0092773-0.9482422,0.09375-1.4912109,0.2548828c-0.2617188,1.4951172-0.4716797,2.6240234-0.6318359,3.3847656
					c1.1002426-0.1101074,3.4636765-1.1700287,3.7128906-2.3505859
					C97.9972458,99.0938187,97.0360031,98.6094894,96.2347946,98.6259613z"/>
				<path class="st20" d="M100.9882126,108.4262543c-0.65625-1.0473633-0.7563477-2.659668-0.2983398-4.8359375
					c0.4584961-2.1767578,1.3134766-3.9609375,2.5654297-5.3530273c2.7228928-3.0322876,5.6025925-2.4866562,6.7602539-0.5888672
					c0.6420898,1.0546875,0.7368164,2.6611328,0.2827148,4.8183594
					C108.864418,109.2741394,103.1862335,111.9254761,100.9882126,108.4262543z M104.4198532,107.7499847
					c2.4208832-0.0514145,5.0586395-9.4744644,2.2236328-9.4165039
					C104.0546417,98.3889313,101.520546,107.8088989,104.4198532,107.7499847z"/>
				<path class="st20" d="M111.5116501,108.2060394c-0.6572266-1.0473633-0.7573242-2.659668-0.2993164-4.8359375
					c0.4584961-2.1767578,1.3134766-3.9609375,2.5664063-5.3530273c1.2504883-1.3925781,2.5307617-2.1025391,3.8354492-2.1293945
					c1.3066406-0.0273438,2.2817383,0.4863281,2.9248047,1.5410156c0.6411133,1.0546875,0.7358398,2.6606445,0.2817383,4.8178711
					C119.3832855,109.070961,113.7020493,111.6947556,111.5116501,108.2060394z M114.9423141,107.5297699
					c2.4273376-0.0515518,5.0607681-9.4766541,2.2236328-9.4160156
					C114.5730209,98.1671524,112.0461426,107.5911789,114.9423141,107.5297699z"/>
				<path class="st20" d="M121.1996384,108.8515472c0.5583572-3.4655151,1.6587296-8.9548416,2.7114258-12.5927734
					l2.715332,0.1855469c-0.4604492,1.5498047-0.9306641,3.4658203-1.4111328,5.7485352
					c2.2407227-2.6176758,3.9755936-4.8085938,5.2045975-6.5732422l2.3491211,0.8823242
					c-1.3481445,1.8164063-3.1000977,3.9272461-5.2544022,6.3320313c0.9282303,1.9545898,1.9130936,3.4243164,2.9521561,4.4082031
					l-2.2680664,1.9848633c-1.2646561-1.3764648-2.3540115-3.2724609-3.2670975-5.6875
					c-0.4804688,2.2827148-0.8217773,4.1279297-1.0244141,5.5351563L121.1996384,108.8515472z"/>
			</g>
		</g>
	</g>
</g>
</svg>
