<?xml version="1.0" encoding="utf-8"?>
<!-- Generator: Adobe Illustrator 22.0.1, SVG Export Plug-In . SVG Version: 6.00 Build 0)  -->
<svg version="1.1" id="Layer_1" xmlns="http://www.w3.org/2000/svg" xmlns:xlink="http://www.w3.org/1999/xlink" x="0px" y="0px"
	 viewBox="0 0 300 300" style="enable-background:new 0 0 300 300;" xml:space="preserve">
<style type="text/css">
	.st0{fill:#EDC1A4;}
	.st1{fill:#E2E0E0;}
	.st2{fill:#D39E81;}
	.st3{fill:#502E26;}
	.st4{fill:#CCCACA;}
	.st5{fill:#426800;}
	.st6{fill:#538705;}
	.st7{fill:#D47E44;}
	.st8{fill:#73341D;}
	.st9{fill:#BC672E;}
	.st10{fill:#96311D;}
	.st11{fill:#B83E21;}
	.st12{fill:#DE8D82;}
	.st13{fill:#EFBAB4;}
	.st14{fill:#FDD5D0;}
	.st15{fill:#6883CE;}
	.st16{fill:#3D4885;}
	.st17{fill:#3859AE;}
	.st18{fill:#864424;}
	.st19{fill:#FEFEFE;}
	.st20{fill:#FFFFFF;}
	.st21{fill:#A55925;}
	.st22{fill:#F4F2F2;}
	.st23{fill:#3C3E68;}
	.st24{fill:#E8997C;}
	.st25{fill:#F5C46B;}
	.st26{fill:#F7EBDA;}
	.st27{fill:#0E0C0D;}
	.st28{fill:#657C3A;}
	.st29{fill:#576C37;}
	.st30{fill:#7C995D;}
	.st31{fill:#36518C;}
	.st32{fill:#96B7E3;}
	.st33{fill:#A3B3DF;}
	.st34{fill:url(#SVGID_1_);}
	.st35{fill:url(#SVGID_2_);}
	.st36{fill:url(#SVGID_3_);}
	.st37{fill:url(#SVGID_4_);}
	.st38{fill:url(#SVGID_5_);}
	.st39{fill:#266AB7;}
	.st40{fill:#060E0D;}
	.st41{fill:#E0D4C6;}
	.st42{fill:#787E42;}
	.st43{fill:#D3D1D1;}
	.st44{fill:url(#SVGID_6_);}
	.st45{fill:url(#SVGID_7_);}
	.st46{fill:url(#SVGID_8_);}
	.st47{fill:#020508;}
	.st48{fill:#BAB6B6;}
	.st49{fill:#0F0B07;}
	.st50{fill:#2F3A68;}
	.st51{fill:#203257;}
	.st52{opacity:0.5;fill:#FFFFFF;}
	.st53{opacity:0.2;fill:#0E0C0D;}
	.st54{fill:#DD9F9B;}
	.st55{fill:#3E4D9B;}
	.st56{fill:url(#SVGID_9_);}
	.st57{fill:#5F6194;}
	.st58{fill:url(#SVGID_10_);}
	.st59{fill:url(#SVGID_11_);}
	.st60{fill:url(#SVGID_12_);}
	.st61{fill:url(#SVGID_13_);}
	.st62{fill:#070102;}
	.st63{fill:#100805;}
	.st64{fill:#FDA465;}
	.st65{fill:#2A50A1;}
	.st66{fill:#B76C39;}
	.st67{fill:#130602;}
	.st68{fill:url(#SVGID_14_);}
	.st69{fill:url(#SVGID_15_);}
	.st70{fill:url(#SVGID_16_);}
	.st71{fill:url(#SVGID_17_);}
	.st72{fill:url(#SVGID_18_);}
	.st73{fill:url(#SVGID_19_);}
	.st74{fill:#B4BDED;}
	.st75{fill:#100D08;}
	.st76{fill:#F6C85F;}
	.st77{fill:#FECF00;}
	.st78{fill:#2D59E2;}
	.st79{fill:#121F3A;}
	.st80{fill:#BBD0F5;}
	.st81{fill:#020202;}
	.st82{fill:#E2CFB7;}
	.st83{fill:#080805;}
	.st84{fill:#A87D7C;}
	.st85{fill:#182052;}
	.st86{fill:#EAEAEA;}
	.st87{fill:#DDDDDD;}
	.st88{fill:#3D4574;}
	.st89{fill:#ABC5F0;}
	.st90{fill:url(#SVGID_20_);}
	.st91{fill:#4159A8;}
	.st92{fill:#E0D0BD;}
	.st93{fill:#3D53AA;}
	.st94{fill:#0A0000;}
	.st95{fill:#BF6D36;}
	.st96{fill:#385DAE;}
	.st97{fill:#E0DCDC;}
	.st98{fill:#857E78;}
	.st99{fill:#0E213C;}
	.st100{fill:url(#SVGID_21_);}
	.st101{fill:#55608E;}
	.st102{opacity:0.3;fill:#F4F2F2;}
	.st103{opacity:0.3;}
	.st104{fill:#213987;}
	.st105{enable-background:new    ;}
</style>
<g id="Restaurant_Payment_1_">
	<g id="Restaurant_Payment">
		<g>
			<path class="st14" d="M45.8971786,144.2825012c0,0,80.4251404-3.552948,85.1313248-3.2083588
				c4.7061768,0.3446045,10.4563904,3.5644531,9.7536926,14.7044067s0.2709656,56.6077576,0.2709656,56.6077576
				l-85.9347839,14.7627716l-5.6325798-37.8846283L45.8971786,144.2825012z"/>
			<path class="st13" d="M46.7337341,215.0591583l-5.9295082-63.5376282
				c-0.3113747-3.3365326,1.8473701-6.4049377,5.0929375-7.2390289h0.0000153
				c4.2527695-1.092926,8.0765991,4.2418976,8.4977989,9.8342743l1.6560669,62.3385315"/>
			<path class="st7" d="M212.9446716,86.9483719l-1.6232452,3.8802414l-10.1296387,4.6066818l-9.6957855-4.094696v-6.5955963
				c0.0076294-0.1024017,0.5357208-7.1825638,0.5021057-6.731987l13.9026489-13.1469269
				c6.5881958,22.1348419,4.2971649,14.4374847,4.7966919,16.1157761L212.9446716,86.9483719z"/>
			<path class="st9" d="M207.5045471,70.252533c-0.7029266,3.5609436-1.7360687,7.1360321-4.2312622,9.783432
				c-3.7611237,3.9795074-9.0271759,3.7151642-11.4604187,0.4534302l0.1852417-2.4763794l13.9026489-13.1469269
				L207.5045471,70.252533z"/>
			<path class="st15" d="M158.0597687,83.3327026l-19.8446198,7.6075516
				c-0.8212891,0.3151093-1.7428284-0.1008911-2.063324-0.9260101c-0.0397644-0.1036377-1.960968-5.110672-1.8429108-4.8029938
				l-2.5372925-6.6078415c-0.3204803-0.8454285,0.1068726-1.7845383,0.9481964-2.0931015l19.7644958-7.1578064
				c0.8079224-0.2951355,1.6959534,0.1074371,2.0231323,0.9056931c0.0424805,0.1044846,3.8435974,9.4532089,3.6057892,8.8683243
				l0.8546143,2.0931015C159.3083954,82.0516205,158.8944092,83.0107117,158.0597687,83.3327026z"/>
			<polygon class="st16" points="158.1132355,79.1265182 135.4574585,88.2031708 134.3089142,85.2112503 156.9313507,76.2086258 			
				"/>
			<path class="st7" d="M156.3932953,129.4215546l-3.2416229,4.1047058l-5.9471741,4.0654144l-4.2556-0.9018707
				l-1.8231354-7.7166748c-0.1901093-5.4254837-4.8746948-17.2856674-5.8934937-18.5188599
				c-1.0139618-1.2381897-6.5564423-6.4054184-6.5564423-6.4054184c-1.3016205-1.174881-2.7249985-2.8662643-2.9492111-3.948555
				c-0.2242203-1.0772858,0.0730743-2.2521667,0.7799377-3.1002426c-0.4631348-0.4924622-0.4680099-1.2381897-0.428978-1.9158401
				c0.0390396-0.6774139,0.3656082-1.33078,0.8823547-1.7646942c4.2507172-3.5974731,7.2242737-8.6621094,12.7034302-9.6518097
				c0.6873474-0.1218643,2.2374725-0.1851807,2.2765045,0.8580704c0.0097656,0.3118134-0.1316223,0.6093369-0.2827759,0.8823471
				c-0.614212,1.1356049-1.4087372,2.1690979-2.3447571,3.0612106c0.4534302-0.3070526,0.9213867-0.6238556,1.4624176-0.7312088
				c1.4617462-0.2789841,2.2991333,1.2090149,0.8287354,2.5397034c-0.4143372,0.3753586-0.9164581,0.6921692-1.2771759,1.1065598
				c0.3753662-0.2730103,0.9602966-0.2925262,1.2771759,0.0633163c0.8661804,0.9537506-0.704483,2.3060379-0.0780182,4.4117432
				c0.3366699,1.1050644,2.6371918,8.2670593,3.3927765,10.1052399c1.2577057,3.031929,3.0759583,5.8301239,5.3524628,8.1893997
				l2.6567535,4.1630096l3.4268646,6.8488541L156.3932953,129.4215546z"/>
			<path class="st15" d="M212.2845154,82.7916718l-1.5846252-1.8117065
				c-3.509964,4.3245926-14.3206177,8.7784424-19.2024078,3.765274l-1.3322449,1.3375015l3.3443298,9.3543091l17.8102722-4.6092834
				l2.4705811-5.8998871L212.2845154,82.7916718z"/>
			<path class="st1" d="M238.5391388,88.7274323c0,0-3.3335266-3.0338898-14.0254364-4.5044098
				c0,0-10.8113556-1.3921738-12.229187-1.4313507c0,0-6.581665,5.9755478-12.7773743,6.5415039
				s-9.3419037-3.2504349-9.3419037-3.2504349s-8.8750916,0.9399719-13.5666199,5.8621979
				s-2.0604858,65.2732315-2.0604858,65.2732315l65.4835968-1.439621c0,0-4.9070129-22.5272675-2.9444733-30.3775024
				C239.0397797,117.5508194,238.5391388,88.7274323,238.5391388,88.7274323z"/>
			<path class="st15" d="M220.4451752,83.709053c0,0-4.2195892,9.7766342-7.1969299,23.4111176
				c-2.977356,13.6344757-10.0145874,18.7801437-16.9591217,12.4668579
				c-6.9445343-6.3132782-8.9425964-26.4246902-6.1238861-33.5042877c0,0-1.2729492-0.5764847-3.3372955,0.6248856
				c0,0-4.6817017,13.7314911-3.0727081,29.6857986c1.6090088,15.9543076-0.5653839,25.3315048-9.2171021,40.8247452
				l-4.1790924,52.9663696l75.8085022,6.2513275c-0.1972046,0.8752136-1.4836578-28.045929-2.3789825-37.5144653
				c-0.5392914-5.7032471-5.5550079-32.6994171-5.5550079-32.6994171s-13.355957,2.8443146-18.2059937-18.9809494
				c-4.4108887-19.8490753,4.486145-43.018013,4.486145-43.018013L220.4451752,83.709053z"/>
			<path class="st1" d="M176.5986176,91.9449387c0,0-4.0774231,3.0672379-9.3140259,20.4897919l-4.7017822,14.0781708
				l-12.4090424-12.4483109c5.9983978,17.0068207-3.5132599,23.2293243-9.0497894,14.910675
				c0,0-1.3125458,11.8890076,7.3635101,19.4291534c8.6760712,7.5401611,15.3548737,5.3039246,19.3976288,1.3155975
				c4.0427399-3.9883423,8.1668243-17.6129761,8.713501-23.4557724
				C177.1453094,120.4214478,176.5986176,91.9449387,176.5986176,91.9449387z"/>
			<g>
				<path class="st27" d="M167.6760559,140.8392029c0.4443359-7.7451172-5.309082-14.0078201-5.3676758-14.0703201
					c-0.3374786-0.3619995,0.2081146-0.8746033,0.5488281-0.5117188c0.2460938,0.2641602,6.0302734,6.5629959,5.5678711,14.6250076
					C168.3957062,141.3814087,167.6478271,141.3366699,167.6760559,140.8392029z"/>
			</g>
			<path class="st8" d="M237.756485,153.5827942c-3.6520996-0.5574646-7.329483-0.949173-11.0170593-1.1735229
				c-0.5436707-0.0330811-1.1014862-0.0609131-1.6212769,0.1018372c-1.0694122,0.3348389-1.502594,1.3658447-0.7696075,2.2990265
				c0.9589233,1.2208252,5.4967499,3.4273376,10.3016052,2.4317932"/>
			<polygon class="st20" points="189.8656006,146.5183716 228.1518402,143.0374298 237.0772552,191.6243286 
				198.6206665,195.2855377 			"/>
			<path class="st7" d="M252.6962585,164.3649139c-9.4257202,4.0650787-18.5365753,6.8236847-28.4667664,9.4237976
				c-4.178894,1.0941925-5.6196136-1.653595-2.6837769-3.3861237c1.8242493-1.0765533,3.5461731-2.3090057,5.3704224-3.3855591
				c-2.7059479,0.9194946-5.5221252,1.5141754-8.3688049,1.7672424c-3.6904755,0.328064-3.9824982-2.7483368-0.276886-3.3286285
				c2.6623688-0.4169312,5.645874-1.0185852,8.3209229-1.3443604c-3.4794006,0.2029724-6.9816589,0.0119171-10.418335-0.5683289
				c-2.9873505-0.5043945-3.245285-3.0092468-0.009552-3.1098022c3.1418304-0.097641,6.2877808-0.4001923,9.4296112-0.4978333
				c-3.088623-0.115509-6.1671295-0.5005035-9.1890869-1.1491699c-2.5512085-0.5476074-2.4710236-2.3161316-1.0036163-2.9357452
				c2.2381287-0.9450836,11.8630829,1.7640839,18.7266235-0.8131714c2.7401581-1.0289307,5.1100464-2.6095123,6.2217712-5.3171234
				l4.8093414-5.024231l10.9738617,5.0241394l2.0322266,9.7818756L252.6962585,164.3649139z"/>
			<path class="st1" d="M240.3487854,149.720108l2.98703-7.7050323c0,0-12.5990906-14.4713821-14.4641113-28.3938828
				c-1.865036-13.9225082,5.1319733-25.966011,9.6674347-24.8937607
				c4.5354767,1.0722504,19.2698517,22.3603592,30.9116058,50.092865c0,0,8.6163635,20.8036804-16.7544861,25.5446167
				C255.1140137,155.7127075,247.9162903,148.9705505,240.3487854,149.720108z"/>
			<g>
				<path class="st27" d="M266.5300598,144.4041443c-1.3235168-6.613205-8.1062012-9.727478-14.3916016-8.1040039
					c-5.6166992,1.4506836-8.4575195,5.8701172-8.4853516,5.9145508c-0.1286926,0.2040863-0.4222107,0.2412109-0.5947266,0.0527344
					c-0.1079102-0.1186523-10.8076172-12.015625-14.8588867-27.9091873
					c-0.1231079-0.4818954,0.6052399-0.664978,0.7265625-0.1855469c3.6147461,14.1806717,12.5874023,25.1494217,14.375,27.2329178
					c0.8662109-1.1811523,3.7021484-4.5537109,8.6499023-5.8320313c6.714325-1.7356415,13.9081421,1.6558228,15.3144531,8.6831055
					C267.3626099,144.7438965,266.6272583,144.8900909,266.5300598,144.4041443z"/>
			</g>
			<path class="st3" d="M180.7975464,59.3690071c-0.4447784-1.2281685-0.7980957-2.5103569-0.8563232-3.8215485
				c-0.102951-2.3181534,0.9739227-4.5667801,2.5102539-6.2533302c6.4271393-7.0545883,21.4674835-6.2999306,23.0087738,4.3097229
				c0.1478271,1.0176048,0.2771912,2.1192284,0.2310333,3.1484032c-0.1088104,2.4259338,1.0046539,6.9964066-3.9602203,8.4008675
				c-2.1635284,0.6120148-9.0050354,0.9010315-12.9151001-0.0028305c-2.2285156-0.515152-4.3992615-1.4527779-6.16185-2.9306374
				C181.2187347,61.0161476,181.4510193,61.1734123,180.7975464,59.3690071z"/>
			<path class="st7" d="M183.9152374,57.1442184c2.1125641-2.1557846,4.1734924-0.587059,6.5179901-1.3702354
				c2.0396576-0.6815796,3.328537-2.5024796,5.6582031-2.4883041c3.397934,0.0208092,4.2538605,4.231926,5.2961426,6.9194374
				c0.2384796,0.6149101,0.8122253,2.4036674,1.5592041,2.4482803c0.3731689,0.0222893,0.7658081-0.3787117,0.9194183-0.6777611
				c0.4790649-0.9325752-0.0077515-2.1015205,0.3954926-3.0602531c0.5819092-1.3834877,2.6838684-1.8027992,4.3986053-0.0511169
				c2.3128815,2.3627167,1.6391144,6.1506119,0.0672302,7.1998749c-1.8005829,1.2019424-1.8592072,1.8746872-2.3230133,4.0062408
				c-2.5307312,11.6306992-16.0307922,14.2653275-22.2015533,1.1380692
				c-1.0560455-2.246582-2.5197296-6.8570557-2.4581146-9.5557098
				C181.7805634,60.0879974,182.8137665,58.268158,183.9152374,57.1442184z"/>
			<path class="st9" d="M206.9095001,60.5676155c0.8454895,0.1333504,1.2478333,0.2656479,1.5039368,1.1859207
				c-0.0823822,0.5418205-0.0935364,0.6022415-0.4560852,1.0086899c-0.2771454,0.2140274-0.3929443,0.2984238-0.7389679,0.3956451
				c-0.4293976-0.9001923-0.1646118-0.9087791-0.2680359-1.5683975
				C206.8919525,61.216114,206.8666229,60.9460449,206.9095001,60.5676155z"/>
			<path class="st3" d="M184.427948,60.7512283c1.0344086-0.6070709,2.8206024-0.2878189,3.3421783,0.0936508
				c0.5208282,0.3809204,0.4231415,1.0527763-0.4154816,1.1666603c-0.4236603,0.0575333-0.8361969-0.0810318-1.2471619-0.1621323
				c-0.8056793-0.1590004-1.5188446,0.5124702-2.0817261,0.9410973c-0.6117706,0.4658432-0.6590424-0.5811424-0.5337982-0.9400253
				C183.6534576,61.3876648,184.0045929,60.999691,184.427948,60.7512283z"/>
			<path class="st3" d="M194.4185638,58.6285248c0.7615967-0.2968788,1.6213531-0.21978,2.410675-0.0072746
				c1.2964325,0.3490372,1.132019,1.2968254,0.1930237,1.4243431c-0.4236603,0.0575333-0.8361969-0.0810318-1.2471466-0.1621361
				c-0.8056946-0.1590004-1.5188599,0.5124702-2.0817413,0.9410973c-0.6117554,0.4658432-0.6590424-0.5811424-0.5337982-0.9400253
				C193.358902,59.3133049,193.8502197,58.8500633,194.4185638,58.6285248z"/>
			<path class="st20" d="M197.1356659,68.5894165c-2.1478119,2.54142-5.5816498,3.9352646-8.893158,3.6098633
				c1.9629059,4.2435532,6.7797852,4.319931,8.8951569,1.5362549
				C198.2550507,72.2651443,198.2259216,70.0800323,197.1356659,68.5894165z"/>
			
				<ellipse transform="matrix(0.9401171 -0.3408516 0.3408516 0.9401171 -11.0008345 67.3970184)" class="st3" cx="186.3104706" cy="65.0067139" rx="1.0804849" ry="1.6105341"/>
			
				<ellipse transform="matrix(0.9401171 -0.3408516 0.3408516 0.9401171 -9.9516907 70.8230896)" class="st3" cx="196.5856018" cy="63.7339058" rx="1.0804849" ry="1.6105341"/>
			<path class="st9" d="M190.1837921,68.2545471c0.6216278,0.4617691,1.5741425-0.193573,2.9517059-0.8943558
				c0.7142334-0.3633423,0.4372711-0.8673401,0.0042114-0.7907028c-0.3623199,0.0641174-0.6799927,0.5440216-1.1777802,0.765419
				c-0.2761078,0.1228027-0.6192169,0.145462-0.8658447-0.0291595c-0.6618347-0.4685974-0.0708313-1.4510651-0.0873413-3.1563034
				c-0.0033417-0.344532,0.0846863-1.0830498-0.3218689-1.2593689c-0.6578217-0.2853012-0.4519348,0.9751396-0.4903412,1.2817459
				C189.8371124,67.0408783,189.6079712,67.8268204,190.1837921,68.2545471z"/>
			<ellipse class="st7" cx="150" cy="227.2537842" rx="128" ry="28.0582027"/>
			<path class="st1" d="M106.7283783,221.1211395c0,8.5717773,11.9610596,15.5205078,26.7157593,15.5205078
				s26.7157593-6.9487305,26.7157593-15.5205078H106.7283783z"/>
			<ellipse class="st19" cx="133.4441528" cy="221.1214142" rx="26.7157669" ry="9.5707483"/>
			<path class="st19" d="M134.0300598,242.3512573c1.7792816,0.9901886,1.7843933,2.1778259,0.8077545,3.0177917
				c-0.9632721,0.828476-4.7902069,1.9101715-8.9565659,1.0574646c-1.8792267-0.384613-3.6803436-1.1132202-5.2730026-2.1542206
				c-0.501915-0.328064-0.9110489-0.745575-1.4999161-0.8785858c-11.1398697-2.5163879-27.5084686-4.615799-28.9981766-6.7136078
				l0.1015472-0.1634521c3.1483841-0.7530365,14.458168,2.4529877,18.0650101,3.3142242
				c12.5237122,2.9505463,11.6430359,2.7734375,11.743187,2.7612c0.4364243-0.0533142,0.9476852-0.6802521,1.3262253-0.9234161
				C125.2117844,239.1856079,130.0253754,240.1226196,134.0300598,242.3512573z"/>
			<path class="st19" d="M170.0600586,210.1367493c2.4440613,1.2765045,2.0014648,3.124054-0.6096344,4.0100555
				c-3.7942505,1.2874603-8.1205139,1.0526123-11.8525696-0.6279755c-2.135498-0.9616394-2.5684509-1.678299-3.4228363-1.8476105
				c-11.7780609-2.3339996-29.4753494-4.152359-31.117363-6.3395386l0.1036835-0.1772156
				c3.3365631-0.8923645,15.4894791,2.2069092,19.3606491,3.0233765
				c13.5021973,2.8052216,12.5024719,2.6274719,12.6025696,2.6125336c0.4639587-0.0692139,0.9915161-0.7524109,1.3883667-1.0224762
				C160.5505066,207.0202332,165.7015076,207.8603516,170.0600586,210.1367493z"/>
			<path class="st8" d="M92.0091782,108.0609665c-0.4095001-0.3150787,1.4249039-2.7624207,1.7032623-3.009819
				c2.092308-1.8594513,5.27491-0.9575348,6.6071167,1.2663422c0.1255798,0.2096329,0.2541885,0.4169006,0.3831406,0.6248474
				c1.5815735-0.3763962,2.1790848-1.7402267,4.0769653-1.6723633c2.8193588,0.1009293,2.3728867,2.4644852,3.6791306,2.8818665
				c2.2561111,0.7208939,6.3830643,0.0024719,5.9401474,3.7328796c-0.1722946,1.4511261-1.2255325,2.6655731-2.4439926,3.4723053
				c-1.2184525,0.8067322-2.6160736,1.2914124-3.9366074,1.917244c-9.493866,4.499382-9.7754364,13.2385941-16.3793488,17.0823135
				c-1.8472061,1.0751343-4.0669022,1.5103149-6.1534729,0.9720917c-1.8206711-0.4696503-3.8996658-0.2475281-5.658783-0.9346313
				c-2.0167007-0.788269-1.0704575-1.8037109-1.7982864-3.0946045c-0.6993408-1.239975-2.8830719-1.8654022-2.5696564-3.8288498
				c0.2747879-1.7236786,1.2811203-2.6928711,2.6169205-3.6563263c-2.3292465-5.1427612,0.6537094-4.4760437,2.2881165-5.9768524
				c0.5077209-0.4662018,0.2653427-2.0869217,0.6809006-2.8272324c0.695755-1.2399368,2.3461838-1.7506943,3.6313553-2.0923233
				c0.0016861-1.461731,0.0124893-2.8491821,0.9296951-4.0749359
				C86.9086151,107.1018524,89.7898254,106.3533249,92.0091782,108.0609665z"/>
			<path class="st0" d="M108.2556534,145.7567902v5.7034912l-7.9018631,3.9045258l-7.2778931-1.0042114l-2.5202408-2.7931976
				l0.8481903-4.7333069c0,0,1.9109039,0.1511383,2.0474091-3.0614471c0.0754395-1.4173279-0.3194427-4.0267181-0.6678848-5.527832
				c-0.399704-1.691391-0.8042831-2.5639801-0.8042831-2.5639801l13.2591553,2.0960236c0,0-0.1316223,0.5460205-0.2876511,1.3260193
				c-0.4045181,1.9206085-0.9992752,5.2645874-0.326561,5.4302521l0.9407806,0.2339783
				C105.6649933,144.8039398,108.4316406,145.8215179,108.2556534,145.7567902z"/>
			<path class="st2" d="M106.4276428,145.084137c-1.7268753,0.4099121-7.4298096,0.3576355-12.976387-1.3114929
				c0.0754395-1.4173279-0.3194427-4.0267181-0.6678848-5.527832c0.7116852-0.1999359,1.4331894-0.3508453,2.1595154-0.4629517
				c3.3684311-0.5022278,6.8781891-0.0342865,10.0077057,1.3210144c-0.4045181,1.9206085-0.9992752,5.2645874-0.326561,5.4302521
				l0.9407806,0.2339783L106.4276428,145.084137z"/>
			<path class="st11" d="M87.4881973,148.1026459c0,0-0.2601013-0.187149-2.1240463,0.4217529
				c-1.863945,0.6089172-5.016449,11.4439087-5.016449,11.4439087l-0.6652908,18.4256744l18.0005646,20.8016052
				l22.1337204-7.8764191l11.2118073-5.6311798l1.3505707-7.2303162l-5.0847702-12.2591705l-6.9791031-12.0817261
				l-2.8414917-7.5635681l-3.4716263-1.1661377l-3.8248291-0.4068146h-0.8292084l4.0877609,18.1518097l-7.4050598,3.4112854
				l-7.1513596-0.3448486l-6.2313385-1.2005157l-2.9910431-2.3928375l-1.4955215-3.3898468l-0.7976151-2.3928375
				L87.4881973,148.1026459z"/>
			<path class="st11" d="M91.4024429,146.8353729c0,0,1.1919327,4.5270233,9.7484741,4.1072998
				c1.016983-0.049881,2.0274582-0.3061829,2.9033203-0.8254242c1.3655624-0.8095245,2.7470856-2.3966522,1.5127335-5.3519287
				c0,0,2.4032745-0.6456299,4.6102829,0.2149353s4.3544464,7.6464539,4.3544464,7.6464539l1.5891037,9.0192261l-5.282692,3.3070526
				l-9.6205063,1.2455139l-7.7468109-1.2455139l-1.6589584-1.8209229l-1.4602585-5.4803467l-0.8160248-7.1724396
				l-0.4294815-2.4929352C89.6030426,147.7323303,91.134758,146.9182281,91.4024429,146.8353729z"/>
			<path class="st20" d="M87.4881973,148.1026459l3.1587372-0.9148407c0,0,1.5781403,12.7294922,2.8393936,15.1445313
				l20.5157547-3.1101379l-3.8248291-14.2419434c0,0,2.1665878-0.5910645,3.8248291,0.4068146
				c0,0,10.864151,28.4139862,12.3182449,46.64888l-31.3895721,3.9530182
				C94.9307556,195.9889679,85.3294907,160.1491699,87.4881973,148.1026459z"/>
			<path class="st77" d="M152.1964111,75.909935l-2.5520782,0.9444427
				c-0.7206726,0.2683411-1.5123901-0.0983429-1.7798004-0.8225479l-0.5782318-1.5743179
				c-0.267334-0.723877,0.0979767-1.5192947,0.8184814-1.7879562l2.5521698-0.9441223
				c0.7138977-0.2684708,1.5123749,0.0983505,1.7797089,0.8222275l0.5782318,1.5743179
				C153.2756195,74.8460388,152.9105072,75.6483383,152.1964111,75.909935z"/>
			<path class="st9" d="M144.9182434,105.9646912c-0.6336823,0.2827759-1.3259125,0.4239197-2.0180817,0.3606033
				c-1.7402954-0.155899-4.3465118-2.6618195-5.8457489-3.5576096c-3.7338715-2.2309723-0.3065186-4.4442673,0.6225739-5.6959152
				c0.6709137-0.9038391,2.7576141-1.9294968,3.6014557-2.3385773
				C141.4106598,95.8696823,144.3451538,104.570488,144.9182434,105.9646912z"/>
			<g>
				<path class="st21" d="M130.5071106,93.7342148c2.5839844-2.5224609,5.7319336-4.5419922,9.1030273-5.8408203
					c0.4646149-0.177887,0.7315216,0.521698,0.2695313,0.7001953c-3.2768555,1.262207-6.3369141,3.2255859-8.8491211,5.6777344
					C130.6755676,94.6167755,130.1515045,94.0816269,130.5071106,93.7342148z"/>
			</g>
			<g>
				<path class="st21" d="M131.8518372,96.8055038c2.4916992-2.472168,5.3769531-4.4624023,8.5751953-5.9155273
					c0.4484863-0.2072601,0.7641907,0.4769516,0.3105469,0.6826172c-3.1171875,1.4165039-5.9291992,3.355957-8.3574219,5.7651367
					C132.0286713,97.6868744,131.4990082,97.154808,131.8518372,96.8055038z"/>
			</g>
			<g>
				<path class="st21" d="M137.0364075,103.1429062c-0.4916992,0-0.96875-0.2119141-1.3457031-0.5991211
					c-2.5348206-2.6003571,2.0994568-6.6778564,5.4360352-8.1533203c0.4536438-0.2014847,0.7573547,0.4856186,0.3037109,0.6855469
					c-2.6996155,1.1938782-7.2384491,4.85672-5.2026367,6.9443359c0.1689453,0.1728516,0.480957,0.3886719,0.8212891,0.3725586
					c0.4983521-0.0261765,0.5105133,0.7429276,0.0107422,0.75
					C137.0520325,103.1429062,137.04422,103.1429062,137.0364075,103.1429062z"/>
			</g>
			<path class="st11" d="M114.0020828,145.3870697c0,0,10.3157578,0.2827454,17.8063889,10.5234222
				c7.4906464,10.2406616,21.5727234,31.2798157,22.0948334,35.9979401s0.216156,14.9201202-15.6979828,11.6681061
				c-15.9141312-3.2519989-21.2698288-6.822464-21.2698288-6.822464l-4.0805359-9.7861481l11.8928604-4.3275299
				C124.747818,182.6403961,119.8597107,157.5021667,114.0020828,145.3870697z"/>
			<path class="st0" d="M133.1471252,186.401123c-1.0746307-1.2492523-2.1386108-1.9952087-3.4550934-2.5214081
				c-4.8916168-3.3805847-14.1092529,0.8033295-20.725174,5.085144l-2.5392151,14.9493713
				c0.7016144-0.9421387,1.3962021-1.8962097,2.0674591-2.8819122c4.8479156-2.5323792,6.8361664-0.3357849,9.8141556-2.3413696
				c1.4705658-0.990387,3.6703568-0.8834839,5.2431717-1.0978241c0.9874725-0.13237,2.3676605,0.3564606,4.0865707,0.6803589
				c1.2631607,0.2307281,2.9332962,0.3251038,2.4144516-0.8500671c-0.5463104-1.2418976-1.5735016-1.7687683-2.6727982-2.4230804
				c-0.022377-0.0037994-0.0425262-0.0210571-0.0636902-0.0323334c-0.4856186-0.2614136-0.984436-0.4905243-1.4712448-0.7452545
				c0.3942108-0.1941376,0.8389053-0.0517883,1.21035,0.0343475c2.3650436,0.5441132,3.3290329,2.6968231,3.690773,2.9523468
				c0.2962799,0.2092896,0.6736603-0.0890808,0.756073-0.7362976c0.0689697-0.5419769-0.2391357-1.1034698-0.3948669-1.4593811
				c0,0-0.0013275-0.0148163-0.0050201-0.0154419c-0.5632477-1.7882538-2.1036224-3.1636963-3.0969391-4.2230377
				l0.0072937-0.0202637l0.0127563-0.0523682c0.2926025-0.0940857,0.8578491,0.2233124,1.1030426,0.3801422
				c0.7454834,0.289978,1.8394775,1.1023712,2.7994843,1.4738922c0.2734985,0.1086731,0.6057587,0.1651154,0.8557739-0.1986694
				c0.2195892-0.3205719,0.2807465-0.8615723,0.2111511-1.2658234c-0.1622467-0.9117737-1.3674011-2.2020111-2.0937347-2.7793579
				c-0.4637909-0.4824524-1.1647949-0.9330139-1.2655334-1.0067444c2.5697327,0.5496216,3.6077576,1.9368896,4.0700531,1.9308777
				c0.1848907-0.0031433,0.4004211-0.1869354,0.4874725-0.4954681
				C134.3960571,187.9937897,133.6544495,186.984787,133.1471252,186.401123z"/>
			<path class="st11" d="M92.7753448,185.2192078h21.5464401c0,0,2.8889008,10.3495178-1.1074524,17.1638184
				c0,0-31.3135681,18.8197174-42.6321564,10.5968018c-11.3185844-8.2229004-12.3441391-29.668808-7.6129913-42.8129578
				c4.7311478-13.1441345,17.112175-20.3058777,22.3949661-21.6424713
				C85.364151,148.5243988,86.5456085,180.1127625,92.7753448,185.2192078z"/>
			<path class="st27" d="M92.7753525,185.2190247c-4.9734421,0.4120178-10.5853958,5.8566742-13.0929413,8.0991211
				c2.7043533-3.872879,6.2613449-6.5128021,9.1480865-7.5249023
				C90.0886612,185.3479309,91.4473038,185.0281067,92.7753525,185.2190247z"/>
			<path class="st27" d="M124.7478104,182.6404114c4.7322922-1.5157623,11.3221664-1.0361328,15.8218765,2.5092773
				c1.5082092,1.0927734,2.651474,2.5874023,3.6286011,4.1147461c-0.6567078-0.6435547-1.1702881-1.3959961-1.876709-1.9658203
				l-0.999588-0.9023438c-0.3478546-0.28125-0.7306366-0.5195313-1.0920563-0.7802734
				C135.6835938,182.5583038,130.1139221,181.9040985,124.7478104,182.6404114z"/>
			<path class="st0" d="M106.6049576,117.6976471c3.0557709,5.2773972,6.5247498,9.80233,4.8064651,16.252121
				c-2.1153336,7.9406433-12.4496765,11.3178253-16.5007935,8.9409943
				c-1.0448074-0.6130066-2.0018005-1.9286499-2.2555771-2.4864044c-0.1458817-0.3206482-0.1133118-0.6773987-0.2706451-0.9993744
				c-0.1340408-0.2743073-0.4371262-0.4916382-0.7349014-0.4242706c-0.3416519,0.077301-0.5027542,0.4549255-0.709343,0.7378235
				c-0.6670074,0.9133911-2.1168671,0.9263916-3.0545731,0.2939911c-0.937706-0.6323853-1.459053-1.7170563-1.8317566-2.7849121
				c-0.2596283-0.7438812-0.4705353-1.5251617-0.4072113-2.3105011s0.4442978-1.5815582,1.1302567-1.9691467
				c0.790062-0.4463959,1.7898102-0.2748566,2.64328-0.5831757c1.1155853-0.4030151,1.7970886-1.5737762,2.0042419-2.7416992
				c0.4106445-2.3151169-0.6916046-4.8763962,0.4835281-7.0175858c0.6804352-1.2398071,2.1293106-2.012558,3.5379715-1.8869629
				c0.5818481,0.0518799,1.1632767,0.2425766,1.739006,0.1437225c1.4729691-0.2529144,2.1239014-2.170433,3.6691132-2.3771591
				c0.5468216-0.0731583,1.1782379,0.076767,1.7442856,0.0694351
				C103.9818802,118.5366364,105.3796692,118.3934631,106.6049576,117.6976471z"/>
			<path class="st3" d="M97.6300583,124.8105011c0.2665176-0.1303711,1.075737-0.3665543,1.3115082-0.088707
				c0.6655121,0.7842865-3.973587,3.4175186-4.5244827,3.7670822c-0.1831741,0.1162109-0.4860077,0.3743744-0.7125473,0.282074
				c-0.2078247-0.084671-0.2116928-0.233078-0.1308517-0.4017181
				C94.2416229,126.9753799,96.1231766,125.5476456,97.6300583,124.8105011z"/>
			<path class="st3" d="M107.3430252,120.2614517c0.1869659,0.0042191,0.3175583,0.0748138,0.2990417,0.2984619
				c-0.020195,0.2437897-0.3874359,0.3970337-0.573967,0.5077972c-0.560997,0.3331146-5.0083389,3.2786713-5.4066162,2.330307
				c-0.141098-0.335968,0.4356766-0.9507523,0.6725388-1.1294327
				C103.6732178,121.2583237,105.7977982,120.2264175,107.3430252,120.2614517z"/>
			
				<ellipse transform="matrix(0.9209613 -0.389654 0.389654 0.9209613 -40.1270065 51.361824)" class="st3" cx="106.5412292" cy="124.5922928" rx="1.0326763" ry="1.43072"/>
			
				<ellipse transform="matrix(0.9209613 -0.389654 0.389654 0.9209613 -42.3993416 48.5558281)" class="st3" cx="98.4884033" cy="128.7904968" rx="1.0326763" ry="1.43072"/>
			<path class="st3" d="M106.0454025,128.8066406c0.0607986,0.5793152-0.4513016,0.9540253-0.9647293,1.2169952
				c-0.4995422,0.2558441-1.0231781,0.4646301-1.5617142,0.6226807c-0.1760178,0.0516663-0.4352264,0.0502777-0.4661713-0.1305389
				c-0.0331879-0.1939545,0.0396957-0.1837006,2.2235794-1.7723541c-0.9569321-0.6972504-1.9138641-1.3944855-2.8708191-2.0917511
				c-0.18293-0.1332855-0.4716339-0.4543686-0.1534348-0.6271133c0.2514725-0.1365204,0.7160721,0.310791,0.9011993,0.4331207
				C105.3691025,127.9218521,105.9813004,128.1958313,106.0454025,128.8066406z"/>
			<path class="st3" d="M108.1699753,133.2936401c-0.1301727,2.3984528-2.1407318,3.9980927-3.9094543,3.841217
				c-1.5464859-0.1522369-2.8552246-1.8168793-2.783493-3.3244629c2.0230103-1.4233704,4.0459595-2.8517456,6.0690308-4.275116
				c0.1705475,0.5605316,0.3412094,1.1796417,0.4630737,1.8182526
				C108.1358795,132.0018921,108.2089539,132.6647949,108.1699753,133.2936401z"/>
			<path class="st20" d="M108.0091324,131.3535309c-1.8816833,1.5842743-3.8948822,3.0076447-6.015419,4.2556
				c-0.3460846-0.5507813-0.5459061-1.1846466-0.5166855-1.7987366c2.0230103-1.4233704,4.0459595-2.8517456,6.0690308-4.275116
				C107.7166061,130.0958099,107.8872681,130.71492,108.0091324,131.3535309z"/>
			<path class="st11" d="M108.1699753,133.2936401c-0.1525955,2.8117218-2.9003983,4.5280457-4.7722855,3.5927124
				C104.6434097,134.7138977,106.8358078,133.4299164,108.1699753,133.2936401z"/>
			<path class="st2" d="M90.0708313,136.9258728c-0.3575974-0.545517-0.7151871-1.0910339-1.0727844-1.6365509
				c-0.4635162,0.1392822-1.0018387,0.8035583-0.9807281,1.2870941s0.3998337,0.9287415,0.8737259,1.0271149
				S89.8590164,137.3610535,90.0708313,136.9258728z"/>
		</g>
	</g>
</g>
</svg>
