<?xml version="1.0" encoding="utf-8"?>
<!-- Generator: Adobe Illustrator 22.0.1, SVG Export Plug-In . SVG Version: 6.00 Build 0)  -->
<svg version="1.1" id="Layer_1" xmlns="http://www.w3.org/2000/svg" xmlns:xlink="http://www.w3.org/1999/xlink" x="0px" y="0px"
	 viewBox="0 0 300 300" style="enable-background:new 0 0 300 300;" xml:space="preserve">
<style type="text/css">
	.st0{fill:#EDC1A4;}
	.st1{fill:#E2E0E0;}
	.st2{fill:#D39E81;}
	.st3{fill:#502E26;}
	.st4{fill:#CCCACA;}
	.st5{fill:#426800;}
	.st6{fill:#538705;}
	.st7{fill:#D47E44;}
	.st8{fill:#73341D;}
	.st9{fill:#BC672E;}
	.st10{fill:#96311D;}
	.st11{fill:#B83E21;}
	.st12{fill:#DE8D82;}
	.st13{fill:#EFBAB4;}
	.st14{fill:#FDD5D0;}
	.st15{fill:#6883CE;}
	.st16{fill:#3D4885;}
	.st17{fill:#3859AE;}
	.st18{fill:#864424;}
	.st19{fill:#FEFEFE;}
	.st20{fill:#FFFFFF;}
	.st21{fill:#A55925;}
	.st22{fill:#F4F2F2;}
	.st23{fill:#3C3E68;}
	.st24{fill:#E8997C;}
	.st25{fill:#F5C46B;}
	.st26{fill:#F7EBDA;}
	.st27{fill:#0E0C0D;}
	.st28{fill:#657C3A;}
	.st29{fill:#576C37;}
	.st30{fill:#7C995D;}
	.st31{fill:#36518C;}
	.st32{fill:#96B7E3;}
	.st33{fill:#A3B3DF;}
	.st34{fill:url(#SVGID_1_);}
	.st35{fill:url(#SVGID_2_);}
	.st36{fill:url(#SVGID_3_);}
	.st37{fill:url(#SVGID_4_);}
	.st38{fill:url(#SVGID_5_);}
	.st39{fill:#266AB7;}
	.st40{fill:#060E0D;}
	.st41{fill:#E0D4C6;}
	.st42{fill:#787E42;}
	.st43{fill:#D3D1D1;}
	.st44{fill:url(#SVGID_6_);}
	.st45{fill:url(#SVGID_7_);}
	.st46{fill:url(#SVGID_8_);}
	.st47{fill:#020508;}
	.st48{fill:#BAB6B6;}
	.st49{fill:#0F0B07;}
	.st50{fill:#2F3A68;}
	.st51{fill:#203257;}
	.st52{opacity:0.5;fill:#FFFFFF;}
	.st53{opacity:0.2;fill:#0E0C0D;}
	.st54{fill:#DD9F9B;}
	.st55{fill:#3E4D9B;}
	.st56{fill:url(#SVGID_9_);}
	.st57{fill:#5F6194;}
	.st58{fill:url(#SVGID_10_);}
	.st59{fill:url(#SVGID_11_);}
	.st60{fill:url(#SVGID_12_);}
	.st61{fill:url(#SVGID_13_);}
	.st62{fill:#070102;}
	.st63{fill:#100805;}
	.st64{fill:#FDA465;}
	.st65{fill:#2A50A1;}
	.st66{fill:#B76C39;}
	.st67{fill:#130602;}
	.st68{fill:url(#SVGID_14_);}
	.st69{fill:url(#SVGID_15_);}
	.st70{fill:url(#SVGID_16_);}
	.st71{fill:url(#SVGID_17_);}
	.st72{fill:url(#SVGID_18_);}
	.st73{fill:url(#SVGID_19_);}
	.st74{fill:#B4BDED;}
	.st75{fill:#100D08;}
	.st76{fill:#F6C85F;}
	.st77{fill:#FECF00;}
	.st78{fill:#2D59E2;}
	.st79{fill:#121F3A;}
	.st80{fill:#BBD0F5;}
	.st81{fill:#020202;}
	.st82{fill:#E2CFB7;}
	.st83{fill:#080805;}
	.st84{fill:#A87D7C;}
	.st85{fill:#182052;}
	.st86{fill:#EAEAEA;}
	.st87{fill:#DDDDDD;}
	.st88{fill:#3D4574;}
	.st89{fill:#ABC5F0;}
	.st90{fill:url(#SVGID_20_);}
	.st91{fill:#4159A8;}
	.st92{fill:#E0D0BD;}
	.st93{fill:#3D53AA;}
	.st94{fill:#0A0000;}
	.st95{fill:#BF6D36;}
	.st96{fill:#385DAE;}
	.st97{fill:#E0DCDC;}
	.st98{fill:#857E78;}
	.st99{fill:#0E213C;}
	.st100{fill:url(#SVGID_21_);}
	.st101{fill:#55608E;}
	.st102{opacity:0.3;fill:#F4F2F2;}
	.st103{opacity:0.3;}
	.st104{fill:#213987;}
	.st105{enable-background:new    ;}
</style>
<g id="Restaurant_1_">
	<g id="Restaurant">
		<g>
			<g>
				<rect x="204.011322" y="92.3741302" class="st63" width="1.7631757" height="13.9736404"/>
				<path class="st7" d="M206.8634949,127.5079193c-0.3874207,0.7567902-0.937088,1.6398773-1.8652649,1.730072
					c-1.5048981,0.1443176-2.2527924-1.9914322-2.6853027-3.0997849c-1.5222473-3.8038788-2.5659943-9.3963318-3.1089172-13.4538193
					c-0.4433289-3.8154297-0.7718201-6.7395935,2.7935486-8.2899933c3.4936066-1.5318909,8.3427734-0.0132065,8.7768555,3.7487793
					C211.2038879,112.0038834,208.9220886,123.531189,206.8634949,127.5079193z"/>
				<path class="st64" d="M210.7744141,110.8104401h-11.7686157c-0.0979919-0.8567581-0.1059113-2.2542114,0.1261597-3.3255005
					h11.5162811C210.9015808,108.4590759,210.8604431,109.8074646,210.7744141,110.8104401z"/>
				<path class="st64" d="M209.9931946,116.5233688c-0.1847382,1.079628-0.5370789,2.7353134-0.6758423,3.3250656h-8.8489075
					c-0.0703888-0.3414154-0.3988953-1.7835464-0.675827-3.3250656H209.9931946z"/>
				<path class="st11" d="M209.5156403,118.9292831c-0.1246948,0.6057739-0.1938324,0.9284286-0.3785095,1.6671524h-8.4884491
					c-0.1357422-0.565094-0.2635651-1.108696-0.3785095-1.6671524H209.5156403z"/>
				<path class="st64" d="M208.402771,123.3807373c-0.1712646,0.5587997-0.3424377,1.1083527-0.5316315,1.6583557h-5.9564667
					c-0.1982269-0.5500031-0.3693848-1.099556-0.5316315-1.6583557H208.402771z"/>
				<path class="st15" d="M210.8312836,109.864006c-0.0161133,0.5634537-0.0827332,1.3591003-0.1172638,1.6583481h-11.642334
					c-0.0433502-0.3756256-0.117157-1.1693726-0.117157-1.6583481H210.8312836z"/>
			</g>
			<g>
				<polygon class="st3" points="150.7461548,197.5982208 151.0344238,87.6373367 147.3924561,87.6373367 147.104187,197.5982208 
									"/>
			</g>
			<g>
				<polygon class="st63" points="97.7289505,106.4658508 95.9657745,106.4658508 96.1080093,85.9382401 97.8711853,85.9382401 				
					"/>
				<path class="st7" d="M98.8179474,127.6259918c-0.387413,0.7568054-0.9370804,1.6398773-1.8652573,1.730072
					c-1.5049057,0.1443176-2.2527924-1.9914246-2.6853104-3.0997849c-1.4914246-3.72686-4.0194778-14.7825775-3.1809616-18.6532669
					c1.3666763-5.0955811,11.0044632-4.8710098,11.6424561,0.6582336
					C103.1761703,112.2822571,100.8313904,123.7365112,98.8179474,127.6259918z"/>
				<path class="st64" d="M102.7288742,110.9285126H90.9602509c-0.0927887-0.8112793-0.1083298-2.2430267,0.1261673-3.3255005
					h11.5162811C102.8553162,108.5743713,102.8143921,109.9314804,102.7288742,110.9285126z"/>
				<path class="st64" d="M101.9476547,116.641449c-0.2280807,1.332901-0.6332932,3.1442184-0.6758423,3.3250656h-8.8488998
					c-0.0703964-0.3414154-0.3989105-1.7835541-0.6758423-3.3250656H101.9476547z"/>
				<path class="st11" d="M101.4700928,119.0473557c-0.1246872,0.6057816-0.1938324,0.9284363-0.3785095,1.6671524h-8.4884415
					c-0.1357498-0.5650864-0.2635651-1.108696-0.3785095-1.6671524H101.4700928z"/>
				<path class="st64" d="M100.3572235,123.4988174c-0.1712646,0.5587921-0.3424301,1.1083527-0.5316238,1.6583481h-5.9564743
					c-0.1982193-0.5499954-0.3693771-1.099556-0.5316238-1.6583481H100.3572235z"/>
				<path class="st15" d="M102.7857361,109.9820786c-0.0161057,0.5634613-0.0827255,1.3591003-0.1172562,1.6583557H91.0261383
					c-0.0433426-0.3756332-0.1171494-1.1693726-0.1171494-1.6583557H102.7857361z"/>
			</g>
			<path class="st3" d="M219.243454,180.5284271c0.7500763,0.4920959,1.7125092,0.664856,2.5962982,0.5965881
				c1.3426666-0.103714,2.5945587-0.6886444,3.8120575-1.2641449c4.3496399-2.0560303,1.6911316-4.0329437,1.0675049-5.9813995
				c-0.3820801-1.1937408-0.0809937-2.4949951-0.2389832-3.7384033c-0.3414917-2.6877289-2.6142273-4.5709076-3.6306915-7.0168304
				c-1.2878418-3.0989532,1.2379761-5.6948395-0.8114166-10.6826782c-0.6953888-1.6924438-1.2767639-1.0391846-1.7631531-1.4045715
				c-0.249527-0.1874542-0.332962-0.6591339-0.491745-0.9205627c-1.1198883-1.84375-3.503418-2.1680908-5.0667114-0.9537201
				c-0.8664703-1.3864136-2.7763519-1.6784973-4.0175476-0.6138153c-0.6790009,0.582428-1.1044312,1.5247955-1.9616089,1.7807465
				c-0.4204254,0.1255493-0.871582,0.0563049-1.3089905,0.0909119c-1.0485687,0.0829926-2.0161743,0.8244171-2.3690796,1.8152924
				c-0.35289,0.9908752-0.0717773,2.1770325,0.6882782,2.9041443c1.5471954,1.4801178,2.1234131,3.5903473,2.975647,5.5545959
				c1.8085938,4.1685333,3.7843475,8.266449,5.9945374,12.2377319c1.0807037,1.9418335,2.5164948,3.8112488,3.4523468,5.8171082
				C218.5139618,179.4862366,218.4935303,180.036438,219.243454,180.5284271z"/>
			<polygon class="st7" points="217.9234924,169.1706085 217.2693024,173.774353 211.9322662,174.9487762 209.1415253,172.5918579 
				208.0220642,173.5614929 208.0220642,167.0261688 215.8818207,161.7757416 215.8818207,167.3572083 			"/>
			<path class="st18" d="M215.8818207,161.7757416v2.3180389c-1.8132019,2.5066528-4.7773438,4.1622314-7.8597565,4.406662
				v-1.4742737L215.8818207,161.7757416z"/>
			<g>
				<path class="st65" d="M185.4131622,174.1596527l0.6102905-7.5591278l5.7210083-2.770874
					c0.432373-0.2093811,0.1140442-0.8613129-0.3153992-0.6516571l-5.9076996,2.8610382
					c-0.3547516,0.1714172-0.1243744,0.1539612-0.8302155,8.0622864
					C184.6529388,174.5801086,185.3735962,174.6412048,185.4131622,174.1596527z"/>
			</g>
			<path class="st65" d="M190.6749573,175.7938843c-0.1318817,6.5183411-2.7372742,17.7704926-2.7372742,17.7704926
				s-7.1401367,2.8170166-8.1828461,0.5720978c-0.7603912-1.6293182-2.0493927-12.4624634-2.3172302-18.610611
				C177.4564362,174.5952301,190.6937866,174.8632507,190.6749573,175.7938843z"/>
			<path class="st1" d="M177.4376068,175.5258636c4.4027557-0.4416199,8.8562622-0.3546448,13.2373505,0.2680206
				c0.2533417-2.5634918,0.2751007-4.3809204-0.1521301-4.4608307c-1.5061798-0.2750854-11.8324585-0.8327026-12.8535309-0.0144958
				C177.3868713,171.5430756,177.3433838,173.2014008,177.4376068,175.5258636z"/>
			<path class="st65" d="M188.7839508,261.5839233c1.5933685-0.6104431,5.3288422-0.8595276,7.8540649-0.145874
				c1.4339142,0.4052124,2.7324066,1.1781921,3.3401489,2.2136536c0.5535431,0.9431152-0.0431061,2.5873718,0.4404449,4.0350037
				c0.0541382,1.3200684,0.6054382,2.7386169,0.4067383,4.0467224c-0.0921783,0.606842-0.4032288,0.9932251-1.0753937,1.3652954
				c-3.8108521,2.1084595-13.1669159,2.0493469-17.7906952,1.5836792c-2.1139069-0.2128906-5.7316284-0.6217957-7.0604401-1.9793091
				c-1.9701233-2.0131226,4.2045746-4.269043,6.8834381-5.3664246c2.35112-0.9706116,4.837204-3.3591003,5.225769-4.1508179
				C187.0449524,263.1106262,187.8705444,261.9338684,188.7839508,261.5839233z"/>
			<path class="st15" d="M175.6064911,262.4928589c1.5933685-0.6104431,5.3288422-0.8594971,7.8540649-0.145874
				c1.4339142,0.4052124,2.7324066,1.1781921,3.3401489,2.2136841c0.5535431,0.9430847-0.0431061,2.5873413,0.4404449,4.0349731
				c0.0541382,1.3200989,0.6054382,2.7386169,0.4067383,4.0467224c-0.0921783,0.606842-0.4032288,0.9932251-1.0753937,1.3652954
				c-3.8108521,2.1084595-13.1669159,2.0493469-17.7906952,1.5836792c-2.1139069-0.2128906-5.7316284-0.6217957-7.0604401-1.9793091
				c-1.9701233-2.0131226,4.2045746-4.269043,6.8834381-5.366394c2.35112-0.9706421,4.837204-3.3591309,5.225769-4.1508179
				C174.2051086,263.3316345,174.6930847,262.842804,175.6064911,262.4928589z"/>
			<path class="st66" d="M197.4725494,265.7841797c-2.4169464,0.4806824-6.1511993,0.1537781-8.1796722-0.1542053
				c-0.8311615-0.1262207-1.5267792-0.678772-1.8359985-1.4605103c-1.6096191-4.069458-4.1312256-9.7147827-5.3632202-13.4822845
				c-0.7252045-2.2229614-1.1429901-1.0748749-0.3625336-3.4637451c0.8750305-2.7041321,4.2805939-20.4570618,4.2805939-20.4570618
				l8.8057404-0.8830261l5.4237366,7.4653168c0,0,0.3468323,16.3029022,0.3547211,16.3263855
				c0.135849,1.5084839-0.5933838,10.2097778-1.4828339,14.4997253
				C198.9429474,264.9953308,198.2944641,265.6207275,197.4725494,265.7841797z"/>
			<path class="st4" d="M192.6225891,233.076767c0,0,9.3067474,4.376297,11.7670135-0.698761
				c0.1725769-0.3559875,5.522522-9.8478241,5.004776-9.7615356c-0.5177307,0.0863037-6.3854065-3.0448761-6.3854065-3.0448761
				s-9.521698,5.1443939-9.8087769,5.1301117C192.9131317,224.6874237,192.6225891,233.076767,192.6225891,233.076767z"/>
			<path class="st7" d="M174.5514526,222.0867004c0,0-9.3089447,14.9069672-0.0380249,43.6126709
				c0,2.3322754,11.4302673,1.9789734,11.4302673-0.3533325c0,0,4.4696198-28.053833,6.678894-32.2692719
				C194.8318787,228.8613434,174.5514526,222.0867004,174.5514526,222.0867004z"/>
			<path class="st1" d="M229.9959412,211.2571564c0,0,2.6937256,13.5243073-3.3804169,15.9190369
				c-6.0741425,2.3947144-26.589447-5.3196411-33.415329,7.2691193c0,0-14.8524017-1.078064-18.6487427-12.3586121
				c0,0-2.0605469-13.3726959,24.156311-13.0406647C217.3943634,209.2826996,229.9959412,211.2571564,229.9959412,211.2571564z"/>
			<path class="st4" d="M94.3863907,172.8115997c0,0,1.3792496,0.5917206,5.0093002,4.6264648
				s8.4318848,9.4803925,8.4318848,9.4803925l-20.9567566,8.6173706l-3.7364883-8.789093l0.5965652-8.6379089
				L94.3863907,172.8115997z"/>
			<path class="st63" d="M93.3416977,268.3015442c0,0-0.297081,2.9746094,0.3472672,3.6748352
				c1.0762024,1.1695251,24.7538376,2.6445618,38.4081268,0.0396118c0.7142639-0.136261,1.9117279-2.8951416,1.7809906-3.7238464
				C133.5978241,266.515564,93.3416977,268.3015442,93.3416977,268.3015442z"/>
			<path class="st66" d="M133.4267426,269.5778809c-1.4751282,1.4751587-39.7318344,1.3996277-40.157814,0
				c-0.4256287-1.3953552,3.3740997-12.9601746,3.3740997-12.9601746s18.7780838-1.0011902,18.9357147,0.3941956
				c0.1498337,1.3083496,3.516037,4.753479,9.4757996,6.0541382c1.3646088,0.2906494,1.5047302,0.2313538,2.8617554,0.57547
				C133.22966,265.0291748,134.7668762,268.2375793,133.4267426,269.5778809z"/>
			<path class="st63" d="M127.9162979,263.64151c-2.2756653,2.5115356-3.6089249,5.8139648-3.4451141,9.3576355
				l-3.2951889-0.0789185c-0.1398315-3.4923096,1.2343292-7.2202148,3.8785477-9.854187
				C125.3706207,262.7008972,127.9802856,263.3227844,127.9162979,263.64151z"/>
			<path class="st63" d="M86.9041595,270.6929932c0,0-0.297081,2.9746399,0.3472672,3.6748657
				c1.0762024,1.1695251,24.7538376,2.6445618,38.4081268,0.0395813c0.7142639-0.136261,1.9117279-2.8951416,1.7809982-3.7238159
				C127.1602936,268.9070435,86.9041595,270.6929932,86.9041595,270.6929932z"/>
			<path class="st7" d="M126.989212,271.9693604c-0.4257355,0.4257202-3.9890213,0.7252197-8.8215179,0.9065247
				c-1.0484467,0.0315552-2.1442413,0.0631104-3.2952805,0.0866089
				c-11.7303238,0.2601929-27.7651215-0.0866089-28.0410156-0.9931335
				c-0.4256363-1.3953552,3.3740921-12.9601746,3.3740921-12.9601746s18.7780914-1.0011902,18.9357147,0.394165
				c0.1498337,1.3083801,3.516037,4.753479,9.4757996,6.0541687c0.370491,0.0789185,0.7646637,0.1578064,1.1588287,0.2209473
				C126.5778351,266.7395325,128.3997955,270.5585632,126.989212,271.9693604z"/>
			<path class="st63" d="M121.4787598,266.0329895c-1.7501755,1.9315796-2.916893,4.3042603-3.3110657,6.8428955
				c-0.1261597,0.8198853-0.1734085,1.663269-0.1340485,2.51474l-3.2951889-0.0789185
				c-0.0315628-0.7883301,0.0157852-1.5766602,0.1339569-2.3492126c0.4099503-2.8223267,1.7343979-5.5025635,3.7445908-7.5049744
				C118.9330826,265.0923462,121.5427551,265.7142639,121.4787598,266.0329895z"/>
			<path class="st11" d="M105.9140854,207.536087c0,0,13.167717,0.6485138,15.9472122,6.1652222
				c2.7794876,5.5166931,2.6237869,8.0113068,1.1304245,19.6680145s-4.7471542,26.3026123-4.7471542,26.3026123
				l-8.2428284-0.1172485l-3.27948-6.3048553l3.4767303-30.5550995l-11.098793-13.4771881v-3.438446L105.9140854,207.536087z"/>
			<path class="st11" d="M68.92202,206.9572144c0,0-3.1192551,8.5529633,0.5946655,14.8684387
				c0,0,2.1597061,4.0691223,5.7912369,5.3602295l24.330162,0.7515717c0,0-9.8921509,26.635376-10.6144943,31.7744904
				c0,0,18.4626617,0.3532104,20.9781494-0.1572571c0,0,10.7929611-31.04422,8.4367905-39.4412689
				c-2.356163-8.3970642-16.6456299-12.6535034-21.1300888-13.4895935
				C92.8239822,205.7877502,68.92202,206.9572144,68.92202,206.9572144z"/>
			<path class="st27" d="M110.0017471,259.554718c2.30233-6.9637299,10.865387-33.4472198,8.0726929-40.2021637
				c-2.0806885-5.4235077-9.1123734-9.0088806-14.5809631-11.0019531
				c5.589119,1.9344635,12.5982895,5.4009399,14.7560272,10.9355469
				C121.1787262,226.2613068,112.5098801,252.4325714,110.0017471,259.554718z"/>
			<g>
				<path class="st65" d="M112.2994614,173.78479l-0.6643829-8.2292023l-6.228157-3.0164948
					c-0.4706955-0.227951-0.1241531-0.9376678,0.3433609-0.7094269c6.5425262,3.2494659,6.6172867,3.0105591,6.6527252,3.4376068
					l0.6824799,8.45401C113.1270752,174.2425385,112.3425369,174.3090363,112.2994614,173.78479z"/>
			</g>
			<path class="st65" d="M106.571228,175.5638885c0.1435776,7.0961761,2.9799271,19.3457642,2.9799271,19.3457642
				s7.7730637,3.0667267,8.9082184,0.622818c0.8277893-1.7737579,2.2310486-13.567215,2.5226364-20.2603607
				C120.9615097,174.2589874,106.5507278,174.550766,106.571228,175.5638885z"/>
			<path class="st1" d="M120.9820099,175.27211c-4.7930374-0.4807739-9.6413193-0.3860779-14.4107819,0.2917786
				c-0.2758026-2.7907257-0.2994766-4.7692719,0.1656189-4.8562622c1.6397018-0.299469,12.8813553-0.9065094,13.9929352-0.0157776
				C121.0372467,170.9362793,121.0845947,172.7415924,120.9820099,175.27211z"/>
			<path class="st7" d="M97.9293289,157.0134125c-0.0945969,1.2929688-0.047348,2.6171265-0.252327,3.8866272
				c-0.2481461,1.5582581-0.9521637,3.555542-2.0495529,4.6984406c-0.8970108,0.956131-1.017807,0.7260742-2.1994858,0.7013397
				c-4.0757599-0.1143799-6.2639084-1.3998566-7.4024734-5.6284332c-0.8276901-3.1456451-0.7174072-6.5353241,0.3153534-9.6178284
				c0.4099503-1.2217712,1.0721283-2.5070496,2.2703094-2.9639587c0.8672485-0.323349,1.8368835-0.1501312,2.7434921,0.0234833
				c4.2447815,0.8383179,5.0759583,0.8904266,5.9203033,1.5058441
				C98.8460083,150.765976,98.1382523,154.0913544,97.9293289,157.0134125z"/>
			<path class="st8" d="M83.5218506,152.8882446c0.4804688-2.1590271,0.7524796-4.62117,2.0006027-6.0269623
				c0.837677-0.943512,2.2081451-1.4143219,3.4425049-1.112854c0.7525482,0.1838074,1.4247894,0.614563,2.1720428,0.8188019
				c2.6710815,0.730072,5.6227112-1.363739,6.7406464,0.5321503c0.5744781,0.9744873,0.2221146,2.1082916-0.0210342,3.1233063
				c-0.70121,0.3760376-1.2379379,0.7433472-2.0705185,0.4877625c-0.4950333-0.1519623-0.9663086-0.4076691-1.4826431-0.447113
				c-0.8603363-0.0657501-1.57827,0.4624786-2.7290268-0.016037c-0.3154373-0.1311646-0.5684204-0.3784637-0.886673-0.4944305
				c-0.6185684-0.2253876-1.457489-0.4405518-2.0983734-0.2175598c-0.919548,0.319931-1.0770721,2.9835052-1.3692017,4.3588715
				c-0.6174698,2.9061127-1.7082748,4.5225372-0.1156998,7.5418854c1.1044235,2.0934448,2.9373779,3.5687714,5.2108688,4.213501
				c0.757309,0.2146912,1.6853485,0.3106995,2.3885269,0.6494598c-0.4838486,0.1546783-0.970726,0.3281097-1.4703445,0.4221649
				c-1.4682236,0.3310089-3.1628952,0.3721619-4.5924454-0.1194305c-3.565155-1.2259674-6.6564484-5.682312-5.7080154-11.7198486
				C83.0451508,154.1684113,83.3658295,153.5893402,83.5218506,152.8882446z"/>
			<path class="st7" d="M94.6183548,173.8521271c0.2128677,0.5596924,0.6542892,0.8830261,0.9854202,1.3561096l-0.0078888,0.1181641
				c-5.3843842,2.120575-8.3441467-5.3481293-13.4998856-7.9972076c0.1024857-1.2771912,1.2096786-4.5845795,1.438324-5.8775482
				c1.9504242,4.1855011,5.1212769,6.2990875,9.6965561,5.2662048
				C93.7432251,169.0905609,94.05867,171.4952087,94.6183548,173.8521271z"/>
			<path class="st7" d="M85.5571594,158.3331909c0.1367645-1.5467529,0.4583664-3.0770569,0.9557877-4.5480042
				c-0.3680038-0.4550934-1.1257935-0.5600586-1.6533508-0.3066559s-0.8807297,0.7885742-1.0280457,1.3549957
				c-0.212265,0.8161163-0.0771637,2.3764343,0.4164505,2.9973755
				C84.5272446,158.1821594,85.1498184,158.5214233,85.5571594,158.3331909z"/>
			<path class="st8" d="M93.6594391,153.3951416c0.252594,0.1708984,0.2332458,0.47966-0.057045,0.6027527
				c-0.4423676,0.1875916-2.864006,0.0181274-3.6165771-0.0743866c-0.3482819-0.0428162-0.8852692-0.1946259-0.774231-0.6676025
				c0.0895309-0.3813782,0.588089-0.3348846,0.8859482-0.3343353
				C90.9300919,152.9230652,93.2422714,153.1128998,93.6594391,153.3951416z"/>
			<path class="st8" d="M98.2210083,153.7338104c0.1767731,0.013855,0.1058502,0.9203644-0.0709229,0.9065094
				c-0.8829346,0.0157776-1.7658615-0.0315704-2.6409988-0.1416473c-0.3468246-0.0396576-0.8828354-0.1893921-0.7725525-0.6624756
				c0.0867996-0.3860779,0.5912476-0.3387299,0.8830261-0.3387299
				C96.4866104,153.497467,97.3617477,153.5763702,98.2210083,153.7338104z"/>
			
				<ellipse transform="matrix(0.2980909 -0.9545375 0.9545375 0.2980909 -84.3289337 196.6018372)" class="st8" cx="91.5165329" cy="155.6410522" rx="0.963455" ry="0.5845904"/>
			
				<ellipse transform="matrix(0.2980909 -0.9545375 0.9545375 0.2980909 -81.3173523 201.4996338)" class="st8" cx="96.352623" cy="156.0422058" rx="0.963455" ry="0.5845904"/>
			<path class="st8" d="M94.5378113,158.3743134c0.3256226,1.3490295-0.6968842,1.086319-2.0436707,0.9818726
				c-0.4391174-0.0340576-0.5241241-0.3145752-0.1597824-0.3255463c1.6173248-0.0487366,1.931282,0.0715179,1.843689-0.437088
				c-0.3943558-2.2898712-0.395607-2.2185059-0.3711166-2.3374481c0.0339432-0.1648254,0.1567001-0.2105865,0.2379532-0.061554
				c0.1119614,0.2053528,0.1413574,0.7232666,0.2109909,1.0117188
				C94.3498535,157.5956116,94.4438324,157.9849548,94.5378113,158.3743134z"/>
			<path class="st19" d="M95.3120041,161.0809479c-1.0706863,3.3761139-5.3822556,2.2211761-5.1714249-0.9692535
				C91.654213,161.0809479,93.5461349,161.4439392,95.3120041,161.0809479z"/>
			<path class="st1" d="M105.9140854,207.536087c-1.7582855-0.2789307-5.4634018,0.3420105-5.4634018,0.3420105
				c-22.5603027,3.0137787-32.6231308,0-32.6231308,0s1.2467957-10.6109009,3.3993454-20.360672
				c2.1525574-9.7497864,4.4788208-19.7562714,8.2256546-20.6000214c0,0,2.8783264-1.5449371,3.1385422-1.8623962
				c0,0,3.6009674,1.3245544,7.0441971,4.4472198c3.4432373,3.1226654,6.2403564,5.6394653,6.2403564,5.6394653
				s3.8785629,7.150177,6.8093643,17.7860413C105.6158218,203.5635834,105.9140854,207.536087,105.9140854,207.536087z"/>
			<polygon class="st8" points="120.9820099,197.3620758 162.9888153,277.9984436 176.6758575,277.9953613 135.8004608,195.5358276 
							"/>
			<polygon class="st8" points="176.3748169,197.3620758 134.7609711,278 121.0739288,277.9969177 161.556366,195.5358276 			"/>
			<g>
				<polygon class="st8" points="66.396759,231.7505646 52.7969093,277.9851379 58.2054596,277.9851379 72.1334152,230.9928894 				
					"/>
				<polygon class="st8" points="65.9891434,233.076767 96.4266434,233.076767 96.4266434,227.1644135 63.1138611,227.1644135 				
					"/>
				<rect x="60.238575" y="171.3947296" class="st8" width="5.7505693" height="61.6820412"/>
				<polygon class="st8" points="90.8654251,231.7505646 104.465271,277.9851379 99.0567245,277.9851379 85.1287689,230.9928894 
									"/>
				<rect x="62.4651642" y="254.4890137" class="st8" width="33.5404968" height="5.3175225"/>
			</g>
			<g>
				<polygon class="st8" points="233.603241,231.7623291 247.2030945,277.9969177 241.7945404,277.9969177 227.8665771,231.0046539 
									"/>
				<polygon class="st8" points="234.010849,233.0885468 203.573349,233.0885468 203.573349,227.1761932 236.8861389,227.1761932 
									"/>
				
					<rect x="234.010849" y="171.4064941" transform="matrix(-1 -4.333523e-11 4.333523e-11 -1 473.7722778 404.4950256)" class="st8" width="5.7505693" height="61.6820412"/>
				<polygon class="st8" points="209.1345673,231.7623291 195.534729,277.9969177 200.9432678,277.9969177 214.8712311,231.0046539 
									"/>
				
					<rect x="203.994339" y="254.5007782" transform="matrix(-1 -4.533852e-11 4.533852e-11 -1 441.5291748 514.3190918)" class="st8" width="33.5404968" height="5.3175225"/>
			</g>
			<path class="st15" d="M209.9172363,171.4754639c0,0,2.1458282-2.8356934,8.0060272-2.3022614
				c0,0,9.2439117,4.3194885,11.8879395,22.3808289c0,0,1.4650421,12.5887909,0.1847382,19.703125
				c0,0-19.2485352,3.7866058-31.2881775-2.2111206l3.7395935-14.8882599L209.9172363,171.4754639z"/>
			<rect x="101.9316483" y="192.9277344" class="st8" width="104.7614594" height="7.7751708"/>
			<path class="st7" d="M211.2509003,185.7364044l-7.1060333-5.9880676l-4.9886322,5.8048401
				c0,0-6.7816925-0.7722015-10.0926514-0.6495972c-1.3941498-1.8819733-2.272522-3.4869843-2.8734741-3.7954407
				c-0.2828827-0.1452026-0.6748352-0.1310272-0.8718109,0.1185913c-0.4096527,0.519104,0.2068481,2.180954,0.5610046,2.8069916
				c-4.5209503-2.6818085-5.3329926-3.4827271-6.1756287-3.5140533c-0.4343262-0.0161591-0.9127197,0.2604523-0.961853,0.6922913
				c-0.0906525,0.7967529,1.6068115,2.1922455,2.3214722,2.6390076c-0.9251709-0.5005798-1.9443817-0.8266602-2.988327-0.9560394
				c-0.3904724-0.0483856-0.8599854-0.0350647-1.0808411,0.2905731c-0.1842651,0.271698-0.0983276,0.6581573,0.1109467,0.9111176
				c0.2677307,0.3236237,0.4054413,0.3505707,3.2911987,1.7466583c-0.8367767-0.3854218-1.7511444-0.6014252-2.671936-0.6312103
				c-1.1634064-0.0376434-1.5714417,0.7617493-0.5723877,1.4867096c0.9057312,0.6572266,1.9700623,1.0942841,3.0762939,1.2632599
				c-0.4767456-0.1637573-0.9757843-0.3298798-1.4747925-0.2584381c-0.988739,0.1415405-1.3933563,1.2007751-0.4925995,1.820343
				c0.9101868,0.6260681,4.8678436,1.1536407,6.4987335,1.2522125c0,0,9.1675262,8.5392456,15.6308289,6.570282
				s13.9014282-9.6509399,13.9014282-9.6509399L211.2509003,185.7364044z"/>
			<path class="st15" d="M200.9693756,182.5545807c0,0,5.7696686-11.7991943,11.7934265-12.3285522
				s8.5353088,7.1311951,7.4669495,11.3969116c-1.0683746,4.2657166-9.8100281,11.9541626-9.8100281,11.9541626
				S202.4749451,187.7519379,200.9693756,182.5545807z"/>
			<path class="st27" d="M210.4134064,193.4174957c-3.3433228-2.5302734-8.1759644-6.9111328-9.4440308-10.862793
				c1.1739502,4.1123047,6.008667,8.5234375,9.3776245,11.121582c0.0452271,0.0336914,0.1108398,0.0327148,0.1538696-0.0068359
				c2.8504639-2.5668945,8.7470093-8.315918,9.7288818-12.0463867
				C219.1590118,185.2158356,213.2850494,190.8481598,210.4134064,193.4174957z"/>
			<path class="st7" d="M216.8987122,161.6891327c-0.5282135,0.8121948-1.545105,1.2456207-2.5069427,1.1748047
				c-0.0472565,1.0011902-0.2836914,1.9311829-1.0326691,2.5936432c-1.995697,1.7575836-4.7384338,2.0188751-7.3866882,1.8603668
				c-1.7949829-0.1105652-1.7186737-0.9057922-1.7264099-2.51474c-0.0122833-1.0922394-0.0710144-1.9419556-0.0710144-3.3346405
				c-0.2207642,0.0392609-0.4415131,0.0785217-0.6700745,0.047348c-0.2206573-0.0315704-0.4414215-0.1578217-0.5282135-0.3629913
				c-0.1260681-0.2913971,0.0315552-0.6147308,0.1891937-0.8907318c0.4651794-0.8118134,0.8909149-1.6240082,1.3559113-2.4358215
				c-0.0472565-1.2691193,0.149826-2.7591705,1.5294189-3.2399597c0.9473267-0.3288879,3.4027252-0.0339355,4.8246002,0.8118286
				c0.906601,0.5438995,1.6555786,1.4584961,1.7658691,2.51474c0.039444,0.2917786,0.0236664,0.5912476,0.1182709,0.874939
				c0.321701,0.9385986,0.9535522,0.3968201,1.3638916,0.0161743c0.7173157-0.6543884,1.9629517-0.5362091,2.6171265,0.1809082
				C217.3953705,159.7025146,217.4348297,160.8692322,216.8987122,161.6891327z"/>
			<path class="st18" d="M214.2744598,161.6032257c-0.0295105-0.4876251-0.059021-0.9752655-0.0885315-1.4629059
				c-0.0235443-0.3891449,0.5035706-0.5142822,0.8905334-0.4669037c0.7747955,0.0948639,1.1072693,1.127655,0.4470825,1.8418121
				C215.178421,161.8885498,214.7359619,161.8165283,214.2744598,161.6032257z"/>
			<path class="st18" d="M207.9221039,156.0777283c0.0846405,0.0095825,0.175705,0.0234985,0.2362061,0.0834503
				c0.0985565,0.0976868,0.0622559,0.2756805-0.0389557,0.3706055c-0.3157501,0.2960968-2.1107941,0.3414612-2.6709137,0.3139496
				c-0.2073364-0.0101776-0.6316833-0.0695038-0.52211-0.3749695c0.1024323-0.2855682,0.5120087-0.3148804,0.7573395-0.3517303
				C206.4237671,156.0078583,207.1784058,155.9935455,207.9221039,156.0777283z"/>
			<ellipse class="st18" cx="206.3987885" cy="158.2453461" rx="0.5023223" ry="0.814371"/>
			<path class="st19" d="M208.5187073,162.0675201c-0.144165,0.9138794-1.0193481,1.4871368-1.8289795,1.9157867
				c-0.7395935,0.3968811-1.5817261,0.8199005-2.4437256,0.8199005c-0.0078888-0.7017365-0.0394592-1.3953705-0.0552368-2.0970917
				C205.6492615,162.9347534,207.1785889,162.7061157,208.5187073,162.0675201z"/>
			<path class="st3" d="M216.5674133,163.9019165c-1.5947571,2.0118561-1.5467529,5.1495209,0.1087952,7.1116486
				c0.9022827,1.0693817,2.261795,1.9115753,2.4924316,3.2916107c0.3404541,2.0372772-1.9549561,4.0000916,3.3002167,5.7360382
				c0.7154236,0.2363281,1.4494781,0.4754791,2.2024536,0.4489136s1.5411377-0.3744965,1.8841095-1.0453491
				c0.4115448-0.8050385,0.081543-1.7737427-0.2519531-2.6141205c-4.253479-10.718689-4.4932251-11.5460968-5.5479126-13.0899811"/>
			<path class="st1" d="M144.9842834,38.3666611c4.056488-0.6195145,8.2262726-0.4595451,12.2297668,0.4344444
				c4.1720276,0.9316216,7.7354126,2.9418068,11.625885,4.5841713c4.7261047,1.995472,9.4932404,3.8848534,14.1525116,6.0380287
				c18.0150604,8.3245277,37.6323853,19.6565742,53.3206635,31.7764778c1.9742432,1.5251617,6.718399,4.9131775,7.8825073,6.730423
				c0.1266022,0.1973114,0.1566467,0.3737793,0.1605225,0.6032715c-0.4144287,0.9986191-1.6665802,1.4424133-2.6057892,1.827858
				c-7.5946503,3.1178436-16.3601532,5.0546188-24.2164764,1.6839218c-3.2921906-1.4120026-5.140564-3.6405029-7.6226044-6.0694962
				c-1.4846039,3.2087402-1.9324188,7.042717-4.9942932,9.1210175c-4.4108276,2.9939423-11.1956787,3.4929352-18.6828766-1.5393906
				c-0.7109985-0.4778671-6.6061707-4.5978394-6.1074066-5.5701904c-0.7500153,1.4621887-1.4781189,2.9576187-2.3600159,4.3452072
				c-5.788147,9.1088409-21.695755,8.8018188-28.7698517-2.0100708
				c-3.6862946,8.7008972-14.9503021,12.8909454-23.7646027,6.4616623c-3.0423737-2.219162-4.3750305-5.2494736-6.268013-8.3513031
				c-8.2216644,9.8158035-18.5689316,10.2328415-25.8082657,4.6408997
				c-2.5245743-1.9500809-3.4963226-4.3216095-5.2524796-6.7954865c-1.2963715,0.9144516-2.4010696,2.1082611-3.6454544,3.0959244
				c-3.3964996,2.6956253-7.5250015,4.1723328-11.8158035,4.5729828c-4.1861267,0.3903961-12.8274956-0.1255264-16.112606-3.1012268
				c-0.408783-0.3702393-0.5162849-0.6651611-0.5321693-1.2044449c2.0118713-3.8484955,8.2464066-6.7754135,15.5043488-11.9436417
				c19.6320114-13.9795418,40.6895447-25.9597397,62.7401047-35.6893387
				C136.9191589,40.7387962,139.4752808,39.2080345,144.9842834,38.3666611z"/>
			<path class="st4" d="M87.9034653,86.2783356c10.9496918-9.7505875,45.5562973-40.1345596,58.432518-47.0522461
				c1.7355957-0.8910332,7.6027985-3.9966812,8.5247498-2.2988281c0.3278046,0.6874847-0.2183075,1.5976715-0.664856,2.2133789
				l-0.0953979-0.5205078c16.9988708,10.7171097,44.5837097,30.5580902,55.810791,47.3554688
				c-11.3730011-16.3538666-39.4594727-36.351284-56.184967-46.7485352
				c-0.1677246-0.1044922-0.2191467-0.324707-0.1148987-0.4926758c0.2476196-0.3567657,0.4723358-0.6999016,0.5862427-1.0864258
				c0.0527649-0.1723633,0.0528259-0.3374023,0.0193787-0.3857422c-0.0203552-0.0419922-0.1133728-0.0981445-0.2853088-0.1220703
				c-0.7301636-0.0483398-1.6216431,0.2539063-2.4276428,0.5419922c-1.6465454,0.6083984-3.2552795,1.3793945-4.8400879,2.184082
				c-10.1465759,5.3721581-33.6332092,25.1820526-42.391777,32.5668945
				C98.7912827,77.0180817,93.3236465,81.6201324,87.9034653,86.2783356z"/>
			<path class="st4" d="M118.9642105,88.4326324c1.3410568-2.4282303,25.9104538-48.3760681,30.8777237-53.5361328
				c4.2088623-3.2043762,27.8382568,41.2460556,30.2847595,53.0908203
				c-2.6128082-11.2852631-24.2675323-50.1359558-29.3088074-52.4257813
				c-0.2492371-0.1191406-0.452179-0.1328125-0.5279846-0.0644531
				C146.5243073,39.509613,129.3401489,70.4555359,118.9642105,88.4326324z"/>
			<path class="st4" d="M148.9968414,90.3222809c-0.1979828-15.3163986,0.3303375-44.7622108,1.0799561-60.0004883
				C150.2779541,45.6108894,149.7496796,74.9439011,148.9968414,90.3222809z"/>
			<path class="st8" d="M160.1668549,39.6525383C156.9820404,33.7266502,153.6676941,27.7767315,150.2185516,22
				c-3.5361481,5.7415314-10.350769,17.5284615-10.3326263,17.5341797
				C139.8718414,41.9466896,160.1527863,42.0650482,160.1668549,39.6525383z"/>
			<g>
				<path class="st7" d="M95.1232834,186.7467346c0,0,9.0931702-2.3827515,12.6998596-2.4235229
					c1.417038-2.1196899,2.2877731-3.9111176,2.9250183-4.2781372c0.2999649-0.17276,0.7268982-0.177948,0.954216,0.0831146
					c0.1772614,0.2035828,0.1866684,0.5007782,0.1687164,0.7701263c-0.0534897,0.8023224-0.2695007,1.5934601-0.6311722,2.3116302
					c1.7470474-1.1539001,3.5004272-2.4220123,5.2474747-3.5759277c0.3948135-0.2607574,0.8115768-0.5294495,1.2830048-0.5698547
					c0.4714203-0.0404053,1.0061569,0.2352295,1.082283,0.7022095c0.0541534,0.3321838-0.1286926,0.6537781-0.3210526,0.9299622
					c-0.5587845,0.8022614-1.2614746,1.5039978-2.0645065,2.0616913c0.9796906-0.5929718,2.070816-1.0011139,3.1991653-1.1966858
					c0.4220581-0.0731506,0.9332809-0.0833435,1.1905594,0.25914c0.214653,0.2857513,0.1415176,0.710495-0.0727386,0.9965515
					c-0.2741089,0.3659821-0.4224396,0.4025116-3.4869385,2.0723114c0.8896255-0.463089,1.8725357-0.746048,2.8722153-0.8268433
					c1.2630844-0.1020966,1.7487946,0.7456818,0.7005539,1.5865173c-0.9503174,0.7622681-2.0846558,1.2934875-3.2786636,1.5353851
					c0.5097885-0.2031403,1.0437088-0.4100037,1.5900574-0.3585663c1.0825806,0.1019135,1.5782394,1.2324371,0.6313553,1.9535065
					c-0.9567947,0.7286224-5.2325211,1.5103455-7.0007172,1.7032776
					c-4.6371078,4.0796356-10.4218445,6.9902191-16.4676208,8.2530365
					c-2.7139893,0.5668793-5.5653534,0.8125153-8.2379379,0.0746765c-2.6725845-0.7378235-5.1476059-2.595871-6.0683594-5.2110748"
					/>
				<path class="st1" d="M95.1232834,186.7467346c0,0-6.680069,7.2094269-12.5321884,8.789093
					c0,0-10.4406357-15.0974426-7.5069962-20.9005585C78.017746,168.8321533,88.0074615,172.5192719,95.1232834,186.7467346z"/>
				<path class="st27" d="M88.4903717,177.0459137c2.2949219,2.5385742,5.2945557,6.5219727,6.5286865,9.6831055
					c-1.8017578,1.9755859-3.4262695,3.5253906-5.6555786,5.1586914c-1.9915771,1.4116211-4.3760986,2.8618164-6.7347412,3.5327148
					c-2.015686-2.6259766-5.4309692-9.6088867-6.8098755-12.5341797c1.4547729,3.2397461,4.517395,9.8618164,6.6949463,12.7109375
					c0.0223999,0.0292969,0.0618896,0.0449219,0.0996094,0.034668c2.3294067-0.628418,4.9440308-2.1240234,6.8914185-3.550293
					c2.25-1.6762695,3.8858643-3.2670898,5.6848755-5.2763672c0.0203857-0.0229492,0.0289917-0.0576172,0.0169678-0.0883789
					C93.8950348,183.398941,90.931778,179.6323395,88.4903717,177.0459137z"/>
			</g>
		</g>
	</g>
</g>
</svg>
