<?xml version="1.0" encoding="utf-8"?>
<!-- Generator: Adobe Illustrator 22.0.1, SVG Export Plug-In . SVG Version: 6.00 Build 0)  -->
<svg version="1.1" id="Layer_1" xmlns="http://www.w3.org/2000/svg" xmlns:xlink="http://www.w3.org/1999/xlink" x="0px" y="0px"
	 viewBox="0 0 300 300" style="enable-background:new 0 0 300 300;" xml:space="preserve">
<style type="text/css">
	.st0{fill:#EDC1A4;}
	.st1{fill:#E2E0E0;}
	.st2{fill:#D39E81;}
	.st3{fill:#502E26;}
	.st4{fill:#CCCACA;}
	.st5{fill:#426800;}
	.st6{fill:#538705;}
	.st7{fill:#D47E44;}
	.st8{fill:#73341D;}
	.st9{fill:#BC672E;}
	.st10{fill:#96311D;}
	.st11{fill:#B83E21;}
	.st12{fill:#DE8D82;}
	.st13{fill:#EFBAB4;}
	.st14{fill:#FDD5D0;}
	.st15{fill:#6883CE;}
	.st16{fill:#3D4885;}
	.st17{fill:#3859AE;}
	.st18{fill:#864424;}
	.st19{fill:#FEFEFE;}
	.st20{fill:#FFFFFF;}
	.st21{fill:#A55925;}
	.st22{fill:#F4F2F2;}
	.st23{fill:#3C3E68;}
	.st24{fill:#E8997C;}
	.st25{fill:#F5C46B;}
	.st26{fill:#F7EBDA;}
	.st27{fill:#0E0C0D;}
	.st28{fill:#657C3A;}
	.st29{fill:#576C37;}
	.st30{fill:#7C995D;}
	.st31{fill:#36518C;}
	.st32{fill:#96B7E3;}
	.st33{fill:#A3B3DF;}
	.st34{fill:url(#SVGID_1_);}
	.st35{fill:url(#SVGID_2_);}
	.st36{fill:url(#SVGID_3_);}
	.st37{fill:url(#SVGID_4_);}
	.st38{fill:url(#SVGID_5_);}
	.st39{fill:#266AB7;}
	.st40{fill:#060E0D;}
	.st41{fill:#E0D4C6;}
	.st42{fill:#787E42;}
	.st43{fill:#D3D1D1;}
	.st44{fill:url(#SVGID_6_);}
	.st45{fill:url(#SVGID_7_);}
	.st46{fill:url(#SVGID_8_);}
	.st47{fill:#020508;}
	.st48{fill:#BAB6B6;}
	.st49{fill:#0F0B07;}
	.st50{fill:#2F3A68;}
	.st51{fill:#203257;}
	.st52{opacity:0.5;fill:#FFFFFF;}
	.st53{opacity:0.2;fill:#0E0C0D;}
	.st54{fill:#DD9F9B;}
	.st55{fill:#3E4D9B;}
	.st56{fill:url(#SVGID_9_);}
	.st57{fill:#5F6194;}
	.st58{fill:url(#SVGID_10_);}
	.st59{fill:url(#SVGID_11_);}
	.st60{fill:url(#SVGID_12_);}
	.st61{fill:url(#SVGID_13_);}
	.st62{fill:#070102;}
	.st63{fill:#100805;}
	.st64{fill:#FDA465;}
	.st65{fill:#2A50A1;}
	.st66{fill:#B76C39;}
	.st67{fill:#130602;}
	.st68{fill:url(#SVGID_14_);}
	.st69{fill:url(#SVGID_15_);}
	.st70{fill:url(#SVGID_16_);}
	.st71{fill:url(#SVGID_17_);}
	.st72{fill:url(#SVGID_18_);}
	.st73{fill:url(#SVGID_19_);}
	.st74{fill:#B4BDED;}
	.st75{fill:#100D08;}
	.st76{fill:#F6C85F;}
	.st77{fill:#FECF00;}
	.st78{fill:#2D59E2;}
	.st79{fill:#121F3A;}
	.st80{fill:#BBD0F5;}
	.st81{fill:#020202;}
	.st82{fill:#E2CFB7;}
	.st83{fill:#080805;}
	.st84{fill:#A87D7C;}
	.st85{fill:#182052;}
	.st86{fill:#EAEAEA;}
	.st87{fill:#DDDDDD;}
	.st88{fill:#3D4574;}
	.st89{fill:#ABC5F0;}
	.st90{fill:url(#SVGID_20_);}
	.st91{fill:#4159A8;}
	.st92{fill:#E0D0BD;}
	.st93{fill:#3D53AA;}
	.st94{fill:#0A0000;}
	.st95{fill:#BF6D36;}
	.st96{fill:#385DAE;}
	.st97{fill:#E0DCDC;}
	.st98{fill:#857E78;}
	.st99{fill:#0E213C;}
	.st100{fill:url(#SVGID_21_);}
	.st101{fill:#55608E;}
	.st102{opacity:0.3;fill:#F4F2F2;}
	.st103{opacity:0.3;}
	.st104{fill:#213987;}
	.st105{enable-background:new    ;}
</style>
<g id="Rider_1_">
	<g id="Rider">
		<g>
			<path class="st13" d="M184.8724365,50.8300629c-0.0345917,2.5887947-2.0934601,4.8089294-4.4777374,5.8167763
				c-2.3842926,1.0107994-5.0536499,1.0452461-7.6452637,1.0221901l-22.0804749-3.392067
				c-1.8170319-0.7544785-2.7586517-2.8594589-2.7758789-4.8260841c-0.0346527-3.9404678,2.8594208-7.5753593,2.0789642-11.5068703
				c-0.3455353-1.7335014-1.4080658-3.2912521-1.5664673-5.0535774c-0.2792969-3.086956,2.427536-5.8195896,5.4251251-6.6172352
				c6.0920105-1.621048,12.1845551,2.683197,18.3312836,1.9005413c2.6262054-0.3311214,5.4510803-1.5434074,7.7604828-0.256321
				c2.2892456,1.2727451,2.7845306,4.3654671,2.4735107,6.9656487c-0.3138275,2.597374-1.1633606,5.2293358-0.5701447,7.7777786
				C182.4910278,45.5143967,184.9098358,47.8987541,184.8724365,50.8300629z"/>
			<path class="st13" d="M141.8544617,52.271904c-0.0269775,2.5887947-1.6331482,4.8089294-3.4931946,5.8167763
				c-1.8600464,1.0107994-3.9424744,1.0452499-5.9642639,1.0221901l-17.2255402-3.392067
				c-1.4175034-0.7544785-2.1520844-2.8594589-2.1655197-4.8260803c-0.0269318-3.9255219,2.2283859-7.5903397,1.6218491-11.5068703
				c-0.2695541-1.7335052-1.0984726-3.2912521-1.2220383-5.0535812c-0.2178955-3.086956,1.8937759-5.8195896,4.2322769-6.6172333
				c4.7803955-1.6305542,9.4844131,2.6866341,14.3006897,1.9005394c2.0487671-0.3311214,4.2525177-1.5434074,6.0541534-0.256321
				c1.7859039,1.2727451,2.1722717,4.3654671,1.9296417,6.9656525c-0.2448273,2.5973701-0.9075623,5.229332-0.4447784,7.7777748
				C139.9966736,46.9562378,141.8836365,49.3405952,141.8544617,52.271904z"/>
			<path class="st8" d="M150.1902924,51.3433495c1.9529419-2.8053093,5.3827972-4.5163116,8.798584-4.3892174
				c4.9068146,0.1825714,9.238678,3.8273926,14.1483765,3.7566566c2.2366638-0.0322227,4.3825989-0.8420486,6.5909271-1.1984138
				c2.208313-0.3563652,4.7303467-0.1511955,6.2793274,1.4625931c1.8686981,1.9468727,1.4894867,5.3515816-0.3321228,7.3425751
				c-1.8216248,1.9909935-4.6769257,2.7450371-7.3751373,2.7002716c-5.3933868-0.0894775-10.6763611-2.9717102-15.9879303-1.5061188
				c-1.5203857,0.4195061-2.9169006,1.1870422-4.3578949,1.8282127c-2.5439301,1.1319237-6.8304901,1.8493309-8.8132629-0.8100471
				C147.2970123,58.0564156,148.6303711,53.5841255,150.1902924,51.3433495z"/>
			<path class="st7" d="M148.3438263,39.047184c1.9529419-2.8053055,5.3827972-4.516304,8.7985687-4.3892097
				c4.9068146,0.1825714,9.2386932,3.8273888,14.1483917,3.7566566c2.2366486-0.0322227,4.3825989-0.8420486,6.5909119-1.1984138
				c5.5825958-0.9008904,8.1698303,2.2891617,7.3743744,5.9927788c-0.2891846,1.3464394-1.2082672,3.1692696-2.2052917,4.1080093
				c-2.0042877,1.8871002-7.0821686,3.4046669-12.0707397,2.0664215c-2.0440216-0.548336-3.9470978-1.5146599-5.9182892-2.2848053
				c-5.8692169-2.2930984-7.6165771-0.6351891-11.3755798,0.5640678
				C147.1564789,49.7458954,144.5008087,44.5675125,148.3438263,39.047184z"/>
			<path class="st18" d="M157.1497955,22.0068455c4.9068146,0.1825733,9.238678,3.8273926,14.1483765,3.7566586
				c2.2366638-0.0322227,4.3825989-0.8420486,6.5909271-1.1984158c5.5825806-0.9008884,8.1698303,2.2891655,7.3743744,5.9927826
				c-0.3272858,1.5238132-1.1846466,3.3081455-2.4067688,4.3189831c-1.3193817,1.091301-3.5040283,1.6052246-5.1519775,1.9958191
				c-3.724411,0.8827438-7.672699,0.8393707-11.3650818-0.1807594c-2.8859406-0.7973328-5.6754303-2.1741943-8.6692505-2.2116928
				c-1.7036743-0.0213394-3.3800354,0.3965683-5.0765991,0.5536118c-2.0985107,0.1942482-5.2437897-0.0321579-5.8769379-2.4537315
				C145.6255646,28.4062462,150.3206177,21.7527447,157.1497955,22.0068455z"/>
			<rect x="152.4615479" y="59.0157433" class="st3" width="37.0725708" height="18.3995075"/>
			<path class="st18" d="M140.247406,51.4103394c-1.6144562-2.3190918-4.4498596-3.7335434-7.2736053-3.6284752
				c-4.056366,0.1509285-7.6374283,3.1640244-11.6961746,3.1055527c-1.848999-0.026638-3.6230087-0.696106-5.4485779-0.9907074
				c-1.8255692-0.2945976-3.9104919-0.1249886-5.1910019,1.2090988c-1.5448074,1.6094398-1.2313232,4.4240417,0.2745667,6.0699539
				s3.8663177,2.2692642,6.0968704,2.2322578s4.4052277-0.6466827,6.5900803-1.0974197
				c5.7550507-1.1872673,7.2131805,0.0216217,10.2294006,1.3636894c2.1030121,0.9357376,5.6466217,1.5288048,7.2857361-0.6696472
				C142.6392212,56.9598961,141.5369568,53.2627411,140.247406,51.4103394z"/>
			<path class="st7" d="M141.7738342,41.2453537c-1.6144562-2.319088-4.4498444-3.7335358-7.2735901-3.6284714
				c-4.056366,0.1509323-7.6374359,3.1640282-11.6961746,3.1055527c-1.848999-0.026638-3.6230087-0.696106-5.4485779-0.9907036
				c-4.6150131-0.7447472-6.75383,1.8924026-6.0962448,4.9541092c0.2390594,1.1130714,0.998848,2.6199684,1.8230667,3.3960037
				c1.6569138,1.5600281,5.8546829,2.8145676,9.9786301,1.7082672c3.3397369-0.8959274,6.4721985-3.2435417,10.0077209-2.7782707
				c1.489563,0.1960258,2.8574219,0.8991241,4.2887573,1.3557739
				C142.7554016,50.0897598,144.9507751,45.8088951,141.7738342,41.2453537z"/>
			<path class="st8" d="M135.1204987,27.1584587c-4.0563507,0.1509285-7.6374207,3.1640244-11.696167,3.1055508
				c-1.848999-0.026638-3.6230087-0.696104-5.4485779-0.9907055c-4.6150131-0.7447453-6.75383,1.8924046-6.0962448,4.9541092
				c0.2705612,1.2597084,0.9793243,2.7347755,1.9896164,3.5704155c1.0907211,0.9021568,2.8967133,1.3270073,4.2590485,1.6499023
				c8.2771454,1.9618187,11.9277039-1.9197464,16.5619659-1.9777908c1.4083862-0.0176392,2.7942047,0.3278351,4.1967163,0.4576607
				c1.7348022,0.1605797,4.3349304-0.0265846,4.8583374-2.02845
				C144.6473389,32.4487114,140.7660522,26.9483986,135.1204987,27.1584587z"/>
			
				<rect x="107.7226715" y="57.7529488" transform="matrix(-1 -4.475188e-11 4.475188e-11 -1 246.0924835 130.7163849)" class="st3" width="30.647131" height="15.2104931"/>
			<path class="st7" d="M184.9894562,111.2012405h-21.9415588c-6.579483,0-11.9132233-5.3337326-11.9132233-11.9132233V85.947464
				c0-6.5794907,5.3337402-11.9132233,11.9132233-11.9132233h21.9415588c6.579483,0,11.9132233,5.3337326,11.9132233,11.9132233
				v13.3405533C196.9026794,105.8675079,191.5689392,111.2012405,184.9894562,111.2012405z"/>
			<path class="st11" d="M133.4261932,111.2012405h-12.2116241c-9.2663345,0-16.778183-7.5118484-16.778183-16.778183v-6.6663818
				c0-9.2663345,7.5118484-16.778183,16.778183-16.778183h12.2116241c9.2663422,0,16.778183,7.5118484,16.778183,16.778183
				v6.6663818C150.2043762,103.6893921,142.6925354,111.2012405,133.4261932,111.2012405z"/>
			<path class="st3" d="M138.8840485,92.338913c2.7368011-6.7685776-5.0436707-13.6159973-3.5048981-20.5559387
				c0.8256073-3.723526,4.2671051-6.4397736,7.9515533-7.4252396s7.5912628-0.5338135,11.3477325,0.1258621
				c1.7021179,0.2989044,3.4173737,0.6457291,4.978653,1.3866348s2.9742126,1.9213181,3.6743011,3.5013199
				c2.1512604,4.8551483-2.6116638,9.6399689-2.0711365,14.6735992c0.276886,2.5786057,1.9287415,5.1091003,1.1759491,7.5908661
				c-0.4547424,1.4991837-1.7033844,2.6037827-2.9291534,3.5793915c-3.4094696,2.7136459-7.2462158,5.1475296-11.5608673,5.757637
				c-4.3146362,0.6101151-9.1820679-1.0109253-11.3251038-4.8050995"/>
			<path class="st15" d="M95.0765381,136.7138977c0,0-2.8497391-11.847435,7.8873749-15.6284409
				c0,0,15.7209091-27.6399689,23.618782-28.6691513c0,0,2.4097977,24.3693314-0.8973541,34.9043274
				c0,0-8.8538666,18.298584-15.7852249,17.2711182C102.96875,143.5642853,95.0765381,136.7138977,95.0765381,136.7138977z"/>
			<path class="st15" d="M198.9621277,144.9918213c-3.2147064,1.0716248-7.1575317,1.0800629-10.4429474,0.3077698
				c-1.5751648-0.370285-2.0240631-0.840271-2.9175873-2.1004639c-0.6309967-0.8899384-1.3680878-1.5780792-1.8444519-2.592865
				c-0.1514435-0.3226471-0.6188507-2.592392-0.7584839-2.6572266c-2.2636414-1.0510864-3.8574829-2.8736267-4.9434052-5.0787354
				c-1.1022949-2.238327-2.6954041-4.2645416-4.1021118-6.33638c-1.8573761-2.7355804-3.1647034-4.6678925-3.1647034-4.6678925
				l4.3222351-28.3376999c0,0,4.4950256,3.5620499,11.1496582,12.0740662
				c6.6575928,8.5148163,17.153595,17.7640152,18.4493866,24.954216
				C206.0055237,137.746933,203.2555237,143.5607605,198.9621277,144.9918213z"/>
			<path class="st15" d="M175.110672,166.7009125h-48.5293198c-0.0057144-0.2313232-1.2226028-49.4794083-1.3533783-54.7721939
				l1.3533783-19.5118637c0,0,6.5337906-2.3354263,13.6952286-3.0955353c0,0,3.6335144-0.4838181,4.8832703-1.5809479
				c8.3444214,0.4210663,8.2219543-0.3913345,23.1608429,2.9602737c4.4806366,1.0058517,6.4273224,2.6343536,6.789978,2.8276825
				l5.2293243,24.5051193l-6.3868561,8.5004807C173.7601624,140.0217743,173.9272003,155.1365356,175.110672,166.7009125z"/>
			<path class="st26" d="M123.8314285,245.6298065c-0.0519714,2.2236023-0.5109863,3.4850616-4.0486908,4.1465454
				c-6.7137833,1.2501984-13.4683838,1.4710388-20.096489,0.7025909c-3.6802902-0.4245148-4.5990677-2.2182312-2.963089-5.0046539
				c0.9733353-1.6557465,2.2057953-3.1559906,3.6398087-4.4316864c0.8995514-0.8024902,2.342598-1.552475,4.2502441-3.9996033
				c2.5771942-3.2971649,3.8441772-7.5934601,3.4698868-11.7630615c5.2210007-0.3985291,12.0056992-0.9164276,15.0140228-1.1460571
				C123.7536697,231.2780914,123.9983902,238.4597168,123.8314285,245.6298065z"/>
			<path class="st16" d="M123.8314285,245.6298065c-0.0519714,2.2236023-0.5109863,3.4850616-4.0486908,4.1465454
				c-0.2937164,0.0546875-0.5903244,0.1093903-0.8869247,0.1583099c1.563652-3.5849609,3.2222137-7.1901855,3.0552444-11.0517273
				c-0.1382065-3.1617584-1.5261765-6.1650543-3.4007797-8.7106781c-1.434021-1.9494781-3.1502304-3.662735-4.9212036-5.3156738
				l9.4680481-0.722702C123.7536697,231.2780914,123.9983902,238.4597168,123.8314285,245.6298065z"/>
			<path class="st8" d="M123.8544159,244.4578705c-0.0430222,2.9585419,0.112854,4.5360565-4.0716782,5.3184814
				c-6.6114655,1.2381592-13.4130325,1.4771729-20.096489,0.7025909c-3.6802902-0.4245148-4.5990677-2.2182312-2.963089-5.0046539
				c0.0086517-0.0172882,0.0201797-0.0316315,0.0288239-0.0489197c0.6450195,1.0682983,2.1423798,1.4109497,3.4381866,1.5636444
				c6.6834564,0.7745972,13.4821396,0.5355682,20.0936127-0.7027283
				C121.6400452,246.0301056,123.1518173,245.6153259,123.8544159,244.4578705z"/>
			<path class="st11" d="M128.9457855,226.1369781c-8.9048004,5.7846527-26.2692032,0-26.2692032,0l6.76828-47.4177094
				c0,0,1.2574158-16.5243988,17.4157028-19.6712952c0,0,12.7513275-2.0686035,17.8466339,2.3796539"/>
			<path class="st26" d="M178.2115631,245.8649292c0.0519714,2.2236023,0.5109863,3.4850769,4.0486908,4.1465454
				c6.7137756,1.2501984,13.4683685,1.4710388,20.0964813,0.7026062c3.6802979-0.42453,4.5990753-2.2182465,2.963089-5.0046539
				c-2.2939453-3.9022675-4.7964478-5.2184448-5.8080597-6.1737671c-4.2926788-4.0438385-5.9927979-9.1087036-5.5518799-14.0205841
				l-5.5459747-0.4233551l-9.4680481-0.722702C178.2893219,231.5132294,178.0446014,238.6948395,178.2115631,245.8649292z"/>
			<path class="st16" d="M178.2115631,245.8649292c0.0519714,2.2236023,0.5109863,3.4850769,4.0486908,4.1465454
				c0.2937164,0.0547028,0.5903168,0.1093903,0.8869171,0.1583252c-1.5636444-3.5849762-3.2222137-7.1902008-3.0552521-11.0517426
				c0.1382141-3.1617432,1.5261841-6.1650391,3.4007874-8.7106781c1.434021-1.9494629,3.1502228-3.6627197,4.9212036-5.3156586
				l-9.4680481-0.722702C178.2893219,231.5132294,178.0446014,238.6948395,178.2115631,245.8649292z"/>
			<path class="st8" d="M178.1885681,244.6930084c0.0430298,2.9585266-0.112854,4.5360565,4.0716858,5.3184662
				c6.6114655,1.2381592,13.4130249,1.4771881,20.0964813,0.7026062c3.6802979-0.42453,4.5990753-2.2182465,2.963089-5.0046539
				c-0.0086517-0.0172882-0.0201721-0.0316315-0.0288239-0.0489349c-0.6450195,1.0683136-2.1423798,1.410965-3.4381866,1.5636597
				c-6.6834564,0.7745819-13.482132,0.535553-20.0936127-0.7027435
				C180.4029388,246.2652283,178.8911743,245.8504486,178.1885681,244.6930084z"/>
			<path class="st11" d="M173.0971985,226.3721008c8.9048004,5.7846527,26.2692108,0,26.2692108,0l-6.76828-47.4177094
				c0,0-1.2574158-16.5243988-17.4157104-19.6712799c0,0-12.7513275-2.0686188-17.8466339,2.3796539"/>
			<path class="st23" d="M163.483017,89.6639709c-10.9885254,19.2278137-23.758667,38.0045166-38.255043,55.3278503
				l-0.5010452-5.1399078c9.898819-9.74823,28.4520264-38.9594193,35.7267761-50.8013916
				C161.3693848,89.2320404,162.3945313,89.4364777,163.483017,89.6639709z"/>
			<g>
				<path class="st3" d="M208.9909058,151.2952423h-23.161911v-7.2864227h23.161911
					c1.8204193,0,3.2961426,1.4757385,3.2961426,3.2961426v0.6941376
					C212.2870483,149.8195038,210.8113251,151.2952423,208.9909058,151.2952423z"/>
				<path class="st7" d="M158.1946716,141.037384c0,0,30.551178-1.7093658,30.8852692,6.6146545
					c0.3540649,8.8211975-31.9338226,4.7377777-32.6690521,4.2638702S158.1946716,141.037384,158.1946716,141.037384z"/>
				<g>
					<path class="st3" d="M91.0090866,151.2952423h23.1619263v-7.2864227H91.0090866
						c-1.8204041,0-3.2961426,1.4757385-3.2961426,3.2961426v0.6941376
						C87.712944,149.8195038,89.1886826,151.2952423,91.0090866,151.2952423z"/>
					<path class="st7" d="M141.8053284,141.037384c0,0-30.5511703-1.7093658-30.8852768,6.6146545
						c-0.3540573,8.8211975,31.9338303,4.7377777,32.6690598,4.2638702S141.8053284,141.037384,141.8053284,141.037384z"/>
				</g>
			</g>
			<rect x="142.5782166" y="150.3251038" class="st7" width="15.9953985" height="18.7881184"/>
			<path class="st1" d="M163.2628937,261.4015198h-25.3739471c-10.4975586,0-18.7690277-8.9222717-17.9813766-19.3920898
				l5.6428299-74.9857788c0.2562866-3.3523407,3.0502014-5.9447479,6.4121399-5.9447479h37.2269897
				c3.3617249,0,6.1556244,2.5924072,6.4029694,5.9447479l5.6517792,74.9857788
				C182.0321503,252.479248,173.751297,261.4015198,163.2628937,261.4015198z"/>
			<path class="st7" d="M137.8888397,258.5219727c-8.835022,0-15.7726517-7.486557-15.1098404-16.296524l5.6427078-74.985672
				c0.1406097-1.8383942,1.6959686-3.2812653,3.5408173-3.2812653h37.2269592c1.844574,0,3.3955841,1.4394989,3.5311279,3.2770538
				l5.6522675,74.9902954c0.6626587,8.8065033-6.2808685,16.2961121-15.1099854,16.2961121H137.8888397z"/>
			<path class="st1" d="M161.1783142,187.5590515h-21.2022705c-4.065918,0-7.2766724-3.4554749-6.9771881-7.5099182
				l0.4866333-6.5566406c0.2707367-3.6542816,3.3114929-6.4790192,6.9772491-6.4790192h20.2289429
				c3.662796,0,6.7064514,2.8247375,6.9771729,6.4790192l0.4837494,6.5566406
				C168.4549713,184.1035767,165.2442169,187.5590515,161.1783142,187.5590515z"/>
			<path class="st8" d="M156.8812866,248.1921692h-12.610733c-5.0098572,0-9.0711517-4.0612946-9.0711517-9.0711517v-1.9103088
				c0-5.0098572,4.0612946-9.0711517,9.0711517-9.0711517h12.610733c5.0098419,0,9.0711365,4.0612946,9.0711365,9.0711517v1.9103088
				C165.9524231,244.1308746,161.8911285,248.1921692,156.8812866,248.1921692z"/>
			<g>
				<path class="st22" d="M163.2194977,173.5807495h-25.2871704c-0.9256897,0-0.9285278-1.5307159,0-1.5307159h25.2871704
					C164.1451874,172.0500336,164.1480255,173.5807495,163.2194977,173.5807495z"/>
				<path class="st22" d="M163.2194977,178.0516205h-25.2871704c-0.9256897,0-0.9285278-1.5307159,0-1.5307159h25.2871704
					C164.1451874,176.5209045,164.1480255,178.0516205,163.2194977,178.0516205z"/>
				<path class="st22" d="M163.2194977,182.5225067h-25.2871704c-0.9256897,0-0.9285278-1.5307159,0-1.5307159h25.2871704
					C164.1451874,180.9917908,164.1480255,182.5225067,163.2194977,182.5225067z"/>
			</g>
			<path class="st3" d="M150.5759277,278.0002136h-0.0000305c-5.6489258,0-10.1997375-4.6329041-10.0987396-10.2809143
				l0.7493896-41.9101868h18.6438141l0.8040619,41.8969421
				C160.7829132,273.3591309,156.2300415,278.0002136,150.5759277,278.0002136z"/>
			<path class="st1" d="M169.1685028,230.639389c0.1073151-10.4304352-8.3062439-18.8020935-18.592514-18.8020935
				c-10.2691803,0-18.7000732,8.3553619-18.5926056,18.8020935
				C131.9833832,232.8193207,169.1685028,232.8193207,169.1685028,230.639389z"/>
			<circle class="st7" cx="150.5759125" cy="144.0088196" r="14.6054373"/>
			<circle class="st22" cx="150.5759125" cy="144.0088196" r="10.9225922"/>
			<path class="st0" d="M107.0403519,143.9533386c3.4165649,0.1069946,3.6616135,0.1764526,4.0155182-0.0733185
				c1.0046616-0.7090759,0.716301-6.8429413-6.2415466-8.6461029c-3.4711685-0.8995667-7.3042297-0.29953-10.3344345,1.6177826
				c-3.0305176,1.9175262-2.7831573,6.1709595-2.9506836,9.7532654c-0.0430298,0.9199982-0.0224838,1.8647461,0.3016739,2.7268066
				c0.3241653,0.8620758,1.0010681,1.636322,1.8932419,1.8649445c0.8921738,0.2286072,1.9687653-0.2307129,2.2475281-1.1085052
				c-0.6623764,0.8201447-0.1837158,2.2644806,0.8373718,2.5267334c1.0210876,0.2622375,2.1364975-0.7727203,1.9512939-1.8105469
				c-0.3416672,1.009552,0.3666382,2.2386169,1.4114227,2.4491577c1.0447845,0.210556,2.1738358-0.6482544,2.2498474-1.7113342
				c-0.2287445,1.0091553,1.0566559,1.8505249,2.0474777,1.5519104c1.3860321-0.4177704,1.8041916-1.8773346,2.0376129-3.1478119
				C106.8701172,147.9677277,106.9198914,145.9577026,107.0403519,143.9533386z"/>
			<path class="st0" d="M190.2523804,143.9533386c-3.4165649,0.1069946-3.6616211,0.1764526-4.0155182-0.0733185
				c-1.0046692-0.7090759-0.7163086-6.8429413,6.2415466-8.6461029c3.4711609-0.8995667,7.3042297-0.29953,10.3344269,1.6177826
				c3.0305176,1.9175262,2.7831573,6.1709595,2.9506836,9.7532654c0.0430298,0.9199982,0.0224915,1.8647461-0.3016663,2.7268066
				c-0.324173,0.8620758-1.0010681,1.636322-1.8932495,1.8649445c-0.8921814,0.2286072-1.9687653-0.2307129-2.2475281-1.1085052
				c0.662384,0.8201447,0.1837158,2.2644806-0.8373718,2.5267334c-1.0210876,0.2622375-2.1364899-0.7727203-1.9512939-1.8105469
				c0.3416748,1.009552-0.3666382,2.2386169-1.4114227,2.4491577c-1.0447845,0.210556-2.1738281-0.6482544-2.2498474-1.7113342
				c0.2287445,1.0091553-1.0566559,1.8505249-2.0474701,1.5519104c-1.3860321-0.4177704-1.8041992-1.8773346-2.0376129-3.1478119
				C190.4226074,147.9677277,190.3728333,145.9577026,190.2523804,143.9533386z"/>
			<g>
				<path class="st2" d="M194.4142151,151.7823639c0.7109375-2.8950195,0.7211914-5.9580078,0.0292969-8.8579102
					c-0.1146393-0.4819336,0.6134949-0.6577454,0.7294922-0.1738281c0.7197266,3.0151367,0.7089844,6.2001953-0.0302734,9.2104492
					C195.0249329,152.441864,194.2958374,152.265274,194.4142151,151.7823639z"/>
			</g>
			<g>
				<path class="st2" d="M198.2481995,151.3101959c0.4633789-2.3964844,0.4375-4.9248047-0.0756836-7.3115234
					c-0.1044617-0.4859314,0.6298828-0.6410675,0.7333984-0.1572266c0.5341797,2.484375,0.5610352,5.1162109,0.0786133,7.6113281
					C198.8900757,151.940979,198.1537476,151.7964783,198.2481995,151.3101959z"/>
			</g>
			<g>
				<path class="st2" d="M201.1896057,150.7423248c0.4624023-2.7001953,0.2773438-5.5107422-0.5361328-8.1274414
					c-0.1473083-0.4734955,0.5701447-0.6972809,0.7158203-0.2226563c0.8486328,2.7294922,1.0419922,5.6606445,0.5595703,8.4770508
					C201.8439178,151.3656616,201.1058807,151.2283478,201.1896057,150.7423248z"/>
			</g>
			<g>
				<path class="st2" d="M94.9879456,150.6681061l0.1401367-5.9301758c0.0048828-0.206543,0.1816406-0.3598633,0.3837891-0.3662109
					c0.2070313,0.0048828,0.3710938,0.1767578,0.3662109,0.3837891l-0.1401367,5.9301758
					C95.7259903,151.1852875,94.9761963,151.166275,94.9879456,150.6681061z"/>
			</g>
			<g>
				<path class="st2" d="M98.393219,151.8497467c-0.559082-2.1899414-0.5761719-4.5087891-0.0493164-6.706543
					c0.0488281-0.2016602,0.2548828-0.3208008,0.4521484-0.2773438c0.2011719,0.0483398,0.3256836,0.2509766,0.2773438,0.4521484
					c-0.4985352,2.0795898-0.4824219,4.2739258,0.0463867,6.3461914
					C99.2425919,152.144928,98.5164261,152.3301239,98.393219,151.8497467z"/>
			</g>
			<g>
				<path class="st2" d="M102.0973206,151.912735c-0.2680664-2.1391602-0.0932617-4.3637695,0.5058594-6.4335938
					c0.1389008-0.4738922,0.8590088-0.2692261,0.7207031,0.2089844c-0.5712891,1.972168-0.7382813,4.0922852-0.4824219,6.1308594
					C102.9034576,152.3114471,102.1594315,152.4046021,102.0973206,151.912735z"/>
			</g>
			<path class="st22" d="M162.4292755,84.6959763c-0.512558,0.6737747-1.1172333,1.3447342-1.9321747,1.5808029
				c-0.8149414,0.2390289-1.6384583-0.0604553-1.8083649-0.88974c6.2112274-10.4441833,1.4138336-16.3156586,1.4138336-16.3156586
				h-21.4095154c0,0-4.7973328,5.8714752,1.4138336,16.3156586c-0.1698456,0.8292847-0.9934387,1.1287689-1.8083801,0.88974
				c-0.8120422-0.2360687-1.4196014-0.9070282-1.9321747-1.5808029c-3.2481537-4.2503128-4.6792908-9.8452148-3.8701172-15.1322021
				c1.2640991-8.2700272,8.1535034-15.3601761,16.9015961-15.0175247
				c8.7452698-0.3426514,15.6374969,6.7474976,16.9015808,15.0175247
				C167.1085815,74.8507614,165.6774445,80.4456635,162.4292755,84.6959763z"/>
			<path class="st0" d="M153.9055786,82.3785934v5.6640778c0,2.4159927-1.9581146,4.3741837-4.3740387,4.3741837
				c-2.4131165,0-4.3712311-1.9581909-4.3712311-4.3741837v-5.6640778H153.9055786z"/>
			<path class="st2" d="M153.9055786,82.393074v4.1666489c-2.4491882,0.9808731-5.7329865,1.1942368-8.7452698,0.2793808v-4.4605103
				h8.7222137C153.8911743,82.3843536,153.8969421,82.3873062,153.9055786,82.393074z"/>
			<path class="st0" d="M148.6959991,85.5276489c-8.9831085-0.5630035-9.0331116-11.2038345-7.8504944-13.3278122
				c1.1826172-2.12397,8.6313019-1.9280472,8.6313019-1.9280472s7.6178436-0.1959229,8.8004608,1.9280472
				c1.1826172,2.1239777,1.1326141,12.7648087-7.8504944,13.3278122H148.6959991z"/>
			<path class="st27" d="M173.7826996,126.9912949c0.2019653-7.9442749,0.2039642-10.1711655-0.6873779-19.5131836
				C174.8816986,113.5667496,175.0086975,121.3560791,173.7826996,126.9912949z"/>
			<path class="st27" d="M125.6800613,127.1490097c-0.3489685-1.6040039-0.5539246-3.2348633-0.6828918-4.871582
				c-0.1375732-1.637207-0.1528625-3.2827148-0.1044006-4.9248047c0.0662231-1.6416016,0.1975403-3.2822266,0.4493713-4.9057617
				c0.2442627-1.6235352,0.5631409-3.2358398,1.0252991-4.8110352c-0.1557922,1.6328125-0.3294678,3.2529297-0.4520264,4.8759766
				c-0.1149902,1.6230469-0.224762,3.2436523-0.2735596,4.8671875c-0.0665894,1.6230469-0.0708008,3.2470703-0.0709229,4.8745117
				C125.5794449,123.8809433,125.6384048,125.5093613,125.6800613,127.1490097z"/>
			<path class="st27" d="M103.0419235,121.3399277c2.461441-0.1621094,4.9630432,0.6069336,7.08284,1.9091797
				c2.1094971,1.3183594,3.9105682,3.21875,4.8569489,5.4970779c-1.6164703-1.8398514-3.3757935-3.4130936-5.3837585-4.6479568
				C107.6008987,122.8462753,105.4088058,121.9683456,103.0419235,121.3399277z"/>
			<path class="st27" d="M182.9986725,137.948822c0.1938782-4.7408142,4.4832916-9.9257965,12.3312683-9.9204102
				c-2.5115967,0.8219604-4.0566254,0.854248-7.6011658,3.2729492
				C185.5456085,132.9366913,183.8036804,135.4393921,182.9986725,137.948822z"/>
			<path class="st3" d="M151.6247406,72.7546387c-0.7748108-0.1337433-0.6018524-0.7680588,0.1750336-0.8884354
				c0.9108429-0.1411362,1.8591156-0.0326996,2.7145844,0.3104172c0.3080444,0.1235504,0.7250824,0.355484,0.6743164,0.752327
				C155.1131439,73.5195618,154.4361725,73.2399292,151.6247406,72.7546387z"/>
			<ellipse class="st3" cx="153.2285156" cy="74.6937027" rx="0.7669587" ry="0.9639639"/>
			<path class="st3" d="M147.4067841,72.7546387c0.6179504-0.1066666,0.5675049-0.5072021,0.3252563-0.7064209
				c-0.6534424-0.537384-4.0225525-0.1619034-3.8891907,0.8807297
				C143.9183807,73.5195618,144.5953522,73.2399292,147.4067841,72.7546387z"/>
			<ellipse class="st3" cx="145.8030243" cy="74.6937027" rx="0.7669587" ry="0.9639639"/>
			<path class="st2" d="M148.6561737,77.6329956c-0.2623291,1.0538712,0.3166656,1.3260193,1.4069061,1.2235947
				c0.9791107-0.0919876,1.1620483-0.4898453,0.8635559-1.3304138c-0.8048706-2.2664719-0.8236847-2.4055634-1.0280457-2.6141052
				c-0.5812836-0.5931625-0.655365,0.3625717-0.749527,0.7408905
				C148.9847717,76.312973,148.8204651,76.9729843,148.6561737,77.6329956z"/>
			<path class="st22" d="M152.5981903,79.1122131c-1.6528931,0.9817352-3.7428589,1.1928558-5.5587158,0.5615311
				c0.2546692,2.2155838,2.6269836,3.124855,4.2650909,1.9988632
				C152.0842896,81.1366348,152.6555786,80.0566406,152.5981903,79.1122131z"/>
			<rect x="164.1261292" y="83.2503815" class="st22" width="28.4499493" height="6.1346684"/>
		</g>
	</g>
</g>
</svg>
