<?xml version="1.0" encoding="utf-8"?>
<!-- Generator: Adobe Illustrator 22.0.1, SVG Export Plug-In . SVG Version: 6.00 Build 0)  -->
<svg version="1.1" id="Layer_1" xmlns="http://www.w3.org/2000/svg" xmlns:xlink="http://www.w3.org/1999/xlink" x="0px" y="0px"
	 viewBox="0 0 300 300" style="enable-background:new 0 0 300 300;" xml:space="preserve">
<style type="text/css">
	.st0{fill:#EDC1A4;}
	.st1{fill:#E2E0E0;}
	.st2{fill:#D39E81;}
	.st3{fill:#502E26;}
	.st4{fill:#CCCACA;}
	.st5{fill:#426800;}
	.st6{fill:#538705;}
	.st7{fill:#D47E44;}
	.st8{fill:#73341D;}
	.st9{fill:#BC672E;}
	.st10{fill:#96311D;}
	.st11{fill:#B83E21;}
	.st12{fill:#DE8D82;}
	.st13{fill:#EFBAB4;}
	.st14{fill:#FDD5D0;}
	.st15{fill:#6883CE;}
	.st16{fill:#3D4885;}
	.st17{fill:#3859AE;}
	.st18{fill:#864424;}
	.st19{fill:#FEFEFE;}
	.st20{fill:#FFFFFF;}
	.st21{fill:#A55925;}
	.st22{fill:#F4F2F2;}
	.st23{fill:#3C3E68;}
	.st24{fill:#E8997C;}
	.st25{fill:#F5C46B;}
	.st26{fill:#F7EBDA;}
	.st27{fill:#0E0C0D;}
	.st28{fill:#657C3A;}
	.st29{fill:#576C37;}
	.st30{fill:#7C995D;}
	.st31{fill:#36518C;}
	.st32{fill:#96B7E3;}
	.st33{fill:#A3B3DF;}
	.st34{fill:url(#SVGID_1_);}
	.st35{fill:url(#SVGID_2_);}
	.st36{fill:url(#SVGID_3_);}
	.st37{fill:url(#SVGID_4_);}
	.st38{fill:url(#SVGID_5_);}
	.st39{fill:#266AB7;}
	.st40{fill:#060E0D;}
	.st41{fill:#E0D4C6;}
	.st42{fill:#787E42;}
	.st43{fill:#D3D1D1;}
	.st44{fill:url(#SVGID_6_);}
	.st45{fill:url(#SVGID_7_);}
	.st46{fill:url(#SVGID_8_);}
	.st47{fill:#020508;}
	.st48{fill:#BAB6B6;}
	.st49{fill:#0F0B07;}
	.st50{fill:#2F3A68;}
	.st51{fill:#203257;}
	.st52{opacity:0.5;fill:#FFFFFF;}
	.st53{opacity:0.2;fill:#0E0C0D;}
	.st54{fill:#DD9F9B;}
	.st55{fill:#3E4D9B;}
	.st56{fill:url(#SVGID_9_);}
	.st57{fill:#5F6194;}
	.st58{fill:url(#SVGID_10_);}
	.st59{fill:url(#SVGID_11_);}
	.st60{fill:url(#SVGID_12_);}
	.st61{fill:url(#SVGID_13_);}
	.st62{fill:#070102;}
	.st63{fill:#100805;}
	.st64{fill:#FDA465;}
	.st65{fill:#2A50A1;}
	.st66{fill:#B76C39;}
	.st67{fill:#130602;}
	.st68{fill:url(#SVGID_14_);}
	.st69{fill:url(#SVGID_15_);}
	.st70{fill:url(#SVGID_16_);}
	.st71{fill:url(#SVGID_17_);}
	.st72{fill:url(#SVGID_18_);}
	.st73{fill:url(#SVGID_19_);}
	.st74{fill:#B4BDED;}
	.st75{fill:#100D08;}
	.st76{fill:#F6C85F;}
	.st77{fill:#FECF00;}
	.st78{fill:#2D59E2;}
	.st79{fill:#121F3A;}
	.st80{fill:#BBD0F5;}
	.st81{fill:#020202;}
	.st82{fill:#E2CFB7;}
	.st83{fill:#080805;}
	.st84{fill:#A87D7C;}
	.st85{fill:#182052;}
	.st86{fill:#EAEAEA;}
	.st87{fill:#DDDDDD;}
	.st88{fill:#3D4574;}
	.st89{fill:#ABC5F0;}
	.st90{fill:url(#SVGID_20_);}
	.st91{fill:#4159A8;}
	.st92{fill:#E0D0BD;}
	.st93{fill:#3D53AA;}
	.st94{fill:#0A0000;}
	.st95{fill:#BF6D36;}
	.st96{fill:#385DAE;}
	.st97{fill:#E0DCDC;}
	.st98{fill:#857E78;}
	.st99{fill:#0E213C;}
	.st100{fill:url(#SVGID_21_);}
	.st101{fill:#55608E;}
	.st102{opacity:0.3;fill:#F4F2F2;}
	.st103{opacity:0.3;}
	.st104{fill:#213987;}
	.st105{enable-background:new    ;}
</style>
<g id="Rider_Calling_1_">
	<g id="Rider_Calling">
		<g>
			<path class="st7" d="M204.5740509,61.5440254c-1.9034729-3.03228-4.0476685-7.1833153-5.1268463-10.5970116
				c-2.8206787-8.9225502-10.0633087-9.7416115-10.6222382-10.3915176
				c-2.480011,0.8219604,5.1509705,9.9694443,2.7719727,11.0592384c-0.5592346,0.256176-1.1625977,0.5186462-1.7682953,0.4114342
				c-0.8344116-0.1476936-1.3759003-0.925602-1.9727936-1.5270691c-1.4867401-1.4981079-3.4439697-0.725502-2.2682037,1.8237915
				c2.9086609,6.3066177,9.4615631,14.0077515,16.125824,15.0146255"/>
			<g>
				<path class="st1" d="M187.0576477,36.8857689l10.7948608,12.4884491
					c0.3067932,0.3549271,0.2677765,0.8922195-0.0871582,1.1990166l-5.9720612,5.162178
					c-0.3575745,0.3090782-0.894928,0.2699928-1.2017212-0.084938l-10.7948608-12.4884491
					c-0.3067932-0.3549271-0.2677002-0.8922768,0.089859-1.2013512l5.9720764-5.1621819
					C186.213562,36.4916954,186.7508545,36.530838,187.0576477,36.8857689z"/>
				
					<rect x="185.0661011" y="38.2046318" transform="matrix(0.7564734 -0.6540244 0.6540244 0.7564734 15.723361 134.7632904)" class="st23" width="7.5166869" height="16.1267681"/>
			</g>
			<path class="st7" d="M186.2781067,66.6356735c-0.1692963,0.6102066-4.4231415,2.3913803-4.4231415,2.3913803
				l-9.2624512-1.5025101l-6.1761475-3.8375664l-0.6736755-3.393219l1.5660706-3.1710472l2.5007782-0.6136436
				c0.0200806-0.1023788,1.8400879-9.3772278,1.7248077-8.7897835l10.3206177,2.7828445l0.0388031,9.0615578
				c0.1008453,0.0997772,3.1828156,3.148922,2.9875793,2.955761
				C184.8813477,62.5194473,186.4438782,66.0218582,186.2781067,66.6356735z"/>
			<path class="st9" d="M183.4563446,61.1085663c-1.0189819,0.317955-1.9754333-0.1651077-2.8746948-0.7266273
				c-3.8693848-2.3949928-7.1955109-5.6612778-9.6716309-9.4776573l0.6243286-3.1849976l10.3206177,2.7828445l0.0388031,9.0615578
				L183.4563446,61.1085663z"/>
			<path class="st25" d="M187.7312775,27.0427303l-6.7333984,3.0968151c-0.1011353,0.0499134-8.37117,4.1311226-7.8621674,3.8799324
				c0,0-5.1038666,4.9909706-9.5164032,6.5360184c0,0-4.5325012-5.9540634-0.5608673-11.8480186
				C167.0300903,22.8135204,179.3153992,17.9425926,187.7312775,27.0427303z"/>
			<g>
				<path class="st26" d="M129.6166534,275.6108398c-2.8621674,2.9446106-12.4386292,1.8484497-16.703598,0.8197021
					c-7.6764603-1.885437-10.7074966-5.4750366-16.1295013-10.6864624
					c-2.6511459-2.6254883-9.4654388-7.6801147-9.6857452-11.350708c-0.1849823-3.09935,2.9888687-6.6286621,4.9296188-8.778244
					c1.6697083-2.1582184,4.9302597-5.3293304,7.0190277-6.3009033c0.3963776-0.3551941,0.8637924-0.6296997,1.3669891-0.8267517
					l0.0035324-0.0000153c3.0532837-1.1880798,5.9630432,0.5307312,8.5230789,2.4726563
					c11.5776367,8.7985077,9.3722076,13.9751434,15.3453674,22.4547119c2.0292664,2.9109802,6.9541245,7.8535767,5.905983,9.317749
					c0.1145782,0.2779541,0.1469269,0.3694763,0.1593018,0.6586609
					C130.3875885,274.2198486,130.2054901,275.0040283,129.6166534,275.6108398z"/>
				<path class="st7" d="M114.5764923,246.0467834c-0.032608,1.0054169-0.4169159,2.1612244-1.3028107,2.6429443
					c-1.1495361,0.6279297-2.4365692,1.2673035-3.7076111,1.638504c-2.3942719,0.6920624-5.3220596,0.671463-7.5063324-0.6130981
					c-3.7307587-2.2627411-4.0852509-8.1295929-1.6462936-11.2276611l0.0035324-0.0000153
					c3.0532837-1.1880798,5.9630432,0.5307312,8.5230789,2.4726563
					C110.956604,242.4925995,112.8928833,244.1630249,114.5764923,246.0467834z"/>
				<path class="st15" d="M92.0272598,245.6166534l6.6146698,10.5185699
					c5.0755081,8.2096863,8.4577103,13.5974426,18.4090805,15.848938c3.9055862,0.8833618,9.2260056,1.7730713,13.1388092,0.7467346
					c0.1167145,0.2786255,0.1493988,0.3726196,0.1617737,0.6610718c0.0347595,0.8286743-0.1473389,1.6121521-0.736145,2.2189941
					c-2.8554764,2.943573-12.4427032,1.8462219-16.7029343,0.8210144
					c-7.6750565-1.8860779-10.7060928-5.4774475-16.129158-10.6896057
					c-2.6518402-2.6226501-9.4657822-7.6769714-9.6846771-11.350708
					C86.9140396,251.2926788,90.0854187,247.7655029,92.0272598,245.6166534z"/>
				<path class="st15" d="M119.575798,254.1955261c-1.7365341,0.3917389-3.4112625,1.0793304-4.925621,2.026947
					c-1.3372879,0.8275146-1.8351059-0.2527466-0.7642899-0.9476166c1.5858917-1.0286102,3.3681412-1.6590118,5.3035278-1.9516907
					C119.3217087,253.6116028,119.4505005,253.903595,119.575798,254.1955261z"/>
				<path class="st15" d="M120.8502502,257.2211304c-1.5247879,0.4044495-2.9952621,1.0414429-4.337471,1.8786926
					c-1.3166199,0.8367004-1.8421402-0.2447205-0.7642746-0.9441528c1.5723877-1.0245667,3.0521164-1.509552,4.7186966-1.8457642
					C120.5924988,256.6160278,120.7213974,256.9185181,120.8502502,257.2211304z"/>
				<path class="st15" d="M122.4401245,260.4810486c-1.5389328,0.4080811-3.0164185,1.045105-4.3656921,1.8894958
					c-1.3165817,0.8370056-1.8490982-0.2424316-0.7677155-0.9441528c1.4970627-0.9710388,2.9553757-1.4892578,4.65168-1.8347778
					C122.0891495,259.8491516,122.2990341,260.2439575,122.4401245,260.4810486z"/>
			</g>
			<g>
				<path class="st15" d="M241.9888458,256.0988159c1.4324036,0.877594,2.0281372,1.6444092,2.6376495,3.1981201
					c-0.990448,2.5628662-3.1413269,4.8474426-5.0643768,6.7849731
					c-8.2612915,7.4650574-16.0863647,9.5238342-30.3435364,11.4055786
					c-1.419342,0.1872864-2.9783783,0.5146179-4.3966675,0.5125122c-1.4327393-0.0021362-2.861969-1.0070496-3.7624817-2.043335
					c-1.4460754-1.6641846-2.7075043-5.0596619-2.2672729-7.1954956h0.2595825
					c2.8030853-0.3830566,5.5899353-0.8045654,8.4247437-0.8306885c7.6840515-0.0708923,15.2506104,1.1921997,22.5745239-1.9497986
					C234.91362,263.8946838,239.9264832,261.2474976,241.9888458,256.0988159z"/>
				<path class="st26" d="M241.9897156,256.0999756c-2.0634155,5.1462402-7.0755615,7.795105-11.9396057,9.8797302
					c-7.3224945,3.1427002-14.8883514,1.8800354-22.5741577,1.9505615c-2.8358917,0.0247192-5.622345,0.4479675-8.4229736,0.8323669
					h-0.2610168c-0.109314,0-0.5572815-7.4036255-0.6067047-8.0631409c-0.136322-1.7075806,0.1719666-2.3197632,2.0281372-3.0193176
					c12.6309509-4.760849,12.5649109-5.4432526,22.1826782-4.4302063
					C235.128952,254.593399,239.6789246,254.4242859,241.9897156,256.0999756z"/>
				<path class="st7" d="M212.8514252,253.2041626c-0.3774414,1.0511017-1.0193634,1.9187775-1.5378571,2.9099426
					c-0.4409027,0.8429565-0.6878357,1.7706604-1.1957397,2.6065674c-1.6469421,2.7243347-5.4201813,5.4562988-8.3877106,4.4160767
					c-1.4214783-0.500824-2.088089-1.675415-3.0016632-2.7477112c-0.2045593-0.2433472-0.3914642-0.4937744-0.5537567-0.7583008
					c0.1461639-1.1371155,0.9533081-1.5415039,2.0386963-1.9505615
					C209.1721191,254.3034515,210.6874695,253.6719513,212.8514252,253.2041626z"/>
				<path class="st15" d="M222.3960724,253.2499695c-0.3491821,1.7989044-0.8712006,3.56604-1.5519714,5.2697144
					c-0.105835,0.2574768-0.2645416,0.557251-0.5432129,0.5748901c-0.2398682,0.0141296-0.4409027-0.2010803-0.4938202-0.4338379
					c-0.0493317-0.2328491,0.0106049-0.4761963,0.0705261-0.7054443c0.4197693-1.6119385,0.7936249-3.2309723,1.2063751-4.8428497
					C221.2613373,253.1290894,222.2369385,253.2332001,222.3960724,253.2499695z"/>
				<path class="st15" d="M225.8527222,253.5991516c-0.3386078,1.5202484-0.8041687,3.0122681-1.3826904,4.4584656
					c-0.1057892,0.2574768-0.2645416,0.5572205-0.5431519,0.5748901c-0.2398682,0.0176392-0.4409027-0.2009888-0.4938202-0.4338379
					c-0.0649109-0.3059387-0.0490723-0.2480774,1.0722809-4.7335052
					C224.9533081,253.5109711,225.4012756,253.5568695,225.8527222,253.5991516z"/>
				<path class="st15" d="M229.3340759,253.9306946c-0.331543,1.4038239-0.7689056,2.7865601-1.3050537,4.1269226
					c-0.1022949,0.2574768-0.2645416,0.5572205-0.5431976,0.5748901c-0.2398376,0.0176392-0.4409027-0.2009888-0.4902496-0.4338379
					c-0.0746613-0.3281555-0.0257568-0.296814,0.9840698-4.3948975
					C228.4310913,253.8461304,228.8825836,253.8884125,229.3340759,253.9306946z"/>
			</g>
			<path class="st26" d="M216.9581604,94.4973297c0,0-7.4523621,8.1814346-21.266037,1.8390656l-4.8843994-20.7745667
				l16.4301605-0.5497971L216.9581604,94.4973297z"/>
			<path class="st26" d="M190.807724,68.5233917c0,0,3.3843384-7.1760025,14.8441772-7.8997803
				c0,0,15.3283997,16.4671326,14.1231079,27.9490204c-0.9913635,9.4439697-10.6128235,8.0986404-11.9613495,6.9699249
				c-0.8033752-0.6724243-10.1697998-6.6830139-14.9157104-19.0804749L190.807724,68.5233917z"/>
			<path class="st27" d="M216.3365936,94.962059c-2.2692261,1.3039551-5.1119385,1.8637695-7.7376099,1.0419922
				c-2.3018494-0.6732025-4.0644684-2.6381607-6.2161865-4.9580078c-4.1072388-4.6664734-7.4269409-9.1845245-9.5712891-12.565918
				c2.5534363,3.1345367,7.2815704,8.9723587,10.1272583,12.0639648c1.7788086,1.8974609,3.4334717,4.0646973,5.8445435,4.9160156
				C211.1801605,96.3355942,213.9372406,95.9884262,216.3365936,94.962059z"/>
			<path class="st10" d="M168.7115021,179.0904694c0.411377,24.4084167-36.276947,76.4709625-36.4043884,76.7062531
				c-4.9591904-0.9629211-9.3329773-2.4126434-13.138855-4.1021881
				c-14.1687775-6.2854309-20.5424728-15.865387-20.5424728-15.865387s16.9341431-32.0306396,31.4733047-56.738678
				c8.7439575-14.8566589,11.4317322-30.0519104,12.1829987-39.8046112
				c0.5008392-6.4688568,0.1481171-10.5463409,0.1481171-10.5463409c0.1166534-0.0553589,18.0531464-8.5688095,17.9464874-8.5181732
				c0,0,1.1111298,4.8569794,2.5184326,12.20401C165.2548523,144.703598,168.4504852,163.9410248,168.7115021,179.0904694z"/>
			<path class="st3" d="M168.7115021,179.0904694c0.1552124,9.2095032-5.0686035,22.50354-11.604538,35.4449463
				c-1.0017548-1.9717407-1.6860199-4.112793-2.338501-6.2326508c-6.906311-22.4082947-12.0630493-45.6456909-12.4863739-69.0169067
				c0.5008392-6.4688568,0.1481171-10.5463409,0.1481171-10.5463409l9.7739716-4.6382446
				c4.0068665,2.1197739,7.5834961,4.9909668,10.6909485,8.3240814
				C165.2548523,144.703598,168.4504852,163.9410248,168.7115021,179.0904694z"/>
			<path class="st11" d="M143.9429474,130.3338623c0,0,2.1294098,32.3182068,12.7608337,53.285675
				c8.93573,17.62323,6.8631134,22.0096588,12.9514313,39.5353699c6.0883331,17.5257111,12.4398041,34.45755,15.26091,37.3764648
				c0,0,20.2805481,0.6918945,37.2082062-9.1502991c0,0-16.912674-54.0808411-26.153244-96.0921326
				c-1.3543701-6.157486-1.3143158-12.5384979,0.1330566-18.6747894l2.0478516-8.6820602L143.9429474,130.3338623z"/>
			<path class="st26" d="M167.7843933,58.1665344c5.1186371,6.0413742,12.8218384,10.2189255,16.5710907,5.8133545
				l5.7603912,18.3462067l5.0062714,42.9453659l-1.1624756,8.0105362c0,0-6.3069,2.3457489-14.9216309,3.0086212
				l-10.0479279-48.497963l-3.2468414-28.9352531L167.7843933,58.1665344z"/>
			<path class="st11" d="M166.3315735,62.0485344c-1.1242523-1.8555756-0.2935181-3.6265869,1.1222839-4.5281944
				c-4.7868347-2.0997734-12.1099243-0.8994789-17.0194855,0.9537926c-4.3874054,1.6561356-8.5634003,3.8721809-12.391571,6.5811424
				c-2.3178406,1.6401215-4.6002655,3.58284-5.6181335,6.2335892c-1.4589386,3.799675-0.0284119,8.2768936-1.6113586,12.0267944
				c-0.7033691,1.6662979-1.9500427,3.0454865-2.7758636,4.6547775c-2.1677399,4.2243881-0.8778458,9.9171829,2.8990936,12.7945786
				l2.365799,2.2289658c1.6289215,1.8516159,3.2829895,3.7256165,5.3356781,5.0925827
				c2.0526886,1.3667984,4.5858917,2.1902161,7.0037079,1.7047043c3.7160492-0.7462616,6.1471252-4.2226639,8.1849976-7.418335
				c5.1786499-8.1210785,14.582077-22.8530655,18.0777435-32.4010925
				C169.9244537,67.417717,168.008255,64.8158798,166.3315735,62.0485344z"/>
			<path class="st15" d="M179.0380402,136.2906189c0,0-26.1069183,2.8460846-39.225769-7.0153656l16.586319-68.1562271
				c0,0,3.1601257-3.4377823,13.4115448-4.6096916c0,0-2.6552124,2.0872612-1.7062378,3.6019897
				s10.1261749,10.0888786,12.8036804,26.4827919C183.8372803,104.5322952,179.0380402,136.2906189,179.0380402,136.2906189z"/>
			<path class="st15" d="M181.8932953,59.5636406c0,0,8.7393036,4.2105293,10.7265778,10.6450768
				c1.9872742,6.4345551,8.5547485,34.3727875,6.8107452,63.0562515c0,0-3.1399536,2.5975189-7.0063324,2.0717163
				C191.7585907,106.8299942,188.9542999,80.765831,181.8932953,59.5636406z"/>
			<path class="st11" d="M147.4862823,119.1735229c0,0,11.109726-5.2757721,18.8784943-24.0611191
				c7.7687531-18.7853546,5.5410156-30.8628845-5.0871582-37.6684799l-12.149826,5.7512054l-1.64151,22.8131104V119.1735229z"/>
			<path class="st23" d="M196.3059387,31.2929497c-1.908783,4.583149-7.1480408,2.7377739-12.0101624,2.5114174
				c-4.8181458-0.2399139-11.1600647,0.2151108-11.1600647,0.2151108
				c5.3318176-4.4429531,13.8249969-8.7831173,20.7188416-7.1248646
				C193.8545532,26.8946133,197.7486115,27.8256741,196.3059387,31.2929497z"/>
			<path class="st3" d="M179.0402679,34.3687553l1.3932343,10.1582985c0,0-1.7988739,6.793499-7.7034302,6.1479912
				c-5.904541-0.6489525-9.1107635-10.1195488-9.1107635-10.1195488c3.1888123-1.1165581,7.2729645-4.3405571,9.5410767-6.5572014
				c0.4519196-0.3279762,2.7992401-2.3552666,6.5077362-4.3137741c7.3330841,0.0530472,9.1566162,3.6331329,9.1566162,3.6331329
				C188.7119293,33.3297729,178.3967896,34.4378777,179.0402679,34.3687553z"/>
			<path class="st7" d="M189.298172,50.4749565c-0.5819855,1.6542397-1.7459564,3.5976524-3.5236816,4.0914268
				c-7.1542816,1.989193-14.3145752-2.3453789-15.3751068-6.8427544c-1.1216736-0.4514084-2.2115631-0.8747444-3.0757599-1.721241
				c-1.5695953-1.5378151-2.726532-4.5712509-0.303299-5.9258156c1.8187256-1.0191765,4.4809723-0.1771812,5.707016,2.5995941
				c0.024704-1.5555534-0.2786713-3.110939-0.2645416-4.6699371c0.0105896-1.6966095,0.4902802-3.5272102,1.8482513-4.5466232
				c0.7301636-0.5466499,1.6366272-0.7970695,2.5289764-0.991169c3.3791046-0.7336864,6.8992767-0.8041267,10.3065491-0.2080498
				c0.557312,0.0986862,1.5519867,0.5042801,1.6789551,1.0581627c0,0,0.6948547,1.4143295,1.223938,3.7705688
				c0.0035248,0,0.0035248,0,0.0035248,0c0.0952454,0.4197197,0.1869507,0.8711243,0.2680664,1.347332
				C190.8430939,41.5405006,190.9453888,45.7977829,189.298172,50.4749565z"/>
			<g>
				<path class="st4" d="M146.5636139,174.2759094c-4.4189148-0.7562866-50.7234955-8.681015-59.2112579-10.1337585
					l-3.6083298-29.617981l44.6968155,24.9726715v0.0035248c0.9713745,0.542511-3.5183868-1.9649658,9.4987488,5.3049469
					L146.5636139,174.2759094z"/>
				<path class="st22" d="M146.5636139,174.2759094l-27.8050385,48.1604614
					c-27.3182678-15.7686157-29.666954-17.1285706-56.1919403-32.4432831
					c3.160965-5.4750519,24.498703-42.4338531,27.8049469-48.160553
					C171.9362335,188.9237061,133.8059845,166.9100647,146.5636139,174.2759094z"/>
				<polyline class="st1" points="90.3706207,141.8336945 83.7456818,134.5224609 55.373497,182.1350861 62.5656319,189.9933319 
									"/>
				<path class="st15" d="M140.5109406,170.7803802c-27.2728271,46.6310272-27.7599411,47.463913-28.0766296,48.0053864
					l-7.8586426-4.5360413c0.06073-0.1012878,28.8837585-48.1725159,28.8173828-48.0617828l-4.9522095-6.6875763
					l8.0914001,4.5183868L140.5109406,170.7803802z"/>
				<g>
					<path class="st27" d="M58.9785423,186.2438507c29.4136772-51.2824554,27.5109596-48.7160034,28.0512733-48.5683594
						l32.5131836,8.8964844c0.1811523,0.04953-0.9547882-0.9978943,24.6992188,24.5981445
						c0.3509827,0.3498077-0.1790619,0.881485-0.5302734,0.5302734l-24.4628906-24.4311523l-32.1367188-8.793457
						L59.6299095,186.615921C59.3832169,187.0467682,58.733242,186.674881,58.9785423,186.2438507z"/>
				</g>
				<path class="st7" d="M121.7778549,127.193222c-1.8130112,4.5782318-4.3014297,8.8883514-7.3597488,12.7476196
					c-0.9434891,1.1905823-1.9611588,2.3739166-2.4569016,3.809845c-0.4957428,1.4359436-0.3366623,3.2215576,0.81604,4.210968
					c0.1552353,0.6876373,0.6207047,0.9020386,1.3256149,0.9092407c0.7049179,0.0071869,1.3806305-0.5162354,1.5498581-1.2005768
					c-0.3458557,0.8363495,0.103775,1.9122772,0.9418716,2.2538605c0.8381042,0.3415833,1.9117355-0.1135254,2.2490311-0.9533539
					c-0.4697952,0.7328644-0.1942673,1.8365784,0.5648499,2.2626648s1.8448105,0.08638,2.225708-0.6963806
					c-0.2005692,0.9407196,0.1730347,1.9804077,0.9265137,2.5782928c1.4458084,1.1472626,3.6123886,0.5743408,4.4274063-1.7524567
					c0.3034592-0.8663635,0.3720856-1.7945404,0.438179-2.7101288c0.3740845,0.7867279,1.577858,0.6365967,2.2654648,0.1017609
					c0.6876221-0.5348511,0.9893188-1.4156189,1.2501831-2.2467804c1.7360229-5.5312805,3.2069855-11.1457367,4.4061279-16.8176575
					c0.5010071-2.3697128,0.0335083-3.4683685-2.4659576-3.832634c-2.7630463-0.4026794-5.5945663-0.3312225-8.333786,0.2103195"/>
			</g>
			<path class="st26" d="M119.8157425,130.3338318c0,0,4.4955139,3.7841339,16.3065414,5.5880432
				c0,0,23.5857544-23.8748627,27.9673462-49.5859299s-7.69104-25.2169189-7.69104-25.2169189
				C146.5460663,63.6993713,126.8482971,100.6274109,119.8157425,130.3338318z"/>
			<path class="st3" d="M177.6786804,37.1777687c-0.9010468,0.116806-0.9130096,0.6788445-0.5300903,0.9568176
				c0.1506805,0.1093864,0.3357391,0.1584816,0.5169525,0.2012901c0.8272095,0.1954193,5.0970306,1.0074081,5.1663055-0.4410248
				C182.8986816,36.4978065,178.5013428,37.0711288,177.6786804,37.1777687z"/>
			<path class="st3" d="M190.3210602,38.436451c-1.3861847,0.268158-4.6241608,0.7161217-4.6841431-0.5432014
				c-0.056427-1.1463432,2.8993835-0.962925,4.4125519-0.8041306c0.0035248,0,0.0035248,0,0.0035248,0
				C190.2208557,37.0558815,190.4889221,38.4032135,190.3210602,38.436451z"/>
			<ellipse class="st3" cx="188.8247375" cy="40.6494484" rx="0.7253357" ry="1.0318155"/>
			<ellipse class="st3" cx="179.9981232" cy="40.5554962" rx="0.7253357" ry="1.0318155"/>
			<path class="st9" d="M186.7374878,44.8715096c-0.0262756,0.2415314-0.2013855,0.4469833-0.4109955,0.5698433
				c-0.6131134,0.3593826-2.98526,0.5383148-3.7003174,0.5595779c-0.6552277,0.0194817-0.5728149-0.5066948-0.1002808-0.6623039
				c0.766037-0.2522621,1.5838776,0.1689262,2.3657684,0.0188293c0.3901672-0.0749016,0.7744904-0.327404,0.8797455-0.7104988
				c0.1471558-0.5355721-0.1911316-0.983326-1.3746033-3.2739754c-0.1288147-0.2493134-0.3991547-0.7963676,0.0183258-0.9262886
				c0.4128113-0.1284676,0.5753784,0.5627861,0.7030792,0.824749
				C186.6903534,44.4964523,186.7715454,44.5584526,186.7374878,44.8715096z"/>
			<path class="st20" d="M186.1166382,47.7060623c-0.6066895,1.0511017-2.4584808,1.7529259-3.6400909,1.4778786
				c-1.1816254-0.2786636-2.0775299-1.382637-2.1551208-2.5961494
				C182.1026764,47.4802704,184.1308136,47.8717422,186.1166382,47.7060623z"/>
		</g>
	</g>
</g>
</svg>
