<?xml version="1.0" encoding="utf-8"?>
<!-- Generator: Adobe Illustrator 22.0.1, SVG Export Plug-In . SVG Version: 6.00 Build 0)  -->
<svg version="1.1" id="Layer_1" xmlns="http://www.w3.org/2000/svg" xmlns:xlink="http://www.w3.org/1999/xlink" x="0px" y="0px"
	 viewBox="0 0 300 300" style="enable-background:new 0 0 300 300;" xml:space="preserve">
<style type="text/css">
	.st0{fill:#EDC1A4;}
	.st1{fill:#E2E0E0;}
	.st2{fill:#D39E81;}
	.st3{fill:#502E26;}
	.st4{fill:#CCCACA;}
	.st5{fill:#426800;}
	.st6{fill:#538705;}
	.st7{fill:#D47E44;}
	.st8{fill:#73341D;}
	.st9{fill:#BC672E;}
	.st10{fill:#96311D;}
	.st11{fill:#B83E21;}
	.st12{fill:#DE8D82;}
	.st13{fill:#EFBAB4;}
	.st14{fill:#FDD5D0;}
	.st15{fill:#6883CE;}
	.st16{fill:#3D4885;}
	.st17{fill:#3859AE;}
	.st18{fill:#864424;}
	.st19{fill:#FEFEFE;}
	.st20{fill:#FFFFFF;}
	.st21{fill:#A55925;}
	.st22{fill:#F4F2F2;}
	.st23{fill:#3C3E68;}
	.st24{fill:#E8997C;}
	.st25{fill:#F5C46B;}
	.st26{fill:#F7EBDA;}
	.st27{fill:#0E0C0D;}
	.st28{fill:#657C3A;}
	.st29{fill:#576C37;}
	.st30{fill:#7C995D;}
	.st31{fill:#36518C;}
	.st32{fill:#96B7E3;}
	.st33{fill:#A3B3DF;}
	.st34{fill:url(#SVGID_1_);}
	.st35{fill:url(#SVGID_2_);}
	.st36{fill:url(#SVGID_3_);}
	.st37{fill:url(#SVGID_4_);}
	.st38{fill:url(#SVGID_5_);}
	.st39{fill:#266AB7;}
	.st40{fill:#060E0D;}
	.st41{fill:#E0D4C6;}
	.st42{fill:#787E42;}
	.st43{fill:#D3D1D1;}
	.st44{fill:url(#SVGID_6_);}
	.st45{fill:url(#SVGID_7_);}
	.st46{fill:url(#SVGID_8_);}
	.st47{fill:#020508;}
	.st48{fill:#BAB6B6;}
	.st49{fill:#0F0B07;}
	.st50{fill:#2F3A68;}
	.st51{fill:#203257;}
	.st52{opacity:0.5;fill:#FFFFFF;}
	.st53{opacity:0.2;fill:#0E0C0D;}
	.st54{fill:#DD9F9B;}
	.st55{fill:#3E4D9B;}
	.st56{fill:url(#SVGID_9_);}
	.st57{fill:#5F6194;}
	.st58{fill:url(#SVGID_10_);}
	.st59{fill:url(#SVGID_11_);}
	.st60{fill:url(#SVGID_12_);}
	.st61{fill:url(#SVGID_13_);}
	.st62{fill:#070102;}
	.st63{fill:#100805;}
	.st64{fill:#FDA465;}
	.st65{fill:#2A50A1;}
	.st66{fill:#B76C39;}
	.st67{fill:#130602;}
	.st68{fill:url(#SVGID_14_);}
	.st69{fill:url(#SVGID_15_);}
	.st70{fill:url(#SVGID_16_);}
	.st71{fill:url(#SVGID_17_);}
	.st72{fill:url(#SVGID_18_);}
	.st73{fill:url(#SVGID_19_);}
	.st74{fill:#B4BDED;}
	.st75{fill:#100D08;}
	.st76{fill:#F6C85F;}
	.st77{fill:#FECF00;}
	.st78{fill:#2D59E2;}
	.st79{fill:#121F3A;}
	.st80{fill:#BBD0F5;}
	.st81{fill:#020202;}
	.st82{fill:#E2CFB7;}
	.st83{fill:#080805;}
	.st84{fill:#A87D7C;}
	.st85{fill:#182052;}
	.st86{fill:#EAEAEA;}
	.st87{fill:#DDDDDD;}
	.st88{fill:#3D4574;}
	.st89{fill:#ABC5F0;}
	.st90{fill:url(#SVGID_20_);}
	.st91{fill:#4159A8;}
	.st92{fill:#E0D0BD;}
	.st93{fill:#3D53AA;}
	.st94{fill:#0A0000;}
	.st95{fill:#BF6D36;}
	.st96{fill:#385DAE;}
	.st97{fill:#E0DCDC;}
	.st98{fill:#857E78;}
	.st99{fill:#0E213C;}
	.st100{fill:url(#SVGID_21_);}
	.st101{fill:#55608E;}
	.st102{opacity:0.3;fill:#F4F2F2;}
	.st103{opacity:0.3;}
	.st104{fill:#213987;}
	.st105{enable-background:new    ;}
</style>
<g id="Robot_Delivery_1_">
	<g id="Robot_Delivery">
		<g>
			<g>
				<g>
					<path class="st3" d="M219.2094727,130.0422363c0,0,2.3016357,0.5983887,2.9099274-0.8444519
						c0.6082916-1.4428558,13.8459778,4.4408112,13.8459778,4.4408112l-1.1460724,5.9342804
						c-5.0501862,7.6444702-12.2658234,9.3298645-21.5553131,8.5418091l1.5289154-14.7568817L219.2094727,130.0422363z"/>
					<path class="st1" d="M186.5322113,144.5401917c0,0,12.9811859,3.8472443,25.5636292,4.7559662
						c1.1354065,0.0820465,2.0787048-0.8401947,2.0549011-1.9784546
						c-0.0714569-3.3705597,0.4485931-10.3457184,5.0589447-17.2755585c0,0-12.4742584-7.0374069-25.7627106-5.3459167
						L186.5322113,144.5401917z"/>
					<path class="st3" d="M177.4920502,142.3201294c-0.0932312,2.3440857,0.1544647,4.9919891,1.9523773,6.4989471
						c5.419281,4.5422668,16.8792114-5.7002411,17.1392517-18.4586334
						c0.0962219-4.7203522-2.8648834-11.2712936-10.0514679-10.3312073
						c-2.3959656,0.3134155-2.5075989,1.7451859-3.4313354,3.3047409
						C179.7037506,129.0693817,177.757019,135.6574554,177.4920502,142.3201294z"/>
					<circle class="st33" cx="223.7016602" cy="143.9411774" r="8.3851995"/>
					<path class="st15" d="M228.2052765,142.4858704c0.8026428,2.4833984-0.5649261,5.1560211-3.0480804,5.9586029
						c-2.4831696,0.8025665-5.1562653-0.5641174-5.9588928-3.0475006c-0.8026428-2.4833984,0.5646362-5.1569214,3.0477905-5.9594879
						C224.7292633,138.6349182,227.4026337,140.0024872,228.2052765,142.4858704z"/>
					<path class="st8" d="M238.2837677,110.3791199c0.0583801-0.0139389,0.1190338-0.0514679,0.1938934-0.0924911
						c0.9748993-0.5642242,2.7271271-2.4237137,2.7552643-3.5632095c-2.9495392-0.9292908-5.6006622-2.8006363-7.4690704-5.2673569
						c-0.1608124,0.9400558-0.4828949,1.8491974-1.0650024,2.5738831c0.535141,0.981926,1.110199,1.938797,1.7259369,2.8706131
						C235.4076538,108.3930969,236.5509338,109.8611755,238.2837677,110.3791199z"/>
					<path class="st1" d="M222.1194,129.1977844c0,0,7.5274658,7.4235229,12.6999054,10.3750916
						c0,0,9.5503693-9.8197632,6.7128601-33.4176407c0,0-5.7498474,0.1302414-8.5182648-3.6052094
						C233.0139008,102.5500259,222.7969971,115.593956,222.1194,129.1977844z"/>
				</g>
			</g>
			<g>
				<path class="st15" d="M152.7890778,87.8753128h-2.431366V68.6555634c0-1.1778336,1.3306122-1.267128,1.215683-1.2156754
					c0.671402,0,1.215683,0.544281,1.215683,1.2156754V87.8753128z"/>
				<path class="st3" d="M244.6436005,101.846283c0,0-0.5496674,6.8654633-2.0005798,7.6398926
					s-12.2501678-3.1349411-14.2845306-4.8103943c-2.0343628-1.6754608,0.3652802-5.6371307,0.3652802-5.6371307
					l5.0528107-2.6596756L244.6436005,101.846283z"/>
				<path class="st3" d="M167.6711731,269.7945862c0,0,11.1849976,6.0945129,28.6040802,8.0688782
					c0,0,7.7995605,1.2454834,9.6580505-3.7866821s-1.5413513-11.1859741-9.7070923-17.2158203
					c-8.1657562-6.029892-24.7885284-8.2560272-30.5254974-4.276001
					C160.5715179,256.1433411,159.3910065,265.0814819,167.6711731,269.7945862z"/>
				
					<ellipse transform="matrix(0.2134852 -0.9769463 0.9769463 0.2134852 -108.9365387 382.3763733)" class="st19" cx="183.0105286" cy="258.8443604" rx="5.3354006" ry="13.9665003"/>
				<path class="st8" d="M180.9806671,261.9703674c-11.7403107-2.9847717-13.4549255-8.9053497-2.1926422-8.1883087
					c4.7191315,0.2937317,12.4219513,2.2086639,15.3797302,5.2377777
					C196.3332977,261.2290344,189.9747314,264.2891541,180.9806671,261.9703674z"/>
				<path class="st11" d="M194.2192688,262.0455322c-0.6858978,0.4539185-1.7727356,0.7702942-3.1445465,0.9181519
					c-5.0580597,0.5523376-12.9939575-1.1678162-17.3370361-3.8725281
					c-12.4989929-32.6006165-25.7514343-70.3748779-33.7137756-92.7524872
					c28.0534973-10.6865692,18.3778076-7.0007477,20.4709625-7.798111h0.0105591l5.2232819-1.9944763
					c0.050766,0.1056061,16.3643494,31.924408,21.8532715,47.537323
					c4.2419434,12.0818024,5.8880768,37.1851959,6.4367981,48.6976471
					C194.1036224,254.5624847,194.1743469,259.0822449,194.2192688,262.0455322z"/>
				<path class="st10" d="M180.9806671,261.9703674c-2.9460144-0.7489624-5.4860535-1.7865295-7.2409668-2.8782654
					c-13.617218-35.4075165-33.1932983-91.3091736-33.7189331-92.756424l6.8123474-2.594101
					C160.9258881,195.8309479,172.3454285,228.8517456,180.9806671,261.9703674z"/>
				<path class="st3" d="M100.2983017,269.7937927c0,0,11.1849976,6.0944824,28.6040726,8.0688477
					c0,0,7.7995605,1.2455139,9.6580505-3.7866516s-1.5413513-11.1859741-9.7070923-17.2158508
					c-8.1657486-6.0298615-24.7885361-8.256012-30.5254898-4.2759705
					C93.1986389,256.1425476,92.0181274,265.0806885,100.2983017,269.7937927z"/>
				
					<ellipse transform="matrix(0.2134852 -0.9769463 0.9769463 0.2134852 -161.9255219 316.5560608)" class="st19" cx="115.6376419" cy="258.8435364" rx="5.3354006" ry="13.9665003"/>
				<path class="st8" d="M114.8872452,262.2726135c-4.6017609-1.0016479-8.4094925-2.7249756-10.1193085-4.3987122
					c-1.5149231-1.4871216-1.2200317-2.7803955,0.5909729-3.5008087c4.5680618-1.8255005,16.2276306,0.4165497,20.8025589,4.0781708
					C130.8958893,262.2354126,124.1109619,264.2932739,114.8872452,262.2726135z"/>
				<path class="st11" d="M160.5054321,158.5405579c-0.4442902,1.5579834-11.5397034,38.7113495-14.8361969,54.8387604
					c-2.6754303,13.037384-15.6673279,38.3532104-21.9693909,49.5843658
					c-6.6442413,0.7255249-15.9799957-2.1957703-18.9303894-5.085907
					c5.3655777-31.9059906,16.1181793-84.3880005,19.5107422-101.3316956l7.1753845,1.2767487
					C137.8799744,157.9815674,115.6650848,157.4327087,160.5054321,158.5405579z"/>
				<path class="st10" d="M175.0462036,175.3604736c-17.50737,2.4280548-36.0572815,0.9803772-53.6361313-4.6536102
					c1.7410507-8.6523895,2.8701248-14.1607819,2.8701248-14.1607819l7.1753845,1.2767487
					c6.4243927,0.1587372-15.7904968-0.3901215,29.0498505,0.7177277l5.2232819-1.9944763
					C165.728714,156.5460815,170.0761566,164.9985504,175.0462036,175.3604736z"/>
				<path class="st10" d="M131.4534454,157.8270569c-4.4167709,34.8242188-11.6306534,69.2964172-21.5469131,102.9749146
					c-2.2918701-0.8798218-4.1009903-1.9129944-5.1385956-2.9280701
					c6.0341949-35.7667847,19.2391357-99.9306335,19.5077057-101.3236237L131.4534454,157.8270569z"/>
				<polygon class="st15" points="191.5014496,126.0840149 187.3914795,170.3237762 129.9646301,169.0921478 
					135.3152618,125.8540344 				"/>
				<polygon class="st16" points="135.3152618,125.8540344 129.9646301,169.0921478 113.2179565,153.0673065 
					117.2692719,110.3794708 				"/>
				<polygon class="st15" points="191.5014496,126.0840149 135.3152618,125.8540344 117.2692719,110.3794708 
					172.6072998,110.3794708 				"/>
				<ellipse class="st19" cx="161.6585388" cy="148.8374786" rx="12.7175045" ry="12.5319138"/>
				<g>
					<g>
						<path class="st3" d="M84.7622604,131.9746552c0,0-2.3769455,0.0759125-2.6519623-1.4655914
							c-0.2750092-1.5414886-14.48452,1.2769623-14.48452,1.2769623l-0.1912766,6.0408936
							c3.2393799,8.5702209,9.9054565,11.8058929,19.1399384,13.0865326l1.7641449-14.7306061L84.7622604,131.9746552z"/>
						<path class="st1" d="M111.4183426,151.3127899c0,0-11.4922409,2.900116-23.9651642,1.0107269
							c-1.1255341-0.1704407-1.8421631-1.2780609-1.5678329-2.3830261
							c0.8132477-3.271759,1.8447495-10.1898041-1.1232758-17.9659729c0,0,11.5312271-3.0212402,24.1191559,1.5600433
							L111.4183426,151.3127899z"/>
						<path class="st3" d="M120.1034164,148.8302307c-1.7310715,1.6997375-4.2796936,3.1166077-6.7697678,3.0158081
							c-3.1536179-0.1276703-3.3198395-2.3322754-4.4930649-4.8319855
							c-2.6330795-5.6101227-5.7245636-11.5848083-10.0569534-16.0169067
							c5.2783966-3.0341873,10.0727921-5.2616501,15.3511887-8.295845c1.2171631-0.6996689,2.4656372-1.4110184,3.8478241-1.6571503
							c2.7202377-0.4844208,5.1526108,1.7446213,6.0907135,4.1697998c0.6330032,1.6364288,0.6784897,3.4321671,0.7161255,5.1863632
							C124.9285126,136.8819275,124.9549789,144.0664978,120.1034164,148.8302307z"/>
						<path class="st15" d="M116.9895248,131.254303c1.109108-0.2332306,2.2713242,0.002182,3.2360229,0.9565277
							c0.9729538,0.9622192,1.1894836,2.4099731,1.1582413,3.7198639
							c-0.0830078,3.4802094-2.2710876,10.9040833-7.0885849,9.4860992
							c-1.4172668-0.4171448-2.4714279-1.6265106-2.8195648-3.045517c-0.6638718-2.7059784,0.7583694-6.2691956,2.1172791-8.5758514
							C114.3281784,132.5473633,115.6182632,131.5426483,116.9895248,131.254303z"/>
						<circle class="st33" cx="77.3146057" cy="144.5401917" r="8.3851995"/>
						<path class="st15" d="M73.2429733,142.127243c-1.3307114,2.2451324-0.5864258,5.1536102,1.6585159,6.4842072
							c2.2449417,1.3305817,5.1536636,0.587265,6.484375-1.6578827c1.3307037-2.2451324,0.5868988-5.1544342-1.6580429-6.4850159
							S74.5736771,139.8820953,73.2429733,142.127243z"/>
						<path class="st1" d="M82.1102982,130.5090637c0,0-8.97966,5.5800629-14.6757965,7.3178558
							c0,0-7.1488228-11.6846619,0.8245392-34.0752182c0,0,5.5794601,1.395462,9.103714-1.6372452
							C77.3627548,102.1144562,84.4504395,117.0909119,82.1102982,130.5090637z"/>
					</g>
				</g>
				<path class="st3" d="M64.4881516,100.8082275c0,0,0.0979614,6.451561,1.4074478,7.263443
					c1.3094864,0.8118744,11.642128-2.1886368,13.6454773-3.6317215s0-5.2920609,0-5.2920609l-4.562561-2.7925262
					L64.4881516,100.8082275z"/>
				<path class="st3" d="M159.6412659,120.3274536c-4.4604492,1.0162201-10.3997803,1.0760651-14.9646454,0.3068619
					c-9.1966248-1.5477295-9.3652039-5.4935608-0.3428802-7.1148605c4.5292969-0.8240204,10.4112091-0.7844543,14.8292847,0.1445084
					C166.8434296,115.2405701,167.121933,118.6354675,159.6412659,120.3274536z"/>
				<path class="st4" d="M159.6412659,120.3274536c-4.4604492,1.0162201-10.3997803,1.0760651-14.9646454,0.3068619
					c-0.0593109-1.2292862,0.2138824,4.4334106-0.5774384-11.9691238l14.536026-2.4090729
					C158.7381134,107.6954498,158.2624969,101.0430527,159.6412659,120.3274536z"/>
				<g>
					<ellipse class="st15" cx="172.6437683" cy="96.0109253" rx="2.6063719" ry="7.6140261"/>
					<path class="st4" d="M170.8432922,109.6983414c-2.3092957,2.3251953-36.4025726,1.6304626-39.4124298,0
						c-2.6843109-2.625618-1.7639465-23.1846466,0-27.3758392c1.921402-3.1861191,37.0106659-3.5747223,39.4124298,0
						C173.4825134,85.4309845,172.9907684,107.492157,170.8432922,109.6983414z"/>
					<path class="st1" d="M170.8432922,109.6983414c-1.9760437,1.9896393-27.2268677,1.7684708-36.358139,0.6405945
						c-2.5174408-3.3655624-1.5970764-24.4072418,0.135376-28.7561646c0.1578369-0.2797623,0.5503845-0.5414658,1.1323853-0.7760773
						c9.8936768-1.6737442,33.1504669-1.3715057,35.0903778,1.5158081
						C173.4825134,85.4309845,172.9907684,107.492157,170.8432922,109.6983414z"/>
					<path class="st3" d="M151.5959015,83.3709946c4.5316467-0.4898376,9.5162048,0.6702805,13.1217957,3.5206375
						c4.9029999,3.8755493,7.0289459,10.9892426,2.713623,16.1075897c-2.848526,3.3785934-7.8721466,4.2117844-12.2608337,4.6438828
						c-5.0496674,0.3078461-11.1121979-0.2576447-15.2537994-3.4970779
						C132.4703979,98.3202057,136.8236542,84.9666824,151.5959015,83.3709946z"/>
					<ellipse class="st15" cx="129.7452698" cy="95.4893417" rx="2.6063719" ry="7.6140261"/>
				</g>
				<g>
					<path class="st27" d="M191.5014954,126.458847c-10.1143646-0.0413971-45.9061737-0.1878967-56.1875-0.2299805
						c-0.2639771-0.0014496,0.8770752,0.8255768-18.2890625-15.5649414
						c-0.3757782-0.3220901,0.1102371-0.8920212,0.4882813-0.5693359l17.9418945,15.3847656l56.0478516,0.2294922
						C191.9983368,125.7111893,191.9964752,126.458847,191.5014954,126.458847z"/>
				</g>
				<g>
					<path class="st27" d="M129.592804,169.0462494l5.3505859-43.2382813
						c0.0614166-0.4984131,0.8045197-0.3970413,0.7441406,0.0917969l-5.3505859,43.2382813
						C130.2762604,169.629837,129.5319519,169.5389252,129.592804,169.0462494z"/>
				</g>
				<path class="st14" d="M171.0354919,154.7028046c-0.7789764,2.0397339-4.4958344,5.3415222-6.0482635,2.1400604
					c-1.1874237-2.4487152-0.0257263-6.5158234,2.6087189-7.5328674
					C170.1374359,148.3288116,172.377182,151.1904907,171.0354919,154.7028046z"/>
				<path class="st14" d="M156.8342133,149.5613556c0.9248047,0.1708221,1.8096161,0.6349335,2.3341675,1.4354095
					c1.893219,2.8875427-1.3426514,7.3206177-4.7089539,6.4667969
					C149.9714508,156.3240662,151.833786,148.6380463,156.8342133,149.5613556z"/>
				<path class="st14" d="M162.4936981,139.4651031c1.5981903,0.0322418,3.3147888,0.3047638,4.5806122,1.3625641
					c1.7284546,1.4450073,1.5799561,3.723938,0.0852509,5.2496338c-1.3752594,1.4040985-3.2316742,1.5150909-5.0726166,1.5581818
					c-1.1418304-0.0076141-2.3925781-0.1334534-3.4447632-0.5649719c-4.009613-1.6443939-3.0701447-5.3943634-0.1420746-6.7535248
					C159.7480774,139.7376862,161.138504,139.5842896,162.4936981,139.4651031z"/>
				<polygon class="st11" points="246.8187256,104.2611237 209.9236908,108.2086868 198.0359039,73.2267456 238.5400848,68.56633 
									"/>
				<polygon class="st3" points="252.6881866,58.7311401 238.5400848,68.56633 198.0359039,73.2267456 216.0638885,62.41259 				"/>
				<polygon class="st10" points="259.9877625,95.7390671 246.8187256,104.2611237 238.5400848,68.56633 252.6881866,58.7311401 
									"/>
				<polygon class="st13" points="237.5368347,67.1959991 200.8357697,70.9677734 195.0926361,38.5074654 230.4673004,32.2951279 
									"/>
				<polygon class="st12" points="248.6892395,59.3235741 237.5368347,67.1959991 230.4673004,32.2951279 240.329422,25.5278835 
									"/>
				<polygon class="st14" points="240.329422,25.5278835 230.4673004,32.2951279 195.0926361,38.5074654 207.2827148,30.0664749 
									"/>
				<polygon class="st11" points="53.1812782,100.7332458 90.0763092,104.6808014 101.9640961,69.6988602 61.459919,65.0384521 				
					"/>
				<polygon class="st3" points="47.3118172,55.2032547 61.459919,65.0384521 101.9640961,69.6988602 83.9361191,58.8847084 				"/>
				<polygon class="st10" points="40.012249,92.2111816 53.1812782,100.7332458 61.459919,65.0384521 47.3118172,55.2032547 				"/>
				<polygon class="st22" points="62.4631691,63.6681213 99.164238,67.439888 104.9073639,34.9795837 69.5326996,28.7672443 				"/>
				<polygon class="st1" points="51.3107605,55.7956886 62.4631691,63.6681213 69.5326996,28.7672443 59.670578,22 				"/>
				<polygon class="st25" points="59.670578,22 69.5326996,28.7672443 104.9073639,34.9795837 92.7172928,26.5385914 				"/>
				<ellipse class="st20" cx="146.5201111" cy="94.5934525" rx="2.4209266" ry="4.3962865"/>
				<ellipse class="st20" cx="160.7330475" cy="94.5934525" rx="2.4209266" ry="4.3962865"/>
				<circle class="st25" cx="151.5733948" cy="65.0384521" r="5.3949761"/>
				<path class="st19" d="M230.957901,88.1482849c-0.469101-1.7955704-1.4301147-2.1158676-2.5129395-3.3972778
					c-1.5383759-1.8180389-2.2557526-3.8211212-4.4934235-5.0302811c-2.572052-1.3889999-5.4150543-0.9535522-7.0604553,1.5880585
					c-0.9518585,1.4662399-1.2451782,3.1309509-1.4933319,4.8317947c-0.9113312,0.6723175-1.4752655,1.3444138-1.6647186,2.4993896
					c-0.6190186,3.7906265,3.9382477,9.8756485,10.6426697,9.1086807
					C229.9888763,96.2562408,231.910614,91.8101883,230.957901,88.1482849z M216.922699,86.0187607
					c0.1939545-1.0736847,0.3924408-2.1925278,0.8842316-3.1761093c1.8347778-3.6962967,6.8540344-2.7438583,8.8740845,2.2105865
					C224.0903931,85.4013138,219.4232941,85.9067383,216.922699,86.0187607z"/>
				<path class="st11" d="M223.7900391,51.3922234c-0.469101-1.7955666-1.4301147-2.1158638-2.5129395-3.3972778
					c-1.5383759-1.8180389-2.2557373-3.8211136-4.4934235-5.0302773c-2.572052-1.3890038-5.4150543-0.9535561-7.0604553,1.5880585
					c-0.9518585,1.4662361-1.2451782,3.1309509-1.4933319,4.8317947c-0.9113312,0.6723175-1.4752655,1.3444176-1.6647186,2.4993858
					c-0.5626221,3.445282,3.0957184,8.4289818,8.2380066,9.1401863c0.789505,0.1127853,1.6151428,0.058815,2.4046631-0.0315018
					c2.3414307-0.6225319,4.4256897-1.7594376,5.7115173-3.9160576
					C223.9163666,55.4074135,224.2818298,53.2825165,223.7900391,51.3922234z M209.754837,49.2627029
					c0.1939545-1.0736847,0.3924408-2.1925278,0.8842316-3.1761131c1.8347778-3.6962929,6.8540344-2.7438507,8.8740845,2.2105904
					C216.9225311,48.645256,212.2554321,49.1506805,209.754837,49.2627029z"/>
				<path class="st19" d="M78.0289688,95.4114075c5.1287079-0.7093277,8.8010559-5.6922379,8.2379913-9.1401901
					c-0.1894455-1.1549683-0.7533798-1.8270645-1.664711-2.4993896c-0.2481537-1.7008362-0.5414658-3.3655548-1.4933319-4.8317947
					c-1.6470718-2.5441895-4.4915695-2.9753494-7.0604477-1.5880508c-2.2376862,1.2091599-2.9550552,3.2122345-4.4934311,5.0302734
					c-1.0828247,1.2814178-2.0438309,1.6017151-2.5129395,3.3972778
					C67.6144562,91.2669373,72.9293442,96.1399231,78.0289688,95.4114075z M73.3189926,82.684494
					c2.0227432-4.9610596,7.0413208-5.9028091,8.8740768-2.2105942c0.4917908,0.9835892,0.6902695,2.1024323,0.8842316,3.1761093
					C80.5516205,83.5368652,75.8795853,83.0285339,73.3189926,82.684494z"/>
				<path class="st11" d="M81.7368851,58.6238441c1.0935211,0.1250954,1.8831711,0.1474991,2.8874207-0.0541916
					c4.9638824-0.9631424,8.2868958-5.7988319,7.7552338-9.054493c-0.1894455-1.1549721-0.7533798-1.8270683-1.664711-2.4993858
					c-0.2481537-1.7008438-0.5414734-3.3655586-1.4933319-4.8317947c-1.6470718-2.5441971-4.4915695-2.9753532-7.0604477-1.5880585
					c-2.2376862,1.2091599-2.9550552,3.2122383-4.4934387,5.0302773c-1.0828247,1.281414-2.0438309,1.6017113-2.5129318,3.3972778
					C74.1929703,52.7199631,76.1547165,57.139679,81.7368851,58.6238441z M79.431572,45.9284325
					c2.0227432-4.9610596,7.0413208-5.9028091,8.8740768-2.2105904c0.4917908,0.9835854,0.6902695,2.1024284,0.8842316,3.1761093
					C86.6641922,46.7808075,81.9921646,46.2724724,79.431572,45.9284325z"/>
				<ellipse class="st15" cx="153.7598572" cy="102.1790924" rx="5.8814135" ry="1.4458529"/>
			</g>
		</g>
	</g>
</g>
</svg>
