<?xml version="1.0" encoding="utf-8"?>
<!-- Generator: Adobe Illustrator 22.0.1, SVG Export Plug-In . SVG Version: 6.00 Build 0)  -->
<svg version="1.1" id="Layer_1" xmlns="http://www.w3.org/2000/svg" xmlns:xlink="http://www.w3.org/1999/xlink" x="0px" y="0px"
	 viewBox="0 0 300 300" style="enable-background:new 0 0 300 300;" xml:space="preserve">
<style type="text/css">
	.st0{fill:#EDC1A4;}
	.st1{fill:#E2E0E0;}
	.st2{fill:#D39E81;}
	.st3{fill:#502E26;}
	.st4{fill:#CCCACA;}
	.st5{fill:#426800;}
	.st6{fill:#538705;}
	.st7{fill:#D47E44;}
	.st8{fill:#73341D;}
	.st9{fill:#BC672E;}
	.st10{fill:#96311D;}
	.st11{fill:#B83E21;}
	.st12{fill:#DE8D82;}
	.st13{fill:#EFBAB4;}
	.st14{fill:#FDD5D0;}
	.st15{fill:#6883CE;}
	.st16{fill:#3D4885;}
	.st17{fill:#3859AE;}
	.st18{fill:#864424;}
	.st19{fill:#FEFEFE;}
	.st20{fill:#FFFFFF;}
	.st21{fill:#A55925;}
	.st22{fill:#F4F2F2;}
	.st23{fill:#3C3E68;}
	.st24{fill:#E8997C;}
	.st25{fill:#F5C46B;}
	.st26{fill:#F7EBDA;}
	.st27{fill:#0E0C0D;}
	.st28{fill:#657C3A;}
	.st29{fill:#576C37;}
	.st30{fill:#7C995D;}
	.st31{fill:#36518C;}
	.st32{fill:#96B7E3;}
	.st33{fill:#A3B3DF;}
	.st34{fill:url(#SVGID_1_);}
	.st35{fill:url(#SVGID_2_);}
	.st36{fill:url(#SVGID_3_);}
	.st37{fill:url(#SVGID_4_);}
	.st38{fill:url(#SVGID_5_);}
	.st39{fill:#266AB7;}
	.st40{fill:#060E0D;}
	.st41{fill:#E0D4C6;}
	.st42{fill:#787E42;}
	.st43{fill:#D3D1D1;}
	.st44{fill:url(#SVGID_6_);}
	.st45{fill:url(#SVGID_7_);}
	.st46{fill:url(#SVGID_8_);}
	.st47{fill:#020508;}
	.st48{fill:#BAB6B6;}
	.st49{fill:#0F0B07;}
	.st50{fill:#2F3A68;}
	.st51{fill:#203257;}
	.st52{opacity:0.5;fill:#FFFFFF;}
	.st53{opacity:0.2;fill:#0E0C0D;}
	.st54{fill:#DD9F9B;}
	.st55{fill:#3E4D9B;}
	.st56{fill:url(#SVGID_9_);}
	.st57{fill:#5F6194;}
	.st58{fill:url(#SVGID_10_);}
	.st59{fill:url(#SVGID_11_);}
	.st60{fill:url(#SVGID_12_);}
	.st61{fill:url(#SVGID_13_);}
	.st62{fill:#070102;}
	.st63{fill:#100805;}
	.st64{fill:#FDA465;}
	.st65{fill:#2A50A1;}
	.st66{fill:#B76C39;}
	.st67{fill:#130602;}
	.st68{fill:url(#SVGID_14_);}
	.st69{fill:url(#SVGID_15_);}
	.st70{fill:url(#SVGID_16_);}
	.st71{fill:url(#SVGID_17_);}
	.st72{fill:url(#SVGID_18_);}
	.st73{fill:url(#SVGID_19_);}
	.st74{fill:#B4BDED;}
	.st75{fill:#100D08;}
	.st76{fill:#F6C85F;}
	.st77{fill:#FECF00;}
	.st78{fill:#2D59E2;}
	.st79{fill:#121F3A;}
	.st80{fill:#BBD0F5;}
	.st81{fill:#020202;}
	.st82{fill:#E2CFB7;}
	.st83{fill:#080805;}
	.st84{fill:#A87D7C;}
	.st85{fill:#182052;}
	.st86{fill:#EAEAEA;}
	.st87{fill:#DDDDDD;}
	.st88{fill:#3D4574;}
	.st89{fill:#ABC5F0;}
	.st90{fill:url(#SVGID_20_);}
	.st91{fill:#4159A8;}
	.st92{fill:#E0D0BD;}
	.st93{fill:#3D53AA;}
	.st94{fill:#0A0000;}
	.st95{fill:#BF6D36;}
	.st96{fill:#385DAE;}
	.st97{fill:#E0DCDC;}
	.st98{fill:#857E78;}
	.st99{fill:#0E213C;}
	.st100{fill:url(#SVGID_21_);}
	.st101{fill:#55608E;}
	.st102{opacity:0.3;fill:#F4F2F2;}
	.st103{opacity:0.3;}
	.st104{fill:#213987;}
	.st105{enable-background:new    ;}
</style>
<g id="Robot_Chef_1_">
	<g id="Robot_Chef">
		<g>
			<g>
				<path class="st1" d="M132.7545776,86.4120407l0.9281006-6.941124c-3.1303711-0.4586868-6.0282288-2.4268188-7.3130112-5.3179932
					c-3.2918396-7.407692,3.9039841-15.1834831,10.1648026-12.1050072c1.3916016-4.0822334,5.3618469-6.797184,9.6718597-6.6392441
					c4.3100128,0.1579437,8.3297272,3.3824997,9.418808,7.5556374c1.3752136-0.8160782,3.2184296-0.470108,4.6230316,0.2942963
					c3.1172638,1.6964722,4.9151306,5.5227051,4.2313538,9.0052109s-3.7949219,6.3448715-7.3222351,6.736702
					c0.1189575,3.0955353,0.2134552,6.2131577,0.9221649,9.2288132"/>
				<polygon class="st1" points="120.7788467,169.1673889 110.6841965,203.0213776 174.8918457,202.067276 170.6166229,169.1502991 
									"/>
				<polygon class="st13" points="45.6232491,191.8529816 254.7201691,191.9501801 278,237.1365662 22,237.1365662 				"/>
				<path class="st3" d="M182.1923523,159.7997437c0,0,1.2308807,1.374649,0,2.4360352
					c-1.2308807,1.0613708,8.9008179,12.9652405,8.9008179,12.9652405l4.068924-2.4676971
					c5.9380951-7.4281769,6.7256775-15.6514282,2.9819641-24.5748138l-14.0868683,6.2207489L182.1923523,159.7997437z"/>
				<path class="st3" d="M120.7788467,160.5965424v8.5708466c0.0008621,2.4844208,49.8386307,2.4673157,49.8377762-0.0170898
					l-0.4498749-8.3117828L120.7788467,160.5965424z"/>
				<path class="st1" d="M198.9381104,146.6273956c-4.9141846-12.137207-16.5161133-27.1503906-16.5161133-27.1503906
					l-14.5318604,11.6738281c2.5712891,13.6650391,14.3022461,28.6489258,14.3022461,28.6489258
					c5.3725586-6.7651367,12.0957031-9.5053711,15.4476318-10.5112305
					C198.7718506,148.949173,199.3814697,147.7230988,198.9381104,146.6273956z"/>
				<circle class="st33" cx="196.6620026" cy="160.5325012" r="8.7036238"/>
				<path class="st3" d="M164.6508942,111.1513672c0,0,10.1553345-0.7889328,17.7710724,8.3255081
					c0,0,1.3365631,11.6884537-15.2307739,12.6474533C150.6238708,133.0833435,164.6508942,111.1513672,164.6508942,111.1513672z"/>
				<path class="st15" d="M173.0019379,110.3754272c1.4128723-0.145813,2.7163696,0.6349182,3.7460327,1.5234451
					c2.7356567,2.3606873,7.2456207,9.0088272,2.9330444,11.9366837c-1.2687225,0.861351-2.9332581,0.9093552-4.3004913,0.2530823
					c-2.6072235-1.2514801-4.5266113-4.740654-5.4802704-7.3507385
					C168.9043732,114.0122528,170.0006409,110.6847,173.0019379,110.3754272z"/>
				<path class="st3" d="M107.2409363,160.3459015c0,0-1.3257446,2.0822449-0.0948639,3.1436157
					c1.2308807,1.0613861-8.8059464,12.2576599-8.8059464,12.2576599l-5.4952545-3.0262604
					c-5.9380951-7.4281769-5.2993469-15.092865-1.5556335-24.0162354l14.0868607,6.2207336L107.2409363,160.3459015z"/>
				<path class="st1" d="M107.0113449,120.0229034c0,0-11.6020508,15.0136719-16.5161133,27.1508789
					c-0.4434814,1.0952148,0.1662598,2.3212891,1.2980957,2.6611328
					c3.3518066,1.0053711,10.0749512,3.7456055,15.4476318,10.5112305c0,0,11.730835-14.984375,14.302124-28.6489258
					L107.0113449,120.0229034z"/>
				<path class="st3" d="M124.7823944,111.6975327c0,0-10.1553268-0.7889328-17.7710648,8.3255081
					c0,0-1.3365707,11.688446,15.2307663,12.6474609C138.809433,133.6295013,124.7823944,111.6975327,124.7823944,111.6975327z"/>
				<path class="st15" d="M116.4313507,110.9215927c-1.4128647-0.145813-2.7163696,0.6349182-3.7460251,1.5234451
					c-2.7356567,2.3606873-7.2456131,9.0088272-2.9330444,11.9366837c1.2687225,0.861351,2.9332581,0.9093552,4.3004913,0.2530823
					c2.6072235-1.2514801,4.5266113-4.740654,5.4802704-7.3507385
					C120.528923,114.5584183,119.4326477,111.2308655,116.4313507,110.9215927z"/>
				<path class="st1" d="M124.7637939,111.7059937c0,0,18.9549561-3.5192032,39.8871002-0.5546265
					c3.8345184,14.8943329,5.1739655,31.8738251,5.5158539,49.687149
					c-0.0150909,3.0789337-49.4029999,2.8369446-49.3879013-0.2419739
					C120.5435181,143.5270233,121.6759338,127.1333008,124.7637939,111.7059937z"/>
				<path class="st15" d="M157.7479095,132.4959259c-0.192337-1.6470184-1.550293-2.9158783-3.2075195-2.9648438
					c-5.8427429-0.1737366-12.0231476-0.1219025-18.9798126,0.2470245
					c-1.6529999,0.0876007-2.9974976,1.3657074-3.1490173,3.0143585
					c-0.4654846,5.0574799-0.7840729,10.2857971-0.9527435,15.7159882
					c-0.0565796,1.8227692,1.3677521,3.3522491,3.1894226,3.4322357c6.8981323,0.3029785,14.8028412,0.3289948,21.2295685,0.128952
					c1.8820648-0.0582123,3.3288574-1.6655121,3.2230225-3.5453949
					C158.7776337,142.7762909,158.32724,137.4576416,157.7479095,132.4959259z"/>
				<circle class="st33" cx="92.0793991" cy="160.3459015" r="8.7036238"/>
				<path class="st15" d="M196.6621094,165.4450836c-2.7089844,0-4.9130859-2.2038574-4.9130859-4.9125977
					s2.2041016-4.9125977,4.9130859-4.9125977s4.9121094,2.2038574,4.9121094,4.9125977
					S199.3710938,165.4450836,196.6621094,165.4450836z"/>
				<path class="st15" d="M92.0791016,165.2585602c-2.7089844,0-4.9121094-2.2038574-4.9121094-4.9125977
					s2.203125-4.9125977,4.9121094-4.9125977s4.9130859,2.2038574,4.9130859,4.9125977
					S94.7880859,165.2585602,92.0791016,165.2585602z"/>
				<g>
					<path class="st3" d="M131.8647919,193.6930237l-12.6335602-5.1706543
						c-0.3788223-0.1550446-0.8116074,0.0263672-0.9666443,0.4051819l-1.0716629,2.6184235
						c-0.1550446,0.3788147,0.0263672,0.8115997,0.4051895,0.9666443l15.5715332,6.3730927
						c0.6302643,0.2579498,1.245575-0.3992767,0.9466705-1.0112
						C132.0868073,193.7195129,132.220993,193.8387909,131.8647919,193.6930237z"/>
					<path class="st3" d="M184.0667267,224.5435028H107.328743c-3.7559586,0-6.2992783-3.8261566-4.8453064-7.2892914
						l6.8243256-16.2544708c0.8192368-1.9512787,2.7290192-3.2207489,4.8453064-3.2207489h63.0893326
						c2.1162872,0,4.0260773,1.2694702,4.8453064,3.2207489l6.8243256,16.2544708
						C190.3660126,220.7173462,187.8226929,224.5435028,184.0667267,224.5435028z"/>
					<path class="st6" d="M138.5159912,205.1437073c0.7676697-0.2781525,1.680481,0.1583099,2.405899-0.2506104
						c0.774765-0.4367371,0.816391-1.5776367,3.1595917-0.9068146c0.7358246,0.2106476,1.5364075,0.4582825,2.2434082,0.1650848
						c0.4947968-0.2051849,0.8709869-0.6537781,1.3865814-0.798996c1.247345-0.3513031,2.4503326,1.2836609,4.9610443,0.3987427
						c0.4790039-0.1688232,1.315033-0.5904846,1.826416-0.0745697c0.3181915,0.3210144,0.2584534,0.8831635-0.0167389,1.2417145
						c-0.5638123,0.7346039-1.647583,0.7355957-2.3339691,1.3241119c-0.4922943,0.4221039-0.7261963,1.0999298-1.2553101,1.4748535
						c-0.9317474,0.660202-2.1613159,0.1344604-3.1965332,0.1439362c-1.506958,0.0137939-2.9338684,1.0463257-4.4164124,0.7758484
						c-1.3064423-0.2383575-2.3020325-1.4432831-3.6222687-1.5866241c-0.3690491-0.0400696-0.7494659,0.0061646-1.1074066-0.092392
						C137.6017761,206.6967621,137.625885,205.4662323,138.5159912,205.1437073z"/>
					<path class="st6" d="M150.5633545,201.2197266c0.6790314-0.246048,1.4145203,0.0982666,2.0896149-0.1014557
						c0.559845-0.1656036,0.6885986-0.5345001,0.9829865-1.0010681c0.7601318-1.2046967,1.9612122-2.0968628,3.4401398-2.0932465
						c0.70401,0.0017242,1.4633789,0.1830292,2.0753174-0.1651001c0.5808105-0.3304138,0.8366699-1.0393219,1.3557587-1.4601135
						c0.6058197-0.4911346,1.4904785-0.5087433,2.2240143-0.243866s1.3512421,0.7699432,1.9531708,1.2658386
						c0.4965973,0.4091187,0.9994202,0.8248444,1.3711243,1.3500366c0.8746338,1.2357788,0.7919769,2.3850403-0.654129,2.9434509
						c-0.4216309,0.1628265-0.8626404,0.3099976-1.2057648,0.604187c-0.8226624,0.7053528-0.8334808,1.9622345-2.826004,1.7901306
						c-0.5433807-0.0469208-1.0804596-0.1763458-1.6258392-0.1713409c-1.506958,0.0137939-2.9338684,1.0463257-4.4164276,0.7758331
						c-1.306427-0.2383423-2.3020325-1.4432678-3.6222687-1.5866089c-0.3690338-0.0400696-0.7494507,0.0061646-1.1073914-0.092392
						C149.6491241,202.7727814,149.6732483,201.5422363,150.5633545,201.2197266z"/>
					<path class="st1" d="M155.4682159,203.3533325c-0.1002655-0.0089722-4.5192566,4.9032288-25.8351593-3.8209076
						c0.0442505-0.1018066,2.5368195-5.8345184,2.4925537-5.7327118L155.4682159,203.3533325z"/>
					<path class="st4" d="M155.4682159,203.3533325c-0.1002655-0.0089722-4.5192566,4.9032288-25.8351593-3.8209076
						l0.5977173-1.3755188c6.160965,2.5076141,17.4768219,6.4889526,23.8356934,4.6227264L155.4682159,203.3533325z"/>
					<path class="st52" d="M138.8057709,202.7965393c-0.7628174-0.2225647-1.555603-0.4702454-2.3843384-0.7418365
						l-2.609024-7.564621l2.1832733,0.8935699L138.8057709,202.7965393z"/>
					<path class="st52" d="M144.8404388,204.2296295c-0.7327728-0.1262512-1.5109558-0.2801056-2.339386-0.4674683
						l-2.2954254-6.6554718l2.2897644,0.937149L144.8404388,204.2296295z"/>
				</g>
				<path class="st15" d="M137.4542847,200.4298248c-0.4198914-0.8762665-0.0877228-3.509552-2.0788879-7.594574
					c0.5181427,2.2402191,0.7994385,4.5353088,0.8384247,6.834671c0.01297,0.765213-0.0385132,1.1771698-0.4649506,1.8181305
					c-0.230835,0.3564758-0.6013184,0.7020264-1.0182495,0.6457367c-0.9343109-0.1394958-0.9824829-1.5002441-1.9127808-9.9510651
					c-0.0225372,0.7862396-0.0444794,1.5648956-0.0754089,2.3584747c-0.5596619,3.7601624-0.5734406,3.9335785-0.6762695,4.3484497
					c-0.2778015,1.3241425-1.4962006,1.8805695-2.2323151,0.901947c-0.0513-0.3210449-0.3815765-6.6305237-0.3990021-6.9609222
					c-0.1384583,0.9722595-0.2849121,1.9442596-0.4235687,2.9164886c-0.1336365,0.9105072-0.6647186,3.0069427-2.0513306,2.079071
					c-0.4077911-0.2739105-0.544838-0.8154449-0.514946-1.2966461c0.037674-0.4809723,0.2221832-0.9428253,0.3296127-1.4179535
					c0.4051895-1.8347473-0.4115448-3.824585-1.8703003-4.9145203c-0.6705856-0.5076141-1.5961685-0.5693817-1.6655807-0.653656
					c-1.1165543-0.3915558-2.3936844-2.7157593-2.63974-3.8587341c-0.1010056-0.5323029,0.0282364-0.5767975,0.2914505-0.6329346
					c0.7718658-0.1913757,0.6076431-0.371048,1.4659424-1.1803284c1.5703354-1.5158539,3.7758789-2.474762,5.938324-2.4848328
					c0.4144897,0.9406586,1.2518158,1.6691437,2.1198578,2.2263794c0.6980591,0.4524994,1.3619385,1.0433044,2.0235748,1.5630646
					c3.6666718,2.8554993,6.4422913,5.7354431,7.1639557,10.3815765c0.2115784,1.3621216,0.0637054,2.5781097-0.1365814,3.9264526
					c-0.0516205,0.3474579-0.1058197,0.7029266-0.2726288,1.0120544
					C138.7513885,201.3143921,137.8413849,201.2376709,137.4542847,200.4298248z"/>
				<path class="st8" d="M120.5727234,185.4618378c-0.0048676,0.0621033,0.0128403,0.1339874,0.0294571,0.2210236
					c0.2460632,1.1429749,1.5232849,3.4671936,2.6397476,3.8587341c1.859375-2.6165314,4.5539398-4.6375885,7.5866699-5.6955414
					c-0.877121-0.4589081-1.6722412-1.0672302-2.202179-1.8735046c-1.7183456,0.3240356-4.7566299,1.0146332-6.2667465,1.897049
					C121.5579147,184.326355,120.9862671,184.8613129,120.5727234,185.4618378z"/>
				<path class="st1" d="M107.1460724,163.4895172c0,0-9.7348938,5.0649261-14.3012009,9.2313995
					c0,0,6.6500168,12.5672455,30.862709,17.2975922c0,0,1.7068253-5.72052,6.2799377-7.2623596
					C129.9875183,182.7561493,120.36586,168.5013428,107.1460724,163.4895172z"/>
				<path class="st19" d="M253.8470459,200.792923h-54.9152832c-0.2385254,0.7866211-0.0758057,10.5161133,0.0605469,11.6904297
					c0.0900879,0.7763672,0.25,1.5268555,0.5671387,2.2446289c1.467041,3.3208008,5.2668457,5.2822266,8.4967041,6.4467773
					c9.7565918,3.5185547,27.3221436,4.3056641,36.7316895-0.1245117c3.5456543-1.6699219,7.145874-4.644043,8.4918213-8.4389648
					C253.9559326,210.7050323,254.2227783,202.6674347,253.8470459,200.792923z"/>
				<path class="st8" d="M253.8606415,201.0922699c0,5.3449097-12.3000336,9.6782074-27.4709167,9.6782074
					c-15.1708984,0-27.4710236-4.3332977-27.4710236-9.6782074c0-4.9866791,10.681839-9.0947113,24.4211578-9.6314697v-1.0423889
					c0-0.8015594,0.6535797-1.4473419,1.4549255-1.4473419h4.8001709c0.8013611,0,1.4549408,0.6457825,1.4549408,1.4473419
					v1.1278534C244.003418,192.3242645,253.8606415,196.3000793,253.8606415,201.0922699z"/>
				<path class="st13" d="M134.4804535,208.6844025c0,2.84758-2.7540283,5.1580048-6.1461639,5.1580048
					c-5.9874802,0-8.3765793-6.4557495-3.5865479-9.3435211
					C128.7390289,202.0733795,134.4804535,204.4442139,134.4804535,208.6844025z"/>
				<path class="st22" d="M129.3768616,208.8321686c-0.1556549,0.3814087-0.661377,0.4592743-1.0737305,0.4433289
					c-1.4936905-0.0463562-2.9718933-0.4976501-4.2400284-1.2991943c-0.1399841-0.0854797-0.3033371-0.1789246-0.4512024-0.1242218
					c-0.225647,0.0778809-0.233345,0.3810272-0.1944962,0.6146545c0.295639,1.78125,1.1592026,3.4618378,2.4351196,4.7298737
					c0.0933609,0.0934601,0.1945038,0.2024841,0.2878571,0.3035278c-4.5563354-1.4569244-5.3513336-6.6146698-1.3926392-9.0012512
					c-0.8194122,1.5881805-0.9968033,1.8326111-0.9335556,2.1706238c0.0466309,0.2720032,0.2800674,0.4664917,0.5057144,0.6302338
					C125.7746506,208.3576965,127.5796509,208.9024506,129.3768616,208.8321686z"/>
				<path class="st13" d="M146.0603027,213.8444214c0,2.1972351-2.125061,3.9799957-4.7424927,3.9799957
					c-4.6200256,0-6.4634857-4.9813538-2.7674255-7.20961C141.630127,208.7432556,146.0603027,210.5726318,146.0603027,213.8444214z
					"/>
				<path class="st22" d="M142.1222839,213.9584503c-0.1201019,0.2942963-0.5103149,0.3543854-0.8285065,0.3420715
					c-2.3127136-0.0717621-3.2991333-1.2169647-3.6198273-1.0983276c-0.174118,0.0600891-0.1800537,0.2939911-0.1500854,0.4742737
					c0.2281342,1.3744354,0.8944702,2.6712036,1.8789825,3.6496429c0.0720367,0.072113,0.1500854,0.1562347,0.2221222,0.2342072
					c-3.5157471-1.124176-4.1291809-5.1039886-1.074585-6.9455109c-0.7745361,1.5011902-0.9985352,1.6761932-0.3301239,2.1611786
					C139.3427582,213.5923309,140.7355347,214.0126801,142.1222839,213.9584503z"/>
				<path class="st15" d="M175.0762329,191.6775513c-0.3345795,1.1202698-1.7894287,3.3376312-2.9330597,3.6407776
					c-0.007782,0.0079803-0.0155792,0.0079803-0.0233612,0.0079803c-1.143631,0.2723694-2.3106232,0.1709442-3.3376312,0.7468414
					c-0.5211945,1.4237823-1.2369843,2.7696991-2.1161194,4.0065918c-0.1944885,0.2647705-0.3967743,0.5367737-0.6768494,0.7156982
					c-0.6268921,0.394455-1.2863007,0.1284943-1.4236908-0.6378326c-0.0675812-0.4389648,0.0129089-0.6409149,0.4512024-3.5708618
					c-0.9647064,1.081131-1.5948334,2.4582062-1.7815399,3.8899689c-0.0545197,0.4121704-0.0778809,0.8323212-0.2412262,1.2057343
					c-0.4031219,0.8983917-1.3773499,0.9094543-1.7582703,0.0467224c-0.1399841-0.3422699-0.1477814-0.715683-0.1399841-1.0815125
					c0.0310516-1.5947418,0.3033295-3.25177,0.8168335-4.7614136c-1.9556885,2.2198029-1.8222809,4.3504944-2.1239166,5.0649414
					c-0.4482117,1.0951691-1.6312714,0.9012146-1.9761353-0.1010437c-0.2183533-0.665741-0.0943604-1.055954,0.6768494-6.0062866
					c-0.700119,1.0423889-1.2137146,2.2173615-1.5170441,3.4386749c-0.1789246,0.7236633,0,2.6686554-0.9491272,2.8707428
					c-1.7457886,0.3651276-2.3963013-7.6231079,3.7188263-10.4170685c2.55336-1.1620636,6.4971313-1.155426,7.9977112-3.9446716
					c2.3858032,0.1980896,4.8302155,1.5721436,6.3406677,3.7110596
					C174.6520233,191.3338623,175.3406982,190.7099915,175.0762329,191.6775513z"/>
				<path class="st8" d="M175.1228638,191.4595032c0,0.0623016-0.0232697,0.1325836-0.0466309,0.2180481
					c-0.3345795,1.1202698-1.7894287,3.3376312-2.9330597,3.6407776c-1.6493378-2.7537537-4.1778259-4.9790955-7.1186676-6.2706757
					c0.9102936-0.3890076,1.7504883-0.9333649,2.3417664-1.6957855c1.1203613,0.3035126,2.2250519,0.6533813,3.31427,1.0503693
					C172.4436798,189.0416718,174.184494,189.8389893,175.1228638,191.4595032z"/>
				<path class="st1" d="M182.1923218,162.2357178c-0.2847137,0.8980408,8.4341888,9.2360229,14.4839783,10.4850769
					c0,0-10.309845,17.00383-22.3114929,20.385788c0,0-3.4345703-4.8827667-8.2606049-4.8930664
					C166.1042023,188.2135162,171.2474213,171.1849365,182.1923218,162.2357178z"/>
				<path class="st1" d="M41.2973785,207.8291016c0,0,6.0006828,15.1396332,22.3058395,15.3777161
					c14.1665344,0.2068481,24.1002579-10.3871765,24.2385254-15.3777161H41.2973785z"/>
				<ellipse class="st20" cx="64.5695648" cy="207.8291016" rx="23.2721806" ry="9.4998226"/>
				<path class="st8" d="M84.6962051,207.7336731c0,3.4778137-9.0548248,6.2971344-20.2245178,6.2971344
					s-20.224514-2.8193207-20.224514-6.2971344s9.0548248-6.7527771,20.224514-6.7527771
					S84.6962051,204.2558594,84.6962051,207.7336731z"/>
				<path class="st11" d="M60.5432205,207.0917664c-2.8128967,1.7221069-4.1859398-6.9009857-0.2052956-4.9876862
					c0.4219398,0.2028198,0.7337799,0.5909882,1.1585312,0.7878571c0.9805794,0.4544983,2.1576385-0.2469635,3.2015495,0.0329437
					c0.9303513,0.2494507,1.5192337,1.3695984,1.1972961,2.2774048c-0.3219376,0.9078217-1.4849701,1.4066772-2.3646202,1.0142517
					c-0.4584808-0.2045441-0.8714714-0.6147003-1.3705864-0.5606232
					C61.4262695,205.7353973,61.1727333,206.7063599,60.5432205,207.0917664z"/>
				<path class="st11" d="M74.1952744,208.7733307c-2.8128967,1.7221069-4.185936-6.9009857-0.2052917-4.9876862
					c0.421936,0.2028198,0.7337799,0.5909882,1.1585312,0.7878571c0.9805756,0.4544983,2.1576385-0.2469635,3.2015457,0.0329437
					c0.9303513,0.2494507,1.5192413,1.3695984,1.1972961,2.2774048c-0.3219376,0.9078217-1.4849701,1.4066772-2.3646164,1.0142517
					c-0.4584808-0.2045288-0.8714752-0.6147003-1.3705902-0.5606232
					C75.0783234,207.4169617,74.824791,208.3879242,74.1952744,208.7733307z"/>
				<path class="st6" d="M67.3342056,207.8678436c0.3286819,0.3536224,0.465416,0.8866577,0.8791733,1.1354523
					c0.685318,0.4120636,1.5986786-0.2312012,2.3518143,0.0376129c0.729538,0.260376,0.9018555,1.3281708,0.4421463,1.9516144
					c-0.4597015,0.6234436-1.3165512,0.8336945-2.0874329,0.757782c-0.4542465-0.0447388-0.9266205-0.1700897-1.3553314-0.0134277
					c-0.3439178,0.1256714-0.6000214,0.4136658-0.9119492,0.605423c-1.6616287,1.0215149-3.1541939-0.9589844-2.9010201-2.5301514
					C63.9719048,208.4449768,66.0379028,206.4731598,67.3342056,207.8678436z"/>
				<path class="st6" d="M52.3422775,205.9578094c0.3286858,0.3536224,0.4654198,0.8866577,0.8791733,1.135437
					c0.6853218,0.4120789,1.5986748-0.2311859,2.3518143,0.0376129c0.7295341,0.2603912,0.9018593,1.328186,0.4421501,1.9516296
					c-0.4597054,0.6234436-1.316555,0.8336945-2.0874367,0.757782c-0.4542427-0.0447388-0.9266167-0.1700897-1.3553352-0.0134277
					c-0.3439102,0.1256714-0.6000175,0.4136658-0.9119415,0.605423c-1.6616287,1.0215149-3.1541977-0.9589844-2.9010239-2.5301514
					C48.9799767,206.5349426,51.0459785,204.5631256,52.3422775,205.9578094z"/>
				<path class="st7" d="M165.7480927,212.8623199c-3.9444885,1.5715637-8.1689453-0.2803497-10.9542236-3.4698181
					c5.2073364,0.2677307,11.5475311-1.663147,16.3145142-5.7107391
					C171.3291931,207.8716888,169.6394653,211.3153534,165.7480927,212.8623199z"/>
				<path class="st11" d="M171.1161652,204.1254578c0.0389404,4.0297699-1.5715637,7.2276001-5.3680725,8.7368622
					c-3.9444885,1.5715637-8.1689453-0.2803497-10.9542236-3.4698181c0.1477661,0.0075989,0.295639,0.0075989,0.443512,0.0075989
					C160.9086456,212.9726105,168.5796509,210.6742859,171.1161652,204.1254578z"/>
				<path class="st7" d="M172.8664093,218.147995c-3.9444885,1.5715637-8.1689453-0.2803497-10.9542236-3.4698181
					c5.2073364,0.2677307,11.5475311-1.663147,16.3145142-5.7107391
					C178.4475098,213.1573639,176.757782,216.6010284,172.8664093,218.147995z"/>
				<path class="st11" d="M178.2344818,209.4111328c0.0389404,4.0297699-1.5715485,7.2276001-5.3680725,8.7368622
					c-3.9444885,1.5715637-8.1689453-0.2803497-10.9542236-3.4698181c0.1477814,0.0075989,0.295639,0.0075989,0.443512,0.0075989
					C168.0269775,218.2582855,175.6979675,215.9599609,178.2344818,209.4111328z"/>
				<path class="st3" d="M152.2053528,104.2822418c0.0183411,3.5575485-0.6418915,5.7544785,1.3483887,5.9737778
					c0.6164551,0.0679245,1.2582397-0.0409012,1.8479919,0.1510086c0.6669922,0.2170334,1.1852875,0.8355103,1.2823486,1.5301743
					c0.0943146,0.6751709-0.2329865,1.6194153-0.9342346,1.7728882c-0.5488281,0.1201172-19.6592255,0.0326004-20.7937469,0.0024109
					c-0.8796082-0.023407-1.8956451,0.2456207-2.3036957-0.7839355c-0.1838684-0.4639282-0.1239319-1.00457,0.1042023-1.4484024
					c0.9894562-1.9249649,3.6915436-0.5941849,5.2890472-1.4879379c1.0493164-0.5867386,0.1125183-4.0618515,0.5900726-5.5688553
					C140.9467621,104.867012,149.851944,104.7009506,152.2053528,104.2822418z"/>
				<path class="st15" d="M162.6938629,94.497551c0,5.9495392-7.7024994,10.7725983-17.2039948,10.7725983
					c-9.5015106,0-17.2039948-4.8230591-17.2039948-10.7725983s1.1790924-12.3804398,17.1719208-12.3804398
					C161.6219635,82.1171112,162.6938629,88.5480118,162.6938629,94.497551z"/>
				<path class="st20" d="M137.2701874,87.0947723c2.364624-0.1819458,14.9687805-0.2869339,16.6909943,0.2461166
					c1.1654816,0.3610764,2.1213074,1.0860519,2.6665192,2.1923447c0.8604736,1.7462006,0.8579712,5.484108,0.1834869,7.2891998
					c-0.6034546,1.614418-1.8988647,2.5814514-3.4182739,3.2578201c-1.7676849,0.4800873-14.1032867,0.5146637-15.910553-0.1081085
					c-1.4246979-0.4913025-2.5437622-1.5595856-3.1509552-2.933197c-0.8259125-1.8673935-0.8639221-5.1900101-0.1099854-7.0773392
					C134.8308105,88.4359741,135.8121643,87.7032242,137.2701874,87.0947723z"/>
			</g>
			<rect x="22" y="237.1365662" class="st8" width="256" height="7.4613109"/>
		</g>
	</g>
</g>
</svg>
