<?xml version="1.0" encoding="utf-8"?>
<!-- Generator: Adobe Illustrator 22.0.1, SVG Export Plug-In . SVG Version: 6.00 Build 0)  -->
<svg version="1.1" id="Layer_1" xmlns="http://www.w3.org/2000/svg" xmlns:xlink="http://www.w3.org/1999/xlink" x="0px" y="0px"
	 viewBox="0 0 300 300" style="enable-background:new 0 0 300 300;" xml:space="preserve">
<style type="text/css">
	.st0{fill:#EDC1A4;}
	.st1{fill:#E2E0E0;}
	.st2{fill:#D39E81;}
	.st3{fill:#502E26;}
	.st4{fill:#CCCACA;}
	.st5{fill:#426800;}
	.st6{fill:#538705;}
	.st7{fill:#D47E44;}
	.st8{fill:#73341D;}
	.st9{fill:#BC672E;}
	.st10{fill:#96311D;}
	.st11{fill:#B83E21;}
	.st12{fill:#DE8D82;}
	.st13{fill:#EFBAB4;}
	.st14{fill:#FDD5D0;}
	.st15{fill:#6883CE;}
	.st16{fill:#3D4885;}
	.st17{fill:#3859AE;}
	.st18{fill:#864424;}
	.st19{fill:#FEFEFE;}
	.st20{fill:#FFFFFF;}
	.st21{fill:#A55925;}
	.st22{fill:#F4F2F2;}
	.st23{fill:#3C3E68;}
	.st24{fill:#E8997C;}
	.st25{fill:#F5C46B;}
	.st26{fill:#F7EBDA;}
	.st27{fill:#0E0C0D;}
	.st28{fill:#657C3A;}
	.st29{fill:#576C37;}
	.st30{fill:#7C995D;}
	.st31{fill:#36518C;}
	.st32{fill:#96B7E3;}
	.st33{fill:#A3B3DF;}
	.st34{fill:url(#SVGID_1_);}
	.st35{fill:url(#SVGID_2_);}
	.st36{fill:url(#SVGID_3_);}
	.st37{fill:url(#SVGID_4_);}
	.st38{fill:url(#SVGID_5_);}
	.st39{fill:#266AB7;}
	.st40{fill:#060E0D;}
	.st41{fill:#E0D4C6;}
	.st42{fill:#787E42;}
	.st43{fill:#D3D1D1;}
	.st44{fill:url(#SVGID_6_);}
	.st45{fill:url(#SVGID_7_);}
	.st46{fill:url(#SVGID_8_);}
	.st47{fill:#020508;}
	.st48{fill:#BAB6B6;}
	.st49{fill:#0F0B07;}
	.st50{fill:#2F3A68;}
	.st51{fill:#203257;}
	.st52{opacity:0.5;fill:#FFFFFF;}
	.st53{opacity:0.2;fill:#0E0C0D;}
	.st54{fill:#DD9F9B;}
	.st55{fill:#3E4D9B;}
	.st56{fill:url(#SVGID_9_);}
	.st57{fill:#5F6194;}
	.st58{fill:url(#SVGID_10_);}
	.st59{fill:url(#SVGID_11_);}
	.st60{fill:url(#SVGID_12_);}
	.st61{fill:url(#SVGID_13_);}
	.st62{fill:#070102;}
	.st63{fill:#100805;}
	.st64{fill:#FDA465;}
	.st65{fill:#2A50A1;}
	.st66{fill:#B76C39;}
	.st67{fill:#130602;}
	.st68{fill:url(#SVGID_14_);}
	.st69{fill:url(#SVGID_15_);}
	.st70{fill:url(#SVGID_16_);}
	.st71{fill:url(#SVGID_17_);}
	.st72{fill:url(#SVGID_18_);}
	.st73{fill:url(#SVGID_19_);}
	.st74{fill:#B4BDED;}
	.st75{fill:#100D08;}
	.st76{fill:#F6C85F;}
	.st77{fill:#FECF00;}
	.st78{fill:#2D59E2;}
	.st79{fill:#121F3A;}
	.st80{fill:#BBD0F5;}
	.st81{fill:#020202;}
	.st82{fill:#E2CFB7;}
	.st83{fill:#080805;}
	.st84{fill:#A87D7C;}
	.st85{fill:#182052;}
	.st86{fill:#EAEAEA;}
	.st87{fill:#DDDDDD;}
	.st88{fill:#3D4574;}
	.st89{fill:#ABC5F0;}
	.st90{fill:url(#SVGID_20_);}
	.st91{fill:#4159A8;}
	.st92{fill:#E0D0BD;}
	.st93{fill:#3D53AA;}
	.st94{fill:#0A0000;}
	.st95{fill:#BF6D36;}
	.st96{fill:#385DAE;}
	.st97{fill:#E0DCDC;}
	.st98{fill:#857E78;}
	.st99{fill:#0E213C;}
	.st100{fill:url(#SVGID_21_);}
	.st101{fill:#55608E;}
	.st102{opacity:0.3;fill:#F4F2F2;}
	.st103{opacity:0.3;}
	.st104{fill:#213987;}
	.st105{enable-background:new    ;}
</style>
<g id="Scooter_Delivery_1_">
	<g id="Scooter_Delivery">
		<g>
			<path class="st7" d="M135.9798737,77.0201187l-3.0530853,3.0098801l-18.1411972-3.7508163l-2.9209518-4.6003036v-3.1472931
				l1.404747-1.7733612c0,0,3.7595444-3.1139603,4.0983505-7.4103622
				c-0.2629318-0.0315781,4.1914444,0.5037727,17.3892517,2.0898628
				c-1.9250031,15.0671806-1.2610626,9.8704872-1.4046936,10.9946938
				C133.4104767,72.5340118,136.1526184,77.3217163,135.9798737,77.0201187z"/>
			<path class="st9" d="M135.0709839,75.4299011c-1.3769379,0.1594772-2.4225464-0.8396988-3.3465118-1.8443069
				c-3.9000473-4.2171249-7.4076309-8.8007584-10.4649048-13.6714096c0.1011505-0.0176811,5.3078232-0.9277992,4.9784012-0.8702202
				c3.2303391,0.8787041,6.1879349,2.9698944,8.0851974,5.7784767l-0.970871,7.6099777L135.0709839,75.4299011z"/>
			<path class="st7" d="M143.4743042,56.4753914c-0.3098602,0.333168-0.111557,0.8783493,0.1445923,1.2572517
				c0.2520599,0.3746338,0.5701447,0.8035431,0.4503632,1.2405815c-0.0743866,0.2624283-0.2933655,0.4579773-0.4710388,0.6620674
				c-0.7586517,0.8509941,0.2156067,1.0965233,0.4007874,1.5028038c0.1404572,0.3038979-0.0454407,0.6744652-0.3222656,0.8576164
				c-0.276825,0.1788788-0.6155853,0.2205505-0.9460602,0.2538872c-0.0909424,2.0607948-2.0244751,3.9048958-3.9703522,4.5419579
				c-3.5415497,1.1582642-8.933075-0.787056-11.6051941-3.5345306c-5.0112305-5.1465912-7.1278152-20.1273575,1.8508759-25.4070396
				c4.4628601-2.5887375,9.4135742-1.2332497,11.6465454,2.1479988l1.0823822,1.1824455
				c0,0,1.4501343,4.2004585,1.1361389,7.2894135c-0.1239166,1.2031784-0.0867462,2.1856041,0.6403961,3.1515617
				c0.6905975,0.933094,1.7548676,1.5213814,2.0698547,2.685051c0.1363678,0.5079803-0.1528625,1.323925-0.5453339,1.6652222
				C144.5939636,56.3546486,143.8750916,56.0466881,143.4743042,56.4753914z"/>
			<path class="st3" d="M133.1911621,62.2453308c-0.2561493,1.3863297-0.9502563,2.7185898-1.9831085,3.6469421
				c-1.4033661-0.4359283-3.0616608-1.6160278-4.0529175-2.6352463c-3.4731293-3.5669479-4.8283081-10.8661613-4.1603317-15.657196
				c0.3841934-2.7559929,1.4625397-5.4493752,3.3010101-7.5227737c1.8224411-2.0610428,3.7159195-3.0571289,6.4493942-3.285202
				c2.6280975-0.2192764,5.3217468,0.2925186,7.6667633,1.515976c0.7827606,0.4083862,1.6408844,1.2199364,1.2813263,2.0308952
				c-0.6610107,1.490921-3.9798431,0.0835686-7.2812042,1.4491615c-3.8869934,1.6078415-5.4071655,6.9482231-3.9559326,10.6785469
				C131.4243622,54.9551811,133.9376831,58.193737,133.1911621,62.2453308z"/>
			<path class="st11" d="M54.7786407,206.1357269h-4.0123138c-1.8225441,0-3.1582489-1.7734222-2.6190834-3.5277252
				c1.2547417-4.0825958,4.2318382-7.7746887,7.9312592-9.7659454c0.5112724-0.2751923,1.0953751-0.3744965,1.669075-0.2910614
				c6.4237556,0.9341583,13.0461388,1.7957306,19.4518242,2.7364807"/>
			<path class="st25" d="M233.4143066,177.5940247c-2.5479889-4.1359406-7.3718567-6.2883759-12.1824799-5.6156464
				l-0.0524139,0.0073242v9.4074249l7.3475037,3.5550079h4.0123138
				C235.0853882,184.9481354,236.5280609,182.6465302,233.4143066,177.5940247z"/>
			<path class="st7" d="M177.7570953,79.1728897c2.3726044-4.9862061,1.0683594-8.7022095,1.2680817-10.4173279
				c0.3828735-3.2878418,4.25914-3.0529938,4.8830566,0.5637589c0.1498566,0.8686752,0.0950012,1.7583618,0.0396729,2.638298"/>
			<path class="st7" d="M163.3014221,90.5364685c6.2872925-2.7460175,11.706955-7.8487854,14.8499451-14.2753677
				c1.6351776-3.343483,6.4281006-2.8406143,10.333252-9.5416565c0.42836-0.7350388,0.9792786-1.6121063,1.8247223-1.5830536
				c0.5987244,0.0205765,1.0744781,0.5180511,1.377533,1.0388031c1.9055786,3.2744064-0.6178894,8.3091583-1.8259125,11.4664688
				c-1.511795,3.9512558-3.4508667,7.7604446-6.0179749,11.1258698c-3.9484711,5.1763611-9.5299072,9.2887726-15.8956146,10.505249"
				/>
			<g>
				<path class="st49" d="M178.874649,78.8781967l10.4509888-19.4751968
					c0.1159058-0.2159958,0.3439484-0.3464317,0.5874176-0.3359871l3.895462-0.3485107
					c0.4686737,0.0201073,1.4265594,1.2650604,1.2057037,1.6820793l-10.7655945,21.1453629
					c-0.7008667,0.7560272-1.988678,0.2725754-2.3009796,0.085762l-2.8378448-1.8962479
					C178.8158112,79.5595932,178.7120209,79.1812363,178.874649,78.8781967z"/>
				<path class="st11" d="M177.5123291,78.2833328l10.4509888-19.4751892
					c0.1159058-0.2159996,0.3439484-0.3464317,0.5874176-0.3359871l5.0974731,0.2186813
					c0.4686737,0.0201035,0.7557373,0.526474,0.5348969,0.9434967l-11.4853058,21.6870003
					c-0.17099,0.3228683-0.5748444,0.4365692-0.8871613,0.2497559l-4.0631409-2.4304962
					C177.4534912,78.9647369,177.3497009,78.58638,177.5123291,78.2833328z"/>
				<polygon class="st20" points="178.3735504,78.5048141 188.6546021,59.3461189 193.2539978,59.5434036 182.0481415,80.702858 
									"/>
			</g>
			<path class="st7" d="M188.333252,75.9426117c0.1244354-1.8336868-0.544281-3.7081451-1.7988739-5.0422974
				c-0.3170013-0.3371124-0.6722107-0.644928-0.91922-1.0370026c-0.246994-0.3920822-0.3715363-0.9014969-0.1790771-1.3234787
				c0.3242798-0.7110214,1.3838348-0.7715302,2.0127563-0.3124847c0.6289063,0.4590454,0.9304962,1.2360916,1.2003784,1.9698257
				c-1.3746796-3.9566422-1.6347656-4.3786087-1.330307-4.9247818c0.2874603-0.5157089,1.0700531-0.5357285,1.5489807-0.1937256
				c0.4789429,0.3420029,0.7275543,0.9166641,0.9538574,1.4624329c-0.4548035-0.8823471-0.7989655-1.8225098-1.0217743-2.7910957
				c-0.137146-0.5962257-0.1672974-1.3529854,0.3454895-1.6809959c0.3667908-0.234623,0.871994-0.1198845,1.2113647,0.1534309
				c0.339386,0.2733116,0.5505524,0.6725388,0.7524109,1.0601883c-0.3821716-0.5724068-0.777298-1.1820679-0.8152161-1.8709068
				c-0.0379181-0.6888351,0.436676-1.4563217,1.1212463-1.4671936c0.7357025-0.0116844,1.2062225,0.7746582,1.4547882,1.4725075
				c1.4701996,4.1277122,0.6044617,9.0131111-2.1926117,12.3730049"/>
			<path class="st16" d="M167.6246185,85.1452179l9.208313,11.7043915c0,0-14.0283203,22.9602127-28.2704315,16.9511414
				c-14.2420959-6.0090714-18.8730011-16.127243-18.8730011-16.127243l7.5576477-19.7152023l12.8204193,16.3245544
				L167.6246185,85.1452179z"/>
			<g>
				<ellipse class="st3" cx="81.4223328" cy="239.995224" rx="29.279007" ry="29.5030994"/>
				<ellipse class="st19" cx="81.4223328" cy="239.995224" rx="11.1722527" ry="11.257762"/>
			</g>
			<path class="st3" d="M142.9793549,224.5996552c0,0,44.9053802,3.073761,50.8721313-1.0753174
				c5.9667358-4.1490936,9.8149567-15.0076141,9.5644531-21.5665436
				c-0.2505188-6.5589294-7.4704285-36.0859833-10.4334106-45.8056946
				c-2.9629669-9.7197113,7.8721313-3.7281036,7.8721313-3.7281036s17.441864,16.838913,17.5740051,17.2737122
				c0.1321259,0.4347992,1.9762878,19.2084808,1.9762878,19.2084808l-2.9012451,14.7945709
				c0,0-11.7600403,19.1578369-12.0243073,19.5572815c-0.2642822,0.3994293-7.531723,11.0586853-7.531723,11.0586853
				l-13.6099396,4.386322l-20.8773956,1.1109314l-16.6490479-4.7058868l-6.871048-4.1792755L142.9793549,224.5996552z"/>
			<g>
				<ellipse class="st3" cx="248.720993" cy="239.995224" rx="29.279007" ry="29.5030994"/>
				<ellipse class="st19" cx="248.720993" cy="239.995224" rx="11.1722527" ry="11.257762"/>
			</g>
			<path class="st18" d="M211.6045837,239.8139801c0,0,25.0034943-23.887146,65.8401794-28.5356598
				c0,0-11.5497131-21.0882874-33.4605408-18.4956207c-9.9566956,1.1781464-18.7280731,7.0975037-23.9846344,15.6993103
				C215.5000458,215.8450775,210.7062988,226.9230194,211.6045837,239.8139801z"/>
			<path class="st3" d="M232.0673981,196.7156067c-3.4593811,9.428421-9.4182892,18.4965668-10.1381226,19.5764465
				c-0.519928,0.8699493-5.3890076,8.9280243-10.348053,17.4366913c0.6598511-10.2778778,4.6390839-19.0765228,8.4184113-25.2453003
				C223.019104,203.554184,227.178299,199.505127,232.0673981,196.7156067z"/>
			<path class="st18" d="M230.4947357,186.5875702c-0.9461212,11.2028503-11.9398651,27.5552368-11.9398651,27.5552368
				s-5.8625336,9.6791077-11.5143127,19.4498901c-5.6476288,9.76651-18.3766022,9.5333557-18.3766022,9.5333557
				c-65.7472076-0.758194-63.9158249-0.0740356-68.7471008-1.244751c-8.8247452-2.131424-10.9235458-7.5642395-10.9235458-7.5642395
				l-65.0328827-0.1040802v-5.2995605c0,0-0.0248146-0.2706604-0.0206795-0.7826996
				c0.0330849-2.8058929,0.9791985-12.8888092,11.8118134-25.6693726
				c12.8074493-15.1077423,32.8449097-23.8002625,32.8449097-23.8002625h58.893631c0,0-6.8747559,6.7858124-4.5115967,32.9964905
				c0,0,1.6567078,20.4947205,10.9483032,21.9351196h34.2000427c0,0,6.928421,0.5203857,14.5963898-14.1585541
				c7.6679688-14.6747742,8.2215118-27.7758942,4.4288788-36.23526
				c-3.7967529-8.4593658-10.415329-13.8588257-13.5800171-21.9268799c-3.160553-8.063797-9.332901-31.7890472-9.332901-31.7890472
				l15.7242126-3.1139603c0,0,5.8418579,20.3864822,10.6178284,28.7500992
				c2.7826385,4.8787079,6.8661194,10.2362366,11.4275055,13.9337311
				C224.5495911,171.117691,231.2590332,177.483017,230.4947357,186.5875702z"/>
			<g>
				<path class="st3" d="M124.3003006,212.4151764l-2.8589249,9.8455963
					c-1.2849197,4.4378815-5.3874054,7.5351715-9.9733353,7.5351715H43.9604225v-0.8825226
					c0,0-0.0248146-0.2706604-0.0206795-0.7826996h67.5282974c3.85466,0,7.3044434-2.6060791,8.3868332-6.3361664
					l2.8589706-9.8455811c3.2911224-11.2889099-2.3735886-16.9630127-13.8402634-19.095993
					c-18.5584717-3.4636841-37.9844894,11.3568268-38.1786575,11.5066528
					c-0.3593826,0.2831573-0.8799438,0.2124176-1.1568222-0.149826c-0.2767715-0.3662872-0.2107086-0.8909454,0.152916-1.1698303
					c0.8138809-0.6327972,20.1944046-15.4283142,39.4841537-11.8272095
					C121.728157,193.5608978,127.8425369,200.2497101,124.3003006,212.4151764z"/>
			</g>
			<path class="st3" d="M66.5027771,180.6182404c0,0,70.4443817,4.8704376,80.6139984,0.1719666
				c10.1696014-4.6984558-1.9152527-29.9057007-8.0304718-30.2130127
				c-6.1152344-0.3072968-70.277153,13.9879303-73.6814728,16.1287842
				C62.0005035,168.846817,63.3318138,179.1037292,66.5027771,180.6182404z"/>
			<path class="st4" d="M162.9004364,225.7464905c0,0-0.5306549,2.1482544-0.0207367,2.5562134
				s28.7292633,2.9214172,30.1752777,0.311264c0,0,0.7885437-1.3943176,0.0262604-2.1424255
				C192.3189545,225.7234192,162.9004364,225.7464905,162.9004364,225.7464905z"/>
			<polygon class="st0" points="165.9331665,216.5839844 167.4721069,204.9887695 180.8698273,208.1188202 178.8501892,215.9352722 
				171.1373749,219.4247437 			"/>
			<path class="st16" d="M166.0471802,214.9675751c0,0-3.9748077,7.3531189-3.1467438,10.7789154
				c0,0,20.3706055,2.4579468,30.1808014,0.7250519c0,0-0.1896667-5.3870544-8.9642944-8.1428986
				c0,0-4.3237152-0.8534698-4.7888336-3.0071259C178.8629913,213.1678467,166.0471802,214.9675751,166.0471802,214.9675751z"/>
			<path class="st22" d="M154.4185638,229.9191742c0,0-0.5,2.1557159,0.015686,2.5562592s28.7679138,2.5056152,30.1766052-0.1251984
				c0,0,0.7686005-1.4055634-0.0042572-2.1425781C183.833725,229.4706421,154.4185638,229.9191742,154.4185638,229.9191742z"/>
			<polygon class="st0" points="157.3017578,219.7047882 158.840683,208.1095886 172.2384186,211.239624 170.2187653,219.0560913 
				162.5059662,222.5455627 			"/>
			<path class="st4" d="M172.2384186,208.1095886h8.6016235l4.2069855-18.9372406c0,0,3.5988617-15.4763184,3.6213684-20.2461395
				c0.022522-4.7698212,0.5905609-15.8706665-8.9276276-23.0816498c-5.5503845-4.2049255-15.1025696-6.8630219-21.8899841-8.3804626
				c-7.5550995-1.6890717-7.3992004-1.2868652-8.7275391-1.567749c-0.6971893-0.1474152-0.8708801-0.0174408-0.9824219-0.8368988
				c-0.0173035-0.1271973,0.3268738-1.4432526,0.3243408-1.4437408c-2.3503265-0.4536896-2.4864807-0.5098419-12.2888489-2.5338135
				c-0.2857361-0.0589905-1.8349304-0.606369-2.0872345-0.4306488c-0.0681763,0.0474854-9.9809494,6.9513092-9.9809494,6.9513092
				l49.73069,21.720932l-3.3707581,36.2752075L172.2384186,208.1095886z"/>
			<path class="st1" d="M103.825264,127.6847992c0,0-7.1316681,14.2101593-5.0222931,22.648407
				c2.1093674,8.4382324,11.4048767,15.4141083,23.4417191,16.5067139s20.6489716,1.4301605,27.1398315,0.9134521
				c0,0,11.903244-1.0097961,12.4365082,0.6536865c1.8520203,5.7772064-2.5946503,25.2523193-4.7595215,42.3214874
				c-0.0863342,0.6806488,0.4560547,1.2706146,1.1365814,1.2456207l14.0884247-0.5172577
				c0,0,17.1846924-43.2502136,11.4875946-56.74086c-3.916748-9.2748108-23.7208252-12.7837067-35.7158813-14.0710144
				c-5.9913635-0.6430054-11.4072571-3.8823853-14.7693329-8.9206696l-0.0764923-0.114624L103.825264,127.6847992z"/>
			<path class="st15" d="M157.4114685,219.095871c0,0-3.8696594,7.4098358-2.9929047,10.8233032
				c0,0,20.4035187,2.1630859,30.1880341,0.2884827c0,0-0.2663879-5.3837585-9.079361-8.0124054
				c0,0-4.335434-0.7908478-4.8311768-2.937561S157.4114685,219.095871,157.4114685,219.095871z"/>
			<path class="st15" d="M113.2694016,66.7580109c0,0-8.697464,3.4437103-13.1013184,27.1620178
				s-8.4570389,65.4006348,0.8726654,71.3552551c0,0,26.9463806-2.1101379,43.6710587-28.8620148
				c0,0-0.7400818-17.7717056-2.3212585-22.149437c-1.5811615-4.377739,0.9858551-12.6636276,0.6511993-19.9962845
				c-0.3346558-7.3326492-0.3124542-13.618576-9.6902924-21.8346024l0.814743,3.8108063
				C134.1661987,76.2437515,113.6473083,69.8931732,113.2694016,66.7580109z"/>
			<path class="st26" d="M130.7814484,41.3499222c-0.4456024,0.9523621,1.5010681,3.2655678-1.2208557,3.5429382
				c-0.5780182,0.0589027-1.9235077-0.0517578-2.235817,0.6038437c-0.0929642,0.1951523-0.1011887,0.4194412-0.0965347,0.6358719
				c0.037117,1.7289581,0.8708344,3.5369759,1.5104065,5.1186371c1.255127,3.1039581,3.2962341,8.025528,2.1852417,11.1637383
				c-1.0382843,2.9328194-5.7172318,2.2482719-8.6937103,1.3964272c-5.9776917-1.7107697-10.5969009-6.1492729-11.8789902-9.0106201
				c-2.2984695-5.1296959-2.0015411-12.277813,2.6104889-17.6606445c7.1052399-8.2995796,19.0074692-8.2756405,24.9786911-2.9182053
				c1.8880463,1.6902237,3.6562653,4.3712082,3.7926178,6.9564476
				C139.0769653,40.9311981,131.6971741,39.3928032,130.7814484,41.3499222z"/>
			<ellipse class="st3" cx="121.1481628" cy="53.270649" rx="3.3306344" ry="3.3561261"/>
			<path class="st3" d="M141.3885803,46.7154541c0.9899902,0.1125069,0.9857025,0.8700981,0.0397186,1.0247307
				c-1.1648865,0.1904144-2.3544006,0.2272911-3.5287476,0.1093826c-1.0375061-0.1041718-2.4724426-1.2324677-0.6773529-1.3115234
				C138.6076355,46.4770317,140.0118408,46.5589981,141.3885803,46.7154541z"/>
			<ellipse class="st3" cx="139.3835602" cy="50.3941574" rx="1.0078695" ry="1.4769708"/>
			<g>
				<path class="st11" d="M87.7275696,156.9603729c-0.7762604-0.1890411-1.2535553-0.9763336-1.0661469-1.7585297
					c0.1876068-0.7823944,0.9689102-1.2627411,1.7451706-1.074295c7.9449463,1.9341431,16.8422546-1.3731232,21.6379852-8.0421448
					c2.1037216-2.9258423,3.4896011-6.4536743,5.405365-9.7303314c6.0140381-10.284996,11.7433014-7.8876038,15.6484146-9.6878433
					c3.3791809-1.5568771,4.5816956-5.9650879,4.2692261-9.4018402c-0.3653412-4.0156708-2.2226868-7.7603378-3.7263641-11.8077927
					c-4.8835907-13.1553497-3.1473846-20.0671158-4.4223328-25.8249741
					c-1.0705795-4.8340683-5.3932571-9.1973495-10.7723923-8.1330032
					c-6.9869003,1.3825378-10.054657,10.2536011-15.5493698,15.1362076
					c-3.3346863,2.963356-7.4780731,4.6175995-11.1155396,6.7184143c-4.2669983,2.4640884-6.8332062,5.2658157-7.6276245,8.3277359
					c-0.2017288,0.7783356-0.9913025,1.2448502-1.7647324,1.0411758c-0.7726288-0.2034836-1.235199-0.9997101-1.0332642-1.778244
					c0.997963-3.8469696,4.0218964-7.2516098,8.9876862-10.1189957c3.7093124-2.1424713,7.623764-3.6946869,10.6406708-6.3756943
					c5.2403793-4.6571274,8.5730896-14.1617966,16.9049911-15.8102646c7.109375-1.406456,12.7798157,4.161232,14.1521759,10.3580399
					c1.3846893,6.2539978-0.3893585,12.7852554,4.3085632,25.4385529c1.4727325,3.9662552,3.4872284,8.0563354,3.8974304,12.5629578
					c0.4161682,4.5757065-1.2610168,10.1590347-5.9464111,12.3180161c-4.6843338,2.1587067-9.0550842-0.5549622-14.3593521,8.516983
					c-1.9318695,3.3037109-3.2580414,6.7655792-5.5552521,9.9608459
					C106.961319,155.3392334,96.8446808,159.1794128,87.7275696,156.9603729z"/>
			</g>
			<path class="st0" d="M96.9584885,156.9674683c-7.1919708,2.1164246-40.1535034,11.8154297-55.8611221,16.4398956
				c-1.8632813,0.5495605-3.8133087-0.528717-4.3586845-2.40625l-14.5963936-50.3522491
				c-0.5452785-1.8774414,0.5247002-3.8424911,2.3879814-4.3919449l6.858223-2.0191193l3.0159683-0.8866882
				c17.0482635-5.0174179,26.8442421-7.9017868,45.986927-13.5342026c1.8632813-0.5494461,3.8133087,0.528923,4.3586884,2.402298
				l14.5963898,50.3562164C99.8917465,154.4529572,98.8217697,156.4179077,96.9584885,156.9674683z"/>
			<path class="st19" d="M70.287384,141.9761047l-14.720314,4.3321838c-0.4910049,0.1448212-1.0048676-0.139328-1.1485825-0.634079
				l-3.8463898-13.2686462c-0.1436882-0.4947357,0.1382675-1.012558,0.6292725-1.1573486l14.720314-4.3322067
				c0.4910049-0.1447906,1.0048676,0.1393814,1.1485901,0.6330414l3.8463821,13.2696915
				C71.0603485,141.3134918,70.778389,141.8312988,70.287384,141.9761047z"/>
			<polygon class="st2" points="50.9673195,170.5015564 47.9513512,171.3924103 31.3884926,114.2378006 34.4044609,113.3511124 			
				"/>
			<polygon class="st2" points="90.005249,159.0114899 86.9892807,159.9024353 70.4305573,102.7477188 73.4465256,101.8610382 			
				"/>
			<g>
				<path class="st18" d="M208.3995514,111.8032379c0,0-2.2037201-1.145874-8.2340088-0.3732834
					c-6.6131439,0.8472672-19.4088593,5.7326889-22.1819763,9.7617493
					c-2.7731323,4.0290604,5.6919403,21.1031876,30.4159851,20.6892319V111.8032379z"/>
				<path class="st7" d="M160.3015442,121.5666122c0,0,23.1515198-5.3957367,31.6505127,0.1526947
					c1.7487946,1.1416702,3.3424988,2.6113434,4.3746796,4.4545441c1.1717682,2.0925064,1.233963,4.1209488,1.1813202,6.4579391
					c-0.0106049,0.4710541-0.0308685,0.9731598-0.2998047,1.3586121s-0.8848419,0.5592194-1.2064972,0.2172241
					c0.4546356,0.5180206,0.3098297,1.4427032-0.2810211,1.7944946c-0.5908508,0.3517761-1.4645081,0.0334778-1.6954651-0.6177216
					c0.0700989,0.9615784-0.2332458,1.9458771-0.8315735,2.6983032c-1.1207123,1.4093475-2.3658295,0.5568085-2.190979-0.198288
					c0.2956543,0.9828339-0.7024078,2.1014252-1.7036285,1.9093628c-1.5423584-0.2958679-0.9205627-1.8999176-1.0581207-2.8924561
					c-0.1978607-1.4275818-0.8884735-2.9648895-2.0351715-3.8589783c-1.679184-1.3092804-4.0262299-1.1491241-6.1378479-0.9261627
					c-6.0483704,0.6386566-12.0967407,1.2773285-18.1451111,1.9159851
					c-1.8021545,0.1902924-3.6928101,0.3686676-5.3663177-0.3314972c-1.6734924-0.7001801-3.0046997-2.5943298-2.4404907-4.3294525"
					/>
				<path class="st16" d="M160.3015594,118.0850525c1.2532654-0.0391006,1.8171692,18.2891388,0.5639191,18.3282471
					c0,0-31.0868378,6.9039001-40.7684555-0.0000305s-18.5126801-44.4435806-17.4404068-50.0100708
					c1.3174362-6.8390045,9.3626709-16.8783875,17.0131073-15.0581818
					c7.8093109,1.8580017,9.4783783,12.0060883,11.0995178,18.6029205c1.9661865,8.0007858,3.6931,17.8878937,4.576828,24.7502899
					C144.1972656,116.7158279,151.2724304,117.5399704,160.3015594,118.0850525z"/>
				<path class="st27" d="M120.097023,136.413208c-9.2219162-6.3879547-16.8567657-35.8694839-17.4665527-47.3417969
					C103.9611206,99.7301483,111.7217331,129.566452,120.097023,136.413208z"/>
				<path class="st27" d="M140.2489319,115.7298584c22.1562347,2.5575333,15.8015747,1.625412,20.0821533,1.9868164
					c0.1516724,0.0061035,0.2767944,0.1088867,0.3190308,0.2460938c1.259491,4.1209946,1.7314758,10.8956757,0.215332,18.4504395
					c0.3001709-3.222702,0.504303-5.9332886,0.3927002-9.197998c-0.1408234-2.9273987-0.4076385-6.2140579-1.3050537-9.0078125
					l0.3369141,0.2468262C156.3600159,118.3450089,147.9863434,117.3888016,140.2489319,115.7298584z"/>
				<ellipse class="st13" cx="183.3015747" cy="135.3627777" rx="6.4686465" ry="6.5181556"/>
				<ellipse class="st3" cx="183.3015747" cy="135.3627777" rx="4.4063416" ry="4.4400663"/>
				<g>
					<path class="st3" d="M190.9927063,138.4022827c-0.0092773,0-0.0185547-0.0004883-0.0283203-0.0009766
						c-0.206543-0.0151367-0.3613281-0.1953125-0.3461914-0.4018555c0.293457-3.9633789-1.4013672-8.0117188-4.4238281-10.5644531
						c-0.3769989-0.3188171,0.1009064-0.8933868,0.484375-0.5732422c3.2021484,2.7055664,4.9985352,6.9941406,4.6875,11.1933594
						C191.351593,138.2518921,191.1870422,138.4022827,190.9927063,138.4022827z"/>
				</g>
				<g>
					<path class="st3" d="M193.6650696,135.383728c-0.3120117-3.3681641-2.0678711-6.6333008-4.6967773-8.7348633
						c-0.3869019-0.3097534,0.0805511-0.8943939,0.46875-0.5859375c2.784668,2.2265625,4.6445313,5.6850586,4.9750977,9.2514648
						C194.457901,135.8094482,193.710907,135.8766937,193.6650696,135.383728z"/>
				</g>
				<g>
					<path class="st3" d="M195.6885071,134.4208374c-0.3969727-3.5703125-2.0893555-7.0551758-4.6435547-9.5615234
						c-0.3538971-0.3468933,0.1706696-0.8828735,0.5253906-0.5351563c2.7143555,2.6635742,4.4418945,6.2202148,4.8632813,10.0136719
						C196.4884033,134.8296967,195.7427216,134.9163208,195.6885071,134.4208374z"/>
				</g>
				<ellipse class="st25" cx="208.3995514" cy="126.8420868" rx="4.0318136" ry="15.0388489"/>
				<ellipse class="st14" cx="208.3995514" cy="126.8420868" rx="1.9476345" ry="7.2647653"/>
			</g>
		</g>
	</g>
</g>
</svg>
