<?xml version="1.0" encoding="utf-8"?>
<!-- Generator: Adobe Illustrator 22.0.1, SVG Export Plug-In . SVG Version: 6.00 Build 0)  -->
<svg version="1.1" id="Layer_1" xmlns="http://www.w3.org/2000/svg" xmlns:xlink="http://www.w3.org/1999/xlink" x="0px" y="0px"
	 viewBox="0 0 300 300" style="enable-background:new 0 0 300 300;" xml:space="preserve">
<style type="text/css">
	.st0{fill:#EDC1A4;}
	.st1{fill:#E2E0E0;}
	.st2{fill:#D39E81;}
	.st3{fill:#502E26;}
	.st4{fill:#CCCACA;}
	.st5{fill:#426800;}
	.st6{fill:#538705;}
	.st7{fill:#D47E44;}
	.st8{fill:#73341D;}
	.st9{fill:#BC672E;}
	.st10{fill:#96311D;}
	.st11{fill:#B83E21;}
	.st12{fill:#DE8D82;}
	.st13{fill:#EFBAB4;}
	.st14{fill:#FDD5D0;}
	.st15{fill:#6883CE;}
	.st16{fill:#3D4885;}
	.st17{fill:#3859AE;}
	.st18{fill:#864424;}
	.st19{fill:#FEFEFE;}
	.st20{fill:#FFFFFF;}
	.st21{fill:#A55925;}
	.st22{fill:#F4F2F2;}
	.st23{fill:#3C3E68;}
	.st24{fill:#E8997C;}
	.st25{fill:#F5C46B;}
	.st26{fill:#F7EBDA;}
	.st27{fill:#0E0C0D;}
	.st28{fill:#657C3A;}
	.st29{fill:#576C37;}
	.st30{fill:#7C995D;}
	.st31{fill:#36518C;}
	.st32{fill:#96B7E3;}
	.st33{fill:#A3B3DF;}
	.st34{fill:url(#SVGID_1_);}
	.st35{fill:url(#SVGID_2_);}
	.st36{fill:url(#SVGID_3_);}
	.st37{fill:url(#SVGID_4_);}
	.st38{fill:url(#SVGID_5_);}
	.st39{fill:#266AB7;}
	.st40{fill:#060E0D;}
	.st41{fill:#E0D4C6;}
	.st42{fill:#787E42;}
	.st43{fill:#D3D1D1;}
	.st44{fill:url(#SVGID_6_);}
	.st45{fill:url(#SVGID_7_);}
	.st46{fill:url(#SVGID_8_);}
	.st47{fill:#020508;}
	.st48{fill:#BAB6B6;}
	.st49{fill:#0F0B07;}
	.st50{fill:#2F3A68;}
	.st51{fill:#203257;}
	.st52{opacity:0.5;fill:#FFFFFF;}
	.st53{opacity:0.2;fill:#0E0C0D;}
	.st54{fill:#DD9F9B;}
	.st55{fill:#3E4D9B;}
	.st56{fill:url(#SVGID_9_);}
	.st57{fill:#5F6194;}
	.st58{fill:url(#SVGID_10_);}
	.st59{fill:url(#SVGID_11_);}
	.st60{fill:url(#SVGID_12_);}
	.st61{fill:url(#SVGID_13_);}
	.st62{fill:#070102;}
	.st63{fill:#100805;}
	.st64{fill:#FDA465;}
	.st65{fill:#2A50A1;}
	.st66{fill:#B76C39;}
	.st67{fill:#130602;}
	.st68{fill:url(#SVGID_14_);}
	.st69{fill:url(#SVGID_15_);}
	.st70{fill:url(#SVGID_16_);}
	.st71{fill:url(#SVGID_17_);}
	.st72{fill:url(#SVGID_18_);}
	.st73{fill:url(#SVGID_19_);}
	.st74{fill:#B4BDED;}
	.st75{fill:#100D08;}
	.st76{fill:#F6C85F;}
	.st77{fill:#FECF00;}
	.st78{fill:#2D59E2;}
	.st79{fill:#121F3A;}
	.st80{fill:#BBD0F5;}
	.st81{fill:#020202;}
	.st82{fill:#E2CFB7;}
	.st83{fill:#080805;}
	.st84{fill:#A87D7C;}
	.st85{fill:#182052;}
	.st86{fill:#EAEAEA;}
	.st87{fill:#DDDDDD;}
	.st88{fill:#3D4574;}
	.st89{fill:#ABC5F0;}
	.st90{fill:url(#SVGID_20_);}
	.st91{fill:#4159A8;}
	.st92{fill:#E0D0BD;}
	.st93{fill:#3D53AA;}
	.st94{fill:#0A0000;}
	.st95{fill:#BF6D36;}
	.st96{fill:#385DAE;}
	.st97{fill:#E0DCDC;}
	.st98{fill:#857E78;}
	.st99{fill:#0E213C;}
	.st100{fill:url(#SVGID_21_);}
	.st101{fill:#55608E;}
	.st102{opacity:0.3;fill:#F4F2F2;}
	.st103{opacity:0.3;}
	.st104{fill:#213987;}
	.st105{enable-background:new    ;}
</style>
<g id="Serving_Food_1_">
	<g id="Serving_Food">
		<g>
			<path class="st0" d="M169.3264465,89.4582214l-1.0375519,2.7758713l-0.696167,2.6794586l-2.5611877,3.6119461
				l-4.316803,3.0514221l-3.8177032-2.2065811l-3.9228363-8.2002029l0.6304779-2.6136169
				c0.0040131-0.1005783,0.312851-7.8364944,0.2933044-7.3465958l13.6947479-1.4534531
				c0.0121155,0.1005859,1.1303711,9.3889236,1.0594788,8.8000488L169.3264465,89.4582214z"/>
			<path class="st2" d="M168.3720551,86.6732178c-3.3589325,2.2085724-10.7719269,1.6551361-14.7017517,0.7266159
				l0.2276764-5.7308807l13.6947479-1.4534607L168.3720551,86.6732178z"/>
			<path class="st19" d="M151.1511078,92.4767838c3.9329681,3.4713135,8.7664642,7.4605331,13.7009735,5.6804199
				c2.441452-0.8807449,4.0487671-4.5963669,6.5503235-3.9045105c2.5632935,0.7089386,4.804245,5.6302719,5.6144562,8.1633911
				c2.4458466,7.6469955,2.7836456,15.9566498,0.9665527,23.7769394
				c-2.9927673,12.8801422-11.7079163,22.7643585-16.8647461,25.1488495
				c-2.1157379,0.9783173-4.6161957,1.3053894-6.7901764,0.4644165c-2.7294922-1.0558624-4.4886627-3.7089691-5.745163-6.3521271
				c-6.8000488-14.3044434-3.939682-30.437439,0.4285736-45.6688843"/>
			<path class="st0" d="M121.6422577,110.8547821c0,0,0.4503937-8.1571121-2.446312-10.4846344
				c-2.896698-2.3275146-6.6629105-5.4495163-9.2077942-7.2007599s-27.1469879,0-27.1469879,0
				s4.499054,10.8618317,27.6533432,13.5317078c0,0-0.725769-0.5512924,0.5029068,4.0505829
				s3.0214081,6.4812393,3.0214081,6.4812393l6.7291031-1.2247543L121.6422577,110.8547821z"/>
			<path class="st16" d="M137.3927307,95.4203949c0,0-8.3231049,2.2240067-12.1783218,28.3297424
				c-3.8552094,26.1057281,4.6085434,37.9628296,6.8772964,35.4112244
				c2.2687531-2.55159,10.3734283-17.3645477,10.3734283-17.3645477l1.0639648-35.7589645L137.3927307,95.4203949z"/>
			<path class="st16" d="M110.9974136,110.7516785c0,0,5.0021362,2.9477844,10.6448441,0.1031036
				c0,0,13.8706055,41.2797546,12.2332916,47.8832703c-1.6373138,6.6035309-12.8693848,9.3593597-16.8437271,0.7623138
				S110.9974136,110.7516785,110.9974136,110.7516785z"/>
			<path class="st16" d="M186.1997223,209.4318237l-52.537384,0.2714996
				c0.2542725-3.4326782-0.9210968,12.4350128,2.4867401-33.5714722l12.4470062-7.4382935l20.2575531,0.7661591
				l15.5379181,6.0066528C186.7698975,220.1424255,186.0063171,205.7990112,186.1997223,209.4318237z"/>
			<path class="st23" d="M184.7505341,182.2261505c-2.3860474,2.8152161-4.7720947,5.6259308-7.2326508,8.3710175
				c-5.9760895-3.9009705-11.8383789-8.2134552-17.0658875-13.0687256
				c-5.5295105,3.8441162-11.0547333,7.6837311-16.5842438,11.5276184c-2.6487732-3.274826-5.2975616-6.5539246-7.9463348-9.8332367
				l0.2276611-3.0909729l12.4470062-7.4382935l20.2575531,0.7661591l15.5379181,6.0066528L184.7505341,182.2261505z"/>
			<path class="st16" d="M182.0544739,95.8817062c0,0,10.0040588,1.3634186,11.8458405,10.6438217
				s6.473175,52.588028,6.3357849,56.9561768s-16.9751282,5.3299103-21.6849823,5.2022705
				s-0.6021576-25.0574646-0.6021576-25.0574646L182.0544739,95.8817062z"/>
			<path class="st13" d="M66.9305344,235.7388458c-4.1267357,11.7355042-18.2911606,11.0187683-30.3704185,9.3288879
				c-3.2748184-0.4553528-12.3769379-2.0227509-14.1325665-4.566452c-0.6435699-0.9324951-0.372076-3.0121002-0.3633099-4.150238
				c0.0643024-9.8236542-0.133215-17.8521881,2.6530552-30.4480133c1.8738461-8.7825165,5.7835789-23.0815125,13.6685162-28.0943146
				c1.5498161-0.9850769,3.2792015-1.2215118,5.0829849-1.0289001c1.9483528,0.2205658,3.9495773,2.2243195,5.5689468,3.2179565
				c1.878231,1.1513824,3.9797478,2.1146545,6.1775665,2.0665588c1.9526253-0.0395508,3.9753113-1.0596771,4.8377876-2.7671051
				c3.1653671,1.3222046,4.7458611,2.8282471,6.0242882,5.984848c1.7862549,4.4131775,1.6548843,8.9400787,2.6574936,13.4802246
				c0.6217117,2.81073,1.6724701,5.5077057,2.8589249,8.1215363c1.0463715,2.3072815,2.8326263,4.6844635,3.6075592,7.0485992
				C76.6680756,218.3981934,72.0646515,221.1385956,66.9305344,235.7388458z"/>
			<polygon class="st0" points="218.2114868,203.2460327 215.5591278,214.2566223 224.2780914,220.5545197 228.2241669,211.0948792 
				225.5551147,201.2899628 			"/>
			<path class="st91" d="M235.0454102,170.8263245c0,0-12.9921265,11.0272522-16.8339233,32.4197083
				c0,0,4.213501,3.4106598,8.4169617,2.3975983S235.0454102,170.8263245,235.0454102,170.8263245z"/>
			<path class="st3" d="M234.7546692,143.1439514c0,0,5.6941528-7.2827759,17.586731-3.5200958
				c11.8925781,3.7626953,9.9951172,15.4650726,9.174469,18.4152527c-0.8206787,2.9501953-2.5187988,7.4952393-4.1007996,8.913559
				l-14.5651703-4.2004395l-5.5096741-2.4477997l-0.7637177-7.5558624l-1.5310974-9.4373627"/>
			<path class="st15" d="M278,238.5443726c-29.5040741,10.8446045-56.7053528,2.0578003-57.313858,0.1051788
				c-0.4860229-1.5718842,1.2783661-25.5489197,1.9876709-32.2561188
				c0.8738556-8.1437988,5.6202393-25.3034668,11.7902374-34.7098083c0.6632385-1.009903,1.7780457-2.5704803,2.6531677-3.3973083
				c0.0222321,0.1434631-1.9707794,6.7238922,3.2660522,8.6642914c5.1924438,1.9132996,16.969574-7.9637604,16.969574-7.9637604
				c13.6816101,11.391861,14.4827881,22.1270142,17.5606079,35.9398804C277.9912415,218.7395935,278,238.5443726,278,238.5443726z"
				/>
			<ellipse class="st11" cx="154.1657257" cy="222.6752319" rx="82.6013184" ry="23.9573841"/>
			<path class="st0" d="M273.1330261,206.3322449c1.0900269,5.3755341,0.719696,9.7898102,0.3158569,15.2598572
				c-0.6516724,8.827774-3.9268188,11.7601013-12.6879578,13.0753632
				c-6.9053345,1.0366516-13.9226837,1.3198242-20.8896179,0.8547211c-3.4468079-0.2301025-6.8814392-0.6433563-10.2841797-1.239151
				c-1.4119415-0.2472229-2.6859741-0.6369019-4.0969391-0.3160706c-1.5009308,0.3412933-3.0248566,0.647171-4.5712891,0.7097626
				c-6.2965851,0.254837-12.6787109-1.4723358-17.9332886-4.9648743c-0.5888672-0.3914032-1.1985779-0.8490295-1.41922-1.520813
				c-0.2206421-0.6717682,0.1796875-1.5770721,0.8864746-1.5976715c-0.5023499,0.2864532-1.2352905,0.001358-1.4120331-0.5492554
				c-0.1767578-0.5506134,0.2533264-1.2090302,0.8285522-1.2684631c-0.6632233,0.2062988-1.4468384-0.3414154-1.4809723-1.035141
				c-0.0341492-0.6937256,0.6918793-1.3157349,1.3721619-1.1755524c-0.5633087,0.0477142-1.1307068-0.3602142-1.2648773-0.9093781
				c-0.2552032-1.0444946,0.7626038-1.4403381,1.556015-1.6642303c6.181427-1.7443237,12.8782806-1.5817871,18.994339,0.3784485
				c1.5537109,0.4979706,3.3169098,1.7035065,4.9212036,1.8439941c3.2390747,0.2836456,7.1457367-0.6770935,10.3199463-1.3013
				c4.3308105-0.8516693,8.668457-1.979599,12.820755-3.4908295l-0.8440399-7.7196045l11.8464966-6.4560242L273.1330261,206.3322449
				z"/>
			<g>
				<path class="st2" d="M259.9293518,218.6124725c-6.2612305-3.2875977-10.5922852-0.8901367-10.6352539-0.8652344
					c-0.1811523,0.1015625-0.4091797,0.0395508-0.5117188-0.1396484c-0.1025391-0.1796875-0.0400391-0.4086914,0.1396484-0.5117188
					c0.1899414-0.1083984,4.7363281-2.6240234,11.355957,0.8525391
					C260.7162781,218.1780396,260.3673401,218.8429871,259.9293518,218.6124725z"/>
			</g>
			<path class="st0" d="M257.414093,166.9508514l-0.0612488,2.0359955c0,0-11.7771301,9.8770599-16.969574,7.9637604
				c-1.0716858-0.3970795-1.5041962-0.8504486-1.8213043-1.0902405c-0.1279755-0.1602173-0.4892731-0.5945435-0.7967987-0.9367676
				c-1.7687683-2.710022-0.6479492-6.6372833-0.6479492-6.6372833c1.3191071-1.4110718-1.6519012,1.7670441,9.2947235-9.942688
				C250.1945953,162.0693054,253.8941345,165.1472321,257.414093,166.9508514z"/>
			<path class="st2" d="M248.3076477,162.3320313c-2.3904266,5.0393219-5.7572327,9.6143188-9.8507538,13.4013519
				c-0.2320099-0.2845459-0.459671-0.5515442-0.6917267-0.8097839c-1.7687683-2.710022-0.6479492-6.6372833-0.6479492-6.6372833
				l5.6520996-6.0462036C244.6168823,162.2138062,246.468811,162.2576294,248.3076477,162.3320313z"/>
			<path class="st0" d="M249.5860748,160.1955566c-0.5309906,4.150589-6.3437347,10.350647-13.7866821,10.5117493
				c-2.6493835,0.063797-5.3624115-0.7072296-6.6590881-2.9945526c-0.8996582-1.568985-0.8293152-3.4878235-0.5035553-5.2755432
				c0,0,0,0,0.0043945,0c0.0962982-0.446579,0.3108826-1.0333862,0.2101288-1.4228973
				c-0.4158936,0-0.8274078,0.0874481-1.2520752,0.0087738c-0.4597168-0.0831604-0.9150696-0.35466-1.0945282-0.7837067
				c-0.6110992-1.4668427,2.187149-3.7499695,2.723175-6.0769806c1.1383057-4.9514618,2.1890564-7.5126953,5.525177-11.0196838
				c1.7643433,1.0201416,3.8702393,2.1497192,5.5427094,3.3186493c0.9281006,0.6479492,1.8957062,1.3965912,2.2109222,2.4823608
				c0.6047211,2.0964661-1.4838715,4.0077362-0.9894714,9.0101929c0.0569305,0.5865936,0.1620026,1.199707,0.5078888,1.6768494
				c0.3458862,0.4816284,0.9456329,0.7836914,1.4928894,0.5603027c0.2331696-1.5541382,0.5713501-3.3705444,2.1278076-4.0322266
				c1.050705-0.4420929,2.3379059-0.0262909,3.0865936,0.8318024
				C249.4766235,157.8532257,249.7261505,159.065979,249.5860748,160.1955566z"/>
			<path class="st91" d="M248.263916,209.7020569c0,0,14.471283,4.7798309,24.8691101-3.369812
				c0,0-0.9835815-35.4196625-16.5803223-31.9014435C240.9559937,177.9490204,248.263916,209.7020569,248.263916,209.7020569z"/>
			<path class="st7" d="M112.8969727,205.7630157c-0.039444,0.2056427-0.2495804,0.3458862-0.4597244,0.367691
				c-0.5262451,0.0546112-1.9641113-0.7159576-5.0129166-0.7879791c1.0155106,0.2831879,3.9893494,1.1537018,4.5619583,2.0445557
				c0.157608,0.2494659,0.1926117,0.5998535,0.0043869,0.827301c-0.2145233,0.2584534-0.604187,0.2584534-0.9369278,0.2189026
				c-1.3861313-0.1576385-4.1991425-0.9333038-4.8071594-0.7571869c-0.0009003,0.0049286,0.0032578-0.0178833-0.0087662,0.0480957
				c1.2503662,0.5298462,3.3376694,1.2509918,4.347496,2.3508911c0.0043793,0,0.0087585,0.0089722,0.0087585,0.0089722
				c0.2464066,0.2098694,0.7062683,0.5335693,0.7325745,0.8855286c0.0314255,0.4203644-0.3409729,0.6508331-0.7192001,0.5498047
				c-0.4895401-0.1307678-1.9493866-1.3855591-4.7783737-1.4788208c-0.4401016-0.0145111-0.9744797-0.0568085-1.3862686,0.1091156
				c1.8508148,0.3352966,4.2738571,0.6143341,5.4157257,1.5804443c1.2665939,1.0697784-3.7828903,0.7598572-5.2187347,0.7311096
				c-0.7135773-0.0175323-1.4491272-0.0438232-2.1583786,0.0788879c-4.2107468,0.7365723-8.3630753,4.5961609-16.4967651,3.813324
				c-2.6006241,3.1653595-5.7090225,6.0680084-8.716835,8.8351135c-1.1426315,1.0549774-2.6793518,2.0796051-3.6469498,3.2572784
				c-4.347496,3.5593567-17.543087,13.1343536-23.0244942,12.7446442c-1.4691658-0.1039886-2.0578384-1.0526886-3.2441978-2.6707001
				c-5.8782654-9.3667297-19.1973362-44.7928467-10.9890556-55.2516785
				c3.411293-4.3468933,10.5291061-5.3194122,13.2043533,2.6661987c2.0206146,6.031662,5.1406822,33.9811859,5.5558548,38.1026459
				c2.2415924-0.6960602,4.4700928-1.9744263,6.5759392-3.0033264c4.6232605-2.2153473,9.1808929-4.5576935,13.6728439-7.022522
				c1.8519897-1.1952057,3.6425705-2.4823456,5.5427094-3.5986786c6.4095078-3.752182,18.5719299-9.1634827,25.9096527-7.2546844
				c1.6024017,0.1926117,2.95961,0.5517578,4.4263229,1.2302856c0.4684296,0.2144165,0.9324875,0.4553375,1.3309097,0.7924652
				C112.7568436,205.329483,112.9363098,205.5353394,112.8969727,205.7630157z"/>
			<path class="st7" d="M63.6912804,199.2439423c-0.3596916,1.0794525-2.0507393,0.0605774-3.0953026-0.5603027
				c-3.3667984-2.0097046-6.1118317-6.3001709-7.6091652-9.8332367c-2.5246277-5.9401245-3.0532417-8.7137604-8.8919792-11.9393311
				c0.3069763,0.1669617,1.6662903-3.8315125,2.0971375-4.9033661c0.7617874-1.5849304,1.9789162-2.9509583,3.4805794-3.8701782
				c2.0533638-1.247818,4.6101685-1.6375275,6.9393539-1.0552063c4.2898636,1.0649872,6.3591461,4.8624725,5.0829849,8.2002106
				c-0.4115715,1.0812683-1.8432236,2.631134-1.5367241,3.8483734
				C60.9987679,182.233017,64.7982254,195.8359375,63.6912804,199.2439423z"/>
			<path class="st9" d="M61.6948891,175.2825317c-0.4115715,1.0812683-1.8432236,2.631134-1.5367241,3.8483734
				c0.0297737,0.1018219,0.317215,1.0115509,0.8581467,3.0559235c-2.8930969,0.7579193-5.5367355-0.6725159-7.88937-2.5261841
				c-2.7100792-2.1234283-5.0698929-4.6846771-6.9743614-7.5522461c0.0131493-0.0438232,0.0306244-0.0788879,0.0393906-0.1006927
				c0.7617874-1.5849304,1.9789162-2.9509583,3.4805794-3.8701782c2.0533638-1.247818,4.6101685-1.6375275,6.9393539-1.0552063
				C60.9017677,168.1473083,62.9710503,171.9447937,61.6948891,175.2825317z"/>
			<path class="st3" d="M45.9930267,172.7236023c-4.8293915-1.8818207-11.3449898-3.0106659-12.9793739-8.9209747
				c-0.3686752-1.3310547-0.3760147-2.7577667,0.0076599-4.1270294c1.0211143-3.6446686,4.010582-4.7388153,5.7424889-7.4616547
				c0.7759132-1.2198486,0.8519173-2.7919922,1.227211-4.1632538c2.0545692-7.5096283,12.4689255-11.8422241,20.8062935-10.4360046
				c1.0516396,0.1773376,2.0231552,0.5888672,3.0509338,0.8089294c0.8934593,0.1911774,1.9059181,0.0588989,2.7613716,0.3920746
				c2.2677689,0.8627014,4.3203049,2.3135986,5.9092255,4.2383881c0.9366608,1.1334534,1.6926193,2.4062195,2.2423172,3.7794189
				c2.9878998,7.329071,0.9756393,15.0956268-1.85466,22.0882874c-0.8230438,2.0337677-2.0216827,4.3476563-2.0832443,6.5714264
				c-0.0135574,0.4828339,0.1894073,0.9237976,0.3735199,1.3600769c-1.5570755,0.8060455-5.2882004-1.0637817-6.6235733-1.2640381
				c-0.9936104-0.1493378-2.0461349-0.010025-3.0659599-0.1405182
				C56.4352036,174.8386688,50.8538437,174.3735352,45.9930267,172.7236023z"/>
			<path class="st7" d="M63.7303734,175.6241455c-1.2243729,0.1943817-2.5767975-0.1195984-3.4204865-1.0279236
				c-0.8255692-0.8888245-1.0464401-2.1688385-1.1782417-3.3747406c-0.3714027-3.3980408-0.3237877-6.8413696,0.1375809-10.2282562
				c0.3771019-2.7682953,1.7537346-5.2298126,3.1005325-7.6746216c2.110939-3.8321381,4.7241364-6.8942871,3.6671982-11.5217896
				c2.0894318,0.9358673,3.6987076,2.0526123,4.860817,4.0955048c1.9020844,3.342865,1.488205,7.1220093,1.4622803,10.8045044
				c-0.023056,3.2565918,0.5215607,6.6216431-0.3524017,9.806488
				C70.5490417,171.8186951,66.422554,175.1967316,63.7303734,175.6241455z"/>
			<path class="st3" d="M66.914711,154.0897217c0.0836487,0.3238373-0.1766739,0.6561584-0.4900284,0.7731323
				s-0.6607513,0.0747223-0.9923325,0.0308685c-0.4836807-0.0639648-3.922493-0.2670441-2.9941673-1.0437012
				c0.4327431-0.3620605,1.4680252-0.0626373,1.9536781-0.0138397
				C65.232811,153.9206848,66.073761,154.0052032,66.914711,154.0897217z"/>
			<path class="st3" d="M72.399704,154.7222595c0.0836487,0.3238525-0.1766739,0.6561584-0.4900284,0.7731323
				s-0.6607437,0.0747375-0.9923325,0.0308838c-0.4836807-0.0639801-3.922493-0.2670593-2.9941711-1.0437164
				c0.4327469-0.3620453,1.4680328-0.0626373,1.9536819-0.0138397
				C70.717804,154.5532379,71.558754,154.6377411,72.399704,154.7222595z"/>
			<path class="st3" d="M69.425621,162.6006012c-0.1441116,0.3552704-0.5696945,0.4927216-0.9478989,0.555603
				c-1.0021515,0.1666107-2.0410156,0.1085663-3.0183716-0.1686554c0.8130493-0.6649628,1.9157257-0.9622192,2.9528503-0.7960205
				c-0.5900879-1.2511139-1.1801758-2.502243-1.7702637-3.7533569c-0.1374207-0.2913513-0.4684753-0.8963776-0.0609512-1.1243896
				c0.4747772-0.2656555,0.7050247,0.5839081,0.8607101,0.8803864
				C69.3645554,161.8559265,69.6175613,162.1273804,69.425621,162.6006012z"/>
			<ellipse class="st3" cx="70.5934601" cy="157.6437836" rx="0.7326255" ry="1.5175813"/>
			<ellipse class="st3" cx="64.3138199" cy="156.8588257" rx="0.7326255" ry="1.5175813"/>
			<path class="st20" d="M71.2298813,165.7873688c-1.2446823,1.1742249-3.1056442,1.5-4.799324,1.2561493
				c-1.6936798-0.243866-3.2691307-0.9860535-4.8152733-1.719162c-0.5924416,1.6669006,0.2616844,3.8570862,1.8183479,4.6975403
				c1.5566635,0.8404388,3.5639496,0.6052399,5.0389328-0.3714905
				C69.9475403,168.6736755,70.8038712,167.504364,71.2298813,165.7873688z"/>
			<path class="st3" d="M230.5829163,150.2875824c-0.0836487,0.3238525,0.1766815,0.6561584,0.490036,0.7731323
				s0.6607513,0.0747375,0.9923248,0.0308838c0.4836884-0.0639648,3.9225006-0.2670593,2.9941711-1.0437164
				c-0.4327393-0.3620453-1.4680328-0.0626373-1.9536743-0.0138397
				C232.2648163,150.1185608,231.4238739,150.2030792,230.5829163,150.2875824z"/>
			<ellipse class="st3" cx="232.1597595" cy="154.2661438" rx="0.7326255" ry="1.5175813"/>
			<path class="st3" d="M233.2953033,162.8474731c0.3307343,0.5926056-1.5263367,1.2097473-1.8915558,1.3059235
				c-0.9763031,0.2539673-2.0226746,0.2056427-2.9727478-0.1269836c0.0219116-0.3328552,0.0612946-0.6654816,0.1094513-0.9938354
				c-0.0194702,0.1327209,2.0100403,0.1190338,2.1911774,0.1014557c0.3783875-0.0367279,0.7525787-0.1024933,1.1220245-0.1916199
				C232.3744659,162.8167877,233.0510864,162.4098511,233.2953033,162.8474731z"/>
			<path class="st2" d="M247.9705811,161.2069244c-0.6304779,1.0770111-1.9789124,2.0400696-3.1304169,2.5086517
				c0.4159546-1.2347565,0.8362274-2.4648285,1.252182-3.699585l0.4027557-0.3894958
				C247.184433,158.7285461,248.9922791,159.4458923,247.9705811,161.2069244z"/>
			<path class="st15" d="M137.3927307,95.4203949c0,0,10.0502319-2.9012833,14.3968658-2.8903885
				c0,0,5.5995789,45.9899673,8.4576111,55.2205887c0,0,9.9277649-49.7117538,9.5228119-56.2105026
				c0,0,8.6983032,1.9881897,12.2844543,4.3416138c0,0,4.8437347,0.1368332,4.0592804,30.7289124
				c-0.7844696,30.5920792-2.3878784,38.3468552-1.7206268,48.8558731l-7.8474884,10.2231293
				c0,0-15.4857483-11.6708984-15.7557373-11.6708984s-15.5894012,10.4515533-15.5894012,10.4515533l-9.0529633-8.3403931
				c0,0-1.3513641-26.002243-2.2071533-30.9533844c-0.8558044-4.9511414,0.3977661-26.4208679,1.9483795-38.2313309
				C137.0759125,97.9031372,137.3927307,95.4203949,137.3927307,95.4203949z"/>
			<path class="st0" d="M173.1453247,168.2863159c0,0-34.4107056-2.0671844-32.8771515-9.421524
				c1.5335541-7.3543243,36.5552063-0.1267548,36.5552063-0.1267548
				C179.3976593,162.6264038,178.9127655,165.9469604,173.1453247,168.2863159z"/>
			<path class="st16" d="M195.5316315,166.8175354c0,0-7.3887482,2.8093567-22.3863068,1.4687805
				c3.9766998-3.0300598,3.079483-7.0479584-0.2240906-11.5534821c0,0,14.4714203-2.1716003,14.7100372-6.973526
				c0.2386017-4.8019104,6.4138947-0.7136841,6.4138947-0.7136841L195.5316315,166.8175354z"/>
			<path class="st1" d="M159.1569824,96.4399261l1.6329193,1.3530197l2.3086243-1.3530197l4.1781769,3.9478073l0.0255585,1.5023651
				l-1.7364655,4.1477509c0,0-4.2870941-4.760437-4.5827332-6.1836548c0,0-2.0858612,4.3636017-4.0554352,5.7033539
				l-1.9743958-3.66745l1.9743958-4.8458481L159.1569824,96.4399261z"/>
			<path class="st23" d="M159.1569824,96.4399261l-4.2037506,5.4501724c0,0-2.3581848-4.7001495-3.802124-9.4133148
				c0,0,0.8677979-4.006279,2.4526215-3.9212112c0.050293,0.5382004-0.1814728,1.3460999,0.4549103,2.1059189
				C155.0423126,91.8359756,157.4369202,94.6640472,159.1569824,96.4399261z"/>
			<path class="st23" d="M163.098526,96.4399261l4.2037354,5.4501724c0,0,2.3582001-4.7001495,3.802124-9.4133148
				c0,0-0.8677979-4.006279-2.4526215-3.9212112c-0.050293,0.5382004,0.181488,1.3460999-0.454895,2.1059189
				C167.2131805,91.8359756,164.818573,94.6640472,163.098526,96.4399261z"/>
			<path class="st91" d="M175.2576904,93.5863647c0,0-0.3762054,44.9695282-6.3036499,58.5136719l2.6155548,0.5590668
				C171.5695953,152.6591034,181.5437622,117.4311829,175.2576904,93.5863647z"/>
			<path class="st91" d="M145.6079712,93.5863647c0,0,0.3762054,44.9695282,6.3036499,58.5136719l-2.6155548,0.5590668
				C149.2960663,152.6591034,139.3218994,117.4311829,145.6079712,93.5863647z"/>
			<path class="st11" d="M185.187027,154.9816589c-0.5670624,5.1187439-12.3112946,6.0053406-27.4980316,6.0053406
				s-27.644455-1.5853577-27.4980164-6.0053406c0.0778046-2.3481903,12.3112793-2.5028534,27.4980164-2.5028534
				S185.4457092,152.6464691,185.187027,154.9816589z"/>
			<ellipse class="st26" cx="157.6889954" cy="154.9816589" rx="27.4980183" ry="4.2540956"/>
			<path class="st7" d="M152.5759735,149.2673645c0.7923126,0.0725098,1.5995483,0.1802826,2.3110809,0.5362854
				c1.8706818,0.9359894,1.8956909,2.9586334,0.2526398,4.1290741c-0.747406,0.5324249-1.6575012,0.7738037-2.5455322,1.0050964
				c-2.8096008,0.7318115-5.660965,1.4689178-8.5639954,1.4261475c-1.9008636-0.0279999-4.7693787-0.322052-6.1235962-1.8409271
				c-1.3144073-1.4742279-0.6891022-2.6800385,0.8680878-3.4192047
				C142.8250275,149.1811981,148.1878815,148.865799,152.5759735,149.2673645z"/>
			<path class="st7" d="M172.9287262,150.5206451c0.7922974,0.0725098,1.5995483,0.1802826,2.3110809,0.5362854
				c1.8706665,0.9359894,1.8956909,2.9586487,0.2526398,4.1290894c-0.7474213,0.5324249-1.6575165,0.7737885-2.5455475,1.0050964
				c-2.8095856,0.7317963-5.660965,1.4689026-8.5639801,1.4261322c-1.9008636-0.0279999-4.7693787-0.3220367-6.1236115-1.8409271
				c-1.3144073-1.4742279-0.6890869-2.6800232,0.8680878-3.4191895
				C163.1777802,150.4344788,168.5406342,150.1190796,172.9287262,150.5206451z"/>
			<path class="st8" d="M140.8976135,151.0811005c0.4219055-0.0669861,0.9260712,0.1982727,0.9486847,0.6248779
				c0.0288239,0.5437622-0.7578125,1.0331726-1.236557,1.0697479c-0.2740631,0.0209351-0.7102203-0.1193848-0.785202-0.4308624
				C139.6932983,151.7994537,140.4207764,151.1568146,140.8976135,151.0811005z"/>
			<path class="st8" d="M145.6269379,153.150177c0.4219055-0.0669861,0.9260712,0.1982727,0.9486847,0.6248779
				c0.0176239,0.3325653-0.2495117,0.6107635-0.5275116,0.7941437c-0.8053284,0.5312195-1.4150543,0.1737213-1.4942474-0.1552582
				C144.4226227,153.8685303,145.1501007,153.2258911,145.6269379,153.150177z"/>
			<path class="st8" d="M148.2634125,149.6406555c0.4219208-0.0669861,0.9260712,0.1982727,0.9486847,0.6248779
				c0.0176392,0.3325653-0.2495117,0.6107635-0.5275116,0.7941437c-0.8053284,0.5312195-1.4150543,0.1737213-1.4942474-0.1552582
				C147.0590973,150.3590088,147.7865753,149.7163696,148.2634125,149.6406555z"/>
			<path class="st8" d="M152.4356537,151.2568665c0.4219208-0.0669861,0.9260712,0.1982727,0.9486847,0.6248627
				c0.0176392,0.3325806-0.2495117,0.6107635-0.5275116,0.7941437c-0.8053284,0.5312195-1.4150543,0.1737366-1.4942474-0.1552582
				C151.2313385,151.9752045,151.9588165,151.3325653,152.4356537,151.2568665z"/>
			<path class="st8" d="M160.7075043,153.150177c0.4219055-0.0669861,0.9260712,0.1982727,0.9486847,0.6248779
				c0.0288239,0.5437622-0.7578125,1.0331726-1.236557,1.0697479c-0.2740631,0.0209351-0.7102356-0.1193848-0.785202-0.4308624
				C159.5031891,153.8685303,160.2306671,153.2258911,160.7075043,153.150177z"/>
			<path class="st8" d="M166.6319275,154.2695007c0.4219055-0.0669861,0.9260712,0.1982727,0.9486847,0.6248627
				c0.0176392,0.3325806-0.2495117,0.6107635-0.5275116,0.7941589c-0.8053284,0.5312195-1.4150543,0.1737213-1.4942474-0.1552734
				C165.4276123,154.9878387,166.1550903,154.3452148,166.6319275,154.2695007z"/>
			<path class="st8" d="M168.9428101,150.5691071c0.4219208-0.0669861,0.9260864,0.1982727,0.9487,0.6248627
				c0.0176239,0.3325806-0.2495117,0.6107635-0.5275269,0.7941437c-0.8053131,0.5312195-1.4150543,0.1737366-1.4942474-0.1552582
				C167.7385101,151.2874451,168.4659882,150.6448059,168.9428101,150.5691071z"/>
			<path class="st8" d="M174.0979156,152.2966919c0.4219208-0.0669861,0.9260864,0.1982727,0.9487,0.6248779
				c0.0176239,0.3325653-0.2495117,0.6107635-0.5275269,0.7941437c-0.8053131,0.5312195-1.4150543,0.1737213-1.4942474-0.1552582
				C172.8936157,153.0150452,173.6210938,152.372406,174.0979156,152.2966919z"/>
			<path class="st27" d="M125.2144241,123.7501068c3.5852432,6.4722443,6.9940414,16.8913879,7.16465,26.0092773
				C132.0600433,148.0352631,131.2170868,139.2643585,125.2144241,123.7501068z"/>
			<path class="st27" d="M185.1772919,152.9073334c1.1985168-0.5131836,2.5657349-0.5805664,3.8703308-0.3745117
				c3.0164032,0.4542542,6.3130493,2.7415619,8.4518433,7.5673828c-2.5794373-3.1867676-4.4713898-5.9297485-8.5673218-7.0048828
				C187.7281342,152.7911224,186.4498749,152.6968842,185.1772919,152.9073334z"/>
			<path class="st11" d="M131.1671295,93.0109558c-0.5670471,5.1187439-12.3112793,6.0053482-27.4980164,6.0053482
				s-27.6444626-1.58535-27.4980164-6.0053482c0.0778046-2.3481827,12.3112793-2.5028458,27.4980164-2.5028458
				S131.425827,90.6757736,131.1671295,93.0109558z"/>
			<ellipse class="st26" cx="103.6691132" cy="93.0109558" rx="27.4980183" ry="4.2540956"/>
			<path class="st7" d="M98.5560837,87.296669c0.792305,0.0725021,1.599556,0.180275,2.3110809,0.5362854
				c1.8706741,0.9359818,1.8956985,2.9586411,0.2526398,4.1290817c-0.747406,0.5324249-1.6575089,0.7737961-2.5455322,1.0050964
				c-2.8096008,0.7317963-5.6609726,1.4689102-8.5639954,1.4261398c-1.900856-0.0280075-4.769371-0.3220444-6.1236038-1.8409348
				c-1.3143997-1.4742126-0.6890945-2.6800232,0.8680878-3.4191895
				C88.8051453,87.2105026,94.1679993,86.8951035,98.5560837,87.296669z"/>
			<path class="st7" d="M118.9088287,88.5499573c0.7923126,0.0725021,1.5995636,0.180275,2.3110886,0.5362778
				c1.8706741,0.9359894,1.8956909,2.9586411,0.2526398,4.1290817c-0.7474136,0.5324249-1.6575089,0.7737961-2.5455399,1.0050964
				c-2.8096008,0.7318039-5.660965,1.4689102-8.5639877,1.4261398c-1.900856-0.0279999-4.769371-0.3220444-6.1236038-1.8409271
				c-1.3144073-1.4742203-0.6890945-2.6800308,0.8680878-3.4191971
				C109.1578903,88.4637909,114.520752,88.1483917,118.9088287,88.5499573z"/>
			<path class="st8" d="M86.8777237,89.1104126c0.4219131-0.0669861,0.9260712,0.1982727,0.9486847,0.6248703
				c0.0288239,0.5437698-0.7578049,1.0331802-1.236557,1.0697556c-0.2740631,0.0209351-0.710228-0.1193924-0.785202-0.4308701
				C85.6734085,89.8287582,86.4008865,89.1861191,86.8777237,89.1104126z"/>
			<path class="st8" d="M91.607048,91.1794891c0.4219131-0.0669861,0.9260712,0.1982651,0.9486847,0.6248703
				c0.0288315,0.5437622-0.7578049,1.0331802-1.2365494,1.0697556c-0.2740631,0.0209351-0.710228-0.1193924-0.7852097-0.4308701
				C90.4027405,91.8978348,91.1302109,91.2551956,91.607048,91.1794891z"/>
			<path class="st8" d="M94.2435226,87.6699677c0.4219131-0.0669861,0.9260788,0.1982651,0.9486923,0.6248627
				c0.0288239,0.5437698-0.7578125,1.0331879-1.236557,1.0697556c-0.2740631,0.0209427-0.710228-0.1193848-0.7852097-0.4308624
				C93.0392151,88.3883057,93.7666931,87.7456741,94.2435226,87.6699677z"/>
			<path class="st8" d="M98.4157715,89.286171c0.4219131-0.0669937,0.9260712,0.1982651,0.9486847,0.6248627
				c0.0288239,0.5437698-0.7578049,1.0331802-1.236557,1.0697556c-0.2740631,0.0209427-0.710228-0.1193924-0.785202-0.4308701
				C97.2114563,90.004509,97.9389343,89.3618774,98.4157715,89.286171z"/>
			<path class="st8" d="M106.6876144,91.1794891c0.4219055-0.0669861,0.9260712,0.1982651,0.9486847,0.6248703
				c0.0288239,0.5437622-0.7578125,1.0331802-1.236557,1.0697556c-0.2740631,0.0209351-0.710228-0.1193924-0.785202-0.4308701
				C105.4832993,91.8978348,106.2107773,91.2551956,106.6876144,91.1794891z"/>
			<path class="st8" d="M112.6120377,92.2988052c0.4219131-0.0669861,0.9260712,0.1982727,0.9486923,0.6248703
				c0.0288239,0.5437698-0.7578125,1.0331802-1.236557,1.0697556c-0.2740631,0.0209351-0.710228-0.1193924-0.7852097-0.4308701
				C111.4077301,93.0171509,112.1352005,92.3745117,112.6120377,92.2988052z"/>
			<path class="st8" d="M114.9229279,88.5984116c0.4219131-0.0669861,0.9260712,0.1982651,0.9486847,0.6248703
				c0.0288315,0.5437622-0.7578049,1.0331802-1.2365494,1.0697556c-0.2740631,0.0209351-0.710228-0.1193924-0.7852097-0.4308701
				C113.7186203,89.3167572,114.4460907,88.674118,114.9229279,88.5984116z"/>
			<path class="st8" d="M120.0780334,90.326004c0.4219131-0.0669861,0.9260712,0.1982651,0.9486923,0.6248627
				c0.0288239,0.5437698-0.7578125,1.0331879-1.236557,1.0697632c-0.2740631,0.0209351-0.710228-0.1193924-0.7852097-0.4308701
				C118.8737259,91.044342,119.6011963,90.4017105,120.0780334,90.326004z"/>
			<path class="st0" d="M170.6869049,77.3378448c-0.5545197,2.8744354-1.6981812,5.3374252-4.2910614,6.9330063
				c-3.4960327,2.1513596-9.0076141,2.2324142-12.1384583-0.2552185c-1.3486938-1.0716171-2.2539063-2.5759659-2.9948578-4.1062088
				c-0.1791077-0.3698807-0.3123016-0.9178925-0.5672302-1.2351608c-0.4312286-0.5366898-1.019989-0.2317657-1.8793182-2.5501404
				c-0.6150665-1.6593781-1.2778473-5.1126404-0.4730682-6.7333832c0.3626556-0.7299042,0.8088531-0.7753296,1.6054382-0.93647
				c-0.5399475-3.339325-0.5782471-6.2521057,1.4693604-9.119812c5.2754974-7.3865051,18.792038-5.0648727,20.1107941,4.2575188
				c0.2282867,1.6142845-0.2677612,2.6794777-0.3688049,4.1968422c0.5496826,0.1602554,1.3412018,0.2854462,1.6876221,0.7756271
				c0.8551636,1.2101212,0.3269806,5.3162308-0.1004486,6.6698151
				C172.1270905,77.1975403,171.4500732,77.0665894,170.6869049,77.3378448z"/>
			<path class="st19" d="M158.6922913,79.6873932c1.1638794,0.1307907,2.7790527-0.2050247,3.7932739,0.2412567
				c0.0309296,0.3791275-0.1658325,0.5057907-0.3838348,0.8009567
				C160.6722412,82.04319,159.7963562,81.0831833,158.6922913,79.6873932z"/>
			<path class="st3" d="M164.2411957,66.6000824c0.1966248-0.0436554,1.4751434-0.0651093,2.0709381,0.0646286
				c0.6533661,0.1422806,1.621933,0.6121368,1.8979492,1.2740555c0.4099426,0.9809265-0.3362274,0.9872971-1.342392,0.6748734
				c-1.2085266-0.3258438-3.1912994,0.2275238-3.6980591-0.0970993
				C162.5059509,68.0914078,162.8768768,66.9030151,164.2411957,66.6000824z"/>
			<path class="st3" d="M158.0071106,66.9319c1.3396759,0.7068176,1.3809357,1.6286163,0.5672607,1.7015305
				c-1.0607452,0.095047-2.3288727-0.3181839-3.6009521,0.1023636c-0.4387054,0.1450348-0.8857727,0.319046-1.3546295,0.3185272
				c-0.6186523-0.0006104-0.7856445-0.816124-0.526413-1.2383957
				C153.7003784,66.8255463,156.9236908,66.3607101,158.0071106,66.9319z"/>
			<ellipse class="st3" cx="165.3833313" cy="71.8230515" rx="0.9684288" ry="1.6274984"/>
			<ellipse class="st3" cx="156.2007294" cy="71.8230515" rx="0.9684288" ry="1.6274984"/>
			<path class="st2" d="M171.1699219,75.3639832c-0.0176086-1.9703522-0.0352325-3.9407043-0.0528412-5.9110565
				C172.3686218,71.4714508,172.4841919,73.3857269,171.1699219,75.3639832z"/>
			<path class="st2" d="M150.5949554,76.7899399c-0.220871-1.9580154-0.4417572-3.9160309-0.6626282-5.8740463
				C148.9341583,73.0710068,149.0510101,74.985199,150.5949554,76.7899399z"/>
			<path class="st3" d="M166.3486633,57.2539749c0.137146,1.0139084-0.701889,1.9607735-1.6751251,2.2764549
				c-2.9263,0.9491959-5.1746368-2.1248207-8.9232483,0.6164169c-1.0646973,0.7785912-1.7500305,1.5820503-4.8070984,4.8411369
				c-0.8399963,0.8955002-1.1629791,1.4139252-0.6405182,3.48172c-0.6270752,0.2084732-1.3728333-0.2052917-1.5962067-0.8272018
				c-0.2233734-0.6219177-0.1136322-1.3079147-0.0012817-1.9591064c0.4872742-2.8245354,1.0267029-5.7719688,2.7724152-8.045269
				c3.0961456-4.0318413,11.4220276-6.101387,14.5841522-2.156086c1.2000275-0.4178696,2.565094,0.1855202,3.4099731,1.1346474
				c0.8448944,0.9491234,1.2815399,2.1832542,1.6987305,3.3835182c0.9779816,2.8137131,2.0296326,6.088356,0.284729,8.7624207
				c-0.6307526-0.6053696-0.8416595-1.5259705-0.9034882-2.3980408c-0.1634369-2.3047256,0.1891632-2.7424927-1.8309937-5.3336143
				C167.8509064,59.9153481,167.2184601,58.3696022,166.3486633,57.2539749z"/>
			<g>
				<path class="st4" d="M207.5720062,211.3556824c0,5.6822815-10.2155151,9.2812653-22.8169708,9.2812653
					s-23.1783142-3.8738403-22.8169708-9.55336c0.2630615-4.1346741,10.2155151-5.4498749,22.8169708-5.4498749
					S207.5720062,207.2126465,207.5720062,211.3556824z"/>
				<ellipse class="st20" cx="184.7550354" cy="211.3556824" rx="22.8169651" ry="7.5016227"/>
				<ellipse class="st1" cx="184.7550354" cy="211.3556824" rx="15.6920986" ry="5.1591525"/>
			</g>
			<g>
				<path class="st4" d="M142.3639374,222.0549011c0,5.6822815-10.2154999,9.2812653-22.8169632,9.2812653
					s-23.1783142-3.8738556-22.8169632-9.55336c0.2630615-4.1346741,10.2154999-5.4498749,22.8169632-5.4498749
					S142.3639374,217.9118652,142.3639374,222.0549011z"/>
				<ellipse class="st20" cx="119.5469742" cy="222.0549011" rx="22.8169651" ry="7.5016227"/>
				<ellipse class="st1" cx="119.5469742" cy="222.0549011" rx="15.6920986" ry="5.1591525"/>
			</g>
			<g>
				<path class="st2" d="M200.6822815,222.5289764c-0.0297852-0.2045898,0.112793-0.3950195,0.3178711-0.4243164
					c3.7294922-0.5366211,7.5214844-0.6196289,11.2719727-0.2426758c0.2060547,0.0205078,0.355957,0.2045898,0.3354492,0.4106445
					s-0.2084961,0.3623047-0.4106445,0.3354492c-3.6894531-0.3691406-7.4204102-0.2895508-11.090332,0.2387695
					C200.9141541,222.8780518,200.7129211,222.7423096,200.6822815,222.5289764z"/>
			</g>
			<g>
				<path class="st2" d="M201.4498596,224.5641327c3.0581055-0.7172852,6.2998047-0.765625,9.3754883-0.1416016
					c0.483078,0.0986938,0.3416138,0.830719-0.1494141,0.7353516c-2.972168-0.6040039-6.1035156-0.5566406-9.0546875,0.1367188
					C201.1394043,225.4089355,200.9666138,224.6779022,201.4498596,224.5641327z"/>
			</g>
			<g>
				<path class="st2" d="M211.0587463,228.0485077c-2.9272461-0.8022461-5.9448242-1.0849609-8.9697266-0.8408203
					c-0.1967773,0.0136719-0.387207-0.1367188-0.4042969-0.34375c-0.0166016-0.206543,0.137207-0.387207,0.34375-0.4042969
					c3.109375-0.2509766,6.2167969,0.0400391,9.2285156,0.8652344
					C211.7331085,227.455246,211.5413055,228.176239,211.0587463,228.0485077z"/>
			</g>
		</g>
	</g>
</g>
</svg>
