<?xml version="1.0" encoding="utf-8"?>
<!-- Generator: Adobe Illustrator 22.0.1, SVG Export Plug-In . SVG Version: 6.00 Build 0)  -->
<svg version="1.1" id="Layer_1" xmlns="http://www.w3.org/2000/svg" xmlns:xlink="http://www.w3.org/1999/xlink" x="0px" y="0px"
	 viewBox="0 0 300 300" style="enable-background:new 0 0 300 300;" xml:space="preserve">
<style type="text/css">
	.st0{fill:#EDC1A4;}
	.st1{fill:#E2E0E0;}
	.st2{fill:#D39E81;}
	.st3{fill:#502E26;}
	.st4{fill:#CCCACA;}
	.st5{fill:#426800;}
	.st6{fill:#538705;}
	.st7{fill:#D47E44;}
	.st8{fill:#73341D;}
	.st9{fill:#BC672E;}
	.st10{fill:#96311D;}
	.st11{fill:#B83E21;}
	.st12{fill:#DE8D82;}
	.st13{fill:#EFBAB4;}
	.st14{fill:#FDD5D0;}
	.st15{fill:#6883CE;}
	.st16{fill:#3D4885;}
	.st17{fill:#3859AE;}
	.st18{fill:#864424;}
	.st19{fill:#FEFEFE;}
	.st20{fill:#FFFFFF;}
	.st21{fill:#A55925;}
	.st22{fill:#F4F2F2;}
	.st23{fill:#3C3E68;}
	.st24{fill:#E8997C;}
	.st25{fill:#F5C46B;}
	.st26{fill:#F7EBDA;}
	.st27{fill:#0E0C0D;}
	.st28{fill:#657C3A;}
	.st29{fill:#576C37;}
	.st30{fill:#7C995D;}
	.st31{fill:#36518C;}
	.st32{fill:#96B7E3;}
	.st33{fill:#A3B3DF;}
	.st34{fill:url(#SVGID_1_);}
	.st35{fill:url(#SVGID_2_);}
	.st36{fill:url(#SVGID_3_);}
	.st37{fill:url(#SVGID_4_);}
	.st38{fill:url(#SVGID_5_);}
	.st39{fill:#266AB7;}
	.st40{fill:#060E0D;}
	.st41{fill:#E0D4C6;}
	.st42{fill:#787E42;}
	.st43{fill:#D3D1D1;}
	.st44{fill:url(#SVGID_6_);}
	.st45{fill:url(#SVGID_7_);}
	.st46{fill:url(#SVGID_8_);}
	.st47{fill:#020508;}
	.st48{fill:#BAB6B6;}
	.st49{fill:#0F0B07;}
	.st50{fill:#2F3A68;}
	.st51{fill:#203257;}
	.st52{opacity:0.5;fill:#FFFFFF;}
	.st53{opacity:0.2;fill:#0E0C0D;}
	.st54{fill:#DD9F9B;}
	.st55{fill:#3E4D9B;}
	.st56{fill:url(#SVGID_9_);}
	.st57{fill:#5F6194;}
	.st58{fill:url(#SVGID_10_);}
	.st59{fill:url(#SVGID_11_);}
	.st60{fill:url(#SVGID_12_);}
	.st61{fill:url(#SVGID_13_);}
	.st62{fill:#070102;}
	.st63{fill:#100805;}
	.st64{fill:#FDA465;}
	.st65{fill:#2A50A1;}
	.st66{fill:#B76C39;}
	.st67{fill:#130602;}
	.st68{fill:url(#SVGID_14_);}
	.st69{fill:url(#SVGID_15_);}
	.st70{fill:url(#SVGID_16_);}
	.st71{fill:url(#SVGID_17_);}
	.st72{fill:url(#SVGID_18_);}
	.st73{fill:url(#SVGID_19_);}
	.st74{fill:#B4BDED;}
	.st75{fill:#100D08;}
	.st76{fill:#F6C85F;}
	.st77{fill:#FECF00;}
	.st78{fill:#2D59E2;}
	.st79{fill:#121F3A;}
	.st80{fill:#BBD0F5;}
	.st81{fill:#020202;}
	.st82{fill:#E2CFB7;}
	.st83{fill:#080805;}
	.st84{fill:#A87D7C;}
	.st85{fill:#182052;}
	.st86{fill:#EAEAEA;}
	.st87{fill:#DDDDDD;}
	.st88{fill:#3D4574;}
	.st89{fill:#ABC5F0;}
	.st90{fill:url(#SVGID_20_);}
	.st91{fill:#4159A8;}
	.st92{fill:#E0D0BD;}
	.st93{fill:#3D53AA;}
	.st94{fill:#0A0000;}
	.st95{fill:#BF6D36;}
	.st96{fill:#385DAE;}
	.st97{fill:#E0DCDC;}
	.st98{fill:#857E78;}
	.st99{fill:#0E213C;}
	.st100{fill:url(#SVGID_21_);}
	.st101{fill:#55608E;}
	.st102{opacity:0.3;fill:#F4F2F2;}
	.st103{opacity:0.3;}
	.st104{fill:#213987;}
	.st105{enable-background:new    ;}
</style>
<g id="Serving_Burger_1_">
	<g id="Serving_Burger">
		<g>
			<path class="st7" d="M153.9740601,79.0605392l-8.4972382,3.4526215l-6.3896637-0.0671082l-3.9008636-1.9650574
				l-0.083786-3.2975388l2.3044739-2.7987595c0.0479736-0.1001053,3.0479736-6.3600082,2.8574677-5.9624939
				c0.9725189-0.4688339,11.6613464-5.6217651,12.9847565-6.2597618l1.9692535,0.9093895
				c0,0-0.4441528,6.5948792,0.737442,8.7191086C157.1415863,73.9110794,153.9740601,79.0605392,153.9740601,79.0605392z"/>
			<path class="st8" d="M152.6499634,69.695961c-1.3188477,1.9947739-7.8637543,5.1353989-14.9874573,4.156601l2.601944-5.4303589
				l5.5182343-2.6604538c1.499939-0.1006622,3.0083618-0.0963593,4.4958038,0.1004486
				c0.9553223,0.1215286,2.0028229,0.38974,2.5307465,1.1982727
				C153.3204041,67.8399429,153.1611328,68.916687,152.6499634,69.695961z"/>
			<g>
				<path class="st1" d="M128.857193,276.6244507c-0.5540009,0.7081909-1.4537582,0.9259644-2.2917023,1.0074463
					c-8.4273453,0.8221741-21.962326-0.8351135-33.8814468-5.8435059c-1.187027-0.4921875-3.340683-1.1513672-4.15802-2.1357422
					c-0.5839462-0.6921692-0.0636826-1.8515015,0.2704697-2.7745972c1.9302368-4.1593628,6.1292801-5.0811768,10.4545135-5.559906
					c6.1289978-0.7026672,8.5330734-0.6679688,9.558197-1.8160706c0.2633667-0.2897034,0.3986664-0.7262878,0.6204681-1.0641785
					c0.4412994-0.6724243,0.9368744-1.3742981,1.5294189-1.9197388c5.4814148,2.6889648,11.263382,2.5071411,17.1942902,1.4718628
					c0.3658905,4.8949585,0.184433,9.7980347,1.097229,14.6341248
					C129.3864746,273.8459778,129.6790619,275.5683594,128.857193,276.6244507z"/>
				<path class="st13" d="M114.5509033,265.473999c-0.1033401,0.0878906-0.2503052,0.1160278-0.381546,0.0987854
					c-0.4123306-0.0535889-0.6994476-0.4185486-0.963707-0.7075195c-1.0177689-1.1108704-1.5409393-2.0804138-2.3249283-2.8121643
					c-0.8352737-0.7886963-1.827034-1.3882446-2.7781601-2.0264282c0.2134094-0.1051331,0.4124146-0.2402039,0.5832214-0.3994446
					c1.5863876,1.0643921,4.6455231,2.7192383,5.7101669,5.0278015
					C114.5032578,264.8842468,114.8133698,265.2443237,114.5509033,265.473999z"/>
				<path class="st13" d="M112.172699,266.6618347c-0.5265045,0.7745361-3.3163681-2.0611267-5.6204605-3.5682983
					c-1.313797-0.8612061-2.8514633-1.3960266-4.2882385-2.0151672c-0.048851-0.0226135-0.1010666-0.0475159-0.148674-0.0794373
					c0.4645233-0.0534973,0.9322433-0.1046143,1.396759-0.1581116c2.2166138,0.6608276,4.2700806,1.7850952,6.1619644,3.1356506
					c0.3658447,0.2609558,2.2710724,1.6562805,2.5026321,2.0846863
					C112.2698822,266.2452698,112.2922821,266.4836121,112.172699,266.6618347z"/>
				<path class="st15" d="M129.2505493,272.622345c0.1342773,1.2244568,0.4285583,2.9443665-0.393631,3.999939
					c-0.5537872,0.7112732-1.4530258,0.9281616-2.2907104,1.0100708c-8.2933655,0.8074036-21.7157516-0.7537231-33.882782-5.8426514
					c-1.1868515-0.4945374-3.3391266-1.1527405-4.1580048-2.1361694c-0.5764542-0.6924438-0.0745163-1.8279724,0.2730942-2.7754211
					c10.6348495,3.6450195,21.6977921,6.0872803,33.0618668,6.1120911
					C124.3196182,272.9956665,126.7907944,272.7480469,129.2505493,272.622345z"/>
				<path class="st7" d="M111.3050156,245.3552551c4.8455582,0.7582855,13.06427,0.6639557,17.9831161-0.0812836
					c-0.318161,3.2919769-1.0257721,9.4221497-1.1362915,12.7167206c-5.928894,1.036438-11.7108231,1.2145691-17.1927109-1.4725952
					C111.3201599,255.3293762,111.208519,246.4331055,111.3050156,245.3552551z"/>
			</g>
			<g>
				<path class="st1" d="M224.2125092,261.2928772c-0.0670471,0.892395-0.7080688,1.571228-1.3743134,2.1031494
					c-6.6298676,5.2968445-19.0644073,11.4692688-32.1536713,13.9567566
					c-1.2905426,0.2514343-3.4985962,0.9007874-4.7555847,0.5405273c-0.4064636-0.1131592-0.678772-0.4398804-0.8505707-0.8128357
					c-1.2312927-2.7309875-0.4686127-5.7596436,1.2653656-8.1577148c1.0977783-1.5295105,2.5055847-2.6774292,3.9511566-3.8632202
					c5.2373199-4.3304443,6.2747498-4.9866028,6.7918854-5.9749756c0.5329895-0.8999939,0.2287598-1.4086304,0.2220764-2.0487366
					c-0.0083771-0.800354,0.0125885-1.6551208,0.205307-2.4343872c6.1969604-0.8171234,11.0112-4.173172,15.4650726-8.3170929
					c3.1047668,3.8421478,5.7485962,7.9944611,9.2849426,11.484726
					C223.0770569,258.7033997,224.3088684,259.9644775,224.2125092,261.2928772z"/>
				<path class="st13" d="M205.6803741,260.0107422c-0.3117065,1.0727844-3.4517517-0.5376282-5.0740814-0.7919617
					c-1.1605682-0.1886292-2.3463135-0.1342163-3.519516-0.1342163c0.121521-0.2052002,0.2136993-0.4271851,0.2681122-0.6534424
					c2.0645599,0,5.4931488-0.3346558,7.7263031,0.9887695C205.3032684,259.5498047,205.7725372,259.675415,205.6803741,260.0107422
					z"/>
				<path class="st13" d="M204.3354187,262.3109131c-0.0058136,0.9342346-4.0114441,0.1356812-6.8170624,0.1675415
					c-1.6089783,0.0167847-3.2220917,0.4273987-4.7975311,0.7123718c-0.0544586,0.0083923-0.1130829,0.0167847-0.1717987,0.0167847
					c0.3645782-0.3017578,0.7332458-0.6033325,1.0978241-0.9050903c2.2625275-0.6829224,4.6507721-0.8924255,7.0307465-0.8253174
					c0.459137,0.0127869,2.8769531,0.1094666,3.3184052,0.3351135
					C204.1803284,261.9127808,204.3354187,262.0973206,204.3354187,262.3109131z"/>
				<path class="st15" d="M222.263092,257.7676086c0.8130188,0.9374084,2.0448761,2.1954956,1.9479675,3.5236511
					c-0.0651245,0.8948059-0.7062225,1.5726318-1.371994,2.1047363
					c-6.5868225,5.2602844-18.8941345,11.4161682-32.1543121,13.9582214
					c-1.291748,0.2493896-3.4980469,0.8988037-4.7558136,0.5401611c-0.8805237-0.2511902-1.1024475-1.4527283-1.3516388-2.4449158
					C203.0367889,270.6638184,212.1007843,265.1495361,222.263092,257.7676086z"/>
				<path class="st7" d="M191.4377441,245.1850586c4.5542755-2.0599976,11.4910889-6.6948242,15.249649-10.0379181
					c1.6080933,2.8967743,4.5046997,8.3548279,6.2909088,11.1386261c-4.4514923,4.1437531-9.267807,7.4967346-15.4641418,8.3156128
					C197.1428375,253.4188843,191.9707947,246.1292572,191.4377441,245.1850586z"/>
			</g>
			<path class="st15" d="M144.165329,204.7674255c-3.2932434,20.0196991-9.8924255,48.5197449-9.8924255,48.5197449
				c-16.9650955,0.791748-27.268219-5.5895386-27.268219-5.5895386c0.2264023-1.5719452-1.0208664,7.0880585,7.6760101-53.2960358
				c0,0,3.2848587-1.7473755,7.7262497-3.7793427c8.6439133-3.9552917,21.6620102-9.0083923,23.2960587-4.3869629
				C146.7504883,189.1871185,144.6818695,201.6161041,144.165329,204.7674255z"/>
			<path class="st16" d="M145.0536346,199.0062408c-0.2556305,1.8101959-0.5572968,3.7416992-0.8883057,5.7611847
				c-10.269577,0.2849884-20.5851822-1.2318268-30.3352051-4.4665527l0.8505707-5.8992767
				c0,0,3.2848587-1.7473755,7.7262497-3.7793427C130.2756805,192.4154663,137.9139557,195.2352905,145.0536346,199.0062408z"/>
			<path class="st15" d="M210.1570282,236.2256012c0,0-10.692749,10.2445068-23.4972229,14.7444153
				c0,0-23.0238037-21.7918396-29.2081146-38.652298c0,0-3.6285095-5.9831543-1.9273682-12.7457886
				c1.6968994-6.7626343,4.9441071-12.8169861,4.9441071-12.8169861l29.4511719-1.6090851
				c-0.0040741,0.1000519,0.0336914,11.6248322-1.4664764,19.6510315
				C188.453125,204.7968903,206.2562103,228.8011322,210.1570282,236.2256012z"/>
			<path class="st16" d="M189.8819122,188.1459351c-0.0167847,0.6871948-0.0419464,1.4705658-0.0712433,2.3253326
				c-4.3198242,1.7389984-8.7612,3.1887054-13.2821808,4.33255c-3.2974396,0.8379822-6.7457581,1.5084229-10.0809937,0.8547668
				c-1.0935669-0.2095642-1.5370331-0.9063568-0.5530548-1.6718903
				C172.6059875,188.6964874,181.409317,187.707428,189.8819122,188.1459351z"/>
			<path class="st43" d="M132.3105164,76.9895325c0,0-15.8983994,1.856575-22.5398331,17.6324997
				c-6.6414261,15.7759323,1.6487045,24.3198013,2.2453842,24.4468384c0.5966797,0.1270294,12.1368256-2.957962,12.1368256-2.957962
				l2.2560349-13.8026505l1.898613-12.7402267"/>
			<path class="st1" d="M158.7910919,75.023056c0,0,14.6821442,7.1839294,19.4491425,25.681633
				c3.9009399,15.1370697,4.0395355,20.5842896,4.0395355,20.5842896v6.1123886l0.8324432,0.5444717
				c0,0,9.8442688,16.928154,10.8222046,39.8300705c0.977951,22.9019165-0.4422455,20.4209442-1.1137543,20.8417816
				s-6.9407959,4.0956268-24.7513733,5.1133728s-43.1153336-96.8454666-43.1153336-96.8454666l4.5163803-15.2175446
				l7.2784271-5.7971039c0,0,3.8065643,2.9388885,15.8889923-0.8912582L158.7910919,75.023056z"/>
			<path class="st11" d="M175.277832,201.1685486c0,0-7.606781-60.1976776-9.1347961-67.9335175
				c0,0,14.9703369-4.0482025,16.9691772-5.2891922c0,0,0.2820282-3.0851593-0.8324432-6.6568604
				c0,0-24.123703,7.1306229-27.1416779,6.6568604s-5.7498779-43.7244568-5.7498779-43.7244568
				s9.2402344-8.616333,9.4028778-9.1983261c0.1626282-0.5819855-2.2195282-3.7143326-2.8331909-3.2338257
				c-0.6136627,0.4805145-11.4708557,7.9608383-16.6515808,21.9756393l-10.9987793-4.1968384
				c0,0,5.7892914-11.7045288,8.4412231-13.6970825l0.6572723-1.4852295c0,0-4.1612396-0.0352631-9.4768372,7.3949356
				c-5.3155975,7.4302063-10.1647873,14.1339188-11.0120926,19.803627
				c-2.7801361,18.6032486-9.237999,45.6502609-11.0668106,63.9295883
				c-1.454277,14.5357819-2.6389389,31.0602722-2.6389389,31.0602722S133.8529205,208.0593109,175.277832,201.1685486z"/>
			<path class="st7" d="M105.9895096,98.9899521c0,0,0,9.6259689,7.8515015,12.2183609
				c6.6632004,2.2000504,17.0463181,7.033577,17.0463181,7.033577l2.8861847-8.4858704l26.161911,12.5541306
				c0,0-6.9344635,12.0816803-11.8517456,15.8501129c-3.4394684,2.6358795-9.1657104,6.5662384-19.4860382,4.3931274
				c-14.2453613-2.999588-23.3171844-14.4774933-28.2321243-28.0524597c0,0-16.6614685-1.3118362-18.7260056-10.6022491
				S105.9895096,98.9899521,105.9895096,98.9899521z"/>
			<path class="st0" d="M78.6237793,93.7648697c0,0-4.2809296,4.1614456-2.3339615,7.8222122
				c1.9469681,3.660759,8.4972763,7.1586685,29.6851349,5.7306671c0,0,13.7524948-0.2456589,9.9380569-9.8624649"/>
			<linearGradient id="SVGID_1_" gradientUnits="userSpaceOnUse" x1="75.7821579" y1="91.564827" x2="118.5797424" y2="91.564827">
				<stop  offset="0" style="stop-color:#622C22"/>
				<stop  offset="1" style="stop-color:#8B3D2F"/>
			</linearGradient>
			<path class="st34" d="M117.8495712,92.0203094c4.1103668,8.4177856-9.9662857,5.9372406-21.3874893,5.9372406
				s-20.679924-1.5528641-20.679924-5.670639s9.2587204-7.4558945,20.679924-7.4558945
				S116.042778,88.3200989,117.8495712,92.0203094z"/>
			<path class="st14" d="M96.4977341,89.1443787c2.5235748,0.9913177,4.7103882,2.8190994,6.1337738,5.1267166
				c1.0913544,1.7693253,2.3454971,3.6306992,4.4596786,2.0681381c1.3841858-1.0230331,2.1137085-3.2904739,3.185524-5.0731506
				c1.691864-2.8139801,3.1725769-2.6396408,3.9382629-3.2066193c0.3378525-0.2501678,0.5765152-0.705719,0.4142914-1.093544
				c-0.1312027-0.3136673-0.4697876-0.4784775-0.7823105-0.6123886c-9.5165329-4.0775681-20.5447845-4.5041656-30.3478699-1.1739426
				c-0.5324707,0.1808853-1.0789795,0.38311-1.4816513,0.7756577c-0.3051224,0.2974548-0.7386475,1.0703812-0.3192444,1.4109039
				c0.3610382,0.2931366,1.7996979,0.1347122,2.2708588,0.1651001
				C90.3023071,87.939743,93.5289612,87.9781647,96.4977341,89.1443787z"/>
			<ellipse class="st8" cx="97.180954" cy="80.6520767" rx="19.7361584" ry="6.7600336"/>
			<path class="st29" d="M93.4589767,69.4612579c-3.296051-0.3558807-5.9623718,3.2941055-8.4367142,2.2037354
				c-0.711937-0.3137512-1.4907532-0.7567368-2.2163391-0.4759903c-0.668045,0.2584839-0.9820099,1.0282059-1.5641174,1.4456406
				c-0.9184113,0.6585999-2.2590408,0.3128281-3.1930771,0.9397354c-0.4653854,0.312355-0.7702408,0.9424667-0.5288849,1.4483261
				c0.2847366,0.5968094,1.1965256,0.8282166,1.23452,1.4883804c0.0353317,0.6137695-0.6971512,0.9216614-1.1899567,1.2892303
				c-1.6248322,1.2118835-0.4272385,4.8459396,1.5240555,3.5311737c0.4581146-0.3086777,0.6544495-0.871109,0.9021683-1.3648682
				c0.6687775-1.3330078,1.765007-1.3122101,2.3831024,0.0291443c0.2277908,0.4943314,0.3992615,1.0531769,0.8328476,1.3822021
				c0.6566925,0.4983292,1.6417007,0.2318726,2.2600021-0.3133698c0.6182938-0.5452347,0.9961472-1.3057175,1.4948273-1.9621506
				s1.2215652-1.2507401,2.0447388-1.2063904c1.9480667,0.1049423,2.6034546,3.5425339,4.641037,3.1858749
				c1.0449905-0.1829147,1.5115128-1.3775177,2.2190247-2.1680145c1.2477036-1.3940353,3.6870804-1.4658356,5.0146179-0.1476059
				c0.7366409,0.7314835,1.3837738,2.1198883,2.5966873,1.9679489c0.5717468-0.0716248,1.0086136-0.5254059,1.5148773-0.8005829
				c1.0424728-0.5666275,2.3548279-0.3431244,3.4189606,0.1817017c1.9403534,0.9569778,3.9325027,3.2980042,6.350769,2.7700272
				c1.6829681-0.3674393,2.7657928-2.4174652,2.1205597-4.0146713c-0.1032181-0.2554855-0.2422409-0.4974213-0.3169022-0.7626648
				c-0.2136154-0.7589493,0.1999283-1.6435852,0.9192581-1.9664078c0.2728958-0.8152771-0.2513962-1.7251358-0.9815292-2.1790848
				c-1.4627762-0.9094849-3.4847565-0.4080658-4.9268723-1.3628693c-1.1003647-0.7285385-1.5983658-2.1565857-2.7310562-2.8337708
				c-1.3723907-0.8204803-3.1436691-0.2545013-4.5503311,0.505722c-1.4066696,0.7602234-2.8264999,1.7304688-4.4247437,1.6828461
				C97.5568466,71.8855743,95.7602844,69.7097397,93.4589767,69.4612579z"/>
			<linearGradient id="SVGID_2_" gradientUnits="userSpaceOnUse" x1="81.524498" y1="75.4510803" x2="115.0225906" y2="75.4510803">
				<stop  offset="0" style="stop-color:#FCD292"/>
				<stop  offset="1" style="stop-color:#FFECC4"/>
			</linearGradient>
			<path class="st35" d="M91.4295959,84.2213821c2.6812134-3.1540222,5.4245453-6.3620758,8.9526291-8.527565
				c4.3224792-2.6530914,9.6944122-3.540123,14.6403656-2.4174728c-2.4946976-3.4376221-6.7700729-4.5542679-10.9328003-5.2685394
				c-6.3989868-1.0978851-12.9140396-1.5161743-19.4009476-1.2487488c-0.8573914,0.0353394-3.1506119-0.3306885-3.164299,0.9759903
				c-0.0103149,0.98452,1.6941376,1.7524643,2.3495636,2.3126602
				C87.9923859,73.5676422,90.8383942,78.7079239,91.4295959,84.2213821z"/>
			<ellipse class="st8" cx="97.180954" cy="65.4422913" rx="19.7361584" ry="6.7600336"/>
			<path class="st11" d="M83.2082138,64.5820923c1.297287-0.4930878,2.3312988-1.8712196,3.7098312-1.7108078
				c1.8910294,0.220047,2.4777985,3.1027603,4.3470612,3.4636993c2.5657349,0.4954224,3.9219055-3.9775581,6.5033417-3.3479118
				c1.8996353,0.4633446,2.4386902,3.6346321,4.3926315,3.5609856c1.4708328-0.0554428,2.1133347-1.9555511,3.4278641-2.617691
				c1.0947571-0.5514374,2.4387207-0.1267815,3.4704056,0.5351868c1.0316849,0.6619644,1.9229126,1.5545349,3.0438385,2.050621
				c1.3418045,0.5938263,3.0521622,0.4998169,4.1251984-0.5010147s1.1911621-2.9589081,0.0530472-3.8850708
				c-0.7563858-0.6155319-1.8272858-0.6758232-2.6626358-1.1790123c-1.0421448-0.627758-1.5807037-1.8520164-2.5447693-2.5941391
				c-1.5242844-1.1733818-3.7032089-0.8778152-5.5319519-0.2811852c-1.8287354,0.5966263-3.67836,1.449501-5.5869598,1.2096748
				c-2.7735291-0.3485107-5.2532654-2.9595337-7.9361725-2.1746826c-1.620697,0.4741211-2.7356567,2.1030312-4.3850937,2.4647255
				c-0.9406891,0.2062759-1.9159546-0.0346146-2.8450623-0.2880325c-1.7780228-0.4849586-4.9735336-0.6616135-5.6738586,1.6433945
				C78.4004135,63.2825394,81.0413437,65.4056854,83.2082138,64.5820923z"/>
			<path class="st7" d="M113.3998184,61.6110306c0.8778763-0.0523376,5.1630325,0.6472015,3.6120911-1.5820389
				c-0.3949509-0.5676842-1.0997696-0.815567-1.7598038-1.0220757c-8.8167343-2.7585411-18.0591125-4.1520958-27.2972412-4.1158371
				c-2.3485413,0.0092163-4.7824402,0.1313629-6.8757553,1.1961403c-0.8292847,0.4218178-1.6862106,1.2670555-1.3766479,2.1444473
				c0.2636032,0.7471199,1.1884918,0.9765816,1.9718399,1.0950775c2.2077026,0.33395,4.4152603,0.6688957,6.6231079,1.0018539
				c1.8733749,0.2825165,3.214325,1.2665291,4.7129974,2.4244041c1.4455948,1.1168709,2.778923,2.3798409,3.9668198,3.7678795
				c0.4584274,0.5356674,3.3025208,3.6829605,3.0046463,4.3500366
				C102.3166809,65.6422348,107.3965378,61.9689331,113.3998184,61.6110306z"/>
			<path class="st3" d="M112.5154419,62.2418404c1.2181168,0.0469017,2.4580765,0.0772591,3.6337814-0.2447929
				c1.1757126-0.322052,2.2975998-1.0511703,2.8084183-2.1580009c-3.0317535-2.2220955-6.8851929-2.9166107-10.5903015-3.5501671
				c-7.970932-1.3629951-16.0973816-2.7293358-24.103569-1.5916405c-0.8989639,0.1277428-1.8406754,0.3081322-2.5321732,0.8965874
				c-2.2166443,1.8863411,0.7185745,2.5685501,2.1089096,2.8831902
				C93.1248856,60.5781097,102.7347336,61.8652649,112.5154419,62.2418404z"/>
			<path class="st29" d="M96.0015182,46.8289795c-3.2765656-0.5047569-6.1054153,3.0207596-8.5278473,1.8194695
				c-0.6969986-0.345665-1.4549561-0.8234558-2.1925125-0.5758514c-0.6790619,0.2279701-1.0275574,0.9826813-1.6279678,1.373333
				c-0.9472885,0.6163406-2.2708969,0.2102242-3.2323608,0.7941933c-0.4790497,0.290966-0.8121185,0.90662-0.5939178,1.4228935
				c0.257431,0.6090851,1.1577988,0.881546,1.1658707,1.5427475c0.0074997,0.6147423-0.7381744,0.8891563-1.2471161,1.2340317
				c-1.6780396,1.1370735-0.646225,4.8216248,1.3626022,3.5965614c0.4716263-0.2876205,0.693222-0.8405876,0.9630432-1.3226166
				c0.7284546-1.3013649,1.8226166-1.2309494,2.3793411,0.1370125c0.2051773,0.5041428,0.3511581,1.070179,0.7694092,1.418499
				c0.633461,0.5275536,1.6295166,0.3059692,2.2718658-0.2107162c0.6423569-0.5166855,1.0542526-1.2592773,1.5821457-1.8924599
				c0.5278854-0.6331787,1.2769394-1.1941414,2.0972672-1.1125717c1.9413147,0.1930428,2.4403763,3.6567841,4.4920197,3.3927536
				c1.0522003-0.1354141,1.5723343-1.3076668,2.3149185-2.0653191c1.3095398-1.3361092,3.7496719-1.2973862,5.0161591,0.0796051
				c0.7027664,0.7640839,1.2863617,2.1803665,2.5049133,2.0834999c0.5744019-0.0456581,1.0313721-0.4791985,1.5495758-0.7311668
				c1.0670547-0.5188446,2.3679504-0.2361488,3.4072189,0.336319c1.0392761,0.5724716,1.9086151,1.4057236,2.8893585,2.073513
				c4.0882416,2.7836838,6.3758087-0.8147507,5.6296387-2.9333076c-0.0915375-0.2598953-0.2194672-0.5078773-0.2820358-0.776226
				c-0.179039-0.767849,0.2741394-1.6328468,1.0073471-1.9227715c0.3095322-0.8020897-0.173027-1.7347488-0.8818512-2.2212982
				c-1.4200974-0.9747772-3.4627075-0.5654259-4.8601151-1.584549c-1.066246-0.7776146-1.4990768-2.2267494-2.5999451-2.9545212
				c-1.3338318-0.8817825-3.1289215-0.3965874-4.5685654,0.2991638s-2.901947,1.6007118-4.4963989,1.4807777
				C99.9854126,49.4363518,98.2892151,47.1814041,96.0015182,46.8289795z"/>
			
				<linearGradient id="SVGID_3_" gradientUnits="userSpaceOnUse" x1="78.5448761" y1="46.1612663" x2="121.3424606" y2="46.1612663">
				<stop  offset="0" style="stop-color:#622C22"/>
				<stop  offset="1" style="stop-color:#8B3D2F"/>
			</linearGradient>
			<path class="st36" d="M120.6122894,46.6167488c4.1103668,8.4177818-9.9662933,5.9372406-21.3874969,5.9372406
				s-20.6799164-1.5528679-20.6799164-5.6706429s9.2587128-7.4558907,20.6799164-7.4558907
				S118.8054962,42.9165382,120.6122894,46.6167488z"/>
			<path class="st14" d="M99.2604523,43.7408142c2.5235672,0.9913216,4.7103806,2.8190994,6.1337662,5.1267166
				c0.6458588,1.0470695,1.2902756,2.3091698,2.4925308,2.5700684c0.681778,0.147953,1.4061127-0.0872726,1.9671555-0.5019302
				c1.3841782-1.0230293,2.1137009-3.2904701,3.185524-5.0731506c1.691864-2.8139763,3.1725769-2.639637,3.9382629-3.2066154
				c0.3378448-0.2501717,0.5765152-0.705719,0.4142914-1.0935478c-0.1312027-0.3136673-0.4697876-0.4784775-0.7823105-0.6123848
				c-9.5165329-4.0775642-20.5447845-4.5041695-30.3478699-1.1739426c-0.5324707,0.1808853-1.0789795,0.38311-1.4816513,0.7756577
				c-0.30513,0.2974548-0.7386475,1.0703773-0.3192444,1.4109001c0.3610382,0.2931366,1.7996979,0.134716,2.2708588,0.1651039
				C93.0650253,42.5361824,96.2916794,42.574604,99.2604523,43.7408142z"/>
			<path class="st11" d="M83.5256958,37.5255013c-0.7122345,1.0236206-0.6019516,2.5400543,0.2509003,3.4498482
				c0.8528442,0.9097977,2.3589935,1.1177406,3.4264526,0.4730606c1.0509872-0.6347275,1.8564606-2.0155754,3.068222-1.8178635
				c1.497406,0.2443199,1.5601273,2.5252304,2.797699,3.402916c1.3153,0.9328117,3.1064606-0.1701698,4.1954346-1.3594093
				c1.0889664-1.1892357,2.3368454-2.6475258,3.9376373-2.4535942c1.3246307,0.1604767,2.2017212,1.3980255,3.0075607,2.4615173
				c0.8058472,1.0634918,1.9885864,2.1571274,3.28862,1.8566093c1.5352859-0.3548965,2.2238617-2.4653702,3.784996-2.6796188
				c1.8965454-0.2602844,2.9269028,2.39048,4.7792664,2.8735733c1.6320648,0.4256401,3.2893524-1.2118607,3.289711-2.8985138
				s-1.2539139-3.1705208-2.7533798-3.9427795c-1.4994736-0.7722588-3.2188721-0.9707489-4.8952484-1.156662
				c-10.6173248-1.177494-16.9411011-2.4393196-25.6819382,0.792244"/>
			<path class="st0" d="M122.8144684,34.3213043c0,3.9107094-9.826828,3.3133583-21.9488373,3.3133583
				s-21.9488297,0.5973511-21.9488297-3.3133583S87.8854446,22,100.0074539,22S122.8144684,30.4105988,122.8144684,34.3213043z"/>
			<g>
				<path class="st20" d="M86.2655563,30.3473778c-0.5615845,0.7256641-1.7387924,1.7261963-2.6396942,1.5376797
					c-0.9384384-0.2011089-0.8965988-0.6663418-0.4901886-1.1606255c0.5656815-0.6872082,1.8352509-1.4288368,2.1745605-1.5839138
					C86.5191956,28.5912037,86.955986,29.4722595,86.2655563,30.3473778z"/>
				<path class="st14" d="M86.5923843,29.5009995c0.0516357,0.8766003-1.8503036,2.61763-2.9665222,2.384058
					c-0.9384384-0.2011089-0.8965988-0.6663418-0.4901886-1.1606255c0.2262726,0.1759453,0.5195465,0.280695,0.8087311,0.2890835
					C85.0476303,31.0467319,85.9239655,30.0094109,86.5923843,29.5009995z"/>
			</g>
			<g>
				<path class="st20" d="M95.5026169,33.2888031c-0.5615768,0.725666-1.7387924,1.7261963-2.6396866,1.5376816
					c-0.938446-0.2011108-0.8966064-0.6663437-0.4901962-1.1606255c0.5656891-0.6872101,1.8352585-1.4288406,2.1745605-1.5839157
					C95.7562561,31.532629,96.1930466,32.4136848,95.5026169,33.2888031z"/>
				<path class="st14" d="M95.8294449,32.4424248c0.0516434,0.8766022-1.8503036,2.61763-2.9665146,2.3840599
					c-0.938446-0.2011108-0.8966064-0.6663437-0.4901962-1.1606255c0.2262802,0.1759453,0.5195541,0.2806931,0.8087387,0.2890816
					C94.2846985,33.9881554,95.161026,32.9508362,95.8294449,32.4424248z"/>
			</g>
			<g>
				<path class="st20" d="M93.9487686,27.4422874c-0.3896408,0.2303638-0.842186,0.4146976-1.2821503,0.3226337
					c-0.938446-0.2011089-0.8966064-0.6663418-0.4901962-1.1606255c0.5656891-0.6872082,1.8352509-1.4288368,2.1745605-1.5839157
					c0.3687668-0.1675568,0.8631592-0.2890816,1.1397552,0.0083885
					C96.1056442,25.6710854,94.7776718,26.9340744,93.9487686,27.4422874z"/>
				<path class="st14" d="M95.6331329,25.3808632c0.0516357,0.8766003-1.8503036,2.61763-2.9665146,2.384058
					c-0.938446-0.2011089-0.8966064-0.6663418-0.4901962-1.1606255c0.2262726,0.1759453,0.5195541,0.280695,0.8087387,0.2890835
					C94.0883789,26.9265957,94.9647141,25.8892746,95.6331329,25.3808632z"/>
			</g>
			<g>
				<path class="st20" d="M105.7317657,30.7641907c-0.5615768,0.7256641-1.7387924,1.7261963-2.6396866,1.5376778
					c-0.938446-0.201107-0.8966064-0.6663399-0.4901962-1.1606236c0.5656891-0.6872082,1.8352585-1.4288387,2.1745605-1.5839157
					C105.985405,29.0080166,106.4221954,29.8890705,105.7317657,30.7641907z"/>
				<path class="st14" d="M106.0585938,29.9178123c0.0516434,0.8766003-1.8503036,2.61763-2.9665146,2.3840561
					c-0.938446-0.201107-0.8966064-0.6663399-0.4901962-1.1606236c0.2262802,0.1759453,0.5195541,0.2806931,0.8087387,0.2890816
					C104.5138474,31.4635429,105.3901749,30.4262218,106.0585938,29.9178123z"/>
			</g>
			<g>
				<path class="st20" d="M103.9033661,26.8273849c-0.9384384-0.2011108-0.8965988-0.6663418-0.4901886-1.1606255
					c0.5656815-0.6872082,1.8352509-1.4288387,2.1745605-1.5839157c0.3687668-0.1675568,0.8631516-0.2890816,1.1397552,0.0083885
					C107.4941788,24.8921032,105.0799866,27.073597,103.9033661,26.8273849z"/>
				<path class="st14" d="M106.8698883,24.443327c0.016777,0.2847862-0.1383057,0.60742-0.326828,0.8463783
					c-0.5615845,0.7256641-1.7387924,1.7261944-2.6396942,1.5376797c-0.9384384-0.2011108-0.8965988-0.6663418-0.4901886-1.1606255
					c0.7095871,0.5517616,1.6122284,0.2424812,2.338028-0.2933769
					C106.1408386,25.0842991,106.4844437,24.7365017,106.8698883,24.443327z"/>
			</g>
			<g>
				<path class="st20" d="M114.0854187,31.5624237c-0.3896408,0.2303638-0.842186,0.4146976-1.2821503,0.3226337
					c-0.938446-0.2011089-0.8966064-0.6663418-0.4901962-1.1606255c0.5656891-0.6872082,1.8352509-1.4288368,2.1745605-1.5839138
					c0.3687668-0.1675587,0.8631592-0.2890835,1.1397552,0.0083866
					C116.2422943,29.7912216,114.9143219,31.0542107,114.0854187,31.5624237z"/>
				<path class="st14" d="M115.769783,29.5009995c0.0516357,0.8766003-1.8503036,2.61763-2.9665146,2.384058
					c-0.938446-0.2011089-0.8966064-0.6663418-0.4901962-1.1606255c0.2262726,0.1759453,0.5195541,0.280695,0.8087387,0.2890835
					C114.225029,31.0467319,115.1013641,30.0094109,115.769783,29.5009995z"/>
			</g>
			<path class="st1" d="M163.8521729,124.0786438c-24.0908051-0.8740616-31.8336182-14.7767715-31.8336182-14.7767715
				s14.586792-24.6891098,21.720932-29.0411453c8.7880707-5.3609848,18.6658478,10.1539078,16.9542236,20.9514847
				C168.9820709,112.0097885,163.8521729,124.0786438,163.8521729,124.0786438z"/>
			<path class="st47" d="M132.0185699,109.3019791c4.2263489,6.2948303,13.4664154,12.297142,25.0791321,13.8208008
				l2.2433472,0.296875c1.5022888,0.1337891,3.0122681,0.2006836,4.5187988,0.3051758l-0.3379822,0.2265625
				c2.3920898-6.2621765,6.7276154-18.6828384,7.3330383-25.4335938c-0.1871185,7.4251556-4.4148407,19.3534164-6.675354,25.6962891
				c-0.0526123,0.1416016-0.1914978,0.2270508-0.3352356,0.2182617c-1.5257263-0.0913086-3.0552673-0.1459961-4.5793152-0.269043
				c-1.1590118-0.2791214-11.8723297-0.7202148-21.1554871-8.097168
				C135.7401886,114.1486588,133.5632172,111.9299088,132.0185699,109.3019791z"/>
			<path class="st7" d="M150.5049744,71.903801c3.2803802-1.7693481,4.2307281-5.6642914,4.0071869-9.1748505
				c-0.1246948-1.9584312-0.4362488-4.926712-1.4258575-6.6557007c-0.8403168-1.4681511-3.2967224-2.3156281-4.8265533-2.737278
				c-1.8340302-0.5054817-3.7416382-0.6731148-5.6369324-0.8376007c-1.0505524-0.0911713-2.1273193-0.1798897-3.1443634,0.0986748
				c-2.3307495,0.6383972-2.7946167,3.0771103-3.1003876,5.1499252c-1.0223694,6.9305191-1.3043976,8.2922592-1.1589661,9.9776154
				c0.1735992,2.0119019,0.8982391,3.816864,2.8473358,4.4852295
				C141.9085541,73.5273361,147.1047974,73.7377625,150.5049744,71.903801z"/>
			<path class="st8" d="M136.6603546,55.7695656c0.2659149-2.6432533,2.9829102-5.0709419,5.3462372-5.8808403
				c2.6174927-0.8969994,5.6764832-0.3688889,7.8417053,1.3538094c0-0.0373001-0.0506744,0.0450516-0.0506744,0.0077477
				c0-1.4051361,1.7885895-3.7318687,3.5654449-3.2737007c0.8330231,0.214798,1.4539337,1.198204,1.0972137,1.9810181
				c1.2482605-1.4357224,3.6004639-0.9231644,4.0159912,0.7069435c0.1972351,0.7737961-0.2050781,1.6859627-0.9498138,1.9741173
				c1.0392303-0.2015877,2.1596069,0.6270027,2.2712097,1.6797104c0.1115875,1.0527039-0.8101501,2.0977859-1.8685455,2.118576
				c0.3482361,0.6356583,0.1146851,1.5248756-0.5009613,1.9073677c-0.6156616,0.3824959-1.5163269,0.1979408-1.9319305-0.3958702
				c0.5532227,1.9801712-1.4102783,3.7612228-3.3277435,3.0163803c-0.0636902-0.0247421-0.17659-1.4453278-0.2123108-1.6126595
				c-0.5780945-2.7086906-1.042099-2.4310226-2.5647125-2.6901321c-2.4467316-0.416378-4.8618927-1.0182533-7.2177429-1.799221
				c-0.9349213-0.3099289-1.9687653-0.7512016-2.3039551-1.6773643
				C140.0811462,53.7695236,137.6955414,56.0379753,136.6603546,55.7695656z"/>
			<path class="st7" d="M152.0046082,61.4503555c0.055542-0.904335,0.792511-1.7058258,1.6790161-1.8929138
				c1.8252869-0.3852081,3.4625854,1.5250854,2.7250519,3.535675c-0.7751312,2.113121-3.5477142,2.6419907-5.0461884,0.9621201"/>
			<path class="st8" d="M147.4975281,59.4516106c0.1310425,0.0057755,0.2753448,0.0171509,0.36763,0.1103554
				c0.1353455,0.1366997,0.0759125,0.3844604-0.0712128,0.5084038c-0.14711,0.1239395-0.3485718,0.1561928-0.5394287,0.1801567
				c-1.2062073,0.1514473-2.4302521,0.1603889-3.6385498,0.0265732c-0.3253021-0.036026-0.879364-0.1968918-0.7340546-0.6466103
				C143.0400085,59.1411705,143.5517883,59.2776985,147.4975281,59.4516106z"/>
			<path class="st8" d="M139.760498,58.9097786c0.1310272,0.0057755,0.2753448,0.0171509,0.36763,0.1103592
				c0.1353455,0.1366959,0.0759125,0.3844604-0.0712128,0.5084s-0.3485718,0.1561928-0.5394287,0.1801605
				c-1.2062073,0.1514435-2.4302521,0.1603851-3.6385498,0.0265732c-0.3253021-0.0360298-0.879364-0.1968918-0.7340546-0.6466141
				C135.3029785,58.5993423,135.8147583,58.7358665,139.760498,58.9097786z"/>
			<ellipse class="st8" cx="145.2735901" cy="62.3650627" rx="0.7398494" ry="1.1172773"/>
			<ellipse class="st8" cx="137.4002075" cy="61.7064857" rx="0.7398494" ry="1.1172773"/>
			<path class="st8" d="M139.3820496,64.9228134c-0.5828857,1.459137,0.7662811,1.1477509,2.3669434,1.0904541
				c0.3267822-0.0116959,0.4057922-0.2769928,0.0641479-0.322052c-0.6889801-0.0908813-1.3779449-0.1817627-2.066925-0.272644
				c0.197052-0.6062317,0.3940887-1.212471,0.5911255-1.8187103c0.0662842-0.2039146,0.6065369-1.4795036,0.4703369-1.5967789
				c-0.288559-0.2484436-0.6566925,0.9948311-0.7084656,1.1244469
				C139.8601532,63.725956,139.621109,64.3243866,139.3820496,64.9228134z"/>
			<path class="st20" d="M144.537735,66.3206253c-2.0713196,1.0342865-4.5653229,1.1871643-6.7474518,0.4135895
				C139.1666107,70.2903595,143.975296,69.6915588,144.537735,66.3206253z"/>
			<path class="st8" d="M153.1079102,62.9293137c-0.0125427-0.5051689-0.0250854-1.010334-0.0376282-1.5155029
				c-0.0096588-0.3890991,0.572464-0.4240532,0.9573364-0.3660622c0.8857117,0.1334572,1.1121368,1.3201256,0.1549072,1.9221992
				C153.793045,63.2149239,153.5654602,62.8806839,153.1079102,62.9293137z"/>
		</g>
	</g>
</g>
</svg>
