<?xml version="1.0" encoding="utf-8"?>
<!-- Generator: Adobe Illustrator 22.0.1, SVG Export Plug-In . SVG Version: 6.00 Build 0)  -->
<svg version="1.1" id="Layer_1" xmlns="http://www.w3.org/2000/svg" xmlns:xlink="http://www.w3.org/1999/xlink" x="0px" y="0px"
	 viewBox="0 0 300 300" style="enable-background:new 0 0 300 300;" xml:space="preserve">
<style type="text/css">
	.st0{fill:#EDC1A4;}
	.st1{fill:#E2E0E0;}
	.st2{fill:#D39E81;}
	.st3{fill:#502E26;}
	.st4{fill:#CCCACA;}
	.st5{fill:#426800;}
	.st6{fill:#538705;}
	.st7{fill:#D47E44;}
	.st8{fill:#73341D;}
	.st9{fill:#BC672E;}
	.st10{fill:#96311D;}
	.st11{fill:#B83E21;}
	.st12{fill:#DE8D82;}
	.st13{fill:#EFBAB4;}
	.st14{fill:#FDD5D0;}
	.st15{fill:#6883CE;}
	.st16{fill:#3D4885;}
	.st17{fill:#3859AE;}
	.st18{fill:#864424;}
	.st19{fill:#FEFEFE;}
	.st20{fill:#FFFFFF;}
	.st21{fill:#A55925;}
	.st22{fill:#F4F2F2;}
	.st23{fill:#3C3E68;}
	.st24{fill:#E8997C;}
	.st25{fill:#F5C46B;}
	.st26{fill:#F7EBDA;}
	.st27{fill:#0E0C0D;}
	.st28{fill:#657C3A;}
	.st29{fill:#576C37;}
	.st30{fill:#7C995D;}
	.st31{fill:#36518C;}
	.st32{fill:#96B7E3;}
	.st33{fill:#A3B3DF;}
	.st34{fill:url(#SVGID_1_);}
	.st35{fill:url(#SVGID_2_);}
	.st36{fill:url(#SVGID_3_);}
	.st37{fill:url(#SVGID_4_);}
	.st38{fill:url(#SVGID_5_);}
	.st39{fill:#266AB7;}
	.st40{fill:#060E0D;}
	.st41{fill:#E0D4C6;}
	.st42{fill:#787E42;}
	.st43{fill:#D3D1D1;}
	.st44{fill:url(#SVGID_6_);}
	.st45{fill:url(#SVGID_7_);}
	.st46{fill:url(#SVGID_8_);}
	.st47{fill:#020508;}
	.st48{fill:#BAB6B6;}
	.st49{fill:#0F0B07;}
	.st50{fill:#2F3A68;}
	.st51{fill:#203257;}
	.st52{opacity:0.5;fill:#FFFFFF;}
	.st53{opacity:0.2;fill:#0E0C0D;}
	.st54{fill:#DD9F9B;}
	.st55{fill:#3E4D9B;}
	.st56{fill:url(#SVGID_9_);}
	.st57{fill:#5F6194;}
	.st58{fill:url(#SVGID_10_);}
	.st59{fill:url(#SVGID_11_);}
	.st60{fill:url(#SVGID_12_);}
	.st61{fill:url(#SVGID_13_);}
	.st62{fill:#070102;}
	.st63{fill:#100805;}
	.st64{fill:#FDA465;}
	.st65{fill:#2A50A1;}
	.st66{fill:#B76C39;}
	.st67{fill:#130602;}
	.st68{fill:url(#SVGID_14_);}
	.st69{fill:url(#SVGID_15_);}
	.st70{fill:url(#SVGID_16_);}
	.st71{fill:url(#SVGID_17_);}
	.st72{fill:url(#SVGID_18_);}
	.st73{fill:url(#SVGID_19_);}
	.st74{fill:#B4BDED;}
	.st75{fill:#100D08;}
	.st76{fill:#F6C85F;}
	.st77{fill:#FECF00;}
	.st78{fill:#2D59E2;}
	.st79{fill:#121F3A;}
	.st80{fill:#BBD0F5;}
	.st81{fill:#020202;}
	.st82{fill:#E2CFB7;}
	.st83{fill:#080805;}
	.st84{fill:#A87D7C;}
	.st85{fill:#182052;}
	.st86{fill:#EAEAEA;}
	.st87{fill:#DDDDDD;}
	.st88{fill:#3D4574;}
	.st89{fill:#ABC5F0;}
	.st90{fill:url(#SVGID_20_);}
	.st91{fill:#4159A8;}
	.st92{fill:#E0D0BD;}
	.st93{fill:#3D53AA;}
	.st94{fill:#0A0000;}
	.st95{fill:#BF6D36;}
	.st96{fill:#385DAE;}
	.st97{fill:#E0DCDC;}
	.st98{fill:#857E78;}
	.st99{fill:#0E213C;}
	.st100{fill:url(#SVGID_21_);}
	.st101{fill:#55608E;}
	.st102{opacity:0.3;fill:#F4F2F2;}
	.st103{opacity:0.3;}
	.st104{fill:#213987;}
	.st105{enable-background:new    ;}
</style>
<g id="Serving_Meal_1_">
	<g id="Serving_Meal">
		<g>
			<path class="st0" d="M109.4840317,146.3436584c11.4987488,3.0580139,12.0675583,3.375061,13.2892761,3.0655212
				c1.2164307-0.308197,2.0458298-1.3996887,2.7755203-2.420578c5.5530243-7.7691803,11.1060486-15.5383606,16.6590729-23.3075409
				c2.758194-3.8589478,5.3465881-6.0381317,10.1231384-7.3549194c4.1228333-1.1365662,8.4916534-1.0516968,12.5978394,0.1435776
				c1.5169678,0.4415665,3.3488159,1.2046585,3.3890076,3.0606003c0.0216522,0.9999084-0.54216,1.9124832-1.3741455,2.4675369
				c-2.0645142,1.3773346-4.4646301,0.8595123-6.7211304,1.2523499c-4.3944855,0.7650528-5.7320709,3.2715454-7.6021729,6.9379196
				c-6.0496979,11.8604736-11.6386261,23.9583435-16.7494507,36.25737
				c-1.0370789,2.4956665-3.5255432,4.0562439-6.2264862,3.9629059c-8.2786865-0.2861023-16.5119629-1.8852844-24.292038-4.7304077"
				/>
			<path class="st1" d="M92.8424911,132.4407349c0.3210983-0.1730042,24.6812134,14.4245911,24.6812134,14.4245911
				c0.0721893,0.8371429-3.1141281,17.0679932-3.1141281,17.0679932l-25.248764-22.5224609L92.8424911,132.4407349z"/>
			<path class="st0" d="M98.5859375,136.4532623c0,0-4.2926788,4.4907684-5.2003784,4.4035797
				c-0.907692-0.0871887-12.6163864-2.3226471-12.6163864-2.3226471l-6.9403915-6.0922089l4.6850891-13.5239868
				c0.1000061-0.0063019,7.4349289-5.0459671,11.5501862,0.7014847c1.4763184,2.0567627,1.6182175,3.8671265,2.7784348,7.2179184
				C95.7043457,135.1768799,98.5859375,136.4532623,98.5859375,136.4532623z"/>
			<path class="st2" d="M92.8424911,126.8374023c-4.4955292,0.078537-8.4709473-2.5805283-10.1945419-6.5559235
				c-0.4552231-1.0532837-0.6921844-2.305603,0.0674438-3.1590347c0.5588455-0.6223221,1.5180206-0.8244705,2.3504333-0.6659622
				c0.9365921,0.1772156,1.7500687,0.7292328,2.5168686,1.2724152c0.8443146,0.6064529,1.6727524,1.236618,2.4813614,1.8905869
				C91.5403748,121.6762466,91.6822739,123.4866104,92.8424911,126.8374023z"/>
			<g>
				<path class="st3" d="M162.2904816,263.4315796c0,0-0.2273865,2.9506531,0.6475372,3.6016846
					c0.8749084,0.651001,19.8896637,3.0391541,27.7055511,2.5158386c7.8158722-0.5233154,9.5776978-2.0293579,9.571701-6.1175232
					l-15.730896-2.7604065l-12.6932983,1.1220093L162.2904816,263.4315796z"/>
				<path class="st4" d="M163.6083374,249.1280823c-1.2609253,4.6439209-1.7090149,9.5073547-1.3178558,14.3034973
					c0,0,38.6187134,8.3356018,37.9187927-0.3551941c0,0,0-3.7503967-6.4160309-4.9957275
					c-6.4160156-1.2453003-13.3402405-5.0428467-13.5527649-6.46875c-0.2125092-1.4258881,0-3.1173859,0-3.1173859
					L163.6083374,249.1280823z"/>
			</g>
			<path class="st5" d="M112.250679,190.532196c0,0,55.2220535-4.0059052,65.6528854,5.1077881
				c14.4499817,12.6253204,8.154007,53.9949188,8.154007,53.9949188
				c-0.0837097,3.0732422-26.4394989,2.3550262-26.3557892-0.7182312l-0.149704-32.5709534l-29.613327,2.1416168
				l-32.3553238-2.1416168l-17.0859299-10.1890259L112.250679,190.532196z"/>
			<g>
				<path class="st3" d="M170.9537964,269.9179077c0,0-0.2273865,2.9506836,0.647522,3.6016846
					c0.8749237,0.651001,19.889679,3.0391541,27.7055664,2.5158386c7.8158722-0.5233154,9.5776978-2.0293579,9.571701-6.1175232
					l-15.730896-2.7604065l-12.6933136,1.1220093L170.9537964,269.9179077z"/>
				<path class="st1" d="M172.2716522,255.6144104c-1.2609253,4.6439209-1.7090149,9.5073547-1.3178558,14.3034973
					c0,0,38.6187134,8.3356018,37.9187927-0.3551941c0,0,0-3.7503967-6.4160309-4.9957275
					c-6.4160156-1.2453003-13.3402405-5.0428467-13.5527649-6.46875s0-3.1173859,0-3.1173859L172.2716522,255.6144104z"/>
			</g>
			<path class="st6" d="M121.8422699,194.3880615c0,0,51.5491028-10.6433105,64.5866089,3.4358978
				c13.0374908,14.0792236,8.2919922,58.2972565,8.2919922,58.2972565
				c-0.0836945,3.0732727-26.4394836,2.3550415-26.3557739-0.7182007l-0.149704-32.5709686l-29.6133423,2.1416168
				l-32.3553162-2.1416168l-17.0859222-10.1890259L121.8422699,194.3880615z"/>
			<path class="st7" d="M101.4811554,219.0123138c0.2438049-0.3183136,1.3452759-0.5731812,1.7052612-0.7509766
				c6.7908554-3.3540039,13.4313202-10.1023407,17.1954193-19.5791779c0.4391861-1.1057434,1.4478378-2.8798065,1.4333344-4.0677338
				c-0.0170135-1.3930054-1.4760056-3.2774506-2.0976486-4.5119019c-4.7018356-9.3367615-6.8711548-11.5189972-3.1029816-20.1188049
				c1.1431656-2.6089783,2.4619904-5.1945648,2.90065-8.0090027c1.1039658-7.0831146-4.7055283-11.4450531-9.3742065-15.5650177
				c-3.3098373-2.9208221-11.4530487-9.9243469-11.5566864-9.955368c-0.6324844,2.9699402-19.3201981-2.8005524-22.826416-7.2019501
				c-2.7084732,1.2161865-11.4883804,0.5222015-8.3187714,8.3509369
				c3.7479477,9.2571716,10.0265884,65.0773773,10.0265884,65.0773773s20.4388199,20.0531921,20.7280502,20.1495972
				C98.4829178,222.9266815,101.4798889,219.0139618,101.4811554,219.0123138z"/>
			<path class="st8" d="M148.750061,204.7670441l-0.5905762,25.5934296h-7.1544495l0.027771-21.8081055
				c0-0.6223297-0.5033875-1.1296387-1.1296844-1.1296387l-55.2495346-0.1387177v-7.0870972l60.0138779,0.3686981
				C146.9624481,200.5774231,148.8016357,202.4721069,148.750061,204.7670441z"/>
			<path class="st9" d="M171.7091522,116.9241791c-1.8377838,0.1711349-3.5558624,0.4220886-5.4079895,0.3711853
				c-2.041748-0.0561218-4.0807648-0.2125168-6.1070251-0.4698181c-0.6206512-0.0788116-1.2847137-0.187851-1.7344971-0.6227036
				c-0.4497986-0.434845-0.5108643-1.3105392,0.0361176-1.6141968c-0.6941528,0.176033-1.5309601,0.0345306-1.942337-0.5516586
				s-0.0797119-1.6064301,0.6352844-1.6467667c-0.7841339,0.2806396-1.7507172-0.1379013-2.0825653-0.9017715
				c-0.3318329-0.7638779,0.0219116-1.7560043,0.7621918-2.1376038c-0.8229218-0.0093765-1.5365753-0.841362-1.4205933-1.6561279
				c0.3981476-2.7967148,9.1823883-0.6786346,14.38797-3.2829666c0.341629-0.1709213,0.8709564-0.6841431,1.2583008-0.6650009
				c-1.7986603-0.088913-3.3624115-0.5363617-5.0201111-1.217186c-0.4498291-0.180069-1.669342-0.9377136-1.3642426-1.5338669
				c0.115799-0.2262573,0.377121-0.3574219,0.6093445-0.4484787c1.8694305-0.733017,4.3117065-0.3879929,6.2811737-0.3731689
				c1.4959869,0.011261,2.9906921-0.2438507,4.4859619-0.0975952c2.9246216,0.2866135,5.4081421,1.8709106,8.252121,2.4213715
				c9.2239838,1.7853317,11.4777222-2.503891,12.4388733,2.6865311c0.3737183,2.0182419,0.7451324,4.253212-0.5133972,5.9890747
				c-0.9919739,1.3682251-2.7405853,1.9182892-4.3745575,2.3497925
				C184.591629,115.1862717,178.1687012,116.3226776,171.7091522,116.9241791z"/>
			<path class="st7" d="M245.4947357,262.6375732l-1.1721039-15.3159485c0,0-14.1739807-0.4013824-14.1361237-0.2006989
				c0.0378571,0.2006989,2.2955933,19.7676849,2.2955933,19.7676849s9.3319397,0.3511963,10.0343475,0.2508545
				S245.4947357,262.6375732,245.4947357,262.6375732z"/>
			<path class="st10" d="M243.268631,272.9049683c-2.210434-0.0852661-16.6823578,1.7242126-29.4574127-0.0927124
				c-0.7754822-0.1102905-1.5663605-0.2391663-2.2557678-0.6116028c-1.0422363-0.5632019-1.9034119-2.1537781-1.0323181-3.2189331
				c0.5047913-0.6172485,1.3303375-1.1045227,1.9604034-1.5882874c3.5290833-2.7097168,7.3290405-5.0735474,11.3274384-7.0441895
				c1.9879608-0.9797668,5.1794739-2.4908752,7.1572571-2.6903687c1.3970795-0.1409302,2.8863373,0.1912537,3.9717712,1.1136169
				c1.113205,0.9459839,1.6033325,2.5534973,2.1148987,3.8656921c0.1256104,0.3222046,5.8978577-0.7521362,8.1006927-0.9120178
				c0.6266937-0.0454712,0.6801453,0.5411072,0.8657074,1.0743103c0.7800751,2.241394,0.7778931,4.3530884,0.4975739,6.7403564
				C246.2263947,272.0316772,244.8595428,272.9663086,243.268631,272.9049683z"/>
			<path class="st7" d="M263.8321838,265.8738098l-1.2936096-16.9036407c0,0-15.6432953-0.4429779-15.6015167-0.2214966
				c0.0417786,0.2214966,2.5335541,21.8168488,2.5335541,21.8168488s10.2993164,0.3876343,11.0745544,0.276886
				C261.3203735,270.7316589,263.8321838,265.8738098,263.8321838,265.8738098z"/>
			<path class="st11" d="M261.3753052,277.2055664c-2.4395752-0.0940857-18.4116974,1.9029541-32.5110626-0.1022949
				c-0.8558655-0.1217346-1.7287445-0.2639771-2.4896088-0.6750183c-1.1502686-0.6216125-2.1007233-2.3770447-1.139328-3.5526123
				c0.5571136-0.6812439,1.4682465-1.2190552,2.16362-1.7529602c4.9003448-3.7625732,10.3618622-6.9879456,16.2537231-9.4961853
				c1.3335114-0.567688,2.7051697-1.1020203,4.147171-1.2474976c1.5419006-0.1555176,3.1855316,0.2110901,4.3834839,1.2290955
				c1.2286072,1.0440369,1.7695465,2.8181763,2.334137,4.2663879c0.103775,0.2661743,4.0092316-0.3707581,4.4323883-0.4256897
				c5.4828491-0.7118225,4.8939819-1.0315857,5.463501,0.6048279c0.8609314,2.4737244,0.8585205,4.8043518,0.5491638,7.4390869
				c-0.0907593,0.7729492-0.2485352,1.5589294-0.6607666,2.2190247
				C263.692688,276.6869812,262.5386047,277.2504272,261.3753052,277.2055664z"/>
			<path class="st4" d="M232.0057678,61.0091629c0,0-12.6284485,16.7477951-20.8880157,37.40242l-27.9937897,2.7079773v17.2570343
				l20.7497711,4.4935989c0,0,16.9950867-11.3159637,16.5710907-11.1651382s3.5641174-16.3587341,3.5641174-16.3587341
				L232.0057678,61.0091629z"/>
			<path class="st1" d="M151.192688,118.1331024l-14.2454987-2.2869492
				c-1.7995148-1.0662994-2.8498535-3.2026749-2.7904358-5.2955017c0.1985779-6.9925461,9.9011536-10.1785583,16.025177-5.9851761
				C155.2768402,108.0611725,155.491684,114.9884491,151.192688,118.1331024z"/>
			<path class="st12" d="M153.9077454,109.6508942c-0.6579285,0.6500931-1.7876129,0.8284378-2.4852295,0.2259521
				c-0.3606567-0.3131409-0.5588379-0.7689285-0.848175-1.1495209c-0.2893372-0.3844604-0.7571259-0.7133789-1.2168732-0.5826492
				c-0.8006744,0.2180252-0.8165436,1.5141525-1.5854645,1.8193588c-0.6777802,0.2695007-1.3397827-0.4281082-1.6766357-1.0741348
				c-1.0528564-2.0189362-2.1130371-2.0196304-3.1550598,0.0198364c-0.3685913,0.7213211-1.0504303,1.5299225-1.8193665,1.2723236
				c-1.0463562-0.3488541-0.8244629-2.2395325-1.8787689-2.5724182c-0.6579285-0.2100906-1.29216,0.3804932-1.6528168,0.9671097
				c-0.3647308,0.5866165-0.7015839,1.2881927-1.3595123,1.4982834c-1.0504303,0.336853-1.6092682-0.2656326-1.8193665-1.1652985
				C136.7548523,100.5464935,151.2464294,100.4783401,153.9077454,109.6508942z"/>
			<path class="st13" d="M169.2103424,116.8656616l-11.9067688-1.9114914
				c-1.737915-1.0297928-2.8079224-3.3737869-2.1202545-5.7976456c2.1233673-7.5748062,15.6672363-6.7475967,16.5414886,1.8684616
				C171.9401245,113.2314606,170.9992981,115.5570679,169.2103424,116.8656616z"/>
			<path class="st14" d="M171.47966,109.776001c-0.5499268,0.5433655-1.4941406,0.6924362-2.0772247,0.188858
				c-0.3014526-0.261734-0.4670868-0.6426849-0.7089233-0.9608002c-0.2418518-0.3213425-0.6328278-0.5962601-1.0171051-0.4869919
				c-0.66922,0.1822281-0.6824799,1.265564-1.3251801,1.520668c-0.5664978,0.2252579-1.119812-0.3578186-1.4013672-0.897789
				c-0.8800049-1.6874847-1.7661285-1.6880646-2.637085,0.0165787c-0.308075,0.6028976-0.8779755,1.2787476-1.5206604,1.0634384
				c-0.874588-0.2915802-0.6891174-1.8718567-1.5703278-2.1500931c-0.5499268-0.1755981-1.0800323,0.3180313-1.3814697,0.808342
				c-0.3048553,0.490303-0.5864105,1.0766983-1.136322,1.2522964c-0.8779755,0.2815552-1.3450775-0.222023-1.5206757-0.9739838
				C157.1442261,102.1612701,169.256485,102.1135635,171.47966,109.776001z"/>
			<path class="st15" d="M177.9298553,115.6607819c0,0.242363-2.8142395,3.6969757-2.8142395,3.6969757
				c0,0.8123779-42.6490173,0.8123779-42.6490173,0c0,0-2.8142548-3.6348038-2.8142548-4.0211487l0,0
				c0-0.3863525,0.3132019-0.6995468,0.6995544-0.6995468h46.554245
				C177.9005432,114.6370621,177.9747314,115.7610245,177.9298553,115.6607819z"/>
			<path class="st7" d="M251.2704163,52.6810875v4.0468903l-4.9189758,5.7711258c0,0-9.9210815,7.1226997-10.1905823,6.7263298
				c-0.2695007-0.4003296-5.0139923-1.4784393-5.0139923-1.4784393c0.3112488-1.0022659-1.1275482,3.6307602,3.0440674-9.8021431
				l0.4795837-1.8906784c-0.0031738-0.1002731-0.279129-8.8063393-0.2615662-8.2523842
				c0,0,8.2563477-8.0739441,10.6781006-3.4761467C247.1889191,48.5293694,251.1933899,52.5810509,251.2704163,52.6810875z"/>
			<path class="st9" d="M247.8536835,48.6580009c-0.2457886,0.5707474-0.5945435,1.1216545-0.9512482,1.6210785
				c-3.472168,4.8238525-8.2880859,8.6725578-13.749939,11.0150528l1.0384369-3.3492813l0.4795837-1.8906784l-0.2377625-7.5587425
				c2.3583679-1.3040619,4.8118591-2.4376183,7.3366547-3.3888588c1.074234-0.4043045,2.1958923-0.7809296,3.3454132-0.7333183
				C245.9391937,45.9388809,246.9183197,47.4054222,247.8536835,48.6580009z"/>
			<path class="st16" d="M245.8722534,250.955368c0.0182037,1.5255127-20.6616974,2.2314301-20.6799011,0.7059174
				l-7.6132355-119.2205505l2.8657074-11.8998337l30.7921448,34.2735519L245.8722534,250.955368z"/>
			<path class="st1" d="M232.0057678,61.0091629l2.1860504-3.0650368c-0.1346283,1.8658371,1.395462,5.2629738,1.395462,5.2629738
				L251.27211,52.6811562l3.3306885,2.8264961l0.8047333,2.4364738l-9.7689972,7.8552742l-11.908432,20.0521393
				l-9.6004791,14.8142242l-3.6847992-2.0459824l2.2624664-11.8256226l4.5929718-15.7674942L232.0057678,61.0091629"/>
			<path class="st17" d="M264.7016907,120.4687271c3.5464783,23.3017807,2.0202332,47.8744431-3.388855,73.4198837
				c-0.5598145,2.6438599-0.4534607,5.3836212,0.2951965,7.9803314c4.842865,16.7978668,7.2339783,33.4541931,7.0649719,49.9627991
				c-0.0300903,1.8799744-24.7677002,1.4863739-24.7376099-0.3936157
				c-5.5821228-40.1444397-13.531723-79.8209381-24.0108643-118.9973907l8.5326996-22.4302673L264.7016907,120.4687271z"/>
			<path class="st18" d="M267.7645569,120.3956833c0,0-16.4924469,20.4713058-34.0344543,22.8810654
				c0,0-15.3473206-19.2634811-11.7613983-29.8275833l2.0402374-18.1028442c0,0,17.2648773-31.9171677,30.5938568-39.8386688
				c0,0,14.5288849,5.1235046,12.6119232,30.5380783C265.2977905,111.4603043,261.1440735,110.8931656,267.7645569,120.3956833z"/>
			<path class="st18" d="M224.0089417,95.3463211c0,0,3.476059-25.4937515,7.9968262-34.3371582
				c0,0-3.5250092,2.2068062-11.4407349,24.2857666c-7.9157104,22.0789566-8.8858795,33.432724-4.7673645,57.9818192
				c0,0,4.0975342-12.7937469,7.7122498-25.3666611S224.0089417,95.3463211,224.0089417,95.3463211z"/>
			<path class="st7" d="M179.935791,130.302597c-2.041748-0.0561066-4.0807648-0.2125092-6.1070251-0.4698181
				c-0.620636-0.0788116-1.2847137-0.187851-1.7344971-0.6226959c-0.4497986-0.434845-0.5108643-1.3105392,0.0361328-1.6142044
				c-0.6941681,0.1760406-1.5309601,0.0345306-1.9423523-0.5516586c-0.411377-0.5861816-0.0797119-1.6064224,0.6352844-1.646759
				c-0.7841339,0.2806396-1.7507172-0.1379013-2.08255-0.9017792c-0.3318481-0.7638779,0.0218964-1.7559967,0.7621765-2.1375961
				c-0.8229218-0.0093842-1.5365753-0.841362-1.4205933-1.6561279c0.2609863-1.833252,3.5424957-1.4962082,8.7720337-1.927269
				c5.5114136-0.4542847,6.2051086-2.0537796,6.8742371-2.0206985c-1.7986603-0.088913-3.3624115-0.5363693-5.0201111-1.217186
				c-0.4498291-0.180069-1.669342-0.9377136-1.3642426-1.5338745c0.115799-0.2262497,0.377121-0.3574219,0.6093445-0.4484787
				c1.8694305-0.7330093,4.3117065-0.3879852,6.2811737-0.3731613c1.4959869,0.0112534,2.9906921-0.2438583,4.4859619-0.0975952
				c2.9246368,0.2866135,5.4081421,1.8709106,8.2521362,2.4213715c9.2239685,1.7853241,11.4777069-2.5038986,12.438858,2.6865234
				c0.1878357,1.0143967,0.3764191,2.0372238,0.3562927,3.0686646c-0.0649109,3.3279572-2.095871,4.4387817-5.2442322,5.2702026
				C194.6915283,129.1269684,183.160141,130.3912201,179.935791,130.302597z"/>
			<path class="st1" d="M201.6386566,111.8837051c0,0-7.2221069,1.7377319,1.0158844,20.6701431
				c0,0,29.1337128-1.0944519,43.7223053-10.2307053c9.2505188-5.7932129,17.4284515-29.8565598,18.6252289-39.6005783
				c1.2669373-10.3150864-1.4683533-21.5134659-8.5256653-22.4842758
				c-7.0572968-0.9708099-21.3500671,25.4864883-25.2913666,44.5595627L201.6386566,111.8837051z"/>
			<g>
				<g>
					<path class="st7" d="M248.6884308,35.0262451c-0.1894684,4.8612366-0.046936,5.9528465-1.946228,10.7019081
						c-1.0116425,2.6175117-2.3961792,4.8588181-4.562088,6.6787224c-2.8934937,2.4218445-7.9155273,4.7286301-11.6096039,3.008461
						c-3.1472168-1.4666367-4.5502777-4.5582161-5.6126099-7.6419716c-0.0002289-0.0002441-0.0004425-0.0004539-0.0006714-0.0006981
						c-0.6616364-0.2557411-1.8473206-0.4872322-1.8109283-1.2104378c0.0643005-1.2780418,1.8183746-1.4010925,2.144577-2.6019554
						c0.45578-1.6885262-0.4518127-4.514576-0.535141-6.2863235c-0.1268616-2.6319313,0.4479523-5.1607056,1.2168884-7.6578369
						C226.4177246,28.0044708,249.1324921,33.0148087,248.6884308,35.0262451z"/>
					<path class="st19" d="M231.3792267,48.6070366c-0.7159271,1.0509872-1.687088,2.5427246-3.0593719,2.4744186
						c-1.0932007-0.0544128-1.7811584-1.0673637-2.2194366-2.0683289c-0.1501617-0.342968-0.0210724-0.345932,0.3103027-0.4044228
						c0.1035919-0.0182838,2.7070465-0.4777679,4.7469788-0.8377991
						C231.706604,47.6740303,231.7032928,48.1313171,231.3792267,48.6070366z"/>
					<path class="st3" d="M248.6884308,35.0262451c-0.1894684,4.8612366-0.046936,5.9528465-1.946228,10.7019081
						c-0.7332153-0.70158-1.8549652-1.625145-2.2949829-2.0056419c-0.309082-1.7876167,0.0436401-5.8305397-1.0423889-6.9562569
						c-1.0045166-1.0397911-2.8868561-0.8813133-3.9835052,0.4597511c-1.1959381,1.4814873-0.3800507,2.5548935-0.6381073,3.626812
						c-0.8601837,0.198185-1.7757111,0.0395813-2.6438293-0.0357056c-0.1862793-2.2434006-0.091156-4.4194527,0.0079346-6.6589851
						c-3.333374-0.7934608-3.3799744-0.5826111-7.0434418-4.5502815
						C235.4180756,30.0953674,249.0332184,33.4644852,248.6884308,35.0262451z"/>
					<path class="st3" d="M229.6480255,37.6284142c0.6573486,0.0456772,0.6790924,0.4688072,0.3865051,0.6642723
						c-0.3625336,0.2421951-2.0600586,0.3286133-2.6685944,0.3194199c-0.2910614-0.0043983-1.2246094,0.1241341-1.0237122-0.3441048
						c0.1457214-0.3396721,0.8289032-0.5308075,1.1468201-0.5865326
						C228.1869812,37.5591278,228.9440918,37.5795021,229.6480255,37.6284142z"/>
					<path class="st15" d="M228.5311127,22.0031319c7.7998505-0.0563641,15.3736572,0.5883045,22.6621246,3.4286938
						c1.3110352,0.5109253,1.8946533,2.0496788,1.2498779,3.3003273c-1.1211243,2.1745586-2.4243927,4.3770504-3.7550812,6.2932224
						c-1.8262177-1.9174843-18.2602539-6.0313377-22.7161865-5.0088749
						c-0.0176239-2.0042973-0.1602173-4.0777092,0.2413788-6.1200638
						C226.4296265,22.7959938,227.4096375,22.0112343,228.5311127,22.0031319z"/>
				</g>
				<ellipse class="st3" cx="228.1317139" cy="40.9162216" rx="0.6891619" ry="1.2274989"/>
			</g>
			<path class="st0" d="M172.8174438,194.124649c-0.5072632,0.2933044-1.1058807,0.3963623-1.6885223,0.4518127
				c0.7690277-0.0594177,1.3596039,0.8522491,1.1614227,1.5973663c-0.1942139,0.7451324-0.9434052,1.2405853-1.7004242,1.3674469
				c-0.7610931,0.1308441-1.5339966-0.0316315-2.2870483-0.1942139c0.6856995,0.1942139,0.9869537,1.0979462,0.6976013,1.7480469
				c-0.2853699,0.6499939-0.9988403,1.0304871-1.7043915,1.1176758c-0.574707,0.0752869-1.1177826,0.1625824-1.6726532,0.1070251
				c0.6579285,0.2378693,1.0741425,1.1257172,0.7055359,1.7519684c-0.3765259,0.6381378-1.2208405,0.78479-1.9581146,0.8482361
				c-6.4607086,0.5548706-12.9254761-0.6104279-18.8590698-3.2303619
				c-10.3212891,0.9322357-32.0707779,4.0749969-41.6105957,0.7886658
				c-4.1103668-1.4109802-7.6221237-4.1895142-10.6702576-7.2931061
				c-7.4041061-7.5389099-11.221077-18.8591614-13.1395264-29.2518921l22.3947296,1.9778595
				c0.3372574,0,5.1765747,10.5057373,6.9257813,14.3273315c0.3941498,0.8611145,1.1753159,1.4788666,2.1040802,1.6640015
				c6.4696655,1.2896881,31.998703,6.3631897,32.9295807,6.304306c4.9744263-2.4177704,10.135025-4.4511871,15.4225922-6.0762329
				c0.9235687-0.2853699,1.8946533-0.562912,2.8498688-0.4003296c0.9552917,0.1624756,1.8827362,0.8997498,1.9382782,1.8668671
				c0.0554504,1.0147247-0.812561,1.8271942-1.648941,2.4099426c-1.8152924,1.2683563-3.6940765,2.2116547-5.8226166,2.8260498
				c4.6018677,0.3448792,9.1877594,0.9156342,13.7340851,1.7162933c0.6461182,0.1109924,1.3119965,0.2377625,1.8748016,0.5747223
				C174.0727081,191.9042664,174.1028595,193.381546,172.8174438,194.124649z"/>
			<path class="st20" d="M105.1950607,166.854248c0,0-10.7788391,8.2731171-24.0978394,6.104248
				c0,0-12.0117569-23.6774292-6.5440521-31.2871246s18.3739319-4.3924408,23.2763214,4.5559998
				C102.7318726,155.1758118,105.1950607,166.854248,105.1950607,166.854248z"/>
			<path class="st3" d="M95.1636124,101.2148132c0,0-1.2270889-6.8127518-9.759552-7.1132431
				c-8.5324173-0.3004837-16.1063156,2.9138184-17.5054398,7.1131744
				c-1.4962997,4.4910126-1.5378571,9.3423538-2.0212631,13.9771042c-0.6137848,5.8848343-0.5971069,11.7113037,0.4745941,17.549057
				c0.3573761,1.9467163,0.9418182,4.0641479,2.5929565,5.1555481c1.9701233,1.3022614,4.5870895,0.6138458,6.8328476-0.1167908
				c1.6686707-0.5428925,3.370163-1.102417,4.778923-2.1486359c3.2526779-2.4156494,3.4684448-7.1349335,4.0200958-10.7902145
				c0.2766647-1.8332672,0.5462341-3.6676178,0.8118744-5.5025101c0.091568-0.6325531,0.0189819-1.9127426,0.3549271-2.472641
				C85.7435913,116.8656235,95.1636124,101.2148132,95.1636124,101.2148132z"/>
			<path class="st0" d="M97.797081,122.287117c-0.871994,1.4427338-2.3345642,2.5367126-3.9913483,2.9013367
				c-5.1806107,1.1486053-7.9224091-3.8584747-9.9686813-8.7161026c-0.0792542,0.8759537-1.018692,1.4943085-1.8946457,1.4468002
				c-2.053894-0.1018753-4.1712265-3.2810593-2.5406799-4.8435974c0.4716568-0.4519119,1.173233-0.5945511,1.8233261-0.5271988
				c0.6500015,0.0673523,1.3912506,0.4201736,1.9937363,0.669838c-0.3448868-0.7134781-0.5351334-1.5616608-0.8800201-2.2751389
				c1.4468002-0.990921,2.9054031-1.989769,4.1777267-3.1987076c2.6239929-2.4891052,4.3957443-5.8543472,4.9625168-9.4255219
				c1.3753815,0.8918228,2.3108521,2.0055389,3.6862335,2.8973694c2.3408966,4.6681824,3.2082748,9.8800812,3.5355606,15.0976486
				C98.8237,118.2837753,98.8554459,120.543045,97.797081,122.287117z"/>
			<path class="st8" d="M155.4525909,268.4989014c0.0317383,4.1499329-3.32547,7.5349121-7.4754333,7.5349121H75.1526871
				c-4.3521042,0-8.1255264-3.0163269-9.0808334-7.2614441c-2.7327003-12.1468811-30.5349541-135.7277832-34.5512657-153.5802765
				c-1.0701714-4.7683029,2.2315941-9.4097443,7.0870895-9.9606552l12.8065414-1.4507599
				c3.9439278-0.4438858,7.641964,1.9937363,8.7875175,5.7909622l29.3548584,97.5221252
				c1.7599411,5.846405,7.106926,9.8774261,13.2149048,9.9606476l44.9480591,0.6183624
				c4.0518646,0.053299,7.3415985,3.3428497,7.3723755,7.4160004L155.4525909,268.4989014z"/>
			<path class="st18" d="M155.4525909,268.4989014c0.0317383,4.1499329-3.32547,7.5349121-7.4754333,7.5349121H75.1526871
				c-4.3521042,0-8.1255264-3.0163269-9.0808334-7.2614441L35.2306252,131.6889343
				c3.4085197-1.2030029,10.6642265-2.3382874,16.1410637-3.0779114c3.9470863-0.5330353,7.6629562,1.9811401,8.6402626,5.8422852
				c5.3091393,20.9753723,21.7753334,84.083374,28.1573601,85.9266815c5.9138565,1.708313,47.579895,1.8034363,66.2923584,1.7598419
				C155.5680695,224.6368561,154.855835,222.5609741,155.4525909,268.4989014z"/>
			<path class="st3" d="M92.046402,106.8378372c0.3084717-0.0858841,0.7045975-0.1320343,0.8883514,0.1301956
				c0.134697,0.1922226,0.0726318,0.4703979-0.0792007,0.6493988c-0.2055206,0.2422943-0.2406235,0.2216721-2.9378128,1.4557266
				c-1.1097794,0.5077591-2.1737595-0.1509247-0.8825989-0.9894791
				C89.9272461,107.5042877,91.0282669,107.1213226,92.046402,106.8378372z"/>
			<path class="st3" d="M97.2064972,106.5988846c-0.3606644,0.1664429-0.7252884,0.3290176-1.0860443,0.4954605
				c-1.314537,0.6056824-2.8099747-0.4331818,0.7095108-1.7717514
				C96.9647675,105.7466431,97.091629,106.1707764,97.2064972,106.5988846z"/>
			
				<ellipse transform="matrix(0.9960088 -0.0892554 0.0892554 0.9960088 -9.345192 9.0918751)" class="st3" cx="96.9877396" cy="109.0387268" rx="0.6593771" ry="1.3715043"/>
			
				<ellipse transform="matrix(0.9960088 -0.0892554 0.0892554 0.9960088 -9.4992924 8.6251984)" class="st3" cx="91.6925735" cy="110.5284576" rx="0.6593771" ry="1.3715043"/>
			<path class="st2" d="M97.6076889,114.6596985c-0.6261749,0.5583649-1.3923187,0.9534454-2.2047043,1.1587906
				c-0.2420959,0.0611954-0.826828,0.2713242-1.0672531,0.2076645c-0.3134384-0.0829926-0.3857574-0.4430389-0.1707611-0.659668
				c0.3848038-0.3877258,1.9879379-0.0411911,2.1949005-0.8206482c0.1062698-0.4002457-0.1768799-0.6623077-1.6501617-2.7324829
				c-0.2155685-0.3029022-0.7065735-0.999588-0.3078461-1.3478241c0.4260101-0.3720703,0.8275452,0.6066437,1.0030289,0.8713531
				C96.1391602,112.4444885,96.8734283,113.5520935,97.6076889,114.6596985z"/>
			<path class="st20" d="M97.4930649,116.1849136c-1.4285507,1.477356-3.6692429,1.1935272-5.5194855,0.9093323
				C93.3247833,120.3038864,97.3906937,118.4855804,97.4930649,116.1849136z"/>
			<g>
				<path class="st2" d="M159.983429,200.2422638c-0.4874268-0.0998383-0.3334351-0.8362427,0.1503906-0.734375
					c3.9013519,0.7966614,1.8223419,0.6052399,5.78125,0.5283203c0.1821289,0.0048828,0.378418,0.1606445,0.3823242,0.3676758
					s-0.1606445,0.378418-0.3676758,0.3823242C161.9354706,200.8643494,163.9031677,201.0460205,159.983429,200.2422638z"/>
			</g>
			<g>
				<path class="st2" d="M161.5971985,196.9463654c-0.4680939-0.157196-0.2364044-0.8654938,0.2373047-0.7119141
					c2.2026367,0.7353516,4.5869141,1.0078125,6.8969727,0.7885742c0.5096893-0.0332947,0.5533142,0.7002411,0.0712891,0.7470703
					C168.261261,197.8213654,163.9525604,197.7319183,161.5971985,196.9463654z"/>
			</g>
			<g>
				<path class="st2" d="M163.870636,193.9532013c-0.4615173-0.1771545-0.1999359-0.8757629,0.2675781-0.7011719
					c2.3959961,0.9155273,5.0136719,1.2788086,7.5683594,1.0546875c0.4942932-0.0445099,0.5593262,0.7038727,0.0654297,0.7470703
					C169.1057281,195.2878418,166.3752747,194.908844,163.870636,193.9532013z"/>
			</g>
			<g>
				<path class="st21" d="M169.4853821,122.4795685c-0.486969-0.0971603-0.3381805-0.8338928,0.1474609-0.7353516
					c2.4384766,0.4887695,4.9985352,0.4116211,7.4052734-0.2236328c0.4851227-0.1239166,0.6676788,0.5989685,0.1914063,0.7255859
					C174.7775726,122.8935852,172.1037598,123.0048599,169.4853821,122.4795685z"/>
			</g>
			<g>
				<path class="st21" d="M170.7754211,125.5611115c-0.4889832-0.0816956-0.3673706-0.8204041,0.1230469-0.7402344
					c2.8193359,0.4707031,5.7651367,0.3120117,8.5185547-0.4580078c0.4813995-0.1294708,0.6778717,0.588562,0.2021484,0.7226563
					C176.7624207,125.884758,173.7036438,126.0495758,170.7754211,125.5611115z"/>
			</g>
			<g>
				<path class="st21" d="M171.9346008,127.9365997c-0.4817657,0-0.5029907-0.7243423-0.019043-0.7495117l6.8842773-0.3554688
					c0.4944763-0.0298309,0.5358582,0.7231827,0.0390625,0.7490234
					C178.6130371,127.5922928,171.480484,127.960083,171.9346008,127.9365997z"/>
			</g>
		</g>
	</g>
</g>
</svg>
