<?xml version="1.0" encoding="utf-8"?>
<!-- Generator: Adobe Illustrator 22.0.1, SVG Export Plug-In . SVG Version: 6.00 Build 0)  -->
<svg version="1.1" id="Layer_1" xmlns="http://www.w3.org/2000/svg" xmlns:xlink="http://www.w3.org/1999/xlink" x="0px" y="0px"
	 viewBox="0 0 300 300" style="enable-background:new 0 0 300 300;" xml:space="preserve">
<style type="text/css">
	.st0{fill:#EDC1A4;}
	.st1{fill:#E2E0E0;}
	.st2{fill:#D39E81;}
	.st3{fill:#502E26;}
	.st4{fill:#CCCACA;}
	.st5{fill:#426800;}
	.st6{fill:#538705;}
	.st7{fill:#D47E44;}
	.st8{fill:#73341D;}
	.st9{fill:#BC672E;}
	.st10{fill:#96311D;}
	.st11{fill:#B83E21;}
	.st12{fill:#DE8D82;}
	.st13{fill:#EFBAB4;}
	.st14{fill:#FDD5D0;}
	.st15{fill:#6883CE;}
	.st16{fill:#3D4885;}
	.st17{fill:#3859AE;}
	.st18{fill:#864424;}
	.st19{fill:#FEFEFE;}
	.st20{fill:#FFFFFF;}
	.st21{fill:#A55925;}
	.st22{fill:#F4F2F2;}
	.st23{fill:#3C3E68;}
	.st24{fill:#E8997C;}
	.st25{fill:#F5C46B;}
	.st26{fill:#F7EBDA;}
	.st27{fill:#0E0C0D;}
	.st28{fill:#657C3A;}
	.st29{fill:#576C37;}
	.st30{fill:#7C995D;}
	.st31{fill:#36518C;}
	.st32{fill:#96B7E3;}
	.st33{fill:#A3B3DF;}
	.st34{fill:url(#SVGID_1_);}
	.st35{fill:url(#SVGID_2_);}
	.st36{fill:url(#SVGID_3_);}
	.st37{fill:url(#SVGID_4_);}
	.st38{fill:url(#SVGID_5_);}
	.st39{fill:#266AB7;}
	.st40{fill:#060E0D;}
	.st41{fill:#E0D4C6;}
	.st42{fill:#787E42;}
	.st43{fill:#D3D1D1;}
	.st44{fill:url(#SVGID_6_);}
	.st45{fill:url(#SVGID_7_);}
	.st46{fill:url(#SVGID_8_);}
	.st47{fill:#020508;}
	.st48{fill:#BAB6B6;}
	.st49{fill:#0F0B07;}
	.st50{fill:#2F3A68;}
	.st51{fill:#203257;}
	.st52{opacity:0.5;fill:#FFFFFF;}
	.st53{opacity:0.2;fill:#0E0C0D;}
	.st54{fill:#DD9F9B;}
	.st55{fill:#3E4D9B;}
	.st56{fill:url(#SVGID_9_);}
	.st57{fill:#5F6194;}
	.st58{fill:url(#SVGID_10_);}
	.st59{fill:url(#SVGID_11_);}
	.st60{fill:url(#SVGID_12_);}
	.st61{fill:url(#SVGID_13_);}
	.st62{fill:#070102;}
	.st63{fill:#100805;}
	.st64{fill:#FDA465;}
	.st65{fill:#2A50A1;}
	.st66{fill:#B76C39;}
	.st67{fill:#130602;}
	.st68{fill:url(#SVGID_14_);}
	.st69{fill:url(#SVGID_15_);}
	.st70{fill:url(#SVGID_16_);}
	.st71{fill:url(#SVGID_17_);}
	.st72{fill:url(#SVGID_18_);}
	.st73{fill:url(#SVGID_19_);}
	.st74{fill:#B4BDED;}
	.st75{fill:#100D08;}
	.st76{fill:#F6C85F;}
	.st77{fill:#FECF00;}
	.st78{fill:#2D59E2;}
	.st79{fill:#121F3A;}
	.st80{fill:#BBD0F5;}
	.st81{fill:#020202;}
	.st82{fill:#E2CFB7;}
	.st83{fill:#080805;}
	.st84{fill:#A87D7C;}
	.st85{fill:#182052;}
	.st86{fill:#EAEAEA;}
	.st87{fill:#DDDDDD;}
	.st88{fill:#3D4574;}
	.st89{fill:#ABC5F0;}
	.st90{fill:url(#SVGID_20_);}
	.st91{fill:#4159A8;}
	.st92{fill:#E0D0BD;}
	.st93{fill:#3D53AA;}
	.st94{fill:#0A0000;}
	.st95{fill:#BF6D36;}
	.st96{fill:#385DAE;}
	.st97{fill:#E0DCDC;}
	.st98{fill:#857E78;}
	.st99{fill:#0E213C;}
	.st100{fill:url(#SVGID_21_);}
	.st101{fill:#55608E;}
	.st102{opacity:0.3;fill:#F4F2F2;}
	.st103{opacity:0.3;}
	.st104{fill:#213987;}
	.st105{enable-background:new    ;}
</style>
<g id="Sifting_Flour_1_">
	<g id="Sifting_Flour">
		<g>
			<g>
				<path class="st15" d="M67.6420212,219.6345978c-3.7978668-2.9086456,12.7918396-51.2451935,15.4306946-49.3312988
					l68.2399979,7.4309082c0,0,14.6401978,16.7547913,17.4043579,34.5332947S67.6420212,219.6345978,67.6420212,219.6345978z"/>
				<ellipse class="st13" cx="150" cy="231.8023682" rx="128" ry="23.3550301"/>
				<path class="st7" d="M199.5439758,185.1649017c-3.6505737,2.8140106-7.211853,1.4160156-7.5568085-0.7173004
					c-0.9891663-6.1061707-12.1719666-7.6612396-18.164978-10.6165771
					c-6.1670532-3.0428619-10.711792-8.7280121-13.6678162-14.9371338
					c-2.954834-6.2070465-4.4946747-12.9917297-6.0045624-19.689209
					c-1.2496338-5.5393066,7.6328735-14.293251,17.1310425-11.8325806l3.1437988,2.1715088
					c0.0576324,0.1363068,3.576828,7.4578857,5.6627045,14.6961975c1.1674805,4.0291443-0.6659241,2.5899353,3.6845093,7.9322968
					c7.7866821,9.5785828,14.822525,11.9848785,17.8847809,14.8025208c1.8436737,1.7008667,3.5640564,4.8642578,3.7742004,7.5568848
					C203.9144592,180.8497467,201.8590851,183.391983,199.5439758,185.1649017z"/>
				<g>
					<path class="st21" d="M197.2401428,184.5468445c-1.253418-0.1005859-1.4462891-1.6142578-1.5615234-2.5185547
						c-0.5554047-4.3779144,2.2118835-5.6109161,2.3461914-9.0366211c0.0629883-1.6079102-0.7705078-3.2102051-2.1225586-4.0822754
						c-0.4170074-0.2686615-0.0105286-0.8994598,0.40625-0.6303711c1.5708008,1.0129395,2.5385742,2.8742676,2.465332,4.7419434
						c-0.1339264,3.4546509-2.8569489,5.0020752-2.3510742,8.9123535c0.121582,0.9560547,0.2802734,1.8181152,0.8769531,1.8659668
						c1.0126038,0.0643158,2.6641388-3.8346252,5.2958984-6.6782227c1.3530273-1.4599609,0.605957-4.0712891,0.2216797-5.1264648
						c-0.6235352-1.7128906-1.6923828-3.2512207-2.7265625-4.7387695c-0.2836456-0.4084778,0.3343201-0.8346863,0.6162109-0.4282227
						c1.0610352,1.5270996,2.1586914,3.105957,2.8154297,4.9106445c0.4311523,1.1843262,1.2573242,4.1293945-0.3764648,5.8925781
						c-1.5673218,1.6933136-2.8278198,3.8798828-4.1733398,5.7775879
						C198.5414886,184.0157623,197.993576,184.6060486,197.2401428,184.5468445z"/>
				</g>
				<path class="st26" d="M152.7993011,181.3569794c-0.100174,0.0688324-1.4352264,3.9662323-12.1492004,6.0522156
					c-10.7145996,2.0846252-46.2038956,5.8924103-56.7644424-12.6394958c0,0-2.6141586-3.2754517-1.4009705-6.5313263
					c1.2160645-3.2558899-0.3193893-65.0217514-0.3193893-65.0217514l2.2303314-0.930191l58.030899-8.2713165l7.9154663,1.0058517
					c0,0,2.7290802,18.1818008,3.4267578,33.5055695C154.4772644,144.0582581,158.4570618,171.8282166,152.7993011,181.3569794z"/>
				<path class="st47" d="M152.7993011,181.3569794c0,0-0.4567261,1.2664795-2.7851563,2.7403717
					c3.7798157-9.2072601,5.6823425-19.1820374,5.5450439-29.1373901l0.0196381,0.0112152
					C156.0971375,165.8679352,155.833786,176.2463226,152.7993011,181.3569794z"/>
				<path class="st7" d="M139.4984741,100.4259109c-0.056015,0.5799484-2.5245361,15.0267487-2.7430725,15.6823578
					c-0.2185516,0.6528702-4.0656128,10.2355499-4.7184448,11.1798325
					c-0.6528778,0.9442902-4.0656128,5.1526642-4.0656128,5.1526642s-4.211319,1.703598-5.3012772,2.1238861
					c-1.0871506,0.4175568-7.7669907-1.5410614-7.7669907-1.5410614l-7.5596161-4.2112579l-6.5985107-6.2427826
					l-4.4999237-9.1482925l-0.3838959-13.8611069c1.9465027-0.4767075-7.026268,1.7207642,18.969162-4.6456299
					c0.3050537-0.0176239,19.0313721-1.0993881,19.4986267-1.1263809
					C134.3289185,93.7881393,139.5545349,99.8459549,139.4984741,100.4259109z"/>
				<path class="st47" d="M123.2164688,94.4297943c-4.8657532,5.2727509-12.3905334,6.1541443-18.1874161,2.8859406
					l9.801239-2.4012146L123.2164688,94.4297943z"/>
				<path class="st15" d="M142.4262238,94.0159988c0,0-0.243042,19.9724884-5.9865723,33.5649796
					c-5.0055542,11.8460846-8.4955978,15.0169525-16.9684677,14.1122894
					c-8.3674164-0.8934021-17.6266327-13.9273529-21.4277878-20.1455078
					c-6.3481979-10.3847733-13.6463852-19.2626877-13.6463852-19.2626877s2.153183-1.2104645,11.4641266-2.724884
					c0,0,5.8864899,13.6962967,13.7132111,22.8538513s10.7412415,9.8514786,12.9545746,8.8233719
					s5.9770584-7.0178986,9.3935776-21.6147003c0,0,2.2550659-13.1126404,2.4055634-15.8345184
					C134.328064,93.7881927,140.9688721,93.1072083,142.4262238,94.0159988z"/>
				<g>
					<path class="st15" d="M92.2117386,61.0019798c-1.0773392-0.0798531-2.1513214-0.1036682-3.156662-0.540493
						c-0.8946533-0.3886261-1.5052032-1.0594101-1.8190155-1.9829292c-0.7691269-2.2628441-0.0658417-5.5206528,0.9966507-7.595768
						c1.3362427-2.6100006,3.6831436-4.4987907,6.4626694-5.3870049c2.280777-0.7290611,7.8529816-1.049881,9.9205322,0.126091
						c0.3278198,0.1866112,0.4693222,0.477726,0.5511322,0.8372154c0.4668121,2.0470963-1.0613708,4.6912804-2.046524,6.3629189
						c3.2297897-0.9554634,6.536911-1.6251259,9.9191284-1.2947769c4.5046768,0.4396248,8.8202209,2.2628441,11.7109756,5.8224258
						c2.1513519,2.6494293,4.3937683,6.6819038,4.1888733,10.214344c-0.1044464,1.8008499,0.4425049,3.4780884-0.0231628,5.3279419
						c-0.4566193,1.8138275-1.4451141,3.4978867-2.7636108,4.8196335
						c-5.0249557,5.0373459-16.5558014,6.6370621-23.6689148,6.5290604
						c-2.1516953-0.0326691-4.3484726-0.2096939-6.3253021-1.0599823c-3.216629-1.3835602-4.1314468-4.1255875-5.2121201-7.1944809
						C88.9617691,70.3503571,89.6843948,66.2561722,92.2117386,61.0019798z"/>
					<path class="st7" d="M126.4987564,90.3225555c-5.3781586,9.2698822-17.3378296,10.3873367-24.400383,3.1405258
						c-2.0766068-2.1307831-3.5277176-5.7190933-3.9102325-5.6316757c-0.535141,0.1344833-1.0730972,0.2689514-1.6250305,0.3053436
						c-3.2130508,0.2231674-5.8901596-2.9095383-5.940094-5.8811951c-0.025238-1.3729172,0.532341-2.3228149,1.4289856-3.2893982
						c1.1375656-0.6977539,2.0538025-0.9218521,3.3315048-1.2357025l0.1120529-0.2801895
						c-0.8299942-8.6461029,4.1603775-17.2425804,12.3061142-18.5237007c1.1291885-0.176487,2.4965286-0.3305397,3.63694-0.2801933
						c4.0426865,0.1932297,9.4140778,3.0568962,13.0345764,8.3806381c0.1492615,0.2196274,2.0697021,3.0595551,1.9277344,3.2866592
						c0.7537003-0.9162369,1.356163-1.6923752,2.5049133-2.1294937c1.1796417,0.1205292,2.1547089,0.5772171,2.9084473,1.5187607
						c1.8046722,2.2592926,1.8967896,6.8882141-0.8518066,8.8876648c-0.5828247,0.4231644-1.2833099,0.6584854-1.9725647,0.851799
						C129.0366211,84.4383545,128.0216827,87.6976013,126.4987564,90.3225555z"/>
					<path class="st3" d="M112.946022,58.822998c-5.7215195,9.264679-13.4131699,12.7863159-17.4504623,18.6272659
						c-0.8299942-8.6461029,4.1603775-17.2425804,12.3061142-18.5237007
						C109.5873871,58.6474609,111.2356873,58.496666,112.946022,58.822998z"/>
					<path class="st9" d="M112.1458359,76.8401947c1.0218735,2.3331375,1.8746338,6.7961426,1.9938583,6.8768082
						c0.3415909,0.2311249,0.7088165,0.3866043,0.9886169,0.7086182c0.2087326,0.2402344,0.3483276,0.5602417,0.3001785,0.8748322
						c-0.0873489,0.5707397-0.893074,1.172226-1.4602737,1.1409912c-0.5203247-0.028656-0.9248886-0.5103989-1.040863-1.0184402
						c-0.1235123-0.541069,0.0850372-1.0537949,0.0330887-1.5836945c-0.2346039-2.3933105-2.5388107-6.8108978-2.1148987-7.7706985
						C111.1783905,75.3149872,111.8404312,76.1429138,112.1458359,76.8401947z"/>
					<path class="st3" d="M120.3932953,70.194519c0.8329849-0.0155258,1.762085,0.1214066,2.0440521,0.918251
						c0.702713,1.9878998-4.8244324,1.9961624-6.7274475,2.2485504c-0.8922195,0.0667572-1.8454819-0.0703125-2.1632996-0.9026794
						c-0.3948822-1.0341949,0.3572083-1.5139847,1.4477386-1.6738663
						C116.433403,70.5737991,119.4143448,70.2127609,120.3932953,70.194519z"/>
					<path class="st3" d="M108.6236115,74.845787c-0.1727676,0.2313232-5.3757324,3.1674957-5.9636688,3.3282852
						c-0.3158112,0.0863724-0.6587601,0.1504669-0.9647751,0.0340576c-0.396431-0.1508026-0.6359329-0.5906448-0.6309052-1.0147629
						c0.0127563-1.076889,1.2413864-1.7769775,2.1536484-2.3623123c0.6156769-0.3950348,3.3743057-1.9608994,3.7323685-2.1081161
						C108.5706711,72.0567169,109.2301559,74.033638,108.6236115,74.845787z"/>
					
						<ellipse transform="matrix(0.9383444 -0.3457018 0.3457018 0.9383444 -19.2559223 45.8779716)" class="st3" cx="118.9905777" cy="76.9228134" rx="1.363044" ry="2.0432584"/>
					
						<ellipse transform="matrix(0.9383444 -0.3457018 0.3457018 0.9383444 -21.2302017 41.9144173)" class="st3" cx="106.8916473" cy="80.4759216" rx="1.363044" ry="2.0432584"/>
					<path class="st20" d="M117.9125671,86.7467804c-2.2698898,1.290184-4.8034973,2.1140442-7.3980942,2.4056549
						c0.8810654,0.8197021,1.9106598,1.4088516,3.1140366,1.3998489
						C116.3849182,90.5316544,118.3147964,88.1483154,117.9125671,86.7467804z"/>
				</g>
				<g>
					<path class="st8" d="M78.8173752,210.2154999c0.1333618,1.0888367,0.7248535,1.3953705,1.5402145,2.033371
						c1.4012527,1.0961151,25.1625137,19.2190247,28.538559,21.2977905c0.899704,0.5539398,1.8817825,0.9577026,2.8930054,1.256958
						c3.4727173,1.0277405,148.7001343,0.4555817,150.8284912,0.1779175
						c0.4732361-0.0619202,0.9078369-0.1989441,1.3547363-0.362854c0.2846069,4.1820831-0.2670898,7.2713623-4.9711914,7.5963287
						c-1.7744751,0.1227264-134.8801575,0.0818176-145.4521484-0.0288544
						c-3.4276886-0.0366058-3.5765457-0.2054291-9.2805786-4.5262604
						c-3.1269608-2.3687439-24.113739-18.0354919-25.9285507-19.8948517
						c-0.0840607-1.4984894-0.0467987-2.9835052-0.0084076-4.4825287
						C78.3788605,212.2186127,78.4556351,211.224472,78.8173752,210.2154999z"/>
					<path class="st11" d="M263.9724731,234.6177216c-0.4483337,0.1652679-0.8826294,0.3026276-1.3561707,0.3641968
						c-2.1266479,0.2774506-147.353775,0.8490601-150.8282166-0.1792297
						c-1.0114594-0.2970276-1.9921341-0.7033539-2.8915482-1.2552643
						c-3.3763428-2.07901-27.1367722-20.2019806-28.5377426-21.2975922
						c-0.8153381-0.6387787-1.4093857-0.9442749-1.5410614-2.0341339c0.9054031-1.5646667,2.1381531-2.0019379,3.7265854-2.1295013
						c2.8916168-0.2325745,136.8241272-0.1876984,139.0740814,0.0980988
						c1.6222992,0.2072754,2.8663788,0.7340088,4.2701569,1.5633698
						c3.1998138,1.8912964,35.1531067,21.1069946,37.1004333,22.9506989
						C263.5689697,233.2475281,263.7931519,233.8527985,263.9724731,234.6177216z"/>
					<path class="st8" d="M251.6411438,230.6501312c-14.0608368,0.1110535-129.2591705,0.6248322-138.8527527-0.2297058
						c-1.4288712-0.4672089-1.1994553-0.0414429-24.7186737-17.9184418
						c21.1428375-0.1240692,127.2384644-0.1109619,133.09758,0.1457062
						c0.7957306,0.1149292,1.4513702,0.3755493,2.4404755,0.9611206
						C227.300705,215.7886505,242.0361023,224.6820679,251.6411438,230.6501312z"/>
					<ellipse class="st20" cx="103.4738388" cy="215.9074707" rx="2.4811754" ry="0.89598"/>
					<ellipse class="st20" cx="112.6332626" cy="220.7687531" rx="2.4811754" ry="0.89598"/>
					<ellipse class="st20" cx="115.7128525" cy="227.7989349" rx="2.4811754" ry="0.89598"/>
					<ellipse class="st20" cx="127.3447495" cy="227.7989349" rx="2.4811754" ry="0.89598"/>
					<ellipse class="st20" cx="138.9766388" cy="227.7989349" rx="2.4811754" ry="0.89598"/>
					<ellipse class="st20" cx="150.6085358" cy="227.7989349" rx="2.4811754" ry="0.89598"/>
					<ellipse class="st20" cx="162.2404327" cy="227.7989349" rx="2.4811754" ry="0.89598"/>
					<ellipse class="st20" cx="173.8723297" cy="227.7989349" rx="2.4811754" ry="0.89598"/>
					<ellipse class="st20" cx="185.5042114" cy="227.7989349" rx="2.4811754" ry="0.89598"/>
					<ellipse class="st20" cx="197.1361084" cy="227.7989349" rx="2.4811754" ry="0.89598"/>
					<ellipse class="st20" cx="208.7680054" cy="227.7989349" rx="2.4811754" ry="0.89598"/>
					<ellipse class="st20" cx="220.3999023" cy="227.7989349" rx="2.4811754" ry="0.89598"/>
					<ellipse class="st20" cx="232.0317841" cy="227.7989349" rx="2.4811754" ry="0.89598"/>
					<ellipse class="st20" cx="228.7813873" cy="220.7687531" rx="2.4811754" ry="0.89598"/>
					<ellipse class="st20" cx="124.2023163" cy="220.7687531" rx="2.4811754" ry="0.89598"/>
					<ellipse class="st20" cx="135.7713776" cy="220.7687531" rx="2.4811754" ry="0.89598"/>
					<ellipse class="st20" cx="147.3404236" cy="220.7687531" rx="2.4811754" ry="0.89598"/>
					<ellipse class="st20" cx="170.4785309" cy="220.7687531" rx="2.4811754" ry="0.89598"/>
					<ellipse class="st20" cx="182.0475922" cy="220.7687531" rx="2.4811754" ry="0.89598"/>
					<ellipse class="st20" cx="193.6166534" cy="220.7687531" rx="2.4811754" ry="0.89598"/>
					<ellipse class="st20" cx="216.7547607" cy="220.7687531" rx="2.4811754" ry="0.89598"/>
					<ellipse class="st20" cx="115.7128525" cy="215.9074707" rx="2.4811754" ry="0.89598"/>
					<ellipse class="st20" cx="127.9518738" cy="215.9074707" rx="2.4811754" ry="0.89598"/>
					<ellipse class="st20" cx="140.1909027" cy="215.9074707" rx="2.4811754" ry="0.89598"/>
					<ellipse class="st20" cx="152.4299164" cy="215.9074707" rx="2.4811754" ry="0.89598"/>
					<ellipse class="st20" cx="164.6689301" cy="215.9074707" rx="2.4811754" ry="0.89598"/>
					<ellipse class="st20" cx="201.3860016" cy="215.9074707" rx="2.4811754" ry="0.89598"/>
					<ellipse class="st20" cx="213.6250153" cy="215.9074707" rx="2.4811754" ry="0.89598"/>
				</g>
				<path class="st19" d="M219.1078339,230.8211517c-30.9487,0.1088867-47.3068542,0.1430817-77.2521667,0.0279083
					c-1.09552-0.8264923-1.3813324-2.4039459,0.0924988-3.2333069c0.7789459-0.4371185,1.8548431-0.3559875,2.423645-1.0423889
					c0.6108704-0.7312622,0.2914124-1.9669647,0.9611053-2.6478882c0.5407562-0.5547638,1.4513855-0.4566803,2.1938782-0.2381897
					c0.7425537,0.2186279,1.5410614,0.5156555,2.2639771,0.2354584c1.3813324-0.5352173,1.3897552-2.6813965,2.6702576-3.4267578
					c1.5998993-0.9274597,3.75737,1.0226746,5.3825073,0.1428375c1.2216034-0.6583557,1.3645782-2.5496521,2.6198425-3.1437073
					c1.4429626-0.6836548,3.0456696,0.8742371,4.6343384,0.6948853c1.2160645-0.1373596,2.0566406-1.2244873,3.012085-1.9894104
					c1.6111145-1.2916565,3.866684-1.734375,5.8476715-1.1432037c1.3701172,0.4090729,2.6618347,1.2805634,4.0851746,1.1656494
					c1.0815735-0.0868835,2.0258636-0.7314148,2.9140625-1.353363c1.6419525-1.1432037,3.5696564-2.4741364,5.2620392-0.7144318
					c0.3978577,0.4118042,0.7929688,0.8572693,1.3225098,1.070282c1.8072357,0.7256622,3.6621399-1.6139832,5.5617981-1.1795959
					c1.8605194,0.4230194,2.373291,3.1465607,4.1945496,3.706955c1.9333191,0.5911713,3.9058838-1.6503906,5.8308258-1.0395203
					c2.0509949,0.6528778,2.3115845,3.9898987,4.4102325,4.4718933c1.2076263,0.2773132,2.7038727-0.5211334,3.5976868,0.3390198
					c0.7536926,0.7285309,0.4315033,2.1658936,1.2468414,2.8271027c0.7733307,0.6277008,2.0426178,0.1149292,2.8580017,0.6921387
					c0.8517609,0.6023865,0.6668549,1.9781799,1.3561249,2.7626801c0.4286957,0.4903259,1.1123505,0.6556091,1.6391602,1.0338898
					c0.5267334,0.3782959,0.848999,1.2440491,0.3334045,1.6391602L219.1078339,230.8211517z"/>
				<g>
					<path class="st97" d="M177.0647888,201.817276c0.204834,0.0341949,0.4085236,0.0938721,0.6105499,0.1437378
						c0.2622681,0.3894806,0.1560669,0.5842133,0.1062012,1.0409393c-0.1667328-0.0378418-0.3317566-0.1056366-0.4934387-0.1614075
						C177.0418243,202.4650879,177.0821686,202.2594299,177.0647888,201.817276z"/>
					<path class="st97" d="M179.8616943,196.5538483c0.257782,0.0621948,0.4951019,0.1493378,0.7425079,0.2448883
						c0.0921783,0.358078-0.0431519,0.4679108-0.1986542,0.7867737c-0.3468933-0.1045074-0.5382538-0.1880035-0.8075256-0.4317627
						C179.6022339,196.7844543,179.6431427,196.8233948,179.8616943,196.5538483z"/>
					<path class="st97" d="M185.9864349,190.0261688l0.1459808-0.3720856
						c0.3819122-0.1434631,0.4009705-0.1434631,0.7943573-0.0344696l0.2275238,0.3183136
						c-0.0370026,0.1846466-0.0515747,0.2835388-0.157486,0.4432526
						C186.5417786,190.3436432,186.3226776,190.3674469,185.9864349,190.0261688z"/>
					<path class="st97" d="M182.9656677,204.0201569c-0.2653351-0.3174591-0.444931-0.5374146-0.5483246-0.9512634
						l0.0969391-0.1807098c0.3695679-0.0310974,0.3975983,0.0050507,0.7215118,0.1961212
						c0.1686707,0.3365326,0.1344757,0.3687439,0.0616302,0.7442017l-0.1720428,0.1927795L182.9656677,204.0201569z"/>
					<path class="st97" d="M190.1742249,203.7629395c0.8008118,0.2181854,0.9212646,0.5360718,0.9487305,1.1291809
						c-0.323349,0.099762-0.4012451,0.1308441-0.7276611,0.0608063
						C190.1475983,204.5508423,190.1960754,204.2294769,190.1742249,203.7629395z"/>
					<path class="st97" d="M177.9073334,196.206955c0.3437958,0.1129303,0.4441223,0.1303101,0.68367,0.393692
						c-0.0706024,0.4354095-0.2336731,0.5427094-0.5219879,0.8669128c-0.2221985-0.0849152-0.3121338-0.2255554-0.4693298-0.3984375
						C177.5848389,196.6179962,177.6473236,196.5852356,177.9073334,196.206955z"/>
					<path class="st97" d="M168.9428253,198.3409271c0.3395996,0.0193176,0.5965271,0.0689087,0.9176331,0.1809998
						c0.205658,0.3589325,0.1546631,0.4359741,0.105072,0.8540192c-0.3152161,0.0271759-0.4978943,0.0072937-0.7963104-0.098053
						C168.921814,198.9789124,168.9495544,198.7079773,168.9428253,198.3409271z"/>
					<path class="st97" d="M190.4541168,191.4736481c0.2914124,0.0288696,0.4844666,0.107605,0.7475739,0.2336731
						c0.1742859,0.4034882,0.0871277,0.5791626,0.0112,1.0045013c-0.3238983-0.0128937-0.4682159-0.0773315-0.7416687-0.2482452
						C190.3176727,192.0494385,190.3787537,191.9003906,190.4541168,191.4736481z"/>
					<path class="st97" d="M189.9447327,199.4064941c0.3905792-0.0114899,0.7772522-0.0162506,1.1678619-0.0086823
						l0.1630554,0.1857758l-0.1835175,0.5458069c-0.2533112,0.1008759-0.4029236,0.1297302-0.6676941,0.1583099
						C190.0652161,200.0108643,190.0730591,199.8318329,189.9447327,199.4064941z"/>
					<path class="st97" d="M171.0664215,201.5779877c0.352478,0.0291443,0.5488892,0.0361633,0.8531799,0.2364807
						c0.1117859,0.3656616,0.0308228,0.5427399-0.0521088,0.9109344c-0.3320313-0.0347595-0.5301361-0.1126556-0.8237762-0.2698364
						C170.8952179,202.0660858,170.9579773,201.987915,171.0664215,201.5779877z"/>
					<path class="st97" d="M180.7201996,193.2187042c0.3858337-0.0224152,0.6290283-0.0084229,1.0075836,0.1053467
						c0.2490845,0.3791046,0.2008972,0.4771729,0.1812744,0.9176331c-0.2857819-0.0565948-0.5654144-0.1535492-0.8447723-0.2370453
						C180.7583008,193.6933441,180.7762451,193.657486,180.7201996,193.2187042z"/>
					<path class="st97" d="M191.8850708,195.2416992c0.2569427,0.1518555,0.381073,0.2852325,0.5788879,0.5032196
						c0.0983429,0.4337463,0.0633087,0.5079956-0.0807037,0.9347382c-0.4155121-0.0708923-0.5102234-0.1157379-0.7621155-0.4342957
						C191.5799408,195.821991,191.6987457,195.6036987,191.8850708,195.2416992z"/>
					<path class="st97" d="M185.5936127,191.1738434c0.5113525-0.0504303,1.165329-0.1838074,1.5903778,0.1263733
						l-0.1218719,0.3009186c-0.3858337,0.1947479-0.6416626,0.3502502-1.0902557,0.2905579
						C185.7093353,191.6238403,185.691391,191.5406189,185.5936127,191.1738434z"/>
					<path class="st97" d="M176.2589569,195.9671173c0.3816223,0.052124,0.6651917,0.0638885,0.9624634,0.3373566
						c0.0580139,0.3947906-0.0176392,0.4539185-0.205368,0.8142395c-0.438797-0.0333405-0.4920349-0.0201721-0.828537-0.2944794
						C176.1012115,196.4350433,176.1365051,196.3520966,176.2589569,195.9671173z"/>
					<path class="st97" d="M167.3412323,197.618576c0.3690186,0.0658417,0.4477539,0.0647278,0.7229004,0.3107452
						c0.0801392,0.4121552-0.0375366,0.6309814-0.2048035,0.9941254c-0.3830261-0.0961151-0.4959564-0.1006012-0.7716675-0.3740692
						C167.0106049,198.1784058,167.1781616,197.937149,167.3412323,197.618576z"/>
					<path class="st97" d="M190.9867706,189.2194977c0.3202667,0.0271759,0.5203247,0.0781708,0.8083649,0.221344
						c0.1291656,0.4418793-0.0053253,0.6584625-0.1372986,1.0924835c-0.2821503-0.0532379-0.4583893-0.1448669-0.702713-0.2942047
						C190.7982025,189.7975311,190.8777771,189.6647186,190.9867706,189.2194977z"/>
					<path class="st97" d="M187.658905,198.5984192c0.3617401,0.1330872,0.5172424,0.1779175,0.7402802,0.513031
						c-0.0095215,0.4505463-0.0689087,0.486145-0.3412781,0.8543243c-0.321106-0.1345062-0.479126-0.263382-0.7150574-0.5180969
						C187.3204498,198.991806,187.4025421,198.9576263,187.658905,198.5984192z"/>
					<path class="st97" d="M170.3121338,202.5813599c0.2448883,0.1246948,0.4410095,0.1664429,0.5892487,0.4096527
						c0.2748566,0.4511108,0.2216187,0.8739166,0.134491,1.3645477c-0.5175171-0.3609009-0.7411194-0.7943573-0.9316406-1.3807983
						L170.3121338,202.5813599z"/>
					<path class="st97" d="M191.177597,193.1761017l0.2123871,0.1255341
						c-0.0034485,0.6624756-0.3353882,1.0560303-0.8697205,1.4923248c-0.1857758-0.2034302-0.272644-0.3253174-0.3451996-0.5923462
						C190.3008575,193.7412567,190.8097076,193.4546204,191.177597,193.1761017z"/>
					<path class="st97" d="M187.6740417,201.5956421l0.360611,0.0778961l0.1328125,0.2311707
						c-0.0935822,0.4457855-0.4908905,0.804718-0.7834167,1.1398163c-0.2863617-0.2179871-0.4449463-0.3138123-0.5634613-0.6682587
						C187.0357513,201.9430847,187.273941,201.8553772,187.6740417,201.5956421z"/>
					<path class="st97" d="M179.5313416,194.2475739c0.4351349,0.0448151,0.5710297,0.0725555,0.8669281,0.374054
						c0.0776062,0.4239197-0.038681,0.6800232-0.1899719,1.0650177c-0.3721008-0.0927429-0.5497437-0.128891-0.8251801-0.4158173
						C179.2805634,194.8474579,179.3755493,194.6317139,179.5313416,194.2475739z"/>
					<path class="st97" d="M186.6109924,193.4941254c0.2191162,0.0759277,0.2244415,0.1221771,0.368454,0.2925262
						c-0.0347443,0.4687653-0.4057159,0.8954926-0.6654663,1.278244c-0.3471375-0.2810364-0.4970551-0.4429779-0.5825195-0.8728027
						C185.9827881,193.7790833,186.1918335,193.7202454,186.6109924,193.4941254z"/>
					<path class="st97" d="M171.4911804,196.2924194c0.3440704,0.1151581,0.5298462,0.1515808,0.7503662,0.4589539
						c-0.1291809,0.4256287-0.4141235,0.5987854-0.7352295,0.8991547c-0.3488312-0.1300201-0.5183563-0.2247162-0.7108612-0.5273285
						C170.9473419,196.6788177,171.1353302,196.5877533,171.4911804,196.2924194z"/>
					<path class="st97" d="M193.1075592,191.5921783c0.3505249,0.0692139,0.5794525,0.1507416,0.8856964,0.3353882
						c0.1339264,0.4626007,0.0271759,0.6410828-0.1039581,1.096405c-0.4516754-0.0297089-0.6595764-0.0411987-0.984314-0.3513794
						C192.8209229,192.2416687,192.9489594,191.9810944,193.1075592,191.5921783z"/>
					<path class="st97" d="M187.2442322,195.3930054c0.453064,0.0725708,0.602417,0.139801,0.8741913,0.4956665
						c0.0507355,0.4987335-0.1266327,0.8223572-0.3314514,1.2687073c-0.3297882-0.1641846-0.5477905-0.3328705-0.6682739-0.7010345
						C186.9870148,196.0536957,187.0915222,195.7555847,187.2442322,195.3930054z"/>
					<path class="st97" d="M183.7745972,204.644989c0.3936768-0.1737213,0.6853485-0.3373413,1.1286163-0.2611389
						c0.160553,0.170639,0.2342377,0.1653137,0.2199402,0.4194489c-0.0184784,0.3292236-0.1344757,0.5951385-0.2557983,0.8957825
						l-0.7750092-0.0759277L183.7745972,204.644989z"/>
					<path class="st97" d="M184.2937927,201.590332c0.3356781,0.2454376,0.5906525,0.3981476,0.7307434,0.8114319
						c-0.1148682,0.4259033-0.258606,0.517807-0.5662689,0.822937c-0.3603363-0.1784973-0.5500183-0.3306274-0.7259827-0.6926422
						C183.8365173,202.0405884,183.9617767,201.951767,184.2937927,201.590332z"/>
					<path class="st97" d="M183.2853851,193.9746704c0.5596161,0.1035156,1.0629883,0.5144043,1.2406921,0.8907318
						c0.1221466,0.2591705-0.0240936,0.4306488-0.1137695,0.6850586c-0.5233917-0.0425873-0.7226105-0.1089935-1.1025543-0.4835968
						C183.1503296,194.5585785,183.1713257,194.4703217,183.2853851,193.9746704z"/>
					<path class="st97" d="M188.3683777,190.8911285c0.3852539,0.1112366,0.6004486,0.2269592,0.8178864,0.5676727
						c0.0652771,0.5049133-0.1569061,0.83638-0.3807983,1.2675934c-0.0630493-0.0137329-0.1294556-0.0165405-0.1891174-0.0411835
						c-0.1978149-0.0818024-0.3701477-0.2000732-0.4497223-0.400116
						C187.9648895,191.776825,188.1615753,191.3540039,188.3683777,190.8911285z"/>
					<path class="st97" d="M184.7154846,198.318222c0.3023224-0.0011139,0.2855225-0.0459442,0.5449677,0.1496277
						c0.148941,0.8217316-0.0693054,0.9320221-0.6612549,1.3925629c-0.037262-0.0036469-0.0764923,0.0011292-0.1120605-0.0112152
						c-0.3328857-0.1168365-0.4088135-0.1790466-0.5393982-0.481369
						C184.0522766,198.8999023,184.3873749,198.6410065,184.7154846,198.318222z"/>
					<path class="st97" d="M190.5656433,196.6914215l0.205658,0.0795746
						c0.3356781,0.4463501,0.4188995,1.1398163,0.5491943,1.6789093l-0.260025,0.0605316
						c-0.3953705-0.0809784-0.7015991-0.1667023-1.0658569-0.3395844l-0.0681-0.2415314
						C190.4217072,197.1930389,190.5203552,196.7919312,190.5656433,196.6914215z"/>
					<path class="st97" d="M177.9516144,193.0385437c0.3135223,0.2434845,0.5797119,0.4516602,0.811142,0.7814484
						c-0.0075531,0.4732361-0.1835175,0.6464081-0.431488,1.0417633c-0.4368286-0.1602631-0.6831055-0.3964844-0.8859711-0.8083496
						C177.4764099,193.4882355,177.5898743,193.4506989,177.9516144,193.0385437z"/>
					<path class="st97" d="M168.7892761,199.865448c0.5128784,0.3003082,0.6010895,0.4401703,0.7220764,0.9137115
						c-0.1266632,0.4247742-0.3009491,0.5909271-0.6181335,0.8742065c-0.4943542-0.2932129-0.6513214-0.4634857-0.7741699-0.9955292
						C168.2381439,200.2434387,168.4600525,200.1078186,168.7892761,199.865448z"/>
					<path class="st97" d="M168.1680908,195.0898285c0.9829559,0.1028595,1.3774567,0.5710907,1.1846466,1.6615448
						c-0.1588745,0.0050507-0.4068298,0.0322266-0.5684967-0.0030823c-0.3858337-0.0840454-0.4684906-0.196701-0.7114258-0.4816437
						C167.969986,195.798996,168.0260315,195.5429077,168.1680908,195.0898285z"/>
					<path class="st97" d="M175.9695129,193.02005c0.6844788,0.1799164,0.8858948,0.3612366,1.0028229,1.0574493
						c-0.3042908,0.7492371-0.6279144,0.9274445-1.3544617,1.2378845c-0.1403809-0.3048553-0.2513275-0.4766083-0.1622314-0.8072357
						c0.2050934-0.0851746,0.3950806-0.1409302,0.6125183-0.1829681c0.326416-0.063324,0.2529907-0.0565948,0.4328918-0.3020477
						c-0.3536072-0.1560669-0.5049133-0.1667023-0.7046967-0.5068665L175.9695129,193.02005z"/>
					<path class="st97" d="M180.5817871,202.1543579c0.0187683,0.0086823,0.0400696,0.0140076,0.0568695,0.0266113
						c0.2928162,0.2174225,0.462326,0.3645325,0.5617981,0.7231903c-0.0826569,0.5183563-0.3278198,0.8243103-0.6329498,1.241806
						c-0.4107666-0.2039795-0.6259613-0.3648224-0.8176117-0.7789307
						C179.83815,202.8461456,180.2323914,202.5214081,180.5817871,202.1543579z"/>
					<path class="st97" d="M182.0435638,199.8929138c0.3924713,0.0850067,0.624527,0.1443634,0.9128723,0.6166992
						c0.0112,0.4427185-0.2219086,0.6808777-0.4740906,1.0151367c-0.6669769-0.1218109-0.9112701-0.1527557-1.1034088-0.8010712
						C181.5196075,200.2324982,181.6507263,200.1986084,182.0435638,199.8929138z"/>
					<path class="st97" d="M178.1505432,205.6452789c-0.1277771-0.4068298-0.2933655-0.7169952-0.105072-1.1454315
						c0.1414948-0.3222198,0.3379211-0.39534,0.6329651-0.518631c0.3177338,0.1221619,0.4525146,0.1812897,0.5752258,0.5390778
						c0.1159973,0.3382111,0.0299835,0.7963257-0.0162506,1.144043l-0.5531006,0.2510529L178.1505432,205.6452789z"/>
					<path class="st97" d="M174.5971375,200.2868652l0.3807678,0.2574921
						c0.0403595,0.5578613,0.2140808,1.0958405,0.2577972,1.6469879c0.0389404,0.489212-0.1045227,0.54245-0.4012451,0.8985748
						l-0.3283844-0.1328125c-0.2443237-0.2687073-0.3774109-0.4785767-0.4090881-0.8408508
						C174.0336609,201.3908386,174.1645203,200.852005,174.5971375,200.2868652z"/>
					<path class="st97" d="M182.0780182,197.9590149c0.3012085,0.2546844,0.3793793,0.3942413,0.4289856,0.7626953
						c-0.1667328,0.2661743-0.3300629,0.4491425-0.6144714,0.5965271c-0.781189,0.4048767-2.0353394,0.4539032-2.8649902,0.1781921
						l0.0762329-0.3813324c0.9993439-0.1204071,1.2765198-0.4461823,1.9848785,0.2126617l0.1784973-0.1109619l-0.0762329-0.5811157
						C181.3834229,198.2649994,181.7218933,198.1629944,182.0780182,197.9590149z"/>
					<path class="st97" d="M171.9210052,205.9106293c-0.3202667-0.4082489-0.4785767-0.53685-0.5480652-1.0605469
						c0.0989075-0.2936249,0.1992188-0.5508575,0.5049133-0.6881409c0.5216827-0.2343597,1.2831268,0.0731812,1.3928528,0.8094788
						c0.0389404,0.2597504,0.0002747,0.5738373-0.0101013,0.8380585l-0.5643158,0.3261414
						C172.4354401,206.0675354,172.1784973,205.9907684,171.9210052,205.9106293z"/>
					<path class="st97" d="M173.600769,195.6381836c0.4381561,0.0844574,0.8983612,0.2921295,1.1280518,0.6727448
						l-0.2247162,0.1563416l0.1981049-0.2449036c0.0854645,0.812851-0.5259247,1.44104-0.6220398,2.1941986
						c-0.026062,0.2037201-0.0574341,0.3480072-0.1255188,0.5430298l-0.2995148,0.129715
						c-0.2198639-0.076416-0.4390717-0.15448-0.6576385-0.2342377l-0.1860504,0.4480286l-0.2549591,0.1008759l-0.1490631-0.1479492
						c0.0717316-0.529007,0.6842194-0.8618622,0.9307861-1.3143921c0.1572113-0.2883148,0.1095581-0.4827576,0.0367279-0.7814484
						C173.2014923,196.4496155,173.2712555,196.2882233,173.600769,195.6381836z"/>
					<path class="st97" d="M177.0121155,198.0245819c0.2541504,0.1003113,0.4855804,0.2558136,0.723465,0.3894653
						c0.3432312,0.1925049,0.5780334,0.2740173,0.7483978,0.6564941c-0.2339325,0.9164886-1.2759247,0.9343109-1.8599396,1.9075623
						c0.0299835,0.1921997,0.030838,0.0773315-0.0655365,0.3384705c-0.2832947-0.1000214-0.3129883-0.1375732-0.504364-0.3729248
						C176.0390167,199.9890137,176.4486542,198.7881165,177.0121155,198.0245819z"/>
					<path class="st97" d="M177.1242065,206.6425018c0.5769196,0.8817596,0.6262207,1.5326385,0.4468994,2.559845
						c-0.2843933-0.2051086-0.578598-0.3908844-0.7181396-0.7293396
						C176.6075287,207.8773041,176.9286194,207.2115784,177.1242065,206.6425018z"/>
					<path class="st97" d="M175.2497101,206.0596924l0.1868744,0.1723175
						c0.2776947,0.7402802,0.7265472,1.9016724,0.5049133,2.6786499c-0.4264374-0.0969543-0.6010132-0.0675201-0.8475952-0.4805298
						C174.7167816,207.7980042,175.0611267,206.6993713,175.2497101,206.0596924z"/>
					<path class="st97" d="M169.2751312,210.2583923c0.2252808,0.1325378,0.2140656,0.1857758,0.4819336,0.1356049
						c0.5752411-0.1075745,0.9450989-0.1311188,1.502121,0.0518341c-0.1392517,0.44664-0.3182983,0.7111511-0.7427979,0.9358673
						c-0.2350769,0.1243896-0.4836121,0.2272186-0.7464294,0.2703705c-0.2731781-0.4875336-0.5180817-0.7806091-0.9655457-1.1165619
						L169.2751312,210.2583923z"/>
					<path class="st97" d="M160.03125,225.5559235c0.2252808,0.1325378,0.2140656,0.1857758,0.4819336,0.1356201
						c0.5752411-0.1075897,0.9450989-0.1311188,1.502121,0.0518341c-0.139267,0.4466248-0.3182983,0.7111359-0.7427979,0.9358521
						c-0.2350769,0.1243896-0.4836121,0.2272186-0.7464294,0.2703705c-0.2731934-0.4875336-0.5180817-0.7806091-0.9655457-1.1165619
						L160.03125,225.5559235z"/>
					<path class="st97" d="M174.2118683,209.189743c0.2846832,0.6693726,0.4068298,1.3625641,0.5503082,2.0717468
						c-0.1720428,0.023819-0.2989807-0.0086975-0.4679413-0.0397797c-0.5567474-0.5444336-1.1406708-0.9271698-1.1521606-1.7559814
						C173.4942932,209.1351013,173.7397461,209.2141113,174.2118683,209.189743z"/>
					<path class="st97" d="M151.0839539,225.8629761c0.284668,0.6693726,0.4068298,1.3625793,0.550293,2.0717468
						c-0.1720428,0.023819-0.2989807-0.0086823-0.4679413-0.0397797c-0.5567474-0.5444336-1.1406555-0.9271698-1.1521606-1.7559814
						C150.3663635,225.8083344,150.6118164,225.8873444,151.0839539,225.8629761z"/>
					<path class="st97" d="M177.9081726,209.2757568c0.1129303-0.2813263,0.2583466-0.7357941,0.457016-0.9705963
						c0.2555237-0.3020325,0.5617828-0.2709503,0.9187469-0.3031616c0.1538239,0.4822083,0.3555603,0.9260254,0.2367554,1.436554
						l-0.1768036,0.2286224C178.677002,209.8142242,178.4600372,209.7142029,177.9081726,209.2757568z"/>
					<path class="st97" d="M191.0072327,210.1051178c0.3754578-0.0078278,0.5270538,0.1333771,0.823761,0.3379211
						c0.2135162,0.3558502,0.2219086,0.5191956,0.2157593,0.9181976l-0.3670502,0.5861664
						c-0.2062378-0.0078583-0.513031,0.0218506-0.7080536-0.0538025c-0.376297-0.1454163-0.4312134-0.2462921-0.5766449-0.5884094
						C190.4373169,210.7753601,190.6841736,210.5113983,191.0072327,210.1051178z"/>
					<path class="st97" d="M183.560318,220.699295c0.3754578-0.0078278,0.5270538,0.1333771,0.823761,0.3379059
						c0.2135162,0.3558502,0.2219086,0.5192108,0.2157593,0.9182129l-0.3670502,0.5861511
						c-0.2062378-0.007843-0.513031,0.0218658-0.7080536-0.0538025c-0.376297-0.1454163-0.4312134-0.2462769-0.5766449-0.5883942
						C182.9904022,221.3695221,183.2372589,221.1055756,183.560318,220.699295z"/>
					<path class="st97" d="M191.8520203,216.2286224c0.375473-0.007843,0.5270538,0.1333771,0.8237762,0.3379059
						c0.2135162,0.3558502,0.2219086,0.5192108,0.2157593,0.9182129l-0.3670654,0.5861511
						c-0.2062225-0.007843-0.513031,0.0218658-0.7080383-0.0538025c-0.376297-0.1454163-0.4312134-0.2462769-0.5766449-0.5883942
						C191.2821045,216.8988495,191.5289764,216.634903,191.8520203,216.2286224z"/>
					<path class="st97" d="M180.7765198,208.1244354c0.3908691-0.2045441,0.5858765-0.2978363,1.0440063-0.2247162
						c0.4320526,0.23172,0.6007233,0.4738007,0.8198547,0.9067078c-0.5924225,0.6821899-0.7230835,0.8123169-1.688446,0.8332825
						C180.8025818,209.1129761,180.7644806,208.6710968,180.7765198,208.1244354z"/>
					<path class="st97" d="M175.2443848,210.9600067c0.2857819-0.2995453,0.5379639-0.5609589,0.9784393-0.6077423
						c0.3608856-0.0384064,0.7127991,0.1019897,0.9795532,0.3418274c0.2860718,0.2574921,0.326416,0.4979095,0.3457642,0.8627167
						c-0.3520355,0.7629089-0.7636414,0.7725677-1.617569,0.7825775
						C175.4155731,211.9162903,175.3214264,211.5943451,175.2443848,210.9600067z"/>
					<path class="st97" d="M169.0215607,219.490097c0.2857819-0.29953,0.5379639-0.5609436,0.9784393-0.6077423
						c0.3608856-0.0383911,0.7127991,0.102005,0.9795532,0.3418274c0.2860718,0.2575073,0.326416,0.4979248,0.3457642,0.8627319
						c-0.3520355,0.7629089-0.7636414,0.7725677-1.617569,0.7825775
						C169.192749,220.4463959,169.0986023,220.1244507,169.0215607,219.490097z"/>
					<path class="st97" d="M179.4313202,209.7689056c0.5253601-0.1056366,0.8716736-0.1003265,1.3908691,0.034729
						c0.3101807,0.3014832,0.7498016,0.6085815,0.8089142,1.0577393c-0.2058868,0.5367584-0.4322815,0.5959167-0.634079,0.9218292
						c-0.639389-0.3799438-1.3763123-0.5138702-2.0204773-0.8722382c-0.3011932-0.1672821-0.4057159-0.276001-0.4827576-0.6054993
						C178.7294312,209.9504547,179.0477295,209.8921661,179.4313202,209.7689056z"/>
					<path class="st97" d="M192.835556,221.6938019c0.5253601-0.1056366,0.8716736-0.1003265,1.3908691,0.034729
						c0.3101807,0.3014832,0.7498016,0.6085815,0.8089142,1.0577393c-0.2058868,0.5367584-0.4322815,0.5959167-0.634079,0.9218292
						c-0.639389-0.3799438-1.3763123-0.5138702-2.0204773-0.8722382c-0.3011932-0.1672821-0.4057159-0.276001-0.4827576-0.6054993
						C192.133667,221.875351,192.4519653,221.8170624,192.835556,221.6938019z"/>
					<path class="st97" d="M200.7548676,226.1647491c0.5253601-0.1056366,0.8716736-0.1003113,1.3908844,0.0347443
						c0.3101654,0.3014832,0.7497864,0.6085663,0.8088989,1.057724c-0.2058868,0.5367584-0.4322815,0.595932-0.634079,0.9218445
						c-0.639389-0.3799591-1.376297-0.5138855-2.0204773-0.8722382c-0.3011932-0.1672974-0.4057159-0.2760162-0.4827576-0.6054993
						C200.0529785,226.3462982,200.3712769,226.2880249,200.7548676,226.1647491z"/>
					<path class="st97" d="M175.369873,221.419754c0.5253601-0.1056366,0.8716736-0.1003113,1.3908844,0.034729
						c0.3101654,0.3014832,0.7497864,0.6085815,0.8088989,1.0577393c-0.2058868,0.5367584-0.4322815,0.595932-0.634079,0.9218292
						c-0.639389-0.3799438-1.376297-0.5138702-2.020462-0.8722382c-0.3012085-0.1672821-0.4057312-0.276001-0.4827728-0.6054993
						C174.667984,221.6013031,174.9862823,221.5430298,175.369873,221.419754z"/>
					<path class="st97" d="M184.3761749,206.4382324c0.3048401,0.149353,0.3718109,0.2908325,0.5247955,0.5875702
						c-0.003067,0.4555969-0.0879822,0.6125031-0.3227844,0.9823456c-0.2493591-0.1849213-0.4093628-0.3726501-0.5973663-0.6186523
						C183.9858704,206.9193268,184.1158752,206.8181763,184.3761749,206.4382324z"/>
					<path class="st97" d="M187.6146545,205.9478912c0.5172424,0.0299835,1.0543671-0.0154114,1.4320526,0.3911591
						c0.2507782,0.2698212,0.2594757,0.3253021,0.2420959,0.6696625c-0.3597717,0.3485413-0.7030029,0.3956299-1.1891327,0.4065552
						l-0.37883-0.1392517C187.4650269,206.8590851,187.5723419,206.4121704,187.6146545,205.9478912z"/>
					<path class="st97" d="M188.1739044,207.6296234c0.4062958,0.09021,0.7366486,0.1314087,1.0431671,0.4385071
						c0.1269379,0.3393097,0.192215,0.5864258,0.2146301,0.9543304c-0.312973,0.1616669-0.5601196,0.2272339-0.9005432,0.2944794
						c-0.4785767-0.1025391-0.6676941-0.3227844-0.9888-0.6615448
						C187.6810608,208.2056885,187.8572845,207.9739838,188.1739044,207.6296234z"/>
					<path class="st97" d="M179.6182098,206.2841339c0.4816437,0.0145721,0.7934875,0.0358582,1.2219086,0.265625
						c0.3124237,0.5199738,0.2814026,0.6346436-0.0187683,1.1717682c-0.4194489,0.0678101-0.8394623,0.1518555-1.2636719,0.1781921
						c-0.5325623-0.2300873-0.5719299-0.3419647-0.6752777-0.7307434
						C179.0300751,206.7366486,179.2777557,206.559845,179.6182098,206.2841339z"/>
					<path class="st97" d="M172.0560913,227.1351471c0.4816589,0.0145721,0.7935028,0.0358582,1.2219238,0.265625
						c0.3124237,0.5199738,0.2814026,0.6346436-0.0187683,1.1717682c-0.4194489,0.0678101-0.8394623,0.1518555-1.2636719,0.1781921
						c-0.5325775-0.2300873-0.5719452-0.3419647-0.6752777-0.7307434
						C171.4679718,227.5876617,171.7156525,227.4108582,172.0560913,227.1351471z"/>
					<path class="st97" d="M183.3784027,209.0821381c0.1117859-0.1387024,0.2205048-0.276825,0.3491211-0.4003906
						c0.7774658-0.7464294,1.7590485-0.7453766,2.4315186,0.2902679c-0.3690186,0.4216919-0.720932,0.8232269-1.3227997,0.8669434
						C184.2041321,209.8848877,183.7970123,209.4800262,183.3784027,209.0821381z"/>
					<path class="st97" d="M169.399826,207.783432c-0.4427185,0.1033936-1.0005798,0.244339-1.4343109,0.0381165
						c-0.3320313-0.1580353-0.3547211-0.3062439-0.4298248-0.626236c0.0731354-0.2297516,0.1339417-0.3992767,0.3253174-0.5634766
						c0.4412994-0.37854,1.0753784-0.4298096,1.6298828-0.4407349c0.3575287,0.2617035,0.5584259,0.3185883,0.6825409,0.7534485
						C169.9865417,207.3323212,169.7273712,207.5234222,169.399826,207.783432z"/>
					<path class="st97" d="M190.8570404,205.7906952c0.4155426,0.2695618,0.9739532,0.5839386,1.0975342,1.1039734
						c0.0459442,0.1936188-0.0664063,0.2729034-0.1641998,0.4289703c-0.2373352,0.1059113-0.4474792,0.1751251-0.6416473,0.3480072
						c0.1266479,0.3191528,0.2785187,0.4883881,0.5180817,0.7315826c0.0504303,0.2275238,0.1062012,0.4508362,0.1333771,0.6825409
						c-0.3485718,0.2384491-0.6912384,0.5169678-1.0969543,0.6472473l-0.8033142-0.4185944
						c-0.0132141-0.7798615,0.0913696-1.1573639,0.3544312-1.7548523c-0.1894073-0.3365173-0.3188629-0.5673981-0.3365173-0.9658356
						c0.1958618-0.4401703,0.426178-0.5654297,0.8218231-0.7974243L190.8570404,205.7906952z"/>
				</g>
				<path class="st13" d="M179.9780731,193.0887299c-12.3985596,4.3402557-23.9565582,3.547287-25.8170471-1.7680511
					l-2.2779694-5.0490875c1.2054443,2.1742401,4.0676117,3.15802,6.5312958,3.5612488
					c13.3419037,2.2072144,35.7532654-7.6604156,38.1231537-17.0525513
					c0.2577667-1.0255432,0.2437744-2.0089569-0.0728455-2.9168549c0.0456543,0.101181,2.76651,6.1305389,2.5945892,5.749588
					C200.9169312,180.9283447,192.3766479,188.7513275,179.9780731,193.0887299z"/>
				<path class="st11" d="M193.7663879,177.4651947c-8.8478851,9.8019257-31.2238312,15.8663635-39.6782074,10.9387665
					c-2.1040039-1.2228546-2.3938446-2.6448364-2.5217438-2.8328552
					c-1.8576813-5.3152008,6.6854095-13.1381836,19.0811768-17.4784393
					c12.3985596-4.3374023,23.9565582-3.5444183,25.8170471,1.7707672
					C197.3881531,172.5115356,195.6383362,175.3924866,193.7663879,177.4651947z"/>
				<path class="st13" d="M192.7268829,176.5265198c-6.2823639,6.9561768-20.2074738,12.2108612-30.2805023,12.2108612
					c-2.9888153,0-7.8257751-0.5287933-9.3136444-3.0989685l-0.2606201-0.5828247
					c-1.2916565-3.9366608,5.8476715-11.3029633,18.2378235-15.6404877
					C186.5381775,164.0167084,201.4520874,166.8547211,192.7268829,176.5265198z"/>
				<path class="st19" d="M195.1617889,172.5057068c-0.3278809,1.2300873-1.168457,2.6169739-2.434906,4.020813
					c-6.2823639,6.9561768-20.2074738,12.2108612-30.2805023,12.2108612c-2.4283752,0-5.8517761-0.3360901-7.8650513-1.6755524
					c1.9046326-7.0579376,18.6638031-16.2400208,32.6985779-16.2400208
					C190.7431183,170.8218079,193.4861908,171.4269409,195.1617889,172.5057068z"/>
				<path class="st7" d="M78.2401886,151.7290802c0.4327393-2.1626434,1.826416-4.0166931,3.4133377-5.5483704
					c3.852005-3.7178955,9.0165558-5.8585968,14.1382904-4.7197418c4.5261307,1.0064087,7.3140945,4.6012573,7.4202881,6.3712311
					c0.0599747,0.9997101-0.2995834,4.2605133,0.9741364,8.003479c1.7426529,1.567215,3.1589432,1.2999573,9.6128845,5.0437622
					c3.4720612,2.0137787,17.7282181,12.6024933,24.8055344,14.5723114c2.5232391,0.7018433,6.3788147-0.16922,10.723465,0.6756134
					c2.0300293,0.3947449,3.7125854,1.5791321,5.8176117,1.1850586c0.9963989-0.1865234,2.0097504-0.4778748,3.0069275-0.2955322
					c0.9971619,0.1823425,1.9687805,1.0434265,1.8435974,2.0493774c-0.1218719,0.9793091-1.1473236,1.5532837-2.0734253,1.8942566
					c-0.9260864,0.3409882-1.9820709,0.6970978-2.3986969,1.5917053c-0.4270172,0.9169006,0.0514526,2.0506134,0.8352356,2.6899261
					c1.0523529,0.8583679,1.8069916,0.901825,10.4482727,3.0478058c0.8703613,0.216156,1.9005585,0.5927277,2.0653381,1.4742737
					c0.1169891,0.6258545-0.3022766,1.2534027-0.8487701,1.5800934s-1.1973114,0.4179535-1.8283691,0.5025024
					c0.6102142-0.1371765,1.2246246,0.4555054,1.2288055,1.0809326c0.0066223,0.9906616-1.100769,1.9198151-2.9103699,1.3764038
					c0.4731293,0.7007599,0.4106293,1.7169495-0.1448059,2.3544464c-0.5554352,0.6374817-1.5534973,0.8385315-2.312439,0.4658051
					c0.3323212,0.521698,0.1096344,1.2577057-0.3547211,1.6663361c-0.4643402,0.4086151-1.1023407,0.5543823-1.7176361,0.6176147
					c-2.4287872,0.2496338-4.2325897-0.933548-6.4662323-1.513031c-4.9996796-1.2970734-10.6529388-6.0020142-16.0510864-8.2153625
					c-1.9299774-0.791275-4.0967102-1.0355988-6.139328-1.3855591l-3.4645844-0.6402435
					c-15.2716751-2.8296814-35.566658-6.6674805-44.9637909-20.3406525
					c-0.5522614-1.0865784-1.239296-2.1190948-1.7203979-3.2398834c-0.8777924-2.0452118-1.621254-4.3235931-2.0394211-6.5125885
					C78.7531128,155.5366669,77.8072357,153.892807,78.2401886,151.7290802z"/>
				<path class="st26" d="M82.1639938,103.2154236c0,0-7.9332504,2.9172134-10.0195313,14.4752426
					c-1.9556808,10.8344955-2.2891159,24.2261887,0.5065536,37.4663773c0,0,9.3956451,2.9295044,22.2583008-3.08078
					c0,0,7.1236649-3.3294373,9.0438004-7.8319244c0,0-2.3151169-15.5669098-5.3376083-21.0678711
					s-13.4567032-22.1056595-16.4515152-19.7233429"/>
			</g>
			<path class="st47" d="M97.364357,123.3407364c1.9897842,5.0127335,6.1383362,16.1411209,6.9299927,21.4677658
				c0.0137939,0.0834961-0.0108032,0.1694336-0.0562134,0.2333984
				c-5.6447449,7.6444244-17.3134308,12.8190918-31.5870972,10.1152344
				c8.653801,1.0762329,17.5035248-0.0247803,24.7521973-4.809082c2.3464355-1.5805664,4.5930176-3.4418945,6.2647705-5.6904297
				l-0.0561523,0.2333984C102.9740295,140.2977295,98.8717499,127.9226532,97.364357,123.3407364z"/>
			<path class="st9" d="M129.0502777,75.6277237c-0.2790527-0.9823914-0.5581055-1.9647827-0.8371582-2.9471741
				c-0.1185455-0.417366,0.6268311-0.8178482,1.0451965-0.7029037c0.4183807,0.1149521,0.7187653,0.4886398,0.8967285,0.884346
				C130.7009125,74.0757828,130.1701508,74.9085999,129.0502777,75.6277237z"/>
			<path class="st9" d="M96.4085159,84.9512405c-0.1765518-1.0058823-0.353096-2.0117569-0.5296478-3.0176392
				c-0.0750046-0.4273453-0.9203873-0.4633179-1.2469635-0.1776657c-0.3265839,0.2856445-0.434288,0.7528534-0.4221954,1.1865616
				C94.2468185,84.2728653,95.0872498,84.7914886,96.4085159,84.9512405z"/>
			<g>
				<path class="st21" d="M166.1087952,192.0773621c-2.7568359-0.3930664-5.4619141-1.123291-8.0415039-2.1704102
					c-0.4590454-0.1863098-0.178894-0.881134,0.2822266-0.6948242c2.5229492,1.0241699,5.1689453,1.7382813,7.8647461,2.1225586
					C166.704422,191.4047089,166.6012421,192.145752,166.1087952,192.0773621z"/>
			</g>
			<g>
				<path class="st21" d="M164.1590881,194.4777527c-2.6210938-0.6340332-5.1713867-1.5715332-7.5791016-2.7866211
					c-0.4418488-0.2226715-0.1075592-0.892746,0.3378906-0.6694336c2.3564453,1.1889648,4.8520508,2.1064453,7.4179688,2.7270508
					C164.8165894,193.8648529,164.6428833,194.5927582,164.1590881,194.4777527z"/>
			</g>
			<g>
				<path class="st21" d="M161.9872131,197.3193054c-2.5957031-0.8706055-5.0786133-2.0629883-7.3803711-3.5437012
					c-0.4166412-0.2685852-0.0118103-0.8986969,0.40625-0.6308594c2.2490234,1.4472656,4.6757813,2.6125488,7.2124023,3.463623
					C162.6960602,196.7663879,162.4562378,197.4785461,161.9872131,197.3193054z"/>
			</g>
			<g>
				<path class="st19" d="M62.815197,223.9399567c0.7094154-0.0707397,1.3378334,0.3170471,1.9557457,0.6912537
					c0.5965347-0.0781708,1.1339493-0.1829681,1.7142334,0.0229645c0.0235367,0.0652924,0.1061935,0.3042908,0.142334,0.3552856
					c0.2034225,0.2874756,1.1042404,0.0005646,1.4603653,0.0151367c0.3104553,0.0128784,0.3320313,0.0097961,0.5556259,0.239563
					c-0.0650024,0.3267059-0.1215973,0.5542297-0.0501556,0.886261l0.2807541,0.1638947
					c0.3564072-0.181839,0.6780701-0.3233337,1.0597-0.4418488c0.3779755,0.0495911,0.5200348,0.1053467,0.8058319,0.3586426
					l-0.1047897,0.5746765c0.3219452,0.2269592,0.6842346,0.1795959,1.0627747,0.1868896l0.2014542,0.0028076
					c0.9473343,0.6982422,3.8389359,2.2362213,4.316658,3.0230103c-0.0097961,0.0675049-0.0526733,0.3353729-0.0453873,0.3961945
					c0.0510025,0.4382019,0.6388474,0.0232544,0.9425812,0.334259c0.321373,0.328949,0.4127197,0.778656,0.8075104,1.1112518
					c0.2429276,0.0269012,0.3774185,0.0148468,0.6220322-0.0456848c0.3140945-0.0773315,0.2339554-0.0619202,0.496788,0.0804138
					c0.2129745,0.3039398,0.2016068,0.583786,0.165863,1.0927734c0.4449539,0.1137543,1.1171341,0.2390137,1.4839172,0.5298309
					c0.3171768,0.2516174,0.2616959,0.3992767,0.2815857,0.7772675c0.2914047,0.336792,0.7411194,0.1695251,1.1437531,0.4653931
					c0.1084366,0.4093628,0.0176544,0.699646-0.0832214,1.0966797c-0.0759277,0.2984161,0.0798569,0.4519653-0.0148468,0.7854004
					c-0.3757401,0.1535339-0.3939514-0.0955505-0.7058105-0.0622253c-0.3174515,0.0341949-1.1129303,0.7344055-1.4813766,0.91008
					c-0.3264313,0.1557922-0.4956665,0.1423492-0.8122864,0l-0.1350555-0.3754578
					c0.0563202-0.22612,0.0745316-0.3331604,0.0537949-0.5715942c-0.3449097,0.0428619-0.1989365-0.0313721-0.436821,0.223587
					c0.1949387,0.6588593,0.3233719,1.0307159,0.0630493,1.4715881c-0.6408081,0.1891174-1.422821-0.1846466-2.1098557-0.1608429
					c-0.5738373,0.4978943-0.8368225,0.7208557-1.5060425,0.6564941c-0.07341-0.1933289-0.1392593-0.3244629-0.2496567-0.505188
					l-0.302887-0.0025177c-0.4242935,0.2802124-0.3722,0.6514435-0.7937927,1.2905731l-0.2151871-0.0067291
					c-0.3342667-0.3160553-0.6934738-0.594574-1.0728607-0.8554382c-0.3653717-0.2507629-0.7433548-0.4861298-1.2009048-0.4071045
					c0.2426453,0.407959,0.568512,0.5951233,0.5519791,1.0843506c-1.0566101,0.8142242-1.3606186-0.0804291-2.1927948-0.1625214
					c-0.3090515,0.1484985-0.4348602,0.2644958-0.6172714,0.544693c-0.1827164,0.2812805-0.3311768,0.5731049-0.6898346,0.5999146
					c-0.4555969,0.0344543-0.9784317-0.1487885-1.3247528-0.4458008c-0.0644455-0.055481-0.1258087-0.1140442-0.1885681-0.1712036
					l-0.1745605,0.0664063c0.0773315,0.3917236,0.1566238,0.6954346,0.037262,1.0902405
					c-0.8652344,0.5354462-1.2090378-0.439621-2.0221558-0.4547577c-0.7766953-0.0148468-1.6738739,0.3721008-2.4348831,0.2129517
					c-0.3017654-0.0630493-0.3608894,0.018219-0.639122,0.1361694c-0.3062515,0.1406555-0.9120293-0.3149414-1.2942162-0.4020844
					l-0.3659325,0.252182c-0.5844841,0.0397797-0.7724915-0.3236389-1.2964554-0.5085602
					c-0.3575287-0.1260834-0.544136,0.0129089-0.8750458,0.1641998c-0.3192711,0.1458435-0.5142174,0.0335388-1.0213013-0.14711
					c-0.2897186,0.1720428-0.4314995,0.2673187-0.7736168,0.2370453c-0.2011795-0.1846466-0.3933907-0.347168-0.6211853-0.4976196
					c-0.6825523,0.3485565-1.2594757,0.7352295-2.0493393,0.4967804c-0.2034225-0.1877136-0.2813148-0.1961365-0.339592-0.4766083
					c0.2457275-0.0596771,0.3723755-0.0885315,0.5842018-0.2348022l-0.1103973-0.265625
					c-0.3984337-0.0708771-0.9352837,0.6116638-1.3709869,0.7442017c-0.2507706,0.0759277-0.1409378,0.0706177-0.4012375-0.0574493
					c-0.0722809-0.1740265-0.1173935-0.2722168-0.0834961-0.8290863l-0.1005898-0.1095581
					c-0.3337135,0.1176758-1.1146126,0.4875336-1.4536438,0.4281464c-0.4345818-0.0759277-0.7610092-0.4023743-0.9691925-0.7526093
					l0.2076263-0.3964691l-0.1109581-0.1196442c-0.1364517,0.0302582-0.2740288,0.0565948-0.4102058,0.0888214
					c-1.5917778,0.3732147-2.1658936-0.9417267-3.4559059-1.2569427c-0.2785149,0.1297302-0.5284462,0.2205048-0.8274117,0.2913818
					c-0.3701363-0.2120819-0.3384743-0.3936615-0.4581146-0.7920837c-0.5180779,0.0041809-0.7789383,0.155777-1.2807655-0.0459595
					c-0.1770821-0.2757111-0.2813148-0.4071198-0.2378845-0.7554169c0.1033936-0.8307648,0.8313332-0.4284058,1.3118629-0.8649445
					c-0.1064682-0.2208099-0.1975365-0.4382172-0.2804718-0.6691132l0.1644707-0.1672668
					c0.4029198-0.0092468,0.8254509,0.046524,1.1544037-0.2202301l-0.0187759-0.510788
					c0.3202591-0.3093414,0.644165-0.3339996,1.079586-0.3449249l0.2715073-0.0047607
					c0.2006187-0.1521454,0.2900009-0.2219086,0.3863907-0.4648438c0.0963821-0.2437592,0.0089645-0.3096161-0.0781784-0.5402222
					c0.1829681-0.4205627,0.7268219-0.1731567,1.1140518-0.4920044c-0.1396408-0.7661591-0.1058006-0.8058014,0.1409378-1.0944519
					c0.3138161-0.112915,0.4698868-0.0896606,0.7814598-0.0103607c0.1994972,0.0509949,0.3446388,0.102829,0.5536613,0.0874329
					c0.2219124-0.0162659,0.322506-1.1034088,0.5906487-1.3819275l0.3409958,0.204834l0.1325302-0.2129517l-0.2149086-0.2768402
					c0.7158966-0.4723969,1.3096275,0.042038,2.0717545-0.0008392l0.0397873-0.7338257
					c0.4135628-0.6094208,2.1154594-1.0255127,2.8742256-1.2720795l0.2460098,0.0885315l0.1084328-0.1437378
					c-0.1182404-0.1958466-0.176239-0.3126831-0.2390022-0.5379639c0.3636894-0.1428986,0.3933868-0.0350189,0.7388687,0.1090088
					c0.3861084-0.2154846,0.2950439-0.7733459,0.6284714-0.8526459c0.2942047-0.0697632,0.7153358,0.1120911,1.0193443,0.0650024
					c0.4132881-0.0638733,0.7814598-0.8778381,1.1252594-1.1496124c0.4967842,0.0958099,0.4740868,0.4889221,0.9344482,0.6329498
					c0.179882-0.2855225,0.3359489-0.5623627,0.6534119-0.7142181c0.3502426-0.1670074,0.7380257-0.2163086,1.087429-0.0638733
					c0.0039215,0.360321-0.0176506,0.179306,0.0692062,0.5424347c0.2384453-0.0770416,0.2919655-0.271225,0.4034805-0.489212
					c0.1145973-0.223877,0.1580276-0.1801605,0.3866692-0.2569275c0.4233704,0.0545502,0.5792923,0.2224731,0.9187508,0.544693
					C62.9337196,224.3496094,62.855545,224.221283,62.815197,223.9399567z"/>
				<path class="st97" d="M72.8788223,232.1708069c1.20784,0.235321,2.9492188,1.1995544,3.2600098,2.2983398l-0.123291-0.09375
					c0.2451782,0.1259766,0.4488525,0.3251953,0.5444336,0.5610352c-0.3754883-0.1675262-0.5844269-0.1420135-0.697937-0.1542969
					c-0.1026764-0.0998993-0.1701355-0.2429962-0.767334-0.6889648
					C74.4019547,233.5633545,73.5406265,233.0276337,72.8788223,232.1708069z"/>
				<path class="st97" d="M70.6776505,230.754303c0.3494186,0.0524902,0.5623779,0.168396,0.6624146,0.2080078l0.0158081,0.2109375
					l0.0057983,0.0771484l-0.2722168-0.3295898c0.1483994-0.041275,0.292572-0.0549622,0.395813-0.0688477
					c0.570015,0.3536377,1.0563431,0.5927582,1.3935547,1.3188477c-0.6240921,0.00354-1.2856522-0.296402-1.6732788-0.6870117
					l0.2000122,0.0673828c-0.3325806-0.0510712-0.3366776-0.0819092-0.6942749-0.184082l0.0978394-0.2148438l0.0321045-0.0703125
					l0.0838623,0.2412109C70.8238297,231.1546936,70.7371597,230.969635,70.6776505,230.754303z"/>
				<path class="st97" d="M65.4466934,228.9496155c0.4791641-0.361908,1.1602554-0.2537231,1.571106,0.0029297l0.1967773,0.1235352
					l0.0111694,0.0839844c0.0089111,0.0664063,0.0264893,0.1303711,0.0262451,0.2001953l-0.3276367-0.1943359
					c0.2178955,0.0200195,0.4418945,0.1030273,0.6390381,0.2319336c-0.3799362,0.3303375-0.5605316,0.352951-0.6723633,0.4086914
					c-0.2047195-0.2668152-0.1041107-0.0846558-0.3102417-0.4150391l0.2077026,0.2070313
					C66.3266449,229.5204468,65.8232422,229.2343445,65.4466934,228.9496155z"/>
				<path class="st97" d="M65.4466934,233.8407288c0.3975906-0.300293,0.7981567-0.2759094,1.227356-0.1513672
					c0.1159058,0.0478516,0.2351074,0.0864258,0.34375,0.1542969l0.1967773,0.1235352l0.0111694,0.0839844
					c0.0089111,0.0664063,0.0264893,0.1303711,0.0262451,0.2001953l-0.3276367-0.1943359
					c0.2178955,0.0200195,0.4418945,0.1030273,0.6390381,0.2319336c-0.3799362,0.3303375-0.5605316,0.352951-0.6723633,0.4086914
					c-0.2047195-0.2668152-0.1041107-0.0846558-0.3102417-0.4150391l0.2077026,0.2070313
					C66.3266449,234.4115601,65.8232422,234.1254578,65.4466934,233.8407288z"/>
				<path class="st97" d="M60.7123184,228.6210022c0.1777344-0.1289063,0.3964844-0.206543,0.6124268-0.2211914
					l-0.2119751,0.0205078c0.1170654-0.0883789,0.3070068-0.1826172,0.401123-0.2172852l-0.2481079,0.4057617
					c-0.0221252-0.1000824-0.1158142-0.5239105-0.093689-0.4238281c0.4466095-0.0165863,0.8866234-0.2052307,1.4938354,0.2260742
					c-0.3165283,0.3369141-0.6563721,0.4399414-1.0029907,0.4746094l0.331604-0.4262695
					c0.0080338,0.1001129,0.0372696,0.4643707,0.0292358,0.3642578c-0.3489151,0.0939484-0.3595161,0.1332245-0.6442871,0.1381836
					l-0.2124023,0.0205078C61.0273209,228.9212952,60.890358,228.7967834,60.7123184,228.6210022z"/>
				<path class="st97" d="M60.7123184,233.5121155c0.1777344-0.1289063,0.3964844-0.206543,0.6124268-0.2211914
					l-0.2119751,0.0205078c0.1170654-0.0883789,0.3070068-0.1826172,0.401123-0.2172852l-0.2481079,0.4057617
					c-0.0221252-0.1000824-0.1158142-0.5239105-0.093689-0.4238281c0.4466095-0.0165863,0.8866234-0.2052307,1.4938354,0.2260742
					c-0.3165283,0.3369141-0.6563721,0.4399414-1.0029907,0.4746094l0.331604-0.4262695
					c0.0080338,0.1001129,0.0372696,0.4643707,0.0292358,0.3642578c-0.3489151,0.0939484-0.3595161,0.1332245-0.6442871,0.1381836
					l-0.2124023,0.0205078C61.0273209,233.8124084,60.890358,233.6878967,60.7123184,233.5121155z"/>
				<path class="st97" d="M56.85392,229.8153381c0.1682739-0.1674805,0.3654175-0.2475586,0.5592041-0.2729492l-0.3165283,0.1225586
					c0.124382-0.36203,0.508728-0.6836243,0.9575195-0.6118164c-0.0241699,0.4030151-0.0798454,0.7545471-0.4359131,1.019043
					l-0.2208862,0.1635742C57.2972107,230.1777954,57.163372,230.1901703,56.85392,229.8153381z"/>
				<path class="st97" d="M56.85392,234.7064514c0.1682739-0.1674805,0.3654175-0.2475586,0.5592041-0.2729492l-0.3165283,0.1225586
					c0.124382-0.36203,0.508728-0.6836243,0.9575195-0.6118164c-0.0241699,0.4030151-0.0798454,0.7545471-0.4359131,1.019043
					l-0.2208862,0.1635742C57.2972107,235.0689087,57.163372,235.0812836,56.85392,234.7064514z"/>
				<path class="st97" d="M51.3964005,232.7044983c0.1480713-0.0644531,0.305481-0.0874023,0.4710083-0.1279297
					l-0.1698608,0.0722656c0.2705765-0.9732208,1.5842514-1.5004578,2.62323-1.4936523l-0.1079102,0.1972656
					c0.0134888-0.1474609,0.0111084-0.2905273,0.0448608-0.4438477c0.0819664,0.0869904,0.2791176,0.3691864,0.3250732,0.4375
					c-0.2878227,0.170639,0.0138359,0.0942993-1.444519,0.815918c-0.8535309,0.3761597-1.1624718,0.6890259-1.2774658,0.7773438
					C51.8006706,232.9122772,51.4895363,232.7627411,51.3964005,232.7044983z"/>
				<path class="st97" d="M49.1444473,234.2718811c0.0855103-0.2143555,0.1978149-0.309082,0.3030396-0.3359375
					l-0.3894653,0.2475586c0.0123291-0.152832,0.1103516-0.2978516,0.484375-0.2797852
					c0.4624672,0.4570007,0.1698341,0.4491272-0.0618286,0.8188477
					C49.3721008,234.6259918,49.3161087,234.7326355,49.1444473,234.2718811z"/>
				<path class="st97" d="M46.7318497,236.394928c-0.130764-0.5193939,0.2604599-0.9854889,0.7564087-1.125l-0.2556152,0.3256836
					c0.0429573-0.4465485,0.3240623-0.8034363,0.803894-0.9023438c-0.0187721,0.4575958-0.0524063,0.3754883-0.0651855,0.9555664
					l-0.0050049,0.2285156C47.1991997,236.1534271,46.9034996,236.305542,46.7318497,236.394928z"/>
			</g>
			<g>
				<path class="st26" d="M177.3694916,130.7063751c-0.1014862,0.0571136-15.5973053-0.2302856-23.0039215,13.5390472
					c-0.1594849-1.9511719-3.8975525-47.6826248-4.0235748-49.2244568c0,0,6.1194153,0.9162369,11.8297577,9.1763382
					C167.879303,112.4574051,178.1400146,128.4816589,177.3694916,130.7063751z"/>
				<path class="st47" d="M177.3694763,130.7064514c-6.3216858,0.3875885-13.4585724,2.9545441-18.6162109,8.1826172
					c-1.661377,1.593338-2.8786621,3.5842133-4.0783691,5.5493164c-0.1820831,0.2974396-0.6447754,0.192749-0.6733398-0.1630859
					c-0.1080933-1.4774017-1.1208649-13.7410126-1.5945435-23.997551
					c1.1108856,9.4575272,1.9868164,20.2183609,2.3225098,23.9379807l-0.6855469-0.1435547
					c1.1855469-2.0366211,2.4938354-4.0356445,4.2124634-5.6713867c3.0648041-3.0234222,6.7270355-5.3898621,12.1755981-6.8095703
					C172.7035217,131.0262756,175.0358582,130.6717834,177.3694763,130.7064514z"/>
			</g>
		</g>
	</g>
</g>
</svg>
