<?xml version="1.0" encoding="utf-8"?>
<!-- Generator: Adobe Illustrator 22.0.1, SVG Export Plug-In . SVG Version: 6.00 Build 0)  -->
<svg version="1.1" id="Layer_1" xmlns="http://www.w3.org/2000/svg" xmlns:xlink="http://www.w3.org/1999/xlink" x="0px" y="0px"
	 viewBox="0 0 300 300" style="enable-background:new 0 0 300 300;" xml:space="preserve">
<style type="text/css">
	.st0{fill:#EDC1A4;}
	.st1{fill:#E2E0E0;}
	.st2{fill:#D39E81;}
	.st3{fill:#502E26;}
	.st4{fill:#CCCACA;}
	.st5{fill:#426800;}
	.st6{fill:#538705;}
	.st7{fill:#D47E44;}
	.st8{fill:#73341D;}
	.st9{fill:#BC672E;}
	.st10{fill:#96311D;}
	.st11{fill:#B83E21;}
	.st12{fill:#DE8D82;}
	.st13{fill:#EFBAB4;}
	.st14{fill:#FDD5D0;}
	.st15{fill:#6883CE;}
	.st16{fill:#3D4885;}
	.st17{fill:#3859AE;}
	.st18{fill:#864424;}
	.st19{fill:#FEFEFE;}
	.st20{fill:#FFFFFF;}
	.st21{fill:#A55925;}
	.st22{fill:#F4F2F2;}
	.st23{fill:#3C3E68;}
	.st24{fill:#E8997C;}
	.st25{fill:#F5C46B;}
	.st26{fill:#F7EBDA;}
	.st27{fill:#0E0C0D;}
	.st28{fill:#657C3A;}
	.st29{fill:#576C37;}
	.st30{fill:#7C995D;}
	.st31{fill:#36518C;}
	.st32{fill:#96B7E3;}
	.st33{fill:#A3B3DF;}
	.st34{fill:url(#SVGID_1_);}
	.st35{fill:url(#SVGID_2_);}
	.st36{fill:url(#SVGID_3_);}
	.st37{fill:url(#SVGID_4_);}
	.st38{fill:url(#SVGID_5_);}
	.st39{fill:#266AB7;}
	.st40{fill:#060E0D;}
	.st41{fill:#E0D4C6;}
	.st42{fill:#787E42;}
	.st43{fill:#D3D1D1;}
	.st44{fill:url(#SVGID_6_);}
	.st45{fill:url(#SVGID_7_);}
	.st46{fill:url(#SVGID_8_);}
	.st47{fill:#020508;}
	.st48{fill:#BAB6B6;}
	.st49{fill:#0F0B07;}
	.st50{fill:#2F3A68;}
	.st51{fill:#203257;}
	.st52{opacity:0.5;fill:#FFFFFF;}
	.st53{opacity:0.2;fill:#0E0C0D;}
	.st54{fill:#DD9F9B;}
	.st55{fill:#3E4D9B;}
	.st56{fill:url(#SVGID_9_);}
	.st57{fill:#5F6194;}
	.st58{fill:url(#SVGID_10_);}
	.st59{fill:url(#SVGID_11_);}
	.st60{fill:url(#SVGID_12_);}
	.st61{fill:url(#SVGID_13_);}
	.st62{fill:#070102;}
	.st63{fill:#100805;}
	.st64{fill:#FDA465;}
	.st65{fill:#2A50A1;}
	.st66{fill:#B76C39;}
	.st67{fill:#130602;}
	.st68{fill:url(#SVGID_14_);}
	.st69{fill:url(#SVGID_15_);}
	.st70{fill:url(#SVGID_16_);}
	.st71{fill:url(#SVGID_17_);}
	.st72{fill:url(#SVGID_18_);}
	.st73{fill:url(#SVGID_19_);}
	.st74{fill:#B4BDED;}
	.st75{fill:#100D08;}
	.st76{fill:#F6C85F;}
	.st77{fill:#FECF00;}
	.st78{fill:#2D59E2;}
	.st79{fill:#121F3A;}
	.st80{fill:#BBD0F5;}
	.st81{fill:#020202;}
	.st82{fill:#E2CFB7;}
	.st83{fill:#080805;}
	.st84{fill:#A87D7C;}
	.st85{fill:#182052;}
	.st86{fill:#EAEAEA;}
	.st87{fill:#DDDDDD;}
	.st88{fill:#3D4574;}
	.st89{fill:#ABC5F0;}
	.st90{fill:url(#SVGID_20_);}
	.st91{fill:#4159A8;}
	.st92{fill:#E0D0BD;}
	.st93{fill:#3D53AA;}
	.st94{fill:#0A0000;}
	.st95{fill:#BF6D36;}
	.st96{fill:#385DAE;}
	.st97{fill:#E0DCDC;}
	.st98{fill:#857E78;}
	.st99{fill:#0E213C;}
	.st100{fill:url(#SVGID_21_);}
	.st101{fill:#55608E;}
	.st102{opacity:0.3;fill:#F4F2F2;}
	.st103{opacity:0.3;}
	.st104{fill:#213987;}
	.st105{enable-background:new    ;}
</style>
<g id="Snack_Delivery_1_">
	<g id="Snack_Delivery">
		<g>
			<g>
				<path class="st0" d="M148.2330475,60.1502647v5.6328392h-8.1634979l-4.4816437-1.7840729l-5.4217377-6.1245537
					c0,0,1.3005219-0.193512,1.1072235-2.8734894c-0.185791-2.6010056,0.0166473-3.8887367,0.0175934-3.9894981
					l15.0614471,2.9438553l-0.2986298,3.3300171C146.1304169,57.386097,148.3701477,60.3304977,148.2330475,60.1502647z"/>
				<path class="st2" d="M147.6969299,59.4474487c-2.9459991,1.1271095-10.7654877,0.0521774-16.458725-5.1406937
					c-0.1142426-2.2144356,0.0527802-3.2952652,0.0527802-3.2952652l15.0614471,2.9438553l-0.2986298,3.3300171
					L147.6969299,59.4474487z"/>
				<path class="st27" d="M125.4736404,38.0149422c0,0-3.6414566,8.4046974-1.1562119,11.992836
					c2.4852371,3.5881348,8.3854523,4.3001938,9.3196564,3.5508194c0.9342041-0.7493782,0.3799591-18.9417,0.3799591-18.9417
					l-2.8890991-0.7866936l-1.6210175,0.4316063L125.4736404,38.0149422z"/>
				<path class="st82" d="M204.01297,43.0085144c0.2645721,1.2614708-0.4337616,2.6570511-1.605011,3.1881523
					c-0.0186005,2.5747299-2.5639191,4.5884933-5.0016022,3.4374275c-1.1447601-0.5405502-1.9615631-1.7192116-2.0657501-2.9808807
					c-3.1559753,3.0452042-5.5136414-0.6983795-3.2860107-2.7820549c0.500946-0.4685593,1.1036987-0.6866226,1.7386322-0.8993416
					c-0.1384277-0.5124741-0.6629791-0.8536873-0.7460632-1.4775963c-0.2960052-2.2227249,2.5632782-2.8058128,3.5290527-1.2714806
					c-0.0114136-1.3371964,1.3057251-2.532341,2.6292114-2.3792458c1.3316345,0.1500587,2.350708,1.5988617,2.0496063,2.9024963
					C202.5373535,40.7642365,203.7486572,41.747406,204.01297,43.0085144z"/>
				<path class="st82" d="M217.466156,48.593811c0.2645721,1.2614708-0.4337616,2.6570473-1.605011,3.1881523
					c-0.0186005,2.5747261-2.5639038,4.5884933-5.0016022,3.4374237c-1.1447601-0.5405502-1.9615631-1.7192078-2.0657501-2.9808807
					c-3.1559753,3.045208-5.5136414-0.6983795-3.2860107-2.7820511c0.500946-0.4685631,1.1036987-0.6866264,1.7386322-0.8993416
					c-0.1384277-0.5124779-0.6629791-0.8536873-0.7460632-1.4776001c-0.2960052-2.2227249,2.5632782-2.805809,3.5290527-1.2714767
					c-0.0114136-1.3372002,1.3057251-2.532341,2.6292114-2.3792458c1.3316345,0.1500549,2.350708,1.5988579,2.0496063,2.9024925
					C215.9905396,46.3495293,217.2018433,47.3327026,217.466156,48.593811z"/>
				<path class="st26" d="M199.5088806,50.6631508c0.2645721,1.2614708-0.4337616,2.6570511-1.605011,3.1881523
					c-0.0186005,2.5747299-2.5639191,4.5884933-5.0016022,3.4374275c-1.1447601-0.5405502-1.9615631-1.7192116-2.0657501-2.9808807
					c-3.1559753,3.0452042-5.5136566-0.6983795-3.2860107-2.7820549c0.5009308-0.4685593,1.1036987-0.6866226,1.7386322-0.8993416
					c-0.138443-0.5124741-0.6629944-0.8536873-0.7460785-1.4775963c-0.29599-2.2227249,2.5632935-2.8058128,3.5290527-1.2714806
					c-0.0113983-1.3371964,1.3057404-2.532341,2.6292267-2.3792458c1.3316345,0.1500587,2.350708,1.5988617,2.0496063,2.9024963
					C198.0332489,48.4188728,199.2445679,49.4020424,199.5088806,50.6631508z"/>
				<path class="st26" d="M208.3920593,50.6631508c0.2645721,1.2614708-0.4337616,2.6570511-1.605011,3.1881523
					c-0.0186157,2.5747299-2.5639191,4.5884933-5.0016022,3.4374275c-1.1447601-0.5405502-1.9615784-1.7192116-2.0657501-2.9808807
					c-3.1574249,3.0465927-5.509552-0.7022133-3.2860107-2.7820549c0.5009308-0.4685593,1.1036835-0.6866226,1.7386322-0.8993416
					c-0.138443-0.5124741-0.6629944-0.8536873-0.7460785-1.4775963c-0.29599-2.2227249,2.5632935-2.8058128,3.5290527-1.2714806
					c-0.0113983-1.3371964,1.3057251-2.532341,2.6292267-2.3792458c1.3316345,0.1500587,2.350708,1.5988617,2.0495911,2.9024963
					C206.9164276,48.4188728,208.1277466,49.4020424,208.3920593,50.6631508z"/>
				<path class="st26" d="M211.6347198,43.0085144c0.2645721,1.2614708-0.4337616,2.6570511-1.605011,3.1881523
					c-0.0186005,2.5747299-2.5639191,4.5884933-5.0016022,3.4374275c-1.1447601-0.5405502-1.9615631-1.7192116-2.0657501-2.9808807
					c-3.1559753,3.0452042-5.5136566-0.6983795-3.2860107-2.7820549c0.5009308-0.4685593,1.1036987-0.6866226,1.7386322-0.8993416
					c-0.138443-0.5124741-0.6629944-0.8536873-0.7460785-1.4775963c-0.29599-2.2227249,2.5632935-2.8058128,3.5290527-1.2714806
					c-0.0113983-1.3371964,1.3057404-2.532341,2.6292267-2.3792458c1.3316345,0.1500587,2.350708,1.5988617,2.0496063,2.9024963
					C210.1590881,40.7642365,211.3704071,41.747406,211.6347198,43.0085144z"/>
				<path class="st26" d="M220.6410065,41.335289c0.2645721,1.2614708-0.4337616,2.6570511-1.605011,3.1881523
					c-0.0186005,2.5747299-2.5639191,4.5884933-5.0016022,3.4374275c-1.1447601-0.5405502-1.9615631-1.7192116-2.0657501-2.9808807
					c-3.1574097,3.0465927-5.509552-0.7022133-3.2860107-2.7820549c0.500946-0.4685593,1.1036987-0.6866226,1.7386322-0.8993416
					c-0.1384277-0.5124741-0.6629791-0.8536873-0.7460785-1.4775963c-0.29599-2.2227249,2.5632935-2.8058128,3.529068-1.2714806
					c-0.0114136-1.3371964,1.3057251-2.532341,2.6292114-2.3792458c1.3316345,0.1500587,2.350708,1.5988617,2.0496063,2.9024963
					C219.1653748,39.091011,220.3766937,40.0741806,220.6410065,41.335289z"/>
				<path class="st82" d="M228.2159271,45.3750381c0.2645569,1.2614708-0.4337616,2.6570511-1.605011,3.1881561
					c-0.0186157,2.5747261-2.5639191,4.5884895-5.0016022,3.4374237c-1.1447601-0.5405502-1.9615784-1.7192116-2.0657501-2.9808807
					c-3.1559906,3.045208-5.5136566-0.6983795-3.2860107-2.7820549c0.5009308-0.4685593,1.1036835-0.6866226,1.7386322-0.8993416
					c-0.138443-0.5124741-0.6629944-0.8536835-0.7460785-1.4775963c-0.29599-2.2227249,2.5632935-2.8058128,3.5290527-1.2714806
					c-0.0113983-1.3371964,1.3057251-2.5323372,2.6292267-2.3792419c1.3316193,0.1500549,2.350708,1.5988579,2.0495911,2.9024925
					C226.7402954,43.1307602,227.9515991,44.1139336,228.2159271,45.3750381z"/>
				<g>
					<path class="st15" d="M203.8035583,92.0320587l-4.5994568,0.9872284L187.497467,57.9710426
						c-0.6281738-1.8806763,0.3378448-3.8690948,2.0591736-4.2385635h0.0000153
						c1.4807129-0.3178215,2.9902954,0.6916733,3.4797821,2.3270111L203.8035583,92.0320587z"/>
					<path class="st11" d="M208.4030304,91.0448303l-4.599472,0.9872284l-10.5973816-35.4054375
						c-0.555603-1.8562813,0.4137268-3.7662773,2.0944824-4.127037l0.0183716-0.0039406
						c1.5200348-0.3262634,3.0624847,0.7456169,3.5117645,2.4403954L208.4030304,91.0448303z"/>
					<path class="st15" d="M213.0025024,90.0576019l-4.599472,0.9872284l-9.4811707-35.7652702
						c-0.4848175-1.8288116,0.4862061-3.6615906,2.1264648-4.0136528l0.0294037-0.0063095
						c1.5597992-0.3347969,3.1346283,0.801857,3.5402679,2.5552216L213.0025024,90.0576019z"/>
					<path class="st11" d="M217.6019592,89.0703735l-4.5994568,0.9872284l-8.3578033-36.1273346
						c-0.4160614-1.7984467,0.5550537-3.5554237,2.1549683-3.8988266l0.0330811-0.007103
						c1.5998993-0.3434029,3.2064972,0.8602943,3.5651245,2.6710701L217.6019592,89.0703735z"/>
					<path class="st15" d="M222.2014313,88.0831451l-4.599472,0.9872284l-7.2271118-36.4912033
						c-0.3496246-1.7653847,0.6200409-3.4481926,2.1798401-3.7829857l0.0293884-0.0063095
						c1.6402588-0.352066,3.2778778,0.9207916,3.5862732,2.7874756L222.2014313,88.0831451z"/>
					<path class="st11" d="M226.8008881,87.0959167l-4.5994568,0.9872284l-6.0890198-36.8564301
						c-0.2857819-1.7298698,0.6809387-3.3403168,2.2009735-3.6665802l0.0183563-0.0039406
						c1.6807709-0.3607597,3.348526,0.9832153,3.6036224,2.9039993L226.8008881,87.0959167z"/>
					<path class="st15" d="M231.4003601,86.1086884l-4.599472,0.9872284l-4.9434662-37.2225609
						c-0.2247314-1.6921654,0.7376251-3.232235,2.218338-3.5500526v-0.0000038
						c1.721344-0.3694687,3.4182587,1.0473824,3.6172028,3.0201874L231.4003601,86.1086884z"/>
				</g>
				<path class="st1" d="M117.0330811,272.5513611c-1.0545425,2.1530762-2.7065735,3.1987-4.9385986,3.9543152
					c-5.8347168,1.9595642-15.1318207,2.2144165-20.7556458-0.5801086
					c-5.5800629-2.7855225-7.2759628-9.8416138-10.5272522-14.7364502c-1.4588394-2.5658264-3.620491-5.3161774-4.0862503-8.2861938
					c-0.3865967-2.4692993,3.1195602-5.9404907,4.4816437-7.6889496c1.5465851-1.9861755,2.6625977-4.4112701,4.7362976-5.5363007
					c2.8392334-1.4950714,5.9551163-0.1118774,8.4887314,1.8192596c8.3055573,6.2745667,12.4637833,16.5035858,18.506134,24.613205
					C114.2005997,267.8201599,115.7915573,268.7975464,117.0330811,272.5513611z"/>
				<path class="st16" d="M117.035202,272.5491028c-1.0544357,2.1530762-2.7063599,3.2072754-4.938385,3.9543152
					c-5.8349304,1.9595642-15.1318207,2.2229919-20.7646561-0.5801086
					c-5.5710526-2.7765198-7.275856-9.8416138-10.5184555-14.7364502c-1.4674149-2.5658264-3.6290741-5.3161774-4.0860367-8.2861938
					c-0.2548676-1.6347656,1.1862717-3.6908722,2.5922318-5.4131622c-0.1845016,0.5359039-0.2636642,1.054657-0.1845016,1.537796
					c0.4657593,2.9790344,2.6274109,5.7293701,4.0860367,8.2866211c3.2513962,4.9030151,4.947403,11.9595032,10.5272522,14.7364502
					c6.5728378,3.276001,18.3560028,2.3059082,22.9614944-0.3955994
					C116.8243179,271.9513855,116.9386673,272.2504578,117.035202,272.5491028z"/>
				<path class="st8" d="M89.3178558,236.8707581c-2.219429,1.5682526-3.3533859,4.530304-2.7486038,7.1797333
					c0.7365036,3.2264709,4.4983597,6.9902954,7.4354019,8.3744659c4.3166809,2.0343781,8.1068573,0.2902985,8.8957291-2.1848602
					c0.3662109-1.1490021,0.1086044-2.401413-0.2665558-3.5475311c-1.4891663-4.5493622-4.8748093-8.44487-9.172226-10.5535278"/>
				<g>
					<path class="st1" d="M153.7608643,272.0668945c1.2246857,1.8287659,4.8666992,1.3884583,8.5604858,1.8165283
						c2.8417664,0.0806274,8.9141846,0.7037354,19.181366-1.0682678c4.2794189-0.7478333,8.4888916-1.8228455,12.3605499-3.123291
						c1.3430176-0.4440308,3.7607269-0.9930115,4.7378235-2.0073242c0.6971893-0.7124939,0.2200775-2.0273743-0.0718842-3.0678406
						c-0.2549744-0.6758728-0.5708008-1.285614-0.9846802-1.8765564c-2.9649963-4.2531433-8.1012726-4.7138367-13.1596375-5.6576843
						c-0.6255341-0.1192627-3.3857117-0.6358948-4.0186157-0.7533569c-3.5103302-0.6716614-3.2483673-1.6526031-3.8032074-2.6513367
						c-0.4299164-0.7739716-0.9170227-1.5846558-1.5232544-2.2314911
						c-6.2354889,2.5072937-12.5680695,1.8387604-18.9949341,0.2212067
						c-0.7986755,5.3439331-0.9971619,10.7411194-2.3914337,15.9760742
						C153.4051819,268.9738464,152.9442902,270.8408813,153.7608643,272.0668945z"/>
					<path class="st13" d="M170.3704071,260.9865112c0.106308,0.1048584,0.2653656,0.1476746,0.4108429,0.1393738
						c1.2345123-0.068573,1.9071045-2.6366577,7.1098328-5.5963287c-0.2257538-0.1327209-0.4332581-0.2971649-0.6078491-0.4858093
						c-1.9489136,1.1086884-5.3162079,2.6009369-6.6763,5.0562897
						C170.4705505,260.3429565,170.1009064,260.7130737,170.3704071,260.9865112z"/>
					<path class="st13" d="M172.8848114,262.4833679c0.3728485,0.6463013,2.1769104-0.7265015,2.5669403-0.9697266
						c4.9559479-3.1463623,3.2343597-2.4428101,8.7634888-4.3560181c0.0554657-0.020874,0.1148071-0.0439453,0.1696472-0.0751648
						c-0.5056-0.096405-1.0149078-0.1904297-1.5205078-0.2868652c-2.4869385,0.5456848-4.8323822,1.6133118-7.0187988,2.9425049
						c-0.4227905,0.2568054-2.6274872,1.6340332-2.9164276,2.0855408
						C172.8119049,262.0181885,172.7679901,262.2780151,172.8848114,262.4833679z"/>
					<path class="st16" d="M153.6536407,267.641571c-0.2467194,1.333313-0.7092743,3.1975098,0.1076965,4.4229736
						c1.2205505,1.831604,4.8526459,1.3899231,8.557312,1.8183289c3.5600891,0.0997925,6.1486053,0.4460144,12.8492584-0.2092285
						c6.3730316-0.6238403,12.6411591-1.9577026,18.6959381-3.9802856c1.3430176-0.4466248,3.7591095-0.9946289,4.7378235-2.0078125
						c0.6889954-0.7134094,0.230072-2.0006409-0.0746918-3.0689392c-11.9703522,3.138855-24.3131256,4.9226379-36.79039,4.0281982
						C159.036438,268.4513245,156.3437195,267.9790649,153.6536407,267.641571z"/>
				</g>
				<path class="st11" d="M178.940033,253.7464752c0,0-18.0316925,6.9157562-26.7838745,1.6519165
					c-0.0233307-0.1004639-17.8946075-48.173233-16.2918091-81.9507599
					c1.6097412-34.1789398-4.2514648-62.907135-4.2882385-63.2338562
					c50.0337067,7.6817398-16.0116196-2.4666901,38.286499,5.8786926L178.940033,253.7464752z"/>
				<path class="st10" d="M138.8256836,204.4582672l-0.3339233,0.5444946
					c-1.9155884-10.7117462-3.0931702-21.7397156-2.6274109-31.55513
					c0.8347626-17.7240601-0.3777924-34.2445679-1.7310791-45.9581909
					c1.5729675-5.4041443,3.2512817-10.7731018,5.0263367-16.1158905l3.5941162,0.5535049
					c3.2248993,14.3408203,6.1423645,28.7876358,6.6782684,43.4536972
					C150.0647583,172.3316193,147.3406982,189.7832031,138.8256836,204.4582672z"/>
				<path class="st11" d="M109.8510818,113.4001694c0,0-8.922699,78.3427353-25.0124969,124.4374313
					c0,0,9.1530533,13.3302917,19.4737625,13.3904724c0,0,32.411911-40.1096191,40.1436768-81.6190186
					c3.7536163-20.1519775,0.5969238-65.9986191,0.5969238-65.9986191L109.8510818,113.4001694z"/>
				<path class="st15" d="M158.9575653,61.540432c0,0,9.093811,2.3039894,15.124527,16.0138435
					c6.0307007,13.7098618,6.6899414,24.9147415,6.6899414,24.9147415l-14.832901,5.9353638L158.9575653,61.540432z"/>
				<path class="st0" d="M174.2870483,103.0403366c2.5601501-6.6746902,17.8888855-17.529068,19.6700592-19.0293274
					c4.0932922-3.4476929,7.2829437-4.0708313,12.0296631-1.858551c3.5628357,1.6605148,8.2191315,5.2637939,11.2974854,2.8409653
					c0.8460846-0.6659241,1.3615875-1.7358704,2.3254395-2.2158203c1.2910919-0.6429062,3.0804443,0.2557144,3.3357544,1.6752548
					c0.5710449-0.8319626,1.3371124-1.3875656,2.2256317-1.8658752c1.3603058-0.7322769,2.0312042-0.2191315,2.6276398,1.1177368
					c0.3900299-0.8917542,1.00354-1.8314896,1.9802704-1.8041916c0.6368713,0.0177994,1.2060547,0.577179,1.254303,1.2124786
					c0.0190277-0.4029388,0.3885956-0.7918015,0.6547699-1.094902c0.2661896-0.303093,0.7050629-0.4728851,1.0884247-0.347374
					s0.6440277,0.5895767,0.4849854,0.9602814c0,0-1.7936554,8.5491028-12.3770599,12.8381653
					s-16.7131958,0.7552719-16.7131958,0.7552719s-6.7879791,16.1574707-12.443985,21.9605103
					c-5.6560211,5.8030396-9.6960907,6.9002304-18.1106415,4.4578094
					c-8.414566-2.442421-10.2712555-12.3200073-10.2712555-12.3200073"/>
				<g>
					<path class="st2" d="M215.5565491,92.3804703c3.2768555-1.5693359,5.875-4.5783691,6.949707-8.0490723
						c0.1463165-0.4740524,0.8631134-0.252388,0.7167969,0.2216797c-1.1357422,3.666748-3.8803711,6.8457031-7.3422852,8.5036621
						C215.4315948,93.272934,215.1122742,92.5933075,215.5565491,92.3804703z"/>
				</g>
				<g>
					<path class="st2" d="M221.0917053,92.7205582c2.7047882-2.3622284,5.6800537-5.0160675,6.2104492-8.6953125
						c0.0713043-0.4909821,0.8134003-0.3833847,0.7421875,0.1069336c-0.5625916,3.9079971-3.6112671,6.6663742-6.4594727,9.1533203
						C221.2114716,93.6125488,220.7180786,93.0463181,221.0917053,92.7205582z"/>
				</g>
				<g>
					<path class="st2" d="M226.9872131,90.5298843c1.8447266-2.0593262,3.1508789-4.5717773,3.7768555-7.265625
						c0.1104889-0.4814987,0.8430634-0.3150253,0.7304688,0.1699219c-0.6542969,2.8164063-2.0200195,5.4431152-3.9487305,7.5961914
						C227.21492,91.3993607,226.656189,90.8995132,226.9872131,90.5298843z"/>
				</g>
				<path class="st16" d="M169.1118317,119.5177612c-0.2196808,0.0879593-0.465744,0.1759186-0.7206116,0.2724609
					c-5.5009003,1.9505539-18.4182892,4.297142-34.0862274,3.5411224
					c-7.7680054-0.3690033-16.2126541-1.5026093-24.7627411-3.8135834l2.6450043-53.0931931
					c0.103302-0.0482254,3.9442749-2.3928986,11.889328-5.2110634c0.1008987-0.0647125,6.5334473-4.1902504,6.1247711-3.9281425
					c0,0,2.6538086,0.782196,5.755661,2.1269035c3.4798737,1.5111847,7.5307312,3.7346306,9.0948944,6.3708382
					c0.0112915-0.1023636,0.4336548-6.0644722,1.0018921-8.4977417c0.1000671,0.0352097,4.5660095,0.1469002,7.3900909,2.9704552
					c0.1017609,0.0213966,3.5175476,0.4369888,5.5097046,1.2829208c0,0,16.0193481,21.9332314,16.4059296,44.2002831
					C175.3595276,105.7390213,176.5283203,116.5739059,169.1118317,119.5177612z"/>
				<path class="st1" d="M169.164505,110.7565689c-0.0175934,3.0228043-0.2108917,6.0631943-0.7732849,9.0336533
					c-5.5009003,1.9505539-18.4182892,4.297142-34.0862274,3.5411224
					c2.1704407-20.9927139-4.2706604-42.79422-17.6011276-59.1739883c1.8806152-0.852562,4.3498154-1.8716049,7.3727188-2.9438515
					l3.3040619-2.1178932c1.5904541,0.1759186,4.9031982,0.2814713,8.5763702,0.3166542
					c3.4798737,1.5111847,7.5307312,3.7346306,9.0948944,6.3708382c0,0,0.2636719-3.6908646,0.6502686-6.4502182
					c3.1019592-0.0875282,5.4482269-0.2458572,5.8612061-0.4831314c0.6678467,0.3689995,1.3093109,0.8349686,1.8805084,1.4060631
					c0,0,1.7662659,0.2196846,3.5061493,0.6500435c0.4921417,1.2567482,0.8787384,2.574852,1.1511993,3.242485
					C164.3571167,79.001236,169.2433472,94.7082443,169.164505,110.7565689z"/>
				<g>
					<path class="st11" d="M148.7079163,83.7618179l-0.1914063-0.3657227
						c-4.1391602-7.9162598-12.5805664-16.796875-12.6650391-16.885498l0.1806641-0.1728516
						c0.0839844,0.0878906,8.2958984,8.7270508,12.5141602,16.5810547l2.2851563-21.3915977l0.2490234,0.0263672
						L148.7079163,83.7618179z"/>
				</g>
				<path class="st15" d="M93.754982,101.7926407c0,0,17.1764145,3.2262268,26.2294693,2.496109
					c0,0,11.8038788-24.2117691-7.7957382-37.8646393C112.1887131,66.4241104,100.641655,67.5113678,93.754982,101.7926407z"/>
				<path class="st15" d="M153.447876,60.2575111l-3.3744202,9.068409c0,0-0.852356-3.6818542-5.0175629-3.5411224
					c0,0,0.4393768-6.133564,1.0018921-8.4977417C146.057785,57.287056,150.6447601,57.445385,153.447876,60.2575111z"/>
				<path class="st15" d="M145.0558929,65.7847977c0,0-2.3989258,1.7836456-2.5658417,5.4303207
					c0,0-11.6520538-5.1754532-18.4094849-9.9999199l6.1247711-3.9281425
					C130.2053375,57.287056,142.0858765,60.7848396,145.0558929,65.7847977z"/>
				<path class="st13" d="M106.8572464,256.8044434c-2.3285675,1.0195007-4.8242569,1.7750854-7.2055969,2.6538086
					c-0.3779068,0.1407471-0.8523483,0.2548828-1.1248093-0.0351868c-0.2196808-0.228241-0.1669083-0.6238708,0.0263901-0.8701477
					c0.1845016-0.2548523,0.483345-0.4041748,0.7731857-0.5359192c0.8436584,0,4.9210052-2.3723145,6.8629837-2.2933655
					C106.4090805,256.0840454,106.637558,256.4440308,106.8572464,256.8044434z"/>
				<path class="st13" d="M109.0013123,260.2666321c-2.3197708,1.0194702-4.8154602,1.7750549-7.1880035,2.6538086
					c-0.3690033,0.1407166-0.8435516,0.2548523-1.1160126-0.0351868c-0.2196884-0.2282715-0.1669083-0.6238708,0.0175934-0.8697205
					c0.1932907-0.2548828,0.4921417-0.4042053,0.7820816-0.5363464c0.8348694,0,4.894516-2.3547363,6.8364944-2.293396
					C108.5531464,259.5462036,108.7728348,259.9062195,109.0013123,260.2666321z"/>
				<path class="st7" d="M114.8909988,141.7985535c0,0,4.8899536-26.3663101-1.0997086-37.4022446
					c0,0,11.7189102,0.9237595,5.2084045,37.4022446"/>
				<path class="st0" d="M93.7524185,101.8022232c0,0-8.928688,21.5229416,4.3555908,27.1895218
					s27.9876251-14.3206177,27.9876251-14.3206177c0.4618607,1.2290421,1.7838364,2.8281555,2.6036453,3.853714
					c0.8198242,1.0255585,2.0575714,1.8059998,3.3690033,1.7426376s2.5855103-1.182785,2.5172729-2.4939728
					c0.5821381,0.6848755,1.7383881,0.7728806,2.4174805,0.1840134c0.6790771-0.5888672,0.7556763-1.7459259,0.1601257-2.4191666
					c0.8526459,0.5901108,2.0824432,0.5666962,2.9120026-0.0554504c0.8295441-0.622139,1.1964111-1.796196,0.8686523-2.7799606
					c2.0485382,0.0194168,3.5483551-2.254303,3.3562775-4.2938995c-0.1920776-2.0396042-1.5954132-3.7624969-3.1436615-5.1040726
					c-6.5986328-5.7177887-20.9904938-4.6965408-28.2186661,0.2012787L93.7524185,101.8022232z"/>
				<g>
					<polygon class="st7" points="127.4733124,144.379715 122.279953,186.1372986 73.7913284,181.3565979 83.5803604,139.5466766 
											"/>
					<polygon class="st8" points="83.5803604,139.5466766 73.7913284,181.3565979 66.6910706,173.0789642 79.2042694,136.9014435 
											"/>
					<path class="st4" d="M127.4771881,144.3772583c-85.9597931-9.4604797-7.5348892-0.829483-43.8928528-4.8330536
						l-4.376091-2.6452179c54.0719986,5.7845001-37.172081-3.980545,38.2778168,4.095047L127.4771881,144.3772583z"/>
					<path class="st7" d="M112.9341583,103.5069962c-12.347023,4.3430328-19.0340195,24.0668182-21.8541718,36.8631668
						l-5.1231079-0.5625153c0.8467484-5.3558502,3.2115173-11.9277115,5.2988129-16.9332657
						C99.8409653,102.3296204,112.9341583,103.5069962,112.9341583,103.5069962z"/>
					
						<ellipse transform="matrix(0.1432062 -0.9896929 0.9896929 0.1432062 -72.5668259 239.4608307)" class="st19" cx="102.0186462" cy="161.6418304" rx="13.4040394" ry="20.9660702"/>
					<circle class="st11" cx="114.8909988" cy="163.3722534" r="3.4274061"/>
					<circle class="st11" cx="106.2136536" cy="162.174942" r="3.4274061"/>
					<circle class="st11" cx="97.6441574" cy="160.8148041" r="3.4274061"/>
					<circle class="st11" cx="89.256134" cy="159.9448547" r="3.4274061"/>
				</g>
				<path class="st11" d="M155.8604279,97.1713333c0.0615692,0.3865967-0.2021027,0.7470169-0.5886993,0.8259659
					l-7.0826569,1.2829208c-0.3953857,0.0703659-0.7733002-0.1930847-0.852356-0.5886841l-2.3286743-12.9613647
					c-0.0702515-0.4127655,0.2108917-0.7993622,0.6238708-0.861145l7.0474854-0.940094
					c0.3867035-0.0527802,0.7381134,0.2020874,0.817276,0.580101
					C153.9360352,86.608902,155.2805328,93.2084427,155.8604279,97.1713333z"/>
				<ellipse class="st11" cx="148.7889404" cy="83.445816" rx="1.3451527" ry="1.5603772"/>
				<path class="st0" d="M150.6319733,51.2839508c-3.0843658,7.4602509-14.6924438,6.0014114-17.741745,3.6466713
					c-2.9349518-2.2672081-3.4006958-4.7275009-4.2266693-8.1021385c0,0-3.1899185,1.0722466-4.5869751-3.0489769
					c-1.3884735-4.1212234,3.3742142-6.7312584,5.3513641-0.7646027c0,0,0.7910004-4.4640503,3.6029053-7.3461189
					c2.8119202-2.8910789,17.1001892-0.4307861,17.1001892-0.4307861s0.0791626,0.1935081,0.2108917,0.5625114
					C152.0112152,40.4602356,152.6197357,46.4656487,150.6319733,51.2839508z"/>
				<path class="st2" d="M127.2655945,42.5280991c0.1184921,0.694561,0.2369919,1.3891258,0.3554916,2.0836868
					C125.9901199,44.7793007,125.0915833,42.9126472,127.2655945,42.5280991z"/>
				<path class="st2" d="M151.1942749,38.7529449c-0.9402008,1.0018806-2.4867859,1.4498291-3.8048859,1.0104599
					c-0.6224976-0.207325-1.6313019-0.8275833-2.3638611-0.3072128c-1.0293579,0.6918793-0.3772888,2.8301125,0.3164368,3.8573456
					c0.4479828,0.6604538,1.8479614,1.9792595,1.1511993,3.154953c-0.306839,0.5422935-0.9578247,0.5326462-1.1248016,0.1317253
					c-0.1319427-0.3162231,0.1141205-0.6414604,0.2372742-0.9491043c0.3074188-0.7907753-0.2108917-1.6433411-0.7558136-2.2848015
					c-0.5534973-0.6414604-1.2038574-1.3181038-1.1950684-2.1616554c0-0.6414604,0.3867035-1.256321,0.2460785-1.8716087
					c-0.1318359-0.615284-0.7381134-1.0808258-0.7293243-1.7046967c0.0175934-0.65905,0.711731-1.0632362,1.3181152-1.3095207
					c1.9133759-0.7619934,3.9024353-1.1601563,5.8523102-0.5183182
					C150.5528107,36.3891945,150.8955383,37.4262581,151.1942749,38.7529449z"/>
				<path class="st27" d="M148.3120575,39.0078621c1.0388794,0.7420502,0.6213226,2.8383179-0.4920959,2.8383179
					c-1.106308,0-1.4776001-1.9598312-0.6151123-2.7504463L148.3120575,39.0078621z"/>
				<path class="st27" d="M149.5653992,39.7155914c-0.1228485,0.0939522-0.285141-0.0079536-0.4087524-0.0449562
					c-0.7586365-0.2270966-1.5966034-0.1718521-2.3542175,0.2356529c-0.5364532,0.2885437-0.5700989,0.4897194-0.7801514,0.410305
					c-0.0072479-0.0290184-0.0188293-0.0598145-0.0223541-0.0894814c-0.0707855-0.5963135,1.8055267-2.0491447,3.493576-0.674366
					C149.539093,39.5898781,149.6439819,39.6364059,149.5653992,39.7155914z"/>
				<path class="st27" d="M138.2093353,39.2202454c1.0185089,0.7275085,0.6498718,2.8383179-0.4920959,2.8383179
					c-1.0943451,0-1.4947968-1.9440689-0.6151123-2.7504463L138.2093353,39.2202454z"/>
				<path class="st27" d="M139.4626617,39.9279747c-0.1228333,0.0939522-0.2851257-0.0079536-0.4087372-0.0449562
					c-0.9592896-0.2871628-1.9691162-0.103241-2.7645416,0.4990845c-0.1121674,0.0849342-0.2132721,0.2060623-0.3698273,0.1468735
					c-0.0072479-0.0290222-0.0188293-0.0598183-0.0223541-0.0894814c-0.0159149-0.1340904,0.149231-0.3298531,0.2292938-0.4349022
					c0.7110138-0.9329453,2.159317-1.1393585,3.264267-0.2394638
					C139.4363708,39.8022614,139.5412598,39.8487892,139.4626617,39.9279747z"/>
				<path class="st19" d="M138.8068848,49.4236755c0,0,6.5658569-0.0338173,9.0086975-1.0821304
					c0,0,0.1094666,3.93713-3.7118073,4.318821C140.2825012,53.0420532,138.6162872,50.2352753,138.8068848,49.4236755z"/>
				<path class="st11" d="M150.1398315,29.7373123c0.0615692,3.9980812-1.4323425,4.5957756-1.4323425,4.5957756
					l-15.6766357,2.2230148l-7.5572128,1.4588394c0,0-1.238945-8.4535484,2.6450119-12.10923
					c3.7782593-3.5785351,13.3247833-4.778738,16.8806-3.2686596
					C147.8199615,23.8320141,150.0782623,25.7388039,150.1398315,29.7373123z"/>
				<path class="st14" d="M146.5458374,31.6968784l-8.567688,1.5201969
					c-0.9139252-3.6466713-2.6888733-7.0564957-5.1317902-9.9123898c3.1985016-1.0894089,6.9507294-1.4935932,9.6748962-1.2211342
					C144.7180939,24.8424759,146.167923,28.2171154,146.5458374,31.6968784z"/>
				<path class="st11" d="M131.7767944,36.886158c0,0-2.1214752-4.864151,18.3634491-7.1500168
					c0,0,8.7651062,3.6459846,8.3816681,5.9724274c-0.3834229,2.3264465-8.5200653,0.4268608-16.7317047,2.534359
					C133.5785828,40.3504257,131.7767944,36.886158,131.7767944,36.886158z"/>
			</g>
			<g>
				<path class="st2" d="M134.4408264,118.2889175c-0.9755859-2.6176758-3.0986328-4.8186035-5.6796875-5.8881836
					c-0.4582367-0.1899567-0.1713715-0.8823471,0.2871094-0.6928711c2.7695313,1.1477051,5.0483398,3.5100098,6.0957031,6.3190918
					C135.316925,118.4909515,134.6154327,118.7540512,134.4408264,118.2889175z"/>
			</g>
			<g>
				<path class="st2" d="M137.344635,116.0193863c-0.9101563-2.5180664-2.7568359-4.739502-5.0664063-6.0942383
					c-0.4273529-0.2511444-0.0484161-0.898468,0.3798828-0.6469727c2.4575195,1.4421387,4.4228516,3.8061523,5.3916016,6.4863281
					C138.218338,116.2317429,137.5132446,116.4864197,137.344635,116.0193863z"/>
			</g>
			<g>
				<path class="st2" d="M140.8182678,113.0884781c-0.7441406-2.3708496-2.5219727-4.4362793-4.7553711-5.5246582
					c-0.4459991-0.2171631-0.1180573-0.890976,0.328125-0.6743164c2.4155273,1.1772461,4.3378906,3.4104004,5.1430664,5.9743652
					C141.682724,113.3372726,140.9675598,113.5638809,140.8182678,113.0884781z"/>
			</g>
		</g>
	</g>
</g>
</svg>
