<?xml version="1.0" encoding="utf-8"?>
<!-- Generator: Adobe Illustrator 22.0.1, SVG Export Plug-In . SVG Version: 6.00 Build 0)  -->
<svg version="1.1" id="Layer_1" xmlns="http://www.w3.org/2000/svg" xmlns:xlink="http://www.w3.org/1999/xlink" x="0px" y="0px"
	 viewBox="0 0 300 300" style="enable-background:new 0 0 300 300;" xml:space="preserve">
<style type="text/css">
	.st0{fill:#EDC1A4;}
	.st1{fill:#E2E0E0;}
	.st2{fill:#D39E81;}
	.st3{fill:#502E26;}
	.st4{fill:#CCCACA;}
	.st5{fill:#426800;}
	.st6{fill:#538705;}
	.st7{fill:#D47E44;}
	.st8{fill:#73341D;}
	.st9{fill:#BC672E;}
	.st10{fill:#96311D;}
	.st11{fill:#B83E21;}
	.st12{fill:#DE8D82;}
	.st13{fill:#EFBAB4;}
	.st14{fill:#FDD5D0;}
	.st15{fill:#6883CE;}
	.st16{fill:#3D4885;}
	.st17{fill:#3859AE;}
	.st18{fill:#864424;}
	.st19{fill:#FEFEFE;}
	.st20{fill:#FFFFFF;}
	.st21{fill:#A55925;}
	.st22{fill:#F4F2F2;}
	.st23{fill:#3C3E68;}
	.st24{fill:#E8997C;}
	.st25{fill:#F5C46B;}
	.st26{fill:#F7EBDA;}
	.st27{fill:#0E0C0D;}
	.st28{fill:#657C3A;}
	.st29{fill:#576C37;}
	.st30{fill:#7C995D;}
	.st31{fill:#36518C;}
	.st32{fill:#96B7E3;}
	.st33{fill:#A3B3DF;}
	.st34{fill:url(#SVGID_1_);}
	.st35{fill:url(#SVGID_2_);}
	.st36{fill:url(#SVGID_3_);}
	.st37{fill:url(#SVGID_4_);}
	.st38{fill:url(#SVGID_5_);}
	.st39{fill:#266AB7;}
	.st40{fill:#060E0D;}
	.st41{fill:#E0D4C6;}
	.st42{fill:#787E42;}
	.st43{fill:#D3D1D1;}
	.st44{fill:url(#SVGID_6_);}
	.st45{fill:url(#SVGID_7_);}
	.st46{fill:url(#SVGID_8_);}
	.st47{fill:#020508;}
	.st48{fill:#BAB6B6;}
	.st49{fill:#0F0B07;}
	.st50{fill:#2F3A68;}
	.st51{fill:#203257;}
	.st52{opacity:0.5;fill:#FFFFFF;}
	.st53{opacity:0.2;fill:#0E0C0D;}
	.st54{fill:#DD9F9B;}
	.st55{fill:#3E4D9B;}
	.st56{fill:url(#SVGID_9_);}
	.st57{fill:#5F6194;}
	.st58{fill:url(#SVGID_10_);}
	.st59{fill:url(#SVGID_11_);}
	.st60{fill:url(#SVGID_12_);}
	.st61{fill:url(#SVGID_13_);}
	.st62{fill:#070102;}
	.st63{fill:#100805;}
	.st64{fill:#FDA465;}
	.st65{fill:#2A50A1;}
	.st66{fill:#B76C39;}
	.st67{fill:#130602;}
	.st68{fill:url(#SVGID_14_);}
	.st69{fill:url(#SVGID_15_);}
	.st70{fill:url(#SVGID_16_);}
	.st71{fill:url(#SVGID_17_);}
	.st72{fill:url(#SVGID_18_);}
	.st73{fill:url(#SVGID_19_);}
	.st74{fill:#B4BDED;}
	.st75{fill:#100D08;}
	.st76{fill:#F6C85F;}
	.st77{fill:#FECF00;}
	.st78{fill:#2D59E2;}
	.st79{fill:#121F3A;}
	.st80{fill:#BBD0F5;}
	.st81{fill:#020202;}
	.st82{fill:#E2CFB7;}
	.st83{fill:#080805;}
	.st84{fill:#A87D7C;}
	.st85{fill:#182052;}
	.st86{fill:#EAEAEA;}
	.st87{fill:#DDDDDD;}
	.st88{fill:#3D4574;}
	.st89{fill:#ABC5F0;}
	.st90{fill:url(#SVGID_20_);}
	.st91{fill:#4159A8;}
	.st92{fill:#E0D0BD;}
	.st93{fill:#3D53AA;}
	.st94{fill:#0A0000;}
	.st95{fill:#BF6D36;}
	.st96{fill:#385DAE;}
	.st97{fill:#E0DCDC;}
	.st98{fill:#857E78;}
	.st99{fill:#0E213C;}
	.st100{fill:url(#SVGID_21_);}
	.st101{fill:#55608E;}
	.st102{opacity:0.3;fill:#F4F2F2;}
	.st103{opacity:0.3;}
	.st104{fill:#213987;}
	.st105{enable-background:new    ;}
</style>
<g id="Street_Vendor_1_">
	<g id="Street_Vendor">
		<g>
			<path class="st0" d="M139.6351318,137.1282501c-3.2145233,4.9860382-6.2273102,6.0415955-11.2719116,1.0804138
				c-0.1955109-0.1955109-2.0581436-3.5296021-1.3912964-5.2799988c0.4039383-1.0644379,0.1826782-2.4782867-0.0513458-3.4272156
				c-0.1538773-0.6154938-0.3141708-1.032196-0.3141708-1.032196l10.242836,0.6732635l1.6093597,2.5646973
				c0.0464935,0.100296,1.2797546,2.9337311,1.4233856,3.0199127
				C140.0294495,134.8265228,139.6351318,137.1282501,139.6351318,137.1282501z"/>
			<path class="st2" d="M139.6639252,134.3487701c-1.3476563,1.6031952-3.4159241,1.5025787-5.3793793,0.8302765
				c-2.9878998-1.0162354-5.6071625-3.0582581-7.3639679-5.677597c-0.1538773-0.6154938-0.3141708-1.032196-0.3141708-1.032196
				l10.242836,0.6732635l1.6093597,2.5646973C138.4586029,131.7072144,139.2567749,133.5408936,139.6639252,134.3487701z"/>
			<polyline class="st3" points="141.2009583,55.768074 167.6583099,200.1145782 172.6057892,200.0377502 144.0541687,46.1215706 
							"/>
			<path class="st0" d="M166.5582428,147.2345734c2.3980255-2.5916901,7.5047302-8.3811798,9.5191345-11.2706757
				c0.4263763-0.6116028,0.6060028-1.5574646,0.7952728-2.2694702c1.0722046-4.0335083,0.360672-6.3584976,0.5698547-7.10289
				c0.0813141-0.2893372,0.3072662-0.5607681,0.6056824-0.5963593c0.9963531-0.1188202,1.7106628,2.6045837,1.8642731,3.5987701
				c0.8179016-0.6790009,4.7501831-3.6841125,5.2252655-4.0174026c0.2915649-0.2045364,0.6430359-0.4191818,0.9808502-0.3063812
				c0.4201355,0.1402893,0.5281677,0.6926727,0.187439,0.9798431c0.2832794-0.345932,1.0299377-1.2334976,1.4548187-1.0925751
				c0.2197113,0.072876,0.3081207,0.3556595,0.2464752,0.5787888c-0.0616455,0.2231216-0.2298431,0.3984604-0.3920135,0.5636368
				c1.1502228-1.0209732,1.8609924,0.1622009,0.4960632,1.3236618c0.0807648-0.1239624,0.5729065-0.3468628,0.7039185-0.2781219
				c0.8153229,0.4277649-0.712738,2.7925415-0.9968872,3.2220001c-2.5213318,3.81073-3.8608246,4.6664124-5.9558105,8.5253143
				c0,0-5.5469513,12.7718048-9.0939484,18.0387878s-7.5393677,7.4275665-8.6079712,7.5792084"/>
			<g>
				<path class="st2" d="M183.1722717,129.5891724l3.0668945-4.0327148
					c0.3005829-0.3953247,0.8969116,0.0592499,0.5966797,0.4541016l-3.0668945,4.0327148
					C183.4692993,130.4381866,182.8716431,129.9845428,183.1722717,129.5891724z"/>
			</g>
			<g>
				<path class="st2" d="M184.4256897,129.5139771l3.0498047-3.5541992
					c0.3245697-0.3761292,0.8918152,0.1120453,0.5693359,0.4882813l-3.0498047,3.5541992
					C184.6717377,130.3787079,184.1027985,129.890686,184.4256897,129.5139771z"/>
			</g>
			<g>
				<path class="st2" d="M185.1878967,130.4812622l2.9428711-3.2426758c0.3322449-0.367218,0.8896179,0.1359634,0.5556641,0.5039063
					l-2.9428711,3.2426758C185.4091492,131.3525848,184.8548279,130.8482208,185.1878967,130.4812622z"/>
			</g>
			<path class="st4" d="M144.0638733,131.9425659c0,0,9.632019,1.3824005,15.730484,21.0053711l6.3743439-6.816864
				l7.4781036,12.3313751c0,0-2.0338287,14.8711395-17.5418091,10.2950287
				C140.5970154,164.1813507,144.0638733,131.9425659,144.0638733,131.9425659z"/>
			<g>
				<path class="st15" d="M201.2571106,57.5614204l-0.0000153,0.0000114
					c-5.8130798,2.7100945-12.2942505,1.6087151-15.0234528-2.5791931
					c-15.6104279-23.9539928-43.754425-34.6394501-66.6782303-23.9522285
					c33.2499161-15.5013199,69.4826736-10.4231358,87.7688217,10.469162
					C211.5369415,46.3122711,208.6085968,54.1341171,201.2571106,57.5614204z"/>
				<path class="st15" d="M119.5554123,31.0300102C96.6291275,41.7183876,86.7190018,70.144577,95.0319061,97.5003815
					c1.4534531,4.7829666-1.869751,10.4555969-7.6831131,13.1658249l-0.001358,0.0006332
					c-7.3516769,3.4273987-15.2256393,0.6413116-16.203392-5.6800461
					C66.8999863,77.5482025,86.3031311,46.5324364,119.5554123,31.0300102z"/>
				<path class="st26" d="M174.7843323,69.9031982l-0.00177,0.0008316
					c-7.6566467,3.5695724-16.122406,1.8396606-19.288147-3.9103165
					c-12.9609222-23.5410767-28.0411377-38.6457405-35.939003-34.9637032
					c21.3236465-9.9412212,47.1641617-1.3893852,63.2320938,19.1327362
					C187.5696869,56.2705956,183.7487183,65.7239456,174.7843323,69.9031982z"/>
				<path class="st26" d="M119.5554123,31.0300102c-7.9004822,3.6832542-6.0268173,24.944912,3.6713409,50.0071297
					c2.3687973,6.1214981-1.74897,13.7179108-9.4055862,17.2874756l-0.0000305,0.0000153
					c-8.9640656,4.1791-18.6609421,1.0283813-20.2651672-6.5608444
					C88.1656189,66.2633362,98.2291183,40.9724617,119.5554123,31.0300102z"/>
				<path class="st15" d="M146.0092621,83.3183212l-3.4147949,1.5919952
					c-8.2480316,3.8452911-17.3272781,1.5272141-19.8322678-5.0865555
					c-9.2916718-24.5322075-10.979454-45.1700859-3.2067871-48.7937508
					c7.7700958-3.6224689,22.4920273,10.9388199,35.308342,33.8278389
					C158.3189697,71.0286102,154.2572784,79.4730377,146.0092621,83.3183212z"/>
			</g>
			<path class="st1" d="M113.9662704,141.5714417c0,0,6.1338196-6.6360779,13.0057983-8.6430664
				c0,0,2.7287827,5.49263,6.8172836,5.3916016c4.0885162-0.1010284,4.8202667-2.4794617,4.9233704-2.9808655
				c0.1030884-0.5014191,0.223175-2.1670532-0.2530212-3.6322784c0,0,4.5219879-0.204483,7.8563385,0.9037018l11.976944,59.9990234
				l-47.865242,4.3493347c0,0,2.8721466-28.6660919,3.6279755-35.4789886
				C114.8115387,154.6670074,113.9662704,141.5714417,113.9662704,141.5714417z"/>
			<path class="st11" d="M129.9381409,199.0847778c0,0-5.4568329-36.2006226-4.5613174-37.6048737
				c0.8955154-1.4042664,3.5594864-2.024826,3.5594864-2.024826c-2.13694-13.0289917-8.4526443-23.3746033-8.4526443-23.3746033
				s1.9810791-2.1357422,3.8903961-2.1357422c0,0,6.769249,6.9129333,9.5326309,23.9625397l13.4432068-3.7636871
				c0,0-2.2576599-13.4012146-8.4544373-22.4516144c0,0,2.1004791-0.7484589,5.1684113,0.2505951
				c0,0,5.1001129,8.0598602,8.033493,21.0053711c0,0,0.6553497-0.4260864,1.3046112-0.2921906
				s9.3872986,33.0536346,10.20755,41.1649475C164.4297638,201.9320068,129.9381409,199.0847778,129.9381409,199.0847778z"/>
			<path class="st8" d="M149.3715668,173.1812134c2.3460236,0.8991089,7.2833099,6.7037201,4.8136292,9.3883972
				c-1.1647034,1.2663269-3.0385437,1.2682495-4.6235199,1.3512878c-1.8208313-0.0739288-4.1544037-0.2077637-5.254425-1.577301
				C142.1195526,179.6189117,146.5568237,175.2678528,149.3715668,173.1812134z"/>
			<path class="st0" d="M127.1850281,168.3390808c-1.451767,0.2231598-2.6649323,2.5881653-1.7497406,5.1701202
				c0.5010147,1.4134827,1.5115814,2.3409729,2.5152588,3.0702667c3.7562103,2.7293243,7.748764,3.5900421,11.8684998,3.5311279
				c0.9340668-0.0133514,2.0304413-0.2392426,2.9476929,0.1003571c2.0353394,0.7542572,3.6747894,3.8006287,5.6322327,3.7096558
				c1.1661682-0.0542145,0.5461121-1.5901031,0.1519775-2.2089233c0.357193,0.5608215,1.2232056,1.0614014,2.1388702,1.0670319
				c0.1824341,0.0011139,0.6047211,0.0636749,0.7661743,0.006134c0.7416687-0.264328-0.4135895-2.0266113-0.5997772-2.4255066
				c1.2587433,0.7389526,1.8201447,1.208252,2.1320801,0.7892456c0.148056-0.1988525,0.1495514-0.5449829,0.0601807-0.8125
				c-0.089386-0.2675323-0.2509003-0.4748535-0.4081573-0.6742706c0.1564331,0.4854889,0.7042542,0.5207825,0.9482727,0.1313782
				c0.2440186-0.389389,0.2152252-1.0107727,0.0332031-1.4795532c-0.1820221-0.4687958-0.4868622-0.8201752-0.7837372-1.1583862
				c-7.2058105-9.073349-10.8258514-5.6128387-14.6553345-5.9044037
				C134.1584625,170.944458,128.7611847,168.0967865,127.1850281,168.3390808z"/>
			<path class="st4" d="M122.8786316,162.4839935c0,0,2.2205582-11.3583832,1.7958069-14.1050568
				c-0.4247437-2.7466888-3.1645737-10.5319977-8.6613541-8.3709412c-5.496788,2.1610565-16.4150848,27.278183-8.4480972,32.2744751
				s26.7597504,8.9571533,26.7597504,8.9571533s5.7641296-4.4411469,6.6816864-11.485672L122.8786316,162.4839935z"/>
			<g>
				<path class="st27" d="M122.7367249,162.8313599l-6.5375977-2.6762695
					c-0.4591141-0.1885681-0.1749191-0.8822021,0.2841797-0.6943359l6.1157227,2.5039063
					c0.3476563-1.7827148,1.6108398-8.402832,1.6518555-10.7807617c0.0039063-0.206543,0.1914063-0.3349609,0.3813477-0.3686523
					c0.2070313,0.003418,0.3720703,0.1743164,0.3686523,0.3813477c-0.0483398,2.8125-1.6845703,11.0136719-1.7543945,11.3613281
					C123.2004471,162.788147,122.9561844,162.9200745,122.7367249,162.8313599z"/>
			</g>
			<g>
				<rect x="77.4126053" y="205.1158295" class="st11" width="145.1747894" height="51.08358"/>
				<g>
					<g>
						<g>
							<path class="st3" d="M89.9110413,267.2415161l23.9521484-20.7695313
								c0.373497-0.3255005,0.8667068,0.2412109,0.4912109,0.5664063l-23.9521484,20.7695313
								C90.0332718,268.12854,89.5310593,267.5705872,89.9110413,267.2415161z"/>
						</g>
						<g>
							<path class="st3" d="M113.9022522,267.7649536l-24.027832-20.6816406
								c-0.3760605-0.3245087,0.1142731-0.8921051,0.4892578-0.5683594l24.027832,20.6816406
								C114.7722855,267.525177,114.2726746,268.0842896,113.9022522,267.7649536z"/>
						</g>
						<g>
							<path class="st3" d="M101.5423889,272.9846802l0.4306641-31.699707c0.0063553-0.54039,0.7566071-0.4571838,0.75,0.0097656
								l-0.4306641,31.699707C102.2852554,273.4949646,101.535347,273.4823608,101.5423889,272.9846802z"/>
						</g>
						<path class="st3" d="M101.9871674,236.423996c-11.4868393,0-20.7936935,9.3069153-20.7936935,20.7880096
							C81.1934738,268.6930847,90.5003281,278,101.9871674,278c11.4810791,0,20.7879333-9.3069153,20.7879333-20.7879944
							C122.7751007,245.7309113,113.4682465,236.423996,101.9871674,236.423996z M101.9871674,274.4796753
							c-9.5427094,0-17.2734375-7.7307434-17.2734375-17.2676697c0-9.5369568,7.7307281-17.2676849,17.2734375-17.2676849
							c9.5369492,0,17.2676773,7.7307281,17.2676773,17.2676849
							C119.2548447,266.7489319,111.5241165,274.4796753,101.9871674,274.4796753z"/>
						<g>
							<path class="st3" d="M117.8524475,257.5872192H84.7137756c-0.4960098,0-0.496315-0.75,0-0.75h33.1386719
								C118.348465,256.8372192,118.3487625,257.5872192,117.8524475,257.5872192z"/>
						</g>
						<circle class="st3" cx="101.9845276" cy="257.2120972" r="3.1169832"/>
						<path class="st1" d="M101.9871674,272.5296631c-8.4612503,0-15.3177261-6.8564148-15.3177261-15.3176575
							c0-8.4612579,6.8564758-15.3176727,15.3177261-15.3176727c8.4554901,0,15.3177261,6.8564148,15.3177261,15.3176727
							C117.3048935,265.6732483,110.4426575,272.5296631,101.9871674,272.5296631z M101.9871674,239.9443207
							c-9.5427094,0-17.2734375,7.7307281-17.2734375,17.2676849c0,9.5369263,7.7307281,17.2676697,17.2734375,17.2676697
							c9.5369492,0,17.2676773-7.7307434,17.2676773-17.2676697
							C119.2548447,247.6750488,111.5241165,239.9443207,101.9871674,239.9443207z"/>
					</g>
					<g>
						<g>
							<path class="st3" d="M185.9427795,267.2415161l23.9521484-20.7695313
								c0.3739471-0.325882,0.8662415,0.2416077,0.4912109,0.5664063l-23.9521484,20.7695313
								C186.0596313,268.1332397,185.5676422,267.5664063,185.9427795,267.2415161z"/>
						</g>
						<g>
							<path class="st3" d="M209.9335022,267.7649536l-24.027832-20.6816406
								c-0.3763428-0.3247681,0.1142731-0.8921051,0.4892578-0.5683594l24.027832,20.6816406
								C210.7994232,267.521637,210.3082581,268.0880127,209.9335022,267.7649536z"/>
						</g>
						<g>
							<path class="st3" d="M197.5741272,272.9846802l0.4306641-31.699707c0.0077667-0.5502777,0.7565002-0.4496765,0.75,0.0097656
								l-0.4306641,31.699707C198.3170013,273.4949646,197.5670776,273.4823608,197.5741272,272.9846802z"/>
						</g>
						<path class="st3" d="M198.0185852,236.423996c-11.4868317,0-20.7936859,9.3069153-20.7936859,20.7880096
							c0,11.4810791,9.3068542,20.7879944,20.7936859,20.7879944c11.4810791,0,20.7879486-9.3069153,20.7879486-20.7879944
							C218.8065338,245.7309113,209.4996643,236.423996,198.0185852,236.423996z M198.0185852,274.4796753
							c-9.5427094,0-17.2734375-7.7307434-17.2734375-17.2676697c0-9.5369568,7.7307281-17.2676849,17.2734375-17.2676849
							c9.5369568,0,17.2676849,7.7307281,17.2676849,17.2676849
							C215.2862701,266.7489319,207.555542,274.4796753,198.0185852,274.4796753z"/>
						<g>
							<path class="st3" d="M213.8836975,257.5872192h-33.1386719c-0.4960175,0-0.4963074-0.75,0-0.75h33.1386719
								C214.379715,256.8372192,214.3800049,257.5872192,213.8836975,257.5872192z"/>
						</g>
						<circle class="st3" cx="198.0159607" cy="257.2120972" r="3.1169832"/>
						<path class="st1" d="M198.0185852,272.5296631c-8.4612427,0-15.3177185-6.8564148-15.3177185-15.3176575
							c0-8.4612579,6.8564758-15.3176727,15.3177185-15.3176727c8.4555054,0,15.3177338,6.8564148,15.3177338,15.3176727
							C213.336319,265.6732483,206.4740906,272.5296631,198.0185852,272.5296631z M198.0185852,239.9443207
							c-9.5427094,0-17.2734375,7.7307281-17.2734375,17.2676849c0,9.5369263,7.7307281,17.2676697,17.2734375,17.2676697
							c9.5369568,0,17.2676849-7.7307434,17.2676849-17.2676697
							C215.2862701,247.6750488,207.555542,239.9443207,198.0185852,239.9443207z"/>
					</g>
				</g>
				<rect x="70.413826" y="202.5602264" class="st3" width="159.172348" height="5.1112046"/>
				<polyline class="st18" points="70.4902191,202.5602264 82.1560898,191.2047882 217.1253967,191.8855133 
					229.5097809,202.7129974 				"/>
			</g>
			<g>
				<path class="st3" d="M123.0949173,123.1180725c0,0,1.4339905,3.2562408,1.711113,3.4953384
					c0.2771149,0.2390976,12.7681427-5.1142044,12.7681427-5.1142044s0.3606415-1.9681168-1.3758698-4.2209396
					c-1.7365112-2.2528152-8.3112946-2.211319-8.3112946-2.211319s-4.9617844,2.8633957-5.1692734,3.0293884
					c-0.2074966,0.1659927-0.404274,2.3091125-0.404274,2.3091125L123.0949173,123.1180725z"/>
				<path class="st0" d="M136.5490265,131.8948517c-3.8465881,1.1257172-7.7766571-0.3799286-9.942955-3.4249725
					c-0.5778046,0.2763367-1.2431488,0.2098083-1.8703995,0.0811768c-1.5202026-0.3194885-2.1505203-1.8928223-1.4107285-2.9026031
					c0.3774338-0.5172119,1.1212387-0.7559586,1.7038193-0.4986954c-0.3702545-0.7761841-0.5498581-1.6936798-0.9696045-2.4139099
					c-1.1917114-2.149559,0.2371216-3.6624146,2.5005417-4.66539c1.9333115-0.8546143,3.9408188-1.3404846,5.9087906-1.5038376
					c1.5821075-0.1271744,1.9142914-0.3792114,2.6478271,0.6234055c2.4794159,3.2683029,4.7739716,7.6067047,3.841156,11.5848618
					C138.5978394,130.3126831,138.1000824,131.4364777,136.5490265,131.8948517z"/>
				<path class="st2" d="M135.1163177,117.1900253c-4.0832367,0.8406677-7.952095,2.707901-11.1425095,5.3916321
					c-1.9085617-3.6420593,4.429451-5.6776047,8.4946823-6.0150375
					C134.0177917,116.4420776,134.3859558,116.1917496,135.1163177,117.1900253z"/>
				<path class="st3" d="M130.3950653,120.4844437c0.3977051,0.0153275,0.6365967,0.4239883,0.0589905,0.8746185
					c-0.4805603,0.3749161-1.6501007,1.1587296-2.2589264,1.1553421c-0.217453-0.0012131-0.6264725-0.1227875-0.5903397-0.4069977
					c0.0291214-0.2290039,0.4932022-0.473938,0.6657181-0.5961304
					C128.6647949,121.2320023,129.9202271,120.466156,130.3950653,120.4844437z"/>
				<path class="st3" d="M134.9053802,118.375473c0.3977051,0.0153275,0.6365967,0.4239883,0.0589905,0.8746185
					c-0.4805603,0.3749084-1.6501007,1.1587296-2.2589417,1.1553421c-0.2174377-0.0012131-0.6264648-0.1227951-0.590332-0.4069977
					c0.0291138-0.2290039,0.4931946-0.473938,0.6657104-0.5961304
					C133.1750946,119.1230316,134.430542,118.3571777,134.9053802,118.375473z"/>
				
					<ellipse transform="matrix(0.9423158 -0.3347253 0.3347253 0.9423158 -32.992878 52.1986122)" class="st3" cx="134.9504242" cy="121.8234482" rx="0.6641873" ry="1.0447676"/>
				
					<ellipse transform="matrix(0.9423158 -0.3347253 0.3347253 0.9423158 -33.7603874 50.8328133)" class="st3" cx="130.6039734" cy="123.3673706" rx="0.6641873" ry="1.0447676"/>
				<path class="st2" d="M135.1667786,125.8464737c-1.0538635,0.5429916-1.1141968,0.5899811-1.2675629,0.5995331
					c-0.3355408,0.0208893-0.4803467-0.3738785,0.0216675-0.6009293c0.1941223-0.0877914,0.399292-0.1545258,0.5786438-0.2695084
					c0.4335022-0.2779007,0.4828949-0.7072601,0.1246033-1.0775986c-0.1488495-0.1538467-0.3340759-0.26651-0.5032043-0.3977509
					c-0.1529541-0.1186981-1.0056-0.9719696-0.3412476-0.8460846c0.219635,0.0416183,0.5559692,0.4289017,0.7342224,0.568428
					C135.5242462,124.6133957,136.4492493,125.1856995,135.1667786,125.8464737z"/>
				<path class="st20" d="M136.8495483,126.2016068c-0.5557404,0.8252563-1.5117493,1.312294-2.486618,1.5111237
					c-0.9748688,0.1988373-1.9814453,0.1422577-2.9747314,0.0848083c0.4128113,0.393898,0.8095551,1.03759,1.2967682,1.3345413
					c1.437027,0.875885,2.7665863,0.3730164,3.4917297-0.8701324
					C136.5739594,127.5808792,136.8014069,126.9885941,136.8495483,126.2016068z"/>
				<path class="st16" d="M136.1983032,117.2782669c-3.0126953-1.6322174-12.0788651,1.9209061-13.1033859,5.8398056
					c-3.3087387-5.4543839-2.6329422-4.9010239-4.0208817-4.8640442c-2.8947678,0.0957413-4.9440155-2.060791-4.7519531-3.768425
					c0.102356-0.9419861,1.0505447-1.7990952,1.9678955-1.5566254c-1.4223099-1.3018265-1.687767-3.6883011-0.5806961-5.2689896
					c1.1040039-1.5814362,3.4306641-2.1570587,5.143692-1.2706604c0.2702179-1.9654617,1.8431931-3.6845856,3.7765656-4.1265335
					c2.4038315-0.55336,4.3845749,0.9300919,4.4109268,2.8078079c0.8756714-1.2741089,2.7793121-1.700882,4.1158142-0.9201355
					c1.3334808,0.7798386,1.8984375,2.6493835,1.2187958,4.0368042c1.6997833,0.22789,2.6004028,2.5340881,0.9693756,3.7580032
					c-0.5481567,0.4124222-1.2600555,0.2257919-1.2674408,0.9275665c-0.0094147,0.6307602,0.6919708,1.6833801,0.9637146,2.2534714
					C135.38797,115.8643341,135.7687073,116.5847778,136.1983032,117.2782669z"/>
				<path class="st15" d="M136.1983032,117.2782669c-3.0126953-1.6322174-12.0788651,1.9209061-13.1033859,5.8398056
					c-2.8647614-4.722496-2.6080627-4.4786453-2.9740295-4.7519608c2.7800217-4.4796219,8.8354568-5.8270493,14.0696335-5.8614044
					c-0.4400024,0.5440598,0.5114441,1.9109268,0.8502045,2.6216049
					C135.38797,115.8643341,135.7687073,116.5847778,136.1983032,117.2782669z"/>
			</g>
			<path class="st7" d="M213.3705139,188.1918335l-0.0601044,0.430603
				c-1.3378754,4.7676086-22.8586731,7.0245819-36.559845,4.0062866c-4.5145874-0.9915466-7.4892273-2.4463501-7.8648224-4.0838013
				c0,0-0.04245-0.3518066-0.0426025-0.3530884c-0.110672-0.9170685,0.8821259-1.5385132,1.3878021-2.1455078
				c1.9523315-2.3435516,3.8018494-1.0592194,5.9325714-1.9427185c1.15979-0.4809113,2.0528107-1.5874329,3.2960663-1.7626801
				c1.2613525-0.1778107,2.4484406,0.666687,3.7198486,0.7449188c2.0580292,0.1266022,3.9000702-1.7499237,5.9387054-1.4409943
				c1.3401947,0.2030792,2.4565735,1.3313141,3.812027,1.3211517c1.025177-0.0076752,1.9288177-0.6711426,2.9351807-0.866806
				c1.2733459-0.2475739,1.9715271,0.0961151,8.9268188,1.7830963c1.8156281,0.4397583,4.0512695,0.6153259,5.7489166,1.3820648
				C211.6119385,185.7480011,213.3705139,186.837204,213.3705139,188.1918335z"/>
			<path class="st26" d="M213.3104095,188.6224365l-1.0591431,7.4818268c0,2.5940399-9.5024567,4.69487-21.2232971,4.69487
				c-11.7234192,0-21.2257996-2.1008301-21.2257996-4.69487l-0.9164276-7.5593414
				c1.1227875,4.8950195,22.9855042,7.0506287,36.4971924,4.1013947
				C209.8700256,191.669693,212.857193,190.2375183,213.3104095,188.6224365z"/>
			<path class="st7" d="M126.6672897,192.6463165c-10.3659821,2.262619-29.082283,1.7220917-35.0593338-2.3681488
				c-0.5406036-0.3699493-1.5086288-1.0952911-1.4592361-1.8161926c0.0740891-1.0812531,1.7078705-2.1179352,2.5604935-2.5137634
				c1.2241669-0.5682983,2.5813065-0.7724609,3.9193954-0.9487762c10.0515747-1.3244171,20.2632141-1.4296265,30.3399429-0.312561
				C136.6978302,185.7654114,137.789856,190.2254486,126.6672897,192.6463165z"/>
			<path class="st26" d="M134.5947571,188.6224365l-1.0591583,7.4818268c0,2.5940399-9.502449,4.69487-21.2232895,4.69487
				c-11.7234116,0-21.2257996-2.1008301-21.2257996-4.69487l-0.91642-7.5593414
				c0.3755875,1.6374512,3.3502274,3.0922546,7.8648148,4.0838013
				C111.9239731,195.6884003,133.2769928,193.3183289,134.5947571,188.6224365z"/>
			<path class="st28" d="M178.8456879,185.7277222c-1.740448-0.9395905-3.9278564-0.3071594-4.8959503,1.4224396
				c0.9023743,0.3070526,1.878006,0.4879608,2.7777863,0.1734161
				C177.6273193,187.0090332,178.331131,186.5300903,178.8456879,185.7277222z"/>
			<path class="st28" d="M187.9405212,189.509552c-0.9420013-1.7391357-3.1186829-2.4075165-4.8757477-1.4902191
				c0.5870056,0.7509918,1.3043671,1.4365387,2.2295227,1.6659546
				C186.2194672,189.9147186,187.0706329,189.8992767,187.9405212,189.509552z"/>
			<path class="st28" d="M196.9376068,184.4080811c-1.5641785-1.210495-3.8253784-0.942749-5.0622253,0.6060791
				c0.8403168,0.4499207,1.7734528,0.7873077,2.7124481,0.6235046
				C195.5268402,185.4738617,196.2992554,185.1159363,196.9376068,184.4080811z"/>
			<path class="st28" d="M199.6384125,190.5941772c-1.5641937-1.2105103-3.8253784-0.9427643-5.0622406,0.6060791
				c0.840332,0.4499054,1.7734528,0.7872925,2.7124634,0.6235046
				C198.2276459,191.6599579,199.000061,191.3020325,199.6384125,190.5941772z"/>
			<path class="st28" d="M207.1802216,187.8252563c-1.0613251-1.6690216-3.2794189-2.1835327-4.9680176-1.1455994
				c0.6380768,0.7081146,1.4016266,1.3417969,2.3405609,1.5059662
				C205.4917145,188.3497772,206.3397217,188.2748413,207.1802216,187.8252563z"/>
			<circle class="st11" cx="185.5026398" cy="184.7571869" r="1.0460055"/>
			<circle class="st11" cx="191.5550232" cy="190.8504944" r="1.0460055"/>
			<circle class="st11" cx="199.7153473" cy="185.8504944" r="1.0460055"/>
			<circle class="st11" cx="210.4030457" cy="187.8044281" r="1.0460055"/>
			<circle class="st11" cx="178.3399506" cy="189.5909271" r="1.0460055"/>
			<path class="st8" d="M112.465744,181.0214081c2.1122894,0.8095245,7.3540955,6.6267853,4.8136292,9.3883972
				c-1.7511063,1.9038849-8.2769547,1.7671967-9.8779449-0.2260284
				C105.2137451,187.4590912,109.651001,183.1080322,112.465744,181.0214081z"/>
			<path class="st8" d="M98.3434143,179.9246979c2.1122818,0.8095245,7.3540878,6.6267853,4.8136215,9.3883972
				c-1.7510986,1.9038849-8.2769547,1.7671967-9.8779449-0.2260284
				C91.0914078,186.362381,95.5286713,182.0113373,98.3434143,179.9246979z"/>
			<path class="st8" d="M126.1223068,179.4346619c2.1122818,0.8095093,7.3540878,6.62677,4.8136215,9.388382
				c-1.7510986,1.9039001-8.2769547,1.7672119-9.8779449-0.2260132
				C118.8703003,185.872345,123.3075638,181.521286,126.1223068,179.4346619z"/>
			<g>
				<path class="st2" d="M150.5751038,180.81427c-1.2299805-1.5366211-2.6464844-2.737793-4.2099609-3.5712891
					c-0.4368744-0.2330017-0.0873108-0.8937988,0.3525391-0.6621094c1.6542969,0.8818359,3.1489258,2.1484375,4.4433594,3.7646484
					C151.4698639,180.7312622,150.8871765,181.2023163,150.5751038,180.81427z"/>
			</g>
			<g>
				<path class="st2" d="M148.5614319,182.2786255c-1.0664063-1.328125-2.3398438-2.4765625-3.7841797-3.4130859
					c-0.4158325-0.2686615-0.0087738-0.8998871,0.4082031-0.6289063c1.5112305,0.9799805,2.8442383,2.1816406,3.9609375,3.5722656
					C149.4595947,182.2001038,148.8696442,182.66185,148.5614319,182.2786255z"/>
			</g>
			<g>
				<path class="st2" d="M147.9613342,176.1799927c-0.4455566-0.2204437-0.1093903-0.8936462,0.3330078-0.671875
					c1.9707031,0.9750977,3.5458984,2.0708008,4.8295898,4.2490234c0.1049805,0.1787109,0.0454102,0.4082031-0.1328125,0.5136719
					C152.1372528,180.7706299,152.6515961,178.5016174,147.9613342,176.1799927z"/>
			</g>
			
				<ellipse transform="matrix(0.135716 -0.9907478 0.9907478 0.135716 44.9528275 295.5769653)" class="st26" cx="191.8896027" cy="122.0232697" rx="12.318512" ry="25.8524761"/>
			<path class="st11" d="M210.9978943,126.6659698c-1.0765686,1.2966843-2.8050079,2.016571-4.3657379,2.5191803
				c-5.0177765,1.6159058-10.6644592,1.4591064-15.8243561,0.7523499
				c-5.1962128-0.711731-10.7398071-2.0916214-15.1503143-5.0533447c-1.3720703-0.9213638-2.7106018-2.0490265-3.4341583-3.5678253
				c-0.9499359-1.9939575,0.1546326-4.5099258,2.3536682-5.161232c0.912796-0.2703552,1.9266205-0.2087708,2.7685242-0.6531677
				c1.5278168-0.8064651,2.179245-3.1002884,3.9027252-3.2200699c1.7646027-0.1226425,2.8794861,2.2286606,4.646759,2.3035583
				c1.6488495,0.0698853,2.866272-1.8829575,4.5147552-1.80513c1.6452942,0.0776749,2.6059875,2.1054382,4.2276764,2.3938522
				c1.9467468,0.3462296,3.8674622-1.9635773,5.6569977-1.1225891c1.2895355,0.6060181,1.6378784,2.5725021,3.0250397,2.897995
				c1.2523193,0.2938538,2.6421204-0.9840698,3.7458801-0.323494c1.0969543,0.6564941,0.6572876,2.4960098,1.5649261,3.3962555
				c0.5018005,0.4977036,1.2761078,0.5672836,1.9138031,0.8720093
				C212.5794373,121.8669281,212.2832642,125.1177902,210.9978943,126.6659698z"/>
			<path class="st7" d="M183.1786652,117.4336853c1.0766449,0.1538849,2.3080597,0.5978546,2.599762,1.6455765
				c0.2354584,0.8457413-0.2969666,1.7608414-1.0460815,2.2185516c-0.7491302,0.4577026-1.6621246,0.5496368-2.5399323,0.5628281
				c-1.3342743,0.0200424-2.7350464-0.1382675-3.8371429-0.8907013c-1.2884369-0.8796539-1.9777527-2.4702072-0.4174194-3.2664566
				C179.3086395,117.0039597,181.7137146,117.2242889,183.1786652,117.4336853z"/>
			<path class="st7" d="M195.8802795,123.2389832c0.8960266,0.3050079,1.8777008,0.8830338,1.9584351,1.8260803
				c0.0651703,0.7612381-0.5375824,1.4581299-1.2519989,1.7289352s-1.5100708,0.2023849-2.2629547,0.0722885
				c-1.1443939-0.1977539-2.316925-0.5587463-3.1383209-1.3797684c-0.9602661-0.9598312-1.2936401-2.4311676,0.1690979-2.8608551
				C192.6396027,122.2481689,194.661087,122.8239594,195.8802795,123.2389832z"/>
			<path class="st7" d="M206.0445404,119.3518219c2.5868835,0.8805847,2.4078522,2.91008,0.7064362,3.5550156
				c-1.2606354,0.4778519-4.1332855-0.0400772-5.4012756-1.3074722c-0.9602814-0.9598389-1.2936401-2.4311752,0.1690979-2.8608627
				C202.8038635,118.3610077,204.8253326,118.9367981,206.0445404,119.3518219z"/>
		</g>
	</g>
</g>
</svg>
