<?xml version="1.0" encoding="utf-8"?>
<!-- Generator: Adobe Illustrator 22.0.1, SVG Export Plug-In . SVG Version: 6.00 Build 0)  -->
<svg version="1.1" id="Layer_1" xmlns="http://www.w3.org/2000/svg" xmlns:xlink="http://www.w3.org/1999/xlink" x="0px" y="0px"
	 viewBox="0 0 300 300" style="enable-background:new 0 0 300 300;" xml:space="preserve">
<style type="text/css">
	.st0{fill:#EDC1A4;}
	.st1{fill:#E2E0E0;}
	.st2{fill:#D39E81;}
	.st3{fill:#502E26;}
	.st4{fill:#CCCACA;}
	.st5{fill:#426800;}
	.st6{fill:#538705;}
	.st7{fill:#D47E44;}
	.st8{fill:#73341D;}
	.st9{fill:#BC672E;}
	.st10{fill:#96311D;}
	.st11{fill:#B83E21;}
	.st12{fill:#DE8D82;}
	.st13{fill:#EFBAB4;}
	.st14{fill:#FDD5D0;}
	.st15{fill:#6883CE;}
	.st16{fill:#3D4885;}
	.st17{fill:#3859AE;}
	.st18{fill:#864424;}
	.st19{fill:#FEFEFE;}
	.st20{fill:#FFFFFF;}
	.st21{fill:#A55925;}
	.st22{fill:#F4F2F2;}
	.st23{fill:#3C3E68;}
	.st24{fill:#E8997C;}
	.st25{fill:#F5C46B;}
	.st26{fill:#F7EBDA;}
	.st27{fill:#0E0C0D;}
	.st28{fill:#657C3A;}
	.st29{fill:#576C37;}
	.st30{fill:#7C995D;}
	.st31{fill:#36518C;}
	.st32{fill:#96B7E3;}
	.st33{fill:#A3B3DF;}
	.st34{fill:url(#SVGID_1_);}
	.st35{fill:url(#SVGID_2_);}
	.st36{fill:url(#SVGID_3_);}
	.st37{fill:url(#SVGID_4_);}
	.st38{fill:url(#SVGID_5_);}
	.st39{fill:#266AB7;}
	.st40{fill:#060E0D;}
	.st41{fill:#E0D4C6;}
	.st42{fill:#787E42;}
	.st43{fill:#D3D1D1;}
	.st44{fill:url(#SVGID_6_);}
	.st45{fill:url(#SVGID_7_);}
	.st46{fill:url(#SVGID_8_);}
	.st47{fill:#020508;}
	.st48{fill:#BAB6B6;}
	.st49{fill:#0F0B07;}
	.st50{fill:#2F3A68;}
	.st51{fill:#203257;}
	.st52{opacity:0.5;fill:#FFFFFF;}
	.st53{opacity:0.2;fill:#0E0C0D;}
	.st54{fill:#DD9F9B;}
	.st55{fill:#3E4D9B;}
	.st56{fill:url(#SVGID_9_);}
	.st57{fill:#5F6194;}
	.st58{fill:url(#SVGID_10_);}
	.st59{fill:url(#SVGID_11_);}
	.st60{fill:url(#SVGID_12_);}
	.st61{fill:url(#SVGID_13_);}
	.st62{fill:#070102;}
	.st63{fill:#100805;}
	.st64{fill:#FDA465;}
	.st65{fill:#2A50A1;}
	.st66{fill:#B76C39;}
	.st67{fill:#130602;}
	.st68{fill:url(#SVGID_14_);}
	.st69{fill:url(#SVGID_15_);}
	.st70{fill:url(#SVGID_16_);}
	.st71{fill:url(#SVGID_17_);}
	.st72{fill:url(#SVGID_18_);}
	.st73{fill:url(#SVGID_19_);}
	.st74{fill:#B4BDED;}
	.st75{fill:#100D08;}
	.st76{fill:#F6C85F;}
	.st77{fill:#FECF00;}
	.st78{fill:#2D59E2;}
	.st79{fill:#121F3A;}
	.st80{fill:#BBD0F5;}
	.st81{fill:#020202;}
	.st82{fill:#E2CFB7;}
	.st83{fill:#080805;}
	.st84{fill:#A87D7C;}
	.st85{fill:#182052;}
	.st86{fill:#EAEAEA;}
	.st87{fill:#DDDDDD;}
	.st88{fill:#3D4574;}
	.st89{fill:#ABC5F0;}
	.st90{fill:url(#SVGID_20_);}
	.st91{fill:#4159A8;}
	.st92{fill:#E0D0BD;}
	.st93{fill:#3D53AA;}
	.st94{fill:#0A0000;}
	.st95{fill:#BF6D36;}
	.st96{fill:#385DAE;}
	.st97{fill:#E0DCDC;}
	.st98{fill:#857E78;}
	.st99{fill:#0E213C;}
	.st100{fill:url(#SVGID_21_);}
	.st101{fill:#55608E;}
	.st102{opacity:0.3;fill:#F4F2F2;}
	.st103{opacity:0.3;}
	.st104{fill:#213987;}
	.st105{enable-background:new    ;}
</style>
<g id="Street_Food_1_">
	<g id="Street_Food">
		<g>
			<g>
				<path class="st67" d="M103.2035599,137.1122284l-2.5771408,0.0699615
					c-4.0082092-3.6570892,0.0677719-7.3517914,2.1691589-4.6368713
					C103.7950668,133.8301544,103.5125046,135.5446014,103.2035599,137.1122284z"/>
				<path class="st8" d="M103.482193,135.132431c-0.0199203,0.6665649-0.1492767,1.3234253-0.2786331,1.9797974
					l-2.5771408,0.0699615c-1.2565079-1.1464386-2.038353-2.549057-1.5124283-4.1592865
					c0.7860947,1.1839905,2.0995636,2.039566,3.5223541,2.1192322
					C102.9149704,135.1620636,103.2035599,135.1523438,103.482193,135.132431z"/>
				<path class="st7" d="M111.0242767,172.0272522c-0.5471802,2.3976288-1.3332672,4.875412-3.124321,6.576828
					c-1.8319168,1.7227936-4.901123,2.2836761-6.7063217,0.6767883c-1.0049591-0.8759766-1.4825439-2.2188416-1.6119003-3.5422821
					c-0.1193924-1.3234253,0.0795593-2.6565704,0.2387924-3.980011c1.6757889-14.2645569-2.0648575-22.8623199-2.4775543-27.1838226
					c-0.3183441-3.3629913,0.8855743-7.3527222,4.2387314-8.7558289c0.2552338-0.1461029,1.0273209-0.4081116,1.71138-0.4081116
					c3.243721-0.0398407,5.3830032,4.3983307,6.2486496,6.9353943
					C112.7555771,151.8482971,113.282959,162.2462769,111.0242767,172.0272522z"/>
				<path class="st13" d="M106.1686554,179.7385254c-0.747261,0.3317413-1.311882,0.4304962-2.0099258,0.4873047
					c-0.1194-0.3779907-0.059761-0.8652954,0.0298767-1.2636719c3.1740036-14.1686096,2.2487183-29.2233887-2.6467438-42.8944855
					l0.0398407-0.2487488c0.2443924-0.1399078,1.0409088-0.4081116,1.71138-0.4081116
					C113.2304382,148.4142914,114.1788712,165.923584,106.1686554,179.7385254z"/>
				
					<linearGradient id="SVGID_1_" gradientUnits="userSpaceOnUse" x1="101.7906113" y1="157.8079681" x2="112.4043274" y2="157.8079681">
					<stop  offset="0" style="stop-color:#874929"/>
					<stop  offset="1" style="stop-color:#AA5426"/>
				</linearGradient>
				<path class="st34" d="M111.0242767,172.0272522c-0.5471802,2.3976288-1.3332672,4.875412-3.124321,6.576828
					c-0.9053726,0.8657684-2.1590805,1.4526672-3.4028397,1.5921021c1.024765-3.6219482,2.0496445-7.2438965,2.6864624-10.9450378
					c1.9402084-11.3628693,0-23.3330383-5.3929672-33.5216217c3.7768173-1.5119476,6.4527893,2.8027496,7.7511215,6.616684
					C112.7555771,151.8482971,113.282959,162.2462769,111.0242767,172.0272522z"/>
			</g>
			<g>
				<path class="st67" d="M118.2419434,135.132431c-0.0199203,0.6665649-0.1492767,1.3234253-0.2786255,1.9797974
					l-2.5771484,0.0699615c-1.2565002-1.1464386-2.038353-2.549057-1.5124283-4.1592865
					C114.8632126,130.457077,118.539299,131.5641327,118.2419434,135.132431z"/>
				<path class="st8" d="M118.2419434,135.132431c-0.0199203,0.6665649-0.1492767,1.3234253-0.2786255,1.9797974
					l-2.5771484,0.0699615c-1.2565002-1.1464386-2.038353-2.549057-1.5124283-4.1592865
					c0.7860947,1.1839905,2.0995636,2.039566,3.5223541,2.1192322
					C117.6747284,135.1620636,117.9633179,135.1523438,118.2419434,135.132431z"/>
				<path class="st7" d="M125.7840271,172.0272522c-0.5471725,2.3976288-1.3332672,4.875412-3.124321,6.576828
					c-2.9222412,2.7481689-7.8180161,2.252121-8.318222-2.8654938c-0.1193924-1.3234253,0.0795593-2.6565704,0.2387924-3.980011
					c1.6757889-14.2645569-2.0648575-22.8623199-2.4775467-27.1838226
					c-0.3183517-3.3629913,0.8855667-7.3527222,4.2387238-8.7558289c0.2552338-0.1461029,1.0273209-0.4081116,1.71138-0.4081116
					c3.243721-0.0398407,5.3830032,4.3983307,6.2486496,6.9353943
					C127.5153275,151.8482971,128.0427094,162.2462769,125.7840271,172.0272522z"/>
				<path class="st13" d="M120.9284058,179.7385254c-0.7472534,0.3317413-1.311882,0.4304962-2.0099258,0.4873047
					c-0.1193924-0.3779907-0.059761-0.8652954,0.0298767-1.2636719c3.1740036-14.1686096,2.2487183-29.2233887-2.6467438-42.8944855
					l0.0398407-0.2487488c0.2443924-0.1399078,1.0409088-0.4081116,1.71138-0.4081116
					C127.9901886,148.4142914,128.9386292,165.923584,120.9284058,179.7385254z"/>
				
					<linearGradient id="SVGID_2_" gradientUnits="userSpaceOnUse" x1="116.5503693" y1="157.8079681" x2="127.1640854" y2="157.8079681">
					<stop  offset="0" style="stop-color:#874929"/>
					<stop  offset="1" style="stop-color:#AA5426"/>
				</linearGradient>
				<path class="st35" d="M125.7840271,172.0272522c-0.5471725,2.3976288-1.3332672,4.875412-3.124321,6.576828
					c-0.905365,0.8657684-2.1590805,1.4526672-3.4028397,1.5921021c1.024765-3.6219482,2.0496445-7.2438965,2.6864624-10.9450378
					c1.9402084-11.3628693,0-23.3330383-5.3929596-33.5216217c3.7768097-1.5119476,6.4527893,2.8027496,7.7511139,6.616684
					C127.5153275,151.8482971,128.0427094,162.2462769,125.7840271,172.0272522z"/>
			</g>
			<g>
				<path class="st67" d="M133.2397614,138.6744843l-2.5771484,0.0699615
					c-4.0084305-3.6573029,0.068222-7.3512115,2.1691589-4.6368866
					C133.8312531,135.3924103,133.5486908,137.1068573,133.2397614,138.6744843z"/>
				<path class="st8" d="M133.5183868,136.6946716c-0.0199127,0.6665802-0.1492767,1.3234406-0.2786255,1.9798126
					l-2.5771484,0.0699615c-1.2565002-1.1464386-2.0383453-2.5490723-1.5124359-4.1593018
					c0.7861023,1.1840057,2.0995789,2.039566,3.5223541,2.1192474
					C132.9511719,136.7243042,133.2397614,136.7145844,133.5183868,136.6946716z"/>
				<path class="st7" d="M141.0604706,173.5894928c-0.9443054,4.1377716-2.6517792,7.8556519-6.8655548,8.1985779
					c-2.6910248,0.1496582-4.3105774-1.7616425-4.5769958-4.4872284c-0.1193848-1.3234406,0.0795593-2.6565857,0.2388-3.9800262
					c1.6757965-14.2645416-2.0648575-22.8623047-2.4775543-27.1838074c-0.3608093-3.811615,1.1601563-7.8390198,4.905426-9.0045929
					c3.5537109-1.0555573,6.1051331,3.2936249,7.293335,6.7760315
					C142.7917633,153.4105377,143.3191528,163.8085327,141.0604706,173.5894928z"/>
				<path class="st13" d="M136.2048492,181.3007813c-0.7472534,0.3317261-1.3118744,0.430481-2.0099335,0.4872894
					c-0.1193848-0.3779755-0.0597534-0.8652802,0.029892-1.2636719c3.173996-14.1686096,2.2487183-29.2233734-2.646759-42.8944855
					l0.0398407-0.2487488c0.2510834-0.1437225,1.0413818-0.4081116,1.71138-0.4081116
					C143.2666321,149.9765472,144.2150726,167.4858398,136.2048492,181.3007813z"/>
				
					<linearGradient id="SVGID_3_" gradientUnits="userSpaceOnUse" x1="137.8139191" y1="145.5702667" x2="130.7339478" y2="202.5269623">
					<stop  offset="0" style="stop-color:#B75320"/>
					<stop  offset="1" style="stop-color:#8D4325"/>
				</linearGradient>
				<path class="st36" d="M141.0604706,173.5894928c-0.5471802,2.3976288-1.3332672,4.8754272-3.1243286,6.5768433
					c-0.905365,0.8657684-2.1590729,1.4526672-3.402832,1.5921021c1.024765-3.6219482,2.0496521-7.2438965,2.6864624-10.9450378
					c1.9402008-11.3628693,0-23.3330383-5.3929596-33.5216217c3.7768097-1.5119629,6.4527893,2.8027344,7.7511139,6.6166687
					C142.7917633,153.4105377,143.3191528,163.8085327,141.0604706,173.5894928z"/>
			</g>
			<g>
				<rect x="225.5735626" y="170.0658875" class="st3" width="1.2214789" height="9.8080978"/>
				<rect x="163.0327759" y="170.0658875" class="st3" width="1.2214789" height="9.8080978"/>
			</g>
			
				<linearGradient id="SVGID_4_" gradientUnits="userSpaceOnUse" x1="147.6446991" y1="140.7712555" x2="151.4183655" y2="140.7712555">
				<stop  offset="0" style="stop-color:#874929"/>
				<stop  offset="1" style="stop-color:#AA5426"/>
			</linearGradient>
			<rect x="147.6446991" y="97.1505203" class="st37" width="3.773674" height="87.2414627"/>
			<path class="st8" d="M151.4183655,97.1505203v9.2802582c-1.2491455,0.2375259-2.5070038,0.387001-3.7736664,0.4484177v-9.7286758
				H151.4183655z"/>
			<linearGradient id="SVGID_5_" gradientUnits="userSpaceOnUse" x1="72.1969986" y1="200.224884" x2="95.0023727" y2="200.224884">
				<stop  offset="0" style="stop-color:#874929"/>
				<stop  offset="1" style="stop-color:#AA5426"/>
			</linearGradient>
			<polyline class="st38" points="92.1643982,196.3549194 72.1969986,196.7826233 72.2153625,199.6623535 95.0023727,204.0948486 
							"/>
			<g>
				<path class="st15" d="M157.1478119,23.2625961c3.3592834-0.0888309,10.0989227,1.3084507,13.6582489,1.9456463
					c23.7695465,4.2533054,49.4797058,13.4331684,67.298111,30.3311672
					c5.9377899,5.6308823,14.5025024,15.7782326,15.4389191,23.9899483
					c0.8785553,9.2026672-6.9046783,13.9707413-16.1198578,14.8294525
					c-7.3302002,0.6836014-11.2310791-2.6788025-12.2509613-7.1560669
					c-0.6042786-2.0393906-0.0929413-6.7192688-7.0959625-19.3903351c-2.4709625-4.471386-5.4949799-8.6231575-8.7196808-12.5772285
					C195.1857452,37.8592834,178.3575439,29.3700428,157.1478119,23.2625961z"/>
				<path class="st15" d="M46.4280128,79.7714767c1.5876389-9.1718445,7.5267677-16.7370262,14.0650177-23.0585327
					c29.3277855-28.357008,73.4151459-31.8862896,77.7767487-32.9944916
					c1.2029114-0.2047138,2.5060272-0.6108093,3.7219696-0.5911083
					c-19.1699295,5.461237-34.6385803,13.7474289-48.1128235,28.6760674
					c-4.1444321,4.5916061-7.882431,9.489109-10.88974,14.9075966c-6.7303009,12.1269073-6.6093445,19.5851974-6.9677277,21.0391006
					c-1.5172577,4.3609543-5.5144196,7.5061264-13.0571251,7.0304947
					C53.4612427,94.1812363,45.7735214,89.4901733,46.4280128,79.7714767z"/>
				<path class="st26" d="M166.0944672,26.0864563c17.7464905,6.1601028,31.509552,14.7380371,43.2621613,29.1487236
					c3.2247009,3.954071,6.2487183,8.1058426,8.7196808,12.5772285c2.911438,5.2678757,6.0389862,11.8054504,6.7883759,17.8080368
					l0.3075867,1.5822983c-0.8729706,3.7543716-1.7182312,6.8274612-5.1994171,8.996521
					c-4.4206238,2.7548294-11.3392487,3.6538467-16.3706665,2.4222031c-2.7301178-0.6682587-5.033432-2.1049347-6.5031891-4.5545349
					c-0.680954-1.1351242-1.1601715-3.0243301-2.0191345-3.9400482c-0.4017334,3.3071976-1.4243164,6.0296326-4.1227112,8.1405869
					c-3.6294556,2.8389893-11.807785,3.6802368-16.3149109,3.1058273c-3.250412-0.4141159-6.3331909-2.0311432-8.3309326-4.6630783
					c-1.0760193-1.4176559-1.5986633-2.9375-1.8962097-4.6811066c-0.8265686,3.2591095-2.1096344,5.9838791-5.1065826,7.7481842
					c-1.5498962,0.9123764-3.6254578,1.4533997-5.4031219,1.59198c-0.7099915,0.0554428-1.5646057-0.0176926-2.2265015,0.2347794
					c-1.1892242,0.1192169-2.3621063,0.0868301-3.5529938,0.025383c-0.8452454-0.3392715-4.5792694,0.2537231-8.2003632-1.7031937
					c-2.8663635-1.5488968-3.9747772-3.8859482-4.8697815-6.853508c-1.1294708,5.0812302-5.2772522,7.7255554-10.6335983,8.1970215
					c-4.8227081,0.4251328-11.6822281-0.230423-15.5144119-3.5302734c-2.2141418-1.9062424-3.2233658-4.2847061-3.4584732-7.1520767
					c-0.224762,0.7961578-0.6134872,1.6030121-1.0212555,2.3246918c-1.4694214,2.6025543-3.9150009,4.2649994-6.7706833,5.0204086
					c-4.7205124,1.2486725-11.7232971,0.9274063-16.0036469-1.6240463c-3.501236-2.0865707-4.6700897-4.7732773-5.6322327-8.5583572
					c0.5295181-2.1481857,0.5436478-16.7647629,17.8574677-35.9466972
					c13.4742432-14.9286385,28.942894-23.2148304,48.1128235-28.6760674
					c0.5797729-0.1100712,4.1173401-1.0184212,7.6683044-0.9270706
					C155.1553192,22.3416405,160.8551025,24.2677879,166.0944672,26.0864563z"/>
				<path class="st15" d="M105.6950607,88.3365326c0.7053223-4.2833557,1.2950974-8.5476837,2.3407211-12.7679291
					c4.1641312-16.8071556,13.2818832-36.2752991,27.6858826-46.6016502
					c3.8618927-2.7688541,8.2701569-5.1389618,12.7438812-6.7666817
					c-10.4919891,12.2446136-12.8480835,51.1438293-13.3343201,67.4834442
					c-0.0040131,1.1184311,0.050415,2.2786026-0.07547,3.3890228c-1.1294708,5.0812302-5.2772522,7.7255554-10.6335983,8.1970215
					c-4.8227081,0.4251328-11.6822281-0.230423-15.5144119-3.5302734c-2.2141418-1.9062424-3.2233658-4.2847061-3.4584732-7.1520767
					C105.5449982,89.8386841,105.6269302,89.0883865,105.6950607,88.3365326z"/>
				<path class="st15" d="M150.963501,22.2677155c4.5769196,1.4143181,9.6267548,4.4039364,13.4378967,7.2379112
					c11.6802368,8.6862793,21.1542969,25.5114708,25.8243866,39.0775642
					c2.2482147,6.5305634,3.7189636,13.016716,4.7315369,19.8388367l0.1225433,1.7048569
					c-0.4017334,3.3071976-1.4243164,6.0296326-4.1227112,8.1405869c-3.6294556,2.8389893-11.807785,3.6802368-16.3149109,3.1058273
					c-3.250412-0.4141159-6.3331909-2.0311432-8.3309326-4.6630783c-1.0760193-1.4176559-1.5986633-2.9375-1.8962097-4.6811066
					c-0.3214722-3.0150604,0.4654694-3.6130524-1.2396698-21.7270355
					c-1.2276306-13.047123-2.8863983-28.2833366-7.8834229-40.5085793
					C154.2082977,27.1422005,152.5341187,24.6458397,150.963501,22.2677155z"/>
				<ellipse class="st16" cx="149.8908081" cy="23.7724934" rx="9.5964127" ry="1.772494"/>
			</g>
			
				<linearGradient id="SVGID_6_" gradientUnits="userSpaceOnUse" x1="157.6429443" y1="179.5360413" x2="161.9086456" y2="233.1621246">
				<stop  offset="0" style="stop-color:#874929"/>
				<stop  offset="1" style="stop-color:#AA5426"/>
			</linearGradient>
			<rect x="90.5062637" y="183.4731598" class="st44" width="140.3840179" height="68.9457169"/>
			<rect x="86.1444092" y="178.827301" class="st3" width="149.1077271" height="5.0451183"/>
			<rect x="98.6987762" y="190.26474" class="st8" width="123.9990082" height="50.1396255"/>
			<g>
				<path class="st7" d="M223.1975403,240.9042664H98.1990128v-51.1396484h124.9985275V240.9042664z M99.1990128,239.9042664
					h122.9985275v-49.1396484H99.1990128V239.9042664z"/>
			</g>
			<g>
				<g>
					<path class="st3" d="M109.590126,265.6528015l27.5839767-23.918457
						c0.3735046-0.3255005,0.8667145,0.2412109,0.4912109,0.5664063l-27.5839767,23.918457
						C109.7069702,266.5445251,109.2149963,265.9776917,109.590126,265.6528015z"/>
				</g>
				<g>
					<path class="st3" d="M137.2185364,266.1698914l-27.6708908-23.8173828
						c-0.3768768-0.3252106,0.1152496-0.8922729,0.4892578-0.5683594l27.6708908,23.8173828
						C138.0844727,265.9265747,137.5932922,266.4929504,137.2185364,266.1698914z"/>
				</g>
				<g>
					<path class="st3" d="M123.0046768,272.2250671l0.4960938-36.5063477
						c0.0029297-0.2070313,0.171875-0.3583984,0.3798828-0.3701172c0.2075195,0.0029297,0.3730469,0.1728516,0.3701172,0.3798828
						l-0.4960938,36.5063477C123.7475433,272.7353516,122.9976349,272.7227478,123.0046768,272.2250671z"/>
				</g>
				<path class="st3" d="M123.4597549,230.1201019c-13.2285004,0-23.9464951,10.7180786-23.9464951,23.9399567
					C99.5132599,267.2819214,110.2312546,278,123.4597549,278c13.2218857,0,23.9398727-10.7180786,23.9398727-23.9399414
					C147.3996277,240.8381805,136.6816406,230.1201019,123.4597549,230.1201019z M123.4597549,273.9459229
					c-10.9896011,0-19.8924866-8.9028931-19.8924866-19.8858643c0-10.9829865,8.9028854-19.8858643,19.8924866-19.8858643
					c10.9829788,0,19.8858566,8.9028778,19.8858566,19.8858643
					C143.3456116,265.0430298,134.4427338,273.9459229,123.4597549,273.9459229z"/>
				<g>
					<path class="st3" d="M141.7307434,254.4350281h-38.1635666c-0.4960175,0-0.496315-0.75,0-0.75h38.1635666
						C142.2267609,253.6850281,142.227066,254.4350281,141.7307434,254.4350281z"/>
				</g>
				<circle class="st3" cx="123.4567184" cy="254.0601654" r="3.5895901"/>
				<path class="st1" d="M123.4597549,271.7002258c-9.7441711,0-17.6402435-7.8959961-17.6402435-17.6401672
					s7.8960724-17.6401672,17.6402435-17.6401672c9.7375412,0,17.6402512,7.8959961,17.6402512,17.6401672
					S133.1972961,271.7002258,123.4597549,271.7002258z M123.4597549,234.1741943
					c-10.9896011,0-19.8924866,8.9028778-19.8924866,19.8858643c0,10.9829712,8.9028854,19.8858643,19.8924866,19.8858643
					c10.9829788,0,19.8858566-8.9028931,19.8858566-19.8858643
					C143.3456116,243.0770721,134.4427338,234.1741943,123.4597549,234.1741943z"/>
			</g>
			<g>
				<g>
					<path class="st3" d="M200.6028137,270.1318054l17.3427734-15.0385742
						c0.3721161-0.3253021,0.8674469,0.2405701,0.4912109,0.5664063l-17.3427734,15.0385742
						C200.7196655,271.0235291,200.2276917,270.4566956,200.6028137,270.1318054z"/>
				</g>
				<g>
					<path class="st3" d="M217.9739075,270.66745l-17.3979492-14.9746094
						c-0.3756409-0.3241577,0.1135254-0.8927612,0.4892578-0.5683594l17.3979492,14.9746094
						C218.8439484,270.4276733,218.3443298,270.9867859,217.9739075,270.66745z"/>
				</g>
				<g>
					<path class="st3" d="M208.9885559,274.3676453l0.3120117-22.953125c0.0071411-0.5005035,0.7570496-0.487915,0.75,0.0097656
						l-0.3120117,22.953125C209.7314301,274.8779297,208.9815216,274.8653259,208.9885559,274.3676453z"/>
				</g>
				<path class="st3" d="M209.4141083,247.8963013c-8.317215,0-15.0559692,6.7388-15.0559692,15.0518494
					S201.0968933,278,209.4141083,278c8.3130341,0,15.0518036-6.7388,15.0518036-15.0518494
					S217.7271423,247.8963013,209.4141083,247.8963013z M209.4141083,275.4510498
					c-6.9095306,0-12.5070801-5.5975342-12.5070801-12.5028992s5.5975494-12.5029144,12.5070801-12.5029144
					c6.905365,0,12.5029144,5.5975494,12.5029144,12.5029144S216.3194733,275.4510498,209.4141083,275.4510498z"/>
				<g>
					<path class="st3" d="M220.9016418,263.3232117h-23.9946289c-0.4960022,0-0.4963074-0.75,0-0.75h23.9946289
						C221.3976593,262.5732117,221.3979645,263.3232117,220.9016418,263.3232117z"/>
				</g>
				<circle class="st3" cx="209.4122009" cy="262.9482117" r="2.2568963"/>
				<path class="st1" d="M209.4141083,274.0391235c-6.1264954,0-11.0910187-4.9644775-11.0910187-11.0909729
					s4.9645233-11.0909729,11.0910187-11.0909729c6.1223145,0,11.0910187,4.9644775,11.0910187,11.0909729
					S215.5364227,274.0391235,209.4141083,274.0391235z M209.4141083,250.4452362
					c-6.9095306,0-12.5070801,5.5975494-12.5070801,12.5029144s5.5975494,12.5028992,12.5070801,12.5028992
					c6.905365,0,12.5029144-5.5975342,12.5029144-12.5028992S216.3194733,250.4452362,209.4141083,250.4452362z"/>
			</g>
			<g>
				<path class="st26" d="M226.1664276,147.8551331v18.8005829h-17.6889038v-18.8005829
					c0-7.9336853,9.6035919-11.7575226,15.103241-6.2589417
					C225.179657,143.2077484,226.1664276,145.4066925,226.1664276,147.8551331z"/>
				<rect x="208.4775238" y="149.5417023" class="st7" width="17.6889095" height="17.1140099"/>
				<rect x="217.1095581" y="149.5417023" class="st11" width="9.0568771" height="17.1140099"/>
				<rect x="217.1095581" y="149.5417023" class="st11" width="9.0568771" height="17.1140099"/>
				<path class="st26" d="M220.0331268,141.003006h-5.4223022v-9.7524872c0-0.5046082,0.4090729-0.913681,0.913681-0.913681
					h3.5949554c0.5046082,0,0.9136658,0.4090729,0.9136658,0.913681V141.003006z"/>
				<path class="st26" d="M204.5849762,147.8551331v18.8005829h-17.6889038v-18.8005829
					c0-7.9336853,9.6035919-11.7575226,15.103241-6.2589417
					C203.5981903,143.2077484,204.5849762,145.4066925,204.5849762,147.8551331z"/>
				<rect x="186.8960724" y="149.5417023" class="st7" width="17.6889095" height="17.1140099"/>
				<rect x="195.5281067" y="149.5417023" class="st11" width="9.0568771" height="17.1140099"/>
				<path class="st26" d="M198.4516754,141.003006h-5.4223022v-9.7524872c0-0.5046082,0.4090729-0.913681,0.913681-0.913681
					h3.5949554c0.5046082,0,0.9136658,0.4090729,0.9136658,0.913681V141.003006z"/>
				<path class="st26" d="M183.0035248,147.8551331v18.8005829H165.314621v-18.8005829
					c0-7.9336853,9.6035919-11.7575226,15.1032257-6.2589417
					C182.0167389,143.2077484,183.0035248,145.4066925,183.0035248,147.8551331z"/>
				<rect x="165.314621" y="149.5417023" class="st7" width="17.6889095" height="17.1140099"/>
				<rect x="173.9466553" y="149.5417023" class="st11" width="9.0568771" height="17.1140099"/>
				<path class="st26" d="M176.870224,141.003006h-5.4223022v-9.7524872c0-0.5046082,0.4090729-0.913681,0.913681-0.913681
					h3.5949402c0.5046234,0,0.913681,0.4090729,0.913681,0.913681V141.003006z"/>
			</g>
			<path class="st15" d="M233.907135,170.8697357h-77.9864502c-0.7946625,0-1.438858-0.6442108-1.438858-1.4388733v-3.1351929
				c0-0.7946625,0.6441956-1.4388733,1.438858-1.4388733h77.9864502c0.7946625,0,1.438858,0.6442108,1.438858,1.4388733v3.1351929
				C235.345993,170.2255249,234.7017975,170.8697357,233.907135,170.8697357z"/>
		</g>
	</g>
</g>
</svg>
