<?xml version="1.0" encoding="utf-8"?>
<!-- Generator: Adobe Illustrator 22.0.1, SVG Export Plug-In . SVG Version: 6.00 Build 0)  -->
<svg version="1.1" id="Layer_1" xmlns="http://www.w3.org/2000/svg" xmlns:xlink="http://www.w3.org/1999/xlink" x="0px" y="0px"
	 viewBox="0 0 300 300" style="enable-background:new 0 0 300 300;" xml:space="preserve">
<style type="text/css">
	.st0{fill:#EDC1A4;}
	.st1{fill:#E2E0E0;}
	.st2{fill:#D39E81;}
	.st3{fill:#502E26;}
	.st4{fill:#CCCACA;}
	.st5{fill:#426800;}
	.st6{fill:#538705;}
	.st7{fill:#D47E44;}
	.st8{fill:#73341D;}
	.st9{fill:#BC672E;}
	.st10{fill:#96311D;}
	.st11{fill:#B83E21;}
	.st12{fill:#DE8D82;}
	.st13{fill:#EFBAB4;}
	.st14{fill:#FDD5D0;}
	.st15{fill:#6883CE;}
	.st16{fill:#3D4885;}
	.st17{fill:#3859AE;}
	.st18{fill:#864424;}
	.st19{fill:#FEFEFE;}
	.st20{fill:#FFFFFF;}
	.st21{fill:#A55925;}
	.st22{fill:#F4F2F2;}
	.st23{fill:#3C3E68;}
	.st24{fill:#E8997C;}
	.st25{fill:#F5C46B;}
	.st26{fill:#F7EBDA;}
	.st27{fill:#0E0C0D;}
	.st28{fill:#657C3A;}
	.st29{fill:#576C37;}
	.st30{fill:#7C995D;}
	.st31{fill:#36518C;}
	.st32{fill:#96B7E3;}
	.st33{fill:#A3B3DF;}
	.st34{fill:url(#SVGID_1_);}
	.st35{fill:url(#SVGID_2_);}
	.st36{fill:url(#SVGID_3_);}
	.st37{fill:url(#SVGID_4_);}
	.st38{fill:url(#SVGID_5_);}
	.st39{fill:#266AB7;}
	.st40{fill:#060E0D;}
	.st41{fill:#E0D4C6;}
	.st42{fill:#787E42;}
	.st43{fill:#D3D1D1;}
	.st44{fill:url(#SVGID_6_);}
	.st45{fill:url(#SVGID_7_);}
	.st46{fill:url(#SVGID_8_);}
	.st47{fill:#020508;}
	.st48{fill:#BAB6B6;}
	.st49{fill:#0F0B07;}
	.st50{fill:#2F3A68;}
	.st51{fill:#203257;}
	.st52{opacity:0.5;fill:#FFFFFF;}
	.st53{opacity:0.2;fill:#0E0C0D;}
	.st54{fill:#DD9F9B;}
	.st55{fill:#3E4D9B;}
	.st56{fill:url(#SVGID_9_);}
	.st57{fill:#5F6194;}
	.st58{fill:url(#SVGID_10_);}
	.st59{fill:url(#SVGID_11_);}
	.st60{fill:url(#SVGID_12_);}
	.st61{fill:url(#SVGID_13_);}
	.st62{fill:#070102;}
	.st63{fill:#100805;}
	.st64{fill:#FDA465;}
	.st65{fill:#2A50A1;}
	.st66{fill:#B76C39;}
	.st67{fill:#130602;}
	.st68{fill:url(#SVGID_14_);}
	.st69{fill:url(#SVGID_15_);}
	.st70{fill:url(#SVGID_16_);}
	.st71{fill:url(#SVGID_17_);}
	.st72{fill:url(#SVGID_18_);}
	.st73{fill:url(#SVGID_19_);}
	.st74{fill:#B4BDED;}
	.st75{fill:#100D08;}
	.st76{fill:#F6C85F;}
	.st77{fill:#FECF00;}
	.st78{fill:#2D59E2;}
	.st79{fill:#121F3A;}
	.st80{fill:#BBD0F5;}
	.st81{fill:#020202;}
	.st82{fill:#E2CFB7;}
	.st83{fill:#080805;}
	.st84{fill:#A87D7C;}
	.st85{fill:#182052;}
	.st86{fill:#EAEAEA;}
	.st87{fill:#DDDDDD;}
	.st88{fill:#3D4574;}
	.st89{fill:#ABC5F0;}
	.st90{fill:url(#SVGID_20_);}
	.st91{fill:#4159A8;}
	.st92{fill:#E0D0BD;}
	.st93{fill:#3D53AA;}
	.st94{fill:#0A0000;}
	.st95{fill:#BF6D36;}
	.st96{fill:#385DAE;}
	.st97{fill:#E0DCDC;}
	.st98{fill:#857E78;}
	.st99{fill:#0E213C;}
	.st100{fill:url(#SVGID_21_);}
	.st101{fill:#55608E;}
	.st102{opacity:0.3;fill:#F4F2F2;}
	.st103{opacity:0.3;}
	.st104{fill:#213987;}
	.st105{enable-background:new    ;}
</style>
<g id="Tasting_Food_1_">
	<g id="Tasting_Food">
		<g>
			<path class="st7" d="M171.8338776,116.5084915c0,0-2.8020935,5.7177048-2.6937561,5.8983688
				c0.1135254,0.1858292-7.7871704,12.0495911-7.7871704,12.0495911l-11.6315765,2.1778259l-12.1220398-6.2338715
				l-2.6420898-13.4016953l4.2367249-13.2778549c0,0,1.4759369-0.0878143,3.1375885-0.4902191
				c1.8835297-0.4490204,3.9993591-1.3056107,4.5102386-2.9054031c0.9597778-3.0137558,2.86409-12.5244446,2.86409-12.5244446
				c1.8928223,0.3955154-7.5152435-1.5703506,22.1279907,4.6237488c-0.6587677,2.8880234-1.2159576,5.4625931-1.6874847,8.5664139
				c-0.557251,3.6433182-0.8617554,7.3794861-0.1031799,8.8296051
				C171.710022,113.0045166,171.8338776,116.5084915,171.8338776,116.5084915z"/>
			<path class="st9" d="M171.7255249,92.8838882c-0.2786865,1.202301-1.0475922,4.6082535-1.5791321,8.1070633
				c-4.2522125,2.9414368-9.5880432,4.0561752-14.769165,4.0148544c-4.3967285-0.0361633-8.7417908-0.8360596-13.0456696-1.7751694
				c1.8835297-0.4490204,3.9993591-1.3056107,4.5102386-2.9054031c0.9597778-3.0137558,2.86409-12.5244446,2.86409-12.5244446
				l21.4829254,4.4895706C171.374649,92.4813614,171.5500183,92.6773987,171.7255249,92.8838882z"/>
			<path class="st3" d="M151.0033875,67.9508286c0,0-2.7808533,6.0350723-2.4850159,7.2184219
				c0.2958374,1.183342,11.4784546,11.7742996,12.1884613,12.0109711c0.710022,0.2366714,21.9510956-0.4141693,21.9510956-0.4141693
				s3.4317017-6.2706833,3.6092072-7.9574814s-1.0058441-8.964386-1.0058441-8.964386l-5.2067261-3.8458786l-6.9817505-2.4258575
				c0,0-13.4309845-0.4141731-14.4368286-0.2958374C157.6301422,63.3949432,151.0033875,67.9508286,151.0033875,67.9508286z"/>
			<path class="st4" d="M160.9418793,48.6250954c-2.1486053-1.0214195-4.2411194-2.2422295-5.9006195-3.9468842
				c-8.0985718-8.3188934,1.9142914-19.620039,13.1331787-13.9327049
				c3.4548492-5.2807693,10.4739227-7.8965359,16.4156189-5.7708073s10.0004578,8.6037846,9.3214569,14.8776531
				c8.4785461,3.6346664,11.1289063,10.8141861,9.0017242,16.0176048c-1.54216,3.7723694-5.5647888,6.107357-9.6108398,6.5956573
				c-4.0460663,0.4883003-8.1196899-0.5906563-11.9418793-2.004818
				C174.0309448,57.7489471,168.0000763,51.9804764,160.9418793,48.6250954z"/>
			<path class="st7" d="M150.9442291,70.9091949l-1.5753937,2.1223526
				c-0.5011749-1.8041153-3.5006256-3.0364227-5.3837738-1.3669205c-0.8951569,0.7936096-1.272644,2.0154266-1.4804077,3.1935501
				c-0.3398132,1.9268265-0.3131104,3.9930267,0.5670166,5.7404556s2.7620087,3.0805893,4.7080688,2.8781967
				c-1.9225769,5.3084335,0.1651459,11.9100952,4.4355011,15.6033249s10.8581085,4.4237747,15.8338776,1.7558899
				c3.4854736-1.8688202,6.0054474-5.093399,8.4193115-8.2261658c-0.180191,0.9492569,0.2584991,2.1245651,0.9248199,2.8242645
				s1.6785889,1.0527115,2.6355133,0.9190979c2.670105-0.372818,5.1698761-4.7505035,6.0922852-7.3416977
				c1.7877197-5.0220032-2.5239258-5.7983093-3.7458191-3.8123398c1.61203-1.1933441,3.0818787-10.218132,2.9452362-12.2191467
				c-0.1366577-2.0010147-0.7911682-0.6366425-2.1300354-2.1300278c-1.3388519-1.4933777-2.9299011-2.5008926-4.6742096-3.4908752
				c-3.3334808-1.8918915-6.1417236-2.234375-9.8809509-3.0766983c-3.0314484-0.682888-7.0290375,0.4323349-10.0584564,1.124176
				C155.5473938,66.0984802,152.3949432,68.1612091,150.9442291,70.9091949z"/>
			<path class="st4" d="M141.9777985,91.916687c0,0-0.8414917,4.0590515-10.0969543,2.5678864
				s-10.8455963-7.2990417-11.8877487-10.340126c-1.0421448-3.0410767-6.8301392-15.0026779-10.0988464-17.9353104
				c-3.2687149-2.9326248-6.2742081-5.3211861-6.2742081-5.3211861l3.7569809-3.6068993
				c0,0,10.9148102,11.0188599,15.2473068,20.5369034s7.3379974,9.3412552,8.045166,9.4296494
				C131.3766785,87.3360062,141.9777985,91.916687,141.9777985,91.916687z"/>
			<path class="st4" d="M136.2318726,91.7589417c0,0.0103378-0.0051727,0-0.0051727,0
				c-9.4377365-2.4223862-17.100441-7.8364563-10.6769638-7.2607956c3.7276993,0.3304901,9.7019119,2.4755173,13.3293839,4.5153961
				C144.0251923,91.8860245,142.603653,93.3810883,136.2318726,91.7589417z"/>
			<path class="st11" d="M132.9807434,89.8031082c-0.1548309,0.2837296-0.3353729,0.5470428-0.5365753,0.7947311
				c-0.2046661-0.0796432-0.8566132-0.3162766-1.0527496-0.3923264c-2.1449127-0.8233871-5.9421768-2.4909744-7.5859833-4.0767136
				c0.5290146-2.0302429,2.434639-3.6743011,4.7992554-3.6743011c2.5511169,0,4.5717163,1.9400864,4.8972778,4.1078262
				C133.5536194,86.8461761,133.5294495,88.7871704,132.9807434,89.8031082z"/>
			<path class="st7" d="M140.8607788,92.4090424c-1.021759,0.0826492-2.6627502-0.1495514-4.6289063-0.6501007
				c0,0.0103378-0.0051727,0-0.0051727,0c-1.5681305-0.4024887-3.2679443-0.945755-4.8352814-1.5534286
				c0-2.5822906,2.1605072-4.8921051,4.9694519-4.8921051C140.0489349,85.3134079,142.4092865,89.1855011,140.8607788,92.4090424z"
				/>
			<path class="st26" d="M113.0654907,104.1257172c-4.4352417-1.0390625-26.981926,2.125061-29.8070374,2.5402985
				c-2.8248672,0.4147491-18.3807602-2.6133804-22.3090553-2.9468231
				c-3.9282951-0.3339386-10.1157112,2.1787796-13.658535,9.4212265c-3.54282,7.2419662-5.357666,22.504097,0.2535973,29.3409805
				c5.6115036,6.8373718,23.9327431,7.7781982,38.4532051,9.5978851c5.1861038,0.6494598,8.7523956,1.9842224,11.1946945,3.4312592
				c6.0231171,3.5696869,13.8100128,2.4817505,18.7432556-2.485611
				C131.1798401,137.6747284,130.839859,108.2504959,113.0654907,104.1257172z"/>
			<path class="st26" d="M113.0654068,104.1256485c0,0,10.6553345-0.0279541,15.8992844,0.8944321
				c5.2439423,0.9223785,10.2290192-1.3010788,10.2290192-1.3010788s-3.0788574,20.8298187,11.2971497,27.737114
				c0,0,16.4462128,0.5638885,19.5544586-21.6359863c0,0,5.6513824,2.3240891,7.6742096,2.3809967
				c2.0228424,0.0569153,6.5047913,0.3779984,6.5047913,0.3779984s8.0530853,0.6613693,9.5558777,1.1915588
				c1.5028076,0.5301819,11.9514465,66.2242966,0.7329102,103.156395l-93.1810684-4.1494446
				c0,0,5.7739105-28.8088226,1.0101852-51.69133L113.0654068,104.1256485z"/>
			<path class="st15" d="M128.9646454,105.0200424c-7.6950912,20.0616608-16.5739517,50.7800064-25.702774,83.7490005
				c0,0-4.2839737,28.1580353-5.4206772,31.2064819c-1.1367111,3.0484619,74.8065567,2.7224579,74.8065567,2.7224579
				l11.5765228-110.1187973c0.0352631-0.6082687-6.4694824-0.9863586-6.5047607-0.3780899
				c-2.5258026,23.8322296-5.0489502,47.1176605-7.5157928,58.2485657
				c-0.3598175,2.095047-51.9180603-6.7607574-51.5582352-8.8558197c1.8502579-9.191803,9.1411667-33.7758102,15.7999954-56.5712814
				C134.4456177,104.7167892,128.9647675,104.7142715,128.9646454,105.0200424z"/>
			<path class="st10" d="M278,236.8452148v7.0801392c0,17.5868835-57.3068695,31.8400269-128.000061,31.8400269
				S22,261.5122375,22,243.925354v-7.0801392c0,2.6934967,1.3454666,5.0769501,3.1787987,7.0801392
				c12.9423447,14.1757813,63.91222,24.7598877,124.8211365,24.7598877s111.8787842-10.5841064,124.8212585-24.7598877
				C276.6537476,241.9230194,278,239.5391998,278,236.8452148z"/>
			<path class="st11" d="M278,236.8452148c0,2.6932831-1.3455505,5.0770264-3.1788025,7.0801392
				c-12.9424744,14.1757813-63.9123383,24.7598877-124.8212585,24.7598877S38.1211433,258.1011353,25.1787987,243.925354
				C23.3458576,241.9225922,22,239.539093,22,236.8452148c0-17.5868835,57.3068008-31.8451691,127.999939-31.8451691
				S278,219.2583313,278,236.8452148z"/>
			<path class="st26" d="M193.7801971,113.7706833c0,0,9.5955811,1.7984314,16.4998169,16.2257462
				c0,0,9.1582031,17.1750183,14.4756927,35.6594696c0,0,4.8740845,17.3397217,7.1738129,19.3847809
				c2.2997284,2.0450439,10.7203217,10.5162659,4.6638947,23.5379944
				c-6.0564423,13.0217285-15.4984436,14.964325-26.7906494,11.7455597s-14.2620697-16.3579254-15.0647278-20.0223389
				c-0.8026733-3.6644287-3.3712006-49.7375031-3.3712006-49.7375031L193.7801971,113.7706833z"/>
			<path class="st27" d="M232.0617828,196.1844482c-4.2813721-15.1529083-20.0263214-13.832077-20.1283112-13.8762207
				c-2.6414032-0.1398315-7.079834,1.3196716-10.6720734,4.8937988c2.0726624-2.5151367,4.9677124-4.3935547,8.1814728-5.2268066
				c6.284729-1.2208252,13.932663,0.6644135,18.2256775,5.5310059
				C229.8769226,189.9578857,231.4755554,192.9691162,232.0617828,196.1844482z"/>
			<path class="st7" d="M164.1222534,169.1156616c1.3296356-0.5835114,2.9384308-1.4614868,4.385376-1.1889954
				c1.5236969,0.2869568,3.0075531,1.1760406,4.1222534,2.2289429c8.568161,8.0930481,14.2091522,10.0444641,36.7351685,16.0201416
				c9.4083252,2.4958344,13.7932434,10.6513367,11.3336334,19.0555267
				c-1.5786438,5.3926849-6.4847412,12.1367645-12.9402924,10.6899567c-2.3182831-0.519577-4.3485565-1.8753204-6.3087311-3.2177429
				c-10.8920746-7.4593964-21.9639435-15.1305237-31.7039795-24.0036926
				c-3.8557892,2.6359711-8.3778534,5.0572357-12.9068146,6.2805176c-3.0039673,0.8115692-7.0177155,1.8002625-10.1113892,1.5464783
				c-5.568634-0.456192-12.4084778-4.7417297-17.4377136-7.154953c-1.7515564-0.8403168-3.7005463-1.4954681-5.3623886-2.4914398
				c-0.5911331-0.3542175-0.9557114-0.6842957-1.114418-1.3636017c0.8714447-1.9576874,1.9119568-1.1391602,3.7174072-1.5046692
				c0.3407974-0.6678009,0.6494064-1.2792664,1.3127594-1.6764984c2.3630524-1.4146271,5.6921539,0.1632385,8.1399536,0.6157837
				c3.3927307,0.6272736,6.915863,0.5471191,10.2753448-0.2401733c4.4110107-1.0337219,6.4889832-5.6799164,9.751358-8.4836273
				C158.423233,172.1534729,161.1616058,170.4149628,164.1222534,169.1156616z"/>
			<path class="st19" d="M158.3598633,182.030838c-1.3440552,3.5745544-1.531189,3.1337738-14.3718109,4.0922089
				c-1.6152954,0.1238403-3.2821045,0.232193-4.8044128-0.3096771c-1.8403931-0.6495361-4.6481171-3.3327179-3.3388062-5.0778198
				c0.7768555-1.0284729,1.8644562-1.6086273,2.5543976-2.7402344c0.6760559-1.1042786,1.1714325-2.3067169,1.8371582-3.4109955
				c0.9959259-1.6566162,2.65242-3.2047424,4.5772552-3.0344086c2.1881561,0.1908722,3.7466278,2.5080414,5.9345398,2.6782379
				c1.4084473,0.1134338,2.8389893-0.7172394,4.0923309-0.7172394c2.2757111-0.0619812,4.2263794,2.0435181,4.4947357,4.3037415
				C159.5262451,179.4351044,158.9068909,180.5858765,158.3598633,182.030838z"/>
			<path class="st14" d="M156.5434875,177.6702728c-0.335495,1.1714325-1.5276031,1.8525238-2.6112213,2.4047241
				c-1.8886871,0.9649353-4.0715485,1.9558411-6.0532074,1.1920929c-1.5997925-0.6192322-2.900238-2.3273621-4.5928802-2.0693512
				c-1.4294586,0.2218628-2.2963867,1.7700043-3.6638489,2.2345276c-1.1972656,0.4024048-2.5957336-0.2890167-3.1531067-1.3934326
				c0.660553-0.64505,1.4139709-1.1971283,1.9300079-2.0435181c0.6760559-1.1042786,1.1714325-2.3067169,1.8371582-3.4109955
				c0.9959259-1.6566162,2.65242-3.2047424,4.5772552-3.0344086c2.1881561,0.1908722,3.7466278,2.5080414,5.9345398,2.6782379
				c1.3469238,0.1084747,2.6215515-0.6295471,3.9633179-0.7069092
				C155.7973938,174.6349945,156.9717407,176.1742706,156.5434875,177.6702728z"/>
			<path class="st7" d="M164.8773651,176.56633c-4.7373047,1.2272034-9.6317596,1.8463745-14.5254364,1.8375702
				c-1.3339844-0.0024109-2.724884-0.0660248-3.8949127-0.7067719s-2.0368805-2.0288086-1.6570435-3.3075714
				c0.2897491-0.9754944,1.2149353-1.6435242,2.1798859-1.966629c0.9649658-0.3231049,1.9965515-0.372818,2.9987488-0.5493164
				c4.2886047-0.7552948,7.9112854-3.7975922,12.2015076-4.5436554c4.9593201-0.8623962,10.329361,1.8267517,12.6095123,6.3144531"
				/>
			<path class="st27" d="M192.8158112,128.4735107c-4.4638367,9.277832-5.042038,23.9305267-3.0111542,33.1091309
				c1.8876801,9.2863464,2.6157684,10.3077393,4.0089264,14.828125c-3.3061523-8.2377472-2.1595459-5.8931274-3.1440582-8.7077637
				C185.8787384,152.3477173,188.0654297,136.862793,192.8158112,128.4735107z"/>
			<path class="st7" d="M117.0143204,74.2547073c-0.2218628,0.9134064-0.8102264,1.7854996-1.6926498,2.1105423
				c-0.8824158,0.320015-2.0280228-0.0773544-2.3376999-0.965065c0.3767014,1.3727646-0.0258255,2.9105682-0.9546127,3.9736557
				c-0.789566,0.897789-2.2810059,1.1351547-2.8899078-0.0103302c0.2373657,0.9444046-0.5676956,2.0588913-1.573967,2.2292252
				c-1.1507721,0.1960373-2.2963791-0.5314102-2.9569321-1.4914398c0.4335251,1.3057404-0.2373581,2.8848648-1.4809875,3.4731064
				c-1.2282486,0.5779037-1.8319855-0.1703339-2.936264-0.3148422c-1.8051529-0.2314072-1.0844727,1.4012146-6.3319016,5.1192551
				c-2.3281021,1.6496811-1.7223206,3.1979141-8.5097122,17.8964462c-0.4592285,1.0062637-0.9236221,1.9971542-1.2487946,3.060112
				l-0.2012024,0.3715363c-1.5378036,3.7826614-2.9724274,8.7419205-5.6353073,11.8433609
				c-6.1799698,7.196022-24.0603523,4.911911-24.4708595-8.0555344c-0.1445084-4.4122162,3.1994591-6.7395935,5.9345284-9.6913605
				c1.8319893-1.5171432,5.6248474-6.0995712,7.4053116-8.0142059C80.3891373,81.592308,82.8948288,80.1193542,84.704628,76.5355911
				c2.1605301-4.2654419,0.7229004-8.9926529,4.097496-13.0921478c2.2035294-2.6679192,9.8152084-8.9791527,12.978508-10.4859657
				c1.5584717-0.7433281,3.132431-0.98069,4.7785873-0.3613319c3.3233109,1.2540817,4.7527695,4.9230995,6.4815674,7.6943245
				c2.0693512,3.3283463,3.3491364,7.312336,3.9425354,11.167057
				C117.1278305,72.3865585,117.2310181,73.3412933,117.0143204,74.2547073z"/>
			<path class="st27" d="M46.714241,114.4307938c-3.7186432,13.8949356,6.5267944,26.3917618,20.9098358,25.2253342
				c15.0947266-1.1417847,22.2529144-16.5939636,17.7525787-28.261467
				c5.172287,12.0572357-2.2874298,27.7332077-17.6935883,29.0065842
				C52.7364349,141.558609,42.4414406,128.488205,46.714241,114.4307938z"/>
			<path class="st27" d="M103.2592087,164.9212646c-1.6496964-10.870575-0.5918732-23.7092285,2.5544128-33.8156738
				C103.4273224,143.3722687,102.7330704,152.3323059,103.2592087,164.9212646z"/>
			<path class="st9" d="M100.1912994,83.2595596c-1.7066116-0.2187729-1.1171799,1.2010727-5.6043167,4.5877151
				c-1.935173-0.660553-2.7453995-15.0323563,0.356041-15.2130203
				C98.0496292,72.4588776,100.1912994,83.2595596,100.1912994,83.2595596z"/>
			<g>
				<path class="st21" d="M104.0974426,80.4091187c-0.8774414-4.7875977-3.1992188-9.375-6.5375977-12.9174805
					c-0.3396683-0.3606796,0.2044296-0.8760605,0.5458984-0.5146484c3.4360352,3.6469727,5.8261719,8.3691406,6.7290039,13.2973633
					C104.9247284,80.7616806,104.1857758,80.8982391,104.0974426,80.4091187z"/>
			</g>
			<g>
				<path class="st21" d="M108.8191223,79.5961304c-0.4838867-4.3422852-2.4267578-11.0136719-6.3125-15.5249023
					c-0.3242874-0.3757935,0.2452927-0.8657837,0.5683594-0.4892578c3.9970703,4.6411133,5.9941406,11.4824219,6.4892578,15.9311523
					C109.6192856,80.0073624,108.8729248,80.0878983,108.8191223,79.5961304z"/>
			</g>
			<g>
				<path class="st21" d="M112.622345,76.0805054c-0.4707031-5.3266602-2.5898438-10.5424805-5.9672852-14.6875
					c-0.3140106-0.3854828,0.2687683-0.8569946,0.5810547-0.4736328c3.4716797,4.2597656,5.6499023,9.6206055,6.1333008,15.0947266
					C113.4130173,76.512558,112.6658554,76.5764923,112.622345,76.0805054z"/>
			</g>
			<path class="st1" d="M186.2671356,78.8085709c0,0-1.3636322-6.4582901-14.3132935-10.7742386
				c-13.5110321-4.5030556-20.9504547-0.0835037-20.9504547-0.0835037s5.3084259-18.0787125,13.0163422-27.0367203
				c0.4730225-0.549736,1.0945435-0.9488945,1.7936554-1.1417427c3.4018555-0.938385,14.3055725-2.8818512,23.6903992,7.1868248
				c0.6505127,0.6979065,0.9970245,1.6276779,0.9765167,2.5815163
				C190.3772125,54.3357849,190.1996002,69.8111877,186.2671356,78.8085709z"/>
			<path class="st3" d="M175.7827301,77.414444c0.2263794,0.1741943,0.455658,0.3584824,0.595871,0.6073303
				c0.3783569,0.6714478-0.120224,1.4900818-1.4627533,0.7919922c-1.3227386-0.6878662-2.6379242-1.3902893-3.9451141-2.1072922
				c-0.7253571-0.3978729-2.2839661-0.7719116-1.5608368-1.7071304
				C170.8151855,73.1819153,174.6998444,76.5811386,175.7827301,77.414444z"/>
			<path class="st3" d="M156.549881,70.2239304c-0.2851257-0.0171051-0.579071-0.028511-0.848175,0.0672379
				c-0.72612,0.2583694-0.8871155,1.2032623,0.5839996,1.557518c1.4494934,0.3489838,2.902832,0.6820221,4.3596954,0.9988174
				c0.8084412,0.1757889,2.22995,0.9163589,2.2980194-0.2638626
				C163.0756989,70.2900925,157.9138184,70.3057785,156.549881,70.2239304z"/>
			
				<ellipse transform="matrix(0.2715127 -0.9624349 0.9624349 0.2715127 42.7286453 206.937973)" class="st3" cx="158.0614929" cy="75.2436905" rx="1.6812446" ry="1.2576361"/>
			
				<ellipse transform="matrix(0.2715127 -0.9624349 0.9624349 0.2715127 47.7448578 222.3377991)" class="st3" cx="170.7422791" cy="79.6300354" rx="1.6812446" ry="1.2576361"/>
			<path class="st9" d="M159.9726105,79.8602371c-0.5957031,0.486351-1.2473297,1.0907211-1.2122192,1.8589401
				c0.0257568,0.563797,0.4408875,1.0509415,0.9363403,1.321228c0.4954529,0.2702789,1.0653381,0.3629303,1.6227417,0.4514465
				c1.5047455,0.2389526,1.4619751-0.9731293,0.5435028-1.1423874c-0.3556824-0.0655518-0.7221985,0.0233307-1.0827942-0.0046158
				c-0.3605804-0.0279465-0.7614441-0.2416534-0.7948151-0.6017838c-0.0788879-0.8511124,2.1684723-1.9944611,3.0769958-2.7011032
				c0.7618408-0.5925369,1.6355438-1.6491776,1.3943329-2.6792526
				C163.0248108,76.6683197,161.1385498,78.9083328,159.9726105,79.8602371z"/>
			<path class="st3" d="M165.4349518,90.9899139c-0.4330444,1.6671524-2.3577728,3.3676453-3.6846313,3.9581604
				c-3.1952972,1.6335678-7.0796509,0.216629-8.70047-3.2614441c-1.0944824-2.2985382-0.4243927-4.6660767,0.64505-6.9872818
				C156.0119476,88.7658539,160.7647095,91.3150864,165.4349518,90.9899139z"/>
			<path class="st11" d="M161.7503204,94.9480743c-3.1952972,1.6335678-7.0796509,0.216629-8.70047-3.2614441
				c3.6298828-0.8404083,7.1416931,0.7116547,8.2772675,2.3790283
				C161.5129547,94.3338852,161.6574554,94.6332321,161.7503204,94.9480743z"/>
			<path class="st9" d="M178.5081024,91.6205902c1.326004-1.5688934,2.6520233-3.1377792,3.9780273-4.706665
				c0.7741089,1.1993561,0.7765198,2.8443298-0.0355072,4.0183563S179.9034576,91.9217529,178.5081024,91.6205902z"/>
			<path class="st9" d="M147.0541992,80.9153442c0.2952576-2.0328598,0.5905151-4.0657272,0.8857727-6.0985947
				c-1.4111023,0.2157288-2.6440887,1.3046112-2.9845428,2.6909027
				C144.6149597,78.8939438,145.9035797,80.070488,147.0541992,80.9153442z"/>
			<g>
				<path class="st8" d="M194.2123566,221.9540405v14.7588501c0,5.2017822-27.09758,11.9980621-60.5167236,11.9980621
					c-33.4243088,0-60.5167236-6.7962799-60.5167236-11.9980621v-14.7588501c0,3.4781494,12.1064148,6.7447662,30.1164932,8.5302582
					c18.9317093,1.8701782,41.836235,1.8733673,60.8004532,0
					C182.1059265,228.6988068,194.2123566,225.4321899,194.2123566,221.9540405z"/>
				<path class="st3" d="M194.2123566,221.9540405c0,3.4781494-12.1064301,6.7447662-30.1165009,8.5302582
					c-18.9305115,1.8700409-41.835022,1.8735199-60.8004532,0c-18.0100784-1.7854919-30.1164932-5.0521088-30.1164932-8.5302582
					c0-5.2017822,27.0924149-8.9017944,60.5167236-8.9017944
					C167.1147766,213.0522461,194.2123566,216.7522583,194.2123566,221.9540405z"/>
				<path class="st8" d="M192.6642151,221.9592133c-0.1014099,0.0534515-0.2523956,1.5123291-7.4878387,3.4936371
					c-27.1454468,7.3952789-89.3239288,5.8957214-107.1518555-1.3779297
					c-3.0652771-1.2436218-3.2974777-2.1157074-3.2974777-2.1260376c0.0051651-0.0155029,0.9392395-2.7040863,16.9778671-4.9489288
					c22.9035797-3.2017822,61.0504456-3.2041321,83.981308,0
					C191.7249756,219.2447968,192.6590424,221.9333801,192.6642151,221.9592133z"/>
				<path class="st3" d="M189.3666077,224.0749207c-0.8307648,0.3406677-1.8680267,0.7018738-3.1632996,1.088913h-0.0051727
					c-27.1940613,7.7667236-90.0807037,6.2044067-108.1736145-1.088913
					c3.7936554-1.4261017,9.4147873-2.3822327,13.4430237-2.951767
					C113.4207306,218.1960602,170.8391266,217.0995483,189.3666077,224.0749207z"/>
				<path class="st7" d="M93.5110703,227.7182312c-3.9817963-0.59729-9.2202911-1.5652771-13.0713577-2.7865906
					c-0.1156387-2.4261017,1.0869904-5.3369598,2.5543976-7.069809c2.2705536-2.6783752,6.228714-3.9374847,9.5106964-2.6887054
					C97.4345016,217.0403442,99.3986588,224.2242279,93.5110703,227.7182312z"/>
				<path class="st25" d="M106.2832031,229.2045135c-4.3983536-0.3622742-10.5954742-1.0878601-15.1871948-1.8733063
					c-1.2308807-3.3681488,0.8205643-8.6024628,3.2872772-11.0691681c2.8382492-2.9053955,7.3690262-4.1955109,11.1620102-2.7505646
					C111.6024323,215.8238525,114.2403412,224.9796448,106.2832031,229.2045135z"/>
				<path class="st13" d="M125.2066956,230.2313232c-7.2454605-0.1625366-14.9219131-0.6231995-21.3385468-1.2487946
					c0.2735138-2.9620972,1.7854996-6.1357269,3.3749619-8.0142059c2.9906464-3.5430756,8.2997208-5.287735,12.725647-3.6019897
					C124.736969,219.1716766,127.8880615,225.2980194,125.2066956,230.2313232z"/>
				<path class="st7" d="M109.7847977,210.7537079c2.2709351-2.6785583,6.2261734-3.9394531,9.5082855-2.6906281
					s5.4324951,5.1437378,4.3882751,8.4965668c-0.9865112,3.1675262-4.3518829,5.1119843-7.6525574,5.4467621
					c-2.4424286,0.2477264-7.2357178,0.2831116-8.4170151-2.4659576
					C106.4626083,216.8661346,108.0552444,212.7937164,109.7847977,210.7537079z"/>
				<path class="st25" d="M136.993103,230.324295c-5.5833893,0.0393677-9.2642288-0.0018616-15.2026901-0.1909943
					c-0.4695587-2.6112213,0.9495697-5.9860535,2.4718781-7.7818909c2.2560501-2.6612244,6.2133255-3.9450836,9.5106888-2.6887054
					C137.6237793,221.1244049,140.1430359,226.3789215,136.993103,230.324295z"/>
				<path class="st42" d="M120.3980026,209.7549286c2.2709351-2.6785736,6.2261734-3.9394684,9.5082932-2.6906433
					c3.2821045,1.2488251,5.4324951,5.1437378,4.3882751,8.4965668c-0.9865112,3.1675262-4.3518829,5.1119843-7.6525574,5.4467621
					c-2.4424286,0.2477264-7.2357254,0.2831116-8.4170227-2.4659576
					C117.0758209,215.8673553,118.668457,211.7949219,120.3980026,209.7549286z"/>
				<path class="st13" d="M133.0209045,211.9379272c2.2709351-2.6785583,6.2261658-3.9394684,9.5082855-2.6906281
					c3.2821045,1.2488251,5.4324951,5.1437378,4.3882751,8.4965668c-0.9865112,3.1675262-4.3518829,5.111969-7.6525574,5.4467621
					c-2.4424286,0.2477264-7.2357178,0.2830963-8.4170227-2.4659729
					C129.6987152,218.050354,131.2913513,213.9779358,133.0209045,211.9379272z"/>
				<path class="st7" d="M155.5037384,229.6327515c-6.4583893,0.4536743-14.5762024,0.7018738-20.7089844,0.7018738
					c0.0875397-2.7662048,1.4559326-6.0407104,3.220108-8.1483917c3.2272034-3.8070221,8.7613068-4.9905548,12.5192871-3.1685791
					C154.6244507,220.9016571,156.8819427,225.9687653,155.5037384,229.6327515z"/>
				<path class="st25" d="M148.4051971,213.9623718c2.191391-2.5847321,6.0080872-3.8014679,9.1752167-2.5963898
					c3.1671448,1.2050934,5.242218,4.963562,4.2345734,8.1989441c-0.9519653,3.0565796-4.1994476,4.9329224-7.3845062,5.2559662
					c-2.3568726,0.2390594-6.982254,0.2731934-8.1221771-2.3795776
					C145.1993866,219.8606873,146.7362366,215.9309235,148.4051971,213.9623718z"/>
				<path class="st13" d="M168.2552185,228.4768066c-6.8795013,0.77565-9.4776917,0.9355621-15.4143524,1.3262787
					c-0.5829163-2.463089,0.7306976-5.86026,2.3376923-7.7716827c2.4630585-2.9246674,7.0021057-4.0410156,10.2125702-2.0848541
					c0.0051727,0,0.0051727,0,0.0051727,0C168.1430664,221.6112823,169.7657776,225.274231,168.2552185,228.4768066z"/>
				<path class="st42" d="M164.5444489,215.3433838c2.1913757-2.5847321,6.0080719-3.8014679,9.1752167-2.5963898
					s5.2422028,4.963562,4.2345581,8.1989441c-0.9519501,3.0565796-4.1994476,4.9329071-7.384491,5.2559662
					c-2.3568726,0.2390442-6.9822693,0.2731934-8.1221771-2.3795776
					C161.338623,221.2416992,162.875473,217.3119202,164.5444489,215.3433838z"/>
				<path class="st25" d="M186.2033081,225.1638336h-0.0051727c-6.1614227,1.7597351-11.5811157,2.4150238-15.8839111,3.0549469
					c-0.665741-2.4818573,0.684433-6.0187225,2.3015442-7.9057312c2.1880341-2.5855103,6.0068512-3.8033142,9.1753235-2.5958405
					C184.7336426,218.8350372,186.6950684,222.1455688,186.2033081,225.1638336z"/>
				<path class="st19" d="M95.846405,217.8736725c0.6405563-0.6653137,1.7505722-0.9769897,2.5024719-0.4406891
					c0.5082474,0.3625031,0.7874451,1.0475464,1.3849564,1.2283936c0.5404739,0.1635895,1.1418762-0.1598511,1.6793213,0.0134125
					c0.4981079,0.1605682,0.7828445,0.7245789,0.7606888,1.247467c-0.0405579,0.9572906-1.150032,2.4191742-2.2886429,2.7242432
					c-0.6992569,0.1873474-1.5494843-0.0596008-1.8815384-0.7028656c-0.2147064-0.4159546-0.2504883-1.000885-0.682869-1.1802063
					c-0.3581619-0.1485291-0.7568207,0.1010895-1.0200348,0.3858032s-0.4956512,0.6327209-0.8616867,0.7606354
					c-0.3688583,0.1289215-0.817009-0.0294647-1.0229797-0.361496
					C93.929184,220.7634735,95.304184,218.4368744,95.846405,217.8736725z"/>
				<path class="st19" d="M134.846344,211.5336761c0.640564-0.665329,1.7505798-0.977005,2.5024719-0.4406891
					c0.5082397,0.3625031,0.7874451,1.0475464,1.384964,1.2283936c0.5404663,0.1635895,1.141861-0.1598511,1.6793213,0.0133972
					c0.4981079,0.1605835,0.7828369,0.7245941,0.7606812,1.2474823c-0.0405579,0.9572906-1.1500397,2.4191742-2.2886505,2.7242432
					c-0.6992493,0.1873474-1.549469-0.0596008-1.8815308-0.7028809c-0.2147064-0.4159393-0.2504883-1.0008698-0.6828766-1.180191
					c-0.3581543-0.1485443-0.7568054,0.1010895-1.0200195,0.3858032s-0.4956665,0.6327057-0.8616943,0.7606354
					c-0.3688507,0.1289215-0.8170013-0.0294647-1.0229797-0.361496
					C132.9291229,214.4234772,134.3041229,212.0968781,134.846344,211.5336761z"/>
				<path class="st19" d="M113.1867371,222.9569702c0.6405563-0.665329,1.7505722-0.977005,2.5024719-0.4407043
					c0.5082397,0.3625183,0.7874451,1.0475616,1.3849564,1.2284088c0.5404739,0.1635895,1.1418686-0.1598663,1.6793213,0.0133972
					c0.4981003,0.1605835,0.7828445,0.7245941,0.7606888,1.247467c-0.0405655,0.9573059-1.1500397,2.4191895-2.2886505,2.7242584
					c-0.6992569,0.1873474-1.5494766-0.0596008-1.8815308-0.7028809c-0.2147064-0.4159393-0.2504883-1.000885-0.6828766-1.180191
					c-0.3581619-0.1485443-0.756813,0.1010742-1.0200272,0.385788s-0.4956589,0.6327209-0.8616867,0.7606506
					c-0.3688583,0.1289215-0.817009-0.0294647-1.0229874-0.361496
					C111.269516,225.846756,112.6445084,223.5201721,113.1867371,222.9569702z"/>
				<path class="st19" d="M88.5831833,216.1801605c0.6042404,0.3249359,0.8642426,1.0397491,1.0746384,1.6927643
					c0.1730042,0.5369263,0.3478317,1.0853424,0.342308,1.6494141c-0.0055313,0.5640869-0.2228012,1.1568146-0.6894836,1.4737091
					c-1.2908783,0.8765717-3.2635956-0.8698425-3.5936813-2.113205
					C85.3397903,217.4621277,87.0894547,215.3769226,88.5831833,216.1801605z"/>
				<path class="st19" d="M115.7828217,209.4944305c0.6042404,0.3249207,0.8642426,1.0397491,1.074646,1.692749
					c0.1729965,0.5369263,0.3478317,1.0853424,0.3423004,1.6494293c-0.0055237,0.5640717-0.2228012,1.1568146-0.6894836,1.4737091
					c-1.2908783,0.8765717-3.2635956-0.8698578-3.5936813-2.113205
					C112.5394287,210.7763824,114.289093,208.6911774,115.7828217,209.4944305z"/>
				<path class="st19" d="M140.6669617,223.5896149c0.6042328,0.3249359,0.8642426,1.0397491,1.0746307,1.6927643
					c0.1730042,0.5369263,0.3478394,1.0853271,0.3423157,1.6494141c-0.0055389,0.5640717-0.2228088,1.1568146-0.6894836,1.4737091
					c-1.2908783,0.8765717-3.2635956-0.8698578-3.593689-2.113205
					C137.4235687,224.8715668,139.1732178,222.7863617,140.6669617,223.5896149z"/>
				<path class="st19" d="M156.5141144,213.2083588c0.6066284-0.4830933,1.6113586-0.2301483,2.006134,0.4373322
					c0.3947906,0.6674957,0.2003632,1.5885468-0.3580627,2.1266632c-0.5584106,0.5381012-1.4060059,0.7118073-2.1660919,0.5577698
					c-1.2086029-0.2449493-1.358429-0.2196808-2.2787476,0.4960938c-0.2710876,0.2108307-0.4731445,0.5483246-0.8674927,0.4373779
					c-0.9041901-0.2544098-0.8798828-3.4758759,0.4420624-4.213913c0.7564697-0.4223328,1.0536652,0.0571899,1.6562958,0.3985748
					C155.7485046,213.9015961,155.789856,213.7851105,156.5141144,213.2083588z"/>
				<path class="st19" d="M172.5249786,214.1002808c0.6066284-0.483078,1.6113586-0.2301331,2.006134,0.4373474
					c0.3947906,0.6674805,0.2003632,1.5885468-0.3580627,2.1266479c-0.5584106,0.5381165-1.4060059,0.7118225-2.1660919,0.5577698
					c-1.2085876-0.2449493-1.3584137-0.2196655-2.2787323,0.4960938c-0.2711029,0.2108459-0.4731445,0.5483398-0.8675079,0.4373779
					c-0.9041748-0.2543945-0.8798828-3.4758759,0.4420624-4.2138977c0.7564697-0.4223328,1.0536652,0.0571899,1.6562958,0.3985596
					C171.7593689,214.7935333,171.8007355,214.6770325,172.5249786,214.1002808z"/>
				<path class="st19" d="M179.244751,220.5936279c0.6066284-0.483078,1.6113586-0.2301331,2.006134,0.4373474
					c0.3947906,0.6674805,0.2003632,1.5885315-0.3580627,2.1266479c-0.5584106,0.5381012-1.4060059,0.7118073-2.1660919,0.5577698
					c-1.2086029-0.2449493-1.3584137-0.2196655-2.2787476,0.4960938c-0.2710876,0.2108459-0.4731445,0.5483398-0.8674927,0.4373779
					c-0.9041901-0.2543945-0.8798828-3.4758759,0.4420624-4.213913c0.7564697-0.4223328,1.0536652,0.0572052,1.6562958,0.3985748
					C178.4791412,221.2868652,178.5204926,221.1703796,179.244751,220.5936279z"/>
				<path class="st19" d="M159.8366547,222.8822174c0.6066284-0.4830933,1.6113586-0.2301483,2.006134,0.4373474
					c0.3947906,0.6674805,0.2003632,1.5885315-0.3580475,2.1266479c-0.5584259,0.5381012-1.4060211,0.7118073-2.1661072,0.5577698
					c-1.2085876-0.2449493-1.3584137-0.2196808-2.2787323,0.4960938c-0.2711029,0.2108459-0.4731445,0.5483398-0.8675079,0.4373779
					c-0.9041748-0.2544098-0.8798828-3.4758759,0.4420624-4.213913c0.7564697-0.4223328,1.0536652,0.0571899,1.6562958,0.3985748
					C159.0710449,223.5754547,159.1124115,223.4589691,159.8366547,222.8822174z"/>
			</g>
		</g>
	</g>
</g>
</svg>
