<?xml version="1.0" encoding="utf-8"?>
<!-- Generator: Adobe Illustrator 22.0.1, SVG Export Plug-In . SVG Version: 6.00 Build 0)  -->
<svg version="1.1" id="Layer_1" xmlns="http://www.w3.org/2000/svg" xmlns:xlink="http://www.w3.org/1999/xlink" x="0px" y="0px"
	 viewBox="0 0 156 156" style="enable-background:new 0 0 156 156;" xml:space="preserve">
<g id="Dropping_Food">
	<path d="M110.3145447,14.5181561c-1.298027-1.0307741-3.287735-0.8613157-4.3203125,0.6591797
		c-6.801918-3.405036-15.0393753-1.0169792-18.3535156,5.5493164c-3.5999298,3.2963257,3.1848602,10.5592098,7.3276367,13.6962872
		c1.9799805,1.4956055,3.9494629,2.6674805,5.7963867,3.5200195c3.1239624,1.4448586,8.0996017,2.8226509,9.4433594-0.3535156
		c4.9438095-4.6590843,5.4592056-12.9456635,0.4521484-18.756834
		C111.8480835,17.4983273,111.5931931,15.5570545,110.3145447,14.5181561z M108.8958435,35.663662
		c-5.941864,0.5725288-17.9965744-8.6703968-18.9230957-14.3188457C95.631958,20.754591,107.816246,29.726202,108.8958435,35.663662
		z M110.3311462,35.2115135c-1.4213486-6.5689297-13.7651138-15.8895836-20.4038086-15.3608379
		c4.1617966-5.626915,12.6438828-6.4260674,18.3459473-1.3266602
		C113.3298569,23.0485516,114.0641327,30.2831326,110.3311462,35.2115135z"/>
	<path d="M29.8340778,45.7525291c-0.6943512,6.1679115,7.1938419,9.954052,11.5107403,4.7392578
		c1.0140114,3.9425087,1.9429207,8.3645935,2.9873047,12.1757813c0.1251106,0.456646,0.6520424,0.7115288,1.1062012,0.4375
		c0.0415039,0.1918945,0.0854492,0.3837891,0.1335449,0.5751953c-2.8629723,2.0084496-1.3629951,6.9183769,3.6308594,6.2255898
		c2.5005074,2.4359055,5.9693108,3.8341293,9.6782227,3.722168c-4.685791,4.3505859-7.4868164,7.9936523-10.7368164,12.8530273
		c-0.8461914,1.2651367-1.3901367,2.7324219-1.5732422,4.2431641c-2.1688004,18.6099243-2.3807373,17.9199524-1.9990234,18.3959961
		c-0.5029678,0.6379089-0.8743286,1.2753601-1.2470703,1.8344727c-2.1784286,3.2723083-2.5738716,3.7493439-2.7919922,4.6010742
		c-0.413208,1.6162033,0.650425,2.8938599,1.9101563,2.8022461c0.4419746,1.0103607,1.5278816,1.543335,2.6293945,1.1723633
		c0.6543846,1.1745377,2.0654221,1.5571442,3.2265625,0.8432617c1.009613,1.5311432,2.7383881,1.58918,3.6298828,0.7539063
		c0.5986328-0.5605469,0.7246094-1.3632813,0.7685547-2.0751953c0.1434975-2.3117981-0.0969543-3.1572571-0.1147461-4.6337891
		c0.8797073,0.8438568,1.9073181,1.4987869,3.0351563,1.9404297c0.4667969,0.1826172,1.1645508,0.3876953,1.8217773,0.0634766
		c0.671875-0.3300781,1.0478516-1.121582,0.9145508-1.9243164c-0.2198257-1.3284302-1.5342484-1.9796524-2.1020508-2.6206055
		c-0.53125-0.5981445-0.9562988-1.293457-1.2585449-2.0253906c0.2995605-0.0727539,0.5371094-0.3149414,0.5720215-0.6362305
		l1.4360352-13.1606445c0.5651855-1.1445313,1.2006836-2.1904297,1.8735352-3.1787109
		c6.933403,15.7808075,6.5058899,15.1774826,6.8510742,15.4614258c0.0058594,0.0063477,0.0712891,0.0737305,0.0771484,0.0795898
		c0.2575455,0.2549362,0.6537247,0.286705,0.9438477,0.0917969l3.5405273-2.3579102
		c3.7463531,5.1007538,5.0024643,8.7043839,2.7026367,18.0244141c-0.8840332-0.3188477-1.7150879-0.6826172-2.34375-1.1782227
		c-1.3422852-1.0839844-2.7443848-2.0283203-5.170166-1.7304688c-2.1474609,0.2685547-3.9768066,1.6308594-4.4440918,3.2910156
		c-0.2663841,0.9016113-0.1348801,1.6972427-0.7058105,2.078125c-0.637455,0.4285736-2.0297966,0.2347946-3.0622559,0.1191406
		c-1.5877991-0.13591-3.6987762,0.4194641-3.6289063,1.9980469c0.1089439,1.6912689,2.7237053,2.0081482,2.8237305,2.0488281
		c0.5439453,0.1052704,1.9412956,0.3442993,1.7993164,0.9145508c-0.109375,0.4375-0.8352051,1.0932617-1.7397461,1.3520508
		c-2.8762093,0.8145447-6.2200165-0.0828552-9.0871582,1.2822266c-1.6022797,0.7698975-2.7699585,2.4039307-1.998291,3.9472656
		c1.6599693,3.3425903,9.7392578,2.167923,13.4316406,1.6401367c2.1474609-0.3178711,4.3745117-0.6362305,6.5517578-0.6459961
		c7.7150803-0.0436401,15.108429,3.7376709,23.0063477,2.9726563c5.2320251-0.5081482,9.5593643-2.8883972,14.5849609-3.9765625
		c8.2548752-1.767807,12.4798813,0.7236481,16.732666,0.8647461c1.9287109,0.0498047,4.5734863-0.5268555,5.6271973-2.2963867
		c0.0097656,0,0.0097656,0,0.0097656,0c1.3858948-2.3605042-1.0725937-4.9898071-4.0065918-5.6772461
		c-1.779541-0.4174805-3.6386719-0.3183594-5.3786621-0.0698242c3.0287476-3.4056473-0.6450195-6.2873535-5.0505371-5.5478516
		c-2.0678558,0.34095-3.9293823,1.326622-5.5874023,1.8896484c-2.0581055,0.7055664-3.9470215,0.765625-5.1896973,0.1689453
		c-0.8766327-0.4383163-1.4657669-1.1927643-2.2668457-1.8994141c-0.5568848-0.4770508-2.0283203-1.5507813-3.7580566-1.2124023
		c-2.6328583,0.5181046-2.4499893,3.0592117-4.4841309,3.3701172c-1.1651306,0.1661987-2.5233154-0.1305466-3.6618652-0.3291016
		c2.1086044-9.9997787,3.056221-10.7259293-1.9926758-25.2358398l12.5092773-0.4575195
		c6.8363876,6.9873657,0.8271942,0.755249,11.980957,13.1572266c0.1542969,0.175293,0.378418,0.2670898,0.6166992,0.2509766
		c0.1108398-0.0083008,0.2158203-0.0444336,0.3103027-0.097168l5.1501465,5.0405273
		c0.3075867,0.3022232,0.8120804,0.2832336,1.0961914-0.050293l5.4755859-6.4492188
		c0.2026367-0.2387695,0.2358398-0.578125,0.0825195-0.8515625l-0.515625-0.9208984
		c1.0449219-0.7626953,2.3579102-2.0976563,2.375-2.1162109c2.2142944-2.4854813,3.9018707-6.7845993,2.7587891-9.5332031
		c-1.141571-2.7442932-4.8608856-3.2663116-7.1948242-1.2177734c-1.2353516,1.0830078-1.9628906,2.7353516-1.996582,4.5327148
		c-0.0138702,0.7768555,0.1787262,2.1831436-0.4511719,2.5830078c-0.1459961,0.0375977-0.4663086-0.0561523-0.7143555-0.1733398
		l0.6494141-0.9975586c0.2011719-0.309082,0.1479492-0.7182617-0.1254883-0.965332
		c-9.6435165-8.7331238-8.2775803-7.4511719-9.6337891-8.7509766c-1.376442-1.3196182-4.6055527-4.500145-6.5263672-4.5566406
		l-6.2832031-0.0932617l0.8413086-0.5605469c0.3545456-0.2353516,0.4420166-0.7206116,0.1914063-1.0649414
		c-4.104248-5.6518555-9.017334-10.5708008-14.6206055-14.6899414c1.2563477-0.5390625,2.5219727-1.2060547,3.7197266-1.9643555
		c2.5327148-1.6044922,4.222168-4.2597656,4.6357422-7.2861328l2.2553711-16.5039101
		c0.0541992-0.3959961-0.2124023-0.7651367-0.6054688-0.8388672c-0.1950684-0.0361328-0.3566895-0.0629883-0.5366211-0.0952148
		c0.5871582-1.1248131,1.5615997-2.1331024,2.9521484-2.4824219c0.8942261-0.2252197,1.6997604-0.5353966,2.0097656-1.4897461
		l8.0957031,2.9287109c0.9390945,0.3392258,1.8957062-0.0042648,2.1757813-0.7792969l0.7587891-2.0976563
		c0.2898865-0.8014526-0.2653503-1.6622581-1.1733398-1.9902344C74.4509506,31.0800991,75.5013275,31.0150566,74.4200134,31.3033123
		c-0.4697266,0.125-0.824707,0.4335938-0.9736328,0.8466778l-0.7592773,2.0976563
		c-0.2802734,0.7763672,0.2348633,1.6508789,1.1733398,1.9907227l4.8151855,1.7416992
		c-0.2105789,0.8911438,0.1938934,1.5384827,0.4416504,2.0810547c0.9042969,1.8867188,1.2504883,4.4077148,0.9550781,6.7207031
		c-0.1965332-0.0351563-0.3774414-0.0654297-0.5942383-0.1064453c-0.3945313-0.0722656-0.7744141,0.175293-0.8671875,0.5639648
		c-3.3877029,14.2368317-3.3156281,14.478199-4.1831055,15.7338867c-1.0075073,1.4584923-3.1750641,2.5735817-5.411377,3.6831093
		c0.9187012-2.8681679,0.4802246-5.9882851-0.4775391-8.4853554c0.1186523-0.0585938,0.2248535-0.1435547,0.3010254-0.2631836
		c3.2127686-5.0374413-1.8079376-8.9350891-4.4423828-6.1875c-0.2444305-0.2791481-0.4717712-0.5793228-1.0378418-1.2788086
		c0.3339729-0.0749702,0.5992889-0.1992416,0.701416-0.5654297c0.074707-0.2666016-0.0039063-0.5522461-0.2036133-0.7436523
		l-5.5830078-5.3408203c0.7016602-0.2666016,1.3608398-0.7148438,1.9511719-1.3325195
		c4.2809753-4.4791107,1.4412804-11.333601-3.9477539-12.0507793c-2.3310547-0.3051758-4.8330078,0.625-6.6796875,2.4487286
		c-7.9854927-5.5665226-16.4688988,0.7918243-14.3227539,6.9873047
		C32.5538025,40.4517479,30.1368122,42.9800682,29.8340778,45.7525291z M50.9009705,69.4073181
		c0.2416992-0.1088867,0.4838867-0.2163086,0.7080078-0.3574219c0.3505859-0.2207031,0.4560547-0.684082,0.2353516-1.034668
		s-0.684082-0.4550781-1.0341797-0.2348633c-1.5478973,0.9747849-3.6583061,0.8194962-4.53125,0.0541992
		c-1.0882111-0.9677658-0.7501984-2.8179321,0.7988281-3.2285156c0.7850037-0.2086945,0.719101-1.3487091-0.0849609-1.4663124
		c-0.0990295-0.4169731-0.2364616-0.9478455-0.2822266-1.7470703c3.7526817-5.1422997,9.288723-8.8602715,15.0546875-10.5273438
		c0.5198784,0.6110268,1.1769981,1.4723892,1.5161133,1.8579102c1.5419922,1.7636719,2.6699219,3.40625,3.4467773,5.0185547
		c2.9484863,6.1755257,0.9358826,12.66959-5.8342285,14.151371c-0.0009766,0.0004883-0.0019531,0.0004883-0.0026855,0.0009766
		C57.5847473,72.6157074,53.8083878,71.8279419,50.9009705,69.4073181z M56.8746033,114.7437439
		c0.0253906,0.1523438-0.0400391,0.3046875-0.0966797,0.3325195c-0.3135948,0.1515121-2.241787-0.6878357-3.5668945-2.1665039
		c-0.129734-0.1436386-0.5061493-0.4996185-0.6318359-0.6831055c-0.2002831-0.8812485-1.4783325-0.7139969-1.4814453,0.1635742l0,0
		c-0.0488129,3.7273788,0.4393082,7.0491638-0.1943359,7.6425781c-0.1899414,0.1787109-0.6010742,0.1708984-0.8974609-0.0185547
		c-0.3913574-0.25-0.6274414-0.7280273-0.7646484-1.1113281c-0.0449219-0.6962891-0.0041504-1.3925781,0.1674805-2.0717773
		c0.1015625-0.4018555-0.1420898-0.809082-0.543457-0.9106445c-0.4033203-0.1005859-0.8095703,0.1420898-0.9106445,0.543457
		c-0.2019043,0.7993164-0.2749023,1.6166992-0.2319336,2.4355469c-0.1945801,0.2441406-0.5444336,0.3886719-0.8398438,0.3129883
		c-0.3212891-0.0825195-0.5751953-0.4228516-0.5949707-0.7568359c0.0534668-0.6845703,0.2412109-1.3671875,0.5563965-1.9770508
		c0.1899414-0.3676758,0.0454102-0.8203125-0.3222656-1.0102539c-0.3676758-0.1884766-0.8203125-0.0458984-1.0107422,0.3222656
		c-0.3479004,0.6733398-0.5734863,1.4155273-0.6767578,2.1689453c-0.1740723,0.1645508-0.454834,0.2373047-0.6743164,0.1503906
		c-0.2434082-0.0961914-0.4150391-0.3876953-0.3930664-0.6494141c0.0874023-0.8383789,0.4475098-1.6650391,1.0161133-2.2832031
		c0.2802734-0.3051758,0.2602539-0.7797852-0.0449219-1.0600586c-0.3041992-0.2792969-0.7783203-0.2602539-1.0595703,0.0444336
		c-0.6928711,0.7539063-1.1430664,1.6967773-1.3310547,2.6982422c-0.3910522-0.0085297-0.4586182-0.5527039-0.3618164-0.9321289
		c0.1864433-0.729454,1.2583618-2.0575562,2.953125-4.7060547c0.4213867-0.6601563,0.8259277-1.2797852,1.3530273-1.7626953
		l7.111084,0.3554688c0.0670929,0.5019531,0.7279625,1.934021,1.7272949,3.059082
		C55.7613983,113.5845718,56.7677956,114.1013489,56.8746033,114.7437439z M66.5870056,106.8140564L59.9024353,91.480072
		c0.736084-0.9243164,1.510498-1.7861328,2.3486328-2.5356445c0.3085938-0.2763672,0.3349609-0.7504883,0.059082-1.059082
		c-0.2768555-0.3085938-0.7504883-0.3359375-1.059082-0.059082c-0.973877,0.8710938-1.8708496,1.8725586-2.7128906,2.9580078
		c-0.4920311,0.4320221-2.9472961,4.3622055-3.0136719,4.9770508l-1.3735352,12.5888672l-8.15625-0.4077148l2.0654297-17.0375977
		c0.1547852-1.2783203,0.6147461-2.5195313,1.3310547-3.5898438c2.230957-3.3359375,4.2426758-6.0859375,6.8220215-8.8959961
		c1.4484863,0.6425781,3.1135254,0.7060547,4.6037598,0.1586914c1.8125-0.6660156,2.7641602-2.0009766,3.6225586-3.3505859
		c1.324707,1.4072266,2.9155273,2.5786133,4.6508789,3.4179688c1.2508163,0.6055756,2.1221313,0.2399445,2.482666-0.4921875
		c4.8527832,5.1240234,9.0795898,10.7983398,12.614502,16.9365234
		C82.3803329,96.2933502,90.7069321,90.7465973,66.5870056,106.8140564z M93.3042908,133.5953064
		c-0.2763748,4.0827484-6.4815292,4.1242523-10.2302246,2.4858398c-0.2883301-0.1293945-3.1318359-1.7695313-3.1318359-1.9287109
		l-1.1831055,1.2729492l-7.8244629-3.2314453l3.5693359-7.1582031c0.1006622,0.0274277,9.7102432,2.6459732,9.1010742,2.4799805
		c-0.4018555,0.4301758-0.4516602,1.7436523-0.0241699,2.1132813c0.9877243,0.8556976,2.5337143,0.0656891,3.3405762-0.1791992
		C90.4125137,128.3829651,93.4973679,130.7246704,93.3042908,133.5953064z M116.9356384,107.4859314
		c1.5251541-0.9266205,1.1972961-3.0294418,1.2138672-3.855957c0.0253906-1.355957,0.5805664-2.6396484,1.4858398-3.434082
		c1.6082001-1.4103622,4.0935287-1.0840149,4.8203125,0.6665039c0.9068375,2.1795807-0.6704865,5.9121475-2.4902344,7.9560547
		c-0.2250977,0.2407227-2.0234375,1.8461914-2.4863281,2.1723633c-0.379425,0.1266785-0.660675,0.5551224-0.4057617,1.0708008
		l-0.0112305,0.0063477c0.7055893,1.2626343,0.5831299,1.04142,0.5976563,1.0673828l-4.6176758,5.4375l-4.7050781-4.6049805
		l4.3305664-6.6899414C115.328537,107.6469879,116.2946014,107.8757629,116.9356384,107.4859314z M89.3648376,41.8472557
		c-0.9787827,0.3976326-1.9435349,0.940731-2.9125977,1.1435547c-0.7392578,0.1542969-1.7260742,0.1025391-2.2753906-0.5087891
		c-0.4905167-0.5449409-0.5474243-1.4907265-1.1887207-2.9414063L89.3648376,41.8472557z M80.1172791,38.5020409
		l0.7363281,0.2661133c1.4602051,2.0465508,1.1024628,3.4879913,2.2080078,4.7167969
		c0.8149414,0.9067383,2.2294922,1.2802734,3.6977539,0.9736328c1.8691864-0.3906898,3.5402069-1.7495956,5.204834-1.6708984
		l1.0180664,0.3681641c0.0056152,0.0107422,0.0163574,0.0234375,0.0168457,0.03125
		c0.0039063,0.046875-0.0849609,0.1904297-0.262207,0.2861328c-0.2688065,0.1464996-0.6496506,0.2101364-1.0532227,0.324707
		c-1.7924805,0.512207-3.1315918,2.0869141-3.7851563,3.5913086c-0.1073532-0.0154533-0.332634-0.1131516-6.3154297-0.5366211
		c0.3007813-2.5566406-0.1069336-5.3393555-1.1132813-7.4404297C80.1413422,38.7351112,80.1328506,38.6445465,80.1172791,38.5020409
		z M75.6622009,63.8257713c1.0583191-1.5314484,1.0431976-2.0969887,4.2431641-15.5478516
		c4.5610428,0.8021164,5.3252411,0.1430473,9.0986328,0.8081055l-2.1582031,15.7924843
		c-0.3535156,2.5869141-1.7939453,4.8549805-3.9521484,6.2216797c-1.4055176,0.890625-2.9055176,1.6381836-4.3632813,2.1923828
		c-0.6794434-0.4726563-1.361084-0.9428711-2.0600586-1.3925781c-0.3481445-0.2241211-0.8125-0.1230469-1.0366211,0.2255859
		s-0.1230469,0.8125,0.2250977,1.0361328c6.6123047,4.2509766,12.5664063,9.8105469,17.2617188,16.1123047
		c-0.8199234,0.5460052-7.9313507,5.2817001-7.4833984,4.9833984c-3.8417969-6.6552734-8.4924316-12.7651367-13.8535156-18.2382813
		c-0.2128906-1.0336914-0.5800781-2.0292969-1.0981445-2.9467773c2.3666992-0.4047852,4.581543-1.7573242,5.9819336-3.7084961
		c0.2686996-0.3743362,0.139183-0.9018707-0.2749023-1.1083984c-1.4238281-0.7094727-2.9831543-1.1347656-4.5664063-1.2714844
		C73.1326218,66.1496506,74.6406937,65.3039627,75.6622009,63.8257713z M67.8399353,56.6416893
		c-0.6337891-1.2255859-1.4458008-2.4638672-2.4699707-3.7485352
		C66.4687958,51.2813835,69.6440735,53.2226677,67.8399353,56.6416893z M36.4048767,41.2076073
		c0.5737381-0.0146828,0.9207954-0.6439323,0.6225586-1.1381836c-2.8325272-4.6747398,4.4199982-11.0265408,11.7021484-5.972168
		c0.0161133,0.1376953,0.0568848,0.2734375,0.1513672,0.3886719c1.4770508,1.8032227,2.0078125,4.3183594,1.3842773,6.5644531
		c-0.1329842,0.4792213,0.2285385,0.9511719,0.7231445,0.9511719c0.3286133,0,0.6298828-0.2177734,0.722168-0.5498047
		c0.6865234-2.4726563,0.2016602-5.2089844-1.2421875-7.3227539c1.5378418-1.6323242,3.659668-2.4887676,5.6132813-2.2338848
		c4.1758423,0.5558491,6.4693794,5.9593792,3.0600586,9.5273418c-0.5053711,0.5283203-1.3378906,1.1582031-2.434082,1.1582031
		c-0.6739922,0-1.0064545,0.8245583-0.5185547,1.2919922l5.644043,5.3994141
		c-0.4956474,0.2296867-9.8500252,2.1847382-16.4741211,11.4130859c-1.0207672-3.97472-1.9528122-8.425972-3.0205078-12.2939453
		c-0.1914673-0.6929893-1.1553078-0.7461624-1.4204102-0.0771484c-2.1077919,5.3102646-10.2353954,3.305172-9.5932598-2.3959961
		C31.5831013,43.5562401,34.0518494,41.2671776,36.4048767,41.2076073z"/>
	<circle cx="61.5489197" cy="57.1021385" r="1.8037109"/>
	<circle cx="53.9239197" cy="62.6265526" r="1.8037109"/>
	<path d="M52.596283,58.335537c-0.2470703-0.331543-0.71875-0.3994141-1.0493164-0.1513672
		c-1.1479492,0.8574219-1.8823242,2.2236328-1.9638672,3.6533203c-0.0244217,0.4309349,0.3195038,0.7929688,0.7495117,0.7929688
		c0.3950195,0,0.7255859-0.3085938,0.7485352-0.7075195c0.0561523-0.9931641,0.5664063-1.9418945,1.3632813-2.5375977
		C52.7764587,59.1372948,52.8443298,58.6675682,52.596283,58.335537z"/>
	<path d="M59.4092712,54.5913963c0.7294922-0.5068359,1.6547852-0.7246094,2.5322266-0.5981445
		c0.4067383,0.0561523,0.7900391-0.2250977,0.8491211-0.6352539s-0.2250977-0.7900391-0.6352539-0.8496094
		c-1.25-0.1787109-2.5639648,0.1298828-3.6025391,0.8515625c-0.6020279,0.4186516-0.3029747,1.3662109,0.4287109,1.3662109
		C59.1294861,54.726162,59.2789001,54.6822166,59.4092712,54.5913963z"/>
	<path d="M63.721283,63.335537c-1.248394-1.3923149-3.1311684-1.5520973-4.2255859-0.5712891
		c-1.9696579,1.7678642-0.1611137,5.4575233,2.6459961,5.4575233C64.5625992,68.2217712,65.5198669,65.3404922,63.721283,63.335537z
		"/>
	<path d="M71.6695251,81.3008728c-0.8818359,0-1.5991211,0.6352539-1.5991211,1.4155273
		c0,0.78125,0.7172852,1.4160156,1.5991211,1.4160156c0.8813477,0,1.5986328-0.6347656,1.5986328-1.4160156
		C73.268158,81.9361267,72.5508728,81.3008728,71.6695251,81.3008728z"/>
	<path d="M74.9551697,89.1421814c0.8818359,0,1.5991211-0.6347656,1.5991211-1.4160156
		c0-0.7802734-0.7172852-1.4155273-1.5991211-1.4155273c-0.8813477,0-1.5986328,0.6352539-1.5986328,1.4155273
		C73.3565369,88.5074158,74.073822,89.1421814,74.9551697,89.1421814z"/>
	<path d="M79.346283,94.9229431c0.8818359,0,1.5991211-0.6352539,1.5991211-1.4155273
		c0-0.7807617-0.7172852-1.4160156-1.5991211-1.4160156c-0.8813477,0-1.5986328,0.6352539-1.5986328,1.4160156
		C77.7476501,94.2876892,78.4649353,94.9229431,79.346283,94.9229431z"/>
	<path d="M94.2286072,109.5235291c-0.6800766,0.8640671-0.888237,1.753952-1.8125,4.621582
		c-0.1938477,0.6015625-0.4355469,1.3496094-0.3178711,2.1445313c0.2901306,1.9575348,2.5136032,2.6191788,3.7373047,0.8325195
		c0.2172852-0.3168945,0.3613281-0.6430664,0.5004883-0.9575195c0.7823334-1.7823029,2.3852158-2.5994415,2.6391602-4.5761719
		C99.344223,108.7269211,96.1600494,107.0776749,94.2286072,109.5235291z"/>
	<path d="M107.5308533,116.9112244c-0.9532471,0.0351715-1.5696259,0.8339691-1.6704102,0.9238281
		c-0.931839,1.1632156-0.7229996,2.6208267-0.4628906,3.9418945c0.2109375,1.0742188,0.7739258,1.3662109,1.2089844,1.4213867
		c0.6408157,0.0815582,1.117981-0.3326797,1.4667969-0.8793945c0.4072266-0.6376953,0.8686523-1.3603516,1.0737305-2.2070313
		C109.4904556,118.6912842,108.9312897,116.8490906,107.5308533,116.9112244z"/>
	<path d="M62.4790955,115.4273376c0.8766518,1.2141495,2.3476486,1.3975525,3.6757813,1.4975586
		c0.7264099,0.0530472,1.4113083-0.1176529,1.6923828-0.7866211c0.2163086-0.515625,0.0625-1.0703125-0.456543-1.6484375
		c-0.5058594-0.5620117-1.0791016-1.1992188-1.8408203-1.6225586c-0.715332-0.3979492-1.8813477-0.6923828-2.8105469-0.2094727
		c-0.9980888,0.5180283-0.9082108,1.8712692-0.2607422,2.7695313H62.4790955z"/>
</g>
</svg>
