<?xml version="1.0" encoding="utf-8"?>
<!-- Generator: Adobe Illustrator 22.0.1, SVG Export Plug-In . SVG Version: 6.00 Build 0)  -->
<svg version="1.1" id="Layer_1" xmlns="http://www.w3.org/2000/svg" xmlns:xlink="http://www.w3.org/1999/xlink" x="0px" y="0px"
	 viewBox="0 0 156 156" style="enable-background:new 0 0 156 156;" xml:space="preserve">
<g id="Tossing_Vagetables">
	<path d="M51.8433456,61.1623077c0.3618164-0.2021484,0.4912109-0.6589355,0.2890625-1.0205078
		c-1.5853691-2.8391304,0.6202126-5.1551895,2.5498047-3.4108887c0.4511719,0.4069824,0.8061523,0.9370117,1.1821289,1.498291
		c0.2299805,0.3442383,0.6962891,0.435791,1.0400391,0.2060547c0.3442383-0.2304688,0.4365234-0.6962891,0.2060547-1.0405273
		c-0.4101563-0.6125488-0.8339844-1.2460938-1.4233398-1.7773438c-3.142971-2.8399467-7.3115768,0.8739243-4.8642578,5.2558594
		C51.0243416,61.2342987,51.4811058,61.3648262,51.8433456,61.1623077z"/>
	<path d="M44.8072128,55.2819366c0.07407,0.4068375,0.4637527,0.678154,0.8720703,0.6035156
		c0.4077148-0.0739746,0.6777344-0.4645996,0.6035156-0.8720703c-0.2604408-1.4309044,0.5930443-2.8402023,1.9819336-3.2714844
		c0.3955078-0.1230469,0.6166992-0.5432129,0.4936523-0.9389648c-0.1230469-0.3947754-0.5419922-0.6174316-0.9389648-0.4936523
		C45.7162628,50.9628258,44.4093742,53.0989494,44.8072128,55.2819366z"/>
	<path d="M135.45224,77.4403839c-4.4316406-1.1838379-10.3286209-1.9003906-16.6049881-2.0183105
		c-11.9423828-0.2175293-24.0595703,1.7995605-24.1401367,6.0773926c0,0.072998,0.0065918,0.154541,0.0155029,0.2404785
		c-0.0073242,0.0397949-0.0250244,0.0759277-0.0257568,0.1179199c-0.0571289,3.3286133,2.8200684,6.3308105,7.5212402,8.4648438
		c-0.9176025,0.2138672-1.8442383,0.4008789-2.7763672,0.5698242l-0.1296387-0.6340332
		c-0.081543-0.3991699-0.4697266-0.6616211-0.8662109-0.5881348c-6.7522659,1.201889-24.3267136,2.9263763-29.9179688-0.9672852
		c-0.2800293-0.5222168-0.6052246-1.0891113-0.9997559-1.7431641c6.8132324-4.7458496,13.4331055-9.2473145,14.5751953-9.734375
		c0.6311646-0.0393295,0.9264145-0.7609406,0.541748-1.2341309c-0.0100098,0-0.0100098,0-0.0100098-0.0100098
		c-0.3375244-0.4050293-0.7290039-0.9042969-1.149292-1.456543c4.7559128-3.9920959,7.0837555-8.6681671,12.9029541-17.0214844
		c0.9912109-1.3134766,2.8354492-3.7583008,1.0981445-5.7365723c-0.2451172-0.2770996-0.5512695-0.4938965-0.890625-0.6374512
		c0.2050781-0.8554688,0.3823242-1.8696289-0.1791992-2.8193359c-0.5664291-0.9571953-1.7171631-1.4456024-2.7802734-1.3330078
		c-0.2809067-2.213356-2.6691666-3.4377327-4.6069336-2.0812988c-0.7405014-2.3008385-3.2207031-2.8086433-4.5864258-0.9138184
		c-0.6015015,0.8133698-0.6200333,1.1644287-2.8071289,8.0703125c-1.2494049-2.1306152-3.7876053-4.9748764-5.9985352-3.8588867
		c-1.2280273,0.6218262-1.5527344,2.1643066-1.2373047,3.3740234c0.2845917,1.0498734,0.9227142,1.8679924,1.3979492,2.7060547
		c0.8579102,1.4899902,1.2578125,3.2973633,1.1259766,5.0881348c-0.1103745,1.4858208-0.78022,2.840313-1.4364014,4.2043457
		c-0.1810303-0.229248-0.3607178-0.4550781-0.5345459-0.6672363c-0.2408447-0.2910156-0.6522217-0.3513184-0.9731445-0.1606445
		c-2.6618652,1.619873-5.1499023,3.2072754-7.5581055,4.7670898c0.0895996-3.001709-0.6427002-6.0471191-2.286377-8.6945801
		c0.4824219-0.3742676,0.953125-0.7802734,1.3486328-1.2805176c1.4580383-1.810009,1.0158005-4.2271919-1.2275391-5.2214355
		c-1.087265-0.4742584-2.2091064-0.3770905-3.1699219-0.5771484c-2.7006378-0.5875092-4.4574318-3.5205727-12.1838379-6.2700195
		c-0.1036034-0.3725319,0.0616035-0.0244331-6.5002441-6.7053223c1.8745842-1.5754852,2.1603394-6.6966133-1.1708984-9.1943359
		c-3.6526527-2.7448063-8.927187-0.5735569-9.1767559,3.9667969c-5.6250362-1.8744087-11.2869282,0.9877472-12.6152344,5.8881836
		c-0.6347656,2.3491211-0.1000977,4.8737793,1.3320313,6.6887207c-9.2600498,2.7559662-6.5594425,18.3531952,5.7592773,13.5561523
		l4.5311279,3.126709c-1.2665958,8.4076767,3.4316425,16.0037994,10.3902569,20.0622559
		c0.4882813,0.286377,0.9661865,0.557373,1.4815674,0.6999512c-3.6192818,3.6329346-4.2079926,6.867836-4.8215332,12.4064941
		c-1.5158195,13.7017288-2.987854,28.2426987-4.4244366,41.0944824c-0.0402832,0.411377,0.2607422,0.7824707,0.6721172,0.8325195
		c0.4614525,0.0451813,0.8427734-0.3270111,0.8427734-0.7524414l16.925415,0.050293
		c-0.0100098,0.411377,0.3310547,0.7424316,0.7424316,0.7524414h0.0101318c0.411377,0,0.7423096-0.3410645,0.7524414-0.7524414
		l0.3007813-39.1281738c0.5976563-0.4526367,1.5883789-1.1767578,2.8388672-2.0786133
		c0.1328392,0.6424637,0.2819557,1.3994522,0.4182129,1.9255371c0.0955467,0.3694916,0.4510918,0.6036453,0.8217773,0.5559082
		c3.4800262-0.4474487,6.9215508-0.6219482,10.434082-1.0734863c0.5002975-0.0646057,0.7968216-0.5954971,0.5864258-1.0556641
		c-1.0300293-2.2533112-1.8575821-4.4179993-2.8671875-6.6726074c0.7865295-0.5304718,1.4663849-1.0072632,2.2905273-1.5656738
		c8.5732193,14.4681091,9.9929276,32.2882309,10.9042969,49.0834961c0.0219727,0.3996582,0.3525391,0.7092285,0.7485352,0.7092285
		c0.0136719,0,0.0273438-0.0002441,0.0410156-0.0012207c0.4135742-0.0224609,0.730957-0.3757324,0.7084961-0.7895508
		c-0.5162582-9.5061188-1.5146408-21.6642075-3.7312012-30.8935547c8.6710052,0.2857895,17.091629-0.2924042,26.236084-2.1413574
		c0.4062424-0.0822678,0.6698532-0.4788132,0.5864258-0.8852539l-0.0878906-0.4299316
		c6.7104492-2.1274414,13.0740967-5.2023926,18.9591064-9.1711426c12.3525467-0.2988281,21.8040848-4.8601074,21.917366-10.8122559
		c0.0006104-0.0322266-0.0163574-0.0615234-0.0209961-0.0930176c0.0141602-0.0925293,0.0279541-0.1850586,0.0307617-0.2797852
		C142.6155243,82.1835327,143.538559,79.6005402,135.45224,77.4403839z M76.4204941,59.4721222
		c0.3452606-4.7011833-2.1271133-6.6574745-2.5708008-8.2905273c-0.1601563-0.6140137-0.0297852-1.3991699,0.465332-1.6496582
		c0.5629883-0.2841797,1.4140625,0.2131348,2.0205078,0.7729492c1.2016602,1.1169434,2.1533203,2.5136719,2.7519531,4.0390625
		c0.2579422,0.6545715,1.2018585,0.6251717,1.4135742-0.0490723c2.8103714-8.8823738,2.7225113-8.845047,3.1538086-9.4284668
		c0.2485352-0.345459,0.609375-0.5612793,0.9145508-0.5517578c0.34375,0.0148926,0.7246094,0.3308105,0.9277344,0.7719727
		c0.1826172,0.3903809,0.2478027,0.8569336,0.2910156,1.361084c-0.527832,2.4824219-1.2783203,4.9245605-2.2529297,7.2626953
		c-0.1591797,0.3823242,0.0214844,0.8215332,0.4038086,0.980957c0.3806534,0.1587715,0.8209457-0.0200386,0.980957-0.4038086
		c0.9434814-2.263916,1.680542-4.6225586,2.2214355-7.0205078c0.0725098-0.0893555,0.1325684-0.1899414,0.1589355-0.3098145
		c0.235199-1.065609,1.9865112-1.7452393,2.6918945-0.3061523c0.2672653,0.5462646,0.1549301,0.9024963,0.0717773,1.2351074
		c-0.8237305,2.7163086-2.2336426,5.2648926-4.1098633,7.3925781c-0.2739258,0.310791-0.2441406,0.784668,0.0664063,1.0585938
		c0.3114166,0.2746201,0.7847443,0.2434807,1.0585938-0.0664063c1.9542236-2.2158203,3.4376221-4.8562012,4.3342285-7.6733398
		c0.6493454-0.3016891,1.4143906-0.0276947,1.7126465,0.4763184c0.300415,0.5083008,0.1397705,1.1887207-0.0394287,1.9104004
		c-0.2253952,0.3199196-0.7923431,1.9263458-2.6065674,3.458252c-0.3164063,0.2670898-0.3564453,0.7402344-0.0893555,1.0568848
		c0.2675552,0.3168411,0.7414017,0.3560524,1.0571289,0.0891113c1.0167236-0.8586426,1.8659668-1.9162598,2.512207-3.0822754
		c0.1547852,0.0571289,0.2990723,0.1364746,0.4018555,0.2524414c0.9831924,1.1197319-0.4120712,2.7659149-1.2597656,3.9599609
		c-0.0004883,0.0004883-0.0009766,0.0009766-0.0009766,0.0012207c-4.090065,5.4603233-7.3063736,12.2184296-12.505127,16.6154785
		c-2.2584763-3.071907-4.2757874-6.0400314-6.0823975-8.4360352C75.3163681,63.174984,76.2697754,61.4948387,76.4204941,59.4721222z
		 M58.774498,53.1986847c0.9820137,0.2040634,2.1199646,0.1522331,2.8789063,0.4831543
		c1.2865753,0.5700226,1.5385857,1.8202972,0.6586914,2.9125977c-0.4208984,0.5322266-0.9926758,0.9589844-1.6362305,1.439209
		c-0.3232422,0.2412109-0.3974609,0.6948242-0.1689453,1.0268555c1.9436035,2.8186035,2.689209,6.2041016,2.3570557,9.4550781
		c-0.5406494,0.3525391-1.072998,0.7004395-1.6065674,1.0495605c-0.1755371-0.0690918-0.3769531-0.0739746-0.5654297,0.0043945
		c-1.7802734,0.7485352-3.8632813,0.6582031-5.5717773-0.2407227c-0.3676758-0.1938477-0.8203125-0.0527344-1.0126953,0.314209
		c-0.1928711,0.3664551-0.0522461,0.8200684,0.3144531,1.0129395c1.1557617,0.6086426,2.4511719,0.9160156,3.7470703,0.9160156
		c0.0065918,0,0.0131836-0.0009766,0.0196533-0.0009766c-3.3398438,2.182373-6.8035889,4.4279785-10.5782471,6.7380371
		c-0.3209229,0.1955566-0.6746826,0.4228516-1.0498047,0.6738281c-0.0554199-0.0319824-0.1109619-0.0632324-0.1661377-0.0964355
		c0.1722412-0.8093262,0.2259521-1.7033691,0.1470947-2.6782227c-0.123291-1.432373-0.4887695-2.7976074-0.8786621-4.0307617
		c0.1955566-0.0280762,0.3913574-0.0556641,0.588623-0.0976563c0.4047852-0.0861816,0.6635742-0.4846191,0.5771484-0.8896484
		c-0.0859375-0.4052734-0.4838867-0.6650391-0.8896484-0.5776367c-3.6968193,0.7869034-6.360321-1.4112854-6.284668-3.798584
		c0.0519333-1.6308594,1.2575684-2.7435074,2.8305664-2.6540527c0.4101563,0.015625,0.7944336,0.126709,1.1108398,0.3210449
		c0.3530273,0.2163086,0.8149414,0.1066895,1.0317383-0.2468262c0.2167969-0.3530273,0.1064453-0.8146973-0.246582-1.0314941
		c-0.3706055-0.2275391-0.7905273-0.3820801-1.2285156-0.467041c-0.7144585-3.9490051-1.5459862-8.1577187-4.4394531-11.1989746
		c2.2418556-2.0023155,4.516922-3.5539894,7.1500244-4.8701172C53.5681801,49.2702065,55.5841522,52.5037727,58.774498,53.1986847z
		 M15.6675653,50.2667999c1.0537119-1.6652832,2.9301767-2.8395996,4.6689463-2.9221191
		c0.686182-0.0329056,0.9709644-0.8990784,0.4365234-1.3320313c-1.7202148-1.3937988-2.4956055-3.9453125-1.8852539-6.2041016
		c1.2633228-4.6562347,6.9958611-6.6640205,11.6787109-4.4638672c0.5583019,0.2626991,1.1800766-0.2274017,1.0527344-0.8322754
		c-0.3291016-1.5734863,0.5195293-3.359375,1.975584-4.1552734c1.4272461-0.7851563,3.3754883-0.6188965,4.7368164,0.4042969
		c3.0374641,2.2780991,1.9038086,6.9772949,0.7509766,6.9772949c-0.1645508,0-0.317627,0.057373-0.4443359,0.1513672
		c-0.9648438,0.2565918-1.9804688,0.2939453-2.9580078,0.0834961c-0.4057617-0.0844727-0.8041992,0.1711426-0.8911133,0.5759277
		c-0.0869141,0.4050293,0.1708984,0.8037109,0.5756836,0.8908691c1.2898216,0.2765541,2.388607,0.2047729,3.5280762-0.0773926
		l6.0275879,6.0871582c-6.9525795,3.5404282-12.2928848,9.3332024-15.3339825,15.8781738l-4.0736084-2.8117676
		c1.1051025-1.5432129,1.9813232-3.2766113,2.5252686-5.0866699c0.1191406-0.3967285-0.1054688-0.8149414-0.5024414-0.934082
		c-0.3925781-0.1186523-0.8144531,0.1052246-0.934082,0.5024414c-0.5761719,1.916748-1.5419922,3.7556152-2.7929688,5.317627
		c-0.0031738,0.0039063-0.0036621,0.0087891-0.0065918,0.0129395
		C15.6450434,61.3829803,13.1951866,54.1817856,15.6675653,50.2667999z M51.0617294,98.7558136l-5.7789307,3.6723633
		c-0.3271141,0.2174149-0.8076782,0.140152-1.0334473-0.230957c-0.2207031-0.3510742-0.1203613-0.8125,0.2307129-1.0332031
		l5.769043-3.6721191c0.3510742-0.2307129,0.8126221-0.1203613,1.043457,0.2207031
		C51.5132675,98.0636749,51.4129257,98.5353546,51.0617294,98.7558136z M65.2510605,96.0172882
		c-2.9360161,0.3379898-5.7963791,0.5148392-8.7568359,0.8681641c-0.145813-0.6764526-0.2187424-1.082962-0.3945313-1.8635254
		c1.9040527-1.3640137,4.2270508-3.0117188,6.694458-4.7478027C63.7903938,92.5018539,64.384552,94.047081,65.2510605,96.0172882z
		 M140.2381287,83.6181183c-6.9424133,4.6676407-34.9849167,4.2981796-42.6629715-0.5351563
		C104.5546265,78.3640518,132.7203522,78.8255463,140.2381287,83.6181183z M118.8194199,76.9218292
		c6.1582031,0.1154785,11.927742,0.8144531,16.2456131,1.9677734c4.5830078,1.2241211,6.1953125,2.625,6.1845703,3.4545898
		c-0.0014648,0.0441895-0.0063477,0.0876465-0.0151367,0.1306152c-7.9782562-5.2975006-37.800087-5.7704163-44.8276443-0.4082031
		c-0.2460556-0.4315567-0.17202-0.4465408-0.199707-0.5529785C96.2461777,79.4274445,104.8706894,76.6745148,118.8194199,76.9218292
		z M104.5545273,91.256546c3.7844238,1.3339844,8.4272461,2.1706543,13.5178223,2.3066406
		c-5.1801758,3.2648926-10.708252,5.8574219-16.5083008,7.7104492l-1.8168945-8.9047852
		C101.3745956,92.0727081,102.972374,91.685257,104.5545273,91.256546z"/>
	<path d="M100.2891464,30.1718292c0.4526367-0.5300293,0.5673828-1.3256836,0.2827148-1.9619141
		c-0.2845459-0.6362305-0.9541016-1.0812988-1.6508789-1.097168c1.7883224-1.8550529-0.5967636-3.3780022-1.5715332-2.0461426
		c0.1447754-0.5793457,0.5482178-1.3969727,0.5036621-1.9924316c-0.0444336-0.5957031-0.2989502-1.2043457-0.7938232-1.5385742
		c-0.494751-0.3344727-1.2476807-0.3056641-1.6236572,0.1584473c0.0843506-0.1040039-1.0477295-1.6179199-1.157959-1.8007813
		c-0.4016113-0.6665039-1.0354004-1.2324219-1.5560303-1.8193359c-1.1011963-0.0778809-1.8887939,0.4006348-2.4156494,1.342041
		c0.7358551,0.7683773,1.5691986,1.3726711,1.625,2.4951172c0.0407715,0.8220215-0.2958984,1.6552734-0.8964844,2.2177734
		c-0.3330078,0.3122559-0.769165,0.5888672-0.8498535,1.0383301c-0.0690918,0.385498,0.1677246,0.7744141,0.487915,1.0002441
		c0.3201904,0.2260742,0.7113037,0.3222656,1.0921631,0.4140625c-0.3945313,0.2861328-0.7919922,0.5917969-1.0456543,1.0080566
		s-0.3360596,0.9714355-0.0820313,1.3874512c0.2540283,0.4162598,0.9020996,0.5769043,1.2513428,0.2368164
		c-0.7532806,3.4499702,2.7238083,3.4975662,2.9147949,1.5275879c0.2775879,0.7348633,0.5762939,1.5012207,1.1678467,2.0180664
		s1.5715332,0.6806641,2.1430664,0.1416016c0.5095215-0.4807129,0.4995117-1.3144531,0.2288818-1.9606934
		C99.0159531,31.1220245,99.8363876,30.7018585,100.2891464,30.1718292z"/>
	<path d="M126.0380478,65.9672394c0.0150146,0.0959473,1.3771973,0.2229004,1.5289307,0.2524414
		c0.552742,0.1079102,1.1641922,0.0422363,1.7319412,0.0473633c0.6555176-0.328125,0.7679443-1.001709,0.4519043-1.947998
		c-0.768158,0.0208282-1.4977722,0.1767731-2.1284256-0.338623c-0.4610596-0.3769531-0.744873-0.9621582-0.7556152-1.5576172
		c-0.0058594-0.3305664,0.0571289-0.6987305-0.1448975-0.9602051c-0.1734619-0.2243652-0.4971924-0.2858887-0.7738037-0.2236328
		c-0.2767334,0.0622559-0.5183105,0.2255859-0.7524414,0.385498c0.0378418-0.3508301,0.0666504-0.7124023-0.0336914-1.0507813
		c-0.1003418-0.3381348-0.3583984-0.6518555-0.7050781-0.7172852c-0.3466797-0.0656738-0.7475586,0.2043457-0.7344971,0.5568848
		c-1.4880753-2.0812492-3.1976471-0.2325783-2.2347412,0.8234863c-0.5292969-0.2075195-1.0856934-0.4189453-1.6502686-0.3522949
		s-1.1282959,0.5134277-1.1160889,1.0817871c0.0107422,0.5068359,0.4631348,0.90625,0.9414063,1.0744629
		c-0.4240723,0.2731934-0.5966797,0.9174805-0.5317383,1.4177246c0.1444016,1.1149521,1.5332413,1.567215,2.3063965,0.7502441
		c0.1266098,1.8418808,2.1067123,1.3353271,1.8612061,0.1494141c0.2408447,0.3588867,0.4840088,0.9724121,0.8253174,1.2375488
		C125.1040955,67.3568497,126.1592331,66.7426605,126.0380478,65.9672394z"/>
	<path d="M121.1137314,29.1557159c-0.6159058,0.6335659-0.5010681,1.0523243,0.1243896,1.6826172
		c0.3067627,0.3093262,0.6201172,0.6230469,1.0144043,0.8115234c0.394165,0.1884766,0.8894043,0.2348633,1.3109131,0.0078125
		c0.5611954-0.3024788,0.8113327-0.8718395,2.2779541-3.3024902c0.5937805-0.9833183,1.1264954-0.3513012,0.9277344,0.1911621
		c-0.1116943,0.3054199-0.3671875,0.5388184-0.5748291,0.7944336c-1.2006989,1.4767017,1.3315735,1.85326,2.512825,0.0336914
		c0.8259735-1.2723179,0.6956787-3.0511112-0.6486816-4.4316406c-0.7932816-0.8140793-2.6023636-1.9405842-3.8538895-1.9689941
		c-2.719986-0.0620403-3.9034195,3.3358803-3.0806885,3.875c0.544426,0.3563805,1.2342758-0.5153999,1.4425049-0.7116699
		c0.3074951-0.2902832,0.7913818-0.5571289,1.1068115-0.229248c0.2750244,0.2861328,0.017334,0.5893555-0.2265625,0.8459473
		C122.6776962,27.5629425,121.8911972,28.3551788,121.1137314,29.1557159z"/>
	<path d="M103.6031113,61.0365753c3.464119,0.0085945,3.7965393,0.1183205,4.1530762-0.0253906
		c0.5101471-0.20467,0.5754089-0.7437592,0.5911865-1.246582c0.0145264-0.4604492,0.0280762-0.9294434-0.1136475-1.3691406
		c-0.1418457-0.4399414-0.4660645-0.8544922-0.9470215-1.0131836c-0.6403122-0.2115936-1.2598114,0.0103836-4.1938477,0.6499023
		c-1.1945267,0.2605515-1.0832748-0.6125603-0.5274658-0.8518066c0.315918-0.1359863,0.6810303-0.109375,1.0281982-0.135498
		c2.0077209-0.1510201,0.456871-2.370594-1.8005371-1.9555664c-0.8951416,0.1645508-1.6796875,0.7097168-2.1767578,1.3986816
		c-0.9983521,1.3834267-0.8718948,3.0748291-0.4257813,4.7214355c0.1925049,0.7099609,0.4455566,1.4267578,0.9567871,1.9926758
		c1.181694,1.308197,3.3600769,1.4296188,4.7785645,0.3198242c0.7359467-0.574913,0.4816284-1.1508141-0.2148438-1.3022461
		c-0.3052979-0.0661621-0.6271973-0.0402832-0.9420166-0.0581055c-0.4465332-0.0253906-1.00354-0.203125-0.9805908-0.684082
		C102.8084335,61.0580597,103.2287216,61.0358429,103.6031113,61.0365753z"/>
	<path d="M114.9130478,49.011673c1.0316162,1.5512695,4.0406494,1.3635254,6.7205811-0.4189453
		c2.6801758-1.7824707,4.0163574-4.4848633,2.9847412-6.0361328c-1.0316162-1.5510254-4.0406494-1.3635254-6.7205811,0.4189453
		C115.2176132,44.7580109,113.8814316,47.4604034,114.9130478,49.011673z"/>
</g>
</svg>
