<?xml version="1.0" encoding="utf-8"?>
<!-- Generator: Adobe Illustrator 22.0.1, SVG Export Plug-In . SVG Version: 6.00 Build 0)  -->
<svg version="1.1" id="Layer_1" xmlns="http://www.w3.org/2000/svg" xmlns:xlink="http://www.w3.org/1999/xlink" x="0px" y="0px"
	 viewBox="0 0 156 156" style="enable-background:new 0 0 156 156;" xml:space="preserve">
<g id="Pizza_Making">
	<path d="M129.306839,67.4406052c1.059082-1.5014648,1.4707031-2.9853516,1.2231445-4.4111328
		c-0.4326172-2.4990234-2.8425217-4.4755859-6.9575119-5.730957c-3.3330078-3.6582031-13.2319336-4.894043-24.2827148-2.9907227
		c-11.0517578,1.9038086-19.9663086,6.3745117-21.8947754,10.9418945c-1.5861816,1.1713867-2.7731934,2.3666992-3.560791,3.5600586
		c-1.4943848-0.1572266-3.6254883-0.1000977-5.6220703-0.0112305c1.4477539-0.6123047,2.703125-1.8222656,3.5375977-3.4155273
		c1.9051208-3.6407776,0.6429214-5.2503662,2.0952148-6.5791016c0.5847931-0.5344391,3.2594376-1.7056046,1.8183594-4.7099609
		c-0.8806-1.8351288-2.6684113-2.6831932-3.9724121-6.6748047c0.0183105-0.0141602,0.0405273-0.0224609,0.057373-0.0375977
		c0.261795-0.2334023,0.2875595-0.5944672,0.2114258-0.8041992c-0.0004883-0.0009766-0.0009766-0.0019531-0.0012207-0.0029297
		c-0.9289398-2.0536766-2.6807022-8.3135033-8.8176308-15.9160175c2.7036171-0.8984375,4.9633827-3.3701172,5.5991249-6.2802734
		c1.5408859-6.9183521-5.6842957-12.9716511-12.6889687-9.9941397c-2.6601563,1.1298828-4.7368164,3.4868155-5.6171875,6.2998037
		c-6.8205185-4.1779041-15.1653328,2.1150723-12.9487305,9.8613281c-1.9091797-0.0566406-3.8413086,0.2397461-5.6435547,0.8793945
		c-11.8607502,4.2035923-5.9544029,20.8101025,6.4794922,15.9282246c2.0117188-0.7783203,2.2939453-0.9316406,3.5415039-1.9140625
		c7.329464,14.0067177,8.3893623,16.3996124,8.7338867,15.953125c-0.1486816,1.5654297-0.0112305,3.3642578,0.4206543,5.1123047
		c-0.0559082,0.0625-0.1074219,0.1308594-0.1408691,0.2128906c-4.5755424,11.2466736-5.4480247,17.2835999-6.1323242,25.5117188
		c-0.5393562,6.2727051-0.4091988,11.6576691-0.4238281,13.0800781c-0.0436516,13.2953644,0.2362709,12.685173,1.2646484,12.8500977
		c0.3266602,0.0537109,0.6503906,0.1035156,0.9746094,0.1547852v23.3310471c0,0.409668,0.3398438,0.7490234,0.7492676,0.7490234
		c0.409668,0,0.7490234-0.3393555,0.7490234-0.7490234h14.7126465c-0.1896973-0.1298828-0.3095703-0.3491211-0.3095703-0.5991211
		v-15.8911057c0-0.409668,0.3295898-0.7490234,0.7492676-0.7490234c0.4094238,0,0.7490234,0.3393555,0.7490234,0.7490234v15.8911057
		c0,0.25-0.119873,0.4692383-0.3095703,0.5991211h14.3029823c0,0.409668,0.3395996,0.7490234,0.7492676,0.7490234
		c0.4094238,0,0.7490234-0.3393555,0.7490234-0.7490234v-23.1152267c0.3605957-0.0576172,0.7236328-0.1142578,1.076416-0.1772461
		c0.777832-0.1342773,1.2060547-0.2080078,0.737793-12.0087891c-0.4388046-6.5857544-0.0084686-6.1740799-1.9213867-15.059082
		c3.1867676-1.1376953,6.6437988-2.9057617,10.3208008-5.2729492c1.4093323,0.4551392,2.8313828,0.4070282,4.3066406,0.2617188
		c3.0864868-0.3038406,8.3036118-1.1070099,10.550293-3.2475586c1.1298828-1.0771484,1.8781738-2.8061523,1.5705566-4.4399414
		C117.0822372,76.3283005,126.0458603,72.0626755,129.306839,67.4406052z M99.5446396,55.7863083
		c3.402832-0.5864258,6.715332-0.8676758,9.7368164-0.8676758c6.3525391,0,11.4174805,1.2446289,13.315918,3.5205078
		c1.2129288,1.4305153,0.7348328,3.0357704-0.4536133,4.496582c-4.71595,5.7987518-18.0257721,8.8614044-26.3430176,9.3823242
		c0.4096527-3.4855728-2.4500504-5.7475433-5.0661621-4.9912109c2.001297-1.4326935,0.6149445-3.6382408-3.0356445-3.0073242
		c-1.7255859,0.296875-3.4775391,1.2294922-3.246582,2.5761719c0.2978668,1.7237167,3.2720184,1.6754456,5.0754395,1.0405273
		c-1.3883133,1.0661392-1.341156,2.4923096-1.5534668,4.0297852l0,0c-0.0092773,0.0678711-0.0266113,0.1347656-0.0378418,0.2021484
		c-4.2462082-0.4890518-10.6570129-2.1451645-9.2385254-6.1787109
		C80.2143173,61.8966599,88.979454,57.6061325,99.5446396,55.7863083z M67.357872,91.3478317l1.7556152-8.2978516
		c4.802269,0.3762512,7.4046021,0.2823257,14.7077637-3.3969727c0.0861816,0.0131836,0.1704102,0.027832,0.2573242,0.0405273
		c0.2854233,1.1013336,1.1410675,2.4779968,1.8098145,3.3984375c0.6506348,0.8959961,1.401123,1.6054688,2.2023926,2.1386719
		C80.9801788,89.6837692,75.6395645,91.7179642,67.357872,91.3478317z M65.2218857,71.4557419
		c0.0078125-0.0141602,0.0112305-0.0302734,0.0185547-0.0444336c2.2402344,0.9160156,4.0722656,2.1723633,5.0722656,3.5053711
		c1.4880066,1.96492,2.7784729,3.9697037,4.1010742,6.6098633c-1.5383301,0.2216797-3.1005859,0.1879883-4.6477051,0.0664063
		c-1.0577927-3.4827652-2.4183807-6.6111374-4.6086426-10.0512695
		C65.1759872,71.5114059,65.2047958,71.4869919,65.2218857,71.4557419z M77.012413,67.4738083
		c0.3932419,4.1290817,6.3954697,5.6534271,10.5283203,6.1606445c-0.7929153,2.1195526-2.0706024,3.1344833-2.7856445,3.8457031
		c-0.3847656,0.2045898-0.770752,0.40625-1.1591797,0.6054688C75.5084381,76.7293472,70.8702087,72.9099045,77.012413,67.4738083z
		 M73.0773544,70.2526169c-0.354248,0.9223633-0.4729004,1.8374023-0.3188477,2.7304688
		c0.6147842,3.5772629,5.0736237,5.3601227,8.605957,6.1923828c-1.679863,0.7774124-3.6308975,1.5712051-5.4238281,2.0576172
		c-1.4497757-2.967041-2.9013519-5.1983185-4.4296875-7.2192383c-1.2836914-1.7109375-3.2807617-2.8989258-4.880127-3.6391602
		C68.5027924,70.2841034,71.2212143,70.1423798,73.0773544,70.2526169z M74.3107529,54.7428513
		c0.6515579,1.3587723-0.0246124,1.8838234-0.7568359,2.3974609c-2.4016113,1.6839409-1.818985,3.1427917-2.2539063,5.1235352
		c-0.9748535,0.2641602-1.9453125,0.2290039-3.1079102-0.1401367c-0.394043-0.1245117-0.8164063,0.0932617-0.9418945,0.487793
		s0.0932617,0.8164063,0.487793,0.9418945c1.2743988,0.4048691,2.1630783,0.4397507,3.0532227,0.3330078
		c-0.8098068,1.952652-1.9787827,3.042923-3.1943359,3.5458984c-1.550293,0.6411133-3.7504921,0.1108398-5.1386757-0.6547852
		c-0.3613281-0.1987305-0.8178711-0.0673828-1.0185547,0.2954102c-0.2001953,0.362793-0.0678711,0.8188477,0.2949219,1.019043
		c0.699707,0.3852539,1.5522461,0.6962891,2.4458046,0.8964844c-0.0495911,0.6253891-0.0729141,1.3803787-0.2739296,1.7456055
		c-0.4086914,0.7451172-2.0151367,1.2890625-4.7744141,1.6166992c-5.4207077,0.6512146-7.9530334-7.0402908-6.8642578-11.984375
		c0.0222168-0.1010742,0.0227051-0.2016602,0.005127-0.2973633c5.3071289-5.371582,12.0046425-9.8779297,18.0178261-12.1157227
		C71.6862946,52.159668,73.5966034,53.253624,74.3107529,54.7428513z M50.8044014,48.6149216
		c-0.2497559-0.3300781-0.1896973-0.7993164,0.1398926-1.0488281c0.329834-0.2597656,0.7990723-0.1899414,1.0488281,0.1298828
		c1.6779785,2.1870117,3.1062012,4.5541992,4.2648926,7.0512695c0.1796875,0.3696289,0.0102539,0.8193359-0.3596191,0.9887695
		c-0.3934631,0.1787643-0.8253593,0.001152-0.9987793-0.359375C53.7909737,52.9796677,52.4125557,50.7023239,50.8044014,48.6149216z
		 M57.5365791,43.6305466c0.3596191-0.199707,0.8188477-0.0595703,1.0085449,0.2998047l2.7768555,5.1040039
		c0.1899414,0.359375,0.0600586,0.8188477-0.2998047,1.0083008c-0.3147278,0.1849823-0.8150826,0.091301-1.0187988-0.2993164
		l-2.7663574-5.0942383C57.0373116,44.2799606,57.1669502,43.8302536,57.5365791,43.6305466z M67.4049911,46.2072067
		c0.1696777,0.3701172,0,0.8193359-0.3793945,0.9892578c-0.4001236,0.1600456-0.8326111-0.015152-0.9892578-0.3793945
		l-2.5866737-5.7636719c-0.1696777-0.3691406,0-0.8188477,0.3793945-0.9887695c0.3796425-0.1694336,0.8190956,0,0.9887733,0.3793945
		L67.4049911,46.2072067z M41.6427803,43.7003708c-1.8493423,1.4642448-1.7586327,1.4389229-3.8666992,2.2548828
		c-10.6055336,4.1603546-15.3627949-9.5962257-5.4331055-13.1171875c1.9589844-0.6948242,4.0844727-0.9433613,6.145752-0.7197266
		c2.1044922,1.4453125,3.8269043,3.4887695,4.869873,5.8154297c0.125,0.2783203,0.3984375,0.4433594,0.6850586,0.4433594
		c0.5352058,0,0.9087601-0.556469,0.684082-1.0576172c-1.1828613-2.6376953-3.1530762-4.9482422-5.5603027-6.5537128
		c-2.7115555-6.6939602,5.0325089-12.772068,10.8901367-8.5009766c-0.4592285,2.5830078,0.279541,5.359375,2.0187988,7.3378906
		c0.6428833,0.7317028,1.7862129-0.2391472,1.1269531-0.9902344c-3.5076828-3.9886818-1.4526024-10.7717724,3.4345703-12.8486319
		c5.829895-2.4782057,11.920002,2.5307035,10.6372108,8.2910147c-0.6025391,2.7583008-2.9511719,5.0341797-5.5839882,5.4121094
		c-0.5808411,0.0829773-0.8475571,0.7751236-0.4663086,1.2260742c1.951416,2.3110371,3.6748085,4.7749043,5.1579628,7.3251972
		c-2.9616737,0.762207-5.8569374,1.9321289-8.6267128,3.5151367c-3.5703125,2.0585938-8.4025879,5.484375-11.652832,8.7709961
		l-3.3310547-6.362793C42.5548248,43.5263634,42.0134163,43.409008,41.6427803,43.7003708z M46.2384834,92.3556442
		c0.7203484-8.6581039,1.5855598-13.7129593,5.4897461-23.6977539c1.590641,3.7322998,4.1449928,5.2329102,6.7412109,5.2329102
		c1.2314034,0,4.1021309-0.4455872,5.5649452-1.3081055c1.6995392,2.7133026,2.8091736,5.0677338,3.7529297,7.7763672
		l-14.4506874-3.675293c-0.4023438-0.1035156-0.8100586,0.140625-0.9121094,0.5419922s0.140625,0.8095703,0.5419922,0.9116211
		l14.851078,3.7768555l-2.1313477,10.0703125l-15.1606483-4.4267578c-0.3964844-0.1162109-0.8149414,0.1123047-0.9301758,0.5097656
		c-0.1162109,0.3974609,0.1118164,0.8139648,0.5092773,0.9301758l15.9409218,4.6547852
		c0.4355011,0.1226807,0.8580093-0.1492538,0.9448242-0.5683594l0.0527344-0.2495117
		c1.7021942,0.0891495,1.9179077,0.0754929,3.3496094,0.0185547c0.9269333,8.2736969,1.0384979,15.7821198-0.434082,25.2016602
		c-7.9929352,0.4836578-15.9987144-0.0426559-23.897953-1.3378906
		C45.7741623,114.6354523,45.6238747,99.5017242,46.2384834,92.3556442z M79.8454208,116.9484177
		c-3.0884247,0.5215149-5.4003067,0.7791519-8.3537598,0.9956055c1.4562531-9.5319748,1.3039856-17.0759964,0.4008789-25.1762695
		c2.185791-0.1645508,4.2399902-0.5214844,6.0114746-1.0400391c1.2690582,5.9237823,1.5794296,7.3817139,1.855957,14.5283203
		C79.7622299,106.358017,80.1235352,114.8200531,79.8454208,116.9484177z M105.5185165,77.1735153
		c-1.4681396-2.1700668-4.5647659-2.0499039-4.4645996-2.0288086c-2.2976074,0-5.5693054,1.1128464-6.0019531,0.1518555
		c-0.0784454-0.1735382-0.100296-0.3417816,0.3691406-1.4536133c13.1340637-0.7176285,30.5887909-6.9337463,29.3256836-14.2802734
		c-0.0170898-0.0981445-0.0375977-0.1953125-0.0615234-0.2910156c3.7451401,1.5153313,5.7594986,3.9535599,3.3955002,7.3041992
		C125.0500107,70.8732224,116.1381454,75.0226364,105.5185165,77.1735153z"/>
	<path d="M108.9367294,67.4161911c5.0669937-0.8726883,4.3903427-4.7610207-0.6708984-3.8916016
		c-1.8286133,0.3154297-3.6918945,1.2631836-3.4619141,2.5996094
		C105.0587082,67.6066513,107.4291458,67.6771469,108.9367294,67.4161911z"/>
	<path d="M101.1056747,60.4523239c1.1577148-0.5214844,1.3354492-1.1499023,1.2807617-1.5854492
		s-0.3833008-1.0004883-1.6352539-1.2172852c-1.950798-0.3390312-6.4589767,0.3162727-6.21875,2.2104492
		C94.7706909,61.7576027,99.3232956,61.2563515,101.1056747,60.4523239z"/>
	<path d="M112.9123154,60.7062302c2.3261719,0,4.6733398-0.6489258,4.6733398-2.0986328
		c0-1.4492188-2.347168-2.0986328-4.6733398-2.0986328C106.6583481,56.5089645,106.6553268,60.7062302,112.9123154,60.7062302z"/>
	<path d="M92.6071396,37.7960739c0.3701172-0.1855469,0.5195313-0.6357422,0.3339844-1.0063477
		s-0.6362305-0.519043-1.0068359-0.3344727c-1.3271484,0.6660156-2.2348633,2.1459961-2.3681641,3.8632813
		c-0.228302,2.9368477,1.522171,5.2786789,2.0717773,7.8212891c0.4267578,1.9746094,0.0888672,4.109375-0.9272461,5.8554688
		c-0.2919312,0.5004425,0.0727844,1.1269531,0.6474609,1.1269531c0.2578125,0,0.5092773-0.1333008,0.6484375-0.3730469
		c1.2026367-2.0654297,1.6025391-4.5898438,1.097168-6.9267578c-0.5577545-2.5805168-2.2316589-4.9535141-2.0424805-7.3876953
		C91.153038,39.2570114,91.7594833,38.2208786,92.6071396,37.7960739z"/>
	<path d="M100.3664169,28.8771267c-0.3334961-0.2451172-0.8032227-0.1733398-1.0483398,0.1601563
		c-1.2133789,1.6494141-1.8164063,3.7666035-1.6542969,5.8085957c0.2134247,2.6959953,1.9146194,5.6308212,1.8134766,8.1210938
		c-0.0527344,1.3076172-0.6230469,2.4697266-1.487793,3.0341797c-0.3466797,0.2265625-0.4443359,0.6914063-0.2177734,1.0380859
		c0.227562,0.3498573,0.6959915,0.4423103,1.0380859,0.2177734c1.2827148-0.8369141,2.0927734-2.4179688,2.1665039-4.2285156
		c0.1303635-3.2045593-1.5868149-5.393177-1.8173828-8.3012695c-0.1337891-1.6879883,0.3647461-3.4379902,1.3671875-4.8012714
		C100.7716904,29.5919704,100.699913,29.1227322,100.3664169,28.8771267z"/>
	<path d="M108.4738388,36.00457c0.4130859-0.034668,0.7192383-0.3979492,0.6845703-0.8105469
		c-0.0351563-0.4130859-0.4057617-0.7192383-0.8105469-0.684082c-2.1474609,0.1816406-3.59375,2.1582031-3.9125977,4.0166016
		c-0.3242188,1.8896484,0.25,3.7480469,0.8549805,5.3164063c0.6130905,1.5883522,2.0094452,4.584034,1.4003906,6.1772461
		c-0.1611328,0.4199219-0.4848633,0.7387695-0.8251953,0.8120117c-0.9572678,0.2078476-0.6689377,1.6730232,0.3173828,1.4667969
		c0.8349609-0.1811523,1.5664063-0.8486328,1.9082031-1.7426758c1.3216248-3.4515038-2.8211746-8.0241051-2.1772461-11.7763672
		C106.1296005,37.5211716,107.1003036,36.1207809,108.4738388,36.00457z"/>
	<path d="M65.6808701,77.3995895c0,0,0-0.0004883,0-0.0009766c-0.1616898-1.2662582-1.3893204-1.5654297-1.9682655-0.815918
		c-0.4640007,0.5974503-0.3290749,1.6377258,0.2651367,2.097168C64.732605,79.2665405,65.8383789,78.6525345,65.6808701,77.3995895z
		"/>
	<path d="M67.9992294,98.9049606c0.6676102-0.8596268,0.0663986-2.4575653-1.0239258-2.3129883
		c-1.0989838,0.1403275-1.2717285,1.8297882-0.4150391,2.4951172
		C67.0215225,99.4446564,67.6422806,99.3657608,67.9992294,98.9049606z"/>
	<path d="M66.4713974,110.8683395c0.0883789,0.7004395,0.5961456,1.2970963,1.2871094,1.2148438
		c1.1041107-0.1397858,1.268837-1.8343658,0.4155273-2.4956055
		C67.416748,108.9996796,66.3121872,109.6212387,66.4713974,110.8683395z"/>
	<path d="M68.4460068,49.976738c-1.3072205,1.0020447,0.6601181,3.5583611,1.9624023,2.5625
		C71.7094498,51.5432777,69.7515488,48.9750977,68.4460068,49.976738z"/>
</g>
</svg>
