<?xml version="1.0" encoding="utf-8"?>
<!-- Generator: Adobe Illustrator 22.0.1, SVG Export Plug-In . SVG Version: 6.00 Build 0)  -->
<svg version="1.1" id="Layer_1" xmlns="http://www.w3.org/2000/svg" xmlns:xlink="http://www.w3.org/1999/xlink" x="0px" y="0px"
	 viewBox="0 0 156 156" style="enable-background:new 0 0 156 156;" xml:space="preserve">
<g id="Tossing_Food">
	<path d="M114.5269928,60.3949509l1.6608887,1.4633789c3.7783966,2.8298187,10.0686417-0.0691338,14.1523438-2.4223633
		c1.2468262-0.9686966,9.5726318-5.0369301,9.1757813-11.0063477c-0.0112-0.162365,0.1134796,0.3336449-2.5536499-8.5344238
		c-0.0343628-0.2839355-0.1134033-0.5483398-0.2564087-0.7819824c-3.4811554-6.0786285-31.4325409,10.0663605-27.9594727,16.1308594
		c0.182373,0.3251953,0.4816895,0.5893555,0.8378906,0.7958984c0.0001831,0,0.0003052,0.0002441,0.0004883,0.0004883
		l0.1282959,0.1130371c-0.8532715,0.793457-1.7613525,1.5026855-2.7081299,2.1335449
		c-0.2412109-0.1955566-0.5291748-0.3398438-0.8435059-0.3989258c-1.0465851-0.2292824-3.6519318,0.3675232-5.6630859,2.2138672
		c-1.2028656,1.1199074-1.9534225,2.4230804-4.0473633,2.3535156c-0.1442871-0.005127-0.2980957-0.0097656-0.4575195-0.0080566
		c0.0385742-0.201416,0.0712891-0.40625,0.1108398-0.6066895c0.0703125-0.3569336-0.1254883-0.7124023-0.4643555-0.8442383
		c-6.1935883-2.4029388-6.0215225-1.5806961-14.5888672-7.2602539c-4.7676392-3.0384789-9.6142426-6.4914207-15.779541-7.2470703
		c0.0308838-1.1638184-0.1132813-2.3662109-0.4101563-3.6235352c0.0288086,0.003418,0.0557861,0.0175781,0.0847168,0.0175781
		c0.1806641,0,0.3618164-0.0649414,0.5058594-0.1962891c2.3485336-2.1454048,3.3396759-6.0094109,1.7226563-8.4277344
		c-1.4404907-2.1535225-4.4771843-2.3813858-6.010498,0.2907715c-0.0239258-0.0334473-0.0473633-0.0681152-0.0712891-0.1010742
		c0.125-0.0769043,0.2347412-0.1757813,0.2976074-0.3122559c0.287735-0.6283226-0.0211411-0.4422874-4.880127-10.144289
		c0.0048828-0.0102539,0.0043945-0.0222168,0.008667-0.0327148c4.0566788-4.9242764,1.8157272-10.7421236-5.4200439-10.3039541
		c-1.7524948,0.1210947-3.4608917,0.5847492-4.5639648,1.9614258c-3.5846214-2.8364782-9.2878265-0.8718853-9.9448242,3.9965811
		c-4.9532719-0.2970219-8.5267563,4.9060688-6.3251953,9.4892578c-1.3066406,1.1069336-2.4638672,2.9580097-2.2841797,4.8969746
		c0.1860352,2.1635742,1.9423828,4.0449219,4.0073242,4.2836914c2.2574997,0.2363625,4.1157722-1.2050018,5.581543-2.9272461
		l4.5332031,9.5063477c-3.79953,1.5645103-2.8198776,7.5776367,2.1103516,7.5776367
		c0.9311523,0,1.8623047-0.2470703,2.6660156-0.7211914c0.1184082-0.0698242,0.1993408-0.1723633,0.2619629-0.2844238
		c0.1550369,0.1615868,0.3294716,0.4073143,1.0476074,0.9995117c-5.9471893,4.92202-5.6180038,13.2787323-8.3579102,19.501709
		c-2.0058594,4.5610352-5.6264648,8.1923828-9.128418,11.7036133c-0.3229904,0.3250427-0.2818298,0.8597794,0.0830078,1.1308594
		c0.2130127,0.1589355,0.6428223,0.4819336,1.1950684,0.8977051c-0.2346191,0.1784668-0.4870605,0.3476563-0.7561035,0.5041504
		c-1.0742912,0.5963135-3.1955833,0.4317169-5.0595703,3.3039551l-6.269043-2.8850098
		c-1.1259766-0.5097656-2.4682617-0.0146484-3.0004883,1.1113281l-0.2246094,0.4897461
		c-0.5097656,1.1240234-0.0146484,2.4682617,1.1113281,3.0004883l6.8603516,3.1455078
		c-0.0856838,0.9172897-0.1721687,2.1756134,0.1640625,2.9726563c0.3482704,0.7779694,1.1427612,1.2915268,1.9611816,1.1303711
		c4.8040028,1.7374573,11.0737457,6.4158173,21.3688965,5.5610352l3.3989258-0.2739258
		c0.7254829-0.0589142,0.9483414-1.0157013,0.3276367-1.3896484l-14.7421875-8.8959961
		c0.8980713-0.5405273,1.5622559-1.3781738,2.1204834-2.2954102c0.355835,0.269043,0.5806885,0.4389648,0.5806885,0.4389648
		c0.3274193,0.2470398,0.7912483,0.1847458,1.0419922-0.1357422l9.1120605-11.6142578
		c6.6434975,29.0626984,6.0469513,27.6073761,6.5087891,27.9326172
		c-9.5579376,21.1863785-9.5761108,20.3019485-9.2402344,20.9428635c0.213871,0.4080963,0.6403542,0.3834534,0.7406006,0.4157715
		c-1.1386108,1.2144012-1.779129,1.4444427-11.526123,6.7878418c-0.3753662,0.2028809-1.369751,0.7509766-1.4306641,1.7553711
		c-0.0609131,0.9538574,0.7000732,1.8974609,1.6741943,2.0495605c5.9456787,0.9133301,14.9047852-0.4057617,18.2734375-1.6335449
		c0.0710449,0.5378418,0.1420898,1.1159668,0.192749,1.4609375c0.0506592,0.3654785,0.3551025,0.6494141,0.7203369,0.659668
		c0.1006241,0.0037384,6.1358376,0.2273254,5.7529297,0.2131348c0.3552246,0,0.6696777-0.2536621,0.7407227-0.6088867
		c0.5681152-2.6787109,0.5073242-5.7429199-0.1420898-8.5734863l0.1218262,0.0202637
		c0.3753662,0.060791,0.7203369-0.1623535,0.8320313-0.517334l7.2097168-22.4309006l1.1914063,22.136467
		c0.0202637,0.4160156,0.3549805,0.7304688,0.7912598,0.720459l0.6799316-0.0305176
		c-1.1567383,3.3076172-1.440918,7.2749023-0.7305908,10.6435547c0.0710449,0.3449707,0.3856201,0.5986328,0.7406006,0.5986328
		c1.9759064-0.0695496,6.0228653-0.2120209,5.7631836-0.2028809c0.3652344-0.0102539,0.6696777-0.2941895,0.7203369-0.659668
		c0.0136566-0.1076813,0.1725311-1.359848,0.192749-1.4611816c3.3583984,1.2277832,12.317627,2.546875,18.2836914,1.6235352
		c0.973877-0.1623535,1.7248535-1.0957031,1.6639404-2.0393066v-0.0100098
		c-0.0811768-0.9946289-1.0349121-1.5219727-1.4407959-1.7556152c-9.2485275-5.0467224-10.8484726-5.7543335-11.9016113-7.2646484
		c0.3145752-0.1013184,0.52771-0.385498,0.52771-0.7307129l-0.3105469-29.9064865
		c0.4678955-0.3237305,0.9127197-0.6496582,1.3299561-0.9899902c0.3773727-0.1804199,0.5865326-0.6948776,0.3500977-1.09375
		l-8.0075684-27.5827637c13.9031754,3.0106049,13.1310959,2.8649902,13.2839355,2.8649902
		c0.3709106,0,0.6790848-0.2690277,0.7392578-0.6240234c0.0253906-0.1486816,0.0488281-0.2978516,0.0738525-0.4465332
		c2.3784409,0.932724,4.6206436,1.9841309,7.168335,1.9841309c5.7833786,0,8.6190033-5.3997192,4.7779541-8.5224609
		c2.9372559-1.206543,5.6566772-2.8933105,8.1131592-5.0493164L114.5269928,60.3949509z M120.8455963,43.9193649
		c5.4741211-3.1635742,10.2382813-4.6206055,12.7763672-4.6206055c0.686554,0,1.8344574,0.1318665,1.8666992,0.8198242
		c0.231842,4.9458237-20.135704,17.1552925-25.0820313,14.6821289c-0.1669922-0.0810547-0.2919922-0.184082-0.3549805-0.2958984
		C109.270401,53.1410446,112.9989166,48.4540329,120.8455963,43.9193649z M61.8202057,52.0262985
		c0.1831055,0.5146484,0.2836914,1.019043,0.300293,1.5058594c0.1207542,3.9396019-4.4842873,4.2012978-6.5957031,1.1083984
		C57.5213776,54.4372673,59.6833229,53.6289597,61.8202057,52.0262985z M62.1532135,35.9652634
		c0.8534279-2.3102188,2.7979965-2.3305244,3.7749023-0.8720703c0.9690933,1.4499931,0.6825638,4.4467087-1.4387207,6.4326172
		c-0.6587868-2.0758018-1.5508842-4.0470543-2.3791504-5.4912109
		C62.1226959,36.0099411,62.1433258,35.9918747,62.1532135,35.9652634z M43.055069,43.3744431l-2.5795898-5.409668
		c5.8742676-4.9135742,11.5083008-7.6655293,17.2006836-8.4121113l1.9370117,3.7773457
		C53.4959602,34.9600105,47.4307442,38.8979454,43.055069,43.3744431z M32.1522369,36.7924118
		c-1.3510742-0.15625-2.5517578-1.4667969-2.6777344-2.9262695c-0.2934322-3.1741257,3.6665802-4.7713585,3.7666016-4.8564472
		c0.3754883-0.1748047,0.5380859-0.6210938,0.362793-0.996582c-0.1743164-0.375-0.6201172-0.5380859-0.996582-0.362793
		l-1.111084,0.5175781c-1.5756836-3.8767834,1.8329048-7.6501865,5.536377-6.9848633
		c1.0052338,0.3156433,0.863102,1.0507813,1.5834961,1.0507813c0.5866966,0,0.9573479-0.657938,0.6259766-1.1621094
		c-0.2926025-0.4453125-0.7056885-0.8051758-1.1743164-1.0622559c0.3367996-4.0421982,5.2258186-5.4254055,7.7906494-2.9750977
		c-0.1334229,0.5432129-0.196167,1.1044922-0.1661377,1.6623535c0.0214577,0.3905392,0.3444824,0.7243919,0.7895508,0.7084961
		c0.4135742-0.0224609,0.730957-0.3759766,0.7084961-0.7895508c-0.1309013-2.4206295,1.5999451-3.2962151,4.0058594-3.463378
		c5.898304-0.3505745,7.4279289,3.9116926,4.1223145,7.8886709c-2.1777344,0.7224121-4.5209961,1.0087891-6.8034668,0.8037109
		c-0.4165039-0.0361328-0.7768555,0.2675781-0.8139648,0.6801758c-0.0366211,0.4125977,0.2675781,0.7768555,0.6801758,0.8139648
		c2.3164444,0.2073174,4.595314-0.0437565,6.7841797-0.6821289l1.7915039,3.4936523
		c-5.7043457,0.8649902-11.3300781,3.6254883-17.1442871,8.4248066L38.577774,33.985527
		c0.7075195-1.2819824,1.0944824-2.755373,1.0617676-4.2175312c-0.0092773-0.4140625-0.3427734-0.7207031-0.7670898-0.7329102
		c-0.4140625,0.0092773-0.7421875,0.3525391-0.7329102,0.7670898c0.0291748,1.2988281-0.3325195,2.6162128-1.0112305,3.7243671
		C35.8872185,35.0790863,34.2723007,37.0113106,32.1522369,36.7924118z M46.1165924,50.4271774
		c-2.1286621,1.2582588-5.0720482,0.1024017-4.8227539-2.269043c0.1455727-1.3751564,1.4995728-2.2168846,1.8803711-1.9399414
		c0.135376,0.1005859,0.2937012,0.135498,0.4505615,0.1345215c0.7119141,1.4455566,1.6142578,2.8442383,2.5892334,4.0407715
		C46.181778,50.4069138,46.1473541,50.409111,46.1165924,50.4271774z M44.3729401,44.1769333
		c4.1480484-4.1480484,9.5092659-7.6510735,15.1951904-9.2692871c1.1958008,1.5336914,2.2318115,3.5444336,3.2364502,6.2758789
		c0.6864471,1.8793869,1.1196632,3.9693604,0.9414063,5.9399414c-0.2468796,2.9370461-8.9461517,9.7264709-15.2460938,3.5756836
		C46.5518303,48.7900047,44.8457108,45.8642998,44.3729401,44.1769333z M18.0355377,88.8143845l0.2197266-0.4790039
		c0.1812515-0.3831635,0.6397457-0.5510712,1.0170898-0.3798828l6.1865234,2.8466797
		c-0.2348061,0.5552292-0.4948101,1.4526291-0.6020508,1.984375l-6.4418945-2.9536133
		C18.0330963,89.6522751,17.8636627,89.1942673,18.0355377,88.8143845z M48.0145416,102.5072556
		c-9.742672,0.8093185-15.7286339-3.6086044-19.8935547-5.1064453c0.2513103-0.391655,0.3893871-0.7602234,2.3642578-4.9423828
		c1.4153023,0.8929291,3.0964851,1.6823959,4.7207031,1.5805664l13.8891602,8.3813477L48.0145416,102.5072556z
		 M30.6092682,90.7387009c-0.3805771-0.266716-0.9105473-0.125824-1.1083984,0.293457
		c-2.6038189,5.5019989-2.6233196,5.7704849-3.027832,5.9428711c-0.0844727-0.0019531-0.222168-0.1083984-0.2910156-0.2617188
		c-0.2542915-0.6050415-0.1562729-3.6443558,0.8027344-5.6479492c1.2303562-2.6606445,3.4974136-3.0124664,3.5981445-3.065918
		c0.947298-0.2592392,1.5251427-0.4825439,2.6201172-1.4101563c1.5432129,1.1635742,3.4584961,2.6096191,4.8354492,3.6494141
		C36.6044312,92.6618881,34.8262596,93.6972046,30.6092682,90.7387009z M58.4867096,133.0541229
		c-3.0396118,0.4022827-6.0029411-0.0843658-8.5532227-1.2883301c-0.385498-0.1726074-0.5478516-0.6291504-0.3652344-1.0043945
		c0.1723633-0.3857422,0.6290283-0.5480957,1.0146484-0.3654785c2.3640137,1.105957,5.0933838,1.5219727,7.690918,1.1467285
		c0.4158936-0.0610352,0.8015137,0.2333984,0.8623047,0.6491699
		C59.1970367,132.6078339,58.9027252,132.993576,58.4867096,133.0541229z M84.7960358,133.7340546
		c-2.7516632,1.2783661-5.884903,1.6728668-8.5634766,1.2785645c-0.4160156-0.0610352-0.6999512-0.4462891-0.6391602-0.8625488
		c0.0507813-0.4160156,0.4362793-0.6999512,0.8522949-0.6491699c2.5974121,0.3752441,5.3267822-0.0407715,7.7010498-1.1467285
		c0.3856201-0.1826172,0.8319092-0.0202637,1.0145264,0.3652344
		C85.3338776,133.0946503,85.171524,133.5516815,84.7960358,133.7340546z M79.7725983,68.6674118l-2.5559082-8.8041992
		c-0.1157227-0.3979492-0.5322266-0.628418-0.9291992-0.5112305c-0.3979492,0.1152344-0.6269531,0.5317383-0.5112305,0.9291992
		l10.9511719,37.7226563c-8.8050613,6.9454422-26.8000717,7.9193192-29.2229004,8.3537598l-0.0031738,0.0002441
		l-8.3178711-36.8422852c-0.0913086-0.4042969-0.4892578-0.6591797-0.8964844-0.5664063
		c-0.4042969,0.0913086-0.6577148,0.4926758-0.5664063,0.8964844l1.8295898,8.104248l-9.4116211,11.9953613
		c-11.7381916-8.868309-0.5721588-0.447937-7.7641602-5.8579102c3.2729492-3.2910156,6.8354492-7.0126953,8.8295898-11.5473633
		c2.7680702-6.2878952,2.4271927-13.8175545,7.4516602-18.5334473c3.7431641,2.9729004,8.2441406,4.9760742,12.9663086,5.730957
		c0.0461426-0.0541992,0.0847168-0.1123047,0.1303711-0.166748l7.7456055-0.2890625l9.0800781,35.8896484
		c0.1018906,0.4029236,0.5105591,0.643898,0.9111328,0.5429688c0.4013672-0.1015625,0.6445313-0.5092773,0.5429688-0.9111328
		l-9.2290039-36.4775391c-0.0869141-0.3427734-0.4257813-0.5820313-0.7548828-0.5654297l-7.1276855,0.2658691
		c2.0240479-2.9399414,3.1940918-6.2902832,3.355957-9.8676758c5.3836746,1.0146713,9.817894,4.1846466,13.9460449,6.8283691
		c8.2545624,5.472065,8.7270355,5.1104698,14.2895508,7.1860352c-0.5964966,3.1158752-1.1763,6.8803024-1.5888672,9.3481445
		L79.7725983,68.6674118z M100.4876862,72.518486c-1.9449615-0.2528381-3.4679337-1.0022049-5.8918457-1.9355469
		c0.1142502-0.692543,1.003952-5.3096085,1.076416-5.9013672c0.0209961-0.1733398,0.0668945-0.5473633,0.1352539-0.7260742
		c0.7264481-0.0578079,2.0763245,0.3137283,3.8725586-1.0073242c1.3487701-0.9979553,2.3442154-2.9839363,5.4760742-3.559082
		c0.2703247-0.051239,0.7750702-0.1176338,0.9511719,0.0927734c0.0014648,0.0043945,0.0024414,0.0092773,0.0039063,0.0136719
		c-0.0004883,0.1333008-0.2558594,0.4794922-0.378418,0.6459961c-0.3073044,0.4069481-1.392952,2.0803223-3.4580078,4.2304688
		c-0.394989,0.4117966-0.2030182,1.09729,0.3476563,1.2441406c0.949295,0.2511597,1.9251785,0.4761581,2.6816406,1.0717773
		C108.2803879,69.0347977,105.520134,73.153801,100.4876862,72.518486z"/>
	<path d="M60.8578033,64.8817673c-0.190918-0.9663086-0.9804688-1.5947266-1.8051758-1.434082
		c-0.8212891,0.1625977-1.3144531,1.046875-1.1235352,2.0136719c0.1708984,0.8642578,0.8232422,1.4594727,1.546875,1.4594727
		C60.4054832,66.9208298,61.0761108,65.9872589,60.8578033,64.8817673z"/>
	<path d="M67.3475494,63.3900681c-0.190918-0.9663086-0.9829102-1.5957031-1.8051758-1.434082
		c-0.7979355,0.158493-1.3174591,1.0321465-1.1235352,2.0131836c0.1904755,0.9635696,0.9919052,1.5955887,1.8041992,1.434082
		C67.0825729,65.2346878,67.5275345,64.3004456,67.3475494,63.3900681z"/>
	<path d="M62.9632721,74.7738571c-0.190918-0.9663086-0.9790039-1.5942383-1.8051758-1.434082
		c-1.3002968,0.2582779-1.5489159,2.1587601-0.5419922,3.078125C61.7182579,77.4243851,63.2828789,76.3923264,62.9632721,74.7738571
		z"/>
	<path d="M68.8714752,72.2172165c-1.0886841-0.994545-2.671257,0.0028763-2.347168,1.644043
		c0.1819382,0.9200745,0.9457626,1.6030655,1.8051758,1.434082C69.6182938,75.0393448,69.8850708,73.1426697,68.8714752,72.2172165z
		"/>
	<path d="M63.2635651,83.2313766c-0.8212891,0.1625977-1.3144531,1.046875-1.1235352,2.0136719
		c0.1819344,0.9200745,0.9457588,1.6030655,1.8051758,1.434082c0.8296814-0.1648026,1.3102646-1.0685425,1.1235352-2.0131836
		C64.8773346,83.6996384,64.0809479,83.0692673,63.2635651,83.2313766z"/>
	<path d="M69.7533112,81.7396774c-0.8212891,0.1625977-1.3144531,1.046875-1.1235352,2.0136719
		c0.1708984,0.8642578,0.8232422,1.4594727,1.5463867,1.4594727c0.9236374,0,1.6020203-0.9265442,1.3823242-2.0390625
		C71.3688126,82.2142181,70.569519,81.5786667,69.7533112,81.7396774z"/>
	<path d="M50.3905182,42.6044235c0-0.0004883,0-0.0004883,0-0.0004883c-0.8438835-2.0726967-3.2531891-1.0959892-2.4091797,0.980957
		C48.8269691,45.6613045,51.2346649,44.6805687,50.3905182,42.6044235z"/>
	<path d="M57.9608307,38.8905563c-0.8424339-2.0646782-3.2520905-1.0898399-2.4091797,0.9804688
		C56.3999023,41.9499588,58.79636,40.9470863,57.9608307,38.8905563z"/>
	<path d="M54.6620026,45.5682907c1.1808662,0.6380272,2.6574821-0.5515404,1.7895508-1.359375
		c-0.3022461-0.2827148-0.793457-0.2636719-1.0761719,0.0395508c-0.1137619-0.0612564-0.2127724-0.3159142-1.3686523-2.7250977
		c-0.1787109-0.3740234-0.6274414-0.5317383-1.0004883-0.3520508c-0.3735352,0.1791992-0.53125,0.6269531-0.3520508,1.0004883
		C53.9245224,44.8193321,54.0283585,45.2263031,54.6620026,45.5682907z"/>
	<path d="M54.9359283,47.9833298c-0.3847656-0.1542969-0.8212891,0.0317383-0.9755859,0.4169922
		c-0.1538086,0.3847656,0.0327148,0.8212891,0.4169922,0.9755859c3.4309959,1.3752937,6.3147964-2.6424484,4.6655273-3.2446289
		c-0.387207-0.1411133-0.8193359,0.0585938-0.9614258,0.4477539C57.6194954,47.8457375,56.1880341,48.4860382,54.9359283,47.9833298
		z"/>
	<path d="M107.7435455,45.525322c1.2115021,1.2809982,3.4408569,0.3540306,3.9072266-1.1655273
		c0.2329102-0.7587891-0.0649414-1.6650391-0.6420898-2.2143555c0.4472656-2.0419693-1.6593246-3.5017929-3.362793-2.6391602
		c-0.3984375,0.2006836-0.7050781,0.5307617-0.8769531,0.9189453c-1.9570084,0.1408653-3.0343323,1.9564629-2.1030273,3.6328125
		C105.2613983,45.1295891,106.47715,45.7426682,107.7435455,45.525322z"/>
	<path d="M103.4574127,13.8475866c-0.3369141,0.1704102-0.6010742,0.4428711-0.7607422,0.765625
		c-0.3081055,0.0297852-0.6000977,0.1083984-0.8647461,0.2338867c-2.4025345,1.1443653-0.9675064,4.6843119,1.7211914,4.2934561
		c1.1279221,1.1082706,3.0453262,0.2162247,3.4399414-1.0717773c0.206543-0.6723633-0.0322266-1.4487305-0.5234375-1.9414063
		C106.7980194,14.3340111,104.9537964,13.0891094,103.4574127,13.8475866z"/>
	<path d="M84.0692291,17.485281c-1.2628632-1.3550472-3.6915741-1.1054497-4.3325195,0.5820313
		c-0.4956055,0.0209961-0.9638672,0.1323242-1.3789063,0.3300781c-3.2841644,1.5572624-1.1160126,6.4190521,2.5410156,5.6743164
		c1.3883057,1.6240253,4.1062164,0.4539051,4.6479492-1.3105469c0.2822266-0.9213867-0.105957-2.0292969-0.8344727-2.6577148
		C84.9491119,19.1967068,84.7191315,18.1815701,84.0692291,17.485281z"/>
	<path d="M113.5365143,28.0629177c0.8375931-1.8476315,0.3428726-3.7154846-0.0976563-5.4716797
		c-0.1708908-0.6986027-1.1532593-0.7874718-1.4262695-0.097168c-0.7285156,1.8461914-2.3149414,3.7314453-4.1401367,4.9204102
		c-0.2612305,0.1699219-0.3901367,0.4838867-0.3237305,0.7880859
		C108.1318893,30.8766479,112.1211853,31.1874733,113.5365143,28.0629177z M109.2176666,28.3070583
		c1.2480469-0.9145508,2.371582-2.1083984,3.2055664-3.3842773
		C112.9427567,28.5111313,110.2037354,29.5825844,109.2176666,28.3070583z"/>
	<path d="M93.5423737,29.5365505c-0.3217773-0.0273438-0.628418,0.1689453-0.7485352,0.4726563
		c-0.7290039,1.8461914-2.3154297,3.7314472-4.1401367,4.9199238c-0.2612305,0.1699219-0.3901367,0.4838867-0.3237305,0.7880859
		c0.7587128,3.4790344,6.8424149,2.756279,6.418457-2.9619141c-0.0566406-0.7690449-0.2480469-1.5312519-0.4335938-2.2685566
		C94.2574539,30.3675404,94.2530823,29.5844994,93.5423737,29.5365505z M89.9989166,35.8217087
		c1.2475586-0.9145508,2.3710938-2.1083984,3.2055664-3.3842773C93.7241821,36.0269775,90.9837723,37.0988464,89.9989166,35.8217087
		z"/>
</g>
</svg>
