<?xml version="1.0" encoding="utf-8"?>
<!-- Generator: Adobe Illustrator 22.0.1, SVG Export Plug-In . SVG Version: 6.00 Build 0)  -->
<svg version="1.1" id="Layer_1" xmlns="http://www.w3.org/2000/svg" xmlns:xlink="http://www.w3.org/1999/xlink" x="0px" y="0px"
	 viewBox="0 0 156 156" style="enable-background:new 0 0 156 156;" xml:space="preserve">
<g id="Italian_Chef">
	<path d="M44.6431351,88.7588959c-2.4021568,3.8488235-3.1653481,3.6670456-6.1171875,4.1845703l-3.7099609,0.6552734
		c-0.5009766,0.0883789-1.675293,0.2954102-2.0605469,1.3208008c-0.2590027,0.6871643-0.0566063,1.5847549,0.7827148,2.262207
		c-0.7666283,1.1894302-0.6127014,2.6517563,0.5380859,3.5136719c-0.8072662,1.4510345,0.0205002,3.004837,1.4833984,3.3066406
		c0.5851021,1.1485443,2.6902962,0.9305344,4.0195313,0.734375c1.2519531-0.184082,2.4589844-0.5952148,3.5419922-1.2026367
		c0.6382217,1.916153,1.803894,2.6362534,3.0004883,2.6435547c0.1000824-0.0184937,0.8650322,0.0594101,1.5273438-0.59375
		c0.7016602-0.6938477,0.6640625-1.5102539,0.6367188-2.1064453c-0.0363655-0.7878952,0.0472336-1.0600739,0.4541016-2.0615234
		c1.6442871-4.0443268,3.4132309-8.9874725,8.1405029-15.2619629c0.1593018,0.104248,0.3006592,0.197998,0.3995361,0.2653809
		c0.3393555,0.230957,0.8032227,0.1469727,1.0380859-0.190918c1.4006271-2.0105362,2.8529625-4.1071472,5.0166016-7.2290039
		c0.6242638,2.1778336,0.7461472,3.5000687,0.9875488,5.7407227c-0.7047539-0.5247498-1.4190788-1.0214844-2.3483887-1.1625977
		c-1.9554939-0.2926331-3.2120171,1.4112091-2.5283203,2.7822266c0.4517937,0.9047623,1.442421,1.1159058,2.7402344,1.5566406
		c-1.2045212,0.6795578-2.2774391,1.6318817-2.0302734,2.9882813c0.1298828,0.7124023,0.6904297,1.2900391,1.3642578,1.4047852
		c1.2268486,0.213089,2.0111465-0.973175,3.1365967-1.9975586c0.0174255,8.3188324-3.0694618,21.3101654-5.8533936,39.1503906
		c-0.050293,0.3227539,0.1137695,0.640625,0.4057617,0.7866211l0.1784668,0.0893555
		c-1.6050301,6.0635376-1.9399986,6.7559204-1.614502,7.6650391c0.4557762,1.2756653,2.2673759,2.0074158,4.1386719,0.5639648
		c2.2412109,2.1420898,4.7626953,3.5083008,7.503418,4.0644531c3.1478729,0.6387024,4.346611-1.7988434,3.3017578-3.8012695
		c-1.2168961-2.3337555-3.9301453-2.1895294-5.2808838-4.4951172c0.0772705,0.0256348,0.1542969,0.0551758,0.2340088,0.0551758
		c0.1733398,0,0.3452148-0.0600586,0.4833984-0.1767578c6.0258789-5.0830078,10.7811279-12.1384277,13.4536133-19.9018555
		l1.2524414-0.1289063c1.9851074,5.7993164,3.5964355,12.2329102,4.784668,19.1445313
		c0.0612183,0.3566895,0.374588,0.6375275,0.7763672,0.6220703l0.4577637-0.0224609
		c0.429245,5.0799866,0.3544769,5.576889,0.9333496,6.2817383c0.8294296,1.0110626,2.7926636,1.1547546,4.0869141-0.8613281
		c2.8305664,1.2631836,5.6645508,1.7021484,8.4326172,1.3041992c0.7700195-0.1103516,1.7299805-0.3359375,2.328125-1.1054688
		c0.8720703-1.1225586,0.4213867-2.7353516-0.4970703-3.5854492c-1.9371338-1.793808-4.4731216-0.7424774-6.510498-2.467041
		l0.1047363-0.005127c0.3720703-0.0180664,0.6743164-0.3071289,0.7094727-0.6777344
		c0.3837891-4.0270996,0.0758057-12.9035645-0.4106445-20.1914063l1.9121094-0.1967773
		c0.3823242-0.0390625,0.6733398-0.3613281,0.6733398-0.7460938c0-12.1091309-5.744873-30.3666992-11.2131348-43.6679688
		c0.4236221-0.2180176-0.3299713,0.2174911,9.2038574-5.8115196c0.3656464-0.231987,0.4573135-0.7220039,0.2075195-1.0708008
		c-0.2285156-0.3183594-0.4616699-0.6269531-0.6955566-0.9350586c6.4566345-9.5831757,5.7855225-16.8943787,6.5979004-18.0649414
		c0.2116547-0.3073006,0.5680389-0.4604912,1.4970703-0.7502441c2.0690765-0.6463852,5.9976196-2.4054565,7.0444336-4.1564941
		l7.0410156,2.5429688c0.8792801,0.325985,1.8793716,0.0549507,2.1870117-0.779541l0.7592773-2.1086426
		c0.3043137-0.8292389-0.2919159-1.6838684-1.1704102-1.9929199l-1.2832031-0.4645996
		c2.5425644-6.0097027,0.1843948-13.1863422-5.6669922-16.8916016c0.4003448-0.8502216,0.375145-1.6961136,0.0595703-2.4404306
		c-1.0626831-2.505249-4.764946-2.4362192-5.6062012,0.2836914c-6.7429428-1.1674681-13.7187119,2.4940615-15.746582,9.2880869
		l-0.5866699-0.2124023c-1.0404434-0.3726521-1.9439545,0.1054096-2.1787109,0.7890625l-0.7734375,2.1203613
		c-0.2680664,0.7636719,0.2631836,1.6540527,1.1831055,1.984375l5.4335938,1.9650879
		c-0.3665771,0.6877441-0.315918,1.5422363-0.2832031,2.0268555c0.472168,6.4753418-2.0073242,13.6374512-6.4794922,18.8188477
		c-0.253418-0.1660156-0.5808105-0.171875-0.8339844,0.0024414c-3.1441879,2.1744461-7.1288071,3.9182205-11.5849609,4.8676758
		c1.256813-2.2442589,1.3577499-4.4713936,0.6774902-6.277832c-0.1612549-0.8598633-0.4970703-1.6782227-1.2121582-2.2617188
		c-0.1340332-0.2990723-0.2025146-0.5808105-0.1298828-0.8334961c0.1706848-0.6152573,1.2316971-1.4836006,0.8496094-2.659668
		c-0.2329102-0.6987305-0.9287109-1.1889648-1.8173828-1.2797852c-1.4157791-0.1387253-1.3762512,0.3957634-3.2041016-0.956543
		c-1.116333-0.8253136-2.2379837-1.4605141-3.8907471-1.8112793c-0.0902252-0.4682884,0.0453873-0.087925-8.7191162-8.0439453
		c1.1933594-0.4758301,2.1635742-1.6086426,2.5869141-2.8308105c1.6969681-4.791893-2.7302895-9.6040096-7.6660156-8.2695313
		c-2.0366211,0.5478516-3.6342773,1.8444824-4.378418,3.4938965c-8.3056107-4.7344189-17.3488388,4.4099064-13.2495117,12.737793
		c-1.8291016,1.0297852-3.0205078,3.1555176-2.8579102,5.2758789c0.3096275,3.850769,4.5460205,6.8642921,8.8198242,5.8322754
		c1.8979492-0.4609375,3.7211914-1.878418,4.7773438-3.6296387l5.4504395,7.3930664
		c-0.2545166,0.8776855-0.0529785,1.7751465,0.326416,2.6533203c-2.4765053,0.6659393-3.4386902,3.730793-1.2949219,5.5161133
		c0.7583008,0.6313477,1.7060547,0.8981934,2.5849609,0.7363281c1.4492493-0.2432938,0.2217445-0.5849953,4.1738281,0.3520508
		c0.7258072,0.1637154,1.5811501,0.5993767,2.4677734,0.2097168c0.0524902,0.0205078,0.1057129,0.0385742,0.1582031,0.0585938
		c-1.9909668,0.8024902-3.4101563,1.6984825-4.5395508,2.8706017c-4.0019836,4.1256256-6.1204453,10.1224899-8.6547852,15.0698242
		c-0.1755371,0.3417969-0.0615234,0.7587891,0.2591553,0.9680176C48.2390251,83.3365326,44.933754,88.292778,44.6431351,88.7588959z
		 M60.7876663,85.6900482c-0.0585938-0.1176758,0.0131836-0.3388672,0.1474609-0.4545898
		c0.8750916-0.7551193,2.8037567,0.8254929,3.59021,1.6704102c0.00354,0.0512695,0.0040283,0.1037598,0.0073242,0.1552734
		c-0.055542-0.0056152-0.1124268,0.0019531-0.1694336,0.0092773C61.3904419,86.0620575,60.9196243,85.9546127,60.7876663,85.6900482
		z M61.7710648,90.8306732c-0.0371094-0.0063477-0.1206055-0.0874023-0.1401367-0.1948242
		c-0.1500092-0.8263702,1.7772942-1.7216492,2.5761719-1.9814453
		C64.2070999,88.6544037,62.0681534,90.8763809,61.7710648,90.8306732z M71.3862991,139.5240326
		c0.4107132,0.7855225,0.3450089,2.0471344-1.6738281,1.6376953c-2.6459961-0.5371094-5.0776367-1.9291992-7.2275391-4.1376953
		c-0.2856369-0.2932281-0.7528534-0.3037415-1.0507813-0.0239258c-0.3691406,0.3461914-0.859375,0.7553711-1.3754883,0.8476563
		c-0.3662109,0.0654297-0.7851563-0.1010742-0.8740234-0.3500977c-0.1124268-0.3149261-0.0311279-0.4156494,1.5576172-6.4174805
		l4.921875,2.402832c-0.046875,0.8212891,0.4082031,1.7617188,1.3461914,2.7636719
		C68.3645935,137.6929016,70.6395111,138.0908203,71.3862991,139.5240326z M103.1426468,137.061142
		c0.4248047,0.3930664,0.6567383,1.1459961,0.331543,1.5644531c-0.2685547,0.3457031-0.8662109,0.4707031-1.3564453,0.5415039
		c-2.6713867,0.3823242-5.4311523-0.1088867-8.1987305-1.4658203c-0.3662109-0.1811523-0.8110352-0.0332031-0.9970703,0.3305664
		c-0.2460938,0.4785156-0.5585938,1.0029297-1.0102539,1.2612305c-0.3261719,0.1855469-0.7734375,0.1679688-0.9414063-0.0356445
		c-0.2037125-0.2494049-0.1710434-0.4077911-0.5932617-5.4047852l5.477417-0.2705078
		C97.2144318,136.5331268,101.6847839,135.7114563,103.1426468,137.061142z M70.9092484,113.9039154
		c0.3120117-9.8022461-0.0297852-17.2734375-1.0976563-24.1274414c-0.06073-0.3913956-0.4385986-0.6342773-0.7407227-0.6342773
		c-1.3557587,0-1.6381531-0.0885162-2.840332-0.1508789l-0.1313477-2.4736328
		c8.6095963-2.7778473,2.7092743-15.4807358-2.0263672-23.194088c0.2084961-0.0734863,0.4179688-0.1455078,0.6274414-0.2160645
		c0.1505203,0.0271072,0.6673431,0.1011391,1.1191406,0.128418c0.3098145,0.614502,0.744873,1.1738243,1.2827148,1.6477013
		l2.7460938,5.5671387c0.1375351,0.2797241,0.4956818,0.4843597,0.8520508,0.3967285l13.8491211-3.4121094
		c0.4672546-0.1147614,0.7088242-0.6356812,0.4892578-1.0686035l-4.345459-8.5356407
		c0.2761917-0.0791626,2.0303802-0.6527176,2.1313477-0.689209C89.7833481,70.71875,98.8691254,95.8148727,99.134346,111.0001068
		C95.5997391,111.3627243,90.3100739,111.9079971,70.9092484,113.9039154z M73.8084183,61.1714973
		c0.0825195,0.2079849,0.1419601,0.4600868,0.1595459,0.8037109c0.038002,0.7553673-0.2314606,1.155014-0.2554932,1.255127
		c0,0,0,0,0,0.0002441c-0.8690872,1.6226616-3.4028625,2.2924309-5.401123,0.7099609
		c-0.0496902-0.1004219-0.4010086-0.8103828-0.3513184-0.7099609C70.054512,63.0437088,72.184761,62.2416344,73.8084183,61.1714973z
		 M106.1441116,34.6336555c-0.2797852,0.1010742-0.5587158,0.2036133-0.8447266,0.2788086
		c-1.3164063,0.3532715-3.0556641,0.2180176-3.7661133-0.9196777c-0.2097626-0.3291626-0.3458633-0.7779045-0.4838867-1.2016602
		L106.1441116,34.6336555z M113.7417679,18.4190559c5.6921844,3.1989479,8.0653152,9.9397125,5.6607666,15.4858398
		l-24.1324463-8.7365723C97.5074844,17.4716644,106.7956696,14.3780441,113.7417679,18.4190559z M98.1470413,33.2249641
		c-0.0255508-0.3773956-0.0783234-1.3039742,0.2949219-1.376709l0.4801025,0.173584
		c0.718338,0.5245743,0.6727219,1.7206726,1.3426514,2.7717285c1.1176758,1.7883301,3.5307617,2.0766602,5.4199219,1.5686035
		c1.5029831-0.395813,2.2932739-0.9703636,4.7993164-1.7414551c0.6238861-0.1310005,1.7936172-0.1625595,1.8620605,0.4697266
		c0.0605545,0.4653206-0.117157,0.9884109-0.3366699,1.3442383c-0.3491211,0.5109863-0.9101563,0.9169922-1.4130859,1.246582
		c-3.9415741,2.58498-6.0377502,2.0651665-7.0893555,3.5917969c-1.2013855,1.7314529-0.2574844,8.3710327-6.3398438,17.6806641
		c-1.5849457-1.9296913-2.5872421-2.866806-5.7304688-5.9648438C96.0806351,47.5274544,98.6421585,40.018177,98.1470413,33.2249641z
		 M72.0235062,43.9554329c2.2732773,1.6820908,2.8396301,1.1323242,3.9453125,1.2431641
		c0.2661133,0.0270996,0.5053711,0.1420898,0.543457,0.2558594c0.0839767,0.2574615-0.6557999,1.0199966-0.8681641,1.782959
		c-0.1591797,0.5544434-0.0882568,1.0754395,0.0830078,1.5561523c-0.8947754,0.918457-2.6125488,1.861084-3.7509766,2.0119629
		c-0.5699844,0.0750504-0.8465576,0.7403145-0.4980469,1.197998c1.2618866,1.6561279,3.5326309,2.519062,5.8162842,1.7036133
		c-0.5583115,4.9967842-7.2793732,9.7968941-14.2095947,7.4467773c0.2969589-0.788784,0.3068008-1.4771805,0.513916-2.9213867
		c0.1003494,0.013134,0.1446419,0.0383301,0.269043,0.0383301c0.3808594,0,0.7070313-0.2888184,0.7451172-0.6757813
		c0.0410156-0.4123535-0.2597656-0.779541-0.671875-0.8205566c-0.7849808-0.078228-1.7536011-0.3213272-2.1290283-1.0146484
		c-0.2898865-0.5380592-0.223465-1.2158241-0.0496826-1.4604492c0.4454842-0.6131096,1.6376266-1.2012138,2.3945313-0.9890137
		c0.3969727,0.1103516,0.8125-0.1230469,0.9233398-0.5219727c0.1108398-0.3991699-0.1230469-0.8125-0.5219727-0.9233398
		c-0.1999512-0.0554199-0.4155273-0.0766602-0.6339111-0.0852051c-0.0288086-0.6830559-0.100174-2.1206093-0.2694092-2.7861328
		c1.9574127-2.0122986,3.6959076-4.4686852,4.8300781-6.6447754C69.9487381,42.6118584,70.9804535,43.1844788,72.0235062,43.9554329
		z M67.3579788,41.2515755c-2.5258179,5.0582695-6.6438141,9.0591888-11.456543,11.9848633l-6.4663086-8.7714844
		c2.4051514-0.8427734,8.1380615-3.5737305,9.6577148-10.6437988L67.3579788,41.2515755z M43.2075882,47.676136
		c-3.270874,0.7909927-6.7284622-1.4781609-6.9716797-4.4919434c-0.1328125-1.7312012,1.0371094-3.5358887,2.6635742-4.1081543
		c0.0212402-0.0075684,0.0352783-0.0258789,0.0554199-0.0351563c1.3703613,0.2773438,2.6721191,0.8427734,3.7893066,1.6901855
		c0.1352539,0.1030273,0.2944336,0.1525879,0.4526367,0.1525879c0.7195206,0,1.0223122-0.9162598,0.4536133-1.3474121
		c-1.3544922-1.027832-2.942627-1.7011719-4.6120605-2.0043945c-3.8107834-7.2008095,4.3664246-15.2196636,11.3894043-10.7109375
		c0.3145752,1.5991211,1.0769043,3.1054688,2.1879883,4.2995605c0.2823257,0.3032913,0.7567368,0.3206425,1.0600586,0.0383301
		c0.3032227-0.2819824,0.3203125-0.7565918,0.0385742-1.0598145c-0.8891602-0.9558105-1.4885254-2.1572266-1.7651367-3.4321289
		c0.0070801-0.0222168,0.0256348-0.0378418,0.0307617-0.060791c0.3544922-1.5664063,1.7475586-2.8552246,3.637207-3.3637695
		c3.7712936-1.0188885,7.1607056,2.6531467,5.8598633,6.3251953c-0.4086914,1.1796875-1.5932617,2.2758789-2.7094727,2.0251465
		c-0.4206886-0.0928001-0.8579712,0.2198944-0.9086914,0.6425781c-1.1225586,9.0930176-9.4609375,11.0129395-9.8154297,11.0900879
		c-0.2306862,0.0502968-0.4268341,0.2287598-0.5192871,0.4475098C46.5832558,45.984127,44.8459282,47.2782097,43.2075882,47.676136z
		 M50.5132523,82.1895599c2.7109108,1.6676559,3.0660858,1.8468399,5.0909424,3.140625
		c-3.4481621,4.5987167-6.0899658,9.7139435-8.0391846,14.9765625c-0.2779465,0.7504578-0.6786118,1.5191422-0.7724609,2.4428711
		c-0.0938568,0.9151001,0.3042259,1.8820496-0.6611328,1.9282227c-1.1573677-0.0088043-1.5534897-1.404892-1.8378906-2.5014648
		c-0.1323891-0.5097504-0.7342262-0.7257004-1.1601563-0.4228516c-1.0976563,0.7792969-2.4018555,1.2978516-3.7724609,1.4985352
		c-0.9726563,0.1433105-1.5854492,0.1530762-1.9626465,0.1225586c0.8154297-0.420166,1.6949463-0.730957,2.588623-0.9086914
		c0.4067383-0.0810547,0.6704102-0.4755859,0.5898438-0.8823242c-0.081543-0.40625-0.4780273-0.6708984-0.8818359-0.5893555
		c-1.3481445,0.2683105-2.666748,0.8012695-3.8295898,1.5351563c-0.2570801-0.0515137-0.503418-0.2373047-0.5810547-0.4755859
		c-0.0986328-0.3051758,0.1142578-0.8012695,0.4072266-0.9477539c0.1817627-0.0908203,0.3049316-0.2509766,0.3669434-0.4343262
		c0.6740723-0.1594238,1.355957-0.2839355,2.0471191-0.329834c0.4135742-0.027832,0.7260742-0.3852539,0.6987305-0.7983398
		c-0.027832-0.4140625-0.394043-0.722168-0.7983398-0.6987305c-1.0568848,0.0705566-2.1003418,0.2768555-3.1151123,0.5827637
		c-0.1534424-0.1398926-0.2684326-0.3217773-0.3106689-0.5163574c-0.0754395-0.3515625,0.116333-0.8505859,0.3909912-1.1101074
		c0.7772217-0.1481934,1.5666504-0.2092285,2.3585205-0.1364746c0.4047852,0.0424805,0.7773438-0.2641602,0.815918-0.6772461
		c0.0385742-0.4121094-0.2646484-0.777832-0.6772461-0.815918c-0.8659668-0.0805664-1.7346191-0.0424805-2.5897217,0.1037598
		c-0.2252197-0.1328125-0.4422607-0.2709961-0.581665-0.4367676c-0.6722794-0.7964706,0.8724937-0.6888733,4.4897461-1.4174805
		c3.328495-0.588707,4.4548264-0.5839005,7.1289063-4.8676758C46.1559982,89.1678619,49.4273834,84.2408524,50.5132523,82.1895599z"
		/>
	<path d="M66.7529984,46.1385384c0,0.7702637,0.6264648,1.3967285,1.3969727,1.3967285
		c0.7700195,0,1.3964844-0.6264648,1.3964844-1.3967285c0-0.7700195-0.6264648-1.3964844-1.3964844-1.3964844
		C67.3794632,44.742054,66.7529984,45.3685188,66.7529984,46.1385384z"/>
</g>
</svg>
