<?xml version="1.0" encoding="utf-8"?>
<!-- Generator: Adobe Illustrator 22.0.1, SVG Export Plug-In . SVG Version: 6.00 Build 0)  -->
<svg version="1.1" id="Layer_1" xmlns="http://www.w3.org/2000/svg" xmlns:xlink="http://www.w3.org/1999/xlink" x="0px" y="0px"
	 viewBox="0 0 156 156" style="enable-background:new 0 0 156 156;" xml:space="preserve">
<g id="Pizza_Chef">
	<path d="M26.2246685,68.370697c0.7188721,0.4713211,1.5303326,0.6259232,2.355957,0.7949219
		c2.5664063,0.5317383,5.0527363,1.4150391,7.3901386,2.625c2.4169922,1.2509766,3.371582,2.671875,2.8359375,4.2226563
		c-0.019043,0.0546875-0.0162354,0.1103516-0.0222168,0.1655273c-0.1983986,0.1248856-0.883728,0.1951294-0.9146729,0.8481445
		c-0.0593224,1.2313309,5.7127762,14.8817215,8.9327393,20.8916016c2.787159,5.1923523,5.9389038,10.0916672,9.6184082,14.5629883
		c0.5123291,0.6928711,0.9465332,1.3911133,1.2587891,2.1591797c-3.4531403,8.5771179-5.6528168,17.0136261-6.1499023,26.8842773
		c-0.0209961,0.4140625,0.2973633,0.7661133,0.7114258,0.7871094c0.4077148,0.0253906,0.7661133-0.2978516,0.7866211-0.7114258
		c0.6507378-12.9095764,6.307251-33.9276428,15.8408203-41.9663086c0.0566406,0.0805664,0.1149902,0.1591797,0.1743164,0.2373047
		c-1.3441849,1.8738022-3.5237885,5.2082596-4.3886719,7.0107422c-0.8260193,1.7186966-0.2940674,3.225769,1.532959,3.6147461
		c0.2668228,0.0576706,8.358696,1.3880386,8.2575684,1.3696289c1.2728195,0.2317276,1.8905334-0.1972961,2.6157227-1.2929688
		c0.9391785-1.4522171,4.1511765-6.4202271,4.0698242-6.2988281c0.1503906-0.2338867,0.3066406-0.4755859,0.4677734-0.7275391
		c0.3048096,0.1010742,0.6130371,0.1972656,0.921875,0.2939453l0.8847656,2.6357422
		c-0.0285797,6.6037216-0.0123825,29.217392,1.6508789,35.6328125c0.10495,0.4102631,0.5572205,0.6894684,1.0380859,0.4599609
		c0.102684,0.0019989,10.2460556,0.1985321,10.0302734,0.1943359c0.0001755,0,0.0003128,0,0.0004883,0
		c0.5121002-0.0712738,0.75-0.391571,0.75-0.75c0-9.7729187-1.1174774-20.0910721-1.793457-30.1831055
		c8.5909424-8.8515625,15.7172852-18.8266602,21.2037354-29.65625c3.6762619-3.6455078,9.613739-4.6800385,13.5804443-8.4790039
		c0.5214844-0.4990234,1.1240234-1.1904297,1.1577148-2.1098633c0.0219727-0.6054688-0.2949219-1.2250977-0.8081055-1.581543
		c0.3234558-1.0672913-0.0401764-2.2096481-1.003418-2.8735352c0.6543884-1.200882,0.1802521-2.5947876-1.0043945-3.1928673
		c0.115036-1.1787834-0.8963013-2.0434647-2.1274414-2.0522461c-1.4547577-0.0038414-4.3820572,1.5259705-5.6325684,2.289547
		c-1.9315948-2.0080528-7.1477737-6.0885963-11.302002-7.989254c-9.8390884-4.5069046-18.3092804-0.8806114-20.9589844,5.605957
		c-1.3230362,3.1936607-1.3861465,6.0613899,0.828125,9.7285118l-3.4343262,3.0317383
		c-0.8520508-0.1083984-1.6582031-0.0375977-2.4411621,0.2353516c-3.5988083,1.2049637-4.6451111,2.4471054-4.9472656,2.6318359
		c-0.9018555,0.7368164-1.8359375,1.4960938-2.7290039,1.3037109c-0.7071762-0.1474686-2.1546936-1.317955-3.4150391-0.3168945
		c-0.9423828,0.7734375-0.6298828,2.0239258-0.4228516,2.8510742l0.0869141,0.359375
		c0.5641785,2.4938431-2.3883286,3.1304169-3.6816406,5.4624023c-1.479126,2.6499023-1.8342285,5.871582-0.9822998,8.6748047
		c-5.159893-6.0877533-11.9612541-15.971283-16.8399658-23.7026367c-0.1498604-0.2370911-0.4147606-0.3596497-0.664917-0.3491211
		c-0.2137566,0.0083694-0.3218498,0.094986-0.6801758,0.2348633c-1.6643677-2.4487076-1.9930038-5.6635132-0.5924072-8.4995079
		c0.2128906-0.4301758,0.4775391-0.9663086,0.7685547-1.3198242c0.2961884-0.3602295,0.8147392-0.6646461,1.1445313-1.3154297
		c0.3569336-0.7045898,0.4179688-1.7265625-0.2504883-2.4208984c-0.5463867-0.5683594-1.387207-0.7304688-2.5019531-0.480957
		c-1.8037109,0.4033203-3.503418,1.2485352-4.9223633,2.4306641c-0.2276726-2.1519966-1.4670868-6.0375137-3.6884766-5.887207
		c-2.0051537,0.1334457-2.7465324,3.2755699-2.6147461,5.2753906c-1.0415039-0.9677734-2.1660156-1.8447266-3.3632813-2.6206055
		c-1.224123-0.7939453-2.2622089-0.9487305-3.0854511-0.4594727c-0.7163086,0.425293-1.1113281,1.3056641-1.0063477,2.2421875
		c0.1916294,1.7165756,2.5104408,4.3350067,3.7959003,5.504879c-1.2695332-0.1972656-2.5473652-0.3442383-3.8232441-0.4384727
		c-0.6533203-0.0488281-1.2929688-0.0761719-1.9433594,0.1132774c-0.8544922,0.2480469-1.4975586,0.8398438-1.7202148,1.5830078
		C24.7705669,66.6099548,25.2500591,67.7310486,26.2246685,68.370697z M70.8584595,101.1914978
		c2.0136719,1.5296097,4.6138916,2.4567947,7.5466309,2.4003906
		C75.9164734,108.3400421,69.3545227,105.6737137,70.8584595,101.1914978z M124.9868774,63.6402321
		c1.5301971-0.5545425,1.5896912-0.0196915,1.6896973-0.0107422l-2.6413574,2.2338829
		c-0.5322113,0.4500809-0.2119598,1.3227539,0.4848633,1.3227539c0.4801941,0,0.5051651-0.2708511,2.6379395-1.9990234
		c0.703186,0.0730591,0.9772491,0.6199265,0.7788086,1.1201172c-0.281929,0.0821838,0.1218719-0.0897293-2.2668457,1.3173828
		c-0.649971,0.3907013-0.3716583,1.3935547,0.3867188,1.3935547c0.3518066,0,0.4694519-0.1930161,1.6589355-0.8720703
		c0.0397949,0.0097656,0.0771484,0.0258789,0.1188965,0.0288086c0.5817719,0.0422745,1.1577759,0.6009674,0.9432373,1.3691406
		l-1.7796631,1.2954102c-0.3349609,0.2436523-0.4086914,0.7128906-0.1650391,1.0478516
		c0.2428207,0.3331757,0.7105179,0.4096985,1.0478516,0.1650391l1.0848389-0.7895508
		c0.1173096,0.0112305,0.2374268,0.0039063,0.3551025-0.0463867c0.0664063,0.0161133,0.2080078,0.1796875,0.203125,0.3149414
		c-0.0136719,0.3808594-0.3789063,0.777832-0.6958008,1.0805664c-3.5351715,3.3859863-8.9720459,4.4730835-12.880249,7.8310547
		l-6.7677002-3.987793c2.4552307-2.1175079,3.954277-5.4165192,3.4941406-9.2509766
		c-0.0698242-0.5874023-0.1357422-1.1430664-0.0166016-1.628418c0.5601883-2.2687645,2.6939774,0.6031876,2.9282227,2.9589844
		c0.0296249,0.3012772,0.2425156,0.5869446,0.5979004,0.6533203c0.8710938,1.0986328,1.3325195,2.5361328,1.2370605,3.9326172
		c-0.0293884,0.428688,0.3085175,0.8007813,0.7490234,0.8007813c0.390625,0,0.7202148-0.3027344,0.7470703-0.6982422
		c0.1171875-1.7070313-0.4196777-3.4667969-1.4506836-4.8359375
		C119.600647,66.2989197,122.1812134,64.6617126,124.9868774,63.6402321z M90.3604126,72.3330994
		c1.9516602,1.0883789,3.7069092,2.4663086,5.2026367,4.1362305c0.2749557,0.3085327,0.7506104,0.3354874,1.059082,0.0585938
		c0.3085938-0.2763672,0.3344727-0.7504883,0.0581055-1.0585938c-2.6769028-2.989502-6.0173569-4.82341-6.4957275-4.8955078
		c-1.7476578-3.5011063-1.8141098-5.3078918-0.6112061-8.2109337c2.2981033-5.6259232,9.8226242-8.9922142,18.9472656-4.8129883
		c3.942482,1.8037987,8.8918076,5.7043457,10.6663818,7.4814415c-0.8376465,0.5917969-1.6500244,1.2192383-2.399292,1.918457
		c-1.3528137-4.3950005-4.8424072-4.7535133-5.5864258-1.7324219c-0.2296371,0.9368057-0.0339966,1.869545,0.0400391,2.6723633
		c0.2687988,2.9155273-1.1109619,5.9750977-3.4399414,7.7524414c-0.6063156-0.389595-1.4129181-0.7496719-1.8388672-0.1660156
		l-3.1621094,4.3139648c-0.7827148-0.9038086-1.6721191-1.715332-2.6674805-2.3774414
		c-0.3447266-0.2294922-0.8100586-0.1367188-1.0400391,0.2084961c-0.2294922,0.3447266-0.1357422,0.8100586,0.2089844,1.0395508
		c0.9783936,0.6518555,1.8415527,1.4648438,2.5849609,2.3759766l-4.5439453,6.1992188
		c-2.7149277-4.8343201-6.6407166-8.696434-11.0771484-11.2861328
		C86.4389725,75.7924576,87.4992676,74.8598862,90.3604126,72.3330994z M70.9946899,86.0298767
		c1.9009171-1.6376648,2.6933365-2.7032089,2.0849609-5.1367188c-0.1220703-0.487793-0.2890625-1.15625-0.0898438-1.3198242
		c0.365509-0.2924118,1.3608932,0.450798,2.1601563,0.6166992c1.6722717,0.3629608,3.0197144-0.8167419,4.3271484-1.8818359
		c1.5294952-1.2285004,3.90168-2.1109772,4.7543945-2.2602539c-0.0162659,0.2895279,0.1369324,0.5658646,0.3955078,0.7036133
		c4.5731583,2.4437027,8.5509644,6.3343506,11.1201172,10.7114258c0.0646973,0.6953125,0.0301514,1.3833008-0.0979004,2.0834961
		l-0.786377,1.0732422c-0.4934082-0.8237305-1.1450195-1.5136719-1.7885742-2.1748047
		c-0.2880859-0.2963867-0.7636719-0.3037109-1.0605469-0.0141602c-0.296875,0.2885742-0.3032227,0.7636719-0.0146484,1.0605469
		c1.0026627,1.0301514,2.062027,2.1017456,2.1035156,3.5400391c0.0187988,0.7687531-0.2705612,1.3477249-0.9970703,1.7539063
		c-1.4448013,0.8188324-3.0774307,0.1105728-4.4018555-0.8354492c-0.3374023-0.2407227-0.8051758-0.1630859-1.0463867,0.1743164
		c-0.2407227,0.3369141-0.1625977,0.8051758,0.1743164,1.0463867c0.9494629,0.6782227,1.8461914,1.109375,2.729248,1.3203125
		c-0.0843353,0.1003189-0.4052734,0.5650787-1.413208,1.6069336c-2.7703857,1.7880859-5.720459,3.1025391-8.3638916,3.7089844
		c-7.3971252,1.6961823-14.0427704-4.0266876-12.4671631-11.2700195c2.0131836,1.6297607,4.8030243,1.7136002,6.8909912,0.262207
		c0.3398438-0.2363281,0.4238281-0.7036133,0.1875-1.043457c-0.2363281-0.3408203-0.7041016-0.4248047-1.0439453-0.1879883
		c-2.8606949,1.9890213-5.1233292-0.3876495-5.6149902-0.425293C69.3468399,87.5177231,69.7206955,87.1288986,70.9946899,86.0298767
		z M26.4961529,66.073822c0.0737305-0.2451172,0.3491211-0.4697266,0.7021484-0.5722656
		c1.2479553-0.363121,6.5278988,0.575798,8.2114277,0.9560547c0.822506,0.186058,1.2773476-0.931221,0.5561523-1.371582
		c-2.081543-1.2719688-3.8701172-3.0346642-5.1723652-5.0981407c-0.2592773-0.4101563-0.5053711-0.8481445-0.5532227-1.2734375
		c-0.0371094-0.3359375,0.0810547-0.6660156,0.2822266-0.7856445c0.3618164-0.2163086,1.0175781,0.1132813,1.5029316,0.4282227
		c1.90625,1.2358398,3.6157227,2.7421875,5.0820313,4.4775391c0.5687714,0.6754913,1.6421165-0.0326462,1.2416992-0.8232422
		c-1.4716263-2.9016609-0.1349335-6.0234222,0.5698242-6.0703125c0.8014526-0.0764694,2.3092461,3.1250114,2.1347656,6.0751953
		c-0.042511,0.7128563,0.8436203,1.072773,1.3115234,0.5400391c1.4038086-1.5947266,3.3193359-2.7285156,5.3925781-3.1918945
		c0.5439453-0.1220703,0.9418945-0.1010742,1.09375,0.0561523c0.1264648,0.1318359,0.1235352,0.4472656-0.0063477,0.703125
		c-0.0976563,0.1933594-0.2626953,0.3452148-0.4711914,0.5380859c-0.6574745,0.6066093-0.9023247,1.005558-1.4487305,2.1113281
		c-1.6163712,3.2709923-1.2605095,6.9300728,0.5314941,9.7558556l-7.0288086,2.9580078
		c0.1561279-1.9082031-1.1375732-3.6669922-3.7678223-5.0283203c-5.2727489-2.7305984-8.4773941-2.5974274-9.6123066-3.3417969
		C26.6929302,66.8833923,26.3897076,66.4297791,26.4961529,66.073822z"/>
	<path d="M80.8257446,83.2622986c0.4503098,0,1.4981613-0.2532349,2.0517578-0.5556641
		c2.4280014-1.3208313,0.7719421-4.6275711-1.7749023-2.9023438c-0.5717773,0.3876953-1.8862305,1.3974609-1.7358398,2.4033203
		C79.4689865,82.8899612,80.143013,83.2622986,80.8257446,83.2622986z"/>
	<path d="M81.3609009,40.1670876h-0.0004883c32.6711502-6.1314049,42.9069214-20.4099579,27.1132813-25.0976563
		c-0.0024414-0.0009766-0.0048828-0.0024414-0.0073242-0.003418c-0.0036621-0.0009766-0.0073242-0.0019531-0.0111084-0.003418
		c-10.7753448-5.1075792-47.2740631,1.2328157-59.0701904,9.8979483
		C32.1983337,35.8018646,47.4537659,46.5503616,81.3609009,40.1670876z M107.9400024,16.4742146
		c8.1029739,4.1051006-12.9870453,11.9803791-27.9389648,14.7924805
		c-18.2675781,3.4365253-31.7197266,2.0014668-32.3666992-1.4365234c-0.1813965-0.9633789,0.7376709-2.2495117,2.5864258-3.6225586
		C64.4138489,17.2402554,93.7337189,12.3099556,107.9400024,16.4742146z"/>
	<path d="M63.5571899,24.629488c1.8637924,0.0591679,6.5146408-1.1814518,6.0307617-3.0131836
		c-0.3638535-1.3793182-2.9871521-0.9493675-4.3510742-0.5908203c-0.9204102,0.2421875-3.8920898,1.1499023-3.496582,2.6557617
		C61.9014282,24.2935505,62.5127563,24.6123981,63.5571899,24.629488z"/>
	<path d="M84.253479,21.0884724c0.9702148-0.3891602,1.4272461-0.9052734,1.359375-1.5341797
		c-0.2040634-1.8871307-4.9122696-1.3844128-6.7089844-0.6630859c-0.9697266,0.3886719-1.4267578,0.9047852-1.3588867,1.5332031
		C77.7469788,22.3097591,82.47332,21.8005371,84.253479,21.0884724z"/>
	<path d="M77.2549438,29.0147419c1.694046,0,5.3308182-0.5033817,5.1503906-2.175293
		c-0.2040634-1.8871307-4.9092026-1.384613-6.7084961-0.6635742c-0.9702148,0.3886719-1.4272461,0.9047852-1.359375,1.5336914
		C74.4546509,28.7935505,76.0088501,29.0147419,77.2549438,29.0147419z"/>
	<path d="M56.3599243,29.3838825c1.8897285,0.317379,6.6154594-0.190073,6.4130859-2.078125v-0.0004883
		c-0.1674805-1.5488281-3.2680664-1.3359375-4.2143555-1.234375c-1.4116096,0.1525478-4.0065651,0.6863155-3.8535156,2.1044922
		C54.772522,28.8042927,55.3291626,29.2105427,56.3599243,29.3838825z"/>
	<path d="M94.234436,23.6143513c1.6819763,0,5.3295746-0.4949875,5.1494141-2.175293c0,0,0,0,0-0.0004883
		c-0.1669922-1.5493164-3.2675781-1.3364258-4.2143555-1.2338867c-0.9458008,0.1015625-4.0200195,0.5546875-3.8540039,2.1044922
		C91.4326782,23.3931599,92.987854,23.6143513,94.234436,23.6143513z"/>
	<path d="M48.4556274,44.2393532c-5.3746338,2.2799034-5.333828,7.2739258-0.4750977,7.2739258
		c3.9106789,0,8.3512878-3.4237022,7.1577148-6.2363281C54.3574829,43.4371071,51.4234009,42.9805641,48.4556274,44.2393532z"/>
	<path d="M100.9517212,39.7852516c-1.4627533,2.8373947,3.1456146,6.7729492,7.1357422,6.7729492
		c3.0323029,0,4.224617-2.3045959,2.6503906-4.6992188C108.5064774,38.4651909,102.4337006,36.9120827,100.9517212,39.7852516z"/>
	<path d="M119.1099243,57.8062477c1.9990234,0,3.5649414-2.5239258,3.5649414-5.7460938
		c0-3.2226563-1.565918-5.746582-3.5649414-5.746582s-3.5649414,2.5239258-3.5649414,5.746582
		C115.5449829,55.2823219,117.1109009,57.8062477,119.1099243,57.8062477z"/>
	<path d="M30.029356,49.4156227c3.9132442,0,8.3515263-3.4228058,7.158205-6.2363281l0,0
		c-0.7739258-1.8242188-3.9453125-2.9814453-6.8710957-1.7392578C25.9650021,43.2865219,24.4461536,49.4156227,30.029356,49.4156227
		z"/>
	<path d="M68.9634399,116.8882751c0.3783188-2.040184-1.6869431-3.4259872-3.1948242-2.1899414
		c-1.5850372,1.2978287-0.8926392,4.097168,1.0996094,4.097168C67.8550415,118.7955017,68.756897,118.002533,68.9634399,116.8882751
		z"/>
	<path d="M65.4395142,126.9258728c-1.0883484-0.2012939-2.1965942,0.6031113-2.4311523,1.8759766
		c-0.2585144,1.3941193,0.6721764,2.6538086,1.934082,2.6538086c0.9868164,0,1.8886719-0.7929688,2.0952148-1.9072266
		C67.2676392,128.3086853,66.5508423,127.1324158,65.4395142,126.9258728z"/>
</g>
</svg>
