<?xml version="1.0" encoding="utf-8"?>
<!-- Generator: Adobe Illustrator 22.0.1, SVG Export Plug-In . SVG Version: 6.00 Build 0)  -->
<svg version="1.1" id="Layer_1" xmlns="http://www.w3.org/2000/svg" xmlns:xlink="http://www.w3.org/1999/xlink" x="0px" y="0px"
	 viewBox="0 0 75 75" style="enable-background:new 0 0 75 75;" xml:space="preserve">
<style type="text/css">
	.st0{fill:#FEFEFE;}
	.st1{fill:#2AD0FD;}
	.st2{fill:#ED4A17;}
	.st3{fill:#F2FBFC;}
	.st4{fill:#FC7F5C;}
	.st5{fill:#73240D;}
	.st6{fill:#020101;}
	.st7{fill:#FDFDFC;}
	.st8{fill:#050101;}
	.st9{fill:#040101;}
	.st10{fill:#FDF660;}
	.st11{fill:#74240D;}
	.st12{fill:#FDFDFD;}
	.st13{fill:#060101;}
	.st14{fill:#7A230C;}
	.st15{fill:#0B0403;}
	.st16{fill:#010001;}
	.st17{fill:#73240E;}
	.st18{fill:#F7FCFC;}
	.st19{fill:#FDFCFC;}
	.st20{fill:#070101;}
	.st21{fill:#2AD1FE;}
	.st22{fill:#FEF760;}
	.st23{fill:#FBFCFD;}
	.st24{fill:#FD7F5C;}
	.st25{fill:#EB4B1A;}
	.st26{fill:#2C57FC;}
	.st27{fill:#010000;}
	.st28{fill:#ED4A18;}
	.st29{fill:#EC4A18;}
	.st30{fill:#FCB3AC;}
	.st31{fill:#0289FD;}
	.st32{fill:#FDCE07;}
	.st33{fill:#010101;}
	.st34{fill:#A3F9F8;}
	.st35{fill:#CFCDC2;}
	.st36{fill:#CFCDC3;}
	.st37{fill:#0288FD;}
	.st38{fill:#020202;}
	.st39{fill:#EB4A17;}
	.st40{fill:#B8917D;}
	.st41{fill:#8FCCA4;}
	.st42{fill:#81C4AD;}
	.st43{fill:#FDF65F;}
	.st44{fill:#FC805D;}
	.st45{fill:#FD805E;}
	.st46{fill:#0296FA;}
	.st47{fill:#0021B7;}
	.st48{fill:#0297FA;}
	.st49{fill:#FAD5A1;}
	.st50{fill:#FDFCF3;}
	.st51{fill:#F7CDC3;}
	.st52{fill:#FAD4A1;}
	.st53{fill:#FDD5CC;}
	.st54{fill:#F7CCC2;}
	.st55{fill:#FDFDFA;}
	.st56{fill:#040403;}
	.st57{fill:#050502;}
	.st58{fill:#FBFAF2;}
	.st59{fill:#EB4A19;}
	.st60{fill:#EC4A17;}
	.st61{fill:#0272AB;}
	.st62{fill:#FCFBFB;}
	.st63{fill:#FCFCFC;}
	.st64{fill:#FAFAFA;}
	.st65{fill:#BEE0F9;}
	.st66{fill:#96F0F8;}
	.st67{fill:#05417E;}
	.st68{fill:#F8A208;}
	.st69{fill:#F8AA07;}
	.st70{fill:#73220A;}
	.st71{fill:#A9580F;}
	.st72{fill:#FFFEFF;}
	.st73{fill:#FBADA1;}
	.st74{fill:#0309FB;}
	.st75{fill:#FEBD0A;}
	.st76{fill:#FDBE0A;}
	.st77{fill:#2BD0FD;}
	.st78{fill:#8ADCE9;}
	.st79{fill:#F3DB79;}
	.st80{fill:#F1DF89;}
	.st81{fill:#B37863;}
	.st82{fill:#A87E70;}
	.st83{fill:#B67560;}
	.st84{fill:#7E9EA6;}
	.st85{fill:#A88170;}
	.st86{fill:#A2847A;}
	.st87{fill:#899899;}
	.st88{fill:#F7E669;}
	.st89{fill:#FBD506;}
	.st90{fill:#C2CBBF;}
	.st91{fill:#B9BAFD;}
	.st92{fill:#82BDFB;}
	.st93{fill:#F7FBFD;}
	.st94{fill:#2C57FB;}
	.st95{fill:#EE4818;}
	.st96{fill:#FBD606;}
	.st97{fill:#CFF7F9;}
	.st98{fill:#0D0A3F;}
	.st99{fill:#010102;}
	.st100{fill:#0489FB;}
	.st101{fill:#F8A995;}
	.st102{fill:#75230E;}
	.st103{fill:#FDF55F;}
	.st104{fill:#F8C209;}
	.st105{fill:#FCFBF9;}
	.st106{fill:#E6F8FC;}
	.st107{fill:#0005CB;}
	.st108{fill:#E10202;}
	.st109{fill:#FCC104;}
	.st110{fill:#F9D309;}
	.st111{fill:#73240F;}
	.st112{fill:#0104CB;}
	.st113{fill:#86EFF5;}
	.st114{fill:#FB8D1B;}
	.st115{fill:url(#SVGID_1_);}
	.st116{fill:url(#SVGID_2_);}
	.st117{fill:#FD8E1F;}
	.st118{fill:#010EE1;}
	.st119{fill:#636E91;}
	.st120{fill:#F6DEFC;}
	.st121{fill:#DEACE7;}
	.st122{fill:#DEADE7;}
	.st123{fill:#E64B1C;}
	.st124{fill:#E54B1B;}
	.st125{fill:#C01F04;}
	.st126{fill:#79230B;}
	.st127{fill:#7E240A;}
	.st128{fill:#81240A;}
	.st129{fill:#0394FB;}
	.st130{fill:#FCFDFD;}
	.st131{fill:#2D57FB;}
	.st132{fill:#2D57FA;}
	.st133{fill:#73240C;}
	.st134{fill:#74230D;}
	.st135{fill:#F38464;}
	.st136{fill:#876EB8;}
	.st137{fill:#C54F2A;}
	.st138{fill:#F2E4DE;}
	.st139{fill:#8CAFB9;}
	.st140{fill:#A8A5A3;}
	.st141{fill:#97AAB0;}
	.st142{fill:#A0867A;}
	.st143{fill:#AAA49F;}
	.st144{fill:#9AE0AD;}
	.st145{fill:#98E0AD;}
	.st146{fill:#829A9E;}
	.st147{fill:#958D88;}
	.st148{fill:#A4E2A5;}
	.st149{fill:#2BD0FC;}
	.st150{fill:#B770F7;}
	.st151{fill:#04053D;}
	.st152{fill:#B3FDF4;}
	.st153{fill:#0B0BCE;}
	.st154{fill:#0B0DCD;}
	.st155{fill:#0D0DCC;}
	.st156{fill:#7CFAFB;}
	.st157{fill:#FBFDFD;}
	.st158{fill:#000001;}
	.st159{fill:#001AFC;}
	.st160{fill:#0085C4;}
	.st161{fill:#0086C4;}
	.st162{fill:#2C57FD;}
	.st163{fill:#ED4815;}
	.st164{fill:#2BCFFC;}
	.st165{fill:#030303;}
	.st166{fill:#3057ED;}
	.st167{fill:#F79E07;}
	.st168{fill:#2BCDFA;}
	.st169{fill:#010203;}
	.st170{fill:#0FA199;}
	.st171{fill:#05677D;}
	.st172{fill:#10A199;}
	.st173{fill:#0C99C2;}
	.st174{fill:#FD7E5C;}
	.st175{fill:#088DF3;}
	.st176{fill:#F9AF0F;}
	.st177{fill:#030101;}
	.st178{fill:#2BCEFB;}
	.st179{fill:#088CF3;}
	.st180{fill:#FDFBFA;}
	.st181{fill:#E8E8E8;}
	.st182{fill:#FEFEFD;}
	.st183{fill:#098DF3;}
	.st184{fill:#099BC5;}
	.st185{fill:#FBB00E;}
	.st186{fill:#000002;}
	.st187{fill:#FFF75F;}
	.st188{fill:#EE4A17;}
	.st189{fill:#FAB00F;}
	.st190{fill:#ED4A16;}
	.st191{fill:#FFF760;}
	.st192{fill:#FEE006;}
	.st193{fill:#2CCFFF;}
	.st194{fill:#FCE8A3;}
	.st195{fill:#FBBAE6;}
	.st196{fill:#49EEFB;}
	.st197{fill:#00A0E3;}
	.st198{fill:#02A0E3;}
	.st199{fill:#FBFAFA;}
	.st200{fill:#FBFBFB;}
	.st201{fill:#0C0303;}
	.st202{fill:#0B0303;}
	.st203{fill:#0508A4;}
	.st204{fill:#030CED;}
	.st205{fill:#AC3B21;}
	.st206{fill:#BF7062;}
	.st207{fill:#030CEE;}
	.st208{fill:#020DFC;}
	.st209{fill:#B60100;}
	.st210{fill:#F7E1BC;}
	.st211{fill:#080607;}
	.st212{fill:#832863;}
	.st213{fill:#0195FD;}
	.st214{fill:#64EFF6;}
	.st215{fill:#030BFE;}
	.st216{fill:#93F8F4;}
	.st217{fill:#FFFFFF;}
	.st218{fill:#008EF8;}
	.st219{fill:#000586;}
	.st220{fill:#000385;}
	.st221{fill:#011CB2;}
	.st222{fill:#038DEE;}
	.st223{fill:#FE9515;}
	.st224{fill:#FDFDFF;}
	.st225{fill:#B0EAF6;}
	.st226{fill:#4D96EF;}
	.st227{fill:#2339B3;}
	.st228{fill:#2ACFFD;}
	.st229{fill:#FDDD19;}
	.st230{fill:#1CA64C;}
	.st231{fill:#161B9A;}
	.st232{fill:#C09980;}
	.st233{fill:#FCFAF9;}
	.st234{fill:#010CF9;}
	.st235{fill:#00A3ED;}
	.st236{fill:#FCFCFB;}
	.st237{fill:#FBF8F5;}
	.st238{fill:#FCF9F7;}
	.st239{fill:#110C0B;}
	.st240{fill:#8CF6FC;}
	.st241{fill:#8CEEF3;}
	.st242{fill:#75240D;}
	.st243{fill:#020102;}
	.st244{fill:#8EEDF1;}
	.st245{fill:#080404;}
	.st246{fill:#000101;}
	.st247{fill:#020203;}
	.st248{fill:#020303;}
	.st249{fill:#010202;}
	.st250{fill:#020304;}
	.st251{fill:#050606;}
	.st252{fill:#8EF3F9;}
	.st253{fill:#FCFDFC;}
	.st254{fill:#EF4918;}
	.st255{fill:#2DCCF7;}
	.st256{fill:#FDF661;}
	.st257{fill:#EF8365;}
	.st258{fill:#FB805D;}
	.st259{fill:#FBF9F8;}
	.st260{fill:#FE7F5C;}
	.st261{fill:#EC4B19;}
	.st262{fill:#EC4C1A;}
	.st263{fill:#FFF65E;}
	.st264{fill:#29D1FE;}
	.st265{fill:#010100;}
	.st266{fill:#EF643F;}
	.st267{fill:#C11705;}
	.st268{fill:#090102;}
	.st269{fill:#0A144B;}
	.st270{fill:#091249;}
	.st271{fill:#BECFFB;}
	.st272{fill:#445BB1;}
	.st273{fill:#FDFFFD;}
	.st274{fill:#0300EC;}
	.st275{fill:#7DF1FB;}
	.st276{fill:#30D0FA;}
	.st277{fill:#2CD0FC;}
	.st278{fill:#FCF660;}
	.st279{fill:#2BD1FE;}
	.st280{fill:#72230A;}
	.st281{fill:#01A8D5;}
	.st282{fill:#EC4B17;}
	.st283{fill:#D1DFD0;}
	.st284{fill:#EAF2EC;}
	.st285{fill:#0781CE;}
	.st286{fill:#04A9D4;}
	.st287{fill:#1AA0C7;}
	.st288{fill:#CCD5C2;}
	.st289{fill:#036D8B;}
	.st290{fill:#036D8A;}
	.st291{fill:#EED2AC;}
	.st292{fill:#FEF85B;}
	.st293{fill:#FAD001;}
	.st294{fill:#E8970F;}
	.st295{fill:#E8970E;}
	.st296{fill:#FAD102;}
	.st297{fill:#EF4917;}
	.st298{fill:#0008AB;}
	.st299{fill:#FCE8F9;}
	.st300{fill:#EE4A16;}
	.st301{fill:#F9B51C;}
	.st302{fill:#6EFBFC;}
	.st303{fill:#228E26;}
	.st304{fill:#74230C;}
	.st305{fill:#6FFBFC;}
	.st306{fill:#F5B31E;}
	.st307{fill:#30CDF6;}
	.st308{fill:#6EFBFB;}
	.st309{fill:#31CEF5;}
	.st310{fill:#76240D;}
	.st311{fill:#172B6C;}
	.st312{fill:#082367;}
	.st313{fill:#193E68;}
	.st314{fill:#033C7E;}
	.st315{fill:#0469AE;}
	.st316{fill:#D6AFB4;}
	.st317{fill:#FAA2A0;}
	.st318{fill:#77240D;}
	.st319{fill:#FBA3A1;}
	.st320{fill:#FCF560;}
	.st321{fill:#F0B0DE;}
	.st322{fill:#FDF85C;}
	.st323{fill:#FFFEFD;}
	.st324{fill:#FDDBA5;}
	.st325{fill:#04213E;}
	.st326{fill:#053C7D;}
	.st327{fill:#39CEF7;}
	.st328{fill:#51D4F2;}
	.st329{fill:#036AAE;}
	.st330{fill:#FCBC05;}
	.st331{fill:#043D7C;}
	.st332{fill:#05226D;}
	.st333{fill:#D9C06B;}
	.st334{fill:#FCCA29;}
	.st335{fill:#9E85D6;}
	.st336{fill:#2FCEF9;}
	.st337{fill:#FBDDC5;}
	.st338{fill:#FDC821;}
	.st339{fill:#EB4D18;}
	.st340{fill:#F6FAFC;}
	.st341{fill:#ED4817;}
	.st342{fill:#002C8B;}
	.st343{fill:#FECB0D;}
	.st344{fill:#F3E37E;}
	.st345{fill:#0DCA8A;}
	.st346{fill:#018F2B;}
	.st347{fill:#FCC19F;}
	.st348{fill:#2CCFF8;}
	.st349{fill:#EC4B18;}
	.st350{fill:#BE2209;}
	.st351{fill:#FADBBF;}
	.st352{fill:#FC805C;}
	.st353{fill:#BD2209;}
	.st354{fill:#F69A9F;}
	.st355{fill:#EC4917;}
	.st356{fill:#2B57FD;}
	.st357{fill:#76230C;}
	.st358{fill:#8FEDF7;}
	.st359{fill:#375D82;}
	.st360{fill:#3A80A0;}
	.st361{fill:#75250D;}
	.st362{fill:#FCC72E;}
	.st363{fill:#021E8A;}
	.st364{fill:#FBC730;}
	.st365{fill:#FBC72F;}
	.st366{fill:#FBF57B;}
	.st367{fill:#2BCFFD;}
	.st368{fill:#FEF861;}
	.st369{fill:#FBA2C0;}
	.st370{fill:#84EDFA;}
	.st371{fill:#C186AF;}
	.st372{fill:#8DAEB8;}
	.st373{fill:#97587E;}
	.st374{fill:#EB4B18;}
	.st375{fill:#2C58FB;}
	.st376{fill:#FBB72F;}
	.st377{fill:#0A209A;}
	.st378{fill:#0E9F42;}
	.st379{fill:#1DBC5B;}
	.st380{fill:#0E7627;}
	.st381{fill:#0E7727;}
	.st382{fill:#D41202;}
	.st383{fill:#D41102;}
	.st384{fill:#510101;}
	.st385{fill:#030202;}
	.st386{fill:#77230C;}
	.st387{fill:#089EE0;}
	.st388{fill:#05A0E3;}
	.st389{fill:#FAB1A4;}
	.st390{fill:#FAB0A4;}
	.st391{fill:#F0D988;}
	.st392{fill:#F2E094;}
	.st393{fill:#EFDC91;}
	.st394{fill:#B92A0D;}
	.st395{fill:#FAB0A3;}
	.st396{fill:#FCB40B;}
	.st397{fill:#0996FC;}
	.st398{fill:#F7B109;}
	.st399{fill:#F9B40E;}
	.st400{fill:#02147D;}
	.st401{fill:#FAB1A3;}
	.st402{fill:#8AEBF4;}
	.st403{fill:#FA805E;}
	.st404{fill:#050506;}
	.st405{fill:#00127E;}
	.st406{fill:#76230E;}
	.st407{fill:#6CD7ED;}
	.st408{fill:#1057B0;}
	.st409{fill:#F4EE6F;}
	.st410{fill:#10366D;}
	.st411{fill:#2CCFFC;}
	.st412{fill:#EB2019;}
	.st413{fill:#FFF75D;}
	.st414{fill:#72230F;}
	.st415{fill:#2DFEDB;}
	.st416{fill:#E80602;}
	.st417{fill:#E80502;}
	.st418{fill:#0208EF;}
	.st419{fill:#E8C1F8;}
	.st420{fill:#2EFEDC;}
	.st421{fill:#5BA1FB;}
	.st422{fill:#0202F9;}
	.st423{fill:#D7F2F9;}
	.st424{fill:#013952;}
	.st425{fill:#058FAE;}
	.st426{fill:#74240C;}
	.st427{fill:#F4BC18;}
	.st428{fill:#E5511A;}
	.st429{fill:#120A03;}
	.st430{fill:#FBFAEF;}
	.st431{fill:#F9F5DF;}
	.st432{fill:#FBF8E3;}
	.st433{fill:#F9F4DC;}
	.st434{fill:#FAFBFA;}
	.st435{fill:#0202FA;}
	.st436{fill:#4194FD;}
	.st437{fill:#5F87C8;}
	.st438{fill:#75F3FC;}
	.st439{fill:#78EFF8;}
	.st440{fill:#76ECF5;}
	.st441{fill:#A8D2D0;}
	.st442{fill:#4193FD;}
	.st443{fill:#B8290C;}
	.st444{fill:#B8290B;}
	.st445{fill:#D9EAFC;}
	.st446{fill:#2C57FA;}
	.st447{fill:#EEBA27;}
	.st448{fill:#B5280D;}
	.st449{fill:#B4280D;}
	.st450{fill:#FC7F5B;}
	.st451{fill:#01F030;}
	.st452{fill:#02EF30;}
	.st453{fill:#A4F4FD;}
	.st454{fill:#020CF8;}
	.st455{fill:#020CF9;}
	.st456{fill:#010AFA;}
	.st457{fill:#FDA3BE;}
	.st458{fill:#EC020B;}
	.st459{fill:#F6A913;}
	.st460{fill:#29D1FF;}
	.st461{fill:#FFF761;}
	.st462{fill:#D4FCFB;}
	.st463{fill:#90F8F9;}
	.st464{fill:#0116FC;}
	.st465{fill:#0017FC;}
	.st466{fill:#231F20;}
	.st467{fill:#01B2AE;}
	.st468{fill:#0016FC;}
	.st469{fill:#F5BC04;}
	.st470{fill:#B8180A;}
	.st471{fill:#B61A0B;}
	.st472{fill:#DEDCC5;}
	.st473{fill:#BCECEE;}
	.st474{fill:#74240E;}
	.st475{fill:#E20402;}
	.st476{fill:#E40101;}
	.st477{fill:#00A7C0;}
	.st478{fill:#021CD2;}
	.st479{fill:#FAF585;}
	.st480{fill:#FD8C05;}
	.st481{fill:#2F3E36;}
	.st482{fill:#FD7F5B;}
	.st483{fill:#F7F7F7;}
	.st484{fill:#F8F8F8;}
	.st485{fill:#98EBFD;}
	.st486{fill:#96ECFF;}
	.st487{fill:#F8FDFE;}
	.st488{fill:#E2F8FD;}
	.st489{fill:#FFF75E;}
	.st490{fill:#029AEA;}
	.st491{fill:#FDAD01;}
	.st492{fill:#FB9A05;}
	.st493{fill:#F89215;}
	.st494{fill:#F7C6B0;}
	.st495{fill:#BB2105;}
	.st496{fill:#FDF35F;}
	.st497{fill:#FDF360;}
	.st498{fill:#F986AA;}
	.st499{fill:#FDF562;}
	.st500{fill:#F99013;}
	.st501{fill:#F6C7B1;}
	.st502{fill:#74E6F9;}
	.st503{fill:#09519C;}
	.st504{fill:#DCF6F9;}
	.st505{fill:#60D2ED;}
	.st506{fill:#2ACFFC;}
	.st507{fill:#050FE2;}
	.st508{fill:#2C56FC;}
	.st509{fill:#0275F0;}
	.st510{fill:#0488E8;}
	.st511{fill:#EE89D9;}
	.st512{fill:#EA61C7;}
	.st513{fill:#EF4B15;}
	.st514{fill:#FFFDFE;}
	.st515{fill:#000CCE;}
	.st516{fill:#F8F0A7;}
	.st517{fill:#F7C229;}
	.st518{fill:#FBBBD5;}
	.st519{fill:#F643CB;}
	.st520{fill:#2A58FC;}
	.st521{fill:#F6A3F3;}
	.st522{fill:#FAC38D;}
	.st523{fill:#F7C129;}
	.st524{fill:#FAC38E;}
	.st525{fill:#FDF460;}
	.st526{fill:#F6A4F3;}
	.st527{fill:#65F4F5;}
	.st528{fill:#10A5BD;}
	.st529{fill:#11A6BD;}
	.st530{fill:#14A6BD;}
	.st531{fill:#D6C1B1;}
	.st532{fill:#F6C22A;}
	.st533{fill:#EE4916;}
	.st534{fill:#FA8E54;}
	.st535{fill:#FACD33;}
	.st536{fill:#FACC32;}
	.st537{fill:#2DD0FC;}
	.st538{fill:#FACC31;}
	.st539{fill:#EE4686;}
	.st540{fill:#DD0905;}
	.st541{fill:#050202;}
	.st542{fill:#060202;}
	.st543{fill:#08B3C3;}
	.st544{fill:#FCC8B0;}
	.st545{fill:#FBCC31;}
	.st546{fill:#F99216;}
	.st547{fill:#0000ED;}
	.st548{fill:#F9CE2F;}
	.st549{fill:#EB4C1B;}
	.st550{fill:#EA4B19;}
	.st551{fill:#FAE7DB;}
	.st552{fill:#0523E2;}
	.st553{fill:#F48162;}
	.st554{fill:#F8F3EF;}
	.st555{fill:#F98458;}
	.st556{fill:#FFFFFB;}
	.st557{fill:#2ECFFA;}
	.st558{fill:#010002;}
	.st559{fill:#FDC82E;}
	.st560{fill:#B6E8F1;}
	.st561{fill:#FC7D59;}
	.st562{fill:#0D6E9F;}
	.st563{fill:#B5E8F1;}
	.st564{fill:#87F6FA;}
	.st565{fill:#CAFB85;}
	.st566{fill:#000100;}
	.st567{fill:#FAFDFC;}
	.st568{fill:#CAFD84;}
	.st569{fill:#FFB897;}
	.st570{fill:#FB805E;}
	.st571{fill:#F3BA2D;}
	.st572{fill:#E94C1A;}
	.st573{fill:#A95A11;}
	.st574{fill:#F6E719;}
	.st575{fill:#0D0504;}
	.st576{fill:#0137BE;}
	.st577{fill:#B32F06;}
	.st578{fill:#92EBF9;}
	.st579{fill:#FDF662;}
	.st580{fill:#04D7F9;}
	.st581{fill:url(#SVGID_3_);}
	.st582{fill:#F7E819;}
	.st583{fill:#F39512;}
	.st584{fill:#F59412;}
	.st585{fill:#F4BC2A;}
	.st586{fill:#915A8B;}
	.st587{fill:#F4E390;}
	.st588{fill:#F3E38D;}
	.st589{fill:#F4E285;}
	.st590{fill:#DEF6FC;}
	.st591{fill:#92EFEF;}
	.st592{fill:#FBC609;}
	.st593{fill:#FDF664;}
	.st594{fill:#FDFCF9;}
	.st595{fill:#FDFDFB;}
	.st596{fill:#FDFCFB;}
	.st597{fill:#FCFCF9;}
	.st598{fill:#FCFCF7;}
	.st599{fill:#2C57F9;}
	.st600{fill:#DBFCFA;}
	.st601{fill:#F9AECF;}
	.st602{fill:#F692BA;}
	.st603{fill:#77F2F2;}
	.st604{fill:#0125F4;}
	.st605{fill:#63FAF8;}
	.st606{fill:#E1E6F9;}
	.st607{fill:#EC4B16;}
	.st608{fill:#EFA11D;}
	.st609{fill:#EC4714;}
	.st610{fill:#E9140B;}
	.st611{fill:#FCDD05;}
	.st612{fill:#FFF662;}
	.st613{fill:#32D0FA;}
	.st614{fill:#31D0FA;}
	.st615{fill:#FBF9F4;}
	.st616{fill:#EC4C19;}
	.st617{fill:#FBDD07;}
	.st618{fill:#FBDC06;}
	.st619{fill:#FEDAC2;}
	.st620{fill:#FDC291;}
	.st621{fill:#10B715;}
	.st622{fill:#90F4FC;}
	.st623{fill:#FCEF5C;}
	.st624{fill:#FDE322;}
	.st625{fill:#FDDE2B;}
	.st626{fill:#EA4D1A;}
	.st627{fill:#FDBD07;}
	.st628{fill:#D6F5FC;}
	.st629{fill:#F4F4F4;}
	.st630{fill:#070EFC;}
	.st631{fill:#0B0B05;}
	.st632{fill:#0D0C02;}
	.st633{fill:#0E0D06;}
	.st634{fill:#F9F9F9;}
	.st635{fill:#F70604;}
	.st636{fill:#72240D;}
	.st637{fill:#2B57FE;}
	.st638{fill:#6DCBB0;}
	.st639{fill:#96C881;}
	.st640{fill:#85C994;}
	.st641{fill:#81CA99;}
	.st642{fill:#8DC88C;}
	.st643{fill:#79CAA3;}
	.st644{fill:#0114C7;}
	.st645{fill:#01038D;}
	.st646{fill:#7ADFF6;}
	.st647{fill:#7BDFF6;}
	.st648{fill:#FCC00B;}
	.st649{fill:#A6ADFB;}
	.st650{fill:#1096F0;}
	.st651{fill:#FC7F5A;}
	.st652{fill:#0214C7;}
	.st653{fill:#FCBC91;}
	.st654{fill:#FDBC90;}
	.st655{fill:#1097F1;}
	.st656{fill:#EA4F1D;}
	.st657{fill:#FCFAFA;}
	.st658{fill:#EBF7FB;}
	.st659{fill:#1096F1;}
	.st660{fill:#79DCF3;}
	.st661{fill:#FDC10C;}
	.st662{fill:#FCB7A0;}
	.st663{fill:#74220B;}
	.st664{fill:#000104;}
	.st665{fill:#0690FA;}
	.st666{fill:#FFFDFF;}
	.st667{fill:#F6825F;}
	.st668{fill:#010205;}
	.st669{fill:#0690FC;}
	.st670{fill:#030302;}
	.st671{fill:#030301;}
	.st672{fill:#07DB8E;}
	.st673{fill:#EE4817;}
	.st674{fill:#9BA0FD;}
	.st675{fill:#060DFB;}
	.st676{fill:#FDEBB9;}
	.st677{fill:#86989C;}
	.st678{fill:#879799;}
	.st679{fill:#9A8B84;}
	.st680{fill:#FEC708;}
	.st681{fill:#FCC0DA;}
	.st682{fill:#8E9290;}
	.st683{fill:#8F918F;}
	.st684{fill:#013764;}
	.st685{fill:#FA0E00;}
	.st686{fill:#F9BBA6;}
	.st687{fill:#D5CEC5;}
	.st688{fill:#D5CFC6;}
	.st689{fill:#D5CFC5;}
	.st690{fill:#FDF861;}
	.st691{fill:#FEF75F;}
	.st692{fill:#2B57FB;}
	.st693{fill:#0099FC;}
	.st694{fill:#009AFC;}
	.st695{fill:#29CEFD;}
	.st696{fill:#F0FAFC;}
	.st697{fill:#0305C2;}
	.st698{fill:#FA98C7;}
	.st699{fill:#FDFCFD;}
	.st700{fill:#0404C1;}
	.st701{fill:#FEA2A9;}
	.st702{fill:#E35526;}
	.st703{fill:#FED1A0;}
	.st704{fill:#CCC5F9;}
	.st705{fill:#001151;}
	.st706{fill:#FCC084;}
	.st707{fill:#FBC607;}
	.st708{fill:#FBC708;}
	.st709{fill:#FBC707;}
	.st710{fill:#1096F2;}
	.st711{fill:#1097F2;}
	.st712{fill:#0407CD;}
	.st713{fill:#14A2F8;}
	.st714{fill:#1EB6F7;}
	.st715{fill:#0409CC;}
	.st716{fill:#FBC608;}
	.st717{fill:#86F1FB;}
	.st718{fill:#1195FC;}
	.st719{fill:#FEBBF3;}
	.st720{fill:#FDBBF3;}
	.st721{fill:#FEBAF3;}
	.st722{fill:#CC1601;}
	.st723{fill:#FCB91D;}
	.st724{fill:#FDC01B;}
	.st725{fill:#07D5C1;}
	.st726{fill:#FDC308;}
	.st727{fill:#FCD40F;}
	.st728{fill:#003AB8;}
	.st729{fill:#043BB2;}
	.st730{fill:#90F8F4;}
	.st731{fill:#90F8F5;}
	.st732{fill:#059BF6;}
	.st733{fill:#7EEC02;}
	.st734{fill:#90F9F5;}
	.st735{fill:#4D3F8F;}
	.st736{fill:#020408;}
	.st737{fill:#F9BE11;}
	.st738{fill:#FF9A16;}
	.st739{fill:#02233E;}
	.st740{fill:#FCE4D0;}
	.st741{fill:#C0D8DA;}
	.st742{fill:#FC9A16;}
	.st743{fill:#85A697;}
	.st744{fill:#0208F9;}
	.st745{fill:#BA1402;}
	.st746{fill:#070707;}
	.st747{fill:#020881;}
	.st748{fill:#02C3CC;}
	.st749{fill:#130504;}
	.st750{fill:#1B0705;}
	.st751{fill:#0209F9;}
	.st752{fill:#FAA819;}
	.st753{fill:#FBFCFC;}
	.st754{fill:#A54830;}
	.st755{fill:#A5482F;}
	.st756{fill:#EB4917;}
	.st757{fill:#9CFDF7;}
	.st758{fill:#FCD902;}
	.st759{fill:#FCDA05;}
	.st760{fill:#FCDA04;}
	.st761{fill:#FDFCF8;}
	.st762{fill:#FDFCFA;}
	.st763{fill:#EC4A19;}
	.st764{fill:#2861F5;}
	.st765{fill:#FDBEC3;}
	.st766{fill:#3BF420;}
	.st767{fill:#2BC611;}
	.st768{fill:#92F3F9;}
	.st769{fill:#77240C;}
	.st770{fill:#FCC3B1;}
	.st771{fill:#FC7F5D;}
	.st772{fill:#313131;}
	.st773{fill:#EC4A1A;}
	.st774{fill:#00B5CD;}
	.st775{fill:#B5FDFC;}
	.st776{fill:#7CF6FB;}
	.st777{fill:#01849B;}
	.st778{fill:#76230D;}
	.st779{fill:#FDD4B6;}
	.st780{fill:#2BD0FF;}
	.st781{fill:#0299FE;}
	.st782{fill:#0399FD;}
	.st783{fill:#0208FB;}
	.st784{fill:#D4F9F8;}
	.st785{fill:#0299FD;}
	.st786{fill:#0B0202;}
	.st787{fill:#0A0201;}
	.st788{fill:#2E0904;}
	.st789{fill:#8D2509;}
	.st790{fill:#70EBF3;}
	.st791{fill:#DCF8FF;}
	.st792{fill:#FDF95D;}
	.st793{fill:#BB2603;}
	.st794{fill:#F7AA05;}
	.st795{fill:#E5E5E5;}
	.st796{fill:#0101C4;}
	.st797{fill:#0294F8;}
	.st798{fill:#5ECD7C;}
	.st799{fill:#F9A5A3;}
	.st800{fill:#0001B4;}
	.st801{fill:#0202B2;}
	.st802{fill:#010144;}
	.st803{fill:#ED4916;}
	.st804{fill:#FCADA8;}
	.st805{fill:#200806;}
	.st806{fill:#FAF662;}
	.st807{fill:#75230C;}
	.st808{fill:#FDCF01;}
	.st809{fill:#FBA8A0;}
	.st810{fill:#91F4F9;}
	.st811{fill:#F7F5B8;}
	.st812{fill:#FFE3E3;}
	.st813{fill:#0BE0AC;}
	.st814{fill:#93F3F9;}
	.st815{fill:#D40201;}
	.st816{fill:#D40101;}
	.st817{fill:#D40100;}
	.st818{fill:#D9FAFC;}
	.st819{fill:#2B57FC;}
	.st820{fill:#FAC810;}
	.st821{fill:#D1C4BE;}
	.st822{fill:#EF4A18;}
	.st823{fill:#C61608;}
	.st824{fill:#09AAB9;}
	.st825{fill:#FF9F9C;}
	.st826{fill:#C61606;}
	.st827{fill:#2D57FD;}
	.st828{fill:#76250E;}
	.st829{fill:#2F56F9;}
	.st830{fill:#FC9D00;}
	.st831{fill:#FEC502;}
	.st832{fill:#FFE218;}
	.st833{fill:#FF9C00;}
	.st834{fill:#78250D;}
	.st835{fill:#3D251E;}
	.st836{fill:#FEB301;}
	.st837{fill:#EB4B17;}
	.st838{fill:#FCFFFE;}
	.st839{fill:#01A0FC;}
	.st840{fill:#77250B;}
	.st841{fill:#72240C;}
	.st842{fill:#F4FCE6;}
	.st843{fill:#FECA06;}
	.st844{fill:#3E59C1;}
	.st845{fill:#A37D6E;}
	.st846{fill:#ABCFEB;}
	.st847{fill:#B8EFF4;}
	.st848{fill:#FCEFD9;}
	.st849{fill:#079FA7;}
	.st850{fill:#0AADB1;}
	.st851{fill:#06A0A9;}
	.st852{fill:#08A8AE;}
	.st853{fill:#F2C0A5;}
	.st854{fill:#150A65;}
	.st855{fill:#F2C1A5;}
	.st856{fill:#F5D3BE;}
	.st857{fill:#846D54;}
	.st858{fill:#020000;}
	.st859{fill:#A3432C;}
	.st860{fill:#E1FFF9;}
	.st861{fill:#FEF75E;}
	.st862{fill:#77C6D8;}
	.st863{fill:#01285F;}
	.st864{fill:#C3F4FC;}
	.st865{fill:#E10701;}
	.st866{fill:#ED4917;}
	.st867{fill:#72F4F9;}
	.st868{fill:#E30701;}
	.st869{fill:#9CC9FB;}
	.st870{fill:#9CC9FC;}
	.st871{fill:#FE8D1A;}
	.st872{fill:#FDC116;}
	.st873{fill:#8BEAFC;}
	.st874{fill:#0198FE;}
	.st875{fill:#010245;}
	.st876{fill:#020406;}
	.st877{fill:#010305;}
	.st878{fill:#010405;}
	.st879{fill:#040404;}
	.st880{fill:#050505;}
	.st881{fill:#D0DAFC;}
	.st882{fill:#0693C6;}
	.st883{fill:#E26741;}
	.st884{fill:#69E5FB;}
	.st885{fill:#EF4A16;}
	.st886{fill:#2AD2FE;}
	.st887{fill:#FCC714;}
	.st888{fill:#A3D407;}
	.st889{fill:#FBFDFC;}
	.st890{fill:#01208C;}
	.st891{fill:#E6F9FC;}
	.st892{fill:#B60D6A;}
	.st893{fill:#32CBF5;}
	.st894{fill:#2CCFFB;}
	.st895{fill:#FDF560;}
	.st896{fill:#B2EAE9;}
	.st897{fill:#725CAD;}
	.st898{fill:#7C989E;}
	.st899{fill:#998982;}
	.st900{fill:#5DD0EC;}
	.st901{fill:#888988;}
	.st902{fill:#F4FBFC;}
	.st903{fill:#FAFCFC;}
	.st904{fill:#F9FDFC;}
	.st905{fill:#F8FDFD;}
	.st906{fill:#F8FCFC;}
	.st907{fill:#F6FCFC;}
	.st908{fill:#F5FDFD;}
	.st909{fill:#EDB709;}
	.st910{fill:#FDF663;}
	.st911{fill:#FDF665;}
	.st912{fill:#EEB80A;}
	.st913{fill:#EEB708;}
	.st914{fill:#EDB90A;}
	.st915{fill:#ECB90C;}
	.st916{fill:#EDB708;}
	.st917{fill:#ED4B16;}
	.st918{fill:#0488F3;}
	.st919{fill:#0171F3;}
	.st920{fill:#E74F20;}
	.st921{fill:#0736B4;}
	.st922{fill:#1B20BC;}
	.st923{fill:#B3A39F;}
	.st924{fill:#B078DF;}
	.st925{fill:#702E9D;}
	.st926{fill:#481280;}
	.st927{fill:#943778;}
	.st928{fill:#0305F9;}
	.st929{fill:#ACACAA;}
	.st930{fill:#F4960D;}
	.st931{fill:#EEC6A6;}
	.st932{fill:#EE4A15;}
	.st933{fill:#FCC4B8;}
	.st934{fill:#0471AA;}
	.st935{fill:#070202;}
	.st936{fill:#82280F;}
	.st937{fill:#EE4A18;}
	.st938{fill:#FCF8A9;}
	.st939{fill:#788DFC;}
	.st940{fill:#C6C6C6;}
	.st941{fill:#0571AA;}
	.st942{fill:#30CFFA;}
	.st943{fill:#2FCFFA;}
	.st944{fill:#0371A9;}
	.st945{fill:#0002F8;}
	.st946{fill:#044DB1;}
	.st947{fill:#FCF8C8;}
	.st948{fill:#EBCD3C;}
	.st949{fill:#3ACAF3;}
	.st950{fill:#0397F5;}
	.st951{fill:#FACE16;}
	.st952{fill:#030001;}
	.st953{fill:#FCE0D9;}
	.st954{fill:#F8CABB;}
	.st955{fill:#C51207;}
	.st956{fill:#020001;}
	.st957{fill:#0398F6;}
	.st958{fill:#10145D;}
	.st959{fill:#D4EFFC;}
	.st960{fill:#FFF9F2;}
	.st961{fill:#01A195;}
	.st962{fill:#F6D0CE;}
	.st963{fill:#FCF460;}
	.st964{fill:#FCE6E0;}
	.st965{fill:#FCE6E6;}
	.st966{fill:#FBBF08;}
	.st967{fill:#FBBF09;}
	.st968{fill:#000048;}
	.st969{fill:#03A8EB;}
	.st970{fill:#0AB5EF;}
	.st971{fill:#2884FD;}
	.st972{fill:#F3E6FC;}
	.st973{fill:#030102;}
	.st974{fill:#911F0C;}
	.st975{fill:#14C7F6;}
	.st976{fill:#FDBFBA;}
	.st977{fill:#AAE9FA;}
	.st978{fill:#70EBF5;}
	.st979{fill:#FAE65F;}
	.st980{fill:#01126E;}
	.st981{fill:#2A58FF;}
	.st982{fill:#B81C17;}
	.st983{fill:#0101EB;}
	.st984{fill:#AFF2FA;}
	.st985{fill:#0101EA;}
	.st986{fill:#F99F0B;}
	.st987{fill:#FDF667;}
	.st988{fill:#FCF66B;}
	.st989{fill:#71250B;}
	.st990{fill:#B61F0A;}
	.st991{fill:#FCB5A2;}
	.st992{fill:#FCCDBD;}
	.st993{fill:#FE7F5B;}
	.st994{fill:#FCFADE;}
	.st995{fill:#B61F0C;}
	.st996{fill:#C3E7F1;}
	.st997{fill:#DFE2DF;}
	.st998{fill:#8D8B8A;}
	.st999{fill:#98847C;}
	.st1000{fill:#945580;}
	.st1001{fill:#0EBA69;}
	.st1002{fill:#FED70B;}
	.st1003{fill:#FDD9B3;}
	.st1004{fill:#FDD9B2;}
	.st1005{fill:#FDD50E;}
	.st1006{fill:#FB825A;}
	.st1007{fill:#110E46;}
	.st1008{fill:#E8F2F1;}
	.st1009{fill:#A8FBFB;}
	.st1010{fill:#FEDAB4;}
	.st1011{fill:#FDD80C;}
	.st1012{fill:#FEB31A;}
	.st1013{fill:#95E9F5;}
	.st1014{fill:#59DF8C;}
	.st1015{fill:#01A1A0;}
	.st1016{fill:#FFFFFD;}
	.st1017{fill:#C8E7FC;}
	.st1018{fill:#D4F6F9;}
	.st1019{fill:#2D58FA;}
	.st1020{fill:#F9DBD4;}
	.st1021{fill:#0C8948;}
	.st1022{fill:#C0F3FF;}
	.st1023{fill:#2C56FA;}
	.st1024{fill:#D2EBFC;}
	.st1025{fill:#EDF7FC;}
	.st1026{fill:#FCC219;}
	.st1027{fill:#040201;}
	.st1028{fill:#FCC31C;}
	.st1029{fill:#95EAF7;}
	.st1030{fill:#F143A4;}
	.st1031{fill:#00A8F9;}
	.st1032{fill:#01C6F8;}
	.st1033{fill:#8DF2F3;}
	.st1034{fill:#2C58FA;}
	.st1035{fill:#8DF3F2;}
	.st1036{fill:#8EF2F2;}
	.st1037{fill:#8EF3F2;}
	.st1038{fill:#92EFED;}
	.st1039{fill:#00A8FA;}
	.st1040{fill:#2CCDFA;}
	.st1041{fill:#FBFAA8;}
	.st1042{fill:#75240C;}
	.st1043{fill:#0222E6;}
	.st1044{fill:#66B2FE;}
	.st1045{fill:#FDC907;}
	.st1046{fill:#2D57F7;}
	.st1047{fill:#486585;}
	.st1048{fill:#3D4F6D;}
	.st1049{fill:#3F506A;}
	.st1050{fill:#FB1F83;}
	.st1051{fill:#000CF5;}
	.st1052{fill:#F0FCDE;}
	.st1053{fill:#47A2EF;}
	.st1054{fill:#F5FFE6;}
	.st1055{fill:#4FD5A5;}
	.st1056{fill:#C5E4A0;}
	.st1057{fill:#CCE59F;}
	.st1058{fill:#87F8FA;}
	.st1059{fill:#0BABA1;}
	.st1060{fill:#07855B;}
	.st1061{fill:#BBE5FB;}
	.st1062{fill:#11288F;}
	.st1063{fill:#48A1EE;}
	.st1064{fill:#27D2FE;}
	.st1065{fill:#C51A02;}
	.st1066{fill:#C71202;}
	.st1067{fill:#0101DC;}
	.st1068{fill:#FF7F59;}
	.st1069{fill:#E05227;}
	.st1070{fill:#A3A096;}
	.st1071{fill:#67E3F2;}
	.st1072{fill:#0202EF;}
	.st1073{fill:#FECD01;}
	.st1074{fill:#CD1503;}
	.st1075{fill:#EB4A18;}
	.st1076{fill:#DBF6FC;}
	.st1077{fill:#66E3F2;}
	.st1078{fill:#2CD0FD;}
	.st1079{fill:#2E57FB;}
	.st1080{fill:#FA7F5C;}
	.st1081{fill:#FDCC01;}
	.st1082{fill:#FECC02;}
	.st1083{fill:#2BD2FE;}
	.st1084{fill:#FCD2C8;}
	.st1085{fill:#02018B;}
	.st1086{fill:#EC4E1E;}
	.st1087{fill:#090202;}
	.st1088{fill:#100302;}
	.st1089{fill:#0C0101;}
	.st1090{fill:#CB0D19;}
	.st1091{fill:#0E0504;}
	.st1092{fill:#0D0403;}
	.st1093{fill:#150808;}
	.st1094{fill:#0F0504;}
	.st1095{fill:#03DBC8;}
	.st1096{fill:#02DA93;}
	.st1097{fill:#FCAD0C;}
	.st1098{fill:#C7080C;}
	.st1099{fill:#C5080A;}
	.st1100{fill:#FD7E5B;}
	.st1101{fill:#A5FBFC;}
	.st1102{fill:#68B2F3;}
	.st1103{fill:#001D5F;}
	.st1104{fill:#7DDDF8;}
	.st1105{fill:#7CDDF8;}
	.st1106{fill:#19B84B;}
	.st1107{fill:#61BC5A;}
	.st1108{fill:#B30201;}
	.st1109{fill:#1DB64D;}
	.st1110{fill:#C5EFF9;}
	.st1111{fill:#FCC5B6;}
	.st1112{fill:#026CBF;}
	.st1113{fill:#E86946;}
	.st1114{fill:#FCC40C;}
	.st1115{fill:#B0F6F6;}
	.st1116{fill:#FAC40E;}
	.st1117{fill:#FCC50D;}
	.st1118{fill:#FDC50C;}
	.st1119{fill:#2D57FC;}
	.st1120{fill:#83D21A;}
	.st1121{fill:#FEA10D;}
	.st1122{fill:#71E7E1;}
	.st1123{fill:#FFB3A2;}
</style>
<g id="_x39_3">
	<g>
		<path class="st40" d="M33.4247665,58.0275345c0.1384163,0.0378189,0.2597313,0.1561356,0.4201927,0.0900497
			c-0.1322289,0.7513084-0.2644234,1.5025902-0.3966217,2.2538719
			C33.4193573,59.5900497,33.4850121,58.8082123,33.4247665,58.0275345z"/>
	</g>
	<g>
		<path class="st41" d="M26.9115219,47.1606789c-0.0007057-0.1926041-0.0014095-0.3852043-0.0021114-0.5778008
			C27.1131287,46.7747345,27.120903,46.967308,26.9115219,47.1606789z"/>
	</g>
	<g>
		<path class="st42" d="M25.4159966,47.8517914c0.1108418-0.1602859,0.2721405-0.1302261,0.4295177-0.1148224
			C25.7499027,47.9005356,25.5880566,47.8640671,25.4159966,47.8517914z"/>
	</g>
	<g>
		<g>
			<g>
				<path class="st43" d="M21.1562881,32.2138062c-1.2427959-1.3061085-6.4377851-7.1653347-7.284626-8.0233173
					c-0.2359238-0.2390308-0.0535336-0.3924656,0.0748692-0.5483379c0.9173203-1.1135731,2.0425615-1.9557705,3.3529434-2.5477791
					c0.4784279-0.2161427,0.473917-0.2035236,0.6531734,0.3182564c0.096323,0.2803783,1.3699913,3.6918621,2.5011139,7.8697624
					c0.1657505,0.6122189,0.3738804,1.2185764,0.4749603,1.8507824c0.0340862,0.2131977,0.1182995,0.4225235,0.2070675,0.6212463
					C21.1967812,31.8909607,21.2161369,32.0117035,21.1562881,32.2138062z"/>
			</g>
			<g>
				<path class="st10" d="M23.8513107,23.1927967c-0.279911-0.5378094,0.0572319,0.3282547-3.0492344-7.4293242
					c-0.0720825-0.1800079,0.0520763-0.2884598,0.1739807-0.3345261c0.5642166-0.2132196,1.1362038-0.4284143,1.7438564-0.4486151
					c0.3790398-0.0125999,0.7285042-0.1761541,1.1141109-0.1457005c0.4509277,0.0356112,0.4857254,0.0475206,0.4864597,0.4857273
					c0.0025387,1.5103016-0.13764,3.5730228-0.2591019,4.5895519c-0.0572834,0.4794235-0.0350666,0.9698944-0.0291538,1.4550915
					C24.0397072,21.9785328,23.8284283,22.5682716,23.8513107,23.1927967z"/>
			</g>
			<g>
				<path class="st10" d="M16.5235767,35.6086044c-0.0571232,0.4068985-0.2196674-0.0415573-4.9439859-2.8580437
					c-0.1879702-0.1120605-0.3502493-0.2598-0.5542688-0.3529816c-0.1357803-0.0620117-0.2049303-0.1782036-0.0722227-0.3672333
					c0.5950375-0.8475628,1.323678-1.5515194,2.1491232-2.1691666c0.2232571-0.1670551,0.0544119-0.4899006,3.2322407,5.3389053
					C16.4060059,35.3313103,16.460741,35.4717827,16.5235767,35.6086044z"/>
			</g>
			<g>
				<path class="st4" d="M10.0008526,40.6549149c-1.1401758-0.6488647-2.2699308-1.299675-3.3564482-2.0226326
					c-0.1776299-0.1181908-0.2171993-0.2155457-0.0999703-0.3970261c0.2848005-0.4408836,0.670928-0.7857208,1.040772-1.1476402
					c0.1022935-0.1001015,0.1641955-0.0594826,0.2244911,0.0283394
					C8.5939465,38.2581978,9.3890114,39.3937569,10.0008526,40.6549149z"/>
			</g>
			<g>
				<path class="st44" d="M11.5386496,39.6297264c-0.6614466-0.8646927-1.0902195-1.7486877-1.3593626-2.7455864
					c0.350441-0.0649338,0.6853609-0.1199875,1.016839-0.1912041c0.181428-0.0389824,0.2228127,0.063694,0.26091,0.2016983
					c0.1975794,0.7157059,0.2094488,1.4451637,0.1621094,2.1785164
					C11.6093063,39.2255859,11.5761108,39.3765068,11.5386496,39.6297264z"/>
			</g>
		</g>
		<g>
			<g>
				<path class="st45" d="M20.1647396,14.5741282c-0.0692348-0.1501713-0.0039005-0.3286209,0.1462708-0.3978558
					c0.0965385-0.0438814,2.3598328-1.077527,3.8912849-0.669919c0.1599216,0.0429058,0.2549973,0.2067289,0.2125797,0.3666515
					c-0.0429058,0.1608973-0.2057552,0.2554855-0.3666515,0.2125797c-1.3208237-0.3490992-3.463686,0.6250629-3.4856281,0.6348143
					C20.4100399,14.7894125,20.2337208,14.7227011,20.1647396,14.5741282z"/>
			</g>
			<g>
				<path class="st45" d="M13.0291758,23.0938988c-0.1262808-0.1072636-0.1413946-0.2964401-0.0341301-0.4222336
					c0.084837-0.0994644,2.1009331-2.4475937,3.8542299-2.8064442c0.1608963-0.0302296,0.3198433,0.0711842,0.353487,0.233057
					c0.0331535,0.1628494-0.0711861,0.3208218-0.2335453,0.3539753c-1.5509558,0.317894-3.4983044,2.5850887-3.517807,2.6075172
					C13.3440475,23.1864929,13.1537628,23.2000694,13.0291758,23.0938988z"/>
			</g>
			<g>
				<path class="st45" d="M10.0174656,31.5522366c-0.138957-0.0897121-0.1794252-0.2740135-0.0902004-0.4134579
					c0.0316916-0.0487556,0.7893734-1.2159958,2.2125854-2.2506161c0.1331062-0.0984879,0.3213081-0.0672836,0.418334,0.0653343
					c0.0970259,0.1335945,0.0677719,0.3217964-0.066309,0.418335c-1.3271618,0.9663601-2.0536385,2.0799656-2.0604649,2.0906925
					C10.3433762,31.5983067,10.1603346,31.6437855,10.0174656,31.5522366z"/>
			</g>
			<g>
				<path class="st45" d="M5.6707921,37.9013557c-0.1482205-0.0711861-0.2120919-0.2457352-0.1428576-0.3949318
					c0.0282793-0.0604591,0.3076558-0.6182365,1.3222857-1.3086357c0.1370068-0.0945854,0.3227706-0.0575333,0.4163837,0.0789871
					c0.0931253,0.1365204,0.0575328,0.3227692-0.0789862,0.4163857c-0.8771358,0.5967827-1.1155567,1.064846-1.1179943,1.069725
					C5.9938464,37.9158401,5.809979,37.9701271,5.6707921,37.9013557z"/>
			</g>
		</g>
	</g>
	<g>
		<g>
			<g>
				<path d="M47.1409721,43.7260857c0.2702866,0.2036476,0.5116692,0.436058,0.7848892,0.637455
					c0.2927437,0.215786,0.7697182,0.2980537,1.1140556,0.4275818c5.8606758,2.2046509,6.1592674,2.2216148,6.5994453,2.7649689
					c-6.3057632,2.5445976-4.971611,2.1738777-9.9322777,4.6377831c-3.9413681,1.9576378-10.8409729,5.2352104-11.8621559,5.9237366
					c-0.182991,0.1719437-0.3008652,0.0375977-0.4201622-0.0900764c-0.5109367-0.3944473-1.1202202-0.5892525-1.7039356-0.8302002
					C7.2298403,47.0878296,8.661088,47.7442436,8.6203871,47.6437912c0.0804253-0.2589798,0.3237562-0.3286972,0.5241852-0.4367294
					c0.7833834-0.4222755,7.1785536-3.1871109,8.0310907-3.5438004c10.5405407-4.4100227,12.7807713-5.431591,15.3695641-4.8040771
					c4.5521088,1.1034126,3.9793892,1.2182274,5.3260345,1.6098557c0.655571,0.1906509,1.3414459,0.2512894,2.0061111,0.4069786
					c1.4849358,0.3478279,2.8208084,1.157856,4.2720146,1.6277924c1.2661171,0.409996,1.7984238,0.4124489,2.9706459,1.2280884
					c0.4080048,0.2838898,0.9312096,0.4503288,1.3867912,0.6582069c3.168766,1.4458961,3.4970589,2.0013504,4.4561958,2.2593384
					c0.3499069,0.09412,0.7167892,0.1155243,1.0638008,0.2198982c0.6506119,0.195694,1.2276955,0.6794777,1.9068604,0.676445"/>
			</g>
			<g>
				<g>
					<path class="st1" d="M56.2840996,48.0951576c-0.5438766,0.0652885-1.0547409-0.9334564-1.3935432-1.2713966
						c-0.6720276-0.6703224-0.8365479-2.0743523-1.6188622-2.8048592c-0.5791626-0.5408058-1.4257584-0.6361885-2.1920166-0.8327026
						c-1.8793983-0.4819832-1.561203-0.8217049-4.984848-1.4261093c-9.5090942-1.6787186-9.402729-1.3619652-14.544239-3.885704
						c-0.5439625-0.2670059-1.0975189-0.5389557-1.5734253-0.9198494c-0.5861378-0.46912-0.710741-0.8783302-0.8261909-1.6038551
						c-0.5948029-3.7379589,0.6220474-14.1454144,1.1991405-19.9485283c0.2051201-2.062624,0.1808014-4.3111267,1.0884361-6.2157078
						c0.3141747-0.6592693,0.6022968-0.7547321,1.3339558-0.6447525
						c11.0958977,1.6678638,20.6843605,3.3153725,33.9359283,7.6555548
						c-1.2550659,8.6333828-3.3977928,17.1363659-6.3830948,25.3300457
						c-0.573864,1.5750618-1.2040825,3.1779861-2.2331772,4.5169334c-0.421093,0.5478821-0.9472694,1.4407272-1.6435509,1.6427727
						C56.3962555,47.7021942,56.3320198,48.0894051,56.2840996,48.0951576z"/>
				</g>
				<g>
					<path class="st26" d="M56.2840996,48.0951576c0.034626-0.4544792-0.6739616,2.9733772,5.3934364-20.1022949
						c2.8793564-10.9508839,2.7713394-10.286232,2.7497635-10.4914017
						c-0.0194931-0.4211864,0.1523361-0.8035336,0.2458267-1.2013111c0.0805588-0.3427477,0.187027-0.679287,0.2500839-1.0263767
						c0.169281-0.8435936,0.4519424-1.644619,0.9741135-2.3345728c0.2507782-0.3313742,0.4910583-0.6983261,0.9318008-0.8232403
						c0.9511032,0.215807,1.5470505,0.8641539,1.9851837,1.6815872c0.6618881,1.2348795,0.7992935,2.5600939,0.6040878,3.9301691
						c-0.5697708,3.9989681-4.9875641,18.0266895-6.2056389,22.1458721
						c-0.3785515,1.280159-0.7152405,2.5729752-1.1052246,3.8494835c-0.3925705,1.2849846-1.1817932,2.2397957-2.4258156,2.7987976
						C58.5434113,47.0333519,57.4161987,47.5697403,56.2840996,48.0951576z"/>
				</g>
				<g>
					<path class="st1" d="M66.8291245,12.1159601c-0.9202271,0.7173395-1.4795456,1.6553936-1.7045364,2.8003082
						c-0.0221558,0.1127386-0.0366974,0.2350082-0.1319046,0.3202896c-0.2382889,0.0660295-0.4692917,0.0019693-0.6984634-0.04778
						C49.9208755,12.068593,30.4255829,8.79671,30.3305435,8.6908092c0.1943073-0.6091185,0.4194508-1.2007346,0.928812-1.6283627
						c0.6658936-0.5590401,1.4195423-0.6428032,2.253973-0.4916139c4.025547,0.7293782,13.1744995,2.1295819,17.0916443,2.776134
						c0.1001511,0.016531,12.766655,2.1622763,13.1439514,2.2189064
						C65.5211563,11.8318815,66.7012863,11.9899368,66.8291245,12.1159601z"/>
				</g>
				<g>
					<path class="st46" d="M30.3305435,8.6908092c3.4411049,0.24051,34.5904922,6.4699326,34.6621552,6.5456963
						c0.0003204,0.5375414-0.2153625,1.0277805-0.3520279,1.5328465c-0.0659027,0.2435665-0.0337067,0.5216103-0.2133636,0.7321587
						c-1.6565247-0.2332478-11.5045433-2.4108553-27.7578583-5.1694317
						c-5.2018433-0.8828754-4.5151253-0.6042566-4.7784081-0.9864874c-0.4404945-0.6395006-0.8185596-1.317873-1.2071629-1.9892025
						c-0.1176701-0.2032776-0.2709885-0.3842239-0.3646526-0.6015463
						C30.3088074,8.7309694,30.3125782,8.7096252,30.3305435,8.6908092z"/>
				</g>
				<g>
					<path class="st47" d="M28.3109837,35.7241936c-0.2502136-0.022728-0.475111,0.0673523-0.6997452,0.1585426
						c-0.1028233-0.3029404-0.084095-6.6977501,0.1475658-10.6414623c0.2262535-3.8516788,1.4447632-12.1297207,2.5604-16.4863396
						c0.4269485,0.3229427,0.5700798,0.8390388,0.8455238,1.2644024c0.3424854,0.5288954,0.6302299,1.0934744,1.0286541,1.5859556
						c-1.2964859,5.9839764-2.9080658,18.0443954-2.4590454,24.0780869
						C29.2578983,35.6249084,28.7834435,35.6395264,28.3109837,35.7241936z"/>
				</g>
			</g>
			<g>
				<g>
					<path class="st26" d="M33.1524887,62.0049057c0.4973793-0.154911-0.9772873,0.520401,22.52145-11.1424217
						c0.2036552-0.1010704,0.2746506-0.2158928,0.2591019-0.434185c-0.0201569-0.2830963-0.0051613-0.5685349-0.0164337-0.85252
						c-0.0062027-0.1560974,0.0560265-0.18787,0.1883888-0.1387863c1.7592888,0.652401,2.0208855,0.7616272,2.026577,1.3244209
						c0.0222092,2.1945686-0.2676926,4.4792557-0.2703285,4.6779022c-0.0046539,0.3510475-0.1824799,0.5570679-0.4537811,0.7434311
						c-1.4612541,1.0038033-3.0317001,1.8198051-4.5698166,2.6905708c-3.0048943,1.7011375-5.9939499,3.433033-9.0865326,4.9715195
						c-2.2307091,1.1097221-7.5993652,3.7233391-10.3275757,4.5789452
						c-0.2907524-0.2363052-0.3209457-0.5867615-0.3907394-0.9164581c-0.249073-1.1765594-0.1733627-2.3720779-0.1268234-3.5553894
						C32.9313622,63.306385,32.9771233,62.6416855,33.1524887,62.0049057z"/>
				</g>
				<g>
					<g>
						<path class="st1" d="M17.8230438,62.4563866c-7.4295149-3.5039635-8.0310926-3.8193893-10.3938046-4.8999825
							c-0.8205976-0.3752899-1.2502313-0.893364-1.2227802-1.8391457c0.0453544-1.562561,0.0293021-3.1276588,0.00353-4.6911011
							c-0.0078053-0.4734955,0.200449-0.7266808,0.5945311-0.8855972c0.3692493-0.1489105,0.7428045-0.287056,1.1144657-0.4299316
							c0.0280175-0.0342255,0.057538-0.0355797,0.0885606-0.0040855c0.9908991,1.7289162,0.8931828,1.6488228,1.1245708,1.7363586
							c0.7583923,0.286911,19.472435,8.318512,19.8876648,8.6552277c-0.0546093,0.0584717-0.1301327,0.0726967-0.193964,0.0457153
							c-0.3380432-0.1428986-0.5212212,0.0228958-0.6716366,0.3058205c-0.0948086,0.1783257-0.2448406,0.3267326-0.438715,0.3902969
							c-2.087347,0.6844101-1.8204212,0.4571457-1.8214912,0.4574394c-0.4357376,0.1201286-0.8694649,0.2043991-1.2724934,0.4618759
							c-0.2268658,0.1449356-0.5017319,0.2222214-0.7575874,0.2983856
							c-0.4197941,0.1249619-0.2595978-0.2629166-0.6753693-0.2550621c-1.556776,0.0294151-2.1338806,0.0742149-2.9770622-0.0891075
							c-0.1188068-0.0230141-0.2679386-0.0898285-0.3782654-0.0460167c-0.110548,0.0438957-0.1886158,0.1423416-0.323185,0.1786728
							C18.9304581,62.0026474,18.3644276,62.1945343,17.8230438,62.4563866z"/>
					</g>
					<g>
						<path class="st48" d="M27.542572,60.8217316c0.2468929-0.086853,0.4352169-0.2283401,0.567915-0.4499893
							c0.2639465-0.4408684,0.2634068-0.4404182,0.7697258-0.2880363c0.0440273,0.0132446,0.0929661,0.0100136,0.1395969,0.0144348
							c3.0671349,1.3769798,2.0234947,0.9005966,4.1325226,1.9066467c0.0162582,0.089035,0.133564,0.1240616,0.1034813,0.2459297
							c-0.364006,1.4747772-0.2986031,2.9802246-0.235981,4.4734497c0.0237045,0.565155,0.134861,1.1654816,0.4036636,1.6996384
							c-0.5114288,0.1753769-0.9937668-0.0109177-1.4782658-0.1288528
							c-4.4559212-1.0847015-8.6206703-3.2077789-14.1221313-5.8385277
							c0.0924034-0.1622124,0.2369633-0.2479362,0.4114914-0.3016891c0.4209957-0.129673,0.8395557-0.2673111,1.2592888-0.4011269
							c0.1208954-0.0385437,0.2522583-0.0559959,0.3324203-0.1730919c0.1658802-0.092205,0.2950649,0.0262184,0.4288235,0.0842667
							c1.113987,0.4834595,2.0118675,1.0880585,2.9338303,0.3924561c0.0884991-0.0667725,0.1580124-0.1913109,0.3020744-0.1178856
							c0.0361271,0.0510178-0.0318737,0.2166367,0.1087475,0.145237c0.3105736-0.1576691,0.7242069-0.2011681,0.94561-0.3745575
							c0.255352-0.1999779,0.5581608-0.3050499,0.8686943-0.3831253c0.7700768-0.1936188,0.3382874-0.1948738,1.222086-0.1900291
							c0.0672836,0.00037,0.1348076,0.0007248,0.20154-0.0079231C27.1019344,61.0947075,27.2977238,60.9078636,27.542572,60.8217316
							z"/>
					</g>
					<g>
						<path d="M23.4910278,61.9393539c-0.2320404,0.1274261-0.3944054,0.3474007-0.6581268,0.4429207
							c-1.174345,0.4253311-2.3057079-0.6543465-7.0565052-2.6984024c-1.6747074-0.7205582-1.9015818-2.6489296-1.4809875-3.7688751
							c0.2345743-0.6245995,0.5524826-0.8088951,1.1763124-0.5709457c1.9415617,0.7405586,5.1746988,2.1176453,6.8308039,2.7641296
							c1.3686008,0.5342445,1.7837772,2.2607193,1.436512,3.3279381
							C23.6817455,61.6121902,23.5749435,61.7720184,23.4910278,61.9393539z"/>
					</g>
				</g>
			</g>
			<g>
				<g>
					<path class="st46" d="M30.5878963,38.7575417c-1.5617352,0.452549-1.4497299,0.0958862-5.8841438,1.9009857
						c-7.2386074,2.9466248-9.4964619,3.9340057-12.2167196,5.1488724
						c-1.6978827,0.7582741-2.4689817,0.9812317-3.8665867,1.8364792c-1.1284428-0.4020844-2.0560455-1.1141052-2.9158835-1.9240379
						c-0.195909-0.184536-0.1176705-0.3440323,0.1164112-0.4619865c1.0069346-0.5073967,18.8013821-8.0983009,20.5539494-8.7814636
						c0.4244156-0.1654434,0.8577766-0.325592,1.2363739-0.5934868c0.1932068-0.2308311,0.4165077-0.3278732,0.6996861-0.1587105
						C29.339529,36.4500084,29.9775372,37.6569977,30.5878963,38.7575417z"/>
				</g>
				<g>
					<path class="st0" d="M56.7334175,44.1748772c0,0-1.0842171,3.3158798-0.8378029,6.4832916L33.1270561,62.1400299
						L8.7814522,51.4005318L5.9230618,45.956543l27.7953835,12.0262604c0,0,20.5015602-10.1950989,21.8321915-10.3930626
						c0,0-12.0249557-5.4934769-25.0355587-8.8093605c0,0-1.1716366-2.5065002-2.3856411-3.0119934
						c0,0,1.7765923-0.4757614,6.9583206,1.6651573L56.7334175,44.1748772z"/>
				</g>
			</g>
		</g>
		<g>
			<g>
				<path class="st49" d="M25.6373768,47.867588c-0.0032673,0.0861053-0.0065365,0.1722107-0.0098038,0.258316
					c-0.1518879,0.1952782-0.3970089,0.1807709-0.5982265,0.2629433c-0.4028664,0.1645432-0.8215389,0.2929268-1.1418133,0.6134796
					c-0.8319054,0.8326187,0.0398216,1.6113701,1.1545238,1.9771233c1.0088139,0.3310089,2.0289478,0.3651085,3.056448,0.0734825
					c0.5315571-0.1508751,0.9582157-0.4407692,1.2630634-0.9062004c0.0452404-0.0690765,0.0870724-0.1426277,0.1816998-0.1525536
					c0.8688831,0.0391502,1.9323158,0.6859474,2.9235668,0.8580818c0.0811005,0.0091934,0.119503,0.071888,0.1516953,0.1332321
					c0.325676,0.6206665,0.8692894,0.9313736,1.5221405,1.0948792c0.1664085,0.0416832,0.353714,0.0455093,0.4744415,0.2008324
					c-0.0680161,0.1550331-0.2094231,0.1318207-0.3352203,0.1327629c-1.7986526,0.0135002-3.5928936,0.0230217-5.3821335-0.2617493
					c-1.7211342-0.2739372-3.4210815-0.6009407-5.0311813-1.2904167c-3.2995453-1.4129295-3.4235497-3.5962677-1.4929886-4.8370934
					c0.1009922,0.1204567,0.0461559,0.2418709,0.0059376,0.3658981c-0.1218185,0.3756447,0.0149765,0.6844177,0.299881,0.9088173
					c0.7988892,0.6292229,1.3149147,0.4377632,2.7413578,0.4712257
					C25.5027103,47.7811584,25.5818329,47.7981033,25.6373768,47.867588z"/>
			</g>
			<g>
				<path class="st10" d="M43.1401443,45.2249985c0.4784317,0.1986389,1.0193558,0.496933,1.0778656,1.0135002
					c0.0262413,0.2316742-0.0552254,0.4600677-0.1251755,0.6824036c-0.567749,1.8045731-0.2163773,2.8627243-0.3704948,3.2140999
					c-0.098011,0.2234612-0.3416481,0.3378639-0.5659866,0.4320526c-6.8927917,2.8940392-8.5826111,1.1226616-11.7089138,0.0595322
					c-1.9036579-0.6473579-4.0279713-0.873951-5.5984612-2.1334534c-0.3871002-0.3104477-0.3015213-0.429184-0.3341808-0.7801476
					c-0.0350094-0.3762131-0.2929668-0.6862259-0.4829082-1.012394c-0.3467941-0.5955162-0.5166836-1.639801,0.085041-2.153492
					c0.3052006-0.2605476,0.8949165-0.321846,1.2800961-0.4039421c1.191967-0.2540627,5.3139668-0.8812141,7.7326889-0.8651161
					C37.2441444,43.2987747,40.3093529,44.0496712,43.1401443,45.2249985z"/>
			</g>
			<g>
				<path class="st50" d="M33.8767242,44.1295547c0.2670326-0.3789291,0.6803818-0.1975327,1.0193825-0.2972183
					c0.0254211-0.007473,0.0834389,0.0454521,0.1037331,0.0826988c0.039753,0.0729866-0.0287094,0.093338-0.0756798,0.1274261
					C34.5943947,44.2817764,34.2316551,44.1304169,33.8767242,44.1295547z"/>
			</g>
			<g>
				<g>
					<path class="st24" d="M46.5918083,45.1208611c0.9290886,0.517231,1.7839584,1.3938446,1.7881622,2.4590187
						c0.0032158,0.8156128-0.493515,1.5484047-1.0554352,2.1373062c-3.2531242,3.4093208-9.7365685,4.4184723-14.4730606,4.5208702
						c-4.2371731,0.0916023-8.702776-0.4307442-12.1546631-2.9000854c-0.9674892-0.6921043-1.9023571-1.6752663-1.8859711-2.8680496
						c0.0238609-1.7360382,1.7850475-2.8792267,3.128521-3.6116333c0.7827892-0.4267426,1.6057835-0.7790451,2.454277-1.0510864
						c1.7899628-0.5738831,2.0331268-0.3490906,2.6069527-0.5693207c-3.2376289,1.2425613-3.2261868,1.1937485-3.3817959,1.4211578
						c-0.110405,0.1613464-0.0830173,0.4306679,0.099308,0.4999542c-0.6407585,0.3676453-1.2934685,0.7448502-1.785368,1.2972984
						s-0.8039379,1.3207092-0.6308117,2.0411148c0.185915,0.7736206,0.8691616,1.3176689,1.553566,1.7188797
						c3.5099792,2.0576057,9.3779659,2.3306389,13.4027004,1.967411c3.0404663-0.2743988,6.1333694-1.0006485,8.6085548-2.7949677
						c1.8532486-1.3434639,1.2191505-2.2863579,1.2527084-2.7909927
						C46.1542664,46.0742111,46.6323547,45.6308174,46.5918083,45.1208611z"/>
				</g>
				<g>
					<path class="st51" d="M29.3289394,42.8875198c4.1219807-0.7821312,5.6498928-0.5824203,8.6265202-0.2608948
						c0.0403595,0.0807533,0.0053406,0.1495705-0.0651321,0.169693c-0.5228767,0.1492958-0.9478226,0.4828072-1.4106178,0.7460022
						c-0.462677,0.0498009-0.8935814-0.1821709-1.3541603-0.1519165c-0.7132378-0.2255096-1.4162598-0.0471497-2.1205788,0.0564384
						c-0.1026802,0.0151024-0.1984367,0.0762024-0.3083725,0.0470009c-0.3563881-0.1327553-0.7131939-0.0840988-1.071167-0.0061836
						c-0.5141048,0.1118965-1.0465755,0.0882607-1.5600491,0.2126274
						C29.6302433,43.8056946,29.5512447,43.2194977,29.3289394,42.8875198z"/>
				</g>
				<g>
					<path class="st52" d="M41.7958374,44.7373772c0.1079369-0.4840279-0.0392723-0.869751-0.4282608-1.175724
						c-0.1265221-0.099514-0.2371635-0.225502-0.3005638-0.3819542c0.9703789,0.2586021,1.9066811,0.6132431,2.827404,1.0118332
						c-0.2894974,0.2862663-0.6639786,0.507782-0.7290878,0.9650116c-0.0775566,0.0947495-0.1854744,0.1098824-0.2879486,0.0773506
						C42.0094757,44.9583931,41.8805809,44.9754028,41.7958374,44.7373772z"/>
				</g>
				<g>
					<path class="st53" d="M44.039814,46.7286568c0.0464706-0.0903358,0.0929451-0.1806717,0.1394501-0.2709999
						c0.3041039,0.0135193,0.5830879,0.1558495,0.8954811,0.1518021c0.3638458-0.0047264,0.7220421-0.0063858,1.0632401-0.1515045
						c0.4966087,1.3790169-0.1855659,2.2836876-1.2208939,3.0392418c-0.3603935,0.2630081-0.7349358,0.5072823-1.1648254,0.6475601
						c-0.0037422-0.2168655-0.0074692-0.4337425-0.0111923-0.6506271c0.0288124-0.1665306,0.1874657-0.1630516,0.2954788-0.2152443
						c0.2133331-0.1030807,0.4213486-0.2080307,0.598568-0.3708496c0.448555-0.4121094,0.5042191-0.975769,0.1383247-1.4637375
						c-0.1366692-0.1822777-0.3136368-0.3175583-0.4972229-0.4488258
						C44.1806641,46.9271469,44.018898,46.905323,44.039814,46.7286568z"/>
				</g>
				<g>
					<path class="st54" d="M24.771492,44.9648666c-0.375124,0.0290947-0.750246,0.0581932-1.1254501,0.087429
						c-0.4351864-0.3410492-0.4164963-0.3924561-0.0226002-0.5784683c1.2997608-0.613781,2.2226543-0.8644638,3.1479015-1.1620369
						c-0.0011482,0.2862091-0.0023117,0.5724907-0.0034599,0.8588066
						C26.0004463,44.176857,25.3687286,44.5271606,24.771492,44.9648666z"/>
				</g>
			</g>
			<g>
				<path class="st55" d="M35.1051979,43.3050041c-3.5385342,1.0572472-2.3206367,0.6418648-3.6120319,1.1277313
					c-0.1536198,0.0577965-0.5425301-0.1402855-0.5924854-0.2856369c-0.0456047-0.1326942,0.0754108-0.1340294,0.1351662-0.1575699
					c0.3434372-0.1352997,0.6859322-0.2780075,1.0396538-0.3800812c0.2075806-0.0599022,0.3977623-0.2027245,0.6312866-0.16362
					C33.4956207,43.2152634,34.2880898,43.0483894,35.1051979,43.3050041z"/>
			</g>
			<g>
				<g>
					<path class="st46" d="M26.7713604,43.311718c0.0749207-0.0160179,0.1115398-0.058979,0.0964432-0.1383057
						c0.1568508-0.4804611,0.3476715-0.9437103,0.6945572-1.3226891c0.6662674-0.7279015,1.2304688,0.2256622,1.7666111,1.036808
						c0.2786102,0.1780548,0.3291111,0.4987602,0.473217,0.7615891c0.0247269,0.0792313,0.0328236,0.1618843,0.0540905,0.2416267
						c0.1489792,0.5586052-0.0322475,0.881752-0.5924339,1.0543861c-0.5608578,0.1728477-1.1185837,0.2305832-1.687748,0.0151787
						c-0.4184875-0.1583862-0.7383938-0.4030952-0.8908157-0.8382416
						C26.662468,43.8463745,26.5781174,43.5639915,26.7713604,43.311718z"/>
				</g>
				<g>
					<path class="st48" d="M46.576416,45.1221619c0.0805283,0.1844902,0.0019875,0.8442688-0.2429352,1.1634254
						c-0.3903809,0.508709-1.0779343,0.4697571-1.7021637,0.3499069c-0.4978294-0.0955849-1.0293732-0.2498589-1.3316154-0.6584473
						c-0.543045-0.7341232,0.0783997-1.9762726,1.0356445-1.8335686c0.3480644,0.0518913,0.5967979,0.3619232,0.9177284,0.5068398
						c0.2819748,0.1273232,0.6218681,0.1171646,0.8958015-0.0267715
						C46.2290535,44.8294258,46.4866447,44.9188156,46.576416,45.1221619z"/>
				</g>
				<g>
					<path class="st2" d="M36.5219917,43.466938c0.3574333-0.3692818,0.8012733-0.5834236,1.2883606-0.7160416
						c0.0745659-0.0203018,0.1296539-0.0436516,0.1449814-0.1243057c0.953125-0.0086708,1.8959618,0.0489578,2.7984543,0.4019432
						c0.3902664,0.152626,0.5351143,0.3037148,0.8608665,0.6498413c0.6352692,0.6749802,0.2140427,1.6184082-0.6922798,1.8816528
						c-1.1671333,0.3389969-2.3262596,0.2947197-3.4562683-0.1492577c-0.5317612-0.2089233-0.9463463-0.5708847-1.1096077-1.1534233
						C36.2754326,43.9680977,36.3083153,43.6969109,36.5219917,43.466938z"/>
				</g>
				<g>
					<path class="st2" d="M34.6151123,52.281208c-1.0103874-0.2075958-1.7637367-0.4727249-2.1482239-1.4289093
						c-0.0475349-0.9099121,0.4919052-1.3967514,1.2569809-1.666069c1.2451744-0.4383163,2.5112915-0.4832535,3.766304-0.0317574
						c0.4945984,0.1779366,0.9458122,0.4487038,1.1509857,0.9756737c0.246666,0.6335258-0.2013893,1.4800873-0.9384727,1.8071747
						c-0.1063766,0.0472069-0.2150726,0.0891457-0.3227577,0.1335716
						C36.1174927,52.5023079,35.2282372,52.3017235,34.6151123,52.281208z"/>
				</g>
				<g>
					<path class="st46" d="M25.4159966,47.8517914c-0.7380238,0.0349922-1.4753437,0.1137772-2.2014923-0.1263733
						c-0.6465378-0.2138138-1.0274239-0.6683693-0.9827347-1.1988487c0.0152645-0.1811562,0.1781273-0.3118477,0.14184-0.5018959
						c0.3674698-0.3987923,0.815258-0.6916542,1.2723503-0.9722366c0.3623066-0.1960297,0.7376404-0.223175,1.1255322-0.0875664
						c0.8680019,0.2551041,1.6083469,0.6928368,2.0993004,1.4847488c0.0234432,0.0378113,0.0262184,0.0885506,0.03862,0.1332664
						c0.0936108,0.1922531,0.0914364,0.3848648,0.0021095,0.5777931c-0.229969,0.4259911-0.637289,0.5211258-1.06604,0.5762939
						C25.7128048,47.8147926,25.5487289,47.7741737,25.4159966,47.8517914z"/>
				</g>
				<g>
					<path class="st2" d="M44.3819771,46.9732971c0.284729,0.1870956,0.5605965,0.4218864,0.6770172,0.7429619
						c0.1750298,0.4827309-0.0720673,1.0427513-0.4728355,1.3620453c-1.4098587,1.1232529-5.7953224,0.4683685-5.6888733-1.2801285
						c0.0757446-1.2441025,2.0402565-1.5922089,2.987606-1.5840759
						C42.7666092,46.2216682,43.6444016,46.4886398,44.3819771,46.9732971z"/>
				</g>
				<g>
					<path class="st2" d="M29.5432682,49.9941788c-0.3468609,0.7905884-1.0365448,1.1015244-1.8101692,1.2467422
						c-3.255146,0.6110687-6.6168518-1.9477196-2.1055336-3.1149826c1.2026539-0.1271744,2.9034977-0.0292778,3.6708317,0.9092407
						C29.5266533,49.3143463,29.6189289,49.6340218,29.5432682,49.9941788z"/>
				</g>
				<g>
					<path class="st2" d="M29.6220551,46.5090675c1.3056774-0.9048653,2.7080345-0.9858551,4.1700401-0.4745636
						c0.3602638,0.1259842,0.6574059,0.3674927,0.8944511,0.6717377c0.408577,0.5244026,0.3276939,1.1217003-0.207222,1.5132561
						c-1.6104736,1.1788559-5.8154106,0.8858147-5.3372345-0.9202957
						C29.1427708,46.9382324,29.298317,46.6721344,29.6220551,46.5090675z"/>
				</g>
				<g>
					<path class="st7" d="M29.6220551,46.5090675c-0.1883259,0.2459259-0.3858223,0.4862404-0.4798965,0.7900391
						c-0.6262207-0.0028572-1.3691082,0.1029816-1.4271355-0.3386078c-0.0295086-0.2245865,0.0967216-0.4027481,0.3273678-0.5187874
						c0.4634285-0.2331467,0.9383469-0.198349,1.4234982-0.1342354
						C29.5950394,46.3245392,29.5937347,46.4236908,29.6220551,46.5090675z"/>
				</g>
				<g>
					<path class="st56" d="M37.1054955,47.7905922c-0.1397705-0.2193794-0.096447-0.3545532,0.1622734-0.4429054
						c0.263752-0.0900803,0.5238266-0.1253624,0.7880936-0.043293c0.1977501,0.061409,0.372509,0.161541,0.3209419,0.4234352
						C38.045002,48.1022453,37.5104523,48.1286316,37.1054955,47.7905922z"/>
				</g>
				<g>
					<path class="st57" d="M31.4685249,45.2616882c-0.2113724-0.0242195-0.5067101,0.010231-0.5132065-0.2502251
						c-0.0070152-0.2814751,0.2944317-0.2837601,0.5091877-0.2839546c0.2265568-0.000206,0.5746441-0.0105934,0.5791912,0.2468147
						C32.0490341,45.2768288,31.6960812,45.2329025,31.4685249,45.2616882z"/>
				</g>
				<g>
					<path class="st58" d="M37.1054955,47.7905922c0.4334755,0.1772194,0.8591537,0.1951332,1.2713203-0.062767
						c0.1607742,0.1775551,0.1251526,0.3648758-0.1104927,0.4041901c-0.3557434,0.0593567-0.72369,0.0586128-1.0776939-0.010807
						C37.0602417,48.0960274,36.8720207,47.9667473,37.1054955,47.7905922z"/>
				</g>
			</g>
			<g>
				<path class="st59" d="M44.6342773,44.2311554c0.248497-0.2978058,0.4601707-0.6185341,0.6052704-0.9806938
					c0.1501312-0.3440628,0.3068886-0.6854286,0.4474258-1.0333977c0.0635147-0.1572685,0.1297455-0.1839256,0.283699-0.1036835
					c0.3788185,0.1974258,0.4798279,0.5844612,0.2518654,1.024189c-0.202137,0.3899002-0.8474998,0.7329674-0.6741982,0.9642639
					c0.0952759,0.1271591,0.2402191,0.0313072,0.3511543-0.0284233c0.5051765-0.2720032,0.7421455-0.7608643,1.0049667-1.2360382
					c0.077179-0.139534,0.0486832-0.4678001,0.3211288-0.3693924c0.2819786,0.1018524,0.1221771,0.3667908,0.0646629,0.5530243
					c-0.1612282,0.522068-0.7860565,1.3454018-1.1369629,1.5998497c-0.0955849,0.1543884-0.2386284,0.2064171-0.414238,0.2158661
					c-0.4154739,0.0223541-0.7366982-0.1961098-1.0589104-0.408432
					C44.6274033,44.3935356,44.535717,44.3227158,44.6342773,44.2311554z"/>
			</g>
			<g>
				<path class="st60" d="M35.2692337,40.3155899c-0.2558708,0.4837074-0.1765099,0.9178963,0.177784,1.3228645
					c0.1754227,0.2005081,0.3761177,0.3891029,0.4667206,0.6486664c0.0633965,0.1816292,0.3479042,0.0444221,0.3134193,0.2927704
					c-0.0112877,0.081295-0.0681686,0.1497955-0.1343536,0.1979561c-0.1753311,0.1275864-0.4079933,0.1346016-0.6244354,0.1286812
					c-0.230011-0.0062904-0.4698906-0.0245972-0.6673622-0.1431999c-0.2820053-0.1693726-0.7389641-0.7330208-0.844162-1.2880669
					c-0.1045456-0.5516357,0.1142235-1.0214577,0.4020462-1.4745102c0.2833176-0.4459534,0.6511803-0.8018188,1.1209526-1.0443916
					c0.1004562-0.0518723,0.2314796-0.1253662,0.3233147-0.02174
					C35.9716072,39.1246872,35.3579979,39.7887154,35.2692337,40.3155899z"/>
			</g>
		</g>
	</g>
	<g>
		<path d="M35.1734734,23.6769905l0.2662125-0.0273037c2.0137215-0.3258553,2.7894592-2.1479568,0.929306-3.9415035
			c-0.7527199-0.720789-1.4694176-1.0623989-1.7479324-1.2735291l-0.0716705-0.0585079
			c-0.0034142-0.0029259-0.0073166-0.0058517-0.0112152-0.0078011l-0.0546074-0.0663109
			c-0.1383858-0.3220539-0.1158371-0.6732807-0.0097542-1.0082912c0.2085571-0.4367065,0.3563881-0.554697,0.7879143-0.6933212
			l0.0804482,0.010725c0.0092621,0.0126781,0.02145,0.0234032,0.0380287,0.0321808
			c0.0242882,0.0579128,0.0336456,0.1126652,0.0565567,0.1462708c0.0572929,0.4233646,0.000885,0.5669937,0.0921516,0.8766479
			c0.1144562,0.3617363,0.6311378,0.5071297,0.8425179,0.3803024c0.4770279-0.2107792,0.7860184-0.6271305,0.7840118-1.2091694
			c-0.0139084-1.2796679-1.6297684-2.3317709-3.1262894-1.6713848c-1.3572083,0.6014099-1.7846985,2.3184452-1.2189217,3.471487
			c0.5821838,1.1926556,1.4857903,1.2003746,2.4987869,2.2184372c0.1312218,0.2018757,0.2013741,0.2210178,0.2949791,0.4592896
			l0.017067,0.137495c-0.0485039,0.3134022-0.3664246,0.4590511-0.6704063,0.550951
			c-0.1106796,0.0243797-0.2116051,0.0302296-0.2832794,0.0360813l-0.0663071-0.0078011
			c0.0389214-0.2305374,0.1926765-0.4488335-0.0877647-0.8542213c-0.3838768-0.5645256-1.3584671-0.7561874-1.6392021,0.037056
			c-0.1141281,0.4135895-0.1087875,0.7606983-0.0141411,1.106781
			C33.0643158,23.0359783,33.9185867,23.7424622,35.1734734,23.6769905z"/>
		<path d="M39.0301399,16.5487385l1.3203354,0.1199417c-0.015007,0.1000633-0.8366737,5.8605099-0.833252,5.992218
			c0.041378,1.1074142,1.590477,1.6169262,1.7786484,0.2642612c0.0137138-0.1007557,0.8234901-6.0510693,0.7718201-5.6713963
			c0.0432701-0.3097057,0.0353432-0.3101864,0.0463219-0.4261341c0.7165031,0.054493,1.1060905,0.1675262,1.5855713,0.0604572
			c0.4998055-0.1142864,0.8932953-0.520443,0.585083-0.9868383l-0.0341301-0.0448561
			c-0.4227219-0.5538778-1.1077576-0.6162863-1.6080017-0.662118l-3.8732452-0.3490992
			c-0.5468788-0.0486116-0.8557053,0.4865389-0.725502,0.8746977
			C38.1651955,16.1733112,38.5615883,16.5068073,39.0301399,16.5487385z"/>
		<path d="M44.611824,23.9636803c0.0009766,0.0009747,0.0024376,0.0029259,0.0039024,0.0048752
			c0.7304573,0.8482742,1.4581146,0.8680553,1.5582695,0.9078522c2.8066216,0.397398,3.3569412-3.6327515,4.0867958-6.1150837
			c0.0795135-0.2997093,0.2770233-0.7189789,0.1701622-1.0980034c-0.2061234-0.6372967-0.8822708-1.0110092-1.4193115-0.6055603
			c-0.6285706,0.5105648-1.0830536,6.4492302-3.0307236,6.0487747l-0.1755257-0.1238422
			c0,0-0.0287666-0.0390053-0.0433922-0.0585079c-0.0163651-0.0306396-0.0011826-0.0130196-0.0307198-0.0536327
			l-0.0331535-0.1033649c-0.0997314-0.7200203,0.2457085-1.7750702,0.4022446-2.3510551
			c0.15588-0.5335007,0.2238159-0.756813,0.8303299-2.698204c0.1866264-0.6404228,0.0898323-1.5057468-0.558754-1.6596832
			l-0.1579742-0.0117016c-0.7337112,0.0347462-0.9169083,1.0002022-1.1667519,1.7328186
			c-0.1652298,0.5107708-0.2825394,0.873415-0.6431007,2.0487633C43.9579391,21.355444,43.6504898,22.776226,44.611824,23.9636803z"
			/>
		<path d="M53.999958,18.3186131c-0.4719162-0.4085236-1.1631927-0.7145805-1.7581749-0.5636292
			c-0.4778175,0.1160412-0.7493935,0.6718693-0.9683113,1.1184807c-0.109066,0.2259235-1.5450172,2.9040508-2.4349136,5.5504799
			c-0.1657753,0.466116,0.064846,0.9575844,0.6177483,1.3144855C52.5326462,27.7242165,56.9312057,21.0121918,53.999958,18.3186131z
			 M50.8239365,24.1616325c0.6133881-1.5546894,1.4534607-3.349226,2.1535873-4.6670055l0.0204811,0.0195026
			c0.1324196,0.1048355,0.1135178,0.1221256,0.1921005,0.222332c0.0297394,0.0585079,0.0560684,0.1267681,0.0731354,0.1862507
			C53.6026611,21.3075428,52.213768,23.6637821,50.8239365,24.1616325z"/>
		<path d="M59.8517532,21.2508488c-0.0404701,0.0234032-0.0872765,0.0507069-0.0979996,0.0653343
			c-0.6038208,0.3701687-0.9537048,0.5991859-2.3559341,1.4363766c-0.0214272-1.5429382,0.0301895-2.5009689,0.0316925-2.6114159
			c0.0082893-0.2311077-0.1292038-0.5177975-0.273037-0.6864967c-0.4049187-0.4454079-0.9010239-0.4120216-1.1628532-0.0858116
			l-0.0653305,0.0955639c-0.0980034,0.1784496-0.1087303,0.3686008-0.108242,0.4895172
			c-0.0802345,2.605547,0.0287361,3.8687763,0.0312042,3.9688072c-0.3185654,0.5486012-0.6440239,1.148304-1.5548553,2.7966938
			c-0.1902504,0.3437881-0.0452499,0.9667492,0.3461723,1.2676773c0.0048752,0.0039005,0.0102386,0.0068264,0.0156021,0.0107269
			l0.132618,0.0819111c0.1426315,0.0738735,0.3131409,0.1240635,0.4651413,0.0721607
			c0.2749901-0.055582,0.4056587-0.2398834,0.4807434-0.3744526c1.1207657-2.0288639,1.3148346-2.3769188,1.563633-2.84935
			c0.2706833-0.1521835-0.541687,0.453907,2.8844528-1.6450558c0.6455803-0.4168606,0.8445587-0.4564991,0.9224815-0.9351578
			C61.2160339,21.6059475,60.4716988,20.9072952,59.8517532,21.2508488z"/>
		<path d="M35.7585564,26.940773c1.3320236,0.0407848,1.6394272,0.094244,1.992691-0.0029259
			c0.5373993-0.1665916,0.9044571-0.6436386,0.6718712-1.1136055c-0.3528786-0.8148823-1.7693558-0.6409149-3.193573-0.7157497
			c-0.9671593-0.023632-1.1565742,0.2611923-1.2823067,0.7791328c-0.3463364,1.6573467-0.8017883,4.8836555-0.9439316,6.8805676
			c-0.0407104,0.5311966-0.1771317,0.9508705,0.2179451,1.4041977c0.1921005,0.2330551,0.4948807,0.3822517,0.7898598,0.3900528
			c0.0092621,0,0.0180397,0,0.0273018,0c0.1526108,0,0.3096085-0.039978,0.4573402-0.1160393
			c0.4606438-0.2411423,0.4082527-0.8130722,0.4422264-1.1935692c0.1454926-1.4022541-0.001564-0.2328491,0.282299-2.7099056
			l1.5202408,0.0516834c1.4663963-0.0357666,1.2324219-1.7310677-0.2496338-1.824482l-1.0224342-0.0282784
			C35.5788956,27.9293251,35.5549355,28.2293587,35.7585564,26.940773z"/>
		<path d="M45.317337,28.950531c0.1005783-0.2945175,0.3739967-0.7825298,0.2827911-1.2111206
			c-0.088253-0.3451977-0.3622665-0.7401295-0.8069267-0.8493443c-0.1002655,0.0077267-0.3396187-0.0985966-0.7186775,0.1618729
			c-0.1409073,0.1062908-0.2101402,0.2545109-0.2584114,0.3822536c-0.8311348,2.2301292-0.3611069,1.0845299-1.0658226,3.0843582
			l-0.0302315,0.0819111c-0.4682465,1.2514229-1.3177299,3.4784985-2.6201935,3.1867466l-0.1828346-0.1316414
			c-0.0156059-0.018528-0.0346184-0.0419312-0.0355949-0.0429077c-0.0024376-0.0058517-0.0097504-0.0175514-0.0160904-0.0282784
			c-0.0024376-0.0078011-0.0048752-0.0156021-0.0082893-0.0224266c-0.0058479-0.0136528-0.0141373-0.0282784-0.0243759-0.0419312
			l-0.0302315-0.1179924c-0.0618019-1.0445023,0.7060547-2.7995777,1.8200951-5.6343422
			c0.2579041-0.6935387,0.2323227-1.662735-0.4880562-1.8381329l-0.1755257-0.0146275
			c-0.6767426,0.0282803-0.9965897,0.8259411-1.1706505,1.2598782c-1.1554565,3.10923-2.6813583,5.6212368-1.2632904,7.5183048
			c0.1004143,0.0801659,0.7425156,1.0531502,2.074604,1.0531502c1.2669907,0,2.1058273-0.7996788,2.7747536-1.8742142
			C44.3614883,32.2700348,44.8504333,30.2042923,45.317337,28.950531z"/>
		<path d="M47.1203651,33.8203659c1.0687141,0.4326172,2.198597,0.0464478,1.5953255-0.9302826
			c-0.5576286-0.8086967-1.3964882-0.9812984-1.653347-1.1116562c0.2564697-0.5078087,0.7067108-1.380127,1.0848389-2.0809422
			c0.1006241,0.0346355,0.4550514,0.2064877,1.5309677,0.492445c0.3992462,0.0939407,0.7819061,0.1205654,0.9746475-0.2603626
			c0.1883316-0.3587246,0.1103821-0.832943-0.5265732-1.2871799c-0.8839111-0.6211872-2.0400658-0.956852-2.2983971-1.0638752
			c-0.2042923-0.0614319-0.3988304-0.0526562-0.5782585,0.0341301c-0.2038002,0.0984898-0.2959518,0.2525616-0.3812752,0.3959064
			c-1.2428741,2.2720032-2.8384132,5.5066109-3.6411629,7.3340034c-0.2077332,0.4812851,0.0750809,1.1466866,0.4714775,1.3583679
			c0.7992363,0.417469,1.6679916,0.7408409,2.3495941,1.0160904c0.3166199,0.1266479,0.7468262,0.0295105,0.9605103-0.3978539
			c0.2612-0.5062447-0.0209122-1.2450905-0.6362762-1.4909859c-0.3481255-0.1384697-0.7025871-0.280838-1.0546112-0.4290581
			c0.3027802-0.6562691,0.6084862-1.3037605,0.9190674-1.9570999
			C46.5964241,33.6281967,46.4806938,33.5576477,47.1203651,33.8203659z"/>
		<path d="M51.3992653,30.460043c-1.1836472,1.6599941-2.9007912,4.6464138-3.8864059,6.434927
			c-0.0365639,0.1000214-0.3168068,0.4465981-0.1618729,0.9322319c0.2556686,0.7989693,1.4768486,1.1912498,2.5236511,1.7328186
			c0.1484833,0.0736389,0.4958305,0.3286209,0.9068794,0.3286209c0.361763,0,0.6564178-0.1966248,0.7635307-0.6396904
			c0.0677719-0.2896156-0.0034103-0.5821571-0.2125778-0.884449c-0.2151031-0.3430748-0.470253-0.4067535-1.8391075-1.1038551
			c1.4672356-2.6395302,2.7256546-4.5440216,3.2905998-5.4558907C53.8307686,30.0472698,52.2376785,29.2053165,51.3992653,30.460043
			z"/>
	</g>
</g>
</svg>
